<?xml version="1.0" encoding="utf-8"?>
<!-- Generator: Adobe Illustrator 17.0.1, SVG Export Plug-In . SVG Version: 6.00 Build 0)  -->
<!DOCTYPE svg PUBLIC "-//W3C//DTD SVG 1.1//EN" "http://www.w3.org/Graphics/SVG/1.1/DTD/svg11.dtd">
<svg version="1.1" id="Layer_1" xmlns="http://www.w3.org/2000/svg" xmlns:xlink="http://www.w3.org/1999/xlink" x="0px" y="0px"
	 width="384.772px" height="90.457px" viewBox="1.552 102.154 384.772 90.457"
	 enable-background="new 1.552 102.154 384.772 90.457" xml:space="preserve">
<g>
	<g id="Layer_1_1_">
		<g>
			<g id="Layer_1_3_">
				<g>
					<path fill="none" stroke="#292929" stroke-width="1.5677" stroke-linecap="round" stroke-miterlimit="10" d="M48.027,120.616
						c0.383,0.204,1.212,0.361,2.49,0.469c1.457,0.119,2.654,0.067,3.589-0.157c1.036-0.25,1.838-0.623,2.411-1.114
						c0.398-0.338,0.728-0.77,0.991-1.298"/>
					<path fill="none" stroke="#292929" stroke-width="1.5677" stroke-linecap="round" stroke-miterlimit="10" d="M50.088,118.345
						c-0.072,0.654,0.195,1.288,0.801,1.899c0.545,0.526,1.053,0.819,1.527,0.881"/>
					<path fill="none" stroke="#292929" stroke-width="1.5677" stroke-linecap="round" stroke-miterlimit="10" d="M56.354,118.002
						c0.097,0.285,0.125,0.65,0.083,1.091c-0.049,0.556-0.212,0.933-0.487,1.131"/>
					<path fill="none" stroke="#292929" stroke-width="1.5677" stroke-linecap="round" stroke-miterlimit="10" d="M83.693,127.706
						c-0.078,1.312-0.649,3.014-1.712,5.107c-1.395,2.714-3.119,4.693-5.167,5.936c-2.116,1.273-5.122,2.416-9.016,3.436
						c-3.262,0.875-5.774,1.35-7.54,1.426c-1.271,0.056-4.699,0.017-10.286-0.118c-5.257-0.15-8.869-0.283-10.837-0.401
						c-10.461-0.625-16.454-1.006-17.975-1.147c-0.491-0.046-2.099-0.133-4.822-0.263c-2.247-0.117-3.697-0.237-4.348-0.357
						c-1.562-0.292-2.978-0.713-4.244-1.266c-2.004-0.893-3.102-1.921-3.296-3.083"/>
					<path fill="none" stroke="#292929" stroke-width="1.5677" stroke-linecap="round" stroke-miterlimit="10" d="M5.752,137.472
						c0.049,0.283,0.198,0.554,0.445,0.815c0.232,0.261,0.406,0.377,0.523,0.352c0.099-0.01,0.133-0.163,0.101-0.462
						c0.001-0.017-0.034-0.249-0.107-0.697"/>
					<path fill="none" stroke="#292929" stroke-width="1.5677" stroke-linecap="round" stroke-miterlimit="10" d="M7.575,137.531
						c0.354,1.222,0.74,1.797,1.156,1.722c0.25-0.052,0.348-0.309,0.293-0.773c-0.117-0.516-0.195-0.858-0.235-1.024"/>
					<path fill="none" stroke="#292929" stroke-width="1.5677" stroke-linecap="round" stroke-miterlimit="10" d="M10.143,137.092
						c0.1,0.253,0.228,0.466,0.381,0.64c0.169,0.208,0.304,0.289,0.406,0.247c0.068-0.047,0.097-0.257,0.087-0.635
						c-0.042-0.415-0.06-0.663-0.054-0.745"/>
					<path fill="none" stroke="#292929" stroke-width="1.5677" stroke-linecap="round" stroke-miterlimit="10" d="M13.386,136.52
						c0.026,0.116,0.076,0.391,0.148,0.823c0.091,0.401,0.195,0.605,0.309,0.611c0.131,0.008,0.241-0.192,0.331-0.597
						c0.066-0.277,0.105-0.511,0.116-0.71"/>
					<path fill="none" stroke="#292929" stroke-width="1.5677" stroke-linecap="round" stroke-miterlimit="10" d="M15.776,137.033
						c0.023,0.165,0.044,0.511,0.062,1.04c0.072,0.448,0.222,0.696,0.449,0.742c0.228,0.047,0.39-0.183,0.485-0.686
						c0.065-0.541,0.109-0.85,0.13-0.932"/>
					<path fill="none" stroke="#292929" stroke-width="1.5677" stroke-linecap="round" stroke-miterlimit="10" d="M21.926,137.77
						c0.072,0.168,0.281,0.667,0.627,1.494c0.368,0.729,0.726,1.071,1.074,1.026c0.349-0.061,0.469-0.548,0.358-1.459l-0.263-1.373"
						/>
					<path fill="none" stroke="#292929" stroke-width="1.5677" stroke-linecap="round" stroke-miterlimit="10" d="M25.813,136.768
						c0.132,0.271,0.305,0.536,0.52,0.796c0.275,0.362,0.496,0.506,0.665,0.435c0.153-0.072,0.229-0.389,0.23-0.949
						c-0.031-0.578-0.044-0.917-0.039-1.015"/>
					<path fill="none" stroke="#292929" stroke-width="1.5677" stroke-linecap="round" stroke-miterlimit="10" d="M29.093,135.16
						c0.499,0.737,0.842,1.063,1.027,0.976c0.101-0.043,0.156-0.272,0.164-0.681c0.003-0.328-0.014-0.594-0.051-0.792"/>
					<path fill="none" stroke="#292929" stroke-width="1.5677" stroke-linecap="round" stroke-miterlimit="10" d="M46.48,120.918
						c0.26,0.066,0.751-0.053,1.478-0.356c0.759-0.3,1.254-0.599,1.485-0.898c0.125-0.173,0.276-0.486,0.45-0.936
						c0.192-0.465,0.449-0.92,0.772-1.361c0.635-0.719,1.432-1.091,2.387-1.116c0.281-0.016,0.885,0.069,1.811,0.257
						c0.71,0.8,1.247,1.317,1.612,1.552c0.935,0.599,1.863,0.622,2.785,0.067c0.167,0.224,0.458,0.456,0.872,0.694
						c0.509,0.277,1.072,0.492,1.689,0.644c0.227,0.063,0.937,0.278,2.134,0.645c1.31,0.391,2.526,0.67,3.653,0.835
						c3.491,0.505,6.116-0.046,7.873-1.653"/>
					<path fill="none" stroke="#292929" stroke-width="1.5677" stroke-linecap="round" stroke-miterlimit="10" d="M60.204,143.657
						c1.07-0.003,2.831,0.11,5.287,0.339c2.815,0.268,4.814,0.543,5.998,0.828c1.313,0.325,4.685,0.764,10.116,1.319
						c5.431,0.538,9.306,0.828,11.623,0.865c0.855,0.019,4.439,0.488,10.752,1.408c5.204,0.756,8.453,0.899,9.749,0.433"/>
					<path fill="none" stroke="#292929" stroke-width="1.5677" stroke-linecap="round" stroke-miterlimit="10" d="M123.877,124.795
						c1.901-0.149,3.248,0.433,4.043,1.747c0.434,0.734,0.728,1.861,0.884,3.384c0.049,0.562-0.105,2.167-0.46,4.811
						c-0.481,3.378-0.807,6.502-0.978,9.371c-0.18,3.018-0.839,5.801-1.978,8.348c-0.798,1.798-1.781,3.366-2.947,4.714
						c-0.814,0.954-4.068,3.36-9.761,7.217c-5.54,3.767-12.278,8.869-12.278,8.869c-0.58,1.166-0.87,2.022-0.87,2.566
						c0.001,0.526,0.558,1.676,1.67,3.455c0.587,0.925,1.317,2.055,2.193,3.389c-1.423,0.129-2.75-0.517-3.982-1.941
						c-1.227-1.766-2.102-2.962-2.624-3.587c-0.302-0.461-1.021,0.547-2.155,3.031c-0.622,2.973-1.009,4.769-1.161,5.385
						c-0.398,1.72-0.745,2.852-1.041,3.394c-0.357-0.087-0.496-0.787-0.418-2.099c0.076-1.822,0.039-3.116-0.114-3.882
						c-0.259-1.167-0.977-1.688-2.153-1.559c-0.894,0.094-4.732,4.16-5.891,5.671c-1.017,1.322-1.65,2.427-1.901,3.318
						c-0.673-1.407-0.7-3.005-0.085-4.795c0.847-1.775,1.368-2.921,1.564-3.435c0.292-0.758,0.348-1.279,0.167-1.57
						c-0.147-0.29-0.623-0.581-1.429-0.876c-0.723-0.274-1.895-0.088-3.514,0.556c-1.432,0.556-2.918,1.332-4.459,2.326
						c0.561-1.677,1.775-3.128,3.641-4.349c1.062-0.695,2.693-1.576,4.896-2.645c-0.997-0.125-5.951-1.079-6.697-0.696
						c0.882-1.823,2.726-2.923,5.529-3.299c1.46-0.192,3.187-0.303,5.18-0.331c0.769-0.217,2.746-1.77,5.93-4.657
						c2.818-2.548,4.949-4.609,6.392-6.184c0.914-0.998,3.236-2.786,6.96-5.362c4.841-3.364,7.357-5.116,7.546-5.251
						c0.051-0.853,0.255-2.339,0.611-4.456c0.342-2.135,0.604-3.494,0.786-4.076"/>
					<path fill="none" stroke="#292929" stroke-width="1.5677" stroke-linecap="round" stroke-miterlimit="10" d="M126.842,147.927
						c0.659-0.025,3.244-0.193,7.755-0.5c4.576-0.303,7.751-0.418,9.524-0.345c0.886,0.037,6.362,0.091,16.429,0.165
						c9.509,0.056,15.476,0.157,17.902,0.301c3.51,0.209,9.576,0.153,18.202-0.171c9.103-0.347,14.479-0.791,16.123-1.335"/>
					<path fill="none" stroke="#292929" stroke-width="1.5677" stroke-linecap="round" stroke-miterlimit="10" d="M222.546,116.808
						c-2.098,0.945-4.418,2.7-6.953,5.263c-3.64,3.634-5.332,7.153-5.073,10.558c0.276,3.636,0.931,7.551,1.965,11.743
						c0.889,3.591,1.726,6.232,2.514,7.925c0.596,1.318,0.835,2.707,0.715,4.164c-0.125,1.276-0.433,2.163-0.924,2.66
						c-0.35,0.341-1.441,0.704-3.273,1.089c-2.048,0.37-3.336,0.623-3.871,0.757c-0.818,0.198-1.75,0.503-2.795,0.92
						c-1.062,0.414-1.722,0.737-1.984,0.968c-3.008-0.344-5.001-0.421-5.983-0.234c-2.429,0.432-4.641,1.945-6.641,4.54
						c0.763-0.366,6.887-0.28,8.897,0.235c-2.652,1.438-4.493,2.499-5.52,3.176c-2.774,1.825-4.564,3.553-5.371,5.185
						c1.468-0.85,3.722-1.671,6.765-2.46c2.49-0.642,4.406-1.43,5.263-1.461c0.308,0.364-2.565,5.176-3.995,7.066
						c-1.573,2.094-2.646,3.947-3.219,5.559c5.004-3.915,7.866-5.957,8.584-6.128c0.785-0.185,1.7-0.211,2.746-0.083
						c1.341,0.145,2.057,0.566,2.147,1.263c0.066,0.53,0.061,1.888-0.021,4.072c0.108,2.047,0.712,3.366,1.812,3.959
						c-0.016-1.678-0.014-2.955,0.005-3.825c0.013-1.58,0.434-2.986,1.264-4.22c1.047-1.549,2.531-3.115,4.452-4.696
						c1.956-1.628,3.805-2.801,5.541-3.52c2.515-1.034,4.759-2.372,6.732-4.015c2.753-2.287,4.296-4.716,4.63-7.278
						c0.335-2.612-0.259-6.417-1.787-11.412c-1.293-4.239-2.611-7.544-3.951-9.91"/>
					<path fill="none" stroke="#292929" stroke-width="1.5677" stroke-linecap="round" stroke-miterlimit="10" d="M228.086,145.153
						c0.562-0.031,4.752-0.367,12.574-1.002c8.07-0.653,13.258-1.011,15.566-1.071c3.61-0.097,15.527,0.227,35.756,0.974
						c21.396,0.782,33.805,1.448,37.227,1.997c5.102,0.832,19.481,3.202,43.141,7.115c4.256,0.666,6.777,1.022,7.564,1.068
						c3.049,0.214,4.817-0.214,5.309-1.288c0.624-1.345,0.327-2.72-0.889-4.125c-1.402-1.614-4.054-3.335-7.96-5.165
						c-3.195-1.078-5.05-1.831-5.567-2.256c-0.329-0.267-1.111-0.551-2.343-0.855c-1.153-0.283-2.04-0.426-2.666-0.431
						c-0.163,0.006-0.554-0.223-1.167-0.687c-0.725-0.52-1.217-0.838-1.474-0.951c-0.305-0.134-1.315-0.293-3.032-0.478
						c-1.813-0.206-2.81-0.331-2.989-0.375c-0.372-0.088-1.256-0.437-2.651-1.047c-1.347-0.589-2.268-1.023-2.762-1.299
						c-0.381-0.221-1.471-0.434-3.269-0.64c-1.882-0.179-2.979-0.284-3.288-0.32c-0.375-0.039-1.156-0.331-2.341-0.88
						c-1.489-0.698-2.258-1.057-2.307-1.075c-0.691-0.272-1.951-0.396-3.777-0.373c-0.627,0.013-1.414-0.175-2.363-0.56
						c-0.239-0.097-0.96-0.427-2.161-0.993c-0.399-0.188-1.383-0.387-2.949-0.595c-1.242-0.156-2.273-0.259-3.093-0.308
						c-1.377-0.083-2.258-0.497-2.64-1.244c-0.192-0.372-0.995-0.561-2.411-0.563c-1.695-0.002-2.67-0.052-2.928-0.15
						c-0.031-0.561-0.588-0.899-1.668-1.013c-1.346-0.03-2.29-0.078-2.829-0.144c-0.299-0.511-1.246-0.905-2.843-1.181
						c-0.538-0.098-2.149-0.284-4.83-0.56c-0.453-0.685-1.324-1.115-2.613-1.291c-0.996-0.141-2.125-0.126-3.384,0.045
						c0.059-0.967-0.708-1.524-2.295-1.667c-1.095-0.115-2.416-0.038-3.963,0.232c0.007-0.394-0.216-0.638-0.673-0.732
						c-0.438-0.092-1.06-0.03-1.861,0.185c-0.607-0.875-1.55-1.441-2.835-1.699c-0.409-0.074-1.208-0.022-2.405,0.153
						c-1.094,0.149-2.199,0.049-3.314-0.297c-0.406-0.912-1.258-1.374-2.559-1.387c-0.527,0.001-1.473,0.143-2.839,0.423
						c-0.167-0.504-0.481-0.778-0.939-0.821c-0.278-0.033-0.841,0.041-1.692,0.219c-1.151-1.106-4.724-1.763-10.717-1.972
						c-0.297-0.545-0.95-0.904-1.961-1.08c-1.057-0.211-2.139-0.136-3.247,0.226c-0.066-0.251-0.383-0.467-0.947-0.649
						c-0.678-0.222-1.431-0.283-2.261-0.184c-0.486-0.671-1.734-1.115-3.746-1.334c-1.522-0.157-2.984-0.169-4.391-0.04
						c-0.265-0.806-1.592-1.321-3.982-1.546c-2.209-0.196-3.712-0.114-4.507,0.25c-0.478-1.082-1.543-1.597-3.191-1.547
						c-0.478,0.021-1.66,0.238-3.544,0.652c-0.275-1.185-1.371-1.719-3.287-1.603c-2.062,0.37-3.325,0.566-3.787,0.588
						c-0.023-1.828-1.543-2.273-4.561-1.334c-0.304,0.114-0.715,0.114-1.234,0.001c-0.763-0.161-1.269-0.249-1.513-0.263
						c0.032-0.854-0.524-1.306-1.674-1.359c-0.605-0.02-1.551,0.096-2.833,0.349c-0.786-0.08-1.62-0.146-2.506-0.199
						c-0.047-0.858-1.034-1.131-2.962-0.818c-0.33,0.045-0.804,0.075-1.413,0.088c-0.824,0.017-1.465,0.036-1.928,0.057
						c-0.401-0.451-1.151-0.71-2.249-0.775c-0.95-0.056-1.755,0.027-2.41,0.251c-0.182-0.258-0.563-0.338-1.147-0.24
						c-0.448,0.072-0.9,0.217-1.359,0.437c-0.55-0.691-1.39-0.964-2.518-0.817c-0.962,0.123-1.637,0.404-2.025,0.842
						c-0.119-0.205-0.417-0.329-0.892-0.375c-0.508-0.03-0.9,0.053-1.175,0.252c-0.346-0.564-0.923-0.812-1.733-0.745
						c-0.677,0.043-1.34,0.265-1.99,0.672c-0.278-0.314-0.781-0.434-1.508-0.362c-0.597,0.064-1.248,0.23-1.956,0.501
						c-0.491-0.869-1.626-1.142-3.406-0.82c-0.398,0.059-1.595,0.398-3.591,1.02c-0.452-0.981-1.571-1.385-3.358-1.212
						c-1.258,0.123-2.546,0.465-3.863,1.028c-0.819-0.888-2.059-1.218-3.718-0.987c-1.11,0.131-2.074,0.412-2.889,0.84
						c-0.767-0.672-2.557-0.86-5.372-0.568c-2.765,0.28-4.322,0.73-4.672,1.35c-0.749-0.407-1.806-0.494-3.169-0.262
						c-0.765,0.135-1.919,0.454-3.463,0.954c-0.76-0.523-1.777-0.568-3.053-0.133c-1.352,0.61-2.256,1.001-2.711,1.172
						c-0.582-0.463-1.432-0.555-2.55-0.276c-0.885,0.211-1.56,0.508-2.028,0.891c-0.277,0.23-0.667,0.413-1.168,0.547
						c-0.334,0.079-0.891,0.169-1.67,0.271c-0.759-0.523-1.627-0.574-2.608-0.156c-0.642,0.274-1.278,0.73-1.908,1.367
						c-0.299-0.232-0.922-0.261-1.871-0.087c-0.631,0.11-1.676,0.386-3.134,0.826c-0.816-1.481-1.993-1.757-3.529-0.828
						c-1.525,1.291-2.448,2.01-2.77,2.155c-0.39,0.175-0.802,0.199-1.238,0.074c-0.514-0.212-0.95-0.352-1.307-0.423
						c-0.325-0.068-0.934,0.208-1.827,0.829c-0.995,0.68-1.899,1.071-2.711,1.172c-2.316-1.998-4.483-2.794-6.498-2.387
						c-1.049,0.217-2.276,0.926-3.681,2.126c-0.328-0.842-1.001-0.882-2.017-0.12c-1.811-1.622-3.309-2.18-4.491-1.674
						c-0.422,0.172-0.963,0.551-1.623,1.137c-0.869,0.771-1.491,1.286-1.87,1.543c-2.414-2.019-4.416-2.788-6.008-2.309
						c-0.536,0.149-1.082,0.471-1.638,0.965c-0.525,0.528-0.907,0.867-1.147,1.018c-0.588,0.212-2.254,0.129-4.997-0.249
						c-3.244-0.506-5.479-0.837-6.704-0.993c-1.584-0.193-3.484-0.06-5.701,0.4c-1.116,0.246-2.581,0.653-4.393,1.219
						c-0.23-0.277-0.629-0.49-1.197-0.639c-0.599-0.167-0.972-0.116-1.12,0.155c-0.944-0.731-2.021-1.14-3.234-1.229
						c-1.097-0.082-2.178,0.1-3.242,0.547c-0.911,0.373-1.941,1.242-3.092,2.604c-0.992,1.175-1.733,2.283-2.223,3.324
						c-0.741,0.022-1.688,0.573-2.839,1.657c-1.463,1.361-2.653,2.261-3.567,2.7c-1.255,0.617-3.579,1.367-6.971,2.25
						c-0.486,0.135-2.355,0.592-5.611,1.369l-6.983,1.606c-0.067,0.013-0.746,0.088-2.037,0.225
						c-1.176,0.126-1.907,0.248-2.194,0.363c-0.374-0.351-0.943-0.739-1.708-1.162c-0.83-0.427-1.389-0.717-1.676-0.865
						c-0.528-0.262-1.114-0.354-1.761-0.279c-0.795,0.085-1.548,0.442-2.261,1.075c-1.215,0.502-2.266,1.155-3.153,1.96
						c-0.974,0.879-1.58,1.798-1.819,2.755c-0.234,0.89-0.143,1.571,0.273,2.04c0.169,0.206,0.739,0.586,1.71,1.139
						c0.636,0.367,1.612,0.556,2.928,0.57c1.069-0.002,1.881-0.087,2.434-0.25c0.201-0.054,0.593-0.285,1.177-0.696
						c0.463-0.318,0.826-0.453,1.086-0.404c0.227,0.046,1.136,0.258,2.726,0.631c1.822,0.371,3.573,0.65,5.258,0.832
						c1.699,0.184,3.264,0.031,4.693-0.46c0.789-0.265,1.711-0.687,2.765-1.267c0.49-0.217,1.354-0.634,2.592-1.251
						c1.247-0.487,2.53-0.624,3.85-0.414c5.004,0.808,9.583,0.868,13.738,0.178c2.21-0.362,4.729-1.356,7.557-2.981
						c0.784-0.446,2.812-1.764,6.086-3.956c1.389-0.937,2.927-1.488,4.615-1.65c0.859-0.065,2.239-0.006,4.137,0.172
						c1.832,0.175,3.228,0.226,4.187,0.152c1.67-0.132,3.122-0.603,4.355-1.419"/>
					<path fill="none" stroke="#292929" stroke-width="1.5677" stroke-linecap="round" stroke-miterlimit="10" d="M76.062,114.514
						c1.592-1.041,2.766-1.703,3.525-1.986c1.683-0.641,3.052-0.55,4.106,0.27c1.196-1.015,2.928-1.652,5.199-1.912
						c2.418-0.283,4.132,0.098,5.139,1.145c1.99-0.803,3.84-1.343,5.552-1.619c2.377-0.401,4.175-0.211,5.396,0.569
						c0.949-0.175,1.928-0.461,2.939-0.861c0.669-0.175,1.247,0.074,1.733,0.744c0.953,0.024,2.191-0.454,3.713-1.432
						c1.25-0.814,2.231-0.995,2.944-0.54c0.836-0.213,2.231-0.583,4.188-1.108c1.682-0.327,2.973-0.193,3.876,0.404
						c2.028-0.9,3.284-1.4,3.767-1.503c1.286-0.302,2.447-0.051,3.484,0.75c1.57-0.943,3.263-1.599,5.079-1.968
						c1.934-0.412,3.31-0.329,4.131,0.247c1.173-0.621,1.96-0.977,2.359-1.068c1.001-0.237,1.84,0.052,2.516,0.866
						c0.695-0.617,2.097-1.076,4.204-1.379c2.241-0.31,3.728-0.147,4.464,0.488c1.158-0.671,2.968-1.066,5.426-1.182
						c2.442-0.118,3.844,0.107,4.206,0.671c1.01-0.105,2.707-0.407,5.09-0.905c1.435-0.326,2.464-0.355,3.09-0.088
						c2.248,0.94,3.8,1.394,4.659,1.364c0.214-0.003,0.974-0.205,2.283-0.604c1.122-0.345,1.87-0.447,2.24-0.31
						c0.322,0.118,0.884,0.349,1.686,0.693c0.675,0.271,1.112,0.395,1.311,0.374c2.505-0.345,4.118-0.215,4.84,0.388"/>
					<path fill="#292929" d="M50.065,118.32c0.116-0.274,0.316-0.59,0.6-0.952c0.635-0.719,1.432-1.091,2.387-1.116
						c0.281-0.016,0.885,0.069,1.811,0.257c0.569,0.692,1.066,1.182,1.492,1.471c0.097,0.285,0.125,0.657,0.082,1.116
						c-0.049,0.556-0.212,0.933-0.487,1.131c-0.512,0.315-1.127,0.55-1.844,0.703c-0.534,0.117-1.097,0.182-1.69,0.196
						c-0.473-0.062-0.982-0.364-1.526-0.905C50.269,119.607,49.993,118.973,50.065,118.32z"/>
					<path fill="#FFFFFF" d="M53.024,118.372c-0.019,0.311-0.149,0.566-0.392,0.766c-0.227,0.217-0.496,0.316-0.807,0.298
						c-0.311-0.019-0.575-0.149-0.791-0.393c-0.2-0.226-0.291-0.494-0.273-0.806c0.02-0.327,0.142-0.592,0.368-0.792
						c0.244-0.216,0.522-0.316,0.832-0.297c0.311,0.019,0.566,0.149,0.766,0.392C52.945,117.783,53.043,118.061,53.024,118.372z"/>
				</g>
			</g>
		</g>
	</g>
</g>
</svg>
