<?xml version="1.0" encoding="utf-8"?>
<!-- Generator: Adobe Illustrator 17.0.1, SVG Export Plug-In . SVG Version: 6.00 Build 0)  -->
<!DOCTYPE svg PUBLIC "-//W3C//DTD SVG 1.1//EN" "http://www.w3.org/Graphics/SVG/1.1/DTD/svg11.dtd">
<svg version="1.1" id="Layer_1" xmlns="http://www.w3.org/2000/svg" xmlns:xlink="http://www.w3.org/1999/xlink" x="0px" y="0px"
	 width="256.884px" height="211.653px" viewBox="1.246 27.494 256.884 211.653"
	 enable-background="new 1.246 27.494 256.884 211.653" xml:space="preserve">
<g id="Layer_1_3_">
	<g>
		
			<path fill="none" stroke="#383635" stroke-width="1.5085" stroke-linecap="round" stroke-linejoin="round" stroke-miterlimit="3" d="
			M241.447,38.026c0.648,1.04,1.028,2.22,1.144,3.537c0.093,1.132-0.012,2.577-0.313,4.333"/>
		
			<path fill="none" stroke="#383635" stroke-width="1.5085" stroke-linecap="round" stroke-linejoin="round" stroke-miterlimit="3" d="
			M250.426,53.246c-0.369-0.601-1.167-1.364-2.392-2.288c-0.624-0.485-2.092-1.537-4.403-3.155"/>
		
			<path fill="none" stroke="#383635" stroke-width="1.5085" stroke-linecap="round" stroke-linejoin="round" stroke-miterlimit="3" d="
			M234.131,28.249c-8.413,8.413-12.481,15.844-12.205,22.294"/>
		
			<path fill="none" stroke="#383635" stroke-width="1.5085" stroke-linecap="round" stroke-linejoin="round" stroke-miterlimit="3" d="
			M253.685,63.821c-3.305,1.664-8.008,2.207-14.11,1.63c-3.836-0.393-6.772-1.156-8.806-2.289c-2.058-1.156-3.294-2.738-3.71-4.75"
			/>
		
			<path fill="none" stroke="#383635" stroke-width="1.5085" stroke-linecap="round" stroke-linejoin="round" stroke-miterlimit="3" d="
			M182.54,95.337c9.039-5.501,13.556-8.402,13.556-8.702c4.993-3.86,8.171-8.749,9.535-14.666"/>
		
			<path fill="none" stroke="#383635" stroke-width="1.5085" stroke-linecap="round" stroke-linejoin="round" stroke-miterlimit="3" d="
			M218.39,33.137c-3.791,6.194-4.877,12.805-3.258,19.832"/>
		<g>
			<path fill="#FFFFFF" d="M213.101,197.52c2.456-0.106,4.465,0.962,6.028,3.204c2.927,4.02,1.019,8.52-5.727,13.503
				c-3.251,2.367-6.118,3.604-8.6,3.71c-2.455,0.105-4.472-0.899-6.053-3.01c-1.466-2.157-1.724-4.345-0.77-6.566
				c0.904-2.142,3.016-4.501,6.334-7.08C207.754,198.863,210.684,197.609,213.101,197.52z"/>
			<g>
				<g>
					
						<path fill="none" stroke="#383635" stroke-width="1.5085" stroke-linecap="round" stroke-linejoin="round" stroke-miterlimit="3" d="
						M160.374,211.345c2.913-1.987,6.166-3.343,9.759-4.068c3.619-0.729,7.441-0.797,11.472-0.208"/>
					
						<path fill="none" stroke="#383635" stroke-width="1.5085" stroke-linecap="round" stroke-linejoin="round" stroke-miterlimit="3" d="
						M227.086,202.594c-2.335,1.722-5.996,3.045-10.981,3.967c-2.833,0.254-5.151,0.081-6.952-0.522
						c-1.868-0.64-3.103-1.715-3.708-3.225"/>
					
						<path fill="none" stroke="#383635" stroke-width="1.5085" stroke-linecap="round" stroke-linejoin="round" stroke-miterlimit="3" d="
						M219.083,213.521c-7.673,0.141-13.377-1.597-17.105-5.205"/>
					
						<path fill="none" stroke="#383635" stroke-width="1.5085" stroke-linecap="round" stroke-linejoin="round" stroke-miterlimit="3" d="
						M206.262,178.077c-5.136,8.047-7.174,14.527-6.112,19.44"/>
					
						<path fill="none" stroke="#383635" stroke-width="1.5085" stroke-linecap="round" stroke-linejoin="round" stroke-miterlimit="3" d="
						M222.72,194.982c-0.287-0.253-0.96-0.648-2.022-1.178c-0.452-0.231-1.811-0.881-4.077-1.947"/>
					
						<path fill="none" stroke="#383635" stroke-width="1.5085" stroke-linecap="round" stroke-linejoin="round" stroke-miterlimit="3" d="
						M176.938,238.393c1.524-1.493,4.631-4.452,9.324-8.878c3.065-3.776,4.684-8.059,4.856-12.85"/>
					
						<path fill="none" stroke="#383635" stroke-width="1.5085" stroke-linecap="round" stroke-linejoin="round" stroke-miterlimit="3" d="
						M194.699,184.671c-0.964,2.673-1.396,5.359-1.287,8.06c0.114,2.636,0.747,5.182,1.896,7.642"/>
					
						<path fill="none" stroke="#383635" stroke-width="1.5085" stroke-linecap="round" stroke-linejoin="round" stroke-miterlimit="3" d="
						M213.606,184.609c1.203,1.631,1.732,3.72,1.583,6.268"/>
				</g>
				<path fill="#FFFFFF" d="M216.873,191.244c2.337,2.929,1.941,5.526-1.189,7.783c-1.513,1.017-2.902,1.401-4.167,1.152
					c-1.318-0.273-2.541-1.264-3.673-2.976c-1.771-2.939-1.409-5.48,1.082-7.622c1.676-1.092,3.154-1.506,4.432-1.247
					C214.637,188.597,215.808,189.566,216.873,191.244z"/>
				
					<path fill="none" stroke="#383635" stroke-width="1.5085" stroke-linecap="round" stroke-linejoin="round" stroke-miterlimit="3" d="
					M216.873,191.244c-1.065-1.677-2.236-2.647-3.514-2.909c-1.278-0.259-2.756,0.155-4.432,1.247
					c-2.492,2.142-2.853,4.683-1.082,7.622c1.131,1.712,2.355,2.703,3.673,2.976c1.265,0.247,2.655-0.137,4.167-1.152
					C218.814,196.77,219.21,194.173,216.873,191.244z"/>
				<path fill="#FFFFFF" d="M193.758,207.577c-1.149-1.583-1.406-3.223-0.773-4.923c0.626-1.66,2.102-3.322,4.428-4.976
					c5.037-3.363,8.611-3.521,10.722-0.473c2.301,3.435,1.047,6.886-3.765,10.35c-2.347,1.517-4.436,2.277-6.266,2.281
					C196.274,209.841,194.825,209.088,193.758,207.577z"/>
				
					<path fill="none" stroke="#383635" stroke-width="1.5085" stroke-linecap="round" stroke-linejoin="round" stroke-miterlimit="3" d="
					M193.758,207.577c1.068,1.511,2.516,2.264,4.345,2.26c1.83-0.004,3.919-0.764,6.266-2.281c4.812-3.465,6.066-6.915,3.765-10.35
					c-2.111-3.048-5.685-2.89-10.722,0.473c-2.326,1.655-3.802,3.316-4.428,4.976C192.351,204.354,192.608,205.995,193.758,207.577z
					"/>
				
					<path fill="#FFFFFF" stroke="#383635" stroke-width="1.5085" stroke-linecap="round" stroke-linejoin="round" stroke-miterlimit="3" d="
					M189.635,203.218c-2.417,0.09-5.347,1.344-8.788,3.76c-3.318,2.579-5.429,4.938-6.334,7.08c-0.953,2.22-0.696,4.41,0.77,6.566
					c1.58,2.112,3.597,3.116,6.053,3.01c2.482-0.106,5.348-1.344,8.6-3.71c6.746-4.983,8.655-9.483,5.727-13.503
					C194.101,204.18,192.091,203.112,189.635,203.218z"/>
			</g>
		</g>
		<g>
			<g>
				
					<path fill="none" stroke="#383635" stroke-width="1.5085" stroke-linecap="round" stroke-linejoin="round" stroke-miterlimit="3" d="
					M71.551,53.653c-7.304,1.688-12.828,5.49-16.572,11.407"/>
				
					<path fill="none" stroke="#383635" stroke-width="1.5085" stroke-linecap="round" stroke-linejoin="round" stroke-miterlimit="3" d="
					M19.127,35.485c4.322,1.964,8.113,4.645,11.372,8.043c3.005,3.144,5.64,6.98,7.905,11.511"/>
				
					<path fill="none" stroke="#383635" stroke-width="1.5085" stroke-linecap="round" stroke-linejoin="round" stroke-miterlimit="3" d="
					M2,71.854c15.533,3.744,26.582,3.837,33.146,0.278"/>
				
					<path fill="none" stroke="#383635" stroke-width="1.5085" stroke-linecap="round" stroke-linejoin="round" stroke-miterlimit="3" d="
					M57.959,99.557c-5.732-7.836-7.905-15.082-6.518-21.738"/>
				
					<path fill="none" stroke="#383635" stroke-width="1.5085" stroke-linecap="round" stroke-linejoin="round" stroke-miterlimit="3" d="
					M86.182,61.28c-6.079,0.139-11.233,0.844-15.463,2.116c-4.022,1.202-7.003,2.843-8.945,4.923"/>
				
					<path fill="none" stroke="#383635" stroke-width="1.5085" stroke-linecap="round" stroke-linejoin="round" stroke-miterlimit="3" d="
					M74.532,100.389c-3.698-1.063-7.408-4.056-11.129-8.98c-2.473-2.889-4.023-5.421-4.646-7.593
					c-0.671-2.242-0.393-4.241,0.833-5.998"/>
				
					<line fill="none" stroke="#383635" stroke-width="1.5085" stroke-linecap="round" stroke-linejoin="round" stroke-miterlimit="3" x1="79.941" y1="90.334" x2="79.142" y2="81.91"/>
				
					<path fill="none" stroke="#383635" stroke-width="1.5085" stroke-linecap="round" stroke-linejoin="round" stroke-miterlimit="3" d="
					M84.309,73.761c-0.509,2.196-2.231,4.184-5.166,5.964"/>
			</g>
			<path fill="#FFFFFF" d="M79.941,81.632c-0.947,2.173-2.184,3.606-3.71,4.299c-1.502,0.716-3.34,0.728-5.513,0.034
				c-2.011-0.809-3.294-2.046-3.849-3.71s-0.358-3.594,0.589-5.79c1.294-4.392,4.195-5.743,8.702-4.057
				c2.15,0.671,3.525,1.768,4.126,3.294C80.888,77.182,80.773,79.158,79.941,81.632z"/>
			
				<path fill="none" stroke="#383635" stroke-width="1.5085" stroke-linecap="round" stroke-linejoin="round" stroke-miterlimit="3" d="
				M79.941,81.632c0.832-2.473,0.947-4.449,0.347-5.928c-0.601-1.526-1.976-2.624-4.126-3.294c-4.506-1.688-7.408-0.335-8.702,4.057
				c-0.947,2.196-1.144,4.126-0.589,5.79c0.555,1.663,1.837,2.901,3.849,3.71c2.173,0.693,4.011,0.682,5.513-0.034
				C77.757,85.239,78.994,83.805,79.941,81.632z"/>
			<path fill="#FFFFFF" d="M59.589,65.614c6.934,2.658,9.557,6.368,7.87,11.13c-1.873,4.785-6.403,5.779-13.592,2.982
				c-3.397-1.502-5.709-3.167-6.934-4.993c-1.249-1.848-1.468-3.986-0.659-6.414c0.97-2.195,2.577-3.525,4.819-3.987
				C53.382,63.846,56.214,64.274,59.589,65.614z"/>
			
				<path fill="none" stroke="#383635" stroke-width="1.5085" stroke-linecap="round" stroke-linejoin="round" stroke-miterlimit="3" d="
				M59.589,65.614c-3.375-1.341-6.206-1.768-8.495-1.283c-2.242,0.463-3.849,1.792-4.819,3.987c-0.81,2.428-0.589,4.566,0.659,6.414
				c1.225,1.826,3.537,3.491,6.934,4.993c7.188,2.797,11.719,1.803,13.592-2.982C69.146,71.982,66.523,68.272,59.589,65.614z"/>
			<path fill="#FFFFFF" d="M38.127,54.485c4.901,1.78,8.276,3.94,10.124,6.484c1.849,2.589,2.092,5.501,0.728,8.737
				c-2.149,5.94-8.205,7.108-18.167,3.502c-9.638-3.999-13.348-9.154-11.13-15.463C22.133,51.456,28.281,50.37,38.127,54.485z"/>
			
				<path fill="none" stroke="#383635" stroke-width="1.5085" stroke-linecap="round" stroke-linejoin="round" stroke-miterlimit="3" d="
				M38.127,54.485c-9.846-4.114-15.994-3.028-18.445,3.258c-2.219,6.311,1.49,11.465,11.13,15.463
				c9.962,3.605,16.018,2.439,18.167-3.502c1.364-3.235,1.121-6.148-0.728-8.737C46.402,58.426,43.028,56.264,38.127,54.485z"/>
		</g>
		<g>
			
				<path fill="none" stroke="#383635" stroke-width="1.5085" stroke-linecap="round" stroke-linejoin="round" stroke-miterlimit="3" d="
				M86.859,166.578c0.278,2.151-0.716,4.496-2.982,7.04"/>
			
				<path fill="none" stroke="#383635" stroke-width="1.5085" stroke-linecap="round" stroke-linejoin="round" stroke-miterlimit="3" d="
				M87.692,183.637c0-1.595-1.087-4.126-3.259-7.594"/>
			
				<path fill="none" stroke="#383635" stroke-width="1.5085" stroke-linecap="round" stroke-linejoin="round" stroke-miterlimit="3" d="
				M70.044,199.411C62,193.448,57.563,187.197,56.73,180.656"/>
			
				<path fill="none" stroke="#383635" stroke-width="1.5085" stroke-linecap="round" stroke-linejoin="round" stroke-miterlimit="3" d="
				M86.061,195.043c-4.739-0.647-9.268-2.45-13.592-5.408c-6.286-3.56-8.91-7.454-7.87-11.684"/>
			
				<path fill="none" stroke="#383635" stroke-width="1.5085" stroke-linecap="round" stroke-linejoin="round" stroke-miterlimit="3" d="
				M8.399,190.987c5.432-0.856,10.863-1.49,16.296-1.907c6.056-1.433,11.025-4.241,14.909-8.424"/>
			
				<path fill="none" stroke="#383635" stroke-width="1.5085" stroke-linecap="round" stroke-linejoin="round" stroke-miterlimit="3" d="
				M68.657,151.116c-3.306,2.333-5.964,4.818-7.975,7.454c-2.057,2.726-3.56,5.755-4.507,9.083"/>
			
				<path fill="none" stroke="#383635" stroke-width="1.5085" stroke-linecap="round" stroke-linejoin="round" stroke-miterlimit="3" d="
				M84.952,154.097c-5.755,2.032-10.378,4.217-13.869,6.553c-3.56,2.38-6.078,4.981-7.559,7.801"/>
			
				<path fill="none" stroke="#383635" stroke-width="1.5085" stroke-linecap="round" stroke-linejoin="round" stroke-miterlimit="3" d="
				M13.01,150.56c9.661,1.086,17.808,5.34,24.443,12.76"/>
			<path fill="#FFFFFF" d="M77.914,182.285c-4.345-0.254-6.518-2.878-6.518-7.87c0.278-4.739,2.808-6.991,7.593-6.761
				c4.692,0.278,6.772,2.808,6.241,7.593C84.952,180.215,82.514,182.563,77.914,182.285z"/>
			
				<path fill="none" stroke="#383635" stroke-width="1.5085" stroke-linecap="round" stroke-linejoin="round" stroke-miterlimit="3" d="
				M77.914,182.285c4.6,0.278,7.039-2.07,7.315-7.039c0.532-4.785-1.549-7.314-6.241-7.593c-4.784-0.23-7.315,2.022-7.593,6.761
				C71.396,179.406,73.569,182.031,77.914,182.285z"/>
			<path fill="#FFFFFF" d="M60.787,166.578c7.767,0.556,11.395,3.259,10.887,8.114c-0.278,5.339-4.173,7.605-11.685,6.795
				c-7.489-0.278-11.118-2.994-10.887-8.149C49.38,168.254,53.275,166,60.787,166.578z"/>
			
				<path fill="none" stroke="#383635" stroke-width="1.5085" stroke-linecap="round" stroke-linejoin="round" stroke-miterlimit="3" d="
				M60.787,166.578c-7.512-0.577-11.406,1.676-11.685,6.761c-0.23,5.155,3.398,7.87,10.887,8.149
				c7.512,0.81,11.407-1.456,11.685-6.795C72.182,169.838,68.553,167.134,60.787,166.578z"/>
			<path fill="#FFFFFF" d="M36.899,162.522c5.27,0.393,9.199,1.537,11.788,3.432c2.589,1.849,3.813,4.403,3.675,7.663
				c-0.393,3.536-1.919,6.055-4.577,7.559c-2.658,1.501-6.553,2.057-11.685,1.663c-5.455-0.416-9.43-1.527-11.926-3.329
				c-2.519-1.803-3.71-4.404-3.571-7.801C20.88,165.03,26.312,161.967,36.899,162.522z"/>
			
				<path fill="none" stroke="#383635" stroke-width="1.5085" stroke-linecap="round" stroke-linejoin="round" stroke-miterlimit="3" d="
				M36.899,162.522c-10.587-0.555-16.018,2.508-16.296,9.189c-0.139,3.397,1.051,5.998,3.571,7.801
				c2.496,1.802,6.471,2.912,11.926,3.329c5.132,0.393,9.027-0.162,11.685-1.663c2.658-1.503,4.184-4.023,4.577-7.559
				c0.139-3.26-1.087-5.814-3.675-7.663C46.098,164.059,42.168,162.915,36.899,162.522z"/>
		</g>
		<g>
			
				<path fill="none" stroke="#383635" stroke-width="1.5085" stroke-linecap="round" stroke-linejoin="round" stroke-miterlimit="3" d="
				M168.738,78.502c0.281,0.996,0.259,2.039-0.062,3.132c-0.272,0.906-0.833,2.042-1.685,3.408"/>
			
				<path fill="none" stroke="#383635" stroke-width="1.5085" stroke-linecap="round" stroke-linejoin="round" stroke-miterlimit="3" d="
				M171.51,93.343c-0.301-1.339-1.538-3.495-3.715-6.465"/>
			
				<path fill="none" stroke="#383635" stroke-width="1.5085" stroke-linecap="round" stroke-linejoin="round" stroke-miterlimit="3" d="
				M165.76,67.984c-9.72,4.855-15.383,9.698-16.986,14.528"/>
			
				<path fill="none" stroke="#383635" stroke-width="1.5085" stroke-linecap="round" stroke-linejoin="round" stroke-miterlimit="3" d="
				M171.134,103.113c-3.194,0.427-7.379-0.524-12.555-2.856c-5.695-2.565-8.41-5.738-8.144-9.52"/>
			
				<path fill="none" stroke="#383635" stroke-width="1.5085" stroke-linecap="round" stroke-linejoin="round" stroke-miterlimit="3" d="
				M151.437,67.145c-5.322,4.235-8.277,9.316-8.864,15.242"/>
			
				<path fill="none" stroke="#383635" stroke-width="1.5085" stroke-linecap="round" stroke-linejoin="round" stroke-miterlimit="3" d="
				M102.88,107.522c3.065-0.563,6.51-1.207,10.335-1.935c2.322-0.459,3.577-0.794,3.768-1.008c5.178-1.819,9.281-4.911,12.308-9.277
				"/>
			<path fill="#FFFFFF" d="M162.449,93.139c-1.877,0.109-3.363-0.372-4.458-1.443c-1.093-1.049-1.698-2.584-1.815-4.602
				c-0.124-2.138,0.295-3.812,1.258-5.022c0.942-1.209,2.362-1.868,4.258-1.977c4.116-0.238,6.303,1.862,6.56,6.3
				C168.5,90.652,166.566,92.901,162.449,93.139z"/>
			
				<path fill="none" stroke="#383635" stroke-width="1.5085" stroke-linecap="round" stroke-linejoin="round" stroke-miterlimit="3" d="
				M162.449,93.139c4.116-0.238,6.051-2.487,5.804-6.744c-0.257-4.439-2.445-6.539-6.56-6.3c-1.897,0.11-3.317,0.768-4.258,1.977
				c-0.963,1.21-1.382,2.884-1.258,5.022c0.117,2.018,0.722,3.553,1.815,4.602C159.087,92.767,160.573,93.248,162.449,93.139z"/>
			<path fill="#FFFFFF" d="M146.288,80.987c6.476-0.375,9.847,1.728,10.113,6.308c0.126,2.159-0.568,3.809-2.082,4.95
				c-1.532,1.162-3.952,1.838-7.262,2.03c-6.639,0.384-10.082-1.562-10.329-5.841c-0.132-2.26,0.598-4.013,2.186-5.259
				C140.541,81.907,142.999,81.177,146.288,80.987z"/>
			
				<path fill="none" stroke="#383635" stroke-width="1.5085" stroke-linecap="round" stroke-linejoin="round" stroke-miterlimit="3" d="
				M146.288,80.987c-3.29,0.19-5.747,0.92-7.375,2.188c-1.588,1.246-2.318,2.998-2.186,5.259c0.247,4.278,3.691,6.225,10.329,5.841
				c3.31-0.191,5.729-0.869,7.262-2.03c1.514-1.14,2.207-2.791,2.082-4.95C156.136,82.714,152.765,80.612,146.288,80.987z"/>
			<path fill="#FFFFFF" d="M115.646,96.184c-2.361-1.26-3.626-3.363-3.796-6.31c-0.347-5.993,4.059-9.254,13.22-9.784
				c9.182-0.532,13.945,2.198,14.292,8.191c0.17,2.947-0.845,5.181-3.043,6.706c-2.161,1.481-5.572,2.357-10.234,2.627
				C121.424,97.884,117.944,97.408,115.646,96.184z"/>
			
				<path fill="none" stroke="#383635" stroke-width="1.5085" stroke-linecap="round" stroke-linejoin="round" stroke-miterlimit="3" d="
				M115.646,96.184c2.298,1.224,5.777,1.7,10.438,1.43c4.661-0.27,8.072-1.145,10.234-2.627c2.199-1.525,3.213-3.759,3.043-6.706
				c-0.348-5.993-5.111-8.723-14.292-8.191c-9.161,0.53-13.567,3.792-13.22,9.784C112.02,92.821,113.285,94.924,115.646,96.184z"/>
			
				<path fill="none" stroke="#383635" stroke-width="1.5085" stroke-linecap="round" stroke-linejoin="round" stroke-miterlimit="3" d="
				M103.195,72.063c8.702,0.286,15.643,2.515,21.874,8.026"/>
			
				<path fill="none" stroke="#383635" stroke-width="1.5085" stroke-linecap="round" stroke-linejoin="round" stroke-miterlimit="3" d="
				M157.438,108.887c-7.564-4.4-11.981-9.378-13.255-14.932"/>
		</g>
		<g>
			<g>
				
					<path fill="none" stroke="#383635" stroke-width="1.5085" stroke-linecap="round" stroke-linejoin="round" stroke-miterlimit="3" d="
					M169.479,142.479c-4.491,3.616-7.972,7.179-10.441,10.688c-2.4,3.433-3.744,6.694-4.032,9.782"/>
				
					<path fill="none" stroke="#383635" stroke-width="1.5085" stroke-linecap="round" stroke-linejoin="round" stroke-miterlimit="3" d="
					M101.277,164.559c9.213-2.391,18.407-1.322,27.579,3.209"/>
				
					<path fill="none" stroke="#383635" stroke-width="1.5085" stroke-linecap="round" stroke-linejoin="round" stroke-miterlimit="3" d="
					M111.374,204.031c4-1.857,6.921-3.249,8.763-4.173c2.542-1.281,4.46-2.389,5.753-3.324c2.601-1.577,4.822-3.512,6.663-5.806
					c1.667-2.101,3.144-4.675,4.428-7.726"/>
				
					<path fill="none" stroke="#383635" stroke-width="1.5085" stroke-linecap="round" stroke-linejoin="round" stroke-miterlimit="3" d="
					M185.77,180.009c-4.091,1.16-9.075,1.171-14.949,0.032c-6.749-1.096-10.61-3.77-11.58-8.026"/>
				
					<path fill="none" stroke="#383635" stroke-width="1.5085" stroke-linecap="round" stroke-linejoin="round" stroke-miterlimit="3" d="
					M176.101,153.04c0.562,0.998,0.786,2.211,0.674,3.645c-0.106,1.41-0.514,2.869-1.223,4.375"/>
				
					<path fill="none" stroke="#383635" stroke-width="1.5085" stroke-linecap="round" stroke-linejoin="round" stroke-miterlimit="3" d="
					M183.236,168.86c-0.331-0.62-0.965-1.398-1.904-2.333c-1.18-1.194-2.615-2.41-4.307-3.652"/>
				
					<path fill="none" stroke="#383635" stroke-width="1.5085" stroke-linecap="round" stroke-linejoin="round" stroke-miterlimit="3" d="
					M172.31,189.782c-10.172-2.844-16.505-7.062-18.998-12.655"/>
				
					<path fill="none" stroke="#383635" stroke-width="1.5085" stroke-linecap="round" stroke-linejoin="round" stroke-miterlimit="3" d="
					M153.653,145.649c-4.376,5.689-6.29,12.198-5.747,19.526"/>
			</g>
			<path fill="#FFFFFF" d="M168.818,156.944c2.267-0.638,4.112-0.542,5.537,0.288c1.407,0.802,2.559,2.383,3.458,4.749
				c1.617,4.435,0.139,7.406-4.435,8.911c-2.186,0.78-3.983,0.77-5.391-0.031c-1.385-0.795-2.509-2.442-3.372-4.938
				C163.017,161.515,164.417,158.523,168.818,156.944z"/>
			
				<path fill="none" stroke="#383635" stroke-width="1.5085" stroke-linecap="round" stroke-linejoin="round" stroke-miterlimit="3" d="
				M168.818,156.944c-4.402,1.578-5.802,4.571-4.203,8.979c0.862,2.496,1.987,4.142,3.372,4.938
				c1.408,0.802,3.206,0.813,5.391,0.031c4.574-1.505,6.053-4.476,4.435-8.911c-0.9-2.365-2.052-3.947-3.458-4.749
				C172.93,156.402,171.085,156.308,168.818,156.944z"/>
			<path fill="#FFFFFF" d="M163.81,172.538c-1.405,1.767-3.94,3.194-7.605,4.281c-3.381,1.023-6.208,1.217-8.478,0.581
				c-2.271-0.635-3.807-2.048-4.611-4.241c-0.743-2.32-0.39-4.357,1.061-6.11c1.422-1.74,3.961-3.31,7.616-4.712
				c7.169-2.292,11.533-1.072,13.091,3.66C165.575,168.59,165.217,170.77,163.81,172.538z"/>
			
				<path fill="none" stroke="#383635" stroke-width="1.5085" stroke-linecap="round" stroke-linejoin="round" stroke-miterlimit="3" d="
				M163.81,172.538c1.406-1.768,1.765-3.948,1.073-6.541c-1.558-4.732-5.921-5.952-13.091-3.66
				c-3.655,1.402-6.194,2.971-7.616,4.712c-1.45,1.754-1.804,3.791-1.061,6.11c0.804,2.193,2.34,3.606,4.611,4.241
				c2.27,0.636,5.096,0.44,8.478-0.581C159.87,175.732,162.405,174.305,163.81,172.538z"/>
			<path fill="#FFFFFF" d="M115.948,181.619c-0.825-3.23-0.273-5.979,1.657-8.247c1.961-2.379,5.445-4.322,10.449-5.828
				c5.016-1.717,9.065-2.205,12.146-1.464c3.119,0.775,5.141,2.77,6.067,5.982c2.327,6.434-1.678,11.326-12.023,14.674
				C124.095,189.994,117.995,188.288,115.948,181.619z"/>
			
				<path fill="none" stroke="#383635" stroke-width="1.5085" stroke-linecap="round" stroke-linejoin="round" stroke-miterlimit="3" d="
				M115.948,181.619c2.048,6.669,8.147,8.374,18.298,5.116c10.344-3.348,14.351-8.238,12.023-14.674
				c-0.926-3.212-2.95-5.206-6.067-5.982c-3.081-0.741-7.13-0.252-12.146,1.464c-5.005,1.505-8.488,3.448-10.449,5.828
				C115.675,175.641,115.123,178.39,115.948,181.619z"/>
		</g>
		<g>
			
				<path fill="none" stroke="#383635" stroke-width="1.5085" stroke-linecap="round" stroke-linejoin="round" stroke-miterlimit="3" d="
				M231.971,89.589c2.08,0.442,3.811,2.301,5.193,5.573"/>
			
				<path fill="none" stroke="#383635" stroke-width="1.5085" stroke-linecap="round" stroke-linejoin="round" stroke-miterlimit="3" d="
				M248.117,95.831c-1.22-0.26-4.17-0.334-8.851-0.22"/>
			
				<path fill="none" stroke="#383635" stroke-width="1.5085" stroke-linecap="round" stroke-linejoin="round" stroke-miterlimit="3" d="
				M257.376,101.952c-1.615,3.697-5.14,7.212-10.578,10.542c-5.67,3.874-10.26,4.562-13.769,2.065"/>
			
				<path fill="none" stroke="#383635" stroke-width="1.5085" stroke-linecap="round" stroke-linejoin="round" stroke-miterlimit="3" d="
				M220.976,171.12c3.589-9.965,5.402-15.038,5.441-15.219c1.301-6.103,0.709-11.972-1.777-17.608"/>
			
				<path fill="none" stroke="#383635" stroke-width="1.5085" stroke-linecap="round" stroke-linejoin="round" stroke-miterlimit="3" d="
				M210.678,99.515c0.506,7.269,3.663,13.306,9.467,18.112"/>
			
				<path fill="none" stroke="#383635" stroke-width="1.5085" stroke-linecap="round" stroke-linejoin="round" stroke-miterlimit="3" d="
				M219.623,86.143c-0.566,5.882-0.458,11.022,0.33,15.421c0.771,4.253,2.11,7.563,4.017,9.931"/>
			<path fill="#FFFFFF" d="M239.497,94.525c2.115,1.278,3.42,2.691,3.918,4.239c0.493,1.57,0.176,3.334-0.95,5.292
				c-0.991,2.105-2.336,3.366-4.033,3.785c-1.623,0.41-3.516,0.03-5.678-1.139c-2.12-1.137-3.432-2.469-3.934-3.993
				s-0.199-3.28,0.91-5.265c1.021-2.241,2.348-3.588,3.981-4.044C235.272,92.952,237.2,93.327,239.497,94.525z"/>
			
				<path fill="none" stroke="#383635" stroke-width="1.5085" stroke-linecap="round" stroke-linejoin="round" stroke-miterlimit="3" d="
				M239.497,94.525c-2.297-1.198-4.226-1.574-5.786-1.126c-1.633,0.456-2.961,1.803-3.981,4.044c-1.11,1.985-1.412,3.74-0.91,5.265
				s1.814,2.856,3.934,3.993c2.161,1.17,4.054,1.55,5.678,1.139c1.697-0.419,3.041-1.679,4.033-3.785
				c1.126-1.957,1.444-3.722,0.95-5.292C242.919,97.216,241.612,95.803,239.497,94.525z"/>
			<path fill="#FFFFFF" d="M226.782,106.456c1.958-1.094,4.041-0.994,6.245,0.304c4.625,2.143,4.951,6.656,0.98,13.538
				c-1.53,3.29-3.295,5.478-5.299,6.563c-1.999,1.063-4.195,0.997-6.587-0.199c-4.224-2.578-4.582-7.002-1.071-13.274
				C222.934,109.866,224.845,107.555,226.782,106.456z"/>
			
				<path fill="none" stroke="#383635" stroke-width="1.5085" stroke-linecap="round" stroke-linejoin="round" stroke-miterlimit="3" d="
				M226.782,106.456c-1.937,1.1-3.847,3.411-5.732,6.932c-3.51,6.271-3.153,10.696,1.071,13.274
				c2.392,1.196,4.588,1.261,6.587,0.199c2.003-1.085,3.769-3.273,5.299-6.563c3.971-6.882,3.646-11.395-0.98-13.538
				C230.821,105.461,228.74,105.361,226.782,106.456z"/>
			<path fill="#FFFFFF" d="M215.418,123.851c2.751-1.494,5.635-1.434,8.648,0.176c2.882,1.442,4.401,3.74,4.557,6.892
				c0.179,3.158-0.993,7.045-3.513,11.66c-4.756,9.455-10.144,12.561-16.164,9.316c-3.042-1.474-4.672-3.808-4.891-6.997
				c-0.213-3.212,1.009-7.17,3.666-11.875C210.071,128.42,212.637,125.362,215.418,123.851z"/>
			
				<path fill="none" stroke="#383635" stroke-width="1.5085" stroke-linecap="round" stroke-linejoin="round" stroke-miterlimit="3" d="
				M215.418,123.851c-2.781,1.509-5.346,4.568-7.698,9.171c-2.657,4.704-3.878,8.662-3.666,11.875
				c0.219,3.189,1.848,5.523,4.891,6.997c6.02,3.245,11.408,0.14,16.164-9.316c2.52-4.615,3.692-8.502,3.513-11.66
				c-0.156-3.152-1.674-5.45-4.557-6.892C221.051,122.417,218.169,122.357,215.418,123.851z"/>
			
				<path fill="none" stroke="#383635" stroke-width="1.5085" stroke-linecap="round" stroke-linejoin="round" stroke-miterlimit="3" d="
				M186.396,149.57c5.437-7.987,12.641-13.577,21.618-16.768"/>
			
				<path fill="none" stroke="#383635" stroke-width="1.5085" stroke-linecap="round" stroke-linejoin="round" stroke-miterlimit="3" d="
				M254.586,118.869c-8.559,4.674-16.067,6.029-22.525,4.062"/>
		</g>
		<path fill="#FFFFFF" d="M244.186,46.729c1.04,2.126,1.271,3.975,0.693,5.547c-0.555,1.526-1.872,2.843-3.952,3.952
			c-4.439,1.664-7.605,0.313-9.501-4.057c-1.688-4.507-0.428-7.685,3.779-9.535c2.172-0.924,3.975-1.051,5.409-0.381
			C242.026,42.902,243.214,44.394,244.186,46.729z"/>
		
			<path fill="none" stroke="#383635" stroke-width="1.5085" stroke-linecap="round" stroke-linejoin="round" stroke-miterlimit="3" d="
			M244.186,46.729c-0.971-2.334-2.16-3.826-3.571-4.472c-1.434-0.671-3.237-0.543-5.409,0.381c-4.208,1.849-5.467,5.027-3.779,9.535
			c1.896,4.369,5.062,5.72,9.501,4.057c2.08-1.11,3.397-2.427,3.952-3.952C245.457,50.704,245.226,48.855,244.186,46.729z"/>
		<path fill="#FFFFFF" d="M218.39,49.71c3.491-1.479,6.391-1.976,8.702-1.49c2.266,0.462,3.883,1.86,4.854,4.195
			c2.126,4.253-0.313,8.055-7.315,11.407c-3.675,1.479-6.622,2.022-8.842,1.63c-2.218-0.393-3.801-1.746-4.75-4.057
			c-1.04-2.381-0.937-4.531,0.313-6.449C212.555,53.12,214.9,51.374,218.39,49.71z"/>
		
			<path fill="none" stroke="#383635" stroke-width="1.5085" stroke-linecap="round" stroke-linejoin="round" stroke-miterlimit="3" d="
			M218.39,49.71c-3.491,1.664-5.836,3.409-7.038,5.235c-1.249,1.919-1.353,4.068-0.313,6.449c0.947,2.311,2.531,3.664,4.75,4.057
			c2.219,0.393,5.167-0.15,8.842-1.63c7.003-3.352,9.442-7.154,7.315-11.407c-0.971-2.334-2.589-3.733-4.854-4.195
			C224.781,47.733,221.881,48.231,218.39,49.71z"/>
		<path fill="#FFFFFF" d="M207.226,54.737c3.005,0.486,5.189,2.346,6.554,5.581c1.479,2.959,1.353,5.698-0.382,8.217
			c-1.71,2.473-5.026,4.797-9.951,6.969c-5.107,2.196-9.141,3.097-12.099,2.704c-3.029-0.393-5.154-2.196-6.38-5.408
			c-1.455-3.074-1.282-5.894,0.521-8.46c1.756-2.473,5.119-4.819,10.089-7.039C200.361,55.131,204.244,54.275,207.226,54.737z"/>
		
			<path fill="none" stroke="#383635" stroke-width="1.5085" stroke-linecap="round" stroke-linejoin="round" stroke-miterlimit="3" d="
			M207.226,54.737c-2.982-0.462-6.865,0.393-11.649,2.565c-4.97,2.219-8.333,4.565-10.089,7.039
			c-1.803,2.565-1.976,5.385-0.521,8.46c1.226,3.212,3.351,5.015,6.38,5.408c2.958,0.392,6.992-0.509,12.099-2.704
			c4.924-2.172,8.24-4.495,9.951-6.969c1.735-2.519,1.861-5.259,0.382-8.217C212.415,57.083,210.232,55.223,207.226,54.737z"/>
		
			<path fill="none" stroke="#383635" stroke-width="1.5085" stroke-linecap="round" stroke-linejoin="round" stroke-miterlimit="3" d="
			M241.447,75.227c-10.124-1.919-16.908-5.535-20.352-10.852"/>
		
			<path fill="none" stroke="#383635" stroke-width="1.5085" stroke-linecap="round" stroke-linejoin="round" stroke-miterlimit="3" d="
			M168.464,57.303c8.782-3.56,17.994-3.467,27.633,0.278"/>
	</g>
</g>
</svg>
