<?xml version="1.0" encoding="utf-8"?>
<!-- Generator: Adobe Illustrator 17.0.1, SVG Export Plug-In . SVG Version: 6.00 Build 0)  -->
<!DOCTYPE svg PUBLIC "-//W3C//DTD SVG 1.1//EN" "http://www.w3.org/Graphics/SVG/1.1/DTD/svg11.dtd">
<svg version="1.1" xmlns="http://www.w3.org/2000/svg" xmlns:xlink="http://www.w3.org/1999/xlink" x="0px" y="0px" width="260px"
	 height="260px" viewBox="0 0 260 260" enable-background="new 0 0 260 260" xml:space="preserve">
<g id="Layer_1">
	<g>
		<g id="Layer_1_3_">
			<g>
				
					<path fill-rule="evenodd" clip-rule="evenodd" fill="#FFFFFF" stroke="#292929" stroke-width="1.5" stroke-linecap="round" stroke-linejoin="round" stroke-miterlimit="3" d="
					M229.366,72.612c-3.107-1.389-6.485-1.45-10.133-0.182c-2.932,1.024-5.73,2.766-8.396,5.223
					c-2.305-1.41-5.224-2.462-8.761-3.157c-3.45-0.474-5.566-0.798-6.348-0.975c-1.355-0.309-2.91-0.998-4.662-2.066
					c-2.049-1.246-3.736-2.656-5.058-4.232c-2.843-3.957-5.406-7.322-7.688-10.1c-4.331-5.268-8.065-8.501-11.206-9.703
					c-3.35-1.279-7.505-1.527-12.464-0.744c-3.769,0.595-7.113,1.565-10.033,2.91c-2.931-0.871-8.523-2.816-16.777-5.835
					c-7.725-2.821-11.792-4.353-12.199-4.595c-1.697-1.025-4.221-1.757-7.571-2.199c-2.512-0.33-4.667-0.44-6.462-0.33
					c-1.201,0-2.893,0.099-5.075,0.297c-4.386,0.385-9.052,1.069-14.001,2.05c-8.518,1.675-17.593,6.705-27.224,15.091
					c-3.857,3.362-7.422,6.949-10.695,10.761c-2.986,3.482-5.279,6.617-6.875,9.405c-3.197,5.576-6.034,11.378-8.514,17.406
					c-3.581,8.739-9.422,61.253-7.571,79.888c0.044,0.441-0.115,1.333-0.479,2.679c-0.33,1.211-0.407,2.082-0.231,2.611
					c0.287,0.849,0.452,1.427,0.496,1.735c0.066,0.496,0.017,1.075-0.148,1.736c-0.11,0.484-0.259,1.156-0.447,2.017
					c-0.176,0.715-0.385,1.322-0.628,1.817c-0.396,0.793-0.65,1.415-0.76,1.867c-0.188,0.706-0.176,1.323,0.033,1.85
					c0.286,0.73,0.458,1.379,0.512,1.952c0.066,0.771-0.061,1.482-0.38,2.132c-0.265,0.519-0.695,1.196-1.289,2.034
					c-0.595,0.837-0.964,1.399-1.108,1.686c-0.353,0.682-0.804,1.846-1.355,3.487c-0.651,1.918-0.92,3.113-0.81,3.587
					c0.11,0.518,0.948,2.143,2.513,4.877c1.542,2.689,2.501,4.226,2.876,4.611c0.87,0.849,2.154,1.592,3.851,2.231
					c2.678,1.014,5.356,1.157,8.033,0.43c1.278,0.541,3.268,0.557,5.967,0.05c2.215-0.418,3.642-0.826,4.281-1.224
					c1.08-0.386,1.818-0.689,2.215-0.908c0.563-0.31,0.965-0.694,1.207-1.157c0.275-0.496,0.148-1.373-0.381-2.629
					c-0.54-1.245-1.102-1.955-1.686-2.132c-0.617-0.189-1.62-0.854-3.008-2c-1.411-1.168-2.116-1.945-2.116-2.331
					c0-0.011,0.055-1.543,0.166-4.595c0.109-2.788,0.143-4.437,0.099-4.942c-0.044-0.729,0-1.714,0.132-2.959
					c0.143-1.399,0.342-2.391,0.595-2.975c0.386-1.246,0.683-2.166,0.892-2.763c0.386-1.078,0.689-1.326,0.909-0.742
					c0.276,0.76,0.524,1.189,0.745,1.288c0.231,0.112,0.369-0.198,0.413-0.925c0.078-1.224,0.27-2.699,0.579-4.43
					c0.386-2.171,0.733-3.157,1.042-2.96c0.231,0.144,0.684,0.117,1.356-0.082c0.672-0.188,1.184-0.188,1.537,0
					c0.452,0.242,0.86-0.066,1.224-0.926c0.319-0.771,0.479-1.575,0.479-2.413c0-1.301,0.055-2.838,0.165-4.611
					c0.132-2.392,0.314-3.702,0.545-3.935c0.231-0.221,0.81-0.838,1.736-1.851l1.338-1.472c1.301-0.827,2.425-1.383,3.372-1.669
					c1.058-0.311,2.281-0.403,3.669-0.281c0.815,0.066,1.901,0.258,3.257,0.579c0.937,0.232,1.691,0.279,2.265,0.148
					c0.518-0.122,1.135-0.285,1.851-0.495c0.573-0.154,1.075-0.231,1.504-0.231c1.455,0,2.767,0.066,3.935,0.198
					c2.182,0.243,3.57,0.677,4.165,1.306c0.122,0.121,0.81,0.705,2.066,1.753c0.562,0.452,0.893,1.036,0.992,1.752
					c0.276,1.84,0.58,3.69,0.909,5.553c0.53,2.898,0.948,4.679,1.256,5.34c0.618,1.334,0.948,2.061,0.992,2.182
					c0.319,0.904,0.496,2.032,0.528,3.389c0.034,0.926,0.326,2.26,0.876,4c0.484,1.488,0.645,2.733,0.479,3.735
					c-0.187,1.201-0.209,2.342-0.066,3.422c0.089,0.65,0.287,1.67,0.596,3.059c0.209,1.089,0.672,2.203,1.388,3.339
					c0.595,0.971,1.272,1.808,2.033,2.513c0.518,0.483,2.034,1.189,4.546,2.115c2.82,1.047,4.396,1.658,4.727,1.835
					c1.046,0.595,1.879,0.976,2.496,1.141c1.003,0.286,2.149,0.33,3.438,0.133c0.959-0.154,2.188-0.354,3.686-0.597
					c1.19-0.285,2.331-0.842,3.422-1.669c0.507-0.373,1.317-0.766,2.43-1.174c0.617-0.23,1.554-0.572,2.81-1.023
					c2.127-0.895,2.992-2.078,2.595-3.554c-0.43-1.6-1.118-2.977-2.065-4.133c-0.541-0.65-1.235-1.284-2.084-1.901
					c-0.055-0.034-0.914-0.474-2.579-1.322c-1.29-0.65-2.077-1.229-2.364-1.735c-0.915-1.179-1.675-2.187-2.281-3.025
					c-1.136-1.599-1.664-2.837-1.587-3.719c0.056-0.684,0.254-1.786,0.595-3.307c0.353-1.564,0.574-2.831,0.662-3.803
					c0.11-1.101,0.369-2.738,0.777-4.908c0.386-2.028,0.579-3.059,0.579-3.092l-0.1-4.412c0.452,0.694,0.976,1.25,1.57,1.669
					c0.529,0.364,0.849,0.469,0.959,0.314c0.165-0.561,0.314-1.003,0.446-1.321c0.232-0.617,0.441-0.628,0.629-0.033
					c0.121,0.408,0.192,1.079,0.214,2.016c0.022,0.904,0.16,1.731,0.413,2.48c0.242,0.694,0.562,1.619,0.959,2.777
					c0.44,1.089,1.201,2.446,2.281,4.065c0.837,1.268,1.67,2.475,2.497,3.619c0.418,0.662,0.665,1.373,0.743,2.133
					c0.066,0.607,0.099,1.098,0.099,1.472c0,0.408,0.028,0.938,0.083,1.588c0.066,0.66,0.027,1.096-0.116,1.305
					c-0.022,0.396,0.253,1.642,0.827,3.735c0.572,2.072,1.333,3.862,2.281,5.373c1.179,1.895,1.801,2.926,1.868,3.091
					c0.264,0.639,0.396,1.581,0.396,2.827c0,1.178,0.226,2.214,0.677,3.107c0.42,0.848,1.058,1.56,1.919,2.132
					c1.013,0.683,1.873,1.532,2.578,2.546c0.728,1.024,1.668,2.121,2.826,3.29c0.806,1.024,1.245,2.386,1.322,4.082
					c0.1,2.205,0.331,3.818,0.694,4.843c0.42,1.18,1.146,2.028,2.182,2.547c0.452,0.22,0.97,0.621,1.554,1.206
					c0.331,0.341,0.845,0.883,1.538,1.619c1.323,1.355,2.572,2.034,3.751,2.034c0.96,0,2.209,0.45,3.754,1.354
					c1.729,1.003,3.477,1.632,5.239,1.886c1.411,0.197,3.067,0.021,4.975-0.529c1.036-0.286,2.375-0.712,4.018-1.273
					c1.453-0.363,2.246-0.584,2.379-0.661c0.605-0.354,1.313-1.25,2.116-2.694c2.116-3.802,2.077-6.484-0.115-8.05
					c-0.916-0.662-1.438-1.184-1.57-1.571c-0.232-0.65-0.628-1.305-1.191-1.967c-0.914-1.079-1.994-2.577-3.239-4.495
					c-1.08-1.665-1.979-3.164-2.694-4.496c-0.252-0.486-1.393-2.337-3.421-5.555c-1.798-2.875-2.938-4.864-3.422-5.967
					c-0.177-0.419-0.903-1.526-2.183-3.322c-0.826-1.181-1.239-2.469-1.239-3.869c0-0.881,0.144-1.811,0.431-2.794
					c0.175-0.594,0.093-1.702-0.249-3.321c-0.341-1.674-0.992-3.482-1.95-5.422c-0.86-1.741-1.289-2.693-1.289-2.86
					c0-0.419-0.067-1.515-0.198-3.288c-0.121-1.599-0.232-2.959-0.331-4.083c-0.1-1.146-0.034-2.293,0.199-3.439
					c0.285-1.367,0.759-2.38,1.42-3.041c1.092-1.092,2.088-1.902,2.992-2.43c1.378-0.815,2.419-0.911,3.123-0.283
					c0.784,0.696,1.594,1.005,2.432,0.928c0.781-0.067,1.817-0.116,2.29-0.789c0.298-0.418,0.185-1.427,0.47-2.385
					c0.287-0.651,0.717-0.8,1.29-0.446c1.962,1.212,3.279,2.475,3.951,3.785c1.035,1.973,2.093,7.643,3.173,17.008
					c1.014,8.762,1.575,16.288,1.687,22.58c0.011,0.729,0.099,1.702,0.265,2.927c0.076,1.157-0.072,2.396-0.447,3.718
					c-0.408,1.467-0.512,2.936-0.314,4.414c0.145,1.047,0.49,2.336,1.042,3.868c0.297,0.848,0.843,3.218,1.636,7.108
					c0.948,3.713,2.083,6.083,3.406,7.107c1.222,0.947,2.728,1.526,4.511,1.735c1.896,0.22,3.087,0.485,3.571,0.793
					c0.408,0.266,0.799,0.623,1.175,1.075c0.22,0.264,0.534,0.667,0.941,1.206c0.838,1.003,1.994,1.682,3.472,2.033
					c1.267,0.297,2.737,0.761,4.412,1.389c1.313,0.342,2.603,0.177,3.87-0.495c1.023-0.541,2.164-1.021,3.421-1.439
					c0.76-0.363,1.178-1.025,1.257-1.983c0.119-1.544-0.023-3.014-0.431-4.415c-0.552-1.927-1.548-3.453-2.991-4.577
					c-0.331-0.253-1.874-1.272-4.629-3.059c-1.619-1.046-2.717-2.064-3.289-3.057c-1.322-2.315-1.995-3.498-2.019-3.555
					c-0.605-1.309-0.83-2.584-0.677-3.817c0.177-1.477,0.871-5.256,2.083-11.34c1.223-6.138,1.968-9.56,2.232-10.264
					c0.109-0.299,0.219-0.442,0.331-0.432c0.055,0.012,0.142,0.045,0.264,0.1c0.209-0.034,0.49-1.002,0.843-2.909
					c0.385-2.105,0.843-4.083,1.371-5.935c0.122-0.429,0.622-2.05,1.505-4.859c0.497-1.576,0.804-2.97,0.926-4.183
					c0.088-0.902,0.083-2.026-0.018-3.37c-0.076-0.959-0.098-3.163-0.064-6.612c0.043-3.692,0.064-5.989,0.064-6.894
					c0-1.398,0.072-2.903,0.216-4.513c0.154-1.675,0.319-2.689,0.495-3.042c0.188-0.77,0.337-1.354,0.447-1.752
					c0.221-0.705,0.552-0.838,0.991-0.396c0.287,0.287,1.147,0.744,2.58,1.373c1.619,0.716,3.1,1.575,4.447,2.577
					c2.445,1.83,3.796,2.85,4.048,3.058c1.025,0.85,2.011,1.868,2.959,3.059c0.563,0.705,1.867,1.587,3.917,2.645
					c2.16,1.112,4.491,2.076,6.993,2.892c6.557,2.116,11.261,2.309,14.115,0.579c2.381,0.871,4.668,1.366,6.861,1.488
					c2.709,0.154,4.678-0.344,5.9-1.488c1.409-3.128,1.969-4.849,1.818-4.446l0.711-2.033c1.41-0.938,2.26-1.791,2.546-2.563
					c0.43-1.156-0.12-2.457-1.653-3.899c-2.313-2.194-4.442-4.481-6.381-6.86c-2.711-3.317-4.661-6.37-5.852-9.157
					c-1.136-2.646-1.449-4.64-0.942-5.985c0.165-0.429,2.105-5.25,1.984-6.925c0,0-0.177-3.884-0.331-5.339
					c-0.176-1.642-0.513-3.285-1.01-4.926c-1.311-4.364-3.311-7.377-5.999-9.042c-0.077-2.171-0.221-4.259-0.429-6.265l-0.281-2.363
					c0.429-1.499,0.742-2.672,0.942-3.521c0.341-1.509,0.506-2.815,0.496-3.917C233.824,76.139,232.319,73.935,229.366,72.612z"/>
				
					<path fill-rule="evenodd" clip-rule="evenodd" fill="none" stroke="#292929" stroke-width="1.5" stroke-linecap="round" stroke-linejoin="round" stroke-miterlimit="3" d="
					M216.605,80.895c0.54,0.209,1.768,0.627,3.686,1.255c1.963,0.717,3.669,1.504,5.123,2.364c4.398,2.623,6.978,6.215,7.737,10.777
					"/>
				
					<path fill-rule="evenodd" clip-rule="evenodd" fill="none" stroke="#292929" stroke-width="1.5" stroke-linecap="round" stroke-linejoin="round" stroke-miterlimit="3" d="
					M220.192,138.12c-0.276,0.948,0.077,2.943,1.059,5.983c1.024,3.13,2.055,5.213,3.091,6.249c1.024,1.036,2.771,2.213,5.238,3.535
					c2.326,1.248,4.3,2.105,5.918,2.58"/>
				
					<path fill-rule="evenodd" clip-rule="evenodd" fill="none" stroke="#292929" stroke-width="1.5" stroke-linecap="round" stroke-linejoin="round" stroke-miterlimit="3" d="
					M79.325,163.146c0.144,0.208,0.563,0.314,1.257,0.314c0.782,0,1.416-0.188,1.9-0.563c0.462-0.54,0.782-0.854,0.958-0.941
					c0.242-0.11,0.8,0.121,1.669,0.693c0.684,0.441,1.411,1.014,2.182,1.72c0.585,0.441,1.218,0.589,1.901,0.446
					c0.43-0.088,0.926-0.413,1.488-0.977c0.463-0.473,1.168-0.71,2.116-0.71c1.344,0,2.022,0,2.033,0
					c0.144,0.034,0.706,0.276,1.687,0.727c1.311,0.617,2.264,1.015,2.859,1.191c0.97,0.275,1.774,0.275,2.414,0
					c0.506-0.209,1.107-0.557,1.802-1.041c0.672-0.474,1.152-0.766,1.438-0.877c0.32-0.121,0.92-0.368,1.802-0.743
					c0.783-0.242,1.35-0.143,1.703,0.298"/>
				
					<path fill-rule="evenodd" clip-rule="evenodd" fill="none" stroke="#292929" stroke-width="1.5" stroke-linecap="round" stroke-linejoin="round" stroke-miterlimit="3" d="
					M166.933,136.5c1.697,0.231,3.389,0.314,5.075,0.248c1.499-0.056,2.766-0.216,3.802-0.479c0.893-0.232,1.422-0.314,1.587-0.249
					c0.22,0.078,0.811,0.48,1.77,1.207c1.167,0.772,2.026,1.253,2.577,1.439c0.684,0.229,1.423,0.229,2.216,0
					c0.056-0.012,0.605-0.221,1.653-0.629c0.408-0.154,0.898-0.186,1.471-0.1c0.485,0.089,1.791,0.276,3.917,0.563
					c2.128,0.375,3.775,0.882,4.942,1.521"/>
				
					<path fill-rule="evenodd" clip-rule="evenodd" fill="none" stroke="#292929" stroke-width="1.5" stroke-linecap="round" stroke-linejoin="round" stroke-miterlimit="3" d="
					M106.716,129.061c0.242,1.278,0.528,2.815,0.859,4.612c0.221,1.322,0.331,2.507,0.331,3.553c0,0.806-0.122,2.32-0.363,4.547
					c-0.144,2.159-0.022,3.923,0.363,5.289c0.319,1.125,1.102,3.818,2.347,8.084c1.113,3.988,1.741,6.71,1.885,8.165"/>
				
					<path fill-rule="evenodd" clip-rule="evenodd" fill="none" stroke="#292929" stroke-width="1.5" stroke-linecap="round" stroke-linejoin="round" stroke-miterlimit="3" d="
					M53.771,160.633c0.276-0.485,1.069-1.449,2.38-2.892c1.477-1.632,2.414-2.713,2.81-3.24c0.948-1.29,2.27-3.813,3.967-7.57
					c0.452-1.003,1.273-2.198,2.463-3.588c1.234-1.322,1.973-2.121,2.215-2.396"/>
			</g>
		</g>
	</g>
	
		<path fill-rule="evenodd" clip-rule="evenodd" fill="none" stroke="#292929" stroke-width="1.5" stroke-linecap="round" stroke-linejoin="round" stroke-miterlimit="3" d="
		M196.25,86c-3.76-2.009-9.566-4.24-13.75-4.25c-4.445-0.01-6.264,2.521-8.3,6.343c-3.87,7.263,3.668,12.722,10.55,13.157"/>
	
		<path fill-rule="evenodd" clip-rule="evenodd" fill="none" stroke="#292929" stroke-width="1.5" stroke-linecap="round" stroke-linejoin="round" stroke-miterlimit="3" d="
		M180,88.75c1.761,1.978,4.538,1.38,6.585,2.739c1.582,1.05,2.309,2.772,3.835,3.911c3.075,2.295,6.208,1.649,8.83-0.4"/>
	<path fill-rule="evenodd" clip-rule="evenodd" fill="#292929" d="M243.053,145.56c1.896-0.573,3.334-1.185,4.314-1.834
		c0.706-0.474,1.422-1.174,2.149-2.1l1.257,1.289c0.946,0.991,1.709,1.829,2.28,2.513c0.595,0.739,0.541,1.637-0.164,2.694
		c-0.496,0.761-1.195,1.467-2.1,2.116c-1.08,0.793-1.753,1.263-2.016,1.405c-0.893,0.463-1.841,0.654-2.843,0.578
		c-1.126-0.089-2.034-1.02-2.73-2.793C242.528,147.698,242.479,146.408,243.053,145.56z"/>
	<path fill-rule="evenodd" clip-rule="evenodd" fill="#292929" d="M226.688,125.543c0,0.65-0.215,1.207-0.645,1.67
		c-0.439,0.463-0.97,0.693-1.587,0.693c-0.605,0-1.13-0.231-1.569-0.693c-0.432-0.463-0.646-1.02-0.646-1.67
		s0.214-1.212,0.646-1.688c0.439-0.462,0.964-0.692,1.569-0.692c0.617,0,1.147,0.23,1.587,0.692
		C226.474,124.331,226.688,124.893,226.688,125.543z"/>
	
		<circle fill-rule="evenodd" clip-rule="evenodd" fill="none" stroke="#292929" stroke-miterlimit="10" cx="224.875" cy="123.875" r="4.375"/>
</g>
<g id="Layer_2" display="none">
	
		<path display="inline" fill-rule="evenodd" clip-rule="evenodd" fill="none" stroke="#292929" stroke-width="1.5" stroke-linecap="round" stroke-linejoin="round" stroke-miterlimit="3" d="
		M117.75,40.75c-13.929-1.481-29.069-5.828-42.413,0.194c-4.328,1.953-8.199,4.466-12.328,6.764
		c-5.36,2.982-10.307,5.735-13.912,10.966c-4.286,6.217-8.05,12.917-11.789,19.459c-3.806,6.66-6.346,13.176-6.613,20.84
		c-0.179,5.15-0.184,10.217-0.837,15.319c-1.082,8.453-3.436,16.782-4.756,25.223c-1.788,11.436-4.27,22.742-4.546,34.366
		c-0.133,5.58-0.328,11.153-0.613,16.725c-0.205,3.998-1.836,7.464-2.4,11.325c-0.528,3.619,1.348,4.545,3.307,7.326
		c2.423,3.44,3.899,6.047,8.081,7.927c5.256,2.362,11.447,1.686,16.928,0.811c2.846-0.454,5.313-1.087,4.673-4.657
		c-0.584-3.257-4.743-4.646-6.281-7.619c-2.902-5.608-2.776-12.717,0.017-18.198c1.972-3.87,5.825-7.951,5.481-12.455
		c-0.148-1.942-1.276-3.377-1.283-5.396c-0.012-4.08,3.869-9.331,6.909-11.886c7.779-6.538,13.882-14.21,16.874-24.282"/>
	
		<path display="inline" fill-rule="evenodd" clip-rule="evenodd" fill="none" stroke="#292929" stroke-width="1.5" stroke-linecap="round" stroke-linejoin="round" stroke-miterlimit="3" d="
		M53,160.5c3.048-0.01,5.316-0.719,8.254-1.178c0.988-0.154,2.316-0.283,3.295-0.033c0.601,0.152,1.019,1.029,1.759,1.241
		c0.646,0.186,1.653-0.044,2.337-0.03c3.705,0.073,6.44-0.235,9.591,2.139c2.401,1.809,3.173,3.024,5.829,2.415
		c1.324-0.304,2.152-1.119,3.858-0.845c1.544,0.248,2.536,1.001,4.064,1.32c2.375,0.497,5.052-0.39,7.464-0.04
		c1.061,0.154,3.703,1.693,4.543,1.531c1.133-0.217,0.934-1.139,1.764-1.51c2.581-1.152,3.292-1.011,6.241-1.011"/>
	
		<path display="inline" fill-rule="evenodd" clip-rule="evenodd" fill="none" stroke="#292929" stroke-width="1.5" stroke-linecap="round" stroke-linejoin="round" stroke-miterlimit="3" d="
		M79.75,163.75c2.94,9.048,5.441,17.253,5.013,26.809c-0.191,4.261-0.258,7.056,3.238,9.879c2.029,1.639,5.421,2.913,7.862,4.247
		c3.093,1.69,7.789,3.898,11.458,3.067c1.701-0.385,3.057-1.532,4.67-2.321c1.809-0.885,4.536-1.462,5.967-2.916
		c2.487-2.529,1.294-6.646-0.763-9.201c-2.226-2.767-6.408-2.971-8.353-5.786c-0.922-1.335-0.895-2.941-1.086-4.471
		c-0.372-2.969-0.579-6.444-0.005-9.343c0.59-2.981,2.094-5.682,2.499-8.714"/>
	
		<path display="inline" fill-rule="evenodd" clip-rule="evenodd" fill="none" stroke="#292929" stroke-width="1.5" stroke-linecap="round" stroke-linejoin="round" stroke-miterlimit="3" d="
		M232.5,91.834c-1.321-4.201-0.597-2.643,1.264-6.776c1.166-2.591,0.173-4.429-0.264-7.558c-0.846-6.07-5.471-5.244-10.421-5.25
		c-2.432-0.003-5.349-0.074-7.622,0.932c-3.006,1.331-3.236,3.927-6.904,3.141c-3.282-0.704-6.547-1.926-9.845-2.691
		c-3.435-0.796-6.989-1.564-9.91-3.517c-4.936-3.298-6.415-8.616-9.786-12.914c-2.722-3.469-7.584-6.866-11.721-8.68
		c-3.837-1.683-10.709-0.904-14.64-0.091c-2.703,0.559-5.91,2.013-8.626,2.054c-2.919,0.044-5.834-2.01-8.649-2.625
		c-3.086-0.653-6.183-1.248-9.292-1.783c-2.165-0.91-0.992-0.543-2.639-1.585c-1.833-1.16-4.535-3.178-6.779-3.492"/>
	
		<path display="inline" fill-rule="evenodd" clip-rule="evenodd" fill="none" stroke="#292929" stroke-width="1.5" stroke-linecap="round" stroke-linejoin="round" stroke-miterlimit="3" d="
		M215.75,81.25c5.739,0.947,11.942,6.523,15.93,10.431c4.011,3.928,7.76,7.418,7.82,12.986c0.047,4.25,1.667,4.834-1.167,15.334
		c-1.376,5.099,1.399,5.147,1.918,7.362c0.759,3.237,2.593,6.142,4.176,9.05c1.004,1.844,2.018,3.087,3.445,4.516
		c1.678,1.679,4.549,2.068,5.181,4.5c0.799,3.072-2.819,9.248-4.793,11.04c-3.003,2.727-9.31,2.41-13.187,0.725
		c-4.521-1.965-9.571-5.426-11.973-9.723c-1.781-3.188-1.514-6.23-2.351-9.72"/>
	
		<path display="inline" fill-rule="evenodd" clip-rule="evenodd" fill="none" stroke="#292929" stroke-width="1.5" stroke-linecap="round" stroke-linejoin="round" stroke-miterlimit="3" d="
		M165.5,137.25c3.877,0.689,8.136,0.294,11.944-0.48c2.898,6.582,11.893-0.089,16.762,2.05c0.725,0.319,1.634,1.916,2.374,2.484
		c1.367,1.052,3.196,1.808,4.727,2.648c2.239,1.229,3.991,2.455,5.997,4.138c4.18,3.506,9.355,6.721,14.368,8.86
		C225.713,158.675,230.7,158,235,158"/>
	
		<path display="inline" fill-rule="evenodd" clip-rule="evenodd" fill="none" stroke="#292929" stroke-width="1.5" stroke-linecap="round" stroke-linejoin="round" stroke-miterlimit="3" d="
		M196.25,86c-3.76-2.009-9.566-4.24-13.75-4.25c-4.445-0.01-6.264,2.521-8.3,6.343c-3.87,7.263,3.668,12.722,10.55,13.157"/>
	
		<path display="inline" fill-rule="evenodd" clip-rule="evenodd" fill="none" stroke="#292929" stroke-width="1.5" stroke-linecap="round" stroke-linejoin="round" stroke-miterlimit="3" d="
		M180,88.75c1.761,1.978,4.538,1.38,6.585,2.739c1.582,1.05,2.309,2.772,3.835,3.911c3.075,2.295,6.208,1.649,8.83-0.4"/>
	
		<path display="inline" fill-rule="evenodd" clip-rule="evenodd" fill="none" stroke="#292929" stroke-width="1.5" stroke-linecap="round" stroke-linejoin="round" stroke-miterlimit="3" d="
		M106.25,128c0.035,6.344,2.506,11.958,2.5,18.188c-0.006,6.348,1.375,10.715,2.814,16.809c1.048,4.439,1.023,8.314,3.464,12.326
		c2.295,3.771,4.304,5.435,4.722,9.678c0.216,2.198-0.158,4.66,0.462,6.787c0.768,2.636,2.994,4.351,3.821,6.898
		c0.855,2.632,7.425,7.864,6.717,10.565c4.39,4.297,4.624,6.367,5.932,12.875c0.382,1.898,4.889,2.435,5.068,4.375
		c2.986,1.166,1.798,3.033,4.955,3.645c3.234,0.628,6.409,1.598,9.749,1.363c2.142-0.149,5.279-1.163,6.915-2.526
		c3.739-3.117,5.427-7.873,3.131-11.232c-2.715-3.975-7.415-9.428-9.161-13.954c-1.208-3.13-3.115-5.579-4.733-8.56
		c-2.445-4.506-4.371-5.91-4.605-10.902c-0.077-1.639,0.272-3.082-0.688-4.46c0.018,0.27,0.223-2.643,0.188-2.374
		c-0.605-2.209-3.408-4.338-3.833-6.5c-0.619-3.153,0.506-8.136,0.5-11.333c-0.008-4.095,1.613-2.872,5.166-5.167
		c2.053-1.326,4.253-0.314,6.717-0.226c1.031,0.036,1.316,1.827,2.576-0.015c4.293,3.11,4.074,10.964,4.373,15.789
		c0.345,5.554,1.195,11.061,1.257,16.642c0.04,3.662,0.858,6.717,1.132,10.365c0.293,3.901,0.18,6.958,1.542,10.748
		c1.101,3.063,2.397,5.966,3.002,9.165c0.346,1.831,0.596,3.571,1.076,5.333c0.335,1.225,0.511,2.113,1.386,3.202
		c3.512,4.37,6.413,2.681,11.148,3.131c3.467,0.33,8.713,6.274,12.639,3.797c1.42-0.896,3.434-4.082,3.574-5.677
		c0.21-2.38-1.767-6.31-3.141-8.209c-2.192-3.027-6.673-3.722-8.693-6.641c-2.172-3.137-0.258-10.904-0.171-14.517
		c0.116-4.835,0.129-9.494,2.118-13.82c1.573-3.421,2.592-6.174,2.632-10.014c0.039-3.773,0.861-6.939,1.311-10.586
		c0.902-7.309-0.899-14.895,2.769-21.665"/>
	<path display="inline" fill-rule="evenodd" clip-rule="evenodd" fill="#292929" d="M243.053,145.56
		c1.896-0.573,3.334-1.185,4.314-1.834c0.706-0.474,1.422-1.174,2.149-2.1l1.257,1.289c0.946,0.991,1.709,1.829,2.28,2.513
		c0.595,0.739,0.541,1.637-0.164,2.694c-0.496,0.761-1.195,1.467-2.1,2.116c-1.08,0.793-1.753,1.263-2.016,1.405
		c-0.893,0.463-1.841,0.654-2.843,0.578c-1.126-0.089-2.034-1.02-2.73-2.793C242.528,147.698,242.479,146.408,243.053,145.56z"/>
	<path display="inline" fill-rule="evenodd" clip-rule="evenodd" fill="#292929" d="M226.688,125.543c0,0.65-0.215,1.207-0.645,1.67
		c-0.439,0.463-0.97,0.693-1.587,0.693c-0.605,0-1.13-0.231-1.569-0.693c-0.432-0.463-0.646-1.02-0.646-1.67
		s0.214-1.212,0.646-1.688c0.439-0.462,0.964-0.692,1.569-0.692c0.617,0,1.147,0.23,1.587,0.692
		C226.474,124.331,226.688,124.893,226.688,125.543z"/>
	
		<circle display="inline" fill-rule="evenodd" clip-rule="evenodd" fill="none" stroke="#292929" stroke-miterlimit="10" cx="224.875" cy="123.875" r="4.375"/>
</g>
</svg>
