<?xml version="1.0" encoding="utf-8"?>
<!-- Generator: Adobe Illustrator 17.0.1, SVG Export Plug-In . SVG Version: 6.00 Build 0)  -->
<!DOCTYPE svg PUBLIC "-//W3C//DTD SVG 1.1//EN" "http://www.w3.org/Graphics/SVG/1.1/DTD/svg11.dtd">
<svg version="1.1" id="Layer_1" xmlns="http://www.w3.org/2000/svg" xmlns:xlink="http://www.w3.org/1999/xlink" x="0px" y="0px"
	 width="255.502px" height="146.296px" viewBox="3.254 42.865 255.502 146.296"
	 enable-background="new 3.254 42.865 255.502 146.296" xml:space="preserve">
<g id="XMLID_2_">
	<g>
		<path fill="#292929" d="M254.269,128.584c-2.304,3.132-4.37,5.572-6.196,7.324c-2.34,2.242-4.685,3.991-7.034,5.254
			c-3.752,1.999-8.435,3.449-14.046,4.339c-2.122,0.339-6.02,0.67-11.702,0.994c-3.187,0.17-5.591,0.26-7.211,0.267
			c1.403-1.251,2.612-2.421,3.61-3.501c2.088-0.051,5.009-0.222,8.775-0.52c7.845-0.618,13.805-1.588,17.88-2.9
			c4.1-1.327,8.215-4.206,12.34-8.633c1.411-1.532,2.938-3.368,4.58-5.498c0.894-1.174,2.059-2.731,3.491-4.666
			C258.246,122.708,256.748,125.219,254.269,128.584z"/>
		<g>
			<path d="M225.672,118.1c4.099-1.327,8.21-4.206,12.333-8.629c1.412-1.537,2.935-3.368,4.568-5.498
				c0.902-1.166,2.067-2.716,3.491-4.652c-0.509,1.654-1.999,4.165-4.472,7.538c-2.293,3.121-4.362,5.566-6.198,7.326
				c-2.339,2.241-4.69,3.987-7.048,5.236c-3.739,2.002-8.395,3.616-14.032,4.357c-0.722,0.095-8.88,0.725-3.807,0.438
				c0.021-0.147-4.565,0.541-5.618-1.187s0.216-0.851,0.292-1.821C211.531,120.589,222.143,119.241,225.672,118.1z"/>
		</g>
		<path fill="#FFFFFF" stroke="#292929" stroke-width="1.5424" stroke-miterlimit="10" d="M191.456,163.318
			c-4.115,4.449-7.202,6.084-9.268,4.907c-2.035-1.159-3.009-4.44-2.919-9.832c0.02-1.242,0.138-3.361,0.357-6.348
			c0.176-2.392,0.224-4.016,0.148-4.878c-0.684-0.457-1.398-1.564-2.135-3.329c-0.405-0.966-0.738-1.759-1.001-2.383
			c0.401-1.241,0.685-2.237,0.851-3.005c6.694-5.908,11.112-13.528,13.261-22.851c0.743-3.219,1.19-6.579,1.341-10.07
			c0.009-3.077,0.024-4.846,0.047-5.303l0.653-1.09c0.567-0.884,1.17-1.684,1.814-2.402c2.035-2.302,4.055-3.421,6.067-3.344
			c4.691,0.194,8.521,1.755,11.488,4.686c2.14,2.116,4.006,5.207,5.595,9.266c1.007,2.588,1.272,6.819,0.783,12.705
			c-0.988,0.096-2.01,0.18-3.066,0.266c-4.565,0.357-7.897,0.536-9.993,0.536c-0.414-0.989-0.962-1.859-1.643-2.611
			c-0.913-1.008-1.95-1.628-3.115-1.841c-1.174-0.229-2.326-0.024-3.458,0.618c-1.317,0.728-2.3,1.755-2.954,3.083
			c-0.659,1.351-1.102,3.26-1.321,5.728c-0.314,3.643-1.732,8.767-4.258,15.372c-0.043,0.13-0.77,1.798-2.187,5.008
			c-0.705,1.61-0.971,2.641-0.8,3.097c0.228,0.611,1.533,0.548,3.901-0.194c2.449-0.761,4.418-1.789,5.908-3.08
			c2.934-2.525,5.023-4.588,6.263-6.186c2.665-3.44,4.182-7.206,4.552-11.306c0.14-1.561,0.13-2.987-0.022-4.287
			c1.409-0.052,2.216-0.089,3.957-0.185c3.187-0.175,5.818-0.357,7.891-0.542c-0.733,6.312-1.732,11.211-2.996,14.69
			c-0.519,1.412-1.689,3.096-3.505,5.05c-1.312,0.033-2.292,0.02-2.939-0.044c-1.158-0.119-1.809-0.178-1.96-0.178
			c-0.684,0.041-1.198,0.327-1.551,0.849c-0.271,0.4-0.404,0.862-0.404,1.384c0,0.644,0.271,1.087,0.813,1.324
			c0.261,0.112,1.075,0.169,2.43,0.166c-0.353,0.314-0.719,0.635-1.093,0.96c-4.772,3.805-7.539,6.089-8.305,6.851
			c-0.279,0.285-1.228,1.445-2.835,3.49C194.123,160.263,192.663,162.012,191.456,163.318z"/>
		<path fill="#292929" d="M208.75,143.216c0.647,0.064,1.627,0.077,2.939,0.044c-0.998,1.082-2.207,2.25-3.61,3.501
			c-1.355,0.003-2.169-0.053-2.43-0.166c-0.542-0.238-0.813-0.681-0.813-1.324c0-0.522,0.133-0.984,0.404-1.384
			c0.353-0.522,0.867-0.808,1.551-0.849C206.941,143.04,207.592,143.097,208.75,143.216z"/>
		<path fill="#FFFFFF" d="M198.553,123.998c0.227,0.879,0.227,1.922,0,3.116c-0.151,0.741-0.556,1.569-1.209,2.483
			c-0.662,0.947-1.166,1.345-1.498,1.208c-0.327-0.133-0.461-0.561-0.409-1.289c0.043-0.581,0.228-1.476,0.553-2.693
			c-0.095,0.195-0.234,0.371-0.407,0.537c-0.36,0.339-0.748,0.443-1.159,0.324c-0.467-0.138-0.714-0.661-0.734-1.565
			c-0.022-0.827,0.125-1.636,0.438-2.429c0.262-0.645,0.663-0.877,1.195-0.705c0.476,0.143,0.84,0.476,1.093,0.999
			C197.525,122.808,198.238,122.813,198.553,123.998z"/>
		<path fill="#292929" d="M194.127,123.69c-0.313,0.793-0.46,1.602-0.438,2.429c0.021,0.904,0.267,1.427,0.734,1.565
			c0.411,0.119,0.799,0.014,1.159-0.324c0.173-0.166,0.313-0.341,0.407-0.537c-0.325,1.217-0.51,2.111-0.553,2.693
			c-0.051,0.728,0.082,1.157,0.409,1.289c0.332,0.137,0.836-0.261,1.498-1.208c0.653-0.913,1.057-1.741,1.209-2.483
			c0.227-1.195,0.227-2.236,0-3.116c-0.315-1.185-1.027-1.19-2.137-0.014c-0.253-0.523-0.618-0.857-1.093-0.999
			C194.79,122.813,194.389,123.045,194.127,123.69z M192.987,125.825c0.219-2.469,0.663-4.376,1.321-5.728
			c0.654-1.327,1.637-2.355,2.954-3.083c1.133-0.642,2.285-0.846,3.458-0.618c1.165,0.214,2.203,0.833,3.115,1.841
			c0.681,0.752,2.139,0.998,2.044,1.009c-0.686,0.034-0.402,1.078-0.402,1.602c0,0.638,0.402-1.003,0.866,3.401
			c0.151,1.3,0.161,2.726,0.022,4.287c-0.369,4.1-1.887,7.866-4.552,11.306c-1.24,1.598-3.329,3.661-6.263,6.186
			c-1.49,1.29-3.459,2.319-5.908,3.08c-2.368,0.743-3.673,0.805-3.901,0.194c-0.171-0.456,0.096-1.486,0.8-3.097
			c1.417-3.209,2.144-4.878,2.187-5.008C191.255,134.591,192.673,129.468,192.987,125.825z"/>
		<path fill="#292929" d="M177.671,137.003c0.028,0.304-0.028,0.785-0.182,1.446c-0.509,0.456-1.032,0.894-1.569,1.326
			c-2.768,2.522-5.598,4.5-8.499,5.939c0.285-0.792,0.613-1.697,0.978-2.709c1.426-3.849,2.312-6.121,2.659-6.822
			c0.371-0.736,0.937-1.374,1.699-1.906c0.861-0.586,1.736-0.853,2.625-0.799c0.937,0.066,1.574,0.484,1.912,1.255
			C177.448,135.105,177.571,135.86,177.671,137.003z"/>
		<path fill="#292929" d="M177.49,138.448c-0.167,0.767-0.45,1.763-0.851,3.005c-0.47-1.113-0.707-1.674-0.718-1.678
			C176.457,139.342,176.981,138.904,177.49,138.448z"/>
		<path fill="#292929" d="M175.92,139.775c0.01,0.004,0.248,0.566,0.718,1.678c-0.175,0.535-0.37,1.108-0.583,1.734
			c-1.218,3.499-2.436,6.302-3.66,8.405c1.885,1.869,2.951,5.973,3.2,12.314c0.118,3.143,0.034,6.543-0.26,10.198
			c-0.371-0.541-0.834-1.056-1.389-1.531c-0.695-0.598-1.222-0.804-1.579-0.623c-0.285,0.143-0.785,0.664-1.503,1.569
			c-0.676,0.846-1.075,1.27-1.208,1.27c0.285-0.728,0.707-3.457,1.275-8.192c0.566-4.803,0.752-7.468,0.551-7.976
			c-0.052-0.142-1.042-1.569-2.97-4.29c-1.74-2.468-2.557-3.971-2.463-4.507c0.104-0.478,0.561-1.85,1.371-4.109
			C170.322,144.275,173.152,142.297,175.92,139.775z"/>
		<path fill="none" stroke="#292929" stroke-width="1.5424" stroke-miterlimit="10" d="M96.105,71.771
			c2.647-2.826,7.978-3.425,16.007-1.794c0.88,0.181,1.826,0.391,2.844,0.638c0.385,0.105,0.742,0.199,1.071,0.29
			c0.21,0.413,1.064,1.042,2.577,1.88c1.589,0.879,3.234,1.622,4.947,2.217c4.666,1.631,7.138,1.36,7.42-0.813
			c-0.008-0.034-0.02-0.063-0.028-0.097c6.236-4.399,13.079-6.149,20.524-5.255c6.502,0.78,13.18,3.52,20.035,8.204
			c5.493,3.777,10.412,8.267,14.765,13.475c1.782,2.137,3.209,4.096,4.277,5.893c1.03,1.717,1.564,2.992,1.596,3.815
			c-0.023,0.456-0.038,2.226-0.047,5.303c-0.15,3.492-0.597,6.851-1.341,10.07c-2.15,9.322-6.568,16.943-13.261,22.851
			c0.153-0.662,0.21-1.141,0.182-1.446c-0.101-1.141-0.224-1.898-0.376-2.269c-0.337-0.771-0.975-1.189-1.912-1.255
			c-0.889-0.054-1.764,0.213-2.625,0.799c-0.762,0.533-1.327,1.17-1.699,1.906c-0.348,0.701-1.233,2.974-2.659,6.822
			c-0.365,1.012-0.693,1.918-0.978,2.709c-4.648,2.314-9.468,3.236-14.453,2.769c-0.246-2.021-0.613-4.091-1.098-6.212
			c-0.574-2.494-2.162-5.861-4.759-10.097c-2.451-3.997-4.51-6.755-6.185-8.292c-1.372-1.25-2.751-1.759-4.129-1.531
			c-0.98,0.162-1.812,0.628-2.497,1.404c0.219,0.062,0.646,0.557,1.289,1.485c0.652,0.946,1.075,1.71,1.273,2.3
			c0.914,2.727,2.054,5.771,3.425,9.12c1.531,3.718,3.035,6.992,4.514,9.805c-2.498-0.981-5.066-2.319-7.711-4.001
			c-3.059,0.22-7.383-0.683-12.97-2.705c-2.64-0.96-4.813-1.896-6.521-2.819c0.534-1.018,0.695-1.941,0.481-2.777
			c-0.281-1.167-0.561-1.894-0.848-2.184c-0.38-0.209-0.728-0.429-1.042-0.656l-2.573,2.617l-0.006-0.004
			c-2.668-0.403-4.795-1.438-6.383-3.103c-0.345-0.358-0.87-0.99-1.564-1.888c-0.333-0.447-0.632-0.799-0.895-1.055
			c0.114-0.127,0.214-0.261,0.308-0.402c1.304-2.686,2.378-6.176,3.232-10.474c1.05-5.327,1.383-10.473,1.012-15.443
			c3.629,0.585,7.772,1.299,12.43,2.145c9.246,1.689,15.02,2.897,17.328,3.625c1.641,0.509,3.462,1.313,5.465,2.398
			c1.689,0.913,2.759,1.393,3.214,1.435c0.524,0.053,2.188,0.277,4.994,0.67c2.806,0.339,4.791,0.443,5.956,0.324
			c1.031-0.096,2.257,0.118,3.686,0.652c1.359,0.503,2.257,0.714,2.706,0.638c1.124-0.206,2.022-0.538,2.71-0.993
			c1.01-0.676,1.484-1.579,1.418-2.706c-0.075-1.451-0.675-2.882-1.794-4.308c-1.283-1.632-2.913-2.706-4.893-3.231
			c-1.445-0.395-3.599-0.514-6.464-0.362c-2.63,0.134-4.367,0.015-5.203-0.357c-5.572-2.916-11.284-5.808-17.148-8.681
			c-11.573-5.655-20.743-9.546-27.507-11.662c-0.395-0.124-0.808-0.257-1.237-0.395l0.077-0.248c0.104,0.034,0.209,0.067,0.308,0.1
			l-0.014-0.113c-0.534-1.009-1.649-2.364-3.344-4.063C99.987,74.392,98.018,72.836,96.105,71.771z"/>
		<path fill="#292929" d="M152.969,148.484c-0.332-0.029-0.664-0.066-0.998-0.11c-2.315-0.297-4.704-0.929-7.168-1.907
			c-1.479-2.813-2.982-6.087-4.514-9.805c-1.371-3.349-2.511-6.393-3.425-9.12c-0.198-0.59-0.621-1.354-1.273-2.3
			c-0.644-0.929-1.07-1.423-1.289-1.485c0.685-0.775,1.517-1.241,2.497-1.404c1.379-0.228,2.758,0.28,4.129,1.531
			c1.675,1.537,3.734,4.295,6.185,8.292c2.596,4.236,4.185,7.605,4.759,10.097C152.356,144.393,152.723,146.464,152.969,148.484z"/>
		<path fill="#292929" d="M151.971,148.373c0.334,0.044,0.665,0.081,0.998,0.11c0.011,0.07,0.021,0.142,0.029,0.215
			c0.119,1.047,0.191,1.873,0.216,2.482c2.519,2.521,5.316,5.975,8.384,10.361c4.025,5.763,5.598,9.518,4.734,11.258
			c1.084,1.606,2.398,3.229,3.927,4.862c1.895,2.011,3.51,3.322,4.848,3.932c1.935,0.88,3.558,2.997,4.861,6.345
			c-2.958-1.042-4.483-1.358-4.585-0.947c-0.096,0.362-1.042,1.087-2.839,2.17c0.107-0.676,0.142-1.483,0.099-2.431l-0.099-1.222
			c-0.729-0.835-2.436-2.959-5.122-6.363l-3.801-4.849c-0.379-0.042-1.38-0.844-3-2.412c-1.794-1.731-3.569-3.67-5.319-5.825
			c-4.909-5.993-7.45-10.859-7.619-14.6c-0.953-1.469-1.906-3.132-2.878-4.993C147.266,147.445,149.656,148.076,151.971,148.373z"/>
		<path fill="#292929" d="M118.082,134.163c0.214,0.836,0.051,1.759-0.481,2.777c-1.907-1.022-3.234-2.026-3.98-3l2.573-2.617
			c0.314,0.227,0.661,0.447,1.042,0.656C117.521,132.269,117.802,132.996,118.082,134.163z"/>
		<path fill="#292929" d="M113.62,133.94c0.747,0.975,2.073,1.978,3.98,3c-0.257,0.494-0.604,1.008-1.036,1.544
			c-1.161,1.438-2.413,2.47-3.753,3.103c0.308,1.447-0.181,2.902-1.465,4.371c-0.836,0.971-2.24,2.125-4.209,3.478
			c-0.895,0.608-3.524,1.945-7.895,4.014c-4.059,1.914-6.427,3.189-7.102,3.813c-4.448,4.148-7.015,6.809-7.702,7.983
			c-0.38,0.652-0.395,2.37-0.047,5.158c0.196,1.506,0.486,3.662,0.866,6.457c-1.807-0.906-3.297-1.579-4.471-2.022
			c-0.827-0.329-1.798-0.329-2.921,0c-0.965,0.271-2.111,0.808-3.424,1.613c-0.067-0.316,0.771-2.214,2.511-5.694
			c1.622-3.263,2.991-5.869,4.11-7.815c0.894-1.548,2.078-3.09,3.558-4.632c0.817-0.837,2.106-2.043,3.866-3.605
			c0.795-0.71,4.049-3.191,9.757-7.446c5.56-4.118,8.613-6.458,9.169-7.01L113.62,133.94z"/>
		<path fill="#292929" d="M99.958,100.225c2.608,0.319,5.727,0.765,9.366,1.346c0.371,4.971,0.039,10.116-1.012,15.443
			c-0.853,4.297-1.928,7.788-3.232,10.474c-0.095,0.14-0.194,0.275-0.308,0.402c-0.147-0.149-0.285-0.261-0.408-0.349
			c-0.966,1.431-2.836,2.276-5.608,2.525c-0.015,0-0.028,0-0.043,0c-0.499,0.028-1.035,0.044-1.607,0.048c-0.013,0-0.024,0-0.037,0
			l-0.014-0.013c0.446-5.874,0.719-10.494,0.813-13.852c0.151-5.675-0.01-11.121-0.485-16.347
			C98.275,100.015,99.132,100.124,99.958,100.225z"/>
		<path fill="#292929" d="M104.771,127.889c-0.723,0.841-1.774,1.436-3.153,1.787c-0.76,0.196-1.716,0.325-2.863,0.39
			c2.772-0.249,4.642-1.093,5.608-2.525C104.487,127.627,104.624,127.74,104.771,127.889z"/>
		<path fill="#FFFFFF" d="M100.657,100.177c2.079,0.253,4.96,0.666,8.648,1.242l0.014,0.081c0,0.024,0.004,0.047,0.004,0.071
			c-3.639-0.58-6.759-1.027-9.366-1.346c-0.827-0.101-1.683-0.21-2.577-0.324c0-0.005,0-0.014,0-0.02l-0.02-0.129L100.657,100.177z"
			/>
		<path fill="#FFFFFF" d="M98.712,130.065c-0.308,0.035-0.627,0.053-0.96,0.068c-0.22-0.005-0.438-0.015-0.648-0.021
			C97.677,130.109,98.213,130.094,98.712,130.065z"/>
		<path fill="#292929" d="M97.053,130.101l0.014,0.013c-3.117-0.09-5.094,0-5.936,0.264v0.002
			c-8.523,0.475-15.04-4.775-19.55-15.748c-1.531-3.71-2.716-7.82-3.553-12.334c-0.599-3.134-0.885-5.379-0.87-6.73
			c2.545,0.405,5.589,0.87,9.142,1.398c0.004,1.022,0.233,2.597,0.685,4.728c0.676,3.11,1.65,6.146,2.935,9.104
			C83.739,119.641,89.448,126.077,97.053,130.101z"/>
		<path fill="#FFFFFF" d="M86.869,68.803c2.035,0.153,4.029,0.572,5.974,1.257c1.684,0.599,2.774,1.17,3.262,1.713
			c0.51,1.132,0.829,1.978,0.948,2.545c0.186,0.817,0.252,1.993,0.194,3.524l-0.013,0.08c3.071,1.038,5.679,1.903,7.829,2.592
			l-0.077,0.248c-3.005-0.956-6.826-2.23-11.471-3.82c-6.912-2.368-11.122-3.806-12.63-4.304c-1.374-0.457-2.687-0.88-3.933-1.274
			C79.387,69.335,82.694,68.485,86.869,68.803z"/>
		<path fill="#292929" d="M91.131,130.378c0.842-0.264,2.819-0.355,5.936-0.264c-1.39-0.021-2.394-0.023-3.001-0.013
			c-1.009,0.009-1.751,0.086-2.217,0.229c-0.243,0.023-0.479,0.041-0.718,0.05C91.131,130.38,91.131,130.378,91.131,130.378z"/>
		<path fill="#FFFFFF" d="M76.3,96.966c0.604,0.09,1.222,0.181,1.861,0.277c7.581,1.103,13.983,1.993,19.22,2.658
			c0.475,5.227,0.638,10.673,0.485,16.347c-0.095,3.357-0.367,7.977-0.813,13.852c-7.605-4.024-13.314-10.46-17.134-19.302
			c-1.284-2.958-2.259-5.994-2.935-9.104C76.534,99.563,76.304,97.989,76.3,96.966z"/>
		<path fill="#292929" d="M72.518,139.39c-0.227,0.024-0.424,0.057-0.594,0.088c-2.435,3.406-5.522,5.672-9.267,6.791
			c-1.469,0.446-2.863,0.69-4.179,0.727c-1.123-0.03-2.189-0.208-3.193-0.546c-3.067-3.972-6.008-8.321-8.813-13.053
			c-3.145-5.299-5.64-10.289-7.506-14.978c-4.519-11.359-4.542-18.875-0.082-22.541c0.149-0.123,0.3-0.239,0.458-0.353
			c0.134-0.508,0.638-1.254,1.518-2.23c0.871-0.971,1.745-1.764,2.629-2.383c-0.294,4.742,0.734,10.18,3.083,16.315
			C51.124,119.099,59.776,129.816,72.518,139.39z"/>
		<path fill="#FFFFFF" d="M67.163,95.396c2.217,0.361,5.265,0.828,9.137,1.404c0,0.052,0,0.109,0,0.167
			c-3.554-0.529-6.597-0.993-9.142-1.398C67.158,95.51,67.158,95.453,67.163,95.396z"/>
		<path fill="#FFFFFF" stroke="#292929" stroke-width="1.5424" stroke-miterlimit="10" d="M45.539,89.438
			c-0.742,0.332-1.398,0.66-1.96,0.975c-5.095-1.337-8.59-2.388-10.482-3.14c-2.18-0.86-4.324-2.387-6.446-4.584
			c-1.96-2.036-2.897-3.492-2.806-4.371c0.062-0.699,2.093-2.078,6.084-4.148c2.94-1.507,6.364-3.121,10.279-4.828
			c2.881-1.25,6.169-1.94,9.855-2.073c1.468-0.052,5.246,0.071,11.34,0.375c2.968,0.152,8.152,1.389,15.548,3.72
			c-0.889,0.737-1.661,1.631-2.316,2.678c-0.929,0.837-1.956,1.518-3.083,2.041c-1.208,0.467-2.075,0.813-2.596,1.042
			c-0.88,0.37-1.556,0.832-2.023,1.389c-0.608,0.694-1.079,1.717-1.403,3.067c-2.054-0.514-4.756-0.276-8.095,0.718
			c-3.781,1.128-6.16,2.787-7.13,4.975c-1.043,0.543-2.307,1.128-3.801,1.747C46.168,89.161,45.844,89.299,45.539,89.438z"/>
		<path fill="#292929" d="M63.376,146.268c-1.74,0.526-3.376,0.768-4.898,0.727c1.316-0.037,2.71-0.281,4.179-0.727
			c3.745-1.119,6.832-3.384,9.267-6.791c0.171-0.032,0.367-0.064,0.594-0.088c0,0,0,0,0.004,0c0.038,0.028,0.082,0.062,0.12,0.088
			C70.197,142.884,67.106,145.15,63.376,146.268z"/>
		<path fill="#FFFFFF" d="M58.478,146.995c-1.157,0.031-2.256-0.086-3.299-0.366c0.039-0.062,0.073-0.119,0.106-0.18
			C56.289,146.788,57.356,146.965,58.478,146.995z"/>
		<path fill="#292929" d="M51.909,150.188c-1.636,1.084-3.458,1.597-5.471,1.535c1.734-0.066,3.316-0.579,4.754-1.535
			c1.447-0.962,2.573-2.207,3.377-3.739c0.201,0.064,0.406,0.126,0.613,0.18C54.378,148.079,53.288,149.263,51.909,150.188z"/>
		<path fill="#FFFFFF" stroke="#000000" stroke-width="1.5424" stroke-miterlimit="10" d="M59.557,94.235
			c-3.62-0.736-8.228-1.826-13.819-3.263c-0.751-0.19-1.468-0.38-2.159-0.56c0.561-0.315,1.217-0.643,1.96-0.975
			c0.304-0.139,0.628-0.277,0.966-0.418c1.494-0.619,2.759-1.204,3.801-1.747c0.969-2.188,3.348-3.848,7.13-4.975
			c3.34-0.993,6.041-1.232,8.095-0.718c0.324-1.35,0.795-2.374,1.403-3.067c0.467-0.557,1.142-1.018,2.023-1.389
			c0.522-0.229,1.388-0.576,2.596-1.042c1.127-0.523,2.154-1.203,3.083-2.041c0.656-1.046,1.426-1.94,2.316-2.678
			c1.246,0.394,2.558,0.817,3.933,1.274c1.508,0.499,5.718,1.936,12.63,4.304c4.646,1.589,8.466,2.864,11.471,3.82
			c0.429,0.138,0.842,0.27,1.237,0.395c6.765,2.116,15.934,6.007,27.507,11.662c5.864,2.873,11.576,5.764,17.148,8.681
			c0.835,0.371,2.573,0.49,5.203,0.357c2.865-0.152,5.019-0.033,6.464,0.362c1.98,0.524,3.61,1.598,4.893,3.231
			c1.12,1.426,1.719,2.859,1.794,4.308c0.066,1.128-0.407,2.032-1.418,2.706c-0.689,0.456-1.587,0.789-2.71,0.993
			c-0.449,0.076-1.347-0.134-2.706-0.638c-1.429-0.534-2.655-0.748-3.686-0.652c-1.165,0.118-3.15,0.014-5.956-0.324
			c-2.806-0.394-4.471-0.617-4.994-0.67c-0.456-0.042-1.525-0.522-3.214-1.435c-2.003-1.085-3.825-1.889-5.465-2.398
			c-2.307-0.728-8.081-1.936-17.328-3.625c-4.658-0.846-8.801-1.56-12.43-2.145c0-0.024-0.004-0.047-0.004-0.071l-0.014-0.081
			c-3.687-0.575-6.569-0.989-8.648-1.242l-3.296-0.424l0.02,0.129c0,0.005,0,0.014,0,0.02c-5.237-0.666-11.639-1.555-19.22-2.658
			c-0.64-0.096-1.257-0.186-1.861-0.277c0-0.057,0-0.114,0-0.167c-3.872-0.576-6.92-1.043-9.137-1.404
			c-0.004,0.057-0.004,0.114-0.004,0.172C63.684,95.007,61.151,94.564,59.557,94.235z"/>
		<path fill="#FFFFFF" stroke="#292929" stroke-width="1.5424" stroke-miterlimit="10" d="M40.859,93.295
			c-0.88,0.976-1.384,1.722-1.518,2.23c-0.157,0.114-0.308,0.229-0.458,0.353l-0.242-0.353c0.142-0.576,0.728-1.412,1.759-2.511
			c1.056-1.118,2.036-1.94,2.941-2.464c0.075-0.043,0.156-0.09,0.236-0.138c0.69,0.181,1.408,0.371,2.159,0.56
			c5.591,1.436,10.198,2.526,13.819,3.263c1.593,0.328,4.127,0.771,7.601,1.332c-0.015,1.351,0.27,3.596,0.87,6.73
			c0.837,4.514,2.022,8.624,3.553,12.334c4.509,10.973,11.027,16.223,19.55,15.748c-0.414,5.075-3.025,7.982-7.835,8.709
			c-1.359,0.206-3.391,0.278-6.103,0.215c-2.112-0.052-3.667-0.029-4.67,0.086c-0.004,0-4.1-2.659-4.1-2.659
			c-12.742-9.573-17.299-17.632-21.853-29.505c-2.349-6.136-3.376-11.573-3.083-16.315C42.604,91.529,41.73,92.324,40.859,93.295z"
			/>
		<path fill="#FFFFFF" d="M33.224,95.92c2.099-1.141,3.905-1.275,5.418-0.395l0.242,0.353c-4.46,3.667-4.437,11.182,0.082,22.541
			c1.865,4.689,4.361,9.68,7.506,14.978c2.806,4.733,5.746,9.081,8.813,13.053c-13.6-5.843-22.607-13.951-27.036-24.326
			c-1.612-3.776-2.503-7.61-2.678-11.506c-0.119-3.077,0.185-5.651,0.914-7.714l-0.439-0.348
			C28.639,99.316,31.032,97.104,33.224,95.92z"/>
		<path fill="#292929" d="M31.808,154.134c0.084,0.03,0.171,0.053,0.256,0.076c-1.435,0.233-3.168,0.34-5.183,0.328
			C28.81,154.525,30.456,154.385,31.808,154.134z"/>
		<path fill="#292929" d="M26.486,102.903c-0.728,2.064-1.032,4.637-0.914,7.714c0.175,3.896,1.065,7.73,2.678,11.506
			c4.429,10.374,13.436,18.484,27.036,24.326c-0.032,0.061-0.067,0.118-0.106,0.18c-0.208-0.053-0.412-0.115-0.613-0.18
			c-0.803,1.532-1.93,2.776-3.377,3.739c-1.438,0.956-3.02,1.469-4.754,1.535c-0.503-0.015-1.017-0.066-1.545-0.151
			c-2.668-1.013-5.793-3.158-9.383-6.446c-4.363-3.981-8.006-8.505-10.93-13.576c-3.634-6.297-5.389-11.423-5.271-15.382
			c0.067-2.381,0.966-4.661,2.693-6.839C23.522,106.917,25.02,104.772,26.486,102.903z"/>
		<path fill="#292929" d="M11.037,126.251c-0.194,1.043,0.161,2.864,1.075,5.464c1.004,2.85,2.372,5.693,4.114,8.536
			c4.698,7.635,10.13,12.26,16.3,13.883c-0.151,0.03-0.304,0.06-0.462,0.076c-0.085-0.023-0.172-0.046-0.256-0.076
			c-1.351,0.251-2.998,0.391-4.927,0.405c-0.32,0-0.648-0.009-0.98-0.014c-2.755-0.068-5.47-0.329-8.157-0.784
			c-6.57-1.111-10.607-2.871-12.106-5.287c-1.404-2.275-1.161-6.221,0.731-11.842C7.705,132.616,9.262,129.163,11.037,126.251z"/>
		<path fill="#292929" d="M95.129,71.593c6.247,3.481,5.351,4.105,5.907,4.666c1.695,1.698,2.811,3.054,3.344,4.062l0.015,0.114
			c-0.1-0.033-0.205-0.066-0.308-0.1c-2.15-0.689-4.758-1.555-7.83-2.592l0.013-0.081c0.059-1.531-0.008-2.705-0.194-3.524
			C95.957,73.573,95.638,72.726,95.129,71.593z"/>
	</g>
	<g>
		<path fill="none" stroke="#292929" stroke-width="1.5424" stroke-miterlimit="10" d="M130.943,74.091
			c-0.494-1.649-2.897-3.457-7.197-5.422c-2.339-1.066-6.24-2.544-11.702-4.437c-2.416-0.842-8.609-2.697-18.588-5.574
			c-3.586-1.031-7.664-2.198-12.229-3.496c-16.762-4.776-26.927-7.588-30.495-8.434c-3.277-0.785-6.525-1.364-9.759-1.745
			c-3.24-0.371-5.675-0.451-7.307-0.247c-1.612-0.443-2.983-0.762-4.114-0.948c-2.141-0.337-3.335-0.113-3.573,0.671
			c-0.161,0.534,0.676,1.417,2.513,2.658c1.96,1.308,3.866,2.121,5.726,2.45c0.799,0.143,4.056,1.098,9.783,2.877
			c2.555,0.791,5.604,1.746,9.142,2.864c11.488,3.634,18.37,5.655,20.644,6.07c2.053,0.38,6.25,1.274,12.594,2.678
			c19.502,4.306,15.237,2.737,9.722,2.022c-1.055-0.137,4.363,0.87,9.919,2.25c3.818,0.951,6.797,1.717,8.932,2.288"/>
		<path fill="none" stroke="#292929" stroke-width="1.5424" stroke-miterlimit="10" d="M210.584,144.84
			c1.816-1.955,4.091-5.216,4.61-6.628c1.265-3.479,2.263-8.377,2.996-14.69c0.021-0.147,0.034-0.289,0.053-0.438
			c0.118-1.055,0.218-2.068,0.293-3.038c0.49-5.886,0.225-10.117-0.783-12.705c-1.59-4.058-3.455-7.149-5.595-9.266
			c-2.967-2.931-6.796-4.49-11.488-4.686c-2.011-0.077-4.032,1.042-6.067,3.344c-0.644,0.718-1.247,1.518-1.814,2.402l-0.653,1.09
			c-0.032-0.824-0.566-2.099-1.596-3.815c-1.067-1.798-2.495-3.757-4.277-5.893c-4.353-5.208-9.273-9.699-14.765-13.475
			c-6.854-4.685-13.533-7.425-20.035-8.204c-7.445-0.895-14.288,0.857-20.524,5.255c-0.375,0.262-4.619,1.006-4.986,1.286
			c-3.856-2.204-5.371-2.204-7.712-4.132c-5.433-4.475-79.365-19.301-3.289-0.632c-1.018-0.247-1.964-0.457-2.844-0.638
			c-8.029-1.631-13.36-1.031-16.007,1.794c-0.488-0.543-1.578-1.113-3.262-1.713c-1.945-0.685-3.939-1.103-5.974-1.257
			c-4.176-0.318-7.482,0.533-9.918,2.56"/>
		<path fill="none" stroke="#292929" stroke-width="2.0565" stroke-miterlimit="10" d="M175.867,137.238
			c0.261,0.623,1.367,5.633,1.772,6.598c0.736,1.766,1.451,2.873,2.135,3.329c0.076,0.862,0.028,2.486-0.148,4.878
			c-0.219,2.987-0.337,5.106-0.357,6.348c-0.089,5.392,0.883,8.674,2.919,9.832c2.066,1.177,5.153-0.458,9.268-4.907
			c1.208-1.307,2.668-3.056,4.391-5.254c1.606-2.044,2.555-3.204,2.835-3.49c0.766-0.762,3.534-3.047,8.305-6.851
			c0.374-0.324,3.851-4.149,1.093-0.96"/>
		<path fill="none" stroke="#292929" stroke-width="1.5424" stroke-miterlimit="10" d="M152.969,148.484
			c4.985,0.467,9.805-0.456,14.453-2.769"/>
		<path fill="none" stroke="#292929" stroke-width="1.5424" stroke-miterlimit="10" d="M117.6,136.94
			c1.708,0.923,3.882,1.86,6.521,2.819c5.589,2.023,9.912,2.925,12.97,2.705c2.645,1.682,5.213,3.02,7.711,4.001"/>
		<path fill="none" stroke="#292929" stroke-width="1.5424" stroke-miterlimit="10" d="M104.771,127.889
			c0.262,0.257,0.561,0.608,0.895,1.055c0.695,0.899,1.218,1.531,1.564,1.888c3.144,3.294,1.919,2.43,6.383,3.103l0.006,0.004"/>
		<path fill="none" stroke="#292929" stroke-width="1.5424" stroke-miterlimit="10" d="M61.329,138.506
			c1.004-0.114,13.753,0.745,15.865,0.797c2.712,0.063,4.742-0.009,6.103-0.215c4.809-0.727,7.421-3.634,7.835-8.709"/>
		<path fill="none" stroke="#292929" stroke-width="1.5424" stroke-miterlimit="10" d="M21.798,153.71
			c2.835,2.335,14.367,1.205,16.568,0.801c2.445-0.448,4.387-1.426,5.822-2.939c0.775,0.126,1.214-2.899,1.936-2.932"/>
		<path fill="none" stroke="#292929" stroke-width="1.5424" stroke-miterlimit="10" d="M43.58,90.411
			c-0.08,0.047-0.161,0.095-0.236,0.138c-0.904,0.523-1.885,1.346-2.941,2.464c-1.031,1.099-1.617,1.935-1.759,2.511
			c-1.513-0.88-3.32-0.747-5.418,0.395c-2.193,1.185-4.585,3.396-7.177,6.635c-1.518,1.903-3.106,4.161-4.766,6.773
			c-2.392,0.623-5.349,1.302-6.64,4.831c-4.443,12.154-4.142,9.618-4.304,12.092c-1.775,2.911-3.332,6.364-4.667,10.361
			c-1.906,5.621-2.154,9.568-0.751,11.842c1.513,2.416,5.552,4.177,12.12,5.287c2.688,0.453,5.402,0.715,8.143,0.784
			c0.589,0.014,1.157,0.02,1.699,0.014"/>
		<path fill="none" stroke="#292929" stroke-width="1.5424" stroke-miterlimit="10" d="M191.877,98.374
			c-0.024,0.457,0.224,4.076,0.215,7.154c-0.15,3.492-0.597,6.851-1.341,10.07c-2.15,9.322-6.568,16.943-13.261,22.851"/>
		<path fill="none" stroke="#292929" stroke-width="1.5424" stroke-miterlimit="10" d="M109.325,101.571
			c3.629,0.585,7.772,1.299,12.43,2.145c9.246,1.689,15.02,2.897,17.328,3.625c1.641,0.509,3.462,1.313,5.465,2.398
			c1.689,0.913,2.759,1.393,3.214,1.435c0.524,0.053,2.188,0.277,4.994,0.67c2.806,0.339,4.791,0.443,5.956,0.324
			c1.031-0.096,2.257,0.118,3.686,0.652c1.359,0.503,2.257,0.714,2.706,0.638c1.124-0.206,2.022-0.538,2.71-0.993
			c1.01-0.676,1.484-1.579,1.418-2.706c-0.075-1.451-0.675-2.882-1.794-4.308c-1.283-1.632-2.913-2.706-4.893-3.231
			c-1.445-0.395-3.599-0.514-6.464-0.362c-2.63,0.134-4.367,0.015-5.203-0.357c-5.572-2.916-11.284-5.808-17.148-8.681
			c-11.573-5.655-20.743-9.546-27.507-11.662c-0.395-0.124-0.808-0.257-1.237-0.395c-3.005-0.956-6.826-2.23-11.471-3.82
			c-6.912-2.368-11.122-3.806-12.63-4.304c-1.374-0.457-2.687-0.88-3.933-1.274c-7.396-2.331-12.581-3.568-15.548-3.72
			c-6.094-0.304-9.871-0.429-11.34-0.375c-3.686,0.133-6.974,0.823-9.855,2.073c-3.916,1.708-7.34,3.32-10.279,4.828
			c-3.991,2.07-6.022,3.449-6.084,4.148c-0.089,0.879,0.847,2.335,2.806,4.371c2.121,2.197,4.266,3.724,6.446,4.584
			c1.893,0.753,5.388,1.803,10.482,3.14c0.69,0.181,1.408,0.371,2.159,0.56c5.591,1.436,10.198,2.526,13.819,3.263
			c1.593,0.328,4.127,0.771,7.601,1.332c2.545,0.405,5.589,0.87,9.142,1.398c0.604,0.09,1.222,0.181,1.861,0.277
			c7.581,1.103,13.983,1.993,19.22,2.658c0.894,0.114,1.751,0.223,2.577,0.324C102.565,100.544,105.686,100.99,109.325,101.571z"/>
		<path fill="none" stroke="#292929" stroke-width="1.5424" stroke-miterlimit="10" d="M29.4,85.292
			c1.792,1.055,8.833,1.696,12.882,3.09c1.093,0.375,2.179,0.728,3.258,1.056c4.228,1.288,8.382,2.226,12.453,2.809
			c5.351,0.786,12.489,1.756,21.423,2.921C87.083,96.167,93.69,97,99.243,97.666c5.217,0.619,12.039,1.584,20.457,2.887
			c9.059,1.413,15.092,2.491,18.094,3.23c2.068,0.5,5.45,1.446,10.149,2.839c3.982,1.184,6.43,1.85,7.358,1.993
			c1.371,0.214,2.75,0.201,4.142-0.052c1.415-0.261,2.265-0.665,2.547-1.222"/>
		<path fill="none" stroke="#292929" stroke-width="1.5424" stroke-miterlimit="10" d="M44.604,52.601
			c0.096,0.02-4.159-1.29-4.054-1.267c1.578,0.371,8.172,1.068,12.191,2.066c4.143,1.024,7.363,1.832,9.655,2.432
			c2.974,0.77,7.063,1.75,12.287,2.935c6.136,1.392,9.769,2.121,10.897,2.188c0.947,0.051,2.406-0.157,4.375-0.639
			c5.646-1.385,6.867-0.642,3.216-0.642c0.039,0,0.072,0,0.096,0.004"/>
	</g>
</g>
</svg>
