<?xml version="1.0" encoding="utf-8"?>
<!-- Generator: Adobe Illustrator 17.0.1, SVG Export Plug-In . SVG Version: 6.00 Build 0)  -->
<!DOCTYPE svg PUBLIC "-//W3C//DTD SVG 1.1//EN" "http://www.w3.org/Graphics/SVG/1.1/DTD/svg11.dtd">
<svg version="1.1" id="Layer_1" xmlns="http://www.w3.org/2000/svg" xmlns:xlink="http://www.w3.org/1999/xlink" x="0px" y="0px"
	 width="257.987px" height="223.68px" viewBox="0.762 20.522 257.987 223.68" enable-background="new 0.762 20.522 257.987 223.68"
	 xml:space="preserve">
<g>
	<g id="Layer_1_1_">
		<g>
			<g id="Layer_1_3_">
				<g>
					<path fill="#FFFFFF" stroke="#000000" stroke-width="1.6693" stroke-miterlimit="10" d="M236.522,75.231
						c-0.545,0.593-1.167,1.201-1.868,1.824c-1.521,1.365-3.641,2.947-6.361,4.743c-1.688,1.126-3.779,2.767-6.271,4.923
						c-2.563,2.24-4.06,3.755-4.491,4.545c-0.91,1.089-2.215,1.779-3.917,2.065c-1.281,0.216-2.4,0.191-3.36-0.071
						c-1.713,0.42-3.858,1.258-6.432,2.516c-2.024,0.982-3.39,1.419-4.096,1.312c-0.803,2.084-1.552,4.162-2.247,6.234
						c-0.838,0.563-2.341,0.473-4.509-0.269c-2.037-0.707-3.365-1.468-3.988-2.281c0.394-1.114,1.442-2.433,3.143-3.953
						c2.049-1.844,4.061-2.857,6.037-3.037c1.437-0.766,3.612-1.569,6.522-2.407c2.754-0.79,4.263-1.275,4.527-1.456
						c0.384-0.252,1.222-0.875,2.515-1.868c1.234-0.838,2.162-1.21,2.785-1.114c0.647,0.096,1.054,0.503,1.222,1.222
						c0.108,0.443,0.115,0.862,0.018,1.258c0.696-0.455,2.725-1.989,6.092-4.599c3.055-2.384,4.918-3.749,5.588-4.096
						c3.558-1.833,5.738-3.014,6.54-3.54C234.958,76.524,235.809,75.874,236.522,75.231c1.56-1.696,2.502-3.281,2.82-4.753
						C239.258,72.028,238.316,73.612,236.522,75.231z"/>
					<path fill="none" stroke="#000000" stroke-width="1.6693" stroke-miterlimit="10" d="M236.522,75.231
						c1.794-1.619,2.735-3.203,2.82-4.753C239.024,71.951,238.083,73.534,236.522,75.231c-0.545,0.593-1.167,1.201-1.868,1.824
						c-1.521,1.365-3.641,2.947-6.361,4.743c-1.688,1.126-3.779,2.767-6.271,4.923c-2.563,2.24-4.06,3.755-4.491,4.545
						c-0.91,1.089-2.215,1.779-3.917,2.065c-1.281,0.216-2.4,0.191-3.36-0.071c-1.713,0.42-3.858,1.258-6.432,2.516
						c-2.024,0.982-3.39,1.419-4.096,1.312c-0.803,2.084-1.552,4.162-2.247,6.234c-0.838,0.563-2.341,0.473-4.509-0.269
						c-2.037-0.707-3.365-1.468-3.988-2.281c0.394-1.114,1.442-2.433,3.143-3.953c2.049-1.844,4.061-2.857,6.037-3.037
						c1.437-0.766,3.612-1.569,6.522-2.407c2.754-0.79,4.263-1.275,4.527-1.456c0.384-0.252,1.222-0.875,2.515-1.868
						c1.234-0.838,2.162-1.21,2.785-1.114c0.647,0.096,1.054,0.503,1.222,1.222c0.108,0.443,0.115,0.862,0.018,1.258
						c0.696-0.455,2.725-1.989,6.092-4.599c3.055-2.384,4.918-3.749,5.588-4.096c3.558-1.833,5.738-3.014,6.54-3.54
						C234.958,76.524,235.809,75.874,236.522,75.231z"/>
					<path fill="#292929" stroke="#000000" stroke-width="1.6693" stroke-miterlimit="10" d="M191.299,96.172
						c3.7,1.629,6.594,8.534,8.678,20.716c0.813,4.743,1.348,9.48,1.6,14.212c0.239,4.527,0.167,7.862-0.216,10.007
						c-0.671,3.797-3.168,7.99-7.492,12.577c-1.725,1.821-3.354,3.275-4.887,4.366c-1.546,1.089-2.582,1.509-3.109,1.258
						c-1.102-0.598-1.827-0.951-2.174-1.059c-0.49-0.157-1.036-0.019-1.635,0.413c-0.155,0.12-0.485,0.724-0.988,1.815
						c-0.575,1.258-1.258,2.329-2.049,3.216c-2.718,3.067-7.372,5.074-13.961,6.018c-5.233,0.767-13.977,0.707-26.231-0.179
						c-11.583-0.839-19.972-1.892-25.17-3.162c-16.698-4.073-29.257-8.864-37.677-14.374c-4.934-3.235-8.54-7.524-10.816-12.865
						c-1.617-3.786-2.467-7.792-2.551-12.02c-0.06-2.743,1.904-6.457,5.893-11.14c3.306-3.869,6.294-6.684,8.966-8.444
						c0.957-0.634,6.073-2.018,15.344-4.15c8.804-2.024,18.966-4.187,30.489-6.487c28.818-5.737,45.109-8.3,48.87-7.69
						c3.355,0.551,7.289,1.767,11.804,3.647C186.346,93.83,188.783,94.938,191.299,96.172z"/>
					<path fill="#FFFFFF" stroke="#000000" stroke-width="1.6693" stroke-miterlimit="10" d="M216.65,125.098
						c1.21-0.06,2.695,0.221,4.456,0.845c2.192,0.778,3.743,1.838,4.655,3.179c0.694,1.018,1.766,2.407,3.215,4.168
						c1.102,1.569,1.629,3.15,1.582,4.744c-0.037,1.569-0.618,3.378-1.743,5.426c-0.599,1.089-1.354,2.383-2.265,3.879
						c-0.789,1.774-1.856,3.181-3.197,4.223c-2.228,1.737-4.791,1.994-7.69,0.772c-2.874-1.21-4.437-3.695-4.69-7.456
						c-0.096-1.259-0.049-2.874,0.144-4.851c0.288-2.862,0.431-4.341,0.431-4.438c0.193-3.378,0.54-5.76,1.044-7.15
						C213.368,126.296,214.723,125.183,216.65,125.098z"/>
					<path fill="none" stroke="#000000" stroke-width="1.6693" stroke-miterlimit="10" d="M216.65,125.098
						c1.21-0.06,2.695,0.221,4.456,0.845c2.192,0.778,3.743,1.838,4.655,3.179c0.694,1.018,1.766,2.407,3.215,4.168
						c1.102,1.569,1.629,3.15,1.582,4.744c-0.037,1.569-0.618,3.378-1.743,5.426c-0.599,1.089-1.354,2.383-2.265,3.879
						c-0.789,1.774-1.856,3.181-3.197,4.223c-2.228,1.737-4.791,1.994-7.69,0.772c-2.874-1.21-4.437-3.695-4.69-7.456
						c-0.096-1.259-0.049-2.874,0.144-4.851c0.288-2.862,0.431-4.341,0.431-4.438c0.193-3.378,0.54-5.76,1.044-7.15
						C213.368,126.296,214.723,125.183,216.65,125.098z"/>
					<path fill="#FFFFFF" stroke="#000000" stroke-width="1.6693" stroke-miterlimit="10" d="M93.093,162.039
						c6.23-2.265,10.109-3.589,11.643-3.971c1.354-0.395,2.797-0.126,4.331,0.809c0.598,0.358,1.036,0.73,1.311,1.113
						c0.276,0.384,0.294,0.653,0.053,0.809c-0.502,0.312-2.903,1.368-7.203,3.164c-4.349,1.796-7.313,2.97-8.894,3.52
						c-7.271,2.516-11.715,4.043-13.332,4.582c-7.821,2.563-13.164,4.056-16.026,4.475c-2.647,0.383-5.773,1.635-9.379,3.754
						c-0.875,0.515-1.952,1.174-3.234,1.975c-0.875,0.515-1.378,0.707-1.509,0.576c-0.108-0.109-0.198-0.359-0.269-0.755
						c-0.083-0.491-0.167-0.828-0.252-1.006c-0.359-0.766-1.299-0.923-2.821-0.467c-1.424,0.431-7.768,3.521-19.026,9.271
						c-14.361,7.33-22.848,11.63-25.459,12.9c1.713-2.72,8.887-7.385,21.525-13.995c4.504-2.36,9.151-4.677,13.942-6.954
						c4.144-1.965,6.983-3.241,8.516-3.827c2.084-0.79,2.522-1.959,1.312-3.502c-0.083-0.108-0.593-0.647-1.528-1.617
						c-0.491-0.539-0.664-0.893-0.521-1.059c0.287-0.347,2.887-0.444,7.798-0.288c6.288,0.204,9.636,0.3,10.042,0.288
						c2.527-0.085,8.306-1.905,17.338-5.462C83.88,165.41,87.762,163.967,93.093,162.039z"/>
					<path fill="none" stroke="#000000" stroke-width="1.6693" stroke-miterlimit="10" d="M93.093,162.039
						c-5.331,1.927-9.211,3.371-11.643,4.33c-9.032,3.557-14.811,5.377-17.338,5.462c-0.407,0.012-3.755-0.085-10.042-0.288
						c-4.912-0.157-7.512-0.06-7.798,0.288c-0.144,0.167,0.03,0.521,0.521,1.059c0.935,0.97,1.443,1.509,1.528,1.617
						c1.21,1.545,0.772,2.713-1.312,3.502c-1.532,0.586-4.372,1.863-8.516,3.827c-4.791,2.277-9.438,4.594-13.942,6.954
						c-12.636,6.61-19.812,11.275-21.525,13.995c2.611-1.27,11.097-5.57,25.459-12.9c11.259-5.75,17.602-8.84,19.026-9.271
						c1.521-0.455,2.462-0.299,2.821,0.467c0.085,0.178,0.168,0.515,0.252,1.006c0.071,0.394,0.162,0.645,0.269,0.755
						c0.132,0.13,0.635-0.061,1.509-0.576c1.281-0.802,2.359-1.46,3.234-1.975c3.606-2.119,6.732-3.371,9.379-3.754
						c2.862-0.42,8.205-1.913,16.026-4.475c1.617-0.539,6.061-2.065,13.332-4.582c1.581-0.55,4.545-1.724,8.894-3.52
						c4.299-1.796,6.7-2.851,7.203-3.164c0.24-0.156,0.223-0.425-0.053-0.809c-0.275-0.383-0.713-0.755-1.311-1.113
						c-1.535-0.935-2.977-1.204-4.331-0.809C103.202,158.45,99.321,159.775,93.093,162.039z"/>
					<path fill="#FFFFFF" stroke="#000000" stroke-width="1.6693" stroke-miterlimit="10" d="M145.825,166.026
						c0.851-0.312,1.569-0.503,2.157-0.575c1.714-0.226,3.074,0.45,4.08,2.03c-0.648,1.63-2.498,4.331-5.553,8.105
						c-3.365,4.154-5.682,6.203-6.952,6.143c-12.314,10.002-21.238,17.23-26.772,21.687c-1.401,2.131-2.538,3.334-3.413,3.61
						c-0.551,0.168-1.353-0.089-2.407-0.772l-5.552,6.253c-3.822,4.311-6.012,6.856-6.575,7.635
						c-0.456,0.623-2.313,3.521-5.57,8.696c-3.546,5.474-6.48,9.545-8.805,12.217c0.42-1.712,2.21-5.173,5.373-10.384
						c3.484-5.497,5.617-8.887,6.396-10.169c1.45-2.347,3.078-4.69,4.889-7.025c2.359-3.03,4.855-5.809,7.491-8.335
						c-1.629-1.294-2.012-2.516-1.15-3.666c0.682-0.923,2.06-1.719,4.133-2.389c1.773-0.575,6.096-3.174,12.971-7.799
						c6.972-4.706,11.978-8.425,15.02-11.156c-0.359-1.52,0.761-3.97,3.361-7.348c2.886-3.366,4.533-5.378,4.94-6.038
						C144.28,166.626,144.927,166.386,145.825,166.026z"/>
					<path fill="none" stroke="#000000" stroke-width="1.6693" stroke-miterlimit="10" d="M145.825,166.026
						c-0.898,0.359-1.545,0.6-1.94,0.719c-0.407,0.66-2.055,2.671-4.94,6.038c-2.6,3.378-3.72,5.827-3.361,7.348
						c-3.043,2.731-8.048,6.451-15.02,11.156c-6.876,4.625-11.199,7.224-12.971,7.799c-2.073,0.671-3.451,1.467-4.133,2.389
						c-0.861,1.15-0.48,2.371,1.15,3.666c-2.635,2.527-5.131,5.306-7.491,8.335c-1.811,2.337-3.439,4.678-4.889,7.025
						c-0.778,1.281-2.91,4.671-6.396,10.169c-3.163,5.211-4.953,8.672-5.373,10.384c2.324-2.671,5.259-6.743,8.805-12.217
						c3.257-5.175,5.114-8.074,5.57-8.696c0.563-0.779,2.754-3.324,6.575-7.635l5.552-6.253c1.054,0.683,1.856,0.941,2.407,0.772
						c0.875-0.276,2.013-1.479,3.413-3.61c5.534-4.457,14.457-11.685,26.772-21.687c1.27,0.061,3.587-1.988,6.952-6.143
						c3.055-3.775,4.905-6.475,5.553-8.105c-1.006-1.58-2.366-2.256-4.08-2.03C147.394,165.523,146.675,165.714,145.825,166.026z"/>
					<path fill="#FFFFFF" stroke="#000000" stroke-width="1.6693" stroke-miterlimit="10" d="M255.127,219.685
						c2.144,2.92,3.051,5.541,2.721,7.86C257.813,225.274,256.906,222.653,255.127,219.685c-0.887-1.209-1.985-2.468-3.299-3.78
						c-1.46-1.461-3.197-2.99-5.21-4.583c-1.916-1.473-3.084-2.377-3.502-2.713c-0.911-0.731-3.294-3.341-7.151-7.832
						c-4.266-4.96-6.835-7.876-7.709-8.751c0,0.648-0.137,1.282-0.413,1.905c-0.467,1.006-1.197,1.487-2.192,1.438
						c-0.983-0.049-2.27-0.886-3.864-2.516c-1.64-1.87-2.708-3.054-3.197-3.557c-0.347-0.347-2.462-1.534-6.342-3.557
						c-4.098-2.146-7.103-4.012-9.02-5.607c-2.909-0.886-5.63-3.019-8.156-6.396c-2.072-2.791-3.234-5.079-3.487-6.864
						c1.175-1.042,3.391-1.778,6.648-2.209c3.462-0.455,5.745-0.131,6.845,0.97l0.431,3.108c0.347,2.504,0.702,4.81,1.062,6.919
						c1.089,0.046,2.999,1.12,5.731,3.215c3.472,2.671,6.437,4.576,8.893,5.714c1.52-0.097,3.204,0.215,5.049,0.935
						c2.455,0.934,4.197,2.353,5.228,4.257c0.418,1.319,2.209,4.043,5.372,8.176c3.067,4.011,5.696,7.114,7.887,9.306
						c3.509,3.51,6.21,6.522,8.103,9.037C253.717,217.474,254.48,218.602,255.127,219.685z"/>
					<path fill="none" stroke="#000000" stroke-width="1.6693" stroke-miterlimit="10" d="M255.127,219.685
						c-0.647-1.083-1.411-2.21-2.292-3.386c-1.893-2.515-4.594-5.528-8.103-9.037c-2.191-2.192-4.82-5.295-7.887-9.306
						c-3.163-4.133-4.953-6.857-5.372-8.176c-1.032-1.904-2.773-3.323-5.228-4.257c-1.845-0.719-3.529-1.032-5.049-0.935
						c-2.456-1.137-5.421-3.043-8.893-5.714c-2.732-2.095-4.642-3.169-5.731-3.215c-0.359-2.109-0.714-4.415-1.062-6.919
						l-0.431-3.108c-1.101-1.102-3.383-1.426-6.845-0.97c-3.257,0.432-5.473,1.168-6.648,2.209c0.253,1.785,1.414,4.073,3.487,6.864
						c2.527,3.376,5.247,5.51,8.156,6.396c1.917,1.595,4.923,3.461,9.02,5.607c3.881,2.023,5.995,3.209,6.342,3.557
						c0.49,0.503,1.557,1.688,3.197,3.557c1.594,1.63,2.881,2.467,3.864,2.516c0.995,0.049,1.725-0.432,2.192-1.438
						c0.276-0.623,0.413-1.258,0.413-1.905c0.874,0.876,3.443,3.791,7.709,8.751c3.857,4.491,6.239,7.101,7.151,7.832
						c0.418,0.336,1.587,1.239,3.502,2.713c2.013,1.594,3.749,3.122,5.21,4.583C253.142,217.217,254.24,218.476,255.127,219.685
						c2.144,2.92,3.051,5.541,2.721,7.86C257.813,225.274,256.906,222.653,255.127,219.685z"/>
					<path fill="#FFFFFF" stroke="#000000" stroke-width="1.6693" stroke-miterlimit="10" d="M75.305,69.257
						c2.192,1.881,4.169,3.12,5.929,3.719c1.904,0.634,5.366,2.306,10.385,5.012c1.234,0.671,4.072,2.251,8.517,4.744
						c1.031,0.575,2.903,1.743,5.623,3.503c2.719,1.749,4.229,2.761,4.527,3.037c0.372,0.324-0.012,0.707-1.148,1.15
						c-1.175,0.443-2.193,0.45-3.055,0.019c-0.995-0.443-3.48-1.822-7.456-4.132c-3.319-1.929-5.786-3.39-7.403-4.385
						c-5.726-3.533-9.444-5.486-11.157-5.857c-0.263-0.06-2.551-0.407-6.863-1.043c-3.365-0.491-5.131-0.874-5.301-1.15
						c-0.071-0.132,0.096-0.347,0.503-0.648c0.743-0.551,1.151-0.857,1.222-0.916c1.018-0.91,0.869-1.761-0.45-2.551
						c-2.959-1.785-7.619-5.15-13.977-10.098c-7.81-6.061-12.128-10.127-12.955-12.199c1.473,1.078,6.725,5.055,15.757,11.931
						c6.959,5.294,10.899,8.175,11.823,8.642c0.995,0.503,1.658,0.514,1.994,0.036c0.191-0.252,0.383-0.634,0.575-1.151
						C72.467,66.874,73.436,67.652,75.305,69.257z"/>
					<path fill="none" stroke="#000000" stroke-width="1.6693" stroke-miterlimit="10" d="M75.305,69.257
						c2.192,1.881,4.169,3.12,5.929,3.719c1.904,0.634,5.366,2.306,10.385,5.012c1.234,0.671,4.072,2.251,8.517,4.744
						c1.031,0.575,2.903,1.743,5.623,3.503c2.719,1.749,4.229,2.761,4.527,3.037c0.372,0.324-0.012,0.707-1.148,1.15
						c-1.175,0.443-2.193,0.45-3.055,0.019c-0.995-0.443-3.48-1.822-7.456-4.132c-3.319-1.929-5.786-3.39-7.403-4.385
						c-5.726-3.533-9.444-5.486-11.157-5.857c-0.263-0.06-2.551-0.407-6.863-1.043c-3.365-0.491-5.131-0.874-5.301-1.15
						c-0.071-0.132,0.096-0.347,0.503-0.648c0.743-0.551,1.151-0.857,1.222-0.916c1.018-0.91,0.869-1.761-0.45-2.551
						c-2.959-1.785-7.619-5.15-13.977-10.098c-7.81-6.061-12.128-10.127-12.955-12.199c1.473,1.078,6.725,5.055,15.757,11.931
						c6.959,5.294,10.899,8.175,11.823,8.642c0.995,0.503,1.658,0.514,1.994,0.036c0.191-0.252,0.383-0.634,0.575-1.151
						C72.467,66.874,73.436,67.652,75.305,69.257z"/>
					<path fill="#FFFFFF" stroke="#000000" stroke-width="1.6693" stroke-miterlimit="10" d="M154.323,41.265
						c0.204,1.03,1.389,5.067,3.557,12.11c0.851-0.12,1.419-0.048,1.707,0.215c0.467,0.42,0.832,1.498,1.096,3.235l10.42,21.164
						c0.803,0.336,1.653,2.282,2.552,5.84c0.815,3.209,1.191,5.42,1.133,6.629c-1.078,0.696-2.12,0.724-3.127,0.09
						c-1.03-0.934-1.755-1.592-2.173-1.975c-0.551-1.976-0.995-3.701-1.33-5.175c-0.647-2.839-0.64-4.683,0.019-5.534
						c-1.114-2.575-3.163-6.324-6.144-11.248c-2.946-4.863-4.888-7.725-5.821-8.588c-1.101-1.006-1.73-1.899-1.886-2.676
						c-0.204-0.97,0.389-1.623,1.779-1.959c-1.641-4.144-2.743-8.516-3.306-13.115c-0.443-3.234-0.791-5.954-1.043-8.157
						c-0.466-4.156-0.586-6.827-0.359-8.014c0.672,2.336,1.323,5.719,1.959,10.151C153.676,36.51,154,38.845,154.323,41.265z"/>
					<path fill="none" stroke="#000000" stroke-width="1.6693" stroke-miterlimit="10" d="M154.323,41.265
						c0.204,1.03,1.389,5.067,3.557,12.11c0.851-0.12,1.419-0.048,1.707,0.215c0.467,0.42,0.832,1.498,1.096,3.235l10.42,21.164
						c0.803,0.336,1.653,2.282,2.552,5.84c0.815,3.209,1.191,5.42,1.133,6.629c-1.078,0.696-2.12,0.724-3.127,0.09
						c-1.03-0.934-1.755-1.592-2.173-1.975c-0.551-1.976-0.995-3.701-1.33-5.175c-0.647-2.839-0.64-4.683,0.019-5.534
						c-1.114-2.575-3.163-6.324-6.144-11.248c-2.946-4.863-4.888-7.725-5.821-8.588c-1.101-1.006-1.73-1.899-1.886-2.676
						c-0.204-0.97,0.389-1.623,1.779-1.959c-1.641-4.144-2.743-8.516-3.306-13.115c-0.443-3.234-0.791-5.954-1.043-8.157
						c-0.466-4.156-0.586-6.827-0.359-8.014c0.672,2.336,1.323,5.719,1.959,10.151C153.676,36.51,154,38.845,154.323,41.265z"/>
					<path fill="#FFFFFF" stroke="#000000" stroke-width="1.6693" stroke-miterlimit="10" d="M170.278,86.847
						c1.808,0.096,3.988,0.461,6.54,1.095c3.461,0.85,6.108,1.929,7.941,3.234c3.006,2.12,4.785,5.965,5.336,11.535
						c0.276,2.839,0.193,6.301-0.252,10.385c-0.179,1.7-0.683,3.227-1.509,4.582c-0.802,1.305-1.581,1.929-2.336,1.868
						c-2.804-0.766-6.127-1.665-9.972-2.694c-7.881-2.109-15.829-3.935-23.843-5.48c-13.019-2.504-25.094-3.707-36.221-3.612
						c-7.605,0.071-14.9,0.779-21.883,2.12c-4.36,0.838-9.055,2.695-14.085,5.57c-3.319,1.905-5.727,3.515-7.224,4.833
						c-0.179,0.168-0.605,0.569-1.275,1.204c-0.647,0.599-1.162,0.976-1.546,1.132c-1.185,0.491-1.359-0.862-0.521-4.06
						c0.491-1.893,1.899-4.378,4.222-7.457c2.325-3.102,5.169-6.259,8.534-9.468c8.05-7.701,15.775-12.882,23.177-15.541
						c6.588-2.371,18.44-3.007,35.557-1.905c5.138,0.324,11.219,0.845,18.236,1.564C165.875,86.445,169.583,86.81,170.278,86.847z"
						/>
					<path fill="none" stroke="#000000" stroke-width="1.6693" stroke-miterlimit="10" d="M170.278,86.847
						c-0.694-0.037-4.402-0.402-11.122-1.096c-7.018-0.719-13.098-1.24-18.236-1.564c-17.117-1.102-28.969-0.466-35.557,1.905
						c-7.402,2.659-15.127,7.839-23.177,15.541c-3.365,3.211-6.21,6.367-8.534,9.468c-2.324,3.079-3.731,5.564-4.222,7.457
						c-0.838,3.198-0.664,4.552,0.521,4.06c0.384-0.156,0.899-0.533,1.546-1.132c0.671-0.634,1.096-1.036,1.275-1.204
						c1.497-1.318,3.905-2.928,7.224-4.833c5.03-2.874,9.725-4.731,14.085-5.57c6.983-1.341,14.278-2.049,21.883-2.12
						c11.127-0.095,23.202,1.108,36.221,3.612c8.014,1.545,15.962,3.372,23.843,5.48c3.845,1.031,7.168,1.929,9.972,2.694
						c0.755,0.06,1.534-0.563,2.336-1.868c0.826-1.353,1.33-2.88,1.509-4.582c0.443-4.084,0.527-7.546,0.252-10.385
						c-0.551-5.57-2.33-9.415-5.336-11.535c-1.832-1.305-4.479-2.384-7.941-3.234C174.266,87.308,172.086,86.943,170.278,86.847z"/>
					<path fill="#FFFFFF" stroke="#000000" stroke-width="1.6693" stroke-miterlimit="10" d="M152.184,113.599
						c8.014,1.545,15.962,3.372,23.843,5.48c3.845,1.029,7.168,1.929,9.972,2.694c0.599,0.539,0.923,2.186,0.97,4.941
						c0.036,1.773-0.036,3.881-0.216,6.324c-0.215,2.695-0.887,7.151-2.013,13.368c-1.365,7.605-2.556,12.235-3.576,13.888
						c-1.508,2.467-4.281,4.359-8.319,5.677c-5.653,1.833-13.942,2.666-24.867,2.498c-10.756-0.157-21.806-1.916-33.148-5.282
						c-6.684-1.989-15.5-5.307-26.448-9.954c-6.528-2.767-11.617-7.593-15.272-14.482c-1.952-3.701-3.264-7.42-3.935-11.157
						c-0.156-0.923,0.139-1.814,0.881-2.676c0.312-0.359,1.215-1.156,2.713-2.389c1.761-1.45,4.174-3.055,7.24-4.815
						c5.031-2.899,9.721-4.767,14.069-5.607c6.983-1.341,14.278-2.048,21.883-2.12C127.091,109.892,139.165,111.096,152.184,113.599
						z"/>
					<path fill="none" stroke="#000000" stroke-width="1.6693" stroke-miterlimit="10" d="M152.184,113.599
						c-13.019-2.504-25.094-3.707-36.221-3.611c-7.605,0.071-14.9,0.779-21.883,2.12c-4.347,0.839-9.036,2.708-14.069,5.607
						c-3.066,1.761-5.48,3.365-7.24,4.815c-1.498,1.233-2.402,2.03-2.713,2.389c-0.742,0.862-1.036,1.755-0.881,2.676
						c0.671,3.737,1.982,7.456,3.935,11.157c3.655,6.887,8.744,11.714,15.272,14.482c10.948,4.648,19.764,7.966,26.448,9.954
						c11.342,3.365,22.393,5.125,33.148,5.282c10.924,0.167,19.213-0.665,24.867-2.498c4.037-1.318,6.81-3.209,8.319-5.677
						c1.019-1.654,2.21-6.283,3.576-13.888c1.126-6.216,1.797-10.672,2.013-13.368c0.18-2.444,0.253-4.552,0.216-6.324
						c-0.048-2.755-0.372-4.402-0.97-4.941c-2.804-0.766-6.127-1.665-9.972-2.694C168.146,116.971,160.199,115.145,152.184,113.599z
						"/>
					<path fill="#FFFFFF" stroke="#000000" stroke-width="1.6693" stroke-miterlimit="10" d="M212.644,113.599
						c2.277,3.402,3.588,7.169,3.935,11.301c0.288,3.413-0.078,6.462-1.096,9.144l0.395,1.707c0.288,1.472,0.486,3.025,0.593,4.654
						c0.384,5.221-0.15,10.283-1.6,15.183c-1.52,5.151-5.048,8.928-10.582,11.338c-2.072,0.899-4.246,1.521-6.521,1.868
						c-1.929,0.302-3.54,0.359-4.833,0.179c-2.456-0.335-4.72-1.635-6.793-3.899c-2.227-2.443-2.851-4.736-1.868-6.881
						c0.982-2.144,1.965-6.689,2.946-13.637c0.91-6.527,1.329-11.354,1.259-14.482c-0.061-2.755-0.007-5.102,0.161-7.043
						c0.216-2.718,0.66-4.994,1.329-6.827c1.653-4.552,2.162-9.163,1.528-13.835c-0.227-1.748-0.82-4.036-1.779-6.863
						c1.929-2.097,5.672-0.6,11.229,4.491C205.439,104.107,209.338,108.64,212.644,113.599z"/>
					<path fill="none" stroke="#000000" stroke-width="1.6693" stroke-miterlimit="10" d="M212.644,113.599
						c-3.306-4.959-7.205-9.493-11.697-13.601c-5.556-5.091-9.299-6.588-11.229-4.491c0.958,2.827,1.552,5.115,1.779,6.863
						c0.634,4.672,0.125,9.283-1.528,13.835c-0.67,1.833-1.113,4.109-1.329,6.827c-0.167,1.941-0.221,4.289-0.161,7.043
						c0.07,3.127-0.347,7.954-1.259,14.482c-0.982,6.948-1.965,11.492-2.946,13.637c-0.983,2.144-0.358,4.437,1.868,6.881
						c2.072,2.265,4.336,3.564,6.793,3.899c1.293,0.18,2.903,0.121,4.833-0.179c2.276-0.347,4.449-0.969,6.521-1.868
						c5.534-2.408,9.062-6.186,10.582-11.338c1.45-4.899,1.983-9.96,1.6-15.183c-0.108-1.629-0.305-3.181-0.593-4.654l-0.395-1.707
						c1.018-2.682,1.384-5.73,1.096-9.144C216.231,120.768,214.92,117.001,212.644,113.599z"/>
				</g>
			</g>
		</g>
	</g>
</g>
</svg>
