<?xml version="1.0" encoding="utf-8"?>
<!-- Generator: Adobe Illustrator 17.0.1, SVG Export Plug-In . SVG Version: 6.00 Build 0)  -->
<!DOCTYPE svg PUBLIC "-//W3C//DTD SVG 1.1//EN" "http://www.w3.org/Graphics/SVG/1.1/DTD/svg11.dtd">
<svg version="1.1" id="Layer_1" xmlns="http://www.w3.org/2000/svg" xmlns:xlink="http://www.w3.org/1999/xlink" x="0px" y="0px"
	 width="250.734px" height="259.116px" viewBox="7.931 2.643 250.734 259.116" enable-background="new 7.931 2.643 250.734 259.116"
	 xml:space="preserve">
<g>
	<g id="Layer_1_1_">
		<g>
			<g id="Layer_1_3_">
				<g>
					<g>
						<g>
							<path fill="#5A5A5C" stroke="#000000" stroke-width="1.6444" stroke-miterlimit="10" d="M148.262,138
								c1.107,0.775,1.943,1.88,2.51,3.319c0.61,1.313,0.913,2.683,0.913,4.108c-0.125,1.217-0.581,2.054-1.37,2.51
								c-0.843,0.36-1.798,0.173-2.862-0.56c-0.995-0.886-1.799-1.992-2.406-3.319c-0.719-1.369-1.024-2.738-0.913-4.108
								c0.138-1.342,0.595-2.186,1.369-2.531C146.388,137.059,147.309,137.253,148.262,138z"/>
							<g>
								<path fill="#FFFFFF" stroke="#000000" stroke-width="1.6444" stroke-miterlimit="10" d="M145.502,137.419
									c0.886-0.36,1.806-0.166,2.76,0.581c1.107,0.775,1.943,1.88,2.51,3.319c0.61,1.313,0.913,2.683,0.913,4.108
									c-0.125,1.217-0.581,2.054-1.37,2.51c-0.843,0.36-1.798,0.173-2.862-0.56c-0.995-0.886-1.799-1.992-2.406-3.319
									c-0.719-1.369-1.024-2.738-0.913-4.108C144.271,138.608,144.728,137.764,145.502,137.419z"/>
								
									<path fill="none" stroke="#000000" stroke-width="1.6444" stroke-linecap="round" stroke-linejoin="round" stroke-miterlimit="3" d="
									M145.502,137.419c-0.774,0.345-1.231,1.189-1.369,2.531c-0.111,1.369,0.194,2.738,0.913,4.108
									c0.608,1.328,1.411,2.435,2.406,3.319c1.066,0.733,2.02,0.92,2.862,0.56c0.789-0.456,1.245-1.294,1.37-2.51
									c0-1.425-0.304-2.794-0.913-4.108c-0.568-1.438-1.403-2.544-2.51-3.319C147.309,137.253,146.388,137.059,145.502,137.419z"
									/>
							</g>
						</g>
						<g>
							<path fill="#5A5A5C" stroke="#000000" stroke-width="1.6444" stroke-miterlimit="10" d="M153.967,135.364
								c1.107,0.886,1.985,2.026,2.635,3.424c0.65,1.411,0.92,2.787,0.808,4.129c-0.068,0.677-0.201,1.21-0.394,1.598
								c-0.22,0.456-0.553,0.76-0.995,0.912c-0.36,0.18-0.775,0.228-1.245,0.146c-0.498-0.083-0.995-0.318-1.493-0.706
								c-1.024-0.816-1.86-1.923-2.51-3.32c-0.637-1.397-0.906-2.772-0.809-4.129c0-1.148,0.456-1.985,1.369-2.51
								c0.345-0.18,0.754-0.236,1.223-0.166C153.055,134.825,153.526,135.033,153.967,135.364z"/>
							<g>
								<path fill="#FFFFFF" stroke="#000000" stroke-width="1.6444" stroke-miterlimit="10" d="M151.333,134.908
									c0.345-0.18,0.754-0.236,1.223-0.166c0.499,0.083,0.969,0.291,1.411,0.623c1.107,0.886,1.985,2.026,2.635,3.424
									c0.65,1.411,0.92,2.787,0.808,4.129c-0.068,0.677-0.201,1.21-0.394,1.598c-0.22,0.456-0.553,0.76-0.995,0.912
									c-0.36,0.18-0.775,0.228-1.245,0.146c-0.498-0.083-0.995-0.318-1.493-0.706c-1.024-0.816-1.86-1.923-2.51-3.319
									c-0.637-1.397-0.906-2.772-0.809-4.129C149.964,136.271,150.42,135.433,151.333,134.908z"/>
								
									<path fill="none" stroke="#000000" stroke-width="1.6444" stroke-linecap="round" stroke-linejoin="round" stroke-miterlimit="3" d="
									M151.333,134.908c-0.913,0.525-1.369,1.363-1.369,2.51c-0.096,1.356,0.172,2.732,0.809,4.129
									c0.65,1.397,1.487,2.504,2.51,3.32c0.498,0.388,0.995,0.622,1.493,0.706c0.47,0.082,0.886,0.034,1.245-0.146
									c0.443-0.152,0.775-0.456,0.995-0.912c0.194-0.388,0.326-0.921,0.394-1.598c0.112-1.342-0.159-2.718-0.808-4.129
									c-0.651-1.397-1.529-2.538-2.635-3.424c-0.442-0.332-0.912-0.539-1.411-0.623
									C152.086,134.673,151.678,134.728,151.333,134.908z"/>
							</g>
						</g>
						<g>
							<path fill="#5A5A5C" stroke="#000000" stroke-width="1.6444" stroke-miterlimit="10" d="M153.179,139.369
								c1.481,1.382,2.814,3.368,4.004,5.954c1.217,2.684,1.826,4.966,1.826,6.847c0,1.148-0.104,2.032-0.311,2.655
								c-0.235,0.677-0.629,1.127-1.183,1.348c-1.148,0.512-2.483,0.056-4.004-1.369c-1.411-1.286-2.704-3.23-3.88-5.83
								c-1.175-2.6-1.825-4.923-1.95-6.971c0-1.024,0.138-1.874,0.415-2.551c0.276-0.664,0.671-1.114,1.183-1.348
								c0.539-0.236,1.134-0.25,1.784-0.042C151.741,138.269,152.446,138.705,153.179,139.369z"/>
							<g>
								<path fill="#FFFFFF" stroke="#000000" stroke-width="1.6444" stroke-miterlimit="10" d="M149.279,138.104
									c0.539-0.236,1.134-0.25,1.784-0.042c0.677,0.207,1.383,0.642,2.117,1.307c1.481,1.382,2.814,3.368,4.004,5.954
									c1.217,2.684,1.826,4.966,1.826,6.847c0,1.148-0.104,2.032-0.311,2.655c-0.235,0.677-0.629,1.127-1.183,1.348
									c-1.148,0.512-2.483,0.056-4.004-1.369c-1.411-1.286-2.704-3.23-3.88-5.83c-1.175-2.6-1.825-4.923-1.95-6.971
									c0-1.024,0.138-1.874,0.415-2.551C148.372,138.788,148.768,138.338,149.279,138.104z"/>
								
									<path fill="none" stroke="#000000" stroke-width="1.6444" stroke-linecap="round" stroke-linejoin="round" stroke-miterlimit="3" d="
									M149.279,138.104c-0.512,0.235-0.907,0.684-1.183,1.348c-0.277,0.677-0.415,1.528-0.415,2.551
									c0.125,2.048,0.775,4.371,1.95,6.971s2.469,4.545,3.88,5.83c1.522,1.425,2.856,1.881,4.004,1.369
									c0.554-0.221,0.948-0.671,1.183-1.348c0.207-0.622,0.311-1.507,0.311-2.655c0-1.881-0.61-4.164-1.826-6.847
									c-1.189-2.586-2.524-4.571-4.004-5.954c-0.733-0.664-1.438-1.1-2.117-1.307
									C150.413,137.854,149.819,137.868,149.279,138.104z"/>
							</g>
						</g>
						<g>
							<path fill="#FFFFFF" stroke="#000000" stroke-width="1.6444" stroke-miterlimit="10" d="M149.176,150.573
								c0-3.417,0.872-5.512,2.615-6.286c0.912-0.443,1.881-0.505,2.904-0.187c0.995,0.318,2.165,1.029,3.506,2.137
								c2.615,2.6,4.751,5.761,6.411,9.482c1.826,4.011,2.74,7.711,2.74,11.1c0.124,3.472-0.713,5.608-2.51,6.412
								c-0.899,0.456-1.868,0.512-2.904,0.166c-1.011-0.332-2.179-1.079-3.507-2.241c-2.573-2.435-4.71-5.56-6.411-9.379
								C150.385,158.181,149.438,154.446,149.176,150.573z"/>
							<g>
								<path fill="#FFFFFF" stroke="#000000" stroke-width="1.6444" stroke-miterlimit="10" d="M151.79,144.287
									c0.912-0.443,1.881-0.505,2.904-0.187c0.995,0.318,2.165,1.029,3.506,2.137c2.615,2.6,4.751,5.761,6.411,9.482
									c1.826,4.011,2.74,7.711,2.74,11.1c0.124,3.472-0.713,5.608-2.51,6.412c-0.899,0.456-1.868,0.512-2.904,0.166
									c-1.011-0.332-2.179-1.079-3.507-2.241c-2.573-2.435-4.71-5.56-6.411-9.379c-1.632-3.596-2.581-7.332-2.843-11.204
									C149.176,147.156,150.047,145.061,151.79,144.287z"/>
								
									<path fill="none" stroke="#000000" stroke-width="1.6444" stroke-linecap="round" stroke-linejoin="round" stroke-miterlimit="3" d="
									M151.79,144.287c-1.743,0.774-2.615,2.869-2.615,6.286c0.262,3.872,1.21,7.607,2.843,11.204
									c1.701,3.817,3.838,6.944,6.411,9.379c1.328,1.162,2.496,1.909,3.507,2.241c1.036,0.345,2.005,0.291,2.904-0.166
									c1.798-0.802,2.634-2.94,2.51-6.412c0-3.389-0.913-7.088-2.74-11.1c-1.66-3.722-3.796-6.881-6.411-9.482
									c-1.342-1.107-2.51-1.819-3.506-2.137C153.67,143.781,152.702,143.844,151.79,144.287z"/>
							</g>
						</g>
						<g>
							<path fill="#FFFFFF" stroke="#000000" stroke-width="1.6444" stroke-miterlimit="10" d="M157.059,173.104
								c-1.785-3.901-2.738-7.676-2.862-11.328c0-1.605,0.22-2.953,0.663-4.045c0.456-1.093,1.114-1.84,1.971-2.241
								c0.886-0.443,1.853-0.491,2.904-0.146c0.954,0.318,2.125,1.017,3.506,2.095c2.628,2.656,4.759,5.817,6.391,9.482
								c1.84,3.984,2.759,7.684,2.759,11.101c0.056,1.701-0.138,3.119-0.581,4.252c-0.442,1.107-1.092,1.86-1.949,2.262
								c-0.886,0.442-1.847,0.483-2.884,0.124c-0.982-0.345-2.151-1.106-3.506-2.282
								C160.897,180.056,158.76,176.964,157.059,173.104z"/>
							<g>
								<path fill="#FFFFFF" stroke="#000000" stroke-width="1.6444" stroke-miterlimit="10" d="M157.059,173.104
									c-1.785-3.901-2.738-7.676-2.862-11.328c0-1.605,0.22-2.953,0.663-4.045c0.456-1.093,1.114-1.84,1.971-2.241
									c0.886-0.443,1.853-0.491,2.904-0.146c0.954,0.318,2.125,1.017,3.506,2.095c2.628,2.656,4.759,5.817,6.391,9.482
									c1.84,3.984,2.759,7.684,2.759,11.101c0.056,1.701-0.138,3.119-0.581,4.252c-0.442,1.107-1.092,1.86-1.949,2.262
									c-0.886,0.442-1.847,0.483-2.884,0.124c-0.982-0.345-2.151-1.106-3.506-2.282
									C160.897,180.056,158.76,176.964,157.059,173.104z"/>
								
									<path fill="none" stroke="#000000" stroke-width="1.6444" stroke-linecap="round" stroke-linejoin="round" stroke-miterlimit="3" d="
									M157.059,173.104c1.701,3.86,3.838,6.951,6.412,9.274c1.355,1.176,2.525,1.937,3.506,2.282
									c1.037,0.36,1.998,0.318,2.884-0.124c0.857-0.401,1.507-1.155,1.949-2.262c0.443-1.134,0.637-2.551,0.581-4.252
									c0-3.417-0.92-7.117-2.759-11.101c-1.632-3.666-3.763-6.826-6.391-9.482c-1.382-1.078-2.552-1.777-3.506-2.095
									c-1.051-0.345-2.019-0.297-2.904,0.146c-0.857,0.401-1.515,1.148-1.971,2.241c-0.443,1.092-0.663,2.441-0.663,4.045
									C154.32,165.428,155.274,169.205,157.059,173.104z"/>
							</g>
						</g>
						<g>
							<path fill="#FFFFFF" stroke="#000000" stroke-width="1.6444" stroke-miterlimit="10" d="M162.33,167.855
								c0.788-0.345,1.631-0.318,2.531,0.083c0.872,0.374,1.895,1.141,3.071,2.303c2.406,2.435,4.502,5.601,6.287,9.502
								c1.756,4.191,2.745,7.849,2.966,10.976c0.36,3.43-0.214,5.491-1.722,6.183c-0.801,0.345-1.666,0.311-2.593-0.104
								c-0.927-0.414-1.965-1.223-3.112-2.427c-2.13-2.13-4.191-5.291-6.183-9.482c-1.743-3.816-2.732-7.517-2.968-11.1
								C160.373,170.512,160.946,168.533,162.33,167.855z"/>
							<g>
								<path fill="#FFFFFF" stroke="#000000" stroke-width="1.6444" stroke-miterlimit="10" d="M162.33,167.855
									c0.788-0.345,1.631-0.318,2.531,0.083c0.872,0.374,1.895,1.141,3.071,2.303c2.406,2.435,4.502,5.601,6.287,9.502
									c1.756,4.191,2.745,7.849,2.966,10.976c0.36,3.43-0.214,5.491-1.722,6.183c-0.801,0.345-1.666,0.311-2.593-0.104
									c-0.927-0.414-1.965-1.223-3.112-2.427c-2.13-2.13-4.191-5.291-6.183-9.482c-1.743-3.816-2.732-7.517-2.968-11.1
									C160.373,170.512,160.946,168.533,162.33,167.855z"/>
								
									<path fill="none" stroke="#000000" stroke-width="1.6444" stroke-linecap="round" stroke-linejoin="round" stroke-miterlimit="3" d="
									M162.33,167.855c-1.383,0.677-1.957,2.656-1.722,5.934c0.236,3.583,1.225,7.284,2.968,11.1
									c1.991,4.191,4.052,7.352,6.183,9.482c1.148,1.204,2.185,2.013,3.112,2.427c0.927,0.415,1.791,0.449,2.593,0.104
									c1.508-0.692,2.082-2.753,1.722-6.183c-0.221-3.127-1.21-6.784-2.966-10.976c-1.785-3.902-3.881-7.068-6.287-9.502
									c-1.175-1.162-2.199-1.929-3.071-2.303C163.961,167.537,163.118,167.51,162.33,167.855z"/>
							</g>
						</g>
						<g>
							<path fill="#FFFFFF" stroke="#000000" stroke-width="1.6444" stroke-miterlimit="10" d="M166.333,185.221
								c-0.056-1.189,0.056-2.199,0.332-3.029c0.277-0.816,0.699-1.369,1.265-1.66c0.61-0.333,1.329-0.353,2.159-0.064
								c0.801,0.292,1.645,0.851,2.531,1.681c2.019,2.02,3.659,4.454,4.917,7.303c1.329,2.904,2.047,5.727,2.159,8.465
								c0.111,1.273,0.034,2.316-0.228,3.132c-0.277,0.831-0.733,1.391-1.369,1.681c-0.664,0.332-1.391,0.34-2.178,0.022
								c-0.748-0.292-1.619-0.907-2.615-1.847c-1.812-1.605-3.416-3.936-4.814-6.992
								C167.052,190.554,166.333,187.656,166.333,185.221z"/>
							<g>
								<path fill="#FFFFFF" stroke="#000000" stroke-width="1.6444" stroke-miterlimit="10" d="M167.93,180.534
									c0.61-0.333,1.329-0.353,2.159-0.064c0.801,0.292,1.645,0.851,2.531,1.681c2.019,2.02,3.659,4.454,4.917,7.303
									c1.329,2.904,2.047,5.727,2.159,8.465c0.111,1.273,0.034,2.316-0.228,3.132c-0.277,0.831-0.733,1.391-1.369,1.681
									c-0.664,0.332-1.391,0.34-2.178,0.022c-0.748-0.292-1.619-0.907-2.615-1.847c-1.812-1.605-3.416-3.936-4.814-6.992
									c-1.438-3.361-2.159-6.26-2.159-8.694c-0.056-1.189,0.056-2.199,0.332-3.029
									C166.943,181.377,167.365,180.823,167.93,180.534z"/>
								
									<path fill="none" stroke="#000000" stroke-width="1.6444" stroke-linecap="round" stroke-linejoin="round" stroke-miterlimit="3" d="
									M167.93,180.534c-0.567,0.291-0.988,0.844-1.265,1.66c-0.276,0.83-0.388,1.84-0.332,3.029c0,2.435,0.719,5.332,2.159,8.694
									c1.397,3.056,3,5.387,4.814,6.992c0.995,0.939,1.867,1.556,2.615,1.847c0.788,0.318,1.514,0.31,2.178-0.022
									c0.636-0.291,1.092-0.85,1.369-1.681c0.262-0.816,0.339-1.859,0.228-3.132c-0.112-2.738-0.83-5.56-2.159-8.465
									c-1.257-2.849-2.899-5.283-4.917-7.303c-0.886-0.83-1.729-1.39-2.531-1.681C169.259,180.18,168.54,180.2,167.93,180.534z"/>
							</g>
						</g>
						<g>
							<path fill="#FFFFFF" stroke="#000000" stroke-width="1.6444" stroke-miterlimit="10" d="M171.354,193.459
								c0-0.968,0.063-1.673,0.186-2.116c0.139-0.595,0.422-0.997,0.851-1.205c0.801-0.332,1.826,0.132,3.071,1.391
								c1.313,1.549,2.421,3.34,3.319,5.373c1.051,2.31,1.625,4.33,1.722,6.058c0.068,1.037,0.048,1.791-0.062,2.262
								c-0.139,0.539-0.423,0.891-0.851,1.058c-0.332,0.221-0.767,0.207-1.307-0.042c-0.525-0.262-1.079-0.711-1.661-1.347
								c-1.272-1.258-2.419-3.008-3.444-5.249C172.198,197.539,171.59,195.478,171.354,193.459z"/>
							<g>
								<path fill="#FFFFFF" stroke="#000000" stroke-width="1.6444" stroke-miterlimit="10" d="M171.354,193.459
									c0-0.968,0.063-1.673,0.186-2.116c0.139-0.595,0.422-0.997,0.851-1.205c0.801-0.332,1.826,0.132,3.071,1.391
									c1.313,1.549,2.421,3.34,3.319,5.373c1.051,2.31,1.625,4.33,1.722,6.058c0.068,1.037,0.048,1.791-0.062,2.262
									c-0.139,0.539-0.423,0.891-0.851,1.058c-0.332,0.221-0.767,0.207-1.307-0.042c-0.525-0.262-1.079-0.711-1.661-1.347
									c-1.272-1.258-2.419-3.008-3.444-5.249C172.198,197.539,171.59,195.478,171.354,193.459z"/>
								
									<path fill="none" stroke="#000000" stroke-width="1.6444" stroke-linecap="round" stroke-linejoin="round" stroke-miterlimit="3" d="
									M171.354,193.459c0.236,2.02,0.844,4.081,1.825,6.184c1.025,2.241,2.172,3.99,3.444,5.249
									c0.581,0.636,1.135,1.085,1.661,1.347c0.539,0.25,0.976,0.263,1.307,0.042c0.429-0.166,0.711-0.519,0.851-1.058
									c0.111-0.471,0.13-1.225,0.063-2.262c-0.098-1.728-0.671-3.748-1.722-6.058c-0.899-2.032-2.006-3.824-3.319-5.373
									c-1.244-1.259-2.268-1.722-3.071-1.391c-0.43,0.207-0.711,0.61-0.851,1.205
									C171.417,191.785,171.354,192.491,171.354,193.459z"/>
							</g>
						</g>
						<g>
							<polygon fill="#FFFFFF" stroke="#000000" stroke-width="1.6444" stroke-miterlimit="10" points="139.341,187.524 
								134.195,191.757 123.323,198.043 145.959,178.375 144.257,181.923 							"/>
							<path stroke="#000000" stroke-width="1.6444" stroke-miterlimit="10" d="M134.195,191.757l5.146-4.233l0.788-0.912
								l1.825-1.619l-12.22,15.458l-0.352-0.809l-5.727,8.465c0.637-1.355,1.328-2.766,2.075-4.233
								c1.189-2.157,2.034-3.86,2.531-5.103c0.457-1.135,0.525-1.605,0.207-1.411c-2.268,0.913-4.135,1.522-5.602,1.825l0.457-1.141
								L134.195,191.757z"/>
							<path stroke="#000000" stroke-width="1.6444" stroke-miterlimit="10" d="M161.582,243.15
								c-0.194-0.194-0.483-0.207-0.872-0.042c-1.397,0.927-1.812,1.95-1.245,3.071c0.125,0.415,0.277,0.671,0.457,0.767
								c0.193,0.098,0.456,0.035,0.788-0.186c0.568-0.388,0.954-0.767,1.162-1.141c0.207-0.345,0.284-0.726,0.228-1.141
								C161.921,243.772,161.749,243.33,161.582,243.15z M167.93,240.12c0.568,0.802,1.149,1.321,1.743,1.557
								c0.581,0.235,1.217,0.214,1.909-0.063c0.236-0.125,0.353-0.277,0.353-0.457C171.604,239.069,170.269,238.725,167.93,240.12z
								 M144.361,252.029c0.18,0.152,0.333,0.228,0.457,0.228c1.01,0.167,1.915,0.069,2.718-0.291
								c0.774-0.345,1.397-0.898,1.867-1.66c0.262-0.221,0.36-0.408,0.291-0.56c-0.056-0.124-0.27-0.284-0.644-0.478
								c-1.328-0.568-2.365-0.637-3.112-0.207C145.177,249.506,144.652,250.494,144.361,252.029z M128.739,255.744
								c-0.485-0.056-1.225,0.38-2.22,1.307c0.443,0.373,0.809,0.628,1.1,0.766c0.36,0.153,0.761,0.202,1.204,0.146
								c0.138,0,0.276-0.063,0.415-0.186c0.138-0.138,0.228-0.229,0.27-0.27C129.505,256.387,129.25,255.799,128.739,255.744z
								 M138.033,257.03c-0.345,0.056-0.637,0.595-0.872,1.619c0.221,0.512,0.491,0.782,0.809,0.808
								c0.291,0.027,0.671-0.164,1.141-0.58c0-0.069,0.042-0.16,0.125-0.27c0.068-0.111,0.103-0.207,0.103-0.291
								C138.829,257.404,138.393,256.974,138.033,257.03z M106.29,237.942c0.194-0.166,0.311-0.27,0.353-0.311
								c0.069-0.068,0.103-0.151,0.103-0.249c-0.291-1.383-0.685-2.117-1.183-2.199c-0.498-0.083-1.058,0.498-1.681,1.743
								c0.276,0.622,0.629,1.024,1.058,1.204C105.37,238.295,105.818,238.232,106.29,237.942z M104.442,231.096
								c0.457-0.401,0.594-0.644,0.414-0.726c-0.166-0.069-0.685-0.022-1.556,0.145c0,0.554,0.09,0.865,0.27,0.934
								C103.738,231.504,104.028,231.385,104.442,231.096z M120.46,251.179c-0.623-0.124-1.079,0.464-1.369,1.763
								c1.037,1.369,2.102,1.674,3.196,0.913l0.581-0.228C121.885,252.12,121.083,251.303,120.46,251.179z M107.887,242.984
								c1.48,1.272,2.393,1.078,2.738-0.581c0.581-0.927,0.761-1.57,0.539-1.929c-0.207-0.388-0.885-0.581-2.032-0.581
								c-0.817-0.111-1.356,0.069-1.618,0.539c-0.236,0.43-0.263,1.127-0.083,2.096
								C107.735,242.693,107.887,242.844,107.887,242.984z M123.323,198.043l-0.457,1.141c-6.445,4.676-11.363,9.476-14.751,14.399
								c-3.721,8.009-4.496,11.778-2.324,11.307c2.186-0.47,7.303-5.186,15.353-14.15c0.083,0.069,0.235,0.255,0.457,0.56
								c0,0-15.143,17.995-16.057,19.184c-0.914,1.188,4.155,5.956,6.45,5.404l0.228,0.352c0-0.069,0.061-0.166,0.186-0.291
								c0.111-0.112,0.166-0.207,0.166-0.291c2.573-0.886,5.809-4.199,9.71-9.939l1.369-0.352l-5.934,15.788
								c0.457,2.974,1.301,4.661,2.532,5.063c1.231,0.415,2.904-0.435,5.021-2.552l4.917-14.066l1.245-0.333
								c-1.383,2.075-2.344,4.406-2.883,6.993c-0.554,2.614-0.658,5.429-0.311,8.443c1.729,3.804,3.562,5.478,5.499,5.021
								c1.936,0.581,5.249-0.754,9.938-4.004c1.811,1.355,3.312,1.84,4.501,1.451c1.163-0.373,2.061-1.576,2.698-3.61l-1.473-10.768
								l0.912,0.249c4.565,7.303,7.899,9.829,10.001,7.573c2.075-2.241,2.974-9.267,2.697-21.08
								c1.647,6.888,3.431,11.563,5.353,14.026c1.909,2.435,3.894,2.642,5.956,0.623l-3.424-32.138l1.493,7.552l0.104-0.124
								c-0.042-0.456-0.138-1.051-0.291-1.785c-0.25-1.134-0.382-1.757-0.395-1.867l4.13,14.171
								c3.016,8.492,2.899,16.501-0.352,24.026c-9.268,13.721-21.351,19.095-36.247,16.121c-4.385,0.111-8.085-0.236-11.1-1.037
								c-9.917-2.268-18.037-7.602-24.358-15.997c-3.223-4.938-5.056-9.061-5.499-12.365c-1.411-4.828-1.826-8.445-1.244-10.851
								c0.276-4.648,5.201-11.674,14.772-21.08c9.599-9.447,23.811-21.217,42.637-35.313l10.52,16.246
								c-2.504-3.666-4.22-4.045-5.145-1.141c-2.353-2.297-4.863-3.161-7.531-2.593c-2.684,0.567-5.395,2.537-8.134,5.913
								l1.702-3.548L123.323,198.043z"/>
							<path fill="#FFFFFF" stroke="#000000" stroke-width="1.6444" stroke-miterlimit="10" d="M171.582,241.614
								c-0.692,0.276-1.328,0.297-1.909,0.063c-0.594-0.236-1.175-0.754-1.743-1.557c2.338-1.396,3.674-1.051,4.005,1.037
								C171.935,241.337,171.818,241.489,171.582,241.614z"/>
							<path fill="#FFFFFF" stroke="#000000" stroke-width="1.6444" stroke-miterlimit="10" d="M103.301,230.514
								c0.872-0.166,1.391-0.214,1.556-0.145c0.18,0.082,0.042,0.324-0.414,0.726c-0.414,0.291-0.706,0.408-0.872,0.352
								C103.391,231.379,103.301,231.067,103.301,230.514z"/>
							<path fill="#FFFFFF" stroke="#000000" stroke-width="1.6444" stroke-miterlimit="10" d="M103.882,236.926
								c0.622-1.245,1.183-1.826,1.681-1.743c0.498,0.082,0.892,0.816,1.183,2.199c0,0.098-0.034,0.18-0.103,0.249
								c-0.042,0.042-0.159,0.146-0.353,0.311c-0.47,0.292-0.92,0.353-1.348,0.187C104.511,237.95,104.158,237.547,103.882,236.926z
								"/>
							<path fill="#FFFFFF" stroke="#000000" stroke-width="1.6444" stroke-miterlimit="10" d="M107.513,240.432
								c0.262-0.47,0.801-0.65,1.618-0.539c1.148,0,1.826,0.194,2.032,0.581c0.221,0.36,0.042,1.002-0.539,1.929
								c-0.345,1.66-1.259,1.853-2.738,0.581c0-0.139-0.152-0.292-0.457-0.456C107.25,241.558,107.278,240.861,107.513,240.432z"/>
							<path fill="#FFFFFF" stroke="#000000" stroke-width="1.6444" stroke-miterlimit="10" d="M137.162,258.648
								c0.235-1.024,0.525-1.563,0.872-1.619c0.36-0.056,0.796,0.374,1.307,1.287c0,0.082-0.035,0.18-0.103,0.291
								c-0.083,0.111-0.125,0.201-0.125,0.27c-0.47,0.415-0.851,0.608-1.141,0.58C137.654,259.43,137.383,259.16,137.162,258.648z"
								/>
							<path fill="#FFFFFF" stroke="#000000" stroke-width="1.6444" stroke-miterlimit="10" d="M144.361,252.029
								c0.292-1.535,0.817-2.524,1.576-2.966c0.748-0.43,1.785-0.36,3.112,0.207c0.374,0.194,0.588,0.353,0.644,0.478
								c0.069,0.152-0.027,0.339-0.291,0.56c-0.47,0.761-1.093,1.313-1.867,1.66c-0.802,0.36-1.709,0.457-2.718,0.291
								C144.694,252.257,144.541,252.181,144.361,252.029z"/>
							<path fill="#FFFFFF" stroke="#000000" stroke-width="1.6444" stroke-miterlimit="10" d="M160.71,246.76
								c-0.332,0.221-0.595,0.284-0.788,0.186c-0.18-0.096-0.332-0.352-0.457-0.767c-0.568-1.119-0.152-2.143,1.245-3.071
								c0.388-0.166,0.677-0.152,0.872,0.042c0.166,0.18,0.339,0.622,0.519,1.328c0.056,0.415-0.021,0.796-0.228,1.141
								C161.664,245.992,161.278,246.372,160.71,246.76z"/>
							<path fill="#FFFFFF" stroke="#000000" stroke-width="1.6444" stroke-miterlimit="10" d="M129.505,257.507
								c-0.042,0.041-0.132,0.132-0.27,0.27c-0.138,0.124-0.276,0.186-0.415,0.186c-0.443,0.056-0.844,0.008-1.204-0.146
								c-0.291-0.138-0.657-0.394-1.1-0.766c0.995-0.927,1.735-1.363,2.22-1.307C129.25,255.799,129.505,256.387,129.505,257.507z"
								/>
							<path fill="#FFFFFF" stroke="#000000" stroke-width="1.6444" stroke-miterlimit="10" d="M122.866,253.627l-0.581,0.228
								c-1.093,0.761-2.157,0.456-3.196-0.913c0.291-1.3,0.747-1.888,1.369-1.763C121.082,251.304,121.885,252.12,122.866,253.627z"
								/>
							<polygon fill="#423E31" stroke="#000000" stroke-width="1.6444" stroke-miterlimit="10" points="144.257,181.923 
								141.954,184.993 140.129,186.611 							"/>
							<path fill="#FFFFFF" stroke="#000000" stroke-width="1.6444" stroke-miterlimit="10" d="M130.751,212.796
								c0,0-0.464-1.487,1.141-4.233c1.605-2.746-2.359-5.895-2.159-8.111c0.201-2.217,14.523-18.528,14.523-18.528
								c2.74-3.375,5.451-5.346,8.134-5.913c2.669-0.568,5.18,0.297,7.531,2.593l3.09,40.936c0.277,11.812-0.622,18.839-2.697,21.08
								c-2.103,2.256-5.436-0.27-10.001-7.573l-3.776-17.386c0,0,7.709-31.297,7.656-33.632s-6.743,22.117-9.565,28.799
								c-2.836,6.737-5.367,10.67-7.595,11.806l-3.527,0.456L130.751,212.796z"/>
							<path fill="#FFFFFF" stroke="#000000" stroke-width="1.6444" stroke-miterlimit="10" d="M133.739,249.727
								c0.747-0.042,1.501-0.408,2.26-1.1c0.637-0.581,1.37-1.473,2.199-2.676c1.881-4.135,4.357-13.97,7.428-29.503
								c0-0.112,0.007-0.18,0.021-0.207c0-0.014,0.027-0.022,0.082-0.022l3.674,16.578l1.473,10.768
								c-0.637,2.034-1.535,3.237-2.698,3.61c-1.189,0.388-2.69-0.096-4.501-1.451C138.988,248.973,135.675,250.308,133.739,249.727
								z"/>
							<path fill="#383635" stroke="#000000" stroke-width="1.6444" stroke-miterlimit="10" d="M145.627,216.406v-0.748l0.103,0.56
								c-0.055,0-0.082,0.008-0.082,0.022C145.636,216.264,145.628,216.319,145.627,216.406z"/>
							<polygon fill="#383635" stroke="#000000" stroke-width="1.6444" stroke-miterlimit="10" points="149.404,232.796 
								145.627,215.659 146.539,215.659 150.316,233.045 							"/>
							<path stroke="#000000" stroke-width="1.6444" stroke-miterlimit="10" d="M139.253,224.36l-7.817,4.909l-1.245,0.333
								c1.3-0.969,2.248-2.11,2.843-3.424c0.47-1.135,0.47-2.054,0-2.76l0.477-0.332l3.527-0.456
								c2.228-1.135,4.759-5.069,7.595-11.806c2.821-6.682,6.009-16.281,9.565-28.799l-7.656,33.632"/>
							<path fill="#FFFFFF" stroke="#000000" stroke-width="1.6444" stroke-miterlimit="10" d="M131.435,229.454l6.868-4.232
								l-0.104,0.104c-3.239,1.137-0.947,0.913,0.83,0.249c1.777-0.664,3.499-4.827,6.598-9.626c0,0-3.174,0.471,0,0.685
								c2.703,0.182-5.548,25.368-7.428,29.503c-0.83,1.204-1.563,2.095-2.199,2.676c-0.761,0.692-1.514,1.058-2.26,1.1
								c-1.937,0.457-3.769-1.217-5.499-5.021c-0.345-3.015-0.242-5.83,0.311-8.443C129.09,233.858,130.051,231.528,131.435,229.454
								z"/>
							<path stroke="#000000" stroke-width="1.6444" stroke-miterlimit="10" d="M159.922,178.603
								c0.926-2.904,2.641-2.525,5.145,1.141l8.111,30.416l-1.369-4.336l-0.912-3.776c-3.016-8.908-6.64-15.963-10.873-21.163
								L159.922,178.603z"/>
							<path fill="#383635" stroke="#000000" stroke-width="1.6444" stroke-miterlimit="10" d="M163.014,219.539l-2.988-38.653
								C163.291,196.17,164.286,209.054,163.014,219.539z"/>
							<path fill="#484233" stroke="#000000" stroke-width="1.6444" stroke-miterlimit="10" d="M170.898,202.048l0.912,3.776
								c0.014,0.111,0.146,0.733,0.395,1.867c0.152,0.733,0.249,1.329,0.291,1.785c-0.194-0.498-0.401-1.258-0.622-2.282
								c-0.069-0.332-0.277-1.404-0.623-3.216L170.898,202.048z"/>
							<path fill="#383635" stroke="#000000" stroke-width="1.6444" stroke-miterlimit="10" d="M172.392,209.6l-0.281-1.4
								c0.133,0.533,0.26,0.958,0.385,1.276L172.392,209.6z"/>
							<path fill="#FFFFFF" stroke="#000000" stroke-width="1.6444" stroke-miterlimit="10" d="M160.025,180.886
								c4.233,5.201,7.857,12.255,10.873,21.163c0,0,3.5,29.991,3.424,32.138c-0.077,2.148-4.046,1.811-5.956-0.623
								c-1.922-2.462-6.076-9.529-5.353-14.026C163.735,215.042,163.291,196.17,160.025,180.886z"/>
							<path fill="#FFFFFF" stroke="#000000" stroke-width="1.6444" stroke-miterlimit="10" d="M111.995,235.889l-0.913-0.789
								c0.733-0.442,1.21-0.616,1.432-0.519c0.207,0.082,0.228,0.442,0.062,1.079c0,0.082-0.055,0.179-0.166,0.291
								c-0.125,0.124-0.186,0.22-0.186,0.291L111.995,235.889z"/>
							<path fill="#FFFFFF" stroke="#000000" stroke-width="1.6444" stroke-miterlimit="10" d="M124.967,208.211
								c1.965-2.476,3.086-6.581,4.055-6.414c0.982,0.179,1.845,4.665,1.9,7.555l0.203,8.709l-9.021,8.573
								c-3.901,5.74-7.138,9.054-9.71,9.939c0.166-0.637,0.145-0.997-0.062-1.079c-0.221-0.098-0.698,0.076-1.432,0.519l0.913,0.789
								c-2.297,0.553-4.199-0.934-5.706-4.461l15.312-20.125C123.023,210.389,124.206,209.054,124.967,208.211z"/>
							<path fill="#FFFFFF" stroke="#000000" stroke-width="1.6444" stroke-miterlimit="10" d="M108.115,213.584
								c3.389-4.923,8.306-9.724,14.751-14.399c1.466-0.304,3.334-0.912,5.602-1.825c0.319-0.194,0.25,0.276-0.207,1.411
								c-0.498,1.244-1.342,2.947-2.531,5.103c-0.844,1.301-2.372,3.589-4.586,6.868c-8.05,8.963-13.168,13.68-15.353,14.15
								C103.619,225.362,104.394,221.593,108.115,213.584z"/>
							<path fill="#FFFFFF" stroke="#000000" stroke-width="1.6444" stroke-miterlimit="10" d="M133.033,226.178
								c-0.594,1.313-1.542,2.455-2.843,3.424l-4.917,14.066c-2.116,2.117-3.79,2.968-5.021,2.552
								c-1.231-0.401-2.075-2.088-2.532-5.063l5.934-15.788c0.111-0.124,0.504-0.616,1.183-1.473
								c0.498-0.636,0.947-1.134,1.348-1.493c4.565-5.492,6.847-5.152,6.847,1.016C133.503,224.123,133.503,225.043,133.033,226.178
								z"/>
						</g>
						<g>
							<path stroke="#000000" stroke-width="1.6444" stroke-miterlimit="10" d="M69.338,181.695h0.353
								c0.512-1.661,0.622-2.642,0.332-2.947c-0.276-0.318-0.961,0.014-2.054,0.995C68.231,181.141,68.687,181.791,69.338,181.695z
								 M38.693,141.091c0.457-0.124,0.685-0.276,0.685-0.457c0-2.06-0.235-3.299-0.705-3.713c-0.485-0.429-1.238-0.069-2.262,1.079
								C36.839,140.171,37.6,141.202,38.693,141.091z M67.158,164.993c0,0.276,0.069,0.553,0.207,0.83
								c0.083,0.166,0.207,0.422,0.374,0.767c0.567,1.204,1.058,1.812,1.473,1.825c0.414,0.014,0.761-0.56,1.038-1.721
								c0.18-1.079,0-1.763-0.54-2.054C69.171,164.35,68.32,164.467,67.158,164.993z M58.133,165.78
								c0.332-0.068,0.504-0.111,0.519-0.124c0.111-0.042,0.166-0.112,0.166-0.207c-0.055-2.117-0.324-3.389-0.809-3.817
								c-0.499-0.442-1.259-0.09-2.282,1.059C56.308,164.875,57.11,165.906,58.133,165.78z M63.756,167.275
								c-0.637-0.125-1.217,0.677-1.743,2.405c0.83,2.462,2.088,2.953,3.777,1.474c0.152-0.292,0.193-0.52,0.124-0.685
								C65.112,168.478,64.393,167.414,63.756,167.275z M57.905,158.934c1.175,1.743,2.663,2.275,4.461,1.597
								c0.706-0.47,0.664-1.39-0.124-2.76c-2.088-3.25-3.652-3.175-4.689,0.229L57.905,158.934z M53.319,157.088
								c0.069-2.047-0.152-3.3-0.663-3.756c-0.511-0.442-1.279-0.062-2.303,1.141c0.291,1.093,0.623,1.867,0.997,2.324
								c0.373,0.483,0.843,0.698,1.411,0.642C53.133,157.44,53.319,157.324,53.319,157.088z M45.789,142.916
								c0.567,2.186,1.363,3.098,2.385,2.738c1.037-0.332,1.501-1.092,1.39-2.281C49.316,140.454,48.057,140.303,45.789,142.916z
								 M42.925,134.555c0.235-1.079,0.076-1.778-0.478-2.096c-0.539-0.332-1.411-0.242-2.615,0.27
								c0.25,0.761,0.519,1.369,0.809,1.826c0.568,1.148,1.016,1.722,1.348,1.722C42.324,136.277,42.635,135.703,42.925,134.555z
								 M58.133,151.154c0.388-0.774,0.491-1.487,0.311-2.137c-0.167-0.61-0.574-1.12-1.225-1.535
								c-0.788-0.456-1.453-0.539-1.991-0.249c-0.539,0.276-0.982,0.934-1.328,1.97c0.014,0.027,0.09,0.167,0.228,0.415
								c0.111,0.207,0.186,0.374,0.228,0.498c0.663,1.549,1.501,2.276,2.51,2.178C57.504,152.046,57.926,151.665,58.133,151.154z
								 M75.292,178.022c0.096-0.153,0.159-0.263,0.186-0.333c0.042-0.111,0.014-0.186-0.082-0.228
								c-0.568-1.148-1.148-1.721-1.743-1.721c-0.595,0-1.155,0.573-1.681,1.721c0.345,0.927,0.788,1.438,1.328,1.535
								C73.839,179.094,74.503,178.769,75.292,178.022z M77.222,128.621c-7.83-2.849-14.42-1.709-19.773,3.424
								c-0.125,6.348-1.84,10.886-5.145,13.61l5.373-3.88l4.918,4.689l16.246-5.373l9.938-4.233
								C85.292,133.013,81.441,130.268,77.222,128.621z M90.085,118.974c-2.103-0.083-4.059,0.235-5.872,0.955
								c-3.071,0.982-5.554,2.58-7.448,4.793c6.335,7.04,12.822,12.573,19.461,16.599c-4.703-1.397-9.281-1.21-13.735,0.56
								l-11.66,2.76l0.456,1.016c-2.766,1.218-4.377,3.072-4.835,5.56c-0.456,2.532,0.276,5.672,2.199,9.42
								c0.152,0.304,0.422,0.836,0.809,1.597l4.005,2.634c1.784-0.345,3.735-0.816,5.851-1.411c1.287-0.358,3.147-0.919,5.581-1.679
								c-3.292,2.241-6.342,5.367-9.149,9.379v4.004l2.738,8.237l4.917,4.814c15.16,7.912,28.888,6.916,41.185-2.988
								c12.533-10.082,20.499-17.704,23.902-22.864c-8.438-5.547-16.902-8.596-25.396-9.149c-9.337-0.677-22.068,2.178-38.196,8.568
								c6.141-3.319,10.955-6.045,14.44-8.175c3.873-2.379,6.605-4.343,8.196-5.892c-0.594-0.415-1.722-1.107-3.382-2.075
								c-2.282-1.328-4.924-2.766-7.925-4.316c8.798,4.343,14.586,6.896,17.366,7.655c12.173,3.749,24.676,6.875,37.512,9.379
								c-1.687-5.463-5.077-10.457-10.166-14.979c-5.92-5.367-12.553-9.406-19.897-12.117l8.112,8.34
								c0.083,0.235,0.125,0.463,0.125,0.685c-0.096,0.18-0.249,0.374-0.457,0.581c-7.634-7.539-16.066-13.867-25.292-18.985
								c-0.968-0.511-2.157-1.119-3.568-1.825c-1.576-0.761-2.746-1.335-3.507-1.722l0.104,0.913
								c0.152,0.221,0.228,0.449,0.228,0.685c-0.083,0.042-0.152,0.111-0.207,0.207c-0.056,0.083-0.096,0.124-0.125,0.124
								C94.118,119.485,91.994,119.056,90.085,118.974z M85.354,109.181c0.263,0.111,0.449,0.111,0.56,0
								c1.107-0.872,1.501-1.466,1.183-1.784c-0.319-0.319-1.356-0.332-3.112-0.042c0.112,0.61,0.297,1.079,0.56,1.411
								C84.794,109.098,85.064,109.236,85.354,109.181z M93.136,110.425c-0.263-0.388-0.457-0.616-0.581-0.685
								c-1.148-0.913-2.157-1.252-3.03-1.016c-0.899,0.249-1.604,1.085-2.116,2.51c0.677,1.411,1.514,2.247,2.51,2.51
								c0.982,0.263,2.054-0.042,3.216-0.913l-0.125-0.456l10.872,4.586c-0.083-0.083-11.623-6.384-11.677-6.521
								c-1.644-6.304,11.353,5.967,11.324,5.94C100.749,113.282,97.285,111.297,93.136,110.425z M63.051,119.244
								c2.282,3.666,4.363,5.754,6.244,6.266c1.881,0.512,3.652-0.547,5.311-3.175c0-0.083-0.042-0.201-0.125-0.353l-6.286-5.373
								l-3.319-0.809L63.051,119.244z M73.113,101.857c0.096,0.138,0.166,0.291,0.207,0.457c0.042,0.096,0.09,0.249,0.145,0.456
								c1.079,1.425,2.316,2.421,3.714,2.988c1.397,0.567,2.899,0.677,4.502,0.332c-0.042-0.166-0.111-0.332-0.207-0.498
								c-0.083-0.138-0.124-0.242-0.124-0.311C79.041,102.873,76.295,101.732,73.113,101.857z M67.511,106.878
								c-0.236,0.318-0.539,0.706-0.913,1.162c0.47,1.618,1.196,2.379,2.178,2.282c0-0.083,0.152-0.124,0.457-0.124
								c2.684,2.835,5.616,4.363,8.798,4.585l-0.104-0.456h0.332c-1.024-3.735-2.282-6.335-3.777-7.801
								c-1.507-1.466-3.375-1.916-5.602-1.348l-0.809,1.369C67.85,106.615,67.664,106.725,67.511,106.878z M60.768,96.94
								c0.968,1.743,2.303,2.316,4.004,1.722c0.291-0.194,0.478-0.387,0.56-0.581C65.333,96.144,63.811,95.764,60.768,96.94z
								 M36.783,130.074c-0.235,0.387-0.477,0.706-0.726,0.955l7.096-2.303c2.061,1.37,4.502,0.955,7.324-1.244
								c1.066-0.761,1.48-2.289,1.245-4.586l3.548-3.091l4.814-0.685l-3.901-0.56h-6.515l-3.549,0.228l-0.228,0.104
								c-3.942,1.757-6.763,5.111-8.465,10.063C37.04,129.645,36.825,130.019,36.783,130.074z M30.767,125.696
								c-0.886,0.055-1.639,0.989-2.261,2.801c0.083,0.235,0.235,0.464,0.457,0.685c2.157,1.605,3.872,1.757,5.145,0.457
								c0.069-0.291,0.069-0.581,0-0.872c-0.056-0.304-0.166-0.547-0.332-0.727C32.627,126.422,31.624,125.64,30.767,125.696z
								 M12.903,105.923c0.318,0.235,0.642,0.324,0.976,0.27c0.262-0.055,0.414-0.096,0.456-0.124
								c0.069-0.027,0.104-0.096,0.104-0.207c-0.276-1.314-0.623-2.054-1.037-2.22c-0.429-0.152-0.844,0.283-1.245,1.307
								C12.336,105.363,12.585,105.688,12.903,105.923z M26.12,95.674c-0.857-2.435-1.708-3.852-2.552-4.254
								c-0.83-0.401-1.626,0.18-2.387,1.742c-0.36,0.36-0.623,0.706-0.788,1.038c0.042,0.042,0.076,0.138,0.104,0.291
								c0.042,0.194,0.083,0.324,0.125,0.394h0.103l3.444,4.917L26.12,95.674z M26.12,101.276v0.913
								c0,2.531-0.995,3.907-2.988,4.129l-0.788-4.586c-0.761-0.291-1.494-0.339-2.199-0.145c-0.733,0.194-1.376,0.629-1.929,1.307
								c-0.069,0-0.145,0.152-0.228,0.457c-0.055,1.217,0.152,2.31,0.623,3.278c0.483,1.01,1.231,1.819,2.241,2.427l-2.178,3.901
								c8.217-4.233,16.758-8.389,25.624-12.47C36.839,94.18,30.781,94.443,26.12,101.276z M29.418,111.338
								c-1.535-0.802-2.863-1.03-3.984-0.685c-1.135,0.345-2.013,1.266-2.635,2.759l2.51,2.843l2.407-0.56l-3.672,3.319l-2.51-0.125
								l1.369,3.216l1.722-1.265l26.308-10.644c1.799,1.742,3.409,2.697,4.835,2.862c1.453,0.18,2.774-0.47,3.963-1.95l-1.826-3.196
								l1.722-0.913c-0.637-4.163-1.888-7.075-3.756-8.734c-1.853-1.674-4.302-2.082-7.345-1.225l0.457,1.721l5.727,7.199
								l-4.814-0.788l0.581,4.108c-8.658-4.661-15.298-3.825-19.918,2.51c-0.082,0.125-0.27,0.547-0.56,1.265L29.418,111.338z
								 M14.21,89.159c3.816-2.009,7.22-2.282,7.22-2.282s5.286-1.069,8.112-0.809c2.826,0.26,3.652,0.913,3.652,0.913
								c9.751,1.051,19.51,3.112,29.276,6.183c8.271,2.78,16.281,6.252,24.027,10.416c7.828,4.08,16.294,9.074,25.395,14.98
								c6.197,4.066,14.772,9.973,25.727,17.719c9.876,7.125,15.555,16.003,17.035,26.64c0.263,2.185,0.34,3.942,0.228,5.27
								l-1.701,6.412c-2.96,2.171-10.319,8.23-22.076,18.175c-11.909,10.097-27.809,12.843-47.7,8.237l-1.722-0.809
								c-0.817-0.525-1.432-0.941-1.847-1.245c-0.663-0.483-1.223-0.982-1.681-1.493c-13.833-13.14-24.663-28.957-32.491-47.451
								c-2.559-1.991-4.114-3.209-4.668-3.652c-1.743-1.411-3.237-2.711-4.482-3.901c-8.852-8.161-16.212-17.006-22.076-26.536
								c-3.762-5.989-5.658-11.204-5.685-15.645C8.726,95.854,10.394,91.169,14.21,89.159z"/>
							<path fill="#FFFFFF" stroke="#000000" stroke-width="1.6444" stroke-miterlimit="10" d="M92.555,109.741
								c0.124,0.069,0.318,0.297,0.581,0.685c-0.65,0.069-1.01,0.27-1.079,0.602c-0.069,0.345,0.173,0.796,0.727,1.348h0.228
								l0.125,0.456c-1.162,0.872-2.234,1.176-3.216,0.913c-0.996-0.262-1.833-1.1-2.51-2.51c0.512-1.425,1.217-2.262,2.116-2.51
								C90.397,108.489,91.406,108.828,92.555,109.741z"/>
							<path fill="#FFFFFF" stroke="#000000" stroke-width="1.6444" stroke-miterlimit="10" d="M26.12,95.342v0.332l-1.95,4.129
								l-3.444-4.917h-0.103c-0.042-0.069-0.083-0.201-0.125-0.394c-0.027-0.152-0.062-0.249-0.104-0.291
								c0.166-0.332,0.429-0.679,0.788-1.038C22.661,91.905,24.308,92.631,26.12,95.342z"/>
							<path fill="#FFFFFF" stroke="#000000" stroke-width="1.6444" stroke-miterlimit="10" d="M25.86,94.968
								c-1.711-2.401-3.27-3.003-4.679-1.804c0.761-1.562,1.556-2.144,2.387-1.742C24.326,91.781,25.09,92.964,25.86,94.968
								c0.086,0.118,0.171,0.243,0.259,0.374v0.332C26.032,95.426,25.945,95.192,25.86,94.968z"/>
							<path fill="#FFFFFF" stroke="#000000" stroke-width="1.6444" stroke-miterlimit="10" d="M22.343,101.732l0.788,4.586
								l-2.282,2.74c-1.01-0.608-1.757-1.417-2.241-2.427c-0.47-0.968-0.677-2.061-0.623-3.278c0.083-0.305,0.159-0.457,0.228-0.457
								c0.554-0.677,1.196-1.114,1.929-1.307C20.85,101.393,21.582,101.442,22.343,101.732z"/>
							<path fill="#FFFFFF" stroke="#000000" stroke-width="1.6444" stroke-miterlimit="10" d="M26.12,102.189v-0.913
								c4.661-6.833,10.719-7.096,18.175-0.788c-8.867,4.08-17.408,8.237-25.624,12.47l2.178-3.901l2.282-2.74
								C25.124,106.096,26.12,104.72,26.12,102.189z"/>
							<path fill="#FFFFFF" stroke="#000000" stroke-width="1.6444" stroke-miterlimit="10" d="M12.155,104.948
								c0.401-1.024,0.817-1.459,1.245-1.307c0.414,0.166,0.761,0.906,1.037,2.22c0,0.111-0.035,0.18-0.104,0.207
								c-0.042,0.027-0.194,0.069-0.456,0.124c-0.332,0.056-0.658-0.034-0.976-0.27C12.585,105.688,12.336,105.363,12.155,104.948z"
								/>
							<path fill="#FFFFFF" stroke="#000000" stroke-width="1.6444" stroke-miterlimit="10" d="M24.625,120.841l-0.581-1.826
								l3.672-3.319l2.282-2.635c0.291-0.719,0.478-1.141,0.56-1.265c4.62-6.335,11.26-7.172,19.918-2.51
								c0.042,0.125,0.117,0.276,0.228,0.457c0.111,0.207,0.186,0.36,0.228,0.457L24.625,120.841z"/>
							<path fill="#FFFFFF" stroke="#000000" stroke-width="1.6444" stroke-miterlimit="10" d="M25.435,110.653
								c1.12-0.345,2.448-0.117,3.984,0.685l0.581,1.721l-2.282,2.635l-2.407,0.56l-2.51-2.843
								C23.422,111.92,24.301,111,25.435,110.653z"/>
							<polygon fill="#FFFFFF" stroke="#000000" stroke-width="1.6444" stroke-miterlimit="10" points="22.903,122.107 
								21.534,118.891 24.044,119.016 24.625,120.841 							"/>
							<path fill="#FFFFFF" stroke="#000000" stroke-width="1.6444" stroke-miterlimit="10" d="M57.905,107.915l1.826,3.196
								c-1.189,1.48-2.512,2.13-3.963,1.95c-1.424-0.166-3.036-1.12-4.835-2.862c-0.042-0.096-0.117-0.25-0.228-0.457
								c-0.111-0.18-0.186-0.332-0.228-0.457l-0.581-4.108l4.814,0.788L57.905,107.915z"/>
							<path fill="#FFFFFF" stroke="#000000" stroke-width="1.6444" stroke-miterlimit="10" d="M54.481,99.449
								c0.816,2.677-2.303,3.319-2.303,3.319l-3.196-4.005C50.81,97.271,53.666,96.772,54.481,99.449z"/>
							<path fill="#FFFFFF" stroke="#000000" stroke-width="1.6444" stroke-miterlimit="10" d="M28.506,128.497
								c0.622-1.812,1.376-2.745,2.261-2.801c0.857-0.056,1.86,0.726,3.009,2.344c0.166,0.18,0.276,0.422,0.332,0.727
								c0.069,0.291,0.069,0.581,0,0.872c-1.273,1.3-2.988,1.148-5.145-0.457C28.741,128.961,28.588,128.732,28.506,128.497z"/>
							<path fill="#FFFFFF" stroke="#000000" stroke-width="1.6444" stroke-miterlimit="10" d="M42.447,132.459
								c0.554,0.318,0.713,1.017,0.478,2.096c-0.291,1.148-0.602,1.722-0.934,1.722c-0.332,0-0.781-0.573-1.348-1.722
								c-0.291-0.457-0.56-1.064-0.809-1.826C41.037,132.218,41.909,132.128,42.447,132.459z"/>
							<path fill="#FFFFFF" stroke="#000000" stroke-width="1.6444" stroke-miterlimit="10" d="M36.057,131.029
								c0.249-0.249,0.491-0.568,0.726-0.955c0.042-0.055,0.257-0.429,0.644-1.12c1.701-4.952,4.523-8.305,8.465-10.063
								c-1.66,0.844-2.649,2.027-2.966,3.548c-0.775,1.978-0.698,4.074,0.228,6.286L36.057,131.029z"/>
							<path fill="#FFFFFF" stroke="#000000" stroke-width="1.6444" stroke-miterlimit="10" d="M56.184,118.558v0.332
								c-0.111,0.498-0.415,0.802-0.913,0.913l-3.548,3.091l-2.054-4.337H56.184z"/>
							<path fill="#FFFFFF" stroke="#000000" stroke-width="1.6444" stroke-miterlimit="10" d="M55.27,119.804
								c0.498-0.111,0.802-0.415,0.913-0.913v-0.332l3.901,0.56L55.27,119.804z"/>
							<path fill="#FFFFFF" stroke="#000000" stroke-width="1.6444" stroke-miterlimit="10" d="M51.722,122.895
								c0.235,2.297-0.18,3.825-1.245,4.586c-2.822,2.199-5.263,2.615-7.324,1.244c-0.926-2.213-1.003-4.308-0.228-6.286
								c0.318-1.522,1.307-2.704,2.966-3.548l0.228-0.104l3.549-0.228L51.722,122.895z"/>
							<path fill="#FFFFFF" stroke="#000000" stroke-width="1.6444" stroke-miterlimit="10" d="M73.466,102.769
								c-0.055-0.207-0.104-0.36-0.145-0.456c-0.042-0.167-0.111-0.319-0.207-0.457c3.181-0.125,5.928,1.016,8.237,3.424
								c0,0.069,0.042,0.173,0.124,0.311c0.096,0.166,0.166,0.332,0.207,0.498c-1.604,0.345-3.106,0.235-4.502-0.332
								C75.783,105.19,74.545,104.194,73.466,102.769z"/>
							<path fill="#FFFFFF" stroke="#000000" stroke-width="1.6444" stroke-miterlimit="10" d="M67.511,106.878
								c0.152-0.152,0.339-0.263,0.56-0.332l1.162,3.653c-0.305,0-0.457,0.042-0.457,0.124c-0.982,0.096-1.708-0.663-2.178-2.282
								C66.972,107.584,67.276,107.196,67.511,106.878z"/>
							<path fill="#FFFFFF" stroke="#000000" stroke-width="1.6444" stroke-miterlimit="10" d="M69.234,110.197l-1.162-3.653
								l0.809-1.369c2.947,1.757,5.575,4.08,7.884,6.971c0.47,0.913,0.857,1.639,1.162,2.178l0.104,0.456
								C74.849,114.562,71.917,113.033,69.234,110.197z"/>
							<path fill="#FFFFFF" stroke="#000000" stroke-width="1.6444" stroke-miterlimit="10" d="M77.927,114.326
								c-0.305-0.539-0.692-1.266-1.162-2.178c-2.31-2.891-4.938-5.214-7.884-6.971c2.227-0.568,4.095-0.117,5.602,1.348
								c1.494,1.466,2.753,4.066,3.777,7.801H77.927z"/>
							<path fill="#FFFFFF" stroke="#000000" stroke-width="1.6444" stroke-miterlimit="10" d="M60.768,96.94
								c3.043-1.176,4.565-0.796,4.565,1.141c-0.083,0.194-0.27,0.387-0.56,0.581C63.072,99.257,61.736,98.682,60.768,96.94z"/>
							<path fill="#FFFFFF" stroke="#000000" stroke-width="1.6444" stroke-miterlimit="10" d="M64.876,115.799l3.319,0.809
								l6.286,5.373c0.083,0.152,0.125,0.27,0.125,0.353c-1.66,2.628-3.43,3.687-5.311,3.175c-1.881-0.512-3.963-2.6-6.244-6.266
								L64.876,115.799z"/>
							<path fill="#383635" stroke="#000000" stroke-width="1.6444" stroke-miterlimit="10" d="M96.454,120.26
								c0.027,0,0.069-0.042,0.125-0.124c0.055-0.096,0.125-0.166,0.207-0.207c0-0.235-0.076-0.464-0.228-0.685
								c0.305,0.124,0.713,0.339,1.225,0.642c0.608,0.36,1.037,0.602,1.286,0.727l0.581,0.228c-0.291,0.747-0.711,1.064-1.265,0.955
								C97.831,121.699,97.187,121.187,96.454,120.26z"/>
							<path fill="#FFFFFF" stroke="#000000" stroke-width="1.6444" stroke-miterlimit="10" d="M76.765,124.721
								c1.895-2.213,4.377-3.811,7.448-4.793c1.812-0.719,3.769-1.037,5.872-0.955c1.909,0.083,6.369-0.644,6.369-0.644
								c0.761,0.388,1.929,0.961,3.507,1.722c1.411,0.706,2.6,1.314,3.568,1.825c9.226,5.117,13.067,11.036,17.453,11.31
								c4.385,0.274,7.4,0.548,7.4,0.548c7.345,2.711,6.637,4.271,12.557,9.637c5.09,4.522,8.479,9.517,10.166,14.979
								c-12.836-2.503-25.34-5.629-37.512-9.379c-2.78-0.76-8.568-3.312-17.366-7.655C89.587,137.295,83.1,131.761,76.765,124.721z"
								/>
							<path fill="#FFFFFF" stroke="#000000" stroke-width="1.6444" stroke-miterlimit="10" d="M96.226,141.319
								c3.002,1.549,5.644,2.988,7.925,4.316c1.66,0.968,2.787,1.66,3.382,2.075c-1.591,1.549-4.321,3.514-8.196,5.892
								c-3.486,2.13-8.299,4.855-14.44,8.175c-2.435,0.761-4.294,1.321-5.581,1.679c-2.116,0.595-2.941,2.023-5.851,1.411
								s-4.005-2.634-4.005-2.634c-0.387-0.761-0.657-1.294-0.809-1.597c-1.922-3.748-2.655-6.888-2.199-9.42
								c0.457-2.49,2.068-4.342,4.835-5.56l11.204-3.776C86.945,140.109,91.524,139.923,96.226,141.319z"/>
							<polygon fill="#383635" stroke="#000000" stroke-width="1.6444" stroke-miterlimit="10" points="71.287,145.655 
								70.831,144.639 82.492,141.879 							"/>
							<path fill="#FFFFFF" stroke="#000000" stroke-width="1.6444" stroke-miterlimit="10" d="M78.048,168.732
								c2.808-4.011,3.558-4.715,6.851-6.956c16.128-6.39,28.86-9.247,38.196-8.568c8.494,0.554,16.958,3.602,25.396,9.149
								c-3.403,5.16-11.369,12.781-23.902,22.864c-12.297,9.904-26.024,10.899-41.185,2.988c0,0-3.016-2.3-4.917-4.814
								c-1.901-2.514-2.754-5.373-2.738-8.237C75.764,172.294,78.048,168.732,78.048,168.732z"/>
							<path fill="#FFFFFF" stroke="#000000" stroke-width="1.6444" stroke-miterlimit="10" d="M85.354,109.181
								c-0.291,0.056-0.56-0.083-0.809-0.414c-0.263-0.332-0.449-0.801-0.56-1.411c1.757-0.291,2.794-0.276,3.112,0.042
								c0.318,0.319-0.076,0.913-1.183,1.784C85.804,109.292,85.617,109.292,85.354,109.181z"/>
							<path fill="#FFFFFF" stroke="#000000" stroke-width="1.6444" stroke-miterlimit="10" d="M57.449,132.045
								c2.237-1.682,11.944-6.273,19.773-3.424c4.218,1.645,11.506,7.423,11.557,8.237c-0.133,2.458-6.68,2.993-9.938,4.233
								s-8.237,2.738-8.237,2.738s-6.104,3.662-8.008,2.634c-1.904-1.027-0.716-4.225-4.188-3.951
								c-3.928,3.837-6.103,3.141-6.103,3.141C55.609,142.931,55.211,133.726,57.449,132.045z"/>
							<path fill="#FFFFFF" stroke="#000000" stroke-width="1.6444" stroke-miterlimit="10" d="M57.22,147.481
								c0.65,0.414,1.058,0.926,1.225,1.535c0.18,0.65,0.076,1.363-0.311,2.137c-0.207,0.512-0.629,0.892-1.265,1.141
								c-1.01,0.098-1.847-0.629-2.51-2.178c-0.042-0.124-0.117-0.291-0.228-0.498c-0.138-0.249-0.214-0.388-0.228-0.415
								c0.345-1.036,0.788-1.694,1.328-1.97C55.768,146.942,56.433,147.025,57.22,147.481z"/>
							<path fill="#FFFFFF" stroke="#000000" stroke-width="1.6444" stroke-miterlimit="10" d="M45.789,142.916
								c2.268-2.613,3.527-2.462,3.776,0.457c0.111,1.189-0.353,1.949-1.39,2.281C47.15,146.014,46.356,145.102,45.789,142.916z"/>
							<path fill="#FFFFFF" stroke="#000000" stroke-width="1.6444" stroke-miterlimit="10" d="M52.76,157.44
								c-0.568,0.056-1.037-0.159-1.411-0.642c-0.374-0.457-0.706-1.231-0.997-2.324c1.024-1.204,1.791-1.583,2.303-1.141
								c0.512,0.456,0.733,1.709,0.663,3.756C53.319,157.324,53.133,157.44,52.76,157.44z"/>
							<path fill="#FFFFFF" stroke="#000000" stroke-width="1.6444" stroke-miterlimit="10" d="M58.009,161.631
								c0.483,0.43,0.754,1.701,0.809,3.817c0,0.096-0.055,0.166-0.166,0.207c-0.014,0.014-0.186,0.056-0.519,0.124
								c-1.024,0.125-1.826-0.906-2.406-3.09C56.75,161.541,57.511,161.189,58.009,161.631z"/>
							<path fill="#FFFFFF" stroke="#000000" stroke-width="1.6444" stroke-miterlimit="10" d="M62.242,157.772
								c0.788,1.37,0.83,2.29,0.124,2.76c-1.798,0.677-3.286,0.146-4.461-1.597l-0.353-0.934
								C58.59,154.597,60.153,154.522,62.242,157.772z"/>
							<path fill="#FFFFFF" stroke="#000000" stroke-width="1.6444" stroke-miterlimit="10" d="M70.251,166.693
								c-0.277,1.162-0.623,1.735-1.038,1.721c-0.414-0.013-0.907-0.622-1.473-1.825c-0.166-0.345-0.291-0.602-0.374-0.767
								c-0.138-0.277-0.207-0.554-0.207-0.83c1.162-0.525,2.013-0.644,2.552-0.353C70.251,164.931,70.43,165.615,70.251,166.693z"/>
							<path fill="#FFFFFF" stroke="#000000" stroke-width="1.6444" stroke-miterlimit="10" d="M67.967,179.744
								c1.093-0.982,1.778-1.313,2.054-0.995c0.291,0.304,0.18,1.286-0.332,2.947h-0.353
								C68.687,181.791,68.231,181.141,67.967,179.744z"/>
							<path fill="#FFFFFF" stroke="#000000" stroke-width="1.6444" stroke-miterlimit="10" d="M62.013,169.681
								c0.525-1.728,1.106-2.531,1.743-2.405c0.637,0.138,1.356,1.204,2.157,3.195c0.069,0.166,0.027,0.394-0.124,0.685
								C64.102,172.634,62.843,172.143,62.013,169.681z"/>
							<path fill="#FFFFFF" stroke="#000000" stroke-width="1.6444" stroke-miterlimit="10" d="M75.396,177.462
								c0.096,0.042,0.124,0.117,0.082,0.228c-0.027,0.069-0.09,0.18-0.186,0.333c-0.788,0.747-1.453,1.072-1.992,0.975
								c-0.539-0.096-0.982-0.608-1.328-1.535c0.525-1.148,1.086-1.721,1.681-1.721C74.247,175.742,74.828,176.314,75.396,177.462z"
								/>
							<path fill="#FFFFFF" stroke="#000000" stroke-width="1.6444" stroke-miterlimit="10" d="M74.939,192.442
								c1.051-3.361,2.427-3.403,4.129-0.125c0.083,0.098,0.042,0.292-0.124,0.581C77.187,194.406,75.852,194.253,74.939,192.442z"
								/>
							<path fill="#FFFFFF" stroke="#000000" stroke-width="1.6444" stroke-miterlimit="10" d="M36.41,138
								c1.024-1.148,1.777-1.507,2.262-1.079c0.47,0.414,0.705,1.653,0.705,3.713c0,0.181-0.228,0.333-0.685,0.457
								C37.6,141.202,36.839,140.171,36.41,138z"/>
						</g>
						<g>
							<polygon fill="#FFFFFF" stroke="#000000" stroke-width="1.6444" stroke-miterlimit="10" points="180.505,161.215 
								210.235,157.669 198.451,161.444 191.832,162.461 184.384,162.357 							"/>
							<path stroke="#000000" stroke-width="1.6444" stroke-miterlimit="10" d="M217.789,164.411l-6.365,0.388l-0.639,2.102
								l-2.956-2.946l-19.668-1.265l3.673-0.229l6.618-1.016l11.785-3.776l1.266,0.332c-0.623,0.525-1.397,1.037-2.324,1.535
								c-0.608,0.318-1.549,0.76-2.822,1.328c-0.47,0.374,1.819,1.175,6.868,2.406c0.457,0.098,1.135,0.255,2.032,0.478
								C216.792,164.149,217.636,164.369,217.789,164.411z"/>
							<path stroke="#000000" stroke-width="1.6444" stroke-miterlimit="10" d="M246.607,167.149
								c-1.108-1.621-15.816-1.439-15.816-1.439l-9.136-1.644c24.053-0.124,27.358-2.289,10.553-7.434
								c-6.584-0.719-13.486-0.263-20.706,1.369l-1.266-0.332l-29.731,3.546l3.88,1.141c-4.329-0.179-7.573,0.525-9.73,2.117
								c-2.159,1.576-3.181,3.997-3.072,7.262c-1.466-0.567-2.406-0.478-2.821,0.27c-0.401,0.719-0.374,2.151,0.082,4.295
								l-5.042-18.631c23.085-4.565,41.371-7.262,54.857-8.093c13.403-0.83,21.881,0.186,25.437,3.05
								c1.148,0.581,2.31,1.529,3.486,2.843c1.189,1.329,2.469,3.127,3.838,5.395c2.31,2.822,4.178,6.902,5.602,12.241
								c1.937,10.305,0.448,19.911-4.461,28.819c-1.507,3.03-3.721,6.004-6.64,8.923c-7.552,13.098-19.634,18.549-36.246,16.35
								c-7.87-2.725-13.86-8.022-17.968-15.894l-5.602-8.568l-2.282-4.004c1.066,1.535,1.826,2.6,2.282,3.195l0.125-0.103
								l-4.586-6.184l21.619,24.13c5.781-0.568,4.676-6.666-3.32-18.299c8.604,8.078,14.426,12.082,17.47,12.013
								c3.071-0.068,3.347-4.26,0.83-12.573l0.685-0.581l6.867,8.112c1.937,0.968,3.446,1.119,4.523,0.456
								c1.079-0.65,1.709-2.095,1.889-4.336c5.671-1.383,8.908-2.947,9.71-4.689c0.788-0.623,1.169-1.549,1.141-2.78
								c-0.027-1.204-0.443-2.794-1.245-4.773c-4.178-4.605-8.755-7.198-13.735-7.78c0,0-0.157-0.932,1.141-0.789
								c4.039-0.68,11.307,4.692,13.839,5.706c2.532,1.014,4.496-1.111,5.249-2.013c0.753-0.902,3.519-1.433-2.157-5.186
								c-5.676-3.754-15.665-6.183-15.665-6.183l1.14-0.913c3.458,0.512,6.342,0.719,8.653,0.623
								c2.268-0.098,5.872-1.411,5.872-1.411c0.968-0.748,1.487-1.709,1.556-2.884C247.775,170.324,247.715,168.772,246.607,167.149
								z M247.519,165.449c0.568-0.056,0.886-0.173,0.955-0.352c0.069-0.18-0.098-0.443-0.498-0.789
								c-0.788,0.554-1.204,0.913-1.245,1.079C246.675,165.539,246.938,165.56,247.519,165.449z M252.333,168.997
								c-2.74-0.677-3.271,0.16-1.597,2.51h0.788C252.603,171.147,252.874,170.311,252.333,168.997z M231.399,210.741
								c-0.166,0.429-0.207,0.733-0.124,0.913c0.082,0.152,0.276,0.228,0.581,0.228c1.909,0.345,3.437-0.38,4.586-2.178
								c0.068-0.152,0.103-0.304,0.103-0.456c-1.355-0.789-2.455-1.059-3.299-0.809C232.429,208.701,231.814,209.47,231.399,210.741
								z M254.035,175.512c-0.525-0.831-1.024-1.301-1.493-1.411c-0.499-0.112-1.024,0.166-1.576,0.83
								c-1.508,1.605-1.204,2.525,0.912,2.759c0.733,0.457,1.301,0.547,1.702,0.27c0.387-0.276,0.58-0.906,0.58-1.888
								C254.076,175.767,254.035,175.581,254.035,175.512z M251.752,190.865c-0.304,0.554-0.228,1.721,0.228,3.506l0.581-0.332
								c0.692-0.18,1.148-0.505,1.369-0.976c0.221-0.483,0.221-1.148,0-1.991C252.797,190.381,252.07,190.311,251.752,190.865z
								 M251.296,201.591c0.332-0.276,0.568-0.602,0.706-0.976c0.138-0.345,0.206-0.788,0.206-1.328
								c-1.342,0.18-2.157,0.456-2.447,0.83c-0.292,0.374-0.042,0.899,0.747,1.576C250.742,201.931,251.004,201.897,251.296,201.591
								z M245.238,209.932c0.58-0.069,0.954-0.221,1.119-0.456c0.166-0.263,0.139-0.644-0.082-1.141
								c-0.857-0.512-1.432-0.663-1.722-0.456c-0.291,0.22-0.291,0.795,0,1.721c0.042,0.069,0.124,0.124,0.25,0.166
								C244.982,209.808,245.126,209.862,245.238,209.932z M220.921,215.388c-0.498-0.152-1.162-0.138-1.991,0.042
								c-0.677,0.332-0.637,0.976,0.124,1.929c0.345,0.719,1.217,0.913,2.615,0.581c0.345-0.111,0.554-0.284,0.622-0.519
								c0.069-0.236,0.022-0.561-0.146-0.976C221.868,215.894,221.46,215.541,220.921,215.388z M210.007,222.63h0.685
								c0.65-0.345,1.078-0.823,1.286-1.432c0.207-0.623,0.202-1.446-0.021-2.47c-1.328,0.47-2.151,1.024-2.469,1.661
								C209.158,221.025,209.33,221.773,210.007,222.63z"/>
							<path fill="#FFFFFF" stroke="#000000" stroke-width="1.6444" stroke-miterlimit="10" d="M210.693,222.63h-0.685
								c-0.677-0.857-0.85-1.605-0.519-2.241c0.318-0.637,1.141-1.191,2.469-1.661c0.221,1.024,0.228,1.847,0.021,2.47
								C211.77,221.807,211.343,222.284,210.693,222.63z"/>
							<path fill="#FFFFFF" stroke="#000000" stroke-width="1.6444" stroke-miterlimit="10" d="M252.333,168.997
								c0.539,1.314,0.27,2.151-0.809,2.51h-0.788C249.062,169.157,249.594,168.319,252.333,168.997z"/>
							<path fill="#FFFFFF" stroke="#000000" stroke-width="1.6444" stroke-miterlimit="10" d="M254.035,175.512
								c0,0.068,0.042,0.254,0.124,0.56c0,0.982-0.194,1.612-0.58,1.888c-0.401,0.277-0.969,0.187-1.702-0.27
								c-2.116-0.235-2.421-1.154-0.912-2.759c0.554-0.663,1.078-0.941,1.576-0.83C253.012,174.212,253.509,174.682,254.035,175.512
								z"/>
							<path fill="#FFFFFF" stroke="#000000" stroke-width="1.6444" stroke-miterlimit="10" d="M246.275,208.335
								c0.221,0.498,0.249,0.878,0.082,1.141c-0.166,0.235-0.539,0.387-1.119,0.456c-0.112-0.069-0.255-0.124-0.435-0.166
								c-0.125-0.042-0.207-0.096-0.25-0.166c-0.291-0.927-0.291-1.501,0-1.721C244.843,207.671,245.418,207.823,246.275,208.335z"
								/>
							<path fill="#FFFFFF" stroke="#000000" stroke-width="1.6444" stroke-miterlimit="10" d="M236.544,209.248
								c0,0.152-0.034,0.304-0.103,0.456c-1.149,1.799-2.676,2.525-4.586,2.178c-0.305,0-0.499-0.076-0.581-0.228
								c-0.083-0.18-0.042-0.485,0.124-0.913c0.415-1.272,1.031-2.04,1.847-2.303C234.089,208.189,235.189,208.459,236.544,209.248z
								"/>
							<path fill="#FFFFFF" stroke="#000000" stroke-width="1.6444" stroke-miterlimit="10" d="M221.668,217.942
								c-1.397,0.332-2.268,0.138-2.615-0.581c-0.761-0.954-0.801-1.597-0.124-1.929c0.83-0.18,1.493-0.194,1.991-0.042
								c0.539,0.152,0.947,0.505,1.223,1.059c0.167,0.414,0.215,0.74,0.146,0.976C222.222,217.658,222.014,217.831,221.668,217.942z
								"/>
							<path fill="#FFFFFF" stroke="#000000" stroke-width="1.6444" stroke-miterlimit="10" d="M250.507,201.695
								c-0.788-0.677-1.037-1.204-0.747-1.576c0.291-0.374,1.106-0.65,2.447-0.83c0,0.539-0.068,0.982-0.206,1.328
								c-0.138,0.374-0.374,0.699-0.706,0.976C251.004,201.897,250.742,201.931,250.507,201.695z"/>
							<path fill="#FFFFFF" stroke="#000000" stroke-width="1.6444" stroke-miterlimit="10" d="M253.93,193.064
								c-0.221,0.47-0.677,0.796-1.369,0.976l-0.581,0.332c-0.456-1.785-0.532-2.952-0.228-3.506
								c0.318-0.554,1.045-0.483,2.178,0.207C254.153,191.916,254.153,192.581,253.93,193.064z"/>
							<polygon fill="#423E31" stroke="#000000" stroke-width="1.6444" stroke-miterlimit="10" points="184.384,162.357 
								190.691,162.461 188.16,162.69 							"/>
							<path fill="#FFFFFF" stroke="#000000" stroke-width="1.6444" stroke-miterlimit="10" d="M216.419,172.876l5.829,8.923
								l-2.862,2.281c-2.268,0.969-6.854,0.257-13.756-2.137c-6.832-2.351-16.087-6.404-27.761-12.159
								c0,0,27.812,15.64,29.353,17.762s8.981,10.094,11.023,13.361c2.042,3.267,2.241,12.504-0.83,12.573
								c-3.043,0.069-8.867-3.935-17.47-12.013l-26.869-28.01l-1.493-1.722c-0.111-3.265,0.913-5.685,3.072-7.262
								c2.157-1.591,5.401-2.296,9.73-2.117l23.445,1.598c0,0,2.378,4.694,4.586,6.971
								C214.623,173.204,216.419,172.876,216.419,172.876z"/>
							<path fill="#FFFFFF" stroke="#000000" stroke-width="1.6444" stroke-miterlimit="10" d="M209.219,186.363
								c6.543,3.929,12.22,7.151,17.034,9.668c4.371,2.282,7.65,3.791,9.835,4.524c1.425,0.235,2.594,0.31,3.506,0.228
								c0.996-0.112,1.77-0.415,2.324-0.913c-0.801,1.743-4.04,3.306-9.71,4.689c-0.18,2.241-0.809,3.686-1.889,4.336
								c-1.078,0.663-2.586,0.512-4.523-0.456l-6.867-8.112l-9.938-14.067C209.06,186.258,209.136,186.294,209.219,186.363z"/>
							<polygon fill="#383635" stroke="#000000" stroke-width="1.6444" stroke-miterlimit="10" points="208.991,186.258 
								218.93,200.326 218.245,200.907 208.057,186.611 208.534,185.802 							"/>
							<path stroke="#000000" stroke-width="1.6444" stroke-miterlimit="10" d="M228.078,184.537l-7.552,2.303
								c-3.514-1.383-7.512-1.729-11.992-1.037l-0.478,0.809c0,0-28.297-18.508-30.188-16.828
								c-1.891,1.681,20.929,9.807,27.761,12.159c6.902,2.394,11.488,3.106,13.756,2.137l2.862-2.281
								c0.305,0,0.499-0.035,0.581-0.104c0.056,0.401,0.25,0.761,0.581,1.079c0.331,0.318,0.782,0.567,1.347,0.747
								c1.494,0.456,2.982,0.533,4.461,0.228L228.078,184.537z"/>
							<path fill="#FFFFFF" stroke="#000000" stroke-width="1.6444" stroke-miterlimit="10" d="M241.814,192.317
								c0.801,1.979,1.217,3.569,1.245,4.773c0.027,1.231-0.353,2.157-1.141,2.78c-0.554,0.498-1.328,0.801-2.324,0.913
								c-0.912,0.082-2.081,0.007-3.506-0.228c-2.185-0.733-5.463-2.242-9.835-4.524c-4.814-2.517-10.491-5.739-17.034-9.668
								c-0.194-0.166-0.345-0.276-0.456-0.332c5.435,0.831,9.26,1.307,11.474,1.432c2.075,0.125,2.213-0.082,0.414-0.622h-0.124
								l7.552-2.303C233.059,185.118,237.637,187.711,241.814,192.317z"/>
							<path fill="#383635" stroke="#000000" stroke-width="1.6444" stroke-miterlimit="10" d="M208.763,186.03l-0.229-0.228
								c4.482-0.692,8.479-0.345,11.992,1.037h0.124c1.799,0.539,1.661,0.748-0.414,0.622
								C218.024,187.338,214.198,186.861,208.763,186.03z"/>
							<path stroke="#000000" stroke-width="1.6444" stroke-miterlimit="10" d="M171.582,171.735l1.493,1.722
								c1.12,6.958,3.977,14.35,8.57,22.179l2.177,3.091l2.282,4.004l-17.262-26.432c-0.456-2.144-0.483-3.576-0.082-4.295
								C169.176,171.258,170.116,171.169,171.582,171.735z"/>
							<path fill="#383635" stroke="#000000" stroke-width="1.6444" stroke-miterlimit="10" d="M199.945,201.467
								c-8.617-5.989-17.573-15.325-26.869-28.01L199.945,201.467z"/>
							<path fill="#484233" stroke="#000000" stroke-width="1.6444" stroke-miterlimit="10" d="M181.646,195.637l1.14,1.494
								c0.499,0.692,1.169,1.604,2.013,2.738c0.637,0.886,1.073,1.57,1.307,2.053c-0.456-0.594-1.217-1.66-2.282-3.195
								L181.646,195.637z"/>
							<path fill="#383635" stroke="#000000" stroke-width="1.6444" stroke-miterlimit="10" d="M186.232,201.82l-0.125,0.103
								c-0.206-0.423-0.565-1-1.078-1.732L186.232,201.82z"/>
							<path fill="#FFFFFF" stroke="#000000" stroke-width="1.6444" stroke-miterlimit="10" d="M199.945,201.467
								c7.995,11.632,9.101,17.732,3.32,18.299l-21.619-24.13c-4.592-7.83-7.449-15.222-8.57-22.179
								C182.372,186.142,191.328,195.478,199.945,201.467z"/>
							<path fill="#FFFFFF" stroke="#000000" stroke-width="1.6444" stroke-miterlimit="10" d="M211.502,158.001
								c7.22-1.632,14.122-2.088,20.706-1.369c11.922,0.492,15.028,8.896-6.533,7.8c-3.289-0.548-12.411-0.719-14.251-0.913
								c-5.048-1.231-4.655-0.012-5.068-2.655C205.942,158.22,210.879,158.525,211.502,158.001z"/>
							<path stroke="#000000" stroke-width="1.6444" stroke-miterlimit="10" d="M216.979,172.648l14.647,2.51l-1.14,0.913
								c-0.845-0.083-1.481-0.138-1.909-0.166c-0.748-0.056-1.411-0.035-1.992,0.063c-3.541-0.18-5.623,0.214-6.244,1.182
								c-0.637,0.969,0.193,2.484,2.49,4.545c-0.082,0.068-0.276,0.104-0.581,0.104l-5.829-8.923
								C216.571,172.724,216.757,172.648,216.979,172.648z"/>
							<path fill="#FFFFFF" stroke="#000000" stroke-width="1.6444" stroke-miterlimit="10" d="M230.487,176.072l15.665,6.183
								c1.949,2.282,2.669,4.011,2.157,5.186c-0.512,1.175-2.26,1.847-5.249,2.013l-13.839-5.706
								c-1.48,0.305-2.966,0.228-4.461-0.228c-0.567-0.18-1.016-0.429-1.347-0.747c-0.331-0.318-0.525-0.677-0.581-1.079
								c-2.297-2.061-3.127-3.576-2.49-4.545c0.622-0.968,2.703-1.362,6.244-1.182c0.581-0.098,1.245-0.117,1.992-0.063
								C229.006,175.934,229.641,175.989,230.487,176.072z"/>
						</g>
						<g>
							<path stroke="#000000" stroke-width="1.6444" stroke-linecap="round" stroke-miterlimit="10" d="M215.381,12.537
								c-1.024-0.345-1.591-0.297-1.701,0.145c-0.125,0.429,0.214,1.217,1.016,2.366c0.056,0.055,0.104,0.062,0.146,0.021
								c0.042-0.027,0.146-0.111,0.31-0.25C215.776,14.335,215.852,13.575,215.381,12.537z M209.779,15.857
								c-0.927,0-1.667,0.186-2.22,0.56c-0.58,0.388-0.982,0.997-1.204,1.826l2.74,3.444c-0.789,0.733-1.598,1.058-2.428,0.976
								c-0.801-0.083-1.667-0.56-2.593-1.432c-0.305-0.235-0.539-0.464-0.706-0.685c-8.217-1.037-12.443,3.306-12.677,13.03
								c9.338-3.873,18.141-7.456,26.412-10.748l-4.358-1.037c0.345-2.379-0.449-4.323-2.385-5.83c-0.083,0-0.194-0.013-0.332-0.042
								C209.89,15.878,209.807,15.857,209.779,15.857z M220.983,32.082l-1.473-3.196l-1.597,2.054l-4.814,0.457l1.95-1.369
								l-0.457-3.777c-3.042-0.995-5.027,0.186-5.955,3.548l0.913,1.598c-0.442-0.221-0.899-0.332-1.369-0.332
								c-3.831-0.457-7.019,0.414-9.565,2.613s-4.393,5.671-5.541,10.416l-2.615-3.091l-2.634,4.005l-0.913-4.005l-0.58-5.021
								l-1.017-1.598c-5.422,3.444-5.422,8.438,0,14.98l1.701-0.456l1.141,3.319c1.909,0.055,3.306-0.505,4.191-1.681
								c0.899-1.189,1.294-3.037,1.182-5.539l25.396-12.47L220.983,32.082z M222.02,40.547c-1.811-0.677-3.029-0.705-3.652-0.083
								c-0.622,0.594-0.698,1.847-0.228,3.756c0.069,0.332,0.374,0.822,0.913,1.473c0.941-0.056,1.673-0.464,2.199-1.225
								c0.483-0.719,0.816-1.798,0.995-3.237C222.248,41.204,222.173,40.976,222.02,40.547z M216.419,47.539
								c-4.827-1.909-9.178-2.061-13.05-0.457l-0.332,0.228l-6.868,7.199l-2.054,3.319l3.548-3.091l4.689-0.581
								c1.466,1.591,2.877,2.316,4.232,2.178c3.486-0.568,5.464-2.13,5.934-4.689l6.412-3.776
								C218.348,47.968,217.511,47.857,216.419,47.539z M172.785,42.477c0,0,19.977-32.898,23.052-35.085
								c3.075-2.187,2.398-2.872,6.39-3.672s8.679,0.291,11.971,3.278c3.292,2.973,5.941,7.87,7.946,14.689
								c3.279,11.384,4.918,22.822,4.918,34.318c0.18,3.029-0.014,6.95-0.581,11.764c8.645,18.092,13.258,36.737,13.839,55.936
								c0.041,0.65,0.026,1.376-0.042,2.178c-0.056,0.429-0.16,1.148-0.311,2.157l-0.456,1.826
								c-9.862,17.884-22.594,27.913-38.197,30.084c-12.656,1.674-22.069,3.05-28.239,4.13l-5.829-2.863
								c-1.149-0.912-2.406-2.137-3.776-3.673c-7.013-8.355-9.836-18.569-8.465-30.644c1.023-9.281,2.357-19.573,4.004-30.873
								c1.673-10.415,3.576-20.063,5.705-28.943c2.268-9.032,7.764-23.835,8.465-24.815 M200.629,11.624
								c-1.715-0.512-2.689-0.332-2.925,0.539c-0.236,0.872,0.249,2.483,1.451,4.835l4.337,1.245l-1.265-5.83h0.124l-0.124-0.104
								c0-0.124-0.056-0.255-0.166-0.394c-0.112-0.125-0.166-0.221-0.166-0.291c-0.18-0.055-0.388-0.082-0.623-0.082
								C201.025,11.542,200.81,11.569,200.629,11.624z M176.957,43.534c-2.918,1.507-3.645,2.878-2.178,4.109
								c0.055,0.111,0.172,0.172,0.352,0.186c0.166,0.014,0.277-0.007,0.332-0.062C177.123,46.827,177.62,45.416,176.957,43.534z
								 M195.858,67.997c-2.586,2.088-4.655,5.104-6.203,9.045c-1.716,4.537-2.248,9.185-1.598,13.942l9.71-4.565l14.876-8.465
								l-0.125-6.743l6.412-1.494c-2.047,0.345-4.225,0.069-6.536-0.83c-2.31-0.899-4.669-2.379-7.075-4.44
								C201.598,64.74,198.444,65.921,195.858,67.997z M192.06,60.112l-3.901-0.809l-1.369,2.863l-0.228,8.361
								c0,0.152,0.042,0.263,0.124,0.332c3.029,0.512,4.987-0.117,5.87-1.888C193.43,67.187,193.264,64.234,192.06,60.112z
								 M181.417,55.298c-0.677-0.069-1.175-0.104-1.493-0.104c-0.068,0.069-0.255,0.104-0.56,0.104l-1.598-0.104
								c-1.895,1.204-2.808,2.856-2.738,4.958c0.069,2.117,1.135,4.772,3.196,7.968l0.228-0.228l0.456,0.56
								c1.868-2.96,2.628-6.197,2.282-9.71c0.236-0.236,0.43-0.353,0.581-0.353c0.345-0.345,0.483-0.788,0.414-1.328
								C182.129,56.523,181.874,55.934,181.417,55.298z M178.326,76.358c-3.278,1.688-8.192,8.966-8.192,8.966
								c-0.913,3.209-2.631,4.873-3.241,6.698c-2.171,10.056-4.689,19.317-4.689,19.317c-2.738,6.999-4.108,14.627-4.108,22.885
								c-0.124,6.626,1.321,12.496,4.337,17.615c6.196-10.513,12.22-21.91,18.071-34.193c1.535-3.472,3.478-9.496,5.83-18.071
								c1.424-7.718,1.652-16.225,0.684-25.52C183.975,74.054,181.078,74.822,178.326,76.358z M196.065,89.616
								c-4.302,2.144-7.546,5.463-9.73,9.958c-1.743,7.096-2.698,11.328-2.863,12.698c4.785-0.485,13.326-3.002,25.624-7.552
								c3.071-1.646,6.424-3.783,10.063-6.411l0.685-4.689c-0.027-0.055-0.255-0.629-0.685-1.722
								c-1.535-3.928-3.403-6.563-5.602-7.905c-2.185-1.328-4.627-1.355-7.324-0.083l-0.456-1.037L196.065,89.616z M172.392,56.004
								c-2.241,2.351-3.196,5.166-2.862,8.445c0.026,0.027,0.068,0.132,0.124,0.311c0.056,0.207,0.124,0.373,0.207,0.498
								c2.78-2.061,3.734-4.841,2.862-8.34c-0.056-0.207-0.096-0.36-0.124-0.457C172.558,56.294,172.489,56.143,172.392,56.004z
								 M169.55,70.279c0.056-0.042,0.124-0.111,0.207-0.207c0.456-0.345,0.262-1.114-0.581-2.303
								c-1.355,1.135-2.027,1.916-2.013,2.344c0.014,0.429,0.685,0.526,2.013,0.291C169.328,70.403,169.452,70.361,169.55,70.279z
								 M166.583,72.851c-0.748,0.498-1.176,1.473-1.287,2.925c-0.082,0.166-0.007,0.435,0.228,0.809
								c-2.199,3.79-3.078,7.711-2.634,11.764c0,0.083,0.117,0.276,0.352,0.581l3.652-11.1l0.353,0.456
								c1.48-0.345,2.427-0.955,2.843-1.826c0.414-0.872,0.304-2.054-0.332-3.548C168.415,72.346,167.357,72.326,166.583,72.851z
								 M223.847,52.912c-1.549-0.055-2.316,0.228-2.304,0.851c0.015,0.636,0.823,1.612,2.428,2.925
								c0.056,0.111,0.125,0.166,0.207,0.166c0.096-0.027,0.255-0.124,0.478-0.291c0.4-0.345,0.539-0.83,0.414-1.453
								C224.932,54.489,224.524,53.756,223.847,52.912z M217.685,51.876c-2.421,1.203-2.656,2.344-0.706,3.424
								c1.965,1.273,2.427,0.74,1.39-1.598C218.258,53.093,218.03,52.483,217.685,51.876z M221.792,66.751
								c0.913-0.581,0.719-1.806-0.581-3.672c-1.701-0.055-2.731,0.194-3.09,0.748c-0.36,0.525-0.049,1.307,0.934,2.344
								C219.869,67.001,220.783,67.194,221.792,66.751z M219.945,77.894c0.152-0.027,0.423-0.125,0.809-0.291
								c0.872-0.732,0.913-1.84,0.124-3.319c-0.041-0.152-0.117-0.332-0.228-0.539c-0.082-0.166-0.124-0.291-0.124-0.374
								c-2.047-0.913-3.188-0.491-3.424,1.266c-0.374,1.591,0.277,2.655,1.95,3.196C219.357,77.928,219.656,77.948,219.945,77.894z
								 M221.357,81.627c-0.58,0.608-0.588,1.825-0.021,3.652c0.166,0.706,0.429,1.225,0.788,1.556
								c0.345,0.319,0.733,0.443,1.163,0.374c0.87-0.525,1.459-1.135,1.763-1.826c0.318-0.747,0.339-1.625,0.062-2.634
								c-0.098-0.152-0.173-0.276-0.228-0.374c-0.111-0.166-0.187-0.345-0.228-0.539C223.051,81.102,221.952,81.033,221.357,81.627z
								 M229.219,87.79c0.124,0.056,0.228,0.069,0.311,0.042c0.096-0.027,0.221-0.117,0.374-0.27
								c0.898-0.677,0.67-1.978-0.685-3.901C226.233,83.661,226.233,85.037,229.219,87.79z M226.834,74.179
								c-1.604,0-2.413,0.324-2.427,0.975c-0.014,0.65,0.754,1.66,2.303,3.029c0.098,0.042,0.202,0.048,0.311,0.021
								c0.069-0.014,0.194-0.062,0.374-0.145C228.224,77.242,228.038,75.95,226.834,74.179z M228.888,96.712
								c1.079-0.112,1.736-0.464,1.971-1.058c0.236-0.581,0.069-1.446-0.498-2.594c-1.66-0.748-2.656-0.851-2.988-0.311
								c-0.345,0.554-0.034,1.799,0.935,3.735C228.391,96.635,228.584,96.712,228.888,96.712z M227.291,108.351
								c0.068,0.042,0.221,0.09,0.456,0.146c2.061-0.125,2.628-1.12,1.701-2.988c-1.189-0.387-1.985-0.345-2.385,0.124
								c-0.388,0.47-0.353,1.307,0.104,2.51C227.124,108.24,227.166,108.31,227.291,108.351z M234.366,106.421
								c0.291-0.166,0.387-0.457,0.291-0.872c-0.111-0.414-0.394-0.885-0.851-1.411c-1.424,0.18-2.117,0.47-2.075,0.87
								c0.056,0.415,0.857,0.961,2.406,1.639L234.366,106.421z M222.705,97.168c0.982,0.567,1.605,0.692,1.867,0.374
								c0.263-0.318,0.138-1.051-0.374-2.199c-0.138-0.387-0.242-0.671-0.31-0.851c-0.139-0.305-0.305-0.554-0.498-0.747
								c-1.163,0.525-1.82,1.079-1.972,1.66C221.267,96.027,221.696,96.615,222.705,97.168z M209.095,104.72
								c-15.589,7.857-26.184,15.443-31.786,22.761c-5.367,6.985-8.721,15.332-10.063,25.042c6.113,0.886,17.055,0.049,32.822-2.51
								c15.645-2.503,25.555-12.034,29.732-28.591l-0.353-6.992l-4.232-7.552l-2.968-2.615
								C217.906,103.613,213.521,103.765,209.095,104.72z M235.86,120.841c0,0.152,0.152,0.228,0.456,0.228
								c2.297-0.235,3.098-1.342,2.407-3.319c-1.619-0.691-2.671-0.775-3.154-0.249C235.084,118.026,235.182,119.14,235.86,120.841z
								"/>
							<path fill="#FFFFFF" stroke="#000000" stroke-width="1.6444" stroke-miterlimit="10" d="M167.847,79.197l-7.621,8.584
								l1.912-2.566c4.881-9.134,4.383-9.514,3.386-8.629c-0.235-0.374-0.31-0.644-0.228-0.809c0.111-1.453,0.539-2.427,1.287-2.925
								c0.774-0.525,1.832-0.504,3.175,0.062c0.636,1.494,0.747,2.676,0.332,3.548C169.674,77.332,169.327,78.852,167.847,79.197z"
								/>
							<path fill="#FFFFFF" stroke="#000000" stroke-width="1.6444" stroke-miterlimit="10" d="M202.227,12.308v0.104l1.265,5.83
								l-4.337-1.245c0-0.166-0.082-0.318-0.249-0.457c-0.775-3.042-0.202-4.682,1.721-4.917c0.181-0.055,0.395-0.082,0.644-0.082
								c0.236,0,0.443,0.027,0.623,0.082c0,0.069,0.055,0.166,0.166,0.291C202.172,12.053,202.227,12.184,202.227,12.308z"/>
							<path fill="#FFFFFF" stroke="#000000" stroke-width="1.6444" stroke-miterlimit="10" d="M198.887,16.48
								c-1.006-2.072-1.4-3.51-1.183-4.316c0.236-0.872,1.21-1.051,2.925-0.539C198.721,11.858,198.14,13.476,198.887,16.48z"/>
							<polygon fill="#FFFFFF" stroke="#000000" stroke-width="1.6444" stroke-miterlimit="10" points="202.227,12.308 
								202.352,12.413 202.227,12.413 							"/>
							<path fill="#FFFFFF" stroke="#000000" stroke-width="1.6444" stroke-miterlimit="10" d="M209.095,21.687l-2.74-3.444
								c0.221-0.83,0.623-1.438,1.204-1.826c0.554-0.374,1.294-0.56,2.22-0.56c0.027,0,0.111,0.021,0.25,0.062
								c0.138,0.027,0.249,0.042,0.332,0.042c1.936,1.507,2.731,3.451,2.385,5.83L209.095,21.687z"/>
							<path fill="#FFFFFF" stroke="#000000" stroke-width="1.6444" stroke-miterlimit="10" d="M217.104,22.828
								c-8.271,3.292-24.946,14.458-26.412,10.748s4.461-14.067,12.677-13.03c0.166,0.221,0.4,0.449,0.706,0.685
								c0.926,0.872,1.791,1.348,2.593,1.432c0.83,0.083,1.639-0.242,2.428-0.976l3.651,0.104L217.104,22.828z"/>
							<path fill="#FFFFFF" stroke="#000000" stroke-width="1.6444" stroke-miterlimit="10" d="M215.381,12.537
								c0.47,1.037,0.394,1.798-0.229,2.282c-0.164,0.138-0.269,0.221-0.31,0.25c-0.042,0.042-0.09,0.034-0.146-0.021
								c-0.801-1.148-1.141-1.937-1.016-2.366C213.791,12.239,214.358,12.191,215.381,12.537z"/>
							<path fill="#FFFFFF" stroke="#000000" stroke-width="1.6444" stroke-miterlimit="10" d="M218.884,33.199l-25.396,12.47
								c-0.179-0.263-0.332-0.568-0.456-0.913c1.148-4.745,2.994-8.217,5.541-10.416c2.544-2.199,9.565-2.613,9.565-2.613
								s1.231,1.975,1.368,0.331h3.548l4.814-0.457L218.884,33.199z"/>
							<path fill="#FFFFFF" stroke="#000000" stroke-width="1.6444" stroke-miterlimit="10" d="M209.551,31.397l-0.913-1.598
								c0.927-3.361,2.912-4.544,5.955-3.548l0.457,3.777l-1.95,1.369H209.551z"/>
							<polygon fill="#FFFFFF" stroke="#000000" stroke-width="1.6444" stroke-miterlimit="10" points="218.93,32.538 
								217.913,30.941 219.51,28.886 220.983,32.082 							"/>
							<path fill="#FFFFFF" stroke="#000000" stroke-width="1.6444" stroke-miterlimit="10" d="M188.646,46.203
								c0,0,0.305-3.594,2.634-4.005c2.33-0.411,2.615,3.091,2.615,3.091c0.124,0.345,0.277,0.65,0.456,0.913
								c0.112,2.504-0.283,4.35-1.182,5.539c-0.886,1.175-1.287,2.628-4.191,1.681s-1.141-3.319-1.141-3.319L188.646,46.203z"/>
							<path fill="#FFFFFF" stroke="#000000" stroke-width="1.6444" stroke-miterlimit="10" d="M222.02,40.547
								c0.152,0.429,0.228,0.658,0.228,0.685c-0.18,1.438-0.512,2.517-0.995,3.237c-0.525,0.761-1.257,1.169-2.199,1.225
								c-0.539-0.65-0.844-1.141-0.913-1.473c-0.47-1.909-0.394-3.161,0.228-3.756C218.991,39.842,220.209,39.869,222.02,40.547z"/>
							<path fill="#FFFFFF" stroke="#000000" stroke-width="1.6444" stroke-miterlimit="10" d="M218.369,53.701
								c1.037,2.337,0.574,2.87-1.39,1.598c-1.95-1.079-1.715-2.22,0.706-3.424C218.03,52.483,218.258,53.093,218.369,53.701z"/>
							<path fill="#FFFFFF" stroke="#000000" stroke-width="1.6444" stroke-miterlimit="10" d="M218.93,47.871l-6.412,3.776
								c-1.175-2.227-2.697-3.672-4.564-4.337c-1.383-0.747-2.912-0.822-4.586-0.228c3.872-1.604,8.223-1.453,13.05,0.457
								C217.511,47.857,218.348,47.968,218.93,47.871z"/>
							<path fill="#FFFFFF" stroke="#000000" stroke-width="1.6444" stroke-miterlimit="10" d="M196.169,54.51l4.46-4.814
								l1.722,4.461l-4.689,0.581c-0.166,0.111-0.36,0.173-0.58,0.186c-0.195,0.014-0.382-0.014-0.561-0.083
								c-0.083,0-0.16-0.027-0.228-0.083C196.21,54.69,196.169,54.607,196.169,54.51z"/>
							<path fill="#FFFFFF" stroke="#000000" stroke-width="1.6444" stroke-miterlimit="10" d="M196.169,54.51
								c0,0.096,0.041,0.18,0.124,0.249c0.068,0.056,0.145,0.083,0.228,0.083c0.18,0.069,0.366,0.096,0.561,0.083
								c0.22-0.014,0.414-0.076,0.58-0.186l-3.548,3.091L196.169,54.51z"/>
							<path fill="#FFFFFF" stroke="#000000" stroke-width="1.6444" stroke-miterlimit="10" d="M207.954,47.311
								c1.867,0.664,3.389,2.109,4.564,4.337c-0.47,2.559-2.448,4.122-5.934,4.689c-1.355,0.138-2.766-0.588-4.232-2.178
								l-1.722-4.461l2.407-2.385l0.332-0.228C205.042,46.488,206.571,46.563,207.954,47.311z"/>
							<path fill="#FFFFFF" stroke="#000000" stroke-width="1.6444" stroke-miterlimit="10" d="M169.861,65.257
								c-0.083-0.124-0.152-0.291-0.207-0.498c-0.056-0.181-0.098-0.284-0.124-0.311c-0.333-3.278,0.622-6.093,2.862-8.445
								c0.098,0.138,0.166,0.291,0.207,0.456c0.027,0.096,0.068,0.25,0.124,0.457C173.595,60.417,172.641,63.196,169.861,65.257z"/>
							<path fill="#FFFFFF" stroke="#000000" stroke-width="1.6444" stroke-miterlimit="10" d="M179.924,55.194
								c0.318,0,0.816,0.035,1.493,0.104c0.457,0.636,0.713,1.225,0.767,1.764c0.069,0.539-0.068,0.982-0.414,1.328
								c-0.152,0-0.345,0.117-0.581,0.353l-1.825-3.444C179.667,55.298,179.855,55.263,179.924,55.194z"/>
							<path fill="#FFFFFF" stroke="#000000" stroke-width="1.6444" stroke-miterlimit="10" d="M177.765,55.194l1.598,0.104
								l1.825,3.444c0.345,3.514-0.414,6.75-2.282,9.71l-0.456-0.56c-0.388-1.064-0.616-1.826-0.685-2.282
								C177.073,61.903,177.073,58.432,177.765,55.194z"/>
							<path fill="#FFFFFF" stroke="#000000" stroke-width="1.6444" stroke-miterlimit="10" d="M178.45,67.892l-0.228,0.228
								c-2.061-3.196-3.127-5.851-3.196-7.968c-0.068-2.103,0.844-3.756,2.738-4.958c-0.692,3.237-0.692,6.708,0,10.416
								C177.834,66.066,178.062,66.828,178.45,67.892z"/>
							<path fill="#FFFFFF" stroke="#000000" stroke-width="1.6444" stroke-miterlimit="10" d="M174.778,47.643
								c-1.467-1.231-0.74-2.601,2.178-4.109c0.663,1.881,0.166,3.292-1.494,4.233c-0.055,0.055-0.166,0.076-0.332,0.062
								C174.95,47.815,174.833,47.753,174.778,47.643z"/>
							<path fill="#FFFFFF" stroke="#000000" stroke-width="1.6444" stroke-miterlimit="10" d="M192.558,68.971
								c-0.885,1.77-2.843,2.4-5.87,1.888c-0.082-0.069-0.124-0.18-0.124-0.332l0.228-8.361l1.369-2.863l3.901,0.809
								C193.264,64.234,193.43,67.187,192.558,68.971z"/>
							<path fill="#FFFFFF" stroke="#000000" stroke-width="1.6444" stroke-miterlimit="10" d="M187.385,74.512
								c0.968,9.295,1.359,23.698-0.684,25.52c-2.043,1.822-0.855,13.698-5.24,18.083s-15.762,34.287-18.661,34.182
								c-2.899-0.105-4.461-10.989-4.337-17.615c0-8.257,1.986-12.995,1.986-12.995s4.638-19.15,6.81-29.207
								c0.61-1.825,0.687-5.202,2.282-7.552c1.595-2.35,5.872-6.425,9.151-8.112C181.444,75.279,184.342,74.512,187.385,74.512z"/>
							<path fill="#FFFFFF" stroke="#000000" stroke-width="1.6444" stroke-miterlimit="10" d="M206.72,84.364
								c2.697-1.273,5.139-1.244,7.324,0.083c2.2,1.342,4.067,3.976,5.602,7.905c0.306,1.459,0.608,1.528,0.685,1.722
								s0.776,2.878-0.685,4.689c-1.461,1.811-7.572,3.668-10.415,5.191c-12.15,5.755-20.487,8.288-25.272,8.772
								c0.166-1.37-1.822-4.017,2.863-12.698s5.429-7.814,9.73-9.958L206.72,84.364z"/>
							<polygon fill="#383635" stroke="#000000" stroke-width="1.6444" stroke-miterlimit="10" points="206.232,83.91 
								196.065,89.616 205.776,82.873 							"/>
							<path fill="#FFFFFF" stroke="#000000" stroke-width="1.6444" stroke-miterlimit="10" d="M222.248,104.263
								c2.057,0.057,2.968,2.615,2.968,2.615s3.802,4.963,4.232,7.552c0.43,2.589,0.353,6.992,0.353,6.992
								c-4.178,16.557-14.088,26.087-29.732,28.591c-15.769,2.56-26.709,3.396-32.822,2.51c1.342-9.71,4.695-18.058,10.063-25.042
								c5.602-7.318,26.534-19.802,31.786-22.761C214.347,101.761,217.177,103.932,222.248,104.263z"/>
							<path fill="#FFFFFF" stroke="#000000" stroke-width="1.6444" stroke-miterlimit="10" d="M169.757,70.071
								c-0.083,0.096-0.152,0.166-0.207,0.207c-0.098,0.083-0.221,0.124-0.374,0.124c-1.328,0.236-1.998,0.138-2.013-0.291
								c-0.014-0.429,0.658-1.21,2.013-2.344C170.019,68.958,170.213,69.725,169.757,70.071z"/>
							<path fill="#FFFFFF" stroke="#000000" stroke-width="1.6444" stroke-miterlimit="10" d="M205.319,64.448
								c2.406,2.061,4.765,3.541,7.075,4.44c2.31,0.899,4.489,1.175,6.536,0.83c0,0-3.948,0.087-6.412,1.494
								c-2.464,1.408,0.797,4.588,0.125,6.743c-0.672,2.155-7.325,4.233-7.325,4.233l-3.03,1.851l-4.522,2.381l-9.71,4.565
								c-0.65-4.758-0.117-9.406,1.598-13.942c1.548-3.942,3.617-6.957,6.203-9.045C198.444,65.921,201.598,64.74,205.319,64.448z"
								/>
							<path fill="#FFFFFF" stroke="#000000" stroke-width="1.6444" stroke-miterlimit="10" d="M220.755,77.602
								c-0.387,0.166-0.658,0.263-0.809,0.291c-0.291,0.055-0.588,0.034-0.891-0.062c-1.673-0.54-2.324-1.605-1.95-3.196
								c0.236-1.757,1.377-2.179,3.424-1.266c0,0.083,0.042,0.207,0.124,0.374c0.111,0.207,0.187,0.387,0.228,0.539
								C221.668,75.764,221.627,76.87,220.755,77.602z"/>
							<path fill="#FFFFFF" stroke="#000000" stroke-width="1.6444" stroke-miterlimit="10" d="M221.211,63.079
								c1.301,1.867,1.494,3.091,0.581,3.672c-1.01,0.442-1.923,0.249-2.738-0.581c-0.982-1.037-1.294-1.819-0.934-2.344
								C218.48,63.273,219.51,63.024,221.211,63.079z"/>
							<path fill="#FFFFFF" stroke="#000000" stroke-width="1.6444" stroke-miterlimit="10" d="M227.394,78.059
								c-0.18,0.083-0.304,0.132-0.374,0.145c-0.111,0.027-0.214,0.021-0.311-0.021c-1.549-1.369-2.316-2.379-2.303-3.029
								c0.014-0.65,0.823-0.975,2.427-0.975C228.038,75.95,228.224,77.242,227.394,78.059z"/>
							<path fill="#FFFFFF" stroke="#000000" stroke-width="1.6444" stroke-miterlimit="10" d="M229.905,87.562
								c-0.152,0.152-0.277,0.242-0.374,0.27c-0.083,0.027-0.187,0.014-0.311-0.042c-2.987-2.753-2.987-4.129,0-4.129
								C230.576,85.584,230.804,86.884,229.905,87.562z"/>
							<path fill="#FFFFFF" stroke="#000000" stroke-width="1.6444" stroke-miterlimit="10" d="M221.336,85.279
								c-0.568-1.826-0.56-3.042,0.021-3.652c0.595-0.594,1.695-0.525,3.3,0.207c0.041,0.193,0.117,0.373,0.228,0.539
								c0.055,0.096,0.13,0.221,0.228,0.374c0.276,1.01,0.255,1.888-0.062,2.634c-0.304,0.692-0.892,1.3-1.763,1.826
								c-0.43,0.069-0.817-0.055-1.163-0.374C221.765,86.504,221.502,85.984,221.336,85.279z"/>
							<path fill="#FFFFFF" stroke="#000000" stroke-width="1.6444" stroke-miterlimit="10" d="M222.705,97.168
								c-1.01-0.553-1.438-1.141-1.287-1.764c0.152-0.581,0.809-1.134,1.972-1.66c0.193,0.193,0.358,0.442,0.498,0.747
								c0.068,0.18,0.172,0.464,0.31,0.851c0.512,1.148,0.637,1.881,0.374,2.199C224.31,97.859,223.688,97.735,222.705,97.168z"/>
							<path fill="#FFFFFF" stroke="#000000" stroke-width="1.6444" stroke-miterlimit="10" d="M233.805,104.139
								c0.457,0.525,0.741,0.995,0.851,1.411c0.096,0.414,0,0.706-0.291,0.872l-0.229,0.228c-1.549-0.677-2.352-1.223-2.406-1.639
								C231.688,104.61,232.381,104.319,233.805,104.139z"/>
							<path fill="#FFFFFF" stroke="#000000" stroke-width="1.6444" stroke-miterlimit="10" d="M230.361,93.06
								c0.568,1.148,0.733,2.012,0.498,2.594c-0.235,0.594-0.891,0.947-1.971,1.058c-0.304,0-0.498-0.077-0.58-0.228
								c-0.969-1.936-1.28-3.181-0.935-3.735C227.706,92.21,228.702,92.313,230.361,93.06z"/>
							<path fill="#FFFFFF" stroke="#000000" stroke-width="1.6444" stroke-miterlimit="10" d="M227.747,108.497
								c-0.235-0.056-0.388-0.104-0.456-0.146c-0.124-0.042-0.166-0.111-0.124-0.207c-0.457-1.204-0.491-2.04-0.104-2.51
								c0.4-0.47,1.196-0.511,2.385-0.124C230.375,107.375,229.808,108.372,227.747,108.497z"/>
							<path fill="#FFFFFF" stroke="#000000" stroke-width="1.6444" stroke-miterlimit="10" d="M236.316,121.069
								c-0.304,0-0.456-0.076-0.456-0.228c-0.677-1.701-0.775-2.815-0.29-3.34c0.483-0.525,1.535-0.442,3.154,0.249
								C239.414,119.728,238.612,120.834,236.316,121.069z"/>
							<path fill="#FFFFFF" stroke="#000000" stroke-width="1.6444" stroke-miterlimit="10" d="M223.847,52.912
								c0.677,0.844,1.085,1.578,1.223,2.199c0.125,0.623-0.014,1.106-0.414,1.453c-0.221,0.167-0.382,0.263-0.478,0.291
								c-0.082,0-0.152-0.056-0.207-0.166c-1.605-1.314-2.413-2.289-2.428-2.925C221.53,53.141,222.298,52.857,223.847,52.912z"/>
							<path fill="#FFFFFF" stroke="#000000" stroke-width="1.6444" stroke-miterlimit="10" d="M191.251,14.488l0.685,2.51
								c-1.024,1.148-1.901,1.072-2.634-0.228c-0.056-0.069-0.056-0.125,0-0.166c0.042-0.042,0.124-0.062,0.25-0.062L191.251,14.488
								z"/>
						</g>
					</g>
				</g>
			</g>
		</g>
	</g>
</g>
<path fill="none" stroke="#000000" stroke-width="1.6444" stroke-miterlimit="10" d="M146.059,137.436
	c-0.396-2.564-1.307-5.668-2.585-7.918c-1.193-2.099-3.281-3.793-5.303-5.043c-1.608-0.993-3.882-1.59-5.266-2.799"/>
<circle cx="132.561" cy="121.335" r="1.302"/>
<path fill="none" stroke="#000000" stroke-width="1.6444" stroke-miterlimit="10" d="M149.211,113.318
	c-0.557,2.583-0.613,5.73,0.485,8.081c1.152,2.469,0.368,10.887,1.708,13.16"/>
<circle cx="149.211" cy="113.318" r="1.438"/>
</svg>
