<?xml version="1.0" encoding="utf-8"?>
<!-- Generator: Adobe Illustrator 17.0.1, SVG Export Plug-In . SVG Version: 6.00 Build 0)  -->
<!DOCTYPE svg PUBLIC "-//W3C//DTD SVG 1.1//EN" "http://www.w3.org/Graphics/SVG/1.1/DTD/svg11.dtd">
<svg version="1.1" id="Layer_1" xmlns="http://www.w3.org/2000/svg" xmlns:xlink="http://www.w3.org/1999/xlink" x="0px" y="0px"
	 width="243.124px" height="258.34px" viewBox="14.385 3.573 243.124 258.34" enable-background="new 14.385 3.573 243.124 258.34"
	 xml:space="preserve">
<g>
	<g id="Layer_1_1_">
		<g>
			<g id="Layer_1_3_">
				<g>
					<g>
						<path fill="#383535" stroke="#000000" stroke-width="1.5" stroke-miterlimit="10" d="M44.943,42.448
							c0.082,0.081,0.25,0.121,0.506,0.121c0.499,0,0.749-0.209,0.749-0.627s-0.209-0.627-0.627-0.627
							c-0.499,0-0.749,0.209-0.749,0.627C44.822,42.185,44.863,42.354,44.943,42.448z M46.198,40.464
							c0.31,0,0.512,0.243,0.607,0.729c-0.324,0.998-0.566,1.66-0.729,1.983l-1.74,2.226c-0.082-0.161-0.121-0.573-0.121-1.235
							c0-0.957,0.121-1.74,0.364-2.348c0.176-0.485,0.412-0.85,0.709-1.092C45.571,40.484,45.874,40.397,46.198,40.464z"/>
						<path fill="#383535" stroke="#000000" stroke-width="1.5" stroke-miterlimit="10" d="M73.659,49.327
							c0.161-0.121,0.243-0.276,0.243-0.465c0-0.176-0.074-0.324-0.223-0.445c-0.148-0.108-0.324-0.162-0.526-0.162
							c-0.486,0-0.729,0.202-0.729,0.607c0,0.189,0.053,0.345,0.161,0.465c0.108,0.108,0.256,0.162,0.445,0.162
							C73.287,49.49,73.497,49.436,73.659,49.327z M73.295,47.022c0.445,0,0.729,0.243,0.85,0.729l0.141,1.113
							c-0.081,0.594-0.161,1.046-0.243,1.356c-0.121,0.445-0.29,0.864-0.506,1.254c-0.701,0.972-1.2,1.504-1.497,1.599l-0.486-1.356
							c-0.243-0.486-0.364-0.938-0.364-1.356c0-0.607,0.121-1.227,0.364-1.862C71.919,47.513,72.499,47.022,73.295,47.022z"/>
						
							<path fill="none" stroke="#000000" stroke-width="1.5" stroke-linecap="round" stroke-linejoin="round" stroke-miterlimit="3" d="
							M186.599,159.596c-2.672-1.863-4.735-3.258-6.193-4.19c-2.387-1.215-6.556-1.969-12.505-2.266
							c-7.528-0.379-14.355,0.498-20.48,2.63c-7.986,2.752-13.916,7.427-17.788,14.023c-4.735,8.068-6.205,18.732-4.412,31.995
							v2.974c0,0.244,0.046,0.493,0.141,0.75c0.041,0.067,0.081,0.202,0.121,0.404c0.041,0.161,0.082,0.263,0.121,0.303
							c0.013,0.041,0.054,0.156,0.121,0.345c0.041,0.108,0.081,0.161,0.121,0.161c0.162,0.404,0.371,0.775,0.627,1.113"/>
						
							<line fill="none" stroke="#000000" stroke-width="1.5" stroke-linecap="round" stroke-linejoin="round" stroke-miterlimit="3" x1="217.277" y1="198.329" x2="217.398" y2="203.024"/>
						
							<path fill="none" stroke="#000000" stroke-width="1.5" stroke-linecap="round" stroke-linejoin="round" stroke-miterlimit="3" d="
							M188.703,225.769l3.704-0.364c3.44-0.486,6.569-1.444,9.39-2.874c1.417-0.755,2.476-1.315,3.177-1.68
							c1.201-0.607,2.334-1.066,3.4-1.376l1.356-0.506"/>
						
							<path fill="none" stroke="#000000" stroke-width="1.5" stroke-linecap="round" stroke-linejoin="round" stroke-miterlimit="3" d="
							M188.703,225.769l-7.912,0.87l-5.201,0.749c-0.997,0.161-2.279,0.243-3.844,0.243c-4.277,0.269-8.398,0.189-12.365-0.243
							c-12.114,0-20.816,0.161-26.105,0.485c-3.115,0.121-4.809,0.251-5.079,0.385l-5.06,0.85c-0.297-0.095-0.647-0.168-1.052-0.223
							c-0.552-0.081-0.864-0.127-0.931-0.141l-3.096-0.485c0.068-0.135,0.054-0.23-0.041-0.284
							c-0.081-0.067-0.276-0.102-0.586-0.102l-1.113,0.87c-0.486,0.243-0.857,0.412-1.113,0.506
							c-0.094,0.095-0.215,0.169-0.364,0.223l-0.364,0.141l-0.141,0.121h-0.486l-3.967,0.749c-3.737,0.473-6.625,0.263-8.661-0.627
							l-0.729-0.364"/>
						
							<path fill="none" stroke="#000000" stroke-width="1.5" stroke-linecap="round" stroke-linejoin="round" stroke-miterlimit="3" d="
							M233.122,233.197c-0.931-2.389-1.841-4.244-2.732-5.566c-0.701-1.026-1.565-1.977-2.591-2.853
							c-2.832-1.754-4.445-2.779-4.837-3.075c-0.053,0-0.108-0.021-0.161-0.061l-0.081-0.062l-1.476-0.384
							c-1.646-0.58-4.163-1.322-7.549-2.226c-0.512-0.244-1.834-0.244-3.967,0"/>
						
							<path fill="none" stroke="#000000" stroke-width="1.5" stroke-linecap="round" stroke-linejoin="round" stroke-miterlimit="3" d="
							M129.552,250.276c0-0.808,0.216-1.511,0.647-2.104c0.419-0.607,1.033-1.059,1.842-1.357c3.318-1.146,5.376-1.847,6.172-2.104
							c0.445-0.338,1.356-0.709,2.732-1.113c0.499-0.162,1.492-0.452,2.975-0.87c2.238-0.756,7.063-1.99,14.469-3.704
							c1.12-0.284,2.934-0.574,5.444-0.87c7.177-0.864,17.571-0.864,31.184,0c2.698,0.391,6.326,0.473,10.887,0.243
							c1.066,0,2.468-0.04,4.21-0.121c0.823-0.04,1.976-0.087,3.46-0.141c1.256-0.054,2.287-0.128,3.098-0.222h1.356l11.25-1.256
							c1.066-0.391,1.808-0.803,2.226-1.235c0.742-0.472,1.612-1.335,2.611-2.59"/>
						
							<line fill="none" stroke="#000000" stroke-width="1.5" stroke-linecap="round" stroke-linejoin="round" stroke-miterlimit="3" x1="222.962" y1="200.677" x2="222.842" y2="200.677"/>
						
							<polygon fill="none" stroke="#000000" stroke-width="1.5" stroke-linecap="round" stroke-linejoin="round" stroke-miterlimit="3" points="
							234.113,232.832 234.235,232.447 234.235,232.204 						"/>
						
							<path fill="none" stroke="#000000" stroke-width="1.5" stroke-linecap="round" stroke-linejoin="round" stroke-miterlimit="3" d="
							M217.277,198.329l5.565,2.348c4.384,2.092,10.004,5.659,16.857,10.705c7.61,5.598,12.135,9.822,13.579,12.668
							c1.942,3.614,2.974,6.792,3.096,9.531c0.256,2.132,0.384,5.18,0.384,9.147c-0.269,2.779-2.665,6.617-7.184,11.514
							c-2.171,2.361-6.866,3.986-14.084,4.878c-7.298,0.903-17.039,1.045-29.222,0.425"/>
						
							<path fill="none" stroke="#000000" stroke-width="1.5" stroke-linecap="round" stroke-linejoin="round" stroke-miterlimit="3" d="
							M185.728,258.067l8.055,0.991c3.225,0.108,6.766,0.026,10.624-0.243l1.74-0.243"/>
						
							<line fill="none" stroke="#000000" stroke-width="1.5" stroke-linecap="round" stroke-linejoin="round" stroke-miterlimit="3" x1="176.197" y1="257.945" x2="184.129" y2="257.945"/>
						
							<polyline fill="none" stroke="#000000" stroke-width="1.5" stroke-linecap="round" stroke-linejoin="round" stroke-miterlimit="3" points="
							184.129,257.945 184.999,258.067 185.728,258.067 						"/>
						
							<line fill="none" stroke="#000000" stroke-width="1.5" stroke-linecap="round" stroke-linejoin="round" stroke-miterlimit="3" x1="184.129" y1="257.945" x2="185.728" y2="258.067"/>
						
							<path fill="none" stroke="#000000" stroke-width="1.5" stroke-linecap="round" stroke-linejoin="round" stroke-miterlimit="3" d="
							M42.596,7.054c1.902,1.133,3.757,3.4,5.566,6.799c0.081,0.068,0.33,0.607,0.749,1.619c1.12,2.361,1.74,4.668,1.862,6.921v0.87
							l-0.243,1.113"/>
						
							<path fill="none" stroke="#000000" stroke-width="1.5" stroke-linecap="round" stroke-linejoin="round" stroke-miterlimit="3" d="
							M37.031,23.143c-0.499-2.415-0.749-4.189-0.749-5.323v-0.506c-0.081-0.661-0.121-1.235-0.121-1.72
							c-0.364-3.116-0.647-5.343-0.85-6.678c0-0.338-0.047-0.547-0.141-0.627c0.136-1.309,0.466-2.3,0.992-2.974l0.384-0.364
							c0.553-0.419,1.497-0.627,2.832-0.627h0.121c1.7,0,3.683,1.072,5.949,3.218c0.877,0.716,1.701,1.532,2.469,2.448
							c0.459,0.527,1.039,1.282,1.74,2.267c0.647,0.971,1.14,1.834,1.478,2.591c0,0.243,0.04,0.452,0.121,0.627
							c0.594,0.998,1.173,1.78,1.74,2.347l0.607,1.113c0.041,0.041,0.121,0.161,0.243,0.364c0.161,0.269,0.33,0.52,0.506,0.749
							c0,0.041,0.027,0.087,0.081,0.141c0.067,0.067,0.121,0.141,0.161,0.222c1.066,1.2,2.018,1.74,2.853,1.619
							c3.831,0,8.398,0.499,13.7,1.497c8.27,1.565,14.429,3.953,18.476,7.164c0.054,0,0.121,0.028,0.202,0.082
							c0.149,0.094,0.243,0.148,0.284,0.161c0,0.067,0.027,0.121,0.081,0.161c0.054,0.054,0.108,0.082,0.161,0.082
							c1.295,0.823,2.077,1.443,2.348,1.862"/>
						
							<line fill="none" stroke="#000000" stroke-width="1.5" stroke-linecap="round" stroke-linejoin="round" stroke-miterlimit="3" x1="50.529" y1="24.376" x2="49.902" y2="25.732"/>
						
							<line fill="none" stroke="#000000" stroke-width="1.5" stroke-linecap="round" stroke-linejoin="round" stroke-miterlimit="3" x1="38.144" y1="30.063" x2="37.031" y2="23.143"/>
						
							<path fill="none" stroke="#000000" stroke-width="1.5" stroke-linecap="round" stroke-linejoin="round" stroke-miterlimit="3" d="
							M36.282,35.142c0.121-0.108,0.25-0.358,0.384-0.749c0.162-0.162,0.243-0.284,0.243-0.364l0.506-0.506v-0.121
							c0.566-0.809,0.85-1.383,0.85-1.72c-0.161-0.512-0.243-0.844-0.243-0.992l0.121-0.263"/>
						
							<path fill="none" stroke="#000000" stroke-width="1.5" stroke-linecap="round" stroke-linejoin="round" stroke-miterlimit="3" d="
							M43.344,37.732c-1.025,0.432-1.849,1.174-2.468,2.226c-0.445,0.445-0.742,1.025-0.89,1.74
							c-0.162,0.729-0.156,1.552,0.02,2.469c0.121,0.931,0.465,1.653,1.033,2.164c0.553,0.513,1.363,0.864,2.428,1.052
							c1.944,0.473,3.225,0.473,3.845,0c0.364-0.391,0.614-0.654,0.749-0.79c0.189-0.215,0.31-0.324,0.364-0.324"/>
						
							<path fill="none" stroke="#000000" stroke-width="1.5" stroke-linecap="round" stroke-linejoin="round" stroke-miterlimit="3" d="
							M40.612,38.097l0.749-0.364c0.338-0.081,0.627-0.121,0.87-0.121c0.324,0,0.695,0.041,1.113,0.121"/>
						
							<path fill="none" stroke="#000000" stroke-width="1.5" stroke-linecap="round" stroke-linejoin="round" stroke-miterlimit="3" d="
							M46.198,40.464c0.31,0,0.512,0.243,0.607,0.729c-0.324,0.998-0.566,1.66-0.729,1.983l-1.74,2.226
							c-0.082-0.161-0.121-0.573-0.121-1.235c0-0.957,0.121-1.74,0.364-2.348c0.176-0.485,0.412-0.85,0.709-1.092
							C45.571,40.484,45.874,40.397,46.198,40.464z"/>
						
							<path fill="none" stroke="#000000" stroke-width="1.5" stroke-linecap="round" stroke-linejoin="round" stroke-miterlimit="3" d="
							M35.918,36.012c0.161-0.256,0.283-0.465,0.364-0.627v-0.243"/>
						
							<path fill="none" stroke="#000000" stroke-width="1.5" stroke-linecap="round" stroke-linejoin="round" stroke-miterlimit="3" d="
							M31.972,53.578c0-1.727,0.081-2.927,0.243-3.602v-0.121l0.243-0.607c0.041-0.041,0.081-0.121,0.121-0.243
							c0.041-0.135,0.081-0.222,0.121-0.263c0.162-0.35,0.33-0.809,0.506-1.376c0.202-0.675,0.364-1.2,0.485-1.579
							c-0.499-0.903-0.25-2.226,0.749-3.967v-0.243c0.081-0.176,0.202-0.345,0.364-0.506c0.067-0.136,0.108-0.223,0.121-0.263
							c0.027-0.067,0.067-0.102,0.121-0.102l1.862-1.983c-0.66-0.918-0.991-1.578-0.991-1.982v-0.121"/>
						
							<path fill="none" stroke="#000000" stroke-width="1.5" stroke-linecap="round" stroke-linejoin="round" stroke-miterlimit="3" d="
							M32.214,58.151c-0.162-0.58-0.243-1.903-0.243-3.967v-0.606"/>
						
							<path fill="none" stroke="#000000" stroke-width="1.5" stroke-linecap="round" stroke-linejoin="round" stroke-miterlimit="3" d="
							M31.972,53.578c0,0.054,0.027,0.094,0.081,0.121c0.095,0.067,0.148,0.107,0.162,0.121c1.105,0.567,2.01,1.349,2.712,2.348
							c0.742,0.621,1.363,1.362,1.862,2.225"/>
						
							<path fill="none" stroke="#000000" stroke-width="1.5" stroke-linecap="round" stroke-linejoin="round" stroke-miterlimit="3" d="
							M36.545,61.126c-0.539-0.473-0.931-0.816-1.173-1.033c-0.405-0.35-0.755-0.627-1.052-0.829
							c-0.108-0.054-0.688-0.385-1.74-0.992l-0.364-0.121"/>
						
							<line fill="none" stroke="#000000" stroke-width="1.5" stroke-linecap="round" stroke-linejoin="round" stroke-miterlimit="3" x1="32.214" y1="58.151" x2="32.214" y2="58.029"/>
						
							<polyline fill="none" stroke="#000000" stroke-width="1.5" stroke-linecap="round" stroke-linejoin="round" stroke-miterlimit="3" points="
							32.214,58.029 32.336,58.778 33.692,63.716 						"/>
						
							<path fill="none" stroke="#000000" stroke-width="1.5" stroke-linecap="round" stroke-linejoin="round" stroke-miterlimit="3" d="
							M33.692,63.716c0,0.419,0.041,0.749,0.121,0.992"/>
						
							<path fill="none" stroke="#000000" stroke-width="1.5" stroke-linecap="round" stroke-linejoin="round" stroke-miterlimit="3" d="
							M33.692,63.716h-0.485c-1.254,0.094-2.732,0.169-4.432,0.223c-1.471,0.054-2.389,0.1-2.753,0.141
							c-1.983,0-3.839,0.169-5.565,0.506c-1.673,0.094-3.448,0.297-5.323,0.606"/>
						
							<path fill="none" stroke="#000000" stroke-width="1.5" stroke-linecap="round" stroke-linejoin="round" stroke-miterlimit="3" d="
							M25.031,50.603c2.199,0.957,4.512,1.949,6.942,2.975"/>
						
							<path fill="none" stroke="#000000" stroke-width="1.5" stroke-linecap="round" stroke-linejoin="round" stroke-miterlimit="3" d="
							M33.692,63.716c0.243-0.081,0.783-0.161,1.619-0.243"/>
						
							<path fill="none" stroke="#000000" stroke-width="1.5" stroke-linecap="round" stroke-linejoin="round" stroke-miterlimit="3" d="
							M65.989,49.733c0.324-0.324,0.655-0.614,0.992-0.87c0.378-0.283,0.843-0.64,1.396-1.073c0.391-0.297,0.668-0.472,0.829-0.526
							c0.567-0.23,1.389-0.519,2.469-0.87c0.337-0.041,0.742-0.087,1.215-0.141c0.324-0.041,0.539-0.034,0.647,0.02
							c1.079,0,1.942,0.161,2.591,0.486c0.337,0.176,0.877,0.465,1.619,0.87l1.72,1.497"/>
						
							<path fill="none" stroke="#000000" stroke-width="1.5" stroke-linecap="round" stroke-linejoin="round" stroke-miterlimit="3" d="
							M43.344,37.732c1.579,0.391,2.813,1.383,3.704,2.975c0.432,0.512,0.85,1.504,1.254,2.975c0.256,1.039,0.256,1.821,0,2.347"/>
						
							<path fill="none" stroke="#000000" stroke-width="1.5" stroke-linecap="round" stroke-linejoin="round" stroke-miterlimit="3" d="
							M48.161,65.335l1.983-1.113c1.079-0.809,1.619-1.471,1.619-1.983c-0.161-0.256-0.29-0.425-0.384-0.506
							c-0.081-0.081-0.203-0.041-0.364,0.121c-0.243,0.256-0.404,0.345-0.485,0.263c-0.256-0.499-0.384-0.829-0.384-0.992
							c0-0.58,0.371-0.87,1.113-0.87c0.823,0,1.322,0.04,1.497,0.121c0.364,0.243,0.486,0.735,0.364,1.476
							c0.35,0.176,0.56,0.263,0.627,0.263c1.106,0,1.923-0.25,2.448-0.749c0.512-0.512,0.77-1.295,0.77-2.348
							c-0.108-0.256-0.607-0.465-1.497-0.627c-0.985-0.121-1.606-0.202-1.862-0.243c-0.405-0.161-1.518-0.243-3.338-0.243h-1.599
							c-1.025-0.796-2.22-1.33-3.582-1.599c-1.726-0.364-2.516,0.209-2.368,1.72v0.749c0.148,0,0.304,0.041,0.465,0.121
							c0.176,0.081,0.271,0.121,0.283,0.121c0.284,0,0.533-0.169,0.749-0.506c0.324-0.322,0.566-0.445,0.729-0.364
							c0.176,0,0.345,0.162,0.506,0.486c0.028,0.094,0.082,0.263,0.161,0.506c0.028,0.081,0.014,0.121-0.04,0.121l0.243,0.627
							l-0.364-0.384c-0.297,0-0.506,0.25-0.627,0.749c-0.161,0.324-0.243,0.573-0.243,0.749c0,0.486,0.209,0.938,0.627,1.356
							c0,0.176,0.203,0.547,0.607,1.113c0.094,0.081,0.23,0.222,0.405,0.425c0.189,0.189,0.384,0.337,0.586,0.445l0.87,0.85"/>
						
							<path fill="none" stroke="#000000" stroke-width="1.5" stroke-linecap="round" stroke-linejoin="round" stroke-miterlimit="3" d="
							M66.859,49.854l-0.121,0.506c1.511,3.413,4.067,4.937,7.669,4.574c1.471-0.054,2.671-0.479,3.602-1.275
							c0.918-0.769,1.531-1.868,1.841-3.299c0-0.701-0.128-1.113-0.384-1.235"/>
						
							<path fill="none" stroke="#000000" stroke-width="1.5" stroke-linecap="round" stroke-linejoin="round" stroke-miterlimit="3" d="
							M74.144,47.749c-0.121-0.486-0.404-0.729-0.85-0.729c-0.796,0-1.376,0.493-1.74,1.476c-0.243,0.635-0.364,1.254-0.364,1.862
							c0,0.419,0.121,0.87,0.364,1.356l0.486,1.356c0.297-0.094,0.796-0.627,1.497-1.599c0.215-0.391,0.384-0.809,0.506-1.254
							c0.081-0.31,0.161-0.762,0.243-1.356L74.144,47.749z"/>
						
							<path fill="none" stroke="#000000" stroke-width="1.5" stroke-linecap="round" stroke-linejoin="round" stroke-miterlimit="3" d="
							M34.319,66.691h-0.121c-2.105,0.796-3.346,1.328-3.724,1.599l-10.381,3.845"/>
						
							<path fill="none" stroke="#000000" stroke-width="1.5" stroke-linecap="round" stroke-linejoin="round" stroke-miterlimit="3" d="
							M67.345,70.394h0.506l4.452,0.992c0.243,0.081,0.816,0.25,1.719,0.506"/>
						
							<path fill="none" stroke="#000000" stroke-width="1.5" stroke-linecap="round" stroke-linejoin="round" stroke-miterlimit="3" d="
							M60.303,75.595l0.364,0.749l0.121,0.486c0.378,0.89,0.627,1.713,0.749,2.468"/>
						
							<path fill="none" stroke="#000000" stroke-width="1.5" stroke-linecap="round" stroke-linejoin="round" stroke-miterlimit="3" d="
							M62.408,84.013c0-0.85-0.209-2.334-0.627-4.452l-0.243-0.263"/>
						
							<path fill="none" stroke="#000000" stroke-width="1.5" stroke-linecap="round" stroke-linejoin="round" stroke-miterlimit="3" d="
							M61.537,79.298c-0.661-0.081-1.363-0.121-2.105-0.121c-0.998-0.161-1.821-0.283-2.468-0.364l-0.75-0.486
							c-0.417-0.094-0.87-0.385-1.356-0.87c-0.364-0.189-1.153-0.89-2.368-2.105c-0.432-0.553-1.046-1.174-1.841-1.862l-1.74-1.235
							c-0.957-0.836-1.578-1.99-1.862-3.461v-0.121"/>
						
							<path fill="none" stroke="#000000" stroke-width="1.5" stroke-linecap="round" stroke-linejoin="round" stroke-miterlimit="3" d="
							M64.006,78.935l1.478-0.364c0-0.041,0.027-0.082,0.081-0.121c0.041-0.041,0.061-0.081,0.061-0.121"/>
						
							<path fill="none" stroke="#000000" stroke-width="1.5" stroke-linecap="round" stroke-linejoin="round" stroke-miterlimit="3" d="
							M61.537,79.298c0.661,0,1.484-0.121,2.469-0.364"/>
						
							<polyline fill="none" stroke="#000000" stroke-width="1.5" stroke-linecap="round" stroke-linejoin="round" stroke-miterlimit="3" points="
							69.571,75.352 69.814,75.109 71.676,73.612 						"/>
						
							<line fill="none" stroke="#000000" stroke-width="1.5" stroke-linecap="round" stroke-linejoin="round" stroke-miterlimit="3" x1="67.102" y1="73.247" x2="69.571" y2="75.352"/>
						
							<path fill="none" stroke="#000000" stroke-width="1.5" stroke-linecap="round" stroke-linejoin="round" stroke-miterlimit="3" d="
							M69.571,75.352c-0.742,0.661-1.444,1.235-2.105,1.72"/>
						
							<path fill="none" stroke="#000000" stroke-width="1.5" stroke-linecap="round" stroke-linejoin="round" stroke-miterlimit="3" d="
							M67.851,83.386c-0.297-0.877-0.755-2.111-1.376-3.703c-0.121-0.162-0.263-0.391-0.425-0.689
							c-0.161-0.283-0.304-0.506-0.425-0.667"/>
						
							<path fill="none" stroke="#000000" stroke-width="1.5" stroke-linecap="round" stroke-linejoin="round" stroke-miterlimit="3" d="
							M65.624,78.327c0.108-0.054,0.721-0.473,1.841-1.254"/>
						
							<path fill="none" stroke="#000000" stroke-width="1.5" stroke-linecap="round" stroke-linejoin="round" stroke-miterlimit="3" d="
							M65.624,78.327c-1.161-2.064-1.781-3.136-1.862-3.218"/>
						
							<path fill="none" stroke="#000000" stroke-width="1.5" stroke-linecap="round" stroke-linejoin="round" stroke-miterlimit="3" d="
							M47.432,65.7c0,0.661-0.128,1.653-0.384,2.975"/>
						
							<line fill="none" stroke="#000000" stroke-width="1.5" stroke-linecap="round" stroke-linejoin="round" stroke-miterlimit="3" x1="47.675" y1="65.193" x2="47.675" y2="65.456"/>
						
							<polygon fill="none" stroke="#000000" stroke-width="1.5" stroke-linecap="round" stroke-linejoin="round" stroke-miterlimit="3" points="
							57.206,84.378 56.093,84.742 56.822,84.378 						"/>
						
							<polyline fill="none" stroke="#000000" stroke-width="1.5" stroke-linecap="round" stroke-linejoin="round" stroke-miterlimit="3" points="
							56.822,84.378 57.206,84.135 57.571,84.135 61.901,83.629 						"/>
						
							<line fill="none" stroke="#000000" stroke-width="1.5" stroke-linecap="round" stroke-linejoin="round" stroke-miterlimit="3" x1="67.851" y1="83.386" x2="70.684" y2="83.021"/>
						
							<line fill="none" stroke="#000000" stroke-width="1.5" stroke-linecap="round" stroke-linejoin="round" stroke-miterlimit="3" x1="65.746" y1="83.75" x2="67.851" y2="83.386"/>
						
							<path fill="none" stroke="#000000" stroke-width="1.5" stroke-linecap="round" stroke-linejoin="round" stroke-miterlimit="3" d="
							M71.553,102.328c-0.566-3.643-1.227-7.272-1.982-10.887l-1.478-6.942c-0.054-0.054-0.088-0.128-0.102-0.223l-0.141-0.891"/>
						
							<path fill="none" stroke="#000000" stroke-width="1.5" stroke-linecap="round" stroke-linejoin="round" stroke-miterlimit="3" d="
							M62.408,92.168c-0.094-3.629-0.141-5.484-0.141-5.565l0.141-2.591"/>
						
							<path fill="none" stroke="#000000" stroke-width="1.5" stroke-linecap="round" stroke-linejoin="round" stroke-miterlimit="3" d="
							M62.408,84.013c1.066-0.081,2.179-0.169,3.338-0.263"/>
						
							<path fill="none" stroke="#000000" stroke-width="1.5" stroke-linecap="round" stroke-linejoin="round" stroke-miterlimit="3" d="
							M34.926,67.925c-0.391-0.782-0.594-1.194-0.607-1.235"/>
						
							<line fill="none" stroke="#000000" stroke-width="1.5" stroke-linecap="round" stroke-linejoin="round" stroke-miterlimit="3" x1="34.319" y1="66.691" x2="35.675" y2="66.448"/>
						
							<path fill="none" stroke="#000000" stroke-width="1.5" stroke-linecap="round" stroke-linejoin="round" stroke-miterlimit="3" d="
							M36.282,70.394l-0.607-0.992c0-0.243-0.121-0.364-0.364-0.364"/>
						
							<path fill="none" stroke="#000000" stroke-width="1.5" stroke-linecap="round" stroke-linejoin="round" stroke-miterlimit="3" d="
							M35.311,69.039c-3.737,1.552-8.398,6.044-13.984,13.478"/>
						
							<path fill="none" stroke="#000000" stroke-width="1.5" stroke-linecap="round" stroke-linejoin="round" stroke-miterlimit="3" d="
							M40.37,72.256c-0.486,0.081-0.816,0.121-0.992,0.121l-0.121-0.121c-0.512,0-1.126-0.25-1.841-0.749"/>
						
							<path fill="none" stroke="#000000" stroke-width="1.5" stroke-linecap="round" stroke-linejoin="round" stroke-miterlimit="3" d="
							M36.282,70.394c0.162,0.054,0.338,0.182,0.527,0.384c0.108,0.121,0.31,0.364,0.607,0.729"/>
						
							<line fill="none" stroke="#000000" stroke-width="1.5" stroke-linecap="round" stroke-linejoin="round" stroke-miterlimit="3" x1="34.926" y1="67.925" x2="35.311" y2="69.039"/>
						
							<path fill="none" stroke="#000000" stroke-width="1.5" stroke-linecap="round" stroke-linejoin="round" stroke-miterlimit="3" d="
							M35.311,69.039c0.809-0.405,1.512-0.655,2.105-0.749"/>
						
							<path fill="none" stroke="#000000" stroke-width="1.5" stroke-linecap="round" stroke-linejoin="round" stroke-miterlimit="3" d="
							M40.37,72.256l-0.87,0.992c-0.081,0.081-0.121,0.202-0.121,0.364c-0.081,0.121-0.182,0.33-0.304,0.627
							c-0.121,0.283-0.222,0.486-0.303,0.607v0.506l0.121,0.243c0,0.161,0.041,0.243,0.121,0.243v0.627"/>
						
							<path fill="none" stroke="#000000" stroke-width="1.5" stroke-linecap="round" stroke-linejoin="round" stroke-miterlimit="3" d="
							M39.014,76.465c-0.081-0.161-0.161-0.29-0.243-0.384c0,0.108,0.027,0.614,0.081,1.518c0.041,0.527,0.013,0.931-0.081,1.215
							c-0.054,0.176-0.486,1.22-1.295,3.136c-0.877,2.064-1.626,4.021-2.246,5.868c-2.105,6.152-3.359,12.345-3.765,18.577
							c-1.241,19.507,5.727,37.943,20.904,55.306c0.499,0.58,1.2,1.45,2.105,2.611c0.796,0.796,1.538,1.619,2.226,2.468
							c1.484,2.01,2.685,4.155,3.602,6.435c0.688,1.796,1.241,3.758,1.659,5.889c0.58,3.036,0.681,5.612,0.304,7.73
							c-0.351,2.01-0.904,4.851-1.66,8.521c-0.701,3.372-1.174,5.807-1.417,7.305c-0.271,1.012-0.479,2.368-0.627,4.068
							c-0.526,2.968-0.897,5.356-1.113,7.164c0,1.309-0.161,2.508-0.485,3.602"/>
						
							<path fill="none" stroke="#000000" stroke-width="1.5" stroke-linecap="round" stroke-linejoin="round" stroke-miterlimit="3" d="
							M39.014,76.465l0.121,0.121c1.012,1.579,1.592,2.442,1.74,2.591c0.823,1.389,1.686,2.259,2.59,2.611
							c0.162,0.161,0.742,0.493,1.74,0.992c3.697,1.956,7.569,2.489,11.616,1.599"/>
						
							<path fill="none" stroke="#000000" stroke-width="1.5" stroke-linecap="round" stroke-linejoin="round" stroke-miterlimit="3" d="
							M47.048,68.675c-1.309,2.145-3.535,3.338-6.678,3.582"/>
						
							<path fill="none" stroke="#000000" stroke-width="1.5" stroke-linecap="round" stroke-linejoin="round" stroke-miterlimit="3" d="
							M33.813,64.708c0,0.364,0.169,1.026,0.506,1.983"/>
						
							<path fill="none" stroke="#000000" stroke-width="1.5" stroke-linecap="round" stroke-linejoin="round" stroke-miterlimit="3" d="
							M20.943,56.532c3.939-0.459,7.697,0.041,11.271,1.497"/>
						
							<path fill="none" stroke="#000000" stroke-width="1.5" stroke-linecap="round" stroke-linejoin="round" stroke-miterlimit="3" d="
							M92.337,34.636c2.63-1.322,5.349-2.185,8.155-2.591c1.727-0.243,3.17-0.364,4.33-0.364c0.243-0.082,0.58-0.195,1.013-0.345
							c0.351-0.121,0.627-0.256,0.829-0.405c0.23-0.121,0.539-0.297,0.931-0.527c0.256-0.148,0.405-0.222,0.445-0.222
							c0.675-0.108,1.416-0.108,2.226,0c2.415,0,4.101,0.539,5.06,1.619l0.506,0.243c0.661,0.661,0.992,2.024,0.992,4.088
							c0,1.363-1.241,3.96-3.724,7.792c-2.279,3.67-4.006,5.976-5.18,6.921c-0.594,0.527-2.166,2.051-4.715,4.573
							c-0.35,0.351-0.729,0.783-1.133,1.295c-0.432,0.553-0.755,0.951-0.971,1.194c-0.121,0-0.243,0.121-0.364,0.364"/>
						
							<path fill="none" stroke="#000000" stroke-width="1.5" stroke-linecap="round" stroke-linejoin="round" stroke-miterlimit="3" d="
							M91.73,38.724l3.683-2.469c1.322-0.337,2.847-0.667,4.574-0.991c0.769-0.108,1.686-0.318,2.752-0.627
							c0.473-0.135,1.538-0.465,3.197-0.992c0.904-0.445,2.259-0.816,4.068-1.113c1.74-0.459,3.021-0.419,3.845,0.121
							c0.742,0.621,1.113,1.282,1.113,1.983"/>
						
							<path fill="none" stroke="#000000" stroke-width="1.5" stroke-linecap="round" stroke-linejoin="round" stroke-miterlimit="3" d="
							M89.625,36.133c0.607-0.512,1.512-1.012,2.712-1.497"/>
						
							<line fill="none" stroke="#000000" stroke-width="1.5" stroke-linecap="round" stroke-linejoin="round" stroke-miterlimit="3" x1="79.467" y1="49.125" x2="81.45" y2="49.854"/>
						
							<path fill="none" stroke="#000000" stroke-width="1.5" stroke-linecap="round" stroke-linejoin="round" stroke-miterlimit="3" d="
							M101.1,59.143v0.364c0.108,0.054,0.182,0.121,0.222,0.202c0.014,0.054,0.021,0.156,0.021,0.304
							c0.176,0.567,0.263,1.268,0.263,2.105v2.105c0.215,0.473,0.236,1.653,0.061,3.541c-0.35,3.858-0.532,5.942-0.546,6.254
							c-0.378,6.354,0.404,11.454,2.347,15.299"/>
						
							<path fill="none" stroke="#000000" stroke-width="1.5" stroke-linecap="round" stroke-linejoin="round" stroke-miterlimit="3" d="
							M102.151,85.673l18.375,0.809c1.835,0.054,4.512,0.466,8.034,1.235c4.25,0.918,8.716,2.159,13.397,3.724
							c12.722,4.249,24.236,9.869,34.543,16.857c13.531,9.174,23.817,20.034,30.86,32.581c8.607,15.312,12.08,32.689,10.422,52.129
							c-0.162,1.619-0.29,2.732-0.385,3.338c0,0.176-0.021,0.404-0.061,0.688c-0.041,0.284-0.061,0.506-0.061,0.667v0.627"/>
						
							<path fill="none" stroke="#000000" stroke-width="1.5" stroke-linecap="round" stroke-linejoin="round" stroke-miterlimit="3" d="
							M75.398,81.403c0.567-0.189,1.801-0.56,3.704-1.113c0.755-0.256,1.612-0.485,2.571-0.688c0.189-0.041,0.985-0.182,2.387-0.425
							c0-0.081,0.121-0.121,0.364-0.121c0.243,0,0.405-0.041,0.486-0.121c0.769-0.148,1.68-0.52,2.732-1.113"/>
						
							<line fill="none" stroke="#000000" stroke-width="1.5" stroke-linecap="round" stroke-linejoin="round" stroke-miterlimit="3" x1="74.023" y1="71.891" x2="77.119" y2="69.524"/>
						
							<path fill="none" stroke="#000000" stroke-width="1.5" stroke-linecap="round" stroke-linejoin="round" stroke-miterlimit="3" d="
							M74.023,71.891c0.405,0.094,0.903,0.29,1.497,0.587c0.351,0.161,0.883,0.417,1.599,0.769c0.581,0.215,1.033,0.506,1.356,0.87"
							/>
						
							<path fill="none" stroke="#000000" stroke-width="1.5" stroke-linecap="round" stroke-linejoin="round" stroke-miterlimit="3" d="
							M70.684,83.021c1.052-0.176,2.456-0.675,4.21-1.497l0.506-0.121"/>
						
							<path fill="none" stroke="#000000" stroke-width="1.5" stroke-linecap="round" stroke-linejoin="round" stroke-miterlimit="3" d="
							M81.693,88.587c-1.916-2.226-3.184-3.697-3.804-4.412c-0.998-1.133-1.627-1.808-1.883-2.024
							c-0.041-0.081-0.141-0.202-0.304-0.364c-0.161-0.162-0.263-0.29-0.304-0.384"/>
						
							<path fill="none" stroke="#000000" stroke-width="1.5" stroke-linecap="round" stroke-linejoin="round" stroke-miterlimit="3" d="
							M75.398,81.403c-3.804-3.953-5.747-5.97-5.827-6.05"/>
						
							<path fill="none" stroke="#000000" stroke-width="1.5" stroke-linecap="round" stroke-linejoin="round" stroke-miterlimit="3" d="
							M71.676,73.612c0.499-0.404,1.282-0.978,2.347-1.72"/>
						
							<path fill="none" stroke="#000000" stroke-width="1.5" stroke-linecap="round" stroke-linejoin="round" stroke-miterlimit="3" d="
							M98.873,171.233c-0.094,0.094-0.209,0.404-0.345,0.931c-0.243,1.012-0.417,1.693-0.526,2.044l-0.607,2.833
							c0.161,3.912-0.473,7.468-1.903,10.665c-0.85,1.902-2.691,4.87-5.525,8.903c-3.116,4.425-5.551,8.345-7.305,11.757
							c-2.901,5.612-5.322,12.033-7.265,19.264c-1.43,1.849-2.461,3.581-3.095,5.201l-0.121,0.243v0.243
							c-0.027,0.108-0.081,0.385-0.161,0.83c-0.054,0.363-0.128,0.667-0.223,0.91l-2.469,4.21l-0.627,0.607
							c-0.161,0.176-0.445,0.425-0.85,0.749l-4.958,1.74c-0.243,0.081-0.574,0.121-0.992,0.121l-0.749,0.12
							c-0.404-1.133-0.607-2.125-0.607-2.974c-0.135-1.404,0.195-3.009,0.992-4.816c0.607-1.241,1.349-2.604,2.226-4.088"/>
						
							<path fill="none" stroke="#000000" stroke-width="1.5" stroke-linecap="round" stroke-linejoin="round" stroke-miterlimit="3" d="
							M94.057,190.719c0,0.054,0.56,0.459,1.68,1.215c1.174,0.783,1.768,1.18,1.781,1.195c0.283,0.309,0.816,0.721,1.599,1.233
							c0.161,0.203,0.404,0.433,0.729,0.688c0.176,0.149,0.473,0.378,0.89,0.688c0.499,0.499,1.45,0.829,2.853,0.991h0.121
							c0.081,0,0.121,0.041,0.121,0.121c0.58,0.433,1.113,0.804,1.599,1.113h0.243c0.082,0,0.621,0.081,1.619,0.243
							c0.701,0.136,1.194,0.298,1.478,0.486c0.404,0,0.735,0.128,0.992,0.384c0.081,0.041,0.161,0.102,0.243,0.182
							c0.082,0.081,0.169,0.142,0.263,0.182h0.121l0.243,0.121"/>
						
							<path fill="none" stroke="#000000" stroke-width="1.5" stroke-linecap="round" stroke-linejoin="round" stroke-miterlimit="3" d="
							M106.057,205.25c-0.027,0.013-0.606,0.398-1.74,1.153c-0.634,0.419-1.126,0.776-1.478,1.073
							c-0.552,0.796-0.843,1.208-0.87,1.235c-0.269,0.823-0.35,1.685-0.243,2.591c0,0.58,0.081,0.951,0.243,1.113
							c-0.714-0.136-1.294-0.425-1.74-0.87c-0.675-0.568-1.086-1.141-1.235-1.72c-0.081,0-0.121-0.128-0.121-0.385v-0.12
							l-0.485-1.842c0.161-0.837,0.324-1.369,0.485-1.598c0.405-1.566,1.066-2.638,1.983-3.218c1.646-0.972,4.904-2.003,9.775-3.096
							c1.025,0.269,2.765,0.566,5.221,0.891c2.753,0.363,4.432,0.606,5.039,0.728l0.627,0.243c0.054,0.108,0.256,0.182,0.607,0.223
							c0.215,0.013,0.634,0.02,1.254,0.02"/>
						
							<path fill="none" stroke="#000000" stroke-width="1.5" stroke-linecap="round" stroke-linejoin="round" stroke-miterlimit="3" d="
							M97.012,225.527c-0.271-0.85-0.512-1.921-0.729-3.217c-0.121-2.294,0.412-4.229,1.599-5.809
							c0.728-0.971,1.639-1.754,2.732-2.347c0.432-0.338,0.965-0.587,1.599-0.75c0.729-0.473,1.639-0.844,2.732-1.113"/>
						
							<path fill="none" stroke="#000000" stroke-width="1.5" stroke-linecap="round" stroke-linejoin="round" stroke-miterlimit="3" d="
							M104.944,212.292h0.121c0.405-0.081,1.227-0.121,2.468-0.121"/>
						
							<path fill="none" stroke="#000000" stroke-width="1.5" stroke-linecap="round" stroke-linejoin="round" stroke-miterlimit="3" d="
							M103.204,217.979c-0.729-0.404-1.389-0.607-1.983-0.607c-1.74,0.121-2.934,1.525-3.582,4.21
							c-0.417,1.256-0.627,2.57-0.627,3.946"/>
						
							<path fill="none" stroke="#000000" stroke-width="1.5" stroke-linecap="round" stroke-linejoin="round" stroke-miterlimit="3" d="
							M126.476,207.84l-8.054,0.243c-3.009,1.08-4.783,1.619-5.323,1.619h-3.096c-1.794,0.121-3.481,0.985-5.06,2.591"/>
						
							<path fill="none" stroke="#000000" stroke-width="1.5" stroke-linecap="round" stroke-linejoin="round" stroke-miterlimit="3" d="
							M104.075,220.589l-0.627-0.263c-2.428,3.588-3.582,5.733-3.461,6.435c0,0.243,0.081,0.944,0.243,2.105
							c0.094,0.161,0.182,0.371,0.263,0.626"/>
						
							<path fill="none" stroke="#000000" stroke-width="1.5" stroke-linecap="round" stroke-linejoin="round" stroke-miterlimit="3" d="
							M100.492,229.492c-1.389-0.688-2.461-1.801-3.218-3.338v-0.121l-0.263-0.506"/>
						
							<line fill="none" stroke="#000000" stroke-width="1.5" stroke-linecap="round" stroke-linejoin="round" stroke-miterlimit="3" x1="123.38" y1="201.667" x2="123.623" y2="201.667"/>
						
							<path fill="none" stroke="#000000" stroke-width="1.5" stroke-linecap="round" stroke-linejoin="round" stroke-miterlimit="3" d="
							M123.623,201.667c0.121,0,0.263-0.027,0.425-0.081c0.162-0.054,0.269-0.108,0.324-0.161"/>
						
							<path fill="none" stroke="#000000" stroke-width="1.5" stroke-linecap="round" stroke-linejoin="round" stroke-miterlimit="3" d="
							M126.476,207.84c0.364,0.512,0.58,0.816,0.647,0.91c0.135,0.161,0.202,0.19,0.202,0.081"/>
						
							<path fill="none" stroke="#000000" stroke-width="1.5" stroke-linecap="round" stroke-linejoin="round" stroke-miterlimit="3" d="
							M127.953,209.196c0.136,0,2.159,1.073,6.071,3.218"/>
						
							<path fill="none" stroke="#000000" stroke-width="1.5" stroke-linecap="round" stroke-linejoin="round" stroke-miterlimit="3" d="
							M55.345,165.909c0.161,0.162,0.243,0.29,0.243,0.385c0.459,0.714,0.829,1.417,1.113,2.105c0.081,0.08,0.168,0.283,0.263,0.606
							c0.243,0.581,0.566,1.492,0.971,2.733c0.35,1.376,0.708,2.678,1.072,3.905l0.425,1.397c0.405,2.374,0.6,5.531,0.586,9.47
							c-0.027,6.692-0.762,13.634-2.205,20.824c-0.338,0.579-0.87,1.161-1.599,1.739l-1.235,0.87c-0.809,0.783-1.1,2.098-0.87,3.947
							c0,0.255,0.04,0.465,0.121,0.626c0.121,0.903,0.371,1.484,0.749,1.74c0.121,0.121,0.735,0.493,1.842,1.113l0.141,0.121"/>
						
							<path fill="none" stroke="#000000" stroke-width="1.5" stroke-linecap="round" stroke-linejoin="round" stroke-miterlimit="3" d="
							M56.965,217.493c-0.607,1.915-1.269,3.48-1.983,4.694c0,0.027-0.087,0.189-0.263,0.485c-0.054,0-0.087,0.008-0.1,0.021
							c-0.013,0.014-0.021,0.054-0.021,0.121c-0.148,0.189-0.33,0.384-0.547,0.586c-0.364,0.35-0.553,0.527-0.567,0.527
							l-2.105,1.598c-1.74,1.215-2.765,2.085-3.075,2.611c-0.918,1.295-1.248,3.021-0.992,5.18c0.107,0.998,0.519,1.99,1.235,2.975"
							/>
						
							<path fill="none" stroke="#000000" stroke-width="1.5" stroke-linecap="round" stroke-linejoin="round" stroke-miterlimit="3" d="
							M53.746,234.31c-0.647,2.293-0.857,4.479-0.627,6.556c0,1.067,0.371,1.896,1.113,2.49c0.161,0,0.283,0.04,0.364,0.12
							c1.241,0.35,2.563,0.432,3.967,0.243c0.58,0,0.992-0.12,1.235-0.363l0.384-0.385c0.094-0.095,0.189-0.23,0.283-0.404
							c0.108-0.189,0.176-0.298,0.202-0.325"/>
						
							<path fill="none" stroke="#000000" stroke-width="1.5" stroke-linecap="round" stroke-linejoin="round" stroke-miterlimit="3" d="
							M48.546,236.293c-0.405,1.309-0.486,2.543-0.243,3.703v0.142c0.243,2.32,1.476,3.345,3.703,3.075
							c0.58,0,0.992,0.047,1.235,0.142"/>
						
							<line fill="none" stroke="#000000" stroke-width="1.5" stroke-linecap="round" stroke-linejoin="round" stroke-miterlimit="3" x1="48.546" y1="236.293" x2="50.145" y2="232.71"/>
						
							<path fill="none" stroke="#000000" stroke-width="1.5" stroke-linecap="round" stroke-linejoin="round" stroke-miterlimit="3" d="
							M147.988,259.423c0.189-0.324,0.978-0.485,2.368-0.485c0.661,0,1.235,0.04,1.72,0.12l7.427-1.113
							c4.507-0.648,11.022-0.728,19.548-0.243"/>
						
							<path fill="none" stroke="#000000" stroke-width="1.5" stroke-linecap="round" stroke-linejoin="round" stroke-miterlimit="3" d="
							M129.187,253.371c0.31,0.203,0.6,0.655,0.87,1.356c0.081,0.216,0.182,0.486,0.304,0.809c0.094,0.23,0.195,0.371,0.303,0.425
							c0.176,0.256,0.466,0.587,0.871,0.992c0.419,0.391,0.957,0.641,1.619,0.749c0.782,0.998,2.057,1.903,3.824,2.711
							c1.363,0.364,2.395,0.615,3.098,0.75c0.054-0.161,0.208-0.297,0.465-0.404c0.135-0.054,0.479-0.169,1.033-0.345
							c0.998-0.297,2.975-0.586,5.929-0.869c0.081-0.082,0.244-0.121,0.486-0.121"/>
						
							<line fill="none" stroke="#000000" stroke-width="1.5" stroke-linecap="round" stroke-linejoin="round" stroke-miterlimit="3" x1="147.988" y1="259.423" x2="148.736" y2="259.423"/>
						
							<path fill="none" stroke="#000000" stroke-width="1.5" stroke-linecap="round" stroke-linejoin="round" stroke-miterlimit="3" d="
							M131.413,252.502c-0.364,0.12-1.106,0.243-2.226,0.363c-0.701,0.149-1.524,0.277-2.469,0.385"/>
						
							<path fill="none" stroke="#000000" stroke-width="1.5" stroke-linecap="round" stroke-linejoin="round" stroke-miterlimit="3" d="
							M131.656,250.276c-0.621,0.35-1.404,0.681-2.347,0.992c-0.729,0.243-1.389,0.363-1.983,0.363"/>
					</g>
				</g>
			</g>
		</g>
	</g>
</g>
</svg>
