<?xml version="1.0" encoding="utf-8"?>
<!-- Generator: Adobe Illustrator 17.0.1, SVG Export Plug-In . SVG Version: 6.00 Build 0)  -->
<!DOCTYPE svg PUBLIC "-//W3C//DTD SVG 1.1//EN" "http://www.w3.org/Graphics/SVG/1.1/DTD/svg11.dtd">
<svg version="1.1" id="Layer_1" xmlns="http://www.w3.org/2000/svg" xmlns:xlink="http://www.w3.org/1999/xlink" x="0px" y="0px"
	 width="177.998px" height="260.239px" viewBox="44.677 -0.304 177.998 260.239"
	 enable-background="new 44.677 -0.304 177.998 260.239" xml:space="preserve">
<g>
	<g id="Layer_1_1_">
		<g>
			<g id="Layer_1_3_">
				<g>
					
						<path fill="none" stroke="#373535" stroke-width="1.6464" stroke-linecap="round" stroke-linejoin="round" stroke-miterlimit="3" d="
						M94.051,52.01c-0.418-0.199-0.947-0.369-1.585-0.511c-0.727-0.155-1.437-0.232-2.13-0.232c-0.595,0-2.571,0.374-5.928,1.123
						c-1.828,0.363-3.292,0.809-4.393,1.337c-1.079,0.518-1.712,1.057-1.899,1.619"/>
					
						<path fill="none" stroke="#373535" stroke-width="1.6464" stroke-linecap="round" stroke-linejoin="round" stroke-miterlimit="3" d="
						M98.856,51.646H97.37c-1.233,0.243-2.339,0.363-3.319,0.363"/>
					
						<path fill="none" stroke="#373535" stroke-width="1.6464" stroke-linecap="round" stroke-linejoin="round" stroke-miterlimit="3" d="
						M78.115,55.345c-1.795,1.619-1.024,2.114,2.312,1.486c3.105-0.584,9.247-2.312,18.429-5.185"/>
					
						<path fill="none" stroke="#373535" stroke-width="1.6464" stroke-linecap="round" stroke-linejoin="round" stroke-miterlimit="3" d="
						M101.085,49.434c-0.473,0.451-0.968,1.063-1.486,1.832c-0.154,0-0.325,0.066-0.511,0.199l-0.232,0.182"/>
					
						<path fill="none" stroke="#373535" stroke-width="1.6464" stroke-linecap="round" stroke-linejoin="round" stroke-miterlimit="3" d="
						M85.15,30.525c-0.176,0-0.297-0.016-0.363-0.049c-0.066-0.023-0.192-0.127-0.38-0.314"/>
					
						<path fill="none" stroke="#373535" stroke-width="1.6464" stroke-linecap="round" stroke-linejoin="round" stroke-miterlimit="3" d="
						M106.27,46.825c-1.904,0.385-3.434,0.451-4.591,0.199c-1.222-0.276-2.284-0.958-3.186-2.048
						c-1.278-1.453-2.466-2.565-3.567-3.336c-1.068-0.738-1.982-1.106-2.742-1.106c-0.396,0-0.809-0.341-1.238-1.024
						c-0.473-0.738-0.798-1.634-0.974-2.691c-0.33-0.816-0.699-1.585-1.106-2.312c-0.241-0.407-0.617-0.997-1.123-1.767
						c-0.155,0-0.259-0.06-0.314-0.182l-0.049-0.182l-0.38-0.363"/>
					
						<path fill="none" stroke="#373535" stroke-width="1.6464" stroke-linecap="round" stroke-linejoin="round" stroke-miterlimit="3" d="
						M71.426,12.739c1.585-1.948,4.431-4.294,8.538-7.035h0.363l-2.213,2.593l0.546-0.413c0.495-0.308,1.052-0.54,1.668-0.693
						c0.528-0.21,1.751-0.749,3.666-1.619c2.114-0.968,3.98-1.788,5.599-2.46c0.132,0,0.258-0.06,0.38-0.182
						c0.121-0.132,0.241-0.198,0.363-0.198"/>
					
						<path fill="none" stroke="#373535" stroke-width="1.6464" stroke-linecap="round" stroke-linejoin="round" stroke-miterlimit="3" d="
						M71.426,12.739c-0.11,0.374-0.274,0.869-0.495,1.486c-0.155,0.517-0.232,1.012-0.232,1.486h0.38"/>
					
						<polyline fill="none" stroke="#373535" stroke-width="1.6464" stroke-linecap="round" stroke-linejoin="round" stroke-miterlimit="3" points="
						84.044,26.446 84.044,26.826 84.407,28.296 84.407,30.161 					"/>
					
						<path fill="none" stroke="#373535" stroke-width="1.6464" stroke-linecap="round" stroke-linejoin="round" stroke-miterlimit="3" d="
						M71.079,15.712c0.23-0.254,0.347-0.502,0.347-0.743V12.74"/>
					
						<path fill="none" stroke="#373535" stroke-width="1.6464" stroke-linecap="round" stroke-linejoin="round" stroke-miterlimit="3" d="
						M70.7,25.703c-0.99-1.322-1.486-2.554-1.486-3.699c0-0.473,0.077-1.046,0.23-1.717c0.22-0.825,0.391-1.486,0.511-1.982"/>
					
						<path fill="none" stroke="#373535" stroke-width="1.6464" stroke-linecap="round" stroke-linejoin="round" stroke-miterlimit="3" d="
						M70.7,29.782c-1.012,1.024-2.047,2.12-3.104,3.286c-1.046,1.178-1.619,1.811-1.718,1.899v0.38
						c-1.134,1.509-1.965,2.819-2.493,3.931c-0.562,1.167-0.843,2.202-0.843,3.104c0,0.177,0.093,0.38,0.281,0.611
						c0.11,0.132,0.391,0.424,0.842,0.875v0.363l-0.049,0.28c-0.067,0.254-0.177,0.528-0.33,0.825
						c-0.243,0.243-0.55,0.677-0.925,1.304c-0.363,0.617-0.672,1.046-0.924,1.288c0.252,0,0.44-0.016,0.562-0.049
						c0.198-0.045,0.38-0.148,0.544-0.314v1.867"/>
					
						<line fill="none" stroke="#373535" stroke-width="1.6464" stroke-linecap="round" stroke-linejoin="round" stroke-miterlimit="3" x1="70.7" y1="29.782" x2="70.7" y2="25.703"/>
					
						<path fill="none" stroke="#373535" stroke-width="1.6464" stroke-linecap="round" stroke-linejoin="round" stroke-miterlimit="3" d="
						M70.7,29.782c0.363,1.057,0.854,2.042,1.47,2.956h0.38l0.38-1.47c-0.187-1.234-0.33-2.147-0.429-2.742
						c-0.165-1.034-0.396-1.85-0.694-2.444c-0.352-1.1-0.628-1.673-0.825-1.717c-0.187-0.044-0.281,0.402-0.281,1.338"/>
					
						<path fill="none" stroke="#373535" stroke-width="1.6464" stroke-linecap="round" stroke-linejoin="round" stroke-miterlimit="3" d="
						M56.63,66.822l5.549-15.177l0.23-1.395c-0.03,0.092-0.063,0.189-0.099,0.289c-0.088,0.241-0.254,0.611-0.495,1.106v0.363
						c-0.133,0.252-0.259,0.562-0.38,0.925c-0.121,0.385-0.243,0.693-0.363,0.924h-0.38l-0.363,1.123 M62.542,49.434l-0.132,0.818"
						/>
					
						<polyline fill="none" stroke="#373535" stroke-width="1.6464" stroke-linecap="round" stroke-linejoin="round" stroke-miterlimit="3" points="
						70.336,17.924 71.079,16.076 71.079,15.712 					"/>
					
						<polyline fill="none" stroke="#373535" stroke-width="1.6464" stroke-linecap="round" stroke-linejoin="round" stroke-miterlimit="3" points="
						46.623,90.173 46.623,89.43 46.987,89.067 46.987,87.944 47.366,87.58 					"/>
					
						<line fill="none" stroke="#373535" stroke-width="1.6464" stroke-linecap="round" stroke-linejoin="round" stroke-miterlimit="3" x1="60.693" y1="53.859" x2="60.693" y2="53.496"/>
					
						<path fill="none" stroke="#373535" stroke-width="1.6464" stroke-linecap="round" stroke-linejoin="round" stroke-miterlimit="3" d="
						M78.115,55.345c-0.506-0.165-1.002-0.27-1.486-0.314c-0.308-0.033-0.803-0.049-1.486-0.049v-3.715"/>
					
						<path fill="none" stroke="#373535" stroke-width="1.6464" stroke-linecap="round" stroke-linejoin="round" stroke-miterlimit="3" d="
						M106.27,46.825c-1.673,0.55-2.905,1.03-3.699,1.437c-0.816,0.407-1.311,0.798-1.486,1.172c-0.165,0.154-0.49,0.258-0.975,0.314
						c-0.274,0.033-0.694,0.049-1.256,0.049c-3.281-2.07-6.242-2.934-8.884-2.593c-2.51,0-5.599,0.617-9.264,1.85
						c-3.149,1.178-4.882,1.915-5.202,2.213h-0.363"/>
					
						<path fill="none" stroke="#373535" stroke-width="1.6464" stroke-linecap="round" stroke-linejoin="round" stroke-miterlimit="3" d="
						M54.038,69.431c0.33-1.012,0.82-2.004,1.47-2.972"/>
					
						<path fill="none" stroke="#373535" stroke-width="1.6464" stroke-linecap="round" stroke-linejoin="round" stroke-miterlimit="3" d="
						M50.702,76.104c0.265-0.265,0.617-0.684,1.057-1.256c0.418-0.54,0.683-0.865,0.792-0.974c0-0.088,0.06-0.286,0.182-0.595
						c0.121-0.319,0.182-0.617,0.182-0.891c0.297-0.451,0.595-0.991,0.891-1.619c0.274-0.65,0.473-1.095,0.595-1.338h-0.363"/>
					
						<path fill="none" stroke="#373535" stroke-width="1.6464" stroke-linecap="round" stroke-linejoin="round" stroke-miterlimit="3" d="
						M54.038,69.431l-1.123,1.106c0.011-0.011,0.198-0.155,0.561-0.43C53.697,69.944,53.883,69.718,54.038,69.431z"/>
					
						<path fill="none" stroke="#373535" stroke-width="1.6464" stroke-linecap="round" stroke-linejoin="round" stroke-miterlimit="3" d="
						M48.473,79.438c-0.055,0-0.132,0.016-0.23,0.049c-0.187,0.055-0.358,0.16-0.511,0.314h0.38L48.473,79.438z"/>
					
						<path fill="none" stroke="#373535" stroke-width="1.6464" stroke-linecap="round" stroke-linejoin="round" stroke-miterlimit="3" d="
						M48.473,79.438c0.265-0.274,0.435-0.462,0.511-0.562c0.155-0.209,0.232-0.396,0.232-0.561c0-0.154,0.263-0.468,0.792-0.941
						c0.606-0.518,0.969-0.837,1.091-0.958"/>
					
						<polyline fill="none" stroke="#373535" stroke-width="1.6464" stroke-linecap="round" stroke-linejoin="round" stroke-miterlimit="3" points="
						49.216,79.06 49.216,78.696 48.473,79.438 					"/>
					
						<path fill="none" stroke="#373535" stroke-width="1.6464" stroke-linecap="round" stroke-linejoin="round" stroke-miterlimit="3" d="
						M47.73,86.474c0.738-2.213,1.106-3.94,1.106-5.185c0.252-0.495,0.38-1.112,0.38-1.849"/>
					
						<path fill="none" stroke="#373535" stroke-width="1.6464" stroke-linecap="round" stroke-linejoin="round" stroke-miterlimit="3" d="
						M112.2,43.124c0.407,0.836-0.215,1.574-1.866,2.213c-0.165,0.177-0.363,0.286-0.595,0.33c-0.155,0.033-0.446,0.048-0.875,0.048
						c-0.243,0.122-0.677,0.308-1.304,0.562c-0.606,0.243-1.035,0.424-1.289,0.546"/>
					
						<path fill="none" stroke="#373535" stroke-width="1.6464" stroke-linecap="round" stroke-linejoin="round" stroke-miterlimit="3" d="
						M173.334,56.468c0.188,0,0.292,0.016,0.314,0.049c0.033,0.033,0.049,0.137,0.049,0.314c0.308,0,0.694,0.077,1.156,0.232
						c0.276,0.099,0.755,0.27,1.438,0.511c0.407,0.297,1.117,0.776,2.129,1.437c0.783,0.495,1.311,0.88,1.585,1.156h0.363"/>
					
						<line fill="none" stroke="#373535" stroke-width="1.6464" stroke-linecap="round" stroke-linejoin="round" stroke-miterlimit="3" x1="163.326" y1="51.646" x2="162.584" y2="51.646"/>
					
						<path fill="none" stroke="#373535" stroke-width="1.6464" stroke-linecap="round" stroke-linejoin="round" stroke-miterlimit="3" d="
						M75.143,51.266c0-0.154-0.093-0.274-0.281-0.363c-0.297-0.122-0.572-0.248-0.825-0.38c-0.738-2.191-1.106-3.793-1.106-4.805
						c0-0.672,0.033-1.161,0.099-1.47c0.099-0.495,0.314-0.991,0.644-1.486v-0.38c0.286-0.285,0.595-0.732,0.924-1.337
						c0.474-0.881,0.777-1.426,0.909-1.635c0.23-0.33,0.544-0.76,0.942-1.288c0.351-0.474,0.661-0.909,0.924-1.304
						c1.519-1.904,2.83-3.385,3.931-4.442c1.167-1.112,2.202-1.849,3.105-2.213"/>
					
						<path fill="none" stroke="#373535" stroke-width="1.6464" stroke-linecap="round" stroke-linejoin="round" stroke-miterlimit="3" d="
						M180.369,60.167h-0.363l1.09,0.743h0.381c-0.188-0.187-0.331-0.314-0.43-0.38C180.958,60.476,180.732,60.354,180.369,60.167z"
						/>
					
						<path fill="none" stroke="#373535" stroke-width="1.6464" stroke-linecap="round" stroke-linejoin="round" stroke-miterlimit="3" d="
						M179.626,96.101c-0.232-0.947-0.43-1.673-0.595-2.18c-0.263-0.76-0.561-1.393-0.891-1.898c-0.209-0.21-0.457-0.562-0.743-1.057
						c-0.22-0.385-0.462-0.65-0.727-0.792c-0.252-0.243-0.38-0.491-0.38-0.743l-0.38-0.363c-2.335-2.345-5.913-4.816-10.734-7.414
						h-0.381"/>
					
						<path fill="none" stroke="#373535" stroke-width="1.6464" stroke-linecap="round" stroke-linejoin="round" stroke-miterlimit="3" d="
						M46.623,90.916c0.155-0.155,0.259-0.325,0.314-0.513l0.049-0.23V89.43l-0.363,0.743"/>
					
						<path fill="none" stroke="#373535" stroke-width="1.6464" stroke-linecap="round" stroke-linejoin="round" stroke-miterlimit="3" d="
						M46.623,90.173c-0.352,0.352-0.633,0.787-0.842,1.304c-0.188,0.462-0.281,0.892-0.281,1.289v0.743
						c0.033-0.099,0.221-0.699,0.561-1.8C46.282,90.982,46.469,90.471,46.623,90.173z"/>
					
						<path fill="none" stroke="#373535" stroke-width="1.6464" stroke-linecap="round" stroke-linejoin="round" stroke-miterlimit="3" d="
						M48.473,103.879v-4.062c-0.165,0-0.27,0.077-0.314,0.23c-0.033,0.088-0.049,0.254-0.049,0.496
						c-0.495,1.937-0.743,3.049-0.743,3.336v0.38c-0.187,0.188-0.297,0.308-0.33,0.364c-0.029,0.057-0.045,0.161-0.049,0.313v-1.057
						c0-0.924-0.06-2.064-0.182-3.418c-0.121-1.365-0.182-2.323-0.182-2.874v-4.079"/>
					
						<path fill="none" stroke="#373535" stroke-width="1.6464" stroke-linecap="round" stroke-linejoin="round" stroke-miterlimit="3" d="
						M59.95,123.515v1.85h-0.363c-1.013-1.354-1.86-2.631-2.543-3.831c-0.562-0.99-0.947-1.811-1.156-2.461
						c-0.155-0.308-0.325-0.589-0.511-0.843l-0.232-0.281v1.486c-0.265-1.024-0.468-1.762-0.611-2.213
						c-0.252-0.825-0.544-1.569-0.875-2.229c-0.176-0.176-0.281-0.297-0.314-0.363c-0.033-0.066-0.049-0.192-0.049-0.38
						c-0.837-1.828-1.504-3.396-1.999-4.707c-0.39-1.052-0.588-1.698-0.595-1.941c0,1.967-0.127,3.566-0.38,4.798h-0.363
						c-0.352-0.705-0.65-1.646-0.891-2.824c-0.198-1.024-0.396-2.428-0.595-4.21v-0.743"/>
					
						<path fill="none" stroke="#373535" stroke-width="1.6464" stroke-linecap="round" stroke-linejoin="round" stroke-miterlimit="3" d="
						M59.95,123.515v-0.743l-1.106-1.106c0,0.199,0.093,0.458,0.281,0.776C59.323,122.804,59.597,123.162,59.95,123.515z"/>
					
						<path fill="none" stroke="#373535" stroke-width="1.6464" stroke-linecap="round" stroke-linejoin="round" stroke-miterlimit="3" d="
						M64.771,125.001c0,0.495-0.126,0.99-0.38,1.486"/>
					
						<path fill="none" stroke="#373535" stroke-width="1.6464" stroke-linecap="round" stroke-linejoin="round" stroke-miterlimit="3" d="
						M64.028,124.621c0,0.252,0.06,0.567,0.182,0.941c0.122,0.373,0.182,0.683,0.182,0.925"/>
					
						<path fill="none" stroke="#373535" stroke-width="1.6464" stroke-linecap="round" stroke-linejoin="round" stroke-miterlimit="3" d="
						M64.392,126.487c0,0.241-0.016,0.429-0.049,0.561c-0.044,0.199-0.148,0.38-0.314,0.546c-0.925-0.55-1.745-1.183-2.461-1.899
						c-0.705-0.705-1.244-1.431-1.618-2.18"/>
					
						<line fill="none" stroke="#373535" stroke-width="1.6464" stroke-linecap="round" stroke-linejoin="round" stroke-miterlimit="3" x1="64.771" y1="124.621" x2="64.028" y2="124.621"/>
					
						<path fill="none" stroke="#373535" stroke-width="1.6464" stroke-linecap="round" stroke-linejoin="round" stroke-miterlimit="3" d="
						M76.629,132.78c-0.727,0-1.651-0.447-2.774-1.338c-1.068-0.837-2.368-2.12-3.898-3.848l-1.106-1.106v0.743
						c0,1.475-0.127,2.587-0.38,3.336c-1.112-0.562-1.977-1.15-2.593-1.766c-0.617-0.617-1.112-1.387-1.486-2.312"/>
					
						<path fill="none" stroke="#373535" stroke-width="1.6464" stroke-linecap="round" stroke-linejoin="round" stroke-miterlimit="3" d="
						M95.025,143.24c-0.061-0.06-0.144-0.09-0.248-0.09c0-0.235-0.113-0.356-0.338-0.363h0.718c-0.144,0.132-0.193,0.27-0.149,0.413
						C95.013,143.213,95.02,143.227,95.025,143.24c0.035,0.036,0.063,0.083,0.082,0.141c0.031,0.093,0.047,0.25,0.049,0.472
						C95.15,143.68,95.107,143.477,95.025,143.24z"/>
					
						<path fill="none" stroke="#373535" stroke-width="1.6464" stroke-linecap="round" stroke-linejoin="round" stroke-miterlimit="3" d="
						M109.971,152.051c0.252,0.769,0.424,1.309,0.511,1.618c0.155,0.572,0.232,1.019,0.232,1.338h-0.743
						c-0.584,0-1.492-0.48-2.725-1.437c-1.354-1.046-2.917-2.543-4.69-4.493c-0.241,0.254-0.363,0.502-0.363,0.744
						c-0.396,0-0.953-0.292-1.668-0.876c-0.794-0.638-1.718-1.579-2.775-2.823c-0.54-0.518-1.035-0.891-1.486-1.123
						c-0.121-0.252-0.292-0.484-0.511-0.694c-0.155-0.155-0.23-0.292-0.23-0.413c-0.122,0-0.243-0.121-0.363-0.363
						c-0.121-0.252-0.248-0.38-0.38-0.38"/>
					
						<path fill="none" stroke="#373535" stroke-width="1.6464" stroke-linecap="round" stroke-linejoin="round" stroke-miterlimit="3" d="
						M94.777,143.15c-0.243,0-0.363-0.121-0.363-0.363c-1.2-1.035-2.51-1.992-3.931-2.874c-1.145-0.705-2.554-1.475-4.228-2.312
						c-5.262-2.246-8.521-3.681-9.775-4.31"/>
					
						<path fill="none" stroke="#373535" stroke-width="1.6464" stroke-linecap="round" stroke-linejoin="round" stroke-miterlimit="3" d="
						M114.413,154.643c-0.429-0.176-0.754-0.313-0.975-0.413c-0.374-0.165-0.787-0.402-1.238-0.709
						c-0.187-0.177-0.314-0.281-0.38-0.314c-0.055-0.033-0.176-0.049-0.363-0.049c-0.495-0.243-0.99-0.611-1.486-1.106"/>
					
						<path fill="none" stroke="#373535" stroke-width="1.6464" stroke-linecap="round" stroke-linejoin="round" stroke-miterlimit="3" d="
						M109.227,151.687h0.091h0.653v0.355c-0.003-0.16-0.081-0.262-0.232-0.305c-0.077-0.029-0.217-0.045-0.421-0.049"/>
					
						<path fill="none" stroke="#373535" stroke-width="1.6464" stroke-linecap="round" stroke-linejoin="round" stroke-miterlimit="3" d="
						M180.369,60.167l12.221,5.186c0.946,0,1.948,0.369,3.005,1.106c1.112,0.771,2.213,1.888,3.303,3.352
						c2.179,2.169,3.6,3.573,4.26,4.21c1.267,1.222,2.313,2.163,3.138,2.824h-0.727c0.187,0.187,0.308,0.292,0.363,0.314
						c0.067,0.033,0.188,0.049,0.363,0.049c0.638,0.154,1.486,0.666,2.542,1.536c0.65,0.517,1.778,1.486,3.386,2.907
						c1.882,0.374,3.362,0.947,4.442,1.717c1.123,0.794,1.866,1.829,2.229,3.105c0.825,1.641,1.431,3.198,1.815,4.674
						c0.276,1.079,0.413,1.992,0.413,2.742c0,0.716-0.248,1.579-0.743,2.593c-0.572-0.572-1.019-0.991-1.338-1.256
						c-0.594-0.495-1.134-0.82-1.618-0.975"/>
					
						<polygon fill="none" stroke="#373535" stroke-width="1.6464" stroke-linecap="round" stroke-linejoin="round" stroke-miterlimit="3" points="
						134.427,18.668 133.685,17.924 133.685,18.668 					"/>
					
						<path fill="none" stroke="#373535" stroke-width="1.6464" stroke-linecap="round" stroke-linejoin="round" stroke-miterlimit="3" d="
						M134.427,19.047v0.364c0.495,0.495,0.865,0.99,1.106,1.486v0.363c0.165,0.165,0.276,0.352,0.331,0.561
						c0.032,0.121,0.049,0.303,0.049,0.546c0.263,0.539,0.632,1.035,1.106,1.486c0.188,0.187,0.297,0.33,0.33,0.429
						c0.033,0.089,0.049,0.319,0.049,0.694c0.111,0.232,0.292,0.661,0.546,1.289c0.243,0.605,0.429,1.035,0.562,1.288v0.743
						c0.385,0.595,0.661,1.078,0.825,1.453c0.187,0.418,0.281,0.803,0.281,1.156"/>
					
						<line fill="none" stroke="#373535" stroke-width="1.6464" stroke-linecap="round" stroke-linejoin="round" stroke-miterlimit="3" x1="134.427" y1="18.668" x2="134.427" y2="19.047"/>
					
						<line fill="none" stroke="#373535" stroke-width="1.6464" stroke-linecap="round" stroke-linejoin="round" stroke-miterlimit="3" x1="139.613" y1="30.905" x2="139.613" y2="31.268"/>
					
						<path fill="none" stroke="#373535" stroke-width="1.6464" stroke-linecap="round" stroke-linejoin="round" stroke-miterlimit="3" d="
						M162.584,51.646c-0.662-0.99-1.635-1.948-2.923-2.874c-0.803-0.584-2.054-1.354-3.748-2.312l-2.147-1.09
						c0.314,0.169,0.6,0.361,0.858,0.578c0.199,0.165,0.501,0.457,0.908,0.875c-2.191-1.002-4.409-1.712-6.654-2.129
						c-1.708-0.308-3.562-0.462-5.565-0.462c0-2.698-0.105-4.624-0.314-5.78c-0.232-1.267-0.617-1.811-1.156-1.634
						c-0.209,0-0.458-0.171-0.744-0.511c-0.318-0.374-0.567-0.821-0.743-1.338c-0.495-0.968-0.743-2.201-0.743-3.699"/>
					
						<path fill="none" stroke="#373535" stroke-width="1.6464" stroke-linecap="round" stroke-linejoin="round" stroke-miterlimit="3" d="
						M139.613,31.268c0,0.132,0.06,0.38,0.181,0.743c0.117,0.352,0.178,0.592,0.182,0.719c-0.002-0.724-0.123-1.333-0.363-1.825"/>
					
						<path fill="none" stroke="#373535" stroke-width="1.6464" stroke-linecap="round" stroke-linejoin="round" stroke-miterlimit="3" d="
						M173.334,56.468c-1.497-0.749-2.488-1.123-2.972-1.123h-0.363v0.38c0.562,0.276,1.547,0.644,2.956,1.106h0.743L173.334,56.468z
						"/>
					
						<polyline fill="none" stroke="#373535" stroke-width="1.6464" stroke-linecap="round" stroke-linejoin="round" stroke-miterlimit="3" points="
						161.841,51.646 162.575,51.646 163.326,51.646 					"/>
					
						<path fill="none" stroke="#373535" stroke-width="1.6464" stroke-linecap="round" stroke-linejoin="round" stroke-miterlimit="3" d="
						M162.584,51.646c0.187-0.187,0.357-0.281,0.512-0.281s0.232,0.093,0.232,0.281c0.627,0,1.353,0.11,2.18,0.33
						c0.98,0.252,1.981,0.639,3.005,1.156c2.29,1.3,3.897,2.411,4.822,3.337"/>
					
						<path fill="none" stroke="#373535" stroke-width="1.6464" stroke-linecap="round" stroke-linejoin="round" stroke-miterlimit="3" d="
						M71.426,12.739c0,0.991-0.115,1.982-0.347,2.972"/>
					
						<path fill="none" stroke="#373535" stroke-width="1.6464" stroke-linecap="round" stroke-linejoin="round" stroke-miterlimit="3" d="
						M163.326,51.646l0.049,0.182c0.056,0.121,0.16,0.182,0.314,0.182v-0.363h-0.363V51.646z"/>
					
						<path fill="none" stroke="#373535" stroke-width="1.6464" stroke-linecap="round" stroke-linejoin="round" stroke-miterlimit="3" d="
						M109.971,32.374c-0.529,0.177-1.024,0.469-1.486,0.875c-0.397,0.363-0.892,0.936-1.486,1.717
						c-1.718,1.729-2.576,2.967-2.576,3.715l1.849,0.727l0.363,0.38c0.143,0,0.424,0.077,0.843,0.23
						c0.705,0.265,1.167,0.435,1.387,0.511h0.363c0.429,0,0.738-0.016,0.924-0.049c0.276-0.044,0.584-0.149,0.925-0.314
						c0.65-0.649,1.161-1.393,1.536-2.229c0.462-1.024,0.694-2.136,0.694-3.336c0-0.738-0.126-1.234-0.38-1.486
						c-0.241-0.484-0.457-0.82-0.643-1.007c-0.308-0.308-0.71-0.462-1.205-0.462c-0.243,0-0.424,0.033-0.546,0.099
						C110.323,31.846,110.135,32.055,109.971,32.374z"/>
					
						<line fill="none" stroke="#373535" stroke-width="1.6464" stroke-linecap="round" stroke-linejoin="round" stroke-miterlimit="3" x1="90.335" y1="2.732" x2="92.185" y2="2.732"/>
					
						<path fill="none" stroke="#373535" stroke-width="1.6464" stroke-linecap="round" stroke-linejoin="round" stroke-miterlimit="3" d="
						M92.185,2.732l1.106-1.106h-0.363c-0.484,0-0.914,0.093-1.288,0.28c-0.077,0.045-0.513,0.319-1.305,0.825"/>
					
						<path fill="none" stroke="#373535" stroke-width="1.6464" stroke-linecap="round" stroke-linejoin="round" stroke-miterlimit="3" d="
						M194.075,123.515c-0.351-0.351-0.627-0.709-0.825-1.073c-0.188-0.319-0.281-0.577-0.281-0.776c0-3.445-0.17-6.286-0.513-8.521
						c-0.329-2.147-0.782-3.507-1.353-4.079c-0.252-0.252-0.435-0.468-0.544-0.643c-0.209-0.308-0.396-0.71-0.562-1.205
						c-0.067-0.067-0.188-0.237-0.363-0.513c-0.099-0.154-0.221-0.23-0.363-0.23c-0.252-0.991-0.474-1.729-0.661-2.213
						c-0.308-0.825-0.71-1.569-1.206-2.229c-0.705-1.948-1.508-3.445-2.41-4.491c-0.814-0.957-1.614-1.437-2.395-1.437
						c-0.506,0.252-1.25,0.38-2.229,0.38"/>
					
						<path fill="none" stroke="#373535" stroke-width="1.6464" stroke-linecap="round" stroke-linejoin="round" stroke-miterlimit="3" d="
						M132.561,133.885l-0.363,1.106h-2.229c-2.83-1.057-5.048-2.779-6.655-5.169v-0.38c-0.88-1.398-1.482-2.939-1.8-4.623
						c-0.286-1.442-0.429-3.358-0.429-5.747c0-1.904,0.143-3.556,0.429-4.955c0.352-1.751,0.953-3.308,1.8-4.674"/>
					
						<path fill="none" stroke="#373535" stroke-width="1.6464" stroke-linecap="round" stroke-linejoin="round" stroke-miterlimit="3" d="
						M178.882,136.857c-0.251,0.518-0.424,0.891-0.511,1.123c-0.155,0.407-0.232,0.776-0.232,1.106
						c-0.55,0.539-0.919,0.891-1.106,1.057c-0.418,0.363-0.792,0.627-1.122,0.792c-1.014,0.495-1.871,0.864-2.577,1.106h-2.593
						c-0.661,0-1.403-0.155-2.228-0.462c-0.496-0.188-1.239-0.528-2.229-1.024c0.562,0.936,0.363,1.678-0.595,2.229
						c-0.969,0.562-2.741,0.931-5.318,1.106c-4.7,0-7.915-0.864-9.644-2.593c-0.276,0-0.572-0.121-0.891-0.363
						c-0.307-0.252-0.506-0.38-0.594-0.38l0.33,0.413c0.307,0.308,0.694,0.539,1.156,0.694l-3.336,0.38
						c-6.782,0-11.725-2.719-14.83-8.158v-0.363"/>
					
						<path fill="none" stroke="#373535" stroke-width="1.6464" stroke-linecap="round" stroke-linejoin="round" stroke-miterlimit="3" d="
						M132.561,133.522c-0.176-0.176-0.281-0.297-0.313-0.363c-0.033-0.067-0.05-0.193-0.05-0.38h0.363L132.561,133.522
						L132.561,133.522z"/>
					
						<path fill="none" stroke="#373535" stroke-width="1.6464" stroke-linecap="round" stroke-linejoin="round" stroke-miterlimit="3" d="
						M138.126,176.49c-2.202-0.55-4.128-1.628-5.78-3.236c-1.63-1.585-2.912-3.594-3.848-6.027l-0.363,0.38
						c-1.497,0-2.702-0.567-3.617-1.701c-0.925-1.166-1.575-2.945-1.948-5.333c-0.176,0-0.281-0.016-0.314-0.049
						c-0.029-0.029-0.046-0.116-0.049-0.265v0.314c-2.885-2.047-4.867-3.776-5.946-5.186c0-0.251-0.016-0.439-0.049-0.561
						c-0.044-0.199-0.148-0.381-0.314-0.546v0.363h-0.363 M128.498,166.863v0.363"/>
					
						<path fill="none" stroke="#373535" stroke-width="1.6464" stroke-linecap="round" stroke-linejoin="round" stroke-miterlimit="3" d="
						M141.463,160.935c-0.55,2.036-0.738,4.106-0.562,6.209c0.188,2.091,0.744,4.343,1.668,6.754
						c0.254,0.252,0.381,0.501,0.381,0.743c0.121,0.243,0.243,0.677,0.363,1.304c0.121,0.606,0.248,1.035,0.38,1.289"/>
					
						<path fill="none" stroke="#373535" stroke-width="1.6464" stroke-linecap="round" stroke-linejoin="round" stroke-miterlimit="3" d="
						M194.075,123.515c0,0.749-0.369,1.492-1.106,2.229l-0.743,0.743c-0.396,0.265-0.969,0.71-1.718,1.338
						c-0.88,0.749-1.545,1.288-1.997,1.618c-1.234,1.234-2.346,2.471-3.337,3.715c-0.165,0-0.269,0.077-0.313,0.232
						c-0.033,0.088-0.051,0.252-0.051,0.495c-0.671,0.451-1.784,1.441-3.335,2.972h-2.594"/>
					
						<line fill="none" stroke="#373535" stroke-width="1.6464" stroke-linecap="round" stroke-linejoin="round" stroke-miterlimit="3" x1="178.882" y1="135.752" x2="178.882" y2="136.857"/>
					
						<path fill="none" stroke="#373535" stroke-width="1.6464" stroke-linecap="round" stroke-linejoin="round" stroke-miterlimit="3" d="
						M217.427,94.252c0.318,1.629,1.425,4.718,3.318,9.264v3.699h-1.47"/>
					
						<line fill="none" stroke="#373535" stroke-width="1.6464" stroke-linecap="round" stroke-linejoin="round" stroke-miterlimit="3" x1="217.427" y1="94.252" x2="217.046" y2="94.252"/>
					
						<path fill="none" stroke="#373535" stroke-width="1.6464" stroke-linecap="round" stroke-linejoin="round" stroke-miterlimit="3" d="
						M220.745,124.621v-0.091c-0.004-0.193-0.021-0.328-0.049-0.405c-0.044-0.155-0.148-0.232-0.314-0.232
						c-0.187-0.187-0.313-0.297-0.38-0.33c-0.055-0.033-0.177-0.049-0.363-0.049h-0.363c-0.121,0.595-0.248,1.442-0.38,2.543
						c-0.121,1.002-0.243,1.762-0.363,2.28l-0.743,2.956c-0.111,0.22-0.297,0.655-0.562,1.304c-0.243,0.606-0.43,1.034-0.562,1.289
						l-0.743,1.486c-0.254,0.265-0.419,0.452-0.495,0.562c-0.155,0.209-0.232,0.396-0.232,0.562
						c-0.297,0.143-0.606,0.402-0.925,0.776c-0.55,0.65-0.858,1.008-0.925,1.073l-0.743,0.363c0-0.176-0.016-0.281-0.049-0.313
						c-0.033-0.033-0.144-0.05-0.33-0.05c-0.155-0.154-0.319-0.263-0.496-0.33l-0.23-0.049v2.972
						c-1.002,2.928-2.24,5.274-3.717,7.035c-0.132,0.252-0.258,0.622-0.38,1.106c-0.121,0.495-0.243,0.865-0.363,1.107
						 M219.275,107.216c0.76,0.76,1.371,1.992,1.833,3.699c0.495,1.784,0.743,3.76,0.743,5.928v0.743
						c0,0.991-0.12,1.982-0.362,2.972c0,0.187-0.018,0.325-0.05,0.413c-0.022,0.089-0.126,0.319-0.314,0.694
						c0,0.738-0.126,1.354-0.38,1.849v1.015 M207.781,147.971v-2.972"/>
					
						<path fill="none" stroke="#373535" stroke-width="1.6464" stroke-linecap="round" stroke-linejoin="round" stroke-miterlimit="3" d="
						M217.046,105.366c1.069,0,1.811,0.617,2.229,1.849"/>
					
						<path fill="none" stroke="#373535" stroke-width="1.6464" stroke-linecap="round" stroke-linejoin="round" stroke-miterlimit="3" d="
						M207.039,150.185c0.067-0.067,0.237-0.188,0.513-0.363c0.15-0.098,0.227-0.215,0.231-0.355v1.098h-0.38
						c-0.474,0.958-1.15,2.439-2.032,4.442c-0.847,1.959-1.526,3.441-2.032,4.443c0.374,6.792-1.97,10.376-7.035,10.75h-1.123
						c-0.241-0.243-0.49-0.594-0.743-1.057c-0.319-0.606-0.561-1.245-0.727-1.915h-0.743v0.758c-0.627,2.224-1.353,4.74-2.18,7.547
						c-0.528,1.761-0.792,2.703-0.792,2.824l-0.363-3.717c-0.395,2.048-1.139,4.52-2.229,7.414c-0.771,1.245-1.575,2.307-2.41,3.188
						c-0.43,0.474-0.858,0.891-1.289,1.256"/>
					
						<line fill="none" stroke="#373535" stroke-width="1.6464" stroke-linecap="round" stroke-linejoin="round" stroke-miterlimit="3" x1="207.039" y1="150.185" x2="207.039" y2="150.564"/>
					
						<path fill="none" stroke="#373535" stroke-width="1.6464" stroke-linecap="round" stroke-linejoin="round" stroke-miterlimit="3" d="
						M178.882,189.471l-2.534,0.941c-0.548,0.224-1.127,0.438-1.743,0.644 M183.705,186.499l-1.106-1.106
						c-0.858,1.255-1.503,2.076-1.932,2.46c-1.059,0.957-2.498,1.81-4.319,2.56 M182.598,185.392c0-0.155,0.176-0.126,0.528,0.081
						c0.165,0.111,0.336,0.232,0.513,0.364L182.598,185.392z"/>
					
						<path fill="none" stroke="#373535" stroke-width="1.6464" stroke-linecap="round" stroke-linejoin="round" stroke-miterlimit="3" d="
						M143.312,233.927h2.592c0.783-0.111,1.944-0.232,3.485-0.364c1.343-0.121,2.405-0.248,3.188-0.38
						c1.695,0,3.628-0.06,5.795-0.181c2.158-0.122,3.436-0.182,3.831-0.182c1.63-0.363,3.127-1.459,4.493-3.286
						c1.3-1.761,2.521-4.249,3.666-7.464c0.528-2.026,0.897-3.259,1.106-3.699v-0.381c0.188-0.362,0.297-0.606,0.33-0.727
						c0.033-0.12,0.049-0.369,0.049-0.743l1.108-10.387v-1.106l-0.363-1.851v-3.336c-0.252-1.112-0.424-1.882-0.513-2.312
						c-0.155-0.715-0.232-1.304-0.232-1.766v-4.443"/>
					
						<path fill="none" stroke="#373535" stroke-width="1.6464" stroke-linecap="round" stroke-linejoin="round" stroke-miterlimit="3" d="
						M171.847,191.32c-0.594,0-1.381-0.154-2.361-0.462c-1.266-0.429-2.334-0.771-3.203-1.024c0.715,1.245,0.946,2.263,0.694,3.055
						c-0.221,0.738-0.82,1.201-1.8,1.387c-1.311,0-2.499-0.276-3.567-0.825c-1.079-0.562-1.992-1.393-2.742-2.493
						c-0.395-0.528-0.858-1.222-1.387-2.081c-0.44-0.727-0.715-1.145-0.825-1.256"/>
					
						<line fill="none" stroke="#373535" stroke-width="1.6464" stroke-linecap="round" stroke-linejoin="round" stroke-miterlimit="3" x1="173.698" y1="191.32" x2="171.847" y2="191.32"/>
					
						<path fill="none" stroke="#373535" stroke-width="1.6464" stroke-linecap="round" stroke-linejoin="round" stroke-miterlimit="3" d="
						M156.655,186.862h-0.363l0.182,0.232c0.116,0.192,0.177,0.362,0.181,0.511V186.862z"/>
					
						<path fill="none" stroke="#373535" stroke-width="1.6464" stroke-linecap="round" stroke-linejoin="round" stroke-miterlimit="3" d="
						M156.655,187.62l-0.363,1.108h-0.38c-3.005-0.363-5.23-2.34-6.671-5.928"/>
					
						<path fill="none" stroke="#373535" stroke-width="1.6464" stroke-linecap="round" stroke-linejoin="round" stroke-miterlimit="3" d="
						M183.705,186.499c0,3.787-0.248,7.618-0.743,11.494v1.85c-0.474,2.939-0.969,6.985-1.486,12.139
						c-0.308,3.027-0.8,7.992-1.471,14.895c2.346,0.727,4.117,1.547,5.318,2.461c1.145,0.88,1.717,1.795,1.717,2.741
						c0,0.385-0.281,0.743-0.843,1.073c-0.594,0.342-1.426,0.6-2.493,0.777c0.507,0.341,0.891,0.775,1.157,1.304
						c0.209,0.43,0.313,0.859,0.313,1.289l-0.727,0.363h-1.486l-0.363-0.363h-0.76c-1.772,7.289-3.407,12.953-4.904,16.992
						c-1.387,3.732-2.466,5.599-3.237,5.599c-1.387-0.352-2.586-1.112-3.599-2.28c-0.881-1.034-1.526-2.262-1.933-3.681"/>
					
						<path fill="none" stroke="#373535" stroke-width="1.6464" stroke-linecap="round" stroke-linejoin="round" stroke-miterlimit="3" d="
						M147.754,179.464l-0.727,1.106c-1.123,0-2.235-1.112-3.336-3.336"/>
					
						<path fill="none" stroke="#373535" stroke-width="1.6464" stroke-linecap="round" stroke-linejoin="round" stroke-miterlimit="3" d="
						M149.24,182.8c-0.342-0.342-0.633-0.803-0.876-1.387c-0.188-0.451-0.391-1.101-0.611-1.948"/>
					
						<path fill="none" stroke="#373535" stroke-width="1.6464" stroke-linecap="round" stroke-linejoin="round" stroke-miterlimit="3" d="
						M147.754,179.464c-0.286-0.144-0.964-0.562-2.032-1.256c-0.782-0.506-1.459-0.832-2.032-0.975"/>
					
						<path fill="none" stroke="#373535" stroke-width="1.6464" stroke-linecap="round" stroke-linejoin="round" stroke-miterlimit="3" d="
						M134.79,234.67c0-0.221-0.06-0.606-0.181-1.157c-0.121-0.561-0.182-1.039-0.182-1.437c0.551-0.825,1.15-1.927,1.801-3.303
						c0.715-1.509,1.227-2.51,1.534-3.005c0.243-0.551,0.44-0.969,0.595-1.256c0.276-0.484,0.572-0.803,0.891-0.958
						c0-0.274,0.06-0.632,0.181-1.073c0.121-0.43,0.182-0.694,0.182-0.794c-13.2,4.106-23.576,7.107-31.129,9.001
						c-7.024,1.751-10.728,2.334-11.115,1.751c-1.046-1.046-1.167-2.775-0.363-5.186c0.187-1.112,1.453-2.207,3.798-3.285
						c2.345-1.079,5.648-2.081,9.908-3.005c2.51-0.463,5.862-1.095,10.058-1.899c2.994-0.583,4.948-0.941,5.862-1.075
						c-1.309-0.318-2.698-0.528-4.162-0.627c-0.858-0.067-2.058-0.1-3.6-0.1c-2.598-0.374-4.823-0.374-6.671,0h-1.866
						c-4.437,0.484-8.015,0.727-10.734,0.727l-6.308-0.727v-3.715c1.619-0.727,3.842-1.205,6.671-1.437
						c2.653-0.22,5.99-0.237,10.008-0.049c1.64,0.165,3.325,0.274,5.053,0.33c1.013,0.032,2.417,0.049,4.21,0.049
						c4.623,0.374,7.712,0.374,9.264,0c1.101,0,2.196-0.446,3.286-1.338c1.079-0.891,2.081-2.174,3.005-3.848
						c0.363-0.55,0.721-1.25,1.075-2.096c0.33-0.814,0.588-1.601,0.776-2.361c0.749-1.09,1.122-2.076,1.122-2.956
						c1.234-5.373,1.851-10.189,1.851-14.449v-0.381c-0.991-2.642-1.486-5.482-1.486-8.522"/>
					
						<path fill="none" stroke="#373535" stroke-width="1.6464" stroke-linecap="round" stroke-linejoin="round" stroke-miterlimit="3" d="
						M138.126,176.49c0.662,0.331,1.541,0.546,2.642,0.645c0.65,0.066,1.623,0.099,2.923,0.099"/>
					
						<path fill="none" stroke="#373535" stroke-width="1.6464" stroke-linecap="round" stroke-linejoin="round" stroke-miterlimit="3" d="
						M149.24,182.8c-0.816,5.262-1.553,10.943-2.214,17.042c0,1.289-0.077,2.72-0.231,4.294c-0.056,0.517-0.232,2.047-0.528,4.591
						c2.257,0.946,3.991,1.859,5.201,2.741c1.234,0.902,1.851,1.717,1.851,2.444c0,0.827-0.985,1.57-2.956,2.229
						c0.738,0.385,1.106,1.128,1.106,2.229h-1.865l-0.727-0.381h-0.381c-0.738,2.346-1.696,5.418-2.874,9.216
						c-0.924,2.95-1.695,5.191-2.31,6.722"/>
					
						<path fill="none" stroke="#373535" stroke-width="1.6464" stroke-linecap="round" stroke-linejoin="round" stroke-miterlimit="3" d="
						M159.99,238.368c-2.653-0.373-5.125-0.373-7.414,0c-1.541,0-2.714,0.018-3.518,0.05c-1.364,0.044-2.538,0.149-3.517,0.314
						h-0.744c-0.429,0-0.705,0.016-0.825,0.049c-0.188,0.044-0.281,0.155-0.281,0.33h-0.38c-2.565,0.484-4.861,0.869-6.887,1.156
						c-1.519,0.22-2.432,0.33-2.741,0.33h-6.672v-3.715c1.86-1.112,4.453-1.849,7.778-2.213"/>
					
						<path fill="none" stroke="#373535" stroke-width="1.6464" stroke-linecap="round" stroke-linejoin="round" stroke-miterlimit="3" d="
						M134.79,234.67c1.178-0.33,2.51-0.546,3.998-0.644c0.924-0.067,2.432-0.099,4.524-0.099"/>
					
						<path fill="none" stroke="#373535" stroke-width="1.6464" stroke-linecap="round" stroke-linejoin="round" stroke-miterlimit="3" d="
						M168.132,252.455c0.286-0.286,0.518-0.715,0.694-1.288c0.232-0.772,0.375-1.206,0.43-1.305c1.926-3.544,3.286-6.512,4.079-8.9
						l-0.743-0.364c-13.023,4.999-23.152,8.73-30.386,11.197c-6.727,2.301-10.184,3.259-10.371,2.872
						c-0.406-0.606-0.671-1.205-0.792-1.8c-0.143-0.715-0.126-1.596,0.049-2.642c0-1.078,1.172-2.207,3.518-3.385
						c2.19-1.09,5.587-2.307,10.188-3.65c2.598-0.858,5.824-1.944,9.677-3.253c2.73-0.891,4.569-1.415,5.516-1.57"/>
					
						<line fill="none" stroke="#373535" stroke-width="1.6464" stroke-linecap="round" stroke-linejoin="round" stroke-miterlimit="3" x1="161.841" y1="237.625" x2="159.99" y2="238.368"/>
					
						<path fill="none" stroke="#373535" stroke-width="1.6464" stroke-linecap="round" stroke-linejoin="round" stroke-miterlimit="3" d="
						M102.935,1.262c-0.101-0.053-0.206-0.102-0.314-0.149c-0.069,0.003-0.135,0.037-0.198,0.099
						c-0.154,0.155-0.23,0.418-0.23,0.792c3.589-0.176,6.891-0.055,9.908,0.363c2.532,0.341,4.542,0.836,6.028,1.486h-1.561
						c0.283,0.009,0.495,0.024,0.636,0.049c0.275,0.045,0.584,0.149,0.925,0.314c1.256,0.254,2.18,0.484,2.774,0.694
						c1.035,0.363,1.959,0.875,2.775,1.536c0.33,0,0.628,0.077,0.891,0.231c0.162,0.098,0.359,0.266,0.586,0.504
						c-0.248-0.248-0.74-0.371-1.477-0.371h-0.363l0.363,0.38l3.699,1.849l2.972,1.849c-0.254,0.254-0.749,0.38-1.486,0.38
						c0.363,0.363,0.858,0.919,1.486,1.668c0.606,0.727,1.101,1.278,1.486,1.651c0,0.143,0.077,0.347,0.232,0.611
						c0.276,0.462,0.44,0.754,0.495,0.875l1.123,1.106c0.044,0.088,0.214,0.385,0.513,0.891c0.154,0.254,0.23,0.452,0.23,0.595v0.38
						 M116.262,3.855h0.305 M92.185,2.732c0.265-0.254,0.452-0.418,0.562-0.495c0.198-0.155,0.38-0.232,0.546-0.232
						c1.167-0.462,2.218-0.803,3.155-1.024c1.343-0.307,2.764-0.462,4.26-0.462c0.188,0,0.513,0.077,0.975,0.232
						c0.342,0.111,0.655,0.232,0.941,0.363"/>
					<path fill="#373535" d="M112.052,35.942c0,0.837-0.215,1.547-0.644,2.13c-0.429,0.595-0.953,0.891-1.569,0.891
						c-0.617,0-1.145-0.297-1.585-0.891c-0.429-0.584-0.644-1.293-0.644-2.13c0-0.836,0.215-1.547,0.644-2.129
						c0.44-0.595,0.968-0.891,1.585-0.891c0.617,0,1.139,0.297,1.569,0.891C111.837,34.394,112.052,35.105,112.052,35.942z"/>
					<path fill="#373535" d="M72.45,28.808c0,0.55-0.055,1.013-0.166,1.387c-0.11,0.385-0.248,0.577-0.413,0.577
						c-0.154,0-0.286-0.192-0.396-0.577c-0.111-0.374-0.166-0.836-0.166-1.387c0-0.551,0.055-1.019,0.166-1.404
						c0.11-0.385,0.243-0.577,0.396-0.577c0.165,0,0.303,0.193,0.413,0.577C72.396,27.79,72.45,28.257,72.45,28.808z"/>
				</g>
			</g>
		</g>
	</g>
</g>
</svg>
