<?xml version="1.0" encoding="utf-8"?>
<!-- Generator: Adobe Illustrator 17.0.1, SVG Export Plug-In . SVG Version: 6.00 Build 0)  -->
<!DOCTYPE svg PUBLIC "-//W3C//DTD SVG 1.1//EN" "http://www.w3.org/Graphics/SVG/1.1/DTD/svg11.dtd">
<svg version="1.1" id="Layer_1" xmlns="http://www.w3.org/2000/svg" xmlns:xlink="http://www.w3.org/1999/xlink" x="0px" y="0px"
	 width="175.842px" height="256.337px" viewBox="45.983 3.388 175.842 256.337"
	 enable-background="new 45.983 3.388 175.842 256.337" xml:space="preserve">
<g id="Layer_1_2_" display="none">
	<g display="inline">
		<g id="Layer_1_1_">
			<g>
				<g id="Layer_1_3_">
					<g>
						
							<path fill="#FFFFFF" stroke="#373535" stroke-width="1.5" stroke-linecap="round" stroke-linejoin="round" stroke-miterlimit="3" d="
							M76.963,23.152c1.444-1.775,4.037-3.912,7.779-6.409h0.331l-2.016,2.362l0.497-0.376c0.451-0.281,0.958-0.492,1.52-0.631
							c0.481-0.191,1.595-0.682,3.34-1.475c1.926-0.882,3.626-1.629,5.101-2.241c0.12,0,0.235-0.055,0.346-0.166
							c0.11-0.12,0.22-0.18,0.331-0.18"/>
						
							<path fill="#FFFFFF" stroke="#373535" stroke-width="1.5" stroke-linecap="round" stroke-linejoin="round" stroke-miterlimit="3" d="
							M76.963,23.152c-0.1,0.341-0.25,0.792-0.451,1.354c-0.141,0.471-0.211,0.922-0.211,1.354h0.346"/>
						
							<path fill="#FFFFFF" stroke="#373535" stroke-width="1.5" stroke-linecap="round" stroke-linejoin="round" stroke-miterlimit="3" d="
							M76.647,25.861c0.21-0.231,0.316-0.457,0.316-0.677v-2.031"/>
						
							<path fill="#FFFFFF" stroke="#373535" stroke-width="1.5" stroke-linecap="round" stroke-linejoin="round" stroke-miterlimit="3" d="
							M76.301,34.963c-0.902-1.204-1.354-2.327-1.354-3.37c0-0.431,0.07-0.953,0.21-1.564c0.2-0.752,0.356-1.354,0.466-1.806"/>
						
							<path fill="#FFFFFF" stroke="#373535" stroke-width="1.5" stroke-linecap="round" stroke-linejoin="round" stroke-miterlimit="3" d="
							M76.301,38.679c-0.922,0.933-1.865,1.931-2.828,2.994c-0.953,1.073-1.475,1.65-1.565,1.73v0.346
							c-1.033,1.375-1.79,2.568-2.271,3.581c-0.512,1.063-0.768,2.006-0.768,2.828c0,0.161,0.085,0.346,0.256,0.557
							c0.1,0.12,0.356,0.386,0.767,0.797v0.331l-0.045,0.255c-0.061,0.231-0.161,0.481-0.301,0.752
							c-0.221,0.221-0.501,0.617-0.843,1.188c-0.331,0.562-0.612,0.953-0.842,1.173c0.23,0,0.401-0.015,0.512-0.045
							c0.18-0.041,0.346-0.135,0.496-0.286v1.701"/>
						
							<line fill="none" stroke="#373535" stroke-width="1.5" stroke-linecap="round" stroke-linejoin="round" stroke-miterlimit="3" x1="76.301" y1="38.679" x2="76.301" y2="34.963"/>
						
							<path fill="#FFFFFF" stroke="#373535" stroke-width="1.5" stroke-linecap="round" stroke-linejoin="round" stroke-miterlimit="3" d="
							M76.301,34.963"/>
						
							<path fill="#FFFFFF" stroke="#373535" stroke-width="1.5" stroke-linecap="round" stroke-linejoin="round" stroke-miterlimit="3" d="
							M76.301,38.679"/>
						
							<path fill="#FFFFFF" stroke="#373535" stroke-width="1.5" stroke-linecap="round" stroke-linejoin="round" stroke-miterlimit="3" d="
							M63.483,72.425l5.055-13.827l0.21-1.271c-0.027,0.084-0.057,0.172-0.09,0.263c-0.08,0.22-0.231,0.557-0.451,1.008v0.331
							c-0.121,0.23-0.236,0.512-0.346,0.843c-0.11,0.351-0.221,0.631-0.331,0.842h-0.346l-0.331,1.023 M68.869,56.583l-0.12,0.745"
							/>
						
							<polyline fill="#FFFFFF" stroke="#373535" stroke-width="1.5" stroke-linecap="round" stroke-linejoin="round" stroke-miterlimit="3" points="
							75.97,27.876 76.647,26.192 76.647,25.861 						"/>
						
							<polyline fill="#FFFFFF" stroke="#373535" stroke-width="1.5" stroke-linecap="round" stroke-linejoin="round" stroke-miterlimit="3" points="
							54.366,93.699 54.366,93.022 54.697,92.691 54.697,91.668 55.043,91.337 						"/>
						
							<line fill="none" stroke="#373535" stroke-width="1.5" stroke-linecap="round" stroke-linejoin="round" stroke-miterlimit="3" x1="67.184" y1="60.615" x2="67.184" y2="60.284"/>
						
							<path fill="#FFFFFF" stroke="#373535" stroke-width="1.5" stroke-linecap="round" stroke-linejoin="round" stroke-miterlimit="3" d="
							M61.121,74.802c0.301-0.922,0.747-1.826,1.339-2.708"/>
						
							<path fill="#FFFFFF" stroke="#373535" stroke-width="1.5" stroke-linecap="round" stroke-linejoin="round" stroke-miterlimit="3" d="
							M58.082,80.881c0.241-0.241,0.562-0.623,0.963-1.144c0.381-0.492,0.622-0.788,0.722-0.887c0-0.08,0.055-0.261,0.166-0.542
							c0.11-0.291,0.166-0.562,0.166-0.812c0.271-0.411,0.542-0.903,0.812-1.475c0.25-0.592,0.431-0.998,0.542-1.219h-0.331"/>
						
							<path fill="#FFFFFF" stroke="#373535" stroke-width="1.5" stroke-linecap="round" stroke-linejoin="round" stroke-miterlimit="3" d="
							M61.121,74.802l-1.023,1.008c0.01-0.01,0.18-0.141,0.511-0.392C60.811,75.269,60.98,75.063,61.121,74.802z"/>
						
							<path fill="#FFFFFF" stroke="#373535" stroke-width="1.5" stroke-linecap="round" stroke-linejoin="round" stroke-miterlimit="3" d="
							M56.051,83.919c-0.05,0-0.12,0.015-0.21,0.045c-0.17,0.05-0.326,0.146-0.466,0.286h0.346L56.051,83.919z"/>
						
							<path fill="#FFFFFF" stroke="#373535" stroke-width="1.5" stroke-linecap="round" stroke-linejoin="round" stroke-miterlimit="3" d="
							M56.051,83.919c0.241-0.25,0.396-0.421,0.466-0.512c0.141-0.19,0.211-0.361,0.211-0.511c0-0.14,0.24-0.426,0.722-0.857
							c0.552-0.472,0.883-0.763,0.994-0.873"/>
						
							<polyline fill="#FFFFFF" stroke="#373535" stroke-width="1.5" stroke-linecap="round" stroke-linejoin="round" stroke-miterlimit="3" points="
							56.728,83.574 56.728,83.243 56.051,83.919 						"/>
						
							<path fill="#FFFFFF" stroke="#373535" stroke-width="1.5" stroke-linecap="round" stroke-linejoin="round" stroke-miterlimit="3" d="
							M55.374,90.329c0.672-2.016,1.008-3.59,1.008-4.724c0.23-0.451,0.346-1.013,0.346-1.685"/>
						
							<path fill="#FFFFFF" stroke="#373535" stroke-width="1.5" stroke-linecap="round" stroke-linejoin="round" stroke-miterlimit="3" d="
							M169.807,62.992c0.171,0,0.266,0.015,0.286,0.045c0.03,0.03,0.045,0.125,0.045,0.286c0.281,0,0.632,0.07,1.053,0.211
							c0.251,0.09,0.688,0.246,1.31,0.466c0.371,0.271,1.018,0.707,1.94,1.309c0.713,0.451,1.194,0.802,1.444,1.053h0.331"/>
						
							<line fill="none" stroke="#373535" stroke-width="1.5" stroke-linecap="round" stroke-linejoin="round" stroke-miterlimit="3" x1="160.689" y1="58.599" x2="160.013" y2="58.599"/>
						
							<path fill="#FFFFFF" stroke="#373535" stroke-width="1.5" stroke-linecap="round" stroke-linejoin="round" stroke-miterlimit="3" d="
							M176.216,66.362h-0.331l0.993,0.677h0.347c-0.171-0.17-0.302-0.286-0.392-0.346C176.753,66.643,176.547,66.532,176.216,66.362
							z"/>
						
							<path fill="#FFFFFF" stroke="#373535" stroke-width="1.5" stroke-linecap="round" stroke-linejoin="round" stroke-miterlimit="3" d="
							M54.366,94.376c0.141-0.141,0.236-0.296,0.286-0.467l0.045-0.21v-0.677l-0.331,0.677"/>
						
							<path fill="#FFFFFF" stroke="#373535" stroke-width="1.5" stroke-linecap="round" stroke-linejoin="round" stroke-miterlimit="3" d="
							M54.366,93.699c-0.321,0.321-0.577,0.717-0.767,1.188c-0.171,0.421-0.256,0.813-0.256,1.174v0.677
							c0.03-0.09,0.201-0.637,0.511-1.64C54.055,94.436,54.225,93.97,54.366,93.699z"/>
						
							<path fill="#FFFFFF" stroke="#373535" stroke-width="1.5" stroke-linecap="round" stroke-linejoin="round" stroke-miterlimit="3" d="
							M56.051,106.186v-3.701c-0.15,0-0.246,0.07-0.286,0.21c-0.03,0.08-0.045,0.231-0.045,0.452
							c-0.451,1.765-0.677,2.778-0.677,3.039v0.346c-0.17,0.171-0.271,0.281-0.301,0.332c-0.026,0.052-0.041,0.147-0.045,0.285
							v-0.963c0-0.842-0.055-1.88-0.166-3.114c-0.11-1.244-0.166-2.116-0.166-2.618v-3.716"/>
						
							<path fill="#FFFFFF" stroke="#373535" stroke-width="1.5" stroke-linecap="round" stroke-linejoin="round" stroke-miterlimit="3" d="
							M66.507,124.075v1.685h-0.331c-0.923-1.234-1.695-2.397-2.317-3.49c-0.512-0.902-0.863-1.65-1.053-2.242
							c-0.141-0.281-0.296-0.537-0.466-0.768l-0.211-0.256v1.354c-0.241-0.933-0.426-1.605-0.557-2.016
							c-0.23-0.752-0.496-1.429-0.797-2.031c-0.16-0.16-0.256-0.271-0.286-0.331s-0.045-0.175-0.045-0.346
							c-0.763-1.665-1.37-3.094-1.821-4.288c-0.355-0.958-0.536-1.547-0.542-1.768c0,1.792-0.116,3.249-0.346,4.371h-0.331
							c-0.321-0.642-0.592-1.5-0.812-2.573c-0.18-0.933-0.361-2.212-0.542-3.836v-0.677"/>
						
							<path fill="#FFFFFF" stroke="#373535" stroke-width="1.5" stroke-linecap="round" stroke-linejoin="round" stroke-miterlimit="3" d="
							M66.507,124.075v-0.677l-1.008-1.008c0,0.181,0.085,0.417,0.256,0.707C65.936,123.428,66.186,123.754,66.507,124.075z"/>
						
							<path fill="#FFFFFF" stroke="#373535" stroke-width="1.5" stroke-linecap="round" stroke-linejoin="round" stroke-miterlimit="3" d="
							M70.9,125.429c0,0.451-0.115,0.902-0.346,1.354"/>
						
							<path fill="#FFFFFF" stroke="#373535" stroke-width="1.5" stroke-linecap="round" stroke-linejoin="round" stroke-miterlimit="3" d="
							M70.223,125.083c0,0.23,0.055,0.517,0.166,0.857s0.166,0.622,0.166,0.843"/>
						
							<path fill="#FFFFFF" stroke="#373535" stroke-width="1.5" stroke-linecap="round" stroke-linejoin="round" stroke-miterlimit="3" d="
							M70.554,126.783c0,0.22-0.015,0.391-0.045,0.511c-0.04,0.181-0.135,0.346-0.286,0.497c-0.843-0.501-1.59-1.078-2.242-1.73
							c-0.642-0.642-1.133-1.304-1.474-1.986"/>
						
							<line fill="none" stroke="#373535" stroke-width="1.5" stroke-linecap="round" stroke-linejoin="round" stroke-miterlimit="3" x1="70.9" y1="125.083" x2="70.223" y2="125.083"/>
						
							<path fill="#FFFFFF" stroke="#373535" stroke-width="1.5" stroke-linecap="round" stroke-linejoin="round" stroke-miterlimit="3" d="
							M81.703,132.516c-0.662,0-1.504-0.407-2.527-1.219c-0.973-0.763-2.157-1.931-3.551-3.506l-1.008-1.008v0.677
							c0,1.344-0.116,2.357-0.346,3.039c-1.013-0.512-1.801-1.048-2.362-1.609c-0.562-0.562-1.013-1.264-1.354-2.106"/>
						
							<path fill="#FFFFFF" stroke="#373535" stroke-width="1.5" stroke-linecap="round" stroke-linejoin="round" stroke-miterlimit="3" d="
							M98.463,142.046c-0.056-0.055-0.131-0.082-0.226-0.082c0-0.214-0.103-0.324-0.308-0.331h0.654
							c-0.131,0.12-0.176,0.246-0.136,0.376C98.452,142.021,98.458,142.034,98.463,142.046c0.032,0.033,0.057,0.076,0.075,0.128
							c0.028,0.085,0.043,0.228,0.045,0.43C98.577,142.447,98.537,142.262,98.463,142.046z"/>
						
							<path fill="#FFFFFF" stroke="#373535" stroke-width="1.5" stroke-linecap="round" stroke-linejoin="round" stroke-miterlimit="3" d="
							M112.079,150.073c0.23,0.701,0.386,1.193,0.466,1.474c0.141,0.521,0.211,0.928,0.211,1.219h-0.677
							c-0.532,0-1.359-0.437-2.483-1.309c-1.234-0.953-2.658-2.317-4.273-4.093c-0.22,0.231-0.331,0.457-0.331,0.678
							c-0.361,0-0.868-0.266-1.52-0.798c-0.723-0.581-1.565-1.439-2.528-2.572c-0.492-0.472-0.943-0.812-1.354-1.023
							c-0.11-0.23-0.266-0.441-0.466-0.632c-0.141-0.141-0.21-0.266-0.21-0.376c-0.111,0-0.221-0.11-0.331-0.331
							c-0.11-0.23-0.226-0.346-0.346-0.346"/>
						
							<path fill="#FFFFFF" stroke="#373535" stroke-width="1.5" stroke-linecap="round" stroke-linejoin="round" stroke-miterlimit="3" d="
							M98.237,141.964c-0.221,0-0.331-0.11-0.331-0.331c-1.093-0.943-2.287-1.815-3.581-2.618c-1.043-0.642-2.327-1.344-3.852-2.106
							c-4.794-2.046-7.763-3.354-8.906-3.927"/>
						
							<path fill="#FFFFFF" stroke="#373535" stroke-width="1.5" stroke-linecap="round" stroke-linejoin="round" stroke-miterlimit="3" d="
							M116.126,152.435c-0.391-0.16-0.687-0.285-0.888-0.376c-0.341-0.15-0.717-0.366-1.128-0.646
							c-0.17-0.161-0.286-0.256-0.346-0.286c-0.05-0.03-0.16-0.045-0.331-0.045c-0.451-0.221-0.902-0.557-1.354-1.008"/>
						
							<path fill="#FFFFFF" stroke="#373535" stroke-width="1.5" stroke-linecap="round" stroke-linejoin="round" stroke-miterlimit="3" d="
							M111.402,149.742h0.083h0.595v0.323c-0.003-0.146-0.074-0.239-0.211-0.278c-0.07-0.026-0.198-0.041-0.384-0.045"/>
						
							<path fill="#FFFFFF" stroke="#373535" stroke-width="1.5" stroke-linecap="round" stroke-linejoin="round" stroke-miterlimit="3" d="
							M176.216,66.362l11.134,4.725c0.862,0,1.775,0.336,2.738,1.008c1.013,0.702,2.016,1.72,3.009,3.054
							c1.985,1.976,3.28,3.255,3.881,3.836c1.154,1.113,2.107,1.971,2.859,2.573h-0.662c0.17,0.17,0.281,0.266,0.331,0.286
							c0.061,0.03,0.171,0.045,0.331,0.045c0.581,0.14,1.354,0.607,2.316,1.399c0.592,0.471,1.62,1.354,3.085,2.648
							c1.715,0.341,3.063,0.863,4.047,1.564c1.023,0.723,1.7,1.666,2.031,2.829c0.752,1.495,1.304,2.914,1.654,4.258
							c0.251,0.983,0.376,1.815,0.376,2.498c0,0.652-0.226,1.439-0.677,2.362c-0.521-0.521-0.928-0.903-1.219-1.144
							c-0.541-0.451-1.033-0.747-1.474-0.888"/>
						
							<polygon fill="#FFFFFF" stroke="#373535" stroke-width="1.5" stroke-linecap="round" stroke-linejoin="round" stroke-miterlimit="3" points="
							134.36,28.554 133.684,27.876 133.684,28.554 						"/>
						
							<path fill="#FFFFFF" stroke="#373535" stroke-width="1.5" stroke-linecap="round" stroke-linejoin="round" stroke-miterlimit="3" d="
							M134.36,28.899v0.332c0.451,0.451,0.788,0.902,1.008,1.354v0.331c0.15,0.15,0.251,0.321,0.302,0.511
							c0.029,0.11,0.045,0.276,0.045,0.497c0.24,0.491,0.576,0.943,1.008,1.354c0.171,0.17,0.271,0.301,0.301,0.391
							c0.03,0.081,0.045,0.291,0.045,0.632c0.101,0.211,0.266,0.602,0.497,1.174c0.221,0.551,0.391,0.943,0.512,1.173v0.677
							c0.351,0.542,0.602,0.982,0.752,1.324c0.17,0.381,0.256,0.732,0.256,1.053"/>
						
							<line fill="none" stroke="#373535" stroke-width="1.5" stroke-linecap="round" stroke-linejoin="round" stroke-miterlimit="3" x1="134.36" y1="28.554" x2="134.36" y2="28.899"/>
						
							<line fill="none" stroke="#373535" stroke-width="1.5" stroke-linecap="round" stroke-linejoin="round" stroke-miterlimit="3" x1="139.085" y1="39.702" x2="139.085" y2="40.033"/>
						
							<path fill="#FFFFFF" stroke="#373535" stroke-width="1.5" stroke-linecap="round" stroke-linejoin="round" stroke-miterlimit="3" d="
							M160.013,58.599c-0.603-0.902-1.49-1.775-2.663-2.618c-0.732-0.532-1.871-1.234-3.415-2.106l-1.956-0.993
							c0.286,0.154,0.547,0.329,0.782,0.527c0.181,0.15,0.456,0.416,0.827,0.797c-1.996-0.913-4.017-1.56-6.062-1.94
							c-1.556-0.281-3.245-0.421-5.07-0.421c0-2.458-0.096-4.213-0.286-5.266c-0.211-1.154-0.562-1.65-1.053-1.489
							c-0.19,0-0.417-0.156-0.678-0.466c-0.29-0.341-0.517-0.748-0.677-1.219c-0.451-0.882-0.677-2.005-0.677-3.37"/>
						
							<path fill="#FFFFFF" stroke="#373535" stroke-width="1.5" stroke-linecap="round" stroke-linejoin="round" stroke-miterlimit="3" d="
							M139.085,40.033c0,0.12,0.055,0.346,0.165,0.677c0.107,0.321,0.162,0.539,0.166,0.655c-0.002-0.66-0.112-1.214-0.331-1.663"/>
						
							<path fill="#FFFFFF" stroke="#373535" stroke-width="1.5" stroke-linecap="round" stroke-linejoin="round" stroke-miterlimit="3" d="
							M169.807,62.992c-1.364-0.682-2.267-1.023-2.708-1.023h-0.331v0.346c0.512,0.251,1.409,0.587,2.693,1.008h0.677
							L169.807,62.992z"/>
						
							<polyline fill="#FFFFFF" stroke="#373535" stroke-width="1.5" stroke-linecap="round" stroke-linejoin="round" stroke-miterlimit="3" points="
							159.336,58.599 160.005,58.599 160.689,58.599 						"/>
						
							<path fill="#FFFFFF" stroke="#373535" stroke-width="1.5" stroke-linecap="round" stroke-linejoin="round" stroke-miterlimit="3" d="
							M160.013,58.599c0.17-0.17,0.325-0.256,0.466-0.256s0.211,0.085,0.211,0.256c0.571,0,1.233,0.1,1.986,0.301
							c0.893,0.23,1.805,0.582,2.738,1.053c2.086,1.184,3.55,2.197,4.393,3.04"/>
						
							<path fill="#FFFFFF" stroke="#373535" stroke-width="1.5" stroke-linecap="round" stroke-linejoin="round" stroke-miterlimit="3" d="
							M76.963,23.152c0,0.903-0.105,1.806-0.316,2.708"/>
						
							<path fill="#FFFFFF" stroke="#373535" stroke-width="1.5" stroke-linecap="round" stroke-linejoin="round" stroke-miterlimit="3" d="
							M160.689,58.599l0.045,0.166c0.051,0.11,0.146,0.166,0.286,0.166V58.6L160.689,58.599L160.689,58.599z"/>
						
							<line fill="none" stroke="#373535" stroke-width="1.5" stroke-linecap="round" stroke-linejoin="round" stroke-miterlimit="3" x1="94.19" y1="14.035" x2="95.875" y2="14.035"/>
						
							<path fill="#FFFFFF" stroke="#373535" stroke-width="1.5" stroke-linecap="round" stroke-linejoin="round" stroke-miterlimit="3" d="
							M95.875,14.035l1.008-1.008h-0.331c-0.441,0-0.833,0.085-1.173,0.255c-0.07,0.041-0.467,0.291-1.189,0.752"/>
						
							<path fill="#FFFFFF" stroke="#373535" stroke-width="1.5" stroke-linecap="round" stroke-linejoin="round" stroke-miterlimit="3" d="
							M137.73,172.339c-2.006-0.501-3.761-1.483-5.266-2.948c-1.485-1.444-2.653-3.274-3.506-5.491l-0.331,0.346
							c-1.364,0-2.462-0.517-3.295-1.55c-0.843-1.062-1.435-2.683-1.775-4.859c-0.16,0-0.256-0.015-0.286-0.045
							c-0.026-0.026-0.042-0.106-0.045-0.241v0.286c-2.628-1.865-4.434-3.44-5.417-4.725c0-0.229-0.015-0.4-0.045-0.511
							c-0.04-0.181-0.135-0.347-0.286-0.497v0.331h-0.331 M128.959,163.568v0.331"/>
						
							<path fill="#FFFFFF" stroke="#373535" stroke-width="1.5" stroke-linecap="round" stroke-linejoin="round" stroke-miterlimit="3" d="
							M140.77,158.167c-0.501,1.855-0.672,3.741-0.512,5.657c0.171,1.905,0.678,3.957,1.52,6.153
							c0.231,0.23,0.347,0.456,0.347,0.677c0.11,0.221,0.221,0.617,0.331,1.188c0.11,0.552,0.226,0.943,0.346,1.174"/>
						
							<path fill="#FFFFFF" stroke="#373535" stroke-width="1.5" stroke-linecap="round" stroke-linejoin="round" stroke-miterlimit="3" d="
							M209.978,97.415c0.29,1.484,1.298,4.298,3.023,8.44v3.37h-1.339"/>
						
							<line fill="none" stroke="#373535" stroke-width="1.5" stroke-linecap="round" stroke-linejoin="round" stroke-miterlimit="3" x1="209.978" y1="97.415" x2="209.631" y2="97.415"/>
						
							<path fill="#FFFFFF" stroke="#373535" stroke-width="1.5" stroke-linecap="round" stroke-linejoin="round" stroke-miterlimit="3" d="
							M213.001,125.083V125c-0.004-0.176-0.019-0.299-0.045-0.369c-0.04-0.141-0.135-0.211-0.286-0.211
							c-0.17-0.17-0.285-0.271-0.346-0.301c-0.05-0.03-0.161-0.045-0.331-0.045h-0.331c-0.11,0.542-0.226,1.314-0.346,2.317
							c-0.11,0.913-0.221,1.605-0.331,2.077l-0.677,2.693c-0.101,0.2-0.271,0.597-0.512,1.188c-0.221,0.552-0.392,0.942-0.512,1.174
							l-0.677,1.354c-0.231,0.241-0.382,0.412-0.451,0.512c-0.141,0.19-0.211,0.361-0.211,0.512
							c-0.271,0.13-0.552,0.366-0.843,0.707c-0.501,0.592-0.782,0.918-0.843,0.978l-0.677,0.331c0-0.16-0.015-0.256-0.045-0.285
							c-0.03-0.03-0.131-0.046-0.301-0.046c-0.141-0.14-0.291-0.24-0.452-0.301l-0.21-0.045v2.708
							c-0.913,2.668-2.041,4.805-3.386,6.409c-0.12,0.23-0.235,0.567-0.346,1.008c-0.11,0.451-0.221,0.788-0.331,1.009
							 M211.662,109.226c0.692,0.692,1.249,1.815,1.67,3.37c0.451,1.625,0.677,3.426,0.677,5.401v0.677
							c0,0.903-0.109,1.806-0.33,2.708c0,0.17-0.016,0.296-0.046,0.376c-0.02,0.081-0.115,0.291-0.286,0.632
							c0,0.672-0.115,1.234-0.346,1.685V125 M201.19,146.356v-2.708"/>
						
							<path fill="#FFFFFF" stroke="#373535" stroke-width="1.5" stroke-linecap="round" stroke-linejoin="round" stroke-miterlimit="3" d="
							M209.631,107.541c0.974,0,1.65,0.562,2.031,1.685"/>
						
							<path fill="#FFFFFF" stroke="#373535" stroke-width="1.5" stroke-linecap="round" stroke-linejoin="round" stroke-miterlimit="3" d="
							M200.514,148.373c0.061-0.061,0.216-0.171,0.467-0.331c0.137-0.089,0.207-0.196,0.21-0.323v1h-0.346
							c-0.432,0.873-1.048,2.222-1.851,4.047c-0.772,1.785-1.39,3.135-1.851,4.048c0.341,6.188-1.795,9.453-6.409,9.794h-1.023
							c-0.22-0.221-0.446-0.541-0.677-0.963c-0.291-0.552-0.511-1.134-0.662-1.745h-0.677v0.691
							c-0.571,2.026-1.233,4.318-1.986,6.876c-0.481,1.604-0.722,2.463-0.722,2.573l-0.331-3.386
							c-0.36,1.866-1.038,4.118-2.031,6.755c-0.702,1.134-1.435,2.102-2.196,2.904c-0.392,0.432-0.782,0.812-1.174,1.144"/>
						
							<line fill="none" stroke="#373535" stroke-width="1.5" stroke-linecap="round" stroke-linejoin="round" stroke-miterlimit="3" x1="200.514" y1="148.373" x2="200.514" y2="148.719"/>
						
							<path fill="#FFFFFF" stroke="#373535" stroke-width="1.5" stroke-linecap="round" stroke-linejoin="round" stroke-miterlimit="3" d="
							M174.861,184.165l-2.309,0.857c-0.499,0.204-1.027,0.399-1.588,0.587 M179.255,181.457l-1.008-1.008
							c-0.782,1.143-1.369,1.891-1.76,2.241c-0.965,0.872-2.276,1.649-3.935,2.332 M178.247,180.449c0-0.141,0.16-0.115,0.481,0.074
							c0.15,0.101,0.306,0.211,0.467,0.332L178.247,180.449z"/>
						
							<path fill="#FFFFFF" stroke="#373535" stroke-width="1.5" stroke-linecap="round" stroke-linejoin="round" stroke-miterlimit="3" d="
							M142.455,224.667h2.361c0.713-0.101,1.771-0.211,3.175-0.332c1.224-0.11,2.191-0.226,2.904-0.346
							c1.544,0,3.305-0.055,5.28-0.165c1.966-0.111,3.13-0.166,3.49-0.166c1.485-0.331,2.849-1.329,4.093-2.994
							c1.184-1.604,2.297-3.871,3.34-6.8c0.481-1.846,0.817-2.969,1.008-3.37v-0.347c0.171-0.33,0.271-0.552,0.301-0.662
							c0.03-0.109,0.045-0.336,0.045-0.677l1.009-9.463v-1.008l-0.331-1.686v-3.039c-0.23-1.013-0.386-1.715-0.467-2.106
							c-0.141-0.651-0.211-1.188-0.211-1.609v-4.048"/>
						
							<path fill="#FFFFFF" stroke="#373535" stroke-width="1.5" stroke-linecap="round" stroke-linejoin="round" stroke-miterlimit="3" d="
							M168.452,185.85c-0.541,0-1.258-0.14-2.151-0.421c-1.153-0.391-2.126-0.702-2.918-0.933c0.651,1.134,0.862,2.062,0.632,2.783
							c-0.201,0.672-0.747,1.094-1.64,1.264c-1.194,0-2.277-0.251-3.25-0.752c-0.983-0.512-1.815-1.269-2.498-2.271
							c-0.36-0.481-0.782-1.113-1.264-1.896c-0.401-0.662-0.651-1.043-0.752-1.144"/>
						
							<line fill="none" stroke="#373535" stroke-width="1.5" stroke-linecap="round" stroke-linejoin="round" stroke-miterlimit="3" x1="170.138" y1="185.85" x2="168.452" y2="185.85"/>
						
							<path fill="#FFFFFF" stroke="#373535" stroke-width="1.5" stroke-linecap="round" stroke-linejoin="round" stroke-miterlimit="3" d="
							M154.611,181.788h-0.331l0.166,0.211c0.106,0.175,0.161,0.33,0.165,0.466V181.788z"/>
						
							<path fill="#FFFFFF" stroke="#373535" stroke-width="1.5" stroke-linecap="round" stroke-linejoin="round" stroke-miterlimit="3" d="
							M154.611,182.479l-0.331,1.009h-0.346c-2.738-0.331-4.765-2.132-6.078-5.401"/>
						
							<path fill="#FFFFFF" stroke="#373535" stroke-width="1.5" stroke-linecap="round" stroke-linejoin="round" stroke-miterlimit="3" d="
							M179.255,181.457c0,3.45-0.226,6.94-0.677,10.472v1.685c-0.432,2.678-0.883,6.364-1.354,11.059
							c-0.281,2.758-0.729,7.281-1.34,13.57c2.137,0.662,3.751,1.409,4.845,2.242c1.043,0.802,1.564,1.635,1.564,2.497
							c0,0.351-0.256,0.677-0.768,0.978c-0.541,0.312-1.299,0.547-2.271,0.708c0.462,0.311,0.812,0.706,1.054,1.188
							c0.19,0.392,0.285,0.783,0.285,1.174l-0.662,0.331h-1.354l-0.331-0.331h-0.692c-1.614,6.641-3.104,11.801-4.468,15.481
							c-1.264,3.4-2.247,5.101-2.949,5.101c-1.264-0.321-2.356-1.013-3.279-2.077c-0.803-0.942-1.39-2.061-1.761-3.354"/>
						
							<path fill="#FFFFFF" stroke="#373535" stroke-width="1.5" stroke-linecap="round" stroke-linejoin="round" stroke-miterlimit="3" d="
							M147.856,178.087c-0.312-0.312-0.577-0.732-0.798-1.264c-0.171-0.411-0.356-1.003-0.557-1.775"/>
						
							<path fill="#FFFFFF" stroke="#373535" stroke-width="1.5" stroke-linecap="round" stroke-linejoin="round" stroke-miterlimit="3" d="
							M146.502,175.048c-0.261-0.131-0.878-0.512-1.851-1.144c-0.712-0.461-1.329-0.758-1.851-0.888"/>
						
							<path fill="#FFFFFF" stroke="#373535" stroke-width="1.5" stroke-linecap="round" stroke-linejoin="round" stroke-miterlimit="3" d="
							M157.65,228.713c-2.417-0.34-4.669-0.34-6.755,0c-1.404,0-2.473,0.016-3.205,0.046c-1.243,0.04-2.312,0.136-3.204,0.286
							h-0.678c-0.391,0-0.642,0.015-0.752,0.045c-0.171,0.04-0.256,0.141-0.256,0.301h-0.346c-2.337,0.441-4.429,0.792-6.274,1.053
							c-1.384,0.2-2.216,0.301-2.497,0.301h-6.079v-3.385c1.695-1.013,4.057-1.685,7.086-2.016"/>
						<g>
							
								<path fill="#FFFFFF" stroke="#373535" stroke-width="1.5" stroke-linecap="round" stroke-linejoin="round" stroke-miterlimit="3" d="
								M146.502,175.048l-0.662,1.008c-1.023,0-2.036-1.013-3.039-3.039"/>
							
								<path fill="#FFFFFF" stroke="#373535" stroke-width="1.5" stroke-linecap="round" stroke-linejoin="round" stroke-miterlimit="3" d="
								M134.691,225.344c0-0.201-0.055-0.552-0.165-1.054c-0.11-0.511-0.166-0.947-0.166-1.309c0.502-0.752,1.048-1.756,1.641-3.009
								c0.651-1.375,1.118-2.287,1.398-2.738c0.221-0.502,0.401-0.883,0.542-1.144c0.251-0.441,0.521-0.732,0.812-0.873
								c0-0.25,0.055-0.576,0.165-0.978c0.11-0.392,0.166-0.632,0.166-0.723c-12.026,3.741-21.479,6.475-28.36,8.2
								c-6.399,1.595-9.774,2.126-10.126,1.595c-0.953-0.953-1.063-2.528-0.331-4.725c0.17-1.013,1.324-2.011,3.46-2.993
								c2.136-0.983,5.146-1.896,9.027-2.738c2.287-0.422,5.341-0.998,9.163-1.73c2.728-0.531,4.508-0.857,5.341-0.979
								c-1.193-0.29-2.458-0.481-3.792-0.571c-0.782-0.061-1.875-0.091-3.28-0.091c-2.367-0.341-4.394-0.341-6.078,0h-1.7
								c-4.042,0.441-7.302,0.662-9.779,0.662l-5.747-0.662v-3.385c1.475-0.662,3.5-1.098,6.078-1.309
								c2.417-0.2,5.457-0.216,9.118-0.045c1.494,0.15,3.029,0.25,4.604,0.301c0.923,0.029,2.202,0.045,3.836,0.045
								c4.212,0.341,7.026,0.341,8.44,0c1.003,0,2.001-0.406,2.994-1.219c0.983-0.812,1.896-1.981,2.738-3.506
								c0.331-0.501,0.657-1.139,0.979-1.91c0.301-0.742,0.536-1.459,0.707-2.151c0.682-0.993,1.022-1.891,1.022-2.693
								c1.124-4.895,1.686-9.283,1.686-13.164v-0.347c-0.903-2.407-1.354-4.994-1.354-7.764"/>
							
								<path fill="#FFFFFF" stroke="#373535" stroke-width="1.5" stroke-linecap="round" stroke-linejoin="round" stroke-miterlimit="3" d="
								M137.73,172.339c0.603,0.302,1.404,0.497,2.407,0.588c0.592,0.06,1.479,0.09,2.663,0.09"/>
							
								<path fill="#FFFFFF" stroke="#373535" stroke-width="1.5" stroke-linecap="round" stroke-linejoin="round" stroke-miterlimit="3" d="
								M147.856,178.087c-0.743,4.794-1.415,9.97-2.017,15.526c0,1.174-0.07,2.478-0.21,3.912c-0.051,0.471-0.211,1.865-0.481,4.183
								c2.056,0.862,3.636,1.694,4.738,2.497c1.124,0.822,1.686,1.564,1.686,2.227c0,0.753-0.897,1.43-2.693,2.031
								c0.672,0.351,1.008,1.028,1.008,2.031h-1.699l-0.662-0.347h-0.347c-0.672,2.137-1.545,4.936-2.618,8.396
								c-0.842,2.688-1.544,4.729-2.105,6.124"/>
							
								<path fill="#FFFFFF" stroke="#373535" stroke-width="1.5" stroke-linecap="round" stroke-linejoin="round" stroke-miterlimit="3" d="
								M134.691,225.344c1.073-0.301,2.287-0.497,3.642-0.587c0.842-0.061,2.216-0.09,4.122-0.09"/>
						</g>
						
							<path fill="#FFFFFF" stroke="#373535" stroke-width="1.5" stroke-linecap="round" stroke-linejoin="round" stroke-miterlimit="3" d="
							M165.067,241.547c0.261-0.261,0.472-0.651,0.632-1.173c0.211-0.703,0.342-1.099,0.392-1.189
							c1.755-3.229,2.994-5.933,3.716-8.108l-0.677-0.332c-11.865,4.554-21.093,7.954-27.683,10.201
							c-6.129,2.096-9.278,2.969-9.449,2.617c-0.37-0.552-0.611-1.098-0.722-1.64c-0.13-0.651-0.115-1.454,0.045-2.407
							c0-0.982,1.068-2.011,3.205-3.084c1.995-0.993,5.09-2.102,9.282-3.325c2.367-0.782,5.306-1.771,8.816-2.964
							c2.487-0.812,4.163-1.289,5.025-1.43"/>
						
							<line fill="none" stroke="#373535" stroke-width="1.5" stroke-linecap="round" stroke-linejoin="round" stroke-miterlimit="3" x1="159.336" y1="228.036" x2="157.65" y2="228.713"/>
						
							<path fill="#FFFFFF" stroke="#373535" stroke-width="1.5" stroke-linecap="round" stroke-linejoin="round" stroke-miterlimit="3" d="
							M105.669,12.696c-0.092-0.048-0.188-0.093-0.286-0.136c-0.063,0.003-0.123,0.034-0.18,0.09c-0.14,0.141-0.21,0.381-0.21,0.722
							c3.27-0.16,6.278-0.05,9.027,0.331c2.307,0.311,4.138,0.762,5.492,1.354h-1.422c0.258,0.008,0.451,0.022,0.579,0.045
							c0.251,0.041,0.532,0.136,0.843,0.286c1.144,0.231,1.986,0.441,2.527,0.632c0.943,0.331,1.785,0.797,2.528,1.399
							c0.301,0,0.572,0.07,0.812,0.21c0.148,0.089,0.327,0.242,0.534,0.459c-0.226-0.226-0.674-0.338-1.346-0.338h-0.331
							l0.331,0.346l3.37,1.685l2.708,1.685c-0.231,0.231-0.682,0.346-1.354,0.346c0.331,0.331,0.782,0.837,1.354,1.52
							c0.552,0.662,1.003,1.164,1.354,1.504c0,0.13,0.07,0.316,0.211,0.557c0.251,0.421,0.401,0.687,0.451,0.797l1.023,1.008
							c0.04,0.08,0.195,0.351,0.467,0.812c0.14,0.231,0.21,0.412,0.21,0.542v0.346 M117.811,15.058h0.278 M95.875,14.035
							c0.241-0.231,0.412-0.381,0.512-0.451c0.18-0.141,0.346-0.211,0.497-0.211c1.063-0.421,2.021-0.732,2.874-0.933
							c1.224-0.28,2.518-0.421,3.881-0.421c0.171,0,0.467,0.07,0.888,0.211c0.312,0.101,0.597,0.211,0.857,0.331"/>
					</g>
				</g>
			</g>
		</g>
	</g>
</g>
<g id="Layer_2">
	
		<path fill="#FFFFFF" stroke="#373535" stroke-width="1.6383" stroke-linecap="round" stroke-linejoin="round" stroke-miterlimit="3" d="
		M70.915,33.834c-2.762,2.596-7.062,4.495-8.657,8c-1.228,2.697-1.267,6.564-1.538,9.447c-0.365,3.897-1.506,5.736-2.912,9.233
		c-1.147,2.854-1.34,5.343-2.729,8.231c-1.865,3.876-4.181,6.22-5.291,10.587c-0.765,3.011-2.181,4.597-2.538,7.655
		c-0.801,6.864-0.262,14.948-0.369,22.126c0.261-0.73,0.611-0.904,0.938-1.417c0.925,2.803,1.124,5.806,1.317,8.707
		c0.716-1.215,1.817-2.113,3.173-2.673c0.519,11.273,8.009,18.233,19.631,20.629c-0.615-1.16-0.814-2.403-1.056-3.801
		c1.934,2.931,4.66,7.389,8.087,8.605c2.03,0.72,4.108,0.107,6.147,1.354c2.242,1.374,3.552,2.985,6.073,4.189
		c4.612,2.203,8.087,3.271,10.823,7.471c1.859,2.854,3.588,8.015,8.022,6.858c-0.15-1.27,3.592-0.615,2.386-1.784
		c3.638,0.55,4.099,1.217,4.388,5.416c1.313-0.056,2.64,0.116,3.893,0.511c0.282,2.957,0.362,7.311,0.932,6.871
		c6.849-0.786,6.078,3.423,9.657,6.781c1.408,1.322,4.112,2.283,5.74,3.646c1.564,1.31,2.061,2.35,4.07,2.539
		c1.871,0.175,3.373-1.569,5.199-1.057c2.243,0.627,2.12,3.207,3.242,4.772c1.69,2.362,3.202,2.074,5.307,3.456
		c5.223,3.426,7.432,6.791,15.072,5.899c0.091-1.319-0.574-2.437-1.646-3.146c2.942-0.217,10.326,1.109,13.222-0.787
		c2.511-1.643,1.445-5.618,2.569-7.904c0.89-1.812,3.242-3.523,4.63-5.516c1.695-2.433,2.266-4.304,2.756-7.239
		c1.448,2.381,8.274,3.722,10.196,1.304c1.932-2.435-0.708-5.895-0.756-8.568c-0.078-4.354,1.615-7.235,3.357-11.074
		c0.842-1.853,1.04-3.148,1.745-5.274c0.582-1.753,1.637-4.301,3.503-5.314c2.777-1.508,2.38,0.996,4.062-1.912
		c0.626-1.082,0.6-4.226,0.782-5.419c0.47-3.068,0.036-6.263,0.78-9.259c1.729-0.305,3.593-0.05,5.027,1.009
		c0.306-5.589-0.701-11.242-1.336-16.727c-0.357-3.085-0.396-9.279-2.673-11.514c0.242,0.517,0.479,0.619,0.774,1.018
		c1.031-0.519,3.73-1.12,4.071-2.259c0.274-0.915-2.033-5.47-2.617-6.495c-1.371-2.405-2.943-3.742-5.557-5.481
		c-2.546-1.693-5.473-2.532-8.128-4.048c-3.118-1.779-2.278-0.892-3.715-3.988c-2.17-4.675-6.732-9.111-12.401-10.248
		c-2.124-0.426-4.919-0.177-6.631-1.138c-0.794-0.446-1.899-2.201-2.786-2.866c-4.15-3.111-10.181-3.528-14.831-5.084
		c0.553-1.576-0.007-3.125-1.324-4.088c0.066,0.144,0.051,0.285-0.044,0.425c-0.112-8.877-14.398-8.826-19.874-8.457
		c1.127-3.776-2.005-6.349-2.983-9.731c-0.76-2.628-1.879-3.674-3.054-6.215c-0.983-2.127-0.232-4.714-0.951-6.753
		c-0.587-1.659-2.048-2.735-2.928-4.483c-0.624-1.239-0.173-4.051-1.209-5.161c-2.014-2.152-6.775-2.252-9.357-4.126
		c-3.334-2.419-3.091-3.136-7.584-3.518c-1.797-0.153-3.886-0.013-5.681-0.296c-4.348-0.687-8.04-1.971-12.565-1.411
		c-3.095,0.384-5.641,2.108-8.676,3.009c-2.158,0.64-4.652,1.083-6.413,1.775c-0.24,0.497-0.404,1.017-0.488,1.561
		c-2.981,1.104-5.887-0.059-8.988,0.633c-4.228,0.944-3.102,2.189-3.097,6.337c0.004,4.412,0.865,6.755,1.737,10.695
		c1.101,4.976-2.594,4.855,0.084,4.751"/>
	
		<path fill="#FFFFFF" stroke="#373535" stroke-width="1.6383" stroke-linecap="round" stroke-linejoin="round" stroke-miterlimit="3" d="
		M90.795,49.614c-0.416-0.198-0.941-0.367-1.577-0.51c-0.723-0.154-1.43-0.23-2.12-0.23c-0.591,0-2.558,0.374-5.898,1.117
		c-1.819,0.362-3.275,0.806-4.371,1.331c-1.074,0.516-1.704,1.052-1.89,1.611"/>
	
		<path fill="#FFFFFF" stroke="#373535" stroke-width="1.6383" stroke-linecap="round" stroke-linejoin="round" stroke-miterlimit="3" d="
		M95.576,49.252h-1.479c-1.227,0.241-2.327,0.362-3.303,0.362"/>
	
		<path fill="#FFFFFF" stroke="#373535" stroke-width="1.6383" stroke-linecap="round" stroke-linejoin="round" stroke-miterlimit="3" d="
		M74.938,52.933c-1.786,1.611-1.019,2.104,2.3,1.479c3.09-0.58,9.202-2.299,18.338-5.16"/>
	
		<path fill="#FFFFFF" stroke="#373535" stroke-width="1.6383" stroke-linecap="round" stroke-linejoin="round" stroke-miterlimit="3" d="
		M97.795,47.051c-0.472,0.449-0.964,1.057-1.479,1.823c-0.154,0-0.324,0.067-0.51,0.199l-0.23,0.18"/>
	
		<path fill="#FFFFFF" stroke="#373535" stroke-width="1.6383" stroke-linecap="round" stroke-linejoin="round" stroke-miterlimit="3" d="
		M81.938,28.235c-0.175,0-0.296-0.016-0.362-0.049c-0.066-0.023-0.191-0.127-0.378-0.312"/>
	
		<path fill="#FFFFFF" stroke="#373535" stroke-width="1.6383" stroke-linecap="round" stroke-linejoin="round" stroke-miterlimit="3" d="
		M102.955,44.453c-1.895,0.384-3.419,0.45-4.57,0.199c-1.216-0.275-2.272-0.953-3.17-2.038c-1.271-1.446-2.455-2.552-3.55-3.319
		c-1.063-0.735-1.974-1.102-2.728-1.102c-0.394,0-0.805-0.34-1.233-1.018c-0.47-0.734-0.794-1.627-0.969-2.679
		c-0.329-0.81-0.696-1.577-1.101-2.3c-0.241-0.405-0.614-0.992-1.117-1.758c-0.154,0-0.258-0.06-0.312-0.181l-0.049-0.181
		l-0.379-0.362"/>
	
		<polyline fill="#FFFFFF" stroke="#373535" stroke-width="1.6383" stroke-linecap="round" stroke-linejoin="round" stroke-miterlimit="3" points="
		80.837,24.177 80.837,24.555 81.199,26.017 81.199,27.874 	"/>
	
		<path fill="#FFFFFF" stroke="#373535" stroke-width="1.6383" stroke-linecap="round" stroke-linejoin="round" stroke-miterlimit="3" d="
		M67.559,27.496c0.362,1.052,0.85,2.031,1.462,2.941H69.4l0.378-1.462c-0.186-1.228-0.329-2.136-0.427-2.728
		c-0.164-1.029-0.394-1.84-0.69-2.432c-0.351-1.094-0.625-1.665-0.821-1.708c-0.186-0.044-0.28,0.4-0.28,1.331"/>
	
		<path fill="#FFFFFF" stroke="#373535" stroke-width="1.6383" stroke-linecap="round" stroke-linejoin="round" stroke-miterlimit="3" d="
		M74.938,52.933c-0.504-0.164-0.997-0.269-1.479-0.311c-0.307-0.033-0.799-0.05-1.479-0.05v-3.698"/>
	
		<path fill="#FFFFFF" stroke="#373535" stroke-width="1.6383" stroke-linecap="round" stroke-linejoin="round" stroke-miterlimit="3" d="
		M102.955,44.453c-1.666,0.548-2.892,1.024-3.681,1.431c-0.811,0.404-1.304,0.795-1.479,1.166c-0.164,0.153-0.487,0.257-0.97,0.312
		c-0.274,0.032-0.69,0.049-1.249,0.049c-3.263-2.061-6.211-2.921-8.84-2.58c-2.498,0-5.571,0.614-9.218,1.84
		c-3.134,1.173-4.858,1.907-5.176,2.202h-0.362"/>
	
		<path fill="#FFFFFF" stroke="#373535" stroke-width="1.6383" stroke-linecap="round" stroke-linejoin="round" stroke-miterlimit="3" d="
		M108.853,40.774c0.405,0.832-0.213,1.566-1.856,2.202c-0.164,0.175-0.362,0.285-0.592,0.329c-0.154,0.033-0.443,0.049-0.872,0.049
		c-0.241,0.121-0.674,0.307-1.298,0.559c-0.604,0.241-1.03,0.423-1.282,0.542"/>
	
		<path fill="#FFFFFF" stroke="#373535" stroke-width="1.6383" stroke-linecap="round" stroke-linejoin="round" stroke-miterlimit="3" d="
		M71.981,48.873c0-0.153-0.093-0.273-0.28-0.36c-0.296-0.121-0.569-0.247-0.821-0.378c-0.734-2.18-1.101-3.775-1.101-4.783
		c0-0.667,0.033-1.156,0.098-1.462c0.098-0.493,0.312-0.986,0.641-1.479v-0.378c0.285-0.284,0.592-0.727,0.92-1.331
		c0.472-0.877,0.773-1.419,0.904-1.626c0.229-0.329,0.542-0.756,0.937-1.281c0.35-0.472,0.658-0.904,0.92-1.299
		c1.512-1.895,2.816-3.368,3.911-4.42c1.161-1.106,2.191-1.84,3.09-2.202"/>
	
		<path fill="#FFFFFF" stroke="#373535" stroke-width="1.6383" stroke-linecap="round" stroke-linejoin="round" stroke-miterlimit="3" d="
		M106.636,30.076c-0.525,0.176-1.019,0.466-1.479,0.87c-0.394,0.362-0.887,0.932-1.479,1.708c-1.709,1.72-2.564,2.952-2.564,3.697
		l1.841,0.723l0.36,0.379c0.143,0,0.423,0.076,0.839,0.229c0.702,0.263,1.161,0.433,1.381,0.509h0.363
		c0.427,0,0.734-0.015,0.92-0.049c0.274-0.043,0.58-0.147,0.921-0.311c0.647-0.647,1.156-1.387,1.528-2.218
		c0.46-1.019,0.689-2.125,0.689-3.319c0-0.734-0.126-1.228-0.378-1.479c-0.241-0.482-0.454-0.816-0.64-1.002
		c-0.307-0.307-0.707-0.46-1.2-0.46c-0.241,0-0.422,0.033-0.543,0.098C106.987,29.55,106.799,29.759,106.636,30.076z"/>
	<path d="M108.707,33.625c0,0.832-0.213,1.539-0.641,2.12c-0.428,0.592-0.948,0.887-1.561,0.887c-0.614,0-1.14-0.296-1.578-0.887
		c-0.427-0.581-0.64-1.288-0.64-2.12s0.213-1.539,0.64-2.119c0.438-0.592,0.964-0.887,1.578-0.887c0.613,0,1.133,0.296,1.561,0.887
		C108.493,32.085,108.707,32.793,108.707,33.625z"/>
	<path d="M69.302,26.527c0,0.547-0.055,1.008-0.165,1.381c-0.109,0.383-0.247,0.574-0.411,0.574c-0.153,0-0.285-0.191-0.394-0.574
		c-0.11-0.372-0.165-0.832-0.165-1.381c0-0.548,0.055-1.014,0.165-1.397c0.109-0.383,0.241-0.574,0.394-0.574
		c0.164,0,0.301,0.192,0.411,0.574C69.247,25.514,69.302,25.979,69.302,26.527z"/>
	
		<path fill="#FFFFFF" stroke="#373535" stroke-width="1.6383" stroke-linecap="round" stroke-linejoin="round" stroke-miterlimit="3" d="
		M172.349,92.922c-0.23-0.943-0.428-1.665-0.592-2.169c-0.262-0.756-0.558-1.386-0.887-1.888c-0.208-0.209-0.454-0.559-0.739-1.052
		c-0.218-0.383-0.46-0.647-0.723-0.789c-0.251-0.241-0.378-0.488-0.378-0.739l-0.378-0.362c-2.323-2.333-5.884-4.793-10.681-7.378
		h-0.379"/>
	
		<path fill="#FFFFFF" stroke="#373535" stroke-width="1.6383" stroke-linecap="round" stroke-linejoin="round" stroke-miterlimit="3" d="
		M186.727,120.198c-0.35-0.35-0.624-0.706-0.821-1.068c-0.187-0.317-0.28-0.574-0.28-0.772c0-3.429-0.169-6.256-0.51-8.479
		c-0.328-2.136-0.778-3.49-1.347-4.06c-0.251-0.251-0.433-0.465-0.542-0.64c-0.208-0.307-0.394-0.707-0.559-1.2
		c-0.067-0.067-0.187-0.236-0.361-0.51c-0.098-0.153-0.22-0.229-0.362-0.229c-0.251-0.986-0.472-1.72-0.658-2.202
		c-0.307-0.821-0.707-1.561-1.2-2.218c-0.701-1.939-1.501-3.428-2.398-4.469c-0.81-0.952-1.606-1.43-2.383-1.43
		c-0.503,0.251-1.244,0.378-2.218,0.378"/>
	
		<path fill="#FFFFFF" stroke="#373535" stroke-width="1.6383" stroke-linecap="round" stroke-linejoin="round" stroke-miterlimit="3" d="
		M125.517,130.518l-0.362,1.101h-2.218c-2.816-1.052-5.023-2.765-6.622-5.143v-0.378c-0.876-1.391-1.474-2.925-1.791-4.601
		c-0.285-1.435-0.427-3.341-0.427-5.719c0-1.894,0.142-3.538,0.427-4.93c0.351-1.741,0.948-3.292,1.791-4.651"/>
	
		<path fill="#FFFFFF" stroke="#373535" stroke-width="1.6383" stroke-linecap="round" stroke-linejoin="round" stroke-miterlimit="3" d="
		M171.609,133.476c-0.25,0.516-0.422,0.887-0.509,1.117c-0.154,0.405-0.23,0.772-0.23,1.101c-0.547,0.536-0.914,0.887-1.101,1.052
		c-0.416,0.362-0.789,0.624-1.116,0.789c-1.009,0.493-1.862,0.86-2.564,1.101h-2.58c-0.658,0-1.396-0.154-2.217-0.46
		c-0.494-0.187-1.233-0.525-2.218-1.019c0.559,0.932,0.362,1.67-0.592,2.218c-0.964,0.559-2.727,0.926-5.292,1.101
		c-4.677,0-7.876-0.86-9.596-2.58c-0.274,0-0.569-0.12-0.887-0.362c-0.306-0.251-0.504-0.378-0.591-0.378l0.329,0.411
		c0.306,0.307,0.69,0.536,1.15,0.69l-3.319,0.378c-6.749,0-11.667-2.705-14.757-8.117v-0.362"/>
	
		<path fill="#FFFFFF" stroke="#373535" stroke-width="1.6383" stroke-linecap="round" stroke-linejoin="round" stroke-miterlimit="3" d="
		M125.517,130.157c-0.175-0.175-0.28-0.296-0.311-0.362c-0.033-0.067-0.05-0.192-0.05-0.378h0.362V130.157z"/>
	
		<path fill="#FFFFFF" stroke="#373535" stroke-width="1.6383" stroke-linecap="round" stroke-linejoin="round" stroke-miterlimit="3" d="
		M186.727,120.198c0,0.746-0.367,1.484-1.101,2.218l-0.739,0.741c-0.394,0.262-0.964,0.706-1.709,1.331
		c-0.876,0.745-1.538,1.282-1.987,1.611c-1.228,1.227-2.334,2.459-3.32,3.697c-0.164,0-0.268,0.076-0.311,0.23
		c-0.033,0.087-0.05,0.251-0.05,0.493c-0.667,0.449-1.775,1.434-3.318,2.958h-2.581"/>
	
		<line fill="none" stroke="#373535" stroke-width="1.6383" stroke-linecap="round" stroke-linejoin="round" stroke-miterlimit="3" x1="171.609" y1="132.376" x2="171.609" y2="133.476"/>
	
		<path fill="#FFFFFF" stroke="#373535" stroke-width="1.6383" stroke-linecap="round" stroke-linejoin="round" stroke-miterlimit="3" d="
		M148.943,134.137c0.405,0.832-0.213,1.566-1.856,2.202c-0.164,0.175-0.362,0.285-0.592,0.329c-0.154,0.033-0.443,0.049-0.872,0.049
		c-0.241,0.121-0.674,0.307-1.298,0.559c-0.604,0.241-1.03,0.423-1.282,0.542"/>
	
		<path fill="#FFFFFF" stroke="#373535" stroke-width="1.6383" stroke-linecap="round" stroke-linejoin="round" stroke-miterlimit="3" d="
		M137.629,182.009c0.604,5.662,2.472,11.077,1.651,16.944c-0.39,2.795-1.417,4.884-3.084,7.131c-1.062,1.43-2.039,2.818-2.943,4.323
		c-1.754,2.916-2.073,2.894-5.951,3.017c-4.704,0.149-9.441-0.013-14.148-0.014c-5.599-0.001-12.572-1.663-17.839-0.279
		c-2.574,0.677-4.118,2.569-1.332,4.228c2.929,1.745,9.871,0.692,13.387,0.692c5.354,0,11.928-0.666,16.702,1.645
		c-4.414,0.25-7.873,1.66-11.878,2.724c-2.099,0.558-4.769,1.36-6.812,2.305c-2.203,1.018-3.727,2.53-6.28,3.636
		c-2.265,0.98-2.548,1.393-2.507,3.86c5.509,2.726,9.781,1.6,14.835,0.087c2.659-0.796,5.49-0.912,8.165-1.684
		c3.17-0.916,5.651-2.987,8.884-3.721c2.44-0.555,5.493-1.15,7.402-2.267c0.374,2.591-1.444,5.309-0.982,8.1
		c0.43,2.597,0.559,2.721,3.535,2.66c1.315-0.027,3.718-0.264,4.6-1.107c1.479-1.413,1.264-5.852,1.822-7.923
		c0.493-1.833,1.175-4.024,1.344-6.081c0.162-0.111,0.692-0.5,0.667-0.484c1.485,0.249,3.309,0.645,4.79,0.477
		c-0.299-0.743-0.162-1.799-0.274-2.455c4.256,0.274-1.018-4.987-1.81-6.041c-2.216-2.946-2.39-4.461-2.39-8.199
		c0-3.91,0.084-7.807,0.266-11.724c0.082-1.76,0.339-3.482,0.286-5.27c-0.085-2.954,0.071-3.318-2.918-4.54
		c-2.3-0.94-4.384-1.088-6.837-0.753c-0.203,0.391-0.1,0.579-0.081,0.99"/>
	
		<path fill="#FFFFFF" stroke="#373535" stroke-width="1.6383" stroke-linecap="round" stroke-linejoin="round" stroke-miterlimit="3" d="
		M184.867,190.2c-4.165,4.005-10.87,2.135-16.136,2.192c2.263,9.066,3.306,17.448,3.303,26.949
		c-0.001,4.129-1.592,7.316-4.015,10.672c-2.128,2.949-4.334,2.894-7.862,3.317c-6.526,0.782-13.126,1.673-19.936,1.651
		c-2.734-0.01-6.624-0.074-9.058,1.586c-0.396,0.271-2.516,2.462-2.495,2.77c0.296,4.217,25.201,0.975,28.794,0.818
		c1.551-0.068,3.118,0.247,4.538-0.324c-0.274,0.252-12.313,1.953-10.552,1.665c-1.447,0.237-4.67,0.523-6.444,1.115
		c-1.64,0.549-2.105,1.347-3.459,2.161c-2.099,1.26-4.48,1.815-6.094,3.861c-4.463,5.653,3.312,6.499,7.81,5.513
		c6.47-1.419,11.064-4.969,16.697-8.197c2.528-1.448,5.691-1.666,8.431-2.58c2.168-0.724,5.664-2.793,7.808-1.722
		c-0.603,4.506-4.473,7.213-4.438,11.82c0.024,3.334,4.879,8.297,6.556,3.351c0.478-1.408,0.496-3.099,0.928-4.561
		c0.572-1.938,0.488-3.405,0.695-5.49c0.3-3.042,2.461-5.672,2.356-8.736c1.405-0.176,2.812-0.215,4.189-0.578
		c-0.137-0.82,0.043-1.043-0.779-1.748c1.565-3.755,4.291-2.392-0.435-5.986c-2.91-2.214-3.745-2.554-3.741-5.818
		c0.005-3.902-0.341-8.054,0.183-11.916c0.856-6.309,2.179-13.966,1.14-20.378c-1.079-0.171-1.242,0.523-2.157,0.65
		c-1.881,0.262-9.385-0.152-10.029,1.495"/>
</g>
</svg>
