<?xml version="1.0" encoding="utf-8"?>
<!-- Generator: Adobe Illustrator 17.0.1, SVG Export Plug-In . SVG Version: 6.00 Build 0)  -->
<!DOCTYPE svg PUBLIC "-//W3C//DTD SVG 1.1//EN" "http://www.w3.org/Graphics/SVG/1.1/DTD/svg11.dtd">
<svg version="1.1" id="Layer_1" xmlns="http://www.w3.org/2000/svg" xmlns:xlink="http://www.w3.org/1999/xlink" x="0px" y="0px"
	 width="255.128px" height="163.044px" viewBox="3.592 36.953 255.128 163.044"
	 enable-background="new 3.592 36.953 255.128 163.044" xml:space="preserve">
<g>
	<g id="Layer_1_1_">
		<g>
			<g id="Layer_1_3_">
				<g>
					<g>
						<path fill="#FFFFFF" d="M217.616,80.437l0.309,0.522c1.304,0.109,4.442,0.533,9.412,1.273
							c7.058,1.066,13.371,2.164,18.938,3.295c5.045,1.577,8.096,2.659,9.152,3.247c1.217,0.685,1.984,1.626,2.3,2.822
							c0.098,0.305,0.147,0.696,0.147,1.174c0,2.034-0.534,4.59-1.6,7.667c-1.544,4.568-3.696,6.9-6.46,6.998
							c1.533,1.718,2.301,2.99,2.301,3.818c0,0.033-0.027,0.184-0.082,0.456c0.119,0.565,0.18,1.413,0.18,2.545
							c-3.034,6.372-5.992,9.558-8.874,9.558c-1.175,0-2.197-0.332-3.067-0.995c-0.316-0.218-0.577-0.456-0.784-0.718
							c-0.184,0.174-0.489,0.402-0.913,0.685c-1.055,0.685-2.022,1.028-2.903,1.028c-1.164,0-2.459-0.543-3.883-1.631
							c-0.207-0.142-0.407-0.31-0.603-0.506c-0.076,0.228-0.245,0.619-0.506,1.174c-0.445,1.033-0.669,1.859-0.669,2.48
							c0,0.076,0.06,0.391,0.179,0.945c0.119,0.479,0.18,0.789,0.18,0.93c0,0.424-0.13,0.69-0.392,0.799
							c0.947,0.881,1.936,1.658,2.969,2.333c1.219,0.772,2.078,1.718,2.578,2.837c0.261,0.543,0.543,1.365,0.849,2.463
							c0.141,0.359,1.25,0.941,3.327,1.746c2.024,0.727,3.154,1.647,3.394,2.757c0.272,1.065,0.788,2.038,1.549,2.92
							c0.621,0.707,0.93,1.463,0.93,2.269v0.081c0,0.37-0.119,0.777-0.357,1.223c-0.239,0.49-0.359,0.974-0.359,1.451
							c0,0.033,0.168,0.436,0.505,1.207c0.326,0.739,0.49,1.294,0.49,1.664v0.424c0.044,0.37,0.065,0.663,0.065,0.88
							c0,0.632-0.021,1.066-0.065,1.305c-0.044,0.119-0.147,0.282-0.309,0.49c0.533,0.586,0.799,1.142,0.799,1.663
							c0,0.87-0.398,1.98-1.192,3.328c-0.935,1.577-1.587,2.697-1.957,3.36l-0.587,1.696c-0.337,0.782-0.728,1.278-1.175,1.484
							c-1.25,0.359-2.12,0.621-2.609,0.782c-1.273,0.349-2.028,0.816-2.268,1.403c-0.261,0.598-0.626,1.659-1.094,3.181
							c-0.533,1.348-1.463,2.468-2.788,3.359c-1.152,0.751-3.089,1.681-5.808,2.789c-1.382,0.598-2.696,1.12-3.947,1.566
							c-0.826,0.707-1.713,1.495-2.659,2.365c-1.631,1.576-2.975,2.822-4.029,3.735c-1.002,0.913-3.366,1.355-7.096,1.322
							c-3.654-0.044-6.002,0.506-7.046,1.648c-0.468,0.761-0.996,1.396-1.583,1.908c-1.098,1.088-2.337,1.631-3.719,1.631
							l-1.24-0.098c-0.239,0.065-0.534,0.098-0.881,0.098c-1.62,0-2.751-0.13-3.393-0.392c-0.675-0.261-1.576-0.391-2.708-0.391
							c-2.022,0-4.464,0.989-7.324,2.969c-2.871,1.957-5.346,2.935-7.422,2.935c-1.294,0-2.578-0.211-3.85-0.635
							c-1.273-0.445-2.17-0.669-2.692-0.669c-2.827,0-5.16,0.494-6.998,1.484c-1.816,0.967-3.844,1.451-6.084,1.451
							c-1.522,0-3.807-0.554-6.851-1.664c-3.068-1.131-5.235-1.696-6.508-1.696l-0.066,0.033c-0.239,0.359-0.832,0.641-1.777,0.849
							c-1.74,0.391-2.942,0.794-3.605,1.206c-0.554,0.381-1.223,0.908-2.007,1.582c-1.001,0.544-2.636,0.816-4.909,0.816
							c-1.478,0-2.73-0.282-3.751-0.848c-0.272-0.142-1.131-0.768-2.577-1.876c-2.414-1.838-5.808-2.757-10.179-2.757
							c-2.338,0-4.296,0.401-5.872,1.206c-1.566,0.805-2.768,1.207-3.605,1.207c-3.795,0-6.813-0.876-9.053-2.626
							c-0.891-0.838-1.587-1.436-2.088-1.795c-0.707-0.543-1.413-0.816-2.12-0.816c-1.327,0-2.582,0.202-3.768,0.604
							c-1.142,0.381-1.967,0.571-2.479,0.571c-5.003,0-8.645-0.51-10.929-1.532c-0.696-0.295-1.262-0.659-1.696-1.094
							c-0.163-0.228-0.315-0.413-0.456-0.554c-1.881-1.011-2.85-1.533-2.904-1.566c-1.175-0.685-1.794-1.273-1.859-1.762
							l-0.816-0.571c-0.359-0.207-1.148-0.337-2.365-0.392c-2.969-0.031-6.481-0.228-10.537-0.587
							c-1.915-0.173-3.649-1.354-5.204-3.539c-1.294-1.87-2.316-3.111-3.067-3.72c-1.882-1.49-4.65-2.49-8.303-3.001
							c-0.033,0-0.06-0.011-0.082-0.033c-1.674-0.272-3.04-0.968-4.094-2.088c-1.229-1.871-2.115-3.132-2.659-3.784
							c-1.936-2.185-2.996-3.36-3.181-3.523c-0.359-0.381-0.663-0.664-0.913-0.849l-0.489,0.211
							c-0.914,0.392-1.773,0.587-2.578,0.587c-1.61,0-2.588-0.728-2.935-2.185l-0.082-2.219c0-0.075,0.011-0.125,0.033-0.146
							c-0.903-0.153-1.582-0.849-2.038-2.088c-0.251-0.642-0.462-1.593-0.636-2.854c-0.141-0.881-0.745-1.909-1.811-3.084
							c-0.347-0.305-0.734-0.669-1.158-1.093h-0.082c-0.728,0-1.305-0.364-1.729-1.094c-0.282-0.51-0.424-0.913-0.424-1.206
							c0-0.609,0.354-1.094,1.06-1.452c-0.75-0.098-1.419-0.565-2.007-1.402c-0.185-0.272-0.337-0.534-0.456-0.782
							c-0.522-1.469-0.784-2.235-0.784-2.3c0-0.762,0.142-1.409,0.424-1.941c-0.642-0.35-1.229-0.974-1.762-1.876
							c-0.642-1.066-0.962-1.795-0.962-2.185c0-0.924,0.506-1.61,1.518-2.055c-0.838-0.153-1.495-0.908-1.974-2.268l-0.604-2.398
							c0-0.935,0.364-1.734,1.093-2.398c0.414-0.349,0.886-0.619,1.42-0.816l-0.065-0.033c-0.055-0.088-0.082-0.266-0.082-0.538
							c0-0.88,0.533-1.902,1.599-3.067l0.31-0.327c-0.044-0.108-0.088-0.282-0.13-0.522v-1.108c0-0.784,0.185-1.805,0.554-3.067
							c0.446-1.631,0.968-2.67,1.566-3.115c0.251-0.152,0.446-0.255,0.587-0.31c-0.327-0.152-0.49-0.401-0.49-0.75
							c0-1.121,0.788-2.158,2.365-3.115c0.619-0.37,1.196-0.636,1.729-0.799c0.119-3.447,1.641-5.453,4.567-6.019
							c0.033-1.805,1.397-2.855,4.094-3.149h0.293c-0.054-0.163-0.081-0.266-0.081-0.309c0-2.251,1.359-3.724,4.077-4.42v-0.147
							c0-0.468,0.397-0.995,1.191-1.582c0.989-0.75,2.18-1.142,3.573-1.175c2.674-0.033,4.986,0.146,6.933,0.538l-0.033-0.571
							c0-0.391,0.071-0.707,0.211-0.947c-0.033-0.076-0.048-0.163-0.048-0.261v-0.727c0-1.348,1.817-1.691,5.449-1.028
							c0.51-0.849,1.794-1.234,3.849-1.158c0.784,0.033,1.648,0.146,2.594,0.343c0.251-1.131,1.593-1.882,4.029-2.251
							c2.109-0.349,3.931-0.669,5.465-0.962c-2.001-0.424-3.588-1.191-4.763-2.3c-0.316-0.272-0.962-1.342-1.941-3.213
							c-0.598-1.729-1.001-2.811-1.207-3.246c-0.098-0.239-0.217-0.462-0.359-0.669c-0.305,0.218-0.74,0.37-1.305,0.456
							c-0.587,0.402-1.104,0.745-1.55,1.029c-1.37,0.869-2.256,1.305-2.659,1.305c-1.087,0-2.051-0.201-2.887-0.604
							c-0.728-0.445-1.142-0.679-1.24-0.701c-0.414-0.142-1.218-0.088-2.414,0.163c-0.86,0.184-1.74-0.142-2.643-0.979
							c-1.392-1.315-2.121-2.283-2.187-2.904c-0.087-1.24-0.207-2.088-0.359-2.544c-0.076,0-0.125,0.011-0.147,0.033
							c-1.131,0.38-3,0.571-5.611,0.571c-2.545,0-4.491-0.859-5.84-2.577l-1.305-2.626c0-0.348,0.011-0.604,0.033-0.767
							c-0.065,0.022-0.169,0.033-0.31,0.033c-3.295,0-5.231-0.13-5.808-0.391c-1.142-0.543-2.012-2.207-2.609-4.991
							c-0.891-0.468-1.518-0.853-1.876-1.158c-0.445-0.445-0.669-1.022-0.669-1.729c0-1.718,0.685-3.849,2.055-6.394
							c1.512-2.805,3.181-4.752,5.008-5.839c2.381-1.359,7.672-2.48,15.871-3.36c2.751-0.293,6.596-0.658,11.532-1.093
							c7.688-1.664,16.998-2.653,27.926-2.969c6.796-0.207,16.453-0.386,28.97-0.538l19.803,0.506
							c0.794-0.315,2.681-0.211,5.66,0.31c8.777,1.555,14.018,2.441,15.724,2.659c1.447,0.522,4.04,1.24,7.782,2.154
							c3.958,0.957,6.405,1.615,7.34,1.973l8.417,3.36c1.392,0.414,2.251,0.767,2.577,1.06c5.568,2.404,8.76,4.127,9.576,5.171
							c0.468,0,0.93,0.033,1.386,0.098c1.261,0.174,2.311,0.648,3.149,1.419c0.675,0.609,1.059,1.267,1.157,1.974
							c0.055-0.022,0.115-0.033,0.18-0.033c1.044-0.033,1.821,0.098,2.333,0.391c0.934,0.838,1.68,1.533,2.234,2.088
							c0.935,0.968,1.403,1.696,1.403,2.185v0.146c0.924-0.564,1.902-0.604,2.935-0.114c1.838,1.522,3.029,2.664,3.573,3.425
							c1.859,0,3.747,1.441,5.66,4.323l0.278,0.424c1.271-0.185,2.897,0.238,4.877,1.271c2.153,1.131,3.943,2.414,5.367,3.849
							C215.512,77.462,216.659,78.794,217.616,80.437z"/>
						<path fill="none" stroke="#292929" stroke-width="1.6863" d="M217.616,80.437c-0.958-1.642-2.104-2.975-3.442-3.997
							c-1.425-1.436-3.214-2.718-5.367-3.849c-1.98-1.033-3.605-1.457-4.877-1.271l-0.278-0.424
							c-1.913-2.881-3.801-4.323-5.66-4.323c-0.543-0.761-1.735-1.903-3.573-3.425c-1.033-0.49-2.011-0.451-2.935,0.114v-0.146
							c0-0.489-0.468-1.218-1.403-2.185c-0.554-0.554-1.3-1.25-2.234-2.088c-0.512-0.293-1.288-0.424-2.333-0.391
							c-0.066,0-0.125,0.011-0.18,0.033c-0.098-0.707-0.483-1.365-1.157-1.974c-0.838-0.772-1.888-1.244-3.149-1.419
							c-0.456-0.065-0.918-0.098-1.386-0.098c-0.816-1.044-4.007-2.768-9.576-5.171c-0.326-0.293-1.185-0.646-2.577-1.06
							l-8.417-3.36c-0.935-0.359-3.383-1.016-7.34-1.973c-3.741-0.913-6.335-1.631-7.782-2.154
							c-1.708-0.217-6.949-1.103-15.724-2.659c-2.979-0.522-4.867-0.625-5.66-0.31l-19.804-0.508
							c-12.517,0.152-22.174,0.332-28.97,0.538c-10.929,0.316-20.238,1.305-27.926,2.969c-4.937,0.435-8.781,0.799-11.532,1.093
							c-8.2,0.88-13.49,2.001-15.871,3.36c-1.827,1.087-3.496,3.034-5.008,5.839c-1.37,2.545-2.055,4.677-2.055,6.394
							c0,0.707,0.223,1.284,0.669,1.729c0.359,0.305,0.984,0.691,1.876,1.158c0.598,2.785,1.468,4.448,2.609,4.991
							c0.577,0.261,2.511,0.391,5.808,0.391c0.142,0,0.245-0.01,0.31-0.033c-0.022,0.163-0.033,0.418-0.033,0.767l1.305,2.626
							c1.349,1.718,3.295,2.577,5.84,2.577c2.61,0,4.48-0.19,5.611-0.571c0.022-0.021,0.071-0.033,0.147-0.033
							c0.152,0.456,0.272,1.305,0.359,2.544c0.065,0.621,0.795,1.589,2.187,2.904c0.903,0.838,1.783,1.164,2.643,0.979
							c1.196-0.251,2.001-0.305,2.414-0.163c0.098,0.021,0.512,0.255,1.24,0.701c0.838,0.402,1.8,0.604,2.887,0.604
							c0.402,0,1.288-0.435,2.659-1.305c0.446-0.283,0.962-0.625,1.55-1.029c0.565-0.087,1.001-0.238,1.305-0.456
							c0.141,0.207,0.261,0.429,0.359,0.669c0.207,0.435,0.609,1.517,1.207,3.246c0.979,1.871,1.626,2.942,1.941,3.213
							c1.174,1.11,2.762,1.876,4.763,2.3c-1.533,0.293-3.355,0.615-5.465,0.962c-2.436,0.37-3.778,1.12-4.029,2.251
							c-0.945-0.196-1.81-0.31-2.594-0.343c-2.055-0.076-3.339,0.309-3.849,1.158c-3.632-0.663-5.449-0.322-5.449,1.028v0.734
							c0,0.098,0.017,0.184,0.048,0.261c-0.141,0.239-0.211,0.555-0.211,0.947l0.033,0.571c-1.946-0.392-4.257-0.571-6.933-0.538
							c-1.392,0.033-2.582,0.424-3.573,1.175c-0.794,0.587-1.191,1.114-1.191,1.582v0.147c-2.718,0.696-4.077,2.17-4.077,4.42
							c0,0.044,0.027,0.146,0.081,0.309h-0.297c-2.697,0.293-4.062,1.343-4.094,3.149c-2.925,0.565-4.447,2.572-4.567,6.019
							c-0.533,0.163-1.11,0.429-1.729,0.799c-1.577,0.957-2.365,1.995-2.365,3.115c0,0.348,0.163,0.598,0.49,0.75
							c-0.141,0.055-0.337,0.159-0.587,0.31c-0.598,0.446-1.12,1.485-1.566,3.115c-0.37,1.261-0.554,2.283-0.554,3.067v1.108
							c0.044,0.239,0.088,0.414,0.13,0.522l-0.31,0.327c-1.066,1.164-1.599,2.185-1.599,3.067c0,0.272,0.027,0.451,0.082,0.538
							l0.065,0.033c-0.534,0.196-1.006,0.468-1.42,0.816c-0.728,0.663-1.093,1.463-1.093,2.398l0.604,2.398
							c0.479,1.359,1.137,2.115,1.974,2.268c-1.011,0.445-1.518,1.131-1.518,2.055c0,0.391,0.322,1.12,0.962,2.185
							c0.533,0.903,1.12,1.527,1.762,1.876c-0.282,0.533-0.424,1.179-0.424,1.941c0,0.065,0.261,0.831,0.784,2.3
							c0.119,0.25,0.272,0.51,0.456,0.782c0.587,0.836,1.256,1.304,2.007,1.402c-0.706,0.359-1.06,0.843-1.06,1.452
							c0,0.293,0.142,0.696,0.424,1.206c0.424,0.728,1.001,1.094,1.729,1.094h0.082c0.424,0.424,0.811,0.788,1.158,1.093
							c1.066,1.175,1.669,2.202,1.811,3.084c0.174,1.261,0.386,2.212,0.636,2.854c0.456,1.24,1.137,1.936,2.038,2.088
							c-0.021,0.021-0.033,0.07-0.033,0.146l0.082,2.219c0.347,1.457,1.327,2.185,2.935,2.185c0.805,0,1.664-0.196,2.578-0.587
							l0.489-0.211c0.251,0.184,0.554,0.468,0.913,0.849c0.185,0.163,1.246,1.337,3.181,3.523c0.544,0.652,1.43,1.913,2.659,3.784
							c1.054,1.12,2.419,1.816,4.094,2.088c0.022,0.022,0.049,0.033,0.082,0.033c3.654,0.51,6.421,1.511,8.303,3
							c0.75,0.609,1.773,1.85,3.067,3.72c1.555,2.185,3.289,3.366,5.204,3.539c4.056,0.359,7.568,0.555,10.537,0.587
							c1.218,0.055,2.007,0.185,2.365,0.392l0.816,0.571c0.065,0.49,0.685,1.077,1.859,1.762c0.054,0.031,1.022,0.554,2.904,1.566
							c0.142,0.142,0.293,0.326,0.456,0.554c0.435,0.435,1.001,0.799,1.696,1.094c2.283,1.022,5.926,1.532,10.929,1.532
							c0.512,0,1.337-0.19,2.479-0.571c1.186-0.401,2.442-0.604,3.768-0.604c0.707,0,1.413,0.272,2.12,0.816
							c0.5,0.359,1.196,0.958,2.088,1.795c2.241,1.75,5.258,2.626,9.053,2.626c0.838,0,2.039-0.402,3.605-1.207
							c1.576-0.805,3.534-1.206,5.872-1.206c4.372,0,7.765,0.918,10.179,2.757c1.447,1.108,2.306,1.735,2.577,1.876
							c1.023,0.565,2.273,0.848,3.751,0.848c2.273,0,3.91-0.271,4.909-0.816c0.784-0.675,1.452-1.201,2.007-1.582
							c0.663-0.413,1.865-0.816,3.605-1.206c0.945-0.208,1.538-0.49,1.777-0.849l0.066-0.033c1.273,0,3.441,0.565,6.508,1.696
							c3.044,1.11,5.328,1.664,6.851,1.664c2.241,0,4.269-0.485,6.084-1.451c1.838-0.99,4.171-1.484,6.998-1.484
							c0.523,0,1.42,0.223,2.692,0.669c1.273,0.424,2.555,0.635,3.85,0.635c2.076,0,4.551-0.978,7.422-2.935
							c2.86-1.98,5.302-2.969,7.324-2.969c1.132,0,2.035,0.129,2.708,0.391c0.641,0.261,1.772,0.392,3.393,0.392
							c0.349,0,0.642-0.033,0.881-0.098l1.24,0.098c1.382,0,2.62-0.543,3.719-1.631c0.587-0.512,1.115-1.148,1.583-1.908
							c1.044-1.142,3.393-1.692,7.046-1.648c3.73,0.033,6.095-0.408,7.096-1.322c1.054-0.913,2.398-2.158,4.029-3.735
							c0.945-0.87,1.832-1.659,2.659-2.365c1.25-0.445,2.565-0.967,3.947-1.566c2.718-1.108,4.655-2.038,5.808-2.789
							c1.327-0.891,2.256-2.011,2.788-3.359c0.468-1.522,0.832-2.583,1.094-3.181c0.239-0.587,0.995-1.055,2.268-1.403
							c0.49-0.163,1.359-0.424,2.609-0.782c0.445-0.207,0.838-0.701,1.175-1.484l0.587-1.696c0.37-0.663,1.022-1.783,1.957-3.36
							c0.794-1.348,1.192-2.458,1.192-3.328c0-0.522-0.266-1.077-0.799-1.663c0.163-0.208,0.265-0.37,0.309-0.49
							c0.044-0.239,0.065-0.675,0.065-1.305c0-0.217-0.021-0.51-0.065-0.88v-0.424c0-0.37-0.164-0.925-0.49-1.664
							c-0.337-0.772-0.505-1.175-0.505-1.207c0-0.478,0.119-0.961,0.359-1.451c0.238-0.445,0.357-0.853,0.357-1.223v-0.081
							c0-0.806-0.309-1.562-0.93-2.269c-0.761-0.88-1.277-1.854-1.549-2.92c-0.239-1.11-1.37-2.029-3.394-2.757
							c-2.076-0.805-3.186-1.386-3.327-1.746c-0.305-1.099-0.587-1.92-0.849-2.463c-0.5-1.12-1.359-2.066-2.578-2.837
							c-1.033-0.675-2.022-1.452-2.969-2.333c0.261-0.109,0.392-0.374,0.392-0.799c0-0.141-0.061-0.451-0.18-0.93
							c-0.119-0.554-0.179-0.869-0.179-0.945c0-0.621,0.223-1.447,0.669-2.48c0.261-0.554,0.429-0.947,0.506-1.174
							c0.196,0.196,0.397,0.364,0.603,0.506c1.425,1.087,2.719,1.631,3.883,1.631c0.88,0,1.848-0.343,2.903-1.028
							c0.425-0.282,0.728-0.512,0.913-0.685c0.208,0.261,0.468,0.5,0.784,0.718c0.869,0.663,1.892,0.995,3.067,0.995
							c2.881,0,5.839-3.186,8.874-9.558c0-1.131-0.061-1.98-0.18-2.545c0.055-0.272,0.082-0.424,0.082-0.456
							c0-0.826-0.768-2.099-2.301-3.818c2.763-0.098,4.916-2.431,6.46-6.998c1.066-3.077,1.6-5.633,1.6-7.667
							c0-0.479-0.049-0.87-0.147-1.174c-0.316-1.196-1.083-2.137-2.3-2.822c-1.055-0.587-4.106-1.669-9.152-3.247
							c-5.567-1.131-11.879-2.229-18.938-3.295c-4.97-0.74-8.108-1.164-9.412-1.273L217.616,80.437z"/>
					</g>
					
						<line fill="none" stroke="#383635" stroke-width="1.6863" stroke-linecap="round" stroke-linejoin="round" stroke-miterlimit="3" x1="137.933" y1="106.976" x2="138.225" y2="106.976"/>
					<path fill="none" stroke="#383635" stroke-width="1.6863" stroke-miterlimit="10" d="M219.949,84.466v-0.082l-0.293-0.456
						c-0.445-0.772-0.854-1.478-1.223-2.12c-0.076-0.088-0.142-0.196-0.197-0.326c-0.065-0.153-0.168-0.327-0.309-0.522
						l-0.309-0.522c-0.958-1.642-2.104-2.975-3.442-3.997c-1.425-1.436-3.214-2.718-5.367-3.849
						c-1.98-1.033-3.605-1.457-4.877-1.271c0.652,1.077,1.223,2.126,1.712,3.148c0.565,1.174,0.913,2.093,1.044,2.757
						c1.206,2.914,2.078,5.068,2.609,6.46c0.044,0.054,0.081,0.136,0.115,0.245c0.903,2.404,1.549,4.464,1.941,6.183
						 M252.458,95.524c-0.51,0.587-2.409,1.202-5.692,1.844c-3.556,0.609-5.862,1.044-6.916,1.305
						c4.056,3.176,7.048,5.741,8.971,7.7c0.184,0.228,0.517,0.582,0.995,1.06c0.707-0.033,1.355-0.184,1.943-0.456
						c1.838-0.891,3.345-3.071,4.518-6.541c1.066-3.077,1.6-5.633,1.6-7.667c0-1.75-0.816-3.083-2.447-3.997
						c-1.055-0.587-4.106-1.669-9.152-3.247c-2.326-0.478-5.176-1.011-8.547-1.599c-3.588-0.619-7.052-1.185-10.391-1.696
						c-4.97-0.74-8.108-1.164-9.412-1.273 M239.849,98.673c-0.641-0.49-0.995-0.761-1.06-0.816
						c-8.298-6.134-12.456-9.211-12.479-9.233h-0.115 M243.798,118.003c0,0.098-0.115,0.261-0.343,0.49
						c-0.523,0.489-1.593,1.315-3.213,2.48c-0.022,0.033-0.125,0.217-0.31,0.554c-0.141,0.282-0.288,0.473-0.441,0.571
						c0.208,0.261,0.468,0.5,0.784,0.718c0.869,0.663,1.892,0.995,3.067,0.995c2.164,0,4.355-1.773,6.574-5.317
						c0.739-1.196,1.505-2.61,2.3-4.24c0-1.131-0.061-1.98-0.18-2.545c0.055-0.272,0.082-0.424,0.082-0.456
						c0-0.826-0.768-2.099-2.301-3.818 M68.133,82.981c0.305,0.164,1.315,0.479,3.034,0.947l0.881,0.211
						c1.848,0.458,2.898,0.918,3.148,1.386c0.456,0.784,1.131,1.876,2.022,3.279c0.033,0.119,0.951,1.148,2.757,3.084
						c0.577,0.468,1.174,0.903,1.794,1.305c0.326,0.217,0.635,0.38,0.93,0.489c0.45,0.252,1.04,0.482,1.771,0.694
						c0.03,0.008,0.06,0.017,0.09,0.025c0.574,0.144,1.059,0.247,1.452,0.309c0.761,0.055,1.223,0.082,1.386,0.082
						c0.489,0,1.044-0.141,1.664-0.424c0.881-0.413,1.702-0.745,2.463-0.995c0.065-0.011,0.728-0.316,1.99-0.914
						c1.098-0.576,1.735-0.865,1.909-0.865c0.989,0,2.262,0.543,3.818,1.631l0.522,0.359c0.207,0.402,0.728,1.169,1.566,2.3
						c1.186,1.555,2.116,2.578,2.789,3.067c0.478,0.305,1.528,0.598,3.148,0.88c1.752,0.327,2.785,0.626,3.099,0.897
						c0.228,0.174,0.653,0.652,1.273,1.436c1.044,0.761,2.8,1.142,5.269,1.142c0.142,0,1.039-0.696,2.691-2.088
						c1.915-1.392,3.671-2.088,5.269-2.088c2.099,0,4.067,1.273,5.904,3.818c0.891,1.25,1.572,2.109,2.038,2.578
						c0.773,0.804,1.599,1.206,2.48,1.206h0.211c0.631,0.098,1.44,0.18,2.431,0.245h0.293c0.217,0.033,0.745,0.364,1.583,0.995
						c1.022,0.631,2.131,0.945,3.327,0.945c0.534,0,1.007-0.163,1.42-0.489l1.192-1.125l0.473-0.326
						c1.348-0.87,3.442-1.305,6.28-1.305c1.011,0,1.888,0.435,2.626,1.305c0.512,0.598,1.18,1.566,2.007,2.904
						c1.957,2.773,4.867,4.16,8.727,4.16h0.245c0.826,0.239,1.691,0.359,2.594,0.359c1.284,0,2.849-0.435,4.698-1.305
						c1.849-0.869,3.486-1.305,4.911-1.305c1.033,0,1.849,0.648,2.446,1.941c0.305,0.652,0.587,1.44,0.849,2.365
						c0.5,0.935,2.078,1.723,4.731,2.365l0.065,0.033c2.078,0.479,3.862,0.717,5.351,0.717c0.261,0,0.69-0.119,1.288-0.359
						c0.499-0.203,0.959-0.422,1.379-0.653l-0.024-0.017l0.089-0.065l1.33-0.996c1.74-1.392,3.034-2.088,3.883-2.088
						c0.228,0,0.582,0.153,1.059,0.456c0.174,0.881,0.789,1.881,1.844,3.002l0.099,0.115c2.066,2.099,4.99,3.148,8.775,3.148
						c0.142,0,0.74-0.332,1.795-0.995c0.891-0.543,1.468-0.918,1.728-1.125l0.506-0.326l1.37-0.849
						c0.392-0.228,0.663-0.413,0.816-0.554l1.207-0.115c0.825-0.13,1.24-0.445,1.24-0.947 M227.371,125.212
						c0.272,0.315,0.755,0.848,1.451,1.599c0.187,0.176,0.576,0.573,1.167,1.191c0.255-0.114,0.383-0.38,0.383-0.799
						c0-0.141-0.061-0.451-0.18-0.93c-0.119-0.554-0.179-0.869-0.179-0.945c0-0.621,0.223-1.447,0.669-2.48
						c0.261-0.554,0.429-0.947,0.506-1.174c-0.456-0.381-0.74-0.626-0.849-0.734c-0.196-0.196-0.305-0.326-0.326-0.391
						c-0.283,0.239-0.495,0.429-0.636,0.571c-1.315,1.315-2.609,1.974-3.882,1.974c-3.795,0-6.59-0.648-8.384-1.941
						c-0.913-0.675-1.451-1.288-1.615-1.844 M231.188,121.673c0.196,0.196,0.397,0.364,0.603,0.506
						c1.425,1.087,2.719,1.631,3.883,1.631c0.88,0,1.848-0.343,2.903-1.028c0.425-0.282,0.728-0.512,0.913-0.685 M234.678,119.519
						c-0.153,0-0.445-0.071-0.88-0.211c-0.456-0.142-0.751-0.211-0.88-0.211c-0.653,0-1.372,0.282-2.154,0.848
						c-0.129,0.076-0.265,0.18-0.407,0.31c-0.153,0.153-0.266,0.251-0.343,0.293 M231.856,150.382
						c0.251-0.295,0.935-0.626,2.055-0.996c1.576-0.587,3.284-0.88,5.122-0.88c1.719,0,3.154,0.505,4.307,1.518
						c0.794,0.641,1.278,1.277,1.451,1.908c0.066,0.173,0.164,0.533,0.295,1.077c0.13,0.499,0.282,0.848,0.456,1.044
						c0.163-0.208,0.265-0.37,0.309-0.49l0.065-0.49v-0.816c0-0.217-0.021-0.51-0.065-0.88v-0.424c0-0.37-0.164-0.925-0.49-1.664
						c-0.337-0.772-0.505-1.175-0.505-1.207c0-0.478,0.119-0.961,0.359-1.451c0.238-0.479,0.357-0.913,0.357-1.304
						c0-0.806-0.309-1.562-0.93-2.269c-0.761-0.88-1.277-1.854-1.549-2.92c-0.239-1.11-1.37-2.029-3.394-2.757
						c-2.076-0.805-3.186-1.386-3.327-1.746c-0.305-1.099-0.587-1.92-0.849-2.463c-0.5-1.12-1.359-2.066-2.578-2.837l-0.489-0.31
						c-0.793-0.563-1.587-1.207-2.382-1.933c-0.03-0.029-0.064-0.058-0.098-0.09 M229.989,128.001
						c0.028,0.028,0.06,0.058,0.089,0.09 M48.412,166.107c-4.589-0.762-8.787-0.56-12.593,0.603
						c-2.904,0.87-4.551,1.898-4.942,3.084c-0.243,0.954-0.273,1.595-0.09,1.925c0.028,0.028,0.058,0.056,0.09,0.081
						c1.022,0.997,2.316,1.621,3.882,1.876c0.022,0.022,0.049,0.033,0.082,0.033c3.099,0.424,5.584,1.229,7.455,2.414
						c0.293,0.152,0.577,0.348,0.849,0.586c0.75,0.609,1.773,1.85,3.067,3.72c1.555,2.185,3.289,3.366,5.204,3.539
						c4.056,0.359,7.568,0.555,10.537,0.587c1.218,0.055,2.007,0.185,2.365,0.392l0.816,0.571c0.065,0.49,0.685,1.077,1.859,1.762
						c0.054,0.031,1.022,0.554,2.904,1.566c0.142,0.142,0.293,0.326,0.456,0.554c0.435,0.435,1.001,0.799,1.696,1.094
						c2.283,1.022,5.926,1.532,10.929,1.532c0.512,0,1.337-0.19,2.479-0.571c1.186-0.401,2.442-0.604,3.768-0.604
						c0.707,0,1.413,0.272,2.12,0.816c0.5,0.359,1.196,0.958,2.088,1.795c2.241,1.75,5.258,2.626,9.053,2.626
						c0.838,0,2.039-0.402,3.605-1.207c1.576-0.805,3.534-1.206,5.872-1.206c4.372,0,7.765,0.918,10.179,2.757
						c1.447,1.108,2.306,1.735,2.577,1.876c1.023,0.565,2.273,0.848,3.751,0.848c2.273,0,3.91-0.271,4.909-0.816
						c0.784-0.675,1.452-1.201,2.007-1.582c0.663-0.413,1.865-0.816,3.605-1.206c0.945-0.208,1.538-0.49,1.777-0.849l0.066-0.033
						c1.273,0,3.441,0.565,6.508,1.696c3.044,1.11,5.328,1.664,6.851,1.664c2.241,0,4.269-0.485,6.084-1.451
						c1.838-0.99,4.171-1.484,6.998-1.484c0.523,0,1.42,0.223,2.692,0.669c1.273,0.424,2.555,0.635,3.85,0.635
						c2.076,0,4.551-0.978,7.422-2.935c2.86-1.98,5.302-2.969,7.324-2.969c1.132,0,2.035,0.129,2.708,0.391
						c0.641,0.261,1.772,0.392,3.393,0.392c0.348,0,0.642-0.033,0.881-0.098l1.24,0.098c1.382,0,2.621-0.543,3.719-1.631
						c0.587-0.512,1.115-1.148,1.583-1.908c1.044-1.142,3.393-1.692,7.046-1.648c3.73,0.033,6.095-0.408,7.096-1.322
						c1.055-0.913,2.398-2.158,4.029-3.735c0.945-0.87,1.832-1.659,2.659-2.365c1.25-0.445,2.565-0.967,3.947-1.566
						c0.979-0.392,1.746-0.718,2.3-0.978c1.556-0.728,2.724-1.333,3.508-1.811c1.327-0.891,2.256-2.011,2.788-3.359
						c0.468-1.522,0.832-2.583,1.094-3.181c0.239-0.587,0.995-1.055,2.268-1.403c0.49-0.163,1.359-0.424,2.609-0.782
						c0.445-0.207,0.838-0.701,1.175-1.484l0.587-1.696c0.37-0.663,1.022-1.783,1.957-3.36c0.794-1.348,1.192-2.458,1.192-3.328
						c0-0.522-0.266-1.077-0.799-1.663 M188.141,87.287c0.109-0.435,0.164-0.87,0.164-1.305c0-0.804,0.037-1.49,0.115-2.055
						c0.054-0.838,0.184-1.637,0.391-2.398c0.413-1.512,0.679-3.6,0.799-6.264c0.109-2.741,0.322-4.932,0.636-6.574
						c0.315-1.185,0.571-2.158,0.767-2.92c0.326-1.268,0.488-2.108,0.481-2.52l-0.008,0.008v-0.146c0-0.489-0.468-1.218-1.403-2.185
						l-0.081-0.081c-0.207-0.207-0.924-0.876-2.153-2.007c-0.512-0.293-1.288-0.424-2.333-0.391c-0.066,0-0.125,0.011-0.18,0.033
						c-0.608,0.054-1.185,0.217-1.728,0.489c-0.13,0.109-0.234,0.207-0.31,0.293l-1.419,1.583c-0.164,0.163-0.316,0.343-0.456,0.538
						c-2.121,2.653-4.09,5.48-5.905,8.482c-1.348,2.229-2.659,5.079-3.931,8.548c-0.935,2.653-1.593,4.491-1.974,5.513l-1.206,3.002
						 M201.451,90.109c-0.598-1.871-1.076-3.931-1.434-6.183c-0.164-0.816-0.364-2.251-0.604-4.307
						c-0.359-3.121-0.679-5.747-0.962-7.878c0-0.239,0.011-0.419,0.033-0.538l0.081-1.125c0-0.87-0.011-1.436-0.031-1.696
						c-0.076-0.686-0.256-1.288-0.538-1.811c-0.543-0.761-1.735-1.903-3.573-3.425c-1.029-0.488-2.004-0.452-2.927,0.106
						 M191.484,63.113c0.007,0.039,0.009,0.085,0.008,0.139 M141.537,65.902c1.142-1.001,2.513-2.402,4.111-4.208
						c0.401-0.402,0.706-0.685,0.913-0.848c1.348-1.164,2.718-2.034,4.11-2.61c1.816-0.794,3.937-1.936,6.362-3.425
						c2.741-1.251,6.801-2.148,12.185-2.692c0.565-0.021,1.501-0.054,2.805-0.098c1.567-0.054,2.48-0.075,2.741-0.065
						c-1.312-0.639-2.878-1.351-4.698-2.137c-0.26-0.184-0.565-0.347-0.913-0.489c-0.271-0.119-0.826-0.31-1.663-0.571l-2.595-1.035
						c-1.925-0.082-4.257,0.084-6.998,0.497c-1.501,0.228-3.431,0.598-5.791,1.11c-4.871,1.054-9.004,2.348-12.397,3.882
						c-1.718,0.795-3.968,1.985-6.753,3.573c-0.565,0.337-1.071,0.619-1.518,0.848 M185.335,58.48
						c-0.098-0.707-0.483-1.365-1.157-1.974c-0.838-0.772-1.888-1.244-3.149-1.419c-0.456-0.065-0.918-0.098-1.386-0.098
						c-1.545,0.087-3.061,0.565-4.551,1.436c-1.196,0.696-2.327,1.614-3.394,2.757l-4.486,4.599
						c-1.576,1.642-2.707,3.116-3.393,4.421 M179.642,54.989c-0.549-0.703-2.175-1.714-4.878-3.034 M203.931,71.318l-0.278-0.424
						c-1.913-2.881-3.801-4.323-5.66-4.323 M108.489,56.001c1.871-1.229,4.687-2.414,8.449-3.556
						c2.283-0.75,5.068-1.599,8.352-2.545c0.065-0.033,0.604-0.223,1.614-0.571c1.131-0.391,3.252-1.169,6.362-2.333
						c2.459-0.718,5.862-1.386,10.212-2.007c3.991-0.577,7.426-0.93,10.309-1.06c-0.632-0.159-1.318-0.327-2.055-0.506
						c-3.741-0.913-6.335-1.631-7.782-2.154c-0.626-0.08-1.727-0.248-3.303-0.506l-8.361,0.897l-12.299,1.908l-7.602,1.974
						c-3.067,0.859-5.187,1.555-6.362,2.088 M164.896,47.722l-5.823-2.325c-0.761-0.291-2.523-0.781-5.285-1.468 M140.649,40.766
						c-2.725-0.451-6.864-1.169-12.422-2.153c-2.979-0.522-4.867-0.625-5.66-0.31c-2.948,1.055-8.014,2.066-15.203,3.034
						c-3.936,0.554-6.895,1.087-8.873,1.599c-1.838,0.468-3.594,1.093-5.269,1.875 M99.876,109.276
						c-0.522,0.989-1.925,1.789-4.208,2.398c-1.859,0.478-3.556,0.717-5.089,0.717c-1.044,0-2.011-0.239-2.904-0.717
						c-1.001-0.718-1.669-1.365-2.007-1.941l-0.048,0.245c0,0.022,0.238,1.484,0.717,4.388c0.391,1.804,0.848,3.04,1.37,3.702
						c-0.609,0.414-1.288,0.924-2.038,1.533c-2.741,2.229-4.111,3.899-4.111,5.008c0,0.119,0.011,0.207,0.033,0.261
						c-0.87,0.445-1.549,0.782-2.039,1.011c-1.913,0.924-3.578,1.729-4.991,2.414c-1.033,0.522-1.941,1.098-2.724,1.729
						c-1.522,1.207-2.284,2.458-2.284,3.751c0,2.555,2.616,5.438,7.846,8.645c0.413,0.26,2.696,1.582,6.851,3.963
						c2.871,1.654,4.942,2.926,6.216,3.818c1.327,0.979,3.061,1.936,5.203,2.871c1.001,0.413,2.12,0.838,3.36,1.273
						c3.665,1.25,7.541,2.229,11.631,2.935c6.818,1.152,14.441,2.246,22.87,3.279c11.886,1.457,20.873,2.185,26.964,2.185
						c7.003,0,13.951-2.355,20.846-7.063c1.186-0.815,2.355-1.685,3.507-2.609c0.608-0.522,1.549-1.42,2.822-2.691
						c1.555-1.62,2.333-2.731,2.333-3.329c0-0.608,0.343-1.582,1.028-2.92c0.663-1.305,0.995-2.637,0.995-3.997
						c-0.163-0.794-0.223-1.409-0.179-1.844 M194.477,118.117c-0.012,0.037-0.033,0.065-0.065,0.081l0.188,0.098
						c0.109,0.033,0.217,0.098,0.326,0.196c0.435,0.315,0.972,0.848,1.615,1.599c1.892,2.251,2.837,4.453,2.837,6.606
						c0,1.131-0.211,2.241-0.635,3.328c-0.554,1.338-1.403,2.659-2.545,3.964c-1.49,1.718-4.236,4.144-8.237,7.276 M72.26,43.996
						c3.067-1.229,6.743-2.197,11.027-2.904c0.87-0.141,4.518-0.592,10.945-1.354c5.981-0.707,10.234-1.319,12.756-1.835
						l-4.226-0.107c-9.962,0.12-18.113,0.26-24.451,0.416c-2.284,0.364-6.596,1.177-12.935,2.438
						c-5.862,1.175-10.951,2.229-15.269,3.165 M78.312,38.213c-1.626,0.039-3.132,0.08-4.518,0.121
						c-10.929,0.316-20.238,1.305-27.926,2.969c-4.937,0.435-8.781,0.799-11.532,1.093c-8.2,0.88-13.49,2.001-15.871,3.36
						c-1.294,0.75-2.506,1.941-3.638,3.573c-0.37,0.544-0.826,1.3-1.37,2.268c-0.401,0.745-0.744,1.455-1.028,2.129
						c0.794-0.55,2.311-1.177,4.551-1.884c1.957-0.619,4.175-1.213,6.655-1.778c1.196-0.272,2.207-0.516,3.034-0.734
						c3.111-0.816,5.21-1.501,6.297-2.055 M50.027,74.205c0.989,0.402,1.794,0.968,2.414,1.696c0.141,0.119,0.255,0.278,0.343,0.472
						c0.141,0.207,0.261,0.429,0.359,0.669c0.207,0.435,0.609,1.517,1.207,3.246c0.979,1.871,1.626,2.942,1.941,3.213
						c0.228,0.228,0.38,0.37,0.456,0.424c1.11,0.891,2.544,1.518,4.307,1.875c0.968,0.185,1.702,0.293,2.202,0.327
						c0.348,0.021,0.913,0.033,1.696,0.033c2.338,0,4.056-0.32,5.154-0.962c0.577-0.327,0.941-0.69,1.093-1.093 M66.828,98.607
						c-2.555-1.935-5.058-3.468-7.504-4.599c-2.099-0.935-4.209-1.62-6.329-2.055c-1.61-0.663-3.642-1.251-6.101-1.762l-1.777-0.359
						c-3.632-0.663-5.449-0.322-5.449,1.028c0,0.468,0.017,0.799,0.048,0.995c-0.141,0.239-0.211,0.555-0.211,0.947l0.033,0.571
						c0.283,0.044,0.658,0.125,1.125,0.245c0.075,0.021,0.157,0.044,0.244,0.065c2.545,0.696,4.219,1.066,5.024,1.11l0.065,0.033
						c1.957,0.174,4.219,0.587,6.786,1.24c3.447,0.848,6.204,1.696,8.27,2.544 M85.669,109.732c-0.512-0.74-0.952-1.658-1.321-2.757
						c-0.163-0.565-0.278-1.001-0.343-1.305c-0.359-1.457-0.571-3.072-0.636-4.845l-0.033-2.545c0-1.185,0.408-2.48,1.223-3.882
						 M50.108,48.481l-7.292,1.973c-2.979,0.826-6.698,1.735-11.158,2.724c-2.436,0.512-5.524,1.441-9.266,2.789
						c-2.229,0.804-3.974,1.56-5.235,2.268c-1.545,0.838-2.616,1.718-3.213,2.643c0.598,2.785,1.468,4.448,2.609,4.991
						c0.577,0.261,2.511,0.391,5.808,0.391c0.142,0,0.245-0.01,0.31-0.033c-0.022,0.163-0.033,0.418-0.033,0.767l1.305,2.626
						c1.349,1.718,3.295,2.577,5.84,2.577c2.61,0,4.48-0.19,5.611-0.571c0.022-0.021,0.071-0.033,0.147-0.033
						c-0.174-0.598-0.577-1.152-1.207-1.664c-0.663-0.512-1.533-0.913-2.61-1.207 M12.427,53.726
						c-0.685,1.629-1.028,3.05-1.028,4.265c0,0.707,0.223,1.284,0.669,1.729c0.414,0.359,1.028,0.734,1.844,1.125l0.033,0.033
						 M54.773,102.67c-3.719-1.545-6.171-2.534-7.357-2.969c-2.839-1.012-5.22-1.708-7.144-2.088
						c-4.046-1.718-7.531-2.446-10.456-2.185c-0.989,0.119-1.647,0.223-1.973,0.31c-2.718,0.696-4.077,2.17-4.077,4.42
						c0,0.043,0.027,0.143,0.081,0.302c0.459-0.058,0.943-0.078,1.452-0.057c2.055,0,4.725,0.375,8.01,1.125
						c1.229,0.054,2.784,0.326,4.664,0.816c2.208,0.598,4.486,1.234,6.835,1.909l0.424,0.179 M23.748,100.468h0.098v-0.008
						C23.812,100.461,23.779,100.463,23.748,100.468h-0.196c-2.697,0.293-4.062,1.343-4.094,3.149c0.13-0.022,0.648-0.082,1.55-0.18
						c2.643-0.098,6.176,0.706,10.602,2.414c0,0.01,0.522,0.157,1.566,0.441c1.175,0.315,1.941,0.533,2.3,0.653l0.065,0.033
						c2.664,0.838,4.127,1.794,4.388,2.871 M39.538,93.372c-1.946-0.392-4.257-0.571-6.933-0.538
						c-1.392,0.033-2.582,0.424-3.573,1.175c-0.794,0.587-1.191,1.114-1.191,1.582v0.147 M35.542,71.595
						c0.152,0.456,0.272,1.305,0.359,2.544c0.065,0.621,0.795,1.588,2.187,2.904c0.903,0.838,1.783,1.164,2.643,0.979
						c1.196-0.251,2.001-0.305,2.414-0.163c0.098,0.021,0.512,0.255,1.24,0.701c0.838,0.402,1.8,0.604,2.887,0.604
						c0.402,0,1.288-0.435,2.659-1.305c0.446-0.283,0.962-0.625,1.55-1.029c0.565-0.087,1.001-0.238,1.305-0.456 M61.053,85.802
						c-1.533,0.293-3.355,0.615-5.465,0.962c-2.436,0.37-3.778,1.12-4.029,2.251c-0.026-0.006-0.053-0.011-0.081-0.017
						c0.401,0.098,0.968,0.245,1.696,0.441c1.131,0.37,2.109,0.784,2.936,1.24c5.154,1.37,9.929,3.751,14.322,7.144 M51.478,89
						c-0.913-0.187-1.752-0.295-2.513-0.326c-2.055-0.076-3.339,0.309-3.849,1.158 M31.089,116.551
						c-2.524,0-5.117-0.223-7.781-0.669c-2.404-0.414-3.839-0.755-4.307-1.028c-1.848-0.402-3.219-0.658-4.11-0.767
						c-1.403-0.174-2.545-0.13-3.425,0.13 M19.458,103.615c-2.055,0.391-3.42,1.511-4.094,3.36
						c-0.259,0.669-0.417,1.547-0.473,2.634c0.166-0.064,0.411-0.11,0.734-0.138c0.337-0.022,0.636-0.017,0.897,0.016
						c0.021,0.022,0.081,0.044,0.18,0.065c2.262,0.207,4.606,0.761,7.03,1.664c2.022,0.795,6.275,1.338,12.756,1.631 M14.89,109.609
						c0,0.007,0,0.016,0,0.025c-0.533,0.163-1.11,0.429-1.729,0.799c-1.577,0.957-2.365,1.995-2.365,3.115
						c0,0.348,0.163,0.598,0.49,0.75c-0.141,0.055-0.337,0.159-0.587,0.31c-0.598,0.446-1.12,1.485-1.566,3.115
						c-0.37,1.261-0.554,2.283-0.554,3.067v1.108c0.039,0.218,0.08,0.381,0.123,0.49c0.22-0.233,0.648-0.554,1.28-0.962
						c0.512-0.293,1.044-0.456,1.599-0.49c3.947-0.098,7.623,0.185,11.027,0.848c4.633,0.913,7.552,1.43,8.76,1.55 M28.185,128.116
						c-1.413,0-4.665-0.391-9.755-1.174c-4.807-0.794-7.33-1.192-7.569-1.192c-1.033,0-1.892,0.082-2.577,0.245
						c-0.088,0.033-0.32,0.098-0.702,0.196c-0.277,0.075-0.488,0.141-0.635,0.196c-0.039,0.015-0.078,0.028-0.115,0.042
						c-0.487,0.193-0.922,0.452-1.305,0.775c-0.728,0.663-1.093,1.463-1.093,2.398l0.604,2.398c0.479,1.359,1.137,2.115,1.974,2.268
						c0.881-0.272,1.365-0.414,1.452-0.425c3.502-0.663,10.69-0.631,21.564,0.099 M8.7,122.391c0.001,0.012,0.004,0.024,0.008,0.033
						l-0.065,0.065l-0.245,0.261c-1.066,1.164-1.599,2.185-1.599,3.067c0,0.272,0.027,0.451,0.082,0.538l0.065,0.033 M8.7,122.391
						c-0.028,0.029-0.047,0.062-0.057,0.098 M34.269,145.783l-19.966,0.357c-0.838,0.033-1.571,0.142-2.201,0.327
						c-0.196,0.054-0.354,0.098-0.473,0.129c-0.228,0.055-0.424,0.125-0.587,0.211c-0.706,0.359-1.06,0.843-1.06,1.452
						c0,0.293,0.142,0.696,0.424,1.206c0.424,0.728,1.001,1.094,1.729,1.094c0.027,0,0.054,0,0.082,0
						c0.406-0.001,0.872-0.094,1.403-0.278l2.3-0.897c1.533-0.51,2.855-0.767,3.964-0.767c2.208,0,3.985,0.092,5.334,0.277
						c1.185,0.164,1.941,0.245,2.268,0.245 M35.966,141.965l-2.299-0.066c-2.534,0-5.666-0.343-9.396-1.028
						c-3.241-0.675-6.014-1.217-8.319-1.63c-2.708-0.49-4.671-0.561-5.889-0.212c-0.37,0.109-0.724,0.278-1.06,0.506
						c-0.392,0.282-0.653,0.565-0.784,0.849c-0.282,0.533-0.424,1.179-0.424,1.941c0,0.065,0.261,0.831,0.784,2.3
						c0.685,1.327,1.506,2.055,2.463,2.184 M7.012,134.265c-1.011,0.445-1.518,1.131-1.518,2.055c0,0.391,0.322,1.12,0.962,2.185
						c0.533,0.903,1.12,1.527,1.762,1.876 M12.216,150.562c0.424,0.424,0.811,0.788,1.158,1.093c0.446,0.468,0.811,0.941,1.094,1.42
						c0.401,0.621,0.642,1.175,0.717,1.664c0.174,1.261,0.386,2.212,0.636,2.854c0.454,1.233,1.129,1.929,2.022,2.088
						c0.036-0.151,0.117-0.342,0.244-0.571c0.153-0.272,0.305-0.495,0.456-0.67l0.31-0.357c0.794-0.826,1.702-1.333,2.724-1.518
						c2.914-0.523,5.682-0.675,8.302-0.456c3.644,0.315,7.814,0.326,12.511,0.031l0.816,0.082c0,0.022,0.038,0.031,0.114,0.031
						 M17.843,159.68h0.016c-0.013,0.013-0.021,0.037-0.024,0.073c-0.006,0.025-0.008,0.049-0.008,0.072l0.082,2.219
						c0.347,1.457,1.327,2.185,2.935,2.185c0.805,0,1.664-0.196,2.578-0.587l0.489-0.211c-0.598-0.512-1.001-0.832-1.207-0.962
						c-0.903-0.641-1.664-1.114-2.283-1.419 M17.834,159.753c0-0.024,0.002-0.048,0.008-0.073 M23.911,163.432
						c0.251,0.184,0.554,0.468,0.913,0.849c0.185,0.163,1.246,1.337,3.181,3.523c0.544,0.652,1.43,1.913,2.659,3.784
						c0.04,0.043,0.081,0.087,0.121,0.13 M122.566,38.303l-15.578-0.399"/>
					
						<line fill="none" stroke="#383635" stroke-width="1.6863" stroke-miterlimit="60" x1="229.98" y1="128.001" x2="229.989" y2="128.001"/>
					<path fill="none" stroke="#383635" stroke-width="1.6863" stroke-miterlimit="10" d="M186.64,108.852
						c0.055-0.033,0.081-0.092,0.081-0.179c0.283-6.482,0.425-10.309,0.425-11.484c0-0.184-0.038-0.374-0.115-0.571l-0.13-0.554"/>
					<path fill="none" stroke="#383635" stroke-width="1.6863" stroke-miterlimit="10" d="M204.991,110.793
						c-0.185-2.056-0.621-4.529-1.305-7.422l-1.762-7.307h-0.115"/>
					<path fill="none" stroke="#383635" stroke-width="1.6863" stroke-miterlimit="10" d="M222.069,112.848
						c-2.926-5.427-5.166-10.375-6.722-14.844h-0.098"/>
					<path fill="none" stroke="#383635" stroke-width="1.6863" stroke-miterlimit="10" d="M119.63,95.068
						c1.599-1.816,3.366-4.246,5.302-7.292c2.185-3.349,3.751-5.633,4.698-6.851c0.326-0.445,2.484-2.8,6.477-7.063
						c2.794-2.979,4.523-5.361,5.187-7.144"/>
					<path fill="none" stroke="#383635" stroke-width="1.6863" stroke-miterlimit="10" d="M146.431,101.788
						c0.598-1.271,2.647-5.29,6.149-12.055c2.501-4.85,4.339-8.906,5.513-12.168"/>
					<path fill="none" stroke="#383635" stroke-width="1.6863" stroke-miterlimit="10" d="M242.736,109.21
						c-1.762-2.218-6.117-6.617-13.065-13.196"/>
					<path fill="none" stroke="#383635" stroke-width="1.6863" stroke-miterlimit="10" d="M224.434,95.704
						c1.328,2.012,3.437,5.144,6.329,9.396c0.968,1.392,3.04,4.409,6.215,9.053"/>
					<path fill="none" stroke="#383635" stroke-width="1.6863" stroke-miterlimit="10" d="M67.415,80.289
						c1.968-2.446,6.623-5.546,13.964-9.298c10.309-5.252,16.263-8.384,17.861-9.395"/>
					<path fill="none" stroke="#383635" stroke-width="1.6863" stroke-miterlimit="10" d="M47.694,73.046
						c1.772-1.804,4.333-3.513,7.683-5.122c2.523-1.218,6.362-2.773,11.516-4.665c2.686-0.957,6.372-2.528,11.059-4.714
						c4.012-1.871,7.688-3.681,11.027-5.432"/>
					<path fill="none" stroke="#383635" stroke-width="1.6863" stroke-miterlimit="10" d="M91.818,87.646
						c1.729-3.023,6.084-6.9,13.065-11.63c9.929-6.753,15.644-10.738,17.144-11.957"/>
					<path fill="none" stroke="#383635" stroke-width="1.6863" stroke-miterlimit="10" d="M26.064,67.663
						c3.089-2.109,8.591-4.556,16.508-7.34c9.08-3.176,15.187-5.578,18.319-7.211"/>
					<path fill="none" stroke="#383635" stroke-width="1.6863" stroke-miterlimit="10" d="M47.808,177.068l0.848,1.175
						c0.87,0.751,2.072,1.125,3.605,1.125c0.326,0,1.518-0.424,3.573-1.273c2.272-0.945,3.485-1.44,3.638-1.484
						c5.306-0.88,8.254-1.61,8.841-2.185"/>
				</g>
			</g>
		</g>
	</g>
</g>
</svg>
