<?xml version="1.0" encoding="utf-8"?>
<!-- Generator: Adobe Illustrator 17.0.1, SVG Export Plug-In . SVG Version: 6.00 Build 0)  -->
<!DOCTYPE svg PUBLIC "-//W3C//DTD SVG 1.1//EN" "http://www.w3.org/Graphics/SVG/1.1/DTD/svg11.dtd">
<svg version="1.1" id="Layer_1" xmlns="http://www.w3.org/2000/svg" xmlns:xlink="http://www.w3.org/1999/xlink" x="0px" y="0px"
	 width="255.572px" height="239.14px" viewBox="4.536 5.731 255.572 239.14" enable-background="new 4.536 5.731 255.572 239.14"
	 xml:space="preserve">
<g id="Layer_3">
	<path fill="#FFFFFF" d="M256.802,188.706c-9.818,0.798-19.229,3.233-29.103,3.657c-1.878,0.081-3.721,0.168-5.552,0.199
		c-0.256-0.254-0.607-0.429-1.066-0.445c-6.752-0.23-12.79-2.547-18.93-5.164c-0.387-0.165-0.789-0.176-1.157-0.08
		c-0.459-1.135-1.158-2.228-2.138-3.226c-4.178-4.246-9.249-7.323-14.159-10.615c-0.185-0.247-0.382-0.485-0.596-0.716
		c-0.741-1.506-1.854-2.847-3.364-3.826c-0.206-0.134-0.397-0.279-0.601-0.415c-0.879-1.921-2.368-3.538-4.465-4.441
		c-0.894-3.743-3.328-6.251-6.684-8.163c-1.808-2.958-4.267-5.044-6.786-7.153c-0.015-0.033-0.023-0.066-0.039-0.099
		c-0.99-1.934-1.546-4.002-2.966-5.699c-1.638-1.954-3.747-3.423-5.364-5.399c-0.588-0.718-1.364-0.658-1.928-0.234
		c-0.814-1.143-1.747-2.235-2.512-3.337c-1.92-2.767-4.497-4.171-7.096-4.49c-0.845-1.519-2.072-2.89-3.563-4.013
		c-1.597-1.206-2.917-3.253-4.579-4.561c-2.506-1.974-5.212-3.241-7.987-4.772c-5.859-3.233-12.014-5.914-18.13-8.616
		c-5.08-2.245-9.012-4.439-12.804-8.495c-2.163-2.312-4.59-4.4-7.125-6.366c-0.516-0.998-1.28-1.957-2.344-2.83
		c-1.851-1.521-3.782-2.822-5.759-4.013c-0.218-0.282-0.449-0.561-0.703-0.834c-3.31-3.566-7.68-5.986-12.433-6.641
		c-0.598-0.703-1.497-1.145-2.498-1.226c-2.692-0.218-4.987-1.877-7.166-3.328c-0.146-0.098-0.293-0.18-0.438-0.25
		c0.052-0.517,0.023-1.072-0.109-1.66c-0.417-1.87-1.266-3.395-2.105-5.106c-0.044-0.089-0.102-0.157-0.15-0.241
		c0.224-3.384,1.412-6.913,2.253-9.846c1.934-6.738,3.571-13.448,3.583-20.495c0.002-1.401-0.669-2.673-1.665-3.573
		c0.504-1.317,1.432-4.801,1.486-5.582c0.215-3.109-0.255-5.942-1.43-8.827c-0.31-0.761-0.811-1.47-1.429-2.056
		c0.024-1.343,0.127-2.699-0.014-4.016c-0.274-2.569-1.997-4.923-4.847-4.847c-0.498,0.013-0.991,0.064-1.483,0.13
		c-10.385-3.192-15.255,7.692-19.883,15.768c-1.624,1.577-2.827,3.546-3.82,5.709c-0.003,0.006-0.005,0.014-0.008,0.02
		c-1.965,1.005-3.467,2.431-5.243,3.791c-2.105,1.611-5.079,2.027-7.37,3.425c-3.269,1.997-3.213,8.151,1.158,8.859
		c0.346,0.056,0.686,0.099,1.03,0.15c0.761,0.559,1.702,0.908,2.772,0.921c2.116,0.026,4.046-0.428,6.135-0.712
		c0.167-0.023,0.303-0.074,0.457-0.109c0.673,2.121,1.912,4.015,4.184,5.48c1.585,1.022,3.601,0.755,5.268,1.499
		c0.484,0.326,0.964,0.658,1.44,0.996c0.057,3.109,0.36,5.66,3.128,7.428c0.056,1.988,0.121,3.976,0.297,5.961
		c0.478,5.388,1.322,10.266,0.812,15.714c-0.062,0.672,0.014,1.257,0.166,1.783c-0.29,1.593-0.195,3.255,0.35,4.814
		c-1.106,1.096-1.234,3.006-0.382,4.294c-0.274,0.88-0.424,1.829-0.417,2.841c-4.849,5.482-5.054,11.944-2.735,17.929
		c-1.01,1.826-2.054,3.62-2.825,5.577c-2.511,0.13-5.012,0.351-7.531,0.282c-3.357-0.092-6.191-2.751-9.05-4.229
		c-0.502-0.26-0.993-0.372-1.463-0.382c-0.442-0.255-0.968-0.418-1.604-0.418c-4.148,0-4.164,6.398-0.054,6.457
		c1.682,0.882,3.265,1.919,4.902,2.824c1.023,1.649,2.816,3.012,4.846,2.746c0.691-0.09,1.278-0.215,1.818-0.571
		c2.277,0.207,4.588,0.016,6.884-0.154c-0.045,1.075-0.051,2.161-0.061,3.24c-0.009,0-0.015-0.002-0.024-0.002
		c-1.466,0-2.404,0.805-2.839,1.841c-2.816,2.744-6.637,4.553-8.336,8.245c-2.154,4.68-7.002,7.494-12.38,6.544
		c-4.074-0.721-5.816,5.506-1.718,6.231c5.298,0.937,10.498-0.461,15.026-3.285c2.289-1.427,3.567-3.346,4.565-5.791
		c0.465-1.142,1.192-2.082,2.049-2.925c0.353,0.029,0.715,0.026,1.081-0.026c2.116-0.305,3.635-1.841,5.189-3.159
		c0.713,0.121,1.444,0.022,2.044-0.397c0.676-0.472,1.243-0.925,1.751-1.453c0.179-0.056,0.358-0.112,0.529-0.197
		c1.575-0.597,2.629-2.016,2.298-3.727c1.646-0.366,2.25-2.123,1.819-3.52c0.141-0.046,0.251-0.073,0.278-0.047
		c1.24,1.217,2.751,1.124,3.883,0.402c2.669,2.05,5.581,3.806,8.6,5.334c1.518,2.346,4.096,4.008,7.75,4.008
		c0.092,0,0.173-0.015,0.263-0.018c0.321,0.73,0.742,1.411,1.234,2.042c0.154,2.252,1.062,4.446,2.779,6.086
		c0.321,0.306,0.623,0.629,0.917,0.956c-0.025,1.626,0.662,3.251,2.045,4.169c0.234,1.523,1.096,2.931,2.603,3.593
		c0.242,0.305,0.526,0.581,0.852,0.815c1.534,3.64,3.252,7.465,6.674,9.395c1.34,0.756,2.632,1.311,3.88,1.69
		c-0.485,1.189-0.969,2.379-1.454,3.568c-1.554,3.824-3.079,7.636-4.189,11.616c-0.822,2.947-2.81,6.119-2.5,9.758
		c0.169,1.986,0.809,3.691,1.759,5.089c-0.232,0.78-0.252,1.673,0.03,2.661c0.819,2.865,0.881,5.719,1.909,8.569
		c1.233,3.421,2.889,6.483,4.883,9.507c1.38,2.092,2.829,4.568,4.658,6.108c-2.393,3.699-3.876,9.258-8.289,11.024
		c-1.975,0.792-4.302,0.504-6.34,1.305c-1.935,0.76-3.501,2.304-5.175,3.494c-1.856,1.319-1.731,4.224,0.643,4.921
		c3.392,0.996,6.86,0.234,10.228-0.775c5.946,0.515,12.678-2.175,15.008-7.914c1.002-2.469,2.316-4.42,4.084-6.301
		c1.505-0.029,2.339-1.078,2.507-2.245c0.422-0.366,0.814-0.769,1.128-1.304c1.621-2.766-0.569-4.619-0.921-7.213
		c-0.097-0.712-0.546-1.23-1.13-1.553c1.728-7.149-0.642-17.048-1.819-22.355c-0.212-0.955-0.747-1.756-1.46-2.356
		c1.836-0.871,3.398-2.169,4.941-3.525c1.888-1.661,4.515-3.051,7.026-4.341c0.405,0.377,0.83,0.73,1.287,1.033
		c0.157,0.104,0.311,0.187,0.467,0.284c-0.309,1.384-0.079,2.917,0.998,4.286c2.378,3.024,4.032,6.565,6.578,9.468
		c2.337,2.668,5.289,5.059,6.244,8.359c-1.968,2.153-2.549,4.984-2.713,8.172c-0.104,2.033-0.192,4.082-0.526,6.096
		c0.018-0.108-3.326,2.198-4.181,2.353c-2.233,0.404-3.875,0.276-4.049,1.956c-0.043-0.001-0.085-0.001-0.128-0.003
		c-0.182-0.051-0.545-0.206-0.106-0.003c-0.006-0.001-0.013,0-0.019-0.001c-1.312-0.561-2.812-0.325-3.589,1.002
		c-0.686,1.172-0.368,3.072,0.966,3.684c1.147,0.527,2.252,0.726,3.513,0.727c0.57,0.001,1.1-0.187,1.539-0.499
		c1.012,0.754,2.333,1.144,3.878,0.865c4.031-0.729,8.341-1.396,10.615-5.279c1.124-1.919,1.25-4.23,1.443-6.385
		c0.013-0.141,0.022-0.449,0.03-0.854c1.253-0.37,1.846-1.576,1.778-2.749c0.114-0.136,0.23-0.27,0.337-0.425
		c0.491-0.71,0.83-1.465,1.152-2.224c5.115-3.522,3.992-8.552,1.404-13.395c-1.451-2.714-0.497-4.148-0.879-7.119
		c-0.352-2.739-1.77-5.528-3.067-8.159c5.052-0.894,9.857-0.252,14.57,2.178c0.736,0.379,1.463,0.653,2.181,0.844
		c0.429,0.282,0.891,0.545,1.409,0.771c2.21,0.965,4.455,1.856,6.642,2.871c1.059,0.492,2.149,0.828,3.241,1.024
		c0.513,0.148,1.018,0.31,1.52,0.485c0.184,0.302,0.491,0.546,0.96,0.654c2.597,0.601,4.956,1.876,7.539,2.513
		c0.126,0.031,0.247,0.048,0.364,0.054c0.074,0.037,0.154,0.071,0.227,0.109c5.563,2.788,10.918,5.318,16.915,4.539
		c2.541,2.233,6.866,2.423,10.028,2.716c0.146,0.014,0.28,0.003,0.406-0.02c0.26,0.331,0.659,0.559,1.21,0.559
		c0.267,0,0.487-0.067,0.684-0.16c0.101,0.048,0.208,0.085,0.324,0.103c1.159,0.18,2.309,0.238,3.48,0.238
		c0.463,0,0.817-0.164,1.075-0.413c0.605,0.096,1.182-0.15,1.559-0.56c0.134,0.033,0.261,0.074,0.418,0.074h2.872
		c0.407,0,0.736-0.157,0.994-0.389c0.114,0.066,0.238,0.12,0.373,0.152c2.311,0.55,4.233-0.577,6.422-1.077
		c0.017-0.004,0.029-0.011,0.045-0.015c0.441-0.031,0.882-0.06,1.322-0.108c3.665-0.393,7.242-1.11,10.71-2.349
		c0.216,0.118,0.472,0.195,0.779,0.195c0.89,0,1.397-0.59,1.526-1.267c2.399-0.392,4.827-0.672,7.176-1.387
		c3.72-1.131,7.435-1.775,10.961-3.491c0.605-0.293,0.839-0.783,0.824-1.28c0.884-0.116,1.773-0.221,2.67-0.293
		C258.863,191.77,258.881,188.537,256.802,188.706z"/>
</g>
<g id="Layer_1_2_">
	<g>
		<g id="Layer_1_1_">
			<g>
				<g id="Layer_1_3_">
					<g>
						<path fill="none" stroke="#373435" stroke-width="1.6156" stroke-miterlimit="10" d="M42.657,19.712
							c-0.886,0.56-1.485,0.951-1.798,1.172l-1.172,0.801c-0.313,0.209-0.795,0.449-1.446,0.723
							c-0.677,0.274-1.166,0.436-1.466,0.489c-0.286,0.039-0.742,0.019-1.369-0.058l-1.348-0.117l-0.508,0.019
							c-0.079,0-0.208,0.02-0.391,0.059c-0.169,0.026-0.449,0.274-0.84,0.742l-0.996,1.154c-0.612,0.69-1.596,1.857-2.951,3.498
							c-1.03,1.29-1.896,2.346-2.6,3.165c-0.885,0.99-1.733,1.981-2.541,2.97c-0.391,0.508-0.808,1.192-1.25,2.052l-1.114,2.228
							c-0.235,0.417-0.677,0.879-1.329,1.387c-0.652,0.495-1.212,0.827-1.681,0.997c-0.834,0.312-1.752,0.312-2.755,0
							c-1.173-0.47-2.072-0.775-2.697-0.919c-0.169-0.039-0.261-0.137-0.272-0.293"/>
						<path fill="none" stroke="#373435" stroke-width="1.6156" stroke-miterlimit="10" d="M59.053,31.692
							c-0.092,0.156-0.306,0.365-0.645,0.626c-0.365,0.274-0.592,0.443-0.684,0.508c-0.456,0.326-0.742,0.495-0.859,0.508
							c-1.277,0.352-2.56,0.169-3.85-0.547c-1.263-0.703-2.071-1.616-2.423-2.736c-0.235-0.795-0.188-1.72,0.137-2.776
							c0.417-1.525,0.639-2.404,0.665-2.639c0.182-1.733-0.417-3.251-1.798-4.554c-1.238-1.199-2.671-1.837-4.3-1.915
							c-0.404,0.169-0.847,0.404-1.329,0.703l-1.31,0.84c0.456,0.964,0.613,1.843,0.47,2.638c-0.09,0.574-0.267,1.179-0.528,1.818
							c-0.248,0.665-0.483,1.154-0.703,1.466"/>
						<path fill="none" stroke="#373435" stroke-width="1.6156" stroke-miterlimit="10" d="M145.081,169.448l-4.28,0.43
							c-1.59,0.248-2.827,0.652-3.713,1.212c-3.009,1.862-5.83,3.445-8.462,4.749l-1.896,0.861c-0.782,0.378-1.4,0.69-1.857,0.937
							c-3.973,2.399-7.693,4.306-11.158,5.726c-1.55,0.665-3.654,1.427-6.313,2.287c-0.586,0.209-0.97,0.326-1.154,0.352
							c-1.759,1.616-2.801,2.54-3.127,2.774c-1.238,0.951-2.528,1.603-3.87,1.954c1.811,1.994,3.263,5.271,4.358,9.83
							c0.235,0.965,0.423,2.547,0.567,4.749c0.079,1.746,0.182,3.713,0.313,5.901c0.039,2.072-0.066,3.941-0.313,5.609
							c0.951,1.068,1.622,1.909,2.013,2.521c0.626,0.977,0.984,1.902,1.075,2.774c0.169,1.654-0.41,3.218-1.739,4.691
							c-0.782,0.859-1.999,1.967-3.654,3.322c-0.52,0.573-1.075,1.42-1.661,2.541c-0.782,1.368-1.31,2.24-1.583,2.618
							c-0.898,2.489-2.508,4.404-4.827,5.746c-1.133,0.651-2.508,1.166-4.124,1.544c-1.068,0.26-2.814,0.541-5.238,0.84
							l-2.482,0.176c-1.056,0.039-1.921,0.09-2.599,0.156l-3.165,0.313c-1.16,0.025-2.111-0.137-2.853-0.489
							c-0.417,0.196-0.873,0.267-1.368,0.215c-0.483-0.079-0.853-0.275-1.114-0.587c0.312-0.56,0.684-0.958,1.114-1.191
							l-1.427-0.137c-0.56-0.104-0.898-0.326-1.016-0.665c0.039-0.312,0.235-0.567,0.586-0.763c0.43-0.221,0.723-0.39,0.879-0.508
							c0.652-0.69,1.199-1.225,1.641-1.602c0.652-0.612,1.395-0.959,2.228-1.036c-0.039-0.117-0.228-0.196-0.567-0.235
							c-0.326-0.039-0.501-0.143-0.528-0.312c0.078-0.365,0.359-0.677,0.84-0.938l1.271-0.586c0.104-0.053,0.28-0.183,0.528-0.391
							c0.234-0.196,0.423-0.312,0.567-0.351c0.925-0.43,2.007-0.646,3.244-0.646c1.095-0.039,2.19,0.085,3.283,0.372
							c0.691-0.782,1.59-2.052,2.697-3.811c1.277-1.994,2.208-3.354,2.795-4.084c0.052-0.104,0.214-0.293,0.489-0.567l0.567-0.626
							c0.456-0.612,0.723-1.035,0.801-1.27l0.176-0.313c0.092-0.052,0.196-0.227,0.313-0.527c0.169-0.326,0.267-0.495,0.293-0.508
							c-0.444-0.847-1.107-1.897-1.994-3.147l-2.227-3.069c-0.665-0.977-1.505-2.644-2.521-5.003l-2.385-5.276
							c-1.746-3.961-2.983-8.144-3.713-12.547c0-0.104-0.006-0.156-0.019-0.156c-0.052,0-0.079,0.039-0.079,0.117l-0.586-3.675
							c-0.143-1.446-0.04-2.697,0.312-3.751c0.195-0.561,0.494-1.329,0.898-2.307c0.417-0.964,0.73-1.738,0.938-2.325
							c1.628-4.924,3.434-9.557,5.413-13.894c-1.967-1.968-3.472-3.519-4.514-4.651c-1.654-1.773-2.99-3.414-4.007-4.925
							l-2.58-3.888c-1.434-2.15-2.299-3.445-2.599-3.889c0.104-0.013,0.157-0.058,0.157-0.137c0-0.078-0.053-0.169-0.157-0.274
							c-0.534-0.703-1.068-1.563-1.603-2.58l-3.225-5.883c-0.391-0.834-0.671-1.4-0.841-1.701c-0.352-0.677-0.684-1.165-0.996-1.465
							c-0.286-0.287-0.749-0.561-1.387-0.821c-0.861-0.338-1.421-0.579-1.681-0.724c-1.746-0.859-3.635-2.019-5.667-3.478
							l-1.701-1.173c-0.56-0.43-1.049-0.885-1.466-1.369c-0.364-0.129-0.866-0.501-1.505-1.114c-0.768-0.69-1.297-1.133-1.583-1.328
							c-1.876,0.039-3.693-0.071-5.452-0.333c-0.43,0.626-0.729,1.687-0.898,3.185c-0.196,1.473-0.495,2.496-0.898,3.07
							c-0.743,0.99-2.085,1.928-4.026,2.813c-0.169,0.092-0.729,0.32-1.68,0.685c-0.756,0.286-1.323,0.547-1.701,0.782l-0.058,0.098
							l-0.352,0.176l-0.058,0.059l-0.254,0.137c-0.534,0.196-1.458,0.657-2.774,1.387c-1.329,0.69-2.372,1.186-3.127,1.485
							c-0.286,0.404-0.742,1.368-1.368,2.893c-0.573,1.355-1.121,2.299-1.641,2.834c-0.418,0.47-1.146,0.885-2.19,1.25
							c-1.225,0.326-2.058,0.587-2.501,0.783c-0.43,0.156-1.361,0.749-2.795,1.777c-1.107,0.795-2.15,1.25-3.127,1.369
							c-1.368,0.195-2.729,0.116-4.084-0.235c-0.808-0.208-1.719-0.541-2.736-0.997l-0.742-0.527
							c-0.274-0.222-0.541-0.391-0.801-0.509c-0.457-0.104-0.808-0.201-1.056-0.292c-0.391-0.13-0.605-0.326-0.645-0.586
							c-0.04-0.236,0.085-0.457,0.371-0.665c0.339-0.208,0.717-0.267,1.134-0.176c0.13-0.053,0.359-0.19,0.684-0.411
							c0.299-0.196,0.541-0.332,0.723-0.41c-0.729-0.612-0.651-1.01,0.235-1.191c0.365-0.104,1.088-0.222,2.17-0.352
							c0.078-0.052,0.039-0.123-0.117-0.214c-0.116-0.117-0.098-0.228,0.059-0.333c0.286-0.013,0.899-0.085,1.837-0.214
							c0.717-0.079,1.283-0.008,1.701,0.214c0.286-0.183,0.742-0.554,1.368-1.114c0.47-0.47,0.919-0.795,1.348-0.977
							c0.274-0.092,0.75-0.182,1.427-0.274c0.612-0.053,1.049-0.196,1.309-0.43c0.365-0.299,0.697-0.703,0.997-1.212l0.84-1.446
							c0.169-0.287,0.47-0.737,0.898-1.348c0.274-0.378,0.521-0.775,0.742-1.191c0.325-0.248,1.017-1.017,2.071-2.307
							c0.912-1.067,1.72-1.746,2.423-2.032c0.6-0.665,1.218-1.244,1.857-1.739c0.834-0.663,1.55-1.12,2.15-1.368
							c0.078-0.235,0.325-0.495,0.742-0.783l1.075-0.605c0.312-1.994,0.502-3.172,0.567-3.538"/>
						<path fill="none" stroke="#373435" stroke-width="1.6156" stroke-miterlimit="10" d="M99.252,190.731
							c-0.586,0.299-1.622,0.652-3.107,1.054c-1.408,0.379-2.221,0.548-2.444,0.509"/>
						<path fill="none" stroke="#373435" stroke-width="1.6156" stroke-miterlimit="10" d="M71.971,242.011
							c1.277-1.03,2.156-1.72,2.638-2.072c1.121-0.6,2.743-1.218,4.866-1.857c2.893-0.873,4.514-1.381,4.867-1.524
							c0.534-0.43,1.244-1.107,2.13-2.032c0.925-0.952,1.629-1.636,2.11-2.052"/>
						<path fill="none" stroke="#373435" stroke-width="1.6156" stroke-miterlimit="10" d="M93.234,153.736
							c0.847-1.434,2.007-3.205,3.478-5.316c1.238-1.812,2.358-3.374,3.361-4.689l0.782-1.055"/>
						<path fill="none" stroke="#373435" stroke-width="1.6156" stroke-miterlimit="10" d="M85.67,167.475
							c0.026-0.13,0.235-0.6,0.626-1.408c0.378-0.795,0.658-1.348,0.84-1.661c0.391-0.834,0.75-1.538,1.075-2.111l0.586-1.036
							c2.15-3.831,3.629-6.338,4.436-7.523c0.208-2.449,0.456-4.411,0.742-5.883c0.169-0.899,0.56-2.248,1.173-4.045
							c0.599-1.785,0.964-2.69,1.094-2.716"/>
						<path fill="none" stroke="#373435" stroke-width="1.6156" stroke-miterlimit="10" d="M53.933,114.533
							c-0.547,0.665-1.361,1.421-2.443,2.267c-0.182,1.225-0.769,2.463-1.759,3.714c-1.289,1.641-2.065,2.71-2.325,3.205
							c0.612,1.238,0.97,1.954,1.075,2.15c0.391,0.639,1.003,1.374,1.837,2.208"/>
						<path fill="none" stroke="#373435" stroke-width="1.6156" stroke-miterlimit="10" d="M56.981,108.279
							c0.039,0.325-0.006,0.71-0.137,1.152l-0.43,1.212c-0.13,0.352-0.43,0.885-0.898,1.603c-0.143,0.235-0.359,0.586-0.645,1.054
							c-0.274,0.457-0.586,0.867-0.938,1.231"/>
						<path fill="none" stroke="#373435" stroke-width="1.6156" stroke-miterlimit="10" d="M50.962,104.723
							c0.703,1.446,1.134,3.101,1.29,4.964c0.182,2.266-0.072,4.638-0.763,7.113"/>
						<path fill="none" stroke="#373435" stroke-width="1.6156" stroke-miterlimit="10" d="M14.144,145.626
							c-0.104,0.092-0.352,0.457-0.742,1.095l-0.47,0.586c-0.156,0.169-0.267,0.326-0.333,0.47
							c-0.039,0.092-0.098,0.261-0.176,0.508"/>
						<path fill="none" stroke="#373435" stroke-width="1.6156" stroke-miterlimit="10" d="M49.32,82.444
							c-0.182,0.325-0.801,1.466-1.857,3.42c-1.095,1.928-1.948,3.225-2.56,3.889c-2.697,2.996-4.261,4.795-4.689,5.394"/>
						<path fill="none" stroke="#373435" stroke-width="1.6156" stroke-miterlimit="10" d="M45.412,89.167
							c0.716-2.879,1.101-5.96,1.152-9.244c0.079-3.569-0.254-6.495-0.996-8.775l-0.058-1.603c0-0.886-0.032-1.525-0.098-1.915
							c-0.066-0.47-0.196-1.172-0.391-2.11l-0.508-2.111c-0.573-3.101-1.035-5.276-1.387-6.527
							c-0.586-2.071-0.847-3.812-0.782-5.218c0.104-1.837,0.697-3.368,1.778-4.593"/>
						<path fill="none" stroke="#373435" stroke-width="1.6156" stroke-miterlimit="10" d="M48.676,69.604
							c-0.547-1.667-0.912-3.244-1.094-4.729c-0.209-2.058-0.333-3.629-0.372-4.71c0-0.6-0.053-1.596-0.157-2.99
							c-0.078-1.212-0.117-2.19-0.117-2.932c0.013-0.665,0.299-3.545,0.859-8.639c0.391-3.426,0.352-6.247-0.117-8.461
							c-0.483,1.446-1.257,2.768-2.325,3.968c-0.821,0.99-1.923,1.986-3.303,2.99H42.01l-0.059,0.059l-0.137,0.097h-0.058
							c-1.146,1.107-2.737,1.778-4.769,2.013c-1.706,0.156-3.595,0-5.667-0.47c-1.017-0.352-1.844-0.612-2.482-0.782
							c-0.47-0.157-1.114-0.248-1.934-0.274c-0.782-0.026-1.342,0.013-1.681,0.117"/>
						<path fill="none" stroke="#373435" stroke-width="1.6156" stroke-miterlimit="10" d="M47.679,37.144
							c0.182-0.444,0.111-1.179-0.214-2.208c-0.274-0.859-0.561-1.518-0.861-1.974l-0.665-0.977
							c-0.222-0.378-0.397-0.724-0.528-1.036"/>
						<path fill="none" stroke="#373435" stroke-width="1.6156" stroke-miterlimit="10" d="M39.315,35.502
							c-0.117,0.052-0.346,0.098-0.684,0.137l-0.763,0.059c-0.286,0.508-0.808,1.101-1.563,1.778
							c-0.73,0.651-1.453,1.186-2.169,1.602c-0.703,0.495-1.83,0.886-3.381,1.173c-1.342,0.274-2.762,0.397-4.26,0.372l-2.307-0.039
							c-0.808,0.066-1.427,0.254-1.857,0.567c-0.444,0.312-1.166,0.951-2.169,1.915c-0.938,0.782-1.706,1.179-2.306,1.192
							c-0.156,0-0.489-0.078-0.996-0.235c-1.733-0.364-2.814-0.618-3.244-0.763"/>
						<path fill="none" stroke="#373435" stroke-width="1.6156" stroke-miterlimit="10" d="M34.762,30.148
							c-0.391,0.639-1.056,0.847-1.994,0.625c-0.56-0.13-0.996-0.299-1.31-0.508c-0.417-0.274-0.782-0.677-1.094-1.212"/>
						<path fill="none" stroke="#373435" stroke-width="1.6156" stroke-miterlimit="10" d="M35.015,26.161
							c0.248,1.276,0,2.221-0.742,2.834c-0.365,0.286-0.84,0.462-1.426,0.528c-0.795,0.09-1.622-0.066-2.483-0.47"/>
						<path fill="none" stroke="#373435" stroke-width="1.6156" stroke-miterlimit="10" d="M30.931,26.005
							c0.195-0.183,0.475-0.326,0.84-0.43c0.325-0.104,0.631-0.156,0.919-0.156c0.965,0.039,1.739,0.286,2.325,0.742
							c0.69,0.494,0.996,1.191,0.919,2.091"/>
						<path fill="none" stroke="#373435" stroke-width="1.6156" stroke-miterlimit="10" d="M33.139,24.344
							c0.365-0.092,0.801-0.098,1.31-0.02c0.56,0.092,0.951,0.267,1.172,0.528c0.456,0.494,0.652,1.054,0.586,1.681"/>
						<path fill="none" stroke="#373435" stroke-width="1.6156" stroke-miterlimit="10" d="M37.107,24.167
							c-0.534-0.143-1.035-0.235-1.505-0.274"/>
						<path fill="none" stroke="#373435" stroke-width="1.6156" stroke-miterlimit="10" d="M33.491,21.979
							c-0.026-0.352,0.09-0.879,0.352-1.583c0.222-0.626,0.436-1.081,0.645-1.368l0.547-0.859c1.408-2.372,2.521-4.045,3.342-5.022
							c1.368-1.694,2.892-2.964,4.573-3.812c1.785-0.847,4.3-1.179,7.544-0.996"/>
						<path fill="#373435" d="M32.318,29.151c-0.47-0.052-0.834-0.267-1.094-0.645c-0.494-0.729-0.359-1.348,0.41-1.857
							c0.742-0.483,1.576-0.645,2.501-0.489c0.626,1.199,0.43,2.097-0.586,2.697C33.132,29.104,32.722,29.202,32.318,29.151z"/>
						<path fill="none" stroke="#373435" stroke-width="1.6156" stroke-miterlimit="10" d="M17.798,36.656
							c-0.209,0.235-0.346,0.494-0.41,0.782c-0.116,0.065-0.28,0.103-0.489,0.116c-0.208,0-0.364-0.039-0.469-0.116
							c-0.079-0.561,0.098-0.951,0.528-1.173c0.169-0.103,0.626-0.235,1.368-0.391C18.247,36.096,18.072,36.355,17.798,36.656z"/>
						<path fill="none" stroke="#373435" stroke-width="1.6156" stroke-miterlimit="10" d="M16.957,115.53
							c0.209,0.026,0.573,0.143,1.094,0.351c0.443,0.17,0.782,0.32,1.016,0.45c0.013,0.013,0.879,0.586,2.6,1.719"/>
						<path fill="none" stroke="#373435" stroke-width="1.6156" stroke-miterlimit="10" d="M14.144,116.996
							c0.404-0.079,0.951-0.079,1.641,0l0.996,0.079c0.457,0.103,1.186,0.345,2.19,0.723c0.404,0.143,0.703,0.267,0.898,0.371
							c0.195,0.104,0.417,0.254,0.665,0.449"/>
						<path fill="none" stroke="#373435" stroke-width="1.6156" stroke-miterlimit="10" d="M47.405,123.719
							c-0.013,0.04-0.579,0.834-1.701,2.385c-0.156,0.208-0.326,0.494-0.508,0.859c-0.169,0.338-0.28,0.599-0.333,0.782"/>
						<path fill="none" stroke="#373435" stroke-width="1.6156" stroke-miterlimit="10" d="M8.261,147.717
							c0.848-0.169,1.701-0.137,2.56,0.098l1.603,0.47"/>
						<path fill="none" stroke="#373435" stroke-width="1.6156" stroke-miterlimit="10" d="M74.864,237.301
							c1.458-0.391,3.107-0.782,4.945-1.173c1.511-0.417,2.742-1.054,3.693-1.915"/>
						<path fill="none" stroke="#373435" stroke-width="1.6156" stroke-miterlimit="10" d="M134.977,184.536
							c-1.368,0.587-3.107,1.16-5.218,1.72c-2.28,0.613-4.417,1.055-6.41,1.329c-0.391,0.039-0.853,0.039-1.387,0
							c-0.157,0-0.613-0.026-1.369-0.078l-0.782-0.157c-0.299-0.066-0.521-0.085-0.665-0.059c-0.677-0.078-1.361-0.221-2.052-0.43
							c-0.821-0.286-1.427-0.534-1.818-0.742c-0.977-0.52-1.934-1.263-2.872-2.227"/>
						<path fill="none" stroke="#373435" stroke-width="1.6156" stroke-miterlimit="10" d="M124.091,222.371
							c-0.156,0.755-0.528,1.387-1.115,1.896c-0.612,0.534-1.511,0.99-2.697,1.369c-1.381,0.443-2.657,1.016-3.83,1.72
							c-1.302,0.794-2.15,1.569-2.541,2.325"/>
						<path fill="none" stroke="#373435" stroke-width="1.6156" stroke-miterlimit="10" d="M113.617,226.494
							c0.885-0.612,2.86-1.263,5.922-1.954c1.394-0.288,2.319-0.52,2.776-0.703c0.795-0.326,1.387-0.814,1.778-1.465"/>
						<path fill="none" stroke="#373435" stroke-width="1.6156" stroke-miterlimit="10" d="M31.653,31.418
							c-0.626-0.286-1.022-0.821-1.191-1.603c-0.117-0.534-0.143-1.303-0.079-2.306c0.079-0.404,0.177-0.756,0.293-1.056
							c0.365-0.782,1.043-1.421,2.032-1.915c0.938-0.47,1.902-0.684,2.892-0.645"/>
						<path fill="#FFFFFF" d="M31.967,27.333c-0.039,0.079-0.019,0.137,0.059,0.177c0.143-0.039,0.196-0.13,0.156-0.274
							c-0.052-0.248-0.071-0.391-0.059-0.43c0.704-0.196,1.004,0.071,0.899,0.801c-0.117,0.716-0.508,0.957-1.173,0.723
							c-0.208-0.09-0.332-0.293-0.371-0.605c-0.04-0.286,0.116-0.481,0.469-0.586C31.999,27.164,32.006,27.229,31.967,27.333z"/>
						<path fill="none" stroke="#373435" stroke-width="1.6156" stroke-miterlimit="10" d="M33.959,125.262
							c0.079-0.599,0.241-1.413,0.489-2.443c0.235-1.017,0.397-1.837,0.488-2.463c0.026-0.156,0.104-0.423,0.235-0.801
							c0.13-0.404,0.209-0.652,0.235-0.743"/>
						<path fill="none" stroke="#373435" stroke-width="1.6156" stroke-miterlimit="10" d="M25.088,118.05
							c-1.186-0.286-2.156-0.338-2.912-0.156c-0.325,0.066-0.873,0.306-1.641,0.723"/>
						<path fill="none" stroke="#373435" stroke-width="1.6156" stroke-miterlimit="10" d="M33.823,126.142l-2.618-0.391
							c-0.964-0.117-1.739-0.124-2.325-0.02c-0.09,0.013-0.912,0.391-2.462,1.134c-1.081,0.547-2.143,0.619-3.186,0.215
							c-1.172-0.769-2.911-2.111-5.218-4.026c-2.11-1.799-3.888-3.094-5.335-3.889c-1.068-0.013-1.641-0.41-1.72-1.192
							c0.43,0,0.957-0.15,1.583-0.449c0.586-0.312,1.12-0.489,1.603-0.528c-0.013-0.248-0.222-0.528-0.626-0.84
							c-0.326-0.286-0.483-0.528-0.47-0.723c0.313,0.066,0.885,0.079,1.72,0.039c0.886-0.039,1.616-0.019,2.189,0.059
							c0.092-0.026,0.111-0.085,0.058-0.177c-0.039-0.117,0.006-0.182,0.137-0.195c1.63,0.117,2.834,0.293,3.616,0.528
							c1.472,0.417,2.352,1.121,2.639,2.111c1.706,0.065,3.434,0.703,5.178,1.915c0.573,0.079,1.329,0.071,2.267-0.019
							c1.017-0.13,1.655-0.182,1.915-0.156c0.104,0.013,0.156,0,0.156-0.04c0.222,0,0.443-0.066,0.665-0.195
							c0.183-0.026,0.483-0.117,0.899-0.274c0.391-0.143,0.697-0.215,0.919-0.215c0.079-0.586,0.424-1.915,1.036-3.986
							c0.47-1.628,0.671-2.932,0.605-3.909c-0.039-0.391-0.143-0.859-0.313-1.408c-0.156-0.547-0.234-0.873-0.234-0.977
							c-0.196-1.289-0.293-2.345-0.293-3.165c0-1.42,0.28-2.918,0.84-4.495c0.261-0.704,0.859-2.085,1.798-4.143l0.723-0.742
							c0.274-0.274,0.489-0.554,0.645-0.84c0-1.329,0.124-2.964,0.372-4.905c0.222-1.511,0.41-2.938,0.567-4.28l0.058-2.541
							c0.143-1.941,0.026-4.573-0.352-7.896c-0.052-0.508-0.176-1.974-0.372-4.398c-0.13-1.746-0.28-3.225-0.449-4.436
							c-0.078-0.352-0.156-0.639-0.235-0.859c-0.13-0.378-0.202-0.658-0.214-0.84c-0.013-0.17-0.013-0.385,0-0.645
							c0.026-0.274,0.026-0.494,0-0.665c-0.378-2.945-1.564-6.58-3.556-10.905c-2.176-0.73-4.202-1.825-6.079-3.283
							c-1.602-1.238-3.178-2.782-4.729-4.632c-0.652,0.026-1.544,0.299-2.678,0.821c-1.263,0.56-2.182,0.866-2.756,0.919
							c-1.12,0.13-2.189-0.241-3.205-1.114c-1.485-1.277-2.391-1.987-2.716-2.13l-1.329-0.47c-0.508-0.156-0.886-0.423-1.134-0.801
							c-0.222-0.404-0.188-0.84,0.098-1.31c0.378-0.456,0.586-0.787,0.626-0.996c0.026-0.039,0.006-0.15-0.059-0.332
							c-0.079-0.208-0.111-0.397-0.098-0.567c0.117-1.054,0.964-2.274,2.541-3.654c0.729-0.703,1.218-1.114,1.466-1.231
							c0.274-0.195,0.717-0.391,1.329-0.586l1.485-0.528c1.525-0.639,2.43-1.036,2.716-1.192c1.602-0.886,3.354-2.43,5.257-4.631
							c1.186-1.368,2.423-3.062,3.713-5.082c0.847-1.355,1.942-3.179,3.283-5.472c1.081-1.837,2.045-3.289,2.893-4.358
							c1.146-1.472,2.364-2.618,3.654-3.439c1.472-0.951,3.289-1.603,5.452-1.954c2.15-0.325,4.247-0.286,6.292,0.117
							c1.485,0.299,2.581,0.671,3.283,1.114c1.004,0.626,1.635,1.525,1.896,2.697c0.09,0.444,0.202,1.394,0.333,2.853
							c0.116,1.212,0.312,2.11,0.586,2.697c0.274,0.626,0.782,1.466,1.525,2.52c0.612,1.068,0.919,2.169,0.919,3.303
							c0,2.423-0.058,4.143-0.176,5.159c-0.222,1.863-0.677,3.355-1.368,4.475c0.066,0.352,0.306,0.652,0.723,0.898
							c0.782,2.032,1.054,4.462,0.821,7.291c-0.169,2.409-0.684,4.689-1.543,6.84c-0.235,0.639-0.573,1.72-1.017,3.244
							c-0.391,1.434-0.742,2.436-1.054,3.009c0.013,0.443-0.079,1.03-0.274,1.759l-0.568,1.759
							c-0.417,1.798-0.703,3.257-0.859,4.377c-0.248,1.668-0.293,3.218-0.137,4.652c0.222,1.929,0.75,3.732,1.583,5.413
							c0.965,1.942,2.13,3.316,3.499,4.124c0.586,0.352,1.407,0.723,2.462,1.114l2.618,0.957c0.313,0.143,0.886,0.313,1.72,0.508
							c0.639,0.13,1.192,0.272,1.661,0.43c0.808,0.286,1.811,0.729,3.009,1.329l2.911,1.485c2.072,1.043,4.254,2.482,6.547,4.319
							l5.824,5.043c0.261,0.222,0.613,0.586,1.056,1.094l1.016,1.114l1.115,0.703c0.599,0.56,1.257,1.277,1.974,2.15
							c0.703,0.834,1.381,1.609,2.032,2.325c0.495,0.494,1.154,1.094,1.974,1.798l2.11,1.818c0.6,0.56,1.29,1.141,2.072,1.739
							c1.12,0.834,1.883,1.348,2.287,1.544c0.195,0.092,0.436,0.156,0.723,0.196l0.742,0.177c0.234,0.078,0.657,0.286,1.27,0.625
							c0.47,0.261,0.879,0.476,1.231,0.645c1.785,0.703,4.462,1.818,8.033,3.342c5.042,2.124,8.573,3.674,10.592,4.652
							c3.74,1.823,6.852,3.765,9.341,5.824l3.127,2.58c1.25,1.068,2.241,2,2.972,2.795c0.195,0.196,0.462,0.547,0.8,1.056
							c0.313,0.47,0.579,0.814,0.801,1.036c0.508,0.508,1.387,1.297,2.639,2.365c0.768,0.69,2.103,1.798,4.006,3.322
							c1.707,1.355,3.049,2.489,4.026,3.4c1.812,1.693,3.439,3.336,4.885,4.924c0.586,0.613,1.336,1.493,2.248,2.639
							c1.159,1.432,1.902,2.332,2.227,2.697l10.807,12.956c2.489,2.581,5.667,5.76,9.536,9.537l9.928,9.634
							c0.833,0.808,1.947,1.738,3.342,2.795c2.15,1.628,3.336,2.546,3.557,2.755c2.058,1.668,3.954,2.848,5.686,3.538
							c0.679,0.274,1.596,0.573,2.756,0.898l2.932,0.742c2.399,0.6,4.404,1.056,6.02,1.369c3.4,0.703,6.189,1.062,8.364,1.075
							c1.538,0.013,3.44-0.039,5.707-0.157l5.394-0.391c0.351-0.025,0.977-0.052,1.876-0.078c0.794-0.039,1.407-0.111,1.836-0.214
							c0.561-0.078,1.374-0.293,2.444-0.645c1.12-0.365,1.948-0.593,2.482-0.685c2.853-0.508,5.159-0.827,6.919-0.958
							c2.345-0.182,4.678-0.143,6.997,0.117c0.508,0.547,0.579,1.016,0.214,1.407c-0.117,0.117-0.612,0.444-1.485,0.977
							c-2.137,1.29-4.71,2.483-7.719,3.577c-2.177,0.794-5.036,1.693-8.58,2.697c-3.792,1.081-6.846,2.019-9.166,2.813
							c-2.072,0.73-4.658,1.336-7.758,1.818l-8.365,1.191c-4.274,0.626-7.719,0.893-10.339,0.801
							c-1.72-0.052-4.058-0.319-7.016-0.801c-1.524-0.247-3.238-0.612-5.14-1.094l-5.14-1.173c-0.508-0.104-1.159-0.214-1.953-0.333
							l-1.954-0.312l-3.01-0.821c-0.808-0.208-2.24-0.658-4.3-1.348c-2.124-0.756-3.529-1.244-4.221-1.466
							c-2.658-0.821-5.465-1.83-8.423-3.029c-1.667-0.677-4.325-1.823-7.973-3.439l-2.599-1.114c-1.043-0.47-1.909-0.885-2.599-1.25
							c-1.485-0.795-3.108-1.577-4.867-2.346c-2.266-0.99-4.123-1.59-5.569-1.798c-2.007-0.338-3.98-0.176-5.922,0.488
							c0.742,1.798,1.505,4.039,2.287,6.723l0.958,3.381c0.313,1.303,0.45,2.462,0.411,3.479c1.236,1.225,2.124,2.443,2.658,3.654
							c0.703,1.603,0.931,3.355,0.684,5.257c-0.169,1.538-0.788,3.192-1.857,4.963c-0.404,0.626-1.355,1.968-2.853,4.026
							c-2.005,2.801-3.459,5.746-4.358,8.833l-0.391,0.938c-0.169,0.417-0.287,0.742-0.351,0.977l-0.235,1.036
							c-0.066,0.326-0.196,0.645-0.391,0.958c-1.355,0.952-2.893,1.681-4.612,2.19c-1.876,0.56-3.791,0.8-5.745,0.723
							c-1.407-0.169-2.325-0.288-2.756-0.351c-0.404-0.04-1.094-0.072-2.071-0.099c-0.938-0.025-1.498-0.052-1.681-0.078
							c-0.573-0.052-0.951-0.143-1.133-0.274c0-0.312,0.124-0.71,0.372-1.191c-0.274-0.235-0.906-0.41-1.896-0.528
							c-0.782-0.104-1.244-0.449-1.388-1.036c0.508-0.116,1.03-0.358,1.564-0.723l1.426-0.899c0.04-0.182-0.071-0.378-0.333-0.586
							c-0.352-0.248-0.547-0.443-0.586-0.587c0.495-0.09,1.205-0.332,2.13-0.723c0.964-0.418,1.654-0.671,2.071-0.763
							c0.286-0.078,0.795-0.15,1.524-0.214c0.965-0.13,1.511-0.208,1.641-0.235c0.313-0.053,0.977-0.247,1.994-0.587
							c0.886-0.247,1.564-0.39,2.032-0.429c0.299-3.245,0.684-6.066,1.154-8.461c0.534-2.684,1.238-5.16,2.11-7.427
							c-0.808-1.238-1.688-2.456-2.639-3.655c-0.365-0.443-0.859-0.983-1.485-1.622c-0.613-0.651-1.088-1.198-1.427-1.64l-2.013-2.6
							c-0.69-0.912-1.381-1.772-2.071-2.58c-0.182-0.365-1.062-1.799-2.639-4.3c-0.483-0.782-1.01-1.857-1.583-3.225
							c-0.521-1.236-0.886-2.227-1.094-2.97"/>
						<path fill="none" stroke="#373435" stroke-width="1.6156" stroke-miterlimit="10" d="M10.665,146.173
							c0.325-0.039,0.697-0.006,1.114,0.098c0.143,0.026,0.41,0.104,0.801,0.235c0.338,0.117,0.612,0.19,0.821,0.215"/>
					</g>
				</g>
			</g>
		</g>
	</g>
</g>
</svg>
