<?xml version="1.0" encoding="utf-8"?>
<!-- Generator: Adobe Illustrator 17.0.1, SVG Export Plug-In . SVG Version: 6.00 Build 0)  -->
<!DOCTYPE svg PUBLIC "-//W3C//DTD SVG 1.1//EN" "http://www.w3.org/Graphics/SVG/1.1/DTD/svg11.dtd">
<svg version="1.1" id="Layer_1" xmlns="http://www.w3.org/2000/svg" xmlns:xlink="http://www.w3.org/1999/xlink" x="0px" y="0px"
	 width="252.548px" height="228.985px" viewBox="3.509 19.444 252.548 228.985"
	 enable-background="new 3.509 19.444 252.548 228.985" xml:space="preserve">
<g id="Layer_3">
	<path fill="#FFFFFF" d="M255.052,92.977c-0.245-0.245-0.581-0.418-0.944-0.515c-0.007-1.826-0.048-3.651-0.211-5.471
		c0.915-0.508,1.548-1.638,0.962-2.848c-1.306-2.701-2.139-5.603-2.876-8.502c-0.232-0.912-0.88-1.36-1.59-1.446
		c-0.01-0.023-0.007-0.044-0.02-0.068c-0.265-0.53-0.531-1.049-0.931-1.492c-0.2-0.222-0.43-0.306-0.655-0.313
		c0.294-2.109,0.6-4.079,0.986-5.784c0.124-0.497,0.25-0.995,0.373-1.492c0.625-2.503,0.391-4.717-0.414-6.571
		c1.236-2.403,0.59-5.822-1.94-7.156c-0.324-1.672-0.677-3.322-1.087-4.926c-0.886-3.469-3.753-5.939-6.488-7.963
		c-1.124-0.488-2.255-0.96-3.394-1.416c-0.645-0.262-1.067-0.428-1.32-0.513c-0.946-0.827-1.979-1.425-3.059-1.814
		c-0.23-1.906-0.892-3.576-1.718-5.45c-0.985-2.236-3.107-3.877-5.008-5.267c-2.861-2.094-6.47-2.696-9.897-3.028
		c-1.233-0.119-2.544,0.167-3.769,0.684c-2.766-0.032-5.53-0.009-8.29,0.262c-5.112,0.501-9.741,2.437-14.665,3.721
		c-3.29,0.857-6.552,1.554-9.809,2.514c-0.405-0.594-1.069-1.014-2.009-1.014c-1.113,0-1.844,0.585-2.209,1.355
		c-0.675-0.359-1.471-0.584-2.416-0.584c-1.618,0-2.839,0.616-3.666,1.542c-3.802-0.182-7.112,1.356-10.782,1.732
		c-4.286,0.439-8.617,0.279-12.917,0.361c-9.66,0.185-19.28-0.354-28.908,0.734c-0.177,0.021-0.35,0.051-0.526,0.077
		c-4.175-0.855-8.602-1.358-12.474-0.865c-0.308-0.508-0.889-0.582-1.395-0.356c-0.244,0.109-0.505,0.115-0.766,0.116
		c-0.573,0.002-0.883,0.391-0.961,0.826c-0.414-0.49-1.03-0.826-1.867-0.826c-0.956,0-1.627,0.434-2.032,1.042
		c-0.234,0.027-0.469,0.052-0.701,0.096c-0.861,0.146-1.719,0.318-2.57,0.514c-0.187,0.041-0.36,0.095-0.539,0.143
		c-5.337,0.007-10.6,0.1-15.982,0.725c-6.031,0.701-12.039-2.206-17.843-3.437c-6.701-1.42-14.51-0.653-20.603,2.553
		c-3.197,1.683-5.647,3.855-7.83,6.691c-0.721,0.936-1.369,1.899-2.013,2.891c-1.626,2.507-2.424,1.924,0.569,0.968
		c-1.74,0.556-3.2,1.574-4.353,2.859c-0.608-0.164-1.235-0.272-1.874-0.317c-1.038-0.963-2.3-1.695-3.742-2.067
		c-1.736-0.447-3.486-0.756-5.286-0.844c-4.081-0.199-7.869,2.969-8.921,6.791c-1.421,5.167,1.732,9.645,6.461,11.379
		c-2.895-1.063-0.551-0.19,0.191,0.257c0.729,0.44,1.439,0.898,2.203,1.28c3.554,1.778,7.128,2.226,11.005,1.29
		c1-0.242,1.909-0.667,2.721-1.222c0.202,0.884,0.482,1.766,0.849,2.629c0.242,0.57,0.461,1.146,0.667,1.726
		c-1.087,2.103-0.721,4.979,1.081,6.564c0.151,1.413,0.188,2.829,0.189,4.253c0,0.671,0.528,1,1.048,0.991
		c0.422,4.516,0.563,9.094,1.141,13.534c-2.102,3.371-1.804,8.236,0.889,11.182c-1.563,3.84,0.262,9.189,5.478,9.476
		c1.634,1.576,3.918,2.591,6.861,2.591c1.298,0,2.464-0.204,3.507-0.56c0.78,0.397,1.644,0.698,2.598,0.876
		c0.131,0.799,0.348,1.575,0.67,2.292c1.327,2.958,3.544,5.605,4.482,8.696c0.749,2.463-0.475,6.207-0.581,8.747
		c-0.164,3.951,0.972,7.469,3.551,10.432c0.222,0.255,0.466,0.486,0.723,0.702c-0.223,1.124-0.323,2.255-0.399,3.421
		c-0.201,3.137,1.141,6.417,3.178,8.735c0.787,0.895,1.703,1.618,2.684,2.251c-0.042,0.479-0.027,0.982,0.069,1.514
		c0.78,4.321,1.309,8.672,1.881,13.024c0.62,4.725,1.868,9.38,2.261,14.126c-0.077,0.925-0.131,1.851-0.146,2.776
		c-0.029,1.679,0.027,3.345,0.117,5.005c-0.173,2.817-0.421,5.643-0.442,8.415c-0.033,4.341-1.558,8.476-1.285,12.848
		c0.029,0.464,0.131,0.889,0.262,1.297c-3.253,0.134-4.82,2.806-4.707,5.392c-0.814,0.915-1.241,2.131-1.287,3.365
		c-0.603,0.494-1.055,1.132-1.356,1.838c-2.729,2.728-1.669,8.634,3.165,8.896c0.539,0.44,1.205,0.754,1.982,0.921
		c0.148,1.146,0.962,2.189,2.456,2.188c2.221-0.002,4.428-0.062,6.594-0.605c1.519-0.382,2.486-2.418,1.536-3.775
		c-0.668-0.954-1.01-1.993-1.278-3.121c-0.133-0.56-0.155-1.113-0.145-1.689c0.001-0.039,0.019-0.125,0.034-0.205
		c0.453-0.136,0.806-0.358,1.07-0.636c0.201,0.274,0.415,0.543,0.652,0.798c2.255,2.437,5.88-1.206,3.633-3.633
		c-0.593-0.64-0.784-1.448-0.997-2.278c-0.3-1.17-0.603-2.292-1.171-3.369c-0.123-0.233-0.269-0.426-0.429-0.59
		c-0.01-0.411-0.053-0.835-0.176-1.278c-0.07-0.254-0.171-0.504-0.289-0.749c0.227-0.412,0.421-0.867,0.546-1.401
		c0.86-3.712,2.702-7.52,2.743-11.37c0.011-1.059-0.032-2.115-0.105-3.17c0.204-0.516,0.335-1.092,0.371-1.731
		c0.321-5.658,3.536-10.738,4.111-16.445c0.063-0.619,0.008-1.17-0.123-1.667c0.346-2.933,0.56-5.869,0.614-8.822
		c0.336-1.508,0.755-2.995,1.238-4.46c1.143-0.327,2.24-0.698,3.223-1.343c0.011-0.002,0.024-0.004,0.036-0.007
		c2.819-0.64,5.415-2.163,7.353-4.276c0.429-0.554,0.857-1.109,1.286-1.664c0.187-0.246,0.324-0.437,0.429-0.589
		c2.128-0.69,4.221-1.267,6.285-2.191c2.016-0.903,4.007-1.837,5.969-2.83c0.041,0.193,0.083,0.389,0.142,0.588
		c1.086,3.714,0.281,8.028,0.766,11.914c0.389,3.117,0.285,6.066-0.185,9.106c-1.896,1.437-2.396,4.221-1.506,6.376
		c-1.099,2.008-0.857,4.776,0.75,6.429c0.293,1.752,0.826,3.447,1.694,5.049c-0.242,1.98,0.513,4.102,2.273,5.167
		c-0.481,2.564-0.313,4.925,0.199,7.584c0.793,4.119,0.982,7.035-0.338,11.106c-1.94,5.981-5.196,11.639,0.15,16.85
		c4.429,4.316,11.921,1.826,13.504-3.929c0.97-3.527,0.084-7.463-1.245-11.126c2.11-1.027,1.733-4.886-1.141-4.886
		c-0.025,0-0.045,0.006-0.071,0.007c0.157-1.098,0.283-2.206,0.328-3.348c0.143-3.614-2.135-7.163-1.212-10.711
		c0.279-1.067,0.228-2.028-0.044-2.865c0.836-0.912,1.281-2.135,1.334-3.382c3.476-5.913,2.458-14.166,2.378-20.667
		c-0.057-4.633,1.341-8.235,2.68-13.058c1.293-4.659,2.498-9.331,3.449-14.059c2.077-0.014,4.106,0.02,5.951,0.027
		c3.428,0.015,6.703,0.958,10.068,1.475c0.662,0.102,1.309,0.17,1.951,0.214c-0.031,1.307,0.792,2.639,2.48,2.639
		c0.39,0,0.73-0.076,1.028-0.201c0.298,0.125,0.638,0.201,1.028,0.201c1.842,0,2.657-1.587,2.451-2.998
		c0.446-0.064,0.894-0.133,1.349-0.207c2.713-0.441,5.498-1.17,8.21-2.128c0.125,0.779,0.365,1.597,0.768,2.531
		c0.123,0.286,0.279,0.535,0.447,0.769c-0.065,0.318-0.11,0.651-0.12,1.006c-0.348,11.937,2.087,23.804,0.514,35.717
		c-0.103,0.771-0.045,1.446,0.128,2.034c-0.543,1.679-1.216,3.324-2.101,4.92c-1.155,2.082-2.073,4.255-2.919,6.478
		c-0.116,0.307-0.208,0.587-0.281,0.844c-0.616,0.4-1.16,0.939-1.578,1.63c-0.741,1.225-1.492,2.423-2.313,3.597
		c-2.951,4.225,1.926,8.373,6.013,7.384c0.972,0.707,2.121,1.215,3.483,1.45c0.858,0.149,1.749,0.106,2.591-0.101
		c0.413,0.479,1.033,0.798,1.859,0.798c2.445,0,3.079-2.792,1.918-4.259c0.108-0.432,0.162-0.894,0.138-1.394
		c-0.071-1.443-0.419-3.108-0.184-4.544c0.031-0.188,0.111-0.398,0.21-0.615c0.067,0.101,0.134,0.2,0.213,0.294
		c0.335,0.395,0.634,1.081,1.028,1.542c1.737,2.04,4.906-0.146,4.295-2.501c-0.55-2.115-1.379-4.173-2.573-6.01
		c-0.07-0.108-0.152-0.204-0.235-0.299c0.275-1.278,0.142-2.654-0.448-3.807c0.041-0.101,0.088-0.198,0.127-0.301
		c1.474-3.838,2.093-7.939,2.778-11.976c1.276-7.507,4.078-14.548,5.4-21.996c0.611-3.437,0.442-6.971,0.728-10.44
		c0.313-3.794,0.921-7.56,1.341-11.345c1.841-1.727,3.551-3.586,5.096-5.265c0.463-0.504,0.952-0.98,1.44-1.455
		c-0.423,0.505,1.983-1.417,2.107-1.505c0.535-0.372,1.05-0.764,1.551-1.17c1.875,4.309,2.89,8.947,3.831,13.531
		c0.922,4.5,3.369,8.473,4.635,12.87c2.226,7.737,2.83,17.317,7.345,24.187c0.199,0.304,0.415,0.57,0.634,0.828
		c0.033,0.078,0.072,0.15,0.107,0.225c-0.771,1.362-0.919,3.076,0.075,4.85c4.153,7.414-3.524,15.311-3.786,22.589
		c-0.131,3.624,2.397,6.813,5.75,7.791c2.029,0.592,3.902,0.037,5.533-1.026c2.368,0.348,4.793-0.675,5.237-3.601
		c0.062-0.407,0.102-0.809,0.132-1.209c0.7,0.199,1.591-0.313,1.3-1.202c-0.278-0.85-0.492-1.72-0.771-2.57
		c-0.121-0.371-0.384-0.57-0.679-0.656c-0.372-3.037-1.113-5.996-1.049-9.204c0.096-4.82,0.508-9.414-0.776-14.083
		c1.078-1.069,1.777-2.588,1.771-4.563c-0.019-4.884,1.57-9.547,2.056-14.39c0.564-5.623,0.916-11.26,1.448-16.882
		c0.441-4.657,0.858-9.241,1.702-13.847c0.406-2.207,0.79-4.428,1.035-6.659c0.301-2.754-0.302-5.676,0.2-8.373
		c0.105-0.559,0.133-1.105,0.107-1.634c0.583-1.102,0.921-2.431,0.903-3.996c-0.004-0.394-0.019-0.795-0.036-1.199
		c-0.033-1.18-0.048-2.354-0.048-3.522c2.991-4.351,3.755-9.134,3.906-14.212c3.617-5.011,4.909-12.786,5.877-19.914
		c0.805,3.104,1.774,6.158,3.174,9.051c0.143,0.296,0.323,0.521,0.526,0.688c0.188,2.064,0.218,4.132,0.22,6.204
		c-1.875,2.485-1.918,5.331-1.211,8.292c0.617,2.578,4.581,1.484,3.964-1.093c-0.323-1.35-0.702-3.221,0.242-4.424
		C255.743,95.003,255.915,93.839,255.052,92.977z"/>
</g>
<g id="Layer_1_2_">
	<g>
		<g id="Layer_1_1_">
			<g>
				<g id="Layer_1_3_">
					<g>
						<path fill="#373535" d="M67.997,65.481c-0.113,0.025-0.238,0.157-0.377,0.396c-0.428,0.428-0.64,0.729-0.64,0.904l0.113,0.076
							c0.075,0.087,0.132,0.188,0.17,0.301c0.264,0.238,0.414,0.359,0.452,0.359c0.101,0,0.189-0.044,0.264-0.132
							c0.075-0.101,0.113-0.238,0.113-0.414l-0.188-0.452c0.176-0.515,0.263-0.792,0.263-0.829
							C68.166,65.513,68.111,65.444,67.997,65.481z M67.903,64.69c0.364-0.377,0.61-0.565,0.735-0.565
							c0.138-0.138,0.565-0.257,1.282-0.359c0.276,0,0.458,0.119,0.547,0.359v0.829c0,2.136-0.791,3.204-2.374,3.204
							c-0.251,0-0.59-0.15-1.018-0.452c-0.214-0.201-0.352-0.333-0.414-0.396c-0.087-0.088-0.132-0.17-0.132-0.245
							c0-0.076,0.182-0.44,0.547-1.093C67.489,65.18,67.765,64.752,67.903,64.69z M69.637,64.219c0,0.063,0.032,0.276,0.095,0.64
							l0.283,0.547c0.238,0,0.359-0.214,0.359-0.641c0-0.163-0.119-0.376-0.359-0.64C69.763,63.974,69.637,64.005,69.637,64.219z"/>
						<path fill="#FFFFFF" d="M69.637,64.219c0-0.214,0.125-0.245,0.377-0.095c0.238,0.264,0.359,0.477,0.359,0.64
							c0,0.428-0.119,0.641-0.359,0.641l-0.283-0.547C69.668,64.494,69.637,64.281,69.637,64.219z"/>
						<path fill="#EFF0F0" d="M68.166,65.689c0,0.038-0.087,0.315-0.263,0.829l0.188,0.452c0,0.176-0.038,0.315-0.113,0.414
							c-0.075,0.087-0.163,0.132-0.264,0.132c-0.038,0-0.188-0.119-0.452-0.359c-0.038-0.113-0.095-0.214-0.17-0.301l-0.113-0.076
							c0-0.176,0.214-0.477,0.64-0.904c0.139-0.238,0.264-0.371,0.377-0.396C68.111,65.444,68.166,65.513,68.166,65.689z"/>
						<path fill="#373535" d="M40.992,103.84c0.002-0.17,0.071-0.242,0.208-0.216c0.113,0.025,0.321,0.132,0.622,0.321
							c0.477,0.301,0.716,0.546,0.716,0.735c0,0.075-0.057,0.17-0.17,0.283c-0.063,0.063-0.157,0.095-0.283,0.095
							c-0.176-0.125-0.359-0.339-0.547-0.641c-0.214-0.276-0.352-0.452-0.414-0.527C41.039,103.789,40.995,103.774,40.992,103.84z"
							/>
						<path fill="#373535" d="M53.713,103.209c-0.377,0.868-0.741,1.3-1.093,1.3c-0.315,0-0.471-0.157-0.471-0.471
							c0-0.101,0.069-0.226,0.208-0.377c0.163-0.163,0.37-0.315,0.622-0.452c0.226-0.125,0.408-0.188,0.546-0.188
							C53.649,103.021,53.713,103.083,53.713,103.209z"/>
						<path fill="#373535" d="M31.287,66.423c0-0.189-0.025-0.308-0.075-0.359c-0.05-0.063-0.145-0.094-0.283-0.094
							c-0.252,0-0.377,0.182-0.377,0.547c0,0.176,0.125,0.263,0.377,0.263C31.167,66.781,31.287,66.662,31.287,66.423z
							 M28.819,64.746v-0.527l-0.094-0.17c0-0.176,0.025-0.283,0.075-0.321c0.037-0.038,0.132-0.057,0.283-0.057h0.095
							c0.125,0.038,0.289,0.145,0.49,0.321c0.138,0.113,0.37,0.313,0.697,0.603c1.106,0.829,1.659,1.47,1.659,1.922
							c0,0.163-0.151,0.283-0.452,0.358c-0.188,0.125-0.527,0.189-1.018,0.189c-0.301,0-0.484-0.032-0.547-0.095h-0.095
							c-0.189,0-0.307-0.032-0.358-0.095c0.05,0,0.075-0.087,0.075-0.264l-0.17-0.188c0.176-0.955,0.263-1.533,0.263-1.734
							c0-0.315-0.15-0.471-0.451-0.471c-0.139,0-0.252,0.057-0.34,0.17C28.86,64.496,28.822,64.616,28.819,64.746z"/>
						<path fill="#FFFFFF" d="M30.929,66.781c-0.252,0-0.377-0.087-0.377-0.263c0-0.364,0.125-0.547,0.377-0.547
							c0.138,0,0.232,0.031,0.283,0.094c0.05,0.05,0.075,0.17,0.075,0.359C31.287,66.662,31.167,66.781,30.929,66.781z"/>
						<path fill="#373535" d="M113.678,238.046l-0.923,1.922l-0.188,1.112c0,0.214-0.05,0.408-0.151,0.584
							c-0.101,0.15-0.2,0.226-0.301,0.226c-0.188,0-0.283-0.119-0.283-0.359v-0.358c0-0.377,0.063-0.811,0.189-1.301
							c0.063-0.427,0.094-0.76,0.094-0.999c0.238-0.553,0.39-0.918,0.452-1.093c0.2-0.2,0.414-0.264,0.64-0.189
							c0.2,0.139,0.315,0.214,0.339,0.227C113.634,237.895,113.678,237.97,113.678,238.046z"/>
						<path fill="#373535" d="M122.101,238.874c0.075-0.339,0.315-0.458,0.715-0.359c0.364,0,0.547,0.119,0.547,0.359
							c0,0.163-0.15,0.472-0.452,0.923c-0.364,0.628-0.547,1.087-0.547,1.376c-0.163,0.616-0.313,1.067-0.452,1.356
							c-0.214,0.617-0.339,0.923-0.377,0.923c-0.101,0-0.188-0.15-0.264-0.451v-0.472c0-0.376,0.057-0.709,0.17-0.999
							c0.076-0.226,0.201-0.685,0.377-1.375C121.919,239.389,122.014,238.962,122.101,238.874z"/>
						<path fill="#373535" d="M216.006,215.168c0.189,0,0.283,0.095,0.283,0.282c0,0.226-0.157,0.59-0.472,1.093
							c-0.251,0.377-0.402,0.616-0.451,0.716c-0.125,0.237-0.189,0.457-0.189,0.66c0,1.457-0.088,2.186-0.264,2.186
							c-0.163,0-0.289-0.119-0.376-0.359c0.063-0.251,0.095-0.465,0.095-0.641c-0.064-0.063-0.095-0.427-0.095-1.092
							c0-0.252,0.125-0.742,0.376-1.471c0.125-0.44,0.295-0.785,0.509-1.036C215.623,215.28,215.817,215.168,216.006,215.168z"/>
						<path fill="#373535" d="M225.617,217.466c-0.238,0.465-0.358,0.829-0.358,1.093c0,0.176-0.032,0.359-0.095,0.546
							c0,0.238-0.095,0.359-0.283,0.359l-0.095-0.095v0.923c-0.087,0.428-0.238,0.641-0.451,0.641c-0.038,0-0.082-0.038-0.133-0.113
							c-0.037-0.064-0.057-0.119-0.057-0.17l-0.075-0.359c0-0.465,0.213-1.319,0.64-2.562c0.05-0.364,0.107-0.61,0.17-0.735
							c0.15-0.264,0.183-0.478,0.095-0.641c-0.088-0.251-0.088-0.465,0-0.64c0.125-0.364,0.339-0.546,0.64-0.546
							c0.729,0,1.093,0.15,1.093,0.451c-0.113,0.189-0.295,0.434-0.546,0.735C225.8,216.907,225.617,217.278,225.617,217.466z"/>
						<path fill="none" stroke="#373535" stroke-width="1.5418" d="M232.212,32.917c0-0.603-0.156-1.213-0.471-1.829
							c-0.038-0.125-0.163-0.515-0.377-1.168c-0.112-0.364-0.169-0.616-0.169-0.753c-0.177-1.344-0.936-2.594-2.281-3.75
							c-1.76-1.759-3.587-2.921-5.485-3.486c-1.608-0.666-2.952-1.124-4.033-1.375c-0.803-0.39-1.476-0.446-2.016-0.17
							c-1.647,0.428-3.933,0.64-6.86,0.64l-4.128-0.283c-1.219,0-3.569,0.521-7.048,1.564c-3.58,1.169-6.935,1.96-10.064,2.374
							c-1.494,0.087-3.97,0.578-7.425,1.47c-3.442,0.929-5.728,1.658-6.86,2.186c-1.433,0-2.99,0.15-4.674,0.452
							c-2.5,0.313-3.813,0.471-3.939,0.471c-4.033,0.427-7.664,0.76-10.892,0.999c-2.739,0.063-5.912,0.094-9.518,0.094
							c-7.474,0-14.522,0.182-21.144,0.547c-5,0.226-9.881,0.534-14.643,0.923c-3.719-0.892-7.231-1.199-10.535-0.923
							c-1.972,0-3.919,0.308-5.842,0.923c-1.809,0.603-3.794,0.904-5.955,0.904c-1.407,0-2.261-0.031-2.562-0.094
							c-0.428-0.113-1.25-0.17-2.469-0.17c-2.275,0-4.567,0.15-6.878,0.452c-3.367,0.289-5.503,0.748-6.408,1.375
							c-0.352-0.251-0.653-0.402-0.904-0.452c-1.533-0.315-2.45-0.527-2.752-0.641l-2.206-0.828
							c-0.967-0.44-2.368-0.899-4.202-1.376c-2.563-0.641-4.793-1.036-6.69-1.187l0.189-0.094l-0.452,0.094l-0.377-0.094
							c-0.854-0.126-2.895-0.189-6.124-0.189c-1.244,0.101-2.162,0.315-2.752,0.641c-0.867,0.565-1.477,0.904-1.829,1.018
							c-0.063,0.064-0.767,0.276-2.11,0.641c-1.256,0.377-2.199,0.741-2.827,1.093c-1.357,0.779-2.362,1.54-3.016,2.281
							c-0.465,0.691-0.866,1.456-1.206,2.298c0.352,0.603,0.233,1.395-0.358,2.375c-0.465,0.866-1.137,1.601-2.017,2.205
							c-1.395,1.056-2.978,2.029-4.749,2.921l-2.111,1.018c-0.364-0.276-1.068-0.678-2.111-1.206
							c-0.427-0.238-1.005-0.541-1.734-0.904c-0.377-0.263-0.93-0.54-1.658-0.829c-3.054,0-4.881,0.063-5.484,0.189
							c-0.767,0.2-1.407,0.477-1.922,0.829c-2.563,1.734-4.177,3.134-4.843,4.202C4.618,49.152,4.28,50.495,4.28,52.33
							c0,1.708,1.219,3.876,3.656,6.501c3.568,3.908,8.209,5.862,13.926,5.862c1.809,0,3.06-0.157,3.751-0.471
							c0.301-0.063,0.483-0.151,0.547-0.264c0.163,0.289,0.408,0.591,0.735,0.904c0.339,0.44,0.767,0.716,1.282,0.829
							c0.064,0.063,0.095,0.157,0.095,0.283c-0.188,0.452-0.283,1.093-0.283,1.922c-0.063,0.602-0.095,1.514-0.095,2.733
							c0,0.653,0.276,1.419,0.829,2.298c0.489,1.08,0.735,1.966,0.735,2.657c0,1.219,0.031,1.948,0.095,2.185
							c0.05,0.252,0.2,1.225,0.452,2.921c0.05,0.05,0.17,0.483,0.358,1.3c0.125,0.728,0.189,1.124,0.189,1.187
							c0,0.352,0.125,0.811,0.377,1.375c0.05,0.201,0.132,0.458,0.245,0.773c0.075,0.214,0.113,0.352,0.113,0.414
							c0,0.238-0.095,0.816-0.283,1.734c0,0.289,0.157,0.779,0.471,1.47c0.176,0.428,0.358,0.855,0.547,1.282
							c0,0.063-0.063,0.396-0.189,0.999c-0.176,1.193-0.264,2.079-0.264,2.657c0,0.628,0.088,1.451,0.264,2.469l-0.188,1.659
							c0,1.533,0.182,2.72,0.547,3.561c0.439,0.867,0.66,1.627,0.66,2.281c0,0.125-0.157,0.986-0.471,2.582
							c-0.301,1.306-0.452,2.343-0.452,3.109c0,0.428,0.245,0.973,0.735,1.639c0.703,0.791,1.646,1.282,2.827,1.47h2.657
							c0.301,0.377,1.005,0.986,2.111,1.827c1.658,0.981,2.877,1.47,3.656,1.47c1.948,0,3.198-0.276,3.75-0.829
							c0.189,0.125,0.591,0.37,1.207,0.735c0.729,0.364,1.821,0.547,3.279,0.547h0.471l1.282,2.28
							c0.918,1.482,1.709,2.312,2.375,2.487c-0.026,0.125-0.082,0.333-0.17,0.622c-0.075,0.289-0.113,0.565-0.113,0.829l0.471,1.282
							c0.301,0.943,0.452,1.583,0.452,1.922c0,0.44-0.182,1.784-0.546,4.033c-0.364,2.136-0.547,3.693-0.547,4.674
							c0,2.839,0.27,4.88,0.81,6.124l1.112,3.109c0.189,0.553,0.735,1.193,1.639,1.922c0.466,0.403,0.892,0.742,1.282,1.018
							c-0.063,0.301-0.094,0.912-0.094,1.827c0,0.139-0.151,0.842-0.452,2.111c-0.125,0.729-0.188,1.369-0.188,1.922
							c0,1.797,1.225,4.052,3.675,6.765c0,0.064,0.057,0.125,0.17,0.189c0.804,0.918,1.476,1.621,2.017,2.111
							c0,2.752,0.49,6.501,1.47,11.25c1.03,4.648,1.545,8.612,1.545,11.891c0,1.407-0.057,2.933-0.17,4.579v7.048
							c0,0.678,0.032,1.137,0.094,1.375v0.452c0,1.005,0.12,2.469,0.359,4.391l0.095,4.504c0,0.866-0.339,2.267-1.018,4.203
							c-0.64,1.884-1.005,3.291-1.093,4.22c-0.113,1.533-0.17,2.933-0.17,4.203c0,0.176-0.031,0.571-0.094,1.187
							c-0.528,0.213-1.018,0.552-1.471,1.018c-0.553,0.477-0.98,1.055-1.282,1.734l-1.734,3.561
							c-0.628,1.219-1.213,2.469-1.752,3.751c-0.565,1.256-0.904,2.029-1.018,2.318c-0.238,0.552-0.358,0.911-0.358,1.074
							l0.283,0.735c-0.854,0.352-1.496,0.715-1.922,1.093c-1.835,1.193-2.752,2.261-2.752,3.203l0.829,2.018
							c1.08,1.281,2.576,1.921,4.484,1.921c0.616,0,1.534-0.213,2.752-0.64c0.377-0.15,0.709-0.333,0.999-0.546
							c0.339,0,0.767-0.15,1.282-0.452c0.125-0.125,0.22-0.189,0.282-0.189c0.704,0.591,1.615,0.923,2.733,0.999
							c0.804,0.364,1.784,0.547,2.94,0.547c0.653,0,1.112-0.088,1.375-0.264c0.364-0.189,1.068-0.283,2.111-0.283l1.357,0.283
							c0.816,0,1.276-0.428,1.375-1.282c0-0.552-0.031-0.949-0.094-1.186c-0.113-0.113-0.17-0.208-0.17-0.283v-0.359
							c0-0.565-0.157-1.206-0.471-1.922c-0.238-0.904-0.359-1.67-0.359-2.298c0-0.617,0.214-1.407,0.641-2.375
							c0.126,0.125,0.245,0.189,0.359,0.189c0.125,0.125,0.339,0.214,0.64,0.264c0.076,0.139,0.321,0.264,0.735,0.376
							c0.641,0.301,1.069,0.484,1.282,0.547c0.087,0.237,0.214,0.358,0.377,0.358c0.315,0,0.578-0.081,0.791-0.245
							c0.214-0.162,0.345-0.383,0.396-0.66v-1.093c0-0.891-0.339-2.607-1.018-5.144c-0.729-2.45-1.093-4.183-1.093-5.202
							c0-1.068,0.214-2.902,0.641-5.503c0.087-0.767,0.27-1.684,0.547-2.752c0.428-1.52,0.704-2.463,0.829-2.828
							c0.075-0.565,0.132-1.005,0.17-1.319c0.075-0.565,0.113-1.074,0.113-1.525c0.113-1.457,0.17-2.369,0.17-2.733
							c0.315-1.708,0.527-2.84,0.641-3.392h0.094c0.101,0,0.283-0.704,0.547-2.111c0.428-2.312,0.822-4.052,1.187-5.22
							c0.252-0.729,0.836-3.166,1.752-7.311c0.301-1.357,0.666-3.983,1.093-7.877c0.49-4.272,0.735-6.559,0.735-6.86h0.641
							c2.199,0,4.24-1.558,6.125-4.674c3.103-1.508,5.421-2.726,6.953-3.657c3.002-1.948,5.352-3.14,7.048-3.58
							c0.315-0.125,0.685-0.245,1.112-0.358c0.025,0.075,0.126,0.263,0.301,0.565c0.214,0.339,0.383,0.64,0.509,0.904
							c0.289,0.403,0.533,0.64,0.735,0.715c0.252,0.817,0.377,2.193,0.377,4.128c0,2.325,0.301,4.309,0.904,5.955
							c0,0.176,0.094,0.477,0.283,0.904v0.095c0,0.064-0.49,2.167-1.47,6.313c-0.98,4.473-1.47,7.739-1.47,9.799
							c0,1.482,0.402,3.556,1.207,6.219c0.276,1.219,0.728,2.501,1.357,3.844c0.666,1.494,1.156,2.287,1.47,2.375
							c0.49,0.891,0.767,1.508,0.829,1.847c0.113,0.44,0.214,1.01,0.301,1.714c0.05,0.39,0.132,1.005,0.245,1.847
							c0,0.478,0.038,1.105,0.113,1.884c0.038,0.428,0.095,1.049,0.17,1.866c0.05,0.678,0.075,1.809,0.075,3.393
							c0,1.005-0.15,2.927-0.452,5.766c-0.201,0.966-0.503,2.186-0.904,3.656c-0.315,0.741-0.559,1.444-0.735,2.111
							c-0.477,0.729-0.904,1.677-1.282,2.846c-0.315,1.608-0.471,3.16-0.471,4.654v1.112c0,0.364,0.044,0.654,0.132,0.866
							c0.087,0.214,0.201,0.321,0.339,0.321c-0.565,0.466-1.024,1.194-1.375,2.186c-0.428,1.257-0.641,2.513-0.641,3.769
							c0,0.892,0.15,1.652,0.452,2.281c0.653,1.219,2.029,1.827,4.127,1.827c0.804,0,1.809-0.182,3.015-0.546
							c0.666-0.289,1.005-0.434,1.018-0.434c0.289-0.139,0.471-0.27,0.547-0.396c0.113,0.289,0.17,0.446,0.17,0.471
							c0.188,0.264,0.678,0.597,1.47,0.999c1.018,0.553,1.777,0.829,2.28,0.829h0.095c0.063,0.064,0.245,0.095,0.547,0.095h0.471
							c0.113,0.05,0.264,0.075,0.452,0.075c3.781,0,5.673-2.01,5.673-6.03v-0.64l0.547-0.829c0.252-0.49,0.377-0.98,0.377-1.471
							c0-0.176-0.082-0.527-0.245-1.055c-0.2-0.691-0.484-1.464-0.848-2.318c-0.188-0.566-0.414-1.213-0.678-1.942
							c-0.301-0.829-0.478-1.313-0.528-1.451c0-0.704-0.214-2.72-0.64-6.049c-0.064-0.113-0.095-0.327-0.095-0.641
							c0.503-0.063,0.904-0.245,1.206-0.546c0.301-0.414,0.452-0.811,0.452-1.187c0-0.163-0.119-0.565-0.358-1.207
							c-0.301-0.779-0.704-1.69-1.206-2.732c-0.49-1.219-0.823-2.041-0.999-2.468l-0.283-2.846
							c-0.364-2.073-0.578-3.443-0.641-4.108h0.095l0.189-1.282l-0.189-1.658c0-0.578,0.458-3.41,1.376-8.5
							c0.917-5.276,1.375-9.246,1.375-11.91c0-0.918-0.094-1.827-0.283-2.732c-0.113-0.617-0.17-1.351-0.17-2.206
							c0.101,0,0.245-0.364,0.433-1.093c0.226-0.854,0.446-1.953,0.66-3.298c0.428-2.199,0.729-3.661,0.905-4.39
							c0.377-1.344,0.621-2.23,0.735-2.657c0.315-0.54,0.622-1.488,0.923-2.846c0.276-1.52,0.49-2.463,0.64-2.828
							c0.177-0.665,0.264-1.614,0.264-2.846c0.125-1.331,0.189-2.122,0.189-2.374c0.064-0.125,0.125-0.308,0.189-0.547
							c0.703-2.738,1.131-4.447,1.281-5.125c1.068-0.553,1.709-0.829,1.922-0.829c1.319-0.491,2.539-0.735,3.657-0.735
							c2.135,0,5.125,0.546,8.97,1.639c2.903,0.766,4.429,1.169,4.58,1.206c1.168,0.302,1.871,0.452,2.11,0.452
							c1.885,0,4.234-0.704,7.048-2.111c0.139-0.05,0.503-0.321,1.093-0.81c0.54-0.427,1.03-0.678,1.47-0.753
							c1.596-0.528,2.965-0.829,4.108-0.905c0.918,4.636,1.376,8.36,1.376,11.175c0,1.394-0.088,2.921-0.264,4.579v7.124
							c0.113,0.654,0.17,1.112,0.17,1.376v0.376c0,0.177,0.031,0.723,0.095,1.64c0,0.063,0.031,0.094,0.095,0.094
							c0,0.238,0.031,0.635,0.095,1.187c0.125,0.364,0.188,0.855,0.188,1.471c0,2.047-0.427,6.746-1.281,14.096
							c-0.088,0.93-0.428,2.085-1.018,3.468l-1.827,3.486c-0.414,1.257-1.087,2.6-2.017,4.033c-0.428,0.428-0.729,0.792-0.905,1.093
							c-0.918,1.105-1.438,1.809-1.564,2.111v0.094c-0.917,2.024-1.375,3.147-1.375,3.373l0.189,0.735
							c-0.73,0.302-1.338,0.666-1.829,1.093c-1.834,1.207-2.752,2.281-2.752,3.223l0.829,1.997c0.767,0.967,1.803,1.577,3.109,1.827
							h0.547c0.189,0,0.37-0.025,0.546-0.075v-0.095c0.189,0,0.49-0.037,0.904-0.113c0.88-0.162,1.344-0.251,1.395-0.263
							c0.2-0.038,0.596-0.157,1.186-0.359c0.013,0,0.836-0.15,2.469-0.452c0.301,0,0.515,0.025,0.64,0.075
							c0.064,0,0.157,0.032,0.283,0.095l0.904,0.189c0.189,0.064,0.403,0.125,0.64,0.189c0.101,0.063,0.208,0.119,0.321,0.17
							c0.087,0.05,0.162,0.112,0.226,0.188c0.64,0.189,1.407,0.283,2.299,0.283c0.64,0,1.099-0.095,1.375-0.283
							c0.339-0.176,1.068-0.263,2.186-0.263l1.375,0.263c0.767,0,1.194-0.457,1.282-1.375c-0.064-0.49-0.095-0.854-0.095-1.093
							l-0.17-0.264v-0.471c0-0.678-0.156-1.288-0.471-1.827c-0.238-0.578-0.359-1.338-0.359-2.281c0-0.729,0.278-1.583,0.829-2.563
							l0.17,0.17c0.125,0.064,0.22,0.095,0.283,0.095c0.112,0.214,0.477,0.458,1.093,0.736c0.301,0.176,0.729,0.39,1.282,0.64
							c0.063,0.113,0.101,0.182,0.112,0.208c0.05,0.037,0.132,0.057,0.245,0.057c0.716,0,1.118-0.302,1.207-0.904v-1.187
							c0-0.842-0.339-2.519-1.018-5.032c-0.729-2.463-1.093-4.203-1.093-5.22c0-1.068,0.214-2.902,0.64-5.503
							c0-0.315,0.057-0.729,0.17-1.244c0.163-0.654,0.289-1.181,0.377-1.583c0.063,0,0.095-0.064,0.095-0.189v-0.189
							c0.063-0.301,0.095-0.697,0.095-1.186l1.45-4.58c0.628-1.909,1.087-3.705,1.376-5.389c0.213-1.294,0.451-2.6,0.715-3.92
							c0.2-0.992,0.302-1.52,0.302-1.582c0.338-1.42,0.98-3.248,1.921-5.485c0.704-1.508,1.1-3.311,1.187-5.408
							c0.064-2.865,0.126-4.692,0.189-5.485c0.064-0.841,0.333-2.701,0.81-5.578c0.428-2.085,0.641-3.919,0.641-5.503
							c-0.113-0.665-0.17-1.369-0.17-2.111c0.428-1.03,0.64-1.79,0.64-2.281v-0.188c1.143-1.031,2.45-2.463,3.919-4.297
							c1.445-1.834,3.065-3.392,4.862-4.674c0.125,0.251,0.403,0.835,0.829,1.752c0.678,1.294,1.074,2.418,1.187,3.373
							c0.353,1.809,0.898,3.731,1.639,5.766c1.257,5.025,2.42,8.9,3.487,11.627c0.063,0.063,0.854,1.985,2.374,5.766
							c0.666,1.771,1.338,3.693,2.017,5.766c0.126,0.502,0.584,1.942,1.376,4.315c0.063,0.214,0.189,0.704,0.376,1.471
							c0.227,0.866,0.465,1.684,0.716,2.449c0.101,0.528,0.345,1.137,0.735,1.827c0,0.227,0.095,0.566,0.282,1.018
							c-0.037,0-0.063,0.02-0.074,0.058l-0.02,0.037c0,0.125,0.119,0.521,0.359,1.187c0,0.063,0.031,0.095,0.094,0.095
							c0.49,0.891,0.767,1.501,0.829,1.827c0.189,0.704,0.339,1.891,0.452,3.561c0.101,0.654,0.22,1.91,0.359,3.769
							c0,0.666,0.031,1.79,0.095,3.373c0,1.608-0.151,3.531-0.452,5.766c-0.075,0.715-0.408,1.91-0.999,3.58
							c-0.113,0.339-0.327,1.068-0.641,2.186c-0.527,0.817-0.929,1.766-1.206,2.846c-0.364,1.106-0.546,2.657-0.546,4.654v1.112
							c0,0.691,0.182,1.087,0.546,1.187c-0.59,0.427-1.049,1.162-1.376,2.205c-0.427,1.119-0.64,2.369-0.64,3.751
							c0,1.055,0.125,1.783,0.377,2.185c0.741,1.282,2.142,1.923,4.202,1.923c0.817,0,1.797-0.183,2.94-0.547
							c0.278-0.113,0.622-0.257,1.037-0.434c0.289-0.138,0.49-0.27,0.602-0.396c0,0.125,0.032,0.283,0.095,0.471
							c0.227,0.315,0.716,0.678,1.471,1.093c0.704,0.39,1.464,0.635,2.281,0.736c0.188,0.063,0.37,0.095,0.546,0.095h0.377
							c0.125,0,0.213,0.031,0.263,0.094h0.283c3.844,0,5.766-1.985,5.766-5.955v-0.735c0.226-0.339,0.408-0.64,0.547-0.905
							c0.301-0.503,0.451-0.961,0.451-1.376c0-0.101-0.101-0.446-0.301-1.036c-0.353-1.03-0.616-1.816-0.792-2.356
							c-0.779-2.098-1.206-3.229-1.282-3.392c0-0.854-0.245-2.865-0.735-6.03v-0.66c0.414-0.075,0.811-0.258,1.187-0.547
							c0.377-0.352,0.565-0.715,0.565-1.093c0-0.2-0.138-0.64-0.414-1.319c-0.15-0.402-0.534-1.306-1.149-2.713l-1.093-2.375
							l-0.282-2.921c-0.302-2.023-0.516-3.399-0.641-4.128c0.036,0,0.067,0,0.095,0l0.189-1.187l-0.283-1.827
							c0-0.15,0.088-0.735,0.264-1.752c0.44-2.487,0.685-3.888,0.735-4.203c0.189-0.451,0.283-1.18,0.283-2.186
							c0.063-0.376,0.095-1.815,0.095-4.315c-0.038-0.39-0.006-0.918,0.095-1.583c0-0.012,0.118-0.672,0.358-1.979
							c0.49-2.085,0.735-3.185,0.735-3.298c0.327-2.412,1.119-7.048,2.375-13.908c0.251-0.966,0.654-3.317,1.207-7.047
							c0.553-3.468,0.949-5.76,1.186-6.878c0.113-0.377,0.214-0.898,0.302-1.563c0.101-0.805,0.183-1.439,0.245-1.905
							c0.176-1.897,0.295-3.027,0.359-3.392c0.251-1.533,0.495-2.908,0.735-4.127c0.064-0.301,0.095-1.244,0.095-2.827v-1.734
							c-0.064-0.252-0.095-0.44-0.095-0.565l0.095,0.095c-0.064-0.176-0.095-0.452-0.095-0.829l-0.264-3.561
							c0-0.2,0.547-2.274,1.639-6.219c0.628-2.689,1.049-4.529,1.263-5.522c0.364-1.595,0.584-2.744,0.661-3.448
							c0.414-2.739,1.086-5.245,2.016-7.519c0.339-0.904,0.672-2.337,0.999-4.297c0.102-0.703,0.227-1.476,0.377-2.318
							c0.113-0.603,0.17-0.961,0.17-1.074c0.54-1.306,1.061-2.707,1.563-4.203c0.503-1.533,0.929-2.72,1.282-3.561
							c0.779,1.722,1.419,3.399,1.922,5.032c1.156,3.115,1.734,5.402,1.734,6.86c0,1.169-0.364,2.117-1.093,2.846
							c-0.791,0.779-1.187,1.659-1.187,2.638c0,0.904,0.013,1.533,0.038,1.884c0.037,0.553,0.113,0.992,0.226,1.319
							c0.088,0.414,0.302,0.923,0.641,1.526c0.213,0.376,0.616,0.999,1.206,1.866l0.17-0.095c-0.075-0.527-0.043-0.86,0.095-0.999
							c0,0.176,0.125,0.39,0.377,0.641c0.301,0.301,0.451,0.515,0.451,0.641c0,0.263-0.125,0.596-0.376,0.999l-0.17,0.923
							c0,0.238,0.031,0.359,0.095,0.359c0,0.05,0.006,0.075,0.018,0.075c0.013,0.012,0.064,0.02,0.15,0.02
							c0.126-0.038,0.321-0.238,0.585-0.603c0.15-0.226,0.477-0.728,0.98-1.508c0.854-1.219,1.282-2.01,1.282-2.374
							c0-0.503-0.095-1.112-0.283-1.827c-0.238-0.415-0.359-0.93-0.359-1.545c0.238-1.181,0.359-1.948,0.359-2.299
							c0-0.879-0.333-1.702-0.999-2.468c0.037-0.163,0.069-0.434,0.095-0.811c0.037-0.465,0.069-0.804,0.095-1.018
							c0.176-1.331,0.264-2.343,0.264-3.034c0-4.484-1.583-9.422-4.75-14.812c0.176-1.407,0.359-2.57,0.547-3.486
							c0.54-3.355,0.81-5.309,0.81-5.861c0-0.214-0.119-1.313-0.359-3.298c-0.238-1.306-0.358-2.374-0.358-3.204
							c0-1.093-0.246-2.525-0.736-4.296c-0.44-1.407-0.841-2.38-1.206-2.921c-0.353-2.048-0.773-3.668-1.263-4.862
							c-0.993-2.425-3.16-4.561-6.502-6.408c-1.406-0.791-2.952-1.696-4.636-2.713c-1.759-1.08-3.021-1.853-3.789-2.318v-0.735
							H232.212z"/>
						<path fill="#373535" d="M228.632,213.603c0.742,0,1.169,0.032,1.282,0.095c0.125,0.064,0.282,0.125,0.471,0.189
							c0.302,0.113,0.515,0.232,0.641,0.359c0.162-0.278,0.251-0.428,0.263-0.452c0.49-0.289,0.735-1.231,0.735-2.827v-1.658
							c0.076,0.162,0.503,1.294,1.282,3.392c0.177,0.54,0.44,1.326,0.792,2.356c0.2,0.59,0.301,0.935,0.301,1.036
							c0,0.415-0.15,0.874-0.451,1.376c-0.139,0.264-0.321,0.565-0.547,0.905v0.735c0,3.971-1.922,5.955-5.766,5.955h-0.283
							c-0.05-0.063-0.138-0.094-0.263-0.094h-0.377c-0.176,0-0.359-0.032-0.546-0.095c-0.817-0.101-1.577-0.346-2.281-0.736
							c-0.753-0.414-1.244-0.779-1.471-1.093c-0.063-0.188-0.095-0.345-0.095-0.471c-0.112,0.125-0.313,0.258-0.602,0.396
							c-0.414,0.177-0.76,0.321-1.037,0.434c-1.143,0.364-2.122,0.547-2.94,0.547c-2.06,0-3.461-0.641-4.202-1.923
							c-0.252-0.402-0.377-1.131-0.377-2.185c0-1.382,0.214-2.632,0.64-3.751c0.327-1.042,0.786-1.777,1.376-2.205
							c0.064-0.05,0.22-0.145,0.471-0.283l0.359-0.17h0.452c0.515,0,1.124,0.27,1.827,0.811c0.251,0.188,0.559,0.465,0.923,0.829
							c0.125,0.125,0.188,0.251,0.188,0.376v0.264c0-0.038-0.044-0.075-0.132-0.112c-0.162-0.076-0.301-0.157-0.414-0.246
							c0.565,1.118,1.633,2.457,3.204,4.014h0.263c0.139-0.138,0.509-0.685,1.112-1.639c0.139-0.428,0.591-1.187,1.357-2.281h-0.359
							v-0.188c0-0.189,0.064-0.308,0.189-0.359c0.113-0.113,0.17-0.208,0.17-0.283c0.252-0.251,0.434-0.376,0.546-0.376
							C226.114,213.816,227.213,213.603,228.632,213.603z"/>
						<path fill="#373535" d="M167.63,219.483c-0.59,0.125-1.092,0.214-1.508,0.264c-0.59,0.2-0.986,0.321-1.186,0.359
							c-0.051,0.012-0.515,0.101-1.395,0.263c-0.414,0.076-0.715,0.113-0.904,0.113v0.095c-0.176,0.05-0.358,0.075-0.546,0.075
							h-0.547c-1.306-0.251-2.342-0.86-3.109-1.827l-0.829-1.997c0-0.943,0.918-2.017,2.752-3.223
							c0.491-0.427,1.099-0.791,1.829-1.093c0,0.088,0.081,0.27,0.245,0.547c0.138,0.251,0.237,0.408,0.301,0.471
							c0.553,0,0.98,0.119,1.282,0.359c0.427,0.301,0.885,0.665,1.375,1.093c0.125,0.251,0.37,0.622,0.735,1.111l0.189,0.17
							c0.088,0.353,0.302,0.811,0.641,1.376c0.063,0.2,0.213,0.54,0.451,1.018c0.038,0.075,0.088,0.226,0.15,0.451
							C167.607,219.307,167.63,219.433,167.63,219.483z"/>
						<path fill="#373535" d="M55.635,241.437l-0.829-2.018c0-0.941,0.917-2.009,2.752-3.203c0.428-0.377,1.068-0.742,1.922-1.093
							c0.139,0.088,0.289,0.238,0.452,0.452c0.125,0,0.283,0.063,0.471,0.188l0.811,0.189c0.063,0.064,0.156,0.095,0.283,0.095
							c0.428,0.125,0.885,0.364,1.375,0.715c0.553,0.465,0.949,0.923,1.187,1.376c0.076,0.113,0.289,0.509,0.641,1.187
							c0.301,0.502,0.452,0.904,0.452,1.206c0.1,0.528,0.194,0.861,0.282,0.999c-0.063,0-0.156,0.064-0.282,0.189
							c-0.515,0.302-0.943,0.452-1.282,0.452c-0.289,0.213-0.622,0.396-0.999,0.546c-1.219,0.428-2.136,0.64-2.752,0.64
							C58.211,243.36,56.715,242.718,55.635,241.437z"/>
						<path fill="none" stroke="#373535" stroke-width="1.5418" d="M26.162,48.294c-0.352-0.315-0.867-0.716-1.545-1.206
							c-0.666-0.477-1.187-0.836-1.564-1.074"/>
						<path fill="none" stroke="#373535" stroke-width="1.5418" d="M34.491,44.638c-0.88,0.477-1.489,1.149-1.827,2.017
							c-0.365,0.703-0.704,1.558-1.018,2.562c-0.44,1.181-0.71,1.972-0.811,2.375c-0.465,1.369-0.773,2.192-0.923,2.468
							c-0.101,0.151-0.772,1.584-2.017,4.297c-1.03,2.613-1.608,4.234-1.734,4.862c-0.064,0.214-0.095,0.339-0.095,0.377
							c0,0.101,0.031,0.22,0.095,0.359"/>
						<path fill="none" stroke="#373535" stroke-width="1.5418" d="M30.929,63.974c-0.327-0.252-0.785-0.471-1.375-0.66
							c-0.565-0.138-0.981-0.157-1.244-0.057c-0.276,0.125-0.414,0.39-0.414,0.791v0.17c0.038,0.313,0.119,0.709,0.245,1.187
							c0.176,0.678,0.37,1.169,0.585,1.47c0.515,0.616,1.25,0.923,2.205,0.923c0.477,0,0.873-0.157,1.187-0.471
							c0.063,0,0.182-0.075,0.359-0.226c0.21-0.173,0.364-0.364,0.462-0.576c-0.487-0.547-0.885-1.04-1.196-1.479
							C31.564,64.608,31.294,64.25,30.929,63.974z M34.397,68.063c-0.552-0.551-1.038-1.063-1.461-1.536"/>
						<path fill="none" stroke="#373535" stroke-width="1.5418" d="M47.588,108.523c-1.96,0.716-4.189,1.451-6.69,2.205
							c-0.339,0.101-1.042,0.434-2.11,0.999c-0.767,0.402-1.884,0.709-3.355,0.923"/>
						<path fill="none" stroke="#373535" stroke-width="1.5418" d="M60.026,111.463c-0.842,0-1.815-0.145-2.921-0.434
							c-0.214-0.063-1.464-0.44-3.75-1.131l-4.41-0.923h-0.359"/>
						<path fill="none" stroke="#373535" stroke-width="1.5418" d="M64.794,68.346l1.734-0.377c0.39,0.49,0.911,0.735,1.564,0.735
							c0.602,0,1.131-0.075,1.583-0.226c0.364-0.126,0.773-0.333,1.225-0.622c0.315-0.39,0.521-0.672,0.622-0.848
							c0.214-0.352,0.321-0.709,0.321-1.074"/>
						<path fill="none" stroke="#373535" stroke-width="1.5418" d="M72.633,64.426c-0.101-0.238-0.452-0.496-1.055-0.773
							c-0.641-0.289-1.225-0.434-1.752-0.434c-1.419,0.088-2.368,0.729-2.846,1.922c-0.565,1.244-1.294,2.312-2.186,3.204"/>
						<path fill="none" stroke="#373535" stroke-width="1.5418" d="M72.746,62.749l-0.264-0.999
							c-0.465-0.553-0.986-1.313-1.563-2.28c-0.767-1.457-1.407-2.802-1.923-4.033"/>
						<path fill="none" stroke="#373535" stroke-width="1.5418" d="M46.853,112.556c-0.315-0.063-0.559-0.095-0.735-0.095
							l-1.563,0.189c-0.678,0-1.533-0.182-2.562-0.547c-0.139-0.113-0.541-0.289-1.207-0.528c-0.704-0.252-1.062-0.377-1.074-0.377"
							/>
						<path fill="none" stroke="#373535" stroke-width="1.5418" d="M48.945,112.839l0.188,0.17l1.375,0.188
							c0.904,0,1.972-0.245,3.204-0.735c0.565-0.214,1.08-0.496,1.545-0.848c0.44-0.327,0.709-0.61,0.81-0.848"/>
						<path fill="none" stroke="#373535" stroke-width="1.5418" d="M42.594,110.238c0.238,0.064,1.294,0.257,3.166,0.584
							c0.301,0.063,1.577,0.095,3.826,0.095c1.658,0,2.637-0.032,2.94-0.095c0.126,0,0.214-0.032,0.264-0.095
							c0.125,0.038,0.452,0.006,0.981-0.094c0.465-0.088,0.854-0.182,1.169-0.283"/>
						<path fill="none" stroke="#373535" stroke-width="1.5418" d="M65.792,161.629c1.433,1.18,2.744,2.122,3.939,2.827
							c0.188,0.364,0.86,1.131,2.016,2.298l2.563,2.563c0.364,0.139,0.973,0.534,1.827,1.187c0.578,0.364,1.615,0.697,3.109,0.999
							l4.862,0.999c0.087,0.012,0.747,0.132,1.979,0.358c0.778,0.139,1.369,0.208,1.771,0.208"/>
						<path fill="none" stroke="#373535" stroke-width="1.5418" d="M128.49,225.231l-0.17-0.905
							c-0.315-2.45-0.471-3.763-0.471-3.939v-0.546l-0.264-2.752"/>
						<path fill="none" stroke="#373535" stroke-width="1.5418" d="M170.232,151c0.315,0.063,1.137,0.095,2.469,0.095
							c1.494,0,4.396-0.792,8.707-2.375c1.959-0.804,4.07-1.853,6.331-3.147c1.86-1.067,3.474-2.098,4.843-3.09"/>
						<path fill="none" stroke="#373535" stroke-width="1.5418" d="M231.289,202.617c-0.037,0-0.063-0.151-0.075-0.452l-0.019-0.452
							c-0.113-0.791-0.239-1.721-0.377-2.789c-0.075-0.704-0.132-1.087-0.17-1.15l-0.264-3.203"/>
						<path fill="none" stroke="#373535" stroke-width="1.5418" d="M105.894,153.846c1.193,0.515,2.047,1.275,2.563,2.28
							c0.251,0.441,0.521,1.207,0.81,2.299c0,0.025,0.02,0.163,0.057,0.414c0.025,0.238,0.038,0.465,0.038,0.678v0.17
							c0,0.05,0.05,0.238,0.151,0.565c0.113,0.327,0.188,0.509,0.226,0.547"/>
						<path fill="none" stroke="#373535" stroke-width="1.5418" d="M111.284,162.985c-0.063-0.364,0.006-0.911,0.208-1.639
							c0.226-0.816,0.339-1.369,0.339-1.658v-0.17c0-0.377,0.063-1.118,0.189-2.223c0.188-1.546,0.339-2.852,0.452-3.92
							c0.44-2.99,0.66-4.698,0.66-5.125c0-0.377-0.132-0.906-0.396-1.583c-0.214-0.541-0.571-1.326-1.074-2.356
							c-0.527-0.906-0.961-1.539-1.3-1.904c-0.276-0.289-0.698-0.597-1.263-0.923"/>
						<path fill="none" stroke="#373535" stroke-width="1.5418" d="M135.274,153.846c0.264-1.407,0.753-3.518,1.471-6.332
							c0.214-1.093,0.383-2.009,0.509-2.752c0.264-1.369,0.49-2.676,0.678-3.919c0.54-2.977,0.81-4.599,0.81-4.862v-0.095"/>
						<path fill="none" stroke="#373535" stroke-width="1.5418" d="M201.364,133.511c1.056-0.753,2.047-1.558,2.978-2.412
							c1.055-0.993,1.859-1.897,2.412-2.713l2.94-4.75c0.301-0.327,0.879-1.093,1.734-2.299c0.264-0.49,0.59-0.999,0.98-1.526
							c0.214-0.29,0.495-0.666,0.848-1.132c0.125-0.125,0.414-0.44,0.867-0.943c0.49-0.553,0.935-1.03,1.338-1.433
							c0.301-0.428,0.484-0.729,0.546-0.904c0.063,0,0.094,0.025,0.095,0.075v-0.17c0.101-0.214,0.194-0.339,0.282-0.377
							l0.076-0.095c0.237-0.226,0.64-0.836,1.206-1.827c0.15-0.276,0.403-0.723,0.753-1.338c0.326-0.603,0.622-1.162,0.886-1.677
							c0.037-0.125,0.144-0.408,0.321-0.848c0.251-0.59,0.452-1.099,0.603-1.526c0.502-1.533,0.898-2.544,1.186-3.034
							c0.339-0.767,0.792-2.38,1.357-4.843c0.49-2.663,0.735-4.554,0.735-5.673l-0.17-3.844c0.064-0.918,0.119-1.866,0.17-2.846
							c0.189-1.37,0.283-2.255,0.283-2.657c0.101-1.357,0.22-2.299,0.359-2.827c0.189-1.131,0.677-2.048,1.47-2.752"/>
						<path fill="none" stroke="#373535" stroke-width="1.5418" d="M225.166,26.604v0.188c0,0.339,0.207,0.761,0.621,1.263
							c0.301,0.352,1.313,1.433,3.034,3.242c0.704,0.54,1.175,0.898,1.413,1.074c0.44,0.313,1.099,0.741,1.979,1.282"/>
						<path fill="none" stroke="#373535" stroke-width="1.5418" d="M119.519,35.669c-1.419-1.193-4.567-2.457-9.442-3.788"/>
						<path fill="none" stroke="#373535" stroke-width="1.5418" d="M52.619,116.4c0.591-0.101,1.282-0.345,2.073-0.735
							c0.88-0.415,1.715-0.93,2.506-1.546c1.772-1.331,2.713-2.217,2.827-2.657H61.4c1.67,0,2.651-0.182,2.94-0.547
							c0.15-0.087,0.27-0.214,0.358-0.377c0.126-0.126,0.189-0.339,0.189-0.641c0-0.176-0.126-0.816-0.377-1.922
							c-0.301-1.143-0.452-1.846-0.452-2.11v-0.359c1.357-1.896,2.18-3.455,2.469-4.674c0.729-2.89,1.093-4.599,1.093-5.126v-1.639
							h0.096c0.315-0.779,0.597-1.488,0.848-2.13c0.49-1.18,0.999-2.362,1.526-3.542c0.428-1.156,0.641-2.927,0.641-5.315
							c-0.05-0.791-0.075-1.74-0.075-2.845c-0.189-1.37-0.283-2.313-0.283-2.827v-0.924c0-0.15-0.095-0.452-0.283-0.904
							c0.163-0.465,0.44-1.106,0.829-1.922c1.043-1.986,1.563-3.638,1.563-4.956c0-0.238-0.063-0.785-0.189-1.639
							c-0.063-0.327-0.214-0.666-0.452-1.018c0.402-0.189,0.647-0.553,0.735-1.093c0.113-0.603,0.17-1.062,0.17-1.375v-0.829
							c0.49,0.289,1.684,0.628,3.58,1.018c2.501,0.553,4.272,0.829,5.314,0.829c2.789,0,5.226-0.949,7.312-2.846
							c0.753-0.653,1.67-1.841,2.752-3.561c0.716-1.382,1.419-2.544,2.11-3.486c0.238-0.188,0.967-0.829,2.185-1.922
							c0.49-0.59,0.735-1.112,0.735-1.564c0-0.602-0.214-1.118-0.641-1.545c-0.804-0.641-1.476-1.344-2.016-2.111l-3.939-3.656
							c-1.419-1.03-2.487-1.608-3.204-1.734c-1.433-0.44-3.355-0.321-5.767,0.358c-0.691,0.252-1.545,0.648-2.563,1.187
							c-0.703,0.201-1.282,0.446-1.734,0.735c-0.113-0.038-0.264-0.125-0.452-0.264c-0.402-0.301-0.616-0.458-0.641-0.471
							c-0.553-0.264-0.892-0.565-1.018-0.904c0-0.214-0.025-0.452-0.075-0.716c-0.064-0.252-0.095-0.415-0.095-0.49
							c-0.075-0.376-0.232-0.741-0.471-1.093l-1.375-2.28c-0.528-1.08-0.981-1.847-1.357-2.299
							c-0.125-0.151-0.446-0.434-0.961-0.848c-0.503-0.414-0.798-0.678-0.886-0.791"/>
						<path fill="none" stroke="#373535" stroke-width="1.5418" d="M248.138,78.785c0.238-0.729,0.414-1.288,0.528-1.677
							c0.226-0.715,0.358-1.169,0.396-1.357c0.301-1.344,0.515-2.255,0.64-2.733"/>
						<path fill="none" stroke="#373535" stroke-width="1.5418" d="M59.931,101.569l0.188-0.188c0-0.339,0.095-0.64,0.283-0.904
							c0.113-0.276,0.17-0.458,0.17-0.547c0-0.603-0.245-1.338-0.735-2.205c-0.678-0.981-1.344-1.589-1.997-1.829
							c-0.2-0.038-0.458-0.138-0.772-0.301c-0.05-0.038-0.345-0.214-0.886-0.528c-0.879-0.49-1.338-0.735-1.375-0.735
							c-0.955-0.478-1.47-0.716-1.545-0.716c-0.753-0.189-1.979-0.189-3.675,0"/>
						<path fill="none" stroke="#373535" stroke-width="1.5418" d="M45.761,93.522c-1.319-0.176-2.331-0.176-3.034,0
							c-0.189,0.15-0.396,0.295-0.622,0.434c-0.112,0.075-0.27,0.17-0.471,0.283c-0.427,0.289-1.068,0.477-1.922,0.565
							c-0.892,0.088-1.627,0.333-2.206,0.735c-0.428,0.276-0.911,0.855-1.451,1.734c-0.428,0.829-0.64,1.407-0.64,1.734
							c0,0.101,0.031,0.414,0.094,0.943c0.076,0.641,0.132,1.213,0.17,1.714"/>
						<path fill="#373535" d="M42.085,104.961l0.095-0.095c-0.038-0.113-0.157-0.295-0.359-0.546
							c-0.125-0.201-0.371-0.414-0.735-0.641L42.085,104.961z M39.335,98.083v0.094c0,0.315-0.026,0.591-0.076,0.829
							c-0.125,0.238-0.188,0.515-0.188,0.829c0,1.018,0.641,1.928,1.922,2.733c1.282,0.929,1.922,1.727,1.922,2.393
							c0,0.238-0.069,0.434-0.208,0.584c-0.15,0.151-0.359,0.226-0.622,0.226c-0.428,0-1.187-1.005-2.281-3.016l-1.375-2.921v-0.923
							C38.542,98.661,38.844,98.384,39.335,98.083z"/>
						<path fill="#373535" d="M52.714,103.586c-0.063,0.176-0.189,0.39-0.377,0.641v0.095c0.063,0,0.157,0.031,0.283,0.094
							c0.2,0,0.352-0.157,0.452-0.471c0.189-0.353,0.283-0.654,0.283-0.904c-0.139,0.05-0.27,0.132-0.397,0.246
							C52.833,103.385,52.752,103.485,52.714,103.586z M53.996,101.757c0.943-0.565,1.545-0.936,1.809-1.112
							c0.44-0.302,0.66-0.515,0.66-0.641c0-0.126-0.126-0.428-0.377-0.904c-0.238-0.489-0.39-0.798-0.452-0.923
							c0.364,0.101,0.697,0.377,0.999,0.829c0.315,0.402,0.471,0.798,0.471,1.187c0,0.289-0.396,0.654-1.187,1.093
							c-0.929,0.465-1.727,0.955-2.394,1.47v0.095l0.641-0.283v0.188c0,0.189-0.025,0.315-0.075,0.377
							c0,0.301-0.125,0.697-0.377,1.187c-0.503,0.602-0.961,0.904-1.375,0.904c-0.39,0-0.634-0.15-0.735-0.452
							c0-0.151-0.012-0.27-0.038-0.359l-0.057-0.094C51.507,103.517,52.337,102.662,53.996,101.757z"/>
						<path fill="none" stroke="#373535" stroke-width="1.5418" d="M229.555,49.217l0.189-0.094
							c0.113-0.981,0.194-1.671,0.245-2.073c0.075-0.665,0.113-1.169,0.113-1.508c0-2.562-0.522-4.793-1.564-6.69
							c-1.055-1.897-2.607-3.418-4.654-4.561c-0.854-0.716-2.104-1.721-3.75-3.016c-1.608-1.143-3.411-1.759-5.41-1.847
							c-4.095-0.352-8.335-1.357-12.721-3.016"/>
						<path fill="none" stroke="#373535" stroke-width="1.5418" d="M240.166,92.053c-1.972,3.19-4.932,6.483-8.876,9.874
							c-0.226,0.176-0.835,0.547-1.827,1.112c-1.042,0.603-1.714,0.967-2.017,1.093c-0.301,0.238-0.451,0.634-0.451,1.187
							c0.037,0.339,0.05,0.647,0.037,0.923c-0.012,0.15-0.025,0.301-0.037,0.452c-0.201,0.753-0.478,1.577-0.829,2.469
							c-0.364,0.879-0.547,1.702-0.547,2.469l0.095,1.018c0.025,0.05,0.064,0.17,0.113,0.358c0.05,0.2,0.107,0.383,0.17,0.547
							c0.05,0.15,0.107,0.377,0.17,0.678c0.025,0.163,0.057,0.245,0.094,0.245"/>
						<path fill="#FFFFFF" d="M56.728,239.233l-0.264-0.359c0-0.289,0.428-0.715,1.282-1.282c0.805-0.729,1.596-1.093,2.374-1.093
							c0.126,0,0.189,0.064,0.189,0.189c0,0.051-0.17,0.183-0.509,0.396c-0.415,0.264-0.949,0.559-1.602,0.886
							C57.331,238.812,56.841,239.233,56.728,239.233z"/>
						<path fill="#373535" d="M112.302,236.5c0-0.087,0.15-0.182,0.452-0.282c0.189-0.113,0.37-0.17,0.547-0.17
							c0.063-0.064,0.126-0.095,0.188-0.095c0.151-0.075,0.547,0.044,1.187,0.359l2.205,1.563c0.603,0.503,1.15,1.08,1.639,1.734
							v0.095c0.553,0.666,0.86,1.124,0.923,1.376c0.05,0,0.107,0.031,0.17,0.095v0.075c0.753-1.282,1.338-2.167,1.752-2.657
							l0.999-1.357c0-0.064,0.064-0.095,0.189-0.095c0.05-0.101,0.295-0.251,0.735-0.452c0.955-0.251,1.866-0.376,2.733-0.376h0.735
							c0.377,0.125,0.591,0.188,0.641,0.188c0.063,0,0.157,0.064,0.283,0.189h0.17l0.641-0.64c0.189-0.553,0.283-1.011,0.283-1.376
							c0.113-0.527,0.208-0.835,0.283-0.923c0.214-0.352,0.408-0.578,0.584-0.677c0.189,0.54,0.452,1.287,0.791,2.243
							c0.364,0.854,0.648,1.627,0.848,2.318c0.163,0.528,0.245,0.879,0.245,1.055c0,0.491-0.125,0.981-0.377,1.471l-0.547,0.829
							v0.64c0,4.02-1.89,6.03-5.673,6.03c-0.188,0-0.339-0.025-0.452-0.075h-0.471c-0.301,0-0.484-0.031-0.547-0.095h-0.095
							c-0.503,0-1.262-0.276-2.28-0.829c-0.791-0.402-1.282-0.735-1.47-0.999c0-0.025-0.057-0.182-0.17-0.471
							c-0.075,0.125-0.257,0.257-0.547,0.396c-0.012,0-0.352,0.145-1.018,0.434c-1.206,0.364-2.211,0.546-3.015,0.546
							c-2.099,0-3.474-0.61-4.127-1.827c-0.302-0.628-0.452-1.389-0.452-2.281c0-1.256,0.214-2.512,0.641-3.769
							C111.278,237.694,111.736,236.965,112.302,236.5z"/>
						<path fill="#FFFFFF" d="M113.545,237.82c0.087,0.075,0.132,0.15,0.132,0.226l-0.923,1.922l-0.188,1.112
							c0,0.214-0.05,0.408-0.151,0.584c-0.101,0.15-0.2,0.226-0.301,0.226c-0.188,0-0.283-0.119-0.283-0.359v-0.358
							c0-0.377,0.063-0.811,0.189-1.301c0.063-0.427,0.094-0.76,0.094-0.999c0.238-0.553,0.39-0.918,0.452-1.093
							c0.2-0.2,0.414-0.264,0.64-0.189C113.407,237.731,113.521,237.806,113.545,237.82z"/>
						<path fill="#FFFFFF" d="M122.818,238.516c0.364,0,0.547,0.119,0.547,0.359c0,0.163-0.15,0.472-0.452,0.923
							c-0.364,0.628-0.547,1.087-0.547,1.376c-0.163,0.616-0.313,1.067-0.452,1.356c-0.214,0.617-0.339,0.923-0.377,0.923
							c-0.101,0-0.188-0.15-0.264-0.451v-0.472c0-0.376,0.057-0.709,0.17-0.999c0.076-0.226,0.201-0.685,0.377-1.375
							c0.101-0.767,0.194-1.193,0.283-1.282C122.177,238.535,122.416,238.416,122.818,238.516z"/>
						<path fill="#FFFFFF" d="M117.522,239.158c0.113,0.113,0.54,0.722,1.282,1.827c0.125,0.163,0.358,0.484,0.697,0.962
							c0.163,0.213,0.263,0.321,0.301,0.321c0.126,0,0.308-0.339,0.547-1.018c-0.176,0.665-0.263,1.369-0.263,2.11
							c0,0.339,0.057,0.704,0.17,1.093c-0.364-0.237-0.578-0.358-0.641-0.358c-0.063,0.063-0.119,0.095-0.17,0.095v-2.206h-0.094
							c-1.546-1.533-2.614-2.846-3.204-3.939C116.712,238.434,117.171,238.805,117.522,239.158z"/>
						<path fill="#FFFFFF" d="M127.595,237.149c0.061,0.058,0.145,0.085,0.255,0.085c0.126,0,0.283-0.032,0.471-0.095
							c0.377,0.301,0.836,0.816,1.375,1.545c0.113,0.189,0.264,0.528,0.452,1.018c-0.301,0.176-0.452,0.478-0.452,0.904
							c-0.189-0.665-0.402-1.212-0.64-1.639C128.394,238.07,127.906,237.464,127.595,237.149z"/>
						<path fill="#FFFFFF" d="M216.289,215.45c0,0.226-0.157,0.59-0.472,1.093c-0.251,0.377-0.402,0.616-0.451,0.716
							c-0.125,0.237-0.189,0.457-0.189,0.66c0,1.457-0.088,2.186-0.264,2.186c-0.163,0-0.289-0.119-0.376-0.359
							c0.063-0.251,0.095-0.465,0.095-0.641c-0.064-0.063-0.095-0.427-0.095-1.092c0-0.252,0.125-0.742,0.376-1.471
							c0.125-0.44,0.295-0.785,0.509-1.036c0.2-0.227,0.396-0.339,0.584-0.339S216.289,215.263,216.289,215.45z"/>
						<path fill="#FFFFFF" d="M225.617,215.168c0.729,0,1.093,0.15,1.093,0.451c-0.113,0.189-0.295,0.434-0.546,0.735
							c-0.364,0.553-0.547,0.923-0.547,1.112c-0.238,0.465-0.358,0.829-0.358,1.093c0,0.176-0.032,0.359-0.095,0.546
							c0,0.238-0.095,0.359-0.283,0.359l-0.095-0.095v0.923c-0.087,0.428-0.238,0.641-0.451,0.641c-0.038,0-0.082-0.038-0.133-0.113
							c-0.037-0.064-0.057-0.119-0.057-0.17l-0.075-0.359c0-0.465,0.213-1.319,0.64-2.562c0.05-0.364,0.107-0.61,0.17-0.735
							c0.15-0.264,0.183-0.478,0.095-0.641c-0.088-0.251-0.088-0.465,0-0.64C225.102,215.35,225.316,215.168,225.617,215.168z"/>
					</g>
				</g>
			</g>
		</g>
	</g>
</g>
</svg>
