<?xml version="1.0" encoding="utf-8"?>
<!-- Generator: Adobe Illustrator 17.0.1, SVG Export Plug-In . SVG Version: 6.00 Build 0)  -->
<!DOCTYPE svg PUBLIC "-//W3C//DTD SVG 1.1//EN" "http://www.w3.org/Graphics/SVG/1.1/DTD/svg11.dtd">
<svg version="1.1" id="Layer_1" xmlns="http://www.w3.org/2000/svg" xmlns:xlink="http://www.w3.org/1999/xlink" x="0px" y="0px"
	 width="198.332px" height="254.433px" viewBox="22.731 5.124 198.332 254.433"
	 enable-background="new 22.731 5.124 198.332 254.433" xml:space="preserve">
<g id="Layer_3">
	<g>
		<g id="Layer_1_4_">
			<g>
				<g id="Layer_1_5_">
					<g>
						<path fill="#FFFFFF" d="M182.134,7.827c-0.955-0.261-2.134-0.391-3.535-0.391c-0.663,0.054-1.098,0.104-1.303,0.147
							c-0.446,0-0.88-0.076-1.303-0.228l-2.167-0.684c-1.64-0.521-5.023-0.782-10.15-0.782c-6.451,0.303-11.605,1.537-15.46,3.698
							c-1.259,0.695-2.645,1.722-4.154,3.079c-0.391,0.304-1.217,0.999-2.477,2.085c-0.402,0.358-0.706,0.614-0.912,0.766
							c-1.923-0.304-3.308-0.277-4.155,0.081c-0.206,0.087-0.515,0.342-0.929,0.766c-0.142,0.098-0.347,0.326-0.618,0.684
							c-1.422,1.51-2.243,2.515-2.46,3.014c-0.749,1.227-1.44,3.253-2.069,6.076c0.065,1.673-0.912,3.595-2.932,5.767
							c-2,2.064-2.997,4.242-2.997,6.533c0,1.792-0.311,3.128-0.929,4.007c-0.663,0.814-0.995,1.765-0.995,2.852
							c0,0.706,0.331,1.678,0.995,2.916c0.901,1.434,1.52,2.384,1.857,2.851c0.184,0.358,0.668,0.847,1.45,1.466
							c1.054,0.728,1.824,1.163,2.313,1.303c1.097,0.326,2.584,1.222,4.463,2.688h0.081l0.065,0.163l0.243,1.841
							c-0.249,0.249-0.531,0.663-0.847,1.238c-0.087,0.087-0.249,0.347-0.488,0.782c-0.412,0.761-0.712,1.293-0.896,1.596
							c-0.293,0.51-0.554,1.228-0.783,2.15c-0.249,0.717-0.505,1.412-0.766,2.085c-0.641,1.38-1.434,2.813-2.378,4.301l-2.623,4.236
							c-0.152,0.282-0.505,0.814-1.059,1.596c-0.749,1.064-1.368,1.945-1.857,2.639c-1.217,1.705-2.118,3.139-2.704,4.301
							c-0.174,0.435-0.548,1.016-1.124,1.743c-0.445,0.575-1.145,1.406-2.1,2.492c-0.619,0.619-1.184,1.108-1.695,1.466
							c-0.51,0.25-0.923,0.479-1.238,0.684c-1.151,0.597-1.813,0.982-1.987,1.157c-0.098,0.119-0.303,0.326-0.619,0.619
							c-0.347,0.326-0.63,0.608-0.847,0.847c-0.412,0.358-0.902,0.793-1.466,1.303c-1.456,1.098-3.247,2.922-5.377,5.473
							c-2.194,2.639-4.529,6.354-7.005,11.143c0,0.054-0.999,1.901-2.997,5.539c-1.238,2.161-2.161,3.986-2.769,5.473
							c-0.64,1.499-1.722,3.346-3.242,5.539c-0.391,0.554-0.777,1.167-1.157,1.841c-1.194,1.129-2.269,2.568-3.225,4.317
							c-0.141,0.293-0.575,1.129-1.303,2.509c-0.684,1.293-1.276,2.455-1.776,3.486c-0.771,1.195-1.694,3.117-2.769,5.768
							c-0.207,0.499-0.923,2.422-2.151,5.767c-0.228,0.586-1.124,2.535-2.688,5.848c-0.837,1.824-1.482,3.339-1.939,4.546
							c-1.205,2.129-2.101,4.388-2.688,6.777c-0.717,2.965-1.075,5.81-1.075,8.537c0,0.358,0.049,1.331,0.147,2.915
							c0.055,0.923,0.081,1.901,0.081,2.933c0,0.618,0.076,1.645,0.228,3.079c0.054,0.868,0.081,1.841,0.081,2.915v0.229
							c0,0.108-0.027,0.315-0.081,0.618c-0.043,0.207-0.093,0.696-0.147,1.466c-0.174,0.586-0.38,1.021-0.619,1.303
							c-0.163,0.228-0.521,0.586-1.075,1.075c-0.347,0.293-1.016,0.858-2.004,1.694c-1.282,0.999-2.15,1.873-2.606,2.623
							c-0.869,1.38-1.487,2.329-1.857,2.852c-0.619,0.934-1.129,1.856-1.531,2.769c-0.608,1.673-1.276,2.878-2.004,3.616
							c-1.064,1.129-2.422,1.694-4.073,1.694c-0.652,0-2.167-0.31-4.545-0.929c-2.368-0.673-4.344-1.009-5.93-1.009
							c-1.782,0-3.318,0.282-4.61,0.847c-1.238,0.446-2.085,1.01-2.541,1.693c-0.391,0.436-0.674,0.772-0.847,1.01
							c-0.412,0.413-0.64,0.696-0.684,0.848c-0.228,0.412-0.407,0.771-0.538,1.075c-0.282,0.435-0.543,0.689-0.782,0.766
							c-2.65,0.739-4.339,1.379-5.066,1.922c-1.282,0.902-1.923,2.569-1.923,5.002c0,1.02,0.407,2.84,1.222,5.457
							c0.869,2.606,1.303,4.176,1.303,4.708c0,0.499-0.332,1.114-0.994,1.841c-0.619,0.619-0.929,1.005-0.929,1.158
							c0,0.347,1.026,0.858,3.079,1.531c0.087,0.021,0.233,0.076,0.44,0.163c0.184,0.064,0.347,0.113,0.489,0.147
							c2.585,0.783,4.019,1.195,4.301,1.238c0.153,0.021,1.743,0.381,4.773,1.076c3.031,0.51,4.98,0.766,5.848,0.766
							c2.119,0,3.839-0.386,5.164-1.157h0.148l0.163-0.148c0.25-0.152,0.581-0.435,0.994-0.847c0.261-0.261,0.516-0.565,0.766-0.912
							c0.021-0.033,0.202-0.293,0.538-0.783l1.466-3.078c0.129-0.25,0.293-0.63,0.489-1.141c0.238-0.64,0.434-1.157,0.586-1.548
							c0.293-1.032,0.479-1.717,0.554-2.054c0.142-0.585,0.212-1.032,0.212-1.336v-0.081c0.163-0.381,0.37-0.609,0.619-0.684
							c0.522-0.229,1.782-0.511,3.779-0.847c0.249-0.055,0.609-0.158,1.075-0.311c0.478-0.087,0.94-0.19,1.385-0.31
							c1.282-0.228,2.715-0.896,4.301-2.004c0.848-0.619,1.798-1.494,2.851-2.623c0.272-0.195,0.603-0.575,0.994-1.14v0.31
							c0,0.934,0.44,1.803,1.319,2.607c0.228,0.304,0.38,0.716,0.456,1.238c0.152,0.717,0.282,1.178,0.391,1.385
							c0.282,0.293,0.538,0.597,0.766,0.912c0,0.065,0.027,0.142,0.081,0.229c0.043,0.087,0.065,0.142,0.065,0.163
							c0.228,0.423,0.461,0.733,0.7,0.928c0.316,0.316,0.956,0.88,1.922,1.695c0.869,0.868,1.51,1.379,1.922,1.531
							c-0.108,0.303-0.184,0.559-0.228,0.766c-0.316,1.172-0.472,2.253-0.472,3.242v0.604c0,0.64,0.31,1.542,0.93,2.703
							c0.999,1.532,2.335,2.298,4.007,2.298c0.63,0,1.091-0.076,1.385-0.229c0.098,0.152,0.298,0.407,0.603,0.766
							c0.055,0.055,0.109,0.081,0.163,0.081c0.174,0.261,0.429,0.571,0.766,0.929c0.478,0.402,0.863,0.658,1.157,0.766
							c0.478,0.304,1.249,0.456,2.313,0.456c1.14,0,2.036-0.228,2.688-0.684c0.261-0.108,0.544-0.316,0.848-0.619
							c0.098,0.055,0.277,0.081,0.538,0.081c0.598,0,1.108-0.256,1.531-0.766c0.369-0.369,0.554-0.934,0.554-1.694
							c0.152-0.402,0.228-0.761,0.228-1.076v-0.39c0.565-0.239,1.308-0.777,2.232-1.614c0.153-0.272,0.256-0.461,0.31-0.57
							c0.098-0.174,0.147-0.32,0.147-0.44v-1.842c-0.087-1.01-0.804-2.367-2.15-4.073c-0.652-1.043-1.423-1.966-2.313-2.77
							c0.152,0.044,0.358,0.119,0.619,0.229c0.793,0.261,1.461,0.44,2.004,0.537c0.358,0.098,1.461,0.148,3.307,0.148
							c0.565,0,1.487-0.104,2.769-0.311c0.912-0.151,1.58-0.303,2.004-0.455l1.841-0.847c0.804-0.391,1.396-0.619,1.776-0.684
							c1.097-0.316,2.145-0.777,3.144-1.385c0.826-0.412,1.494-0.826,2.005-1.238c0.358-0.262,0.538-0.516,0.538-0.766
							c0.217-1.032,0.424-1.645,0.619-1.842c0.706-0.565,1.271-1.054,1.694-1.465c0.64-0.749,0.999-1.369,1.075-1.857
							c0.153-0.566,0.304-1.103,0.456-1.614c-0.054-0.098-0.081-0.249-0.081-0.455c0.065-0.065,0.114-0.163,0.148-0.293
							c0.043-0.163,0.075-0.299,0.098-0.407c0.228-0.228,0.56-0.407,0.994-0.537c0.63-0.273,1.195-0.837,1.695-1.695
							c0.087-0.162,0.369-0.362,0.847-0.603c0.119-0.044,0.298-0.125,0.537-0.244c-0.358,0.412-0.592,0.749-0.7,1.01l0.081,0.229
							c0.108,0.108,0.238,0.162,0.391,0.162c0.238,0.152,0.647,0.229,1.222,0.229c0.782,0,1.505-0.13,2.167-0.391
							c0.076-0.021,0.185-0.05,0.326-0.082c0.13-0.043,0.223-0.092,0.276-0.147c0,0.163,0.033,0.342,0.098,0.538
							c0.044,0.119,0.114,0.298,0.212,0.538c0.316,0.857,0.473,1.292,0.473,1.302c0.098,0.456,0.173,0.869,0.228,1.239v0.684
							c0.055,0.108,0.104,0.238,0.147,0.391c-0.021,0.13-0.07,0.267-0.147,0.407c-0.044,0.075-0.098,0.173-0.163,0.293
							c-0.044,0.064-0.168,0.217-0.374,0.455c-0.218,0.261-0.397,0.489-0.538,0.685c-0.195,0.336-0.555,0.722-1.076,1.157
							c-0.934,0.629-1.759,1.374-2.476,2.232c-0.717,0.891-1.075,1.662-1.075,2.312v0.375c0,0.195,0.255,0.402,0.766,0.619
							c0.358,0.206,0.667,0.31,0.928,0.31c-0.424,0.282-0.678,0.516-0.766,0.7c-0.108,0.043-0.162,0.298-0.162,0.766v0.537
							c0.054,0.088,0.184,0.191,0.391,0.311c0.108,0.152,0.417,0.358,0.929,0.618c0.358,0.099,0.766,0.25,1.221,0.456
							c0.076,0.13,0.158,0.412,0.244,0.847c0.044,0.152,0.142,0.304,0.293,0.456v0.163c0,0.108,0.081,0.233,0.244,0.375l0.065,0.081
							c0.087,0.162,0.396,0.315,0.928,0.455c0.249,0.099,0.549,0.185,0.897,0.262c0.184,0.054,0.478,0.124,0.879,0.211
							c0.143,0,0.397,0.05,0.767,0.148c0.315,0,0.722,0.055,1.221,0.163l0.163,0.064c0.152,0.065,0.304,0.148,0.456,0.244
							c0.249,0.099,0.429,0.147,0.537,0.147l0.93,2.151c0.369,1.031,0.678,3.905,0.929,8.617c0,1.39-0.207,2.596-0.619,3.616
							c-0.272,0.598-0.451,1.396-0.538,2.396c-0.021,0.119-0.07,0.316-0.147,0.586c-0.055,0.206-0.081,0.369-0.081,0.488
							c0,1.14,0.841,2.829,2.525,5.067c0.054,0.108,0.184,0.288,0.391,0.538c0.055,0.108,0.142,0.244,0.261,0.407
							c0.108,0.141,0.174,0.238,0.194,0.292c0.891,1.054,1.689,1.826,2.396,2.313c1.336,0.815,2.872,1.222,4.61,1.222
							c1.401,0,2.634-0.179,3.699-0.538l1.613-0.31c0.826,0,1.624,0.104,2.395,0.31c0.098,0,0.148,0.027,0.148,0.081
							c0.89,0.218,1.481,0.424,1.776,0.619c0.217,0.119,0.748,0.38,1.595,0.782c0.695,0.337,1.266,0.641,1.71,0.912
							c1.065-0.728,1.706-1.14,1.923-1.238c0.044,0.054,0.119,0.08,0.229,0.08c0.597,0,0.928-1.205,0.994-3.616
							c0-1.771-0.435-3.513-1.303-5.23c-0.922-1.683-1.385-2.584-1.385-2.703c0-0.273,0.011-0.864,0.033-1.776
							c0.011-0.489,0-0.793-0.033-0.912c0-0.435-0.151-0.766-0.456-0.995c-2.247-1.716-3.942-3.203-5.081-4.463
							c-0.076-0.217-0.435-0.961-1.076-2.232c-0.673-1.357-1.134-2.231-1.385-2.623c-0.358-0.618-0.667-1.465-0.928-2.541
							c-0.305-1.379-0.532-2.247-0.685-2.606c-0.315-1.489-0.472-3.237-0.472-5.245c0.108-3.063,0.163-4.778,0.163-5.149
							c-0.163-2.53-0.293-4.273-0.391-5.229c-0.152-1.489-0.256-2.521-0.311-3.095c-0.098-0.966-0.147-1.656-0.147-2.069v-0.538
							c0.195,0.064,0.521,0.114,0.977,0.147c0.282,0.021,0.803,0.055,1.564,0.099c0.044,0,0.125,0.011,0.244,0.033
							c0.108,0.021,0.206,0.032,0.293,0.032c0.499,0.108,1.009,0.267,1.531,0.472c0.847,0.316,2.004,0.571,3.47,0.767
							c0.586,0.108,1.297,0.238,2.134,0.391c0.586,0.098,0.978,0.147,1.173,0.147c1.379,0,2.991-0.64,4.838-1.922
							c0.207-0.207,0.593-0.544,1.158-1.01c1.075-0.684,1.613-1.347,1.613-1.987v-0.081c0.185-0.261,0.238-0.57,0.163-0.929
							c0-2.303-1.363-4.507-4.09-6.614c-1.152-0.816-2.074-1.326-2.769-1.532c-1.336-0.281-2.976-0.543-4.921-0.782
							c-2.204-0.206-3.921-0.461-5.148-0.766c-0.272-0.054-0.575-0.142-0.912-0.261c-0.456-0.163-0.717-0.256-0.782-0.277
							l-0.977-0.049c0.075-0.044,0.417-0.174,1.026-0.391c0.554-0.195,0.945-0.38,1.172-0.554c0-0.033-0.048-0.136-0.147-0.31
							c0.586,0,0.945-0.104,1.076-0.311c0-0.108,0.026-0.212,0.08-0.31l2.542-0.538c0.043-0.054,0.504-0.13,1.384-0.228h0.375
							c0.108,0,0.238,0.021,0.391,0.064c0.304,0,0.456-0.151,0.456-0.456l-0.31-0.455c0-0.065-0.017-0.119-0.049-0.163
							c-0.033-0.044-0.065-0.093-0.099-0.148c0.586,0,1.64-0.331,3.16-0.994l0.603-0.391c0.13-0.098,0.277-0.18,0.441-0.244
							c0.098-0.044,0.211-0.093,0.342-0.147c0.402-0.088,0.808-0.163,1.222-0.229c0.206,0,0.516,0.055,0.928,0.163
							c0.304,0.044,0.56,0.093,0.766,0.148c0.163,0,0.277-0.044,0.343-0.131c0.075-0.098,0.113-0.261,0.113-0.488v-0.456
							c0-0.098,0.081-0.228,0.244-0.391c0.185-0.282,0.592-0.462,1.222-0.538c0.282-0.098,0.684-0.238,1.205-0.424
							c0.435-0.152,0.777-0.293,1.027-0.424c0.282-0.174,1.081-0.479,2.395-0.912c0.717-0.325,1.076-0.689,1.076-1.09
							c0-0.098-0.06-0.239-0.179-0.424c-0.065-0.108-0.239-0.348-0.522-0.717c-0.142-0.163-0.238-0.272-0.293-0.326
							c-0.098-0.098-0.179-0.147-0.244-0.147v-0.065c0-0.184,0.233-0.391,0.7-0.619c0.554-0.206,0.885-0.411,0.994-0.618v-0.766
							c0.055-0.109,0.082-0.267,0.082-0.472c0.206-0.098,0.603-0.337,1.188-0.717c0.772-0.511,1.402-0.912,1.89-1.206
							c-0.054,0.055-0.081,0.108-0.081,0.163c0,0.152,0.152,0.38,0.456,0.684l0.229,0.391c0.108,0.109,0.162,0.185,0.162,0.229
							l-0.081,1.157c0,0.262,0.027,0.467,0.081,0.619c0,0.195,0.359,0.45,1.076,0.766c0.032,0.033,0.446,0.261,1.238,0.684
							c0,0.207,0.152,0.722,0.455,1.549c0.12,0.194,0.349,0.912,0.685,2.15c0.033,0.142,0.098,0.32,0.195,0.537
							c0.108,0.229,0.173,0.386,0.194,0.472c0,0.348,0.435,1.114,1.303,2.298l0.619,1.157l0.08,0.619
							c0,0.087,0.076,0.292,0.229,0.618c0,0.348-0.104,0.935-0.31,1.76c0,0.238,0.103,0.499,0.31,0.782
							c0.108,0.108,0.266,0.272,0.472,0.489c0.142,0.151,0.238,0.244,0.293,0.276c0.358,0.565,0.537,1.103,0.537,1.613
							c-0.064,0.728,0.065,1.293,0.392,1.695l1.157,0.766c0.152,0.054,0.304,0.13,0.456,0.228c-0.021,0.13-0.07,0.397-0.148,0.798
							c-0.075,0.402-0.179,0.777-0.31,1.124c-0.261,1.228-0.391,2.178-0.391,2.852c0,0.966,0.104,1.944,0.31,2.932v0.147
							c0.076,0.978,0.744,2.287,2.005,3.926c0.869,1.032,1.613,1.674,2.231,1.923c0.977,0.488,1.646,0.847,2.005,1.075
							c0.054,0,0.124,0.027,0.212,0.081c0.087,0.044,0.142,0.064,0.163,0.064c0.206,0.316,0.488,0.653,0.847,1.01
							c0.108,0.099,0.238,0.353,0.391,0.766c0.412,0.772,0.847,1.57,1.302,2.396c0.055,0.195,0.365,0.782,0.93,1.76
							c0.054,0.108,0.124,0.249,0.212,0.424c0.087,0.151,0.141,0.293,0.162,0.424c0.316,0.543,0.522,1.059,0.619,1.548
							c0.446,2.411,1.14,4.204,2.085,5.376c0.119,0.13,0.223,0.363,0.311,0.7c0.282,0.467,0.82,0.874,1.613,1.222
							c1.129,0.565,2.204,0.847,3.225,0.847c1.01,0,2.346-0.152,4.007-0.456l1.158-0.229c0.543,0.326,1.183,0.581,1.922,0.766
							c1.38,0.413,2.559,0.619,3.536,0.619c0.782,0,1.781-0.282,2.997-0.847c0.466-0.206,1.238-0.565,2.312-1.075
							c0.977-0.446,1.619-0.728,1.923-0.847c0.075,0,0.185-0.027,0.325-0.081c0.163-0.076,0.311-0.125,0.441-0.148l1.385-0.244
							c0.585-0.098,1.02-0.147,1.302-0.147c0.739-0.044,1.319-0.13,1.744-0.261c0.38-0.13,0.57-0.276,0.57-0.44
							c0-0.131-0.104-0.233-0.31-0.311c0.108-0.194,0.163-0.32,0.163-0.375c0-0.857-0.412-1.808-1.239-2.851
							c-0.238-0.326-0.982-1.145-2.231-2.46c-0.099-0.099-0.148-0.174-0.148-0.228c-0.869-0.946-2.204-1.868-4.008-2.77
							c-1.292-0.424-2.497-0.706-3.616-0.847c-1.749-0.304-2.823-0.456-3.225-0.456c-2.52-0.51-4.366-1.178-5.539-2.004
							c-0.749-0.521-1.596-1.422-2.541-2.704c-1.076-1.607-2.025-3.502-2.852-5.685c-0.727-1.684-1.803-5.3-3.225-10.85
							c-1.313-5.332-2.009-8.873-2.085-10.622c0.207,0,0.543-1.536,1.01-4.61c-0.163-2.617-0.446-6.489-0.847-11.615
							c0-1.553,0.098-2.888,0.293-4.008l0.244-2.149c0-0.163-0.081-0.473-0.244-0.929c-0.195-0.609-0.293-1.119-0.293-1.531
							l0.228-2.396c0-1.793-0.054-3.101-0.162-3.926c-0.099-0.814-0.148-2.427-0.148-4.838c0-1.238,0.049-2.086,0.148-2.541
							c0.272-0.772,0.429-1.206,0.472-1.303c0.249-0.673,0.374-1.059,0.374-1.157c0-0.304-0.228-0.766-0.684-1.385
							c-0.054-0.055-0.108-0.081-0.162-0.081c-0.044-0.098-0.065-0.201-0.065-0.31l0.228-1.076c0-0.531-0.104-0.966-0.31-1.303
							c0.358-0.152,0.999-0.537,1.922-1.157c0.446-0.359,0.956-0.744,1.531-1.157c0.317-0.088,0.473-0.218,0.473-0.392
							c0-0.303-0.282-0.916-0.847-1.84c-0.511-0.881-0.766-1.549-0.766-2.005c0-0.249,0.075-0.477,0.228-0.684
							c0.098-0.108,0.147-0.342,0.147-0.7s-0.026-0.743-0.081-1.157c-0.098-0.804-0.147-1.211-0.147-1.223
							c0-0.684-0.076-1.222-0.228-1.612l-0.212-0.375c-0.065-0.108-0.099-0.19-0.099-0.244c0.316-0.37,0.598-0.728,0.847-1.076
							l0.081-0.081c0.663-0.5,0.995-0.858,0.995-1.075c0-0.337-0.772-1.309-2.313-2.916l0.163-0.782
							c-0.261-1.662-0.391-2.53-0.391-2.606c0-0.804-0.13-1.559-0.391-2.265c-0.25-0.706-0.609-1.314-1.076-1.824
							c-0.966-0.966-1.45-3.247-1.45-6.842c0-3.758-0.055-6.039-0.163-6.842c-0.098-1.759-0.147-2.888-0.147-3.388
							c0-0.63-0.104-1.326-0.311-2.085v-0.538c0-1.13-0.412-2.9-1.238-5.311c-0.652-1.683-1.059-2.862-1.222-3.536
							c0.098-0.098,0.326-0.407,0.684-0.929c0.021-0.043,0.13-0.239,0.326-0.586c0.119-0.206,0.19-0.369,0.212-0.488
							c0.467-0.304,0.7-0.56,0.7-0.766c0-0.033-0.151-0.152-0.455-0.358c-0.489-0.315-0.929-0.603-1.32-0.863
							c-0.869-0.717-1.663-1.618-2.379-2.704c0.728,0,1.341-0.125,1.842-0.375c0.249-0.065,0.429-0.195,0.538-0.391
							c0.261-0.119,0.391-0.353,0.391-0.7c0-0.282-0.282-0.945-0.847-1.987c-0.304-0.402-0.549-0.766-0.734-1.092
							c-0.13-0.238-0.194-0.391-0.194-0.456h0.163c0.043,0,0.064-0.021,0.064-0.065c0.739,0,1.559,0.152,2.46,0.456
							c0.262,0.054,0.571,0.157,0.929,0.31c0.044,0.033,0.163,0.12,0.359,0.261c0.152,0.12,0.287,0.212,0.406,0.277
							c0.511,0,0.847-0.385,1.01-1.157c0.044-0.51,0.065-0.923,0.065-1.238c0-0.662-0.125-1.455-0.375-2.378
							c-0.381-1.195-0.614-2.091-0.7-2.688c0.207-0.065,0.467-0.375,0.783-0.929c0.249-0.586,0.375-0.917,0.375-0.994
							c0-0.142-0.05-0.321-0.148-0.538h0.619c1.14,0,1.754-0.207,1.841-0.619c0-0.054,0.017-0.119,0.05-0.195
							c0.021-0.075,0.032-0.142,0.032-0.195c-0.152-0.152-0.336-0.38-0.554-0.684c-0.358-0.51-0.559-0.793-0.603-0.848
							c-0.728-1.108-1.216-2.161-1.465-3.16c-0.153-0.64-0.229-1.434-0.229-2.378c0.055-0.358,0.081-0.744,0.081-1.157
							c0.249,0.098,0.658,0.147,1.222,0.147c1.042,0,1.862-0.385,2.46-1.157c0.359-0.554,0.537-1.119,0.537-1.694v-0.147
							c0.055,0,0.082-0.027,0.082-0.082V49.13c0-1.901-0.076-3.492-0.229-4.773l1.385-2.851c0.402-0.869,0.76-1.38,1.075-1.531
							c0.717-0.717,1.206-1.281,1.466-1.694c1.042-1.717,1.683-2.895,1.922-3.535c0.304-0.771,0.456-1.797,0.456-3.079
							c0-3.432-1.026-6.484-3.079-9.156c-0.792-0.945-1.406-1.717-1.841-2.313c-0.489-0.554-0.842-0.951-1.059-1.189
							c-0.37-0.412-0.684-0.733-0.946-0.961c-0.282-0.304-1.336-1.075-3.16-2.313c-0.402-0.358-0.809-0.744-1.222-1.157
							c-0.195-0.195-0.402-0.347-0.619-0.456v-0.456C187.217,10.623,185.523,8.675,182.134,7.827z"/>
						<path fill="#FFFFFF" d="M170.372,51.29c2.422,0,4.318-0.255,5.686-0.766c0.826-0.358,1.465-0.614,1.922-0.766
							c0.598,0,1.163,0.381,1.694,1.14c0.412,0.543,0.618,1.005,0.618,1.385c0,0.142-0.119,0.391-0.358,0.749
							c-0.282,0.412-0.673,0.885-1.173,1.417c-0.194,0.293-0.504,0.679-0.928,1.157c-0.5,0.565-1.016,0.923-1.549,1.075
							c-0.728,0.272-1.341,0.63-1.841,1.075c-0.5,0.412-0.783,0.743-0.848,0.994c-0.206,0.316-0.46,0.673-0.766,1.075
							c-0.152,0.152-0.228,0.31-0.228,0.472c-0.142-0.261-0.397-0.619-0.766-1.075c-0.249-0.282-0.424-0.484-0.521-0.603
							c-0.152-0.195-0.261-0.358-0.326-0.489c-0.424-0.489-0.787-0.847-1.091-1.075c-0.316-0.217-1.645-0.831-3.991-1.841
							c-1.228-0.51-1.842-1.152-1.842-1.922c0-1.379,0.407-2.329,1.222-2.851c0.261,0,0.516-0.026,0.766-0.081
							c1.032,0.087,1.754,0.244,2.168,0.472c0.151,0.065,0.331,0.169,0.537,0.31C169.108,51.242,169.644,51.29,170.372,51.29z"/>
						<path fill="#FFFFFF" d="M142.596,206.478c-0.044-0.381-0.152-1.114-0.326-2.199c-0.173-1.075-0.32-1.906-0.44-2.492v-0.912
							l0.147-0.392c-0.098-0.261-0.147-0.515-0.147-0.766l-0.081-2.997l0.31-3.779"/>
						<line fill="none" x1="125.279" y1="227.721" x2="125.198" y2="227.721"/>
						<path fill="#FFFFFF" d="M102.194,172.707l-0.064-0.147c-0.467,0-0.831-0.055-1.091-0.163c-0.315-0.12-1.417-0.148-3.307-0.081
							c-0.977,0.108-2.568,0.445-4.773,1.01c-0.37,0.054-0.809,0.142-1.319,0.261c-0.51,0.108-0.836,0.174-0.977,0.194l-0.929,0.311
							c-1.303,0.369-2.916,0.961-4.838,1.776c-3.367,1.444-5.805,2.954-7.314,4.529c-1.293,1.162-2.395,2.525-3.308,4.089
							c-0.608,1.282-0.945,2.487-1.01,3.617c-0.152,1.043-0.586,2.346-1.303,3.91c-0.88,1.65-1.494,2.938-1.841,3.862
							c-0.228,0.521-0.435,1.162-0.619,1.922c-0.282,1.064-0.488,1.705-0.619,1.922c-0.064,0.174-0.45,0.917-1.157,2.232
							c-0.51,0.803-0.766,1.368-0.766,1.694l0.081,0.31c0.163,0.249,0.39,0.375,0.684,0.375c-0.044,0.152-0.223,0.717-0.538,1.694
							c-0.249,0.836-0.375,1.298-0.375,1.385v0.228c0.065,0.152,0.244,0.229,0.538,0.229l1.841-1.076
							c-0.304,0.749-0.456,1.39-0.456,1.922h-0.081c-0.207,0.218-0.31,0.479-0.31,0.783c0,0.272,0.207,0.472,0.619,0.604
							c0.358,0.075,0.537,0.488,0.537,1.238c-0.033,0.098-0.038,0.238-0.016,0.424c0.011,0.119,0.043,0.336,0.098,0.652
							c0.043,0.359,0.092,0.689,0.147,0.995v0.31c-0.044,0.184-0.163,0.603-0.358,1.254c-0.173,0.629-0.261,1.113-0.261,1.45"/>
						<path fill="#FFFFFF" d="M77.579,216.726h0.375c0.38-0.293,0.689-0.499,0.929-0.619c0.261-0.054,0.466-0.13,0.619-0.228
							c0.054,0,0.249-0.044,0.586-0.13c0.402-0.088,0.821-0.125,1.254-0.114"/>
						<path fill="#FFFFFF" d="M91.964,223.339c-0.955-0.857-2.161-1.748-3.616-2.672c-1.727-1.097-2.727-1.748-2.997-1.955
							l-4.008-3.079c0.065,0,0.348,0.055,0.847,0.163c0.272,0,0.527-0.152,0.766-0.456c0.207-0.206,0.31-0.412,0.31-0.618v-0.163
							l0.081-0.065h4.545c0.054,0.021,0.174,0.07,0.358,0.148c0.152,0.075,0.288,0.125,0.407,0.147
							c0.88,0.369,1.776,0.554,2.688,0.554c1.368,0,3.063-0.543,5.082-1.629c0.391-0.142,0.544-0.624,0.456-1.45v-0.244h0.082
							c0.173-0.316,0.304-0.494,0.391-0.538l1.759-0.684c0.228-0.076,0.744-0.359,1.548-0.847c0.25-0.108,0.532-0.261,0.848-0.456
							c0.347-0.238,0.554-0.396,0.619-0.472c1.586-1.054,2.378-1.976,2.378-2.769c0-0.055-0.026-0.104-0.081-0.148"/>
						<path fill="#FFFFFF" d="M105.356,173.554c0.249,0.207,1.222,0.923,2.916,2.15c0.391,0.316,0.885,0.706,1.482,1.172
							c0.446,0.359,0.749,0.636,0.912,0.831c1.867,1.955,3.074,3.339,3.616,4.154c-0.261,0.207-0.412,0.332-0.456,0.375
							c-0.108,0.108-0.163,0.218-0.163,0.326c0,0.282,0.135,0.652,0.407,1.108c0.282,0.499,0.684,1.026,1.206,1.581v0.147
							c-0.359,0.152-0.565,0.256-0.619,0.31v0.391c0,0.218,0.076,0.446,0.228,0.685c0.152,0.075,0.516,0.358,1.091,0.847
							c0.424,0.531,0.754,1.097,0.994,1.693c0.099,0.195,0.148,0.479,0.148,0.848c-0.064,0.423-0.064,0.705,0,0.847
							c0,0.142,0.081,0.396,0.244,0.766c0.152,0.402,0.228,0.684,0.228,0.847c0,0.043-0.157,0.223-0.472,0.537
							c-0.249,0.337-0.375,0.674-0.375,1.01l0.375,1.158c0.108,0.293,0.293,0.624,0.554,0.994c-0.119,0.13-0.277,0.261-0.472,0.391
							c-0.13,0.152-0.565,0.614-1.303,1.385c0,0.15,0.049,0.226,0.148,0.228h-0.065c0.408,0.2,0.869,0.284,1.385,0.254
							c0.075-0.007,0.151-0.015,0.228-0.024h0.375l0.081,0.081c-0.977,0.717-1.466,1.124-1.466,1.222
							c0,0.108,0.027,0.238,0.081,0.391c0.088,0.152,0.267,0.228,0.538,0.228h0.7c-0.108,0.195-0.163,0.326-0.163,0.392
							c0,0.249,0.027,0.531,0.082,0.846c0.075,0.37,0,0.908-0.229,1.614c-0.206,0.966-0.31,1.504-0.31,1.613
							c0,0.217,0.104,0.575,0.31,1.075c0.25,0.337,0.375,0.592,0.375,0.766l-0.277,1.336c-0.347,1.021-0.916,1.856-1.71,2.509"/>
						<path fill="#FFFFFF" d="M117.671,196.328c0.51-0.521,0.885-0.907,1.124-1.157c0.413-0.446,0.755-0.852,1.027-1.222
							c0.771-1.955,1.157-3.084,1.157-3.388c0-0.119-0.011-0.239-0.032-0.358l-0.05-0.18c-0.217-0.293-0.678-0.396-1.384-0.31
							l-0.081-1.01c0-0.598,0.151-1.494,0.456-2.688l0.554-1.532c0-0.391-0.105-0.684-0.311-0.88
							c-0.206-0.194-0.543-0.315-1.009-0.358c-1.076,0.087-1.842,0.087-2.298,0c0.044-0.51,0.065-0.945,0.065-1.303v-1.32
							c0-0.076,0.13-0.456,0.391-1.14c0.261-0.586,0.391-1.075,0.391-1.465c0-0.185-0.011-0.375-0.033-0.571
							c-0.032-0.152-0.049-0.244-0.049-0.277c-0.206-0.358-0.797-0.614-1.776-0.766c0.087-0.347,0.549-0.705,1.385-1.075
							c0.826-0.511,1.238-0.821,1.238-0.929c0.033-0.163-0.06-0.282-0.276-0.358c-0.239-0.088-0.56-0.099-0.961-0.033l1.776-0.619
							c0.456-0.064,0.684-0.19,0.684-0.375v-0.31c0.055,0,0.081-0.026,0.081-0.081l0.081-0.31c0-0.207-0.065-0.479-0.195-0.816
							c-0.065-0.151-0.233-0.521-0.504-1.108c-0.456-0.912-0.685-1.421-0.685-1.531c0-0.098,0.081-0.298,0.244-0.603
							c0.185-0.359,0.435-0.749,0.749-1.173l0.928-1.465c0-0.099-0.108-0.293-0.325-0.586c-0.348-0.446-0.652-0.836-0.912-1.173
							c-0.816-0.891-1.223-1.379-1.223-1.466c0-0.119,0.081-0.223,0.244-0.31c0.174-0.098,0.424-0.148,0.749-0.148
							c0.359-0.043,0.603-0.098,0.733-0.162c0.174-0.076,0.262-0.201,0.262-0.375c0-0.011-0.202-0.472-0.604-1.385
							c-0.412-0.826-0.618-1.673-0.618-2.541c0-0.402,0.075-1.043,0.228-1.922c0.152-0.869,0.229-1.434,0.229-1.694
							c0-0.717-0.359-1.151-1.076-1.303c0.206-0.565,0.311-1.157,0.311-1.776c0-0.728-0.153-1.244-0.457-1.549
							c-0.488-0.597-0.977-1.287-1.465-2.069c-0.521-1.085-0.88-1.836-1.076-2.248c-0.315-0.662-0.521-1.145-0.619-1.45h-0.081"/>
						<path fill="#FFFFFF" d="M123.812,208.563l-3.454-0.228h0.082c0.402-0.717,0.733-1.336,0.994-1.857
							c0.455-0.989,0.684-1.63,0.684-1.923c0.044-0.228,0.038-0.385-0.016-0.472c-0.055-0.087-0.174-0.13-0.359-0.13
							c-1.792,0.923-2.742,1.385-2.851,1.385l-0.228-0.081c0-0.119,0.049-0.32,0.147-0.603c0.163-0.479,0.267-0.792,0.311-0.945
							c0.315-0.696,0.471-1.179,0.471-1.451c0-0.206-0.026-0.336-0.08-0.391c0-0.087-0.152-0.217-0.456-0.391
							c0.033-0.119,0.31-0.45,0.831-0.995c0.369-0.369,0.554-0.652,0.554-0.847c0.021-0.108-0.277-0.026-0.897,0.244
							c-0.803,0.348-1.352,0.549-1.645,0.603"/>
						<path fill="#FFFFFF" d="M142.058,192.94l0.148-2.15l-0.081-2.541c0-3.333,0.233-6.771,0.7-10.313
							c0.413-3.692,0.619-5.586,0.619-5.685c-0.108-0.934-0.163-1.476-0.163-1.629c0.108-0.195,0.163-0.451,0.163-0.766
							c-0.055-0.609-0.081-1.25-0.081-1.923c0.304-0.771,0.456-1.439,0.456-2.004l-0.065-0.538c0.348-0.075,1.114-0.152,2.298-0.228
							c1.128-0.218,1.693-0.424,1.693-0.619c0-0.087-0.08-0.304-0.243-0.652c-0.185-0.424-0.435-0.896-0.749-1.418
							c-0.717-1.282-1.103-1.998-1.157-2.15l0.081,0.065c0.565,0.207,0.951,0.311,1.157,0.311c0.261,0,0.489-0.125,0.684-0.376
							c0.108-0.217,0.163-0.374,0.163-0.472c0-0.249-0.026-0.455-0.081-0.618c-0.108-0.099-0.163-0.223-0.163-0.375
							c0-0.195,0.413-0.479,1.239-0.847c0.771-0.456,1.157-0.739,1.157-0.847c-0.033-0.163-0.081-0.293-0.148-0.392
							c-0.075-0.064-0.13-0.113-0.162-0.147l0.081-0.081c0.912,0.065,1.602-0.011,2.069-0.228c0.054-0.099,0.108-0.229,0.162-0.391
							c0-0.446,0.049-0.804,0.148-1.076c0.119-0.521,0.298-0.984,0.537-1.384c0.055-0.099,0.081-0.403,0.081-0.912v-0.553
							c0-0.065-0.038-0.148-0.113-0.244c-0.109-0.13-0.201-0.249-0.277-0.358l0.081-0.082c0.479-0.098,1.07-0.2,1.776-0.31
							c0.075,0,0.142-0.033,0.195-0.098c0.064-0.076,0.098-0.174,0.098-0.293c0-0.098-0.075-0.223-0.228-0.375
							c-0.239-0.238-0.418-0.472-0.538-0.7c0.195-0.326,0.89-1.119,2.085-2.379c0.966-0.966,1.451-1.607,1.451-1.922l-0.065-0.228"
							/>
						<path fill="#FFFFFF" d="M174.901,144.85c-0.836,2.118-1.58,3.887-2.231,5.311c-0.272,0.673-0.663,1.603-1.173,2.786
							c-0.412,0.977-0.712,1.77-0.896,2.378c-0.131,0.272-0.386,1.14-0.766,2.607c-0.195,0.739-0.531,1.634-1.01,2.688
							c-0.272,0.392-0.63,1.217-1.076,2.477c-0.412,1.183-0.619,2.129-0.619,2.834c0,0.489,0.18,1.721,0.538,3.698v1.923
							c-0.064,0.391,0.017,0.727,0.244,1.01c0.055,0.151,0.163,0.331,0.326,0.537c0.282,0.391,0.429,0.593,0.44,0.603
							c0.055,0.055,0.104,0.136,0.148,0.244l-0.065,1.987"/>
						<path fill="#FFFFFF" d="M156.835,62.45c0.325,0.466,0.526,0.749,0.603,0.847c0.249,0.337,0.51,0.619,0.782,0.847l0.456,0.456
							l0.049,0.016c0.021,0.011,0.033,0.033,0.033,0.065l0.147,0.081c0.119,0.152,0.311,0.347,0.571,0.586
							c0.435,0.424,0.678,0.662,0.733,0.717c0.955,0.836,1.879,1.477,2.769,1.922c0.207,0.064,1.081,0.527,2.623,1.385
							c0.305,0.098,0.842,0.277,1.614,0.538c1.629,0.412,3.247,0.619,4.854,0.619c1.456,0,2.916-0.207,4.383-0.619
							c1.065-0.326,1.808-0.635,2.232-0.929c1.053-0.815,1.618-1.58,1.694-2.297c0.249-0.5,0.375-1.14,0.375-1.922v-0.31
							c0.846,0,1.487-0.592,1.922-1.776c0.098-0.163,0.228-0.576,0.391-1.238c0.207-0.966,0.386-1.787,0.538-2.46
							c0.565-3.541,0.847-5.512,0.847-5.914c-0.055-0.619-0.081-1.08-0.081-1.385c0.087,0.174,0.293,0.478,0.619,0.912
							c0.814,0.717,1.302,1.129,1.465,1.238l0.081,0.082c0.076,0.054,0.233,0.157,0.472,0.31c0.239,0.153,0.489,0.277,0.749,0.375
							c0.044,0.044,0.212,0.12,0.505,0.229c0.293,0.108,0.461,0.163,0.505,0.163"/>
						<path fill="#FFFFFF" d="M153.218,58.606l0.147-0.163c0.12-0.098,0.25-0.147,0.392-0.147c0.304,0,0.787,0.331,1.45,0.994
							c1.085,1.01,1.885,1.705,2.396,2.085c0.304,0.304,0.608,0.531,0.912,0.684c0.554,0.521,0.863,0.803,0.929,0.847
							c1.65,1.282,3.6,1.922,5.848,1.922c1.206,0,2.335-0.152,3.388-0.456c0.229,0,0.538-0.104,0.929-0.31
							c0.912-0.283,1.526-0.614,1.842-0.994c0.369-0.272,0.624-0.478,0.766-0.619c0.13,0.184,0.647,0.44,1.548,0.766
							c1.259,0.891,2.797,1.362,4.61,1.417c0.902,0.033,1.694-0.027,2.379-0.179"/>
						<path fill="#FFFFFF" d="M184.366,51.682c-0.055-1.043-0.386-2.199-0.995-3.47c-0.531-1.075-1.042-2.025-1.531-2.851
							c-0.901-1.347-2.21-3.421-3.926-6.223c-0.249-0.945-1.124-2.46-2.622-4.545c-1.793-2.564-2.765-3.921-2.916-4.073
							c-2.205-3.128-3.465-6.104-3.78-8.928"/>
						<path fill="#FFFFFF" d="M181.369,15.435l-0.147,0.7c0,0.261,0.179,0.565,0.537,0.912c0.065,0.326,0.451,0.842,1.158,1.548
							c0.695,0.695,1.357,1.13,1.987,1.303l0.244,2.004c0,0.337-0.081,0.848-0.244,1.532c-0.25,0.673-0.375,1.134-0.375,1.385
							c0,0.749,0.104,1.368,0.31,1.857c-0.054,0.25-0.081,0.712-0.081,1.385c0,0.923,0.027,1.743,0.081,2.46
							c-0.087,1.163-0.087,2.829,0,5.001c-0.087,2.173-0.424,3.991-1.01,5.457c-0.228,0.663-0.369,1.868-0.424,3.616
							c-0.021,0.544-0.033,1.748-0.033,3.616"/>
						<path fill="#FFFFFF" d="M185.148,17.291c-0.142,0.13-0.244,0.407-0.311,0.831l0.065,1.776"/>
						<path fill="#FFFFFF" d="M192.837,44.367c-0.586-2.455-1.075-4.273-1.466-5.457h-0.081"/>
						<path fill="#FFFFFF" d="M132.203,47.838c0.044,0.173,0.326,1.607,0.847,4.301c0.088,0.38,0.212,1.15,0.375,2.312
							c0.174,1.152,0.282,1.842,0.326,2.069"/>
						<path fill="#FFFFFF" d="M139.746,27.213c-0.142-0.478-0.218-0.994-0.229-1.548c0-0.554,0-0.912,0-1.075
							c0-0.25,0.049-0.505,0.148-0.766c0.152-0.37,0.228-0.603,0.228-0.7l0.081-0.684c0-0.098-0.026-0.147-0.081-0.147"/>
						<path fill="#FFFFFF" d="M180.685,87.148l-0.081-0.081c-0.272,0.207-0.565,0.456-0.88,0.749
							c-0.38,0.337-0.597,0.526-0.652,0.57c-0.499,0.381-1.119,0.739-1.857,1.075c-1.032,0.358-1.852,0.538-2.46,0.538
							c-1.163,0-1.906-0.076-2.232-0.229c-0.326-0.261-0.658-0.391-0.995-0.391c-0.238,0-0.499,0.179-0.782,0.538
							c-0.326,0.347-0.527,0.603-0.603,0.766c-0.185,0.185-0.598,0.418-1.238,0.7c-0.544,0.272-0.977,0.451-1.303,0.538v-1.922
							c-0.229-0.923-0.793-1.385-1.694-1.385c-0.261,0.044-0.467,0.065-0.619,0.065c-0.194,0.108-0.479,0.163-0.847,0.163
							c-0.075,0-0.304-0.435-0.684-1.303c-0.326-0.531-0.586-0.842-0.783-0.929c-0.282-0.207-0.64-0.31-1.075-0.31
							c-1.586,0.152-2.634,0.228-3.144,0.228c-0.456,0-1.151-0.049-2.086-0.147c-0.868-0.315-1.585-0.652-2.149-1.01
							c-0.521-0.303-1.01-0.684-1.466-1.14c-0.424-0.51-0.809-0.896-1.157-1.157c-0.641-0.63-1.135-1.119-1.482-1.466
							c-0.63-0.63-1.163-1.194-1.596-1.694c-0.598-0.902-1.363-2.287-2.297-4.155c-0.869-1.738-2.411-3.714-4.626-5.931
							c-0.195-0.195-0.549-0.592-1.059-1.188c-0.696-0.826-1.239-1.456-1.63-1.891c-0.185-0.499-0.391-0.96-0.619-1.385
							c1.51-0.249,2.792-0.761,3.844-1.531c0.337-0.238,0.955-0.907,1.857-2.004c0.402-0.706,0.761-1.396,1.075-2.069
							c0.293-0.446,0.522-0.886,0.685-1.319c0.771-1.509,1.157-2.688,1.157-3.535v-2.378c-0.098-0.163-0.201-0.32-0.31-0.472
							c-0.088-0.761-0.267-1.655-0.538-2.688c-0.152-0.619-0.256-1.211-0.31-1.776c-0.065-0.88-0.143-1.445-0.229-1.695
							c-0.836-3.074-1.525-5.43-2.069-7.07c-0.435-0.977-0.929-2.167-1.482-3.568c-0.575-1.466-0.955-2.406-1.139-2.818
							c-0.718-2.009-1.179-3.753-1.385-5.23c0.13,0,0.412-0.103,0.847-0.31c0.054-0.054,0.147-0.119,0.276-0.195
							c0.13-0.075,0.218-0.141,0.262-0.195c0.098-0.043,0.201-0.119,0.31-0.228c0.185-0.12,0.44-0.375,0.766-0.766
							c0.51-0.674,0.766-1.314,0.766-1.922c0-0.152-0.049-0.256-0.148-0.31"/>
						<path fill="#FFFFFF" d="M134.06,58.524l0.293,2.46c0,0.359,0.207,1.129,0.619,2.313c0.195,0.554,0.402,0.94,0.618,1.157
							c0.218,0.293,0.5,0.521,0.848,0.684c0.303,0.13,0.716,0.206,1.238,0.228h0.912"/>
						<path fill="#FFFFFF" d="M175.293,54.224l-0.081-0.244c0-0.249,0.113-0.489,0.342-0.717c0.185-0.195,0.51-0.441,0.977-0.733
							c0.489-0.25,0.874-0.391,1.157-0.424c0.326-0.043,0.58,0.044,0.766,0.261c-0.087,0.055-0.152,0.093-0.194,0.114
							c-0.065,0.033-0.131,0.049-0.195,0.049c-0.13,0-0.44,0.358-0.929,1.075c-0.369,0.608-0.803,0.912-1.303,0.912
							C175.472,54.517,175.293,54.419,175.293,54.224z"/>
						<path fill="#FFFFFF" d="M167.667,54.224c-0.228-0.619-0.689-0.929-1.384-0.929c-0.25,0.098-0.505,0.147-0.766,0.147
							c0.792-0.63,1.639-0.755,2.541-0.375c0.977,0.358,1.465,0.821,1.465,1.385c0,0.456-0.179,0.684-0.537,0.684
							C168.455,55.136,168.015,54.831,167.667,54.224z"/>
						<path fill="#FFFFFF" d="M174.363,23.205l0.164,0.081c0.152,0,0.303,0.049,0.455,0.148h0.7c0.206,0.032,0.386,0.032,0.538,0
							c1.271,0.173,2.579,0.559,3.925,1.157c0.304,0.152,0.739,0.358,1.303,0.619c0.011,0.011,0.218,0.087,0.619,0.228
							c0.488,0.207,0.847,0.311,1.075,0.311c0.304,0,0.484-0.027,0.538-0.081c0.055-0.044,0.104-0.12,0.147-0.229 M176.221,23.434
							c-0.674,0.825-1.114,1.368-1.321,1.629c-0.554,0.793-0.83,1.456-0.83,1.987c0,0.315,0.021,0.549,0.064,0.7
							c0.076,0.142,0.207,0.293,0.392,0.456c0.336,0.424,0.874,0.706,1.612,0.847c0.522,0.108,0.881,0.163,1.076,0.163
							c0.152-0.055,0.488-0.185,1.01-0.391c0.999-0.337,1.586-0.593,1.759-0.766c0.076-0.044,0.331-0.326,0.767-0.848
							c0.238-0.238,0.424-0.461,0.553-0.668c0.099-0.163,0.148-0.277,0.148-0.342c-0.054-0.206-0.081-0.434-0.081-0.683
							c0-0.109,0.027-0.212,0.081-0.31"/>
						<path fill="#FFFFFF" d="M176.058,27.832c-0.185-0.098-0.413-0.358-0.685-0.782c-0.38-0.619-0.635-1.129-0.766-1.531
							l0.017-0.033c0.142-0.142,0.212-0.233,0.212-0.277l-0.017-0.016l0.081-0.13c0.207-0.261,0.646-0.804,1.321-1.629
							c1.249,0.173,2.524,0.548,3.828,1.124c0.108,0.207,0.163,0.424,0.163,0.652c0,0.901-0.104,1.542-0.31,1.922
							c-0.381,0.717-1.098,1.075-2.15,1.075C176.883,28.207,176.319,28.082,176.058,27.832z"/>
						<path fill="#FFFFFF" d="M154.668,26.203c0.033,0.033,0.081,0.093,0.148,0.18c0.087,0.098,0.194,0.195,0.325,0.293"/>
						<path fill="#FFFFFF" d="M145.138,30.438c0.51-0.152,1.358-0.358,2.541-0.619c0.326-0.021,0.527-0.044,0.603-0.065
							c0.977-0.304,1.852-0.663,2.624-1.075c0.727-0.326,1.32-0.712,1.775-1.157c0.337-0.238,0.847-0.418,1.531-0.538
							c0.261-0.054,0.571-0.158,0.929-0.31c0.152,0.152,0.485,0.407,0.995,0.766c1.075,0.771,1.613,1.487,1.613,2.15
							c0,0.152-0.026,0.282-0.081,0.391c-0.064,0.13-0.19,0.272-0.375,0.424c-0.228,0.185-0.406,0.326-0.538,0.425
							c-0.89,0.564-2.068,0.847-3.535,0.847c-1.456,0-2.536-0.13-3.243-0.391c-0.228-0.238-0.51-0.466-0.847-0.684l-0.847-0.847"/>
						<path fill="#FFFFFF" d="M178.6,24.15c0.194,0,0.336,0.043,0.424,0.13c0.075,0.076,0.113,0.212,0.113,0.407v0.081
							c0.119,0,0.202,0.021,0.244,0.065c0.044,0.044,0.065,0.125,0.065,0.244c0,0.152-0.104,0.228-0.311,0.228
							c-0.098,0-0.147-0.027-0.147-0.081l-0.229,0.081h-0.162c0,0.054-0.026,0.103-0.081,0.147
							c-0.065,0.153-0.142,0.228-0.229,0.228c-0.249,0-0.375-0.152-0.375-0.456c0-0.065,0.017-0.109,0.049-0.13
							c0.011-0.021,0.044-0.055,0.099-0.098c-0.055-0.054-0.081-0.157-0.081-0.31c0-0.152,0.049-0.272,0.147-0.358
							C178.214,24.253,178.371,24.194,178.6,24.15z"/>
						<path fill="#FFFFFF" d="M155.987,27.327l0.148,1.043c-0.055,0.304-0.104,0.636-0.148,0.995
							c-0.075,0.272-0.206,0.554-0.391,0.847c-0.435,0.51-1.103,0.766-2.004,0.766c-1.01,0-1.754-0.303-2.232-0.912
							c-0.412-0.522-0.619-0.907-0.619-1.157v-0.163l0.164-0.065c0.727-0.326,1.32-0.712,1.775-1.157
							c0.337-0.238,0.847-0.418,1.531-0.538c0.261-0.054,0.571-0.158,0.929-0.31C155.184,26.719,155.466,26.937,155.987,27.327z"/>
						<path fill="#FFFFFF" d="M155.433,26.968c0.109,0.098,0.163,0.228,0.163,0.391c0,0.098-0.026,0.174-0.081,0.229
							c0.076,0,0.125,0.021,0.148,0.064c0.011,0.021,0.016,0.076,0.016,0.163c0,0.207-0.104,0.31-0.31,0.31
							c-0.087,0-0.163-0.075-0.229-0.228c0,0.054-0.054,0.081-0.163,0.081v0.147c0,0.261-0.124,0.391-0.374,0.391
							c-0.131,0-0.239-0.038-0.326-0.114c-0.099-0.076-0.147-0.169-0.147-0.277c0-0.249,0.103-0.375,0.31-0.375v-0.244
							c0-0.456,0.179-0.684,0.537-0.684C155.173,26.822,155.324,26.871,155.433,26.968z"/>
					</g>
				</g>
			</g>
		</g>
	</g>
</g>
<g id="Layer_1_2_">
	<g>
		<g id="Layer_1_1_">
			<g>
				<g id="Layer_1_3_">
					<g>
						<path fill="none" stroke="#373535" stroke-width="1.5272" d="M182.134,7.827c-0.955-0.261-2.134-0.391-3.535-0.391
							c-0.663,0.054-1.098,0.104-1.303,0.147c-0.446,0-0.88-0.076-1.303-0.228l-2.167-0.684c-1.64-0.521-5.023-0.782-10.15-0.782
							c-6.451,0.303-11.605,1.537-15.46,3.698c-1.259,0.695-2.645,1.722-4.154,3.079c-0.391,0.304-1.217,0.999-2.477,2.085
							c-0.402,0.358-0.706,0.614-0.912,0.766c-1.923-0.304-3.308-0.277-4.155,0.081c-0.206,0.087-0.515,0.342-0.929,0.766
							c-0.142,0.098-0.347,0.326-0.618,0.684c-1.422,1.51-2.243,2.515-2.46,3.014c-0.749,1.227-1.44,3.253-2.069,6.076
							c0.065,1.673-0.912,3.595-2.932,5.767c-2,2.064-2.997,4.242-2.997,6.533c0,1.792-0.311,3.128-0.929,4.007
							c-0.663,0.814-0.995,1.765-0.995,2.852c0,0.706,0.331,1.678,0.995,2.916c0.901,1.434,1.52,2.384,1.857,2.851
							c0.184,0.358,0.668,0.847,1.45,1.466c1.054,0.728,1.824,1.163,2.313,1.303c1.097,0.326,2.584,1.222,4.463,2.688h0.081
							l0.065,0.163l0.243,1.841c-0.249,0.249-0.531,0.663-0.847,1.238c-0.087,0.087-0.249,0.347-0.488,0.782
							c-0.412,0.761-0.712,1.293-0.896,1.596c-0.293,0.51-0.554,1.228-0.783,2.15c-0.249,0.717-0.505,1.412-0.766,2.085
							c-0.641,1.38-1.434,2.813-2.378,4.301l-2.623,4.236c-0.152,0.282-0.505,0.814-1.059,1.596
							c-0.749,1.064-1.368,1.945-1.857,2.639c-1.217,1.705-2.118,3.139-2.704,4.301c-0.174,0.435-0.548,1.016-1.124,1.743
							c-0.445,0.575-1.145,1.406-2.1,2.492c-0.619,0.619-1.184,1.108-1.695,1.466c-0.51,0.25-0.923,0.479-1.238,0.684
							c-1.151,0.597-1.813,0.982-1.987,1.157c-0.098,0.119-0.303,0.326-0.619,0.619c-0.347,0.326-0.63,0.608-0.847,0.847
							c-0.412,0.358-0.902,0.793-1.466,1.303c-1.456,1.098-3.247,2.922-5.377,5.473c-2.194,2.639-4.529,6.354-7.005,11.143
							c0,0.054-0.999,1.901-2.997,5.539c-1.238,2.161-2.161,3.986-2.769,5.473c-0.64,1.499-1.722,3.346-3.242,5.539
							c-0.391,0.554-0.777,1.167-1.157,1.841c-1.194,1.129-2.269,2.568-3.225,4.317c-0.141,0.293-0.575,1.129-1.303,2.509
							c-0.684,1.293-1.276,2.455-1.776,3.486c-0.771,1.195-1.694,3.117-2.769,5.768c-0.207,0.499-0.923,2.422-2.151,5.767
							c-0.228,0.586-1.124,2.535-2.688,5.848c-0.837,1.824-1.482,3.339-1.939,4.546c-1.205,2.129-2.101,4.388-2.688,6.777
							c-0.717,2.965-1.075,5.81-1.075,8.537c0,0.358,0.049,1.331,0.147,2.915c0.055,0.923,0.081,1.901,0.081,2.933
							c0,0.618,0.076,1.645,0.228,3.079c0.054,0.868,0.081,1.841,0.081,2.915v0.229c0,0.108-0.027,0.315-0.081,0.618
							c-0.043,0.207-0.093,0.696-0.147,1.466c-0.174,0.586-0.38,1.021-0.619,1.303c-0.163,0.228-0.521,0.586-1.075,1.075
							c-0.347,0.293-1.016,0.858-2.004,1.694c-1.282,0.999-2.15,1.873-2.606,2.623c-0.869,1.38-1.487,2.329-1.857,2.852
							c-0.619,0.934-1.129,1.856-1.531,2.769c-0.608,1.673-1.276,2.878-2.004,3.616c-1.064,1.129-2.422,1.694-4.073,1.694
							c-0.652,0-2.167-0.31-4.545-0.929c-2.368-0.673-4.344-1.009-5.93-1.009c-1.782,0-3.318,0.282-4.61,0.847
							c-1.238,0.446-2.085,1.01-2.541,1.693c-0.391,0.436-0.674,0.772-0.847,1.01c-0.412,0.413-0.64,0.696-0.684,0.848
							c-0.228,0.412-0.407,0.771-0.538,1.075c-0.282,0.435-0.543,0.689-0.782,0.766c-2.65,0.739-4.339,1.379-5.066,1.922
							c-1.282,0.902-1.923,2.569-1.923,5.002c0,1.02,0.407,2.84,1.222,5.457c0.869,2.606,1.303,4.176,1.303,4.708
							c0,0.499-0.332,1.114-0.994,1.841c-0.619,0.619-0.929,1.005-0.929,1.158c0,0.347,1.026,0.858,3.079,1.531
							c0.087,0.021,0.233,0.076,0.44,0.163c0.184,0.064,0.347,0.113,0.489,0.147c2.585,0.783,4.019,1.195,4.301,1.238
							c0.153,0.021,1.743,0.381,4.773,1.076c3.031,0.51,4.98,0.766,5.848,0.766c2.119,0,3.839-0.386,5.164-1.157h0.148l0.163-0.148
							c0.25-0.152,0.581-0.435,0.994-0.847c0.261-0.261,0.516-0.565,0.766-0.912c0.021-0.033,0.202-0.293,0.538-0.783l1.466-3.078
							c0.129-0.25,0.293-0.63,0.489-1.141c0.238-0.64,0.434-1.157,0.586-1.548c0.293-1.032,0.479-1.717,0.554-2.054
							c0.142-0.585,0.212-1.032,0.212-1.336v-0.081c0.163-0.381,0.37-0.609,0.619-0.684c0.522-0.229,1.782-0.511,3.779-0.847
							c0.249-0.055,0.609-0.158,1.075-0.311c0.478-0.087,0.94-0.19,1.385-0.31c1.282-0.228,2.715-0.896,4.301-2.004
							c0.848-0.619,1.798-1.494,2.851-2.623c0.272-0.195,0.603-0.575,0.994-1.14v0.31c0,0.934,0.44,1.803,1.319,2.607
							c0.228,0.304,0.38,0.716,0.456,1.238c0.152,0.717,0.282,1.178,0.391,1.385c0.282,0.293,0.538,0.597,0.766,0.912
							c0,0.065,0.027,0.142,0.081,0.229c0.043,0.087,0.065,0.142,0.065,0.163c0.228,0.423,0.461,0.733,0.7,0.928
							c0.316,0.316,0.956,0.88,1.922,1.695c0.869,0.868,1.51,1.379,1.922,1.531c-0.108,0.303-0.184,0.559-0.228,0.766
							c-0.316,1.172-0.472,2.253-0.472,3.242v0.604c0,0.64,0.31,1.542,0.93,2.703c0.999,1.532,2.335,2.298,4.007,2.298
							c0.63,0,1.091-0.076,1.385-0.229c0.098,0.152,0.298,0.407,0.603,0.766c0.055,0.055,0.109,0.081,0.163,0.081
							c0.174,0.261,0.429,0.571,0.766,0.929c0.478,0.402,0.863,0.658,1.157,0.766c0.478,0.304,1.249,0.456,2.313,0.456
							c1.14,0,2.036-0.228,2.688-0.684c0.261-0.108,0.544-0.316,0.848-0.619c0.098,0.055,0.277,0.081,0.538,0.081
							c0.598,0,1.108-0.256,1.531-0.766c0.369-0.369,0.554-0.934,0.554-1.694c0.152-0.402,0.228-0.761,0.228-1.076v-0.39
							c0.565-0.239,1.308-0.777,2.232-1.614c0.153-0.272,0.256-0.461,0.31-0.57c0.098-0.174,0.147-0.32,0.147-0.44v-1.842
							c-0.087-1.01-0.804-2.367-2.15-4.073c-0.652-1.043-1.423-1.966-2.313-2.77c0.152,0.044,0.358,0.119,0.619,0.229
							c0.793,0.261,1.461,0.44,2.004,0.537c0.358,0.098,1.461,0.148,3.307,0.148c0.565,0,1.487-0.104,2.769-0.311
							c0.912-0.151,1.58-0.303,2.004-0.455l1.841-0.847c0.804-0.391,1.396-0.619,1.776-0.684c1.097-0.316,2.145-0.777,3.144-1.385
							c0.826-0.412,1.494-0.826,2.005-1.238c0.358-0.262,0.538-0.516,0.538-0.766c0.217-1.032,0.424-1.645,0.619-1.842
							c0.706-0.565,1.271-1.054,1.694-1.465c0.64-0.749,0.999-1.369,1.075-1.857c0.153-0.566,0.304-1.103,0.456-1.614
							c-0.054-0.098-0.081-0.249-0.081-0.455c0.065-0.065,0.114-0.163,0.148-0.293c0.043-0.163,0.075-0.299,0.098-0.407
							c0.228-0.228,0.56-0.407,0.994-0.537c0.63-0.273,1.195-0.837,1.695-1.695c0.087-0.162,0.369-0.362,0.847-0.603
							c0.119-0.044,0.298-0.125,0.537-0.244c-0.358,0.412-0.592,0.749-0.7,1.01l0.081,0.229c0.108,0.108,0.238,0.162,0.391,0.162
							c0.238,0.152,0.647,0.229,1.222,0.229c0.782,0,1.505-0.13,2.167-0.391c0.076-0.021,0.185-0.05,0.326-0.082
							c0.13-0.043,0.223-0.092,0.276-0.147c0,0.163,0.033,0.342,0.098,0.538c0.044,0.119,0.114,0.298,0.212,0.538
							c0.316,0.857,0.473,1.292,0.473,1.302c0.098,0.456,0.173,0.869,0.228,1.239v0.684c0.055,0.108,0.104,0.238,0.147,0.391
							c-0.021,0.13-0.07,0.267-0.147,0.407c-0.044,0.075-0.098,0.173-0.163,0.293c-0.044,0.064-0.168,0.217-0.374,0.455
							c-0.218,0.261-0.397,0.489-0.538,0.685c-0.195,0.336-0.555,0.722-1.076,1.157c-0.934,0.629-1.759,1.374-2.476,2.232
							c-0.717,0.891-1.075,1.662-1.075,2.312v0.375c0,0.195,0.255,0.402,0.766,0.619c0.358,0.206,0.667,0.31,0.928,0.31
							c-0.424,0.282-0.678,0.516-0.766,0.7c-0.108,0.043-0.162,0.298-0.162,0.766v0.537c0.054,0.088,0.184,0.191,0.391,0.311
							c0.108,0.152,0.417,0.358,0.929,0.618c0.358,0.099,0.766,0.25,1.221,0.456c0.076,0.13,0.158,0.412,0.244,0.847
							c0.044,0.152,0.142,0.304,0.293,0.456v0.163c0,0.108,0.081,0.233,0.244,0.375l0.065,0.081
							c0.087,0.162,0.396,0.315,0.928,0.455c0.249,0.099,0.549,0.185,0.897,0.262c0.184,0.054,0.478,0.124,0.879,0.211
							c0.143,0,0.397,0.05,0.767,0.148c0.315,0,0.722,0.055,1.221,0.163l0.163,0.064c0.152,0.065,0.304,0.148,0.456,0.244
							c0.249,0.099,0.429,0.147,0.537,0.147l0.93,2.151c0.369,1.031,0.678,3.905,0.929,8.617c0,1.39-0.207,2.596-0.619,3.616
							c-0.272,0.598-0.451,1.396-0.538,2.396c-0.021,0.119-0.07,0.316-0.147,0.586c-0.055,0.206-0.081,0.369-0.081,0.488
							c0,1.14,0.841,2.829,2.525,5.067c0.054,0.108,0.184,0.288,0.391,0.538c0.055,0.108,0.142,0.244,0.261,0.407
							c0.108,0.141,0.174,0.238,0.194,0.292c0.891,1.054,1.689,1.826,2.396,2.313c1.336,0.815,2.872,1.222,4.61,1.222
							c1.401,0,2.634-0.179,3.699-0.538l1.613-0.31c0.826,0,1.624,0.104,2.395,0.31c0.098,0,0.148,0.027,0.148,0.081
							c0.89,0.218,1.481,0.424,1.776,0.619c0.217,0.119,0.748,0.38,1.595,0.782c0.695,0.337,1.266,0.641,1.71,0.912
							c1.065-0.728,1.706-1.14,1.923-1.238c0.044,0.054,0.119,0.08,0.229,0.08c0.597,0,0.928-1.205,0.994-3.616
							c0-1.771-0.435-3.513-1.303-5.23c-0.922-1.683-1.385-2.584-1.385-2.703c0-0.273,0.011-0.864,0.033-1.776
							c0.011-0.489,0-0.793-0.033-0.912c0-0.435-0.151-0.766-0.456-0.995c-2.247-1.716-3.942-3.203-5.081-4.463
							c-0.076-0.217-0.435-0.961-1.076-2.232c-0.673-1.357-1.134-2.231-1.385-2.623c-0.358-0.618-0.667-1.465-0.928-2.541
							c-0.305-1.379-0.532-2.247-0.685-2.606c-0.315-1.489-0.472-3.237-0.472-5.245c0.108-3.063,0.163-4.778,0.163-5.149
							c-0.163-2.53-0.293-4.273-0.391-5.229c-0.152-1.489-0.256-2.521-0.311-3.095c-0.098-0.966-0.147-1.656-0.147-2.069v-0.538
							c0.195,0.064,0.521,0.114,0.977,0.147c0.282,0.021,0.803,0.055,1.564,0.099c0.044,0,0.125,0.011,0.244,0.033
							c0.108,0.021,0.206,0.032,0.293,0.032c0.499,0.108,1.009,0.267,1.531,0.472c0.847,0.316,2.004,0.571,3.47,0.767
							c0.586,0.108,1.297,0.238,2.134,0.391c0.586,0.098,0.978,0.147,1.173,0.147c1.379,0,2.991-0.64,4.838-1.922
							c0.207-0.207,0.593-0.544,1.158-1.01c1.075-0.684,1.613-1.347,1.613-1.987v-0.081c0.185-0.261,0.238-0.57,0.163-0.929
							c0-2.303-1.363-4.507-4.09-6.614c-1.152-0.816-2.074-1.326-2.769-1.532c-1.336-0.281-2.976-0.543-4.921-0.782
							c-2.204-0.206-3.921-0.461-5.148-0.766c-0.272-0.054-0.575-0.142-0.912-0.261c-0.456-0.163-0.717-0.256-0.782-0.277
							l-0.977-0.049c0.075-0.044,0.417-0.174,1.026-0.391c0.554-0.195,0.945-0.38,1.172-0.554c0-0.033-0.048-0.136-0.147-0.31
							c0.586,0,0.945-0.104,1.076-0.311c0-0.108,0.026-0.212,0.08-0.31l2.542-0.538c0.043-0.054,0.504-0.13,1.384-0.228h0.375
							c0.108,0,0.238,0.021,0.391,0.064c0.304,0,0.456-0.151,0.456-0.456l-0.31-0.455c0-0.065-0.017-0.119-0.049-0.163
							c-0.033-0.044-0.065-0.093-0.099-0.148c0.586,0,1.64-0.331,3.16-0.994l0.603-0.391c0.13-0.098,0.277-0.18,0.441-0.244
							c0.098-0.044,0.211-0.093,0.342-0.147c0.402-0.088,0.808-0.163,1.222-0.229c0.206,0,0.516,0.055,0.928,0.163
							c0.304,0.044,0.56,0.093,0.766,0.148c0.163,0,0.277-0.044,0.343-0.131c0.075-0.098,0.113-0.261,0.113-0.488v-0.456
							c0-0.098,0.081-0.228,0.244-0.391c0.185-0.282,0.592-0.462,1.222-0.538c0.282-0.098,0.684-0.238,1.205-0.424
							c0.435-0.152,0.777-0.293,1.027-0.424c0.282-0.174,1.081-0.479,2.395-0.912c0.717-0.325,1.076-0.689,1.076-1.09
							c0-0.098-0.06-0.239-0.179-0.424c-0.065-0.108-0.239-0.348-0.522-0.717c-0.142-0.163-0.238-0.272-0.293-0.326
							c-0.098-0.098-0.179-0.147-0.244-0.147v-0.065c0-0.184,0.233-0.391,0.7-0.619c0.554-0.206,0.885-0.411,0.994-0.618v-0.766
							c0.055-0.109,0.082-0.267,0.082-0.472c0.206-0.098,0.603-0.337,1.188-0.717c0.772-0.511,1.402-0.912,1.89-1.206
							c-0.054,0.055-0.081,0.108-0.081,0.163c0,0.152,0.152,0.38,0.456,0.684l0.229,0.391c0.108,0.109,0.162,0.185,0.162,0.229
							l-0.081,1.157c0,0.262,0.027,0.467,0.081,0.619c0,0.195,0.359,0.45,1.076,0.766c0.032,0.033,0.446,0.261,1.238,0.684
							c0,0.207,0.152,0.722,0.455,1.549c0.12,0.194,0.349,0.912,0.685,2.15c0.033,0.142,0.098,0.32,0.195,0.537
							c0.108,0.229,0.173,0.386,0.194,0.472c0,0.348,0.435,1.114,1.303,2.298l0.619,1.157l0.08,0.619
							c0,0.087,0.076,0.292,0.229,0.618c0,0.348-0.104,0.935-0.31,1.76c0,0.238,0.103,0.499,0.31,0.782
							c0.108,0.108,0.266,0.272,0.472,0.489c0.142,0.151,0.238,0.244,0.293,0.276c0.358,0.565,0.537,1.103,0.537,1.613
							c-0.064,0.728,0.065,1.293,0.392,1.695l1.157,0.766c0.152,0.054,0.304,0.13,0.456,0.228c-0.021,0.13-0.07,0.397-0.148,0.798
							c-0.075,0.402-0.179,0.777-0.31,1.124c-0.261,1.228-0.391,2.178-0.391,2.852c0,0.966,0.104,1.944,0.31,2.932v0.147
							c0.076,0.978,0.744,2.287,2.005,3.926c0.869,1.032,1.613,1.674,2.231,1.923c0.977,0.488,1.646,0.847,2.005,1.075
							c0.054,0,0.124,0.027,0.212,0.081c0.087,0.044,0.142,0.064,0.163,0.064c0.206,0.316,0.488,0.653,0.847,1.01
							c0.108,0.099,0.238,0.353,0.391,0.766c0.412,0.772,0.847,1.57,1.302,2.396c0.055,0.195,0.365,0.782,0.93,1.76
							c0.054,0.108,0.124,0.249,0.212,0.424c0.087,0.151,0.141,0.293,0.162,0.424c0.316,0.543,0.522,1.059,0.619,1.548
							c0.446,2.411,1.14,4.204,2.085,5.376c0.119,0.13,0.223,0.363,0.311,0.7c0.282,0.467,0.82,0.874,1.613,1.222
							c1.129,0.565,2.204,0.847,3.225,0.847c1.01,0,2.346-0.152,4.007-0.456l1.158-0.229c0.543,0.326,1.183,0.581,1.922,0.766
							c1.38,0.413,2.559,0.619,3.536,0.619c0.782,0,1.781-0.282,2.997-0.847c0.466-0.206,1.238-0.565,2.312-1.075
							c0.977-0.446,1.619-0.728,1.923-0.847c0.075,0,0.185-0.027,0.325-0.081c0.163-0.076,0.311-0.125,0.441-0.148l1.385-0.244
							c0.585-0.098,1.02-0.147,1.302-0.147c0.739-0.044,1.319-0.13,1.744-0.261c0.38-0.13,0.57-0.276,0.57-0.44
							c0-0.131-0.104-0.233-0.31-0.311c0.108-0.194,0.163-0.32,0.163-0.375c0-0.857-0.412-1.808-1.239-2.851
							c-0.238-0.326-0.982-1.145-2.231-2.46c-0.099-0.099-0.148-0.174-0.148-0.228c-0.869-0.946-2.204-1.868-4.008-2.77
							c-1.292-0.424-2.497-0.706-3.616-0.847c-1.749-0.304-2.823-0.456-3.225-0.456c-2.52-0.51-4.366-1.178-5.539-2.004
							c-0.749-0.521-1.596-1.422-2.541-2.704c-1.076-1.607-2.025-3.502-2.852-5.685c-0.727-1.684-1.803-5.3-3.225-10.85
							c-1.313-5.332-2.009-8.873-2.085-10.622c0.207,0,0.543-1.536,1.01-4.61c-0.163-2.617-0.446-6.489-0.847-11.615
							c0-1.553,0.098-2.888,0.293-4.008l0.244-2.149c0-0.163-0.081-0.473-0.244-0.929c-0.195-0.609-0.293-1.119-0.293-1.531
							l0.228-2.396c0-1.793-0.054-3.101-0.162-3.926c-0.099-0.814-0.148-2.427-0.148-4.838c0-1.238,0.049-2.086,0.148-2.541
							c0.272-0.772,0.429-1.206,0.472-1.303c0.249-0.673,0.374-1.059,0.374-1.157c0-0.304-0.228-0.766-0.684-1.385
							c-0.054-0.055-0.108-0.081-0.162-0.081c-0.044-0.098-0.065-0.201-0.065-0.31l0.228-1.076c0-0.531-0.104-0.966-0.31-1.303
							c0.358-0.152,0.999-0.537,1.922-1.157c0.446-0.359,0.956-0.744,1.531-1.157c0.317-0.088,0.473-0.218,0.473-0.392
							c0-0.303-0.282-0.916-0.847-1.84c-0.511-0.881-0.766-1.549-0.766-2.005c0-0.249,0.075-0.477,0.228-0.684
							c0.098-0.108,0.147-0.342,0.147-0.7s-0.026-0.743-0.081-1.157c-0.098-0.804-0.147-1.211-0.147-1.223
							c0-0.684-0.076-1.222-0.228-1.612l-0.212-0.375c-0.065-0.108-0.099-0.19-0.099-0.244c0.316-0.37,0.598-0.728,0.847-1.076
							l0.081-0.081c0.663-0.5,0.995-0.858,0.995-1.075c0-0.337-0.772-1.309-2.313-2.916l0.163-0.782
							c-0.261-1.662-0.391-2.53-0.391-2.606c0-0.804-0.13-1.559-0.391-2.265c-0.25-0.706-0.609-1.314-1.076-1.824
							c-0.966-0.966-1.45-3.247-1.45-6.842c0-3.758-0.055-6.039-0.163-6.842c-0.098-1.759-0.147-2.888-0.147-3.388
							c0-0.63-0.104-1.326-0.311-2.085v-0.538c0-1.13-0.412-2.9-1.238-5.311c-0.652-1.683-1.059-2.862-1.222-3.536
							c0.098-0.098,0.326-0.407,0.684-0.929c0.021-0.043,0.13-0.239,0.326-0.586c0.119-0.206,0.19-0.369,0.212-0.488
							c0.467-0.304,0.7-0.56,0.7-0.766c0-0.033-0.151-0.152-0.455-0.358c-0.489-0.315-0.929-0.603-1.32-0.863
							c-0.869-0.717-1.663-1.618-2.379-2.704c0.728,0,1.341-0.125,1.842-0.375c0.249-0.065,0.429-0.195,0.538-0.391
							c0.261-0.119,0.391-0.353,0.391-0.7c0-0.282-0.282-0.945-0.847-1.987c-0.304-0.402-0.549-0.766-0.734-1.092
							c-0.13-0.238-0.194-0.391-0.194-0.456h0.163c0.043,0,0.064-0.021,0.064-0.065c0.739,0,1.559,0.152,2.46,0.456
							c0.262,0.054,0.571,0.157,0.929,0.31c0.044,0.033,0.163,0.12,0.359,0.261c0.152,0.12,0.287,0.212,0.406,0.277
							c0.511,0,0.847-0.385,1.01-1.157c0.044-0.51,0.065-0.923,0.065-1.238c0-0.662-0.125-1.455-0.375-2.378
							c-0.381-1.195-0.614-2.091-0.7-2.688c0.207-0.065,0.467-0.375,0.783-0.929c0.249-0.586,0.375-0.917,0.375-0.994
							c0-0.142-0.05-0.321-0.148-0.538h0.619c1.14,0,1.754-0.207,1.841-0.619c0-0.054,0.017-0.119,0.05-0.195
							c0.021-0.075,0.032-0.142,0.032-0.195c-0.152-0.152-0.336-0.38-0.554-0.684c-0.358-0.51-0.559-0.793-0.603-0.848
							c-0.728-1.108-1.216-2.161-1.465-3.16c-0.153-0.64-0.229-1.434-0.229-2.378c0.055-0.358,0.081-0.744,0.081-1.157
							c0.249,0.098,0.658,0.147,1.222,0.147c1.042,0,1.862-0.385,2.46-1.157c0.359-0.554,0.537-1.119,0.537-1.694v-0.147
							c0.055,0,0.082-0.027,0.082-0.082V49.13c0-1.901-0.076-3.492-0.229-4.773l1.385-2.851c0.402-0.869,0.76-1.38,1.075-1.531
							c0.717-0.717,1.206-1.281,1.466-1.694c1.042-1.717,1.683-2.895,1.922-3.535c0.304-0.771,0.456-1.797,0.456-3.079
							c0-3.432-1.026-6.484-3.079-9.156c-0.792-0.945-1.406-1.717-1.841-2.313c-0.489-0.554-0.842-0.951-1.059-1.189
							c-0.37-0.412-0.684-0.733-0.946-0.961c-0.282-0.304-1.336-1.075-3.16-2.313c-0.402-0.358-0.809-0.744-1.222-1.157
							c-0.195-0.195-0.402-0.347-0.619-0.456v-0.456C187.217,10.623,185.523,8.675,182.134,7.827z"/>
						<path fill="#373535" d="M170.372,51.29c2.422,0,4.318-0.255,5.686-0.766c0.826-0.358,1.465-0.614,1.922-0.766
							c0.598,0,1.163,0.381,1.694,1.14c0.412,0.543,0.618,1.005,0.618,1.385c0,0.142-0.119,0.391-0.358,0.749
							c-0.282,0.412-0.673,0.885-1.173,1.417c-0.194,0.293-0.504,0.679-0.928,1.157c-0.5,0.565-1.016,0.923-1.549,1.075
							c-0.728,0.272-1.341,0.63-1.841,1.075c-0.5,0.412-0.783,0.743-0.848,0.994c-0.206,0.316-0.46,0.673-0.766,1.075
							c-0.152,0.152-0.228,0.31-0.228,0.472c-0.142-0.261-0.397-0.619-0.766-1.075c-0.249-0.282-0.424-0.484-0.521-0.603
							c-0.152-0.195-0.261-0.358-0.326-0.489c-0.424-0.489-0.787-0.847-1.091-1.075c-0.316-0.217-1.645-0.831-3.991-1.841
							c-1.228-0.51-1.842-1.152-1.842-1.922c0-1.379,0.407-2.329,1.222-2.851c0.261,0,0.516-0.026,0.766-0.081
							c1.032,0.087,1.754,0.244,2.168,0.472c0.151,0.065,0.331,0.169,0.537,0.31C169.108,51.242,169.644,51.29,170.372,51.29z"/>
						<path fill="none" stroke="#373535" stroke-width="1.5272" d="M142.596,206.478c-0.044-0.381-0.152-1.114-0.326-2.199
							c-0.173-1.075-0.32-1.906-0.44-2.492v-0.912l0.147-0.392c-0.098-0.261-0.147-0.515-0.147-0.766l-0.081-2.997l0.31-3.779"/>
						<line fill="none" stroke="#373535" stroke-width="1.5272" x1="125.279" y1="227.721" x2="125.198" y2="227.721"/>
						<path fill="none" stroke="#373535" stroke-width="1.5272" d="M102.194,172.707l-0.064-0.147c-0.467,0-0.831-0.055-1.091-0.163
							c-0.315-0.12-1.417-0.148-3.307-0.081c-0.977,0.108-2.568,0.445-4.773,1.01c-0.37,0.054-0.809,0.142-1.319,0.261
							c-0.51,0.108-0.836,0.174-0.977,0.194l-0.929,0.311c-1.303,0.369-2.916,0.961-4.838,1.776
							c-3.367,1.444-5.805,2.954-7.314,4.529c-1.293,1.162-2.395,2.525-3.308,4.089c-0.608,1.282-0.945,2.487-1.01,3.617
							c-0.152,1.043-0.586,2.346-1.303,3.91c-0.88,1.65-1.494,2.938-1.841,3.862c-0.228,0.521-0.435,1.162-0.619,1.922
							c-0.282,1.064-0.488,1.705-0.619,1.922c-0.064,0.174-0.45,0.917-1.157,2.232c-0.51,0.803-0.766,1.368-0.766,1.694l0.081,0.31
							c0.163,0.249,0.39,0.375,0.684,0.375c-0.044,0.152-0.223,0.717-0.538,1.694c-0.249,0.836-0.375,1.298-0.375,1.385v0.228
							c0.065,0.152,0.244,0.229,0.538,0.229l1.841-1.076c-0.304,0.749-0.456,1.39-0.456,1.922h-0.081
							c-0.207,0.218-0.31,0.479-0.31,0.783c0,0.272,0.207,0.472,0.619,0.604c0.358,0.075,0.537,0.488,0.537,1.238
							c-0.033,0.098-0.038,0.238-0.016,0.424c0.011,0.119,0.043,0.336,0.098,0.652c0.043,0.359,0.092,0.689,0.147,0.995v0.31
							c-0.044,0.184-0.163,0.603-0.358,1.254c-0.173,0.629-0.261,1.113-0.261,1.45"/>
						<path fill="none" stroke="#373535" stroke-width="1.5272" d="M77.579,216.726h0.375c0.38-0.293,0.689-0.499,0.929-0.619
							c0.261-0.054,0.466-0.13,0.619-0.228c0.054,0,0.249-0.044,0.586-0.13c0.402-0.088,0.821-0.125,1.254-0.114"/>
						<path fill="none" stroke="#373535" stroke-width="1.5272" d="M91.964,223.339c-0.955-0.857-2.161-1.748-3.616-2.672
							c-1.727-1.097-2.727-1.748-2.997-1.955l-4.008-3.079c0.065,0,0.348,0.055,0.847,0.163c0.272,0,0.527-0.152,0.766-0.456
							c0.207-0.206,0.31-0.412,0.31-0.618v-0.163l0.081-0.065h4.545c0.054,0.021,0.174,0.07,0.358,0.148
							c0.152,0.075,0.288,0.125,0.407,0.147c0.88,0.369,1.776,0.554,2.688,0.554c1.368,0,3.063-0.543,5.082-1.629
							c0.391-0.142,0.544-0.624,0.456-1.45v-0.244h0.082c0.173-0.316,0.304-0.494,0.391-0.538l1.759-0.684
							c0.228-0.076,0.744-0.359,1.548-0.847c0.25-0.108,0.532-0.261,0.848-0.456c0.347-0.238,0.554-0.396,0.619-0.472
							c1.586-1.054,2.378-1.976,2.378-2.769c0-0.055-0.026-0.104-0.081-0.148"/>
						<path fill="none" stroke="#373535" stroke-width="1.5272" d="M105.356,173.554c0.249,0.207,1.222,0.923,2.916,2.15
							c0.391,0.316,0.885,0.706,1.482,1.172c0.446,0.359,0.749,0.636,0.912,0.831c1.867,1.955,3.074,3.339,3.616,4.154
							c-0.261,0.207-0.412,0.332-0.456,0.375c-0.108,0.108-0.163,0.218-0.163,0.326c0,0.282,0.135,0.652,0.407,1.108
							c0.282,0.499,0.684,1.026,1.206,1.581v0.147c-0.359,0.152-0.565,0.256-0.619,0.31v0.391c0,0.218,0.076,0.446,0.228,0.685
							c0.152,0.075,0.516,0.358,1.091,0.847c0.424,0.531,0.754,1.097,0.994,1.693c0.099,0.195,0.148,0.479,0.148,0.848
							c-0.064,0.423-0.064,0.705,0,0.847c0,0.142,0.081,0.396,0.244,0.766c0.152,0.402,0.228,0.684,0.228,0.847
							c0,0.043-0.157,0.223-0.472,0.537c-0.249,0.337-0.375,0.674-0.375,1.01l0.375,1.158c0.108,0.293,0.293,0.624,0.554,0.994
							c-0.119,0.13-0.277,0.261-0.472,0.391c-0.13,0.152-0.565,0.614-1.303,1.385c0,0.15,0.049,0.226,0.148,0.228h-0.065
							c0.408,0.2,0.869,0.284,1.385,0.254c0.075-0.007,0.151-0.015,0.228-0.024h0.375l0.081,0.081
							c-0.977,0.717-1.466,1.124-1.466,1.222c0,0.108,0.027,0.238,0.081,0.391c0.088,0.152,0.267,0.228,0.538,0.228h0.7
							c-0.108,0.195-0.163,0.326-0.163,0.392c0,0.249,0.027,0.531,0.082,0.846c0.075,0.37,0,0.908-0.229,1.614
							c-0.206,0.966-0.31,1.504-0.31,1.613c0,0.217,0.104,0.575,0.31,1.075c0.25,0.337,0.375,0.592,0.375,0.766l-0.277,1.336
							c-0.347,1.021-0.916,1.856-1.71,2.509"/>
						<path fill="none" stroke="#373535" stroke-width="1.5272" d="M117.671,196.328c0.51-0.521,0.885-0.907,1.124-1.157
							c0.413-0.446,0.755-0.852,1.027-1.222c0.771-1.955,1.157-3.084,1.157-3.388c0-0.119-0.011-0.239-0.032-0.358l-0.05-0.18
							c-0.217-0.293-0.678-0.396-1.384-0.31l-0.081-1.01c0-0.598,0.151-1.494,0.456-2.688l0.554-1.532
							c0-0.391-0.105-0.684-0.311-0.88c-0.206-0.194-0.543-0.315-1.009-0.358c-1.076,0.087-1.842,0.087-2.298,0
							c0.044-0.51,0.065-0.945,0.065-1.303v-1.32c0-0.076,0.13-0.456,0.391-1.14c0.261-0.586,0.391-1.075,0.391-1.465
							c0-0.185-0.011-0.375-0.033-0.571c-0.032-0.152-0.049-0.244-0.049-0.277c-0.206-0.358-0.797-0.614-1.776-0.766
							c0.087-0.347,0.549-0.705,1.385-1.075c0.826-0.511,1.238-0.821,1.238-0.929c0.033-0.163-0.06-0.282-0.276-0.358
							c-0.239-0.088-0.56-0.099-0.961-0.033l1.776-0.619c0.456-0.064,0.684-0.19,0.684-0.375v-0.31c0.055,0,0.081-0.026,0.081-0.081
							l0.081-0.31c0-0.207-0.065-0.479-0.195-0.816c-0.065-0.151-0.233-0.521-0.504-1.108c-0.456-0.912-0.685-1.421-0.685-1.531
							c0-0.098,0.081-0.298,0.244-0.603c0.185-0.359,0.435-0.749,0.749-1.173l0.928-1.465c0-0.099-0.108-0.293-0.325-0.586
							c-0.348-0.446-0.652-0.836-0.912-1.173c-0.816-0.891-1.223-1.379-1.223-1.466c0-0.119,0.081-0.223,0.244-0.31
							c0.174-0.098,0.424-0.148,0.749-0.148c0.359-0.043,0.603-0.098,0.733-0.162c0.174-0.076,0.262-0.201,0.262-0.375
							c0-0.011-0.202-0.472-0.604-1.385c-0.412-0.826-0.618-1.673-0.618-2.541c0-0.402,0.075-1.043,0.228-1.922
							c0.152-0.869,0.229-1.434,0.229-1.694c0-0.717-0.359-1.151-1.076-1.303c0.206-0.565,0.311-1.157,0.311-1.776
							c0-0.728-0.153-1.244-0.457-1.549c-0.488-0.597-0.977-1.287-1.465-2.069c-0.521-1.085-0.88-1.836-1.076-2.248
							c-0.315-0.662-0.521-1.145-0.619-1.45h-0.081"/>
						<path fill="none" stroke="#373535" stroke-width="1.5272" d="M123.812,208.563l-3.454-0.228h0.082
							c0.402-0.717,0.733-1.336,0.994-1.857c0.455-0.989,0.684-1.63,0.684-1.923c0.044-0.228,0.038-0.385-0.016-0.472
							c-0.055-0.087-0.174-0.13-0.359-0.13c-1.792,0.923-2.742,1.385-2.851,1.385l-0.228-0.081c0-0.119,0.049-0.32,0.147-0.603
							c0.163-0.479,0.267-0.792,0.311-0.945c0.315-0.696,0.471-1.179,0.471-1.451c0-0.206-0.026-0.336-0.08-0.391
							c0-0.087-0.152-0.217-0.456-0.391c0.033-0.119,0.31-0.45,0.831-0.995c0.369-0.369,0.554-0.652,0.554-0.847
							c0.021-0.108-0.277-0.026-0.897,0.244c-0.803,0.348-1.352,0.549-1.645,0.603"/>
						<path fill="none" stroke="#373535" stroke-width="1.5272" d="M142.058,192.94l0.148-2.15l-0.081-2.541
							c0-3.333,0.233-6.771,0.7-10.313c0.413-3.692,0.619-5.586,0.619-5.685c-0.108-0.934-0.163-1.476-0.163-1.629
							c0.108-0.195,0.163-0.451,0.163-0.766c-0.055-0.609-0.081-1.25-0.081-1.923c0.304-0.771,0.456-1.439,0.456-2.004l-0.065-0.538
							c0.348-0.075,1.114-0.152,2.298-0.228c1.128-0.218,1.693-0.424,1.693-0.619c0-0.087-0.08-0.304-0.243-0.652
							c-0.185-0.424-0.435-0.896-0.749-1.418c-0.717-1.282-1.103-1.998-1.157-2.15l0.081,0.065c0.565,0.207,0.951,0.311,1.157,0.311
							c0.261,0,0.489-0.125,0.684-0.376c0.108-0.217,0.163-0.374,0.163-0.472c0-0.249-0.026-0.455-0.081-0.618
							c-0.108-0.099-0.163-0.223-0.163-0.375c0-0.195,0.413-0.479,1.239-0.847c0.771-0.456,1.157-0.739,1.157-0.847
							c-0.033-0.163-0.081-0.293-0.148-0.392c-0.075-0.064-0.13-0.113-0.162-0.147l0.081-0.081c0.912,0.065,1.602-0.011,2.069-0.228
							c0.054-0.099,0.108-0.229,0.162-0.391c0-0.446,0.049-0.804,0.148-1.076c0.119-0.521,0.298-0.984,0.537-1.384
							c0.055-0.099,0.081-0.403,0.081-0.912v-0.553c0-0.065-0.038-0.148-0.113-0.244c-0.109-0.13-0.201-0.249-0.277-0.358
							l0.081-0.082c0.479-0.098,1.07-0.2,1.776-0.31c0.075,0,0.142-0.033,0.195-0.098c0.064-0.076,0.098-0.174,0.098-0.293
							c0-0.098-0.075-0.223-0.228-0.375c-0.239-0.238-0.418-0.472-0.538-0.7c0.195-0.326,0.89-1.119,2.085-2.379
							c0.966-0.966,1.451-1.607,1.451-1.922l-0.065-0.228"/>
						<path fill="none" stroke="#373535" stroke-width="1.5272" d="M174.901,144.85c-0.836,2.118-1.58,3.887-2.231,5.311
							c-0.272,0.673-0.663,1.603-1.173,2.786c-0.412,0.977-0.712,1.77-0.896,2.378c-0.131,0.272-0.386,1.14-0.766,2.607
							c-0.195,0.739-0.531,1.634-1.01,2.688c-0.272,0.392-0.63,1.217-1.076,2.477c-0.412,1.183-0.619,2.129-0.619,2.834
							c0,0.489,0.18,1.721,0.538,3.698v1.923c-0.064,0.391,0.017,0.727,0.244,1.01c0.055,0.151,0.163,0.331,0.326,0.537
							c0.282,0.391,0.429,0.593,0.44,0.603c0.055,0.055,0.104,0.136,0.148,0.244l-0.065,1.987"/>
						<path fill="none" stroke="#373535" stroke-width="1.5272" d="M156.835,62.45c0.325,0.466,0.526,0.749,0.603,0.847
							c0.249,0.337,0.51,0.619,0.782,0.847l0.456,0.456l0.049,0.016c0.021,0.011,0.033,0.033,0.033,0.065l0.147,0.081
							c0.119,0.152,0.311,0.347,0.571,0.586c0.435,0.424,0.678,0.662,0.733,0.717c0.955,0.836,1.879,1.477,2.769,1.922
							c0.207,0.064,1.081,0.527,2.623,1.385c0.305,0.098,0.842,0.277,1.614,0.538c1.629,0.412,3.247,0.619,4.854,0.619
							c1.456,0,2.916-0.207,4.383-0.619c1.065-0.326,1.808-0.635,2.232-0.929c1.053-0.815,1.618-1.58,1.694-2.297
							c0.249-0.5,0.375-1.14,0.375-1.922v-0.31c0.846,0,1.487-0.592,1.922-1.776c0.098-0.163,0.228-0.576,0.391-1.238
							c0.207-0.966,0.386-1.787,0.538-2.46c0.565-3.541,0.847-5.512,0.847-5.914c-0.055-0.619-0.081-1.08-0.081-1.385
							c0.087,0.174,0.293,0.478,0.619,0.912c0.814,0.717,1.302,1.129,1.465,1.238l0.081,0.082c0.076,0.054,0.233,0.157,0.472,0.31
							c0.239,0.153,0.489,0.277,0.749,0.375c0.044,0.044,0.212,0.12,0.505,0.229c0.293,0.108,0.461,0.163,0.505,0.163"/>
						<path fill="none" stroke="#373535" stroke-width="1.5272" d="M153.218,58.606l0.147-0.163c0.12-0.098,0.25-0.147,0.392-0.147
							c0.304,0,0.787,0.331,1.45,0.994c1.085,1.01,1.885,1.705,2.396,2.085c0.304,0.304,0.608,0.531,0.912,0.684
							c0.554,0.521,0.863,0.803,0.929,0.847c1.65,1.282,3.6,1.922,5.848,1.922c1.206,0,2.335-0.152,3.388-0.456
							c0.229,0,0.538-0.104,0.929-0.31c0.912-0.283,1.526-0.614,1.842-0.994c0.369-0.272,0.624-0.478,0.766-0.619
							c0.13,0.184,0.647,0.44,1.548,0.766c1.259,0.891,2.797,1.362,4.61,1.417c0.902,0.033,1.694-0.027,2.379-0.179"/>
						<path fill="none" stroke="#373535" stroke-width="1.5272" d="M184.366,51.682c-0.055-1.043-0.386-2.199-0.995-3.47
							c-0.531-1.075-1.042-2.025-1.531-2.851c-0.901-1.347-2.21-3.421-3.926-6.223c-0.249-0.945-1.124-2.46-2.622-4.545
							c-1.793-2.564-2.765-3.921-2.916-4.073c-2.205-3.128-3.465-6.104-3.78-8.928"/>
						<path fill="none" stroke="#373535" stroke-width="1.5272" d="M181.369,15.435l-0.147,0.7c0,0.261,0.179,0.565,0.537,0.912
							c0.065,0.326,0.451,0.842,1.158,1.548c0.695,0.695,1.357,1.13,1.987,1.303l0.244,2.004c0,0.337-0.081,0.848-0.244,1.532
							c-0.25,0.673-0.375,1.134-0.375,1.385c0,0.749,0.104,1.368,0.31,1.857c-0.054,0.25-0.081,0.712-0.081,1.385
							c0,0.923,0.027,1.743,0.081,2.46c-0.087,1.163-0.087,2.829,0,5.001c-0.087,2.173-0.424,3.991-1.01,5.457
							c-0.228,0.663-0.369,1.868-0.424,3.616c-0.021,0.544-0.033,1.748-0.033,3.616"/>
						<path fill="none" stroke="#373535" stroke-width="1.5272" d="M185.148,17.291c-0.142,0.13-0.244,0.407-0.311,0.831
							l0.065,1.776"/>
						<path fill="none" stroke="#373535" stroke-width="1.5272" d="M192.837,44.367c-0.586-2.455-1.075-4.273-1.466-5.457h-0.081"/>
						<path fill="none" stroke="#373535" stroke-width="1.5272" d="M132.203,47.838c0.044,0.173,0.326,1.607,0.847,4.301
							c0.088,0.38,0.212,1.15,0.375,2.312c0.174,1.152,0.282,1.842,0.326,2.069"/>
						<path fill="none" stroke="#373535" stroke-width="1.5272" d="M139.746,27.213c-0.142-0.478-0.218-0.994-0.229-1.548
							c0-0.554,0-0.912,0-1.075c0-0.25,0.049-0.505,0.148-0.766c0.152-0.37,0.228-0.603,0.228-0.7l0.081-0.684
							c0-0.098-0.026-0.147-0.081-0.147"/>
						<path fill="none" stroke="#373535" stroke-width="1.5272" d="M180.685,87.148l-0.081-0.081
							c-0.272,0.207-0.565,0.456-0.88,0.749c-0.38,0.337-0.597,0.526-0.652,0.57c-0.499,0.381-1.119,0.739-1.857,1.075
							c-1.032,0.358-1.852,0.538-2.46,0.538c-1.163,0-1.906-0.076-2.232-0.229c-0.326-0.261-0.658-0.391-0.995-0.391
							c-0.238,0-0.499,0.179-0.782,0.538c-0.326,0.347-0.527,0.603-0.603,0.766c-0.185,0.185-0.598,0.418-1.238,0.7
							c-0.544,0.272-0.977,0.451-1.303,0.538v-1.922c-0.229-0.923-0.793-1.385-1.694-1.385c-0.261,0.044-0.467,0.065-0.619,0.065
							c-0.194,0.108-0.479,0.163-0.847,0.163c-0.075,0-0.304-0.435-0.684-1.303c-0.326-0.531-0.586-0.842-0.783-0.929
							c-0.282-0.207-0.64-0.31-1.075-0.31c-1.586,0.152-2.634,0.228-3.144,0.228c-0.456,0-1.151-0.049-2.086-0.147
							c-0.868-0.315-1.585-0.652-2.149-1.01c-0.521-0.303-1.01-0.684-1.466-1.14c-0.424-0.51-0.809-0.896-1.157-1.157
							c-0.641-0.63-1.135-1.119-1.482-1.466c-0.63-0.63-1.163-1.194-1.596-1.694c-0.598-0.902-1.363-2.287-2.297-4.155
							c-0.869-1.738-2.411-3.714-4.626-5.931c-0.195-0.195-0.549-0.592-1.059-1.188c-0.696-0.826-1.239-1.456-1.63-1.891
							c-0.185-0.499-0.391-0.96-0.619-1.385c1.51-0.249,2.792-0.761,3.844-1.531c0.337-0.238,0.955-0.907,1.857-2.004
							c0.402-0.706,0.761-1.396,1.075-2.069c0.293-0.446,0.522-0.886,0.685-1.319c0.771-1.509,1.157-2.688,1.157-3.535v-2.378
							c-0.098-0.163-0.201-0.32-0.31-0.472c-0.088-0.761-0.267-1.655-0.538-2.688c-0.152-0.619-0.256-1.211-0.31-1.776
							c-0.065-0.88-0.143-1.445-0.229-1.695c-0.836-3.074-1.525-5.43-2.069-7.07c-0.435-0.977-0.929-2.167-1.482-3.568
							c-0.575-1.466-0.955-2.406-1.139-2.818c-0.718-2.009-1.179-3.753-1.385-5.23c0.13,0,0.412-0.103,0.847-0.31
							c0.054-0.054,0.147-0.119,0.276-0.195c0.13-0.075,0.218-0.141,0.262-0.195c0.098-0.043,0.201-0.119,0.31-0.228
							c0.185-0.12,0.44-0.375,0.766-0.766c0.51-0.674,0.766-1.314,0.766-1.922c0-0.152-0.049-0.256-0.148-0.31"/>
						<path fill="none" stroke="#373535" stroke-width="1.5272" d="M134.06,58.524l0.293,2.46c0,0.359,0.207,1.129,0.619,2.313
							c0.195,0.554,0.402,0.94,0.618,1.157c0.218,0.293,0.5,0.521,0.848,0.684c0.303,0.13,0.716,0.206,1.238,0.228h0.912"/>
						<path fill="#FFFFFF" d="M175.293,54.224l-0.081-0.244c0-0.249,0.113-0.489,0.342-0.717c0.185-0.195,0.51-0.441,0.977-0.733
							c0.489-0.25,0.874-0.391,1.157-0.424c0.326-0.043,0.58,0.044,0.766,0.261c-0.087,0.055-0.152,0.093-0.194,0.114
							c-0.065,0.033-0.131,0.049-0.195,0.049c-0.13,0-0.44,0.358-0.929,1.075c-0.369,0.608-0.803,0.912-1.303,0.912
							C175.472,54.517,175.293,54.419,175.293,54.224z"/>
						<path fill="#FFFFFF" d="M167.667,54.224c-0.228-0.619-0.689-0.929-1.384-0.929c-0.25,0.098-0.505,0.147-0.766,0.147
							c0.792-0.63,1.639-0.755,2.541-0.375c0.977,0.358,1.465,0.821,1.465,1.385c0,0.456-0.179,0.684-0.537,0.684
							C168.455,55.136,168.015,54.831,167.667,54.224z"/>
						<path fill="none" stroke="#373535" stroke-width="1.5272" d="M174.363,23.205l0.164,0.081c0.152,0,0.303,0.049,0.455,0.148
							h0.7c0.206,0.032,0.386,0.032,0.538,0c1.271,0.173,2.579,0.559,3.925,1.157c0.304,0.152,0.739,0.358,1.303,0.619
							c0.011,0.011,0.218,0.087,0.619,0.228c0.488,0.207,0.847,0.311,1.075,0.311c0.304,0,0.484-0.027,0.538-0.081
							c0.055-0.044,0.104-0.12,0.147-0.229 M176.221,23.434c-0.674,0.825-1.114,1.368-1.321,1.629
							c-0.554,0.793-0.83,1.456-0.83,1.987c0,0.315,0.021,0.549,0.064,0.7c0.076,0.142,0.207,0.293,0.392,0.456
							c0.336,0.424,0.874,0.706,1.612,0.847c0.522,0.108,0.881,0.163,1.076,0.163c0.152-0.055,0.488-0.185,1.01-0.391
							c0.999-0.337,1.586-0.593,1.759-0.766c0.076-0.044,0.331-0.326,0.767-0.848c0.238-0.238,0.424-0.461,0.553-0.668
							c0.099-0.163,0.148-0.277,0.148-0.342c-0.054-0.206-0.081-0.434-0.081-0.683c0-0.109,0.027-0.212,0.081-0.31"/>
						<path fill="#373535" d="M176.058,27.832c-0.185-0.098-0.413-0.358-0.685-0.782c-0.38-0.619-0.635-1.129-0.766-1.531
							l0.017-0.033c0.142-0.142,0.212-0.233,0.212-0.277l-0.017-0.016l0.081-0.13c0.207-0.261,0.646-0.804,1.321-1.629
							c1.249,0.173,2.524,0.548,3.828,1.124c0.108,0.207,0.163,0.424,0.163,0.652c0,0.901-0.104,1.542-0.31,1.922
							c-0.381,0.717-1.098,1.075-2.15,1.075C176.883,28.207,176.319,28.082,176.058,27.832z"/>
						<path fill="none" stroke="#373535" stroke-width="1.5272" d="M154.668,26.203c0.033,0.033,0.081,0.093,0.148,0.18
							c0.087,0.098,0.194,0.195,0.325,0.293"/>
						<path fill="none" stroke="#373535" stroke-width="1.5272" d="M145.138,30.438c0.51-0.152,1.358-0.358,2.541-0.619
							c0.326-0.021,0.527-0.044,0.603-0.065c0.977-0.304,1.852-0.663,2.624-1.075c0.727-0.326,1.32-0.712,1.775-1.157
							c0.337-0.238,0.847-0.418,1.531-0.538c0.261-0.054,0.571-0.158,0.929-0.31c0.152,0.152,0.485,0.407,0.995,0.766
							c1.075,0.771,1.613,1.487,1.613,2.15c0,0.152-0.026,0.282-0.081,0.391c-0.064,0.13-0.19,0.272-0.375,0.424
							c-0.228,0.185-0.406,0.326-0.538,0.425c-0.89,0.564-2.068,0.847-3.535,0.847c-1.456,0-2.536-0.13-3.243-0.391
							c-0.228-0.238-0.51-0.466-0.847-0.684l-0.847-0.847"/>
						<path fill="#FFFFFF" d="M178.6,24.15c0.194,0,0.336,0.043,0.424,0.13c0.075,0.076,0.113,0.212,0.113,0.407v0.081
							c0.119,0,0.202,0.021,0.244,0.065c0.044,0.044,0.065,0.125,0.065,0.244c0,0.152-0.104,0.228-0.311,0.228
							c-0.098,0-0.147-0.027-0.147-0.081l-0.229,0.081h-0.162c0,0.054-0.026,0.103-0.081,0.147
							c-0.065,0.153-0.142,0.228-0.229,0.228c-0.249,0-0.375-0.152-0.375-0.456c0-0.065,0.017-0.109,0.049-0.13
							c0.011-0.021,0.044-0.055,0.099-0.098c-0.055-0.054-0.081-0.157-0.081-0.31c0-0.152,0.049-0.272,0.147-0.358
							C178.214,24.253,178.371,24.194,178.6,24.15z"/>
						<path fill="#373535" d="M155.987,27.327l0.148,1.043c-0.055,0.304-0.104,0.636-0.148,0.995
							c-0.075,0.272-0.206,0.554-0.391,0.847c-0.435,0.51-1.103,0.766-2.004,0.766c-1.01,0-1.754-0.303-2.232-0.912
							c-0.412-0.522-0.619-0.907-0.619-1.157v-0.163l0.164-0.065c0.727-0.326,1.32-0.712,1.775-1.157
							c0.337-0.238,0.847-0.418,1.531-0.538c0.261-0.054,0.571-0.158,0.929-0.31C155.184,26.719,155.466,26.937,155.987,27.327z"/>
						<path fill="#FFFFFF" d="M155.433,26.968c0.109,0.098,0.163,0.228,0.163,0.391c0,0.098-0.026,0.174-0.081,0.229
							c0.076,0,0.125,0.021,0.148,0.064c0.011,0.021,0.016,0.076,0.016,0.163c0,0.207-0.104,0.31-0.31,0.31
							c-0.087,0-0.163-0.075-0.229-0.228c0,0.054-0.054,0.081-0.163,0.081v0.147c0,0.261-0.124,0.391-0.374,0.391
							c-0.131,0-0.239-0.038-0.326-0.114c-0.099-0.076-0.147-0.169-0.147-0.277c0-0.249,0.103-0.375,0.31-0.375v-0.244
							c0-0.456,0.179-0.684,0.537-0.684C155.173,26.822,155.324,26.871,155.433,26.968z"/>
					</g>
				</g>
			</g>
		</g>
	</g>
</g>
</svg>
