<?xml version="1.0" encoding="utf-8"?>
<!-- Generator: Adobe Illustrator 17.0.1, SVG Export Plug-In . SVG Version: 6.00 Build 0)  -->
<!DOCTYPE svg PUBLIC "-//W3C//DTD SVG 1.1//EN" "http://www.w3.org/Graphics/SVG/1.1/DTD/svg11.dtd">
<svg version="1.1" id="Layer_1" xmlns="http://www.w3.org/2000/svg" xmlns:xlink="http://www.w3.org/1999/xlink" x="0px" y="0px"
	 width="256.701px" height="253.389px" viewBox="2.073 2.715 256.701 253.389" enable-background="new 2.073 2.715 256.701 253.389"
	 xml:space="preserve">
<g>
	<g id="Layer_1_1_">
		<g>
			<g id="Layer_1_3_">
				<g>
					<path fill="#FFFFFF" d="M200.36,27.448c-1.067,0-1.999,0.449-2.795,1.345c-0.74,0.854-1.11,1.892-1.11,3.116
						c0,1.208,0.37,2.269,1.11,3.179c0.81,0.854,1.743,1.28,2.795,1.28c1.081,0,1.991-0.427,2.732-1.28
						c0.783-0.91,1.174-1.971,1.174-3.179c0-1.224-0.391-2.262-1.174-3.116C202.365,27.896,201.455,27.448,200.36,27.448z
						 M225.944,14.581c4.922,4.296,8.115,8.713,9.581,13.251h0.278c0.341,0,0.604-0.014,0.79-0.042
						c4.324-0.071,8.912,1.244,13.762,3.948c5.206,2.845,7.12,5.506,5.74,7.98c-1.821,3.329-15.215,2.12-40.179-3.628l10.648,5.847
						c8.25,3.912,15.199,5.868,20.846,5.868c6.785,0,10.299,1.003,10.541,3.008c0.171,1.992-3.137,3.457-9.921,4.396
						c-5.79,0.811-14.581,1.238-26.374,1.28l-16.217-0.042c-3.045,1.323-7.598,2.475-13.657,3.457
						c0.028,0.071,0.1,0.199,0.212,0.384h-0.938c-1.82,0.469-4.908,0.931-9.26,1.386c-2.917,0.257-5.313,0.519-7.19,0.79
						c-0.94,0.085-1.757,0.179-2.454,0.278v0.384c-0.483,0.157-2.995,1.885-7.533,5.185c-0.113-0.142-0.185-0.235-0.213-0.278
						l-0.341,0.449l-9.922,7.853c-0.355,0.213-0.562,0.348-0.617,0.405c-1.167,1.294-2.654,3.116-4.46,5.463
						c-4.808,6.714-7.909,11.082-9.304,13.101c-2.46,3.428-5.227,6.977-8.3,10.648c-2.702,3.144-5.754,6.451-9.154,9.921
						c-2.631,2.675-7.717,7.468-15.257,14.382c-5.931,5.378-10.163,10.036-12.695,13.977c-1.765,2.801-5.74,8.649-11.928,17.539
						c-5.121,7.34-9.048,13.271-11.779,17.796c-0.996,1.721-3.165,4.694-6.508,8.919c-3.314,4.268-5.662,7.633-7.042,10.093
						c-4.737,8.309-4.545,15.293,0.576,20.954c4.823,5.335,8.201,10.591,10.136,15.769c1.635,4.453,2.845,10.547,3.628,18.286
						c-2.803-3.286-7.632-6.479-14.49-9.581c-1.849-0.854-7.354-2.987-16.515-6.402c-5.932-2.19-11.302-2.788-16.111-1.792
						c-4.439,0.911-9.438,3.422-15,7.533c-2.647,2.034-4.78,3.052-6.402,3.052c0.113-3.187,0.91-7.255,2.39-12.205
						c1.636-5.376,3.293-9.075,4.972-11.095c1.821-2.091,5.626-4.73,11.416-7.916c5.32-2.887,8.799-5.619,10.434-8.194
						c2.09-3.314,3.912-8.869,5.463-16.666c2.077-10.199,3.342-16.053,3.798-17.561l1.323-4.117l28.209-77.201
						c2.49-5.634,4.203-9.46,5.143-11.48l-1.067,1.622l1.109-2.112l3.905-11.33c0-0.071,0.022-0.128,0.064-0.171v-0.213
						c0-0.071,0.014-0.128,0.042-0.171V67.31c0-0.071,0.022-0.127,0.064-0.171c0-0.185,0.022-0.314,0.064-0.384
						c0-0.185,0.014-0.314,0.044-0.384v-0.405c0-0.113,0.021-0.185,0.064-0.213v-2.347c-0.044-0.185-0.064-0.441-0.064-0.769
						c-0.028-0.042-0.044-0.121-0.044-0.235v-0.213c-0.047-0.045-0.069-0.087-0.069-0.13v-0.213
						c-0.042-0.042-0.064-0.078-0.064-0.107c-0.028-0.113-0.042-0.284-0.042-0.513c-0.042-0.028-0.064-0.099-0.064-0.213
						l-0.042-0.107c-0.044-0.228-0.086-0.397-0.128-0.512c-1.28-5.291-4.829-7.909-10.648-7.852
						c-5.761,0.042-8.642-0.612-8.642-1.963c0.057-1.451,3.293-4.495,9.709-9.132c5.462-3.927,12.874-6.081,22.235-6.466
						c0.483-0.042,1.194-0.064,2.133-0.064h2.838c1.807,0.057,3.684,0.206,5.633,0.449c8.749-8.777,18.365-15.414,28.85-19.909
						c12.69-5.476,29.973-9.303,51.852-11.479C201.838,2.198,215.886,5.732,225.944,14.581z"/>
					<path fill="#373535" d="M197.564,28.792c0.796-0.896,1.728-1.345,2.795-1.345c1.095,0,2.005,0.449,2.732,1.345
						c0.783,0.854,1.174,1.892,1.174,3.116c0,1.208-0.391,2.269-1.174,3.179c-0.74,0.854-1.65,1.28-2.732,1.28
						c-1.053,0-1.985-0.427-2.795-1.28c-0.74-0.91-1.11-1.971-1.11-3.179C196.455,30.684,196.825,29.646,197.564,28.792z"/>
					<path fill="#FFFFFF" d="M198.013,29.283c0.626-0.74,1.373-1.11,2.242-1.11c0.825,0,1.55,0.37,2.175,1.11
						c0.555,0.584,0.869,1.33,0.94,2.241c-2.077-1.635-4.161-1.635-6.252,0C197.187,30.627,197.486,29.881,198.013,29.283z"/>
					<path fill="#FFFFFF" d="M191.056,60.287h0.938c0.74,1.365,1.374,3.336,1.899,5.911c0.74,3.954,0.925,8.059,0.555,12.312
						c-0.384,4.566-1.315,8.3-2.795,11.203c-1.664,3.257-3.797,4.801-6.402,4.63c-2.319-0.042-4.623-2.106-6.913-6.188
						c-2.149-4.566-3.599-7.483-4.354-8.749c-0.042-0.042-0.064-0.077-0.064-0.107l-0.042-0.107l-0.064-0.064
						c-0.925-1.451-3.99-5.057-9.196-10.818c4.538-3.3,7.049-5.029,7.533-5.185c0.924-0.27,1.742-0.491,2.454-0.661
						c1.878-0.271,4.274-0.533,7.19-0.79C186.148,61.219,189.235,60.756,191.056,60.287z"/>
					<path fill="#D1D4DF" d="M172.152,63.125v-0.384c0.697-0.099,1.514-0.193,2.454-0.278
						C173.892,62.634,173.075,62.854,172.152,63.125z"/>
					<path fill="none" stroke="#373535" stroke-width="1.6331" stroke-miterlimit="10" d="M235.801,27.832
						c0.341,0,0.604-0.014,0.79-0.042h-0.79V27.832z M193.488,60.287h-1.494c0.74,1.365,1.374,3.336,1.899,5.911
						c0.74,3.954,0.925,8.059,0.555,12.312c-0.384,4.566-1.315,8.3-2.795,11.203c-1.664,3.257-3.797,4.801-6.402,4.63
						c-2.319-0.042-4.623-2.106-6.913-6.188c-2.149-4.566-3.599-7.483-4.354-8.749c-0.042-0.042-0.064-0.077-0.064-0.107
						l-0.042-0.107l-0.064-0.064c-0.925-1.451-3.99-5.057-9.196-10.818c-0.113-0.142-0.185-0.235-0.213-0.278l-0.341,0.449
						l-9.922,7.853c-0.355,0.213-0.562,0.348-0.617,0.405c-1.167,1.294-2.654,3.116-4.46,5.463
						c-4.808,6.714-7.909,11.082-9.304,13.101c-2.46,3.428-5.227,6.977-8.3,10.648c-2.702,3.144-5.754,6.451-9.154,9.921
						c-2.631,2.675-7.717,7.468-15.257,14.382c-5.931,5.378-10.163,10.036-12.695,13.977c-1.765,2.801-5.74,8.649-11.928,17.539
						c-5.121,7.34-9.048,13.271-11.779,17.796c-0.996,1.721-3.165,4.694-6.508,8.919c-3.314,4.268-5.662,7.633-7.042,10.093
						c-4.737,8.309-4.545,15.293,0.576,20.954c4.823,5.335,8.201,10.591,10.136,15.769c1.635,4.453,2.845,10.547,3.628,18.286
						l0.064,0.065c0.298,0.341,0.277,0.341-0.064,0v-0.065c-2.803-3.286-7.632-6.479-14.49-9.581
						c-1.849-0.854-7.354-2.987-16.515-6.402c-5.932-2.19-11.302-2.788-16.111-1.792c-4.439,0.911-9.438,3.422-15,7.533
						c-2.647,2.034-4.78,3.052-6.402,3.052c0.113-3.187,0.91-7.255,2.39-12.205c1.636-5.376,3.293-9.075,4.972-11.095
						c1.821-2.091,5.626-4.73,11.416-7.916c5.32-2.887,8.799-5.619,10.434-8.194c2.09-3.314,3.912-8.869,5.463-16.666
						c2.077-10.199,3.342-16.053,3.798-17.561l1.323-4.117l28.209-77.201c2.134-5.05,3.528-8.322,4.183-9.816l0.341-0.662
						l-0.447,0.618l1.109-2.112l3.905-11.33c0-0.071,0.022-0.128,0.064-0.171v-0.213c0-0.071,0.014-0.128,0.042-0.171v-0.278
						c0-0.071,0.022-0.127,0.064-0.171c0-0.185,0.022-0.314,0.064-0.384c0-0.185,0.014-0.314,0.044-0.384v-0.405
						c0-0.113,0.021-0.185,0.064-0.213v-2.347c-0.044-0.185-0.064-0.441-0.064-0.769c-0.028-0.042-0.044-0.121-0.044-0.235v-0.213
						c-0.046-0.041-0.067-0.084-0.067-0.126v-0.213c-0.042-0.042-0.064-0.078-0.064-0.107c-0.028-0.113-0.042-0.284-0.042-0.513
						c-0.042-0.028-0.064-0.099-0.064-0.213l-0.042-0.107c-0.044-0.228-0.086-0.397-0.128-0.512
						c-1.28-5.291-4.829-7.909-10.648-7.852c-5.761,0.042-8.642-0.612-8.642-1.963c0.057-1.451,3.293-4.495,9.709-9.132
						c5.462-3.927,12.874-6.081,22.235-6.466c0.483-0.042,1.194-0.064,2.133-0.064h2.838c1.807,0.057,3.684,0.206,5.633,0.449
						c8.749-8.777,18.365-15.414,28.85-19.909c12.69-5.476,29.973-9.303,51.852-11.479c18.037-1.778,32.085,1.756,42.143,10.605
						c4.922,4.296,8.115,8.713,9.581,13.251h0.278 M236.592,27.789c4.324-0.071,8.912,1.244,13.762,3.948
						c5.206,2.845,7.12,5.506,5.74,7.98c-1.821,3.329-15.215,2.12-40.179-3.628l10.648,5.847c8.25,3.912,15.199,5.868,20.846,5.868
						c6.785,0,10.299,1.003,10.541,3.008c0.171,1.992-3.137,3.457-9.921,4.396c-5.79,0.811-14.581,1.238-26.374,1.28l-16.217-0.042
						c-3.045,1.323-7.598,2.475-13.657,3.457c0.028,0.071,0.1,0.199,0.212,0.384h-0.938c-1.82,0.469-4.908,0.931-9.26,1.386
						c-2.917,0.257-5.313,0.519-7.19,0.79c-0.712,0.171-1.53,0.391-2.454,0.661c-0.483,0.157-2.995,1.885-7.533,5.185
						 M200.36,27.448c-1.067,0-1.999,0.449-2.795,1.345c-0.74,0.854-1.11,1.892-1.11,3.116c0,1.208,0.37,2.269,1.11,3.179
						c0.81,0.854,1.743,1.28,2.795,1.28c1.081,0,1.991-0.427,2.732-1.28c0.783-0.91,1.174-1.971,1.174-3.179
						c0-1.224-0.391-2.262-1.174-3.116C202.365,27.896,201.455,27.448,200.36,27.448z M174.605,62.464
						c-0.94,0.085-1.757,0.179-2.454,0.278v0.384"/>
					<path fill="#FFFFFF" d="M213.781,40.336c1.365,0,3.044-0.078,5.035-0.235l7.746,1.836c8.25,3.912,15.199,5.868,20.846,5.868
						c6.785,0,10.299,1.003,10.541,3.008c0.171,1.992-3.137,3.457-9.921,4.396c-5.79,0.811-14.581,1.238-26.374,1.28l-16.217-0.042
						c-3.045,1.323-7.598,2.475-13.657,3.457c0.028,0.071,0.1,0.199,0.212,0.384h-0.938c-1.82,0.469-4.908,0.931-9.26,1.386
						c-2.917,0.257-5.313,0.519-7.19,0.79c-0.94,0.085-1.757,0.179-2.454,0.278v0.384c-0.483,0.157-2.995,1.885-7.533,5.185
						c-0.113-0.142-0.185-0.235-0.213-0.278l-0.341,0.449l-9.922,7.853c-0.355,0.213-0.562,0.348-0.617,0.405
						c-1.167,1.294-2.654,3.116-4.46,5.463c-4.439,6.188-7.539,10.555-9.304,13.101c-2.46,3.428-5.227,6.977-8.3,10.648
						c-2.702,3.144-5.754,6.451-9.154,9.921c-2.631,2.675-7.717,7.468-15.257,14.382c-5.931,5.378-10.163,10.036-12.695,13.977
						c-1.765,2.801-5.74,8.649-11.928,17.539c-5.121,7.34-9.048,13.271-11.779,17.796c-0.996,1.721-3.165,4.694-6.508,8.919
						c-3.314,4.268-5.662,7.633-7.042,10.093c-4.737,8.309-4.545,15.293,0.576,20.954c4.823,5.335,8.201,10.591,10.136,15.769
						c1.635,4.453,2.845,10.547,3.628,18.286c-2.803-3.286-7.632-6.479-14.49-9.581c-1.849-0.854-7.354-2.987-16.515-6.402
						c-5.932-2.19-11.302-2.788-16.111-1.792c-4.439,0.911-9.438,3.422-15,7.533c-2.647,2.034-4.78,3.052-6.402,3.052
						c0.113-3.187,0.91-7.255,2.39-12.205c1.636-5.376,3.293-9.075,4.972-11.095c1.821-2.091,5.626-4.73,11.416-7.916
						c3.969-2.106,6.893-4.133,8.769-6.081c1.75,0.455,3.4,0.683,4.95,0.683c5.049,0,8.969-1.671,11.757-5.013
						c2.176-2.631,3.904-6.758,5.185-12.376c2.076-6.301,3.847-11.451,5.313-15.448c1.494-4.169,4.815-11.523,9.965-22.065
						c5.106-10.412,11.316-19.274,18.628-26.586l9.687-9.538c4.31-4.424,9.53-11.537,15.662-21.339
						c6.245-10.001,12.262-17.804,18.052-23.407c5.647-5.548,14.843-12.554,27.59-21.018
						C169.875,44.553,188.715,40.336,213.781,40.336z"/>
					<path fill="none" stroke="#373535" stroke-width="1.6331" d="M213.781,40.336c-25.065,0-43.906,4.218-56.524,12.654
						c-12.747,8.464-21.943,15.469-27.59,21.018c-5.79,5.604-11.807,13.406-18.052,23.407c-6.132,9.802-11.352,16.914-15.662,21.339
						l-9.687,9.538c-7.312,7.312-13.522,16.174-18.628,26.586c-5.15,10.542-8.471,17.896-9.965,22.065
						c-1.465,3.998-3.237,9.146-5.313,15.448c-1.28,5.619-3.009,9.745-5.185,12.376c-2.788,3.342-6.707,5.013-11.757,5.013
						c-1.55,0-3.201-0.228-4.95-0.683c-1.878,1.949-4.801,3.976-8.769,6.081c-5.79,3.187-9.595,5.826-11.416,7.916
						c-1.679,2.02-3.336,5.719-4.972,11.095c-1.48,4.95-2.275,9.019-2.39,12.205c1.621,0,3.755-1.018,6.402-3.052
						c5.562-4.111,10.563-6.621,15-7.533c4.809-0.995,10.178-0.397,16.111,1.792c9.161,3.414,14.666,5.548,16.515,6.402
						c6.857,3.102,11.686,6.295,14.49,9.581c-0.783-7.737-1.992-13.833-3.628-18.286c-1.935-5.179-5.313-10.434-10.136-15.769
						c-5.121-5.661-5.313-12.645-0.576-20.954c1.379-2.46,3.727-5.826,7.042-10.093c3.342-4.224,5.512-7.197,6.508-8.919
						c2.732-4.524,6.657-10.456,11.779-17.796c6.188-8.89,10.163-14.738,11.928-17.539c2.532-3.941,6.764-8.599,12.695-13.977
						c7.54-6.913,12.626-11.707,15.257-14.382c3.4-3.471,6.452-6.778,9.154-9.921c3.073-3.671,5.84-7.219,8.3-10.647
						c1.765-2.546,4.865-6.913,9.304-13.101c1.806-2.347,3.292-4.169,4.46-5.463c0.057-0.057,0.262-0.192,0.617-0.405l9.922-7.853
						l0.341-0.449c0.028,0.042,0.1,0.136,0.213,0.278c4.538-3.3,7.049-5.029,7.533-5.185v-0.384
						c0.697-0.099,1.514-0.193,2.454-0.278c1.878-0.271,4.274-0.533,7.19-0.79c4.353-0.455,7.44-0.917,9.26-1.386h0.938
						c-0.113-0.185-0.184-0.314-0.212-0.384c6.059-0.982,10.612-2.134,13.657-3.457l16.217,0.042
						c11.793-0.042,20.583-0.469,26.374-1.28c6.785-0.938,10.093-2.404,9.921-4.396c-0.242-2.005-3.755-3.008-10.541-3.008
						c-5.648,0-12.596-1.956-20.846-5.868l-7.746-1.836C216.825,40.258,215.147,40.336,213.781,40.336z"/>
					<path fill="#FFFFFF" d="M142.042,48.914h0.938c2.077,0.726,5.164,1.373,9.26,1.942c2.291,0.298,4.709,0.654,7.255,1.066
						l2.39,0.94c0.228,0.099,1.045,0.825,2.454,2.176c-8.821,16.288-14.247,25.079-16.28,26.374
						c-2.02,1.251-3.899-1.444-5.634-8.087c-1.75-6.714-2.489-12.141-2.219-16.282C140.663,53.644,141.274,50.934,142.042,48.914z"
						/>
					<path fill="#FFFFFF" d="M164.341,55.038l5.079,5.143c-5.164,8.066-8.215,13.136-9.154,15.215c-0.028,0-0.044,0.036-0.044,0.107
						c-0.042,0-0.064,0.022-0.064,0.064c-0.028,0.114-0.064,0.185-0.107,0.213c-0.783,1.864-2.234,5.975-4.353,12.333
						c-2.291,5.691-4.595,8.586-6.914,8.686c-2.603,0.17-4.737-2.005-6.402-6.53c-1.478-4.111-2.411-9.345-2.795-15.705
						c-0.37-6.003-0.185-11.786,0.555-17.348c0-0.071,0.022-0.127,0.064-0.171c-0.27,4.139,0.469,9.566,2.219,16.282
						c1.735,6.643,3.613,9.339,5.634,8.087C150.094,80.117,155.521,71.326,164.341,55.038z"/>
					<path fill="none" stroke="#373535" stroke-width="1.6331" stroke-miterlimit="10" d="M169.42,60.181
						c-5.164,8.066-8.215,13.136-9.154,15.215c-0.028,0-0.044,0.036-0.044,0.107c-0.042,0-0.064,0.022-0.064,0.064
						c-0.028,0.114-0.064,0.185-0.107,0.213c-0.783,1.864-2.234,5.975-4.353,12.333c-2.291,5.691-4.595,8.586-6.914,8.686
						c-2.603,0.17-4.737-2.005-6.402-6.53c-1.478-4.111-2.411-9.345-2.795-15.705c-0.37-6.003-0.185-11.786,0.555-17.348
						c0-0.071,0.022-0.127,0.064-0.171c0.455-3.4,1.066-6.11,1.836-8.129h0.938"/>
				</g>
			</g>
		</g>
	</g>
</g>
</svg>
