<?xml version="1.0" encoding="utf-8"?>
<!-- Generator: Adobe Illustrator 17.0.1, SVG Export Plug-In . SVG Version: 6.00 Build 0)  -->
<!DOCTYPE svg PUBLIC "-//W3C//DTD SVG 1.1//EN" "http://www.w3.org/Graphics/SVG/1.1/DTD/svg11.dtd">
<svg version="1.1" id="Layer_1" xmlns="http://www.w3.org/2000/svg" xmlns:xlink="http://www.w3.org/1999/xlink" x="0px" y="0px"
	 width="256.128px" height="236.003px" viewBox="1.251 9.985 256.128 236.003" enable-background="new 1.251 9.985 256.128 236.003"
	 xml:space="preserve">
<g id="Layer_3">
	<path fill="#FFFFFF" d="M255.781,80.055c1.061-0.595,0.99-2.411-0.216-2.839c0.265-1.667-2.455-2.286-3.101-0.514
		c-0.133,0.365-0.251,0.736-0.372,1.105c-0.101,0.179-0.175,0.383-0.206,0.616c-0.001,0.005-0.002,0.01-0.002,0.015
		c-0.36,1.15-0.691,2.308-1.059,3.455c-0.783-0.09-1.644,0.33-1.783,1.276c-0.136-1.17-0.337-2.335-0.66-3.491
		c-0.258-0.924-0.801-1.526-1.458-1.868c0.132-0.391,0.266-0.783,0.414-1.164c0.371-0.957,0.251-1.769-0.149-2.395v-0.003
		c-0.001-1.195-0.047-2.378-0.317-3.548c-0.083-0.357-0.251-0.618-0.466-0.801v-0.61c0-2.019-3.131-2.019-3.131,0v3.781
		c-0.486,0.165-0.932,0.455-1.305,0.856v-1.245c0-1.153-1.02-1.645-1.896-1.481c-0.068-0.602-0.138-1.205-0.248-1.806
		c-0.363-1.984-3.381-1.141-3.019,0.833c0.237,1.292,0.351,2.618,0.348,3.944c-0.076,0.32-0.129,0.642-0.19,0.963
		c-0.908,0.338-1.16,1.472-0.753,2.254c-0.861,0.271-1.612,0.917-1.958,2.028c-0.484,1.553-0.861,3.128-1.174,4.714
		c-0.094,0.278-0.148,0.57-0.171,0.873c-0.011,0.064-0.02,0.128-0.032,0.192c-0.931,0.397-1.488,1.228-1.68,2.152
		c-1.373,0.667-1.886,2.308-1.526,3.706c-0.005,0.005-0.01,0.009-0.015,0.013c-1.821,1.231-3.22,2.911-4.131,4.823
		c-14.078-1.989-28.059-3.443-42.307-4.479c-13.215-0.96-26.442-1.297-39.685-1.584c-6.528-0.141-13.067-0.053-19.592-0.279
		c-3.336-0.116-6.664-0.367-10.002-0.465c-1.886-0.056-3.774,0.033-5.659,0.089c-1.234,0.037-4.897-0.766-1.676,0.617
		c-1.569-0.673-3.189-1.131-4.795-1.338c-1.434-1.714-3.307-3.031-5.413-3.797c-0.078-0.754-0.227-1.508-0.475-2.253
		c-1.361-4.083-2.616-6.666-2.749-11.018c-0.167-5.457,0.336-10.911,0.266-16.363c-0.036-2.804-0.599-5.646-1.585-8.261
		c-0.584-1.493-1.226-2.96-1.923-4.403c0.095,0.204-1.959-4.114-1.062-1.944c-1.84-4.45-3.451-9.01-5.901-13.173
		c-5.65-9.601-16.225-14.369-26.877-15.778c-5.18-0.686-10.866,0.243-15.105,3.452C37,17.93,34.379,23.283,31.673,25.73
		c-2.59,2.342-3.738,5.707-3.627,9.057c-0.738,0.607-1.314,1.433-1.628,2.463c-1.972,0.307-2.764,2.252-2.381,3.891
		c-0.695,0.746-1.348,1.439-1.582,1.772c-0.539,0.764-0.876,2.103-1.209,2.993c0.007-0.018-0.182,0.325-0.353,0.705
		c-0.16,0.055-0.322,0.1-0.48,0.17c-4.298,1.912-8.969,5.178-11.886,9.038c-1.251,0.487-2.466,1.068-3.795,1.32
		c-1.678,0.32-2.612,2.308-2.187,3.852c0.448,1.628,1.958,2.388,3.52,2.224c0.502,0.66,1.285,1.119,2.37,1.119
		c0.677,0,1.23-0.187,1.68-0.48c1.859,0.844,4.164,0.762,5.865-0.829c0.661,0.557,1.575,0.8,2.681,0.414
		c3.794-1.325,7.885-2.634,11.434-4.515c3.325-1.763,5.498-5.071,8.884-6.76c0.638-0.318,1.054-0.751,1.305-1.234
		c0.963,0.225,1.996,0.357,3.116,0.357c1.413,0,2.695-0.199,3.859-0.551c1.553,0.8,3.39,1.281,5.518,1.32
		c0.278,0.054,0.548,0.118,0.838,0.154c0.057,0.018,0.108,0.044,0.165,0.062c1.123,1.574,2.656,2.857,4.57,3.695
		c0.34,2.08,1.151,4.062,2.41,5.723c0.273,1.519,0.787,2.986,1.558,4.305c-0.45,2.182-0.721,4.379-0.978,6.594
		c-0.066,0.569,0.043,1.585,0.082,2.511c-0.664,0.996-1.23,2.119-1.657,3.386c-0.726,2.154-1.259,4.359-1.82,6.555
		c-1.455,1.521-2.445,3.421-2.975,5.46c-1.473,2.334-2.139,5.171-1.998,7.967c-1.513,4.881-2.48,10.005-2.788,15.442
		c-0.087,1.533,0.109,2.941,0.521,4.215c0.075,2.245,0.46,4.459,1.263,6.762c0.181,1.919,0.738,3.749,1.658,5.368
		c0.1,0.448,0.226,0.895,0.397,1.337c3.103,8.035,7.798,13.863,13.578,18.434c0.78,1.879,2.011,3.596,3.605,5.011
		c0.607,1.519,1.587,2.897,2.998,4.001c1.564,1.223,2.689,2.671,3.941,4.2c1.933,2.359,4.878,4.077,7.403,5.738
		c5.124,3.372,10.738,5.763,16.499,7.825c11.361,4.067,23.642,6.965,35.524,8.989c0.488,0.084,0.976,0.154,1.464,0.228
		c0.177,1.903,0.29,3.835-0.006,5.716c-0.682,0.243-1.283,0.749-1.601,1.589c-2.685,7.098-7.743,12.549-13.165,17.646
		c-0.338-0.87-1.107-1.555-2.322-1.556c-2.051-0.002-4.094-0.053-6.136-0.124c-2.453-1.237-4.984-2.484-7.693-2.224
		c-0.147,0.014-0.27,0.063-0.397,0.105c-0.73-0.264-1.449-0.56-2.166-0.861c-0.357-0.196-0.748-0.366-1.196-0.492
		c-0.914-0.259-1.576,0.272-1.825,0.963c-0.353,0.665-0.269,1.498,0.619,1.898h0.001c0.112,0.063,0.233,0.118,0.373,0.158
		c1.524,0.431,2.013,2.134,2.238,3.87c-0.039,0.271-0.076,0.533-0.123,0.764c-0.2,0.984-0.657,1.91-1.282,2.759
		c-0.059,0.005-0.109-0.009-0.171,0.006c-2.724,0.65-4.147,3.094-6.419,4.479c-0.656,0.207-1.303,0.362-1.914,0.441
		c-1.134,0.149-1.873,0.872-2.23,1.732c-1.809,1.24-1.332,4.792,1.447,4.792c0.946,0,1.622-0.416,2.035-1.01
		c0.365,0.191,0.812,0.29,1.357,0.227c4.925-0.562,9.684-2.2,14.436-1.779c0.109,0.4,0.422,0.735,0.959,0.735
		c0.111,0,0.198-0.033,0.291-0.059c0.074,0.495,0.304,0.979,0.734,1.382c2.579,2.421,5.429,3.736,8.233,3.847
		c-0.175,0.122-0.325,0.261-0.455,0.412c-0.3-0.069-0.632-0.027-0.931,0.204c-1.695,1.31-2.484,3.389-4.175,4.697
		c-0.884,0.683,0.091,1.964,1.015,1.744c1.477-0.352,2.909-0.905,4.372-1.321c0.199,0.107,0.414,0.189,0.658,0.222
		c4.106,0.56,7.519-0.956,11.577-1.163c4.865-0.248,10.629,5.746,14.676,7.944c1.338,0.728,2.724,0.249,3.569-0.936
		c3.387-4.734,7.103-8.803,12.111-11.85c2.127-1.294,1.236-4.102-0.539-4.758c-0.418-0.423-1.02-0.682-1.821-0.626
		c-1.971,0.138-3.944,0.253-5.916,0.357c0.04-0.109,0.078-0.214,0.118-0.323c0.953-1.5,1.729-3.136,2.558-4.683
		c2.473-4.605,5.034-9.377,8.623-13.21c0.78-0.593,1.507-1.303,2.246-2.17c0.36-0.422,0.467-0.874,0.409-1.286
		c0.019-0.012,0.039-0.021,0.057-0.035c0.029-0.019,0.047-0.044,0.073-0.065c0.062,0.004,0.116,0.018,0.18,0.018
		c1.425,0,2.24-0.938,2.459-2.017c0.532-0.207,1.063-0.422,1.593-0.645c0.006-0.001,0.011-0.002,0.017-0.003
		c0-0.001-0.001-0.002-0.001-0.003c0.125-0.053,0.25-0.102,0.375-0.155c0.888-0.375,0.981-1.163,0.65-1.82
		c0.322-0.249,0.644-0.505,0.971-0.773c0.453-0.371,0.582-0.803,0.511-1.209c0.927-0.444,1.811-0.991,2.676-1.627
		c1.787-0.362,3.558-0.743,5.255-1.459c0.382-0.161,0.643-0.423,0.81-0.725c5.057,0.734,11.974,1.52,16.648-0.133
		c0.188,0.083,0.405,0.13,0.652,0.13c1.284,0,2.543-0.077,3.808-0.317c0.503-0.095,0.867-0.491,1.037-0.959
		c0.98,0.053,1.968,0.066,2.983-0.028c0.444-0.042,0.806-0.273,1.074-0.583c0.168,0.193,0.418,0.322,0.752,0.322
		c1.346,0,1.346-2.087,0-2.087c-0.147,0-0.271,0.034-0.385,0.078c-0.145-0.389-0.456-0.709-1.025-0.805
		c-0.21-0.452-0.42-0.902-0.63-1.354c0.056-0.092,0.097-0.182,0.133-0.273c2.26-0.161,4.526-0.384,6.804-0.703
		c4.266-0.597,7.264-4.204,8.5-8.27c0.258-0.046,0.517-0.152,0.758-0.352c1.776-1.464,3.944-2.265,5.923-3.402
		c0.223,0.139,0.487,0.223,0.798,0.208c1.178-0.057,1.927-0.315,2.877-0.997c0.803-0.577,1.089-1.7,0.317-2.458
		c-0.992-0.977-1.849-1.733-2.111-2.764c1.646-2.936,4.452-4.91,6.547-7.547c0.094-0.118,0.162-0.24,0.219-0.365
		c0.024-0.02,0.05-0.039,0.074-0.059c3.027-2.498,6.78-5.816,7.415-9.922c0.001-0.004,0-0.007,0.001-0.011
		c0.198-0.215,0.406-0.421,0.64-0.602c0.442-0.412,0.549-0.896,0.451-1.338c1.412-0.895,0.586-3.461-1.19-2.844
		c-0.796,0.276-1.544,0.641-2.268,1.048c0.193-0.356,0.383-0.715,0.555-1.084c1.641-3.527,1.965-7.554,2.725-10.258
		c0.818-2.912,1.709-5.76,2.273-8.738c1.381-7.286,0.954-14.351-2.993-20.511c1.332-2.019,2.158-4.245,2.472-6.697
		c0.02-0.157,0.013-0.297-0.006-0.429c0.019-0.028,0.034-0.059,0.053-0.086c0.161-0.225,0.244-0.447,0.272-0.662
		c0.745-1.229,1.461-2.475,2.076-3.774c0.186-0.392,0.198-0.77,0.106-1.109c1.588-4.036,0.769-8.495,1.152-12.727
		C256.375,80.703,256.139,80.296,255.781,80.055z M163.228,205.683c-0.24,0.456-0.47,0.915-0.699,1.375
		c-0.116,0.231-0.122,0.452-0.086,0.657c-0.651,0.928-1.276,1.88-1.853,2.873c-0.031,0.022-0.063,0.039-0.094,0.064
		c-2.192,1.842-3.36,4.284-4.831,6.593c-0.022,0-0.041-0.006-0.063-0.006c-1.352,0-2.151,0.845-2.417,1.852
		c-1.125,0.125-1.815,0.872-2.073,1.767c-3.185-0.125-6.352-0.732-9.533-0.831c0.468-0.833,0.452-1.858-0.448-2.688
		c-0.162-1.15-0.99-2.188-2.49-2.188c-0.334,0-0.627,0.063-0.895,0.157c-1.61-0.678-3.355-1.106-4.969-1.2
		c-1.101-0.064-2.087,0.158-3.06,0.569c0.666-1.151,1.418-2.24,2.419-3.161c0.674-0.621,0.881-1.342,0.791-2.021
		c2.922-3.211,5.55-6.641,7.596-10.541c0.588-0.045,1.15-0.271,1.529-0.745c0.881-1.101,1.788-2.175,2.746-3.207
		c2.598-1.166,4.776-2.969,6.967-4.786c1.006,0.237,2.02,0.444,3.042,0.625c0.167,0.571,0.515,1.082,1.029,1.478
		c0.068,0.252,0.218,0.497,0.486,0.717c2.479,2.022,4.989,3.343,7.63,4.081c0.001,0.011-0.001,0.019,0,0.031
		c0.233,2.794-0.357,5.441-0.727,8.195C163.208,205.464,163.222,205.572,163.228,205.683z"/>
</g>
<g id="Layer_1_2_">
	<g>
		<g id="Layer_1_1_">
			<g>
				<g id="Layer_1_3_">
					<g>
						<path fill="#373535" d="M53.022,22.366c0.423,0.282,0.727,0.706,0.91,1.27c0.945,2.343,0.077,4.276-2.604,5.801
							c-0.734,0.367-1.327,0.522-1.778,0.466c-0.452-0.07-0.805-0.353-1.059-0.847c-0.057-0.099-0.176-0.508-0.36-1.228
							c-0.381-2.752,0.727-4.686,3.324-5.801C52.077,21.971,52.599,22.084,53.022,22.366z"/>
						<path fill="none" stroke="#373435" stroke-width="1.5656" d="M53.022,22.366c-0.423-0.282-0.946-0.395-1.567-0.339
							c-2.597,1.115-3.705,3.049-3.324,5.801c0.183,0.72,0.303,1.129,0.36,1.228c0.254,0.494,0.607,0.777,1.059,0.847
							c0.452,0.057,1.044-0.099,1.778-0.466c2.682-1.524,3.55-3.458,2.604-5.801C53.749,23.072,53.445,22.649,53.022,22.366z"/>
						
							<path fill="none" stroke="#373435" stroke-width="1.5656" stroke-linecap="round" stroke-linejoin="round" stroke-miterlimit="3" d="
							M53.933,23.636c0.945,2.343,0.077,4.276-2.604,5.801c-0.734,0.367-1.327,0.522-1.778,0.466
							c-0.452-0.07-0.805-0.353-1.059-0.847c-0.057-0.099-0.176-0.508-0.36-1.228c-0.381-2.752,0.727-4.686,3.324-5.801
							c0.621-0.057,1.143,0.057,1.567,0.339C53.445,22.649,53.749,23.072,53.933,23.636z"/>
						
							<path fill="none" stroke="#373435" stroke-width="1.5656" stroke-linecap="round" stroke-linejoin="round" stroke-miterlimit="3" d="
							M237.458,66.147v0.741c-0.734,3.81-1.475,7.148-2.223,10.013c-0.099,0.141-0.176,0.325-0.232,0.55
							c-0.099,0.353-0.149,0.537-0.149,0.55c-1.453,4.629-3.599,9.117-6.436,13.464c-0.268,0.325-0.656,0.84-1.164,1.546
							c-0.494,0.706-0.883,1.221-1.165,1.546"/>
						
							<path fill="none" stroke="#373435" stroke-width="1.5656" stroke-linecap="round" stroke-linejoin="round" stroke-miterlimit="3" d="
							M24.887,37.715c1.58-2.061,3.394-3.422,5.44-4.086c2.23-0.79,3.889-0.578,4.975,0.635c1.087,1.242,1.574,3.465,1.461,6.669
							c-0.127,4.517,1.891,6.408,6.055,5.674c-0.17,0.381-0.424,0.959-0.762,1.735c-0.31,0.692-0.593,1.271-0.847,1.736
							c-0.338,0.494-0.832,1.193-1.482,2.096c-2.061,2.794-4.743,4.975-8.045,6.542c-4.107,2.06-8.799,3.832-14.078,5.314
							c-3.543,0.988-7.17,1.03-10.882,0.127C3.744,63.409,2.185,62.4,2.044,61.13c-0.141-1.299,1.172-2.844,3.938-4.637
							c4.347-3.034,7.847-5.589,10.5-7.663c2.907-2.456,5.215-5.293,6.923-8.51L24.887,37.715z"/>
						
							<path fill="none" stroke="#373435" stroke-width="1.5656" stroke-linecap="round" stroke-linejoin="round" stroke-miterlimit="3" d="
							M253.632,73.81c1.624,3.345,2.611,7.17,2.964,11.474v1.609c-0.353,3.937-1.171,7.974-2.455,12.11
							c-0.354,0.875-0.565,1.453-0.635,1.736c-0.65,1.524-1.066,2.491-1.25,2.9c-0.48,1.045-0.966,1.976-1.461,2.794
							c-0.861,1.609-2.223,3.585-4.086,5.928c-1.679,2.145-3.655,4.283-5.927,6.414c-1.284,1.284-2.928,2.731-4.933,4.34
							c-2.878,2.343-5.56,4.403-8.044,6.182c-0.833,0.564-2.358,1.672-4.573,3.323"/>
						
							<path fill="none" stroke="#373435" stroke-width="1.5656" stroke-linecap="round" stroke-linejoin="round" stroke-miterlimit="3" d="
							M240.041,78.256l-0.254,0.614c-0.071,0.24-0.191,0.572-0.361,0.995c-0.988,2.258-2.18,5.427-3.578,9.505"/>
						
							<path fill="none" stroke="#373435" stroke-width="1.5656" stroke-linecap="round" stroke-linejoin="round" stroke-miterlimit="3" d="
							M226.089,94.557l-0.191,0.148c-0.07,0.057-0.134,0.134-0.19,0.233l-0.361,0.487c-2.131,2.244-4.727,4.305-7.79,6.182"/>
						
							<path fill="none" stroke="#373435" stroke-width="1.5656" stroke-linecap="round" stroke-linejoin="round" stroke-miterlimit="3" d="
							M252.15,107.301c0.494,3.218,0.988,5.603,1.482,7.156c1.313,4.432,1.397,9.414,0.254,14.946
							c-0.932,4.164-2.497,8.327-4.7,12.49l-0.74,2.223c-0.127,0.297-0.558,1.299-1.292,3.007c-0.493,1.171-0.889,2.145-1.185,2.921
							c2.64-2.187,4.538-3.959,5.695-5.313c0.453,2.497,0.12,5.053-0.995,7.663c-2.229,4.46-5.278,8.25-9.145,11.369
							c-2.259,1.877-3.656,3.458-4.192,4.743c-0.565,1.326-0.24,2.385,0.974,3.175"/>
						
							<path fill="none" stroke="#373435" stroke-width="1.5656" stroke-linecap="round" stroke-linejoin="round" stroke-miterlimit="3" d="
							M246.095,90.979c-0.579,1.313-1.306,2.865-2.18,4.658c-0.523,1.044-1.32,2.625-2.392,4.742"/>
						
							<path fill="none" stroke="#373435" stroke-width="1.5656" stroke-linecap="round" stroke-linejoin="round" stroke-miterlimit="3" d="
							M226.936,181.8c-0.367,0.254-0.614,0.5-0.741,0.741"/>
						
							<path fill="none" stroke="#373435" stroke-width="1.5656" stroke-linecap="round" stroke-linejoin="round" stroke-miterlimit="3" d="
							M240.295,171.172c-0.225,0.311-0.678,0.727-1.355,1.25c-5.519,4.883-11.7,8.009-18.546,9.378
							c1.243,0.748,2.336,1.178,3.281,1.291c0.946,0.127,1.786-0.056,2.52-0.55"/>
						
							<path fill="none" stroke="#373435" stroke-width="1.5656" stroke-linecap="round" stroke-linejoin="round" stroke-miterlimit="3" d="
							M240.041,78.256c1.101-2.823,1.453-5.194,1.058-7.113c-0.381-1.891-1.475-3.267-3.281-4.128"/>
						
							<path fill="none" stroke="#373435" stroke-width="1.5656" stroke-linecap="round" stroke-linejoin="round" stroke-miterlimit="3" d="
							M102.878,88.142c-2.625-1.313-4.396-2.427-5.313-3.345c-3.5-4.121-4.947-8.856-4.34-14.205
							c0.635-4.573,0.882-9.844,0.741-15.815c-0.226-5.109-1.461-10.098-3.705-14.967c-1.834-3.755-3.895-7.833-6.181-12.237
							c-1.835-3.316-4.672-6.28-8.51-8.891c-1.637-1.016-3.084-1.842-4.34-2.477c-4.206-1.905-8.694-3.465-13.464-4.679
							c-5.123-1.27-10.028-0.945-14.714,0.974c-4.234,1.877-7.819,5.794-10.754,11.75c-0.24,0.409-0.565,1.023-0.974,1.842"/>
						
							<path fill="none" stroke="#373435" stroke-width="1.5656" stroke-linecap="round" stroke-linejoin="round" stroke-miterlimit="3" d="
							M204.072,152.034l-7.643-2.963c0.734,0.24,1.8,0.564,3.197,0.973C201.404,150.722,202.886,151.385,204.072,152.034z"/>
						
							<path fill="none" stroke="#373435" stroke-width="1.5656" stroke-linecap="round" stroke-linejoin="round" stroke-miterlimit="3" d="
							M27.851,43.028c0.042-0.085,0.176-0.24,0.402-0.466c0.268-0.254,0.466-0.466,0.593-0.635c0.692-0.254,1.079-0.198,1.164,0.169
							s-0.176,1.009-0.783,1.927c-0.805,0.113-1.313,0.099-1.525-0.043C27.491,43.84,27.54,43.522,27.851,43.028z"/>
						
							<path fill="none" stroke="#373435" stroke-width="1.5656" stroke-linecap="round" stroke-linejoin="round" stroke-miterlimit="3" d="
							M253.632,73.81c-1.666,4.418-3.394,8.574-5.186,12.469c-0.057,0-0.093,0.021-0.106,0.064l-0.021,0.064l-0.127,0.127
							c-0.409,0.988-1.108,2.47-2.096,4.446"/>
						
							<path fill="none" stroke="#373435" stroke-width="1.5656" stroke-linecap="round" stroke-linejoin="round" stroke-miterlimit="3" d="
							M24.887,37.715c2.131-4.403,4.396-8.771,6.795-13.104"/>
						
							<path fill="none" stroke="#373435" stroke-width="1.5656" stroke-linecap="round" stroke-linejoin="round" stroke-miterlimit="3" d="
							M57.023,137.808c-0.07-0.113-0.275-0.36-0.614-0.741c-2.611-3.952-4.467-7.988-5.568-12.109
							c-1.383-5.039-1.835-10.106-1.355-15.2c0.367-5.335,1.355-10.359,2.964-15.073c2.075-5.758,4.008-10.536,5.801-14.332
							c2.047-4.531,2.872-9.393,2.477-14.586c-0.353-5.222-2.618-9.096-6.796-11.622c-3.966-2.456-8.624-3.07-13.973-1.842"/>
						
							<path fill="none" stroke="#373435" stroke-width="1.5656" stroke-linecap="round" stroke-linejoin="round" stroke-miterlimit="3" d="
							M101.502,87.528c5.151,1.143,10.303,1.715,15.455,1.715c3.458-0.085,8.729-0.127,15.814-0.127
							c7.607-0.155,12.632-0.233,15.073-0.233c5.279-0.127,10.43-0.007,15.454,0.36c5.745,0.437,10.769,0.974,15.074,1.609
							c4.826,0.593,9.816,1.461,14.967,2.604c4.813,1.072,9.914,1.608,15.306,1.608c5.801,0,11.616-0.169,17.444-0.508"/>
						
							<path fill="none" stroke="#373435" stroke-width="1.5656" stroke-linecap="round" stroke-linejoin="round" stroke-miterlimit="3" d="
							M151.57,189.464c-1.327-0.254-3.923-0.663-7.791-1.228c-0.578-0.126-1.461-0.289-2.646-0.487
							c-1.2-0.211-2.089-0.381-2.667-0.508"/>
						
							<path fill="none" stroke="#373435" stroke-width="1.5656" stroke-linecap="round" stroke-linejoin="round" stroke-miterlimit="3" d="
							M125.615,208.877c0.579-0.494,0.988-0.868,1.228-1.122c0-0.056,0.007-0.092,0.021-0.106s0.049-0.021,0.106-0.021
							c2.456-2.328,4.559-4.594,6.308-6.795c1.567-2.342,2.633-4.319,3.197-5.927c0.917-2.16,1.58-4.714,1.99-7.664"/>
						
							<path fill="none" stroke="#373435" stroke-width="1.5656" stroke-linecap="round" stroke-linejoin="round" stroke-miterlimit="3" d="
							M138.465,187.241l-9.76-1.842c-3.98-0.72-8.842-1.793-14.586-3.218c-4.911-1.214-9.646-3.027-14.205-5.441
							c-6.026-3.049-10.564-5.356-13.612-6.923c-4.644-2.385-8.433-5.476-11.368-9.272c-2.894-3.768-6.224-7.594-9.992-11.474
							c-3.261-3.147-6.309-7.022-9.146-11.623"/>
						
							<path fill="none" stroke="#373435" stroke-width="1.5656" stroke-linecap="round" stroke-linejoin="round" stroke-miterlimit="3" d="
							M153.538,189.718c-0.493,0-1.15-0.085-1.968-0.254"/>
						
							<path fill="none" stroke="#373435" stroke-width="1.5656" stroke-linecap="round" stroke-linejoin="round" stroke-miterlimit="3" d="
							M151.57,189.464c-0.254,0.169-0.586,0.416-0.995,0.741c-1.496,1.185-3.148,2.752-4.955,4.7
							c-0.931,0.932-2.413,2.66-4.445,5.186c-3.204,3.91-6.126,8.236-8.765,12.977c-0.241,0.241-0.529,0.699-0.868,1.376h0.868
							c2.173-0.254,4.439-0.133,6.795,0.361c1.609,0.366,2.534,0.91,2.773,1.63c0.254,0.705-0.176,1.644-1.291,2.815"/>
						
							<path fill="none" stroke="#373435" stroke-width="1.5656" stroke-linecap="round" stroke-linejoin="round" stroke-miterlimit="3" d="
							M191.116,193.549h-0.508c-3.458-0.169-8.644-0.578-15.56-1.227c-5.59-0.536-10.86-1.158-15.814-1.863
							c-0.226-0.028-1.165-0.135-2.816-0.318c-1.143-0.126-2.103-0.268-2.879-0.423"/>
						
							<path fill="none" stroke="#373435" stroke-width="1.5656" stroke-linecap="round" stroke-linejoin="round" stroke-miterlimit="3" d="
							M163.679,197.741c-0.381-0.184-1.122-0.593-2.222-1.228c-3.275-2.103-5.914-4.368-7.919-6.795"/>
						
							<path fill="none" stroke="#373435" stroke-width="1.5656" stroke-linecap="round" stroke-linejoin="round" stroke-miterlimit="3" d="
							M246.095,90.979c0.508-1.34,0.804-2.124,0.889-2.349c0.297-0.876,0.494-1.659,0.593-2.35l0.127-0.127
							c0.903-4.601,0.818-8.962-0.255-13.083c-0.776-2.978-1.637-5.285-2.582-6.922c-1.03,2.95-2.266,6.033-3.705,9.251
							c-0.608,1.58-0.982,2.533-1.122,2.858"/>
						
							<path fill="none" stroke="#373435" stroke-width="1.5656" stroke-linecap="round" stroke-linejoin="round" stroke-miterlimit="3" d="
							M204.327,152.161c-9.061-3.472-14.206-5.412-15.434-5.822c-2.667-1.072-5.06-2.146-7.177-3.218
							c2.456-0.917,5.173-1.241,8.151-0.973c1.792,0.24,3.401,0.36,4.827,0.36h1.735c0.41-0.085,0.904-0.162,1.482-0.233
							c-2.229-1.919-4.128-3.817-5.695-5.695c-3.443-3.98-7.48-6.739-12.109-8.277c-4.036-1.242-8.694-3.218-13.972-5.928"/>
						
							<line fill="none" stroke="#373435" stroke-width="1.5656" stroke-linecap="round" stroke-linejoin="round" stroke-miterlimit="3" x1="205.449" y1="152.649" x2="205.809" y2="152.775"/>
						
							<line fill="none" stroke="#373435" stroke-width="1.5656" stroke-linecap="round" stroke-linejoin="round" stroke-miterlimit="3" x1="205.449" y1="152.649" x2="204.072" y2="152.034"/>
						
							<path fill="none" stroke="#373435" stroke-width="1.5656" stroke-linecap="round" stroke-linejoin="round" stroke-miterlimit="3" d="
							M205.449,152.649c-0.368-0.085-0.741-0.248-1.122-0.487"/>
						
							<path fill="none" stroke="#373435" stroke-width="1.5656" stroke-linecap="round" stroke-linejoin="round" stroke-miterlimit="3" d="
							M204.072,152.034c0.086,0.085,0.17,0.127,0.255,0.127"/>
						
							<path fill="none" stroke="#373435" stroke-width="1.5656" stroke-linecap="round" stroke-linejoin="round" stroke-miterlimit="3" d="
							M204.327,152.161l1.122,0.741c0.903,0.593,2.385,1.743,4.445,3.45l1.101,1.482"/>
						
							<line fill="none" stroke="#373435" stroke-width="1.5656" stroke-linecap="round" stroke-linejoin="round" stroke-miterlimit="3" x1="209.153" y1="157.349" x2="210.995" y2="157.835"/>
						
							<path fill="none" stroke="#373435" stroke-width="1.5656" stroke-linecap="round" stroke-linejoin="round" stroke-miterlimit="3" d="
							M209.767,160.185c0.339-0.113,0.749-0.896,1.228-2.35"/>
						
							<path fill="none" stroke="#373435" stroke-width="1.5656" stroke-linecap="round" stroke-linejoin="round" stroke-miterlimit="3" d="
							M111.643,105.693c-5.293-1.779-10.521-1.991-15.687-0.636c-5.349,1.383-9.675,4.107-12.977,8.172
							c-2.456,2.78-4.806,6.153-7.05,10.119c-0.028,0.098-0.106,0.275-0.233,0.529c-0.127,0.212-0.212,0.409-0.254,0.593
							c-2.202,4.77-2.984,8.807-2.349,12.109c0.085,0.297,0.191,0.734,0.317,1.313c0.113,0.578,0.212,1.009,0.297,1.291
							c11.361,23.217,31.423,35.079,60.187,35.587c14.226,0.127,28.269-0.988,42.129-3.344c9.979-1.637,19.124-4.806,27.437-9.506
							c1.82-0.833,3.387-1.658,4.7-2.477"/>
						
							<path fill="none" stroke="#373435" stroke-width="1.5656" stroke-linecap="round" stroke-linejoin="round" stroke-miterlimit="3" d="
							M215.081,191.581c0.254,0.07,0.91,0.106,1.969,0.106h0.126c0.664,0,1.2-0.036,1.609-0.106
							c-0.241,0.113-0.777,0.275-1.609,0.487c-3.655,0.959-7.198,1.495-10.627,1.608c-3.881,0.212-8.532,0.169-13.952-0.127h-1.482"
							/>
						
							<path fill="none" stroke="#373435" stroke-width="1.5656" stroke-linecap="round" stroke-linejoin="round" stroke-miterlimit="3" d="
							M191.116,193.549c-2.61,0.706-5.702,1.694-9.272,2.964l-2.096,0.741c-0.198,0.099-0.452,0.205-0.762,0.318
							c-0.55,0.197-0.833,0.296-0.847,0.296c-4.982,2.075-9.555,2.16-13.718,0.255c-0.338-0.169-0.55-0.297-0.635-0.381h-0.106"/>
						
							<path fill="none" stroke="#373435" stroke-width="1.5656" stroke-linecap="round" stroke-linejoin="round" stroke-miterlimit="3" d="
							M226.195,182.541c-2.879,2.527-6.457,4.093-10.733,4.7c-0.791,0-1.701,0.29-2.732,0.868c-0.931,0.564-1.044,1.114-0.338,1.65
							c0.734,0.537,2.286,1.017,4.658,1.44"/>
						
							<path fill="none" stroke="#373435" stroke-width="1.5656" stroke-linecap="round" stroke-linejoin="round" stroke-miterlimit="3" d="
							M121.169,231.973c-1.369-0.777-2.893-1.885-4.573-3.324c-3.147-2.653-7.148-3.563-12.003-2.731
							c-4.022,0.55-8.468,0.966-13.337,1.249c0.353-3.146,3.401-6.281,9.145-9.4c3.782-2.032,5.596-3.959,5.441-5.779
							c-0.169-1.82-2.315-3.437-6.436-4.848c1.581-0.762,3.302-1.179,5.166-1.25c1.933-0.085,3.959,0.212,6.076,0.89
							c4.629,1.27,9.618,1.968,14.967,2.096"/>
						
							<path fill="none" stroke="#373435" stroke-width="1.5656" stroke-linecap="round" stroke-linejoin="round" stroke-miterlimit="3" d="
							M179.98,198.122c-0.423,0.353-1.129,0.959-2.117,1.82c-0.847,0.734-1.496,1.277-1.947,1.63
							c-1.821,1.552-3.473,3.119-4.955,4.7c-1.806,1.806-3.331,3.536-4.572,5.187c-0.734,0.988-1.807,2.392-3.218,4.213
							c-1.962,2.851-3.529,5.321-4.7,7.41c-0.325,0.578-0.896,1.524-1.714,2.837c2.484-0.353,5.038-0.268,7.663,0.254
							c1.723,0.367,2.682,0.952,2.879,1.757c0.212,0.79-0.338,1.772-1.651,2.943c-4.488,3.966-8.44,8.164-11.855,12.596
							c-0.692,1.158-1.56,1.736-2.604,1.736c-2.54-0.367-5.674-2.054-9.4-5.06c-2.95-2.625-6.901-3.613-11.855-2.964
							c-4.954,0.777-9.4,1.228-13.338,1.356c0.099-2.061,1.623-4.248,4.573-6.563"/>
						
							<path fill="none" stroke="#373435" stroke-width="1.5656" stroke-linecap="round" stroke-linejoin="round" stroke-miterlimit="3" d="
							M150.829,220.245c0.225-0.24,0.678-0.614,1.355-1.121c2.667-2.512,4.763-4.82,6.288-6.923c1.355-1.807,2.47-3.782,3.344-5.928
							c1.115-2.427,1.737-5.187,1.863-8.278v-0.254"/>
						
							<path fill="none" stroke="#373435" stroke-width="1.5656" stroke-linecap="round" stroke-linejoin="round" stroke-miterlimit="3" d="
							M149.58,221.346c0.607-0.578,1.023-0.945,1.25-1.101"/>
						
							<path fill="none" stroke="#373435" stroke-width="1.5656" stroke-linecap="round" stroke-linejoin="round" stroke-miterlimit="3" d="
							M125.615,208.877c-0.578,0.409-1.03,0.776-1.355,1.101"/>
						
							<path fill="none" stroke="#373435" stroke-width="1.5656" stroke-linecap="round" stroke-linejoin="round" stroke-miterlimit="3" d="
							M121.169,231.973c1.397-1.101,2.879-2.047,4.446-2.837c3.839-2.103,5.681-4.029,5.526-5.78
							c-0.156-1.749-2.329-3.366-6.521-4.848c3.063-1.594,6.852-1.714,11.368-0.36c2.371,0.579,3.937,0.946,4.7,1.101"/>
						
							<path fill="none" stroke="#373435" stroke-width="1.5656" stroke-linecap="round" stroke-linejoin="round" stroke-miterlimit="3" d="
							M140.688,219.25c2.597,0.523,5.977,0.854,10.141,0.995"/>
						
							<path fill="none" stroke="#373435" stroke-width="1.5656" stroke-linecap="round" stroke-linejoin="round" stroke-miterlimit="3" d="
							M253.145,72.815c0.183,0.353,0.304,0.642,0.361,0.868l0.126,0.127"/>
					</g>
				</g>
			</g>
		</g>
	</g>
</g>
</svg>
