<?xml version="1.0" encoding="utf-8"?>
<!-- Generator: Adobe Illustrator 17.0.1, SVG Export Plug-In . SVG Version: 6.00 Build 0)  -->
<!DOCTYPE svg PUBLIC "-//W3C//DTD SVG 1.1//EN" "http://www.w3.org/Graphics/SVG/1.1/DTD/svg11.dtd">
<svg version="1.1" id="Layer_1" xmlns="http://www.w3.org/2000/svg" xmlns:xlink="http://www.w3.org/1999/xlink" x="0px" y="0px"
	 width="256.728px" height="175.756px" viewBox="1.788 33.225 256.728 175.756"
	 enable-background="new 1.788 33.225 256.728 175.756" xml:space="preserve">
<g id="Layer_1_1_">
	<g>
		<g id="Layer_1_3_">
			<g>
				<g>
					<g>
						<path fill="#FFFFFF" d="M236.493,50.736c5.197,3.892,8.643,9.121,10.338,15.687c0.99,4.218,1.446,7.968,1.37,11.251
							l0.31,13.16c0.228,0.859,0.379,1.804,0.457,2.837c0.109,0.218,0.163,0.473,0.163,0.767c0,0.108,0.049,0.337,0.147,0.684
							c0.087,0.044,0.136,0.076,0.148,0.098c0.011,0.011,0.016,0.054,0.016,0.131l-22.518-0.147v1.989h-0.685l-0.082,8.268
							c-0.022,0.054-0.163,0.358-0.424,0.913c-0.206,0.435-0.37,0.82-0.489,1.157c-0.304,0.609-0.506,0.963-0.602,1.06
							c-0.371,0.489-0.816,0.717-1.338,0.685c-0.478-0.044-1.054-0.321-1.729-0.832c-1.054-0.946-2.842-2.424-5.365-4.435
							c-0.228-0.24-0.636-0.468-1.222-0.685c-0.099,0-0.201-0.028-0.31-0.082c-1.772-0.619-4.37-0.468-7.795,0.457
							c-0.316,1.261-0.787,3.044-1.419,5.349c-0.619,2.315-1.065,4.001-1.337,5.055c-0.935,3.392-2.517,6.507-4.745,9.343
							c-2.132,2.631-3.74,4.267-4.827,4.908c1.153,6.349,0.31,12.29-2.528,17.822c-2.402,4.164-4.495,7.638-6.278,10.421
							c-0.239,0.466-0.619,1.054-1.141,1.761v0.147c0.37,0.621,0.854,1.746,1.451,3.376c2.696,5.74,4.913,11.377,6.653,16.911
							c0.935,2.771,2.137,5.065,3.604,6.881c1.685,1.837,3.316,4.495,4.892,7.975c-3.599-1.077-5.937-0.924-7.013,0.456
							c-1.076,1.381-0.907,4.007,0.506,7.877l-2.07,0.619c-0.347,0.075-0.68,0.18-0.996,0.309c-1.054-1.348-2.479-2.473-4.273-3.375
							c-3.098-1.642-5.119-1.978-6.066-1.012c-0.946,0.968-0.787,3.196,0.473,6.686c-2.142,0.218-4.185,0.087-6.132-0.391
							c-4.262-1.37-7.169-2.902-8.724-4.599c-0.597-0.521-1.054-1.283-1.37-2.281c-0.316-1.164-0.549-2.441-0.701-3.833v-0.081
							c-0.066-1.413-0.066-3.022,0-4.827c0.532-5.512-1.353-10.229-5.658-14.153c-2.218-2.152-3.289-4.294-3.212-6.424
							c-3.402,0.196-7.408,0.782-12.019,1.761c-1.152,0.163-2.761,0.494-4.826,0.995c-7.545,1.49-13.996,2.713-19.356,3.669
							c-6,1.174-12.409,1.636-19.225,1.387c-5.99-0.153-12.11-0.869-18.361-2.152h-0.082c-0.206,0.075-0.506,0.206-0.897,0.391
							c-0.424,0.206-0.761,0.358-1.012,0.457c-2.457,0.913-4.295,1.549-5.512,1.907c-5.719,1.566-11.588,2.533-17.611,2.902
							c-3.772,0-6.576-0.049-8.413-0.147c-1.228-0.152-2.147-0.277-2.756-0.375c-5.023,5.479-8.496,9.789-10.419,12.93
							c-1.947,3.13-2.326,6.55-1.141,10.257c0.424,1.445,0.364,2.593-0.18,3.441c-0.532,0.826-1.572,1.412-3.114,1.761
							c-0.804-3.686-1.968-5.55-3.489-5.593c-1.544-0.033-3.462,1.783-5.756,5.446c-1.577-0.358-2.62-0.613-3.131-0.766
							c-0.108-2.762-0.745-4.43-1.907-5.007c-1.164-0.587-2.875-0.092-5.136,1.483c-0.065-0.098-0.163-0.206-0.293-0.326
							c-0.131-0.109-0.213-0.18-0.244-0.211c-4.359-3.458-6.735-7.415-7.126-11.871c-0.293-4.49,2.793-8.317,9.262-11.48
							c3.315-1.642,5.62-3.702,6.914-6.18c1.272-2.447,1.598-5.386,0.979-8.822c-1.12-6.164-3.212-12.105-6.279-17.822
							c-1.587-3.033-2.57-6.023-2.951-8.968c-0.37-2.892-0.153-5.67,0.652-8.333c-2.968,6.447-5.11,12.131-6.424,17.056
							c-1.152,4.587-0.952,8.903,0.602,12.948c0.804,2.13,1.419,4.783,1.842,7.956c-4.142-2.956-6.131-7.956-5.968-15.001
							c0.141-6.882,1.087-12.213,2.837-15.997c1.815-4.055,2.962-7.17,3.441-9.343c1.055-3.587,1.642-5.604,1.762-6.049
							c1.522-3.664,2.619-6.675,3.294-9.034c0.457-1.555,0.734-2.653,0.832-3.294c1.294-5.098,2.929-10.1,4.909-15.002
							c2.272-5.402,5.049-10.197,8.333-14.383c4.065-5.316,7.202-9.273,9.408-11.871c3.153-3.631,6.827-6.104,11.023-7.42
							c3.794-1.457,9.404-3.853,16.829-7.19c3.544-1.718,8.038-3.278,13.485-4.681c7.066-1.87,13.214-3.397,18.442-4.582
							c5.718-1.272,12.251-2.418,19.6-3.441c6.544-1.012,12.795-1.012,18.752,0c4.728,0.597,10.517,1.359,17.367,2.282
							c3.978,0.544,7.604,1.593,10.876,3.147c-0.228,0.956-0.544,2.099-0.947,3.425c-0.075,0.261-0.452,1.467-1.125,3.62
							c-0.25,0.804-0.647,2.163-1.19,4.077c-0.577,2.055-1.049,3.68-1.42,4.875c-0.934,3.446-2.026,6.354-3.277,8.724
							c-1.294,2.272-2.467,5.663-3.522,10.175c-1.086,4.576-0.733,8.865,1.06,12.866c1.01,2.099,1.914,3.723,2.707,4.876
							c0.869,1.283,1.728,2.185,2.577,2.706c3.5-0.956,7.201-1.827,11.104-2.61c6.631-1.174,11.888-4.261,15.768-9.262
							c1.228-1.685,2.147-3.392,2.756-5.119c0.75-2.457,0.93-4.908,0.539-7.354c-0.827-5.393-2.615-10.29-5.366-14.692l-1.305-2.919
							c2.664-7.969,2.718-14.322,0.163-19.062c1.882-0.478,4.897-1.267,9.051-2.364c3.577-0.946,6.272-1.636,8.088-2.071
							c5.196-1.37,10.603-1.674,16.225-0.913c5.62,0.782,10.523,2.924,14.708,6.424c0.359,0.206,0.843,0.614,1.451,1.223
							c0.989,0.913,1.701,1.68,2.136,2.299c0.109,0.098,0.164,0.174,0.164,0.228c0.902,1.141,1.543,2.191,1.924,3.147
							C236.455,48.775,236.603,49.769,236.493,50.736z M215.442,70.549l-0.375,1.924v0.147c0,0.218,0.027,0.495,0.082,0.832
							c0.042,0.349,0.065,0.609,0.065,0.783c0,0.098,0.207,0.733,0.621,1.907h0.081l0.066,0.163
							c0.588,1.098,1.403,1.685,2.446,1.761c1.163,0.066,2.212-0.728,3.147-2.38c0.913-1.533,0.658-2.935-0.766-4.207
							c-0.794-0.663-1.381-1.108-1.762-1.337c-0.51-0.305-0.946-0.419-1.305-0.342c-0.283-0.152-0.51-0.206-0.685-0.163h-0.228
							C216.295,69.777,215.834,70.081,215.442,70.549z M217.513,100.569c0.119,0.174,0.305,0.494,0.555,0.962
							c0.228,0.435,0.428,0.777,0.602,1.027c1.195,1.566,2.038,2.626,2.528,3.18c0.576,0.674,0.956,0.989,1.141,0.946
							c0.173,0,0.408-0.179,0.7-0.538c0.197-0.239,0.55-0.724,1.06-1.451c0.153-0.25,0.332-0.554,0.539-0.913
							c0.423-0.794,0.729-1.331,0.913-1.614h0.081l-2.837-1.598c-2.348-1.729-4.288-3.517-5.822-5.365
							c-0.109-0.349-0.386-0.755-0.832-1.223c-0.109,0.5-0.163,0.881-0.163,1.141C215.98,96.689,216.492,98.504,217.513,100.569z"/>
						<path fill="#FFFFFF" d="M219.045,70.142c0.38,0.228,0.968,0.674,1.762,1.337c1.424,1.272,1.679,2.674,0.766,4.207
							c-0.935,1.652-1.984,2.446-3.147,2.38c-1.042-0.075-1.858-0.663-2.446-1.761l-0.066-0.163h-0.08
							c-0.413-1.174-0.621-1.811-0.621-1.907c0-0.174-0.022-0.435-0.065-0.783c-0.055-0.337-0.082-0.614-0.082-0.832v-0.147
							c0.5-1.717,1.392-2.609,2.674-2.674C218.1,69.723,218.535,69.837,219.045,70.142z"/>
						<path fill="#373535" d="M217.741,69.798c-1.283,0.066-2.174,0.956-2.674,2.674l0.375-1.924
							c0.392-0.466,0.854-0.771,1.387-0.913h0.228C217.23,69.592,217.458,69.647,217.741,69.798z"/>
						<path fill="#FFFFFF" d="M163.783,45.453c4.913-4.772,11.089-6.663,18.524-5.675c2.554,4.74,2.501,11.094-0.163,19.062
							l1.305,2.919c2.751,4.403,4.538,9.3,5.366,14.692c0.391,2.446,0.211,4.897-0.539,7.354c-0.609,1.728-1.528,3.434-2.756,5.119
							c-3.88,5.001-9.137,8.088-15.768,9.262c-3.903,0.783-7.604,1.652-11.104,2.61c-0.849-0.522-1.706-1.424-2.577-2.706
							c-0.794-1.153-1.697-2.778-2.707-4.876c-1.794-4.001-2.147-8.289-1.06-12.866c1.055-4.512,2.229-7.903,3.522-10.175
							c1.251-2.37,2.343-5.278,3.277-8.724c0.371-1.195,0.843-2.821,1.42-4.875c0.543-1.914,0.94-3.273,1.19-4.077
							c0.674-2.152,1.049-3.359,1.125-3.62C163.24,47.552,163.556,46.41,163.783,45.453z"/>
						<path fill="#FFFFFF" d="M165.545,197.935c-2.207,0.227-4.529,0.227-6.963,0c1.152-5.033,3.24-6.338,6.262-3.914v0.081
							C164.996,195.494,165.229,196.771,165.545,197.935z"/>
						<path fill="#FFFFFF" d="M164.844,194.022c-3.022-2.424-5.11-1.12-6.262,3.914c-0.565-0.207-1.463-0.364-2.69-0.473
							c-5.849-1.196-11.284-3.365-16.307-6.506c-4.859-2.969-5.496-5.979-1.908-9.034c3.642-3.023,5.735-6.872,6.278-11.545
							c4.61-0.979,8.615-1.566,12.019-1.761c-0.075,2.13,0.996,4.273,3.212,6.424c4.306,3.924,6.19,8.643,5.658,14.153
							C164.778,191,164.778,192.608,164.844,194.022z"/>
						<path fill="#FFFFFF" d="M74.685,177.029c0.402,2.36,0.707,4.888,0.913,7.583c0,1.891,1.403,4.137,4.207,6.735
							c1.642,1.38,2.69,2.657,3.147,3.832c-2.598-1.077-4.18-0.973-4.745,0.309c-0.565,1.284-0.082,3.702,1.451,7.256
							c-0.956,0.087-1.951,0.24-2.984,0.457c-2.523-3.163-4.691-4.68-6.506-4.549c-1.815,0.141-3.294,1.914-4.435,5.316
							c-1.489-0.077-2.821-0.174-3.995-0.293c-4.392-0.391-8.24-1.131-11.545-2.218c-1.619-0.619-2.886-1.332-3.8-2.137
							c-0.914-0.804-1.56-1.778-1.94-2.919c-0.152-0.51-0.18-1.098-0.082-1.761c0.347-1.413,0.93-2.762,1.745-4.044
							c0.826-1.272,1.853-2.424,3.081-3.458c0.543-0.63,0.619-1.832,0.228-3.603c-0.25-1.599-0.506-2.849-0.766-3.751
							c1.837,0.098,4.642,0.147,8.413,0.147C63.097,179.562,68.966,178.595,74.685,177.029z"/>
						<path fill="#FFFFFF" d="M78.207,195.488c0.565-1.283,2.147-1.387,4.745-0.309c0.588,1.021,0.843,2.092,0.767,3.211
							c0,2.305-0.973,3.681-2.919,4.126c-0.37,0-0.75,0.077-1.142,0.228C78.126,199.191,77.642,196.771,78.207,195.488z"/>
						<path fill="#FFFFFF" d="M215.98,95.122c0-0.261,0.054-0.642,0.163-1.141c0.446,0.468,0.724,0.876,0.832,1.223
							c1.532,1.848,3.474,3.636,5.822,5.365l2.837,1.598h-0.081c-0.185,0.283-0.49,0.82-0.913,1.614
							c-0.207,0.359-0.386,0.664-0.539,0.913c-0.51,0.729-0.864,1.212-1.06,1.451c-0.292,0.358-0.527,0.538-0.7,0.538
							c-0.185,0.044-0.565-0.271-1.141-0.946c-0.49-0.554-1.332-1.614-2.528-3.18c-0.174-0.25-0.375-0.593-0.602-1.027
							c-0.25-0.468-0.436-0.788-0.555-0.962C216.492,98.504,215.98,96.689,215.98,95.122z"/>
						<path fill="#FFFFFF" d="M181.296,198.521c0.947-0.967,2.968-0.63,6.066,1.012c1.794,0.902,3.217,2.026,4.273,3.375
							c-3.315,1.109-6.604,1.876-9.865,2.299C180.509,201.718,180.351,199.489,181.296,198.521z"/>
						<path fill="#FFFFFF" d="M194.699,201.979c-1.412-3.871-1.581-6.495-0.506-7.877c1.076-1.38,3.414-1.532,7.013-0.456
							C202.63,196.7,200.462,199.478,194.699,201.979z"/>
						<path fill="#FFFFFF" d="M73.152,203.74c-2.674,0.283-5.147,0.359-7.419,0.228c1.141-3.402,2.62-5.175,4.435-5.316
							c1.815-0.131,3.985,1.387,6.506,4.549C75.141,203.462,73.968,203.642,73.152,203.74z"/>
						<path fill="#FFFFFF" d="M27.559,202.208c1.523,0.044,2.685,1.907,3.489,5.593c-1,0.37-2.446,0.473-4.337,0.309
							c-1.815-0.086-3.452-0.239-4.908-0.457C24.098,203.989,26.016,202.174,27.559,202.208z"/>
						<path fill="#FFFFFF" d="M18.672,206.887c-2.479-0.75-4.826-1.924-7.045-3.522c2.261-1.576,3.974-2.07,5.136-1.483
							C17.927,202.457,18.564,204.125,18.672,206.887z"/>
						
							<path fill="none" stroke="#373535" stroke-width="1.5938" stroke-linecap="round" stroke-linejoin="round" stroke-miterlimit="3" d="
							M76.674,203.201c-2.523-3.163-4.691-4.68-6.506-4.549c-1.815,0.141-3.294,1.914-4.435,5.316"/>
						
							<path fill="none" stroke="#373535" stroke-width="1.5938" stroke-linecap="round" stroke-linejoin="round" stroke-miterlimit="3" d="
							M18.672,206.887c-0.108-2.762-0.745-4.43-1.907-5.007c-1.164-0.587-2.875-0.092-5.136,1.483"/>
						
							<path fill="none" stroke="#373535" stroke-width="1.5938" stroke-linecap="round" stroke-linejoin="round" stroke-miterlimit="3" d="
							M31.049,207.8c-0.804-3.686-1.968-5.55-3.489-5.593c-1.544-0.033-3.462,1.783-5.756,5.446"/>
						
							<path fill="none" stroke="#373535" stroke-width="1.5938" stroke-linecap="round" stroke-linejoin="round" stroke-miterlimit="3" d="
							M45.904,179.411c-5.023,5.479-8.496,9.789-10.419,12.93c-1.947,3.13-2.326,6.55-1.141,10.257
							c0.424,1.445,0.364,2.593-0.18,3.441c-0.532,0.826-1.572,1.412-3.114,1.761c-1,0.37-2.446,0.473-4.337,0.309
							c-1.815-0.086-3.452-0.239-4.908-0.457c-1.577-0.358-2.62-0.613-3.131-0.766c-2.479-0.75-4.826-1.924-7.045-3.522
							c-0.065-0.098-0.163-0.206-0.293-0.326c-0.131-0.109-0.213-0.18-0.244-0.211c-4.359-3.458-6.735-7.415-7.126-11.871
							c-0.293-4.49,2.793-8.317,9.262-11.48c3.315-1.642,5.62-3.702,6.914-6.18c1.272-2.447,1.598-5.386,0.979-8.822
							c-1.12-6.164-3.212-12.105-6.279-17.822c-1.587-3.033-2.57-6.023-2.951-8.968c-0.37-2.892-0.153-5.67,0.652-8.333
							c-2.968,6.447-5.11,12.131-6.424,17.056c-1.152,4.587-0.952,8.903,0.602,12.948c0.804,2.13,1.419,4.783,1.842,7.956
							c-4.142-2.956-6.131-7.956-5.968-15.001c0.141-6.882,1.087-12.213,2.837-15.997c1.815-4.055,2.962-7.17,3.441-9.343
							c1.055-3.587,1.642-5.604,1.762-6.049c1.522-3.664,2.619-6.675,3.294-9.034c0.457-1.555,0.734-2.653,0.832-3.294
							c1.294-5.098,2.929-10.1,4.909-15.002c2.272-5.402,5.049-10.197,8.333-14.383c4.065-5.316,7.202-9.273,9.408-11.871
							c3.153-3.631,6.827-6.104,11.023-7.42c3.794-1.457,9.404-3.853,16.829-7.19c3.544-1.718,8.038-3.278,13.485-4.681
							c7.066-1.87,13.214-3.397,18.442-4.582c5.718-1.272,12.251-2.418,19.6-3.441c6.544-1.012,12.795-1.012,18.752,0
							c4.728,0.597,10.517,1.359,17.367,2.282c3.978,0.544,7.604,1.593,10.876,3.147"/>
						
							<path fill="none" stroke="#373535" stroke-width="1.5938" stroke-linecap="round" stroke-linejoin="round" stroke-miterlimit="3" d="
							M249.441,95.351c0-0.075-0.005-0.119-0.016-0.131c-0.012-0.022-0.061-0.054-0.148-0.098c-0.098-0.347-0.147-0.576-0.147-0.684
							c0-0.293-0.054-0.549-0.163-0.767c-0.077-1.033-0.228-1.978-0.457-2.837l-0.31-13.16c0.077-3.283-0.379-7.033-1.37-11.251
							c-1.696-6.566-5.142-11.796-10.338-15.687c0.109-0.968-0.038-1.963-0.44-2.984c-0.38-0.956-1.022-2.006-1.924-3.147
							c0-0.054-0.055-0.131-0.164-0.228c-0.435-0.619-1.146-1.386-2.136-2.299"/>
						
							<path fill="none" stroke="#373535" stroke-width="1.5938" stroke-linecap="round" stroke-linejoin="round" stroke-miterlimit="3" d="
							M231.83,42.078c-0.153,0.066-0.359,0.185-0.619,0.358c-0.371,0.251-0.571,0.386-0.604,0.408"/>
						
							<path fill="none" stroke="#373535" stroke-width="1.5938" stroke-linecap="round" stroke-linejoin="round" stroke-miterlimit="3" d="
							M182.307,39.778c1.882-0.478,4.897-1.267,9.051-2.364c3.577-0.946,6.272-1.636,8.088-2.071
							c5.196-1.37,10.603-1.674,16.225-0.913c5.62,0.782,10.523,2.924,14.708,6.424c0.359,0.206,0.843,0.614,1.451,1.223"/>
						
							<path fill="none" stroke="#373535" stroke-width="1.5938" stroke-linecap="round" stroke-linejoin="round" stroke-miterlimit="3" d="
							M163.783,45.453c-0.228,0.956-0.544,2.099-0.947,3.425c-0.075,0.261-0.452,1.467-1.125,3.62
							c-0.25,0.804-0.647,2.163-1.19,4.077c-0.577,2.055-1.049,3.68-1.42,4.875c-0.934,3.446-2.026,6.354-3.277,8.724
							c-1.294,2.272-2.467,5.663-3.522,10.175c-1.086,4.576-0.733,8.865,1.06,12.866c1.01,2.099,1.914,3.723,2.707,4.876
							c0.869,1.283,1.728,2.185,2.577,2.706c3.5-0.956,7.201-1.827,11.104-2.61c6.631-1.174,11.888-4.261,15.768-9.262
							c1.228-1.685,2.147-3.392,2.756-5.119c0.75-2.457,0.93-4.908,0.539-7.354c-0.827-5.393-2.615-10.29-5.366-14.692l-1.305-2.919
							c2.664-7.969,2.718-14.322,0.163-19.062"/>
						
							<path fill="none" stroke="#373535" stroke-width="1.5938" stroke-linecap="round" stroke-linejoin="round" stroke-miterlimit="3" d="
							M163.783,45.453c4.913-4.772,11.089-6.663,18.524-5.675"/>
						
							<path fill="none" stroke="#373535" stroke-width="1.5938" stroke-linecap="round" stroke-linejoin="round" stroke-miterlimit="3" d="
							M83.327,134.699c0.609,2.566,0.25,5.017-1.076,7.354c-3.468,6.012-6.631,11.192-9.491,15.54
							c-3.13,4.621-7.289,9.138-12.474,13.551c-4.36,3.61-9.154,6.365-14.383,8.268"/>
						
							<path fill="none" stroke="#373535" stroke-width="1.5938" stroke-linecap="round" stroke-linejoin="round" stroke-miterlimit="3" d="
							M155.972,168.616c-3.402,0.196-7.408,0.782-12.019,1.761c-1.152,0.163-2.761,0.494-4.826,0.995
							c-7.545,1.49-13.996,2.713-19.356,3.669c-6,1.174-12.409,1.636-19.225,1.387c-5.99-0.153-12.11-0.869-18.361-2.152"/>
						
							<path fill="none" stroke="#373535" stroke-width="1.5938" stroke-linecap="round" stroke-linejoin="round" stroke-miterlimit="3" d="
							M161.402,160.185c-1.729,1.392-3.055,2.816-3.978,4.273c-0.891,1.403-1.375,2.789-1.451,4.159"/>
						
							<path fill="none" stroke="#373535" stroke-width="1.5938" stroke-linecap="round" stroke-linejoin="round" stroke-miterlimit="3" d="
							M164.844,194.102v-0.081c-3.022-2.424-5.11-1.12-6.262,3.914"/>
						
							<path fill="none" stroke="#373535" stroke-width="1.5938" stroke-linecap="round" stroke-linejoin="round" stroke-miterlimit="3" d="
							M184.606,158.359v0.147c0.37,0.621,0.854,1.746,1.451,3.376c2.696,5.74,4.913,11.377,6.653,16.911
							c0.935,2.771,2.137,5.065,3.604,6.881c1.685,1.837,3.316,4.495,4.892,7.975c1.424,3.054-0.745,5.831-6.507,8.333l-2.07,0.619
							c-0.347,0.075-0.68,0.18-0.996,0.309c-3.315,1.109-6.604,1.876-9.865,2.299c-2.142,0.218-4.185,0.087-6.132-0.391
							c-4.262-1.37-7.169-2.902-8.724-4.599c-0.597-0.521-1.054-1.283-1.37-2.281c-0.316-1.164-0.549-2.441-0.701-3.833"/>
						
							<path fill="none" stroke="#373535" stroke-width="1.5938" stroke-linecap="round" stroke-linejoin="round" stroke-miterlimit="3" d="
							M158.582,197.935c-0.565-0.207-1.463-0.364-2.69-0.473c-5.849-1.196-11.284-3.365-16.307-6.506
							c-4.859-2.969-5.496-5.979-1.908-9.034c3.642-3.023,5.735-6.872,6.278-11.545"/>
						
							<path fill="none" stroke="#373535" stroke-width="1.5938" stroke-linecap="round" stroke-linejoin="round" stroke-miterlimit="3" d="
							M165.545,197.935c-2.207,0.227-4.529,0.227-6.963,0"/>
						
							<path fill="none" stroke="#373535" stroke-width="1.5938" stroke-linecap="round" stroke-linejoin="round" stroke-miterlimit="3" d="
							M155.972,168.616c-0.075,2.13,0.996,4.273,3.212,6.424c4.306,3.924,6.19,8.643,5.658,14.153c-0.066,1.805-0.066,3.414,0,4.827
							"/>
						
							<path fill="none" stroke="#373535" stroke-width="1.5938" stroke-linecap="round" stroke-linejoin="round" stroke-miterlimit="3" d="
							M82.186,174.275h-0.082c-0.206,0.075-0.506,0.206-0.897,0.391c-0.424,0.206-0.761,0.358-1.012,0.457
							c-2.457,0.913-4.295,1.549-5.512,1.907"/>
						
							<path fill="none" stroke="#373535" stroke-width="1.5938" stroke-linecap="round" stroke-linejoin="round" stroke-miterlimit="3" d="
							M74.685,177.029c0.402,2.36,0.707,4.888,0.913,7.583c0,1.891,1.403,4.137,4.207,6.735c1.642,1.38,2.69,2.657,3.147,3.832
							c0.588,1.021,0.843,2.092,0.767,3.211c0,2.305-0.973,3.681-2.919,4.126c-0.37,0-0.75,0.077-1.142,0.228
							c-0.956,0.087-1.951,0.24-2.984,0.457c-1.533,0.261-2.706,0.441-3.522,0.539c-2.674,0.283-5.147,0.359-7.419,0.228
							c-1.489-0.077-2.821-0.174-3.995-0.293c-4.392-0.391-8.24-1.131-11.545-2.218c-1.619-0.619-2.886-1.332-3.8-2.137
							c-0.914-0.804-1.56-1.778-1.94-2.919c-0.152-0.51-0.18-1.098-0.082-1.761c0.347-1.413,0.93-2.762,1.745-4.044
							c0.826-1.272,1.853-2.424,3.081-3.458c0.543-0.63,0.619-1.832,0.228-3.603c-0.25-1.599-0.506-2.849-0.766-3.751"/>
						
							<path fill="none" stroke="#373535" stroke-width="1.5938" stroke-linecap="round" stroke-linejoin="round" stroke-miterlimit="3" d="
							M82.952,195.179c-2.598-1.077-4.18-0.973-4.745,0.309c-0.565,1.284-0.082,3.702,1.451,7.256"/>
						
							<path fill="none" stroke="#373535" stroke-width="1.5938" stroke-linecap="round" stroke-linejoin="round" stroke-miterlimit="3" d="
							M98.493,165.404c-4.817,3.434-10.252,6.392-16.307,8.871"/>
						
							<path fill="none" stroke="#373535" stroke-width="1.5938" stroke-linecap="round" stroke-linejoin="round" stroke-miterlimit="3" d="
							M192.63,119.615c0.413,2.043,1.054,4.958,1.924,8.741"/>
						
							<path fill="none" stroke="#373535" stroke-width="1.5938" stroke-linecap="round" stroke-linejoin="round" stroke-miterlimit="3" d="
							M211.235,95.286c0.316-0.63,0.571-1.017,0.767-1.158c0.738-0.652,1.685-0.907,2.837-0.766c0.619,0.163,1.054,0.37,1.305,0.619
							"/>
						
							<path fill="none" stroke="#373535" stroke-width="1.5938" stroke-linecap="round" stroke-linejoin="round" stroke-miterlimit="3" d="
							M226.156,105.461c-0.022,0.054-0.163,0.358-0.424,0.913c-0.206,0.435-0.37,0.82-0.489,1.157
							c-0.304,0.609-0.506,0.963-0.602,1.06c-0.371,0.489-0.816,0.717-1.338,0.685c-0.478-0.044-1.054-0.321-1.729-0.832
							c-1.054-0.946-2.842-2.424-5.365-4.435c-0.228-0.24-0.636-0.468-1.222-0.685c-0.099,0-0.201-0.028-0.31-0.082
							c-1.772-0.619-4.37-0.468-7.795,0.457c-0.316,1.261-0.787,3.044-1.419,5.349c-0.619,2.315-1.065,4.001-1.337,5.055
							c-0.935,3.392-2.517,6.507-4.745,9.343c-2.132,2.631-3.74,4.267-4.827,4.908"/>
						
							<path fill="none" stroke="#373535" stroke-width="1.5938" stroke-linecap="round" stroke-linejoin="round" stroke-miterlimit="3" d="
							M215.834,76.142c-0.413-1.174-0.621-1.811-0.621-1.907c0-0.174-0.022-0.435-0.065-0.783c-0.055-0.337-0.082-0.614-0.082-0.832
							"/>
						
							<path fill="none" stroke="#373535" stroke-width="1.5938" stroke-linecap="round" stroke-linejoin="round" stroke-miterlimit="3" d="
							M217.741,69.798c0.359-0.077,0.794,0.038,1.305,0.342c0.38,0.228,0.968,0.674,1.762,1.337
							c1.424,1.272,1.679,2.674,0.766,4.207c-0.935,1.652-1.984,2.446-3.147,2.38c-1.042-0.075-1.858-0.663-2.446-1.761"/>
						
							<line fill="none" stroke="#373535" stroke-width="1.5938" stroke-linecap="round" stroke-linejoin="round" stroke-miterlimit="3" x1="215.98" y1="76.305" x2="215.915" y2="76.142"/>
						
							<path fill="none" stroke="#373535" stroke-width="1.5938" stroke-linecap="round" stroke-linejoin="round" stroke-miterlimit="3" d="
							M215.067,72.473c0.5-1.717,1.392-2.609,2.674-2.674"/>
						
							<path fill="none" stroke="#373535" stroke-width="1.5938" stroke-linecap="round" stroke-linejoin="round" stroke-miterlimit="3" d="
							M216.143,93.981c-0.109,0.5-0.163,0.881-0.163,1.141c0,1.566,0.511,3.381,1.532,5.447c0.119,0.174,0.305,0.494,0.555,0.962
							c0.228,0.435,0.428,0.777,0.602,1.027c1.195,1.566,2.038,2.626,2.528,3.18c0.576,0.674,0.956,0.989,1.141,0.946
							c0.173,0,0.408-0.179,0.7-0.538c0.197-0.239,0.55-0.724,1.06-1.451c0.153-0.25,0.332-0.554,0.539-0.913
							c0.423-0.794,0.729-1.331,0.913-1.614h0.081"/>
						
							<path fill="none" stroke="#373535" stroke-width="1.5938" stroke-linecap="round" stroke-linejoin="round" stroke-miterlimit="3" d="
							M225.633,102.167l-2.788-1.696c-1.185-0.859-2.186-1.642-3.001-2.348c-1.076-0.935-2.033-1.907-2.869-2.919
							c-0.109-0.349-0.386-0.755-0.832-1.223"/>
						
							<line fill="none" stroke="#373535" stroke-width="1.5938" stroke-linecap="round" stroke-linejoin="round" stroke-miterlimit="3" x1="225.633" y1="102.167" x2="226.237" y2="102.558"/>
						
							<path fill="none" stroke="#373535" stroke-width="1.5938" stroke-linecap="round" stroke-linejoin="round" stroke-miterlimit="3" d="
							M177.399,124.442c0.86,3.327,2.239,7.718,4.142,13.176c1.977,4.969,2.767,9.175,2.364,12.621
							c-0.163,1.772-0.2,3.266-0.113,4.485c0.108,1.402,0.379,2.614,0.815,3.636"/>
						
							<path fill="none" stroke="#373535" stroke-width="1.5938" stroke-linecap="round" stroke-linejoin="round" stroke-miterlimit="3" d="
							M194.553,128.355c1.153,6.349,0.31,12.29-2.528,17.822c-2.402,4.164-4.495,7.638-6.278,10.421
							c-0.239,0.466-0.619,1.054-1.141,1.761"/>
						
							<path fill="none" stroke="#373535" stroke-width="1.5938" stroke-linecap="round" stroke-linejoin="round" stroke-miterlimit="3" d="
							M191.634,202.908c-1.054-1.348-2.479-2.473-4.273-3.375c-3.098-1.642-5.119-1.978-6.066-1.012
							c-0.946,0.968-0.787,3.196,0.473,6.686"/>
						
							<path fill="none" stroke="#373535" stroke-width="1.5938" stroke-linecap="round" stroke-linejoin="round" stroke-miterlimit="3" d="
							M201.207,193.646c-3.599-1.077-5.937-0.924-7.013,0.456c-1.076,1.381-0.907,4.007,0.506,7.877"/>
						
							<path fill="none" stroke="#373535" stroke-width="1.5938" stroke-linecap="round" stroke-linejoin="round" stroke-miterlimit="3" d="
							M48.66,179.785c1.837,0.098,4.642,0.147,8.413,0.147c6.023-0.37,11.892-1.337,17.611-2.902"/>
						
							<path fill="none" stroke="#373535" stroke-width="1.5938" stroke-linecap="round" stroke-linejoin="round" stroke-miterlimit="3" d="
							M48.66,179.785c-1.228-0.152-2.147-0.277-2.756-0.375"/>
						
							<path fill="none" stroke="#373535" stroke-width="1.5938" stroke-linecap="round" stroke-linejoin="round" stroke-miterlimit="3" d="
							M233.672,41.083c-0.521,0.196-0.848,0.321-0.979,0.375c-0.379,0.185-0.668,0.392-0.863,0.619"/>
						
							<path fill="none" stroke="#373535" stroke-width="1.5938" stroke-linecap="round" stroke-linejoin="round" stroke-miterlimit="3" d="
							M237.26,43.839c-1.174-0.152-2.273,0.028-3.295,0.538"/>
					</g>
					<g>
						<path fill="#FFFFFF" d="M250.664,100.569c2.294,5.414,4.386,11.665,6.278,18.752c1.413,5.11,0.903,10.056-1.532,14.84
							c-1.436,3.12-3.425,5.571-5.968,7.354c-4.01,2.826-8.044,4.207-12.099,4.141c-4.044-0.065-8.153-1.576-12.328-4.533
							c-1.827-1.185-3.614-3.147-5.365-5.887c-4.457-7.218-4.278-14.54,0.539-21.965l1.157-0.685l2.902,2.137
							c3.11-1.587,5.257-2.402,6.441-2.446c1.152-0.044,1.305,0.668,0.457,2.136c-0.359,0.837-0.82,1.706-1.387,2.61
							c-1.436,2.239-2.506,4.381-3.212,6.424c-1.066,2.697-1.141,5.028-0.228,6.996c0.903,1.934,2.739,3.483,5.513,4.647
							c6.729,2.816,11.17,0.826,13.322-5.967c0.804-2.61,0.935-5.001,0.391-7.174c-0.544-2.163-1.772-4.163-3.686-6
							c-4.826-4.457-11.028-9.561-18.605-15.312c-0.359-0.305-0.86-0.685-1.5-1.141c-1.164-0.816-1.783-1.251-1.858-1.305
							l6.343-0.995h0.685v-1.989l22.518,0.147c0.077,0.664,0.23,1.327,0.458,1.99v0.082c0.042,0.141,0.098,0.429,0.163,0.864
							c0.054,0.402,0.124,0.728,0.211,0.978c0.032,0.109,0.092,0.337,0.18,0.685C250.506,100.21,250.576,100.417,250.664,100.569z"
							/>
						
							<path fill="none" stroke="#373535" stroke-width="1.5938" stroke-linecap="round" stroke-linejoin="round" stroke-miterlimit="3" d="
							M219.584,88.241c0.272,1.609,0.131,2.881-0.424,3.816c-0.564,0.946-1.57,1.587-3.017,1.924"/>
						
							<path fill="none" stroke="#373535" stroke-width="1.5938" stroke-linecap="round" stroke-linejoin="round" stroke-miterlimit="3" d="
							M249.441,95.351c0.077,0.664,0.23,1.327,0.458,1.99v0.082c0.042,0.141,0.098,0.429,0.163,0.864
							c0.054,0.402,0.124,0.728,0.211,0.978c0.032,0.109,0.092,0.337,0.18,0.685c0.054,0.261,0.124,0.468,0.211,0.619
							c2.294,5.414,4.386,11.665,6.278,18.752c1.413,5.11,0.903,10.056-1.532,14.84c-1.436,3.12-3.425,5.571-5.968,7.354
							c-4.01,2.826-8.044,4.207-12.099,4.141c-4.044-0.065-8.153-1.576-12.328-4.533c-1.827-1.185-3.614-3.147-5.365-5.887
							c-4.457-7.218-4.278-14.54,0.539-21.965l1.157-0.685l2.902,2.137c3.11-1.587,5.257-2.402,6.441-2.446
							c1.152-0.044,1.305,0.668,0.457,2.136c-0.359,0.837-0.82,1.706-1.387,2.61c-1.436,2.239-2.506,4.381-3.212,6.424
							c-1.066,2.697-1.141,5.028-0.228,6.996c0.903,1.934,2.739,3.483,5.513,4.647c6.729,2.816,11.17,0.826,13.322-5.967
							c0.804-2.61,0.935-5.001,0.391-7.174c-0.544-2.163-1.772-4.163-3.686-6c-4.826-4.457-11.028-9.561-18.605-15.312
							c-0.359-0.305-0.86-0.685-1.5-1.141c-1.164-0.816-1.783-1.251-1.858-1.305"/>
					</g>
					<g>
						<g>
							<g>
								<g>
									<path fill="#FFFFFF" d="M216.436,73.158c0.272-0.468,0.761-0.799,1.467-0.995c0.621-0.087,1.202,0.066,1.746,0.457
										c0.532,0.305,0.843,0.816,0.93,1.532c0.141,0.588,0.011,1.148-0.391,1.68c-0.371,0.532-0.876,0.843-1.517,0.93
										c-0.565,0.152-1.13,0.022-1.696-0.391c-0.5-0.349-0.832-0.832-0.996-1.451C215.915,74.267,216.068,73.68,216.436,73.158z"
										/>
									<path fill="none" stroke="#373535" stroke-width="1.5938" d="M216.436,73.158c0.272-0.468,0.761-0.799,1.467-0.995
										c0.621-0.087,1.202,0.066,1.746,0.457c0.532,0.305,0.843,0.816,0.93,1.532c0.141,0.588,0.011,1.148-0.391,1.68
										c-0.371,0.532-0.876,0.843-1.517,0.93c-0.565,0.152-1.13,0.022-1.696-0.391c-0.5-0.349-0.832-0.832-0.996-1.451
										C215.915,74.267,216.068,73.68,216.436,73.158z"/>
								</g>
							</g>
							<g>
								<g>
									<path fill="#373535" d="M217.138,73.696c0.185-0.315,0.515-0.522,0.995-0.619c0.392-0.066,0.724,0.038,0.996,0.31
										c0.316,0.141,0.516,0.424,0.602,0.848c0.087,0.424-0.016,0.782-0.309,1.076c-0.119,0.305-0.424,0.506-0.913,0.604
										c-0.347,0.075-0.68,0-0.996-0.228c-0.326-0.206-0.527-0.511-0.602-0.913C216.822,74.37,216.898,74.012,217.138,73.696z"/>
								</g>
							</g>
							<g>
								<g>
									<path fill="#FFFFFF" d="M216.975,73.386c0-0.108,0.131-0.211,0.391-0.31c0.217-0.098,0.396-0.147,0.538-0.147
										c0.022,0.033,0.071,0.077,0.148,0.131c0.054,0.054,0.081,0.114,0.081,0.179c0,0.011-0.075,0.136-0.228,0.375
										c0,0.109-0.13,0.213-0.391,0.31c-0.173,0.098-0.353,0.147-0.538,0.147c-0.055-0.044-0.099-0.082-0.131-0.114
										c-0.066-0.054-0.098-0.114-0.098-0.18C216.747,73.756,216.822,73.625,216.975,73.386z"/>
								</g>
							</g>
							<g>
								<g>
									<path fill="#FFFFFF" d="M219.273,75.147c0.25,0.087,0.376,0.218,0.376,0.391c0,0.152-0.075,0.305-0.228,0.457l-0.424,0.213
										c-0.163,0.065-0.326,0.098-0.489,0.098c-0.337,0.054-0.642,0.054-0.913,0c-0.141-0.054-0.272-0.185-0.391-0.391
										c-0.055-0.131,0.049-0.283,0.309-0.457c0.153-0.098,0.435-0.201,0.848-0.31l0.49-0.033
										C219.045,75.104,219.187,75.114,219.273,75.147z"/>
								</g>
							</g>
							<g>
								<g>
									<path fill="#FFFFFF" d="M219.421,74.071c-0.044-0.054-0.082-0.103-0.114-0.147c-0.054-0.075-0.114-0.124-0.18-0.147
										c-0.109-0.206-0.185-0.337-0.228-0.391c0-0.054,0.049-0.131,0.147-0.228c0.055-0.054,0.18-0.027,0.376,0.082
										c0.054,0.044,0.157,0.12,0.309,0.228c0.109,0.196,0.164,0.3,0.164,0.31c0,0.197-0.028,0.293-0.082,0.293
										c-0.032,0.033-0.082,0.044-0.147,0.033C219.557,74.082,219.475,74.071,219.421,74.071z"/>
								</g>
							</g>
						</g>
						<g>
							<g>
								<path fill="#FFFFFF" d="M218.817,67.647c2.956,0.228,4.054,2.653,3.294,7.273c-0.38-1.5-1.528-2.75-3.441-3.751
									c-2.968-0.979-4.451-1.821-4.451-2.528c0-0.347,0.386-0.609,1.158-0.782C216.17,67.673,217.317,67.602,218.817,67.647z"/>
								
									<path fill="none" stroke="#373535" stroke-width="1.5938" stroke-linecap="round" stroke-linejoin="round" stroke-miterlimit="3" d="
									M214.219,68.641c0,0.707,1.483,1.549,4.451,2.528c1.914,1,3.06,2.251,3.441,3.751c0.761-4.62-0.337-7.045-3.294-7.273
									c-1.5-0.044-2.648,0.027-3.441,0.213C214.605,68.032,214.219,68.293,214.219,68.641z"/>
							</g>
						</g>
					</g>
				</g>
			</g>
		</g>
	</g>
</g>
</svg>
