<?xml version="1.0" encoding="utf-8"?>
<!-- Generator: Adobe Illustrator 17.0.1, SVG Export Plug-In . SVG Version: 6.00 Build 0)  -->
<!DOCTYPE svg PUBLIC "-//W3C//DTD SVG 1.1//EN" "http://www.w3.org/Graphics/SVG/1.1/DTD/svg11.dtd">
<svg version="1.1" id="Layer_1" xmlns="http://www.w3.org/2000/svg" xmlns:xlink="http://www.w3.org/1999/xlink" x="0px" y="0px"
	 width="260.92px" height="129.951px" viewBox="0.413 62.215 260.92 129.951" enable-background="new 0.413 62.215 260.92 129.951"
	 xml:space="preserve">
<g id="Layer_3">
	<path fill="#FFFFFF" d="M258.616,152.542c-0.213-1.139-0.596-2.239-1.168-3.232c0.004-0.118-0.012-0.237-0.011-0.356
		c0.04-0.544,0.039-1.092,0-1.636c0.169-2.309-0.377-4.676-1.628-6.586c-0.501-2.179-1.658-4.179-3.497-5.522
		c-0.713-2.173-2.125-4.086-4.243-5.221c-0.49-1.704-1.525-3.378-2.889-4.478c-1.699-1.373-3.335-2.382-5.38-2.722
		c-0.405-0.321-1.197-0.936-1.506-1.229c-0.076-0.072-0.142-0.154-0.216-0.228c-0.014-0.026-0.029-0.052-0.042-0.079
		c-0.726-1.46-1.855-2.59-3.194-3.385c-1.866-4.908-5.965-7.247-11.219-9.447c-1.851-2.063-2.663-5.128-4.719-7.021
		c-1.369-1.26-3.199-2.365-5.097-3.418c-1.841-3.946-6.09-6.084-10.095-7.562c-1.801-1.875-4.018-2.757-6.257-2.88
		c-0.594-0.398-1.231-0.728-1.903-0.98c-0.55-2.64-2.231-5.047-4.628-6.731c-8.31-5.838-19.66-6.846-30.256-5.791
		c-0.321-0.39-0.674-0.76-1.09-1.082c-4.234-3.279-10.003-5.689-15.035-2.168c-3.138,2.194-6.422,1.953-10.237,2.105
		c-8.162,0.328-16.33,0.415-24.498,0.441c-5.405-3.885-12.929-4.446-19.348-4.338c-7.744,0.13-16.325,1.376-22.453,6.461
		c-3.954,3.281-5.474,7.546-5.866,12.526c-0.104,1.326-0.014,2.679-0.03,4.016c-0.552,0.455-1.125,0.687-1.854,1.118
		c-2.919,1.724-6.614,3.81-10.338,5.023c-0.322-0.057-0.649-0.107-0.988-0.14c-3.979-0.381-7.874-0.583-11.764-1.548
		c-3.738-0.928-6.376-2.582-9.75-4.341c-8.306-4.33-18.254-0.064-20.979,8.815c-0.852,2.777-1.097,5.739-1.197,8.632
		c-0.049,1.405-0.014,2.815-0.011,4.222c0,0.427-0.36,3.985-0.01,1.911c-1.255,7.454-2.374,17.08,2.514,23.531
		c3.057,4.035,8.529,6.698,13.342,3.499c1.634-1.087,3.081-2.206,4.291-3.743c0.169-0.213,0.438-0.634,0.748-1.117
		c2.579-1.122,4.807-2.743,7.608-2.75c6.381-0.016,12.969-1.684,19.344-2.295c0.558,0.68,1.233,1.3,2.027,1.844
		c0.211,0.302,0.43,0.589,0.658,0.857c-0.75,0.816-1.442,1.722-2.086,2.809c-3.02,5.096-2.783,13.843,1.876,17.987
		c3.61,3.21,7.679,4.319,12.445,4.239c0.788-0.013,1.576-0.067,2.363-0.132c1.525,1.306,3.588,2.187,6.213,2.325
		c5.232,0.276,11.187,0.243,16.213-1.34c1.275-0.455,2.499-1.021,3.669-1.696c0.393-0.254,0.787-0.507,1.18-0.76
		c1.959,0.724,3.878,1.566,6.075,1.405c2.679-0.197,5.493-0.483,7.856-1.919c0.805-0.458,1.551-1.003,2.259-1.599
		c0.12,0.08,0.231,0.166,0.358,0.245c5.611,3.454,13.526,5.425,19.987,6.574c3.621,0.644,7.308,0.754,10.947,1.226
		c-0.856,1.064-1.864,2.078-2.619,2.997c-2.095,2.549-3.863,4.818-5.075,7.891c-1.697,4.303,1.23,9.051,4.673,11.348
		c0.825,0.55,1.809,0.911,2.826,1.123c2.415,2.423,6.06,3.516,9.553,2.603c9.459-2.474,17.258-6.527,22.312-14.473
		c1.285,0.661,2.821,1.041,4.624,1.007c11.633-0.228,23.015,3.38,34.698,1.922c6.033-0.753,12.182-2.585,17.718-5.113
		c2.001-0.915,3.482-2.643,5.538-3.336c2.562-0.863,4.918-1.533,7.106-3.202c0.908-0.692,1.715-1.477,2.407-2.325
		c1.833-0.306,3.544-0.952,4.964-1.948c1.989-1,3.375-2.673,4.176-4.612C260.199,157.536,260.403,154.169,258.616,152.542z"/>
</g>
<g id="Layer_1_2_">
	<g>
		<g id="Layer_1_1_">
			<g>
				<g id="Layer_1_3_">
					<g>
						<g>
							<g>
								<path fill="#373535" d="M145.848,82.276c-1.568,3.215-2.352,5.875-2.352,7.981c0,2.98,0.465,5.73,1.395,8.249
									c0.157,0.426,0.493,1.227,1.008,2.402c0.952,1.904,2.711,4.189,5.276,6.855c2.609,2.778,4.368,4.935,5.276,6.469
									c1.545,2.733,2.319,5.852,2.319,9.359v1.008h-1.949c0-1.68-0.89-3.685-2.672-6.015c-3.047-3.954-4.962-6.453-5.746-7.494
									c-2.218-3.058-4.009-5.987-5.377-8.787v-0.101c-0.179-0.325-0.375-0.756-0.587-1.294c-0.281-0.717-0.454-1.149-0.521-1.294
									c-1.131-3.013-1.747-6.01-1.848-8.989c0-0.122,1.338-2.257,4.016-6.401c2.238-3.475,3.54-5.538,3.905-6.192l0.362-0.076
									C147.994,78.149,147.158,79.588,145.848,82.276z M174.512,77.387c-0.93-0.974-1.686-1.663-2.269-2.066
									c-0.65-0.449-1.221-0.65-1.713-0.605c-0.705,0-1.445,0.246-2.218,0.739c-0.728,0.548-1.165,0.824-1.311,0.824
									c-2.363-1.377-4.088-2.022-5.174-1.932c-0.583,0-1.26,0.247-2.033,0.739c-0.729,0.549-1.473,0.824-2.234,0.824
									c-4.111,0-7.197,0.65-9.258,1.949c-0.089,0-0.179,0.034-0.269,0.101c0.044-0.085,0.067-0.135,0.067-0.151
									c-1.759-0.146-2.84-0.242-3.243-0.286c-0.471-0.046-1.053-0.163-1.747-0.353c1.188-2.71,2.979-5.69,5.377-8.938
									c0.044,0,0.128-0.034,0.251-0.101l0.32-0.184c2.811-1.714,5.09-2.851,6.838-3.41c3.069-0.997,7.146-1.495,12.231-1.495
									c6.34-0.078,11.398,1.159,15.172,3.713c4.447,2.934,7.903,8.396,10.367,16.382l1.024,2.134c-0.157,0,0,0.274,0.471,0.824
									c-1.087-0.829-1.859-1.473-2.32-1.932c-0.615-0.627-0.985-1.03-1.107-1.21c-2.084-2.162-3.72-3.243-4.906-3.243
									c-0.448,0-0.755,0.124-0.924,0.369c-0.381,0.247-0.689,0.37-0.924,0.37c-0.281,0-0.566-0.062-0.857-0.185
									c-0.291-0.112-0.532-0.263-0.723-0.453c-0.078-0.078-0.42-0.576-1.025-1.495c-1.086-1.479-2.564-2.218-4.435-2.218
									c-0.65,0-1.333,0.246-2.05,0.739c-0.314,0.202-0.627,0.353-0.942,0.453C174.747,77.353,174.602,77.387,174.512,77.387z
									 M147.932,78.042c-0.505,0.281-1.009,0.297-1.513,0.051C145.927,77.858,146.43,77.84,147.932,78.042z"/>
								<path fill="none" stroke="#373535" stroke-width="1.6254" stroke-miterlimit="10" d="M174.512,77.387
									c0.089,0,0.235-0.034,0.436-0.101c0.314-0.101,0.627-0.251,0.942-0.453c0.716-0.493,1.4-0.739,2.05-0.739
									c1.871,0,3.349,0.739,4.435,2.218c0.606,0.919,0.947,1.417,1.025,1.495c0.191,0.191,0.431,0.341,0.723,0.453
									c0.291,0.124,0.576,0.185,0.857,0.185c0.235,0,0.543-0.124,0.924-0.369c0.168-0.247,0.476-0.37,0.924-0.37
									c1.188,0,2.823,1.081,4.906,3.243c0.122,0.18,0.492,0.583,1.107,1.21c0.461,0.459,1.233,1.103,2.32,1.932
									c-0.471-0.548-0.627-0.824-0.471-0.824l-1.024-2.134c-2.464-7.986-5.921-13.447-10.367-16.382
									c-3.774-2.554-8.832-3.791-15.172-3.713c-5.085,0-9.163,0.498-12.231,1.495c-1.748,0.56-4.028,1.697-6.838,3.41l-0.32,0.184
									c-0.124,0.067-0.207,0.101-0.251,0.101c-2.398,3.249-4.189,6.228-5.377,8.938c0.695,0.191,1.276,0.308,1.747,0.353
									c0.403,0.044,1.484,0.14,3.243,0.286c0,0.016-0.023,0.066-0.067,0.151c0.09-0.067,0.18-0.101,0.269-0.101
									c2.061-1.299,5.147-1.949,9.258-1.949c0.762,0,1.506-0.274,2.234-0.824c0.773-0.493,1.45-0.739,2.033-0.739
									c1.086-0.09,2.812,0.555,5.174,1.932c0.146,0,0.583-0.274,1.311-0.824c0.773-0.493,1.513-0.739,2.218-0.739
									c0.492-0.046,1.063,0.157,1.713,0.605C172.827,75.723,173.582,76.412,174.512,77.387z M145.848,82.276
									c1.31-2.688,2.144-4.127,2.504-4.318l-0.362,0.076c-0.366,0.653-1.668,2.717-3.905,6.192
									c-2.678,4.145-4.016,6.278-4.016,6.401c0.101,2.98,0.716,5.976,1.848,8.989c0.067,0.145,0.242,0.576,0.521,1.294
									c0.212,0.537,0.409,0.969,0.587,1.294v0.101c1.367,2.8,3.159,5.73,5.377,8.787c0.785,1.041,2.699,3.54,5.746,7.494
									c1.782,2.33,2.672,4.334,2.672,6.015h1.949v-1.008c0-3.506-0.774-6.626-2.319-9.359c-0.908-1.534-2.667-3.691-5.276-6.469
									c-2.565-2.666-4.323-4.951-5.276-6.855c-0.515-1.176-0.851-1.976-1.008-2.402c-0.93-2.52-1.395-5.271-1.395-8.249
									C143.496,88.152,144.28,85.491,145.848,82.276z M147.932,78.042c0.034-0.034,0.067-0.062,0.101-0.085
									c-0.012,0.022-0.025,0.047-0.042,0.076L147.932,78.042c-0.505,0.281-1.009,0.297-1.513,0.051
									C145.927,77.858,146.43,77.84,147.932,78.042z"/>
								<path fill="#373535" d="M224.498,108.218c0.291,0.191,0.695,0.286,1.209,0.286c-1.188,0.695-6.216,3.809-15.089,9.342
									c-7.818,4.94-13.435,13.486-16.852,25.64c-3.517,12.085,1.08,23.505,13.793,34.258h-0.101
									c-8.691-4.021-14.153-8.682-16.382-13.979c-5.062-12.433-3.797-24.53,3.798-36.291c0.391-0.493,1.193-1.354,2.402-2.588
									c6.699-7.259,14.629-12.35,23.791-15.273l2.957-2.033C224.027,107.792,224.183,108.005,224.498,108.218z"/>
								<path fill="none" stroke="#373535" stroke-width="1.6254" stroke-miterlimit="10" d="M224.498,108.218
									c-0.314-0.212-0.471-0.426-0.471-0.638l-2.957,2.033c-9.162,2.923-17.092,8.014-23.791,15.273
									c-1.209,1.232-2.01,2.095-2.402,2.588c-7.595,11.761-8.86,23.859-3.798,36.291c2.23,5.299,7.69,9.958,16.382,13.979h0.101
									c-12.713-10.753-17.311-22.173-13.793-34.258c3.415-12.153,9.034-20.7,16.852-25.64c8.872-5.533,13.901-8.647,15.089-9.342
									C225.192,108.503,224.789,108.408,224.498,108.218z"/>
								<path fill="#373535" d="M229.286,134.849c0.391-0.258,0.588-0.544,0.588-0.857c-0.046-0.403-0.286-0.874-0.723-1.412
									c-0.325-0.392-0.639-0.705-0.941-0.941c0.66-0.124,1.181-0.185,1.561-0.185c3.126,0,5.41,0.774,6.855,2.319
									c1.053,1.143,1.58,2.374,1.58,3.696c0,0.561-0.152,1.104-0.454,1.631c-0.301,0.526-0.711,0.973-1.227,1.344
									c-1.087,0.84-2.722,1.361-4.905,1.563c-1.333-0.09-2.532-0.488-3.595-1.194c-1.546-0.907-2.319-2.391-2.319-4.451
									c-0.291-0.83-0.291-1.664,0-2.504c0.212-0.751,0.582-1.272,1.109-1.563c-0.124,0.101-0.185,0.286-0.185,0.555
									c0,0.851,0.465,1.563,1.395,2.135C228.429,135.163,228.849,135.118,229.286,134.849z M234.578,138.546
									c0,0.37,0.09,0.683,0.269,0.941c0.302,0.437,0.801,0.509,1.496,0.218c1.119-0.65,1.68-1.114,1.68-1.395l-0.152-1.545
									l-1.008-0.639c-0.381,0.571-0.88,1.138-1.495,1.697C234.841,138.27,234.578,138.512,234.578,138.546z"/>
								<path fill="none" stroke="#373535" stroke-width="1.6254" stroke-miterlimit="10" d="M234.578,138.546
									c0-0.034,0.263-0.275,0.79-0.723c0.615-0.56,1.114-1.126,1.495-1.697l1.008,0.639l0.152,1.545
									c0,0.281-0.56,0.746-1.68,1.395c-0.696,0.291-1.194,0.219-1.496-0.218C234.668,139.228,234.578,138.915,234.578,138.546z
									 M229.286,134.849c-0.437,0.269-0.857,0.313-1.26,0.134c-0.93-0.571-1.395-1.284-1.395-2.135
									c0-0.269,0.062-0.454,0.185-0.555c-0.527,0.291-0.896,0.812-1.108,1.563c-0.291,0.839-0.291,1.674,0,2.504
									c0,2.06,0.773,3.544,2.319,4.451c1.063,0.705,2.263,1.104,3.595,1.194c2.184-0.203,3.819-0.723,4.905-1.563
									c0.516-0.371,0.925-0.818,1.227-1.344c0.302-0.527,0.454-1.07,0.454-1.631c0-1.322-0.527-2.553-1.58-3.696
									c-1.444-1.545-3.729-2.319-6.855-2.319c-0.381,0-0.902,0.062-1.561,0.185c0.301,0.235,0.615,0.548,0.941,0.941
									c0.437,0.537,0.677,1.009,0.723,1.412C229.874,134.305,229.678,134.592,229.286,134.849z"/>
								<path fill="#373535" d="M237.552,119.609l3.612,2.319c-14.381,3.685-23.393,11.212-27.033,22.581
									c-1.781,5.757-2.806,10.692-3.075,14.803c-0.28,4.189,0.219,7.588,1.495,10.199c1.288,2.744,2.185,4.878,2.688,6.401
									c0.537,1.613,0.695,2.688,0.47,3.227l-1.395,0.083c-6.866-12.231-8.781-22.782-5.746-31.655
									c2.946-8.894,6.559-15.346,10.838-19.355C223.461,124.257,229.51,121.39,237.552,119.609z"/>
								<path fill="none" stroke="#373535" stroke-width="1.6254" stroke-miterlimit="10" d="M237.552,119.609
									c-8.042,1.781-14.092,4.649-18.146,8.603c-4.279,4.009-7.892,10.461-10.838,19.355c-3.035,8.872-1.119,19.423,5.746,31.655
									l1.395-0.083c0.224-0.537,0.067-1.612-0.47-3.227c-0.505-1.522-1.4-3.657-2.688-6.401c-1.276-2.61-1.775-6.01-1.495-10.199
									c0.269-4.111,1.294-9.046,3.075-14.803c3.64-11.369,12.652-18.895,27.033-22.581L237.552,119.609z"/>
								<path fill="#D2D4D5" d="M214.214,179.222c-0.448,0-1.126-0.062-2.033-0.184c-0.794-0.18-1.412-0.332-1.849-0.454
									l3.982,0.638H214.214z"/>
								<path fill="none" stroke="#373535" stroke-width="1.6254" stroke-miterlimit="10" d="M214.214,179.222h0.101l-3.982-0.638
									c0.437,0.122,1.054,0.274,1.849,0.454C213.089,179.16,213.767,179.222,214.214,179.222z"/>
								<path fill="none" stroke="#373535" stroke-width="1.6254" stroke-miterlimit="10" d="M207.007,177.845l0.251-0.017
									c0.125-0.014,0.225-0.041,0.301-0.083h0.085c-0.115,0.043-0.245,0.07-0.386,0.083"/>
								
									<line fill="none" stroke="#373535" stroke-width="1.6254" stroke-miterlimit="10" x1="207.561" y1="177.744" x2="207.646" y2="177.744"/>
								<path fill="none" stroke="#373535" stroke-width="1.6254" stroke-miterlimit="10" d="M207.646,177.744
									c-0.14,0.052-0.299,0.082-0.479,0.092l-0.444,0.093c0.122-0.056,0.218-0.085,0.286-0.085c0.054,0,0.108-0.002,0.158-0.009"
									/>
								<path fill="#373535" d="M161.542,184.414l0.286,0.822c-3.809,1.726-7.36,2.962-10.653,3.715
									c-1.871,0.301-3.505,0.453-4.905,0.453c-0.672-0.582-1.104-1.349-1.294-2.302l2.218-0.654
									C149.791,186.447,154.574,185.769,161.542,184.414z"/>
								<path fill="none" stroke="#373535" stroke-width="1.6254" stroke-miterlimit="10" d="M161.542,184.414
									c-6.967,1.354-11.75,2.033-14.349,2.033l-2.218,0.654c0.191,0.952,0.622,1.72,1.294,2.302c1.4,0,3.035-0.152,4.905-0.453
									c3.293-0.751,6.844-1.988,10.653-3.714L161.542,184.414z"/>
								<path fill="#373535" d="M107.943,67.944c2.095,1.333,3.853,2.291,5.276,2.873c1.109,1.188,2.307,2.639,3.595,4.352
									c0.661,0.874,1.4,1.859,2.218,2.957c0.113,0.113,1.361,0.023,3.747-0.269c2.351-0.302,3.579-0.369,3.68-0.202
									c0.526,0.705,0.946,1.467,1.26,2.285c0.369,0.951,0.633,1.557,0.79,1.814c0.37,0.56,0.465,1.389,0.286,2.487
									c-0.19,1.109-0.605,2.179-1.243,3.21c-0.471,0.202-1.104,1.299-1.898,3.293c-0.202,0.481-0.795,2.111-1.781,4.889
									c-0.516,1.434-0.874,2.526-1.075,3.276c-0.247,0.919-0.353,1.613-0.32,2.084c-0.078,2.083,0.078,4.738,0.47,7.964
									c0.426,2.968,0.638,5.596,0.638,7.88c0,4.66-1.109,9.258-3.327,13.794c-1.053,2.174-1.826,3.869-2.319,5.091
									c-0.672,1.849-1.008,3.943-1.008,6.285c0,0.806,0.398,3.152,1.193,7.039c-0.023,0.493,0.012,1.815,0.101,3.966
									c-0.09,2.15-0.615,3.841-1.58,5.074c-0.056,0.056-0.527-0.012-1.412-0.203c-0.884-0.179-1.361-0.218-1.428-0.117
									c-0.056,0,0.028-0.409,0.251-1.227c-0.37-0.257-0.599-0.426-0.689-0.504c-0.134-0.124-0.184-0.23-0.151-0.32
									c1.176-2.263,1.764-5.26,1.764-8.989c-0.638-6.642-0.516-10.994,0.37-13.055c0.28-0.606,1.142-2.498,2.588-5.679
									c0.739-1.603,1.232-2.639,1.478-3.109c0.661-1.849,1.03-3.915,1.108-6.2c-0.28-2.229-0.497-4.217-0.654-5.964
									c-0.113-1.299-0.168-2.151-0.168-2.554c0-2.487,0.309-5.08,0.924-7.779c0.615-2.61,0.924-4.649,0.924-6.117
									c0-1.344,0.324-2.777,0.974-4.301c0.818-1.647,1.395-2.901,1.73-3.764c0.583-1.478,0.813-2.913,0.689-4.301
									c-0.145-1.781-0.857-3.763-2.134-5.948l-7.745,1.009c-0.426-0.369-0.7-0.65-0.824-0.84
									c-0.359-0.369-0.627-0.644-0.807-0.824c-0.302-0.302-0.587-0.548-0.857-0.739c-5.667-5.209-11.963-7.774-18.886-7.696
									c-4.827,0-9.61,0.868-14.349,2.604c-4.38,2.128-7.623,3.517-9.728,4.166c-2.409,0.795-4.228,2.184-5.461,4.167
									c-0.661,1.299-1.216,3.243-1.663,5.83c-0.404,2.409-0.807,4.256-1.21,5.545c-0.615,1.154-1.354,1.961-2.218,2.42
									l-0.47-0.656c0-1.524-0.247-2.817-0.739-3.881c-0.549-1.366-0.824-2.756-0.824-4.166c0-6.228,4.318-11.66,12.954-16.298
									c3.371-1.792,6.888-3.181,10.551-4.167c2.946-0.93,5.635-1.395,8.065-1.395c5.142-0.09,9.275,0.409,12.399,1.495
									C102.886,65.149,105.199,66.286,107.943,67.944z"/>
								<path fill="none" stroke="#373535" stroke-width="1.6254" stroke-miterlimit="10" d="M107.943,67.944
									c-2.745-1.658-5.057-2.795-6.939-3.41c-3.125-1.087-7.259-1.585-12.399-1.495c-2.43,0-5.119,0.465-8.065,1.395
									c-3.662,0.986-7.18,2.374-10.551,4.167c-8.636,4.637-12.954,10.07-12.954,16.298c0,1.411,0.274,2.8,0.824,4.166
									c0.493,1.064,0.739,2.358,0.739,3.881l0.47,0.656c0.863-0.459,1.603-1.266,2.218-2.42c0.403-1.287,0.806-3.136,1.21-5.545
									c0.448-2.588,1.002-4.532,1.663-5.83c1.232-1.983,3.052-3.372,5.461-4.167c2.105-0.649,5.349-2.038,9.728-4.166
									c4.738-1.736,9.521-2.604,14.349-2.604c6.923-0.079,13.217,2.487,18.886,7.696c0.269,0.191,0.555,0.437,0.857,0.739
									c0.18,0.18,0.449,0.454,0.807,0.824c0.124,0.191,0.398,0.47,0.824,0.84l7.745-1.009c1.278,2.184,1.988,4.167,2.134,5.948
									c0.124,1.389-0.106,2.823-0.689,4.301c-0.336,0.863-0.912,2.117-1.73,3.764c-0.65,1.524-0.974,2.957-0.974,4.301
									c0,1.467-0.309,3.506-0.924,6.117c-0.615,2.699-0.924,5.292-0.924,7.779c0,0.403,0.056,1.255,0.168,2.554
									c0.157,1.747,0.375,3.735,0.654,5.964c-0.078,2.285-0.448,4.352-1.109,6.2c-0.246,0.47-0.739,1.506-1.478,3.109
									c-1.444,3.181-2.307,5.073-2.588,5.679c-0.885,2.061-1.009,6.413-0.37,13.055c0,3.73-0.587,6.727-1.764,8.989
									c-0.034,0.09,0.017,0.196,0.151,0.32c0.09,0.078,0.32,0.247,0.689,0.504c-0.224,0.818-0.308,1.227-0.251,1.227
									c0.067-0.101,0.543-0.062,1.428,0.117c0.885,0.191,1.356,0.258,1.412,0.203c0.963-1.233,1.49-2.923,1.58-5.074
									c-0.09-2.151-0.124-3.473-0.101-3.966c-0.795-3.887-1.193-6.233-1.193-7.039c0-2.342,0.336-4.436,1.008-6.285
									c0.493-1.221,1.266-2.917,2.319-5.091c2.218-4.537,3.327-9.135,3.327-13.794c0-2.284-0.212-4.912-0.638-7.88
									c-0.392-3.226-0.548-5.881-0.47-7.964c-0.034-0.47,0.073-1.165,0.32-2.084c0.202-0.75,0.56-1.843,1.075-3.276
									c0.986-2.778,1.58-4.408,1.781-4.889c0.795-1.994,1.428-3.093,1.898-3.293c0.638-1.03,1.053-2.1,1.243-3.21
									c0.18-1.098,0.085-1.927-0.286-2.487c-0.157-0.257-0.419-0.863-0.79-1.814c-0.314-0.818-0.734-1.58-1.26-2.285
									c-0.101-0.168-1.328-0.101-3.68,0.202c-2.386,0.291-3.634,0.381-3.747,0.269c-0.817-1.098-1.557-2.083-2.218-2.957
									c-1.287-1.714-2.486-3.164-3.595-4.352C111.797,70.235,110.038,69.277,107.943,67.944z"/>
								<path fill="#373535" d="M51.389,134.143h-2.688c0.426-0.617,0.762-1.081,1.008-1.395c1.781-2.61,2.8-4.397,3.058-5.36
									c0.907-3.629,1.434-5.976,1.58-7.04c0.302-1.983,0.453-4.083,0.453-6.301c0-1.478-0.459-5.209-1.377-11.19
									c-0.47-3.528-0.778-5.752-0.924-6.671c0.09,0,0.212-0.027,0.369-0.083c0.146-0.067,0.27-0.101,0.369-0.101
									c0.638-0.179,1.193-0.364,1.663-0.555l0.184,0.185c0.493,2.766,0.896,4.861,1.21,6.284
									c0.044,0.124,0.442,4.385,1.193,12.786c0,5.69-0.863,10.35-2.588,13.979C53.88,130.845,52.71,132.664,51.389,134.143z"/>
								<path fill="none" stroke="#373535" stroke-width="1.6254" stroke-miterlimit="10" d="M51.389,134.143
									c1.322-1.479,2.492-3.299,3.512-5.461c1.725-3.629,2.588-8.289,2.588-13.979c-0.75-8.401-1.149-12.664-1.193-12.786
									c-0.314-1.422-0.717-3.517-1.21-6.284l-0.184-0.185c-0.47,0.191-1.025,0.376-1.663,0.555c-0.101,0-0.224,0.034-0.369,0.101
									c-0.157,0.056-0.28,0.083-0.369,0.083c0.145,0.919,0.453,3.142,0.924,6.671c0.919,5.981,1.377,9.711,1.377,11.19
									c0,2.218-0.151,4.318-0.453,6.301c-0.145,1.064-0.672,3.41-1.58,7.04c-0.258,0.963-1.276,2.75-3.058,5.36
									c-0.246,0.313-0.582,0.778-1.008,1.395L51.389,134.143L51.389,134.143z"/>
								<path fill="#373535" d="M15.921,88.123c1.49,0.247,3.125,0.684,4.906,1.31l0.184,0.453
									c-7.505,3.719-11.945,9.707-13.324,17.961c-0.773,4.951-0.588,9.707,0.554,14.265c0.18,0.615,0.27,1.356,0.27,2.218
									c-0.09,5.062,0.744,9.874,2.503,14.432c0.673,1.725,1.753,3.024,3.243,3.899c0.93,0.537,2.134,0.969,3.613,1.293
									l-0.101,0.84c-1.524,1.154-3.063,1.776-4.62,1.866c-1.557,0.089-3.103-0.347-4.638-1.311
									c-4.066-2.609-6.099-6.255-6.099-10.938c-0.056-0.997-0.027-2.722,0.085-5.175c0.124-1.702,0.185-3.215,0.185-4.537
									c-0.101-1.814-0.376-3.327-0.824-4.537c-0.28-0.728-0.375-1.529-0.285-2.402c0.437-2.844,0.409-5.93-0.085-9.257
									c-0.314-1.513-0.347-3.024-0.101-4.537c0.728-6.575,3.876-11.482,9.442-14.718C12.509,88.318,14.206,87.943,15.921,88.123z"
									/>
								<path fill="none" stroke="#373535" stroke-width="1.6254" stroke-miterlimit="10" d="M15.921,88.123
									c-1.714-0.18-3.41,0.196-5.091,1.126c-5.567,3.238-8.714,8.144-9.442,14.718c-0.246,1.513-0.212,3.024,0.101,4.537
									c0.493,3.327,0.521,6.413,0.085,9.257c-0.09,0.874,0.005,1.674,0.285,2.402c0.449,1.21,0.723,2.722,0.824,4.537
									c0,1.322-0.062,2.835-0.185,4.537c-0.112,2.453-0.14,4.178-0.085,5.175c0,4.681,2.033,8.328,6.099,10.938
									c1.534,0.964,3.081,1.4,4.638,1.311c1.557-0.09,3.097-0.711,4.62-1.866l0.101-0.84c-1.479-0.325-2.683-0.755-3.613-1.293
									c-1.49-0.874-2.57-2.174-3.243-3.899c-1.759-4.559-2.593-9.37-2.503-14.432c0-0.863-0.09-1.603-0.27-2.218
									c-1.142-4.559-1.327-9.313-0.554-14.265c1.377-8.255,5.819-14.243,13.324-17.961l-0.184-0.453
									C19.046,88.807,17.41,88.369,15.921,88.123z"/>
								<path fill="#373535" d="M37.225,100.993c-0.739-2.184-1.759-4.251-3.058-6.2l2.117,0.654
									c1.546,2.644,2.598,4.744,3.159,6.301c1.041,3.058,1.563,6.513,1.563,10.367c0,4.503-0.739,9.656-2.218,15.458
									c-0.449,1.557-1.03,3.903-1.747,7.04c-0.93,0.078-1.859,0.263-2.789,0.555c1.03-2.453,1.831-4.587,2.402-6.401
									c1.613-5.388,2.42-10.137,2.42-14.248C39.073,109.041,38.457,104.533,37.225,100.993z"/>
								<path fill="none" stroke="#373535" stroke-width="1.6254" stroke-miterlimit="10" d="M37.225,100.993
									c1.232,3.54,1.849,8.048,1.849,13.525c0,4.111-0.806,8.86-2.42,14.248c-0.571,1.814-1.373,3.949-2.402,6.401
									c0.93-0.291,1.859-0.476,2.789-0.555c0.716-3.137,1.299-5.483,1.747-7.04c1.479-5.803,2.218-10.955,2.218-15.458
									c0-3.853-0.521-7.309-1.563-10.367c-0.56-1.557-1.612-3.657-3.159-6.301l-2.117-0.654
									C35.466,96.742,36.486,98.81,37.225,100.993z"/>
								<path fill="#373535" d="M48.146,155.061c-2.957-3.036-4.099-5.965-3.427-8.788c0.75-2.913,2.017-5.259,3.797-7.039
									c2.005-2.006,5.304-3.052,9.896-3.142c0.034,0.034,0.117,0.063,0.251,0.085c0.145,0.034,0.247,0.067,0.302,0.101
									l-0.369,0.824c-0.516,0.437-1.198,0.997-2.05,1.681c-0.65,0.537-1.109,0.935-1.377,1.193
									c-1.131,1.243-1.652,2.756-1.563,4.537c0,3.361,0.986,6.239,2.957,8.637c1.948,2.374,4.884,4.312,8.804,5.812
									c4.548,1.781,9.481,2.672,14.803,2.672c0.124,0,2.777-0.337,7.964-1.009c4.705-0.683,7.852-1.024,9.442-1.024
									c1.131-0.09,2.027-0.09,2.688,0c0.617,0,1.014,0.033,1.193,0.101c0.638,0,2.008-0.113,4.109-0.337
									c-0.139,0.033-0.271,0.083-0.394,0.152c-0.247,0.078,0.085,0.056,0.991-0.067c0.258-0.034,1.837-0.258,4.738-0.672
									c-5.925,1.299-9.504,2.128-10.736,2.487c-0.403,0.179-1.047,0.397-1.932,0.654c-4.212,1.322-10.11,2.308-17.693,2.957
									h-0.184c-1.971,0.124-3.45,0.219-4.436,0.286c-3.887,0.079-7.314-0.202-10.282-0.84c-3.237-0.783-6.2-1.74-8.889-2.873
									C53.758,160.202,50.891,158.074,48.146,155.061z"/>
								<path fill="none" stroke="#373535" stroke-width="1.6254" stroke-miterlimit="10" d="M48.146,155.061
									c2.745,3.012,5.612,5.141,8.603,6.384c2.688,1.132,5.651,2.09,8.889,2.873c2.968,0.639,6.395,0.92,10.282,0.84
									c0.986-0.067,2.464-0.161,4.436-0.286h0.184c7.584-0.649,13.481-1.635,17.693-2.957c0.884-0.258,1.529-0.476,1.932-0.654
									c1.232-0.359,4.811-1.188,10.736-2.487c-2.901,0.414-4.481,0.638-4.738,0.672c-0.907,0.122-1.237,0.145-0.991,0.067
									c0.124-0.067,0.256-0.118,0.394-0.152c-2.101,0.224-3.471,0.337-4.109,0.337c-0.179-0.067-0.576-0.101-1.193-0.101
									c-0.661-0.09-1.557-0.09-2.688,0c-1.591,0-4.738,0.341-9.442,1.024c-5.186,0.672-7.841,1.009-7.964,1.009
									c-5.32,0-10.255-0.891-14.803-2.672c-3.92-1.501-6.856-3.438-8.804-5.812c-1.971-2.398-2.957-5.276-2.957-8.637
									c-0.09-1.781,0.43-3.293,1.563-4.537c0.269-0.257,0.728-0.654,1.377-1.193c0.852-0.684,1.534-1.243,2.05-1.681l0.37-0.824
									c-0.056-0.034-0.157-0.067-0.302-0.101c-0.134-0.023-0.219-0.051-0.251-0.085c-4.592,0.09-7.892,1.138-9.896,3.142
									c-1.781,1.781-3.047,4.127-3.797,7.039C44.047,149.096,45.189,152.025,48.146,155.061z M105.566,159.362
									c0.109-0.023,0.224-0.033,0.345-0.033"/>
								<path fill="none" stroke="#373535" stroke-width="1.6254" stroke-miterlimit="10" d="M147.663,78.227
									c0.056-0.067,0.145-0.129,0.269-0.185l-0.371,0.27L147.663,78.227z"/>
								<path fill="none" stroke="#373535" stroke-width="1.6254" stroke-miterlimit="10" d="M147.932,78.042
									c-0.109,0.05-0.191,0.103-0.245,0.159c0.026-0.024,0.074-0.05,0.143-0.076C147.898,78.103,147.932,78.075,147.932,78.042z"
									/>
								<path fill="#D2D4D5" d="M120.813,160.656c-2.778-0.88-4.878-1.479-6.3-1.798c1.983,0.337,3.618,0.767,4.905,1.294
									c0.224,0.067,0.539,0.179,0.942,0.336C120.527,160.554,120.678,160.609,120.813,160.656z"/>
								<path fill="none" stroke="#373535" stroke-width="1.6254" stroke-miterlimit="10" d="M120.813,160.656
									c0.189,0.067,0.346,0.118,0.471,0.152 M120.813,160.656c-2.778-0.88-4.878-1.479-6.3-1.798
									c1.983,0.337,3.618,0.767,4.905,1.294c0.224,0.067,0.539,0.179,0.942,0.336
									C120.527,160.554,120.678,160.609,120.813,160.656z"/>
								<path fill="#373535" d="M158.769,124.701c0,1.792-0.212,3.271-0.638,4.436c-0.27,0.951-0.952,1.971-2.05,3.058
									c-1.603,1.422-2.711,2.441-3.327,3.057c-0.078,0.046-0.152,0.107-0.219,0.185c-0.067,0.102-0.117,0.163-0.152,0.185
									c-0.033,0-0.067,0.023-0.101,0.067c-0.044,0.067-0.073,0.107-0.083,0.118h-0.102l1.765,0.839l-2.589-1.107l0.454-1.21
									c3.305-2.844,5.001-6.088,5.091-9.728L158.769,124.701z"/>
								<path fill="none" stroke="#373535" stroke-width="1.6254" stroke-miterlimit="10" d="M158.769,124.701l-1.949-0.101
									c-0.09,3.64-1.786,6.884-5.091,9.728l-0.454,1.21l2.589,1.107l-1.765-0.839h0.102c0.011-0.012,0.039-0.051,0.083-0.118
									c0.034-0.044,0.067-0.067,0.101-0.067c0.034-0.023,0.085-0.083,0.152-0.185c0.067-0.078,0.141-0.14,0.219-0.185
									c0.615-0.615,1.725-1.635,3.327-3.057c1.098-1.087,1.78-2.106,2.05-3.058C158.556,127.971,158.769,126.493,158.769,124.701z
									"/>
								
									<line fill="none" stroke="#373535" stroke-width="1.6254" stroke-miterlimit="10" x1="150.537" y1="137.47" x2="150.72" y2="137.47"/>
								<path fill="#D2D4D5" d="M150.72,137.47l9.074,1.866c-4.817-0.829-7.567-1.356-8.25-1.58
									c-0.122-0.067-0.296-0.122-0.52-0.167C150.844,137.542,150.744,137.503,150.72,137.47z"/>
								<path fill="none" stroke="#373535" stroke-width="1.6254" stroke-miterlimit="10" d="M150.72,137.47
									c0.023,0.034,0.124,0.073,0.302,0.118c0.224,0.044,0.398,0.101,0.52,0.167c0.684,0.224,3.434,0.751,8.25,1.58L150.72,137.47
									z"/>
								<path fill="#373535" d="M141.178,168.671l0.47-0.555l1.849,1.024c-1.949,2.218-3.355,3.842-4.218,4.873
									c-1.086,1.311-1.78,2.246-2.083,2.806c-0.371,0.56-0.555,1.702-0.555,3.427c0,2.206,0.677,3.809,2.033,4.806
									c0.134,0.089,0.695,0.37,1.681,0.84c0.806,0.28,2.284,0.465,4.436,0.555c0.067,0.122,0.128,0.34,0.184,0.654
									c0.191,0.952,0.622,1.72,1.294,2.302c-3.529,0-6.368-0.493-8.519-1.478c-0.179-0.056-0.363-0.179-0.554-0.37
									c-1.299-0.696-2.269-1.534-2.907-2.52c-0.65-1.009-0.974-2.201-0.974-3.579c0-2.397,0.615-4.654,1.849-6.771
									C136.618,172.177,138.623,170.172,141.178,168.671z"/>
								<path fill="none" stroke="#373535" stroke-width="1.6254" stroke-miterlimit="10" d="M141.178,168.671
									c-2.554,1.501-4.56,3.505-6.015,6.015c-1.233,2.117-1.849,4.374-1.849,6.771c0,1.377,0.325,2.57,0.974,3.579
									c0.638,0.986,1.607,1.826,2.907,2.52c0.191,0.191,0.375,0.313,0.554,0.37c2.151,0.985,4.99,1.478,8.519,1.478
									c-0.672-0.582-1.104-1.349-1.294-2.302c-0.056-0.314-0.117-0.532-0.184-0.654c-2.151-0.09-3.63-0.275-4.436-0.555
									c-0.986-0.471-1.546-0.751-1.681-0.84c-1.356-0.997-2.033-2.598-2.033-4.806c0-1.725,0.184-2.867,0.555-3.427
									c0.302-0.56,0.997-1.495,2.083-2.806c0.864-1.03,2.269-2.655,4.218-4.873l-1.849-1.024L141.178,168.671z"/>
								
									<path fill="none" stroke="#373535" stroke-width="1.6254" stroke-linecap="round" stroke-linejoin="round" stroke-miterlimit="3" d="
									M115.068,79.067c-4.772,0.728-8.256,1.345-10.451,1.849c-11.381,2.486-24.593,6.374-39.636,11.66"/>
								
									<path fill="none" stroke="#373535" stroke-width="1.6254" stroke-linecap="round" stroke-linejoin="round" stroke-miterlimit="3" d="
									M142.942,77.487c-7.651-0.37-15.395-0.095-23.237,0.824"/>
								
									<path fill="none" stroke="#373535" stroke-width="1.6254" stroke-linecap="round" stroke-linejoin="round" stroke-miterlimit="3" d="
									M195.162,86.089c-9.208-2.643-18.785-4.743-28.732-6.3c-9.43-1.467-17.411-2.179-23.943-2.134"/>
								
									<path fill="none" stroke="#373535" stroke-width="1.6254" stroke-linecap="round" stroke-linejoin="round" stroke-miterlimit="3" d="
									M224.027,107.579c0,0.212,0.157,0.426,0.471,0.638c0.291,0.191,0.695,0.286,1.209,0.286"/>
								
									<path fill="none" stroke="#373535" stroke-width="1.6254" stroke-linecap="round" stroke-linejoin="round" stroke-miterlimit="3" d="
									M195.162,86.089c-0.258-0.078-0.449-0.168-0.571-0.269c-0.124-0.112-0.212-0.191-0.269-0.235
									c-0.09-0.079-0.152-0.157-0.185-0.235C194.059,85.283,194.4,85.53,195.162,86.089z"/>
								
									<path fill="none" stroke="#373535" stroke-width="1.6254" stroke-linecap="round" stroke-linejoin="round" stroke-miterlimit="3" d="
									M195.162,86.089c-0.471-0.548-0.627-0.824-0.471-0.824h0.083"/>
								
									<path fill="none" stroke="#373535" stroke-width="1.6254" stroke-linecap="round" stroke-linejoin="round" stroke-miterlimit="3" d="
									M195.162,86.089c-1.087-0.829-1.859-1.473-2.32-1.932c-0.615-0.627-0.985-1.03-1.107-1.21
									c-2.084-2.162-3.72-3.243-4.906-3.243c-0.448,0-0.755,0.124-0.924,0.369c-0.381,0.247-0.689,0.37-0.924,0.37
									c-0.281,0-0.566-0.062-0.857-0.185c-0.291-0.112-0.532-0.263-0.723-0.453c-0.078-0.078-0.42-0.576-1.025-1.495
									c-1.086-1.479-2.564-2.218-4.435-2.218c-0.65,0-1.333,0.246-2.05,0.739c-0.314,0.202-0.627,0.353-0.942,0.453
									c-0.202,0.067-0.347,0.101-0.436,0.101c-0.93-0.974-1.686-1.663-2.269-2.066c-0.65-0.449-1.221-0.65-1.713-0.605
									c-0.705,0-1.445,0.246-2.218,0.739c-0.728,0.548-1.165,0.824-1.311,0.824c-2.363-1.377-4.088-2.022-5.174-1.932
									c-0.583,0-1.26,0.247-2.033,0.739c-0.729,0.549-1.473,0.824-2.234,0.824c-4.111,0-7.197,0.65-9.258,1.949"/>
								
									<path fill="none" stroke="#373535" stroke-width="1.6254" stroke-linecap="round" stroke-linejoin="round" stroke-miterlimit="3" d="
									M181.451,143.871c-1.702-0.101-3.215,0.606-4.537,2.117c-0.426,0.615-0.767,1.17-1.024,1.663"/>
								
									<path fill="none" stroke="#373535" stroke-width="1.6254" stroke-linecap="round" stroke-linejoin="round" stroke-miterlimit="3" d="
									M152.098,135.807c0.124,0,0.185,0.033,0.185,0.101c0.941,0.336,1.81,0.705,2.604,1.108c2.084,0.907,4.643,2.173,7.678,3.797
									c3.641,2.039,6.727,3.735,9.258,5.091c0.952,0.449,2.308,1.03,4.067,1.748"/>
								
									<path fill="none" stroke="#373535" stroke-width="1.6254" stroke-linecap="round" stroke-linejoin="round" stroke-miterlimit="3" d="
									M178.024,155.8c-1.624,0.684-3.472,1.025-5.545,1.025c-0.997-0.191-2.173-0.286-3.528-0.286
									c-3.114,0-6.693-0.645-10.736-1.932c-3.505-1.389-6.681-2.469-9.527-3.242"/>
								
									<path fill="none" stroke="#373535" stroke-width="1.6254" stroke-linecap="round" stroke-linejoin="round" stroke-miterlimit="3" d="
									M176.092,158.303c-4.087,1.053-7.051,1.58-8.887,1.58c-5.801,0.078-12.993-0.913-21.574-2.974"/>
								
									<path fill="none" stroke="#373535" stroke-width="1.6254" stroke-linecap="round" stroke-linejoin="round" stroke-miterlimit="3" d="
									M175.89,147.652c1.209,0.37,2.229,0.555,3.057,0.555c0.191,0,0.656-0.152,1.395-0.454c0.74-0.247,1.266-0.371,1.58-0.371"/>
								
									<path fill="none" stroke="#373535" stroke-width="1.6254" stroke-linecap="round" stroke-linejoin="round" stroke-miterlimit="3" d="
									M237.754,139.1c-0.301,0.526-0.711,0.973-1.227,1.344c-1.087,0.84-2.722,1.361-4.905,1.563
									c-1.333-0.09-2.532-0.488-3.595-1.194c-1.546-0.907-2.319-2.391-2.319-4.451c-0.291-0.83-0.291-1.664,0-2.504
									c0.212-0.751,0.582-1.272,1.108-1.563c0-0.089,0.095-0.184,0.286-0.286c0.011,0,0.173-0.062,0.487-0.184
									c0.224-0.079,0.431-0.141,0.622-0.185c0.66-0.124,1.181-0.185,1.561-0.185c3.126,0,5.41,0.774,6.855,2.319
									c1.053,1.143,1.58,2.374,1.58,3.696C238.208,138.03,238.056,138.573,237.754,139.1z"/>
								
									<path fill="none" stroke="#373535" stroke-width="1.6254" stroke-linecap="round" stroke-linejoin="round" stroke-miterlimit="3" d="
									M237.552,119.609c-8.042,1.781-14.092,4.649-18.146,8.603c-4.279,4.009-7.892,10.461-10.838,19.355
									c-3.035,8.872-1.119,19.423,5.746,31.655"/>
								
									<path fill="none" stroke="#373535" stroke-width="1.6254" stroke-linecap="round" stroke-linejoin="round" stroke-miterlimit="3" d="
									M225.708,108.503c-1.188,0.695-6.216,3.809-15.089,9.342c-7.818,4.94-13.435,13.486-16.852,25.64
									c-3.517,12.085,1.08,23.505,13.793,34.258"/>
								
									<path fill="none" stroke="#373535" stroke-width="1.6254" stroke-linecap="round" stroke-linejoin="round" stroke-miterlimit="3" d="
									M241.249,121.929h-0.085c-14.381,3.685-23.393,11.212-27.033,22.581c-1.781,5.757-2.806,10.692-3.075,14.803
									c-0.28,4.189,0.219,7.588,1.495,10.199c1.288,2.744,2.185,4.878,2.688,6.401c0.537,1.613,0.695,2.688,0.47,3.227"/>
								
									<polyline fill="none" stroke="#373535" stroke-width="1.6254" stroke-linecap="round" stroke-linejoin="round" stroke-miterlimit="3" points="
									241.249,121.929 241.164,121.929 237.552,119.609 								"/>
								
									<path fill="none" stroke="#373535" stroke-width="1.6254" stroke-linecap="round" stroke-linejoin="round" stroke-miterlimit="3" d="
									M225.708,108.503c4.323,2.386,7.93,5.595,10.82,9.628c0.101,0.202,0.274,0.459,0.52,0.773
									c0.258,0.336,0.427,0.571,0.505,0.705"/>
								
									<path fill="none" stroke="#373535" stroke-width="1.6254" stroke-linecap="round" stroke-linejoin="round" stroke-miterlimit="3" d="
									M241.249,121.929c1.791,1.041,2.997,1.87,3.613,2.486c4.122,4.526,6.749,7.611,7.879,9.258
									c2.42,3.517,4.206,7.287,5.36,11.308"/>
								
									<path fill="none" stroke="#373535" stroke-width="1.6254" stroke-linecap="round" stroke-linejoin="round" stroke-miterlimit="3" d="
									M237.182,157.279c2.565,0,6.485-0.74,11.761-2.218c4.995-1.4,7.959-2.14,8.887-2.218"/>
								
									<path fill="none" stroke="#373535" stroke-width="1.6254" stroke-linecap="round" stroke-linejoin="round" stroke-miterlimit="3" d="
									M257.832,152.843h0.085c0.705,0,1.293,0.369,1.764,1.108c0.56,0.75,0.84,1.4,0.84,1.949c0,0.526-0.313,1.047-0.941,1.561
									c-0.774,0.537-1.204,0.852-1.294,0.941"/>
								
									<path fill="none" stroke="#373535" stroke-width="1.6254" stroke-linecap="round" stroke-linejoin="round" stroke-miterlimit="3" d="
									M258.286,158.404c-0.122,0.168-0.212,0.293-0.269,0.371c-0.09,0.122-0.152,0.247-0.185,0.37
									c-1.702,2.43-3.091,3.943-4.166,4.537c-1.467,0.851-2.55,1.558-3.243,2.117c-1.254,0.951-6.195,3.237-14.819,6.855
									c-8.961,3.786-15.593,5.948-19.893,6.485"/>
								
									<polyline fill="none" stroke="#373535" stroke-width="1.6254" stroke-linecap="round" stroke-linejoin="round" stroke-miterlimit="3" points="
									207.46,177.744 207.192,177.559 204.604,176.719 								"/>
								
									<line fill="none" stroke="#373535" stroke-width="1.6254" stroke-linecap="round" stroke-linejoin="round" stroke-miterlimit="3" x1="214.214" y1="179.222" x2="214.315" y2="179.222"/>
								
									<path fill="none" stroke="#373535" stroke-width="1.6254" stroke-linecap="round" stroke-linejoin="round" stroke-miterlimit="3" d="
									M214.214,179.222c-0.448,0-1.126-0.062-2.033-0.184"/>
								
									<line fill="none" stroke="#373535" stroke-width="1.6254" stroke-linecap="round" stroke-linejoin="round" stroke-miterlimit="3" x1="207.561" y1="177.744" x2="207.46" y2="177.744"/>
								
									<line fill="none" stroke="#373535" stroke-width="1.6254" stroke-linecap="round" stroke-linejoin="round" stroke-miterlimit="3" x1="207.46" y1="177.744" x2="207.561" y2="177.744"/>
								
									<path fill="none" stroke="#373535" stroke-width="1.6254" stroke-linecap="round" stroke-linejoin="round" stroke-miterlimit="3" d="
									M34.251,135.168c1.03-2.453,1.831-4.587,2.402-6.401c1.613-5.388,2.42-10.137,2.42-14.248c0-5.477-0.617-9.985-1.849-13.525
									c-0.739-2.184-1.759-4.251-3.058-6.2"/>
								
									<path fill="none" stroke="#373535" stroke-width="1.6254" stroke-linecap="round" stroke-linejoin="round" stroke-miterlimit="3" d="
									M21.481,89.803c-0.19,0.056-0.347,0.085-0.47,0.085c-7.505,3.719-11.945,9.707-13.324,17.961
									c-0.773,4.951-0.588,9.707,0.554,14.265c0.18,0.615,0.27,1.356,0.27,2.218c-0.09,5.062,0.744,9.874,2.503,14.432
									c0.673,1.725,1.753,3.024,3.243,3.899c0.93,0.537,2.134,0.969,3.613,1.293h1.109"/>
								
									<line fill="none" stroke="#373535" stroke-width="1.6254" stroke-linecap="round" stroke-linejoin="round" stroke-miterlimit="3" x1="207.561" y1="177.744" x2="207.646" y2="177.744"/>
								
									<line fill="none" stroke="#373535" stroke-width="1.6254" stroke-linecap="round" stroke-linejoin="round" stroke-miterlimit="3" x1="207.646" y1="177.744" x2="207.561" y2="177.744"/>
								
									<line fill="none" stroke="#373535" stroke-width="1.6254" stroke-linecap="round" stroke-linejoin="round" stroke-miterlimit="3" x1="207.646" y1="177.744" x2="207.561" y2="177.744"/>
								
									<path fill="none" stroke="#373535" stroke-width="1.6254" stroke-linecap="round" stroke-linejoin="round" stroke-miterlimit="3" d="
									M207.646,177.744c-0.179,0.067-0.392,0.101-0.638,0.101"/>
								
									<path fill="none" stroke="#373535" stroke-width="1.6254" stroke-linecap="round" stroke-linejoin="round" stroke-miterlimit="3" d="
									M207.561,177.744c-0.122,0.067-0.308,0.101-0.554,0.101"/>
								
									<line fill="none" stroke="#373535" stroke-width="1.6254" stroke-linecap="round" stroke-linejoin="round" stroke-miterlimit="3" x1="206.721" y1="177.929" x2="207.646" y2="177.744"/>
								
									<path fill="none" stroke="#373535" stroke-width="1.6254" stroke-linecap="round" stroke-linejoin="round" stroke-miterlimit="3" d="
									M207.007,177.845c-0.067,0-0.163,0.028-0.286,0.085"/>
								
									<path fill="none" stroke="#373535" stroke-width="1.6254" stroke-linecap="round" stroke-linejoin="round" stroke-miterlimit="3" d="
									M210.333,178.584c-0.191-0.067-0.626-0.197-1.31-0.386c-0.571-0.157-1.031-0.309-1.377-0.454"/>
								
									<line fill="none" stroke="#373535" stroke-width="1.6254" stroke-linecap="round" stroke-linejoin="round" stroke-miterlimit="3" x1="210.333" y1="178.584" x2="206.721" y2="177.929"/>
								
									<line fill="none" stroke="#373535" stroke-width="1.6254" stroke-linecap="round" stroke-linejoin="round" stroke-miterlimit="3" x1="214.315" y1="179.222" x2="210.333" y2="178.584"/>
								
									<path fill="none" stroke="#373535" stroke-width="1.6254" stroke-linecap="round" stroke-linejoin="round" stroke-miterlimit="3" d="
									M212.182,179.038c-0.794-0.18-1.412-0.332-1.849-0.454"/>
								
									<line fill="none" stroke="#373535" stroke-width="1.6254" stroke-linecap="round" stroke-linejoin="round" stroke-miterlimit="3" x1="214.315" y1="179.222" x2="215.71" y2="179.139"/>
								
									<path fill="none" stroke="#373535" stroke-width="1.6254" stroke-linecap="round" stroke-linejoin="round" stroke-miterlimit="3" d="
									M183.855,161.816c-0.101,0.112-0.224,0.274-0.371,0.487c-0.167,0.269-0.291,0.448-0.37,0.537
									c-0.291,0.437-0.723,0.991-1.293,1.663"/>
								
									<path fill="none" stroke="#373535" stroke-width="1.6254" stroke-linecap="round" stroke-linejoin="round" stroke-miterlimit="3" d="
									M214.214,179.222c-9.577,0.314-15.62,0.471-18.128,0.471c-1.266,0-4.043-0.219-8.334-0.654
									c-4.838-0.459-8.143-0.952-9.911-1.479c-0.056-0.056-0.118-0.083-0.185-0.083"/>
								
									<path fill="none" stroke="#373535" stroke-width="1.6254" stroke-linecap="round" stroke-linejoin="round" stroke-miterlimit="3" d="
									M181.822,164.504c-1.871,2.397-4.157,4.374-6.856,5.932c-0.202,0-0.352,0.062-0.453,0.185
									c-6.99,2.901-14.304,3.544-21.944,1.932c-3.361-0.661-6.386-1.798-9.073-3.411"/>
								
									<path fill="none" stroke="#373535" stroke-width="1.6254" stroke-linecap="round" stroke-linejoin="round" stroke-miterlimit="3" d="
									M174.782,176.449c-0.056,0-0.117,0.034-0.185,0.102c-1.356,1.534-3.114,3.03-5.276,4.486
									c-2.038,1.377-4.537,2.777-7.493,4.2c-3.809,1.726-7.36,2.962-10.653,3.715c-1.871,0.301-3.505,0.453-4.905,0.453"/>
								
									<path fill="none" stroke="#373535" stroke-width="1.6254" stroke-linecap="round" stroke-linejoin="round" stroke-miterlimit="3" d="
									M174.782,176.449h-0.085l-0.184-0.083c-1.367,0-4.24-0.746-8.62-2.234"/>
								
									<path fill="none" stroke="#373535" stroke-width="1.6254" stroke-linecap="round" stroke-linejoin="round" stroke-miterlimit="3" d="
									M176.361,160.253c-4.133,1.478-6.664,2.374-7.595,2.688c-2.251,0.672-4.502,1.008-6.754,1.008
									c-4.156,0-7.857-0.37-11.106-1.109"/>
								
									<path fill="none" stroke="#373535" stroke-width="1.6254" stroke-linecap="round" stroke-linejoin="round" stroke-miterlimit="3" d="
									M177.654,177.475c-0.124,0.122-0.274,0.308-0.454,0.555c-0.191,0.247-0.347,0.43-0.471,0.555
									c-3.808,4.267-7.325,7.32-10.551,9.156c-3.988,2.33-8.804,3.535-14.45,3.613c-1.333,0-2.537-0.247-3.613-0.74
									c-0.884-0.515-1.501-0.918-1.848-1.209"/>
								
									<path fill="none" stroke="#373535" stroke-width="1.6254" stroke-linecap="round" stroke-linejoin="round" stroke-miterlimit="3" d="
									M177.654,177.475c-1.02-0.291-1.978-0.633-2.873-1.025"/>
								
									<path fill="none" stroke="#373535" stroke-width="1.6254" stroke-linecap="round" stroke-linejoin="round" stroke-miterlimit="3" d="
									M181.822,164.504c-2.51,2.319-4.945,3.954-7.309,4.906c-7.662,2.632-15.161,2.666-22.498,0.101
									c-2.096-0.672-3.949-1.507-5.561-2.504l-0.556-0.286c-7.023-4.896-10.445-11.587-10.266-20.078
									c0-3.752,1.635-6.189,4.906-7.309c3.281-1.322,6.614-1.944,9.997-1.866h0.184c0.023,0.034,0.124,0.073,0.302,0.118
									c0.224,0.044,0.398,0.101,0.52,0.167c0.684,0.224,3.434,0.751,8.25,1.58l-5.932-2.688"/>
								
									<path fill="none" stroke="#373535" stroke-width="1.6254" stroke-linecap="round" stroke-linejoin="round" stroke-miterlimit="3" d="
									M113.219,70.818c-1.423-0.582-3.181-1.54-5.276-2.873c-2.745-1.658-5.057-2.795-6.939-3.41
									c-3.125-1.087-7.259-1.585-12.399-1.495c-2.43,0-5.119,0.465-8.065,1.395c-3.662,0.986-7.18,2.374-10.551,4.167
									c-8.636,4.637-12.954,10.07-12.954,16.298c0,1.411,0.274,2.8,0.824,4.166c0.493,1.064,0.739,2.358,0.739,3.881
									c0,0.034-0.011,0.067-0.034,0.101c-0.034,0.034-0.051,0.062-0.051,0.083c-0.269,0.449-0.672,0.852-1.209,1.21"/>
								
									<path fill="none" stroke="#373535" stroke-width="1.6254" stroke-linecap="round" stroke-linejoin="round" stroke-miterlimit="3" d="
									M113.336,157.766c-0.247-0.168,0.212-0.152,1.377,0.051c1.266,0.223,1.909,0.313,1.932,0.269
									c0.414-0.785,0.28-2.469-0.404-5.057c-0.84-3.148-1.26-5.249-1.26-6.301c-0.638-6.642-0.516-10.994,0.37-13.055
									c0.28-0.606,1.142-2.498,2.588-5.679c0.739-1.603,1.232-2.639,1.478-3.109c0.661-1.849,1.03-3.915,1.108-6.2
									c-0.28-2.229-0.497-4.217-0.654-5.964c-0.113-1.299-0.168-2.151-0.168-2.554c0-2.487,0.309-5.08,0.924-7.779
									c0.615-2.61,0.924-4.649,0.924-6.117c0-1.389,0.341-3.002,1.024-4.838c0.896-2.084,1.546-3.623,1.949-4.62
									c0.717-1.747,1.092-3.181,1.126-4.301c0.056-1.49-0.414-2.796-1.411-3.915v-0.47c-0.101-0.101-1.72,0.056-4.856,0.47
									c-3.136,0.403-4.732,0.56-4.788,0.47c-0.134-0.134-0.459-0.566-0.974-1.294c-0.459-0.638-0.806-1.041-1.041-1.209
									c-5.667-5.209-11.963-7.774-18.886-7.696c-4.827,0-9.61,0.868-14.349,2.604c-4.38,2.128-7.623,3.517-9.728,4.166
									c-2.409,0.795-4.228,2.184-5.461,4.167c-0.661,1.299-1.216,3.243-1.663,5.83c-0.404,2.409-0.807,4.256-1.21,5.545
									c-0.615,1.154-1.354,1.961-2.218,2.42c-0.325,0.246-0.912,0.493-1.764,0.739"/>
								
									<path fill="none" stroke="#373535" stroke-width="1.6254" stroke-linecap="round" stroke-linejoin="round" stroke-miterlimit="3" d="
									M52.498,96.187c0.145,0.919,0.453,3.142,0.924,6.671c0.919,5.981,1.377,9.711,1.377,11.19c0,2.218-0.151,4.318-0.453,6.301
									c-0.145,1.064-0.672,3.41-1.58,7.04c-0.258,0.963-1.276,2.75-3.058,5.36c-0.246,0.313-0.582,0.778-1.008,1.395"/>
								
									<path fill="none" stroke="#373535" stroke-width="1.6254" stroke-linecap="round" stroke-linejoin="round" stroke-miterlimit="3" d="
									M54.9,95.448l0.184,0.185c0.493,2.766,0.896,4.861,1.21,6.284c0.044,0.124,0.442,4.385,1.193,12.786
									c0,5.69-0.863,10.35-2.588,13.979c-1.02,2.162-2.19,3.981-3.512,5.461"/>
								
									<path fill="none" stroke="#373535" stroke-width="1.6254" stroke-linecap="round" stroke-linejoin="round" stroke-miterlimit="3" d="
									M52.498,96.187c0.09,0,0.212-0.027,0.369-0.083c0.146-0.067,0.27-0.101,0.369-0.101c0.638-0.179,1.193-0.364,1.663-0.555"/>
								
									<path fill="none" stroke="#373535" stroke-width="1.6254" stroke-linecap="round" stroke-linejoin="round" stroke-miterlimit="3" d="
									M36.284,95.448c4.055,0.986,7.606,1.479,10.653,1.479c2.184-0.124,4.038-0.37,5.562-0.74"/>
								
									<path fill="none" stroke="#373535" stroke-width="1.6254" stroke-linecap="round" stroke-linejoin="round" stroke-miterlimit="3" d="
									M54.9,95.448c0.863-0.314,1.663-0.683,2.402-1.109"/>
								
									<path fill="none" stroke="#373535" stroke-width="1.6254" stroke-linecap="round" stroke-linejoin="round" stroke-miterlimit="3" d="
									M21.481,89.803l-0.654-0.37c-1.781-0.627-3.417-1.064-4.906-1.31c-1.714-0.18-3.41,0.196-5.091,1.126
									c-5.567,3.238-8.714,8.144-9.442,14.718c-0.246,1.513-0.212,3.024,0.101,4.537c0.493,3.327,0.521,6.413,0.085,9.257
									c-0.09,0.874,0.005,1.674,0.285,2.402c0.449,1.21,0.723,2.722,0.824,4.537c0,1.322-0.062,2.835-0.185,4.537
									c-0.112,2.453-0.14,4.178-0.085,5.175c0,4.681,2.033,8.328,6.099,10.938c1.534,0.964,3.081,1.4,4.638,1.311
									c1.557-0.09,3.097-0.711,4.62-1.866c0.504-0.313,0.907-0.594,1.21-0.84"/>
								
									<line fill="none" stroke="#373535" stroke-width="1.6254" stroke-linecap="round" stroke-linejoin="round" stroke-miterlimit="3" x1="207.561" y1="177.744" x2="207.646" y2="177.744"/>
								
									<path fill="none" stroke="#373535" stroke-width="1.6254" stroke-linecap="round" stroke-linejoin="round" stroke-miterlimit="3" d="
									M258.286,158.404c-11.447,2.543-18.42,3.871-20.918,3.982c-1.467,0-2.733-0.313-3.797-0.941
									c-0.561-0.391-1.361-0.912-2.403-1.561c-1.108-0.684-1.881-1.177-2.319-1.479c-1.053-2.553-1.579-4.251-1.579-5.091
									c0-2.419,2.223-3.719,6.669-3.898c1.937-0.157,4.284-0.034,7.04,0.37c1.501,0,4.094-0.711,7.779-2.134
									c3.618-1.479,6.15-2.218,7.595-2.218c0.359,0,0.61,0.011,0.756,0.034c0.235,0.044,0.414,0.128,0.537,0.251
									c0.794,0.358,1.193,1.283,1.193,2.772v1.58c-0.179,0.582-0.516,1.473-1.009,2.672v0.101"/>
								
									<line fill="none" stroke="#373535" stroke-width="1.6254" stroke-linecap="round" stroke-linejoin="round" stroke-miterlimit="3" x1="34.167" y1="94.794" x2="36.284" y2="95.448"/>
								
									<path fill="none" stroke="#373535" stroke-width="1.6254" stroke-linecap="round" stroke-linejoin="round" stroke-miterlimit="3" d="
									M37.041,134.613c0.716-3.137,1.299-5.483,1.747-7.04c1.479-5.803,2.218-10.955,2.218-15.458
									c0-3.853-0.521-7.309-1.563-10.367c-0.56-1.557-1.612-3.657-3.159-6.301"/>
								
									<path fill="none" stroke="#373535" stroke-width="1.6254" stroke-linecap="round" stroke-linejoin="round" stroke-miterlimit="3" d="
									M21.481,89.803c0.638,0.235,2.828,1.159,6.57,2.773c2.487,0.974,4.525,1.714,6.116,2.218"/>
								
									<path fill="none" stroke="#373535" stroke-width="1.6254" stroke-linecap="round" stroke-linejoin="round" stroke-miterlimit="3" d="
									M48.701,134.143H42.4c-2.217,0-4.004,0.157-5.359,0.47"/>
								
									<path fill="none" stroke="#373535" stroke-width="1.6254" stroke-linecap="round" stroke-linejoin="round" stroke-miterlimit="3" d="
									M37.041,134.613c-0.93,0.078-1.859,0.263-2.789,0.555"/>
								
									<path fill="none" stroke="#373535" stroke-width="1.6254" stroke-linecap="round" stroke-linejoin="round" stroke-miterlimit="3" d="
									M34.251,135.168c-3.752,0.974-7.36,2.733-10.821,5.276c-1.153,0.963-2.639,2.134-4.452,3.511"/>
								
									<line fill="none" stroke="#373535" stroke-width="1.6254" stroke-linecap="round" stroke-linejoin="round" stroke-miterlimit="3" x1="51.389" y1="134.143" x2="48.701" y2="134.143"/>
								
									<path fill="none" stroke="#373535" stroke-width="1.6254" stroke-linecap="round" stroke-linejoin="round" stroke-miterlimit="3" d="
									M58.967,136.276c-0.056-0.034-0.157-0.067-0.302-0.101c-0.134-0.023-0.219-0.051-0.251-0.085"/>
								
									<path fill="none" stroke="#373535" stroke-width="1.6254" stroke-linecap="round" stroke-linejoin="round" stroke-miterlimit="3" d="
									M58.412,136.091c-1.759-0.593-3.102-1.024-4.033-1.293c-1.232-0.347-2.229-0.566-2.991-0.654"/>
								
									<path fill="none" stroke="#373535" stroke-width="1.6254" stroke-linecap="round" stroke-linejoin="round" stroke-miterlimit="3" d="
									M110.901,158.775c-5.925,1.299-9.504,2.128-10.736,2.487c-0.403,0.179-1.047,0.397-1.932,0.654
									c-4.212,1.322-10.11,2.308-17.693,2.957h-0.184c-1.971,0.124-3.45,0.219-4.436,0.286c-3.887,0.079-7.314-0.202-10.282-0.84
									c-3.237-0.783-6.2-1.74-8.889-2.873c-2.991-1.243-5.858-3.371-8.603-6.384c-2.957-3.036-4.099-5.965-3.427-8.788
									c0.75-2.913,2.017-5.259,3.797-7.039c2.005-2.006,5.304-3.052,9.896-3.142"/>
								
									<path fill="none" stroke="#373535" stroke-width="1.6254" stroke-linecap="round" stroke-linejoin="round" stroke-miterlimit="3" d="
									M105.911,159.33c-2.296,0.247-3.781,0.369-4.452,0.369c-0.179-0.067-0.576-0.101-1.193-0.101
									c-0.661-0.09-1.557-0.09-2.688,0c-1.591,0-4.738,0.341-9.442,1.024c-5.186,0.672-7.841,1.009-7.964,1.009
									c-5.32,0-10.255-0.891-14.803-2.672c-3.92-1.501-6.856-3.438-8.804-5.812c-1.971-2.398-2.957-5.276-2.957-8.637
									c-0.09-1.781,0.43-3.293,1.563-4.537c0.269-0.257,0.728-0.654,1.377-1.193c0.852-0.684,1.534-1.243,2.05-1.681"/>
								
									<path fill="none" stroke="#373535" stroke-width="1.6254" stroke-linecap="round" stroke-linejoin="round" stroke-miterlimit="3" d="
									M147.932,78.042c-0.124,0.056-0.212,0.118-0.269,0.185"/>
								
									<line fill="none" stroke="#373535" stroke-width="1.6254" stroke-linecap="round" stroke-linejoin="round" stroke-miterlimit="3" x1="147.561" y1="78.312" x2="147.932" y2="78.042"/>
								
									<line fill="none" stroke="#373535" stroke-width="1.6254" stroke-linecap="round" stroke-linejoin="round" stroke-miterlimit="3" x1="147.663" y1="78.227" x2="147.561" y2="78.312"/>
								
									<path fill="none" stroke="#373535" stroke-width="1.6254" stroke-linecap="round" stroke-linejoin="round" stroke-miterlimit="3" d="
									M142.859,77.454c0.56,0.067,2.324,0.224,5.292,0.47"/>
								
									<path fill="none" stroke="#373535" stroke-width="1.6254" stroke-linecap="round" stroke-linejoin="round" stroke-miterlimit="3" d="
									M148.487,68.23c-2.508,1.434-4.912,2.481-7.208,3.141c-3.505,0.952-8.474,1.479-14.902,1.58
									c-4.581,0.079-8.44-0.448-11.577-1.58c-0.235-0.034-0.509-0.112-0.824-0.235c-0.348-0.145-0.599-0.251-0.756-0.319"/>
								
									<path fill="none" stroke="#373535" stroke-width="1.6254" stroke-linecap="round" stroke-linejoin="round" stroke-miterlimit="3" d="
									M194.775,85.267c0.258,0.516,0.387,0.79,0.387,0.824"/>
								
									<line fill="none" stroke="#373535" stroke-width="1.6254" stroke-linecap="round" stroke-linejoin="round" stroke-miterlimit="3" x1="112.295" y1="158.775" x2="110.901" y2="158.775"/>
								
									<path fill="none" stroke="#373535" stroke-width="1.6254" stroke-linecap="round" stroke-linejoin="round" stroke-miterlimit="3" d="
									M105.911,159.33c-0.269,0-0.516,0.062-0.739,0.184c-0.247,0.078,0.085,0.056,0.991-0.067
									c0.258-0.034,1.837-0.258,4.738-0.672"/>
								
									<path fill="none" stroke="#373535" stroke-width="1.6254" stroke-linecap="round" stroke-linejoin="round" stroke-miterlimit="3" d="
									M110.901,158.775c-1.849,0-3.511,0.184-4.99,0.555"/>
								
									<path fill="none" stroke="#373535" stroke-width="1.6254" stroke-linecap="round" stroke-linejoin="round" stroke-miterlimit="3" d="
									M112.295,158.775c0-0.124,0.034-0.219,0.101-0.286"/>
								
									<path fill="none" stroke="#373535" stroke-width="1.6254" stroke-linecap="round" stroke-linejoin="round" stroke-miterlimit="3" d="
									M113.219,157.464c0.078-0.034,0.134-0.083,0.168-0.152c0.046-0.078,0.085-0.152,0.117-0.218"/>
								
									<path fill="none" stroke="#373535" stroke-width="1.6254" stroke-linecap="round" stroke-linejoin="round" stroke-miterlimit="3" d="
									M114.513,158.858c-0.549-0.056-1.288-0.083-2.218-0.083"/>
								
									<path fill="none" stroke="#373535" stroke-width="1.6254" stroke-linecap="round" stroke-linejoin="round" stroke-miterlimit="3" d="
									M112.396,158.489c0.314,0,1.02,0.122,2.117,0.37"/>
								
									<path fill="none" stroke="#373535" stroke-width="1.6254" stroke-linecap="round" stroke-linejoin="round" stroke-miterlimit="3" d="
									M112.396,158.489c0.247-0.247,0.521-0.588,0.824-1.025"/>
								
									<path fill="none" stroke="#373535" stroke-width="1.6254" stroke-linecap="round" stroke-linejoin="round" stroke-miterlimit="3" d="
									M120.73,160.622l-0.571-0.285c-0.302-0.057-0.548-0.118-0.74-0.185"/>
								
									<path fill="none" stroke="#373535" stroke-width="1.6254" stroke-linecap="round" stroke-linejoin="round" stroke-miterlimit="3" d="
									M121.284,160.808c-0.124,0-0.185-0.034-0.185-0.101"/>
								
									<path fill="none" stroke="#373535" stroke-width="1.6254" stroke-linecap="round" stroke-linejoin="round" stroke-miterlimit="3" d="
									M120.73,160.622c0.145,0,0.33,0.062,0.555,0.185"/>
								
									<path fill="none" stroke="#373535" stroke-width="1.6254" stroke-linecap="round" stroke-linejoin="round" stroke-miterlimit="3" d="
									M121.099,160.707c-0.067,0-0.14-0.012-0.219-0.034c-0.078-0.034-0.129-0.051-0.151-0.051"/>
								
									<path fill="none" stroke="#373535" stroke-width="1.6254" stroke-linecap="round" stroke-linejoin="round" stroke-miterlimit="3" d="
									M121.284,160.808c-0.213-0.056-0.521-0.163-0.924-0.32s-0.717-0.269-0.942-0.336"/>
								
									<path fill="none" stroke="#373535" stroke-width="1.6254" stroke-linecap="round" stroke-linejoin="round" stroke-miterlimit="3" d="
									M121.099,160.707c-1.299-0.705-2.817-1.333-4.553-1.882c-1.524-0.47-2.436-0.824-2.738-1.059"/>
								
									<path fill="none" stroke="#373535" stroke-width="1.6254" stroke-linecap="round" stroke-linejoin="round" stroke-miterlimit="3" d="
									M113.504,157.094c-0.19-0.056,0.33,0.224,1.563,0.84c1.467,0.728,3.355,1.624,5.663,2.687"/>
								
									<path fill="none" stroke="#373535" stroke-width="1.6254" stroke-linecap="round" stroke-linejoin="round" stroke-miterlimit="3" d="
									M119.419,160.152c-0.672-0.302-1.736-0.705-3.192-1.209c-1.456-0.493-2.526-0.896-3.208-1.21"/>
								
									<path fill="none" stroke="#373535" stroke-width="1.6254" stroke-linecap="round" stroke-linejoin="round" stroke-miterlimit="3" d="
									M119.419,160.152c-1.287-0.527-2.924-0.958-4.905-1.294"/>
								
									<path fill="none" stroke="#373535" stroke-width="1.6254" stroke-linecap="round" stroke-linejoin="round" stroke-miterlimit="3" d="
									M114.513,158.858c1.501,0.337,3.758,0.986,6.771,1.949"/>
								
									<path fill="none" stroke="#373535" stroke-width="1.6254" stroke-linecap="round" stroke-linejoin="round" stroke-miterlimit="3" d="
									M110.901,158.775c0.18-0.269,0.677-0.364,1.495-0.286"/>
								
									<path fill="none" stroke="#373535" stroke-width="1.6254" stroke-linecap="round" stroke-linejoin="round" stroke-miterlimit="3" d="
									M113.219,157.464c-10.26-4.502-18.068-8.081-23.422-10.736c-9.723-4.671-17.495-7.6-23.321-8.787"/>
								
									<line fill="none" stroke="#373535" stroke-width="1.6254" stroke-linecap="round" stroke-linejoin="round" stroke-miterlimit="3" x1="153.863" y1="136.646" x2="152.098" y2="135.807"/>
								
									<path fill="none" stroke="#373535" stroke-width="1.6254" stroke-linecap="round" stroke-linejoin="round" stroke-miterlimit="3" d="
									M153.863,136.646l-2.589-1.107c-3.057-1.243-6.176-1.866-9.359-1.866c-1.994-0.078-3.841,0.448-5.544,1.579
									c-3.864,2.823-6.027,6.621-6.486,11.393c-0.661,7.874,2.145,14.259,8.418,19.154"/>
								
									<path fill="none" stroke="#373535" stroke-width="1.6254" stroke-linecap="round" stroke-linejoin="round" stroke-miterlimit="3" d="
									M207.46,177.744c-8.691-4.021-14.153-8.682-16.382-13.979c-5.062-12.433-3.797-24.53,3.798-36.291
									c0.391-0.493,1.193-1.354,2.402-2.588c6.699-7.259,14.629-12.35,23.791-15.273l2.957-2.033"/>
								
									<line fill="none" stroke="#373535" stroke-width="1.6254" stroke-linecap="round" stroke-linejoin="round" stroke-miterlimit="3" x1="144.05" y1="168.486" x2="143.496" y2="169.14"/>
								
									<polyline fill="none" stroke="#373535" stroke-width="1.6254" stroke-linecap="round" stroke-linejoin="round" stroke-miterlimit="3" points="
									138.304,165.798 141.647,168.116 143.496,169.14 								"/>
								
									<path fill="none" stroke="#373535" stroke-width="1.6254" stroke-linecap="round" stroke-linejoin="round" stroke-miterlimit="3" d="
									M138.304,165.798c-3.26-0.516-5.942-1.099-8.049-1.748c-1.949-0.47-5.002-1.584-9.157-3.343"/>
								
									<path fill="none" stroke="#373535" stroke-width="1.6254" stroke-linecap="round" stroke-linejoin="round" stroke-miterlimit="3" d="
									M144.791,186.447c-2.151-0.09-3.63-0.275-4.436-0.555c-0.986-0.471-1.546-0.751-1.681-0.84
									c-1.356-0.997-2.033-2.598-2.033-4.806c0-1.725,0.184-2.867,0.555-3.427c0.302-0.56,0.997-1.495,2.083-2.806
									c0.864-1.03,2.269-2.655,4.218-4.873"/>
								
									<path fill="none" stroke="#373535" stroke-width="1.6254" stroke-linecap="round" stroke-linejoin="round" stroke-miterlimit="3" d="
									M146.269,189.404c-3.529,0-6.368-0.493-8.519-1.478c-0.179-0.056-0.363-0.179-0.554-0.37
									c-1.299-0.696-2.269-1.534-2.907-2.52c-0.65-1.009-0.974-2.201-0.974-3.579c0-2.397,0.615-4.654,1.849-6.771
									c1.455-2.508,3.46-4.514,6.015-6.015"/>
								
									<path fill="none" stroke="#373535" stroke-width="1.6254" stroke-linecap="round" stroke-linejoin="round" stroke-miterlimit="3" d="
									M146.269,189.404c-0.672-0.582-1.104-1.349-1.294-2.302c-0.056-0.314-0.117-0.532-0.184-0.654"/>
								
									<path fill="none" stroke="#373535" stroke-width="1.6254" stroke-linecap="round" stroke-linejoin="round" stroke-miterlimit="3" d="
									M161.542,184.414c-6.967,1.354-11.75,2.033-14.349,2.033h-2.402"/>
								
									<path fill="none" stroke="#373535" stroke-width="1.6254" stroke-linecap="round" stroke-linejoin="round" stroke-miterlimit="3" d="
									M195.162,86.089c2.979,1.322,5.443,2.342,7.392,3.058c4.021,1.747,7.942,4.279,11.761,7.595
									c3.54,3.36,6.565,6.788,9.073,10.282c0.248,0.247,0.459,0.431,0.639,0.555"/>
								
									<path fill="none" stroke="#373535" stroke-width="1.6254" stroke-linecap="round" stroke-linejoin="round" stroke-miterlimit="3" d="
									M194.775,85.267c-0.078-0.235-0.23-0.554-0.453-0.958c-0.281-0.504-0.498-0.896-0.654-1.176
									c-2.464-7.986-5.921-13.447-10.367-16.382c-3.774-2.554-8.832-3.791-15.172-3.713c-5.085,0-9.163,0.498-12.231,1.495
									c-1.748,0.56-4.028,1.697-6.838,3.41l-0.32,0.184c-0.124,0.067-0.207,0.101-0.251,0.101"/>
								<path fill="#373535" d="M143.496,169.14l0.555-0.654L143.496,169.14l-1.849-1.024l-3.343-2.319
									c-6.273-4.896-9.079-11.28-8.418-19.154c0.459-4.771,2.621-8.569,6.486-11.393c1.702-1.131,3.55-1.657,5.544-1.579
									c3.182,0,6.301,0.622,9.359,1.866l8.519,3.797l-9.074-1.866h-0.184c-3.383-0.078-6.715,0.544-9.997,1.866
									c-3.272,1.119-4.906,3.556-4.906,7.309c-0.179,8.491,3.242,15.183,10.266,20.078l0.556,0.286
									c1.612,0.997,3.465,1.831,5.561,2.504c7.337,2.565,14.835,2.531,22.498-0.101v1.209c-6.99,2.901-14.304,3.544-21.944,1.932
									C149.208,171.89,146.184,170.755,143.496,169.14z"/>
								<path fill="none" stroke="#373535" stroke-width="1.6254" stroke-miterlimit="10" d="M143.496,169.14
									c2.687,1.613,5.712,2.75,9.073,3.411c7.639,1.612,14.953,0.969,21.944-1.932v-1.209c-7.662,2.632-15.161,2.666-22.498,0.101
									c-2.096-0.672-3.949-1.507-5.561-2.504l-0.556-0.286c-7.023-4.896-10.445-11.587-10.266-20.078
									c0-3.752,1.635-6.189,4.906-7.309c3.281-1.322,6.614-1.944,9.997-1.866h0.184l9.074,1.866l-8.519-3.797
									c-3.057-1.243-6.176-1.866-9.359-1.866c-1.994-0.078-3.841,0.448-5.544,1.579c-3.864,2.823-6.027,6.621-6.486,11.393
									c-0.661,7.874,2.145,14.259,8.418,19.154l3.343,2.319L143.496,169.14l0.555-0.654"/>
							</g>
						</g>
					</g>
				</g>
			</g>
		</g>
	</g>
</g>
</svg>
