<?xml version="1.0" encoding="utf-8"?>
<!-- Generator: Adobe Illustrator 17.0.1, SVG Export Plug-In . SVG Version: 6.00 Build 0)  -->
<!DOCTYPE svg PUBLIC "-//W3C//DTD SVG 1.1//EN" "http://www.w3.org/Graphics/SVG/1.1/DTD/svg11.dtd">
<svg version="1.1" id="Layer_1" xmlns="http://www.w3.org/2000/svg" xmlns:xlink="http://www.w3.org/1999/xlink" x="0px" y="0px"
	 width="257.017px" height="233.013px" viewBox="2.429 18.172 257.017 233.013"
	 enable-background="new 2.429 18.172 257.017 233.013" xml:space="preserve">
<g>
	<g id="Layer_1_1_">
		<g>
			<g id="Layer_1_3_">
				<g>
					<g>
						<path fill="#FFFFFF" d="M254.72,86.401l-1.928,1.929c-0.091,0.09-0.129,0.302-0.117,0.637c0,0.333-0.052,0.578-0.154,0.733
							c-1.028,1.26-1.691,2.006-1.987,2.237c-0.283,0.797-0.886,1.42-1.812,1.871c-1.775,0.9-5.183,1.35-10.223,1.35
							c-0.411,0-1.851-0.277-4.322-0.83c-2.609-0.566-3.941-0.849-3.993-0.849c-0.179,0.27-0.283,0.572-0.308,0.907
							c0,0.129-0.026,0.431-0.077,0.907c0,0.193,0.155,0.688,0.463,1.485c0.295,0.746,0.444,1.582,0.444,2.508
							c0,0.54-0.534,1.093-1.602,1.658c-1.028,0.566-1.543,1.189-1.543,1.871c0,0.283,0.103,0.63,0.309,1.042
							c0.218,0.36,0.327,0.719,0.327,1.08c0,0.309-0.386,0.912-1.157,1.813c-0.733,0.848-1.1,1.748-1.1,2.7
							c0,0.129,0.045,0.406,0.134,0.83c0.129,0.437,0.194,0.72,0.194,0.849c0,0.168-0.021,0.25-0.059,0.25l-0.27,0.136
							c-1.272-0.284-2.089-0.245-2.45,0.116c-0.206,0.206-0.308,0.527-0.308,0.964c0,0.232,0.103,0.553,0.308,0.965
							c0.218,0.373,0.327,0.655,0.327,0.849v0.83c-1.505,0.064-2.468,0.276-2.893,0.637c-0.296,0.18-0.444,0.463-0.444,0.849
							c0,0.168,0.083,0.36,0.25,0.579l0.521,0.964c-1.016,0.322-1.62,0.726-1.813,1.216c-0.09,0.218-0.172,0.604-0.25,1.157
							c-0.168,0.476-0.508,0.887-1.023,1.234l-1.872,1.216c-0.785,0.488-1.298,1.26-1.543,2.315
							c-0.116,0.347-0.334,1.209-0.655,2.585c-0.604,1.529-1.094,3.202-1.466,5.016c-0.129,0.488-0.431,2.16-0.907,5.014
							c-0.217,0.18-1.357,0.932-3.414,2.257c-1.479,0.888-2.424,1.659-2.836,2.315c-0.604,1.389-1.505,3.061-2.701,5.016
							c-0.592,1.311-0.996,2.173-1.216,2.584c-0.578,0.978-1.44,1.748-2.584,2.315c-1.286,0.617-2.553,1.434-3.801,2.45
							c-0.745,0.565-1.343,1.079-1.794,1.543c-1.26,0.758-2.418,2.128-3.472,4.109c-1.465,2.609-2.198,4.737-2.198,6.384
							c0,3.499-0.193,6.373-0.579,8.622c-1.041,5.53-1.64,9.021-1.795,10.473c-0.308,1.493-0.63,4.99-0.964,10.494
							c-0.231,3.035-0.379,5.504-0.444,7.407c-0.025,0.347-0.129,1.195-0.31,2.546c-0.128,1.298-0.116,2.243,0.039,2.836
							c0.669,2.597,1.851,6.248,3.549,10.956c2.25,6.237,3.619,9.542,4.108,9.914c0.116,0.913,0.225,1.602,0.329,2.064
							c0.54,1.556,1.826,3.054,3.856,4.495c2.689,1.799,4.746,3.26,6.173,4.379c2.11,1.71,3.163,3.17,3.163,4.379
							c0,0.733-0.365,1.595-1.098,2.584c-1.196,1.454-3.016,2.18-5.459,2.18c-1.851,0-4.019-0.727-6.5-2.18l-4.322-2.314
							c-2.096-0.386-3.491-1.12-4.186-2.199c-0.476-1.107-0.796-1.961-0.965-2.565c-0.514-1.144-0.982-2.925-1.408-5.343
							c-0.309-2.212-0.592-3.891-0.848-5.035c-1.596-5.851-2.515-9.304-2.759-10.357c-0.707-2.482-1.241-4.218-1.601-5.209
							c-0.09-0.218-0.134-0.392-0.134-0.521c-0.129-0.257-0.238-0.45-0.327-0.579v-0.192c-0.155-0.259-0.238-0.404-0.252-0.445
							l-0.057-0.25c-1.84-3.871-3.857-7.8-6.057-11.786c-0.295-0.592-2.719-4.945-7.271-13.059
							c-0.951-1.672-1.575-2.746-1.872-3.222c-0.167-0.309-0.637-0.823-1.409-1.543c-0.707-0.707-1.093-1.286-1.157-1.736
							c-0.09-0.553-0.134-1.647-0.134-3.279c0.038-1.08,0.064-1.806,0.077-2.181c0.024-0.565,0.02-0.932-0.02-1.1
							c-0.052-1.426-0.179-2.546-0.386-3.356c-0.076-0.257-0.399-0.791-0.964-1.601c-0.514-0.797-0.772-1.375-0.772-1.736
							c0-0.4-0.064-0.939-0.193-1.62c-0.206-0.76-0.308-1.293-0.308-1.602c0.167-0.708,0.207-1.312,0.115-1.813
							c-0.115-0.746-0.841-1.086-2.179-1.023v-0.134c0.141-0.309,0.354-0.631,0.637-0.965c0.218-0.218,0.327-0.514,0.327-0.887
							c0.066-0.257,0.046-0.444-0.057-0.558c-0.103-0.103-0.302-0.155-0.599-0.155l-1.794,0.193v-0.057
							c0-0.026,0.322-0.329,0.965-0.907c0.141-0.077,0.276-0.18,0.406-0.308c0.064-0.077,0.141-0.168,0.231-0.27
							c0.129-0.09,0.193-0.264,0.193-0.521c0-0.424-0.341-0.637-1.023-0.637c-6.969,0-10.422-0.218-10.359-0.656
							c0.206-0.269,0.225-0.462,0.059-0.579c-0.296-0.244-1.389-0.392-3.279-0.444c-2.212-0.179-4.122-0.199-5.729-0.057
							c-1.067,0.076-2.032,0.116-2.893,0.116c-0.077,0-0.186-0.193-0.329-0.579c0-0.321-0.102-0.617-0.309-0.888
							c-0.244-0.347-0.547-0.521-0.907-0.521c-3.523,0.218-5.388,0.327-5.594,0.327c-0.978,0-1.904-0.217-2.777-0.655
							c0-0.128-0.02-0.193-0.057-0.193h-0.25c-0.141-0.103-0.386-0.103-0.733,0c-0.386,0.141-0.637,0.231-0.753,0.27
							c-1.093,0.309-2.148,0.714-3.163,1.216c-0.837,0.36-2.36,1.15-4.572,2.372c-0.681,0.372-1.711,1.107-3.086,2.199
							c-1.144,0.964-1.89,1.652-2.237,2.064c-0.193,0.167-0.444,0.565-0.751,1.196c-0.309,0.643-0.489,1.144-0.541,1.505
							c0,1.35-0.674,3.877-2.025,7.58c-0.077,0.232-0.039,0.515,0.116,0.849c0.257,0.565,0.399,0.886,0.425,0.964
							c-0.039,0.168-0.059,0.469-0.059,0.907c0,1.557,1.241,3.954,3.723,7.195c2.404,3.24,3.607,5.104,3.607,5.594
							c0,0.939-0.9,1.865-2.7,2.777c-1.71,0.862-3.575,1.293-5.594,1.293c-0.077,0-0.295-0.064-0.655-0.193
							c-0.296-0.09-0.508-0.134-0.637-0.134c-0.643-2.083-0.964-3.846-0.964-5.286c-0.63-0.901-1.016-1.479-1.157-1.737
							c-0.09,0.746-0.136,1.325-0.136,1.737c0,2.353,0.495,5.014,1.486,7.985c0.848,2.315,1.96,4.951,3.337,7.909
							c0.939,1.942,1.672,3.299,2.199,4.07c0.978,1.377,2.244,2.682,3.8,3.916c1.724,1.388,3.054,2.72,3.993,3.993
							c1.157,1.543,1.736,2.893,1.736,4.05c0,0.476-1.357,1.164-4.07,2.064c-2.623,0.901-5.15,1.351-7.58,1.351
							c-0.502,0-1.897-0.791-4.186-2.373c-1.132-0.835-2.269-1.613-3.414-2.334c-0.887-1.375-1.402-3.131-1.543-5.265
							c-0.309-3.215-0.565-5.273-0.771-6.173c-0.103-0.452-0.386-1.248-0.849-2.392c-0.656-1.62-1.209-2.99-1.659-4.108
							c-0.9-2.11-1.35-4.084-1.35-5.922c0-3.87-0.025-6.062-0.077-6.577c-0.116-2.289-0.502-4.623-1.157-7.002
							c-0.231-0.772-0.315-1.91-0.25-3.415c0.129-1.414,0.193-2.508,0.193-3.279c0-1.441-0.174-2.771-0.521-3.993v-0.193
							c0-0.913-0.9-3.254-2.7-7.022c-1.697-3.356-2.662-5.175-2.893-5.458c-1.826-2.084-3.498-4.957-5.016-8.622
							c-1.016-2.623-1.917-3.935-2.7-3.935c-0.154,0-0.411,0.045-0.771,0.134c-0.425,0.129-0.643,0.193-0.656,0.193
							c-0.052-0.681-0.263-1.241-0.637-1.678c-0.038-0.141-0.379-0.445-1.023-0.907c-0.565-0.478-0.868-0.77-0.907-0.878
							l0.057,0.183c-0.025,0.077-0.141,0.218-0.347,0.424c-0.206,0.206-0.347,0.424-0.424,0.656
							c-1.016,0.385-1.722,1.009-2.121,1.871l-1.216,2.584l-2.064,1.737c-1.03,0.835-1.801,1.864-2.315,3.086
							c-0.347,0.862-1.247,2.488-2.7,4.88c-0.154,0.206-0.309,0.617-0.463,1.234c-0.103,0.527-0.232,0.933-0.385,1.216
							c-0.064,0.155-0.663,0.54-1.795,1.158c-1.067,0.694-1.602,1.079-1.602,1.157l0.193,0.386c0.128,0.295,0.192,0.469,0.192,0.521
							c0,0.796-1.633,2.771-4.9,5.921c-0.025,0.025-0.295,0.18-0.81,0.463c-0.592,0.321-1.175,0.662-1.755,1.023
							c-1.273,0.643-2.071,1.175-2.392,1.602c-0.361,0.424-1.388,0.83-3.086,1.216c-1.504,0.334-2.257,0.617-2.257,0.848l0.385,0.83
							c-0.231,0.36-0.919,0.572-2.064,0.637c-1.042,0.077-1.659,0.315-1.852,0.714c-0.334,0.541-1.041,0.907-2.122,1.1
							c-1.08,0.193-1.62,0.341-1.62,0.445l0.655,0.462c-0.179,0.141-0.334,0.225-0.462,0.252c-2.264,0.63-3.98,1.209-5.151,1.736
							c-0.771,0.36-1.974,1.067-3.607,2.121c-0.81,0.503-2.455,1.042-4.937,1.62c-2.289,0.463-3.73,0.695-4.32,0.695
							c-0.592-0.116-1.466-0.217-2.623-0.308c-1.595-0.193-2.541-0.109-2.836,0.252c-0.039,0-0.168,0.257-0.386,0.771
							c-0.232,0.476-0.527,0.714-0.887,0.714c-0.681,0-1.434-0.238-2.257-0.714c-0.488-0.206-0.874-0.437-1.157-0.694
							c-0.257-0.218-0.386-0.418-0.386-0.598c0-0.309,0.708-1.337,2.122-3.087c1.377-1.774,2.064-2.996,2.064-3.664
							c0-0.54-0.154-1.144-0.462-1.813c-0.334-0.745-0.502-1.26-0.502-1.543c0-0.257,0.617-0.81,1.851-1.658
							c1.337-0.913,2.244-2.18,2.72-3.8c0.231-0.835,0.617-1.801,1.157-2.893c0.501-1.144,0.919-2.071,1.254-2.777
							c0.257-0.643,1.221-2.848,2.893-6.617c1.337-2.945,2.006-4.532,2.006-4.764c0-0.218-0.129-0.566-0.386-1.042
							c-0.308-0.476-0.463-0.772-0.463-0.887c0-0.231,1.035-2.25,3.106-6.055l0.25,0.251c0.746-0.874,1.665-2.372,2.758-4.494
							c1.08-1.967,1.62-3.124,1.62-3.472c0-0.179-0.109-0.372-0.327-0.578c-0.295-0.167-0.444-0.385-0.444-0.656
							c0.964-1.26,1.652-2.205,2.064-2.835c1.427-2.058,2.366-3.749,2.816-5.073c0.926-3.047,1.961-5.774,3.106-8.179
							c0.398-0.656,0.977-1.961,1.736-3.916c0.54-1.414,1.138-2.791,1.794-4.129c0.708-1.221,1.46-2.829,2.257-4.823
							c0.488-1.17,0.81-1.935,0.964-2.296c0.218-0.553,0.329-0.881,0.329-0.984l-0.193-0.386c-0.091-0.129-0.136-0.302-0.136-0.521
							c0-0.168,0.174-0.488,0.521-0.964c0.386-0.386,0.579-0.771,0.579-1.157c0-1.749,0.553-3.51,1.659-5.286
							c0.926-1.312,2.108-2.553,3.548-3.723c0.54-0.437,1.016-0.835,1.428-1.196l0.444-0.424c0-0.283-0.238-0.56-0.714-0.83
							c-0.617-0.295-1.177-0.444-1.678-0.444v-0.136c1.067-0.887,2.096-2.026,3.086-3.414c0.206-0.257,0.978-1.305,2.314-3.144
							c1.763-2.302,4.533-4.302,8.314-5.999c0.437-0.168,1.575-0.681,3.414-1.543c0.926-0.476,2.122-0.989,3.588-1.543
							c1.003-0.27,4.372-0.803,10.107-1.601c0.926-0.245,3.137-0.758,6.636-1.543c3.922-0.823,6.925-1.234,9.007-1.234
							c1.878,0,3.575,0.09,5.093,0.27c0.257,0.077,0.488,0.116,0.694,0.116c0,0.141,1.202,0.508,3.607,1.1
							c2.804,0.642,5.053,0.964,6.751,0.964c2.611,0,4.436-0.148,5.479-0.444c1.042-0.257,2.347-0.385,3.916-0.385
							c1.44,0,3.247,0.257,5.42,0.771c0.72,0.168,1.878,0.444,3.471,0.83c0.463,0.038,1.878,0.211,4.243,0.521
							c1.645,0.193,2.636,0.341,2.97,0.444l1.736,0.849c1.055,0.515,1.929,0.771,2.623,0.771l2.334-0.192
							c1.363-0.18,2.861-0.27,4.494-0.27l5.093,0.386c1.737,0,3.106-0.103,4.109-0.308c0.733,0.051,2.019,0.733,3.857,2.044
							c0.54,0.386,1.768,0.945,3.684,1.678c1.658,0.656,2.899,1.042,3.723,1.157v0.385l0.134,0.136h0.386
							c0.179,0,0.758-0.624,1.736-1.871c0.733-0.939,1.293-1.665,1.679-2.18c0.141-0.168,1.209-0.578,3.201-1.234
							c1.981-0.823,2.97-1.743,2.97-2.758c0-0.155-0.083-0.373-0.25-0.656c-0.129-0.296-0.193-0.508-0.193-0.637
							c0-0.322,0.488-0.708,1.465-1.157c1.028-0.438,1.544-0.887,1.544-1.35c0-4.038-0.663-6.057-1.988-6.057v-0.25
							c0.052-0.129,0.2-0.341,0.444-0.637l0.521-0.521l-0.057-0.329h-0.27c-0.051-0.681,0.252-1.324,0.907-1.928
							c0.734-0.604,1.1-0.965,1.1-1.08l-0.077-0.213c-0.257-0.077-0.578-0.116-0.964-0.116l1.871-1.042
							c0.283,0,0.457-0.084,0.521-0.25c0.077-0.129,0.116-0.385,0.116-0.771c-0.592-4.474-0.886-7.927-0.886-10.359
							c0-0.27,0.083-1.279,0.25-3.029c0.129-0.9,0.193-1.974,0.193-3.221c0-2.906,0.193-5.009,0.579-6.307
							c0.269-0.772,0.488-1.402,0.655-1.891c0.309-0.862,0.624-1.665,0.946-2.411c0.217-0.566,0.456-1.189,0.712-1.871
							c0.129-0.129,0.452-0.406,0.965-0.83c0.797-0.476,1.826-0.714,3.086-0.714c2.893,0,7.807,2.958,14.738,8.873
							c1.157,0.951,3.542,2.951,7.155,5.999l0.772,0.617c0.488-0.193,0.874-0.392,1.157-0.597l0.714-0.483
							c0.322-0.257,0.534-0.385,0.637-0.385c0,0.013,0.045,0.122,0.136,0.327c0.038,0.09,0.186,0.136,0.444,0.136
							c0.36,0,0.81-0.154,1.35-0.463l0.83-0.502c-0.052,0.36-0.006,0.746,0.136,1.157c0.193,0.643,0.598,0.964,1.216,0.964
							c0.231,0,0.495-0.129,0.792-0.386c0.308-0.257,0.603-0.623,0.886-1.1c0.18,0.309,0.27,0.694,0.27,1.157
							c0.038,0.025,0.116,0.046,0.231,0.059c0.103,0.013,0.174,0.038,0.213,0.077c0.141,0.206,0.418,0.309,0.831,0.309
							c0.051,0,0.172-0.057,0.365-0.174c0.116-0.077,0.361-0.232,0.733-0.463c0.218,0,0.329,0.064,0.329,0.193
							c0.076,0.091,0.179,0.136,0.309,0.136c0.206,0,3.465-2.746,9.779-8.236c7.085-5.543,12.196-8.313,15.335-8.313
							c0.617,0,1.041,0.367,1.272,1.1c0.129,0.373,0.193,0.803,0.193,1.293c0,3.691-1.562,9.052-4.687,16.087
							c-1.581,3.433-3.002,6.391-4.263,8.873c-0.141,0.309-0.29,0.566-0.444,0.772c0.076,0.077,0.122,0.141,0.134,0.193
							c0.399,0.785,0.72,1.62,0.965,2.507c0.179,0.476,0.971,2.321,2.372,5.536c0.694,1.441,1.041,3.009,1.041,4.706
							c0,1.312-0.154,2.36-0.462,3.144c-0.168,0.488-0.296,1.003-0.386,1.543c-0.141,0.193-0.245,0.437-0.308,0.733
							c-0.064,0.322-0.045,0.547,0.057,0.676l0.445,0.463c1.182,1.248,3.285,2.854,6.307,4.823c2.482,1.595,4.224,2.778,5.227,3.549
							c0.27,0.218,0.656,0.495,1.158,0.83c1.878,1.761,2.815,3.433,2.815,5.016v0.077c0,0.476-0.038,0.907-0.116,1.293
							C256.701,83.674,255.93,85.064,254.72,86.401z"/>
						<path fill="none" stroke="#373535" stroke-width="1.7236" d="M254.72,86.401l-1.928,1.929
							c-0.091,0.09-0.129,0.302-0.117,0.637c0,0.333-0.052,0.578-0.154,0.733c-1.028,1.26-1.691,2.006-1.987,2.237
							c-0.283,0.797-0.886,1.42-1.812,1.871c-1.775,0.9-5.183,1.35-10.223,1.35c-0.411,0-1.851-0.277-4.322-0.83
							c-2.609-0.566-3.941-0.849-3.993-0.849c-0.179,0.27-0.283,0.572-0.308,0.907c0,0.129-0.026,0.431-0.077,0.907
							c0,0.193,0.155,0.688,0.463,1.485c0.295,0.746,0.444,1.582,0.444,2.508c0,0.54-0.534,1.093-1.602,1.658
							c-1.028,0.566-1.543,1.189-1.543,1.871c0,0.283,0.103,0.63,0.309,1.042c0.218,0.36,0.327,0.719,0.327,1.08
							c0,0.309-0.386,0.912-1.157,1.813c-0.733,0.848-1.1,1.748-1.1,2.7c0,0.129,0.045,0.406,0.134,0.83
							c0.129,0.437,0.194,0.72,0.194,0.849c0,0.168-0.021,0.25-0.059,0.25l-0.27,0.136c-1.272-0.284-2.089-0.245-2.45,0.116
							c-0.206,0.206-0.308,0.527-0.308,0.964c0,0.232,0.103,0.553,0.308,0.965c0.218,0.373,0.327,0.655,0.327,0.849v0.83
							c-1.505,0.064-2.468,0.276-2.893,0.637c-0.296,0.18-0.444,0.463-0.444,0.849c0,0.168,0.083,0.36,0.25,0.579l0.521,0.964
							c-1.016,0.322-1.62,0.726-1.813,1.216c-0.09,0.218-0.172,0.604-0.25,1.157c-0.168,0.476-0.508,0.887-1.023,1.234l-1.872,1.216
							c-0.785,0.488-1.298,1.26-1.543,2.315c-0.116,0.347-0.334,1.209-0.655,2.585c-0.604,1.529-1.094,3.202-1.466,5.016
							c-0.129,0.488-0.431,2.16-0.907,5.014c-0.217,0.18-1.357,0.932-3.414,2.257c-1.479,0.888-2.424,1.659-2.836,2.315
							c-0.604,1.389-1.505,3.061-2.701,5.016c-0.592,1.311-0.996,2.173-1.216,2.584c-0.578,0.978-1.44,1.748-2.584,2.315
							c-1.286,0.617-2.553,1.434-3.801,2.45c-0.745,0.565-1.343,1.079-1.794,1.543c-1.26,0.758-2.418,2.128-3.472,4.109
							c-1.465,2.609-2.198,4.737-2.198,6.384c0,3.499-0.193,6.373-0.579,8.622c-1.041,5.53-1.64,9.021-1.795,10.473
							c-0.308,1.493-0.63,4.99-0.964,10.494c-0.231,3.035-0.379,5.504-0.444,7.407c-0.025,0.347-0.129,1.195-0.31,2.546
							c-0.128,1.298-0.116,2.243,0.039,2.836c0.669,2.597,1.851,6.248,3.549,10.956c2.25,6.237,3.619,9.542,4.108,9.914
							c0.116,0.913,0.225,1.602,0.329,2.064c0.54,1.556,1.826,3.054,3.856,4.495c2.689,1.799,4.746,3.26,6.173,4.379
							c2.11,1.71,3.163,3.17,3.163,4.379c0,0.733-0.365,1.595-1.098,2.584c-1.196,1.454-3.016,2.18-5.459,2.18
							c-1.851,0-4.019-0.727-6.5-2.18l-4.322-2.314c-2.096-0.386-3.491-1.12-4.186-2.199c-0.476-1.107-0.796-1.961-0.965-2.565
							c-0.514-1.144-0.982-2.925-1.408-5.343c-0.309-2.212-0.592-3.891-0.848-5.035c-1.596-5.851-2.515-9.304-2.759-10.357
							c-0.707-2.482-1.241-4.218-1.601-5.209c-0.09-0.218-0.134-0.392-0.134-0.521c-0.129-0.257-0.238-0.45-0.327-0.579v-0.192
							c-0.155-0.259-0.238-0.404-0.252-0.445l-0.057-0.25c-1.84-3.871-3.857-7.8-6.057-11.786
							c-0.295-0.592-2.719-4.945-7.271-13.059c-0.951-1.672-1.575-2.746-1.872-3.222c-0.167-0.309-0.637-0.823-1.409-1.543
							c-0.707-0.707-1.093-1.286-1.157-1.736c-0.09-0.553-0.134-1.647-0.134-3.279c0.038-1.08,0.064-1.806,0.077-2.181
							c0.024-0.565,0.02-0.932-0.02-1.1c-0.052-1.426-0.179-2.546-0.386-3.356c-0.076-0.257-0.399-0.791-0.964-1.601
							c-0.514-0.797-0.772-1.375-0.772-1.736c0-0.4-0.064-0.939-0.193-1.62c-0.206-0.76-0.308-1.293-0.308-1.602
							c0.167-0.708,0.207-1.312,0.115-1.813c-0.115-0.746-0.841-1.086-2.179-1.023v-0.134c0.141-0.309,0.354-0.631,0.637-0.965
							c0.218-0.218,0.327-0.514,0.327-0.887c0.066-0.257,0.046-0.444-0.057-0.558c-0.103-0.103-0.302-0.155-0.599-0.155
							l-1.794,0.193v-0.057c0-0.026,0.322-0.329,0.965-0.907c0.141-0.077,0.276-0.18,0.406-0.308
							c0.064-0.077,0.141-0.168,0.231-0.27c0.129-0.09,0.193-0.264,0.193-0.521c0-0.424-0.341-0.637-1.023-0.637
							c-6.969,0-10.422-0.218-10.359-0.656c0.206-0.269,0.225-0.462,0.059-0.579c-0.296-0.244-1.389-0.392-3.279-0.444
							c-2.212-0.179-4.122-0.199-5.729-0.057c-1.067,0.076-2.032,0.116-2.893,0.116c-0.077,0-0.186-0.193-0.329-0.579
							c0-0.321-0.102-0.617-0.309-0.888c-0.244-0.347-0.547-0.521-0.907-0.521c-3.523,0.218-5.388,0.327-5.594,0.327
							c-0.978,0-1.904-0.217-2.777-0.655c0-0.128-0.02-0.193-0.057-0.193h-0.25c-0.141-0.103-0.386-0.103-0.733,0
							c-0.386,0.141-0.637,0.231-0.753,0.27c-1.093,0.309-2.148,0.714-3.163,1.216c-0.837,0.36-2.36,1.15-4.572,2.372
							c-0.681,0.372-1.711,1.107-3.086,2.199c-1.144,0.964-1.89,1.652-2.237,2.064c-0.193,0.167-0.444,0.565-0.751,1.196
							c-0.309,0.643-0.489,1.144-0.541,1.505c0,1.35-0.674,3.877-2.025,7.58c-0.077,0.232-0.039,0.515,0.116,0.849
							c0.257,0.565,0.399,0.886,0.425,0.964c-0.039,0.168-0.059,0.469-0.059,0.907c0,1.557,1.241,3.954,3.723,7.195
							c2.404,3.24,3.607,5.104,3.607,5.594c0,0.939-0.9,1.865-2.7,2.777c-1.71,0.862-3.575,1.293-5.594,1.293
							c-0.077,0-0.295-0.064-0.655-0.193c-0.296-0.09-0.508-0.134-0.637-0.134c-0.643-2.083-0.964-3.846-0.964-5.286
							c-0.63-0.901-1.016-1.479-1.157-1.737c-0.09,0.746-0.136,1.325-0.136,1.737c0,2.353,0.495,5.014,1.486,7.985
							c0.848,2.315,1.96,4.951,3.337,7.909c0.939,1.942,1.672,3.299,2.199,4.07c0.978,1.377,2.244,2.682,3.8,3.916
							c1.724,1.388,3.054,2.72,3.993,3.993c1.157,1.543,1.736,2.893,1.736,4.05c0,0.476-1.357,1.164-4.07,2.064
							c-2.623,0.901-5.15,1.351-7.58,1.351c-0.502,0-1.897-0.791-4.186-2.373c-1.132-0.835-2.269-1.613-3.414-2.334
							c-0.887-1.375-1.402-3.131-1.543-5.265c-0.309-3.215-0.565-5.273-0.771-6.173c-0.103-0.452-0.386-1.248-0.849-2.392
							c-0.656-1.62-1.209-2.99-1.659-4.108c-0.9-2.11-1.35-4.084-1.35-5.922c0-3.87-0.025-6.062-0.077-6.577
							c-0.116-2.289-0.502-4.623-1.157-7.002c-0.231-0.772-0.315-1.91-0.25-3.415c0.129-1.414,0.193-2.508,0.193-3.279
							c0-1.441-0.174-2.771-0.521-3.993v-0.193c0-0.913-0.9-3.254-2.7-7.022c-1.697-3.356-2.662-5.175-2.893-5.458
							c-1.826-2.084-3.498-4.957-5.016-8.622c-1.016-2.623-1.917-3.935-2.7-3.935c-0.154,0-0.411,0.045-0.771,0.134
							c-0.425,0.129-0.643,0.193-0.656,0.193c-0.052-0.681-0.263-1.241-0.637-1.678c-0.038-0.141-0.379-0.445-1.023-0.907
							c-0.399-0.337-0.665-0.581-0.8-0.733c-0.059,0.102-0.191,0.257-0.396,0.462c-0.206,0.206-0.347,0.424-0.424,0.656
							c-1.016,0.385-1.722,1.009-2.121,1.871l-1.216,2.584l-2.064,1.737c-1.03,0.835-1.801,1.864-2.315,3.086
							c-0.347,0.862-1.247,2.488-2.7,4.88c-0.154,0.206-0.309,0.617-0.463,1.234c-0.103,0.527-0.232,0.933-0.385,1.216
							c-0.064,0.155-0.663,0.54-1.795,1.158c-1.067,0.694-1.602,1.079-1.602,1.157l0.193,0.386c0.128,0.295,0.192,0.469,0.192,0.521
							c0,0.796-1.633,2.771-4.9,5.921c-0.025,0.025-0.295,0.18-0.81,0.463c-0.592,0.321-1.175,0.662-1.755,1.023
							c-1.273,0.643-2.071,1.175-2.392,1.602c-0.361,0.424-1.388,0.83-3.086,1.216c-1.504,0.334-2.257,0.617-2.257,0.848l0.385,0.83
							c-0.231,0.36-0.919,0.572-2.064,0.637c-1.042,0.077-1.659,0.315-1.852,0.714c-0.334,0.541-1.041,0.907-2.122,1.1
							c-1.08,0.193-1.62,0.341-1.62,0.445l0.655,0.462c-0.179,0.141-0.334,0.225-0.462,0.252c-2.264,0.63-3.98,1.209-5.151,1.736
							c-0.771,0.36-1.974,1.067-3.607,2.121c-0.81,0.503-2.455,1.042-4.937,1.62c-2.289,0.463-3.73,0.695-4.32,0.695
							c-0.592-0.116-1.466-0.217-2.623-0.308c-1.595-0.193-2.541-0.109-2.836,0.252c-0.039,0-0.168,0.257-0.386,0.771
							c-0.232,0.476-0.527,0.714-0.887,0.714c-0.681,0-1.434-0.238-2.257-0.714c-0.488-0.206-0.874-0.437-1.157-0.694
							c-0.257-0.218-0.386-0.418-0.386-0.598c0-0.309,0.708-1.337,2.122-3.087c1.377-1.774,2.064-2.996,2.064-3.664
							c0-0.54-0.154-1.144-0.462-1.813c-0.334-0.745-0.502-1.26-0.502-1.543c0-0.257,0.617-0.81,1.851-1.658
							c1.337-0.913,2.244-2.18,2.72-3.8c0.231-0.835,0.617-1.801,1.157-2.893c0.501-1.144,0.919-2.071,1.254-2.777
							c0.257-0.643,1.221-2.848,2.893-6.617c1.337-2.945,2.006-4.532,2.006-4.764c0-0.218-0.129-0.566-0.386-1.042
							c-0.308-0.476-0.463-0.772-0.463-0.887c0-0.231,1.035-2.25,3.106-6.055l0.25,0.251c0.746-0.874,1.665-2.372,2.758-4.494
							c1.08-1.967,1.62-3.124,1.62-3.472c0-0.179-0.109-0.372-0.327-0.578c-0.295-0.167-0.444-0.385-0.444-0.656
							c0.964-1.26,1.652-2.205,2.064-2.835c1.427-2.058,2.366-3.749,2.816-5.073c0.926-3.047,1.961-5.774,3.106-8.179
							c0.398-0.656,0.977-1.961,1.736-3.916c0.54-1.414,1.138-2.791,1.794-4.129c0.708-1.221,1.46-2.829,2.257-4.823
							c0.488-1.17,0.81-1.935,0.964-2.296c0.218-0.553,0.329-0.881,0.329-0.984l-0.193-0.386c-0.091-0.129-0.136-0.302-0.136-0.521
							c0-0.168,0.174-0.488,0.521-0.964c0.386-0.386,0.579-0.771,0.579-1.157c0-1.749,0.553-3.51,1.659-5.286
							c0.926-1.312,2.108-2.553,3.548-3.723c0.54-0.437,1.016-0.835,1.428-1.196l0.444-0.424c0-0.283-0.238-0.56-0.714-0.83
							c-0.617-0.295-1.177-0.444-1.678-0.444v-0.136c1.067-0.887,2.096-2.026,3.086-3.414c0.206-0.257,0.978-1.305,2.314-3.144
							c1.763-2.302,4.533-4.302,8.314-5.999c0.437-0.168,1.575-0.681,3.414-1.543c0.926-0.476,2.122-0.989,3.588-1.543
							c1.003-0.27,4.372-0.803,10.107-1.601c0.926-0.245,3.137-0.758,6.636-1.543c3.922-0.823,6.925-1.234,9.007-1.234
							c1.878,0,3.575,0.09,5.093,0.27c0.257,0.077,0.488,0.116,0.694,0.116c0,0.141,1.202,0.508,3.607,1.1
							c2.804,0.642,5.053,0.964,6.751,0.964c2.611,0,4.436-0.148,5.479-0.444c1.042-0.257,2.347-0.385,3.916-0.385
							c1.44,0,3.247,0.257,5.42,0.771c0.72,0.168,1.878,0.444,3.471,0.83c0.463,0.038,1.878,0.211,4.243,0.521
							c1.645,0.193,2.636,0.341,2.97,0.444l1.736,0.849c1.055,0.515,1.929,0.771,2.623,0.771l2.334-0.192
							c1.363-0.18,2.861-0.27,4.494-0.27l5.093,0.386c1.737,0,3.106-0.103,4.109-0.308c0.733,0.051,2.019,0.733,3.857,2.044
							c0.54,0.386,1.768,0.945,3.684,1.678c1.658,0.656,2.899,1.042,3.723,1.157v0.385l0.134,0.136h0.386
							c0.179,0,0.758-0.624,1.736-1.871c0.733-0.939,1.293-1.665,1.679-2.18c0.141-0.168,1.209-0.578,3.201-1.234
							c1.981-0.823,2.97-1.743,2.97-2.758c0-0.155-0.083-0.373-0.25-0.656c-0.129-0.296-0.193-0.508-0.193-0.637
							c0-0.322,0.488-0.708,1.465-1.157c1.028-0.438,1.544-0.887,1.544-1.35c0-4.038-0.663-6.057-1.988-6.057v-0.25
							c0.052-0.129,0.2-0.341,0.444-0.637l0.521-0.521l-0.057-0.329h-0.27c-0.051-0.681,0.252-1.324,0.907-1.928
							c0.734-0.604,1.1-0.965,1.1-1.08l-0.077-0.213c-0.257-0.077-0.578-0.116-0.964-0.116l1.871-1.042
							c0.283,0,0.457-0.084,0.521-0.25c0.077-0.129,0.116-0.385,0.116-0.771c-0.592-4.474-0.886-7.927-0.886-10.359
							c0-0.27,0.083-1.279,0.25-3.029c0.129-0.9,0.193-1.974,0.193-3.221c0-2.906,0.193-5.009,0.579-6.307
							c0.269-0.772,0.488-1.402,0.655-1.891c0.309-0.862,0.624-1.665,0.946-2.411c0.217-0.566,0.456-1.189,0.712-1.871
							c0.129-0.129,0.452-0.406,0.965-0.83c0.797-0.476,1.826-0.714,3.086-0.714c2.893,0,7.807,2.958,14.738,8.873
							c1.157,0.951,3.542,2.951,7.155,5.999l0.772,0.617c0.488-0.193,0.874-0.392,1.157-0.597l0.714-0.483
							c0.322-0.257,0.534-0.385,0.637-0.385c0,0.013,0.045,0.122,0.136,0.327c0.038,0.09,0.186,0.136,0.444,0.136
							c0.36,0,0.81-0.154,1.35-0.463l0.83-0.502c-0.052,0.36-0.006,0.746,0.136,1.157c0.193,0.643,0.598,0.964,1.216,0.964
							c0.231,0,0.495-0.129,0.792-0.386c0.308-0.257,0.603-0.623,0.886-1.1c0.18,0.309,0.27,0.694,0.27,1.157
							c0.038,0.025,0.116,0.046,0.231,0.059c0.103,0.013,0.174,0.038,0.213,0.077c0.141,0.206,0.418,0.309,0.831,0.309
							c0.051,0,0.172-0.057,0.365-0.174c0.116-0.077,0.361-0.232,0.733-0.463c0.218,0,0.329,0.064,0.329,0.193
							c0.076,0.091,0.179,0.136,0.309,0.136c0.206,0,3.465-2.746,9.779-8.236c7.085-5.543,12.196-8.313,15.335-8.313
							c0.617,0,1.041,0.367,1.272,1.1c0.129,0.373,0.193,0.803,0.193,1.293c0,3.691-1.562,9.052-4.687,16.087
							c-1.581,3.433-3.002,6.391-4.263,8.873c-0.141,0.309-0.29,0.566-0.444,0.772c0.076,0.077,0.122,0.141,0.134,0.193
							c0.399,0.785,0.72,1.62,0.965,2.507c0.179,0.476,0.971,2.321,2.372,5.536c0.694,1.441,1.041,3.009,1.041,4.706
							c0,1.312-0.154,2.36-0.462,3.144c-0.168,0.488-0.296,1.003-0.386,1.543c-0.141,0.193-0.245,0.437-0.308,0.733
							c-0.064,0.322-0.045,0.547,0.057,0.676l0.445,0.463c1.182,1.248,3.285,2.854,6.307,4.823c2.482,1.595,4.224,2.778,5.227,3.549
							c0.27,0.218,0.656,0.495,1.158,0.83c1.878,1.761,2.815,3.433,2.815,5.016v0.077c0,0.476-0.038,0.907-0.116,1.293
							C256.701,83.674,255.93,85.064,254.72,86.401z M69.373,139.638c0.008,0.031,0.044,0.084,0.107,0.155"/>
					</g>
					<path fill="#FFFFFF" d="M14.149,159.198c0.129,0.295,0.367,0.444,0.714,0.444c1.414-0.604,2.629-0.321,3.646,0.848
						c0.527,0.617,1.054,1.441,1.582,2.469c0.102,0.116,0.912,0.521,2.43,1.216c1.428,0.669,2.392,1.357,2.894,2.064
						c0.488,0.681,0.463,1.672-0.077,2.97c-0.656,1.608-0.971,2.65-0.945,3.125c0.038,0.681,0.392,1.658,1.061,2.932
						c0.668,1.272,1.023,2.223,1.061,2.854c0,0.399-1.459,1.344-4.378,2.836c-0.719,0.257-1.17,0.406-1.35,0.444
						c-0.81,0.218-1.37,0.348-1.679,0.386c-0.771,0.167-1.221,0.296-1.35,0.386c-0.039,0.038-0.102,0.057-0.193,0.057
						c-0.129,0.052-0.753,0.077-1.871,0.077c-0.116,0-0.392,0.039-0.83,0.116c-0.257,0.052-0.599,0.077-1.023,0.077
						c-0.386,0-0.669-0.025-0.849-0.077c-0.154-0.038-0.341-0.057-0.56-0.057h-0.578l-1.1-0.193
						c-0.206,0.026-0.367,0.052-0.483,0.077c-0.193,0.026-0.354,0.064-0.483,0.116c-0.604,0.052-1.054,0.224-1.35,0.521
						c-0.038,0.038-0.122,0.27-0.25,0.694c-0.168,0.347-0.572,0.521-1.215,0.521c-0.36,0-0.663-0.064-0.907-0.193
						c-0.052-0.077-0.129-0.148-0.232-0.213c-0.102-0.052-0.174-0.09-0.213-0.116c-0.823-0.27-1.254-0.418-1.293-0.445
						c-0.527-0.141-0.83-0.334-0.907-0.578c-0.091-0.207-0.136-0.445-0.136-0.714c0-0.527,0.392-1.107,1.177-1.737
						c0.18-0.244,0.373-0.565,0.579-0.964c0.051-0.257,0.179-0.558,0.385-0.907c1.363-2.006,2.045-3.183,2.045-3.53l-0.502-1.543
						c-0.218-0.154-0.329-0.283-0.329-0.386c-0.038-0.052-0.057-0.179-0.057-0.385c-0.091-0.218-0.136-0.476-0.136-0.772
						c0-0.155,0.386-0.521,1.157-1.1l0.714-0.444c0.026-0.064,0.109-0.129,0.25-0.193l0.521-0.521
						c0.681-0.631,1.196-1.255,1.543-1.872c0.553-1.543,0.984-2.572,1.293-3.086c0.425-0.772,0.701-1.286,0.83-1.543
						c0.244-0.565,0.367-1.126,0.367-1.679c-0.116-0.578-0.006-1.138,0.327-1.678l0.502-0.695c0-0.257,0.045-0.411,0.136-0.463
						c0.025-0.025,0.071-0.038,0.134-0.038c0.052,0,0.091,0.013,0.116,0.038c0.052,0.09,0.077,0.18,0.077,0.27
						C14.419,158.696,14.329,158.888,14.149,159.198z"/>
					<path fill="none" stroke="#373535" stroke-width="1.7236" d="M14.149,159.198c0.179-0.31,0.27-0.501,0.27-0.579
						c0-0.09-0.025-0.18-0.077-0.27c-0.025-0.025-0.064-0.038-0.116-0.038c-0.064,0-0.109,0.013-0.134,0.038
						c-0.091,0.052-0.136,0.207-0.136,0.463l-0.502,0.695c-0.334,0.54-0.444,1.1-0.327,1.678c0,0.553-0.122,1.113-0.367,1.679
						c-0.129,0.257-0.406,0.771-0.83,1.543c-0.309,0.514-0.74,1.543-1.293,3.086c-0.347,0.617-0.862,1.241-1.543,1.872l-0.521,0.521
						c-0.141,0.064-0.225,0.129-0.25,0.193l-0.714,0.444c-0.771,0.579-1.157,0.945-1.157,1.1c0,0.296,0.045,0.554,0.136,0.772
						c0,0.206,0.02,0.333,0.057,0.385c0,0.103,0.109,0.232,0.329,0.386l0.502,1.543c0,0.348-0.681,1.524-2.045,3.53
						c-0.206,0.348-0.334,0.649-0.385,0.907c-0.206,0.399-0.399,0.72-0.579,0.964c-0.785,0.631-1.177,1.21-1.177,1.737
						c0,0.269,0.045,0.507,0.136,0.714c0.077,0.244,0.379,0.437,0.907,0.578c0.038,0.026,0.469,0.174,1.293,0.445
						c0.039,0.026,0.109,0.064,0.213,0.116c0.103,0.064,0.18,0.134,0.232,0.213c0.244,0.129,0.547,0.193,0.907,0.193
						c0.643,0,1.048-0.174,1.215-0.521c0.129-0.424,0.213-0.656,0.25-0.694c0.296-0.296,0.746-0.469,1.35-0.521
						c0.129-0.052,0.29-0.09,0.483-0.116c0.116-0.025,0.276-0.052,0.483-0.077l1.1,0.193h0.578c0.218,0,0.406,0.02,0.56,0.057
						c0.18,0.052,0.463,0.077,0.849,0.077c0.424,0,0.765-0.025,1.023-0.077c0.437-0.076,0.714-0.116,0.83-0.116
						c1.119,0,1.743-0.025,1.871-0.077c0.091,0,0.154-0.02,0.193-0.057c0.129-0.09,0.578-0.218,1.35-0.386
						c0.309-0.038,0.868-0.168,1.679-0.386c0.18-0.038,0.631-0.186,1.35-0.444c2.92-1.491,4.378-2.437,4.378-2.836
						c-0.038-0.631-0.392-1.582-1.061-2.854c-0.669-1.273-1.023-2.251-1.061-2.932c-0.025-0.476,0.29-1.517,0.945-3.125
						c0.54-1.298,0.566-2.289,0.077-2.97c-0.502-0.707-1.466-1.395-2.894-2.064c-1.517-0.695-2.327-1.1-2.43-1.216
						c-0.527-1.03-1.055-1.852-1.582-2.469c-1.016-1.17-2.231-1.454-3.646-0.848C14.516,159.641,14.278,159.493,14.149,159.198z"/>
					<g>
						<path fill="#FFFFFF" d="M179.031,190.542c0.207,0,0.483-0.751,0.83-2.257c0.242-1.08,0.411-2.038,0.511-2.874L179.031,190.542
							z M185.861,165.119c0-0.132-0.029-0.286-0.087-0.462l-0.29,1.109C185.734,165.587,185.861,165.372,185.861,165.119z
							 M257.094,82.871c-0.141,0.141-0.263,0.315-0.367,0.521c-0.052,0.116-0.122,0.283-0.211,0.501
							c-0.154,0.463-0.476,1.151-0.964,2.064c-0.116,0.218-0.355,0.495-0.714,0.83l-0.965,0.907c-0.554,0.425-0.83,0.708-0.83,0.849
							c-0.129,0.488-0.238,0.81-0.327,0.964c-1.441,1.838-2.36,3.061-2.758,3.664c-0.45,0.45-1.221,0.874-2.315,1.273
							c-1.493,0.604-3.492,0.907-5.999,0.907c-2.071,0-3.549-0.084-4.436-0.25l-0.83-0.193h-0.134
							c-1.634-0.309-2.553-0.481-2.759-0.521l-3.414-0.521l0.057,0.656c0,0.168-0.045,0.508-0.134,1.023
							c0,0.206,0.238,0.617,0.714,1.234c0.064,0.425,0.129,0.637,0.193,0.637v0.637c0,1.337-0.322,2.199-0.964,2.585
							c-1.069,0.642-1.647,1.003-1.737,1.08c-0.386,0.334-0.578,0.726-0.578,1.177l0.386,0.887c0.217,0.565,0.327,0.951,0.327,1.157
							c0,0.437-0.11,0.656-0.327,0.656c0,0.141-0.046,0.29-0.136,0.444l-0.888,1.1c-0.192,0.284-0.385,0.643-0.578,1.08
							c-0.257,0.63-0.386,1.086-0.386,1.369c0,0.039,0.064,0.057,0.193,0.057c0.077,0.18,0.116,0.329,0.116,0.444l0.077,0.521
							c0,0.039,0.102,0.341,0.308,0.907c0,0.206-0.103,0.308-0.308,0.308c-0.309,0-0.547-0.038-0.714-0.116
							c-0.219-0.09-0.541-0.134-0.965-0.134c-0.565,0-0.912,0.064-1.041,0.193c-0.129,0.154-0.193,0.302-0.193,0.444l0.579,2.7
							c0,0.218-0.032,0.373-0.097,0.463c-0.052,0.077-0.148,0.116-0.29,0.116c-0.129,0-0.213-0.02-0.25-0.057
							c-0.463,0.103-0.831,0.213-1.1,0.329c-1.107,0.257-1.659,0.515-1.659,0.771c0,0.284,0.168,0.56,0.502,0.83
							c0.259,0.309,0.386,0.566,0.386,0.772c0,0.179-0.213,0.334-0.637,0.463c-0.438,0.051-0.758,0.218-0.965,0.502
							c0,0.038-0.109,0.277-0.327,0.714c-0.167,0.167-0.25,0.379-0.25,0.637c0,0.45-0.11,0.753-0.329,0.907
							c-0.592,0.476-1.041,0.842-1.35,1.1c-0.772,0.424-1.241,0.701-1.409,0.83c-0.527,0.386-0.848,0.708-0.964,0.964
							c-0.193,0.437-0.476,1.363-0.849,2.778c0.052,0,0.077,0.039,0.077,0.116c0,0.013-0.045,0.168-0.134,0.463
							c-0.077,0.361-0.148,0.611-0.213,0.753c-0.077,0.18-0.18,0.27-0.309,0.27h-0.059v0.327l-0.193,0.887
							c-0.052,0.052-0.109,0.154-0.174,0.309c-0.116,0.245-0.206,0.425-0.269,0.54l0.251,0.251l-0.386,1.041
							c-0.217,0.681-0.365,1.196-0.444,1.543c-0.052,0.207-0.141,0.694-0.269,1.466c-0.129,0.578-0.193,1.055-0.193,1.427
							c0,0.334-0.084,0.785-0.252,1.35c0,0.154-0.148,0.393-0.444,0.715l-0.579,0.444c-0.372,0.245-0.913,0.61-1.62,1.1
							l-1.543,0.964c-0.129-0.051-0.213-0.076-0.252-0.076c-0.333,0.167-0.526,0.276-0.578,0.327l-1.234,1.485
							c-0.4,0.4-0.676,0.887-0.831,1.466c-0.257,0.785-0.533,1.305-0.83,1.562c-0.411,0.476-0.714,0.965-0.907,1.466
							c-0.347,0.9-0.565,1.395-0.655,1.485c-0.077,0.103-0.309,0.638-0.695,1.602c-0.604,0.951-0.971,1.427-1.1,1.427h-0.193
							c-0.643,0.476-1.221,0.862-1.736,1.158l-2.97,1.794c-0.488,0.218-0.893,0.54-1.216,0.965
							c-0.502,0.334-0.887,0.637-1.157,0.907l-1.929,1.794c-0.039,0-0.084-0.02-0.136-0.057c-0.025,0.077-0.071,0.167-0.134,0.27
							l-0.174,0.25c-0.244,0.565-0.527,1.126-0.848,1.678c-0.309,0.309-0.586,0.797-0.83,1.466l-0.772,1.62
							c-0.245,0.565-0.399,1.144-0.463,1.736l-0.192,1.871v2.045c0,0.526-0.039,0.957-0.116,1.292l0.116,0.907
							c0,0.129-0.039,0.707-0.116,1.736c-0.129,0.733-0.193,1.312-0.193,1.736c0,0.747-0.218,1.82-0.656,3.222l-0.309,3.857
							c0,0.231-0.025,0.508-0.077,0.83c-0.025,0.168-0.064,0.406-0.116,0.714c-0.141,0.643-0.334,0.965-0.578,0.965
							c-0.129,0-0.193-0.084-0.193-0.252c0.052-0.103,0.064-0.206,0.038-0.308c-0.026-0.09-0.038-0.161-0.038-0.213l-4.07,16.222
							c-0.232-0.604-0.554-1.248-0.965-1.929c-2.122-4.192-3.408-6.552-3.857-7.079c-0.257-0.27-1.074-0.848-2.45-1.736
							c-1.144-0.758-1.826-1.363-2.044-1.813c-0.309-0.592-0.463-0.893-0.463-0.907c-0.309-0.45-0.669-0.792-1.079-1.023
							c-0.129-0.052-0.56,0.059-1.293,0.327c-0.257,0.129-0.489,0.136-0.695,0.02c-0.206-0.116-0.36-0.34-0.462-0.674
							c-0.167-0.617-0.252-0.958-0.252-1.023c-0.077-0.989-0.637-2.341-1.678-4.05c-1.505-2.185-2.406-3.536-2.701-4.05
							c-1.3-2.237-0.547-6.482,2.257-12.73c0.527-1.158,1.158-3.04,1.891-5.652c0.643-2.275,1.079-4.032,1.312-5.266
							c0.064-0.309,0.365-3.478,0.907-9.508c0.501-5.62,0.932-9.008,1.292-10.166c0.386-1.286,1.293-2.836,2.72-4.649
							c0.386-0.488,1.749-2.071,4.089-4.744c0.951-1.08,2.115-4.077,3.492-8.989c1.413-5.041,2.482-8.043,3.201-9.007
							c1.171-1.556,2.804-3.517,4.899-5.883c2.135-2.405,3.929-4.301,5.382-5.69c1.12-1.067,2.225-3.401,3.318-7.002
							c1.157-3.807,1.935-5.973,2.334-6.5c0.797-1.041,2.578-2.412,5.343-4.109c2.649-1.633,4.572-2.598,5.767-2.893h2.315
							l4.302,0.656c0.217,0,0.372,0.02,0.462,0.057c3.523,0.488,5.793,0.707,6.809,0.656c0,0.193-0.102,0.45-0.309,0.771
							c0.066,0.102,0.379,0.174,0.946,0.213c0.63,0.025,1.426-0.006,2.391-0.097c-0.193,0.515-0.193,0.964,0,1.35
							c0.193,0.515,0.688,0.771,1.486,0.771c3.228,0,5.561,0.257,7.002,0.772c1.465,0.476,2.219,0.714,2.257,0.714l5.014-1.157
							l0.656,0.329c0.642,0.168,1.028,0.25,1.157,0.25c0.168,0,0.894-0.322,2.18-0.964v-0.057c0-0.27,0.109-0.295,0.327-0.077
							c0.038,0.129,0.102,0.239,0.193,0.329v0.057c0,0.18-0.045,0.27-0.136,0.27c-0.076,0-0.141-0.025-0.192-0.077v0.077
							c-0.643,0.386-0.965,0.663-0.965,0.83c0,0.09,0.27,0.29,0.81,0.597c0.399,0.218,1.202,0.643,2.412,1.273
							c0.218,0.129,0.603,0.431,1.157,0.908c0.707,0.604,1.138,0.964,1.293,1.08c-0.025,0-0.059,0.025-0.097,0.077
							c-0.025,0.051-0.039,0.09-0.039,0.116c0,0.309,0.193,0.463,0.579,0.463c0.27,0,0.638-0.174,1.1-0.521
							c0.129-0.168,0.404-0.425,0.83-0.772c0.077,0,0.361-0.174,0.849-0.521c0.128-0.077,0.276-0.187,0.444-0.327h-0.059
							l-0.076-0.116l0.076-0.02c0.052-0.013,0.091-0.007,0.116,0.02h0.077c0-0.052,0.02-0.077,0.059-0.077v0.077
							c0.038-0.052,0.102-0.077,0.193-0.077l0.057,0.077c0,0.116-0.064,0.263-0.193,0.444c-0.038,0.052-0.013,0.161,0.077,0.327
							C257.422,82.177,257.313,82.499,257.094,82.871z"/>
						<path fill="none" stroke="#373535" stroke-width="1.7236" d="M185.668,183.714c0,0.052,0.013,0.123,0.038,0.213
							c0.025,0.103,0.014,0.206-0.038,0.308c0,0.168,0.064,0.252,0.193,0.252c0.244,0,0.437-0.322,0.578-0.965
							c0.052-0.308,0.09-0.546,0.116-0.714c0.052-0.321,0.077-0.599,0.077-0.83l0.309-3.857c0.438-1.402,0.656-2.475,0.656-3.222
							c0-0.424,0.064-1.003,0.193-1.736c0.076-1.028,0.116-1.606,0.116-1.736l-0.116-0.907c0.076-0.334,0.116-0.765,0.116-1.292
							v-2.045l0.192-1.871c0.066-0.592,0.219-1.171,0.463-1.736l0.772-1.62c0.244-0.669,0.521-1.158,0.83-1.466
							c0.321-0.552,0.604-1.112,0.848-1.678l0.174-0.251c0.064-0.103,0.109-0.193,0.134-0.27c0.052,0.038,0.097,0.057,0.136,0.057
							l1.929-1.794c0.269-0.27,0.655-0.572,1.157-0.907c0.322-0.425,0.727-0.746,1.216-0.965l2.97-1.794
							c0.515-0.296,1.093-0.683,1.736-1.158h0.193c0.129,0,0.495-0.476,1.1-1.427c0.386-0.964,0.617-1.498,0.695-1.602
							c0.09-0.09,0.308-0.585,0.655-1.485c0.193-0.502,0.495-0.99,0.907-1.466c0.296-0.257,0.572-0.778,0.83-1.562
							c0.155-0.579,0.431-1.067,0.831-1.466l1.234-1.485c0.052-0.052,0.245-0.161,0.578-0.327c0.039,0,0.122,0.026,0.252,0.076
							l1.543-0.964c0.707-0.489,1.248-0.855,1.62-1.1l0.579-0.444c0.295-0.322,0.444-0.56,0.444-0.715
							c0.168-0.565,0.252-1.016,0.252-1.35c0-0.372,0.064-0.848,0.193-1.427c0.128-0.772,0.217-1.26,0.269-1.466
							c0.077-0.347,0.225-0.862,0.444-1.543l0.386-1.041l-0.25-0.25c0.064-0.116,0.154-0.295,0.269-0.54
							c0.066-0.154,0.123-0.257,0.174-0.309l0.193-0.887v-0.327h0.059c0.128,0,0.231-0.091,0.309-0.27
							c0.064-0.141,0.134-0.392,0.213-0.753c0.09-0.295,0.134-0.45,0.134-0.463c0-0.077-0.025-0.116-0.077-0.116
							c0.373-1.414,0.656-2.341,0.849-2.778c0.116-0.257,0.437-0.578,0.964-0.964c0.168-0.129,0.637-0.406,1.409-0.83
							c0.309-0.257,0.758-0.624,1.35-1.1c0.218-0.154,0.329-0.456,0.329-0.907c0-0.257,0.083-0.47,0.251-0.637
							c0.218-0.437,0.327-0.676,0.327-0.714c0.207-0.283,0.527-0.45,0.965-0.502c0.424-0.129,0.637-0.284,0.637-0.463
							c0-0.206-0.128-0.463-0.386-0.772c-0.334-0.27-0.502-0.546-0.502-0.83c0-0.257,0.554-0.515,1.659-0.771
							c0.269-0.116,0.637-0.225,1.1-0.329c0.038,0.039,0.121,0.057,0.25,0.057c0.141,0,0.238-0.038,0.29-0.116
							c0.064-0.09,0.097-0.244,0.097-0.463l-0.579-2.7c0-0.141,0.064-0.29,0.193-0.444c0.129-0.129,0.476-0.193,1.041-0.193
							c0.424,0,0.746,0.045,0.965,0.134c0.167,0.077,0.404,0.116,0.714,0.116c0.206,0,0.308-0.102,0.308-0.308
							c-0.207-0.566-0.308-0.868-0.308-0.907l-0.077-0.521c0-0.115-0.038-0.263-0.116-0.444c-0.129,0-0.193-0.02-0.193-0.057
							c0-0.283,0.129-0.739,0.386-1.369c0.193-0.437,0.386-0.797,0.578-1.08l0.888-1.1c0.09-0.154,0.136-0.302,0.136-0.444
							c0.217,0,0.327-0.218,0.327-0.656c0-0.206-0.11-0.592-0.327-1.157l-0.386-0.887c0-0.45,0.192-0.842,0.578-1.177
							c0.091-0.077,0.669-0.438,1.737-1.08c0.642-0.386,0.964-1.248,0.964-2.585v-0.637c-0.064,0-0.129-0.211-0.193-0.637
							c-0.476-0.617-0.714-1.028-0.714-1.234c0.09-0.515,0.134-0.855,0.134-1.023l-0.057-0.656l3.414,0.521
							c0.207,0.039,1.126,0.213,2.759,0.521h0.134l0.83,0.193c0.887,0.167,2.366,0.25,4.436,0.25c2.507,0,4.507-0.302,5.999-0.907
							c1.093-0.399,1.865-0.823,2.315-1.273c0.399-0.604,1.317-1.826,2.758-3.664c0.09-0.154,0.199-0.476,0.327-0.964
							c0-0.141,0.276-0.424,0.83-0.849l0.965-0.907c0.36-0.334,0.599-0.61,0.714-0.83c0.488-0.913,0.81-1.601,0.964-2.064
							c0.09-0.218,0.161-0.386,0.211-0.501c0.103-0.206,0.225-0.379,0.367-0.521c0.218-0.373,0.327-0.694,0.327-0.965
							c-0.09-0.167-0.116-0.276-0.077-0.327c0.129-0.18,0.193-0.327,0.193-0.444l-0.057-0.077c-0.091,0-0.155,0.025-0.193,0.077
							v-0.077c-0.039,0-0.059,0.025-0.059,0.077h-0.077c-0.024-0.025-0.064-0.032-0.116-0.02l-0.076,0.02l0.076,0.116h0.059
							c-0.167,0.141-0.315,0.25-0.444,0.327c-0.489,0.347-0.772,0.521-0.849,0.521c-0.424,0.347-0.7,0.604-0.83,0.772
							c-0.462,0.347-0.83,0.521-1.1,0.521c-0.386,0-0.579-0.154-0.579-0.463c0-0.025,0.014-0.064,0.039-0.116
							c0.038-0.052,0.071-0.077,0.097-0.077c-0.155-0.116-0.586-0.476-1.293-1.08c-0.553-0.477-0.938-0.778-1.157-0.908
							c-1.21-0.63-2.013-1.054-2.412-1.273c-0.54-0.308-0.81-0.508-0.81-0.597c0-0.168,0.321-0.444,0.965-0.83v-0.077
							c0.051,0.052,0.116,0.077,0.192,0.077c0.091,0,0.136-0.09,0.136-0.27v-0.057c-0.091-0.09-0.155-0.199-0.193-0.329
							c-0.218-0.218-0.327-0.192-0.327,0.077v0.057c-1.286,0.643-2.013,0.964-2.18,0.964c-0.129,0-0.514-0.084-1.157-0.25
							l-0.656-0.329l-5.014,1.157c-0.038,0-0.791-0.238-2.257-0.714c-1.441-0.515-3.775-0.772-7.002-0.772
							c-0.797,0-1.293-0.257-1.486-0.771c-0.193-0.386-0.193-0.836,0-1.35c-0.965,0.091-1.761,0.122-2.391,0.097
							c-0.566-0.038-0.881-0.109-0.946-0.213c0.207-0.322,0.309-0.578,0.309-0.771c-1.016,0.051-3.285-0.168-6.809-0.656
							c-0.09-0.038-0.245-0.057-0.462-0.057l-4.302-0.656h-2.315c-1.195,0.295-3.118,1.26-5.767,2.893
							c-2.765,1.697-4.546,3.068-5.343,4.109c-0.399,0.527-1.177,2.694-2.334,6.5c-1.093,3.601-2.198,5.935-3.318,7.002
							c-1.454,1.389-3.246,3.285-5.382,5.69c-2.095,2.366-3.729,4.327-4.899,5.883c-0.719,0.964-1.788,3.966-3.201,9.007
							c-1.377,4.912-2.541,7.909-3.492,8.989c-2.339,2.675-3.703,4.257-4.089,4.744c-1.427,1.813-2.334,3.363-2.72,4.649
							c-0.36,1.157-0.791,4.547-1.292,10.166c-0.541,6.03-0.842,9.2-0.907,9.508c-0.232,1.234-0.669,2.991-1.312,5.266
							c-0.733,2.612-1.363,4.494-1.891,5.652c-2.803,6.248-3.556,10.493-2.257,12.73c0.295,0.515,1.196,1.865,2.701,4.05
							c1.041,1.71,1.601,3.061,1.678,4.05c0,0.064,0.084,0.406,0.252,1.023c0.102,0.334,0.257,0.558,0.462,0.674
							c0.206,0.117,0.438,0.11,0.695-0.02c0.733-0.269,1.164-0.379,1.293-0.327c0.41,0.231,0.771,0.572,1.079,1.023
							c0,0.014,0.155,0.315,0.463,0.907c0.218,0.45,0.9,1.055,2.044,1.813c1.375,0.888,2.192,1.465,2.45,1.736
							c0.45,0.527,1.736,2.888,3.857,7.079c0.411,0.681,0.733,1.324,0.965,1.929 M187.77,156.98
							c-0.849,2.932-1.448,4.553-1.795,4.86c-0.27,0.347-0.456,0.578-0.56,0.694c-0.141,0.207-0.213,0.38-0.213,0.522
							c0,0.334,0.11,0.674,0.327,1.023c0.218,0.437,0.329,0.785,0.329,1.041c0,0.348-0.239,0.624-0.715,0.83
							c-0.719,0.772-1.388,2.275-2.005,4.515c-0.643,2.366-0.939,4.617-0.887,6.751c0,1.441-0.321,2.553-0.964,3.337
							c-0.425,0.553-0.708,1.91-0.849,4.07c-0.064,1.003-0.257,2.226-0.579,3.664c-0.347,1.505-0.623,2.257-0.83,2.257"/>
					</g>
					<path fill="none" stroke="#373535" stroke-width="1.7236" d="M231.227,68.192c-0.9-1.171-2.681-2.777-5.343-4.823
						c-0.232-0.476-0.676-1.067-1.331-1.774c-0.746-0.81-1.139-1.248-1.177-1.312"/>
					<path fill="none" stroke="#373535" stroke-width="1.7236" stroke-miterlimit="10" d="M215.063,63.428
						c4.322-0.592,6.834-1.125,7.541-1.602c0.193-0.064,0.361-0.174,0.502-0.329c0.052,0.45,0.791,1.434,2.219,2.952l-0.54,0.27
						c-0.257,0.09-0.579,0.174-0.965,0.25c-0.41,0.18-1.266,0.27-2.565,0.27c-2.802,0-5.125-0.347-6.964-1.041
						c-0.462-0.206-0.784-0.309-0.964-0.309C213.713,63.763,214.291,63.609,215.063,63.428z"/>
					<path fill="none" stroke="#373535" stroke-width="1.7236" d="M193.711,49.54h0.386c1.272-0.951,2.064-2.006,2.372-3.163
						c0.09-0.514,0.134-1.606,0.134-3.279c0-0.669,0.495-1.202,1.486-1.602c0.939-0.411,1.409-0.887,1.409-1.427
						c0-0.526,0.276-1.15,0.83-1.871c0.515-0.566,0.772-1.1,0.772-1.602c0-1.826-1.434-4.333-4.302-7.523
						c-2.881-3.267-5.452-5.221-7.716-5.864c-1.595,0.154-2.99,0.367-4.186,0.637c-0.681,0.206-1.164,0.379-1.447,0.522
						c-0.322,0.154-0.483,0.308-0.483,0.462v0.25"/>
					<path fill="none" stroke="#373535" stroke-width="1.7236" d="M60.559,96.894c-0.18,0.437-0.74,1.189-1.678,2.257
						c-0.771,0.913-1.157,1.665-1.157,2.257c0,0.064-0.34,0.515-1.023,1.35c-0.322,0.309-0.771,0.803-1.35,1.486
						c-0.565,0.502-0.54,1.466,0.077,2.893c0.295,0.694,0.9,1.788,1.813,3.279c0.347,0.565,1.023,1.292,2.026,2.179
						c0.76,0.81,0.984,1.627,0.676,2.45c-0.373,1.003-0.347,2.205,0.077,3.607c0.411,1.363,0.99,2.308,1.736,2.836
						c0.887,0.643,1.627,1.427,2.219,2.353c0.746,1.132,0.945,2.103,0.597,2.913c-0.347,0.823-0.232,2.064,0.347,3.723
						c0.502,1.427,1.125,2.636,1.872,3.626c0.746,0.669,1.177,1.223,1.293,1.659c0.488,1.221,0.919,2.514,1.292,3.877"/>
					<path fill="none" stroke="#373535" stroke-width="1.7236" d="M106.428,148.03c-0.295,0.36-0.611,0.848-0.946,1.465
						c-0.373,0.695-0.63,1.312-0.771,1.851c-0.527,1.493-0.719,2.906-0.578,4.243c0.051,0.193-0.057,1.543-0.329,4.05
						c-0.129,1.724-0.257,3.163-0.386,4.322c0,1.658-0.989,5.027-2.97,10.107c-2.057,5.247-3.086,9.06-3.086,11.439
						c0,2.353,0.495,5.014,1.486,7.985c0.848,2.315,1.96,4.951,3.337,7.909c0.939,1.942,1.672,3.299,2.199,4.07
						c0.978,1.377,2.244,2.682,3.8,3.916c1.724,1.388,3.054,2.72,3.993,3.993c1.157,1.543,1.736,2.893,1.736,4.05
						c0,0.476-1.357,1.164-4.07,2.064c-2.623,0.901-5.15,1.351-7.58,1.351c-0.502,0-1.897-0.791-4.186-2.373
						c-1.132-0.835-2.269-1.613-3.414-2.334c-0.887-1.375-1.402-3.131-1.543-5.265c-0.309-3.215-0.565-5.273-0.771-6.173
						c-0.103-0.452-0.386-1.248-0.849-2.392c-0.656-1.62-1.209-2.99-1.659-4.108c-0.9-2.11-1.35-4.084-1.35-5.922
						c0-3.87-0.025-6.062-0.077-6.577c-0.116-2.289-0.502-4.623-1.157-7.002c-0.231-0.772-0.315-1.91-0.25-3.415
						c0.129-1.414,0.193-2.508,0.193-3.279c0-1.441-0.174-2.771-0.521-3.993v-0.193c0-0.913-0.9-3.254-2.7-7.022
						c-1.697-3.356-2.662-5.175-2.893-5.458c-1.826-2.084-3.498-4.957-5.016-8.622c-1.016-2.623-1.917-3.935-2.7-3.935
						c-0.154,0-0.411,0.045-0.771,0.134c-0.425,0.129-0.643,0.193-0.656,0.193c-0.052-0.681-0.263-1.241-0.637-1.678"/>
					<path fill="none" stroke="#373535" stroke-width="1.7236" d="M192.418,153.334c-1.196,1.03-2.115,1.781-2.758,2.257
						c-1.698,1.3-3.202,2.264-4.515,2.894c-1.581,0.643-2.565,1.028-2.951,1.157c-0.9,0.463-1.42,0.894-1.562,1.293
						c-0.09,0.372-0.283,0.868-0.578,1.485c-0.259,0.515-0.515,0.985-0.772,1.409c-0.038,0.129-0.939,1.891-2.701,5.286
						c-1.672,3.422-2.507,5.563-2.507,6.424c0,0.193,1.182,3.818,3.548,10.879c2.547,7.625,4.071,13.097,4.572,16.414
						c0.683,4.27,2.354,10.101,5.016,17.496c2.25,6.237,3.619,9.542,4.108,9.914c0.116,0.913,0.225,1.602,0.329,2.064
						c0.54,1.556,1.826,3.054,3.856,4.495c2.689,1.799,4.746,3.26,6.173,4.379c2.11,1.71,3.163,3.17,3.163,4.379
						c0,0.733-0.365,1.595-1.098,2.584c-1.196,1.454-3.016,2.18-5.459,2.18c-1.851,0-4.019-0.727-6.5-2.18l-4.322-2.314
						c-2.096-0.386-3.491-1.12-4.186-2.199c-0.476-1.107-0.796-1.961-0.965-2.565c-0.514-1.144-0.982-2.925-1.408-5.343
						c-0.309-2.212-0.592-3.891-0.848-5.035c-1.596-5.851-2.515-9.304-2.759-10.357c-0.707-2.482-1.241-4.218-1.601-5.209
						c-0.09-0.218-0.134-0.392-0.134-0.521c-0.129-0.257-0.238-0.45-0.327-0.579v-0.192c-0.155-0.259-0.238-0.404-0.252-0.445
						l-0.057-0.251c-1.84-3.871-3.857-7.8-6.057-11.786c-0.295-0.592-2.719-4.945-7.271-13.059
						c-0.951-1.672-1.575-2.746-1.872-3.222c-0.167-0.309-0.637-0.823-1.409-1.543c-0.707-0.707-1.093-1.286-1.157-1.736
						c-0.09-0.553-0.134-1.647-0.134-3.279c0.038-1.08,0.064-1.806,0.077-2.181c0.024-0.565,0.02-0.932-0.02-1.1
						c-0.052-1.426-0.179-2.546-0.386-3.356c-0.076-0.257-0.399-0.791-0.964-1.601c-0.514-0.797-0.772-1.375-0.772-1.736
						c0-0.4-0.064-0.939-0.193-1.62c-0.206-0.76-0.308-1.293-0.308-1.602c0.167-0.708,0.207-1.312,0.115-1.813
						c-0.115-0.746-0.841-1.086-2.179-1.023v-0.134c0.141-0.309,0.354-0.631,0.637-0.965c0.218-0.218,0.327-0.514,0.327-0.887
						c0.066-0.257,0.046-0.444-0.057-0.558c-0.103-0.103-0.302-0.155-0.599-0.155l-1.794,0.193v-0.057
						c0-0.026,0.322-0.329,0.965-0.907c0.141-0.077,0.276-0.18,0.406-0.308c0.064-0.077,0.141-0.168,0.231-0.27
						c0.129-0.09,0.193-0.264,0.193-0.521c0-0.424-0.341-0.637-1.023-0.637c-6.969,0-10.422-0.218-10.359-0.656
						c0.206-0.269,0.225-0.462,0.059-0.579c-0.296-0.244-1.389-0.392-3.279-0.444c-2.212-0.179-4.122-0.199-5.729-0.057
						c-1.067,0.076-2.031,0.116-2.893,0.116c-0.077,0-0.186-0.193-0.329-0.579c0-0.321-0.102-0.617-0.309-0.888
						c-0.244-0.347-0.547-0.521-0.907-0.521c-3.523,0.218-5.388,0.327-5.594,0.327c-0.978,0-1.904-0.217-2.777-0.655
						c0-0.128-0.02-0.193-0.057-0.193h-0.25c-0.438-0.334-0.72-0.61-0.849-0.83c-0.849-1.119-1.704-1.679-2.566-1.679
						c-0.308,0-0.656,0.084-1.041,0.252c-0.231,0.179-0.488,0.27-0.772,0.27c-0.295,0-0.617-0.303-0.964-0.908
						c-0.386-0.514-0.746-0.771-1.08-0.771c-0.09,0-0.327,0.045-0.714,0.134c-0.347,0.129-0.585,0.193-0.714,0.193
						c-1.041,0-2.244-0.476-3.607-1.427c-0.064-0.013-0.129-0.052-0.193-0.116c-0.077-0.09-0.141-0.155-0.192-0.193
						c-0.013-0.013-0.27-0.251-0.772-0.714c-0.309-0.269-1.999-2.179-5.072-5.728v-0.059c0.025-0.038,0.025-0.097,0-0.172
						c-0.026-0.077-0.071-0.129-0.136-0.155c-0.116-0.219-0.456-0.327-1.023-0.327c-2.843,0-4.456-0.193-4.842-0.579l-0.385-0.579
						c-0.309-0.309-0.694-0.54-1.157-0.695c-0.694-0.283-1.184-0.488-1.466-0.617c-0.488-0.206-0.855-0.392-1.098-0.558
						c-0.631-0.411-1.125-0.817-1.486-1.216c-0.63-0.63-1.164-1.512-1.601-2.643c-0.502-1.042-1.189-1.852-2.064-2.43
						c-5.4-3.626-8.943-6.957-10.629-9.992c-0.309-0.553-0.669-2.199-1.08-4.937c-0.257-2.071-1.074-3.768-2.45-5.093
						c-0.746-0.681-1.71-2.508-2.893-5.479c-0.99-2.443-1.485-4.031-1.485-4.764c0-0.116,0.129-0.669,0.386-1.659l0.327-1.543
						c0-0.18-0.025-0.29-0.077-0.329"/>
					<path fill="none" stroke="#373535" stroke-width="1.7236" d="M230.186,93.48c-3.318,0-6.359,0.54-9.123,1.621
						c-2.532,0.912-3.8,1.768-3.8,2.565c0,0.18,0.02,0.354,0.057,0.521"/>
					<path fill="none" stroke="#373535" stroke-width="1.7236" d="M239.271,57.449c-0.348,0.758-0.522,1.768-0.522,3.029
						c0,2.185,0.965,4.243,2.894,6.171c1.182,1.248,3.285,2.854,6.307,4.823c2.482,1.595,4.224,2.778,5.227,3.549
						c-1.247-0.052-2.514,0.379-3.8,1.293c-1.799,1.067-2.701,1.967-2.701,2.7c0,0.488,0.296,0.849,0.887,1.08
						c1.093,0.36,2.058,0.855,2.894,1.486c0.076,0.025,0.681,0.565,1.812,1.62c0.849,0.848,1.319,1.273,1.409,1.273
						c0.257,0,1.03-0.488,2.315-1.466c0.372-0.218,0.72-0.476,1.041-0.771c-0.334,1.44-1.105,2.829-2.315,4.166l-1.928,1.929
						c-0.168-0.141-0.386-0.29-0.656-0.444c0.733-0.849,1.1-1.729,1.1-2.643c0-0.141-0.045-0.244-0.136-0.309V84.8
						c-0.321,0.168-0.751,0.618-1.292,1.35c-0.489,0.823-1.041,1.466-1.659,1.929c-2.262,1.672-6.32,2.507-12.171,2.507
						c-1.505,0-3.884-0.817-7.138-2.45c-3.124-1.581-5.356-2.372-6.693-2.372c-1.928,0-2.893,0.431-2.893,1.293l0.116,0.444"/>
					<path fill="#373535" d="M257.036,82.235c-0.321,0.295-0.669,0.553-1.041,0.771c-1.286,0.978-2.058,1.466-2.315,1.466
						c-0.09,0-0.558-0.425-1.409-1.273c-1.131-1.055-1.736-1.595-1.812-1.62c-0.837-0.63-1.801-1.125-2.894-1.486
						c-0.592-0.232-0.887-0.592-0.887-1.08c0-0.733,0.901-1.633,2.701-2.7c1.286-0.912,2.553-1.343,3.8-1.293
						c0.27,0.218,0.656,0.495,1.158,0.83c1.878,1.761,2.815,3.433,2.815,5.016v0.077C257.152,81.418,257.113,81.849,257.036,82.235z
						"/>
					<path fill="none" stroke="#373535" stroke-width="1.7236" d="M237.593,25.718c-0.874,0.45-2.244,2.185-4.109,5.209
						c-1.941,3.047-2.912,4.937-2.912,5.671v0.578c0.129,0.296,0.347,0.444,0.655,0.444c0.218,0,0.495-0.038,0.83-0.116
						c-0.064,0.72-0.038,1.363,0.077,1.929c0.206,0.862,0.547,1.293,1.023,1.293h0.136l1.465,1.601
						c1.055,1.17,2.064,2.777,3.029,4.823c0,0.218,0.045,0.283,0.134,0.193"/>
					<path fill="none" stroke="#373535" stroke-width="1.7236" stroke-miterlimit="10" d="M222.297,61.982
						c0.155,0.334,0.231,0.649,0.231,0.946c0,0.565-0.199,1.048-0.598,1.447c-0.4,0.399-0.881,0.599-1.447,0.599
						c-0.566,0-1.055-0.199-1.466-0.599c-0.399-0.399-0.598-0.881-0.598-1.447"/>
					<path fill="#373535" d="M221.505,62.406c0.077,0.154,0.117,0.327,0.117,0.521c0,0.322-0.11,0.592-0.329,0.81
						c-0.231,0.231-0.502,0.347-0.809,0.347c-0.322,0-0.593-0.116-0.81-0.347c-0.232-0.218-0.348-0.488-0.348-0.81L221.505,62.406z"
						/>
					<path fill="none" stroke="#373535" stroke-width="1.7236" d="M224.264,59.898l-0.445-0.193
						c-0.013,0.013-0.123,0.077-0.327,0.193l-0.116,0.116c-0.09,0.039-0.129,0.27-0.116,0.694c0.013,0.437-0.039,0.701-0.155,0.791
						c-0.219,0.218-0.476,0.418-0.771,0.599c-0.052,0.025-0.284,0.141-0.694,0.347c0.052,0.18-0.624,0.354-2.026,0.521
						c-2.713,0.309-4.611,0.553-5.69,0.733c-0.322,0.129-0.894,0.257-1.717,0.385c-0.772,0.129-1.364,0.296-1.774,0.502
						c-2.02,0.939-3.029,1.563-3.029,1.872l0.327,0.444"/>
					<path fill="#FFFFFF" d="M254.2,79.515c-0.038,0.091-0.083,0.155-0.134,0.193c0,0.09-0.103,0.136-0.309,0.136
						c-0.077,0-0.399-0.109-0.964-0.329c-0.553-0.206-1.223-0.309-2.006-0.309l-0.327-0.077l-0.116-0.116v-0.27
						c0-0.502,0.642-0.694,1.928-0.578c1.286,0.129,1.929,0.514,1.929,1.157C254.2,79.38,254.2,79.445,254.2,79.515z"/>
				</g>
			</g>
		</g>
	</g>
</g>
</svg>
