<?xml version="1.0" encoding="utf-8"?>
<!-- Generator: Adobe Illustrator 17.0.1, SVG Export Plug-In . SVG Version: 6.00 Build 0)  -->
<!DOCTYPE svg PUBLIC "-//W3C//DTD SVG 1.1//EN" "http://www.w3.org/Graphics/SVG/1.1/DTD/svg11.dtd">
<svg version="1.1" id="Layer_1" xmlns="http://www.w3.org/2000/svg" xmlns:xlink="http://www.w3.org/1999/xlink" x="0px" y="0px"
	 width="253.688px" height="191.616px" viewBox="3.893 32.699 253.688 191.616"
	 enable-background="new 3.893 32.699 253.688 191.616" xml:space="preserve">
<g>
	<g id="Layer_1_1_">
		<g>
			<g id="Layer_1_3_">
				<g>
					<path fill="#FFFFFF" d="M55.677,152.401l-0.065-0.131h9.567l0.797,2.391c0.368,1.237,0.553,2.209,0.553,2.914
						c0,0.823-0.092,1.497-0.277,2.017c-0.423,1.084-1.22,1.628-2.392,1.628c-1.724,0-3.097-0.64-4.116-1.92
						c-0.282-0.336-0.586-0.813-0.912-1.431l-0.488-0.943C57.446,155.742,56.556,154.235,55.677,152.401z"/>
					<path fill="#FFFFFF" d="M27.366,159.902c0.239-0.586,0.792-1.703,1.66-3.353c0.749-1.388,1.308-2.581,1.676-3.579l0.244-0.699
						h10.3l-1.123,1.855c-1.53,2.311-3.476,4.637-5.841,6.981c-2.626,2.625-4.502,3.937-5.63,3.937
						c-0.738,0-1.296-0.271-1.676-0.813c-0.25-0.326-0.374-0.635-0.374-0.927C26.6,162.283,26.855,161.15,27.366,159.902z"/>
					<path fill="#FFFFFF" d="M222.979,182.991l-3.4,6.053c-1.388,2.462-2.462,4.524-3.221,6.183
						c-1.313,2.897-2.87,5.467-4.671,7.712c-1.344,1.671-2.57,2.783-3.676,3.336c-0.033,0.022-0.104,0.086-0.212,0.196
						c-0.315,0.272-0.76,0.407-1.335,0.407c-1.389,0-2.468-0.57-3.238-1.709c-0.51-0.771-0.765-1.411-0.765-1.92
						c0-0.933,0.212-1.996,0.636-3.189c-0.261-0.456-0.516-1.003-0.765-1.643l-0.879-2.214c-0.726-1.628-1.665-2.44-2.815-2.44
						c-0.293,0-0.575,0.141-0.846,0.422c-0.315,0.423-0.558,0.726-0.732,0.912c-0.792,0.89-2.018,1.335-3.677,1.335
						c-0.184,0-0.726-0.049-1.628-0.147c-0.911-0.098-1.523-0.146-1.838-0.146l-0.553,0.016c-0.694,0.651-4.035,2.582-10.023,5.793
						c-6.41,3.438-9.844,5.157-10.299,5.157c-1.292,0-2.246-0.413-2.865-1.237c-0.391-0.499-0.585-0.976-0.585-1.432
						s0.086-0.861,0.26-1.22c0.227-0.477,0.558-0.846,0.992-1.106c0.651-0.813,1.865-1.769,3.645-2.863
						c0.532-0.326,1.671-0.987,3.417-1.985c1.399-0.793,2.332-1.356,2.798-1.692l1.351-0.96l1.122-1.449
						c1.031-1.335,1.546-2.283,1.546-2.847c0-0.272-0.109-0.472-0.326-0.602c-0.325-0.174-0.939-0.272-1.839-0.293
						c-0.065,0.141-0.39,0.374-0.976,0.7l-0.277,0.146c-0.174,0.249-0.596,0.537-1.27,0.862c-0.89,0.456-1.589,0.682-2.098,0.682
						c-0.857,0-1.449-0.368-1.774-1.106c-0.153-0.346-0.228-0.759-0.228-1.237c0-1.366,1.269-3.042,3.808-5.027
						c0.835-0.651,2.029-1.497,3.578-2.538l3.677-2.408c1.031-0.683,2.697-1.839,4.995-3.467h39.328
						C225.643,178.393,224.194,180.714,222.979,182.991z"/>
					<path fill="none" stroke="#373535" stroke-width="1.5791" d="M169.252,47.077l-2.538-1.545
						c-1.237-0.803-2.018-1.404-2.344-1.807c-0.651-0.586-1.344-1.144-2.082-1.676c-0.554-0.401-0.982-0.666-1.286-0.797
						c-1.127-0.846-2.69-1.649-4.686-2.408c-2.96-1.106-5.494-1.389-7.599-0.846c-3.015,0.553-5.88,1.378-8.591,2.473
						c-2.841,1.323-4.859,2.23-6.052,2.717l-9.405,3.889"/>
					<path fill="none" stroke="#373535" stroke-width="1.5791" d="M101.172,47.077c-2.149-0.401-3.758-0.721-4.833-0.96
						c-1.833-0.293-3.476-0.585-4.93-0.878l-4.198-0.814c-1.692-0.282-3.292-0.456-4.799-0.521l-3.14-1.562
						c-1.692-0.824-3.124-1.426-4.295-1.805c-1.421-0.38-4.1-0.217-8.038,0.487c-1.345,0.217-2.691,0.488-4.035,0.814
						c-0.628,0.141-1.117,0.265-1.464,0.374c-0.781-0.933-1.47-1.784-2.067-2.554c-0.227-0.261-0.711-0.9-1.448-1.92
						c-0.564-0.781-1.084-1.382-1.562-1.807c-1.421-1.269-3.677-2.082-6.769-2.44c-1.984,0.055-3.553,0.201-4.703,0.439
						c-0.184,0.033-0.857,0.179-2.018,0.439L42.92,34.4c-4.436,0.771-7.794,2.517-10.072,5.24c-1.822,2.17-2.734,4.583-2.734,7.241
						v0.195"/>
					<path fill="none" stroke="#373535" stroke-width="1.5791" d="M66.628,46.474c-1.616-0.814-3.113-1.97-4.491-3.466l-0.7-0.797"
						/>
					<path fill="none" stroke="#373535" stroke-width="1.5791" d="M44.661,34.027c-0.846,0.25-1.822,0.651-2.929,1.204
						c-1.139,0.564-2.034,1.096-2.685,1.595l0.195-0.293c0.098-0.131,0.146-0.217,0.146-0.261c0-0.011-0.022-0.054-0.065-0.131
						c0-0.011-0.005-0.011-0.017,0c-0.466-0.022-1.106,0.434-1.92,1.366c-0.781,0.867-1.172,1.47-1.172,1.807l0.016,0.179
						l0.048,0.065h0.114c-0.759,1.009-1.514,2.137-2.261,3.385c-1.237,1.876-2.099,3.254-2.588,4.132"/>
					<path fill="#373535" d="M39.243,36.532c-0.187,0.25-0.255,0.351-0.203,0.301c-1.698,1.698-2.579,2.607-2.645,2.726h-0.114
						l-0.048-0.065l-0.016-0.179c0-0.336,0.391-0.939,1.172-1.807c0.814-0.933,1.454-1.389,1.92-1.366
						c0.011-0.011,0.017-0.011,0.017,0c0.043,0.076,0.065,0.119,0.065,0.131C39.389,36.315,39.341,36.402,39.243,36.532z"/>
					<path fill="none" stroke="#373535" stroke-width="1.5791" d="M124.668,47.077l-1.514,0.586
						c-0.131,0.022-0.374,0.076-0.732,0.163l-1.66,0.504c-1.638,0.478-3.368,0.716-5.191,0.716c-1.573,0-4.577-0.353-9.014-1.058
						c-2.636-0.434-4.431-0.737-5.386-0.912"/>
					<path fill="none" stroke="#373535" stroke-width="1.5791" d="M30.114,47.077c0,0.543,0.022,0.9,0.065,1.075l0.456,1.27
						c-0.217,1.053-0.325,2.316-0.325,3.791c0,0.759-0.287,1.893-0.862,3.4l-0.521,1.253l-0.131,0.146
						c-0.532,0.673-1.025,1.345-1.481,2.018l-0.652,0.618"/>
					<path fill="none" stroke="#373535" stroke-width="1.5791" d="M31.547,47.077c-0.141,0.239-0.277,0.494-0.406,0.765
						c-0.131,0.293-0.299,0.819-0.504,1.579"/>
					<path fill="none" stroke="#373535" stroke-width="1.5791" d="M203.438,60.647l-0.065-0.374
						c-0.131-0.781-0.196-1.361-0.196-1.741l0.227-2.506c0-0.542-0.222-1.161-0.666-1.855c-0.434-0.683-1.075-1.373-1.92-2.067
						c-2.007-1.552-4.458-2.402-7.355-2.555c-3.764,0.597-6.742,1.079-8.933,1.448c-3.275,0.564-5.553,1.009-6.833,1.335
						c-1.129-0.575-2.257-1.215-3.385-1.92c-2.223-1.509-3.9-2.614-5.028-3.319"/>
					<path fill="none" stroke="#373535" stroke-width="1.5791" d="M194.57,60.647l-1.969-1.009
						c-5.587-3.037-9.686-5.083-12.301-6.134c-0.477-0.184-1.344-0.575-2.603-1.172"/>
					<path fill="none" stroke="#373535" stroke-width="1.5791" d="M204.154,65.609c-0.814-0.575-2.457-1.475-4.931-2.7
						c-2.202-1.041-3.753-1.796-4.654-2.261"/>
					<path fill="none" stroke="#373535" stroke-width="1.5791" d="M248.753,87.788c-0.173-0.618-0.401-1.172-0.682-1.66
						c-0.153-0.781-0.228-1.242-0.228-1.382c0-0.63-0.119-1.622-0.358-2.978c-0.249-1.41-0.57-2.853-0.96-4.328
						c-0.705-2.581-1.366-4.214-1.985-4.897l0.049-0.131c-1.66-1.28-2.837-2.533-3.531-3.758c-0.694-1.215-2.3-2.359-4.816-3.433
						c-3.058-0.771-5.521-0.878-7.387-0.325c-0.618,0.174-1.249,0.45-1.888,0.83c-0.63,0.423-1.063,0.688-1.301,0.797
						c-0.738,0.391-1.383,0.976-1.937,1.757c-0.542,0.867-0.905,1.421-1.09,1.659l-2.538,3.498c-0.575-0.456-1.714-1.182-3.417-2.18
						c-2.191-1.291-3.845-2.196-4.963-2.717c-0.336-0.162-2.056-0.743-5.157-1.741c-1.368-0.683-2.17-1.079-2.408-1.188v-0.325
						c0-0.51-0.055-1.085-0.163-1.725c-0.055-0.413-0.157-0.955-0.308-1.626l-0.244-1.285"/>
					<path fill="none" stroke="#373535" stroke-width="1.5791" d="M220.1,73.436c-1.151,1.508-2.04,2.728-2.669,3.661l-2.424,3.498
						c-1.54,2.213-2.891,4.584-4.052,7.11l-0.032,0.081"/>
					<path fill="none" stroke="#373535" stroke-width="1.5791" d="M205.228,91.107c-1.106-0.271-2.408,0.055-3.905,0.977
						c-1.324,0.813-2.729,2.061-4.215,3.743c-1.378,1.562-2.647,3.276-3.807,5.142c-1.151,1.855-2.023,3.574-2.619,5.157
						c-0.315,0.814-1.552,3.753-3.71,8.819"/>
					<path fill="none" stroke="#373535" stroke-width="1.5791" d="M186.971,114.944l-0.048,0.114
						c-1.454,3.406-2.343,5.592-2.669,6.558c-0.651,1.421-1.399,4.383-2.246,8.884c-0.998,5.272-1.523,9.134-1.578,11.584"/>
					<path fill="none" stroke="#373535" stroke-width="1.5791" d="M253.374,114.944c-0.108-0.435-0.255-0.89-0.439-1.368
						c-1.225-7.735-1.991-12.448-2.295-14.139l-1.334-7.371c-0.206-2.094-0.347-3.319-0.423-3.677l-0.131-0.602"/>
					<path fill="none" stroke="#373535" stroke-width="1.5791" d="M238.275,114.944c0.075-0.89,0.227-2.268,0.456-4.133
						c0.401-2.972,0.601-4.55,0.601-4.735l0.098-0.764c0.142-0.575,0.283-1.248,0.423-2.018c0.422-2.972,0.722-4.925,0.896-5.858
						c0.086-0.553,0.314-1.339,0.682-2.359c0.575-1.53,0.867-2.316,0.879-2.359c0.141-0.434,0.596-1.313,1.366-2.635
						c0.705-1.259,1.058-1.97,1.058-2.132l-0.017-0.162"/>
					<path fill="none" stroke="#373535" stroke-width="1.5791" d="M210.923,87.788c-0.76,1.66-1.682,3.987-2.767,6.98
						c-0.521,1.454-1.194,4.183-2.018,8.185c-0.651,3.254-1.009,5.223-1.074,5.906l-0.488,1.22
						c-0.488,1.356-0.732,2.474-0.732,3.352c0,0.293-0.049,0.797-0.147,1.514"/>
					<path fill="none" stroke="#373535" stroke-width="1.5791" d="M203.698,114.944l-0.293,2.05
						c-0.292,1.877-0.439,2.896-0.439,3.059c0,4.448,0.683,8.662,2.05,12.642c0.998,2.908,2.478,6.036,4.443,9.388"/>
					<path fill="none" stroke="#373535" stroke-width="1.5791" d="M252.903,142.085l0.179-0.277c0.347-0.52,0.867-1.464,1.562-2.831
						c0.325-0.639,0.607-1.242,0.846-1.805c0.368-0.347,0.673-1.129,0.911-2.343c0.26-1.28,0.391-2.478,0.391-3.596
						c0-1.248-0.282-2.913-0.846-4.995l-1.318-4.882l-0.472-2.456c-0.206-1.096-0.374-1.92-0.504-2.474
						c-0.076-0.575-0.167-1.069-0.277-1.48"/>
					<path fill="none" stroke="#373535" stroke-width="1.5791" d="M235.752,142.085c0.337-1.356,0.636-2.836,0.896-4.442
						c0.423-2.723,0.667-5.706,0.732-8.949c0.249-0.737,0.423-1.914,0.521-3.531l0.146-7.306c0.043-0.89,0.119-1.86,0.228-2.912"/>
					<path fill="none" stroke="#373535" stroke-width="1.5791" d="M26.664,60.647c-0.921,0.824-2.294,1.796-4.116,2.913
						c-0.358,0.174-1.28,0.58-2.766,1.22c-1.041,0.445-1.735,0.96-2.082,1.545c-0.37,0.673-0.831,1.28-1.383,1.822
						c-0.63,0.652-1.323,1.156-2.083,1.514c-0.25,0.12-0.862,0.726-1.838,1.822c-1.215,1.4-2.295,2.745-3.238,4.035
						c-2.982,4.09-4.474,7.257-4.474,9.502c0,1.031,0.082,1.779,0.244,2.246c0.011,0.065,0.081,0.239,0.212,0.521"/>
					<path fill="none" stroke="#373535" stroke-width="1.5791" d="M5.138,87.788c0.185,0.444,0.526,1.166,1.025,2.164
						c0.716,1.453,1.258,2.473,1.627,3.059c0.835,1.27,1.611,1.903,2.327,1.903h0.146l1.595,1.351
						c1.313,1.084,2.261,1.828,2.848,2.229c0.239,0.987,1.568,2.208,3.987,3.661c2.701,1.638,5.164,2.626,7.387,2.961
						c0.803,0.141,4.084,1.036,9.844,2.685c3.362,0.965,5.955,1.638,7.778,2.018c1.129,0.413,2.567,0.786,4.312,1.122
						c-1.54,1.323-2.972,2.658-4.296,4.004"/>
					<path fill="none" stroke="#373535" stroke-width="1.5791" d="M14.706,98.494c1.096,0.358,2.213,0.667,3.352,0.927
						c1.27,0.293,3.45,0.683,6.541,1.172c1.084,0.174,2.707,0.553,4.865,1.139c1.27,0.336,2.722,0.747,4.36,1.236
						c2.387,0.716,7.23,1.688,14.531,2.913c5.402,0.9,9.258,1.47,11.569,1.709l1.382,0.277c1.161,0.239,1.963,0.358,2.409,0.358
						c4.046-0.011,7.615,0.255,10.706,0.798c1.411,0.26,2.653,0.45,3.727,0.57c1.595,0.174,3.601,0.261,6.021,0.261
						c8.375,0,14.514-0.212,18.42-0.635c0.141,0,0.277-0.016,0.406-0.048c2.17-0.065,4.035-0.499,5.597-1.301
						c0.976-0.542,1.697-1.122,2.164-1.741"/>
					<path fill="none" stroke="#373535" stroke-width="1.5791" d="M53.318,111.756l1.335,0.196c1.843,0.25,3.444,0.516,4.799,0.797
						c4.816,1.009,7.919,1.6,9.307,1.774c0.683,0.087,1.914,0.228,3.693,0.423"/>
					<path fill="none" stroke="#373535" stroke-width="1.5791" d="M48.013,110.942l5.305,0.814c0,0.293,0.657,1.356,1.969,3.19"/>
					<path fill="none" stroke="#373535" stroke-width="1.5791" d="M55.287,114.944l0.521,0.716c1.617,2.213,2.669,3.52,3.157,3.921
						l4.947,3.921c1.757,1.421,3.206,2.674,4.345,3.759c1.084,1.031,2.218,2.034,3.4,3.01c1.411,1.15,3.271,2.538,5.582,4.166
						l0.976,0.635c1.041,0.694,3.221,2.218,6.541,4.572c2.007,1.432,3.287,2.246,3.839,2.44 M71.656,130.272
						c-0.704-0.108-1.774-0.222-3.206-0.342c-2.809-0.196-4.328-0.32-4.556-0.374c-0.998,0.011-2.05-0.087-3.157-0.293l-0.528-0.106
						c-0.187,0.113-0.619,0.306-1.294,0.578c-0.998,0.466-3.433,1.318-7.305,2.555c-4.458,1.41-7.311,2.115-8.559,2.115
						c-0.542,0-1.1-0.153-1.676-0.456c-0.325-0.163-0.592-0.326-0.797-0.488 M63.911,123.503c-0.141,0.347-0.315,0.722-0.521,1.123
						c-0.174,0.358-0.478,0.917-0.911,1.676c-0.347,0.63-0.76,1.21-1.237,1.741c-0.358,0.391-0.771,0.749-1.237,1.074l0.203,0.041
						 M62.951,142.085c0-1.497,0.222-2.647,0.667-3.449c0.423-0.77,1.118-1.335,2.083-1.692c0.781-0.293,1.985-0.521,3.612-0.683
						l3.727-0.358c0.162,0,0.451,0.016,0.862,0.048c0.77,0,1.557-0.239,2.359-0.716c0.51-0.325,0.835-0.592,0.977-0.797"/>
					<path fill="none" stroke="#373535" stroke-width="1.5791" d="M43.718,114.944c-1.291,1.323-2.452,2.619-3.482,3.889
						c-2.387,2.961-4.197,5.868-5.434,8.721c-0.488,1.118-1.676,2.598-3.564,4.443l-4.362,4.231
						c-1.215,1.334-2.235,2.749-3.059,4.246c-0.325,0.576-0.585,1.113-0.781,1.611"/>
					<path fill="none" stroke="#373535" stroke-width="1.5791" d="M72.453,114.944c1.583,0.162,3.314,0.325,5.191,0.487
						c3.092,0.25,4.854,0.374,5.288,0.374l1.236-0.081"/>
					<path fill="none" stroke="#373535" stroke-width="1.5791" d="M144.633,142.085c-0.803-0.867-1.583-1.79-2.343-2.766
						c-0.499-0.63-1.263-1.351-2.295-2.164l-4.312-3.288c-0.465-0.358-0.873-0.7-1.22-1.025c-0.108-0.076-0.363-0.32-0.764-0.732"/>
					<path fill="none" stroke="#373535" stroke-width="1.5791" d="M88.595,142.085l0.081,0.033c0.326,0.542,1.308,1.378,2.946,2.506
						c2.082,1.432,3.59,2.148,4.523,2.148h0.033c0.683,0.9,1.497,1.844,2.44,2.831c1.258,1.313,2.088,1.975,2.49,1.985
						c1.66,1.421,2.772,2.338,3.335,2.75c1.747,1.292,3.655,2.397,5.727,3.319l3.254,1.432c1.323,0.542,2.691,0.981,4.1,1.317
						c0.347,0.076,2.039,0.538,5.076,1.383c3.049,0.737,5.776,1.106,8.184,1.106c0.845,0,1.323-0.017,1.432-0.049h0.033
						c-0.943,1.584-1.752,2.929-2.424,4.036l-1.448,2.359"/>
					<path fill="none" stroke="#373535" stroke-width="1.5791" d="M129.175,153.637l-0.065,0.049
						c0.184,0.543,0.884,1.991,2.099,4.345c1.118,2.158,1.676,3.352,1.676,3.579c0,0.054-0.212,0.465-0.635,1.236"/>
					<path fill="none" stroke="#373535" stroke-width="1.5791" d="M100.44,189.288c1.996,0.445,3.466,0.726,4.41,0.846"/>
					<path fill="none" stroke="#373535" stroke-width="1.5791" d="M128.378,169.242c-1.019,1.648-1.616,2.587-1.79,2.815
						l-1.709,2.619c-0.673,1.052-1.329,1.925-1.969,2.619c-0.434,0.466-0.878,0.982-1.334,1.546
						c-1.54,0.792-2.837,1.687-3.889,2.685c-0.726,0.726-1.411,1.573-2.051,2.538c-0.391,0.109-0.89,0.212-1.497,0.31
						c-0.683,0.119-1.172,0.179-1.464,0.179c-2.332,0-5.391-0.445-9.177-1.335c-2.483-0.586-4.978-1.27-7.485-2.05
						c-0.921-0.098-2.104-0.38-3.547-0.846c-1.497-0.521-2.696-0.917-3.596-1.189c-1.301-0.368-2.316-0.532-3.042-0.487
						c-0.661,0.065-1.177,0.315-1.545,0.749c-0.239,0.152-0.423,0.308-0.554,0.472c-0.271,0.315-0.406,0.797-0.406,1.448
						c0,1.497,2.805,3.281,8.413,5.353c2.235,0.824,4.605,1.562,7.11,2.214l1.595,0.406l0.163,0.391
						c0.152,0.336,0.227,0.532,0.227,0.586c0,0.336-0.076,0.803-0.227,1.399c-0.153,0.553-0.234,0.987-0.244,1.301
						c-0.759,0.153-1.579,0.293-2.457,0.423c-2.267,0.315-4.751,0.472-7.452,0.472c-5.055,0-9.068-0.206-12.041-0.619
						c-0.824-0.119-1.628-0.271-2.409-0.456l-0.895-0.26c-0.716-0.162-1.969-0.407-3.758-0.732c-1.92-0.347-3.097-0.597-3.531-0.749
						c-2.506-0.77-4.405-1.335-5.695-1.692c-1.843-0.478-3.765-0.841-5.761-1.091c-0.704-0.119-1.404,0.033-2.099,0.457
						c-0.597,0.368-0.895,0.694-0.895,0.976v0.017c-0.033,0.022-0.048,0.043-0.048,0.065c-0.206,0.304-0.308,0.564-0.308,0.781
						c0,0.456,0.824,1.165,2.473,2.131c1.464,0.836,2.44,1.313,2.929,1.432c1.161,0.303,2.626,0.813,4.393,1.53l1.92,0.732"/>
					<path fill="none" stroke="#373535" stroke-width="1.5791" d="M115.638,184.066c-1.659,2.722-2.582,4.197-2.766,4.426
						c-0.922,1.313-2.029,2.468-3.319,3.466"/>
					<path fill="none" stroke="#373535" stroke-width="1.5791" d="M29.692,142.085c0.607,0.792,1.041,1.671,1.301,2.636
						c0.131,0.51,0.244,1.177,0.342,2.001c0.086,0.867,0.131,1.59,0.131,2.164c0,1.313-0.255,2.674-0.765,4.084
						c-0.368,0.998-0.927,2.192-1.676,3.579c-0.869,1.649-1.421,2.767-1.66,3.353c-0.51,1.248-0.765,2.381-0.765,3.4
						c0,0.293,0.125,0.601,0.374,0.927c0.38,0.543,0.938,0.813,1.676,0.813c1.129,0,3.005-1.313,5.63-3.937
						c2.366-2.343,4.312-4.67,5.841-6.981c1.53-2.57,2.799-4.491,3.808-5.761c1.626-2.06,3.531-3.59,5.711-4.588
						c1.628,1.02,2.946,2.414,3.954,4.183c0.586,1.041,1.28,2.522,2.083,4.443c0.878,1.833,1.769,3.34,2.669,4.524l0.488,0.943
						c0.325,0.618,0.63,1.095,0.912,1.431c1.019,1.28,2.392,1.92,4.116,1.92c1.172,0,1.969-0.543,2.392-1.628
						c0.184-0.52,0.277-1.194,0.277-2.017c0-0.705-0.184-1.677-0.553-2.914l-1.237-3.709c-1.193-3.613-1.79-6.558-1.79-8.836"/>
					<path fill="none" stroke="#373535" stroke-width="1.5791" d="M28.211,140.588c0,0.033,0.368,0.385,1.106,1.058
						c0.097,0.098,0.222,0.243,0.374,0.439"/>
					<path fill="none" stroke="#373535" stroke-width="1.5791" d="M23.037,142.085c-0.423,1.041-0.635,1.975-0.635,2.799
						c0,0.292,0.033,0.504,0.098,0.635c0.184,0.358,0.575,0.537,1.172,0.537c0.487,0,1.046-0.2,1.676-0.601
						c0.521-0.391,0.971-0.7,1.351-0.929c0.304-0.174,0.862-0.542,1.676-1.106c0.824-0.575,1.236-0.905,1.236-0.992"/>
					<path fill="none" stroke="#373535" stroke-width="1.5791" d="M95.38,201.736l4.295,0.439c0.098,0,0.206-0.022,0.325-0.065
						c0.131-0.043,0.218-0.06,0.261-0.048"/>
					<path fill="none" stroke="#373535" stroke-width="1.5791" d="M102.263,203.445c-0.423,0.683-1.166,1.388-2.23,2.115"/>
					<path fill="none" stroke="#373535" stroke-width="1.5791" d="M64.725,196.383c0.9,0.326,1.633,0.564,2.196,0.716
						c1.931,0.521,4.052,1.02,6.362,1.498c2.722,0.563,4.431,0.933,5.126,1.106c0.77,0.184,2.278,0.422,4.524,0.716
						c2.072,0.293,3.617,0.466,4.637,0.52c0.63,0.044,2.798,0.261,6.508,0.652l1.302,0.146l-0.081,0.033l2.717,1.79
						c0.109,0.086,0.456,0.456,1.042,1.106c0.532,0.596,0.835,0.895,0.911,0.895h0.065c-1.302,0.869-3.08,1.703-5.336,2.507
						c-0.683,0.248-2.484,0.83-5.403,1.74c-2.246,0.695-4.063,1.308-5.451,1.839c-5.131,1.941-8.591,3.395-10.381,4.36
						c-3.07,1.671-4.605,3.369-4.605,5.093c0,1.215,0.716,1.969,2.148,2.261c0.477,0.087,1.106,0.141,1.888,0.163l1.709-0.033
						c1.649,0,4.99-1.127,10.023-3.385c2.419-1.084,4.892-2.252,7.42-3.498c3.482-1.344,5.228-2.018,5.24-2.018
						c2.462-0.921,4.649-1.648,6.558-2.179c5.63-1.584,10.414-2.083,14.351-1.498v-0.081c4.479-0.292,7.311-0.537,8.494-0.732
						c1.02-0.162,2.12-0.52,3.304-1.074l2.49-1.139c1.431-0.651,2.299-1.091,2.603-1.318c1.15-0.814,2.131-1.774,2.946-2.88
						c0.205-0.282,0.704-1.063,1.497-2.343c0.704-0.434,1.6-1.155,2.685-2.164c0.998-0.933,1.644-1.659,1.936-2.18l0.521-0.618"/>
					<path fill="none" stroke="#373535" stroke-width="1.5791" d="M221.271,169.242l0.147-0.212c0.303-0.402,0.51-0.781,0.618-1.139
						c5.674-7.333,9.666-14.043,11.976-20.128c0.705-1.909,1.285-3.801,1.74-5.68"/>
					<path fill="none" stroke="#373535" stroke-width="1.5791" d="M232.629,169.242c0.867-1.02,1.778-2.061,2.734-3.125
						c1.552-1.682,3.242-3.455,5.076-5.322c1.378-1.41,2.067-2.17,2.067-2.277v-0.017c2.853-2.734,5.217-6.244,7.093-10.528
						c0.662-1.541,1.763-3.504,3.304-5.891"/>
					<path fill="none" stroke="#373535" stroke-width="1.5791" d="M209.458,142.085c0.673,1.151,1.411,2.349,2.214,3.596"/>
					<path fill="none" stroke="#373535" stroke-width="1.5791" d="M161.816,158.763l-0.781-1.449
						c-0.076-0.108-0.494-0.884-1.253-2.327c-0.456-0.911-1.009-1.643-1.659-2.197c-0.586-0.52-1.741-1.28-3.466-2.277
						c-1.801-1.053-2.918-1.758-3.353-2.116c-2.494-2.05-4.717-4.154-6.671-6.313"/>
					<path fill="none" stroke="#373535" stroke-width="1.5791" d="M180.43,142.085l0.131,5.711
						c-0.012,0.099,0.005,0.717,0.048,1.856"/>
					<path fill="none" stroke="#373535" stroke-width="1.5791" d="M163.996,169.242c0.098-0.488,0.147-0.966,0.147-1.432
						c0-0.5-0.087-1.009-0.26-1.53c0-1.106-0.321-2.653-0.96-4.637c-0.37-1.127-0.755-2.127-1.156-2.994h0.293
						c0.911,0,2.836-0.482,5.776-1.448c2.679-0.879,4.642-1.616,5.89-2.214c1.041-0.499,2.31-1.313,3.807-2.44
						c1.096-0.824,1.844-1.509,2.247-2.05l0.211-0.196c0.304-0.304,0.51-0.521,0.619-0.651c0.249,1.659,0.954,3.536,2.115,5.63
						c0.998,1.844,2.49,4.095,4.475,6.752c0.813,1.075,1.838,2.23,3.075,3.466c1.368,1.368,2.588,2.426,3.661,3.174l0.862,0.57"/>
					<path fill="none" stroke="#373535" stroke-width="1.5791" d="M194.797,169.242c0.26,0.162,0.765,0.456,1.514,0.878l0.537,0.277
						l0.651,0.31c0.315,0.153,0.965,0.439,1.953,0.862c1.204,0.499,2.841,0.987,4.913,1.464l1.01,0.228
						c2.473,0.413,4.078,0.618,4.815,0.618c3.656,0,6.692-0.905,9.113-2.717c0.835-0.63,1.491-1.269,1.968-1.919 M181.635,186.978
						c2.691-1.649,5.684-3.341,8.982-5.076c3.59-1.855,6.297-3.096,8.119-3.727c1.432-1.334,2.989-2.575,4.67-3.726
						c0.857-0.575,1.514-0.971,1.97-1.188 M175.418,196.383c0.51-0.293,0.939-0.564,1.285-0.813l1.351-0.96l1.122-1.449
						c1.031-1.335,1.546-2.283,1.546-2.847c0-0.272-0.109-0.472-0.326-0.602c-0.325-0.174-0.939-0.272-1.839-0.293
						c-0.065,0.141-0.39,0.374-0.976,0.7l-0.277,0.146c-0.174,0.25-0.596,0.537-1.27,0.862c-0.89,0.456-1.589,0.682-2.098,0.682
						c-0.857,0-1.449-0.368-1.774-1.106c-0.153-0.346-0.228-0.759-0.228-1.237c0-1.366,1.269-3.042,3.808-5.027
						c0.835-0.651,2.029-1.497,3.578-2.538l3.677-2.408c1.639-1.096,4.377-3.021,8.218-5.776c2.409-1.649,4.285-2.755,5.63-3.319
						 M178.054,194.609l8.802-6.752c1.063-0.814,2.848-2.116,5.354-3.906c2.017-1.485,3.564-2.793,4.636-3.922l1.888-1.856"/>
					<path fill="none" stroke="#373535" stroke-width="1.5791" d="M204.789,196.383c0.184-0.347,0.494-0.879,0.927-1.595
						l2.782-4.328c1.063-1.649,1.865-3.015,2.409-4.1c1.28-2.605,3.124-5.397,5.532-8.38c0.586-0.749,1.204-1.497,1.855-2.246
						l-9.323,6.997c-2.863,2.3-5.038,3.975-6.524,5.028c-2.745,1.974-5.603,3.564-8.576,4.767"/>
					<path fill="none" stroke="#373535" stroke-width="1.5791" d="M215.82,196.383l0.538-1.156c0.759-1.659,1.833-3.72,3.221-6.183
						l3.4-6.053c2.3-4.317,5.516-8.9,9.65-13.749"/>
					<path fill="none" stroke="#373535" stroke-width="1.5791" d="M144.665,196.383c0.282-0.37,0.645-0.911,1.09-1.628
						c0.326-0.51,0.972-1.161,1.937-1.952l2.18-1.822c2.05-2.072,3.33-3.378,3.839-3.922c1.258-1.344,2.327-2.609,3.206-3.792
						c0.749-1.009,1.497-2.289,2.246-3.839c1.182-2.43,1.821-3.726,1.919-3.889l2.132-4.003c0.368-0.77,0.63-1.535,0.78-2.294"/>
					<path fill="none" stroke="#373535" stroke-width="1.5791" d="M175.418,196.383l-1.514,0.879
						c-1.747,0.997-2.886,1.659-3.417,1.985c-1.778,1.095-2.994,2.05-3.645,2.863c-0.434,0.26-0.765,0.63-0.992,1.106
						c-0.174,0.359-0.26,0.765-0.26,1.22c0,0.457,0.195,0.934,0.585,1.432c0.619,0.824,1.573,1.237,2.865,1.237
						c0.456,0,3.889-1.72,10.299-5.157c5.424-2.897,8.667-4.752,9.731-5.565"/>
					<path fill="none" stroke="#373535" stroke-width="1.5791" d="M189.07,196.383l0.293-0.228l0.553-0.016
						c0.315,0,0.927,0.048,1.838,0.146l2.49,0.098c1.215-0.129,2.153-0.558,2.815-1.285c0.174-0.185,0.417-0.488,0.732-0.912
						c0.272-0.282,0.553-0.422,0.846-0.422c1.15,0,2.088,0.813,2.815,2.44l0.081,0.179"/>
					<path fill="none" stroke="#373535" stroke-width="1.5791" d="M201.534,196.383l0.798,2.035
						c0.248,0.639,0.504,1.188,0.765,1.643c-0.423,1.193-0.636,2.257-0.636,3.189c0,0.51,0.255,1.15,0.765,1.92
						c0.771,1.139,1.85,1.709,3.238,1.709c0.575,0,1.02-0.136,1.335-0.407c0.108-0.109,0.179-0.174,0.212-0.196
						c1.106-0.553,2.332-1.665,3.676-3.336c1.541-1.909,2.918-4.095,4.133-6.558"/>
					<path fill="none" stroke="#373535" stroke-width="1.5791" d="M204.789,196.383c-0.434,0.792-0.998,2.017-1.692,3.677"/>
					<path fill="none" stroke="#373535" stroke-width="1.5791" d="M137.018,65.333c-2.246-1.27-5.391-2.598-9.437-3.987
						c-4.242-1.356-7.387-2.419-9.437-3.189c-1.129-0.098-2.815-0.488-5.061-1.172c-2.886-0.867-5.04-1.448-6.46-1.741
						c-6.14-1.27-12.952-1.096-20.437,0.521"/>
					<path fill="#373535" stroke="#373535" stroke-width="1.0528" stroke-miterlimit="10" d="M70.403,61.297
						c-0.64-0.141-1.096-0.233-1.366-0.277c-0.098-0.022-0.239-0.033-0.423-0.033c-2.419,0-4.415,0.217-5.988,0.651
						c-0.933,0.239-1.687,0.548-2.261,0.927l-1.253,0.846h-0.651c0.933-0.835,2.186-1.545,3.758-2.131
						c1.747-0.651,3.151-0.917,4.214-0.797c1.28-0.098,2.994,0.119,5.142,0.651c2.029,0.466,3.07,0.857,3.125,1.172
						c0.63,0.271,1.231,0.64,1.805,1.106h-0.683l-1.22-0.895h-0.065c-1.628-0.521-2.549-0.809-2.766-0.862l-0.131-0.048
						C71.487,61.553,71.076,61.45,70.403,61.297z"/>
					<path fill="#373535" d="M68.092,62.665c-1.747-0.065-3.992,0.184-6.737,0.749h-0.212c0.456-0.141,1.215-0.282,2.278-0.422
						l2.343-0.31c0.347-0.087,0.867-0.131,1.561-0.131c0.586,0,1.361,0.06,2.327,0.179c1.28,0.152,2.349,0.358,3.205,0.618
						l0.196,0.065h-0.391C70.756,62.957,69.231,62.708,68.092,62.665z"/>
					<path fill="#373535" d="M74.943,64.259c-0.466-0.304-1.225-0.586-2.278-0.846h0.391c0.434,0.153,0.911,0.282,1.432,0.391
						c0.857,0.575,1.687,1.242,2.49,2.001c0.25,0.25,0.428,0.439,0.537,0.57h-0.196C76.157,65.236,75.366,64.53,74.943,64.259z"/>
					<path fill="#373535" d="M58.086,64.145c-0.272,0.174-0.472,0.315-0.602,0.423c-0.824,0.694-1.459,1.291-1.904,1.79
						l-0.017,0.016H55.27l0.52-0.57c0.586-0.705,1.296-1.335,2.132-1.888l0.065-0.016l0.472-0.488h0.651L58.086,64.145z
						 M57.776,65.333c0.239-0.218,0.407-0.358,0.504-0.423l0.488-0.325c0.618-0.392,1.351-0.76,2.196-1.106l0.179-0.065h0.212
						c-0.716,0.304-1.274,0.559-1.676,0.765c-0.922,0.488-1.714,1.036-2.375,1.643l-0.082,0.033l0.065-0.065
						C57.364,65.702,57.527,65.55,57.776,65.333z"/>
					<path fill="#373535" d="M76.472,63.901l-0.651-0.488h0.683c0.738,0.607,1.464,1.4,2.18,2.375l0.423,0.586h-0.277l-0.358-0.537
						C78.181,65.327,77.513,64.682,76.472,63.901z"/>
					<path fill="#373535" d="M79.108,66.375c0.466,0.673,0.846,1.301,1.139,1.888c0.174,0.239,0.347,0.575,0.52,1.009l0.212,0.618
						l-0.017-0.033c0.131,0.488,0.196,0.846,0.196,1.075c0,0.054,0.017,0.103,0.048,0.146l0.033,0.131l-0.048,1.091h-0.114v-0.098
						c0-0.423-0.157-1.182-0.472-2.278l-0.472-1.448l-1.301-2.099h0.276V66.375z"/>
					<path fill="#373535" d="M77.579,66.733c-0.108-0.174-0.196-0.293-0.26-0.358h0.196c0.358,0.466,0.635,0.939,0.83,1.416
						l0.553,1.497l0.017,0.081l0.179,0.456v0.26h-0.016c0.076,0.358,0.114,0.705,0.114,1.041l-0.017,0.7
						c0,0.044-0.033,0.163-0.097,0.358l0.016,0.114h-0.179c0.087-0.239,0.108-0.602,0.065-1.091
						c-0.065-0.477-0.103-0.759-0.114-0.845c-0.065-0.272-0.098-0.461-0.098-0.57l0.017-0.146c-0.065-0.131-0.146-0.363-0.244-0.7
						c-0.108-0.37-0.2-0.645-0.277-0.831c-0.163-0.379-0.282-0.657-0.358-0.83C77.959,67.416,77.85,67.232,77.579,66.733z"/>
					<path fill="#373535" d="M55.564,66.375c-0.521,0.575-1.079,1.285-1.676,2.132c-0.293,0.38-0.58,0.869-0.862,1.464l-0.227,0.553
						c-0.239,0.564-0.412,1.155-0.521,1.774h-0.293l0.033-0.098c0.022-0.097,0.206-0.592,0.553-1.48
						c0,0.022,0.157-0.308,0.472-0.993c0.37-0.77,0.683-1.389,0.943-1.855c0.141-0.282,0.423-0.635,0.846-1.058l0.439-0.439H55.564z
						"/>
					<path fill="#373535" d="M54.685,72.297h-0.293l0.065-1.595c0-0.499,0.25-1.258,0.749-2.278c0.487-1.02,0.878-1.654,1.172-1.904
						c-0.683,0.922-1.134,1.774-1.351,2.555c-0.174,0.553-0.265,1.129-0.277,1.724C54.75,71.017,54.729,71.516,54.685,72.297z"/>
					<path fill="#373535" d="M54.392,72.297h0.293c0.011,0.89,0.119,1.8,0.325,2.734c0.239,1.096,0.575,1.996,1.009,2.701
						c0.043,0.065,0.087,0.162,0.131,0.293l0.098,0.196h-0.358l-0.033-0.114l-0.114-0.277c-0.086-0.055-0.141-0.163-0.162-0.325
						l-0.017-0.114l-0.26-0.57c-0.325-0.759-0.488-1.215-0.488-1.366c0-0.065,0.017-0.108,0.048-0.131
						c-0.325-0.955-0.487-1.86-0.487-2.717L54.392,72.297z"/>
					<path fill="#373535" d="M52.277,72.297l-0.065,0.358c-0.217,1.193-0.325,2.566-0.325,4.116c0,0.108,0.022,0.265,0.065,0.472
						c0.044,0.184,0.065,0.342,0.065,0.472c-0.022,0.206-0.027,0.331-0.017,0.374c-0.217-0.368-0.325-1.057-0.325-2.067
						c0-0.835,0.038-1.654,0.114-2.456l0.195-1.27h0.294V72.297z"/>
					<path fill="#373535" d="M52.114,75.877c0.466,0.401,1.096,1.182,1.888,2.343h-0.358c-0.933-1.421-1.459-2.202-1.578-2.343
						H52.114z"/>
					<path fill="#373535" d="M76.195,80.808l0.618-0.683c0.618-0.618,1.188-1.253,1.709-1.903h0.131l-1.709,2.067
						c-0.434,0.575-0.943,1.031-1.53,1.366c-0.532,0.326-1.231,0.613-2.099,0.862c-1.41,0.683-2.582,1.127-3.514,1.335
						c-0.9,0.184-2.278,0.277-4.133,0.277l-1.22-0.048c-1.062,0-2.196-0.227-3.4-0.683l-1.79-0.764h-0.017v-0.017l-0.308-0.146
						c-0.749-0.304-1.389-0.618-1.92-0.943c-0.662-0.51-1.096-0.852-1.302-1.025c-0.781-0.618-1.47-1.378-2.067-2.278h0.358
						c0.716,1.062,1.404,1.822,2.067,2.278l0.586,0.488c0.282,0.227,0.493,0.385,0.634,0.472c0.12,0.076,0.473,0.239,1.058,0.487
						l0.521,0.227c-0.585-0.749-1.084-1.416-1.497-2.001l-0.651-0.716c-0.434-0.499-0.711-0.912-0.83-1.236h0.358
						c0.466,0.911,0.943,1.676,1.432,2.294l-0.114-0.131c0.641,0.88,1.092,1.482,1.351,1.805l0.439,0.163
						c0.759,0.368,1.404,0.645,1.936,0.83c1.052,0.379,2.424,0.57,4.116,0.57c2.159,0,3.813-0.131,4.963-0.391l0.098-0.017
						l1.318-0.472l0.618-0.162l1.041-0.718c0.878-0.63,1.53-1.199,1.953-1.709c0.607-0.726,1.134-1.416,1.578-2.067H77.4
						l-1.903,2.408c-0.358,0.466-0.857,0.917-1.497,1.351l-0.131,0.097l0.065-0.033c0.857-0.282,1.389-0.494,1.595-0.635
						C75.691,81.301,75.913,81.099,76.195,80.808z"/>
					<path fill="#373535" d="M81.077,72.297h0.114l-0.017,0.358c0,0.694-0.304,1.665-0.912,2.913l-0.033-0.017l-0.015-0.098
						c0-0.043,0.017-0.081,0.048-0.114c0.033-0.044,0.048-0.087,0.048-0.131l0.374-1.139C80.936,73.289,81.066,72.699,81.077,72.297
						z"/>
					<path fill="#373535" d="M79.091,72.297v0.017c0,1.041-0.103,1.974-0.308,2.799c-0.206,0.867-0.602,1.805-1.188,2.815
						L77.4,78.221h-0.423l0.472-0.749c0.25-0.423,0.478-0.878,0.683-1.366c0.152-0.358,0.325-0.987,0.52-1.888
						c0.218-0.987,0.304-1.628,0.261-1.92h0.179V72.297z"/>
					<path fill="#373535" d="M78.522,78.22l0.7-0.961l0.033,0.017v0.065c0,0.087-0.201,0.38-0.602,0.879
						C78.652,78.22,78.522,78.22,78.522,78.22z"/>
					<path fill="none" stroke="#373535" stroke-width="1.5791" d="M91.866,69.092l-0.017-0.081
						c-3.297-0.921-5.804-2.104-7.518-3.547c-0.542-0.456-1.177-1.106-1.903-1.953l-1.741-2.018
						c-0.184-0.184-0.721-0.874-1.611-2.067c-0.683-0.922-1.33-1.643-1.936-2.164c-1.942-1.638-5.05-2.739-9.323-3.304
						c-4.013,0.445-6.959,1.139-8.836,2.083c-0.163,0.087-0.905,0.521-2.23,1.302c-0.911,0.564-1.817,1.036-2.717,1.415
						c-1.724,0.716-3.894,1.752-6.509,3.108c-2.495,1.313-4.524,2.478-6.085,3.498"/>
					<path fill="#373535" stroke="#373535" stroke-width="1.0528" stroke-miterlimit="10" d="M79.189,80.139
						c0.716-0.846,1.378-1.551,1.985-2.115c-0.434,0.64-1.031,1.426-1.79,2.36c-0.726,0.878-1.421,1.643-2.083,2.294
						c-0.553,0.52-0.976,0.895-1.27,1.122c-0.542,0.391-1.134,0.716-1.774,0.976c-0.695,0.25-1.508,0.482-2.44,0.7
						c-1.443,0.347-2.598,0.521-3.466,0.521c-1.692,0-3.102-0.033-4.231-0.098c-1.725-0.119-3-0.293-3.824-0.521
						c-0.347-0.098-0.613-0.222-0.797-0.374c-0.261-0.217-0.461-0.368-0.602-0.456l-1.757-0.96c-0.63-0.325-1.036-0.592-1.22-0.797
						l-0.927-0.813c-0.487-0.401-0.89-0.749-1.204-1.041c-0.282-0.272-0.526-0.564-0.733-0.879
						c-0.303-0.466-0.542-0.802-0.716-1.009l0.017-0.033c0.26,0.196,0.537,0.499,0.83,0.912c0.315,0.423,0.575,0.716,0.781,0.879
						l0.635,0.504c0.227,0.174,0.444,0.32,0.651,0.439c0.184,0.098,0.347,0.244,0.487,0.439l0.342,0.456
						c0.846,0.738,1.774,1.302,2.782,1.692c0.163,0.272,0.63,0.521,1.399,0.749c1.519,0.412,4.214,0.618,8.087,0.618
						c0.477,0,1.583-0.189,3.319-0.57c1.573-0.347,2.44-0.57,2.603-0.666c0.618-0.337,1.166-0.662,1.643-0.977
						c0.543-0.368,0.971-0.732,1.285-1.09C77.238,82.369,77.899,81.615,79.189,80.139z"/>
					<path fill="none" stroke="#373535" stroke-width="1.5791" d="M82.932,75.617c0.227-0.065,0.374-0.168,0.439-0.31
						c0.087-0.174,0.168-0.287,0.244-0.342c0.423-0.26,1.833-0.422,4.231-0.487c1.226-0.033,2.81-0.201,4.751-0.504
						c1.888-0.293,3.087-0.439,3.596-0.439c3.146,0,5.776,0.406,7.891,1.22c2.712,1.031,5.147,2.82,7.305,5.37
						c0.293,0.607,0.716,1.568,1.27,2.88l1.009,2.538l0.196,0.813c0.271,1.096,0.406,1.731,0.406,1.904
						c0,0.098,0.092,0.58,0.277,1.448l0.261,1.253c0,0.651,0.575,2.056,1.724,4.214c0.532,1.009,1.193,2.213,1.985,3.612
						c0.597,1.248,1.204,2.576,1.822,3.987c0.575,1.248,1.101,2.289,1.579,3.125l0.212,0.716c0.488,1.941,0.732,3.645,0.732,5.109
						c0,1.258-0.293,2.478-0.878,3.661c-0.487,0.965-1.091,1.762-1.807,2.392c-0.987,0.488-2.153,1.009-3.498,1.562l-1.025,0.261
						c0,0.022,0.016,0.065,0.048,0.131l-3.938,1.578l-0.423,0.098c-0.542,0.131-0.883,0.239-1.025,0.325"/>
					<path fill="none" stroke="#373535" stroke-width="1.5791" d="M78.897,88.666c-0.933,0.423-1.963,0.792-3.092,1.106
						c-2.354,0.694-4.768,1.041-7.241,1.041c-3.677,0-7.788-0.428-12.334-1.285c-4.068-0.792-7.013-1.622-8.836-2.49"/>
					<path fill="#373535" d="M29.009,75.194l-0.993,0.017c0.391,0.391,0.585,0.683,0.585,0.878c0,0.26-0.131,0.391-0.391,0.391
						c-0.272,0-0.602-0.265-0.993-0.797c-0.152-0.184-0.32-0.423-0.504-0.717c0-0.076,0.162-0.179,0.488-0.308
						c0.325-0.119,0.688-0.206,1.09-0.26c1.053-0.12,1.595,0.162,1.628,0.846l-0.033,0.098c-0.033,0.043-0.103,0.065-0.212,0.065
						c-0.065,0-0.174-0.038-0.325-0.114C29.209,75.226,29.095,75.194,29.009,75.194z"/>
					<path fill="#373535" d="M37.616,36.988c0,0.043-0.451,0.597-1.351,1.66c-1.096,1.28-1.855,2.251-2.278,2.913
						c-0.206,0.336-0.613,1.215-1.22,2.636c-0.499,1.204-0.84,1.807-1.025,1.807c-0.25,0-0.391-0.082-0.423-0.244
						c-0.033-0.087-0.033-0.174,0-0.261c0-1.27,0.873-3.027,2.619-5.272c0.726-0.943,1.426-1.719,2.099-2.327
						c0.683-0.651,1.204-0.987,1.561-1.009c0-0.054,0.005-0.071,0.017-0.048C37.616,36.864,37.616,36.912,37.616,36.988z"/>
					<path fill="#373535" d="M75.154,72.72c0,1.421-0.809,2.636-2.424,3.645c-1.627,1.009-3.591,1.514-5.89,1.514
						c-2.289,0-4.247-0.504-5.874-1.514c-1.617-1.009-2.424-2.223-2.424-3.645s0.809-2.636,2.424-3.645
						c1.616-0.998,3.574-1.497,5.874-1.497c2.299,0,4.263,0.499,5.89,1.497C74.346,70.085,75.154,71.299,75.154,72.72z"/>
				</g>
			</g>
		</g>
	</g>
</g>
</svg>
