<?xml version="1.0" encoding="utf-8"?>
<!-- Generator: Adobe Illustrator 17.0.1, SVG Export Plug-In . SVG Version: 6.00 Build 0)  -->
<!DOCTYPE svg PUBLIC "-//W3C//DTD SVG 1.1//EN" "http://www.w3.org/Graphics/SVG/1.1/DTD/svg11.dtd">
<svg version="1.1" id="Layer_1" xmlns="http://www.w3.org/2000/svg" xmlns:xlink="http://www.w3.org/1999/xlink" x="0px" y="0px"
	 width="249.635px" height="241.977px" viewBox="8.699 4.779 249.635 241.977" enable-background="new 8.699 4.779 249.635 241.977"
	 xml:space="preserve">
<g id="Layer_3">
	<g>
		<g id="Layer_1_4_">
			<g>
				<g id="Layer_1_5_">
					<g>
						<path fill="#FFFFFF" d="M24.748,21.601l-1.27,0.775 M24.45,18.782l-1.072,0.278 M25.621,13.621h-0.794 M24.827,15.368
							c-0.185-0.106-0.477-0.106-0.873,0 M24.649,17.115l-1.072-0.1 M24.827,30.733c0.146-0.252,0.471-0.509,0.973-0.775
							c0.093,0,0.45-0.258,1.072-0.775 M25.998,26.663c-0.04,0-0.198,0.093-0.477,0.278c-0.569,0.397-0.992,0.688-1.27,0.873
							 M25.621,32.678c0.066-0.053,0.873-0.569,2.421-1.549 M26.396,35.119c1.627-0.489,2.634-1.106,3.017-1.846 M25.422,24.023
							c-0.397,0.264-0.92,0.623-1.569,1.072"/>
						<path fill="#FFFFFF" d="M47.02,23.645c0.436,0.252,0.728,0.377,0.873,0.377 M48.092,21.403
							c0.014,0.026,0.04,0.086,0.079,0.179c0.026,0.079,0.059,0.119,0.099,0.119 M49.343,18.484l0.199,0.1 M50.216,16.242
							l0.298,0.298 M51.089,14.117l0.397,0.278 M46.326,25.691c0.199,0.053,0.623,0.211,1.27,0.477 M44.181,31.427
							c0.436,0.516,0.926,0.775,1.469,0.775 M45.076,29.482c0.04,0,0.158,0.066,0.357,0.198c0.397,0.238,0.661,0.397,0.794,0.477
							 M47.199,28.211h-0.278c-0.264,0-0.688-0.192-1.27-0.576 M41.66,34.544l1.37,2.125 M43.03,33.075
							c0.384,1.364,1.125,1.946,2.224,1.747"/>
						<path fill="#FFFFFF" d="M48.092,49.214c0,0.463-0.232,0.694-0.694,0.694c-0.424,0-0.721-0.012-0.893-0.04
							c-0.264-0.041-0.483-0.126-0.655-0.258c-0.159-0.106-0.298-0.264-0.416-0.477c-0.12-0.225-0.179-0.456-0.179-0.694
							c0-0.781,0.357-1.171,1.072-1.171c0.397,0,0.82,0.324,1.27,0.972C47.808,48.453,47.973,48.776,48.092,49.214z"/>
						<path fill="#FFFFFF" d="M51.467,49.432v1.25c0,0.821-0.166,1.45-0.497,1.886c-0.397,0.556-0.986,0.834-1.767,0.834h-0.258
							l-0.178-0.079c-0.331-0.173-1.37-0.212-3.117-0.12c-0.264,0.026-0.497-0.066-0.694-0.278
							c-0.185-0.185-0.278-0.417-0.278-0.694l0.02-0.397c-0.146-0.82-0.218-1.271-0.218-1.35c0.026-0.304,0.099-0.576,0.218-0.814
							c0.067-0.146,0.179-0.345,0.337-0.595l0.021-0.021l0.556-0.834c0.146-0.146,0.436-0.325,0.873-0.536
							c0.225-0.106,0.49-0.225,0.794-0.357c0.477-0.159,0.873-0.238,1.192-0.238c0.675-0.04,1.297,0.159,1.865,0.595
							c0.529,0.41,0.893,0.939,1.091,1.588L51.467,49.432z"/>
						<path fill="#FFFFFF" d="M52.459,56.797c0.185,0,0.351-0.046,0.497-0.138l1.112-0.694c0.345-0.238,0.483-0.563,0.416-0.973
							c0.119-0.158,0.198-0.278,0.238-0.357c0.159-0.198,0.245-0.456,0.258-0.775c-0.014-0.424-0.014-0.767,0-1.033
							c0-0.608-0.264-1.893-0.794-3.851c-0.026-0.185-0.093-0.364-0.199-0.536c-0.106-0.542-0.337-1.29-0.694-2.243l-0.079-0.218
							c-0.041-0.146-0.126-0.304-0.259-0.477c-0.251-0.887-0.694-1.628-1.329-2.224c-0.093-0.291-0.278-0.497-0.556-0.615
							c-0.556-0.371-1.098-0.595-1.627-0.675"/>
						<path fill="#FFFFFF" d="M71.218,28.311c-0.146,0.014-0.291,0.033-0.437,0.059l-0.138,0.04h-0.04
							c-0.106-0.026-0.258,0.033-0.456,0.178l-0.02,0.021c-1.959,0.621-3.229,1.059-3.811,1.31c-1.39,0.463-2.951,1.396-4.685,2.798
							c-0.278,0.345-0.456,0.556-0.536,0.635c-0.185,0.225-0.43,0.563-0.734,1.013c-0.516,0.741-0.814,1.171-0.893,1.29
							c-0.595,0.993-1.078,1.734-1.449,2.224c-0.582,0.94-1.151,1.608-1.707,2.005c-0.066,0.027-0.146,0.126-0.238,0.299
							c-0.529,0.33-1.052,0.497-1.568,0.497l-0.258-0.021"/>
						<path fill="#FFFFFF" d="M31.775,104.062c-1.191-1.165-1.786-3.137-1.786-5.916c-0.014-0.516,0.026-0.998,0.12-1.449
							c0.079-0.384,0.146-0.576,0.198-0.576"/>
						<path fill="#FFFFFF" d="M41.959,76.191c-0.041,0.384-0.199,1.602-0.477,3.653c-0.212,1.615-0.377,2.991-0.497,4.129"/>
						<path fill="#FFFFFF" d="M133.074,128.975c0.834,0.834,1.482,1.779,1.946,2.839c0.238,0.49,0.416,1.013,0.536,1.568
							c-0.251-0.185-0.53-0.251-0.834-0.198c-0.226,0.053-0.404,0.166-0.536,0.337c-0.146,0.185-0.219,0.39-0.219,0.615v0.198
							l0.278,0.676l-0.04,0.02l0.358,0.794c0.132,0.238,0.576,1.284,1.329,3.137l0.079,0.139l0.04,0.139
							c0.252,0.476,0.509,1.303,0.775,2.481c-0.159,0.026-0.258,0.054-0.298,0.08c-0.384,0.172-0.576,0.469-0.576,0.892v0.198
							l0.257,0.635c0.993,1.112,1.49,2.131,1.49,3.057v0.04c-0.398-0.119-0.728-0.032-0.992,0.258
							c-0.107,0.133-0.173,0.238-0.199,0.319l-0.952-0.715c-0.185-0.146-0.397-0.211-0.635-0.199
							c-0.238,0.026-0.45,0.126-0.635,0.298l-0.476,0.477c-0.186,0.185-0.279,0.411-0.279,0.675
							c-0.014,0.251,0.067,0.469,0.238,0.655c1.124,1.232,2.282,1.966,3.474,2.204c0.489,0.688,0.787,1.243,0.892,1.668
							c0.066,0.158,0.12,0.318,0.159,0.477c0.079,0.33,0.126,0.515,0.138,0.555c-0.357-0.45-0.734-0.608-1.132-0.476
							c-0.33,0.106-0.576,0.364-0.734,0.773c-0.106,0.291-0.245,0.656-0.416,1.092c-0.132,0.358-0.198,0.642-0.198,0.854
							c0.04,0.318,0.119,0.569,0.238,0.755c0.079,0.119,0.232,0.325,0.456,0.615c0.185,0.238,0.278,0.523,0.278,0.854l-0.059,1.191
							c-0.158-0.158-0.345-0.257-0.556-0.297c-0.225-0.027-0.437,0.014-0.635,0.119c-0.211,0.119-0.357,0.29-0.436,0.515
							c-0.079,0.226-0.079,0.451,0,0.675c0.617,1.551,1.044,2.854,1.279,3.911 M136.488,163.893
							c-0.002-0.008-0.005-0.015-0.01-0.021l-0.029-0.02c-0.119-0.159-0.279-0.265-0.477-0.319
							c-0.185-0.053-0.377-0.047-0.576,0.021c-0.424,0.146-0.635,0.456-0.635,0.933c0.132,0.503,0.284,0.802,0.456,0.893
							c0.53,0.609,0.841,0.993,0.933,1.151c0.211,0.33,0.383,0.701,0.516,1.111c-0.186-0.106-0.337-0.225-0.457-0.357
							c-0.185-0.172-0.404-0.265-0.655-0.279c-0.264-0.014-0.49,0.066-0.675,0.238l-0.079,0.08
							c-0.158,0.185-0.238,0.397-0.238,0.635c0,0.29,0.093,0.523,0.278,0.694l0.337,0.337c0.158,0.251,0.416,0.623,0.775,1.111
							l0.178,0.238c-0.383-0.093-0.702,0.006-0.953,0.298c-0.146,0.158-0.225,0.351-0.238,0.576
							c-0.014,0.225,0.04,0.423,0.158,0.595c0.185,0.251,0.456,0.536,0.814,0.853c0.225,0.198,0.634,0.542,1.23,1.033
							c0-0.026,0.033,0.014,0.1,0.119h-0.556c-0.172-0.132-0.264-0.193-0.278-0.179l-0.456-0.278
							c-0.014-0.026-0.199-0.159-0.556-0.398c-0.238-0.132-0.483-0.158-0.735-0.079c-0.251,0.079-0.443,0.238-0.576,0.477
							c-0.132,0.238-0.158,0.483-0.079,0.734c0.079,0.252,0.238,0.443,0.476,0.577l0.159,0.138c0.211,0.158,0.41,0.279,0.595,0.358
							l0.059,0.04c-0.556,0.079-0.96,0.344-1.211,0.794l-0.119,0.436v0.298c0,0.265,0.093,0.49,0.278,0.675
							c0.212,0.185,0.443,0.279,0.695,0.279h0.397l0.159-0.021c-0.107,0.146-0.159,0.317-0.159,0.516
							c0,0.264,0.093,0.497,0.279,0.694c0.185,0.185,0.416,0.278,0.694,0.278h0.377l0.258-0.099l-0.06,0.298
							c0,0.264,0.093,0.497,0.279,0.694c0.198,0.186,0.43,0.279,0.694,0.279c0.304-0.014,0.72-0.086,1.25-0.219
							c-0.047,0.014,0.02,0.02,0.198,0.02l0.319-0.119h0.06c1.032-0.238,1.581-0.364,1.647-0.377l0.258-0.079
							c0.132-0.079,0.251-0.119,0.358-0.119l0.377-0.079l0.456-0.179l0.099,0.198c0.159,0.305,0.43,0.457,0.814,0.457
							c0.198,0,0.542,0.131,1.033,0.397l0.416,0.1c0.351,0,0.77-0.064,1.26-0.189l0.01-0.01h0.021
							c-0.009,0.003-0.02,0.006-0.03,0.01c-0.297,0.301-0.366,0.649-0.208,1.042c0.173,0.398,0.471,0.595,0.893,0.595
							c0.569-0.014,1.25-0.172,2.045-0.477c0.728-0.264,1.674-0.708,2.84-1.329c0.026,0.225,0.119,0.411,0.278,0.556
							c0.185,0.185,0.416,0.278,0.694,0.278c0.688,0,1.655-0.284,2.898-0.854l0.219,0.279c-0.132,0.172-0.198,0.364-0.198,0.576
							v2.104c-0.331,0.172-0.497,0.443-0.497,0.814l-0.021,0.04c-0.211,0.556-0.503,1.224-0.873,2.005l-0.079,0.397v2.442
							c0,0.265,0.093,0.49,0.278,0.675c0.185,0.186,0.416,0.278,0.695,0.278h0.576c-0.053,1.218-0.079,2.264-0.079,3.138
							c0,1.508,0.026,2.654,0.079,3.434c0.066,0.966,0.198,1.747,0.397,2.342v0.337c0,0.264,0.093,0.497,0.279,0.694
							c0.185,0.186,0.41,0.279,0.675,0.279c0.29,0.702,0.623,1.522,0.992,2.461v0.456c0,0.279,0.093,0.509,0.278,0.695l0.159,0.119
							c0.026,0.211,0.059,0.364,0.099,0.456l0.238,0.397l0.497,0.477c0.185,0.185,0.41,0.278,0.675,0.278l0.198-0.02
							c0.357-0.079,0.595-0.284,0.715-0.615c0.318-0.888,0.88-1.608,1.687-2.164c0.146-0.106,0.364-0.232,0.655-0.377l0.04,0.973
							l-0.1,0.079c-0.185,0.185-0.278,0.411-0.278,0.675v0.973c0,0.238,0.079,0.45,0.238,0.635c0.146,0.172,0.336,0.278,0.576,0.318
							l0.158,0.02l0.139-0.02l-0.021,0.02c-0.172,0.331-0.172,0.656,0,0.973c0.185,0.319,0.469,0.477,0.854,0.477l-0.258,0.854
							c-0.093,0.093-0.166,0.238-0.219,0.436c-0.423,2.329-1.197,3.712-2.322,4.148c-0.211,0.093-0.377,0.238-0.497,0.437
							c-0.106,0.198-0.138,0.41-0.099,0.635c0.053,0.158,0.106,0.278,0.158,0.357c-0.82,1.311-1.588,2.435-2.303,3.375
							c-0.252,0.04-0.457,0.172-0.616,0.397c-1.905,2.753-3.533,4.335-4.882,4.745c-2.806,0-4.837,0.066-6.094,0.198
							c-0.211,0.026-0.39,0.107-0.536,0.238c-0.158,0.132-0.258,0.298-0.298,0.497l-0.755,0.298h-0.02l-0.139,0.059l-0.14,0.1
							l-0.079,0.079l-0.079,0.021l-0.615,0.257c-1.985,0.807-3.574,1.853-4.765,3.138l-0.119,0.179
							c-0.33-0.027-0.602,0.066-0.813,0.278l-0.498,0.476c-0.238,0.238-0.324,0.516-0.257,0.835c0.039,0.33,0.211,0.568,0.515,0.714
							l1.311,0.656c4.578,1.852,9.039,3.6,13.38,5.24l6.729,1.926c1.019,0.649,2.634,1.41,4.844,2.282
							c1.958,0.768,4.692,1.734,8.199,2.898c6.921,2.091,11.467,3.144,13.637,3.156c0.688-0.053,1.687-0.456,2.998-1.211
							c0.649-0.37,2.415-1.475,5.3-3.316c0.516-0.278,0.94-0.562,1.271-0.854l0.1-0.099l0.099-0.139l0.079-0.158l0.04-0.139v-0.04
							l0.021-0.04c0.053-0.251,0.383-1.39,0.992-3.413c0.595-1.999,0.954-3.275,1.072-3.832c0.053-0.119,0.079-0.264,0.079-0.437
							c-0.079-1.15-0.119-2.216-0.119-3.195c0-3.044,0.357-5.208,1.071-6.492c0.185-0.344,1.211-1.541,3.077-3.593
							c1.919-2.461,2.878-5.082,2.878-7.862c0-0.211-0.066-0.45-0.198-0.714l-0.021,0.02l-0.079-0.318l-0.377-0.656l0.179,0.021
							h0.06c0.264-0.014,0.489-0.12,0.675-0.319c0.185-0.198,0.271-0.43,0.257-0.694l-0.04-0.595
							c0.158,0.093,0.325,0.139,0.497,0.139c0.384,0.026,0.675-0.139,0.874-0.497c0.225-0.451,0.357-0.9,0.397-1.35v-0.06
							l0.079-0.595l0.139,0.06h0.477c0.278,0,0.509-0.093,0.694-0.278c0.185-0.186,0.278-0.411,0.278-0.675
							c0-0.873-0.02-1.687-0.059-2.442h0.536c0.251,0,0.462-0.079,0.635-0.238c0.185-0.159,0.298-0.358,0.337-0.595
							c0.119-0.939,0.238-2.124,0.357-3.554h0.139c0.278,0,0.509-0.093,0.694-0.278l0.021-0.02c0.158-0.12,0.272-0.291,0.337-0.516
							c0.29-1.271,0.423-2.289,0.397-3.057c0-0.251-0.085-0.469-0.258-0.655c-0.158-0.173-0.363-0.272-0.615-0.298v-0.893
							l-0.079-0.377c0.383-0.185,0.576-0.483,0.576-0.893v-1.071l-0.059-0.319c-0.569-1.615-1.065-2.871-1.49-3.772
							c0.265,0,0.49-0.093,0.675-0.278c0.184-0.185,0.278-0.41,0.278-0.675c-0.079-0.462-0.278-0.946-0.594-1.449
							c-0.133-0.199-0.583-0.814-1.35-1.846c0.317-0.291,0.476-0.656,0.476-1.092v-0.477c0-0.264-0.059-0.509-0.178-0.734
							l-0.238-0.973c-0.079-0.384-0.29-0.682-0.634-0.893l-0.06-0.337h0.655c0.226,0,0.424-0.066,0.595-0.198
							c0.172-0.146,0.284-0.325,0.337-0.536l1.271-5.401c0.238,0.238,0.529,0.337,0.873,0.298c0.211-0.04,0.39-0.138,0.536-0.298
							c0.147-0.158,0.232-0.344,0.258-0.555c0.079-0.715,0.358-1.973,0.834-3.773c0.186,0.159,0.377,0.238,0.577,0.238l0.059,0.02
							c0.238,0,0.451-0.079,0.635-0.238c0.184-0.159,0.291-0.364,0.319-0.615c0.132-1.019,0.31-1.859,0.536-2.521l0.059-0.319
							v-0.119l0.079-0.219c0.067-0.515,0.06-1.349-0.02-2.5c-0.093-1.124-0.139-1.786-0.139-1.985v-0.238
							c0-0.185,0.053-0.364,0.158-0.536c0.014-0.398,0.166-0.841,0.457-1.33"/>
						<line fill="none" x1="136.488" y1="163.872" x2="136.488" y2="163.893"/>
						<line fill="none" x1="136.478" y1="163.872" x2="136.488" y2="163.872"/>
						<path fill="#FFFFFF" d="M172.458,141.779l0.416,1.092c-0.066,1.601-0.899,5.049-2.5,10.342l-0.021,0.198
							c-0.649,3.826-0.913,6.835-0.794,9.033c0.014,0.212,0.119,0.841,0.318,1.886c0.027,0.569,0.12,1.674,0.279,3.316
							c0.158,1.588,0.258,2.912,0.298,3.97v0.059c0,0.278,0.026,0.702,0.079,1.271c0,0.317,0.047,0.609,0.138,0.873
							c0.371,2.342,0.663,3.969,0.874,4.883c0.158,1.23,0.443,2.971,0.853,5.221c0.014,0.066,0.06,0.179,0.139,0.337
							c0.371,0.556,0.609,1.013,0.715,1.369"/>
						<path fill="#FFFFFF" d="M248.984,146.225c-1.654-0.265-2.819-0.469-3.494-0.615c-1.124-0.238-1.879-0.537-2.263-0.893"/>
						<path fill="#FFFFFF" d="M93.035,150.156c-0.066,0.158-0.079,0.351-0.04,0.576v0.021c-0.014,0.158,0.021,0.325,0.099,0.497
							c0.318,0.794,0.841,2.693,1.569,5.697l0.298,0.577l-0.357-0.238c-0.33-0.158-0.662-0.158-0.992,0
							c-0.304,0.185-0.469,0.469-0.497,0.854l0.02,0.516l0.06,0.357c0.238,0.53,0.728,1.41,1.469,2.64
							c-0.331,0-0.583,0.126-0.755,0.377c-0.159,0.198-0.225,0.424-0.199,0.675c0.026,0.251,0.132,0.463,0.318,0.635l0.02,0.059
							l0.318,0.477c0.477,0.688,0.854,1.192,1.132,1.508l0.318,0.456c-0.185,0.106-0.318,0.258-0.397,0.456
							c-0.106,0.252-0.106,0.498,0,0.735l0.595,1.39l1.311,1.727l-0.1,0.039c-0.238,0.107-0.41,0.279-0.516,0.516
							c-0.106,0.265-0.112,0.516-0.02,0.755c0.132,0.279,0.556,1.052,1.27,2.322l0.278,0.635l-0.04,0.04
							c-0.185,0.119-0.311,0.29-0.377,0.515c-0.067,0.212-0.053,0.424,0.04,0.635l0.138,0.358l0.179,0.178l0.138,0.319
							c0.106,0.172,0.238,0.423,0.397,0.755c0.173,0.278,0.424,0.45,0.755,0.516c0.278,0.066,0.542,0.046,0.794-0.06
							c0.264-0.106,0.443-0.272,0.536-0.497"/>
						<path fill="#FFFFFF" d="M116.399,209.351c0.093-0.265,0.079-0.516-0.04-0.756c-0.119-0.238-0.304-0.397-0.556-0.476
							c-1.932-0.688-3.334-1.033-4.208-1.033c-0.291,0-0.576,0.041-0.854,0.12c-0.159-0.04-0.264-0.047-0.319-0.021
							c-0.529-0.026-0.953-0.026-1.27,0c-0.331,0-0.556-0.02-0.675-0.059c-0.212-0.08-0.437-0.067-0.675,0.04"/>
						<path fill="#FFFFFF" d="M122.771,223.365c0.106-0.715-0.443-1.931-1.648-3.653c-0.979-0.979-1.832-1.726-2.56-2.242
							c-1.125-0.702-2.125-1.218-2.997-1.548c-0.954-0.371-1.853-0.562-2.7-0.577c-1.019,0.015-1.965,0.642-2.839,1.886
							c-0.345,0.476-0.589,0.846-0.735,1.111c-0.675,1.059-1.033,1.754-1.072,2.085"/>
						<path fill="#FFFFFF" d="M121.421,184.319c0.04,0.476,0.225,0.801,0.556,0.972l0.238,0.238
							c0.172,0.172,0.576,0.397,1.211,0.675"/>
						<g>
							<path fill="#FFFFFF" d="M245.887,135.923c-0.384-0.106-0.655-0.179-0.814-0.219c-0.045-0.011-0.082-0.008-0.126-0.018
								c0.59,0.159,0.94,0.255,0.94,0.255V135.923z"/>
							<path fill="#FFFFFF" d="M244.357,135.604c0.186,0,0.385,0.037,0.588,0.082c-0.237-0.065-0.52-0.142-0.828-0.225
								c0.064,0.039,0.123,0.085,0.18,0.143L244.357,135.604L244.357,135.604z"/>
							<path fill="#FFFFFF" d="M250.571,149.301c-0.106-0.397-0.251-0.766-0.436-1.111c-0.212-0.345-0.358-0.602-0.437-0.773
								c-0.185-0.331-0.304-0.53-0.357-0.595c-0.093-0.173-0.17-0.32-0.256-0.481l1.585,3.557
								C250.592,149.501,250.558,149.301,250.571,149.301z"/>
							<path fill="#FFFFFF" d="M244.278,135.625c0.109,0.472,0.306,0.93,0.575,1.373c-0.123-0.11-0.236-0.226-0.38-0.326
								c-0.841-0.588-1.669-1.191-2.494-1.787c0.805,0.217,1.532,0.412,2.14,0.578c-0.069-0.042-0.142-0.075-0.218-0.096
								c-0.079,0.053-0.364-0.245-0.853-0.893c-0.542-0.702-0.993-1.403-1.35-2.104c-0.265-0.45-0.629-1.131-1.092-2.045
								c-0.358-0.688-0.629-1.158-0.814-1.41c-0.04-0.146-0.111-0.272-0.218-0.377c-0.424-0.264-1.178-0.662-2.263-1.192
								c-1.165-0.568-2.085-0.986-2.76-1.25h0.021c-0.569-0.384-3.117-2.409-7.643-6.074c-3.03-2.435-5.359-3.871-6.987-4.308
								c-0.252-0.053-0.49-0.02-0.715,0.099l-0.556-0.456c-0.319-0.238-0.656-0.264-1.013-0.079l-0.02,0.02
								c-0.345-0.278-0.702-0.53-1.072-0.755c-1.469-1.244-2.845-1.873-4.129-1.886c-0.371-1.033-0.82-2.091-1.35-3.176
								c-0.781-1.191-1.713-1.912-2.798-2.163l0.079-0.417l-0.14-0.477c-0.238-0.436-0.357-0.767-0.357-0.992
								c0-0.264-0.094-0.49-0.279-0.676c-0.185-0.185-0.411-0.278-0.675-0.278h-3.176l0.1-0.298l0.04-0.298
								c0-0.503-0.093-0.899-0.279-1.191c-0.146-0.238-0.364-0.416-0.655-0.536c-0.225-0.093-0.463-0.132-0.715-0.12
								c-0.966,0-1.767-0.469-2.403-1.41c-1.071-1.588-2.971-2.567-5.697-2.938c-4.671-2.992-8.271-5.175-10.798-6.551
								c-2.872-1.562-5.05-2.462-6.531-2.699l0.021-0.139c0-0.304-0.021-0.536-0.06-0.694c-0.053-0.252-0.185-0.503-0.397-0.755
								l-0.675-0.278c-0.451-0.066-0.999-0.099-1.648-0.099l-0.278,0.04c-0.649,0.185-1.204,0.311-1.668,0.378
								c-0.079-0.172-0.285-0.483-0.616-0.933c-0.304-0.304-0.523-0.503-0.655-0.595c-0.198-0.159-0.49-0.272-0.873-0.337
								c-7.543-0.834-12.44-1.31-14.69-1.429c-0.079-0.45-0.238-0.834-0.477-1.151c-0.423-0.582-1.045-0.86-1.865-0.834
								l-0.258,0.041c-0.728,0.198-1.364,0.33-1.905,0.397c-0.542-1.707-1.813-3.051-3.812-4.03
								c-1.191-0.542-2.263-1.085-3.216-1.628c-0.794-0.436-1.232-0.708-1.311-0.814L141.845,75
								c-0.86-0.702-2.184-1.516-3.969-2.442c-1.522-0.781-3.665-1.786-6.432-3.017c-0.225-0.106-0.515-0.232-0.873-0.377
								c-0.279-0.106-0.471-0.193-0.576-0.258c-3.164-1.627-5.301-3.249-6.413-4.863c-1.627-2.342-3.057-4.168-4.288-5.479
								c-1.363-1.482-2.66-2.521-3.89-3.117c-0.993-0.45-2.342-1.165-4.05-2.143l-0.02-0.041l-0.158-0.178l-0.159-0.119l-0.02-0.02
								h-0.02c-1.297-0.715-2.833-1.648-4.605-2.799c-2.594-1.68-5.029-3.249-7.305-4.704c-1.707-1.072-2.608-1.642-2.7-1.707
								c-3.52-2.104-5.982-3.513-7.385-4.229c-5.968-3.071-11.487-5.24-16.555-6.511h-0.655l0.059-0.059
								c0.106-0.026,0.225-0.106,0.358-0.238c0.846-0.714,1.436-1.237,1.767-1.568c1.364-1.496,2.163-3.044,2.402-4.645
								c0.04-0.291-0.033-0.542-0.218-0.755c-0.185-0.225-0.43-0.337-0.735-0.337h-0.278c-0.944,0.066-2.393,0.333-4.347,0.804
								c0.026-0.011,0.04-0.022,0.04-0.03h-0.077l-0.238,0.04c-2.117,0.556-4.387,1.277-6.809,2.164
								c-0.582,0.211-1.31,0.503-2.183,0.873c-0.926,0.384-1.562,0.642-1.906,0.775l-0.794,0.357
								c-0.106-0.106-0.218-0.185-0.337-0.238c-0.398-0.159-1.37-0.802-2.918-1.926c-0.887-0.582-1.92-0.873-3.097-0.873
								c-0.397,0-0.794,0.033-1.191,0.099c0.053-0.291,0.212-0.959,0.477-2.005c0.542-2.038,1.211-4.182,2.005-6.431
								c1.482-3.785,2.535-6.273,3.156-7.464c0.926-1.734,1.747-3.091,2.462-4.069c0.158-0.212,0.219-0.45,0.178-0.715
								c-0.04-0.264-0.172-0.477-0.397-0.635l-0.238-0.119c-0.132-0.199-0.311-0.332-0.536-0.398
								c-0.238-0.067-0.463-0.053-0.676,0.04c-2.183,0.992-4.182,2.607-5.995,4.844c-0.529,0.715-1.106,1.595-1.727,2.64
								c-0.595,0.926-1.232,2.197-1.906,3.811c-0.331,0.583-1.251,3.03-2.76,7.345c-0.252,0.516-0.536,1.211-0.854,2.084
								l-0.079,0.318c-0.781,0.252-1.528,0.377-2.243,0.377c-0.873-0.079-1.972-0.119-3.296-0.119
								c-3.507,0.026-6.273,0.509-8.298,1.449l-0.179-0.318c-2.157-3.838-3.223-7.1-3.196-9.786c0-3.878,1.402-7.001,4.208-9.369
								c0.093-0.041,0.211-0.139,0.357-0.298l0.04-0.059c0.238-0.12,0.404-0.304,0.497-0.556c0.082-0.252,0.062-0.498-0.056-0.735
								c-0.119-0.238-0.304-0.398-0.556-0.477c-0.252-0.093-0.497-0.08-0.735,0.04l-0.158,0.1c-0.159-0.014-0.304,0.006-0.436,0.059
								V6.971c-2.726,1.059-4.864,2.885-6.412,5.479c-1.522,2.303-2.283,4.929-2.283,7.88c0,2.502,0.43,5.433,1.29,8.794
								c-0.846-0.623-1.893-1.218-3.137-1.786c-2.687-1.35-4.897-2.032-6.63-2.045c-0.252-0.066-0.503-0.099-0.755-0.099
								c-1.548-0.026-2.502,0.457-2.859,1.449c-0.132,0.371-0.053,0.702,0.238,0.993c0.079,0.079,1.396,1.496,3.951,4.248
								c1.349,1.694,2.289,3.163,2.819,4.407c0.621,1.35,1.575,2.62,2.859,3.811c0.357,0.278,0.641,0.563,0.854,0.854
								c0.212,0.344,0.477,0.715,0.794,1.112c0.675,1.151,1.217,2.203,1.627,3.156c0.012,0.053,0.052,0.126,0.119,0.219l-0.08,0.099
								c-0.728,1.337-1.091,2.626-1.091,3.87c0.04,0.41,0.119,0.708,0.238,0.893c0.106,0.264,0.278,0.45,0.516,0.556l0.021,0.02
								c0.053,0.067,0.158,0.138,0.318,0.219c-0.225,0.04-0.416,0.146-0.576,0.318c-0.146,0.172-0.219,0.377-0.219,0.615
								c-0.014,0.463,0.1,0.907,0.338,1.329c0.251,0.436,0.602,0.767,1.051,0.992l0.873,0.437c0.079,0.185,0.138,0.384,0.178,0.595
								l0.079,0.179c0.185,0.516,0.278,0.913,0.278,1.191c-0.026,0.304-0.067,0.542-0.119,0.715
								c-0.689,1.627-1.033,4.162-1.033,7.602c0.014,1.522-0.053,2.918-0.199,4.188c-0.119,1.045-0.225,1.575-0.318,1.589
								c-1.8,2.064-3.13,4.274-3.99,6.63l-0.041,0.158l-0.119,0.219c-0.463,1.349-0.694,2.633-0.694,3.851
								c-0.014,1.27,0.219,2.349,0.694,3.235c0.463,0.913,1.145,1.554,2.045,1.926c0.199,0.106,0.384,0.158,0.556,0.158
								c-0.185,0.185-0.225,0.41-0.119,0.675l0.377,0.735l-0.138-0.02c-0.264,0-0.497,0.093-0.694,0.278
								c-0.185,0.199-0.278,0.431-0.278,0.694c0,0.768-0.093,1.893-0.278,3.375c-0.014,4.341,1.622,8.357,4.903,12.05
								c1.165,1.376,2.283,2.461,3.355,3.255l0.158,0.059l0.02,0.021c0.132,0.093,0.258,0.166,0.377,0.218
								c2.131,1.482,4.407,2.224,6.829,2.224c2.131-0.014,4.467-0.926,7.007-2.74v0.595l-0.099,0.099l-0.298,0.676l-0.04,0.198
								c-0.026,0.185-0.046,0.384-0.059,0.595c0.014,0.424,0.059,0.953,0.138,1.588c0.053,0.384,0.139,0.999,0.258,1.846
								c0.834,3.665,2.547,8.972,5.142,15.92l-0.337,0.576l-0.139,0.497v1.25l0.357,0.755l0.576,0.477
								c0.093,0.079,0.205,0.139,0.337,0.179v0.834c0,0.41,0.185,0.702,0.556,0.873c0.252,0.106,0.49,0.119,0.715,0.04v1.232
								c0,0.278,0.093,0.502,0.278,0.675c0.198,0.198,0.424,0.298,0.675,0.298l0.397-0.041v1.211l0.278,0.676
								c0.132,0.106,0.291,0.244,0.477,0.416c0.185,0.146,0.45,0.244,0.794,0.297c0.463,0.808,0.694,1.734,0.694,2.779
								c0,0.212,0.066,0.411,0.198,0.595c0.12,0.172,0.278,0.284,0.477,0.337c0.436,0.132,0.794,0.014,1.071-0.358
								c0.331,0.371,0.755,0.893,1.271,1.569c1.006,1.019,1.68,1.661,2.025,1.926c0.609,0.477,1.224,0.735,1.847,0.775l0.377,0.555
								c0.053,0.107,0.146,0.199,0.278,0.279l0.02,0.04c0.014,0.093,0.053,0.469,0.12,1.132v0.258
								c0.093,0.741,0.251,3.321,0.477,7.742c0.132,0.702,0.264,1.687,0.397,2.959c0.477,4.182,1.291,7.973,2.442,11.374
								c0.026,0.291,0.12,0.595,0.278,0.914c0.146,0.29,0.384,0.469,0.715,0.536c0.053,0.172,0.119,0.318,0.199,0.436
								c0.45,1.086,0.86,1.82,1.23,2.204c0.158,0.158,0.364,0.251,0.615,0.278c0.278,0.569,0.583,1.198,0.913,1.886
								c0.225,0.424,0.424,0.741,0.595,0.954c0.304,0.304,0.655,0.37,1.052,0.198l0.139-0.06l0.04,0.06
								c0.211,0.423,0.377,0.813,0.497,1.171c0.053,0.198,0.166,0.357,0.337,0.477c0.172,0.119,0.364,0.178,0.576,0.178h0.198
								l0.179,0.416c0.172,0.371,0.469,0.556,0.893,0.556h0.278c0.238,0,0.45-0.072,0.635-0.219l0.516,0.159l0.158-0.021
								c0.649,0.49,1.661,1.118,3.037,1.886c0.397,1.124,0.715,2.163,0.954,3.117c0.04,0.198,0.166,0.383,0.377,0.555
								c0.767,3.507,1.145,8.364,1.132,14.571c-0.014,0.198-0.02,0.304-0.02,0.318c-0.014,0.027-0.066,0.112-0.159,0.258l-0.079,0.1
								l-0.278,0.138c-0.873,0.756-2.117,1.713-3.731,2.879l-3.077,3.653c-0.264,0.264-0.682,0.853-1.25,1.767
								c-0.291,0.41-0.49,0.715-0.595,0.913c-0.265,0.198-0.457,0.325-0.576,0.377c-0.966,0.649-1.648,1.192-2.045,1.627
								c-0.516,0.583-0.794,1.224-0.834,1.926l0.02,0.179l-0.02,0.06v0.297c0,0.319,0.138,0.583,0.416,0.794
								c0.264,0.186,0.556,0.226,0.873,0.12c0.211-0.079,0.635-0.12,1.27-0.12c1.045,0,2.614,0.152,4.704,0.457h0.516
								c0.185,0,0.345-0.041,0.477-0.12c2.342,0.542,6.955,1.132,13.836,1.767h0.059c0.649,0,1.232-0.106,1.747-0.318l0.079-0.02
								l0.021-0.021l0.04-0.021c0.132-0.04,0.225-0.085,0.278-0.138c0.199-0.053,0.364-0.166,0.497-0.337
								c0.12-0.186,0.179-0.384,0.179-0.595c0-0.158-0.046-0.319-0.138-0.477v-0.021l0.775-2.302
								c0.132-0.928,0.371-2.131,0.715-3.613c0.834-0.556,1.489-1.072,1.965-1.548c1.23-1.072,1.846-2.369,1.846-3.891
								c-0.014-0.41-0.119-0.807-0.318-1.191c-0.132-0.252-0.357-0.583-0.675-0.993c-0.225-0.264-0.509-0.377-0.854-0.336
								c0.146-0.147,0.238-0.319,0.278-0.516c0.026-0.211-0.007-0.411-0.099-0.595c-0.146-0.317-0.258-0.675-0.337-1.071
								c0.211-0.053,0.39-0.166,0.536-0.337c0.132-0.173,0.198-0.371,0.198-0.595v-0.973c0-0.278-0.093-0.509-0.278-0.695
								l-0.119-0.078l-0.08-0.358l0.198-0.139c0.185-0.185,0.278-0.41,0.278-0.674c0-0.279-0.093-0.51-0.278-0.695l-0.357-0.655
								c-0.066-0.265-0.166-0.589-0.298-0.973c-0.199-0.542-0.325-0.899-0.377-1.072l-0.219-1.012l0.08,0.02
								c0.225,0,0.436-0.079,0.635-0.238c0.184-0.172,0.29-0.377,0.318-0.616c0.026-0.251-0.033-0.483-0.179-0.694l-0.337-0.516
								c0.172-0.079,0.298-0.193,0.377-0.337c0.185-0.317,0.205-0.635,0.059-0.953c-0.053-0.079-0.146-0.325-0.278-0.734l0.318-3.99
								h0.059c0.252,0,0.483-0.093,0.694-0.279c0.278-0.344,0.483-0.755,0.615-1.23c0.119-0.411,0.218-0.967,0.298-1.668
								c0.278,0.106,0.542,0.085,0.794-0.06c0.278-0.132,0.436-0.344,0.477-0.635c0.093-0.397,0.219-1.118,0.377-2.163
								c0.238-0.041,0.436-0.152,0.595-0.337c0.345-0.437,0.623-0.887,0.834-1.35l0.497,0.794c0.053,0.331,0.199,0.681,0.437,1.052
								c-0.067,0,0.032,0.33,0.298,0.992c0.146,0.411,0.443,0.616,0.893,0.616h0.04c0.12,0.158,0.212,0.318,0.278,0.476
								c0.595,2.594,1.721,5.122,3.375,7.583c-0.079,10.76-0.172,16.351-0.278,16.774c-0.066,0.53-0.225,1.052-0.477,1.569
								c-0.278,0.53-0.754,1.078-1.429,1.648c-2.62,2.356-3.937,3.539-3.951,3.553l-0.02,0.059
								c-0.252,0.147-0.397,0.364-0.436,0.656c-2.29,0.913-3.864,1.668-4.725,2.263c-1.151,0.781-1.786,1.701-1.906,2.759
								c0.079,0.675,0.39,1.197,0.933,1.569c0.278,0.198,0.893,0.476,1.846,0.834c1.469,0.463,3.606,0.887,6.413,1.271
								c0.635,0,1.469-0.173,2.5-0.516c0.98-0.29,1.813-0.437,2.502-0.437c0.225,0,0.424-0.073,0.595-0.219l0.12-0.039l-0.02,0.257
								c0.066,0.463,0.238,0.807,0.516,1.033c0.172,0.119,0.424,0.245,0.755,0.376c0.741,0.291,1.965,0.577,3.673,0.854
								c1.482,0.238,3.653,0.523,6.51,0.854h0.1c1.045,0,2.051-0.146,3.017-0.437c0.41-0.106,0.635-0.377,0.675-0.813
								c0.106-0.106,0.172-0.198,0.198-0.279c0.132-0.264,0.199-0.602,0.199-1.013v-0.02c0.132-1.958,0.198-4.022,0.198-6.193
								c0.106-0.291,0.166-1.092,0.179-2.403c0.463-0.371,0.787-0.907,0.972-1.608c0.132-0.542,0.199-1.277,0.199-2.203
								c0.026-1.232-0.232-2.382-0.775-3.454l-0.497-0.992l-0.079-0.258l0.119-2.5c0.265-0.04,0.483-0.166,0.655-0.377
								c0.159-0.211,0.225-0.451,0.198-0.715l-0.158-1.271c0.265-0.304,0.325-0.649,0.179-1.032
								c-0.079-0.159-0.138-0.337-0.179-0.536c0.173-0.173,0.258-0.384,0.258-0.636c0-0.436-0.086-0.892-0.258-1.369l-0.138-0.635
								l-0.138-0.218c-0.225-1.046-0.384-1.727-0.477-2.046c0.198-0.066,0.357-0.192,0.477-0.377
								c0.119-0.185,0.166-0.383,0.138-0.594c-0.053-0.477-0.146-0.98-0.278-1.509c-0.146-0.582-0.218-0.887-0.218-0.913
								c-0.066-0.344-0.258-0.582-0.576-0.715l-0.218-2.481c0.688,0.29,1.555,0.436,2.6,0.436h0.059
								c3.348,0,5.069-0.992,5.161-2.977v-0.179c-0.026-0.172-0.073-0.311-0.139-0.416l2.661-0.834
								c0.198-0.066,0.364-0.185,0.497-0.357c0.119-0.172,0.179-0.364,0.179-0.577v-0.853c0.066-0.094,0.099-0.225,0.099-0.398
								c0.185-0.185,0.284-0.416,0.298-0.694c0.383-0.093,0.569-0.377,0.556-0.854l38.741-18.11
								c-0.363,1.454,0.681,3.207,2.424,2.515c3.839-1.525,7.585-3.167,11.236-5.021c0.003-0.001,0.006-0.001,0.009-0.001
								c-0.145,0.238-0.33,0.518-0.583,0.922c-1.348,2.157,1.535,3.903,3.27,2.523c0.915-0.728,1.822-1.462,2.734-2.19
								c0.676,0.463,1.606,0.607,2.311,0.174c0.889-0.546,1.757-1.097,2.641-1.622c0.364,1.827,2.726,2.104,3.831,0.615
								c0.034-0.047,0.067-0.096,0.102-0.143c0.269,0.837,0.585,1.667,0.988,2.485c0.646,1.313,2.979,1.41,3.595,0
								c0.285-0.654,0.502-1.436,0.778-2.162c0.045-0.022,0.089-0.044,0.131-0.069c0.452,1.317,2.275,1.951,3.45,0.831
								c0.077-0.073,0.146-0.147,0.22-0.219c-0.458,2.21,2.728,3.903,3.75,1.62c3.04-6.8,4.619-13.639,4.708-21.091
								c0.002-0.164-0.012-0.319-0.041-0.462l7.588-3.547c0.411,0.357,0.939,0.632,1.633,0.757c4.688,0.839,8.096,4.01,11.882,6.659
								c0.947,0.664,1.88,0.781,2.691,0.542c0.259,0.412,0.509,0.832,0.734,1.266c0.943,1.82,3.255,1.02,3.75-0.518
								c0.293,0.544,0.661,1.233,1.116,2.085l-1.048-2.349c0.071-0.41,0.017-0.86-0.223-1.321c-0.404-0.778-0.884-1.509-1.365-2.239
								l-0.375-0.84c-0.017-0.501-0.133-0.998-0.362-1.469l0.034,0.022l0.358,0.358c1.27,1.271,2.382,2.256,3.334,2.959
								c1.35,1.138,2.587,2.005,3.712,2.6c1.019,0.542,1.82,0.801,2.403,0.773c1.098,0,1.826-0.211,2.183-0.635L244.278,135.625z"/>
						</g>
						<path fill="#FFFFFF" d="M248.359,145.892"/>
						<path fill="#FFFFFF" d="M26.792,77.244c0.542,0,1.165-0.139,1.867-0.416l4.248-0.854c0.516,0.014,1.039,0.12,1.568,0.318
							c0.384,0.067,0.623,0.298,0.715,0.694c0.053,0.225,0.053,0.404,0,0.536c-0.357,1.774-1.443,3.282-3.255,4.526
							c-1.76,1.045-2.959,2.017-3.594,2.918c-0.29,0.424-0.767,0.609-1.429,0.556c-0.609-0.053-0.94-0.172-0.993-0.357l-0.04-0.218
							c-0.093-0.053-0.185-0.132-0.278-0.238c-0.913-1.31-1.78-2.21-2.6-2.699c-0.741-0.569-1.171-0.9-1.29-0.993
							c-0.345-0.291-0.595-0.55-0.755-0.775c-0.132-0.172-0.219-0.291-0.258-0.357c-0.079-0.12-0.146-0.325-0.199-0.615
							c-0.04-0.172,0.027-0.397,0.199-0.675c0.12-0.225,0.185-0.39,0.199-0.497l0.059-0.138c0.158-0.807,0.364-1.284,0.615-1.429
							c0.291-0.172,0.602-0.258,0.933-0.258c0.662-0.026,1.349,0.205,2.064,0.694c0.014,0.053,0.219,0.112,0.615,0.179
							C25.661,77.224,26.197,77.256,26.792,77.244z"/>
						<path fill="#FFFFFF" d="M22.722,51.1c-0.344-0.12-0.608-0.357-0.794-0.715c-0.066-0.146-0.152-0.404-0.258-0.775
							c0.119-0.211,0.761-0.404,1.926-0.576h0.158c0.755,0,1.403,0.278,1.946,0.834c0.569,0.582,0.827,1.27,0.775,2.064
							c-0.026,0.595-0.053,0.986-0.079,1.171c-0.067,0.424-0.193,0.775-0.378,1.052c-0.741,0.623-1.349,0.834-1.826,0.635
							c-1.297-0.542-2.025-1.291-2.184-2.243C21.85,51.676,22.088,51.193,22.722,51.1z"/>
						<path fill="#FFFFFF" d="M53.075,33.71c0.834-0.755,2.038-1.535,3.613-2.342c0.357-0.225,0.675-0.398,0.953-0.516
							c0.185-0.08,0.576-0.238,1.171-0.477"/>
						<path fill="#FFFFFF" d="M186.651,208.061c0,2.647-0.701,5.459-2.104,8.436c-1.906,3.229-4.136,7.06-6.691,11.494
							c-0.49,0.834-1.019,1.455-1.588,1.867c-0.595,0.397-1.29,0.615-2.084,0.655l-1.013-0.021c-0.781,0-1.588,0.047-2.421,0.139
							c0.397-0.953,0.708-1.846,0.933-2.68c0.211,0.053,0.416,0.033,0.615-0.06c0.211-0.093,0.364-0.245,0.456-0.456
							c0.093-0.146,0.126-0.318,0.1-0.515c0.264-0.107,0.45-0.305,0.555-0.595c0.159-0.649,1.238-2.263,3.235-4.844l1.311-1.767
							c0.383,0,0.662-0.178,0.834-0.536l0.398-0.715c0.225-0.225,0.318-0.489,0.278-0.794l0.773-0.992
							c0.159-0.066,0.298-0.205,0.417-0.416l0.039-0.079c0.768-0.835,1.344-1.502,1.727-2.006c0.516-0.687,0.907-1.343,1.172-1.965
							c0.158-0.489,0.35-1.006,0.576-1.548l0.456-1.171c0.251-0.026,0.451-0.112,0.595-0.258c0.185-0.211,0.278-0.443,0.278-0.694
							v-0.238l1.033-1.311l0.079,0.119L186.651,208.061z"/>
						<path fill="#FFFFFF" d="M150.185,226.78c-0.781,0.436-1.356,0.802-1.727,1.092c-0.926,0.556-1.647,1.237-2.163,2.045
							l-0.158,0.14l-0.04,0.02l-0.179,0.139l-0.139,0.219c-0.344,0.913-0.502,1.535-0.476,1.865"/>
						<path fill="#FFFFFF" d="M169.659,241.389c0.794-0.357,3.348-1.449,7.662-3.275c1.627-0.728,3.123-1.33,4.487-1.806
							c1.112-0.398,1.694-0.577,1.747-0.537c0.635,0.014,1.092,0.245,1.37,0.695c0.318,0.516,0.502,1.476,0.556,2.878
							c0,1.139-0.147,2.482-0.437,4.03c-0.026,0.158-0.021,0.291,0.02,0.398c0.12,0.37,0.193,0.655,0.219,0.853
							c0.053,0.451-0.02,0.834-0.219,1.151"/>
						<path fill="#FFFFFF" d="M185.857,205.143c0.569,2.171,1.463,2.786,2.68,1.846c0.463-0.345,0.867-0.728,1.212-1.151
							l2.719,4.646c0.172,0.318,0.45,0.476,0.834,0.476h0.477l0.594-0.179c0.463-0.502,0.729-1.131,0.795-1.886
							c0.794,1.139,1.686,2.012,2.68,2.621l0.099,0.021c0.119,0.066,0.238,0.099,0.358,0.099l0.238,0.1l0.139,0.099
							c0.132,0.066,0.283,0.1,0.456,0.1c0.41,0,0.694-0.172,0.854-0.516c0.105-0.198,0.132-0.41,0.079-0.635
							c-0.041-0.211-0.147-0.39-0.319-0.536c0.226-0.185,0.337-0.43,0.337-0.734c-0.014-0.198-0.04-0.377-0.079-0.537
							c-0.066-0.238-0.106-0.41-0.119-0.515l-0.021-0.06c0.888,1.218,1.595,2.017,2.125,2.403l0.337,0.357
							c0.198,0.199,0.43,0.298,0.694,0.298c0.185,0,0.351-0.046,0.497-0.138l0.158-0.119c0.186,0.185,0.443,0.383,0.775,0.594
							c1.072,0.688,1.68,0.305,1.826-1.15"/>
						<path fill="#FFFFFF" d="M165.094,233.172c0.304-0.146,0.827-0.204,1.569-0.178c0.766,0.026,1.356,0.132,1.766,0.318
							c0.702,0.251,1.674,0.814,2.919,1.687c1.257,0.979,2.051,1.833,2.382,2.561c0.158,0.225,0.29,0.523,0.397,0.892
							c0.053,0.212,0.126,0.51,0.219,0.893"/>
						<path fill="#FFFFFF" d="M159.515,235.257l0.059-0.158l0.04-0.06c0.398-1.588,0.595-2.806,0.595-3.653
							c-0.026-0.49-0.185-0.986-0.476-1.489c-0.238-0.384-0.642-0.914-1.212-1.588c-1.364-1.47-2.786-2.225-4.268-2.263
							c-0.225-0.384-0.556-0.542-0.992-0.477c-1.019,0.185-2.046,0.588-3.077,1.211c-0.278-0.82-0.72-1.502-1.329-2.045
							c-0.569-0.623-1.145-1.072-1.727-1.35"/>
						<path fill="#FFFFFF" d="M170.97,230.612c-0.384,0.04-0.828,0.119-1.33,0.238c-0.542,0.132-0.953,0.258-1.23,0.377
							c-0.133,0.04-0.284,0.099-0.456,0.179c-0.94,0.37-1.938,0.992-2.998,1.865c-1.376,0.926-2.673,1.733-3.89,2.421"/>
						<path fill="#FFFFFF" d="M156.001,180.13c-0.225,0.928,0,1.548,0.675,1.867c0.503,0.251,1.033,0.298,1.589,0.139
							c0.172-0.067,0.594-0.139,1.27-0.219c0.794-0.079,1.661-0.126,2.6-0.139v0.021c0,0.053-0.072,0.164-0.219,0.337
							c-0.132,0.146-0.204,0.317-0.218,0.515c-0.026,0.199,0.006,0.384,0.099,0.556c0.199,0.384,0.516,0.556,0.954,0.516
							c0.436-0.04,0.813-0.06,1.132-0.06c0.608,0,1.019,0.053,1.23,0.158c0.159,0.503,0.358,0.814,0.595,0.933
							c0.146,0.079,0.371,0.172,0.675,0.279c0.649,0.225,1.364,0.404,2.144,0.535c1.694,0.398,2.984,0.595,3.87,0.595
							c0.398,0,0.682-0.178,0.854-0.536l0.319,0.913c-0.133,0.172-0.199,0.371-0.199,0.595v0.497l0.119,0.477l0.338,0.595
							c0.45,1.641,0.787,3.03,1.012,4.169c-0.026,1.243-0.225,2.23-0.595,2.958v0.02l-0.02,0.021l-0.021,0.04l-0.02,0.02v0.021
							h-0.021l-0.059,0.079l-0.04,0.079l-0.04,0.06l-1.052,2.203c-0.173,0.319-0.158,0.635,0.04,0.954
							c0.198,0.304,0.476,0.456,0.834,0.456h0.477c0.33,0,0.594-0.139,0.794-0.416c0.185-0.252,0.225-0.536,0.119-0.854
							l-0.021-0.119c0.04-0.173,0.073-0.29,0.1-0.358v4.188c0,0.199,0.06,0.384,0.179,0.556c0.119,0.172,0.278,0.291,0.476,0.358
							c0.451,0.132,0.814,0.014,1.092-0.358l0.219-0.337l-0.021,0.755c0,0.398,0.166,0.675,0.497,0.834
							c0.345,0.198,0.676,0.186,0.993-0.04c0.675-0.476,1.469-1.071,2.382-1.786v1.965c0,0.371,0.158,0.641,0.477,0.814
							c0.318,0.185,0.635,0.192,0.953,0.02c0.781-0.423,1.608-1.138,2.482-2.144l0.813,2.283"/>
						<path fill="#FFFFFF" d="M108.578,219.535c-0.026-0.291-0.193-0.682-0.497-1.171l-0.079-0.1l-0.138-0.119
							c-0.106-1.007-0.529-1.926-1.271-2.759c-0.582-0.451-1.952-1.271-4.109-2.461c-0.29-0.08-0.681-0.126-1.171-0.139
							c-0.583-0.014-1.039,0.04-1.37,0.158"/>
						<path fill="#FFFFFF" d="M88.092,219.079c0.198-0.173,0.284-0.443,0.258-0.814c-0.079-0.49-0.132-0.867-0.159-1.132
							l-0.079-0.198c-0.252-1.562-0.88-2.793-1.886-3.692c-1.033-0.913-2.303-1.344-3.811-1.29c-1.879,0-3.554,0.39-5.023,1.171
							c-0.675,0.278-1.23,0.588-1.668,0.933c-0.45-0.926-1.251-1.621-2.402-2.084c-0.715-0.158-1.098-0.238-1.151-0.238
							c-0.489-0.066-0.854-0.026-1.091,0.119"/>
						<path fill="#FFFFFF" d="M21.511,87.03c0.384,0.106,0.82,0.173,1.311,0.198c0.264,0,0.623,0,1.072,0l-0.02,0.219
							c0.026,0.053,0.026,0.152,0,0.298c0,0.185,0.066,0.39,0.198,0.615l0.278,0.595c0.86,1.258,2.164,1.886,3.91,1.886h0.179
							c0.966,0,1.833-0.106,2.6-0.318c1.138-0.238,2.117-0.715,2.938-1.429c0.807-0.701,1.389-1.595,1.747-2.68
							c1.376-0.344,2.395-0.794,3.057-1.349c0.318-0.384,0.503-0.595,0.556-0.635"/>
						<path fill="#FFFFFF" d="M49.362,92.567c0.331,1.033,0.608,2.184,0.834,3.454c0.12,0.794,0.178,1.204,0.178,1.23
							c0.053,0.556,0.007,1.04-0.138,1.449c-0.014-0.41-0.027-0.734-0.041-0.972c-0.026-0.463-0.093-0.873-0.198-1.23
							c-0.238-0.463-0.431-1.025-0.576-1.687"/>
						<path fill="#FFFFFF" d="M49.839,90.364v0.397l0.357,1.132c0.132,0.45,0.377,1.264,0.735,2.442
							c0.304,1.019,0.477,1.714,0.516,2.084"/>
						<path fill="#FFFFFF" d="M50.911,87.744c0.132,0.688,0.278,1.191,0.436,1.508c0.291,1.311,0.443,2.017,0.457,2.125
							c0.344,1.469,0.469,2.508,0.377,3.117"/>
						<line fill="none" x1="54.008" y1="84.747" x2="54.008" y2="81.889"/>
						<path fill="#FFFFFF" d="M43.03,107.853c0.542-0.384,1.185-1.025,1.926-1.926v-0.02c1.204-0.966,2.084-1.846,2.64-2.64
							c0.08-0.04,0.119-0.073,0.119-0.1l-0.04-0.02l0.02-0.021h-0.02l0.238-0.158c0.146-0.291,0.225-0.469,0.238-0.536
							c0.728-1.151,1.118-1.78,1.171-1.886l0.337,0.159c0.079,0.04,0.166,0.059,0.258,0.059c0.079,0,0.185-0.026,0.318-0.079
							c0.185-0.132,0.278-0.298,0.278-0.497c0-0.172-0.04-0.397-0.119-0.675c-0.079-0.345-0.132-0.615-0.158-0.814l0.04-0.099
							l0.139,0.02h0.595c0.132,0,0.264-0.053,0.397-0.158c0.12-0.119,0.179-0.258,0.179-0.416c-0.014-0.304-0.073-0.907-0.179-1.806
							l0.139-0.258c0.158-0.026,0.272-0.079,0.337-0.158c0.119-0.093,0.178-0.225,0.178-0.398v-0.595
							c0.014-0.04,0.185-0.503,0.516-1.39c0.132-0.026,0.231-0.073,0.298-0.138c0.106-0.132,0.159-0.272,0.159-0.416v-0.675
							c0.635-1.694,1.039-3.269,1.211-4.725c0.225-0.106,0.337-0.278,0.337-0.516v-0.099c0.053-0.04,0.086-0.205,0.099-0.497
							c0.993-2.859,1.859-6.14,2.6-9.846l0.258-0.139c0.702-0.728,1.045-1.581,1.033-2.56l-0.08-1.072
							c0.94-0.688,1.41-1.721,1.41-3.097c0-0.542-0.093-1.151-0.278-1.826"/>
						<path fill="#FFFFFF" d="M30.683,95.526c-0.067,0.106-0.099,0.232-0.099,0.377v0.099c-0.026,0.079-0.06,0.272-0.099,0.576
							c-0.041,0.238-0.093,0.43-0.159,0.576c-0.04,1.165,0.278,2.845,0.954,5.043"/>
						<path fill="#FFFFFF" d="M32.391,101.858c-0.635-2.078-0.954-3.574-0.954-4.487c0.079-0.159,0.138-0.377,0.178-0.655
							c0.053-0.357,0.086-0.55,0.099-0.576l0.021-0.179l0.099-0.258l0.02-0.357h-0.059l0.02-0.02h0.02
							c0.158,0,0.298-0.059,0.416-0.178c0.106-0.119,0.158-0.258,0.158-0.416"/>
						<path fill="#FFFFFF" d="M40.668,87.109c-0.371,1.35-1.025,2.502-1.965,3.454c-1.812,1.958-2.693,2.95-2.64,2.977
							c-0.132,0.238-0.311,0.345-0.536,0.318c-0.252-0.04-0.49,0.152-0.715,0.576l-0.456,1.27v4.288"/>
						<line fill="none" x1="40.528" y1="71.288" x2="38.385" y2="68.966"/>
						<path fill="#FFFFFF" d="M37.531,69.74l2.144,2.342c0.12,0.119,0.264,0.178,0.436,0.178"/>
						<path fill="#FFFFFF" d="M33.72,94.077l-0.497,1.449l-0.02,5.061c0,0.173,0.059,0.304,0.178,0.398"/>
						<path fill="#FFFFFF" d="M48.231,55.605c-0.635-0.225-1.25-0.595-1.846-1.112c-0.185-0.238-0.272-0.357-0.258-0.357"/>
						<path fill="#FFFFFF" d="M44.4,55.01c0.146,0.264,0.271,0.45,0.377,0.556l0.199,0.278l0.04,0.041
							c0.781,0.675,1.622,1.185,2.521,1.528c0.106,0.053,0.219,0.08,0.337,0.08"/>
						<path fill="#FFFFFF" d="M161.064,235.693c-0.238,0.159-0.424,0.457-0.556,0.893c-0.158,0.503-0.066,0.854,0.278,1.052"/>
						<path fill="#FFFFFF" d="M159.515,235.257c-0.04,0.106-0.094,0.397-0.159,0.873c-0.079,0.462-0.238,0.787-0.476,0.973"/>
						<path fill="#FFFFFF" d="M165.094,207.068c0.185-0.026,0.523-0.06,1.012-0.1c0.437-0.093,0.761-0.318,0.973-0.675
							c0.411,0.12,1.45,0.431,3.117,0.933c1.443,0.305,2.124,0.112,2.045-0.576c-0.079-0.688-0.218-1.086-0.416-1.192l-0.278,0.04
							c0.357-0.555,1.032-0.337,2.025,0.656c0.198,0.198,0.555,0.264,1.071,0.198c0.595-0.066,0.966-0.317,1.112-0.755
							c0.158-0.437,0.416-0.635,0.773-0.595c0.319,0.04,0.49,0.158,0.516,0.358c1.257,0.45,1.826-0.007,1.707-1.37"/>
						<path fill="#FFFFFF" d="M75.725,214.055c-0.318,0.252-0.536,0.814-0.655,1.687c-0.146,0.979,0.126,1.548,0.814,1.707"/>
						<path fill="#FFFFFF" d="M49.323,100.548c-0.132-0.066-0.258-0.284-0.377-0.655c-0.106-0.398-0.185-0.655-0.238-0.775
							l-0.357-1.25"/>
						<path fill="#FFFFFF" d="M54.008,84.747c0,0.079,0.059,0.503,0.178,1.27c0.093,0.623,0.112,1.112,0.059,1.469"/>
						<path fill="#FFFFFF" d="M53.035,92.211c0-2.025-0.073-3.407-0.219-4.148c-0.291-0.675-0.734-1.013-1.329-1.013"/>
						<path fill="#FFFFFF" d="M21.77,88.44c0.132,0.251,0.272,0.529,0.416,0.834c0.106,0.211,0.238,0.424,0.397,0.635l0.12,0.199
							c0.238,0.41,0.649,1.171,1.23,2.282c1.496,1.76,3.414,2.641,5.757,2.641l-0.199,0.278c-0.251,0.278-0.424,0.655-0.516,1.131
							c-0.079,0.384-0.132,0.954-0.158,1.707c0,3.07,0.708,5.313,2.125,6.729c0.119,0.119,0.258,0.179,0.416,0.179"/>
						<path fill="#FFFFFF" d="M23.894,87.228c0.662,0.026,2.098,0.08,4.308,0.159c2.383-0.04,4.89-0.364,7.524-0.973"/>
						<path fill="#FFFFFF" d="M35.804,75.576c0,1.177-0.021,1.867-0.059,2.064"/>
						<path fill="#FFFFFF" d="M36.44,74.206c0.211,1.311,0.318,2.183,0.318,2.62"/>
						<path fill="#FFFFFF" d="M36.796,72.558c0.146,0.371,0.351,1.052,0.615,2.045c0.252,1.006,0.384,1.642,0.397,1.906"/>
						<path fill="#FFFFFF" d="M36.4,70.494c0.304,0.384,0.715,1.185,1.232,2.402c0.41,0.98,0.694,1.721,0.854,2.224"/>
						<path fill="#FFFFFF" d="M30.881,79.308c-0.662,0.463-1.119,0.833-1.37,1.111c-0.252,0.291-0.41,0.635-0.477,1.033
							c-0.053,0.649-0.258,1.065-0.615,1.251c-0.357,0.185-0.556,0.006-0.595-0.536c-0.04-0.463,0.384-1.039,1.271-1.727
							C29.77,79.896,30.365,79.519,30.881,79.308z"/>
						<path fill="#FFFFFF" d="M24.807,80.399c0.861,0.609,1.337,1.092,1.429,1.449c0.119,0.41,0.106,0.694-0.04,0.854
							c-0.132,0.158-0.318,0.126-0.556-0.099c-0.291-0.265-0.416-0.576-0.378-0.933c0.093-0.318,0.132-0.489,0.12-0.516
							c-0.291-0.318-0.649-0.655-1.072-1.013c-0.16-0.133-0.303-0.249-0.427-0.347C24.108,79.944,24.415,80.146,24.807,80.399z"/>
						<path fill="#FFFFFF" d="M24.43,40.519c-0.954-2.779-2.125-5.142-3.513-7.087c-2.885-4.023-6.591-6.472-11.117-7.345"/>
						<polyline fill="#FFFFFF" points="22.722,45.542 23.854,43.139 23.894,42.961 						"/>
						<path fill="#FFFFFF" d="M22.802,50.008c0.053,0.053,0.146,0.112,0.278,0.178c0.199,0.132,0.556,0.523,1.072,1.171
							c0,0.278-0.159,0.477-0.477,0.595c-0.132,0.053-0.298,0.08-0.497,0.08h-0.298c-0.436-0.093-0.735-0.225-0.893-0.398
							c-0.173-0.158-0.258-0.41-0.258-0.755c0-0.649,0.225-0.973,0.675-0.973C22.538,49.908,22.67,49.941,22.802,50.008z"/>
						<path fill="#FFFFFF" d="M22.802,50.008c-0.132-0.067-0.264-0.1-0.397-0.1c-0.45,0-0.675,0.325-0.675,0.973
							c0,0.345,0.086,0.595,0.258,0.755c0.158,0.173,0.456,0.304,0.893,0.398h0.298c0.198,0,0.364-0.027,0.497-0.08
							c0.318-0.119,0.477-0.318,0.477-0.595c-0.516-0.649-0.873-1.039-1.072-1.171C22.948,50.12,22.855,50.061,22.802,50.008z"/>
						<path fill="#FFFFFF" d="M47.099,51.139c-0.436-0.093-0.735-0.225-0.893-0.397c-0.172-0.159-0.258-0.41-0.258-0.755
							c0-0.649,0.225-0.972,0.675-0.972c0.132,0,0.264,0.033,0.397,0.099c0.053,0.053,0.146,0.112,0.278,0.178
							c0.198,0.132,0.556,0.523,1.071,1.171c0,0.278-0.158,0.477-0.477,0.595c-0.132,0.053-0.298,0.079-0.497,0.079h-0.296V51.139z"
							/>
						<path fill="#FFFFFF" d="M47.099,51.139h0.298c0.198,0,0.364-0.026,0.497-0.079c0.318-0.12,0.477-0.318,0.477-0.595
							c-0.516-0.649-0.873-1.039-1.071-1.171c-0.132-0.066-0.225-0.126-0.278-0.178c-0.132-0.066-0.264-0.099-0.397-0.099
							c-0.45,0-0.675,0.325-0.675,0.972c0,0.345,0.086,0.595,0.258,0.755C46.365,50.915,46.663,51.047,47.099,51.139z"/>
						<path fill="#FFFFFF" d="M30.544,28.389c0.291,0.542,0.621,1.099,0.992,1.668c1.085,1.786,1.886,2.912,2.403,3.375
							c0.29,0.238,0.39,0.542,0.298,0.912c-0.383,1.932-1.203,3.335-2.461,4.209c-1.059,0.662-2.68,1.132-4.864,1.41l-0.138,0.021
							c-0.398,0-0.689-0.192-0.873-0.576c-0.278-0.621-0.589-1.522-0.933-2.699c-0.198-0.662-0.562-2.005-1.091-4.03
							c-0.477-1.589-0.794-2.773-0.954-3.554"/>
						<path fill="#FFFFFF" d="M51.269,27.437c-0.119,0.755-0.225,1.423-0.318,2.005c-0.106,0.807-0.158,1.469-0.158,1.985
							c0,0.158,0.126,0.728,0.377,1.707c0.146,0.185,0.304,0.424,0.477,0.714c0.173,0.304,0.311,0.662,0.416,1.072
							c0.053,0.238,0.12,0.629,0.199,1.171c0,0.926-0.205,1.8-0.615,2.621c-0.568,0.953-1.581,1.627-3.037,2.025
							c-0.993,0.146-1.786,0.219-2.382,0.219c-1.628,0-3.037-0.443-4.229-1.33c-0.834-0.542-1.475-1.217-1.926-2.025
							c-0.436-0.794-0.649-1.654-0.635-2.581c0-0.781,0.416-1.661,1.25-2.641c0.595-0.582,1.059-0.959,1.389-1.132
							c0.411-0.635,0.854-1.423,1.33-2.362c0.225-0.45,0.39-0.781,0.497-0.992c0.185-0.398,0.345-0.802,0.477-1.212"/>
						<path fill="#FFFFFF" d="M71.774,32.996c-0.582,0.463-1.303,1.106-2.164,1.926c-0.608,0.635-1.138,1.297-1.588,1.985
							c-0.026,0.424-0.245,0.714-0.655,0.873l-0.159,0.357c-0.489,0.82-1.469,1.806-2.938,2.957
							c-0.318,0.278-1.258,0.986-2.819,2.125c-0.344,0.225-0.681,0.489-1.012,0.794l-0.099,0.099
							c-0.146,0.146-0.258,0.245-0.337,0.298c-0.688,0.781-1.139,1.443-1.35,1.985c-0.252,0.41-0.443,1.006-0.576,1.786"/>
					</g>
				</g>
			</g>
		</g>
	</g>
</g>
<g id="Layer_4">
</g>
<g id="Layer_1_2_">
	<g>
		<g id="Layer_1_1_">
			<g>
				<g id="Layer_1_3_">
					<g>
						<path fill="none" stroke="#373535" stroke-width="1.5615" stroke-miterlimit="10" d="M24.748,21.601l-1.27,0.775
							 M24.45,18.782l-1.072,0.278 M25.621,13.621h-0.794 M24.827,15.368c-0.185-0.106-0.477-0.106-0.873,0 M24.649,17.115
							l-1.072-0.1 M24.827,30.733c0.146-0.252,0.471-0.509,0.973-0.775c0.093,0,0.45-0.258,1.072-0.775 M25.998,26.663
							c-0.04,0-0.198,0.093-0.477,0.278c-0.569,0.397-0.992,0.688-1.27,0.873 M25.621,32.678c0.066-0.053,0.873-0.569,2.421-1.549
							 M26.396,35.119c1.627-0.489,2.634-1.106,3.017-1.846 M25.422,24.023c-0.397,0.264-0.92,0.623-1.569,1.072"/>
						<path fill="none" stroke="#373535" stroke-width="1.5615" stroke-miterlimit="10" d="M47.02,23.645
							c0.436,0.252,0.728,0.377,0.873,0.377 M48.092,21.403c0.014,0.026,0.04,0.086,0.079,0.179
							c0.026,0.079,0.059,0.119,0.099,0.119 M49.343,18.484l0.199,0.1 M50.216,16.242l0.298,0.298 M51.089,14.117l0.397,0.278
							 M46.326,25.691c0.199,0.053,0.623,0.211,1.27,0.477 M44.181,31.427c0.436,0.516,0.926,0.775,1.469,0.775 M45.076,29.482
							c0.04,0,0.158,0.066,0.357,0.198c0.397,0.238,0.661,0.397,0.794,0.477 M47.199,28.211h-0.278c-0.264,0-0.688-0.192-1.27-0.576
							 M41.66,34.544l1.37,2.125 M43.03,33.075c0.384,1.364,1.125,1.946,2.224,1.747"/>
						<path fill="#FFFFFF" d="M48.092,49.214c0,0.463-0.232,0.694-0.694,0.694c-0.424,0-0.721-0.012-0.893-0.04
							c-0.264-0.041-0.483-0.126-0.655-0.258c-0.159-0.106-0.298-0.264-0.416-0.477c-0.12-0.225-0.179-0.456-0.179-0.694
							c0-0.781,0.357-1.171,1.072-1.171c0.397,0,0.82,0.324,1.27,0.972C47.808,48.453,47.973,48.776,48.092,49.214z"/>
						<path fill="#373535" d="M51.467,49.432v1.25c0,0.821-0.166,1.45-0.497,1.886c-0.397,0.556-0.986,0.834-1.767,0.834h-0.258
							l-0.178-0.079c-0.331-0.173-1.37-0.212-3.117-0.12c-0.264,0.026-0.497-0.066-0.694-0.278
							c-0.185-0.185-0.278-0.417-0.278-0.694l0.02-0.397c-0.146-0.82-0.218-1.271-0.218-1.35c0.026-0.304,0.099-0.576,0.218-0.814
							c0.067-0.146,0.179-0.345,0.337-0.595l0.021-0.021l0.556-0.834c0.146-0.146,0.436-0.325,0.873-0.536
							c0.225-0.106,0.49-0.225,0.794-0.357c0.477-0.159,0.873-0.238,1.192-0.238c0.675-0.04,1.297,0.159,1.865,0.595
							c0.529,0.41,0.893,0.939,1.091,1.588L51.467,49.432z"/>
						<path fill="none" stroke="#373535" stroke-width="1.5615" stroke-miterlimit="10" d="M52.459,56.797
							c0.185,0,0.351-0.046,0.497-0.138l1.112-0.694c0.345-0.238,0.483-0.563,0.416-0.973c0.119-0.158,0.198-0.278,0.238-0.357
							c0.159-0.198,0.245-0.456,0.258-0.775c-0.014-0.424-0.014-0.767,0-1.033c0-0.608-0.264-1.893-0.794-3.851
							c-0.026-0.185-0.093-0.364-0.199-0.536c-0.106-0.542-0.337-1.29-0.694-2.243l-0.079-0.218
							c-0.041-0.146-0.126-0.304-0.259-0.477c-0.251-0.887-0.694-1.628-1.329-2.224c-0.093-0.291-0.278-0.497-0.556-0.615
							c-0.556-0.371-1.098-0.595-1.627-0.675"/>
						<path fill="none" stroke="#373535" stroke-width="1.5615" stroke-miterlimit="10" d="M71.218,28.311
							c-0.146,0.014-0.291,0.033-0.437,0.059l-0.138,0.04h-0.04c-0.106-0.026-0.258,0.033-0.456,0.178l-0.02,0.021
							c-1.959,0.621-3.229,1.059-3.811,1.31c-1.39,0.463-2.951,1.396-4.685,2.798c-0.278,0.345-0.456,0.556-0.536,0.635
							c-0.185,0.225-0.43,0.563-0.734,1.013c-0.516,0.741-0.814,1.171-0.893,1.29c-0.595,0.993-1.078,1.734-1.449,2.224
							c-0.582,0.94-1.151,1.608-1.707,2.005c-0.066,0.027-0.146,0.126-0.238,0.299c-0.529,0.33-1.052,0.497-1.568,0.497
							l-0.258-0.021"/>
						<path fill="none" stroke="#373535" stroke-width="1.5615" stroke-miterlimit="10" d="M31.775,104.062
							c-1.191-1.165-1.786-3.137-1.786-5.916c-0.014-0.516,0.026-0.998,0.12-1.449c0.079-0.384,0.146-0.576,0.198-0.576"/>
						<path fill="none" stroke="#373535" stroke-width="1.5615" stroke-miterlimit="10" d="M41.959,76.191
							c-0.041,0.384-0.199,1.602-0.477,3.653c-0.212,1.615-0.377,2.991-0.497,4.129"/>
						<path fill="none" stroke="#373535" stroke-width="1.5615" stroke-miterlimit="10" d="M257.737,144.2
							c-0.357,0.424-1.085,0.635-2.183,0.635c-0.583,0.026-1.383-0.232-2.403-0.773c-1.125-0.595-2.363-1.463-3.712-2.6
							c-0.952-0.703-2.064-1.687-3.334-2.959l-0.358-0.358l-0.059-0.039l-0.021-0.041c-0.728-0.766-1.191-1.581-1.39-2.441"/>
						<path fill="none" stroke="#373535" stroke-width="1.5615" stroke-miterlimit="10" d="M250.671,149.898
							c-0.079-0.397-0.112-0.595-0.1-0.595c-0.106-0.397-0.251-0.766-0.436-1.111c-0.212-0.345-0.358-0.602-0.437-0.773
							c-0.185-0.331-0.304-0.53-0.357-0.595c-0.847-1.588-1.443-2.7-1.787-3.335c-0.397-0.688-0.866-1.661-1.41-2.918
							c-0.702-1.601-1.078-2.719-1.132-3.355"/>
						<path fill="none" stroke="#373535" stroke-width="1.5615" stroke-miterlimit="10" d="M234.154,137.868
							c0.992,0.556,2.289,1.416,3.89,2.581c1.8,1.31,3.263,2.488,4.387,3.533c1.92,1.813,3.256,3.388,4.011,4.725
							c0.846,1.364,1.323,2.68,1.429,3.95l0.059,0.299l0.04,0.079v0.04l0.1,0.119l0.02,0.04l0.1,0.099v0.021l0.139,0.1l0.059,0.02
							l0.1,0.06"/>
						<path fill="none" stroke="#373535" stroke-width="1.5615" stroke-miterlimit="10" d="M133.074,128.974
							c0.834,0.834,1.482,1.78,1.946,2.839c0.238,0.49,0.416,1.013,0.536,1.569c-0.251-0.185-0.53-0.252-0.834-0.199
							c-0.226,0.053-0.404,0.166-0.536,0.337c-0.146,0.185-0.219,0.39-0.219,0.615v0.198l0.278,0.676l-0.04,0.02l0.358,0.794
							c0.132,0.238,0.576,1.284,1.329,3.137l0.079,0.139l0.04,0.139c0.252,0.476,0.509,1.303,0.775,2.481
							c-0.159,0.026-0.258,0.054-0.298,0.08c-0.384,0.172-0.576,0.469-0.576,0.892v0.198l0.257,0.635
							c0.993,1.112,1.49,2.131,1.49,3.057v0.04c-0.398-0.119-0.728-0.032-0.992,0.258c-0.107,0.133-0.173,0.238-0.199,0.319
							l-0.952-0.715c-0.185-0.146-0.397-0.211-0.635-0.199c-0.238,0.026-0.45,0.126-0.635,0.298l-0.476,0.477
							c-0.186,0.185-0.279,0.411-0.279,0.675c-0.014,0.251,0.067,0.469,0.238,0.655c1.124,1.232,2.282,1.966,3.474,2.204
							c0.489,0.688,0.787,1.243,0.892,1.668c0.066,0.158,0.12,0.318,0.159,0.477c0.079,0.33,0.126,0.515,0.138,0.555
							c-0.357-0.45-0.734-0.608-1.132-0.476c-0.33,0.106-0.576,0.364-0.734,0.773c-0.106,0.291-0.245,0.656-0.416,1.092
							c-0.132,0.358-0.198,0.642-0.198,0.854c0.04,0.317,0.119,0.569,0.238,0.755c0.079,0.119,0.232,0.325,0.456,0.615
							c0.185,0.238,0.278,0.523,0.278,0.854l-0.059,1.191c-0.158-0.158-0.345-0.257-0.556-0.297
							c-0.225-0.027-0.437,0.014-0.635,0.119c-0.211,0.119-0.357,0.29-0.436,0.515c-0.079,0.226-0.079,0.451,0,0.675
							c0.617,1.551,1.044,2.854,1.279,3.911 M136.488,163.893c-0.002-0.008-0.005-0.015-0.01-0.021l-0.029-0.02
							c-0.119-0.159-0.279-0.265-0.477-0.319c-0.185-0.053-0.377-0.047-0.576,0.021c-0.424,0.146-0.635,0.456-0.635,0.933
							c0.132,0.503,0.284,0.802,0.456,0.893c0.53,0.609,0.841,0.993,0.933,1.151c0.211,0.33,0.383,0.701,0.516,1.111
							c-0.186-0.106-0.337-0.225-0.457-0.357c-0.185-0.172-0.404-0.265-0.655-0.279c-0.264-0.014-0.49,0.066-0.675,0.238
							l-0.079,0.08c-0.158,0.185-0.238,0.397-0.238,0.635c0,0.29,0.093,0.523,0.278,0.694l0.337,0.337
							c0.158,0.251,0.416,0.623,0.775,1.111l0.178,0.238c-0.383-0.093-0.702,0.006-0.953,0.298
							c-0.146,0.158-0.225,0.351-0.238,0.576c-0.014,0.225,0.04,0.423,0.158,0.595c0.185,0.251,0.456,0.536,0.814,0.853
							c0.225,0.198,0.634,0.542,1.23,1.033c0-0.026,0.033,0.014,0.1,0.119h-0.556c-0.172-0.132-0.264-0.193-0.278-0.179
							l-0.456-0.278c-0.014-0.026-0.199-0.159-0.556-0.398c-0.238-0.132-0.483-0.158-0.735-0.079
							c-0.251,0.079-0.443,0.238-0.576,0.477c-0.132,0.238-0.158,0.483-0.079,0.734c0.079,0.252,0.238,0.443,0.476,0.577
							l0.159,0.138c0.211,0.158,0.41,0.279,0.595,0.358l0.059,0.04c-0.556,0.079-0.96,0.344-1.211,0.794l-0.119,0.436v0.298
							c0,0.265,0.093,0.49,0.278,0.675c0.212,0.185,0.443,0.279,0.695,0.279h0.397l0.159-0.021
							c-0.107,0.146-0.159,0.317-0.159,0.516c0,0.264,0.093,0.497,0.279,0.694c0.185,0.185,0.416,0.278,0.694,0.278h0.377
							l0.258-0.099l-0.06,0.298c0,0.264,0.093,0.497,0.279,0.694c0.198,0.186,0.43,0.279,0.694,0.279
							c0.304-0.014,0.72-0.086,1.25-0.219c-0.047,0.014,0.02,0.02,0.198,0.02l0.319-0.119h0.06c1.032-0.238,1.581-0.364,1.647-0.377
							l0.258-0.079c0.132-0.079,0.251-0.119,0.358-0.119l0.377-0.079l0.456-0.179l0.099,0.198c0.159,0.305,0.43,0.457,0.814,0.457
							c0.198,0,0.542,0.131,1.033,0.397l0.416,0.1c0.351,0,0.77-0.064,1.26-0.189l0.01-0.01h0.021
							c-0.009,0.003-0.02,0.006-0.03,0.01c-0.297,0.301-0.366,0.649-0.208,1.042c0.173,0.398,0.471,0.595,0.893,0.595
							c0.569-0.014,1.25-0.172,2.045-0.477c0.728-0.264,1.674-0.708,2.84-1.329c0.026,0.225,0.119,0.411,0.278,0.556
							c0.185,0.185,0.416,0.278,0.694,0.278c0.688,0,1.655-0.284,2.898-0.854l0.219,0.279c-0.132,0.172-0.198,0.364-0.198,0.576
							v2.104c-0.331,0.172-0.497,0.443-0.497,0.814l-0.021,0.04c-0.211,0.556-0.503,1.224-0.873,2.005l-0.079,0.397v2.442
							c0,0.265,0.093,0.49,0.278,0.675c0.185,0.186,0.416,0.278,0.695,0.278h0.576c-0.053,1.218-0.079,2.264-0.079,3.138
							c0,1.508,0.026,2.654,0.079,3.434c0.066,0.966,0.198,1.747,0.397,2.342v0.337c0,0.264,0.093,0.497,0.279,0.694
							c0.185,0.186,0.41,0.279,0.675,0.279c0.29,0.702,0.623,1.522,0.992,2.461v0.456c0,0.279,0.093,0.509,0.278,0.695l0.159,0.119
							c0.026,0.211,0.059,0.364,0.099,0.456l0.238,0.397l0.497,0.477c0.185,0.185,0.41,0.278,0.675,0.278l0.198-0.02
							c0.357-0.079,0.595-0.284,0.715-0.615c0.318-0.888,0.88-1.608,1.687-2.164c0.146-0.106,0.364-0.232,0.655-0.377l0.04,0.973
							l-0.1,0.079c-0.185,0.185-0.278,0.411-0.278,0.675v0.973c0,0.238,0.079,0.45,0.238,0.635c0.146,0.172,0.336,0.278,0.576,0.318
							l0.158,0.02l0.139-0.02l-0.021,0.02c-0.172,0.331-0.172,0.656,0,0.973c0.185,0.319,0.469,0.477,0.854,0.477l-0.258,0.854
							c-0.093,0.093-0.166,0.238-0.219,0.436c-0.423,2.329-1.197,3.712-2.322,4.148c-0.211,0.093-0.377,0.238-0.497,0.437
							c-0.106,0.198-0.138,0.41-0.099,0.635c0.053,0.158,0.106,0.278,0.158,0.357c-0.82,1.311-1.588,2.435-2.303,3.375
							c-0.252,0.04-0.457,0.172-0.616,0.397c-1.905,2.753-3.533,4.335-4.882,4.745c-2.806,0-4.837,0.066-6.094,0.198
							c-0.211,0.026-0.39,0.107-0.536,0.238c-0.158,0.132-0.258,0.298-0.298,0.497l-0.755,0.298h-0.02l-0.139,0.059l-0.14,0.1
							l-0.079,0.079l-0.079,0.021l-0.615,0.257c-1.985,0.807-3.574,1.853-4.765,3.138l-0.119,0.179
							c-0.33-0.027-0.602,0.066-0.813,0.278l-0.498,0.476c-0.238,0.238-0.324,0.516-0.257,0.835c0.039,0.33,0.211,0.568,0.515,0.714
							l1.311,0.656c4.578,1.852,9.039,3.6,13.38,5.24l6.729,1.926c1.019,0.649,2.634,1.41,4.844,2.282
							c1.958,0.768,4.692,1.734,8.199,2.898c6.921,2.091,11.467,3.144,13.637,3.156c0.688-0.053,1.687-0.456,2.998-1.211
							c0.649-0.37,2.415-1.475,5.3-3.316c0.516-0.278,0.94-0.562,1.271-0.854l0.1-0.099l0.099-0.139l0.079-0.158l0.04-0.139v-0.04
							l0.021-0.04c0.053-0.251,0.383-1.39,0.992-3.413c0.595-1.999,0.954-3.275,1.072-3.832c0.053-0.119,0.079-0.264,0.079-0.437
							c-0.079-1.15-0.119-2.216-0.119-3.195c0-3.044,0.357-5.208,1.071-6.492c0.185-0.344,1.211-1.541,3.077-3.593
							c1.919-2.461,2.878-5.082,2.878-7.862c0-0.211-0.066-0.45-0.198-0.714l-0.021,0.02l-0.079-0.318l-0.377-0.656l0.179,0.021
							h0.06c0.264-0.014,0.489-0.12,0.675-0.319c0.185-0.198,0.271-0.43,0.257-0.694l-0.04-0.595
							c0.158,0.093,0.325,0.139,0.497,0.139c0.384,0.026,0.675-0.139,0.874-0.497c0.225-0.451,0.357-0.9,0.397-1.35v-0.06
							l0.079-0.595l0.139,0.06h0.477c0.278,0,0.509-0.093,0.694-0.278c0.185-0.186,0.278-0.411,0.278-0.675
							c0-0.873-0.02-1.687-0.059-2.442h0.536c0.251,0,0.462-0.079,0.635-0.238c0.185-0.159,0.298-0.358,0.337-0.595
							c0.119-0.939,0.238-2.124,0.357-3.554h0.139c0.278,0,0.509-0.093,0.694-0.278l0.021-0.02c0.158-0.12,0.272-0.291,0.337-0.516
							c0.29-1.271,0.423-2.289,0.397-3.057c0-0.251-0.085-0.469-0.258-0.655c-0.158-0.173-0.363-0.272-0.615-0.298v-0.893
							l-0.079-0.377c0.383-0.185,0.576-0.483,0.576-0.893v-1.071l-0.059-0.319c-0.569-1.615-1.065-2.871-1.49-3.772
							c0.265,0,0.49-0.093,0.675-0.278c0.184-0.185,0.278-0.41,0.278-0.675c-0.079-0.462-0.278-0.946-0.594-1.449
							c-0.133-0.199-0.583-0.814-1.35-1.846c0.317-0.291,0.476-0.656,0.476-1.092v-0.477c0-0.264-0.059-0.509-0.178-0.734
							l-0.238-0.973c-0.079-0.384-0.29-0.682-0.634-0.893l-0.06-0.337h0.655c0.226,0,0.424-0.066,0.595-0.198
							c0.172-0.146,0.284-0.325,0.337-0.536l1.271-5.401c0.238,0.238,0.529,0.337,0.873,0.298c0.211-0.04,0.39-0.138,0.536-0.298
							c0.147-0.158,0.232-0.344,0.258-0.555c0.079-0.715,0.358-1.973,0.834-3.773c0.186,0.159,0.377,0.238,0.577,0.238l0.059,0.02
							c0.238,0,0.451-0.079,0.635-0.238c0.184-0.159,0.291-0.364,0.319-0.615c0.132-1.019,0.31-1.859,0.536-2.521l0.059-0.319
							v-0.119l0.079-0.219c0.067-0.515,0.06-1.349-0.02-2.5c-0.093-1.124-0.139-1.786-0.139-1.985v-0.238
							c0-0.185,0.053-0.364,0.158-0.536c0.014-0.398,0.166-0.841,0.457-1.33c0.887-8.204,1.495-13.299,1.826-15.285v-0.476
							c-0.026-0.319,0.066-0.569,0.278-0.755c0.595-0.595,1.33-1.078,2.204-1.45c2.197-1.046,4.446-1.568,6.749-1.568
							c1.879,0,3.5,0.436,4.864,1.31"/>
						
							<line fill="none" stroke="#373535" stroke-width="1.5615" stroke-miterlimit="60" x1="136.488" y1="163.872" x2="136.488" y2="163.893"/>
						
							<line fill="none" stroke="#373535" stroke-width="1.5615" stroke-miterlimit="60" x1="136.478" y1="163.872" x2="136.488" y2="163.872"/>
						<path fill="none" stroke="#373535" stroke-width="1.5615" stroke-miterlimit="10" d="M172.458,141.779l0.416,1.092
							c-0.066,1.601-0.899,5.049-2.5,10.342l-0.021,0.198c-0.649,3.826-0.913,6.835-0.794,9.033
							c0.014,0.212,0.119,0.841,0.318,1.886c0.027,0.569,0.12,1.674,0.279,3.316c0.158,1.588,0.258,2.912,0.298,3.97v0.059
							c0,0.278,0.026,0.702,0.079,1.271c0,0.317,0.047,0.609,0.138,0.873c0.371,2.342,0.663,3.969,0.874,4.883
							c0.158,1.23,0.443,2.971,0.853,5.221c0.014,0.066,0.06,0.179,0.139,0.337c0.371,0.556,0.609,1.013,0.715,1.369"/>
						<path fill="none" stroke="#373535" stroke-width="1.5615" stroke-miterlimit="10" d="M248.984,146.225
							c-1.654-0.265-2.819-0.469-3.494-0.615c-1.124-0.238-1.879-0.537-2.263-0.893"/>
						<path fill="none" stroke="#373535" stroke-width="1.5615" stroke-miterlimit="10" d="M93.035,150.156
							c-0.066,0.158-0.079,0.351-0.04,0.576v0.021c-0.014,0.158,0.021,0.325,0.099,0.497c0.318,0.794,0.841,2.693,1.569,5.697
							l0.298,0.577l-0.357-0.238c-0.33-0.158-0.662-0.158-0.992,0c-0.304,0.185-0.469,0.469-0.497,0.854l0.02,0.516l0.06,0.357
							c0.238,0.53,0.728,1.41,1.469,2.64c-0.331,0-0.583,0.126-0.755,0.377c-0.159,0.198-0.225,0.424-0.199,0.675
							c0.026,0.251,0.132,0.463,0.318,0.635l0.02,0.059l0.318,0.477c0.477,0.688,0.854,1.192,1.132,1.508l0.318,0.456
							c-0.185,0.106-0.318,0.258-0.397,0.456c-0.106,0.252-0.106,0.498,0,0.735l0.595,1.39l1.311,1.727l-0.1,0.039
							c-0.238,0.107-0.41,0.279-0.516,0.516c-0.106,0.265-0.112,0.516-0.02,0.755c0.132,0.279,0.556,1.052,1.27,2.322l0.278,0.635
							l-0.04,0.04c-0.185,0.119-0.311,0.29-0.377,0.515c-0.067,0.212-0.053,0.424,0.04,0.635l0.138,0.358l0.179,0.178l0.138,0.319
							c0.106,0.172,0.238,0.423,0.397,0.755c0.173,0.278,0.424,0.45,0.755,0.516c0.278,0.066,0.542,0.046,0.794-0.06
							c0.264-0.106,0.443-0.272,0.536-0.497"/>
						<path fill="none" stroke="#373535" stroke-width="1.5615" stroke-miterlimit="10" d="M116.399,209.351
							c0.093-0.265,0.079-0.516-0.04-0.756c-0.119-0.238-0.304-0.397-0.556-0.476c-1.932-0.688-3.334-1.033-4.208-1.033
							c-0.291,0-0.576,0.041-0.854,0.12c-0.159-0.04-0.264-0.047-0.319-0.021c-0.529-0.026-0.953-0.026-1.27,0
							c-0.331,0-0.556-0.02-0.675-0.059c-0.212-0.08-0.437-0.067-0.675,0.04"/>
						<path fill="none" stroke="#373535" stroke-width="1.5615" stroke-miterlimit="10" d="M122.771,223.365
							c0.106-0.715-0.443-1.931-1.648-3.653c-0.979-0.979-1.832-1.726-2.56-2.242c-1.125-0.702-2.125-1.218-2.997-1.548
							c-0.954-0.371-1.853-0.562-2.7-0.577c-1.019,0.015-1.965,0.642-2.839,1.886c-0.345,0.476-0.589,0.846-0.735,1.111
							c-0.675,1.059-1.033,1.754-1.072,2.085"/>
						<path fill="none" stroke="#373535" stroke-width="1.5615" stroke-miterlimit="10" d="M121.421,184.319
							c0.04,0.476,0.225,0.801,0.556,0.972l0.238,0.238c0.172,0.172,0.576,0.397,1.211,0.675"/>
						<path fill="none" stroke="#373535" stroke-width="1.5615" stroke-miterlimit="10" d="M255.971,140.547
							c-4.883-2.395-8.159-3.896-9.826-4.505l-0.258-0.1v-0.02c-0.384-0.106-0.655-0.179-0.814-0.219
							c-0.251-0.066-0.489-0.1-0.715-0.1h-0.058c-0.119-0.119-0.251-0.198-0.398-0.238c-0.079,0.053-0.364-0.245-0.853-0.893
							c-0.542-0.702-0.993-1.403-1.35-2.104c-0.265-0.45-0.629-1.131-1.092-2.045c-0.358-0.688-0.629-1.158-0.814-1.41
							c-0.04-0.146-0.111-0.272-0.218-0.378c-0.424-0.264-1.178-0.661-2.263-1.191c-1.165-0.568-2.085-0.986-2.76-1.25h0.021
							c-0.569-0.384-3.117-2.409-7.643-6.074c-3.03-2.435-5.359-3.871-6.987-4.308c-0.252-0.053-0.49-0.02-0.715,0.099l-0.556-0.456
							c-0.319-0.238-0.656-0.264-1.013-0.079l-0.02,0.02c-0.345-0.278-0.702-0.53-1.072-0.755c-1.469-1.244-2.845-1.873-4.129-1.886
							c-0.371-1.033-0.82-2.091-1.35-3.176c-0.781-1.191-1.713-1.912-2.798-2.163l0.079-0.417l-0.14-0.477
							c-0.238-0.436-0.357-0.767-0.357-0.992c0-0.264-0.094-0.49-0.279-0.676c-0.185-0.185-0.411-0.278-0.675-0.278h-3.176
							l0.1-0.298l0.04-0.298c0-0.503-0.093-0.899-0.279-1.191c-0.146-0.238-0.364-0.416-0.655-0.536
							c-0.225-0.093-0.463-0.132-0.715-0.12c-0.966,0-1.767-0.469-2.403-1.41c-1.071-1.588-2.971-2.567-5.697-2.938
							c-4.671-2.992-8.271-5.175-10.798-6.551c-2.872-1.562-5.05-2.462-6.531-2.699l0.021-0.14c0-0.304-0.021-0.536-0.06-0.694
							c-0.053-0.252-0.185-0.503-0.397-0.755l-0.675-0.278c-0.451-0.066-0.999-0.099-1.648-0.099l-0.278,0.04
							c-0.649,0.185-1.204,0.311-1.668,0.378c-0.079-0.172-0.285-0.483-0.616-0.933c-0.304-0.304-0.523-0.503-0.655-0.595
							c-0.198-0.159-0.49-0.272-0.873-0.337c-7.543-0.834-12.44-1.31-14.69-1.429c-0.079-0.45-0.238-0.834-0.477-1.151
							c-0.423-0.582-1.045-0.86-1.865-0.834l-0.258,0.041c-0.728,0.198-1.364,0.33-1.905,0.397c-0.542-1.707-1.813-3.051-3.812-4.03
							c-1.191-0.542-2.263-1.085-3.216-1.628c-0.794-0.436-1.232-0.708-1.311-0.814l-0.576-0.576
							c-0.86-0.702-2.184-1.516-3.969-2.442c-1.522-0.781-3.665-1.786-6.432-3.017c-0.225-0.106-0.516-0.232-0.873-0.377
							c-0.278-0.106-0.471-0.193-0.576-0.258c-3.164-1.627-5.301-3.249-6.413-4.863c-1.627-2.342-3.057-4.168-4.288-5.479
							c-1.363-1.482-2.66-2.521-3.89-3.117c-0.993-0.45-2.342-1.165-4.05-2.143l-0.02-0.041l-0.158-0.178l-0.159-0.119l-0.02-0.02
							h-0.02c-1.297-0.715-2.833-1.648-4.605-2.799c-2.594-1.68-5.029-3.249-7.305-4.704c-1.707-1.072-2.608-1.642-2.7-1.707
							c-3.52-2.104-5.982-3.513-7.385-4.229c-5.968-3.071-11.487-5.24-16.555-6.511h-0.655l0.059-0.059
							c0.106-0.026,0.225-0.106,0.358-0.238c0.846-0.714,1.436-1.237,1.767-1.568c1.364-1.496,2.163-3.044,2.402-4.645
							c0.04-0.291-0.033-0.542-0.218-0.755c-0.185-0.225-0.43-0.337-0.735-0.337h-0.278c-0.944,0.066-2.393,0.333-4.347,0.804
							c0.026-0.011,0.04-0.022,0.04-0.03h-0.077l-0.238,0.04c-2.117,0.556-4.387,1.277-6.809,2.164
							c-0.582,0.211-1.31,0.503-2.183,0.873c-0.926,0.384-1.562,0.642-1.906,0.775l-0.794,0.357
							c-0.106-0.106-0.218-0.185-0.337-0.238c-0.398-0.159-1.37-0.802-2.918-1.926c-0.887-0.582-1.92-0.873-3.097-0.873
							c-0.397,0-0.794,0.033-1.191,0.099c0.053-0.291,0.212-0.959,0.477-2.005c0.542-2.038,1.211-4.182,2.005-6.431
							c1.482-3.785,2.535-6.273,3.156-7.464c0.926-1.734,1.747-3.091,2.462-4.069c0.158-0.212,0.219-0.45,0.178-0.715
							c-0.04-0.264-0.172-0.477-0.397-0.635l-0.238-0.119c-0.132-0.197-0.311-0.33-0.536-0.396c-0.238-0.067-0.463-0.053-0.676,0.04
							c-2.183,0.992-4.182,2.607-5.995,4.844c-0.529,0.715-1.106,1.595-1.727,2.64c-0.595,0.926-1.232,2.197-1.906,3.811
							c-0.331,0.583-1.251,3.03-2.76,7.345c-0.252,0.516-0.536,1.211-0.854,2.084l-0.079,0.318
							c-0.781,0.252-1.528,0.377-2.243,0.377c-0.873-0.079-1.972-0.119-3.296-0.119c-3.507,0.026-6.273,0.509-8.298,1.449
							l-0.179-0.318c-2.157-3.838-3.223-7.1-3.196-9.786c0-3.878,1.402-7.001,4.208-9.369c0.093-0.041,0.211-0.139,0.357-0.298
							l0.04-0.059c0.238-0.12,0.404-0.304,0.497-0.556c0.082-0.252,0.062-0.498-0.056-0.735c-0.119-0.238-0.304-0.398-0.556-0.477
							c-0.252-0.093-0.497-0.08-0.735,0.04l-0.158,0.1c-0.159-0.014-0.304,0.006-0.436,0.059V6.971
							c-2.726,1.059-4.864,2.885-6.412,5.479c-1.522,2.303-2.283,4.929-2.283,7.88c0,2.502,0.43,5.433,1.29,8.794
							c-0.846-0.623-1.893-1.218-3.137-1.786c-2.687-1.35-4.897-2.032-6.63-2.045c-0.252-0.066-0.503-0.099-0.755-0.099
							c-1.548-0.026-2.502,0.457-2.859,1.449c-0.132,0.371-0.053,0.702,0.238,0.993c0.079,0.079,1.396,1.496,3.951,4.248
							c1.349,1.694,2.289,3.163,2.819,4.407c0.621,1.35,1.575,2.62,2.859,3.811c0.357,0.278,0.641,0.563,0.854,0.854
							c0.212,0.344,0.477,0.715,0.794,1.112c0.675,1.151,1.217,2.203,1.627,3.156c0.012,0.053,0.052,0.126,0.119,0.219l-0.08,0.099
							c-0.728,1.337-1.091,2.626-1.091,3.87c0.04,0.41,0.119,0.708,0.238,0.893c0.106,0.264,0.278,0.45,0.516,0.556l0.021,0.02
							c0.053,0.067,0.158,0.138,0.318,0.219c-0.225,0.04-0.416,0.146-0.576,0.318c-0.146,0.172-0.219,0.377-0.219,0.615
							c-0.014,0.463,0.1,0.907,0.338,1.329c0.251,0.436,0.602,0.767,1.051,0.992l0.873,0.437c0.079,0.185,0.138,0.384,0.178,0.595
							l0.079,0.179c0.185,0.516,0.278,0.913,0.278,1.191c-0.026,0.304-0.067,0.542-0.119,0.715
							c-0.689,1.627-1.033,4.162-1.033,7.602c0.014,1.522-0.053,2.918-0.199,4.188c-0.119,1.045-0.225,1.575-0.318,1.589
							c-1.8,2.064-3.13,4.274-3.99,6.63l-0.041,0.158l-0.119,0.219c-0.463,1.349-0.694,2.633-0.694,3.851
							c-0.014,1.27,0.219,2.349,0.694,3.235c0.463,0.913,1.145,1.554,2.045,1.926c0.199,0.106,0.384,0.158,0.556,0.158
							c-0.185,0.185-0.225,0.41-0.119,0.675l0.377,0.735l-0.138-0.02c-0.264,0-0.497,0.093-0.694,0.278
							c-0.185,0.199-0.278,0.431-0.278,0.694c0,0.768-0.093,1.893-0.278,3.375c-0.014,4.341,1.622,8.357,4.903,12.05
							c1.165,1.376,2.283,2.461,3.355,3.255l0.158,0.059l0.02,0.021c0.132,0.093,0.258,0.166,0.377,0.218
							c2.131,1.482,4.407,2.224,6.829,2.224c2.131-0.014,4.467-0.926,7.007-2.74v0.595l-0.099,0.099l-0.298,0.676l-0.04,0.198
							c-0.026,0.185-0.046,0.384-0.059,0.595c0.014,0.424,0.059,0.953,0.138,1.588c0.053,0.384,0.139,0.999,0.258,1.846
							c0.834,3.665,2.547,8.972,5.142,15.92l-0.337,0.577l-0.139,0.497v1.25l0.357,0.755l0.576,0.477
							c0.093,0.079,0.205,0.138,0.337,0.179v0.834c0,0.41,0.185,0.702,0.556,0.873c0.252,0.106,0.49,0.119,0.715,0.04v1.232
							c0,0.278,0.093,0.502,0.278,0.675c0.198,0.198,0.424,0.298,0.675,0.298l0.397-0.041v1.211l0.278,0.676
							c0.132,0.106,0.291,0.244,0.477,0.416c0.185,0.146,0.45,0.244,0.794,0.297c0.463,0.808,0.694,1.734,0.694,2.779
							c0,0.212,0.066,0.411,0.198,0.595c0.12,0.172,0.278,0.284,0.477,0.337c0.436,0.132,0.794,0.014,1.071-0.358
							c0.331,0.371,0.755,0.893,1.271,1.569c1.006,1.019,1.68,1.661,2.025,1.926c0.609,0.477,1.224,0.735,1.847,0.775l0.377,0.555
							c0.053,0.107,0.146,0.199,0.278,0.279l0.02,0.04c0.014,0.093,0.053,0.469,0.12,1.132v0.258
							c0.093,0.741,0.251,3.321,0.477,7.742c0.132,0.702,0.264,1.687,0.397,2.959c0.477,4.182,1.291,7.973,2.442,11.374
							c0.026,0.291,0.12,0.595,0.278,0.914c0.146,0.29,0.384,0.469,0.715,0.536c0.053,0.172,0.119,0.318,0.199,0.436
							c0.45,1.086,0.86,1.82,1.23,2.204c0.158,0.158,0.364,0.251,0.615,0.278c0.278,0.569,0.583,1.198,0.913,1.886
							c0.225,0.424,0.424,0.741,0.595,0.954c0.304,0.304,0.655,0.37,1.052,0.198l0.139-0.06l0.04,0.06
							c0.211,0.423,0.377,0.813,0.497,1.171c0.053,0.198,0.166,0.357,0.337,0.477c0.172,0.119,0.364,0.178,0.576,0.178h0.198
							l0.179,0.416c0.172,0.371,0.469,0.556,0.893,0.556h0.278c0.238,0,0.45-0.072,0.635-0.219l0.516,0.159l0.158-0.021
							c0.649,0.49,1.661,1.118,3.037,1.886c0.397,1.124,0.715,2.163,0.954,3.117c0.04,0.198,0.166,0.383,0.377,0.555
							c0.767,3.507,1.145,8.364,1.132,14.571c-0.014,0.198-0.02,0.304-0.02,0.318c-0.014,0.027-0.066,0.112-0.159,0.258l-0.079,0.1
							l-0.278,0.138c-0.873,0.756-2.117,1.714-3.731,2.879l-3.077,3.653c-0.264,0.264-0.682,0.853-1.25,1.767
							c-0.291,0.41-0.49,0.715-0.595,0.913c-0.265,0.198-0.457,0.325-0.576,0.377c-0.966,0.649-1.648,1.192-2.045,1.627
							c-0.516,0.583-0.794,1.224-0.834,1.926l0.02,0.179l-0.02,0.06v0.297c0,0.319,0.138,0.583,0.416,0.794
							c0.264,0.186,0.556,0.226,0.873,0.12c0.211-0.079,0.635-0.12,1.27-0.12c1.045,0,2.614,0.152,4.704,0.457h0.516
							c0.185,0,0.345-0.041,0.477-0.12c2.342,0.542,6.955,1.132,13.836,1.767h0.059c0.649,0,1.232-0.106,1.747-0.318l0.079-0.02
							l0.021-0.021l0.04-0.021c0.132-0.04,0.225-0.085,0.278-0.138c0.199-0.053,0.364-0.166,0.497-0.337
							c0.12-0.186,0.179-0.384,0.179-0.595c0-0.158-0.046-0.319-0.138-0.477v-0.021l0.775-2.302
							c0.132-0.928,0.371-2.131,0.715-3.613c0.834-0.556,1.489-1.072,1.965-1.548c1.23-1.072,1.846-2.369,1.846-3.891
							c-0.014-0.41-0.119-0.807-0.318-1.191c-0.132-0.252-0.357-0.583-0.675-0.993c-0.225-0.264-0.509-0.377-0.854-0.336
							c0.146-0.147,0.238-0.319,0.278-0.516c0.026-0.211-0.007-0.411-0.099-0.595c-0.146-0.318-0.258-0.675-0.337-1.071
							c0.211-0.053,0.39-0.166,0.536-0.337c0.132-0.173,0.198-0.371,0.198-0.595v-0.973c0-0.278-0.093-0.509-0.278-0.695
							l-0.119-0.078l-0.08-0.358l0.198-0.139c0.185-0.185,0.278-0.41,0.278-0.674c0-0.279-0.093-0.51-0.278-0.695l-0.357-0.655
							c-0.066-0.265-0.166-0.589-0.298-0.973c-0.199-0.542-0.325-0.899-0.377-1.072l-0.219-1.012l0.08,0.02
							c0.225,0,0.436-0.079,0.635-0.238c0.184-0.172,0.29-0.377,0.318-0.616c0.026-0.251-0.033-0.483-0.179-0.694l-0.337-0.516
							c0.172-0.079,0.298-0.193,0.377-0.337c0.185-0.318,0.205-0.635,0.059-0.953c-0.053-0.079-0.146-0.325-0.278-0.734l0.318-3.99
							h0.059c0.252,0,0.483-0.093,0.694-0.279c0.278-0.344,0.483-0.755,0.615-1.23c0.119-0.411,0.218-0.967,0.298-1.668
							c0.278,0.106,0.542,0.085,0.794-0.06c0.278-0.132,0.436-0.344,0.477-0.635c0.093-0.397,0.219-1.118,0.377-2.163
							c0.238-0.041,0.436-0.152,0.595-0.337c0.345-0.437,0.623-0.887,0.834-1.35l0.497,0.794c0.053,0.331,0.199,0.681,0.437,1.052
							c-0.067,0,0.032,0.33,0.298,0.992c0.146,0.411,0.443,0.616,0.893,0.616h0.04c0.12,0.158,0.212,0.317,0.278,0.476
							c0.595,2.594,1.721,5.122,3.375,7.583c-0.079,10.76-0.172,16.351-0.278,16.774c-0.066,0.53-0.225,1.052-0.477,1.569
							c-0.278,0.53-0.754,1.078-1.429,1.648c-2.62,2.356-3.937,3.539-3.951,3.553l-0.02,0.059c-0.252,0.147-0.397,0.364-0.436,0.656
							c-2.29,0.913-3.864,1.668-4.725,2.263c-1.151,0.781-1.786,1.701-1.906,2.759c0.079,0.675,0.39,1.197,0.933,1.569
							c0.278,0.198,0.893,0.476,1.846,0.834c1.469,0.463,3.606,0.887,6.413,1.271c0.635,0,1.469-0.173,2.5-0.516
							c0.98-0.29,1.813-0.437,2.502-0.437c0.225,0,0.424-0.073,0.595-0.219l0.12-0.039l-0.02,0.257
							c0.066,0.463,0.238,0.807,0.516,1.033c0.172,0.119,0.424,0.245,0.755,0.376c0.741,0.291,1.965,0.577,3.673,0.854
							c1.482,0.238,3.653,0.523,6.51,0.854h0.1c1.045,0,2.051-0.146,3.017-0.437c0.41-0.106,0.635-0.377,0.675-0.813
							c0.106-0.106,0.172-0.198,0.198-0.279c0.132-0.264,0.199-0.602,0.199-1.013v-0.02c0.132-1.958,0.198-4.022,0.198-6.193
							c0.106-0.291,0.166-1.092,0.179-2.403c0.463-0.371,0.787-0.907,0.972-1.608c0.132-0.542,0.199-1.277,0.199-2.203
							c0.026-1.232-0.232-2.382-0.775-3.454l-0.497-0.992l-0.079-0.258l0.119-2.5c0.265-0.04,0.483-0.166,0.655-0.377
							c0.159-0.211,0.225-0.451,0.198-0.715l-0.158-1.271c0.265-0.304,0.325-0.649,0.179-1.032
							c-0.079-0.159-0.138-0.337-0.179-0.536c0.173-0.173,0.258-0.384,0.258-0.636c0-0.436-0.086-0.892-0.258-1.369l-0.138-0.635
							l-0.138-0.218c-0.225-1.046-0.384-1.727-0.477-2.046c0.198-0.066,0.357-0.192,0.477-0.377
							c0.119-0.185,0.166-0.383,0.138-0.594c-0.053-0.477-0.146-0.98-0.278-1.509c-0.146-0.582-0.218-0.887-0.218-0.913
							c-0.066-0.344-0.258-0.582-0.576-0.715l-0.218-2.481c0.688,0.29,1.555,0.436,2.6,0.436h0.059c3.348,0,5.069-0.992,5.161-2.977
							v-0.179c-0.026-0.172-0.072-0.311-0.138-0.416l2.661-0.834c0.198-0.066,0.364-0.185,0.497-0.357
							c0.119-0.172,0.179-0.364,0.179-0.577v-0.853c0.066-0.094,0.099-0.225,0.099-0.398c0.185-0.185,0.284-0.416,0.298-0.694
							c0.383-0.093,0.569-0.377,0.556-0.854"/>
						<path fill="#373535" d="M26.792,77.244c0.542,0,1.165-0.139,1.867-0.416l4.248-0.854c0.516,0.014,1.039,0.12,1.568,0.318
							c0.384,0.067,0.623,0.298,0.715,0.694c0.053,0.225,0.053,0.404,0,0.536c-0.357,1.774-1.443,3.282-3.255,4.526
							c-1.76,1.045-2.959,2.017-3.594,2.918c-0.29,0.424-0.767,0.609-1.429,0.556c-0.609-0.053-0.94-0.172-0.993-0.357l-0.04-0.218
							c-0.093-0.053-0.185-0.132-0.278-0.238c-0.913-1.31-1.78-2.21-2.6-2.699c-0.741-0.569-1.171-0.9-1.29-0.993
							c-0.345-0.291-0.595-0.55-0.755-0.775c-0.132-0.172-0.219-0.291-0.258-0.357c-0.079-0.12-0.146-0.325-0.199-0.615
							c-0.04-0.172,0.027-0.397,0.199-0.675c0.12-0.225,0.185-0.39,0.199-0.497l0.059-0.138c0.158-0.807,0.364-1.284,0.615-1.429
							c0.291-0.172,0.602-0.258,0.933-0.258c0.662-0.026,1.349,0.205,2.064,0.694c0.014,0.053,0.219,0.112,0.615,0.179
							C25.661,77.224,26.197,77.256,26.792,77.244z"/>
						<path fill="#373535" d="M22.722,51.1c-0.344-0.12-0.608-0.357-0.794-0.715c-0.066-0.146-0.152-0.404-0.258-0.775
							c0.119-0.211,0.761-0.404,1.926-0.576h0.158c0.755,0,1.403,0.278,1.946,0.834c0.569,0.582,0.827,1.27,0.775,2.064
							c-0.026,0.595-0.053,0.986-0.079,1.171c-0.067,0.424-0.193,0.775-0.378,1.052c-0.741,0.623-1.349,0.834-1.826,0.635
							c-1.297-0.542-2.025-1.291-2.184-2.243C21.85,51.676,22.088,51.193,22.722,51.1z"/>
						<path fill="none" stroke="#373535" stroke-width="1.5615" stroke-miterlimit="10" d="M53.075,33.71
							c0.834-0.755,2.038-1.535,3.613-2.342c0.357-0.225,0.675-0.398,0.953-0.516c0.185-0.08,0.576-0.238,1.171-0.477"/>
						<path fill="none" stroke="#373535" stroke-width="1.5615" stroke-miterlimit="10" d="M176.646,221.479l1.311-1.767
							c0.383,0,0.662-0.178,0.834-0.536l0.398-0.715c0.225-0.225,0.318-0.489,0.278-0.794l0.773-0.992
							c0.159-0.066,0.298-0.205,0.417-0.416l0.039-0.079c0.768-0.835,1.344-1.502,1.727-2.006c0.516-0.687,0.907-1.343,1.172-1.965
							c0.158-0.489,0.35-1.006,0.576-1.548l0.456-1.171c0.251-0.026,0.451-0.112,0.595-0.258c0.185-0.211,0.278-0.443,0.278-0.694
							v-0.238l1.033-1.311l0.079,0.119l0.039,0.953c0,2.647-0.701,5.459-2.104,8.436c-1.906,3.229-4.136,7.06-6.691,11.494
							c-0.49,0.834-1.019,1.455-1.588,1.867c-0.595,0.397-1.29,0.615-2.084,0.655l-1.013-0.021c-0.781,0-1.588,0.047-2.421,0.139
							c0.397-0.952,0.708-1.846,0.933-2.68c0.211,0.053,0.416,0.033,0.615-0.06c0.211-0.093,0.364-0.245,0.456-0.456
							c0.093-0.146,0.126-0.317,0.1-0.515c0.264-0.107,0.45-0.305,0.555-0.595"/>
						<path fill="none" stroke="#373535" stroke-width="1.5615" stroke-miterlimit="10" d="M150.185,226.78
							c-0.781,0.436-1.356,0.802-1.727,1.092c-0.926,0.556-1.647,1.237-2.163,2.045l-0.158,0.14l-0.04,0.02l-0.179,0.139
							l-0.139,0.219c-0.344,0.913-0.502,1.535-0.476,1.865"/>
						<path fill="none" stroke="#373535" stroke-width="1.5615" stroke-miterlimit="10" d="M169.659,241.389
							c0.794-0.357,3.348-1.449,7.662-3.275c1.627-0.728,3.123-1.33,4.487-1.806c1.112-0.398,1.694-0.577,1.747-0.537
							c0.635,0.014,1.092,0.245,1.37,0.695c0.318,0.516,0.502,1.476,0.556,2.878c0,1.139-0.147,2.482-0.437,4.03
							c-0.026,0.158-0.021,0.291,0.02,0.398c0.12,0.37,0.193,0.655,0.219,0.853c0.053,0.451-0.02,0.834-0.219,1.151"/>
						<path fill="none" stroke="#373535" stroke-width="1.5615" stroke-miterlimit="10" d="M185.857,205.143
							c0.569,2.171,1.463,2.786,2.68,1.846c0.463-0.345,0.867-0.728,1.212-1.151l2.719,4.646c0.172,0.318,0.45,0.476,0.834,0.476
							h0.477l0.594-0.179c0.463-0.502,0.729-1.131,0.795-1.886c0.794,1.139,1.686,2.012,2.68,2.621l0.099,0.021
							c0.119,0.066,0.238,0.099,0.358,0.099l0.238,0.1l0.139,0.099c0.132,0.066,0.283,0.1,0.456,0.1c0.41,0,0.694-0.172,0.854-0.516
							c0.105-0.198,0.132-0.41,0.079-0.635c-0.041-0.211-0.147-0.39-0.319-0.536c0.226-0.185,0.337-0.43,0.337-0.734
							c-0.014-0.198-0.04-0.377-0.079-0.537c-0.066-0.238-0.106-0.41-0.119-0.515l-0.021-0.06c0.888,1.218,1.595,2.017,2.125,2.403
							l0.337,0.357c0.198,0.199,0.43,0.298,0.694,0.298c0.185,0,0.351-0.046,0.497-0.138l0.158-0.119
							c0.186,0.185,0.443,0.383,0.775,0.594c1.072,0.688,1.68,0.305,1.826-1.15"/>
						<path fill="none" stroke="#373535" stroke-width="1.5615" stroke-miterlimit="10" d="M165.094,233.172
							c0.304-0.146,0.827-0.204,1.569-0.178c0.766,0.026,1.356,0.132,1.766,0.318c0.702,0.251,1.674,0.814,2.919,1.687
							c1.257,0.979,2.051,1.833,2.382,2.561c0.158,0.225,0.29,0.523,0.397,0.892c0.053,0.212,0.126,0.51,0.219,0.893"/>
						<path fill="none" stroke="#373535" stroke-width="1.5615" stroke-miterlimit="10" d="M159.515,235.257l0.059-0.158l0.04-0.06
							c0.398-1.588,0.595-2.806,0.595-3.653c-0.026-0.49-0.185-0.986-0.476-1.489c-0.238-0.384-0.642-0.914-1.212-1.588
							c-1.364-1.47-2.786-2.225-4.268-2.263c-0.225-0.384-0.556-0.542-0.992-0.477c-1.019,0.185-2.046,0.588-3.077,1.211
							c-0.278-0.82-0.72-1.502-1.329-2.045c-0.569-0.623-1.145-1.072-1.727-1.35"/>
						<path fill="none" stroke="#373535" stroke-width="1.5615" stroke-miterlimit="10" d="M170.97,230.612
							c-0.384,0.04-0.828,0.119-1.33,0.238c-0.542,0.132-0.953,0.258-1.23,0.377c-0.133,0.04-0.284,0.099-0.456,0.179
							c-0.94,0.37-1.938,0.992-2.998,1.865c-1.376,0.926-2.673,1.733-3.89,2.421"/>
						<path fill="none" stroke="#373535" stroke-width="1.5615" stroke-miterlimit="10" d="M156.001,180.13
							c-0.225,0.928,0,1.548,0.675,1.867c0.503,0.251,1.033,0.298,1.589,0.139c0.172-0.067,0.594-0.139,1.27-0.219
							c0.794-0.079,1.661-0.126,2.6-0.139v0.021c0,0.053-0.072,0.164-0.219,0.337c-0.132,0.146-0.204,0.317-0.218,0.515
							c-0.026,0.199,0.006,0.384,0.099,0.556c0.199,0.384,0.516,0.556,0.954,0.516c0.436-0.04,0.813-0.06,1.132-0.06
							c0.608,0,1.019,0.053,1.23,0.158c0.159,0.503,0.358,0.814,0.595,0.933c0.146,0.079,0.371,0.172,0.675,0.279
							c0.649,0.225,1.364,0.404,2.144,0.535c1.694,0.398,2.984,0.595,3.87,0.595c0.398,0,0.682-0.178,0.854-0.536l0.319,0.913
							c-0.133,0.172-0.199,0.371-0.199,0.595v0.497l0.119,0.477l0.338,0.595c0.45,1.641,0.787,3.03,1.012,4.169
							c-0.026,1.243-0.225,2.23-0.595,2.958v0.02l-0.02,0.021l-0.021,0.04l-0.02,0.02v0.021h-0.021l-0.059,0.079l-0.04,0.079
							l-0.04,0.06l-1.052,2.203c-0.173,0.319-0.158,0.635,0.04,0.954c0.198,0.304,0.476,0.456,0.834,0.456h0.477
							c0.33,0,0.594-0.139,0.794-0.416c0.185-0.252,0.225-0.536,0.119-0.854l-0.021-0.119c0.04-0.173,0.073-0.29,0.1-0.358v4.188
							c0,0.199,0.06,0.384,0.179,0.556c0.119,0.172,0.278,0.291,0.476,0.358c0.451,0.132,0.814,0.014,1.092-0.358l0.219-0.337
							l-0.021,0.755c0,0.398,0.166,0.675,0.497,0.834c0.345,0.198,0.676,0.186,0.993-0.04c0.675-0.476,1.469-1.071,2.382-1.786
							v1.965c0,0.371,0.158,0.641,0.477,0.814c0.318,0.185,0.635,0.192,0.953,0.02c0.781-0.423,1.608-1.138,2.482-2.144l0.813,2.283
							"/>
						<path fill="none" stroke="#373535" stroke-width="1.5615" stroke-miterlimit="10" d="M108.578,219.535
							c-0.026-0.291-0.193-0.682-0.497-1.171l-0.079-0.1l-0.138-0.119c-0.106-1.007-0.529-1.926-1.271-2.759
							c-0.582-0.451-1.952-1.271-4.109-2.461c-0.29-0.08-0.681-0.126-1.171-0.139c-0.583-0.014-1.039,0.04-1.37,0.158"/>
						<path fill="none" stroke="#373535" stroke-width="1.5615" stroke-miterlimit="10" d="M88.092,219.079
							c0.198-0.173,0.284-0.443,0.258-0.814c-0.079-0.49-0.132-0.867-0.159-1.132l-0.079-0.198c-0.252-1.562-0.88-2.793-1.886-3.692
							c-1.033-0.913-2.303-1.344-3.811-1.29c-1.879,0-3.554,0.39-5.023,1.171c-0.675,0.278-1.23,0.588-1.668,0.933
							c-0.45-0.926-1.251-1.621-2.402-2.084c-0.715-0.158-1.098-0.238-1.151-0.238c-0.489-0.066-0.854-0.026-1.091,0.119"/>
						<path fill="none" stroke="#373535" stroke-width="1.5615" stroke-miterlimit="10" d="M21.511,87.03
							c0.384,0.106,0.82,0.173,1.311,0.198c0.264,0,0.623,0,1.072,0l-0.02,0.219c0.026,0.053,0.026,0.152,0,0.298
							c0,0.185,0.066,0.39,0.198,0.615l0.278,0.595c0.86,1.258,2.164,1.886,3.91,1.886h0.179c0.966,0,1.833-0.106,2.6-0.318
							c1.138-0.238,2.117-0.715,2.938-1.429c0.807-0.701,1.389-1.595,1.747-2.68c1.376-0.344,2.395-0.794,3.057-1.349
							c0.318-0.384,0.503-0.595,0.556-0.635"/>
						<path fill="none" stroke="#373535" stroke-width="1.5615" stroke-miterlimit="10" d="M49.362,92.567
							c0.331,1.033,0.608,2.184,0.834,3.454c0.12,0.794,0.178,1.204,0.178,1.23c0.053,0.556,0.007,1.04-0.138,1.449
							c-0.014-0.41-0.027-0.734-0.041-0.972c-0.026-0.463-0.093-0.873-0.198-1.23c-0.238-0.463-0.431-1.025-0.576-1.687"/>
						<path fill="none" stroke="#373535" stroke-width="1.5615" stroke-miterlimit="10" d="M49.839,90.364v0.397l0.357,1.132
							c0.132,0.45,0.377,1.264,0.735,2.442c0.304,1.019,0.477,1.714,0.516,2.084"/>
						<path fill="none" stroke="#373535" stroke-width="1.5615" stroke-miterlimit="10" d="M50.911,87.744
							c0.132,0.688,0.278,1.191,0.436,1.508c0.291,1.311,0.443,2.017,0.457,2.125c0.344,1.469,0.469,2.508,0.377,3.117"/>
						
							<line fill="none" stroke="#373535" stroke-width="1.5615" stroke-miterlimit="10" x1="54.008" y1="84.747" x2="54.008" y2="81.889"/>
						<path fill="none" stroke="#373535" stroke-width="1.5615" stroke-miterlimit="10" d="M43.03,107.853
							c0.542-0.384,1.185-1.025,1.926-1.926v-0.02c1.204-0.966,2.084-1.846,2.64-2.64c0.08-0.04,0.119-0.073,0.119-0.1l-0.04-0.02
							l0.02-0.021h-0.02l0.238-0.158c0.146-0.291,0.225-0.469,0.238-0.536c0.728-1.151,1.118-1.78,1.171-1.886l0.337,0.159
							c0.079,0.04,0.166,0.059,0.258,0.059c0.079,0,0.185-0.026,0.318-0.079c0.185-0.132,0.278-0.298,0.278-0.497
							c0-0.172-0.04-0.397-0.119-0.675c-0.079-0.345-0.132-0.615-0.158-0.814l0.04-0.099l0.139,0.02h0.595
							c0.132,0,0.264-0.053,0.397-0.158c0.12-0.119,0.179-0.258,0.179-0.416c-0.014-0.304-0.073-0.907-0.179-1.806l0.139-0.258
							c0.158-0.026,0.272-0.079,0.337-0.158c0.119-0.093,0.178-0.225,0.178-0.398v-0.595c0.014-0.04,0.185-0.503,0.516-1.39
							c0.132-0.026,0.231-0.073,0.298-0.138c0.106-0.132,0.159-0.272,0.159-0.416v-0.675c0.635-1.694,1.039-3.269,1.211-4.725
							c0.225-0.106,0.337-0.278,0.337-0.516v-0.099c0.053-0.04,0.086-0.205,0.099-0.497c0.993-2.859,1.859-6.14,2.6-9.846
							l0.258-0.139c0.702-0.728,1.045-1.581,1.033-2.56l-0.08-1.072c0.94-0.688,1.41-1.721,1.41-3.097
							c0-0.542-0.093-1.151-0.278-1.826"/>
						<path fill="none" stroke="#373535" stroke-width="1.5615" stroke-miterlimit="10" d="M30.683,95.526
							c-0.067,0.106-0.099,0.232-0.099,0.377v0.099c-0.026,0.079-0.06,0.272-0.099,0.576c-0.041,0.238-0.093,0.43-0.159,0.576
							c-0.04,1.165,0.278,2.845,0.954,5.043"/>
						<path fill="none" stroke="#373535" stroke-width="1.5615" stroke-miterlimit="10" d="M32.391,101.858
							c-0.635-2.078-0.954-3.574-0.954-4.487c0.079-0.159,0.138-0.377,0.178-0.655c0.053-0.357,0.086-0.55,0.099-0.576l0.021-0.179
							l0.099-0.258l0.02-0.357h-0.059l0.02-0.02h0.02c0.158,0,0.298-0.059,0.416-0.178c0.106-0.119,0.158-0.258,0.158-0.416"/>
						<path fill="none" stroke="#373535" stroke-width="1.5615" stroke-miterlimit="10" d="M40.668,87.109
							c-0.371,1.35-1.025,2.502-1.965,3.454c-1.812,1.958-2.693,2.95-2.64,2.977c-0.132,0.238-0.311,0.345-0.536,0.318
							c-0.252-0.04-0.49,0.152-0.715,0.576l-0.456,1.27v4.288"/>
						
							<line fill="none" stroke="#373535" stroke-width="1.5615" stroke-miterlimit="10" x1="40.528" y1="71.288" x2="38.385" y2="68.966"/>
						<path fill="none" stroke="#373535" stroke-width="1.5615" stroke-miterlimit="10" d="M37.531,69.74l2.144,2.342
							c0.12,0.119,0.264,0.178,0.436,0.178"/>
						<path fill="none" stroke="#373535" stroke-width="1.5615" stroke-miterlimit="10" d="M33.72,94.077l-0.497,1.449l-0.02,5.061
							c0,0.173,0.059,0.304,0.178,0.398"/>
						<path fill="none" stroke="#373535" stroke-width="1.5615" stroke-miterlimit="10" d="M48.231,55.605
							c-0.635-0.225-1.25-0.595-1.846-1.112c-0.185-0.238-0.272-0.357-0.258-0.357"/>
						<path fill="none" stroke="#373535" stroke-width="1.5615" stroke-miterlimit="10" d="M44.4,55.01
							c0.146,0.264,0.271,0.45,0.377,0.556l0.199,0.278l0.04,0.041c0.781,0.675,1.622,1.185,2.521,1.528
							c0.106,0.053,0.219,0.08,0.337,0.08"/>
						<path fill="none" stroke="#373535" stroke-width="1.5615" stroke-miterlimit="10" d="M161.064,235.693
							c-0.238,0.159-0.424,0.457-0.556,0.893c-0.158,0.503-0.066,0.854,0.278,1.052"/>
						<path fill="none" stroke="#373535" stroke-width="1.5615" stroke-miterlimit="10" d="M159.515,235.257
							c-0.04,0.106-0.094,0.397-0.159,0.873c-0.079,0.462-0.238,0.787-0.476,0.973"/>
						<path fill="none" stroke="#373535" stroke-width="1.5615" stroke-miterlimit="10" d="M165.094,207.068
							c0.185-0.026,0.523-0.06,1.012-0.1c0.437-0.093,0.761-0.318,0.973-0.675c0.411,0.12,1.45,0.431,3.117,0.933
							c1.443,0.305,2.124,0.112,2.045-0.576c-0.079-0.688-0.218-1.086-0.416-1.192l-0.278,0.04c0.357-0.555,1.032-0.337,2.025,0.656
							c0.198,0.198,0.555,0.264,1.071,0.198c0.595-0.066,0.966-0.317,1.112-0.755c0.158-0.437,0.416-0.635,0.773-0.595
							c0.319,0.04,0.49,0.158,0.516,0.358c1.257,0.45,1.826-0.007,1.707-1.37"/>
						<path fill="none" stroke="#373535" stroke-width="1.5615" stroke-miterlimit="10" d="M75.725,214.055
							c-0.318,0.252-0.536,0.814-0.655,1.687c-0.146,0.979,0.126,1.548,0.814,1.707"/>
						<path fill="none" stroke="#373535" stroke-width="1.5615" stroke-miterlimit="10" d="M49.323,100.548
							c-0.132-0.066-0.258-0.284-0.377-0.655c-0.106-0.398-0.185-0.655-0.238-0.775l-0.357-1.25"/>
						<path fill="none" stroke="#373535" stroke-width="1.5615" stroke-miterlimit="10" d="M54.008,84.747
							c0,0.079,0.059,0.503,0.178,1.27c0.093,0.623,0.112,1.112,0.059,1.469"/>
						<path fill="none" stroke="#373535" stroke-width="1.5615" stroke-miterlimit="10" d="M53.035,92.211
							c0-2.025-0.073-3.407-0.219-4.148c-0.291-0.675-0.734-1.013-1.329-1.013"/>
						<path fill="none" stroke="#373535" stroke-width="1.5615" stroke-miterlimit="10" d="M21.77,88.44
							c0.132,0.251,0.272,0.529,0.416,0.834c0.106,0.211,0.238,0.424,0.397,0.635l0.12,0.199c0.238,0.41,0.649,1.171,1.23,2.282
							c1.496,1.76,3.414,2.641,5.757,2.641l-0.199,0.278c-0.251,0.278-0.424,0.655-0.516,1.131
							c-0.079,0.384-0.132,0.954-0.158,1.707c0,3.07,0.708,5.313,2.125,6.729c0.119,0.119,0.258,0.179,0.416,0.179"/>
						<path fill="none" stroke="#373535" stroke-width="1.5615" stroke-miterlimit="10" d="M23.894,87.228
							c0.662,0.026,2.098,0.08,4.308,0.159c2.383-0.04,4.89-0.364,7.524-0.973"/>
						<path fill="none" stroke="#373535" stroke-width="1.5615" stroke-miterlimit="10" d="M35.804,75.576
							c0,1.177-0.021,1.867-0.059,2.064"/>
						<path fill="none" stroke="#373535" stroke-width="1.5615" stroke-miterlimit="10" d="M36.44,74.206
							c0.211,1.311,0.318,2.183,0.318,2.62"/>
						<path fill="none" stroke="#373535" stroke-width="1.5615" stroke-miterlimit="10" d="M36.796,72.558
							c0.146,0.371,0.351,1.052,0.615,2.045c0.252,1.006,0.384,1.642,0.397,1.906"/>
						<path fill="none" stroke="#373535" stroke-width="1.5615" stroke-miterlimit="10" d="M36.4,70.494
							c0.304,0.384,0.715,1.185,1.232,2.402c0.41,0.98,0.694,1.721,0.854,2.224"/>
						<path fill="#FFFFFF" d="M30.881,79.308c-0.662,0.463-1.119,0.833-1.37,1.111c-0.252,0.291-0.41,0.635-0.477,1.033
							c-0.053,0.649-0.258,1.065-0.615,1.251c-0.357,0.185-0.556,0.006-0.595-0.536c-0.04-0.463,0.384-1.039,1.271-1.727
							C29.77,79.896,30.365,79.519,30.881,79.308z"/>
						<path fill="#FFFFFF" d="M24.807,80.399c0.861,0.609,1.337,1.092,1.429,1.449c0.119,0.41,0.106,0.694-0.04,0.854
							c-0.132,0.158-0.318,0.126-0.556-0.099c-0.291-0.265-0.416-0.576-0.378-0.933c0.093-0.318,0.132-0.489,0.12-0.516
							c-0.291-0.318-0.649-0.655-1.072-1.013c-0.16-0.133-0.303-0.249-0.427-0.347C24.108,79.944,24.415,80.146,24.807,80.399z"/>
						<path fill="none" stroke="#373535" stroke-width="1.5615" stroke-miterlimit="10" d="M24.43,40.519
							c-0.954-2.779-2.125-5.142-3.513-7.087c-2.885-4.023-6.591-6.472-11.117-7.345"/>
						<polyline fill="none" stroke="#373535" stroke-width="1.5615" stroke-miterlimit="10" points="22.722,45.542 23.854,43.139 
							23.894,42.961 						"/>
						<path fill="#FFFFFF" d="M22.802,50.008c0.053,0.053,0.146,0.112,0.278,0.178c0.199,0.132,0.556,0.523,1.072,1.171
							c0,0.278-0.159,0.477-0.477,0.595c-0.132,0.053-0.298,0.08-0.497,0.08h-0.298c-0.436-0.093-0.735-0.225-0.893-0.398
							c-0.173-0.158-0.258-0.41-0.258-0.755c0-0.649,0.225-0.973,0.675-0.973C22.538,49.908,22.67,49.941,22.802,50.008z"/>
						<path fill="none" stroke="#373535" stroke-width="1.5615" stroke-miterlimit="10" d="M22.802,50.008
							c-0.132-0.067-0.264-0.1-0.397-0.1c-0.45,0-0.675,0.325-0.675,0.973c0,0.345,0.086,0.595,0.258,0.755
							c0.158,0.173,0.456,0.304,0.893,0.398h0.298c0.198,0,0.364-0.027,0.497-0.08c0.318-0.119,0.477-0.318,0.477-0.595
							c-0.516-0.649-0.873-1.039-1.072-1.171C22.948,50.12,22.855,50.061,22.802,50.008z"/>
						<path fill="#FFFFFF" d="M47.099,51.139c-0.436-0.093-0.735-0.225-0.893-0.397c-0.172-0.159-0.258-0.41-0.258-0.755
							c0-0.649,0.225-0.972,0.675-0.972c0.132,0,0.264,0.033,0.397,0.099c0.053,0.053,0.146,0.112,0.278,0.178
							c0.198,0.132,0.556,0.523,1.071,1.171c0,0.278-0.158,0.477-0.477,0.595c-0.132,0.053-0.298,0.079-0.497,0.079h-0.296V51.139z"
							/>
						<path fill="none" stroke="#373535" stroke-width="1.5615" stroke-miterlimit="10" d="M47.099,51.139h0.298
							c0.198,0,0.364-0.026,0.497-0.079c0.318-0.12,0.477-0.318,0.477-0.595c-0.516-0.649-0.873-1.039-1.071-1.171
							c-0.132-0.066-0.225-0.126-0.278-0.178c-0.132-0.066-0.264-0.099-0.397-0.099c-0.45,0-0.675,0.325-0.675,0.972
							c0,0.345,0.086,0.595,0.258,0.755C46.365,50.915,46.663,51.047,47.099,51.139z"/>
						<path fill="none" stroke="#373535" stroke-width="1.5615" stroke-miterlimit="10" d="M30.544,28.389
							c0.291,0.542,0.621,1.099,0.992,1.668c1.085,1.786,1.886,2.912,2.403,3.375c0.29,0.238,0.39,0.542,0.298,0.912
							c-0.383,1.932-1.203,3.335-2.461,4.209c-1.059,0.662-2.68,1.132-4.864,1.41l-0.138,0.021c-0.398,0-0.689-0.192-0.873-0.576
							c-0.278-0.621-0.589-1.522-0.933-2.699c-0.198-0.662-0.562-2.005-1.091-4.03c-0.477-1.589-0.794-2.773-0.954-3.554"/>
						<path fill="none" stroke="#373535" stroke-width="1.5615" stroke-miterlimit="10" d="M51.269,27.437
							c-0.119,0.755-0.225,1.423-0.318,2.005c-0.106,0.807-0.158,1.469-0.158,1.985c0,0.158,0.126,0.728,0.377,1.707
							c0.146,0.185,0.304,0.424,0.477,0.714c0.173,0.304,0.311,0.662,0.416,1.072c0.053,0.238,0.12,0.629,0.199,1.171
							c0,0.926-0.205,1.8-0.615,2.621c-0.568,0.953-1.581,1.627-3.037,2.025c-0.993,0.146-1.786,0.219-2.382,0.219
							c-1.628,0-3.037-0.443-4.229-1.33c-0.834-0.542-1.475-1.217-1.926-2.025c-0.436-0.794-0.649-1.654-0.635-2.581
							c0-0.781,0.416-1.661,1.25-2.641c0.595-0.582,1.059-0.959,1.389-1.132c0.411-0.635,0.854-1.423,1.33-2.362
							c0.225-0.45,0.39-0.781,0.497-0.992c0.185-0.398,0.345-0.802,0.477-1.212"/>
						<path fill="none" stroke="#373535" stroke-width="1.5615" stroke-miterlimit="10" d="M71.774,32.996
							c-0.582,0.463-1.303,1.106-2.164,1.926c-0.608,0.635-1.138,1.297-1.588,1.985c-0.026,0.424-0.245,0.714-0.655,0.873
							l-0.159,0.357c-0.489,0.82-1.469,1.806-2.938,2.957c-0.318,0.278-1.258,0.986-2.819,2.125
							c-0.344,0.225-0.681,0.489-1.012,0.794l-0.099,0.099c-0.146,0.146-0.258,0.245-0.337,0.298
							c-0.688,0.781-1.139,1.443-1.35,1.985c-0.252,0.41-0.443,1.006-0.576,1.786"/>
					</g>
				</g>
			</g>
		</g>
	</g>
</g>
</svg>
