<?xml version="1.0" encoding="utf-8"?>
<!-- Generator: Adobe Illustrator 17.0.1, SVG Export Plug-In . SVG Version: 6.00 Build 0)  -->
<!DOCTYPE svg PUBLIC "-//W3C//DTD SVG 1.1//EN" "http://www.w3.org/Graphics/SVG/1.1/DTD/svg11.dtd">
<svg version="1.1" id="Layer_1" xmlns="http://www.w3.org/2000/svg" xmlns:xlink="http://www.w3.org/1999/xlink" x="0px" y="0px"
	 width="201.145px" height="258.489px" viewBox="36.954 2.638 201.145 258.489"
	 enable-background="new 36.954 2.638 201.145 258.489" xml:space="preserve">
<g>
	<g id="Layer_1_1_">
		<g>
			<g id="Layer_1_3_">
				<g>
					<path fill="#FFFFFF" d="M71.334,194.701c-0.687,0.625-1.451,1.301-2.291,2.024c-3.699,3.198-6.503,5.304-8.413,6.315
						c-1.622,0.843-3.121,0.843-4.499,0c-0.51-0.311-0.932-0.694-1.266-1.15c-0.301-0.399-0.45-0.727-0.45-0.982
						c0-0.501,0.516-1.333,1.549-2.5c0.755-0.858,1.816-1.931,3.182-3.224l-1.317,1.192c-3.132,2.72-5.514,4.525-7.147,5.414
						c-1.765,0.966-3.21,1.01-4.332,0.132c-0.444-0.343-0.761-0.787-0.949-1.332c-0.166-0.522-0.183-1.011-0.05-1.467
						c0.233-0.788,1.56-2.399,3.981-4.83c0.67-0.683,1.645-1.643,2.924-2.883l5.173-4.898l-5.173,4.898l-0.775,0.717
						c-4.387,3.998-7.614,6.625-9.68,7.88c-2.199,1.332-3.509,1.322-3.932-0.034c-0.166-0.51-0.166-1.132,0-1.866
						c0.156-0.677,0.4-1.228,0.733-1.65c0.6-0.766,1.827-2.154,3.682-4.166c1.766-1.91,3.26-3.482,4.481-4.714
						c1.366-1.356,3.804-3.678,7.314-6.964c3.887-3.643,6.719-6.238,8.496-7.781c1.833-1.577,11.923-8.725,30.272-21.442
						c17.782-12.329,28.888-19.92,33.321-22.775c3.521-2.266,8.447-3.643,14.777-4.132c4.721-0.355,9.031-0.221,12.93,0.4
						c2.843,0.455,5.242,1.327,7.197,2.616c2.054,1.355,3.382,3.027,3.983,5.014c3.164,13.25-9.147,26.901-36.936,40.95
						c-8.33,4.198-18.21,8.487-29.639,12.861c-0.422,0.156-3.854,1.433-10.297,3.832c-2.743,1.034-4.231,1.654-4.465,1.866
						c-3.409,3.144-6.43,5.804-9.063,7.981c-1.51,1.266-3.427,2.01-5.748,2.232c-2.232,0.211-3.393-0.116-3.482-0.983
						c-0.067-0.556,1.322-2.182,4.166-4.881C70.219,195.78,70.8,195.223,71.334,194.701c2.392-2.187,3.856-3.789,4.39-4.807
						C75.189,190.913,73.726,192.514,71.334,194.701z M59.148,195.184l2.899-2.624L59.148,195.184z"/>
					
						<path fill="none" stroke="#292929" stroke-width="1.5875" stroke-linecap="round" stroke-linejoin="round" stroke-miterlimit="3" d="
						M71.334,194.701c-0.534,0.522-1.115,1.079-1.741,1.674c-2.844,2.699-4.232,4.325-4.166,4.881
						c0.089,0.866,1.25,1.194,3.482,0.983c2.321-0.222,4.238-0.966,5.748-2.232c2.632-2.177,5.654-4.837,9.063-7.981
						c0.234-0.211,1.722-0.832,4.465-1.866c6.442-2.399,9.874-3.677,10.297-3.832c11.429-4.375,21.309-8.664,29.639-12.861
						c27.789-14.049,40.1-27.701,36.936-40.95c-0.599-1.988-1.927-3.66-3.983-5.014c-1.955-1.289-4.354-2.161-7.197-2.616
						c-3.899-0.621-8.208-0.755-12.93-0.4c-6.33,0.489-11.256,1.867-14.777,4.132c-4.432,2.854-15.539,10.446-33.321,22.775
						c-18.348,12.717-28.439,19.865-30.272,21.442c-1.777,1.543-4.609,4.137-8.496,7.781c-3.509,3.286-5.948,5.608-7.314,6.964
						c-1.221,1.232-2.715,2.804-4.481,4.714c-1.855,2.011-3.082,3.399-3.682,4.166c-0.333,0.421-0.578,0.973-0.733,1.65
						c-0.166,0.732-0.166,1.355,0,1.866c0.422,1.356,1.733,1.366,3.932,0.034c2.066-1.256,5.293-3.882,9.68-7.88l0.775-0.716
						l5.173-4.898 M59.148,195.184l2.899-2.624 M52.258,191.41c-1.278,1.24-2.253,2.2-2.924,2.883
						c-2.421,2.432-3.749,4.042-3.981,4.83c-0.133,0.456-0.116,0.945,0.05,1.467c0.189,0.545,0.506,0.99,0.949,1.332
						c1.122,0.877,2.565,0.834,4.332-0.132c1.633-0.889,4.015-2.695,7.147-5.414l1.317-1.192c-1.366,1.292-2.427,2.365-3.182,3.224
						c-1.033,1.167-1.549,2-1.549,2.5c0,0.255,0.15,0.583,0.45,0.982c0.332,0.456,0.755,0.839,1.266,1.15
						c1.378,0.843,2.877,0.843,4.499,0c1.91-1.011,4.715-3.116,8.413-6.315c0.84-0.724,1.604-1.398,2.291-2.024
						c2.392-2.187,3.856-3.789,4.39-4.807"/>
					<g>
						<path fill="#FFFFFF" d="M226.983,23.009c4.886,2.032,8.047,3.448,9.48,4.248c0.744,0.434,0.993,1.021,0.749,1.766
							c-0.188,0.566-0.678,1.244-1.467,2.032c-1.033,1.033-4.387,1.822-10.063,2.365c-0.666,0.622-3.12,1.3-7.364,2.032
							c-5.197,0.812-8.902,1.433-11.111,1.866c-2.833,0.566-5.565,1.5-8.197,2.799c-0.99,0.489-2.594,1.416-4.815,2.782
							c-0.888,0.544-2.454,1.816-4.697,3.815c-2.433,2.232-4.027,3.682-4.783,4.348l-0.267,0.667c-0.199,0.689-0.35,1.65-0.45,2.883
							c-0.111,1.366,0.217,3.449,0.983,6.247c0.667,2.444,1.404,4.587,2.216,6.432c1.389,3.087,3.032,8.069,4.931,14.945
							c2.655,9.585,4.21,18.059,4.665,25.423c0.555,8.896,0.483,16.382-0.217,22.458c-0.766,6.609-2.471,13.529-5.115,20.759
							c-3.92,10.729-9.408,19.848-16.46,27.356c-1.632,1.734-4.281,3.643-7.947,5.732c-2.844,1.62-5.52,2.949-8.031,3.981
							c-0.988,1.399-3.182,3.21-6.581,5.431c-2.61,1.688-5.076,3.109-7.397,4.265c-1.511,0.755-3.21,1.339-5.097,1.748
							c-1.322,0.289-3.254,0.578-5.799,0.867l-0.267,1.899c-0.067,2.267,0.145,5.892,0.633,10.879
							c0.51,5.21,2.255,10.113,5.231,14.711c1.888,2.933,4.249,5.681,7.08,8.247c1.522,0,3.376,0.189,5.565,0.566
							c2.565,0.434,4.221,0.678,4.964,0.733c1.322,0.099,3.471,0.171,6.448,0.216c1.743,0.033,4.687,0.078,8.83,0.133
							c2.81,0.056,5.737,0.356,8.78,0.901c2.244,0.399,4.015,0.811,5.314,1.232c1.267,0.434,0.872,1.028-1.182,1.783
							c-0.501,0.189-1.361,0.706-2.581,1.549c-1.289,0.901-2.445,1.806-3.465,2.716l0.749,0.684
							c0.588,0.588,1.132,1.227,1.633,1.917c-13.351-0.156-21.798-0.311-25.341-0.467c-2.254-0.101-4.625-0.455-7.113-1.067
							c-2.522-0.71-4.215-1.187-5.082-1.433c-1.2-0.322-1.938-0.732-2.216-1.233c-0.145-0.255-0.316-1.143-0.515-2.666
							c-0.167-1.2-0.6-1.955-1.301-2.266c-0.489-0.211-1.517-0.284-3.082-0.217c-1.177,0.056-2.006-0.222-2.483-0.833
							c-0.188-0.243-0.428-0.877-0.717-1.899c-3.309-12.385-5.243-19.993-5.798-22.824c-0.378-1.921-1.156-3.933-2.333-6.03
							c-0.766-1.345-2.083-3.322-3.949-5.931c-6.552,0.388-11.879-0.006-15.977-1.182c-2.244,0.144-4.52,0.722-6.832,1.732
							c-2.276,1.166-3.87,1.926-4.782,2.282l0.217,3.016c0.2,2.388,0.444,4.542,0.732,6.464c0.311,1.964,1.211,4.608,2.699,7.929
							c0.822,1.833,1.778,3.76,2.866,5.782c0.367,0.678,1.65,2.382,3.849,5.115c2.899,3.576,4.659,5.781,5.281,6.614
							c3.622,0.667,5.865,1.067,6.731,1.2c2.266,0.356,4.838,0.667,7.714,0.933c2.844,0.255,6.37,1.066,10.579,2.432
							c3.254,1.055,5.686,1.982,7.298,2.782c0.988,0.489,1.389,0.966,1.199,1.433c-0.166,0.411-0.688,0.722-1.565,0.932
							c-0.744,0.166-1.666,0.667-2.765,1.5c-1.055,0.799-1.828,1.56-2.316,2.282c-0.377,0.566-0.628,1.517-0.749,2.848
							c-0.199,2.1-0.306,3.165-0.316,3.199c-0.167,0.888-0.45,1.377-0.85,1.466c-0.356,0.077-0.822-0.139-1.399-0.65
							c-0.478-0.433-1.144-0.816-2-1.149c-0.544-0.222-1.538-0.55-2.982-0.983c-0.944-0.277-2.533-0.433-4.765-0.466
							c-4.409-0.067-6.764-0.106-7.064-0.116c-2.044-0.089-5.575-0.122-10.596-0.101c-4.997,0.022-7.824,0.017-8.479-0.017
							c-1.189-0.056-1.861-0.255-2.016-0.599c-0.099-0.244,0.061-0.717,0.484-1.417c0.333-0.555,0.977-1.365,1.933-2.432
							c0.877-0.999,1.577-1.727,2.099-2.182c0.467-0.411,0.889-1.171,1.267-2.282c0.378-1.1,0.506-1.921,0.383-2.466
							c-0.099-0.455-0.516-0.794-1.249-1.016c-0.323-0.101-1.089-0.234-2.3-0.4c-0.732-0.099-1.26-0.421-1.582-0.966
							c-0.212-0.344-0.356-0.85-0.433-1.517c-0.101-0.821-0.206-2.099-0.316-3.831c-0.156-2.267-0.205-3.988-0.15-5.165
							c-7.031-13.962-11.056-22.247-12.079-24.857c-1.166-2.943-1.837-5.903-2.015-8.881c2.211-1.654,4.265-3.271,6.164-4.848
							c-0.877-0.711-1.905-1.304-3.082-1.782c-1.366,0-2.759-0.217-4.181-0.65c-1.266-0.377-2.955-1.067-5.064-2.066
							c-1.833-0.866-3.477-2.139-4.932-3.814c-1.066-1.221-2.299-3.027-3.699-5.414c-1.021-1.743-1.021-3.227,0-4.448
							c0.367-0.445,0.956-0.949,1.766-1.517c0.956-0.643,1.666-1.144,2.133-1.5c0.756-0.566,3.921-2.782,9.496-6.647
							c12.45-8.585,23.458-16.016,33.021-22.291c13.627-8.942,21.319-13.506,23.074-13.695c1.799-0.189,4.398-0.2,7.797-0.034
							c1.811,0.089,4.11,0.222,6.897,0.4c1.645,0.055,3.726,0.516,6.247,1.383c2.588,0.876,4.609,1.831,6.064,2.865
							c0.866-1.654,1.811-3.732,2.832-6.23c2.033-4.987,3.416-9.58,4.149-13.778c0.744-4.221,0.566-11.118-0.533-20.692
							c-0.344-2.999-0.833-6.676-1.466-11.029c-0.711-4.942-1.111-7.747-1.2-8.414c-1.122-8.464-2.044-15.539-2.765-21.225
							c-1.344-10.663-2.116-17.793-2.316-21.391c-0.233-4.221,0.057-7.836,0.867-10.846c0.766-2.81,2.21-5.825,4.332-9.047
							c1.965-2.965,4.62-5.148,7.963-6.548c2.899-1.211,6.559-1.91,10.979-2.1c3.543-0.155,6.625,0.195,9.247,1.05
							c1.244,0.411,2.898,1.205,4.964,2.382c1.156,0.655,2.654,1.788,4.498,3.398c1.578,1.377,3.038,2.772,4.383,4.181
							c1.577,0.056,3.355,0.6,5.331,1.633c0.533,0.288,1.956,1.166,4.265,2.632C221.711,20.487,224.394,21.91,226.983,23.009z"/>
						
							<path fill="none" stroke="#292929" stroke-width="1.5875" stroke-linecap="round" stroke-linejoin="round" stroke-miterlimit="3" d="
							M226.983,23.009c-2.588-1.1-5.271-2.521-8.048-4.265c-2.31-1.466-3.732-2.343-4.265-2.632
							c-1.976-1.033-3.754-1.577-5.331-1.633c-1.344-1.411-2.804-2.805-4.383-4.181c-1.844-1.611-3.342-2.743-4.498-3.398
							c-2.066-1.177-3.721-1.972-4.964-2.382c-2.623-0.855-5.704-1.205-9.247-1.05c-4.421,0.189-8.08,0.889-10.979,2.1
							c-3.343,1.399-5.998,3.582-7.963,6.548c-2.122,3.221-3.566,6.237-4.332,9.047c-0.811,3.01-1.1,6.625-0.867,10.846
							c0.2,3.598,0.973,10.729,2.316,21.391c0.723,5.688,1.645,12.762,2.765,21.225c0.089,0.667,0.489,3.471,1.2,8.414
							c0.633,4.354,1.122,8.03,1.466,11.029c1.1,9.574,1.277,16.471,0.533,20.692c-0.732,4.198-2.116,8.791-4.149,13.778
							c-1.021,2.499-1.965,4.576-2.832,6.23c-1.455-1.034-3.477-1.989-6.064-2.865c-2.521-0.867-4.604-1.328-6.247-1.383
							c-2.788-0.177-5.086-0.311-6.897-0.4c-3.398-0.166-5.998-0.156-7.797,0.034c-1.755,0.189-9.447,4.753-23.074,13.695
							c-9.563,6.275-20.571,13.704-33.021,22.291c-5.576,3.865-8.741,6.081-9.496,6.647c-0.466,0.356-1.177,0.856-2.133,1.5
							c-0.811,0.566-1.399,1.072-1.766,1.517c-1.021,1.221-1.021,2.705,0,4.448c1.4,2.388,2.633,4.193,3.699,5.414
							c1.455,1.676,3.099,2.949,4.932,3.814c2.11,0.999,3.798,1.689,5.064,2.066c1.422,0.433,2.816,0.65,4.181,0.65
							c1.177,0.477,2.205,1.071,3.082,1.782c-1.899,1.577-3.953,3.194-6.164,4.848c0.178,2.976,0.85,5.936,2.015,8.881
							c1.022,2.611,5.049,10.896,12.079,24.857c-0.055,1.177-0.005,2.898,0.15,5.165c0.11,1.732,0.217,3.01,0.316,3.831
							c0.077,0.667,0.221,1.172,0.433,1.517c0.322,0.545,0.85,0.867,1.582,0.966c1.211,0.166,1.977,0.3,2.3,0.4
							c0.732,0.222,1.149,0.561,1.249,1.016c0.123,0.545-0.005,1.366-0.383,2.466c-0.378,1.111-0.8,1.872-1.267,2.282
							c-0.522,0.456-1.221,1.183-2.099,2.182c-0.956,1.067-1.599,1.876-1.933,2.432c-0.422,0.701-0.583,1.172-0.484,1.417
							c0.156,0.344,0.828,0.544,2.016,0.599c0.655,0.033,3.482,0.039,8.479,0.017c5.021-0.022,8.552,0.012,10.596,0.101
							c0.301,0.012,2.655,0.05,7.064,0.116c2.232,0.033,3.821,0.189,4.765,0.466c1.445,0.433,2.438,0.761,2.982,0.983
							c0.856,0.333,1.522,0.716,2,1.149c0.577,0.511,1.044,0.728,1.399,0.65c0.4-0.089,0.683-0.578,0.85-1.466
							c0.011-0.034,0.116-1.1,0.316-3.199c0.122-1.332,0.373-2.282,0.749-2.848c0.489-0.723,1.26-1.483,2.316-2.282
							c1.1-0.833,2.021-1.333,2.765-1.5c0.877-0.211,1.399-0.522,1.565-0.932c0.189-0.467-0.211-0.945-1.199-1.433
							c-1.611-0.8-4.043-1.727-7.298-2.782c-4.21-1.366-7.736-2.177-10.579-2.432c-2.877-0.267-5.447-0.578-7.714-0.933
							c-0.866-0.133-3.109-0.533-6.731-1.2c-0.622-0.833-2.382-3.037-5.281-6.614c-2.199-2.733-3.482-4.437-3.849-5.115
							c-1.088-2.021-2.044-3.948-2.866-5.782c-1.488-3.321-2.388-5.965-2.699-7.929c-0.288-1.922-0.532-4.078-0.732-6.464
							l-0.217-3.016c0.91-0.356,2.504-1.117,4.782-2.282c2.31-1.011,4.587-1.589,6.832-1.732c4.099,1.176,9.424,1.571,15.977,1.182
							c1.866,2.61,3.182,4.587,3.949,5.931c1.177,2.098,1.955,4.11,2.333,6.03c0.555,2.832,2.488,10.439,5.798,22.824
							c0.288,1.021,0.528,1.654,0.716,1.899c0.477,0.611,1.305,0.889,2.483,0.833c1.565-0.066,2.593,0.006,3.082,0.217
							c0.7,0.311,1.132,1.066,1.301,2.266c0.199,1.522,0.371,2.41,0.515,2.666c0.278,0.501,1.016,0.911,2.216,1.233
							c0.866,0.244,2.56,0.723,5.082,1.433c2.488,0.612,4.859,0.966,7.113,1.067c3.544,0.156,11.99,0.311,25.341,0.467
							c-0.501-0.689-1.045-1.328-1.633-1.917l-0.749-0.684c1.021-0.91,2.177-1.816,3.465-2.716c1.22-0.844,2.082-1.36,2.581-1.549
							c2.054-0.756,2.449-1.348,1.182-1.783c-1.3-0.421-3.07-0.833-5.314-1.232c-3.043-0.545-5.97-0.845-8.78-0.901
							c-4.142-0.055-7.086-0.101-8.83-0.133c-2.976-0.044-5.127-0.116-6.448-0.216c-0.743-0.056-2.399-0.3-4.964-0.733
							c-2.188-0.377-4.043-0.566-5.565-0.566c-2.832-2.565-5.192-5.314-7.08-8.247c-2.976-4.598-4.721-9.502-5.231-14.711
							c-0.488-4.987-0.7-8.613-0.633-10.879l0.267-1.899c2.543-0.289,4.476-0.578,5.799-0.867c1.887-0.411,3.587-0.994,5.097-1.748
							c2.321-1.156,4.787-2.578,7.397-4.265c3.398-2.221,5.592-4.032,6.581-5.431c2.51-1.033,5.187-2.36,8.031-3.981
							c3.666-2.089,6.315-3.998,7.947-5.732c7.053-7.508,12.54-16.626,16.46-27.356c2.644-7.231,4.349-14.15,5.115-20.759
							c0.7-6.075,0.772-13.562,0.217-22.458c-0.456-7.364-2.01-15.838-4.665-25.423c-1.899-6.876-3.543-11.857-4.931-14.945
							c-0.812-1.844-1.549-3.988-2.216-6.432c-0.766-2.798-1.094-4.881-0.983-6.247c0.099-1.233,0.25-2.194,0.45-2.883l0.267-0.667
							c0.756-0.666,2.35-2.116,4.783-4.348c2.243-1.999,3.81-3.271,4.697-3.815c2.221-1.366,3.826-2.293,4.815-2.782
							c2.632-1.3,5.364-2.232,8.197-2.799c2.21-0.433,5.914-1.055,11.111-1.866c4.244-0.732,6.698-1.411,7.364-2.032
							c5.676-0.544,9.03-1.332,10.063-2.365c0.788-0.788,1.278-1.466,1.467-2.032c0.243-0.745-0.005-1.332-0.749-1.766
							C235.029,26.457,231.869,25.041,226.983,23.009z"/>
						<g>
							<path fill="#FFFFFF" d="M163.407,134.766c-0.555,0.777-1.378,1.772-2.466,2.981c-1.077,1.189-1.749,1.862-2.015,2.016
								L163.407,134.766z"/>
							
								<path fill="none" stroke="#292929" stroke-width="1.5875" stroke-linecap="round" stroke-linejoin="round" stroke-miterlimit="3" d="
								M163.407,134.766c-0.555,0.777-1.378,1.772-2.466,2.981c-1.077,1.189-1.749,1.862-2.015,2.016"/>
						</g>
					</g>
					<path fill="#373535" d="M226.983,23.009c4.886,2.032,8.047,3.448,9.48,4.248c0.744,0.434,0.993,1.021,0.749,1.766
						c-0.188,0.566-0.678,1.244-1.467,2.032c-1.033,1.033-4.387,1.822-10.063,2.365c-0.666,0.622-3.12,1.3-7.364,2.032
						c-5.197,0.812-8.902,1.433-11.111,1.866c-2.833,0.566-5.565,1.5-8.197,2.799c-0.99,0.489-2.594,1.416-4.815,2.782
						c-0.888,0.544-2.454,1.816-4.697,3.815c-2.433,2.232-4.027,3.682-4.783,4.348l-0.267,0.667c-0.199,0.689-0.35,1.65-0.45,2.883
						c-0.111,1.366,0.217,3.449,0.983,6.247c0.667,2.444,1.404,4.587,2.216,6.432c1.389,3.087,3.032,8.069,4.931,14.945
						c2.655,9.585,4.21,18.059,4.665,25.423c0.255,4.255,0.383,8.036,0.383,11.345c-0.012,3.598-0.178,6.964-0.501,10.097
						c-1.289,1.011-2.776,1.683-4.465,2.016c-0.999,0.189-2.61,0.306-4.831,0.35c-1.455,0.022-3.354-0.566-5.698-1.766
						c-1.199-0.611-2.832-1.583-4.898-2.916c-1.621-1.033-4.11-3.465-7.464-7.297c0.445-1.655,0.8-3.232,1.067-4.732
						c0.744-4.221,0.566-11.118-0.533-20.692c-0.344-2.999-0.833-6.676-1.466-11.029c-0.711-4.942-1.111-7.747-1.2-8.414
						c-1.122-8.464-2.044-15.539-2.765-21.225c-1.344-10.663-2.116-17.793-2.316-21.391c-0.233-4.221,0.057-7.836,0.867-10.846
						c0.766-2.81,2.21-5.825,4.332-9.047c1.965-2.965,4.62-5.148,7.963-6.548c2.899-1.211,6.559-1.91,10.979-2.1
						c3.543-0.155,6.625,0.195,9.247,1.05c1.244,0.411,2.898,1.205,4.964,2.382c1.156,0.655,2.654,1.788,4.498,3.398
						c1.578,1.377,3.038,2.772,4.383,4.181c1.577,0.056,3.355,0.6,5.331,1.633c0.533,0.288,1.956,1.166,4.265,2.632
						C221.711,20.487,224.394,21.91,226.983,23.009z"/>
					
						<path fill="none" stroke="#292929" stroke-width="1.5875" stroke-linecap="round" stroke-linejoin="round" stroke-miterlimit="3" d="
						M226.983,23.009c-2.588-1.1-5.271-2.521-8.048-4.265c-2.31-1.466-3.732-2.343-4.265-2.632
						c-1.976-1.033-3.754-1.577-5.331-1.633c-1.344-1.411-2.804-2.805-4.383-4.181c-1.844-1.611-3.342-2.743-4.498-3.398
						c-2.066-1.177-3.721-1.972-4.964-2.382c-2.623-0.855-5.704-1.205-9.247-1.05c-4.421,0.189-8.08,0.889-10.979,2.1
						c-3.343,1.399-5.998,3.582-7.963,6.548c-2.122,3.221-3.566,6.237-4.332,9.047c-0.811,3.01-1.1,6.625-0.867,10.846
						c0.2,3.598,0.973,10.729,2.316,21.391c0.723,5.688,1.645,12.762,2.765,21.225c0.089,0.667,0.489,3.471,1.2,8.414
						c0.633,4.354,1.122,8.03,1.466,11.029c1.1,9.574,1.277,16.471,0.533,20.692c-0.267,1.5-0.622,3.077-1.067,4.732
						c3.355,3.832,5.843,6.264,7.464,7.297c2.066,1.332,3.699,2.305,4.898,2.916c2.344,1.2,4.243,1.789,5.698,1.766
						c2.223-0.044,3.832-0.161,4.831-0.35c1.689-0.333,3.176-1.005,4.465-2.016c0.323-3.132,0.489-6.498,0.501-10.097
						c0-3.309-0.128-7.092-0.383-11.345c-0.456-7.364-2.01-15.838-4.665-25.423c-1.899-6.876-3.543-11.857-4.931-14.945
						c-0.812-1.844-1.549-3.988-2.216-6.432c-0.766-2.798-1.094-4.881-0.983-6.247c0.099-1.233,0.25-2.194,0.45-2.883l0.267-0.667
						c0.756-0.666,2.35-2.116,4.783-4.348c2.243-1.999,3.81-3.271,4.697-3.815c2.221-1.366,3.826-2.293,4.815-2.782
						c2.632-1.3,5.364-2.232,8.197-2.799c2.21-0.433,5.914-1.055,11.111-1.866c4.244-0.732,6.698-1.411,7.364-2.032
						c5.676-0.544,9.03-1.332,10.063-2.365c0.788-0.788,1.278-1.466,1.467-2.032c0.243-0.745-0.005-1.332-0.749-1.766
						C235.029,26.457,231.869,25.041,226.983,23.009z"/>
					
						<path fill="none" stroke="#292929" stroke-width="1.5875" stroke-linecap="round" stroke-linejoin="round" stroke-miterlimit="3" d="
						M226.983,23.009c-2.588-1.1-5.271-2.521-8.048-4.265c-2.31-1.466-3.732-2.343-4.265-2.632
						c-1.976-1.033-3.754-1.577-5.331-1.633c-1.344-1.411-2.804-2.805-4.383-4.181c-1.844-1.611-3.342-2.743-4.498-3.398
						c-2.066-1.177-3.721-1.972-4.964-2.382c-2.623-0.855-5.704-1.205-9.247-1.05c-4.421,0.189-8.08,0.889-10.979,2.1
						c-3.343,1.399-5.998,3.582-7.963,6.548c-2.122,3.221-3.566,6.237-4.332,9.047c-0.811,3.01-1.1,6.625-0.867,10.846
						c0.2,3.598,0.973,10.729,2.316,21.391c0.723,5.688,1.645,12.762,2.765,21.225c0.089,0.667,0.489,3.471,1.2,8.414
						c0.633,4.354,1.122,8.03,1.466,11.029c1.1,9.574,1.277,16.471,0.533,20.692c-0.732,4.198-2.116,8.791-4.149,13.778
						c-1.021,2.499-1.965,4.576-2.832,6.23c-1.455-1.034-3.477-1.989-6.064-2.865c-2.521-0.867-4.604-1.328-6.247-1.383
						c-2.788-0.177-5.086-0.311-6.897-0.4c-3.398-0.166-5.998-0.156-7.797,0.034c-1.755,0.189-9.447,4.753-23.074,13.695
						c-9.563,6.275-20.571,13.704-33.021,22.291c-5.576,3.865-8.741,6.081-9.496,6.647c-0.466,0.356-1.177,0.856-2.133,1.5
						c-0.811,0.566-1.399,1.072-1.766,1.517c-1.021,1.221-1.021,2.705,0,4.448c1.4,2.388,2.633,4.193,3.699,5.414
						c1.455,1.676,3.099,2.949,4.932,3.814c2.11,0.999,3.798,1.689,5.064,2.066c1.422,0.433,2.816,0.65,4.181,0.65
						c1.177,0.477,2.205,1.071,3.082,1.782c-1.899,1.577-3.953,3.194-6.164,4.848c0.178,2.976,0.85,5.936,2.015,8.881
						c1.022,2.611,5.049,10.896,12.079,24.857c-0.055,1.177-0.005,2.898,0.15,5.165c0.11,1.732,0.217,3.01,0.316,3.831
						c0.077,0.667,0.221,1.172,0.433,1.517c0.322,0.545,0.85,0.867,1.582,0.966c1.211,0.166,1.977,0.3,2.3,0.4
						c0.732,0.222,1.149,0.561,1.249,1.016c0.123,0.545-0.005,1.366-0.383,2.466c-0.378,1.111-0.8,1.872-1.267,2.282
						c-0.522,0.456-1.221,1.183-2.099,2.182c-0.956,1.067-1.599,1.876-1.933,2.432c-0.422,0.701-0.583,1.172-0.484,1.417
						c0.156,0.344,0.828,0.544,2.016,0.599c0.655,0.033,3.482,0.039,8.479,0.017c5.021-0.022,8.552,0.012,10.596,0.101
						c0.301,0.012,2.655,0.05,7.064,0.116c2.232,0.033,3.821,0.189,4.765,0.466c1.445,0.433,2.438,0.761,2.982,0.983
						c0.856,0.333,1.522,0.716,2,1.149c0.577,0.511,1.044,0.728,1.399,0.65c0.4-0.089,0.683-0.578,0.85-1.466
						c0.011-0.034,0.116-1.1,0.316-3.199c0.122-1.332,0.373-2.282,0.749-2.848c0.489-0.723,1.26-1.483,2.316-2.282
						c1.1-0.833,2.021-1.333,2.765-1.5c0.877-0.211,1.399-0.522,1.565-0.932c0.189-0.467-0.211-0.945-1.199-1.433
						c-1.611-0.8-4.043-1.727-7.298-2.782c-4.21-1.366-7.736-2.177-10.579-2.432c-2.877-0.267-5.447-0.578-7.714-0.933
						c-0.866-0.133-3.109-0.533-6.731-1.2c-0.622-0.833-2.382-3.037-5.281-6.614c-2.199-2.733-3.482-4.437-3.849-5.115
						c-1.088-2.021-2.044-3.948-2.866-5.782c-1.488-3.321-2.388-5.965-2.699-7.929c-0.288-1.922-0.532-4.078-0.732-6.464
						l-0.217-3.016c0.91-0.356,2.504-1.117,4.782-2.282c2.31-1.011,4.587-1.589,6.832-1.732c4.099,1.176,9.424,1.571,15.977,1.182
						c1.866,2.61,3.182,4.587,3.949,5.931c1.177,2.098,1.955,4.11,2.333,6.03c0.555,2.832,2.488,10.439,5.798,22.824
						c0.288,1.021,0.528,1.654,0.716,1.899c0.477,0.611,1.305,0.889,2.483,0.833c1.565-0.066,2.593,0.006,3.082,0.217
						c0.7,0.311,1.132,1.066,1.301,2.266c0.199,1.522,0.371,2.41,0.515,2.666c0.278,0.501,1.016,0.911,2.216,1.233
						c0.866,0.244,2.56,0.723,5.082,1.433c2.488,0.612,4.859,0.966,7.113,1.067c3.544,0.156,11.99,0.311,25.341,0.467
						c-0.501-0.689-1.045-1.328-1.633-1.917l-0.749-0.684c1.021-0.91,2.177-1.816,3.465-2.716c1.22-0.844,2.082-1.36,2.581-1.549
						c2.054-0.756,2.449-1.348,1.182-1.783c-1.3-0.421-3.07-0.833-5.314-1.232c-3.043-0.545-5.97-0.845-8.78-0.901
						c-4.142-0.055-7.086-0.101-8.83-0.133c-2.976-0.044-5.127-0.116-6.448-0.216c-0.743-0.056-2.399-0.3-4.964-0.733
						c-2.188-0.377-4.043-0.566-5.565-0.566c-2.832-2.565-5.192-5.314-7.08-8.247c-2.976-4.598-4.721-9.502-5.231-14.711
						c-0.488-4.987-0.7-8.613-0.633-10.879l0.267-1.899c2.543-0.289,4.476-0.578,5.799-0.867c1.887-0.411,3.587-0.994,5.097-1.748
						c2.321-1.156,4.787-2.578,7.397-4.265c3.398-2.221,5.592-4.032,6.581-5.431c2.51-1.033,5.187-2.36,8.031-3.981
						c3.666-2.089,6.315-3.998,7.947-5.732c7.053-7.508,12.54-16.626,16.46-27.356c2.644-7.231,4.349-14.15,5.115-20.759
						c0.7-6.075,0.772-13.562,0.217-22.458c-0.456-7.364-2.01-15.838-4.665-25.423c-1.899-6.876-3.543-11.857-4.931-14.945
						c-0.812-1.844-1.549-3.988-2.216-6.432c-0.766-2.798-1.094-4.881-0.983-6.247c0.099-1.233,0.25-2.194,0.45-2.883l0.267-0.667
						c0.756-0.666,2.35-2.116,4.783-4.348c2.243-1.999,3.81-3.271,4.697-3.815c2.221-1.366,3.826-2.293,4.815-2.782
						c2.632-1.3,5.364-2.232,8.197-2.799c2.21-0.433,5.914-1.055,11.111-1.866c4.244-0.732,6.698-1.411,7.364-2.032
						c5.676-0.544,9.03-1.332,10.063-2.365c0.788-0.788,1.278-1.466,1.467-2.032c0.243-0.745-0.005-1.332-0.749-1.766
						C235.029,26.457,231.869,25.041,226.983,23.009z"/>
					<path fill="#FFFFFF" d="M226.983,23.009c4.886,2.032,8.047,3.448,9.48,4.248c0.744,0.434,0.993,1.021,0.749,1.766
						c-0.188,0.566-0.678,1.244-1.467,2.032c-1.033,1.033-4.387,1.822-10.063,2.365c-0.633,0.578-2.755,1.199-6.364,1.866
						c-4.565,0.733-7.936,1.288-10.113,1.666c-0.388-0.8-1.694-2.188-3.915-4.166c-2.454-2.121-4.027-3.509-4.715-4.166
						c-0.877-0.843-1.083-1.81-0.616-2.899c0.311-0.711,0.816-1.344,1.516-1.9c0.422-0.322,1.65-1.688,3.682-4.098
						c2.066-2.454,3.46-4.205,4.181-5.248c1.577,0.056,3.355,0.6,5.331,1.633c0.533,0.288,1.956,1.166,4.265,2.632
						C221.711,20.487,224.394,21.91,226.983,23.009z"/>
					
						<path fill="none" stroke="#292929" stroke-width="1.5875" stroke-linecap="round" stroke-linejoin="round" stroke-miterlimit="3" d="
						M226.983,23.009c-2.588-1.1-5.271-2.521-8.048-4.265c-2.31-1.466-3.732-2.343-4.265-2.632
						c-1.976-1.033-3.754-1.577-5.331-1.633c-0.723,1.044-2.116,2.794-4.182,5.248c-2.033,2.41-3.26,3.776-3.682,4.098
						c-0.699,0.556-1.204,1.189-1.516,1.9c-0.467,1.088-0.261,2.054,0.616,2.899c0.688,0.655,2.261,2.044,4.715,4.166
						c2.221,1.977,3.526,3.366,3.915,4.166c2.177-0.378,5.548-0.932,10.113-1.666c3.609-0.667,5.731-1.288,6.364-1.866
						c5.676-0.544,9.03-1.332,10.063-2.365c0.788-0.788,1.278-1.466,1.467-2.032c0.243-0.745-0.005-1.332-0.749-1.766
						C235.029,26.457,231.869,25.041,226.983,23.009z"/>
					
						<path fill="none" stroke="#292929" stroke-width="1.5875" stroke-linecap="round" stroke-linejoin="round" stroke-miterlimit="3" d="
						M203.075,27.391c1.221,0.855,2.71,1.716,4.465,2.582c2.232,1.1,4.116,1.777,5.648,2.032c1.288,0.212,3.298,0.595,6.03,1.149
						c2.466,0.411,4.62,0.5,6.463,0.267"/>
					
						<path fill="none" stroke="#292929" stroke-width="1.5875" stroke-linecap="round" stroke-linejoin="round" stroke-miterlimit="3" d="
						M218.968,25.424c0.711,0.267,1.766,0.633,3.165,1.1c1.067,0.378,1.638,0.694,1.716,0.949c0.089,0.289-0.038,0.439-0.382,0.45
						c-0.311,0.011-0.689-0.077-1.133-0.267"/>
					<path fill="#FFFFFF" d="M205.291,37.77c-2.377,0.611-4.682,1.5-6.914,2.666c-0.755,0.388-2.148,1.211-4.182,2.466
						c-0.888,0.544-2.454,1.816-4.697,3.815c-2.433,2.232-4.027,3.682-4.783,4.348c-1.488-1.077-3.188-2.726-5.097-4.948
						c-1.9-2.21-3.228-4.076-3.983-5.598c-0.643-1.288-1.284-3.237-1.917-5.847c-0.655-2.988-1.117-5.093-1.383-6.314
						c-0.288-1.322-0.732-2.899-1.333-4.731c-0.577-1.8-0.932-3.005-1.066-3.615c-0.211-1.055-0.05-2.006,0.483-2.849
						c0.533-0.833,1.294-1.361,2.283-1.582c0.944-0.222,2.276-0.289,3.998-0.2c1.632,0.089,2.959,0.272,3.981,0.549
						c0.856,0.234,1.778,0.773,2.765,1.616c0.377,0.311,1.144,1.044,2.299,2.199c0.433,0.433,1.572,1.477,3.416,3.132
						c1.965,1.777,3.343,3.043,4.132,3.798c0.344,0.333,2.332,2.138,5.965,5.414C202.347,34.877,204.358,36.77,205.291,37.77z"/>
					
						<path fill="none" stroke="#292929" stroke-width="1.5875" stroke-linecap="round" stroke-linejoin="round" stroke-miterlimit="3" d="
						M205.291,37.77c-0.933-1-2.943-2.893-6.03-5.681c-3.633-3.277-5.621-5.081-5.965-5.414c-0.788-0.755-2.166-2.021-4.132-3.798
						c-1.844-1.655-2.982-2.699-3.416-3.132c-1.155-1.156-1.921-1.888-2.299-2.199c-0.988-0.843-1.91-1.383-2.765-1.616
						c-1.022-0.277-2.35-0.46-3.981-0.549c-1.722-0.089-3.055-0.022-3.998,0.2c-0.99,0.221-1.749,0.749-2.283,1.582
						c-0.532,0.843-0.693,1.794-0.483,2.849c0.133,0.611,0.489,1.815,1.066,3.615c0.6,1.832,1.045,3.409,1.333,4.731
						c0.267,1.221,0.728,3.327,1.383,6.314c0.633,2.61,1.272,4.559,1.917,5.847c0.755,1.522,2.083,3.388,3.983,5.598
						c1.91,2.221,3.609,3.871,5.097,4.948c0.756-0.666,2.35-2.116,4.783-4.348c2.243-1.999,3.81-3.271,4.697-3.815
						c2.033-1.255,3.427-2.076,4.182-2.466C200.609,39.269,202.914,38.381,205.291,37.77z"/>
					<path fill="#FFFFFF" d="M195.728,14.112c0,1.233-0.438,2.288-1.316,3.165c-0.867,0.877-1.921,1.317-3.165,1.317
						s-2.3-0.439-3.165-1.317c-0.877-0.877-1.316-1.933-1.316-3.165c0-1.244,0.438-2.305,1.316-3.182
						c0.866-0.877,1.921-1.317,3.165-1.317s2.299,0.439,3.165,1.317C195.289,11.808,195.728,12.868,195.728,14.112z"/>
					<path fill="none" stroke="#292929" stroke-width="1.5875" d="M195.728,14.112c0,1.233-0.438,2.288-1.316,3.165
						c-0.867,0.877-1.921,1.317-3.165,1.317s-2.3-0.439-3.165-1.317c-0.877-0.877-1.316-1.933-1.316-3.165
						c0-1.244,0.438-2.305,1.316-3.182c0.866-0.877,1.921-1.317,3.165-1.317s2.299,0.439,3.165,1.317
						C195.289,11.808,195.728,12.868,195.728,14.112z"/>
					<path fill="#292929" d="M195.012,15.162c0,0.944-0.332,1.755-0.999,2.432c-0.667,0.666-1.472,1-2.416,1
						c-0.944,0-1.748-0.333-2.415-1c-0.667-0.677-0.999-1.489-0.999-2.432c0-0.944,0.332-1.749,0.999-2.416s1.472-0.999,2.415-0.999
						c0.945,0,1.749,0.332,2.416,0.999S195.012,14.218,195.012,15.162z"/>
					<path fill="#FFFFFF" d="M191.646,12.646c0,0.244-0.089,0.45-0.267,0.617c-0.178,0.178-0.388,0.267-0.634,0.267
						c-0.243,0-0.45-0.089-0.616-0.267c-0.178-0.167-0.267-0.373-0.267-0.617c0-0.244,0.089-0.455,0.267-0.633
						c0.166-0.178,0.373-0.267,0.616-0.267c0.256,0,0.467,0.089,0.634,0.267C191.557,12.191,191.646,12.402,191.646,12.646z"/>
					
						<path fill="none" stroke="#292929" stroke-width="1.5875" stroke-linecap="round" stroke-linejoin="round" stroke-miterlimit="3" d="
						M185.666,9.614c1.522,0.323,3.381,0.323,5.581,0"/>
					<path fill="#FFFFFF" d="M80.306,166.136c3.077,0.101,4.915,1.455,5.514,4.066c0.222,0.988,0.233,2.044,0.034,3.164
						c-0.189,1-0.489,1.799-0.901,2.4c-1.199,0.722-2.405,1.798-3.615,3.232c-1.532,1.821-2.338,3.499-2.415,5.031
						c-0.089,1.61,0.477,3.182,1.699,4.715c1.033,1.31,2.421,2.46,4.166,3.449c-1.366,0-2.759-0.217-4.181-0.65
						c-1.266-0.377-2.955-1.067-5.064-2.066c-0.822-0.388-1.988-0.744-3.499-1.067c-1.766-0.322-3.087-0.577-3.965-0.766
						c-3.222-0.711-5.299-1.855-6.231-3.432c-0.999-1.71-0.155-3.853,2.533-6.43c0.9-0.855,2.066-1.816,3.499-2.882
						c1.489-1.055,2.466-1.761,2.933-2.117C71.565,172.218,74.73,170.002,80.306,166.136z"/>
					
						<path fill="none" stroke="#292929" stroke-width="1.5875" stroke-linecap="round" stroke-linejoin="round" stroke-miterlimit="3" d="
						M80.306,166.136c-5.576,3.865-8.741,6.081-9.496,6.647c-0.466,0.356-1.444,1.062-2.933,2.117
						c-1.433,1.066-2.599,2.027-3.499,2.882c-2.688,2.578-3.532,4.72-2.533,6.43c0.932,1.577,3.01,2.721,6.231,3.432
						c0.877,0.189,2.198,0.445,3.965,0.766c1.511,0.323,2.677,0.678,3.499,1.067c2.11,0.999,3.798,1.689,5.064,2.066
						c1.422,0.433,2.816,0.65,4.181,0.65c-1.743-0.99-3.132-2.139-4.166-3.449c-1.221-1.532-1.788-3.105-1.699-4.715
						c0.077-1.532,0.883-3.21,2.415-5.031c1.211-1.433,2.416-2.51,3.615-3.232c0.412-0.6,0.711-1.399,0.901-2.4
						c0.199-1.122,0.188-2.177-0.034-3.164C85.221,167.591,83.383,166.236,80.306,166.136z"/>
					<path fill="#FFFFFF" d="M134.152,200.258l-0.267,1.899c-0.067,2.267,0.145,5.892,0.633,10.879
						c0.51,5.21,2.255,10.113,5.231,14.711c1.888,2.933,4.249,5.681,7.08,8.247c1.522,0,3.376,0.189,5.565,0.566
						c2.565,0.434,4.221,0.678,4.964,0.733c1.322,0.099,3.471,0.171,6.448,0.216c1.743,0.033,4.687,0.078,8.83,0.133
						c2.81,0.056,5.737,0.356,8.78,0.901c2.244,0.399,4.015,0.811,5.314,1.232c1.267,0.434,0.872,1.028-1.182,1.783
						c-0.501,0.189-1.361,0.706-2.581,1.549c-1.289,0.901-2.445,1.806-3.465,2.716l0.749,0.684c0.588,0.588,1.132,1.227,1.633,1.917
						c-13.351-0.156-21.798-0.311-25.341-0.467c-2.254-0.101-4.625-0.455-7.113-1.067c-2.522-0.71-4.215-1.187-5.082-1.433
						c-1.2-0.322-1.938-0.732-2.216-1.233c-0.145-0.255-0.316-1.143-0.515-2.666c-0.167-1.2-0.6-1.955-1.301-2.266
						c-0.489-0.211-1.517-0.284-3.082-0.217c-1.177,0.056-2.006-0.222-2.483-0.833c-0.188-0.243-0.428-0.877-0.717-1.899
						c-3.309-12.385-5.243-19.993-5.798-22.824c-0.378-1.921-1.156-3.933-2.333-6.03c-0.766-1.345-2.083-3.322-3.949-5.931
						C127.199,201.235,131.264,200.801,134.152,200.258z"/>
					
						<path fill="none" stroke="#292929" stroke-width="1.5875" stroke-linecap="round" stroke-linejoin="round" stroke-miterlimit="3" d="
						M134.152,200.258c-2.888,0.544-6.953,0.977-12.195,1.3c1.866,2.61,3.182,4.587,3.949,5.931c1.177,2.098,1.955,4.11,2.333,6.03
						c0.555,2.832,2.488,10.439,5.798,22.824c0.288,1.021,0.528,1.654,0.716,1.899c0.477,0.611,1.305,0.889,2.483,0.833
						c1.565-0.066,2.593,0.006,3.082,0.217c0.7,0.311,1.132,1.066,1.301,2.266c0.199,1.522,0.371,2.41,0.515,2.666
						c0.278,0.501,1.016,0.911,2.216,1.233c0.866,0.244,2.56,0.723,5.082,1.433c2.488,0.612,4.859,0.966,7.113,1.067
						c3.544,0.156,11.99,0.311,25.341,0.467c-0.501-0.689-1.045-1.328-1.633-1.917l-0.749-0.684c1.021-0.91,2.177-1.816,3.465-2.716
						c1.22-0.843,2.082-1.36,2.581-1.549c2.054-0.756,2.449-1.348,1.182-1.783c-1.3-0.421-3.07-0.833-5.314-1.232
						c-3.043-0.545-5.97-0.845-8.78-0.901c-4.142-0.055-7.086-0.101-8.83-0.133c-2.976-0.044-5.127-0.116-6.448-0.216
						c-0.743-0.056-2.399-0.3-4.964-0.733c-2.188-0.377-4.043-0.566-5.565-0.566c-2.832-2.565-5.192-5.314-7.08-8.247
						c-2.976-4.598-4.721-9.502-5.231-14.711c-0.488-4.987-0.7-8.613-0.633-10.879L134.152,200.258z"/>
					<path fill="#FFFFFF" d="M118.358,128.185c4.742,0.133,10.285,0.749,16.626,1.849c4.51,0.79,9.103,2.849,13.779,6.182
						c1.799,1.276,3.393,2.598,4.782,3.965c1.266,1.233,2.105,2.232,2.516,2.998c0.711,1.322,1.139,3.194,1.283,5.616
						c0.123,2.133,0.012,3.971-0.332,5.515c-0.278,1.276-1.389,3.01-3.332,5.197c-1.644,1.844-4.004,4.137-7.08,6.88
						c-2.42,2.177-5.82,4.221-10.196,6.131c-2.444,1.067-5.875,2.338-10.297,3.815c-2.421,0.811-6.187,1.344-11.296,1.599
						c-2.355,0.122-5.614,0.184-9.779,0.184c-2.044,0-4.277-0.123-6.697-0.367c-2.755-0.267-4.903-0.622-6.447-1.067
						c-2.832,0.156-5.214-0.094-7.147-0.749c-0.488-0.166-1.654-0.744-3.499-1.734c-0.766,0.556-1.772,0.894-3.015,1.017
						c-0.323,0.033-1.332,0.05-3.032,0.05c-0.877,0-1.904-0.377-3.082-1.132c-1.177-0.756-2.121-1.638-2.832-2.649
						c-0.556,0.155-1.256,0.316-2.1,0.483c-1.699,0.344-3.287,0.54-4.765,0.583c-1.611,0.056-2.827-0.471-3.649-1.582
						c-0.655-0.889-0.983-1.982-0.983-3.283c-2.133,0.367-4.004,0.285-5.614-0.249c-1.288-0.422-1.983-0.889-2.083-1.399
						c-0.067-0.378,0.3-0.894,1.1-1.549c0.866-0.711,2.004-1.378,3.415-2c-1.611,0.556-3.182,0.616-4.715,0.184
						c-1.366-0.378-2.283-0.994-2.749-1.85c-0.389-0.711-0.244-1.71,0.433-2.998c0.611-1.144,1.449-2.199,2.516-3.165
						c6.408-5.754,14.661-10.99,24.758-15.711c8.385-3.932,16.515-6.863,24.39-8.797
						C105.307,128.662,111.682,128.007,118.358,128.185z"/>
					
						<path fill="none" stroke="#292929" stroke-width="1.5875" stroke-linecap="round" stroke-linejoin="round" stroke-miterlimit="3" d="
						M118.358,128.185c-6.675-0.178-13.05,0.477-19.126,1.965c-7.875,1.933-16.005,4.865-24.39,8.797
						c-10.097,4.721-18.348,9.957-24.758,15.711c-1.067,0.966-1.905,2.021-2.516,3.165c-0.678,1.288-0.822,2.287-0.433,2.998
						c0.466,0.856,1.382,1.472,2.749,1.85c1.532,0.432,3.104,0.373,4.715-0.184c-1.411,0.622-2.55,1.289-3.415,2
						c-0.8,0.655-1.166,1.171-1.1,1.549c0.099,0.51,0.794,0.977,2.083,1.399c1.61,0.533,3.482,0.616,5.614,0.249
						c0,1.301,0.328,2.394,0.983,3.283c0.822,1.111,2.038,1.638,3.649,1.582c1.477-0.043,3.065-0.239,4.765-0.583
						c0.843-0.166,1.544-0.328,2.1-0.483c0.71,1.011,1.654,1.893,2.832,2.649c1.178,0.756,2.205,1.132,3.082,1.132
						c1.7,0,2.71-0.017,3.032-0.05c1.244-0.123,2.249-0.461,3.015-1.017c1.844,0.99,3.01,1.566,3.499,1.734
						c1.933,0.655,4.315,0.905,7.147,0.749c1.544,0.445,3.694,0.8,6.447,1.067c2.421,0.243,4.654,0.367,6.697,0.367
						c4.166,0,7.425-0.062,9.779-0.184c5.11-0.255,8.874-0.788,11.296-1.599c4.421-1.477,7.853-2.75,10.297-3.815
						c4.376-1.91,7.776-3.954,10.196-6.131c3.077-2.743,5.438-5.037,7.08-6.88c1.944-2.188,3.054-3.921,3.332-5.197
						c0.344-1.544,0.456-3.382,0.332-5.515c-0.144-2.421-0.571-4.294-1.283-5.616c-0.411-0.766-1.25-1.765-2.516-2.998
						c-1.389-1.366-2.981-2.688-4.782-3.965c-4.676-3.332-9.269-5.392-13.778-6.182
						C128.642,128.934,123.101,128.318,118.358,128.185z"/>
					
						<path fill="none" stroke="#292929" stroke-width="1.5875" stroke-linecap="round" stroke-linejoin="round" stroke-miterlimit="3" d="
						M54.599,162.488c2.888-1.322,5.097-2.355,6.63-3.099c2.666-1.289,4.676-2.35,6.03-3.182c1.111-0.688,3.343-2.182,6.698-4.481
						c3.454-2.365,5.564-3.793,6.331-4.282"/>
					
						<path fill="none" stroke="#292929" stroke-width="1.5875" stroke-linecap="round" stroke-linejoin="round" stroke-miterlimit="3" d="
						M57.781,167.685c1.91-0.532,4.104-1.271,6.581-2.215c2.488-0.956,4.32-1.755,5.498-2.399c2.188-1.045,4.343-2.161,6.464-3.349
						c4.043-2.278,8.363-5.149,12.961-8.615"/>
					
						<path fill="none" stroke="#292929" stroke-width="1.5875" stroke-linecap="round" stroke-linejoin="round" stroke-miterlimit="3" d="
						M69.277,171.485c2.466-1.044,4.765-2.088,6.897-3.133c2.432-1.211,4.316-2.261,5.647-3.149
						c2.288-1.532,5.287-3.582,8.997-6.148c4.676-3.222,7.319-5.121,7.93-5.698"/>
					
						<path fill="none" stroke="#292929" stroke-width="1.5875" stroke-linecap="round" stroke-linejoin="round" stroke-miterlimit="3" d="
						M81.238,174.2c1.534-0.855,3.227-1.965,5.081-3.332c1.732-1.288,3.309-2.581,4.732-3.882c1.211-1.11,3.371-2.926,6.481-5.446
						c2.688-2.189,4.515-3.649,5.481-4.383"/>
					
						<path fill="none" stroke="#292929" stroke-width="1.5875" stroke-linecap="round" stroke-linejoin="round" stroke-miterlimit="3" d="
						M91.884,176.682c1.866-0.978,3.194-1.688,3.981-2.133c1.511-0.877,2.632-1.627,3.366-2.249
						c1.255-1.078,2.971-2.705,5.148-4.882c2.654-2.643,4.137-4.331,4.448-5.064"/>
					
						<path fill="none" stroke="#292929" stroke-width="1.5875" stroke-linecap="round" stroke-linejoin="round" stroke-miterlimit="3" d="
						M81.705,198.824c5.664,0.034,9.285,0.106,10.863,0.217c4.643,0.332,7.519,1.093,8.63,2.282"/>
					<g>
						<path fill="#FFFFFF" d="M121.956,248.539c0.988,0.466,2.31,1.288,3.966,2.465c1.632,1.156,2.721,2.033,3.265,2.632
							L121.956,248.539z"/>
						
							<path fill="none" stroke="#292929" stroke-width="1.5875" stroke-linecap="round" stroke-linejoin="round" stroke-miterlimit="3" d="
							M121.956,248.539c0.988,0.466,2.31,1.288,3.966,2.465c1.632,1.156,2.721,2.033,3.265,2.632"/>
					</g>
				</g>
			</g>
		</g>
	</g>
</g>
</svg>
