<?xml version="1.0" encoding="utf-8"?>
<!-- Generator: Adobe Illustrator 17.0.1, SVG Export Plug-In . SVG Version: 6.00 Build 0)  -->
<!DOCTYPE svg PUBLIC "-//W3C//DTD SVG 1.1//EN" "http://www.w3.org/Graphics/SVG/1.1/DTD/svg11.dtd">
<svg version="1.1" id="Layer_1" xmlns="http://www.w3.org/2000/svg" xmlns:xlink="http://www.w3.org/1999/xlink" x="0px" y="0px"
	 width="257.711px" height="210.963px" viewBox="2.003 26 257.711 210.963" enable-background="new 2.003 26 257.711 210.963"
	 xml:space="preserve">
<g id="Layer_3">
	<path fill="#FFFFFF" d="M253.933,163.414c-3.756-0.121-4.336-5.057-6.329-7.381c-3.071-3.583-6.973-6.162-10.482-9.273
		c-6.15-5.454-10.776-13.713-18.875-16.567c-4.935-2.856-12.224,1.193-18.082,2.679c-1.541-0.016-3.065,0.172-4.692,0.61
		c-0.865,0.232-1.45,0.722-1.793,1.321c-0.714,0.382-1.408,0.81-2.104,1.175c-0.633-0.699-1.305-1.345-2.06-1.944
		c1.214-2.456,0.37-5.991-2.541-6.946c0.175,0.017,0.346,0.036,0.531,0.036c5.667,0,6.17-7.957,1.545-9.424
		c0.673-0.993,1.015-2.205,0.986-3.423c1.224,0.734,2.419,1.496,3.58,2.214c2.932,1.812,7.96,4.57,8.9,8.149
		c1.663,6.331,10.068,4.353,10.692-1.447c0.64-5.965,2.804-11.691,1.787-17.755c-0.838-4.998-1.235-11.493-3.753-15.993
		c-4.936-8.828-14.82-11.676-24.277-9.301c-0.993,0.25-1.774,0.689-2.372,1.248c-0.289-0.252-0.619-0.487-0.993-0.7
		c-5.242-2.973-10.624-3.574-16.366-1.679c-2.733,0.902-4.938,2.599-7.165,4.345c-1.265,0.991-2.176,3.693-3.081,3.08
		c-2.147-1.452-4.788-0.647-6.596,0.852c-3.173,2.626-4.477,5.532-4.664,8.743c-4.716-0.49-9.494-0.058-10.699,5.761
		c-0.725,3.493-0.013,6.066,2.056,8.631c-1.175,0.108-2.37,0.358-3.603,0.852c-2.858,1.142-5.32,3.046-7.422,5.302
		c-3.902,0.225-5.465,3.909-4.694,6.936c-0.129,0.523-0.171,1.033-0.135,1.525c-6.275,2.194-12.908,3-19.24,5.004
		c-1.56,0.494-2.595,1.449-3.185,2.595c-4.208,1.028-7.844,2.395-11.311,4.841c-1.8-1.332-3.803-2.275-5.81-3.215
		c-0.435-0.42-0.928-0.804-1.493-1.141c-1.65-0.982-3.319-1.777-5.118-2.388c-3.101-1.902-5.845-4.61-8.654-6.757
		c-3.876-2.962-8.393-5.007-12.596-7.443c-1.696-0.983-3.613-2.026-5.562-3.144c-0.738-1.697-2.018-3.13-3.826-3.953
		c-0.596-0.749-1.345-1.38-2.226-1.866c-0.585-0.801-1.321-1.495-2.215-2.024c-0.212-0.377-0.419-0.756-0.617-1.141
		c-0.989-1.92-2.758-3.189-4.748-3.776c-0.631-0.933-1.234-1.979-1.851-2.674c-1.752-1.974-4.407-3.233-6.929-3.791
		c-0.244-0.054-0.49-0.082-0.734-0.116c-0.215-0.33-0.584-0.539-1.012-0.59c-1.747-0.204-3.595-0.145-5.045,0.973
		c-0.425,0.327-0.666,0.807-0.552,1.31c-0.116,0.085-0.219,0.183-0.329,0.273c-0.587-0.288-1.199-0.044-1.568,0.463
		c-0.6,0.821-1.067,1.724-1.332,2.708c-0.094,0.353-0.03,0.652,0.114,0.893c-0.317,1.086-0.402,2.268-0.181,3.508
		c-1.829,1.991-2.494,4.888-2.056,7.571c-0.612-0.221-1.271-0.34-1.951-0.36c-0.721-0.022-1.368,0.325-1.814,0.848
		c-0.691,0.142-1.339,0.566-1.685,1.158c-0.117,0.2-0.19,0.403-0.243,0.606c-0.238,0.362-0.358,0.835-0.289,1.421
		c0.212,1.797,0.827,4.038,0.814,6.088c-0.607-0.002-1.217,0.386-1.217,1.168c0,0.579,0.011,1.137-0.158,1.695
		c-0.163,0.536,0.039,0.954,0.377,1.211c-0.011,0.606,0.227,1.188,0.608,1.646c0.087,1.275,0.157,2.537,0.23,3.789
		c-0.34-0.247-0.787-0.348-1.264-0.111c-0.369,0.183-0.733,0.347-1.121,0.483c-0.623,0.217-1.029,0.82-0.846,1.487
		c0.166,0.604,0.865,1.062,1.488,0.844c0.584-0.203,1.147-0.451,1.701-0.727c0.067-0.033,0.099-0.081,0.154-0.121
		c0.202,3.226,0.473,6.416,1.115,9.667c-0.802-0.025-1.621-0.448-2.365-0.67c-1.499-0.449-2.134,1.887-0.642,2.332
		c1.187,0.356,2.302,0.826,3.511,0.732c0.501,2.304,1.01,4.569,1.445,6.827c-0.754-0.571-1.563-1.069-2.413-1.502
		c-1.386-0.708-2.612,1.38-1.222,2.089c1.529,0.78,2.853,1.743,3.989,3.036c0.09,0.103,0.19,0.157,0.288,0.218
		c0.139,1,0.261,2.007,0.342,3.03c-1.133-0.062-2.268-0.07-3.404-0.07c-1.56,0-1.56,2.419,0,2.419c1.178,0,2.355,0.007,3.53,0.075
		c0.005,0.186,0.021,0.368,0.022,0.555c0.013,1.219,0.04,2.414,0.103,3.595c-1.475,0.734-3.155,1.308-4.745,1.06
		c-1.525-0.238-2.181,2.093-0.642,2.332c1.358,0.212,2.701,0.057,3.999-0.305c0.024,0.585,0.405,1.155,1.161,1.155
		c0.276,0,0.484-0.092,0.662-0.217c0.292,1.679,0.743,3.339,1.471,4.994c0.275,0.624,0.581,1.23,0.885,1.839l0,0
		c-0.403,0.202-0.807,0.403-1.21,0.605l-0.001,0.001c-0.269-0.143-0.595-0.187-0.918-0.123c-0.962,0.189-1.922,0.346-2.904,0.359
		c-1.559,0.021-1.562,2.44,0,2.419c1.193-0.016,2.379-0.215,3.547-0.446c0.053-0.011,0.093-0.048,0.143-0.068
		c-0.09,0.174-0.183,0.345-0.299,0.508c-0.001,0.002-0.001,0.007-0.004,0.01c-2.747,0.039-3.025,3.853-0.846,4.672
		c-0.578,3.346-0.33,6.646,0.525,10.068c0.835,3.339,2.488,6.379,4.655,9.037c-0.705,0.525-1.177,1.383-0.982,2.469
		c0.431,2.399,1.294,4.653,2.056,6.953c-1.208,0.398-1.863,1.768-1.645,2.93c-0.397,0.046-0.796,0.058-1.184,0.002
		c-0.652-0.094-1.297,0.15-1.488,0.844c-0.157,0.575,0.191,1.393,0.846,1.487c1.228,0.177,2.396,0.088,3.536-0.256
		c-0.013,0.888-0.181,3.019-0.191,3.324c-0.016,0.553,0.166,1.016,0.457,1.386c-0.64,0.554-0.95,1.425-0.802,2.295
		c-0.056,0.079-0.12,0.169-0.15,0.2c-0.154,0.162-0.327,0.305-0.496,0.45c-0.036,0.03-0.051,0.045-0.076,0.067
		c-0.034,0.023-0.083,0.059-0.163,0.119c-0.184,0.135-0.37,0.27-0.555,0.403c-0.456,0.329-0.905,0.671-1.335,1.032
		c-1.015,0.844-0.868,2.552,0,3.421c0.996,0.995,2.41,0.843,3.421,0c0.07-0.058,0.108-0.088,0.131-0.108
		c0.075-0.056,0.15-0.113,0.226-0.167c0.248-0.18,0.496-0.359,0.743-0.541c0.112-0.082,0.221-0.172,0.333-0.255
		c0.347,0.225,0.773,0.368,1.293,0.368c2.531,0,3.008-3.181,1.435-4.384c0.01-0.091,0.002-0.184,0.007-0.276
		c2.015-0.172,2.574-2.453,1.689-3.811c0.044-0.61-0.112-1.231-0.469-1.719c0.544-0.777,1.24-1.482,1.9-2.205
		c1.048,1.837,1.917,3.86,3.712,5.043c1.259,0.83,2.69,1.231,4.138,1.588c3.936,1.981,9.672,1.684,13.727,0.85
		c3.239-0.666,6.245-1.916,9.235-3.228c-1.1,1.558-2.403,2.974-3.557,4.507c-0.936,1.243-1.795,2.203-2.419,3.629
		c-0.611,1.393-0.266,3.059-0.727,4.523c-0.379,1.202,1.171,1.969,2.021,1.177c0.143-0.132,0.279-0.265,0.42-0.396
		c0.348,0.179,0.775,0.204,1.15-0.021c6.009-3.58,6.54-11.149,10.809-16.141c0.284,0.559,0.958,0.964,1.69,0.618
		c1.16-0.549,2.4-0.767,3.661-0.898c0.218,0.025,0.433,0.053,0.667,0.053c0.619,0,1.175-0.094,1.681-0.25
		c1.147-0.097,2.286-0.237,3.377-0.598c0.508-0.168,0.74-0.555,0.796-0.97c0.162-0.013,0.33-0.064,0.502-0.16
		c1.849-1.033,3.974-1.177,6.005-1.655c0.013,0,0.023,0.006,0.037,0.006c0.253,0,0.458-0.069,0.627-0.175
		c0.687-0.195,1.36-0.44,1.999-0.797c0.464-0.259,0.612-0.673,0.573-1.075c9.229-2.897,18.138-6.993,26.551-11.744
		c4.627-2.613,10.578-2.734,14.062-7.07c2.488-3.099,5.178-4.607,8.82-5.805c0.786,1.926,1.421,3.854,1.842,5.902
		c0.483,2.344-0.344,5.144,0.351,7.371c0.48,1.539,2.354,4.609,4.185,2.476c1.228-1.43,4.399-2.666,5.188-4.713
		c0.146,0.067,0.318,0.105,0.514,0.105c1.56,0,1.56-2.419,0-2.419c-0.178,0-0.33,0.039-0.469,0.096
		c-0.327-1.788-1.184-3.491-1.806-5.176c-1.116-3.034-2.147-6.099-3.212-9.151c-0.036-0.104-0.099-0.174-0.151-0.256
		c0.486-0.18,0.958-0.425,1.396-0.739c0.047,0.3,0.226,0.577,0.607,0.749c4.127,1.866,4.624,7.198,7.227,10.474
		c1.638,2.062,5.899,4.432,8.282,1.909c0.179-0.19,0.328-0.377,0.451-0.56c0.06,0.008,0.108,0.035,0.174,0.035
		c1.56,0,1.56-2.419,0-2.419c-0.011,0-0.017,0.005-0.027,0.006c-0.877-1.569-3.497-2.718-4.903-3.447
		c-2.479-1.283-3.75-3.314-5.242-5.593c-0.957-1.459-2.068-2.682-3.352-3.761c2.748-2.142,5.616-4.005,8.91-5.407
		c1.029-0.438,1.684-1.337,2.037-2.37c0.021,0,0.036,0.006,0.058,0.006c1.754,0,2.996-0.777,3.764-1.876
		c2.141-0.29,3.401-1.817,3.793-3.579c1.436-0.452,2.295-1.401,2.69-2.526c0.042-0.034,0.086-0.054,0.128-0.09
		c1.455-1.234,2.887-2.423,4.282-3.628c1.456-0.786,2.885-1.617,4.185-2.654c0.207,0.91,0.781,1.721,1.736,2.073
		c2.078,5.944,6.987,10.451,10.213,15.817c0.073,0.12,0.152,0.225,0.238,0.318c-0.856,0.767-1.004,2.41,0.21,2.954
		c2.878,1.292,5.054,3.994,8.093,4.618c3.377,0.694,7.444-1.155,10.641-2.016c2.083-0.561,1.481-3.387-0.481-3.564
		c-3.884-0.35-6.757,0.368-10.006-2.291c-1.064-0.872-2.4-0.324-2.938,0.572c0.057-0.421-0.011-0.862-0.206-1.213
		c-0.157-0.281-0.316-0.53-0.479-0.762c1.09-0.233,2.016-1.41,1.285-2.665c-3.388-5.803-7.795-10.92-12.677-15.514
		c-0.311-1.155-1.242-2.117-2.799-2.117c-0.19,0-0.363,0.025-0.535,0.053c0.508-0.595,1.009-1.202,1.487-1.847
		c1.364-1.837,3.007-3.42,3.354-5.77c0.005-0.036,0.01-0.075,0.016-0.111c1.722,0.013,3.41,0.432,5.153,0.415
		c0.725-0.007,1.426-0.217,2.068-0.55c0.472,0.025,0.966-0.042,1.475-0.265c0.956-0.416,1.889-0.878,2.833-1.321
		c0.991-0.464,3.114-0.572,2.506-1.579c1.235,2.042,3.949,1.854,5.221,0c2.297-3.348,6.499-3.914,9.774-1.738
		c2.293,1.527,4.461-0.619,4.422-2.772c0.435,0.114,0.878,0.09,1.297-0.036c3.429,2.033,6.344,5.498,8.929,8.236
		c3.467,3.671,6.718,7.075,10.695,10.204c5.724,4.506,7.449,13.751,15.696,14.016C257.835,169.587,257.823,163.539,253.933,163.414z
		 M48.374,153.268c-5.129,2.742-10.85,4.063-15.894,7.002c-2.047,1.193-3.983,2.558-5.874,3.982
		c-0.895-0.169-1.889,0.071-2.573,0.962c-0.044,0.057-0.102,0.103-0.148,0.157c-1.38,0.098-2.726,0.716-3.728,1.836
		c0.217-5.229,0.495-10.456,0.52-15.691c0.004-0.815-0.328-1.408-0.814-1.795c0.385-1.218-0.117-2.741-1.499-3.137
		c-1.005-7.658-3.736-15.014-3.937-22.888c-0.018-0.727-0.299-1.277-0.706-1.666c-0.034-0.318-0.064-0.636-0.099-0.956l-0.013,0.001
		c-0.023-0.213-0.037-0.421-0.074-0.645c-0.109-0.673-0.48-1.137-0.973-1.414c-0.005-0.044-0.01-0.087-0.015-0.131
		c1.035,0.63,2.359,0.365,3.116-0.531c1.281,2.274,3.62,3.929,7.031,3.929c0.322,0,0.631-0.017,0.933-0.046
		c0.158,1.204,0.253,2.509-0.579,3.424c-0.979,1.075,0.238,2.424,1.466,1.899c1.161-0.496,2.345-0.996,3.623-1.044
		c0.156-0.006,0.285-0.051,0.411-0.099c0.876,1.357,1.849,2.645,2.873,3.899c-0.115,1.364-0.907,2.673-1.505,3.856
		c-0.469,0.928,0.295,2.067,1.366,1.777c1.136-0.307,2.295-0.49,3.456-0.659c0.161,0.393,0.508,0.703,1.061,0.703
		c0.184,0,0.342-0.039,0.483-0.098c0.468,0.529,0.922,1.067,1.38,1.602c0,0.077-0.019,0.146-0.005,0.229
		c0.377,2.117-1.227,3.446-2.511,4.871c-1.041,1.155,0.663,2.872,1.71,1.71c0.007-0.008,0.015-0.016,0.022-0.024
		c0.416,0.231,0.946,0.248,1.39-0.178c0.7-0.673,1.597-1.138,2.491-1.504c0.048-0.021,0.09-0.047,0.132-0.074
		c0.057,0.09,0.126,0.167,0.207,0.237c0.19,0.283,0.506,0.484,0.953,0.484c0.005,0,0.007-0.002,0.012-0.002
		c0.548,0.783,1.101,1.575,1.664,2.359c-0.022,0.087-0.059,0.165-0.063,0.265c-0.041,1.184-0.656,2.228-1.246,3.22
		c-0.509,0.854,0.168,1.729,1.044,1.82c1.355,0.143,2.632-0.259,3.849-0.802c0.772,0.843,1.58,1.646,2.448,2.376
		C49.302,152.754,48.842,153.017,48.374,153.268z M60.993,145.395c-1.227,0.65-2.407,1.37-3.571,2.118
		c-0.082-0.051-0.145-0.109-0.233-0.156c-4.988-2.651-7.613-8.493-10.998-12.77c-1.606-2.031-3.382-3.957-5.123-5.913
		c1.061,0.63,2.111,1.248,3.138,1.854c4.567,2.696,9.308,5.025,13.665,8.068c2.599,1.816,4.904,3.664,7.3,5.357
		C63.72,144.249,62.309,144.698,60.993,145.395z"/>
</g>
<g id="Layer_1_2_">
	<g>
		<g id="Layer_1_1_">
			<g>
				<g id="Layer_1_3_">
					<g>
						<path fill="none" stroke="#373535" stroke-width="1.8144" stroke-miterlimit="10" d="M205.217,87.744
							c0.021-0.056,0.611-0.468,1.774-1.235c0.703-0.484,1.356-1.119,1.958-1.905c0.017-0.325-0.789-1.029-2.42-2.112
							c-1.875-1.293-3.882-2.268-6.023-2.925c-4.15-1.098-7.079-1.531-8.784-1.298c-0.533,0.085-1.108,0.265-1.725,0.542
							c-0.677,0.272-1.247,0.462-1.712,0.571c-0.307,0.068-1.199,0.415-2.678,1.041l-0.427,0.208
							c-0.2,0.168-0.319,0.284-0.357,0.351c-0.033,0.004-0.126,0.044-0.277,0.117c-0.96,0.821-1.773,1.781-2.435,2.878
							c-0.173,0.319-0.405,0.901-0.697,1.748c-0.704,2.044-0.716,4.462-0.036,7.253c0.673,2.724,1.871,5.219,3.6,7.486l0.342,0.45
							c1.397,1.76,2.431,3.339,3.101,4.737c0.484,1.066,0.894,2.304,1.23,3.714l0.731,2.689c0.412,0.937,0.884,1.764,1.419,2.476
							c0.288,0.399,0.68,0.912,1.173,1.54c1.447,2.129,2.615,3.432,3.507,3.906c0.086,0.042,0.168,0.079,0.247,0.108
							c0.72,0.248,1.525-0.145,2.417-1.178c0.866-1.185,1.389-1.881,1.571-2.087c0.692-0.772,1.666-1.674,2.921-2.71
							c0.8-0.671,1.749-1.416,2.852-2.237c1.212-0.907,2.062-1.499,2.55-1.772c0.682-0.333,1.302-0.57,1.854-0.711
							c1.196-0.266,2.272-0.18,3.224,0.259c0.301-0.323,0.732-1.003,1.294-2.039c0.501-1.453-0.081-5.077-1.745-10.873
							c-0.387-1.396-0.683-2.413-0.89-3.051c-0.657-2.215-1.276-4.061-1.856-5.539l0.085,0.029c0.062-0.042,0.298-0.316,0.709-0.821
							c0.345-0.496,0.527-0.773,0.546-0.83c0.087-0.254,0.068-0.608-0.06-1.062l-0.069-0.213c0.634-0.65,1.643-1.745,3.026-3.289
							c1.335-1.496,2.181-2.483,2.534-2.961c0.158-0.23,0.247-0.374,0.267-0.429c0.329-0.959,0.807-1.702,1.43-2.229
							c0.621-0.56,0.982-0.996,1.089-1.305c0.048-0.142,0.075-0.329,0.076-0.566c0.002-0.33,0.017-0.53,0.04-0.601
							c0.059-0.169,0.542-0.564,1.449-1.182c0.868-0.6,1.468-1.38,1.799-2.338c0.053-0.155,0.405-0.421,1.055-0.797
							c0.645-0.362,0.985-0.591,1.02-0.691l0.022-0.063l0.042-0.056c0.394-0.275,0.637-0.546,0.731-0.814
							c0.039-0.112,0.051-0.259,0.033-0.438l0.04-0.46c0.082-0.24,0.376-0.564,0.881-0.975l0.855-0.629
							c1.011-0.646,1.592-1.187,1.743-1.625l0.092-0.82c1.904-1.68,2.886-2.604,2.944-2.774c0.232-0.677,0.526-1.184,0.878-1.519
							c0.686-0.616,1.395-1.461,2.128-2.534c0.364-0.553,1.034-1.356,2.012-2.407l0.272-0.308l0.128-0.098
							c0.544-0.207,0.999-0.611,1.364-1.211c0.469-0.722,0.867-1.191,1.195-1.41c0.826-0.52,1.415-0.925,1.767-1.213
							c0.552-0.457,0.91-0.925,1.075-1.406c0.025-0.07,0.033-0.209,0.025-0.417l0.025-0.417c0.135-0.396,0.6-0.85,1.393-1.366
							c0.774-0.507,1.231-0.964,1.372-1.374c0.112-0.324,0.855-1.268,2.229-2.829l2.045-2.231l0.524-0.696
							c0.335-0.421,0.55-0.773,0.648-1.056c0.033-0.099,0.82-1.35,2.358-3.755c1.534-2.439,2.453-4.102,2.759-4.99l0.241-0.769
							c0.041-0.254,0.024-0.457-0.05-0.608l0.021,0.007c-0.463-0.807-1.046-0.716-1.749,0.272c-0.744,1.291-1.257,2.091-1.539,2.405
							c-0.262,0.304-0.714,0.93-1.356,1.876l-1.329,2.003c-1.917,2.637-3.882,5.132-5.891,7.485l-6.933,7.764
							c-0.663,0.734-1.595,1.793-2.798,3.178c-1.828,2.1-2.811,3.354-2.953,3.763l-0.036,0.177c-0.59,0.617-1.814,1.946-3.67,3.989
							c-1.355,1.553-2.307,2.67-2.856,3.348l-0.029-0.602c0.019-0.056,0.069-0.087,0.149-0.091c0.067-0.008,0.11-0.041,0.128-0.098
							l0.985-0.939c0.663-0.593,1.058-1.079,1.189-1.46c0.044-0.127,0.056-0.573,0.035-1.337l1.041-0.966
							c0.681-0.65,1.125-1.27,1.328-1.863c0.092-0.267,0.305-0.495,0.636-0.68c0.412-0.237,0.665-0.419,0.756-0.544
							c0.377-0.548,0.662-1.097,0.85-1.647c0.108-0.31,0.14-0.796,0.099-1.456l-0.006-0.05c0.179-0.017,0.371-0.07,0.575-0.157
							c0.583-0.225,1.08-0.614,1.49-1.167c0.809-1.109,1.308-1.735,1.498-1.875c0.333-0.232,0.614-0.523,0.843-0.868l0.633-1.012
							l0.196-0.501l0.119-0.55c0.035-0.146,0.227-0.269,0.578-0.37c0.345-0.086,0.552-0.18,0.618-0.283l2.882-4.451
							c1.341-2.11,2.059-3.299,2.151-3.566c0.082-0.24,0.126-0.502,0.128-0.784c0.002-0.283,0.023-0.481,0.062-0.594l1.074-1.193
							c0.025-0.071-0.008-0.184-0.096-0.341c-0.074-0.2-0.103-0.321-0.088-0.362c0.025-0.07,0.129-0.215,0.316-0.435
							c0.163-0.196,0.271-0.373,0.324-0.527c0.059-0.169,0.172-0.794,0.337-1.872l0.617-0.9c0.388-0.577,0.614-0.957,0.677-1.139
							c0.267-0.775,0.344-1.317,0.229-1.626c-0.152-0.383-0.63,0.019-1.436,1.21c-0.282,0.408-0.621,0.93-1.014,1.568
							c-0.322,0.569-0.647,1.079-0.977,1.534l-1.768,3.415c-0.966,1.797-1.485,2.801-1.558,3.013l-0.058,0.169
							c-0.162,0.15-0.313,0.358-0.452,0.625l-0.18,0.387l-0.525,0.766l-0.044,0.127c-2.665,3.342-5.082,6.28-7.248,8.817
							c-0.501,0.584-1.045,1.25-1.634,1.993c-1.133,1.55-1.991,2.896-2.573,4.036c-0.074,0.165-0.787,1.164-2.146,3
							c-1.3,1.761-1.997,2.775-2.09,3.043l-0.051,0.148l-2.498,2.926c-1.456,1.755-3.212,3.991-5.268,6.706
							c-1.915,2.354-3.317,4.159-4.207,5.414l-0.581,0.795c-1.231,1.833-2.106,3.503-2.626,5.013l-1.041,2.339
							c-0.054,0.202-0.076,0.313-0.068,0.331c-0.006,0.109,0.035,0.218,0.125,0.327c0.369,0.49,0.781,0.57,1.242,0.238
							 M184.548,81.1c-1.268-1.998-4.688-2.948-10.261-2.847c-2.185,0.022-3.945,0.14-5.282,0.358
							c-0.925,0.123-1.706,0.279-2.341,0.472c-1.173,0.337-2.701,1.066-4.586,2.183c-2.159,1.276-3.387,2.344-3.683,3.204
							c-0.111,0.325-0.196,0.777-0.254,1.356c0.079,1.1,0.298,2.343,0.657,3.729c0.285,1.092,0.515,1.802,0.686,2.13
							c0.429,0.858,1.303,1.853,2.616,2.984c2.021,1.737,3.798,2.901,5.33,3.492 M204.758,89.763c0.047,0.41,0.255,0.68,0.622,0.806
							c0.114,0.039,0.295,0.015,0.546-0.073l0.498-0.35c1.018-0.802,1.698-1.38,2.042-1.735c0.443-0.416,0.743-0.714,0.901-0.898
							c0.272-0.331,0.509-0.723,0.712-1.175 M214.911,131.411c-0.058,0.027-0.1,0.083-0.129,0.168
							c-0.044,0.127-0.108,0.428-0.192,0.904c-0.092,0.727-0.125,1.346-0.096,1.86c0.126,2.064,1.048,3.256,2.766,3.58
							c0.405,0.06,0.815,0.06,1.231-0.002c0.614-0.088,1.268-0.013,1.958,0.225c0.296,0.103,1.294,0.982,2.996,2.642l3.238,3.174
							c0.238,0.225,1.206,1.306,2.904,3.249c0.914,1.01,1.632,1.722,2.151,2.137c0.267,0.186,0.492,0.312,0.676,0.376
							c0.085,0.028,0.175,0.021,0.27-0.025l0.05-0.007c0.075-0.036,0.149-0.042,0.22-0.019c0.083,0.029,0.174,0.092,0.267,0.186
							c0.248,0.196,0.508,0.631,0.78,1.31c0.425,0.966,0.832,1.565,1.228,1.795c-0.117,0.339-0.172,0.565-0.163,0.679
							c0.006,0.396,0.227,0.67,0.665,0.82c0.212,0.074,0.512,0.327,0.898,0.76c0.406,0.425,0.687,0.663,0.842,0.716
							c0.691,0.237,1.159,0.691,1.402,1.358c0.272,0.677,0.513,1.052,0.726,1.125c0.07,0.025,0.138,0.01,0.206-0.047
							c0.08-0.051,0.149-0.067,0.206-0.047c0.254,0.087,0.55,0.553,0.891,1.396c0.387,0.89,0.743,1.438,1.067,1.645
							c0.629,0.327,1.089,0.754,1.381,1.281c0.371,0.664,0.68,1.118,0.928,1.36c0.093,0.096,0.179,0.307,0.256,0.633l0.191,0.68
							c0.179,0.44,0.34,0.639,0.481,0.593c0.19-0.093,0.276-0.111,0.255-0.054c0.047,0.047,0.131,0.195,0.25,0.442
							c0.019,0.038,0.112,0.179,0.278,0.427l1.366,1.465l1.046,0.81c0.619,0.402,1.275,0.722,1.966,0.96
							c1.508,0.52,3.583-0.305,6.223-2.472c0.2-0.578,0.156-1.184-0.129-1.819l-0.035-0.108c-0.351-0.674-0.934-1.363-1.748-2.07
							c-2.518-1.94-4.477-3.631-5.873-5.074c-1.064-1.078-2.768-2.729-5.109-4.956l-0.063-0.092
							c-2.178-2.06-3.872-3.693-5.083-4.898c-2.192-2.159-3.697-3.837-4.514-5.034l-0.321-0.442l0.056,0.044l-0.139-0.214
							c-0.242-0.352-0.423-0.579-0.544-0.685l-2.647-2.97c-0.387-0.433-0.625-0.68-0.715-0.743l-0.364-0.316l-0.076-0.121
							l-2.614-1.966c-1.372-1.009-2.366-1.856-2.982-2.541l-2.013-2.54c-0.536-0.689-1.375-1.231-2.517-1.624
							c-1.184-0.408-2.576-0.517-4.172-0.324l-3.432,0.688l-4.141,0.751l-2.666,0.455c-1.678,0.289-3.06,0.46-4.151,0.51
							c-0.53,0.024-1.193,0.166-1.992,0.427c-0.838,0.279-1.675,0.646-2.509,1.101l-1.779,0.973
							c-0.745,0.423-1.455,0.881-2.13,1.374c-1.483,1.098-2.333,1.964-2.551,2.599c-0.238,0.691-0.287,1.494-0.144,2.411
							c0.244,1.442,1.058,2.4,2.441,2.876c0.523,0.179,0.827,0.143,0.914-0.111 M203.246,117.382l0.126,0.044
							c0.578-0.212,1.49-0.914,2.74-2.11c1.133-1.092,1.714-1.634,1.742-1.625c0.197,0.068,0.312,0.148,0.344,0.237
							c0.019,0.085,0.063,0.14,0.133,0.165l0.784,2.258c0.331,1.282,0.46,2.446,0.382,3.492c-0.011,0.126-0.025,0.247-0.042,0.364
							c0.89,0.37,1.625,0.496,2.2,0.379c0.359-0.081,0.74-0.226,1.143-0.434c0.331-0.138,0.577-0.299,0.733-0.48
							c0.581-0.495,0.994-1.102,1.242-1.82c0.451-1.311,0.726-2.59,0.824-3.834c0.122-1.315,0.015-2.354-0.324-3.117
							c-0.277-0.569-0.662-0.985-1.155-1.25 M207.412,130.438l-1.629-0.561c-0.077-0.033-0.154-0.068-0.226-0.102
							c-0.66-0.295-1.172-0.598-1.535-0.907c-0.785-0.65-1.455-1.409-2.008-2.278c-0.305-0.168-0.832-0.768-1.582-1.799
							c-0.437-0.608-1.173-1.54-2.208-2.795c-0.96-1.165-1.541-1.84-1.742-2.02 M202.015,126.591
							c-0.399-0.579-0.743-1.345-1.032-2.296c-0.192-0.634-0.331-1.235-0.422-1.802c-0.115-0.717-0.131-1.198-0.048-1.437
							c0.081-0.24,0.233-0.542,0.454-0.907l0.363-0.775 M209.128,129.443c0.214-0.116,0.565-0.288,1.052-0.514
							c0.44-0.227,0.779-0.474,1.012-0.74l0.192-0.146c0.665-0.513,1.102-1.072,1.311-1.679l0.664-1.996l0.015,0.029l0.015-0.042
							l0.023-0.134l0.11-0.388l0.051-0.077l-0.022-0.007l0.278-0.946c0.051-0.377,0.068-0.86,0.048-1.45
							c-0.048-0.727-0.163-1.287-0.344-1.68 M209.455,120.208c-0.068,0.584-0.177,1.098-0.33,1.543
							c-0.131,0.38-0.468,1.109-1.012,2.183c-0.558,1.118-0.873,1.783-0.946,1.993c-0.126,0.367-0.221,0.871-0.283,1.512
							l-0.094,0.89c-0.082,0.24-0.285,0.508-0.61,0.808c-0.19,0.139-0.397,0.352-0.622,0.637 M211.553,129.687
							c0.135-0.396,0.036-0.864-0.298-1.404l-0.063-0.093 M182.994,144.3c0.277,0.206,0.76,0.474,1.45,0.807l0.965,0.427
							l0.126,0.044c0.607,0.209,1.477,0.248,2.61,0.119l2.105-0.34l1.945-0.016c1.233-0.05,2.135-0.22,2.708-0.512
							c0.383-0.2,0.75-0.507,1.098-0.924l0.917-1.01c0.394-0.322,0.929-0.681,1.603-1.081l0.826-0.473l-0.059-1.961l0.144-0.282
							l0.177-0.033 M199.35,141.341c0.167,1.257,0.595,2.003,1.286,2.243c0.494,0.171,0.968-0.015,1.421-0.553l0.612-1.02
							c0.173-0.319,0.567-0.593,1.183-0.824l1.222-0.385c0.194-0.106,0.479-0.221,0.853-0.345c0.573-0.197,1.348-0.387,2.326-0.571
							l3.56-0.029c0.358,0.519,1.032,0.947,2.018,1.287c0.819,0.281,1.616,0.209,2.394-0.218c0.593-0.301,0.947-0.621,1.064-0.959
							c0.048-0.14,0.04-0.483-0.025-1.026l-0.082-0.929l0.079-0.091 M190.385,112.054l0.327,1.32
							c0.449,1.812,0.585,2.971,0.411,3.479c-0.058,0.169-0.214,0.368-0.466,0.596c-0.031,0.024-0.064,0.048-0.097,0.074
							c0.005,0.04,0.086,0.19,0.247,0.451c0.247,0.385,0.577,0.823,0.992,1.312c0.751,0.889,1.237,1.696,1.462,2.42
							c0.232,0.696,0.321,1.246,0.259,1.651c-0.021,0.151-0.144,0.558-0.373,1.22c-0.034,0.099-0.119,0.252-0.253,0.457
							c-0.253,0.323-0.59,0.57-1.012,0.74c-0.308,0.162-0.721,0.352-1.236,0.569l-0.221,0.231c-0.311,0.351-0.48,0.569-0.51,0.653
							c-0.203,0.593-0.081,1.361,0.368,2.303c0.438,0.973,0.579,1.684,0.425,2.135c-0.53,0.67-0.959,1.136-1.287,1.402
							c0.748,0.305,1.254,0.55,1.522,0.737c0.63,0.642,1.045,1.133,1.245,1.471 M190.559,117.523
							c-0.479,0.358-0.803,0.589-0.973,0.694l-1.9,1.121 M161.094,120.617c-4.323-3.115-7.988-5.299-10.995-6.556l-0.722-0.106
							c-1.092-0.125-2.451-0.347-4.076-0.67c-2.339-0.49-4.075-1.017-5.206-1.58c-2.003-0.185-4.053-0.007-6.148,0.533
							c-1.248,0.328-2.856,0.918-4.823,1.771l-0.91,0.373c-1.009,0.457-2.492,1.485-4.447,3.085
							c-1.849,1.477-2.816,2.336-2.898,2.575l-0.01,1.678c0.11,0.826,0.321,1.404,0.634,1.733c3.541-1.116,8.875-0.731,16.003,1.156
							c1.853,0.48,4.408,1.265,7.66,2.355c3.358,1.109,5.397,1.788,6.117,2.035c1.805,0.623,5.113,2.014,9.921,4.174l7.448,3.322
							c0.705,0.243,1.791-0.006,3.262-0.745c1.161-0.579,1.848-0.995,2.064-1.253c2.21-1.101,4.131-2.12,5.764-3.057l2.697-1.65
							c0.787-0.455,1.562-0.937,2.321-1.449c1.005-0.537,1.999-0.929,2.984-1.173c0.223-0.05,0.692-0.156,1.412-0.319
							c0.677-0.177,1.176-0.345,1.497-0.502 M189.418,133.069l-1.212-0.464c-1.391-0.495-2.286-0.717-2.683-0.664
							c-1.083,0.165-2.018,0.339-2.808,0.525l-0.022-0.007c-0.723,0.177-1.362,0.405-1.917,0.688
							c-1.381,0.802-2.368,1.495-2.965,2.079c-0.668,0.7-1.164,1.524-1.488,2.469c-0.311,0.904-0.302,1.679,0.025,2.329
							c0.203,0.419,0.809,1.454,1.816,3.11l0.883,1.631c0.277,0.523,0.405,0.976,0.382,1.362l0.39,1.271
							c0.158,0.276,0.423,0.675,0.796,1.196c0.163,0.167,0.373,0.294,0.625,0.381c0.832,0.285,1.752-0.116,2.758-1.204
							c0.749-0.8,1.2-1.426,1.356-1.877c0.048-0.14,0.067-0.261,0.053-0.36 M150.149,166.761c-0.225,0.697-0.403,1.4-0.537,2.111
							c-0.148,0.612-0.31,1.172-0.484,1.68c-0.408,1.184-0.737,2.026-0.987,2.523c-0.331,0.642-0.712,1.198-1.141,1.666
							l-0.723,0.792c-1.635,1.678-3.273,2.747-4.913,3.207c-0.479,0.151-0.956,0.23-1.433,0.24l-0.425-0.004l0.911,1.686
							c0.663,1.19,1.123,1.989,1.378,2.393c0.491-0.099,1.227-0.469,2.204-1.11c1.069-0.721,2.304-1.629,3.706-2.724
							c1.107-0.692,2.515-1.618,4.224-2.781c1.558-1.041,5.055-3.474,10.49-7.299l2.48-1.773c1.132-0.809,2.477-1.899,4.038-3.271
							l3.735-3.353c1.802-1.524,3.071-2.618,3.804-3.282l0.794-0.791c1.068-1.178,1.741-2.169,2.018-2.973l0.409-1.184l0.185-0.882
							l-0.025-0.411l-0.246-1.623c0.062-0.452-0.247-1.205-0.925-2.26c-0.117-0.166-0.917-1.3-2.401-3.405
							c-2.53-3.602-4.036-5.871-4.518-6.81 M179.609,149.594c0.094,0.001,0.237-0.069,0.428-0.208
							c0.26-0.162,0.416-0.314,0.464-0.455l0.117-0.339 M162.08,153.971l-0.191,0.692c-0.082,0.24-0.247,0.578-0.491,1.014
							c-0.383,0.657-0.812,1.235-1.285,1.736l-0.035,0.035c-0.577,0.575-1.041,0.919-1.397,1.033
							c0.045,0.236,0.411,0.662,1.098,1.277c0.94,0.844,1.917,1.441,2.933,1.79c1.228,0.423,2.485,0.162,3.773-0.783
							c0.399-0.288,0.731-0.561,0.991-0.818c0.191-0.188,0.321-0.331,0.386-0.435c1.291-0.265,2.517-1.01,3.681-2.234
							c1.021-1.085,1.736-2.22,2.142-3.404c0.423-1.228,0.578-2.57,0.464-4.029c-0.14-1.927-0.78-3.393-1.916-4.399
							 M177.268,156.669c0.19,0.365,0.904,1.455,2.141,3.27c1.641,2.333,2.793,4.102,3.451,5.307l0.242,0.462
							c1.315,2.551,2.067,4.01,2.257,4.375c0.146,0.35,0.227,0.693,0.237,1.028c-0.007,0.203,0.097,0.405,0.312,0.605
							c0.272,0.22,0.429,0.377,0.477,0.472c0.131,0.219,0.111,0.576-0.059,1.069c-0.015,0.452,0.368,0.812,1.142,1.08
							c0.099,0.033,0.206,0.023,0.319-0.033c0.132-0.064,0.227-0.086,0.283-0.068c0.254,0.087,0.495,0.305,0.723,0.651
							c0.065,0.133,0.139,0.237,0.224,0.313c-0.154,0.217-0.254,0.394-0.302,0.535c-0.393,1.142,0.495,2.112,2.667,2.907
							l0.564,0.219l-0.288,0.562c-0.074,0.212,0.027,0.428,0.298,0.647l1.35,0.89l0.791,0.865c0.433,0.48,0.905,0.808,1.412,0.982
							c0.692,0.238,1.392,0.196,2.104-0.127c0.674-0.352,1.067-0.531,1.181-0.539c0.531,0.104,1.026,0.116,1.478,0.035
							c0.152-0.027,0.323-0.086,0.513-0.179c0.387-0.166,0.645-0.408,0.771-0.728c0.08-0.004,0.167-0.046,0.256-0.126l0.168-0.486
							c0.411,0.41,0.997,0.746,1.759,1.009c0.171,0.058,0.755-0.175,1.755-0.697l3.711-1.776c0.843-0.387,1.321-0.744,1.433-1.069
							c0.102-0.295,0.102-0.548,0-0.756c-0.198-0.385-0.72-0.682-1.562-0.894l-2.246-0.419c-1.008-0.142-1.586-0.183-1.732-0.123
							c-2.618,0.819-3.943,1.277-3.977,1.375l-0.007,0.022c-0.982-0.353-1.754-0.839-2.314-1.459
							c-0.671-0.752-1.248-1.275-1.732-1.568c-0.726-0.644-1.466-0.899-2.222-0.764c-0.059-0.195-0.142-0.365-0.249-0.513
							c-0.219-0.375-0.318-0.59-0.298-0.646c0.048-0.142,0.227-0.364,0.536-0.668l0.502-0.561c0.024-0.071-0.636-0.81-1.981-2.221
							l-0.063-0.092c-1.471-1.547-2.328-2.475-2.57-2.778c-0.442-0.547-0.866-1.356-1.271-2.426c-0.344-0.97-0.856-1.793-1.539-2.47
							l-4.376-5.294c-1.377-1.689-2.593-3.101-3.653-4.24 M168.556,142.452c-1.864-0.405-3.59-0.503-5.177-0.292
							c-1.408,0.194-2.696,0.61-3.861,1.25c-2.044,1.126-3.372,2.578-3.986,4.355l-0.16,0.466l0.924,0.272
							c0.924,0.161,2.042,0.671,3.353,1.534l2.492,2.042c0.602,0.633,0.86,1.078,0.773,1.332 M122.788,154.262
							c1.978,0.397,3.283,1.257,3.917,2.579l0.048,0.065l0.337,0.943c0.322-0.11,0.7-0.271,1.137-0.484l0.299-0.18
							c0.569-0.277,1.022-0.517,1.36-0.715l2.114-0.575l7.386-0.415c1.335-0.029,2.601,0.051,3.797,0.242
							c1.282,0.221,2.36,0.229,3.234,0.025c1.378,0.033,4.38,0.798,9.007,2.297c1.476,0.572,2.562,0.716,3.257,0.435
							 M142.264,164.849c-0.242-0.809-0.931-1.558-2.065-2.249c-1.191-0.71-2.492-1.196-3.9-1.461
							c-3.432-0.709-6.078-0.215-7.94,1.479c0.38,0.778,1.035,1.966,1.967,3.564c0.273,0.489,1.148,1.73,2.624,3.721l4.282,5.711
							c0.721,0.059,1.594-0.278,2.62-1.015c0.746-0.516,1.351-1.081,1.814-1.693c0.273-0.379,0.481-0.781,0.629-1.204
							c0.247-0.72,0.387-1.357,0.422-1.914c0.047-0.457,0.025-1.198-0.063-2.223 M18.297,100.386
							c-0.55,0.316-0.852,0.503-0.904,0.564c-0.115,0.102-0.24,0.352-0.376,0.746c-0.106,0.31-0.148,0.635-0.123,0.975
							c0.117,0.577,0.391,1.247,0.823,2.012c0.487,0.831,1.084,1.618,1.789,2.367c1.396,1.49,2.741,2.601,4.035,3.33
							c0.867,0.552,1.551,0.833,2.05,0.848l1.084-0.052l1.149,0.443c0.748,0.258,1.662,0.652,2.741,1.181
							c3.502,1.789,7.841,4.814,13.015,9.073c2.654,2.192,6.729,5.819,12.227,10.884c1.96,1.781,4.023,3.508,6.191,5.186
							c1.775,1.4,3.516,2.687,5.227,3.857l1.73,1.165c4.271,2.717,7.336,4.624,9.199,5.723c0.737,0.428,4.442,2.658,11.115,6.692
							l0.021,0.007c0.698,0.539,1.986,1.473,3.865,2.798c4.02,2.851,6.361,4.597,7.025,5.235c0.692,0.648,1.903,1.46,3.634,2.435
							l8.406,4.457c0.272,0.126,0.464,0.231,0.577,0.317c1.853,1.033,3.759,2.163,5.72,3.391c2.809,1.693,4.34,2.584,4.594,2.671
							c1.156,0.398,2.457,0.38,3.9-0.053c0.738-0.22,1.309-0.456,1.713-0.712c-1.188-1.955-1.973-3.433-2.355-4.432
							c-0.399-1.132-0.757-2.059-1.077-2.785c-0.443-1.052-1.037-2.053-1.782-3.003c-1.431-1.802-2.255-2.867-2.474-3.196
							c-0.065-0.085-0.106-0.148-0.126-0.184c-0.359-0.377-0.766-1.031-1.218-1.958c-0.023-0.071-0.092-0.261-0.207-0.569
							l-0.904-2.324c-0.648-0.775-1.172-1.477-1.571-2.102c-0.743-1.187-0.942-2.234-0.599-3.141
							c-0.197-0.163-0.471-0.328-0.823-0.496l-3.906-2.126c-0.262-0.154-1.02-0.659-2.27-1.517l-1.891-1.314
							c-4.642-2.782-8.297-4.932-10.961-6.448l-8.4-4.265c-3.53-1.799-5.836-3.028-6.92-3.684c-1.66-1.045-3.466-2.078-5.418-3.098
							l-0.986-0.504c-0.248-0.243-0.906-0.714-1.974-1.414l-4.628-2.847c-0.688-0.474-3.157-2.035-7.405-4.68
							c-6.072-3.81-10.489-6.745-13.252-8.8c-1.414-1.023-2.921-2.355-4.518-3.994c-1.793-1.848-3.16-3.172-4.101-3.969
							c-0.628-0.515-1.306-1.199-2.039-2.05c-1.031-1.176-1.635-1.849-1.813-2.021c-1.611-1.643-4.066-3.222-7.362-4.737
							c-3.428-1.133-5.988-1.628-7.677-1.484c-1.171,0.102-1.876,0.498-2.114,1.189c-0.116,0.339-0.167,0.621-0.15,0.848
							c-1.026,0.183-1.772,0.541-2.24,1.074c-0.314,0.318-0.63,0.935-0.946,1.852l-0.502,2.762c-0.123,1.456,0.019,2.42,0.425,2.891
							c1.077-0.56,1.862-0.802,2.356-0.727 M14.539,103.398c-0.281,0.219-0.512,0.432-0.693,0.637
							c-0.749,0.8-1.276,1.62-1.581,2.462l-0.051,0.149c-0.233,0.677-0.301,1.262-0.202,1.753l0.325,1.39l0.24,0.887
							c0.117,0.53,0.856,1.408,2.217,2.633c1.459,1.308,2.291,2.169,2.494,2.586c0.485,0.973,0.985,1.743,1.499,2.315
							c0.745,0.904,1.845,1.882,3.297,2.933c0.535,0.374,1.035,0.981,1.504,1.819c0.064,0.18,0.112,0.362,0.144,0.547
							c0.047,0.506-0.075,1.182-0.367,2.027c-0.092,0.269-0.247,0.601-0.463,1l-0.525,0.766c-0.473,0.642-0.732,1.026-0.775,1.153
							c-0.163,0.292-0.132,0.475,0.094,0.554c0.367,0.126,1.211-0.151,2.535-0.832c0.611-0.31,1.162-0.514,1.655-0.613
							c0.587-0.145,1.133-0.131,1.641,0.045c0.804,0.277,1.456,0.675,1.956,1.194c0.359,0.376,0.646,0.807,0.858,1.289
							c0.377,0.872,0.468,1.597,0.269,2.175c-0.156,0.451-0.456,1.05-0.902,1.795l-0.677,1.139l-0.387,1.191
							c-0.168,0.81-0.098,1.269,0.213,1.375c0.127,0.044,0.363-0.047,0.71-0.276l1.139-0.768c1.285-0.662,2.718-0.721,4.297-0.177
							c0.564,0.194,1.066,0.548,1.505,1.062l0.608,0.635l0.034,0.177c0.042,0.567-0.013,1.069-0.163,1.506
							c-0.296,0.86-0.879,1.889-1.75,3.089c-0.871,1.2-1.321,1.841-1.35,1.926l-0.067,0.261c0.025,0.198,0.195,0.351,0.504,0.458
							c0.296,0.102,0.691-0.015,1.185-0.35l1.595-1.131c1.667-1.034,3.438-1.23,5.314-0.583c0.55,0.189,0.893,0.843,1.028,1.963
							c0.081,0.864,0.07,1.443-0.031,1.739c-0.327,0.945-0.67,1.718-1.035,2.318l-0.129,0.24c-0.269,0.507-0.475,0.925-0.621,1.253
							c-0.048,0.14-0.192,0.352-0.431,0.633c-0.238,0.232-0.385,0.428-0.438,0.582l-0.074,0.282l0.352,0.217
							c0.683-0.475,1.546-1.031,2.585-1.666c0.527-0.292,0.965-0.512,1.316-0.659c1.208-0.53,2.257-0.642,3.145-0.336
							c0.466,0.16,0.665,0.702,0.6,1.626l-0.048,0.553c-0.149,0.658-0.258,1.093-0.331,1.305c-0.184,0.536-0.975,1.937-2.37,4.202
							c-0.01,0.027,0.1,0.144,0.329,0.35c0.888-0.657,1.725-1.229,2.508-1.716c1.358-0.873,2.341-1.206,2.947-0.997
							c1.862,0.641,3.178,1.837,3.949,3.585c0.789,1.834,0.795,3.878,0.017,6.135l-0.717,1.598c-0.346,1.096-0.25,1.737,0.285,1.921
							c0.241,0.082,1.062-0.518,2.466-1.801c1.396-1.302,2.488-1.817,3.278-1.545c0.437,0.151,1.275,0.81,2.514,1.979l1.494,1.366
							l0.208,1.114c0.207,1.002,0.151,2.032-0.166,3.091l-0.185,0.813c-0.099,0.471-0.183,1.104-0.253,1.9
							c-0.109,1.098-0.122,1.662-0.037,1.69c0.367,0.126,0.683-0.04,0.953-0.5c0.279-0.63,0.549-1.16,0.808-1.591
							c0.134-0.253,0.328-0.518,0.581-0.794c0.843-0.846,1.998-1.016,3.466-0.51c1.889,0.651,2.985,1.595,3.284,2.835
							c0.168,0.657,0.104,1.416-0.192,2.277c-0.233,0.677-0.629,1.598-1.188,2.762c-0.397,1.016-0.463,1.758-0.2,2.228
							c0.778-0.427,1.581-1.27,2.411-2.532c0.589-0.884,1.214-1.214,1.877-0.985c0.183,0.063,0.618,0.402,1.306,1.017
							c0.827,0.758,1.443,1.396,1.848,1.915c0.299,0.371,0.386,0.78,0.264,1.228l-1.234,3.787c-0.346,1.096-0.3,1.719,0.137,1.87
							c0.267,0.092,0.781-0.393,1.543-1.456c0.789-1.054,1.325-1.533,1.606-1.436c1.015,0.35,1.713,1.672,2.091,3.963l0.353,2.134
							c0.087,0.298,0.197,0.596,0.33,0.895c0.171,0.374,0.306,0.578,0.404,0.612c0.396,0.135,0.76-0.076,1.096-0.64
							c0.406-0.633,0.725-0.981,0.952-1.045c0.554,0.823,0.9,1.398,1.037,1.731c0.07,0.119,0.154,0.425,0.253,0.916
							c0.195,0.351,0.475,0.613,0.842,0.786l-2.133,0.97c-4.351,2.004-7.579,3.566-9.685,4.687c-0.331,0.138-0.618,0.284-0.86,0.438
							c-3.012,1.644-5.592,3.296-7.742,4.955l-0.856,0.699c-1.233,1.106-2.033,1.847-2.4,2.227
							c-2.541,2.706-5.137,5.662-7.787,8.868l-0.637,0.75l-1.231,1.445l-5.873,6.331l-0.207,0.19l-0.079,0.091l-0.102,0.295
							c0.004,0.127,0.052,0.239,0.145,0.334c0.058,0.335,0.248,0.725,0.569,1.167c0.517,0.698,0.757,1.097,0.725,1.195l-0.98,1.745
							l-0.438,1.339c-0.169,0.856-0.042,1.358,0.381,1.504c0.296,0.103,1.092-0.081,2.39-0.549l2.673-1.234
							c1.029-0.514,2.078-1.36,3.146-2.538c0.783-0.85,1.475-1.852,2.074-3.001c0.217-0.398,0.702-1.438,1.454-3.121l1.291-3.199
							l0.065-0.121c0.397-0.921,0.781-1.695,1.155-2.324c0.192-0.328,0.594-0.83,1.205-1.502c0.123-0.131,0.803-0.843,2.038-2.139
							l0.558-0.588c0.681-0.697,1.204-1.275,1.566-1.733c1.783,0.55,3.305,0.183,4.569-1.101l1.231-1.445
							c0.353-0.431,0.635-0.61,0.848-0.536c1.438,0.495,2.469,0.779,3.092,0.852c0.264,0.012,0.5-0.01,0.708-0.064
							c0.34-0.025,0.731-0.27,1.175-0.731c0.731-0.884,1.323-1.485,1.779-1.801l2.912-0.346c1.889-0.265,3.185-0.774,3.886-1.525
							c0.773-0.871,1.288-1.475,1.546-1.811c0.128-0.145,0.404-0.304,0.826-0.474l0.668-0.22c0.947-0.321,1.475-0.526,1.585-0.614
							c0.985-0.89,1.621-1.5,1.908-1.828c0.325-0.393,0.578-0.764,0.761-1.11c0.149-0.249,0.278-0.535,0.391-0.86l0.046-0.339
							l2.485,2.82c0.042,0.015,0.144-0.006,0.305-0.06c0.133-0.065,0.208-0.126,0.227-0.181l-0.005-0.191
							c-0.034-0.312-0.192-0.997-0.475-2.056l-0.708-2.753c-0.073-0.34-0.318-0.977-0.739-1.91l0.178-0.034
							c0.377-0.09,0.835-0.044,1.372,0.14c0.226,0.077,0.588,0.353,1.089,0.826c0.537,0.5,0.919,0.789,1.144,0.867
							c0.452,0.156,0.751,0.203,0.898,0.143c0.042,0.016,0.085-0.041,0.128-0.168c0.058-0.169-0.258-0.854-0.95-2.055
							c-0.435-0.749-0.871-1.412-1.304-1.987c-0.079-0.09-0.781-0.664-2.106-1.719c-1.208-0.936-2.084-1.83-2.627-2.681
							l-1.305-1.845c-0.652-0.904-1.341-1.788-2.068-2.653c-1.38-1.628-2.997-3.256-4.848-4.888
							c-1.361-1.179-3.006-2.771-4.935-4.777c-2.604-2.743-4.193-4.386-4.763-4.929c-0.15-0.162-1.05-0.985-2.7-2.469
							c-1.216-1.096-2.033-1.906-2.452-2.43c-0.215-0.201-0.919-0.973-2.114-2.314l-0.098-0.128
							c-0.157-0.323-0.502-0.787-1.033-1.396c-0.705-0.795-1.275-1.362-1.71-1.702c-0.567-0.416-1.045-0.881-1.437-1.393
							l-0.244-0.322c-0.587-0.816-0.993-1.351-1.222-1.604c-2.539-2.798-4.466-5.015-5.78-6.653l-1.77-2.077
							c-1.153-1.328-2.69-2.977-4.615-4.95c-2.517-2.587-4.43-4.753-5.738-6.497l-4.268-5.611c-2.694-3.404-4.847-6.017-6.462-7.835
							c-1.502-1.685-2.578-2.868-3.227-3.549c-0.989-1.067-2.095-2.094-3.317-3.082c-1.618-1.346-2.768-2.319-3.446-2.915
							c-0.377-0.555-0.766-1.077-1.166-1.562l-0.161-0.221 M9.493,115.506c-0.19,0.093-0.308,0.209-0.357,0.351
							c-0.126,0.367-0.008,0.873,0.353,1.518c0.654,1.078,1.87,1.922,3.648,2.534c0.517,0.195,0.894,0.246,1.131,0.152
							c0.097-0.282,0.377-0.572,0.843-0.868l0.377-0.202l-0.327-0.562c-0.686-1.262-1.114-2.009-1.287-2.241
							c-0.55-0.741-1.153-1.281-1.81-1.617 M12.338,109.787c-1.858,0.354-3.221,0.832-4.09,1.432
							c-0.855,0.558-1.487,1.429-1.894,2.614c-0.486,1.41-0.485,3.035,0.001,4.876c0.178,0.582,0.373,1.161,0.584,1.739l0.2,0.66
							l-0.002,0.283c-0.029,0.085-0.293,0.53-0.791,1.337c-0.498,0.807-0.797,1.351-0.894,1.633l0.289,1.566
							c0.288,0.952,0.706,1.569,1.256,1.853c0.027,0.104,0.097,0.27,0.207,0.497c0.409,1.056,0.531,1.824,0.367,2.303
							c-0.077,0.226-0.835,0.479-2.272,0.756c-1.432,0.265-2.189,0.517-2.272,0.756l-0.074,0.282
							c0.074,0.198,0.399,0.398,0.979,0.596c0.536,0.185,1.091,0.336,1.666,0.456c0.575,0.119,1.058,0.246,1.454,0.381
							c0.142,0.05,0.467,0.525,0.977,1.426c0.496,0.943,0.727,1.465,0.692,1.564c0.027,0.15,0.183,0.614,0.468,1.391
							c0.004,0.033,0.028,0.168,0.074,0.404c0.028,0.01,0.064,0.203,0.108,0.581c0.057,0.478,0.105,0.794,0.146,0.95l0.149,0.737
							c-0.385,0.341-1.397,0.577-3.036,0.706c-1.459,0.113-2.258,0.374-2.399,0.783c-0.151,0.437-0.029,0.794,0.364,1.072
							c0.693,0.46,2.408,1.161,5.144,2.104l0.063,0.022c0.081,0.313,0.126,0.462,0.129,0.448l0.317,1.623
							c0.249,1.112,0.449,1.858,0.601,2.243l-2.968,0.304c-1.626,0.277-2.538,0.704-2.737,1.282
							c-0.087,0.254,0.079,0.437,0.497,0.55l1.566,0.397c1.543,0.422,2.642,1.194,3.296,2.319c0.525,1.364,0.856,2.298,0.998,2.805
							l0.024,0.48c-0.562,0.169-1.678,0.29-3.343,0.364c-1.408,0.146-2.227,0.558-2.46,1.235l-0.058,0.171
							c0.051,0.127,0.224,0.242,0.52,0.345l5.204,0.49c0.396,0.135,0.676,0.879,0.841,2.231l0.224,1.756
							c-0.911,0.081-2.174,0.357-3.787,0.826c-2.309,0.657-3.553,1.246-3.733,1.768l-0.044,0.197
							c0.041,0.109,0.161,0.197,0.358,0.266l2.066,0.12c1.339,0.051,2.087,0.104,2.241,0.157l1.53,0.575
							c0.409,0.187,0.74,0.327,0.993,0.414l0.761,0.403c0.16,0.087,0.403,0.249,0.731,0.489c0.169,0.058,0.273,0.03,0.312-0.081
							 M12.07,168.911l-0.015,0.041c-0.044,0.127,0.145,0.815,0.567,2.065l0.42,1.257c0.569,1.647,0.831,2.535,0.787,2.661
							c-0.077,0.226-0.408,0.38-0.988,0.466l-1.885,0.178c-1.847,0.185-2.918,0.708-3.214,1.568
							c-0.126,0.226,0.087,0.433,0.637,0.623c0.212,0.074,0.814,0.201,1.807,0.386c0.98,0.179,1.935,0.428,2.866,0.75l0.226,0.1
							l0.351-0.399c0.028-0.038,0.207-0.419,0.535-1.141c0.218-0.539,0.464-0.936,0.74-1.188c0.2-0.168,0.946-0.866,2.237-2.094
							l0.406-0.357c0.29-0.294,0.659-0.633,1.107-1.015l0.08-0.232c0.279-0.677,0.426-1.124,0.438-1.34l0.083-1.344
							c0.034-0.508,0.111-0.939,0.232-1.292c0.64-1.263,0.994-1.969,1.061-2.119l-0.037-11.23c0-0.964-0.083-1.82-0.25-2.572
							c-0.352-1.684-0.631-2.885-0.842-3.603l-0.233-0.696c-0.133-1.308-0.45-3.665-0.948-7.073l-0.947-6.597
							c-0.243-1.583-0.842-4.471-1.796-8.666l-0.487-2.227c-0.524-2.42-0.771-3.674-0.741-3.758 M23.587,122.962
							c-0.156,0.088-0.481,0.119-0.977,0.09c-0.93-0.051-2.106-0.323-3.53-0.813c-1.355-0.466-2.551-1.548-3.591-3.249
							 M57.992,147.448c0.461-0.377,1.955-1.07,4.479-2.078l2.267-0.877c-2.006-0.959-5.616-3.189-10.832-6.688l-1.849-1.229
							c-3.931-2.647-6.827-4.71-8.685-6.186 M68.955,142.966c-1.321,0.444-2.726,0.953-4.219,1.529 M158.141,85.827
							c-2.535-0.794-5.349-0.115-8.442,2.039l-0.434,0.3c-1.113,0.848-2.095,1.755-2.949,2.723c-0.906,1.029-1.487,1.91-1.739,2.644
							c-0.398,1.156-0.443,2.316-0.133,3.48c0.015,0.005,0.097,0.247,0.248,0.725c0.253,0.591,0.569,1.166,0.945,1.721
							c1.241,1.801,3.007,3.157,5.296,4.073 M144.442,97.014l-0.212-0.074c-0.681-0.219-1.49-0.3-2.425-0.243
							c-0.208,0.007-0.479,0.087-0.816,0.24l-0.726,0.389c-1.043,0.508-1.986,1.091-2.827,1.748
							c-0.85,0.637-1.506,1.327-1.967,2.067c-0.393,0.637-0.745,1.408-1.056,2.31c-0.398,1.158,0.035,2.552,1.303,4.188
							c0.271,0.362,0.675,0.815,1.211,1.363c0.313,0.328,0.83,0.846,1.548,1.551c0.472,0.509,1.01,0.893,1.617,1.148
							 M116.411,152.231c0.529-0.985,1.465-1.736,2.811-2.251c1.075-0.419,1.817-0.558,2.226-0.416l0.081-0.375
							c0.514-1.495,2.509-2.497,5.98-3.005c1.445-0.213,3.342-0.331,5.686-0.362l3.567-0.05c1.83,0,3.181,0.016,4.055,0.047
							c0.477,0.038,1.19,0.024,2.143-0.042c0.657-0.025,1.168-0.024,1.536,0.008c-0.612-3.903-0.931-6.711-0.957-8.424l-0.007-2.038
							c-0.008-1.534-0.01-2.378-0.004-2.534c0.075-1.456,0.336-2.834,0.783-4.132l0.458-1.191c0.126-0.225,0.254-0.393,0.386-0.506
							 M121.494,123.451l-1.101,0.449c-0.976,0.454-1.574,0.744-1.791,0.875c-0.591,0.158-1.597,0.468-3.017,0.925
							c-0.601,0.187-1.443,0.48-2.528,0.881c-3.249,1.28-5.989,2.341-8.219,3.181c-2.797,0.882-5.578,1.811-8.343,2.785
							c-1.274,0.444-2.649,0.957-4.127,1.537c-1.308,0.496-2.299,0.951-2.978,1.364c-0.208,0.054-0.445,0.146-0.71,0.277
							l-0.52,0.341 M128.359,162.618c-0.569-1.143-0.893-2.059-0.97-2.748c-0.035-0.769-0.134-1.442-0.299-2.02 M116.354,187.168
							l2.182,2.597c0.965,1.184,1.511,2.026,1.638,2.528l1.566,4.8c0.576-0.186,0.935-0.316,1.079-0.386
							c1.138-0.554,2.243-1.176,3.317-1.863c1.225-0.809,2.295-1.672,3.21-2.587l1.159-1.305c0.51-0.565,1.031-0.931,1.56-1.095
							l2.279-0.778c0.853-0.322,1.426-0.589,1.721-0.803c-0.74-1.975-1.496-3.56-2.267-4.757l-3.153-4.659
							c-1.814-0.137-4.08,0.165-6.796,0.901c-2.436,0.66-4.061,1.299-4.874,1.92c-0.85,0.637-1.898,1.547-3.14,2.729
							c-1.935,1.541-5.016,3.55-9.245,6.023c-2.838,1.641-4.593,2.687-5.268,3.133l-0.119-0.135 M130.647,178.86l-1.923-2.936
							 M112.797,170.629c-0.181,0.16-0.314,0.318-0.402,0.479l-0.777,1.223l-4.114,4.524c-0.624,0.669-1.337,1.409-2.139,2.222
							l-2.244,2.186c-0.696,0.691-1.461,1.406-2.299,2.142c-0.571,0.514-1.718,1.302-3.441,2.365
							c-1.097,0.664-1.835,1.135-2.215,1.415 M102.803,194.286c-0.019,0.057,0.337,0.716,1.071,1.979
							c0.839,1.504,1.378,2.644,1.615,3.42c0.334,1.045,0.472,2.158,0.412,3.337c-0.017,0.23-0.004,0.835,0.039,1.812l0.619-0.354
							c0.342-0.214,0.571-0.396,0.685-0.546c0.417-0.203,1.554-0.687,3.411-1.452c2.639-1.112,4.08-1.743,4.322-1.897
							c1.314-0.792,2.425-1.523,3.334-2.189c0.419-0.298,1.154-0.604,2.21-0.919c0.479-0.148,0.887-0.276,1.222-0.383
							 M92.202,205.002c-0.03,0.227,0.054,0.666,0.256,1.32c0.191,0.728,0.301,1.208,0.331,1.439l-0.1,1.528
							c-0.03,0.178-0.023,0.639,0.022,1.38c0.468-0.243,1.198-0.53,2.188-0.855c1.392-0.468,2.306-0.808,2.742-1.021
							c2.085-0.923,3.801-1.713,5.147-2.368c1.072-0.5,1.899-0.908,2.482-1.229l0.669-0.362 M84.291,193.544
							c-0.09,0.031-0.282,0.155-0.577,0.369l-2.523,1.83c-0.417,0.25-1.048,0.704-1.889,1.361c-0.752,0.578-1.579,0.94-2.481,1.086
							c-1.31,0.227-3.44,0.827-6.394,1.797c-2.499,0.843-4.622,1.328-6.369,1.45c-2.012,0.16-4.304,0.585-6.878,1.277l-1.872,0.491
							c-1.812,0.449-3.324,0.764-4.538,0.945c-0.481,0.071-1.735,0.114-3.758,0.126c-1.958,0.004-3.513-0.019-4.663-0.069
							c-1.848-0.036-4.045-0.232-6.59-0.588c-3-0.45-5.608-1.056-7.823-1.818c-2.172-0.749-3.764-1.487-4.777-2.214
							c-1.081-0.798-2.772-2.532-5.072-5.201c-0.374-0.428-0.966-1.296-1.779-2.601c-0.329-0.508-0.849-1.357-1.56-2.549
							l-0.501-0.882 M68.064,215.718c0.027,0.608,0.094,1.263,0.201,1.962c0.093,0.646,0.185,1.089,0.277,1.326
							c0.168-0.041,0.341-0.085,0.518-0.128l6.88-1.701c0.842-0.2,1.754-0.579,2.736-1.141c0.896-0.513,1.563-0.843,1.998-0.992
							c-0.304-0.814-0.477-1.458-0.519-1.931l-0.077-1.423 M80.674,215.043c0.099-0.034,0.186-0.06,0.262-0.075
							c3.098-0.746,5.242-1.318,6.435-1.712c2.073-0.659,3.744-1.456,5.014-2.393c0.088-0.062,0.198-0.126,0.328-0.195
							 M57.106,220.392l-0.042-0.015c-0.07-0.025-0.122-0.105-0.152-0.242c-0.082-0.265-0.161-0.749-0.233-1.453
							c-0.099-0.95-0.145-1.754-0.139-2.414c-0.028-0.515-0.11-1.189-0.249-2.027c-0.214-1.714-0.335-2.691-0.364-2.93
							c-1.154,0.226-2.52,0.501-4.095,0.827c-0.79,0.185-2.719,0.68-5.789,1.485c-0.119,0.48-0.148,1.392-0.091,2.739l0.019,0.906
							c0.11,2.246,0.575,3.51,1.392,3.793 M67.93,208.547l-3.909,1.043c-1.75,0.455-3.623,0.876-5.617,1.262
							c-0.673,0.117-1.499,0.271-2.477,0.46 M46.041,213.624c-0.231,0.03-0.806,0.14-1.722,0.329
							c-0.804,0.18-1.501,0.279-2.091,0.298l-2.308,0.034c-3.322-0.024-5.729-0.293-7.224-0.808
							c-1.777-0.612-3.053-1.075-3.83-1.389c-0.86-0.344-1.986-0.968-3.378-1.874c-0.794-0.519-1.369-0.923-1.725-1.21
							c-0.002,0.383,0.077,1.191,0.242,2.426c0.175,1.323,0.334,2.214,0.477,2.672c0.22,0.644,0.645,1.611,1.274,2.899
							c0.514,0.935,1.268,2.024,2.261,3.264c1.38,1.722,2.626,2.774,3.74,3.157c1.002,0.345,1.86,0.601,2.575,0.769l1.165,0.259
							c2.746,0.552,5.436,0.594,8.073,0.129c1.205-0.201,2.293-0.496,3.264-0.887l1.194-0.513c3.74-0.368,6.355-0.816,7.847-1.344
							 M64.265,219.946c0.676-0.09,2.101-0.404,4.277-0.941 M48.636,152.346c-0.403,0.114-0.954,0.341-1.656,0.683
							c-1.077,0.513-1.801,0.831-2.175,0.954c-0.375,0.125-1.802,0.744-4.286,1.862c-0.393,0.179-1.252,0.477-2.576,0.887
							c-1.245,0.36-1.999,0.629-2.266,0.806l-1.963,1.028c-0.858,0.429-1.456,0.769-1.794,1.016
							c-1.245,0.912-2.147,1.539-2.707,1.883c-0.864,0.538-1.658,0.991-2.384,1.356c-0.403,0.209-1.562,0.733-3.476,1.572
							c-1.033,0.48-1.789,0.954-2.264,1.421c-0.185,0.174-0.364,0.396-0.537,0.668 M13.279,179.006
							c-0.295,0.262-0.608,0.485-0.941,0.671c-0.536,0.321-0.865,0.657-0.986,1.009c-0.077,0.226-0.024,1.237,0.161,3.037
							l0.617,4.875c0.12,1.257,0.394,2.843,0.823,4.757c0.195,0.855,0.356,1.487,0.484,1.893c0.181,0.71,0.399,1.337,0.653,1.883
							c0.231,0.474,0.363,0.731,0.396,0.775l1.992,3.218c0.889,1.222,2.118,2.671,3.686,4.347c1.481,1.566,2.537,2.599,3.168,3.101
							c0.045,0.091,0.187,0.235,0.431,0.432 M16.479,201.124l-0.035,0.035l0.174,0.935c0.106,0.652,0.131,1.063,0.073,1.233
							c0.019,0.038,0.148,1.155,0.385,3.352c0.255,2.281,0.432,3.603,0.527,3.968c0.23,1.074,0.294,1.758,0.192,2.054
							c-0.184,0.536-0.827,1.348-1.928,2.437c-1.135,1.187-1.745,1.908-1.833,2.16c-0.034,0.099-0.042,0.168-0.024,0.206
							c0.042,0.109,0.231,0.223,0.57,0.339c0.437,0.15,1.589-0.242,3.458-1.177l0.238,2.331c0.121,1.667,0.117,2.683-0.008,3.049
							l-0.392,1c-0.397,0.922-1.017,2.016-1.865,3.287c-0.422,0.629-0.934,1.36-1.536,2.193l-0.04,0.388l0.109,0.51
							c0.154,0.605,0.562,1.022,1.225,1.251c0.269,0.092,1.114-0.122,2.54-0.64l2.102-0.815c1.101,0.379,1.726,0.579,1.876,0.599
							c0.698,0.035,1.219-0.448,1.564-1.448l0.12-0.552c0.073-0.117,0.116-0.337,0.134-0.664l0.067-0.331
							c0.104-0.579,0.172-1.092,0.2-1.54l0.005-0.425c0.808,0.262,1.283,0.189,1.425-0.22c0.165-0.479,0.103-1.425-0.185-2.833
							c-0.304-1.637-0.454-2.485-0.449-2.545c0.057-0.531,0.253-1.285,0.588-2.258 M143.997,181.943
							c0.281,0.743,0.951,1.684,2.01,2.822l3.332,3.655l1.012,1.39c0.553,0.821,0.927,1.525,1.118,2.112l0.587,1.528
							c0.599,1.011,1.56,1.744,2.887,2.201c1.297,0.446,2.866,0.221,4.705-0.676c1.541-0.763,2.394-1.385,2.56-1.864
							c0.252-0.733-0.374-1.69-1.876-2.87l-3.129-2.048c-1.725-1.084-2.947-1.889-3.661-2.42c-0.76-0.546-1.505-1.221-2.238-2.025
							l-1.441-1.727c-0.67-0.988-1.182-1.701-1.536-2.139c-0.232-0.333-0.44-0.554-0.624-0.665 M136.067,188.276l0.275,0.852
							c0.265,0.928,0.484,1.846,0.659,2.759l0.449,2.474c0.209,1.318,0.282,2.803,0.219,4.454l-0.005,0.426
							c-0.042,0.443-0.173,1.258-0.392,2.445c-0.041,1.311,0.432,2.137,1.42,2.477c1.24,0.428,2.676,0.156,4.304-0.814
							c0.833-0.454,1.566-0.998,2.195-1.634l0.264-0.218c2.734-2.119,4.137-3.285,4.209-3.497c0.039-0.114-0.608-1.392-1.943-3.841
							c-0.769-1.386-1.295-2.355-1.579-2.91c-0.126-0.231-0.213-0.388-0.264-0.469c-0.552-1.057-0.931-1.835-1.137-2.333
							c-0.523-1.142-1.305-2.602-2.348-4.382l-0.599-1.01 M139.505,178.976c-0.412-0.727-1.171-1.846-2.273-3.363 M155.372,148.229
							c-5.111-1.381-8.736-2.194-10.874-2.443"/>
						<path fill="#373535" d="M197.751,92.723c0.368,0.126,0.659-0.104,0.878-0.692c0.354-1.029,0.179-1.76-0.524-2.192
							c-0.253-0.134-0.523-0.203-0.804-0.206c-0.278,0.03-0.448,0.129-0.506,0.3c-0.074,0.212-0.03,0.66,0.127,1.346
							C197.08,92.105,197.357,92.587,197.751,92.723z M202.296,84.064c0.831,0.933,1.348,2.57,1.551,4.912
							c0.129,2.143-0.005,3.793-0.403,4.95c-0.282,0.818-0.683,1.39-1.206,1.714c-0.987,0.576-2.517,0.506-4.592-0.208
							c-3.469-1.195-5.605-3.422-6.409-6.681c-0.264-0.974-0.364-2.058-0.3-3.251c0.045-0.774,0.111-1.287,0.198-1.541
							c0.225-0.648,0.59-1.28,1.102-1.892c0.706-0.814,1.475-1.37,2.302-1.668C196.912,79.559,199.497,80.781,202.296,84.064z
							 M203.321,88.986c-0.243-2.041-0.779-3.58-1.603-4.623c-1.077-1.364-2.123-2.332-3.141-2.904l0.386,0.322
							c0.855,0.815,1.25,1.638,1.184,2.468l0.152,2.514c0.144,1.185,0.434,1.853,0.872,2.004c0.353,0.122,0.642,0.151,0.87,0.087
							c0.241-0.059,0.468-0.052,0.68,0.021c0.226,0.077,0.432,0.189,0.619,0.331C203.365,89.134,203.359,89.061,203.321,88.986z"/>
						<path fill="none" stroke="#373535" stroke-width="1.8144" stroke-miterlimit="10" d="M226.598,63.868
							c0.015,0.966-0.764,1.875-2.335,2.722c-0.076,0.542-0.223,0.965-0.437,1.27c-0.483,0.67-1.443,1.373-2.88,2.108
							c-0.005,0.015,0.044,0.149,0.144,0.404c0.056,0.161,0.036,0.352-0.054,0.573c-0.267,0.634-1.314,1.772-3.141,3.415
							c0.062,0.416,0.09,0.679,0.083,0.786c-0.023,0.34-0.152,0.674-0.392,1.002c-0.181,0.253-0.737,1.135-1.668,2.645
							c-1.248,1.841-2.87,3.871-4.865,6.087c-0.271,0.238-0.538,0.445-0.806,0.622c0.041,0.156,0.03,0.327-0.033,0.509l-0.137,0.331
							c0.129,0.125,0.266,0.328,0.404,0.613c0.208,0.403,0.29,0.668,0.247,0.795l-0.007,0.022l0.201,0.377"/>
						<path fill="none" stroke="#373535" stroke-width="1.8144" stroke-miterlimit="10" d="M212.133,85.251
							c-0.11-0.323-0.312-0.629-0.606-0.919"/>
					</g>
				</g>
			</g>
		</g>
	</g>
</g>
</svg>
