<?xml version="1.0" encoding="utf-8"?>
<!-- Generator: Adobe Illustrator 17.0.1, SVG Export Plug-In . SVG Version: 6.00 Build 0)  -->
<!DOCTYPE svg PUBLIC "-//W3C//DTD SVG 1.1//EN" "http://www.w3.org/Graphics/SVG/1.1/DTD/svg11.dtd">
<svg version="1.1" id="Layer_1" xmlns="http://www.w3.org/2000/svg" xmlns:xlink="http://www.w3.org/1999/xlink" x="0px" y="0px"
	 width="168.213px" height="252.401px" viewBox="66.455 4.367 168.213 252.401"
	 enable-background="new 66.455 4.367 168.213 252.401" xml:space="preserve">
<g id="Layer_4">
	<g>
		<path fill="#FFFFFF" d="M151.7,212.365c0.02,0.019,0.036,0.033,0.055,0.049c-0.014-0.014-0.026-0.028-0.04-0.043
			C151.709,212.369,151.704,212.367,151.7,212.365z"/>
		<path fill="#FFFFFF" d="M230.228,106.053c-0.879-0.176-1.772-0.235-2.64-0.47c0.009,0.002-0.281-0.115-0.344-0.131
			c-0.072-0.045-0.142-0.1-0.18-0.129c-0.103-0.208-0.107-0.499-0.079-0.861c1.102,0.095,2.304-0.769,1.883-2.136
			c-0.731-2.378-2.707-3.594-5.168-3.41c-0.685,0.051-1.227,0.496-1.517,1.048c-0.143,0.01-0.286,0.017-0.43,0.022
			c0-0.001,0-0.001,0-0.001c1.116-0.86,2.452-1.576,3.372-2.355c0.396-0.336,0.561-0.724,0.572-1.105
			c0.804-0.212,1.646-0.388,2.534-0.578c1.854-0.394,1.459-2.788,0-3.363c-2.565-1.009-3.611-2.468-5.159-4.283
			c0.484-1.033-0.014-2.559-1.503-2.559c-0.532,0-0.934,0.199-1.215,0.497c0.506-1.505,1.37-2.871,2.641-3.913
			c1.24-1.017,0.164-2.944-1.233-2.977c-2.304-0.052-4.596,0.101-6.889,0.266c0.127-0.045,0.258-0.09,0.378-0.135
			c1.024-0.388,1.323-1.399,1.116-2.233c1.111-0.354,2.226-0.703,3.339-1.06c2.134-0.681,1.222-4.048-0.926-3.363
			c-4.733,1.511-9.444,2.9-13.667,5.286c0.919-1.781,1.76-3.611,2.657-5.437c0.279-0.567,0.232-1.111,0.012-1.56
			c0.291-1.692-2.229-2.93-3.216-1.169c-0.859,1.532-2.679,2.221-4.17,2.993c-1.344,0.696-2.587,1.497-3.595,2.573
			c-0.277-0.048-0.553-0.1-0.833-0.127c-0.027-0.774-0.081-1.541-0.225-2.312c-0.028-0.153-0.089-0.291-0.165-0.421
			c0.234-0.259,0.465-0.52,0.685-0.788c1.412-1.724-1.04-4.206-2.465-2.465c-1.346,1.645-2.982,3.108-4.21,4.855
			c-0.016-0.071-0.027-0.142-0.044-0.212c-0.528-2.185-3.89-1.259-3.363,0.928c0.341,1.41,0.496,2.81,0.514,4.259
			c-1.062,1.469-1.724,3.344-1.739,5.642c-0.019,2.928-1.086,5.277-2.442,7.819c-0.808,1.514-1.606,3.006-2.389,4.503
			c-4.901,0.995-10.301,0.754-14.958,0.755c-5.973,0.002-11.58-0.731-17.389-2.089c-5.669-1.324-9.465-4.037-14.5-6.733
			c-0.335-0.179-0.678-0.329-1.023-0.465c-0.192-0.345-0.363-0.726-0.539-1.186c-0.658-1.712-1.825-3.361-3.283-4.677
			c-0.173-0.667-0.335-1.339-0.494-2.006c-0.365-1.519-1.066-2.737-1.985-3.739c-0.13-1.623-0.633-2.989-1.401-4.104
			c-1.127-3-1.547-6.1-1.975-9.289c-0.042-0.31-0.192-0.542-0.38-0.722c-0.208-3.668-0.387-7.352-1.233-10.914
			c-0.367-1.547-0.974-2.81-1.743-3.826c-0.416-2.069-1.066-4.137-1.99-6.229c-0.573-1.297-1.778-2.459-2.493-3.637
			c-0.158-0.262-0.628-2.499-0.762-2.909c-1.263-3.838-3.666-6.756-7.14-8.771c-0.115-0.067-0.235-0.113-0.351-0.173
			c0.099-0.341,0.041-0.717-0.325-1.029c-1.123-0.959-2.347-1.729-3.61-2.455c-0.113-0.127-0.222-0.26-0.339-0.38
			c-0.61-0.626-1.274-1.156-1.961-1.645c1.091-3.251,2.721-6.328,3.488-9.695c1.087-4.768-5.67-6.97-7.524-3.086
			c-1.725,0.069-3.393,1.206-3.809,2.957c-0.273,1.152-0.595,2.277-0.912,3.4c0.063-0.607,0.153-1.212,0.331-1.817
			c1.273-4.352-5.449-7.37-7.435-3.135c-1.138,2.427-2.401,4.725-3.129,7.2c-0.672-0.489-1.487-0.789-2.366-0.789
			c-2.218,0-4.068,1.85-4.068,4.068v4.068c0,0.488,0.103,0.953,0.266,1.39c-0.699,1.726-0.929,3.657-0.703,5.521
			c-2.429,1.769-3.625,4.4-5.058,7.025c-1.24,2.273,1.582,4.326,3.301,3.15c0.755,0.159,1.588-0.013,2.093-0.624
			c0.969-1.173,1.991-1.845,3.333-2.307c0.165-0.057,0.318-0.13,0.466-0.214c0.409,1.377,1.104,2.65,2.058,3.718
			c-1.716,1.431-2.886,3.363-3.179,5.623c-0.36,2.781,1.426,5.015,4.068,5.692c0.69,0.177,1.282,0.052,1.749-0.241
			c0.659,0.729,1.439,1.361,2.355,1.845v1.382c0,1.753,0.482,3.407,1.31,4.846c-0.456,1.079-0.707,2.328-0.719,3.732
			c-0.353,0.076-0.657,0.315-0.742,0.8c-0.454,2.619-2.064,4.813-2.366,7.477c-0.088,0.78,0.508,1.136,1.12,1.096
			c-1.599,3.715-3.87,7.245-5.669,10.711c-2.857,5.507-4.581,11.514-5.992,17.558c-1.204,1.89-1.932,3.968-2.058,6.293
			c-6.259,11.074,0.15,23.578,2.795,34.871c2.144,9.151,8.507,14.781,16.061,18.805c-0.358,1.581-0.332,3.245,0.101,4.822
			c0.628,2.28,2.244,4.653,4.378,5.808c0.057,0.49,0.139,0.977,0.271,1.456c0.443,1.611,1.22,2.827,2.227,3.894
			c-0.092,1.134,0.014,2.355,0.388,3.661c2.685,9.37,3.872,19.653,11.463,26.278c0.093,0.456,0.227,0.896,0.382,1.331
			c-0.028,0.429,0.05,0.861,0.227,1.245c-0.238,1.298,0.493,2.807,2.201,2.807c0.091,0,0.17-0.017,0.256-0.024
			c0.726,0.679,1.541,1.262,2.441,1.695c0.244,0.886,0.954,1.624,2.147,1.624c0.11,0,0.208-0.019,0.31-0.03
			c-0.046,0.438,0.05,0.912,0.394,1.397c0.164,0.23,0.32,0.464,0.481,0.696c0.08,6.495-3.064,10.69-5.574,16.508
			c-0.723,1.673-1.222,3.446-1.825,5.164c-0.996,2.838-4.144,4.81-5.867,7.247c-0.026,0.036-0.033,0.072-0.056,0.109
			c-0.051-0.01-0.106-0.009-0.158-0.016c0.17-0.346,0.012-0.86-0.489-0.855c-1.488,0.013-2.968,0.178-4.455,0.193
			c-0.169,0.001-0.294,0.067-0.387,0.159c-0.117-0.026-0.236-0.052-0.351-0.076c-1.639-0.336-2.749,0.921-2.894,2.199
			c-5.698-0.327-13.342-2.128-17.747,2.105c-1.624,1.561,0.845,4.023,2.465,2.465c0.358-0.344,0.773-0.616,1.213-0.853
			c0.155,0.692,0.689,1.251,1.623,1.17c3.419-0.294,6.841-0.076,10.267-0.194c0.885-0.03,1.757-0.131,2.626-0.26
			c0.145,0.038,0.301,0.066,0.474,0.067c3.158,0.019,6.361,0.143,9.21-1.401c0.251-0.136,0.423-0.315,0.56-0.509
			c0.313,1.91,2.877,2.738,4.001,1.448c0.918,0.823,1.988,1.477,3.2,1.754c1.212,0.275,2.601-0.822,2.144-2.144
			c-0.163-0.471-0.363-0.925-0.557-1.382c1.025,0.301,2.135,0.066,3.049-0.523c0.372-0.239,0.597-0.551,0.714-0.886
			c3.474,1.113,6.908,2.361,10.457,3.234c0.676,0.166,0.979-0.78,0.437-1.06c0.12-0.249,0.102-0.574-0.182-0.776
			c-3.158-2.237-7.134-2.777-11.003-3.093c-0.468-0.649-1.305-0.993-2.18-0.429c-0.072,0.045-0.146,0.078-0.209,0.103
			c-0.103-0.029-0.208-0.057-0.311-0.086c-0.013-0.009-0.022-0.017-0.035-0.026c0.107-0.244,0.079-0.549-0.209-0.731
			c-0.375-0.237-0.767-0.41-1.177-0.522c-0.184-0.163-0.36-0.33-0.56-0.481c-0.195-0.148-0.42-0.224-0.652-0.25
			c1.935-3.318,4.54-6.344,6.49-9.608c2.866-4.796,5.886-9.588,8.73-14.432c0.95-1.137,1.263-1.789,1.903-3.421
			c0.087-0.221,0.122-0.431,0.137-0.636c0.103-0.143,0.203-0.288,0.313-0.428c1.634-0.368,3.222-0.911,4.734-1.623
			c0.235,0.015,0.466,0.035,0.71,0.035c3.925,0,6.636-1.878,8.141-4.475c0.185,0.181,0.435,0.309,0.771,0.309
			c0.747,0,1.12-0.577,1.124-1.155c0.308,0.063,0.616,0.126,0.924,0.188c1.317,0.268,2.626,0.561,3.933,0.876
			c0.557,0.134,0.96,0.281,1.249,0.413c-0.136-0.129-0.292-0.293-0.463-0.503c0.15,0.182,0.315,0.345,0.478,0.509
			c0.8,0.367,0.65,0.6,0.04,0.043c0.974,0.967,2.171,1.605,3.462,1.967c1.378,1.899,3.336,3.358,5.605,3.933
			c-0.049,0.219-0.079,0.451-0.079,0.702v1.162c0,0.76,0.315,1.434,0.802,1.945c-0.431,1.848-0.425,3.883-0.23,6
			c-0.281,1.999-0.371,3.98,0.601,5.92c0.089,0.179,0.193,0.331,0.3,0.475c0.833,5.37,1.382,10.623-1.977,14.214
			c-0.181,0.194-0.316,0.396-0.432,0.601c-0.944,0.466-1.825,1.051-2.595,1.795c-0.085,0.081-0.126,0.171-0.179,0.26
			c-1.913,0.645-3.854,1.083-6.079,0.701c-2.601-0.449-4.913-1.354-7.564-0.872c-0.222,0.041-0.388,0.156-0.521,0.298
			c-1.329,0.209-2.53,0.652-3.825,1.37c-1.183,0.654-0.343,2.334,0.796,2.127c0.063,0.009,0.112,0.037,0.179,0.038
			c6.811,0.101,14.72,1.863,20.897-1.795c0.822,0.54,1.862,0.679,2.802,0.096c0.129,0.208,0.311,0.392,0.594,0.494
			c2.17,0.787,4.361,1.535,6.702,1.397c0.787-0.046,1.279-0.703,1.12-1.471c-0.102-0.499-0.298-0.936-0.533-1.34
			c1.225,0.046,2.449,0.093,3.675,0.1c1.499,0.008,1.498-2.316,0-2.325c-2.391-0.014-4.777-0.181-7.168-0.194
			c-0.013,0-0.021,0.006-0.031,0.007c-0.503-0.113-1.018-0.18-1.534-0.177c1.292-2.39,1.567-4.858,1.567-8.165
			c0-2.318-0.381-4.851-0.742-7.412c0.63-0.538,1.01-1.359,1.13-2.268c0.322-2.468,0.024-4.899-0.194-7.361
			c-0.034-0.379-0.123-0.743-0.262-1.079c0.021-0.093,0.057-0.182,0.067-0.278c0.214-1.981,0.16-3.657-0.103-5.615
			c-0.024-0.172-0.072-0.331-0.129-0.485c0.401-0.231,0.804-0.46,1.209-0.688c0.016,0.406,0.242,0.821,0.568,1.012
			c0.601,0.352,1.204,0.084,1.59-0.416c0.809-1.047,1.596-2.15,2.53-3.098c0.043,0.317,0.199,0.608,0.529,0.801
			c0.495,0.291,1.34,0.166,1.59-0.416c0.307-0.714,0.615-1.427,0.879-2.155c2.47-1.41,4.882-2.891,7.163-4.571
			c1.63-0.613,2.937-1.704,4.174-2.919c0.282-0.277,0.367-0.595,0.334-0.894c0.213-0.21,0.416-0.436,0.625-0.652
			c0.571-0.245,1.13-0.466,1.627-0.674c0.771-0.32,0.914-1.18,0.644-1.761c2.536-2.716,5.309-5.526,7.276-8.553
			c1.446-2.228,1.811-5.326,2.756-7.852c2.198-1.689,4.804-2.812,7.331-3.92c1.63-0.715,0.847-2.744-0.56-3.111
			c1.804-1.152,3.648-2.244,5.404-3.474c1.139-0.798,0.891-2.275,0.095-2.959c0.581-0.749,0.352-1.788-0.274-2.379
			c0.178-0.072,0.338-0.159,0.466-0.268c0.231-0.027,0.463-0.093,0.681-0.205c1.306-0.666,2.497-1.496,3.646-2.404
			c0.747-0.59,0.613-1.853,0-2.465c-0.73-0.73-1.72-0.589-2.465,0c-0.205,0.162-0.427,0.299-0.64,0.45
			c-0.267-0.445-0.739-0.766-1.42-0.766c-1.061,0-2.118,0.033-3.172,0.121c-0.003-0.08-0.006-0.162-0.009-0.242
			c0.206-0.083,0.392-0.212,0.54-0.391c1.504-1.821,3.466-3.108,5.23-4.649c0.284-0.248,0.442-0.522,0.515-0.8
			c1.023-0.573,2.034-1.166,3.006-1.833c0.586-0.402,0.807-0.982,0.779-1.545c0.069-0.109,0.143-0.216,0.18-0.332
			c0.057-0.046,0.113-0.093,0.17-0.138c1.046-0.847,0.386-2.631-0.81-2.913c1.203-0.932,2.081-2.233,2.906-3.546
			c0.295-0.47,0.205-0.923-0.064-1.247c0.062-0.395-0.024-0.788-0.23-1.124c0.014-0.028,0.029-0.055,0.042-0.083
			c0.301-0.167,0.604-0.332,0.902-0.501c1.961-1.101,0.203-4.113-1.76-3.01c-0.308,0.172-0.616,0.344-0.925,0.515
			c-0.272,0.046-0.527,0.18-0.742,0.411c-0.13,0.072-0.262,0.146-0.393,0.219c2.219-3.565,3.824-7.454,6.187-10.966
			c1.26-1.871-1.763-3.615-3.01-1.761c-0.318,0.474-0.622,0.957-0.915,1.445c-0.038-0.875-0.18-1.705-0.417-2.479
			c1.076-1.96,2.13-3.929,2.874-5.987c0.13-0.363,0.237-0.735,0.334-1.11c0.287-0.006,0.59-0.1,0.897-0.331
			c1.512-1.134,3.259-1.513,5.007-2.149c1.428-0.52,1.732-2.325,0.416-3.187c-2.071-1.356-3.389-3.701-3.988-6.159
			c0.119,0.315,0.336,0.608,0.679,0.84c1.203,0.816,2.342,1.592,3.709,2.112c1.147,0.437,2.11-0.656,2.206-1.681
			C233.994,107.982,232.415,106.49,230.228,106.053z M126.907,252c-1.802-0.51-3.583-1.087-5.362-1.675
			C123.426,250.635,125.251,251.133,126.907,252z"/>
	</g>
	<path fill="#FFFFFF" d="M210.52,177.721c-0.077,0.036-0.148,0.083-0.223,0.121c-0.066,0.024-0.121,0.059-0.176,0.094
		c-4.013,2.022-6.834,5.694-10.835,7.727c-1.335,0.679-0.16,2.685,1.174,2.007c4.14-2.104,7.004-5.974,11.235-7.942
		C213.051,179.096,211.87,177.094,210.52,177.721z"/>
</g>
<g id="Layer_2">
	<g>
		<g id="Layer_1_1_">
			<g>
				<g id="Layer_1_3_">
					<g>
						<g>
							<path fill="none" d="M190.316,92.21V91.3c0.033,0.192,0.049,0.495,0.049,0.91H190.316z"/>
							<polygon fill="none" points="193.173,107.703 193.396,107.767 193.173,107.767 							"/>
							<g>
								
									<path fill="none" stroke="#C14640" stroke-width="1.7434" stroke-linecap="round" stroke-linejoin="round" stroke-miterlimit="3" d="
									M95.474,178.15c0.138,0.287,0.266,0.644,0.382,1.069"/>
								
									<path fill="none" stroke="#C14640" stroke-width="1.7434" stroke-linecap="round" stroke-linejoin="round" stroke-miterlimit="3" d="
									M121.993,159.801c0.031-0.043,0.069-0.064,0.112-0.064"/>
								
									<line fill="none" stroke="#C14640" stroke-width="1.7434" stroke-linecap="round" stroke-linejoin="round" stroke-miterlimit="3" x1="150.698" y1="161.476" x2="150.586" y2="161.476"/>
							</g>
							<polygon fill="none" points="160.272,215.758 160.047,216.252 160.208,215.758 							"/>
							
								<path fill="none" stroke="#373535" stroke-width="1.7434" stroke-linecap="round" stroke-linejoin="round" stroke-miterlimit="3" d="
								M84.337,27.525c0.096-0.543,0.244-1.069,0.446-1.58c0.341-0.84,0.808-1.399,1.404-1.676c0.384-0.223,0.681-0.351,0.894-0.382
								c0.585-0.17,1.346-0.229,2.282-0.176c0.149,0,0.282,0.022,0.399,0.064c1.596,0.16,2.809,1.09,3.638,2.793
								c-0.17,0.724-0.861,1.468-2.075,2.234l-0.846,0.51c-0.106,0.031-0.176,0.069-0.207,0.112
								c-0.393,0.159-0.787,0.271-1.181,0.335c-0.616,0.074-0.973,0.112-1.068,0.112h-0.112c-1.096-0.106-2.197-0.702-3.303-1.786"
								/>
							
								<path fill="none" stroke="#373535" stroke-width="1.7434" stroke-linecap="round" stroke-linejoin="round" stroke-miterlimit="3" d="
								M225.739,87.726l-4.642-2.68c2.265-2.276,3.419-3.75,3.462-4.42c-0.053-0.234-0.335-0.553-0.846-0.958
								c-0.628-0.585-1.315-0.846-2.058-0.782c-3.616,0.788-5.728,1.181-6.333,1.181c0.106-1.456,2.18-3.138,6.223-5.042v-1.962
								h-5.49c-5.713,1.809-9.031,3.207-9.956,4.196c0.659-2.18,1.086-3.877,1.277-5.09c0.022-0.159,0.101-0.755,0.239-1.788
								c-0.065-1.553-0.219-2.447-0.463-2.68c-0.234,0.234-0.904,0.755-2.01,1.563c-0.351,0.202-0.633,0.388-0.846,0.558
								l-3.351,2.298c-0.149,0.064-0.262,0.138-0.336,0.223c-1.84,1.181-3.18,2.148-4.02,2.903
								c-0.318,0.202-0.601,0.425-0.846,0.671c-0.053,0.053-0.41,0.388-1.069,1.005 M196.587,75.249l-0.957,0.447l1.181-6.272
								c-0.266-0.617-0.4-1.08-0.4-1.388c-0.616,0.053-1.345,0.388-2.186,1.005c-0.649,0.479-1.371,1.148-2.169,2.01l-0.065,0.064
								c-1.435,1.501-2.239,2.335-2.408,2.506c-0.223,0.192-0.388,0.339-0.495,0.446l-0.735,0.51l-0.048,0.049l-0.399-0.447
								c0.287-0.894,0.174-1.786-0.335-2.68c-0.033-0.031-0.049-0.069-0.049-0.112l-0.686-1.005
								c-0.266-0.393-0.415-0.638-0.447-0.733c-0.616,7.521-1.415,13.323-2.393,17.409c-1.065,4.393-2.314,7.057-3.751,7.993
								 M192.662,107.767c-1.245,2.16-2.176,3.559-2.792,4.196c-0.266-0.266-0.399-0.585-0.399-0.958l0.957-2.01
								c2.158-4.701,3.239-8.005,3.239-9.909l-0.495-2.521c-0.043-0.106-0.065-0.234-0.065-0.382
								c-0.031-0.128-0.052-0.219-0.064-0.271c-0.01-0.064-0.006-0.107,0.016-0.128c-0.318,0-0.733,0.223-1.244,0.671
								c-0.842,0.607-1.883,1.559-3.127,2.857h-0.384v-0.066l0.048-0.048c1.298-2.967,1.968-5.281,2.011-6.941
								c0-0.447-0.016-0.766-0.049-0.958v-0.431 M189.871,82.685c0,0.393-0.17,1.382-0.51,2.967
								c-0.351,1.373-0.574,2.197-0.669,2.473 M181.301,95.113c-0.363,0.65-0.659,1.117-0.894,1.404
								c-0.639,0.543-1.739,1.08-3.303,1.612v-1.053c-0.351,0.159-1.191,0.585-2.521,1.276c-2.766,1.426-4.665,2.137-5.696,2.137
								c-0.531,0-0.943-0.058-1.229-0.176c-0.043-0.031-0.101-0.048-0.176-0.048c-0.489-0.277-0.735-0.671-0.735-1.181l0.288-0.733
								c0.073-0.33,0.112-0.532,0.112-0.606h-2.744c-3.745,0.223-6.446,0.351-8.106,0.382l1.165,0.782h-3.751
								c-6.935-1.011-10.923-2.313-11.967-3.909h1.181c-3.574-2.117-6.69-4.559-9.35-7.324c-0.16-0.117-0.293-0.25-0.4-0.399
								c-0.372-0.414-0.872-1.047-1.499-1.899l-1.516-2.185c-1.287-2.042-2.5-4.564-3.638-7.563
								c-1.053-2.925-1.871-5.983-2.457-9.175c-1.458-6.606-2.244-10.706-2.362-12.302l0.112-0.399
								c-0.223-0.904-0.76-2.542-1.611-4.915c-1.415-3.787-2.329-6.01-2.744-6.669h0.336c0.382,0.384,0.754,0.91,1.116,1.58V42.62
								c0-1.032-0.744-2.356-2.233-3.973c-1.053-1.16-1.914-2.314-2.585-3.462 M177.105,97.077v-0.112
								c0.223-0.277,1.138-0.671,2.744-1.181v0.4C179.308,96.184,178.393,96.481,177.105,97.077z M146.326,111.565
								c0.745-0.308,3.824-0.739,9.238-1.292c5.085-0.543,8.462-0.84,10.133-0.894h0.048c0.266-0.033,0.601-0.049,1.004-0.049h0.336
								c0.903,0,1.727,0.052,2.473,0.159c1.339,0.181,2.494,0.479,3.462,0.894c2.606,1.065,4.287,1.74,5.042,2.027l0.048,0.049
								h0.064c0.15,0.043,0.336,0.117,0.559,0.223l0.079,0.04c0.382,0.172,0.728,0.307,1.038,0.408v0.399
								c-0.291-0.339-0.637-0.608-1.038-0.805 M192.775,107.767h0.399 M192.55,119.064c0.16-0.372,0.33-0.671,0.51-0.894h0.335
								C193.023,118.576,192.741,118.873,192.55,119.064l-1.117,0.958l-0.048,0.048c-0.117,0.031-0.191,0.07-0.223,0.112
								c-0.903,0.745-1.786,1.287-2.648,1.627c-0.363,0.107-0.693,0.159-0.99,0.159h-0.399c4.883-4.883,7.324-8.536,7.324-10.962
								c-0.022-0.074-0.058-0.149-0.112-0.223c-0.053-0.074-0.091-0.132-0.113-0.174c-0.553-1.043-0.83-1.99-0.83-2.841
								 M223.331,88.126c0.329,0.277,1.877,1.356,4.642,3.239c1.542,1.105,2.347,2.075,2.409,2.905c0,0.287-0.878,1-2.634,2.137
								c-1.85,1.234-2.914,2.203-3.19,2.905c3.095,0.053,4.643,0.819,4.643,2.298c-0.043,0.808-0.549,1.501-1.517,2.075
								c-1.19,0.372-1.84,0.574-1.947,0.606v0.399c2.617,0.384,4.686,1.276,6.208,2.68c1.234,1.074,1.85,2.228,1.85,3.462
								c-0.064,1.011-0.568,1.516-1.516,1.516c-0.754-0.968-1.782-1.453-3.079-1.453h-0.384c3,3.404,4.527,5.308,4.579,5.713
								c0,1-0.99,1.835-2.969,2.505c-1.883,0.638-3.26,1.425-4.133,2.362c-0.244,0.298-0.616,0.558-1.117,0.781
								c-0.095,0.341-0.394,1.123-0.894,2.346c-0.33,0.702-0.894,1.825-1.691,3.367c-0.925,1.67-1.707,2.914-2.347,3.733
								c1.011-0.851,3.192-2.659,6.543-5.424v-0.447 M225.18,122.255c0.074-0.617,0.113-0.973,0.113-1.069h0.83 M114.095,34.002
								c-0.384-0.851-0.623-1.447-0.718-1.786h-0.112v-0.495c0.031,0.107,0.07,0.271,0.112,0.495c0.324,0,0.582,0.093,0.774,0.279
								c-6.325-6.505-10.876-10.668-13.65-12.485 M114.151,32.495l0.016,0.016c0.102,0.102,0.191,0.174,0.263,0.216v0.446
								c-0.051-0.31-0.139-0.531-0.263-0.661 M121.706,54.155c0.12,0,0.214,0.074,0.279,0.223c-0.045-0.18-0.1-0.387-0.169-0.622
								 M121.984,54.378c0.052,0.127,0.087,0.302,0.103,0.527c0.01,0.112,0.016,0.234,0.016,0.367 M101.059,5.249
								c-1.904-0.117-3.936,0.739-6.095,2.569c-1.521,1.255-2.659,2.654-3.415,4.196c-0.021,0.244-0.117,0.84-0.287,1.788H90.83
								c0.181-0.702,0.42-1.298,0.718-1.788c0.043-0.404,0.064-0.946,0.064-1.627c0-1.234-0.26-2.203-0.781-2.905
								c-0.84-0.915-1.782-1.255-2.824-1.02c-1.032,0.234-2.18,1.043-3.446,2.425c-2.531,2.756-4.042,6.111-4.532,10.069H79.63
								c-0.277-2.085-0.5-3.351-0.671-3.797c-2.117-0.84-3.531,0.07-4.245,2.729c-0.733,2.712-1.127,6.052-1.181,10.02
								c-0.053,1.127,0.074,2.079,0.384,2.856c0.968-0.724,2.633-3.016,4.993-6.877c0.714-1.224,1.606-2.25,2.681-3.08
								c3.979-3.192,10.318-3.712,19.02-1.563h0.064l1.388,0.335v-0.957c-0.479-0.712-1.127-1.069-1.947-1.069
								c2.085-3.958,3.127-6.978,3.127-9.062C103.244,6.371,102.515,5.292,101.059,5.249z M87.464,26.008l0.064-0.064
								c0.107-0.107,0.219-0.181,0.336-0.223l0.223-0.159c0.074-0.043,0.165-0.08,0.271-0.112 M87.911,29.583l-0.941-2.122
								c-0.043-0.033-0.064-0.086-0.064-0.159c-0.107-0.33-0.159-0.537-0.159-0.623c0-0.159,0.149-0.33,0.446-0.51 M88.692,25.275
								c0.415-0.053,0.809,0.079,1.181,0.399c0.149,0.138,0.318,0.363,0.51,0.671l0.16,0.336c0.149,0.287,0.223,0.68,0.223,1.181
								 M79.246,33.732c-0.979-0.223-1.521-0.357-1.627-0.399h-0.064c-1.447-0.489-2.451-0.994-3.015-1.516
								c-0.415-0.33-0.623-0.681-0.623-1.053c-0.755-0.106-1.776,0.995-3.064,3.303l-0.51,0.894
								c-0.117,0.223-0.266,0.542-0.446,0.957c-0.415,0.883-0.676,1.532-0.782,1.947c-0.192,0.628-0.324,1.303-0.399,2.026
								c-0.159,1.478-0.138,2.447,0.064,2.905c0,0.031,0.016,0.07,0.048,0.112l0.399,0.048c1.904-1.084,4.27-2.484,7.1-4.196
								c0.244-0.149,0.415-0.239,0.51-0.271h0.048c3.074-1.202,5.707-1.893,7.898-2.075c1.319-0.159,2.287-0.59,2.905-1.292
								l1.627-1.724c-0.149,0,0.037-0.543,0.558-1.627c-3.659,1.511-6.553,2.24-8.68,2.186h-0.048
								c-0.638-0.042-1.084-0.079-1.34-0.112c-0.033-0.031-0.053-0.048-0.064-0.048 M69.226,42.954
								c0.266,0.51,0.58,0.644,0.941,0.399c0.384-0.266,0.665-0.452,0.846-0.558c1.947-1.255,4.053-2.186,6.319-2.792
								c0.83-0.235,1.468-0.384,1.914-0.446h0.271l1.404-0.239c1.468-0.17,2.866-0.223,4.196-0.159c0.106-0.064,0.234-0.064,0.384,0
								c0.585,0,0.851-0.058,0.797-0.176c0.968-0.798,1.654-1.67,2.058-2.616c0.074-0.202,0.17-0.388,0.287-0.558
								c0.107-0.341,0.181-0.607,0.223-0.798c0.181-0.702,0.33-1.239,0.446-1.612 M79.246,39.556c0.266,2.042,0.266,3.702,0,4.978
								c0,1.234,0.053,2.334,0.159,3.303v0.271c0.404,2.426,1.245,4.16,2.521,5.202c0.031,0.043,0.106,0.101,0.223,0.176
								c0.468,0.351,0.973,0.611,1.516,0.782c0.074,0.031,0.187,0.07,0.336,0.112c0.467,0.107,0.989,0.159,1.563,0.159h0.223
								c0.925,0,2.137-0.686,3.638-2.058c0.18-0.149,0.33-0.26,0.446-0.336l0.718-0.733c2.17-2.212,3.648-3.351,4.435-3.415
								c1.745-0.159,3.218-1.187,4.42-3.08l0.112-0.112c1.117-1.734,1.675-3.616,1.675-5.648c0-1.394-0.186-2.308-0.558-2.744
								c-0.787-0.819-1.538-1.6-2.25-2.346c-0.223-0.244-0.537-0.394-0.941-0.446c-0.33-0.064-0.686,0.01-1.069,0.223
								c-0.628,0.277-1.26,0.819-1.899,1.627l-0.048,0.049l-0.686,0.894c-1.978,2.595-3.489,4.032-4.532,4.309
								c-0.723,0.064-1.989-0.404-3.797-1.404l-0.335-0.159 M79.246,39.556c-0.117,0.339-0.25,0.58-0.399,0.718
								c-1.266,2.362-1.898,4.824-1.898,7.388c0,0.415,0.037,0.883,0.112,1.404c0,0.149,0.016,0.277,0.048,0.384
								c0.192,0.989,0.489,1.814,0.894,2.473c0.84,1.563,2.148,2.027,3.925,1.388 M83.666,54.267l0.336,0.271
								c0.223,0.51,0.335,1.41,0.335,2.697 M68.827,107.767l0.088-0.184c0.107-0.238,0.173-0.422,0.199-0.551
								c0.031-0.192,0.07-0.339,0.112-0.446v0.112l1.627-3.861c0.031-0.117,0.069-0.192,0.112-0.223l0.894-2.234v-0.064
								c0.031-0.149,0.122-0.372,0.271-0.669c1.702-4.203,2.579-6.606,2.633-7.213l-0.446,0.384h-0.399
								c4.404-7.648,6.702-11.638,6.892-11.967h-0.335c-0.074,0.554-0.357,1.075-0.846,1.564l0.733-1.675
								c1.191-2.862,2.032-4.824,2.521-5.888c0.149-0.404,0.239-0.628,0.272-0.671c-0.033,0-0.07-0.016-0.112-0.048
								c-0.372-0.5-0.112-1.846,0.781-4.037c1.309-3.233,1.963-6.271,1.963-9.111c0-0.979-0.357-2.228-1.069-3.75 M77.331,40.002
								c0.617,0.595,1.122,0.686,1.516,0.271 M69.114,107.033c0.031-0.117,0.07-0.192,0.112-0.223v-0.112 M69.114,107.033
								c0,0.095-0.016,0.177-0.048,0.248l0.159-0.311v-0.159 M71.571,103.109l0.399,0.399c-0.372,1-0.617,2.176-0.733,3.526
								c-0.033,0.372-0.049,0.952-0.049,1.74c0,0.628,0.053,1.187,0.159,1.676c0.181,0.872,0.516,1.638,1.005,2.298
								c0.382-0.755,0.814-1.431,1.292-2.027c1.063-1.34,2.164-2.063,3.303-2.17c0,0.106,0.016,0.18,0.048,0.223
								c0.287,2.01,1.165,3.26,2.633,3.75c0.415,0.149,0.936,0.223,1.563,0.223c2.447,0,3.755-1.399,3.925-4.196h0.446
								c-0.181,0.467-0.107,0.952,0.223,1.452c0.159,0.244,0.458,0.558,0.894,0.941c1.064,0.894,2.261,1.361,3.59,1.404h0.384
								c1.297,0,2.882-0.485,4.755-1.453l0.622-0.335c0.149-0.117,0.372-0.25,0.671-0.399l1.899-1.229
								c-0.063-0.292-0.15-0.477-0.264-0.551l-0.008-0.008c-0.256-0.17-0.745-0.223-1.468-0.159 M68.604,126.277
								c-0.521-2.554-0.819-4.399-0.894-5.537v1.005c-0.031-0.553-0.07-0.941-0.112-1.165c-0.181-2.351-0.272-3.676-0.272-3.973
								c0-2.192,0.262-4.266,0.782-6.223c0.479-1.361,0.793-2.387,0.941-3.079l-0.136,0.279 M69.05,107.305l0.016-0.024
								 M98.338,108.381c0.03,0.015,0.171,0.072,0.423,0.169c0.107,0,0.708-0.134,1.803-0.4l1.501-0.382 M132.907,87.726
								c-0.213,0.043-0.42,0.138-0.622,0.288c-0.819,0.33-1.548,0.494-2.186,0.494c-0.702,0-1.574-0.394-2.616-1.181 M154.782,98.13
								h1.517l-1.134-0.781L154.782,98.13z M113.872,96.965c0.223-0.128,0.372-0.202,0.446-0.223
								c0.022-0.021,0.117-0.079,0.288-0.176c0.277,0,0.5,0.037,0.671,0.112c0.052,0.053,0.037,0.149-0.049,0.287
								c0,0.17-0.155,0.522-0.463,1.053c-0.318,0.564-0.968,1.516-1.947,2.857c-0.446,0.574-1.084,1.319-1.914,2.234l-0.159,0.223
								c-0.638,0.596-1.086,0.915-1.34,0.958h-2.744l-0.399-0.606 M119.088,91.253l0.224,0.159v0.622
								c0.213,0,0.622,0.096,1.229,0.287c0.287,0,0.585-0.074,0.894-0.223c0.106-0.043,0.181-0.085,0.223-0.128
								c0.681-0.298,1.447-0.931,2.298-1.899c0.766-0.883,1.303-1.611,1.612-2.186l0.176-0.494 M125.901,86.945
								c-0.053-0.053-0.053-0.112,0-0.176v-0.049c-0.053-0.318-0.144-0.543-0.271-0.671c-0.192-0.192-0.473-0.287-0.846-0.287
								 M129.093,149.62c-0.033,0-0.07,0.016-0.112,0.048l-0.718,0.51l-0.399-0.399v-0.718
								C128.333,149.232,128.742,149.418,129.093,149.62c0.043-0.042,0.08-0.064,0.112-0.064c0.192-0.223,0.341-0.372,0.446-0.447
								l0.623-0.606c1.117-1.224,1.882-2.738,2.298-4.547l0.159-1.005c0.043-0.404,0.065-1.053,0.065-1.947 M102.797,160.534
								c0.192-0.042,0.787-0.138,1.788-0.287h0.176c0.468-0.053,1.138,0.134,2.011,0.558c0.266,0.107,0.473,0.219,0.622,0.335
								c0.862,0.574,2.223,0.895,4.085,0.958c1.681-0.138,2.573-0.214,2.68-0.223c1.011-0.17,2.128-0.394,3.351-0.669
								c1.702-0.372,3.196-0.841,4.483-1.404c0.031-0.043,0.069-0.064,0.112-0.064c0.223-0.128,0.467-0.256,0.733-0.384l0.048-0.064
								c0.149-0.107,0.282-0.198,0.4-0.271v-0.735c-1.043-0.042-2.091,0.202-3.144,0.735l-0.384-0.399
								c3.266-0.712,5.857-1.495,7.771-2.347c2.478-1.095,3.75-2.25,3.813-3.462c0-1.212-0.653-2.239-1.962-3.079 M114.43,163.215
								h10.643c0.712,0.053,3.638,0.745,8.776,2.075c0.754,0.17,1.26,0.298,1.516,0.382c5.414,1.373,11.292,2.903,17.632,4.596
								h0.048c0.192,0.03,0.527,0.106,1.005,0.222c4.531,0,7.908-1.531,10.132-4.595c0.095-0.17,0.17-0.282,0.223-0.335
								l-0.718,0.174h-0.174l-1.166,0.231l-0.031,0.008l-0.072,0.016l-0.072,0.016c-0.372,0.095-0.782,0.17-1.23,0.223h-0.669
								c-0.372,0.042-0.915,0.064-1.627,0.064 M85.964,136.249v3.973c0.819,3.883,2.085,6.026,3.797,6.43 M68.715,126.899
								l0.894,4.42c0.564,2.554,0.883,4.042,0.958,4.468c0.043,0.149,0.064,0.303,0.064,0.463c0.053,0.159,0.165,0.382,0.336,0.671
								c0.808,1.755,2.207,4.999,4.196,9.733c-0.425-0.425-0.915-1.229-1.468-2.409c-0.33-0.616-0.568-1.1-0.718-1.452
								c-0.149-0.341-0.223-0.601-0.223-0.782l-0.399-0.222c0.117,0.256,0.266,0.644,0.446,1.165
								c0.915,2.414,1.74,4.074,2.473,4.978l0.494,0.574c0.298,0.446,0.521,0.76,0.671,0.941h0.112c0,0.043,0.037,0.117,0.112,0.223
								c0.968,1.191,1.696,2.24,2.185,3.143c0.415,0.522,1.123,1.453,2.122,2.793c0.106,0.073,0.18,0.165,0.223,0.27v-0.382
								c0.138,0.214,0.421,0.532,0.846,0.957c0.702,0.575,1.223,1.15,1.563,1.724c0.223,0.361,0.357,0.644,0.399,0.846h-0.399
								l-2.409-3.144c0.192,0.119,0.473,0.31,0.846,0.574 M89.251,163.597c0.149,0,0.262,0.022,0.336,0.065
								c-0.074-0.074-0.277-0.245-0.607-0.51c-0.425-0.33-1.51-1.297-3.254-2.905l-1.276-1.291 M103.914,156.609
								c-0.074-0.074-0.149-0.112-0.223-0.112c-0.84,0.553-1.511,0.872-2.011,0.957c-0.808,0-1.761-0.318-2.856-0.957
								c-1.107-0.692-2.223-1.553-3.351-2.585c-0.925-0.958-1.782-1.872-2.569-2.745c-0.585-0.638-0.888-0.967-0.91-0.989
								 M76.662,149.668l-0.223-0.223h-0.271c0.117,0.064,1.01,1.187,2.68,3.366 M91.611,172.055
								c-1.489-3.245-2.276-5.015-2.362-5.313v-3.031 M123.731,218.504c-0.318-0.074-0.665-0.138-1.037-0.192
								c-0.372-0.043-0.628-0.074-0.766-0.096c-0.213-0.064-0.324-0.1-0.335-0.112l-4.196-0.958
								c-1.032-0.414-1.666-0.787-1.899-1.116c0.223,0.51,0.335,1.148,0.335,1.914v0.048c-0.692,0.053-1.771-0.58-3.239-1.899
								l-0.622-0.558c-0.074,0.073-0.165,0.112-0.272,0.112c-1.107-0.531-2.191-1.596-3.254-3.19
								c-0.968-1.606-1.452-2.707-1.452-3.303c0.127,0,0.314,0.037,0.558,0.112c-0.733-0.553-1.723-2.101-2.967-4.643
								c-0.798-1.617-1.34-2.808-1.627-3.573c-0.234-0.532-0.378-1.022-0.431-1.469l-0.064-0.048v-0.152v-0.024
								c-0.021-0.043-0.042-0.085-0.064-0.127c-2.572-5.442-4.359-10.527-5.362-15.254l-1.181-4.755
								c-0.117-0.425-0.244-0.782-0.382-1.069c-0.776-1.84-1.803-3.462-3.08-4.868 M102.463,199.379
								c0.002,0.102,0.024,0.169,0.064,0.2l0.049,0.065c-0.033-0.15-0.07-0.245-0.112-0.288 M102.957,201.047
								c-0.052-0.596-0.18-1.065-0.382-1.404 M108.622,254.531c-0.446-0.606-1.734-0.776-3.861-0.51l-1.675,0.224l-0.669,0.174
								c-0.16,0-0.277,0.022-0.351,0.064c-0.064,0.031-0.176,0.048-0.335,0.048c-2.607,0.459-5.457,0.665-8.552,0.623h-0.223
								c-0.479,0-1.638-0.037-3.479-0.113c-1.032-0.095-2.839-0.191-5.424-0.286c-1.563-0.074-2.516-0.113-2.857-0.113l-4.02-0.113
								l-0.223-1.962c0.521-0.329,0.909-0.59,1.165-0.782l1.245-1.004c0.308-0.223,0.697-0.537,1.165-0.941l0.223-0.239
								c0.883-0.596,2.341-0.894,4.373-0.894c1.394,0,4.08,0.244,8.058,0.733h0.335l2.793,0.335c2.053,0.234,3.696,0.458,4.93,0.671
								c-3.351-1.426-5.872-2.006-7.563-1.739l-0.16-1.388c1.691-0.564,3.052-0.847,4.085-0.847h1.005
								c0.446,0,0.781,0.022,1.005,0.065c0.649,0.031,1.563,0.159,2.744,0.382c0.074,0,0.132,0.022,0.176,0.064
								c0.074,0,0.202,0.037,0.384,0.113c0.149,0,0.26,0.016,0.335,0.048l0.51,0.176l0.159-0.223
								c0.384-0.532,0.644-0.867,0.782-1.005c1.191-1.542,2.552-3.467,4.084-5.777c1.287-2.106,2.09-3.446,2.409-4.02
								c3.318-6.126,4.978-11.723,4.978-16.786c0.234-0.234,0.384-0.458,0.446-0.669 M101.234,250.447
								c1.086-0.479,1.776-0.718,2.075-0.718c0.074,0.074,0.091,0.128,0.048,0.16c-0.127,0.329-0.463,0.515-1.005,0.558
								C101.777,250.511,101.404,250.511,101.234,250.447z M123.779,218.391h1.517l4.867-0.351l0.446-0.095h0.399
								c3.5-0.575,5.904-1.564,7.212-2.969v-0.51h0.4c-0.138,0.138-0.271,0.309-0.4,0.51v0.669c1.129,0,2.676-0.616,4.643-1.85
								c0.501-0.352,0.91-0.628,1.23-0.83l2.92-2.299c0.18-0.149,0.42-0.372,0.718-0.669c0.191-0.266,0.339-0.458,0.446-0.574
								c-0.053,0.202-0.404,0.855-1.053,1.962v0.399l0.16-0.174c0.043-0.074,0.192-0.239,0.447-0.495
								c1.202-1.331,2.117-2.341,2.744-3.031c1.19-1.373,2.18-2.49,2.967-3.351c0.15-0.298,0.239-0.522,0.271-0.671v0.384
								l-0.271,0.287c-0.659,1.606-1.181,2.648-1.563,3.127c0.479-0.543,2.25-2.701,5.313-6.477l0.048-0.065
								c0.266-0.298,0.473-0.543,0.622-0.733 M130.098,218.997c0.266-0.329,0.436-0.531,0.51-0.606
								c0.074-0.117,0.186-0.25,0.336-0.399l0.064-0.048 M109.451,254.531c1.639,0.788,2.888,1.182,3.751,1.182
								c1.871,0,2.749-0.708,2.633-2.122l-1.005-1.404c-1.352-1.893-2.058-3.089-2.122-3.59c-0.064-0.766,0.122-1.734,0.558-2.905
								c0.649-1.755,1.728-3.845,3.239-6.271c1.574-2.659,3.59-5.681,6.047-9.064c2.595-3.553,4.202-5.734,4.819-6.541l0.223-0.223
								c0.33-0.501,0.681-0.968,1.053-1.404l1.852-2.347c0.117-0.149,0.192-0.26,0.223-0.335 M147.618,212.28
								c0.223-0.33,0.485-0.495,0.782-0.495c0.256,0,1.489,0.654,3.703,1.963c2.456,1.489,3.872,2.642,4.244,3.462
								c0.266-0.99,0.399-1.771,0.399-2.347c0.256,0,0.384-0.132,0.384-0.399c0.425,0.117,0.931,0.303,1.516,0.558
								c0.031,0.043,0.085,0.079,0.16,0.112c0.095,0.053,0.473,0.223,1.133,0.51c0.031,0.031,0.085,0.048,0.159,0.048
								c0.043,0,0.08,0.022,0.113,0.065h0.064c1.627,0.776,3.137,1.521,4.531,2.234c0.479,0.234,0.74,0.366,0.782,0.399
								c0-0.234,0.128-0.606,0.382-1.117c0.053-0.234,0.186-0.515,0.4-0.846l1.499,0.079l0.782,0.335l0.558,0.239l1.66,1.643
								l1.038-2.058c0.085-0.17,0.782-0.586,2.09-1.245l1.931-0.925l1.245-2.074l3.813-2.57l3.925-1.148
								c0.723-0.531,1.477-1.123,2.265-1.77c1.563-1.309,2.494-2.265,2.792-2.873l3.607-7.228c1.723-0.957,2.76-1.643,3.111-2.058
								c0.554-0.681,1.325-1.681,2.314-3c1.297-1.734,1.967-2.729,2.01-2.984c0.042-0.256,0.808-1.032,2.298-2.329
								c1.606-1.34,2.527-2.117,2.76-2.329c1.319-1.043,2.521-2.006,3.607-2.888c2.106-1.703,3.351-2.766,3.734-3.192
								c0.361-0.404-0.144-0.574-1.517-0.509c-2.096,0.085-3.244,0.117-3.446,0.095c0.404-0.489,1.584-1.303,3.543-2.442
								c1.913-1.107,3.25-2.155,4.004-3.143c-0.915-0.287-1.483-0.824-1.707-1.612c-0.192-0.659-0.128-1.441,0.191-2.346
								c3.096-0.554,4.93-2.554,5.506-6c-0.544,0.479-1.872,0.718-3.99,0.718c-1.681,0-3.318-0.262-4.915-0.782
								c-0.669,0.339-1.175,0.601-1.516,0.782 M112.036,215.248c-0.287,0-0.399-0.128-0.336-0.384h-0.399l0.671,0.671
								C112.014,215.492,112.036,215.397,112.036,215.248z M114.828,252.186c1.096-0.107,2.681-0.479,4.755-1.117
								c0.138,0,1.165,0.521,3.08,1.564c2.137,1.01,3.611,1.516,4.419,1.516c1.383,0,2.128-0.022,2.234-0.064
								c0.564-0.223,0.958-0.857,1.181-1.899c-1.382-1.053-4.142-2.063-8.281-3.031c-4.244-0.946-7.228-2.101-8.951-3.462
								 M143.374,250l-1.627,0.623c-0.149,0.106-0.262,0.18-0.335,0.222c-0.245,0.138-0.489,0.363-0.735,0.671
								c-0.107,0.106-0.18,0.196-0.222,0.27l-1.388,1.914c-0.192,0.214-0.437,0.527-0.735,0.943
								c-0.117,0.064-0.214,0.155-0.287,0.271h0.574c3.085,0.085,6.272,0.219,9.558,0.399c3.468,0.192,5.782,0.324,6.941,0.4
								c0,0.17,0.186,0.223,0.558,0.159c0.937-0.042,3.267-0.75,6.99-2.121c1.02,0,1.638,0.073,1.85,0.222
								c0.341,0.192,3.309,0.772,8.903,1.74l0.447-0.4l-1.069-2.234c-0.436-0.83-0.771-1.41-1.004-1.739
								c-0.968-1.394-2.463-2.006-4.484-1.835c0.266-0.606,0.458-1.133,0.574-1.578c0.425-2.203,0.665-6.212,0.718-12.032
								l0.048-19.052 M159.937,215.647c0,0.149,0.037,0.351,0.112,0.606v0.336c0,0.042,0.016,0.079,0.048,0.112
								c0,0.234,0.022,0.404,0.065,0.51l1.452,12.812c0,0.596,0.016,1.063,0.048,1.404l0.176,2.521c0,1.148,0.016,2.021,0.048,2.617
								c0.17,5.988-0.574,10.036-2.234,12.142c-0.415,0.531-0.842,0.925-1.277,1.181c-1.627,0.903-3.07,1.537-4.324,1.898
								c-0.873,0.266-1.782,0.4-2.729,0.4h-0.064c-1.32,0-2.457-0.223-3.415-0.669c-0.159-0.064-0.436-0.214-0.83-0.447
								c-1.053-0.787-1.877-1.181-2.473-1.181c-0.149,0-0.446,0.037-0.894,0.112 M218.734,144.291
								c0.404-0.192,0.782-0.506,1.133-0.943c1.138-1.458,2.442-3.995,3.909-7.611l0.958-2.346c1.138-3.128,1.824-5.5,2.058-7.117
								 M211.076,162.035c5.054-2.777,8.409-5.276,10.068-7.499c0.724-0.99,1.118-1.942,1.182-2.857c0-0.553-0.132-0.903-0.4-1.052
								c-0.052-0.074-0.106-0.074-0.159,0c-0.053-0.053-0.113-0.053-0.176,0h-0.494c0.638-1.138,1.249-2.485,1.834-4.038
								l0.064-0.048c0.033-0.17,0.122-0.453,0.271-0.846v-0.049c1.086-2.893,1.627-4.983,1.627-6.271
								c-0.819,0.447-2.494,1.77-5.026,3.973 M220.249,131.701c-1.755,1.456-2.648,2.207-2.68,2.25h0.446
								C218.665,133.642,219.41,132.893,220.249,131.701z M177.504,141.227l1.899-0.176c1.106-0.127,2.038-0.314,2.792-0.558
								c1.618-0.479,3.149-1.224,4.596-2.234 M189.088,123.931c-0.117,1.743-1.702,4.058-4.755,6.941
								c-0.223,0.181-0.394,0.33-0.51,0.446l-0.113,0.112c-0.117,0.074-0.191,0.133-0.222,0.176
								c-1.862,1.627-3.467,3.043-4.819,4.245 M166.303,159.577l-1.899-5.265l0.846,0.894c0.606,0.329,1.33,0.554,2.17,0.669h0.846
								c0.776,0,1.41-0.165,1.899-0.494c0.563-0.404,0.846-1.075,0.846-2.01c0-0.904-0.521-2.043-1.564-3.415
								c-0.851-1.107-1.617-1.931-2.298-2.473c-0.117-0.107-0.192-0.18-0.223-0.222c-0.628-0.532-1.111-1.017-1.452-1.453
								 M162.345,165.967c0.172-0.038,0.396-0.1,0.671-0.184l1.229-0.335c0.809-0.298,2.021-0.802,3.638-1.516l-1.404-3.91
								 M160.272,166.231c0.776-0.065,1.41-0.138,1.899-0.223 M169.829,194.824c-5.372,5.319-9.101,8.005-11.186,8.058l-0.399-0.717
								 M168.601,248.038c0.351,0.202,2.346,0.723,5.983,1.564c2.085,0.467,3.26,1.59,3.525,3.366l-5.313,0.112"/>
						</g>
					</g>
				</g>
			</g>
		</g>
	</g>
	<path fill="#231F20" d="M87.613,26.754v1.162c0,1.499,2.325,1.499,2.325,0v-1.162C89.938,25.255,87.613,25.255,87.613,26.754z"/>
</g>
</svg>
