<?xml version="1.0" encoding="utf-8"?>
<!-- Generator: Adobe Illustrator 17.0.1, SVG Export Plug-In . SVG Version: 6.00 Build 0)  -->
<!DOCTYPE svg PUBLIC "-//W3C//DTD SVG 1.1//EN" "http://www.w3.org/Graphics/SVG/1.1/DTD/svg11.dtd">
<svg version="1.1" id="Layer_1" xmlns="http://www.w3.org/2000/svg" xmlns:xlink="http://www.w3.org/1999/xlink" x="0px" y="0px"
	 width="253.136px" height="235.574px" viewBox="6.349 9.786 253.136 235.574" enable-background="new 6.349 9.786 253.136 235.574"
	 xml:space="preserve">
<g id="Layer_3">
	<path fill="#FFFFFF" d="M253.44,62.438c-0.765-2.31-2.598-4.249-3.269-6.532c-0.719-2.444-1.167-4.45-2.443-6.385
		c0.109-0.527,0.252-1.072,0.379-1.676c0.612-2.944,0.518-5.614-0.113-8.541c-0.583-2.697-2.879-4.782-5.512-5.58
		c-0.054-0.077-0.108-0.155-0.169-0.245c-0.611-0.902-1.153-1.854-1.712-2.789c-0.541-0.905-1.099-1.813-1.697-2.693
		c3.841-2.401,5.549-10.213,5.441-13.747c-0.015-0.467-0.156-0.849-0.369-1.158c-0.16-2.674-4.354-2.656-4.283,0.085
		c0.109,4.252-2.818,7.068-4.957,10.397c-0.245-0.167-0.485-0.337-0.746-0.487c-1.857-1.065-3.776-1.919-5.763-2.301
		c0.195-1.218,0.205-2.532,0.196-3.851c-0.003-0.452-0.129-0.822-0.322-1.127c0.238-0.459,0.484-0.917,0.744-1.368
		c1.384-2.403-2.326-4.565-3.706-2.167c-1.643,2.855-2.991,5.955-3.287,9.232c-3.284,1.521-5.772,4.788-8.341,7.193
		c-2.116,1.98-4.289,3.881-6.496,5.742c-4.709,2.612-8.204,6.632-12.629,9.599c-4.168,2.795-8.296,5.236-11.2,9.443
		c-0.308,0.447-0.542,0.933-0.722,1.441c-0.244,0.404-0.486,0.811-0.645,1.11c-1.054,0.616-2.459,1.14-3.259,1.717
		c-1.582,1.14-2.645,2.621-3.223,4.208c-0.983-0.462-2.129-0.736-3.448-0.746c-6.639-0.048-12.177,2.921-17.48,6.625
		c-5.014,3.503-9.047,5.426-15.238,5.846c-13.384,0.906-26.768-0.25-40.116-1.145c-0.001-0.084,0.006-0.17-0.015-0.249
		c-0.164-0.599-0.746-0.858-1.32-0.75c-0.734,0.138-1.475,0.141-2.22,0.141c-0.26,0-0.454,0.091-0.616,0.215
		c-0.994-0.471-2.154-0.752-3.498-0.752c-0.54,0-1.046,0.053-1.53,0.135c-0.952-0.415-2.042-0.672-3.301-0.672
		c-1.2,0-2.254,0.223-3.176,0.603c-0.033-0.006-0.067-0.015-0.1-0.021c-0.055-0.487-0.383-0.938-1.015-0.938H81.19
		c-0.294,0-0.512,0.111-0.682,0.263c-3.052-0.832-5.993-1.809-9.188-2.268c-8.429-1.215-15.847,0.732-23.508,4.15
		c-0.648,0.29-1.277,0.604-1.92,0.903c-1.782,0.026-3.249,0.532-4.407,1.348c-0.094-0.003-0.184-0.013-0.28-0.013
		c-3.961,0-6.392,2.351-7.33,5.249c-1.107,0.054-2.265,0.349-3.441,0.949c-5.899,3.011-10.224,6.595-13.352,11.829
		c-3.292,2.44-5.356,7.133-4.755,11.207c-2.597,7.557-4.405,15.407-4.735,23.372c-0.186,4.506-0.218,10.489,1.542,15.314
		c-0.464,0.468-0.714,1.145-0.501,1.974c0.603,2.361,1.559,4.54,2.41,6.819c1.093,2.922,0.641,6.198,1.19,9.229
		c1.121,6.171,2.076,11.014-1.416,16.647c-1.463,2.36,2.253,4.515,3.708,2.168c0.477-0.769,0.872-1.532,1.231-2.293
		c0.331-0.101,0.652-0.308,0.937-0.673c3.421-4.389,6.405-10.482,8.067-15.796c0.098-0.312,0.1-0.62,0.042-0.915
		c1.297-3.468,1.865-6.974,2.348-10.683c0.283-0.175,0.566-0.353,0.842-0.545c-0.025,0.272-0.046,0.526-0.055,0.743
		c-0.174,4.392,0.537,8.746,0.821,13.126c-0.097,0.155-0.167,0.334-0.162,0.566c0.006,0.274,0.027,0.556,0.048,0.84
		c-0.265,0.419-0.41,0.926-0.331,1.518c0.058,0.43,0.085,0.871,0.097,1.311c-0.077,0.073-0.149,0.156-0.205,0.262
		c-0.905,1.714-1.418,3.391-1.666,5.266c-0.616,0.588-1.058,1.394-1.164,2.431c-0.243,2.37-1.511,4.506-2.37,6.694
		c-0.207,0.529-0.232,1.274-0.24,2.045c-0.523,0.296-0.99,0.741-1.349,1.351c-2.271,3.856-1.077,7.723,1.372,11.045
		c-0.045,0.22-0.086,0.444-0.096,0.69c-0.205,5.189,1.508,10.03,2.567,15.048c0.881,4.181,3.438,11.612,1.703,15.617
		c-0.883,2.038-0.372,5.021,2.244,5.519c0.951,0.181,0.596,3.933,0.696,4.893c0.192,1.852,0.773,3.412,2.152,4.686
		c3.061,2.831,9.259,2.592,12.925,1.333c1.79-0.615,3.384-2.62,2.623-4.622c-0.981-2.577-2.281-4.693-3.994-6.86
		c-2.112-2.673-3.309-5.477-4.826-8.476c-3.282-6.492-3.067-14.16-5.347-21.1c1.142-0.688,1.987-2.002,2.136-3.355
		c0.609-5.531,1.482-11.094,1.596-16.658c0.598-0.436,1.074-1.094,1.311-2.022c0.962-3.794,3.139-7.124,4.874-10.631
		c3.753-2.928,5.558-7.773,6.814-12.632c1.118-1.416,1.807-3.238,2.043-5.199c0.097-0.8,2.415-3.198,2.977-3.975
		c0.133-0.184,0.252-0.375,0.376-0.562c0.054,0.1,0.105,0.2,0.162,0.296c0.09,0.611,0.202,1.219,0.351,1.819
		c0.341,1.551,1.413,3.077,2.331,4.339c1.725,2.365,1.871,4.882,2.008,7.749c0.158,3.307-0.251,6.613-0.156,9.924
		c0.013,0.439,0.076,0.877,0.152,1.316c-1.083,2.104-1.251,4.703-0.491,6.956c-0.153,0.808-0.292,1.623-0.377,2.462
		c-0.321,3.202,1.971,6.023,4.812,7.31c0.01,0.505,0.117,1.03,0.353,1.565c0.749,1.699,1.319,3.794,2.555,5.232
		c0.379,0.44,0.891,0.852,1.422,1.269c1.471,9.102,10.972,16.113,11.61,25.594c0.108,1.613,1.058,3.249,2.758,3.623
		c2.656,0.583,2.607,1.486,3.042,3.965c0.42,2.393,1.204,4.193,2.848,5.979c3.053,3.316,8.833,2.593,12.821,2.533
		c1.388-0.021,2.365-0.661,2.956-1.55c0.181,0.073,0.386,0.119,0.622,0.119c2.077,0,2.077-3.22,0-3.22
		c-0.016,0-0.03,0.004-0.045,0.004c-0.304-1.507-1.42-2.811-3.374-2.853c-0.356-0.317-0.784-0.586-1.306-0.774
		c-0.064-0.013-0.119-0.039-0.181-0.054c-0.193-0.387-0.457-0.77-0.844-1.127c-7.137-6.605-13.082-14.189-16.415-23.323
		c-1.506-4.129-3.29-8.071-5.602-11.815c-0.693-1.121,0.931-2.434,0.931-3.711c0-2.093-0.89-4.342-1.387-6.366
		c-0.255-1.04-0.817-1.735-1.511-2.163c0.01-0.081,0.027-0.157,0.035-0.238c0.362-3.606,1.105-6.494,0.792-10.065
		c0.511-0.029,1-0.365,0.997-1.026c-0.002-0.466-0.035-0.926-0.218-1.359c-0.084-0.199-0.21-0.362-0.356-0.498
		c0.203-0.641,0.343-1.329,0.395-2.08c0.122-1.811,0.099-3.612,0.024-5.413c0.188-1.406,0.45-2.805,0.662-4.213
		c0.005-0.035,0.011-0.072,0.016-0.108c0.019-0.129,0.041-0.257,0.058-0.385c0.452-3.233,0.437-6.386,1.492-9.515
		c0.251-0.111,0.465-0.321,0.572-0.653c0.67-2.075,1.611-4.082,1.907-6.232c4.275,2.167,8.6,4.225,12.762,6.637
		c1.449,0.839,2.942,1.512,4.468,2.066c1.293,1.359,3.152,2.253,5.589,2.253c0.044,0,0.084-0.005,0.127-0.006
		c1.058,0.565,2.325,0.902,3.808,0.902c0.584,0,1.131-0.058,1.651-0.155c1.11,0.655,2.465,1.049,4.075,1.049
		c0.763,0,1.464-0.097,2.116-0.258c0.356,0.043,0.718,0.078,1.105,0.078c0.56,0,1.085-0.056,1.585-0.145
		c0.715,0.203,1.493,0.324,2.351,0.324c0.655,0,1.269-0.065,1.841-0.186c0.879,0.337,1.866,0.543,2.989,0.543
		c1.183,0,2.224-0.217,3.138-0.588c0.263,0.023,0.521,0.052,0.799,0.052c1.951,0,3.535-0.569,4.753-1.493
		c1.315-0.068,2.628-0.137,3.939-0.203c3.706-0.188,7.323-0.751,10.973-1.401c3.55-0.631,6.658,0.6,10.197-0.316
		c1.199,4.504,1.729,9.37,2.023,13.99c0.094,1.488-0.879,3.142-1.199,4.603c-0.543,2.479-0.233,4.878,0.828,7.083
		c-0.009,0.093-0.027,0.18-0.027,0.279c0,4.874,1.008,8.947-1.115,13.545c-1.215,2.632-0.301,5.356,0.379,8.062
		c-0.368,0.314-0.653,0.739-0.778,1.293c-1.183,5.254-1.961,10.596-3.109,15.897c-0.385,1.784-0.604,3.465-0.737,5.116
		c-0.119,0.163-0.203,0.364-0.186,0.633c0.094,1.42-1.195,2.481-1.073,3.935c0.055,0.656,0.577,0.992,1.094,1.02
		c0.017,1.8,0.068,3.641,0.086,5.613c0.002,0.193-0.002,0.383-0.003,0.575c-1.013,0.239-1.023,1.776-0.025,2.038
		c-0.031,2.204,0.033,4.291,1.058,6.192c0.537,1.694,1.473,3.146,3.409,3.844c0.528,0.191,0.923-0.042,1.134-0.409
		c1.913,0.463,4.056,0.434,5.772,0.448c0.444,0.003,0.829-0.084,1.159-0.236c1.087,1.121,2.452,0.948,3.401,0.201
		c0.672-0.073,1.301-0.274,1.886-0.648c0.686-0.438,0.699-1.417,0-1.854c-0.134-0.084-0.473-0.683-0.677-0.906
		c-0.186-0.204-0.394-0.286-0.603-0.311c-0.072-0.098-0.137-0.196-0.228-0.291c-0.357-0.374-0.702-0.731-1.04-1.086
		c0.456-0.318,0.792-0.778,1.003-1.286c0.429-0.078,0.86-0.157,1.288-0.242c0.574-0.112,0.896-0.788,0.749-1.319
		c-0.163-0.596-0.746-0.863-1.319-0.749c-0.087,0.017-0.175,0.032-0.262,0.049c-0.011-0.15-0.049-0.303-0.136-0.452
		c-0.009-0.014-0.024-0.023-0.032-0.035c0.058-0.527-0.032-1.055-0.367-1.492c-1.708-2.228-3.827-4.217-5.009-6.799
		c-0.079-0.175-0.185-0.331-0.305-0.47c-0.132-0.262-0.252-0.53-0.411-0.781c-0.15-0.238-0.324-0.425-0.506-0.591
		c-0.179-0.965-0.34-1.929-0.476-2.884c-0.076-0.543-0.277-0.955-0.55-1.263c0.048-0.167,0.089-0.339,0.108-0.527
		c0.654-6.306,2.041-12.484,3.577-18.627c1.003-4.005,1.552-8.906,4.225-12.215c0.453-0.56,0.645-1.289,0.618-2.003
		c0.518-0.704,0.911-1.467,1.181-2.316c0.871-0.784,1.079-2.146,0.627-3.214c0.019-0.089,0.032-0.18,0.055-0.269
		c0.251-1.007-0.043-1.834-0.594-2.416c0.039-0.042,0.082-0.075,0.119-0.118c1.625-1.847,2.47-3.737,3.052-5.709
		c2.002-2.169,3.06-5.187,3.915-8.032c0.192-0.24,0.378-0.496,0.554-0.769c3.317-5.118,6.153-10.071,5.93-16.372
		c0.002-0.001,0.003-0.002,0.005-0.003c0.375-0.246,0.511-0.609,0.487-0.961c1.441-0.516,2.788-1.469,3.876-2.962
		c4.721-1.272,7.411-7.498,9.975-11.132c0.46-0.653,0.039-1.282-0.554-1.487c0.145-0.185,0.302-0.357,0.437-0.552
		c1.272-1.814,1.172-4.55,1.655-6.627c0.03-0.131,0.03-0.249,0.023-0.363c0.081-0.079,0.156-0.156,0.238-0.236
		c0.587-0.573,0.288-1.329-0.255-1.656c0.821-3.476,1.327-7.005,1.123-10.599c-0.07-1.226-0.279-2.411-0.57-3.572
		c3.925-4.73,7.343-9.029,8.899-15.552c0.922-3.866,3.069-7.404,4.574-11.083c0.796-1.946,0.97-8.042,1.721-8.958
		c0.814-0.995,1.43-2.1,1.819-3.247c1.288,0.323,2.576,0.657,3.871,0.982c1.063,0.269,2.126,0.543,3.189,0.818
		c0.272,0.209,0.756,0.557,1.457,1.043c1.924,1.453,4.166,1.647,6.205,2.736c0.69,0.368,1.486,0.656,2.316,0.853
		c0.502,2.082,1.599,3.508,2.999,4.357c2.41,8.141,16.152,7.464,15.743-2.144C257.708,71.758,255.116,67.491,253.44,62.438z"/>
</g>
<g id="Layer_1_2_">
	<g>
		<g id="Layer_1_1_">
			<g>
				<g id="Layer_1_3_">
					<g>
						<g>
							<g>
								<g>
									<path fill="#373535" d="M250.389,41.105c0.296-0.156,0.82-0.233,1.569-0.233c0.082,0,0.162-0.029,0.243-0.087
										c-0.137,0.179-0.335,0.35-0.591,0.514c-0.323,0.206-0.807,0.439-1.453,0.698l1.569-0.233h0.233
										c-0.606,0.606-1.285,0.91-2.035,0.91c-0.142,0-0.439-0.225-0.891-0.677h0.678l-0.445-0.233l0.445-0.214h-0.233l1.802-1.124
										L250.389,41.105z"/>
									<path fill="#373535" d="M227.276,39.748c0.052,0,0.27,0.13,0.658,0.387c0.478,0.323,0.93,0.568,1.357,0.736h-0.233
										c-0.296,0-0.516-0.019-0.658-0.058c-0.258-0.064-0.484-0.193-0.678-0.388l-0.426-0.33
										c-0.167-0.143-0.251-0.259-0.251-0.349H227.276z"/>
									<path fill="#FFFFFF" d="M225.028,42.208c0.077-0.064,0.258-0.142,0.542-0.233c0.376-0.129,0.717-0.27,1.027-0.426
										l1.124,1.336l-0.233,0.447c0.116,0.232,0.156,0.368,0.116,0.407c-0.04,0.039-0.226,0.058-0.561,0.058l-1.569-1.124
										L225.028,42.208z"/>
									<path fill="#373535" d="M223.905,40.426l0.891,0.445C224.472,40.872,224.176,40.724,223.905,40.426z M230.627,42.887
										l0.233,0.233l-0.445,1.337c-0.606,0.606-1.208,0.91-1.802,0.91c-0.439,0-0.866-0.103-1.278-0.31
										c-0.413-0.206-0.736-0.478-0.968-0.814l-0.891-1.357v-0.213l1.569,1.124c0.335,0,0.523-0.019,0.561-0.058
										c0.039-0.039,0-0.175-0.116-0.407l0.233-0.447l-1.124-1.336l0.233-0.445l-0.466,0.214l-0.891,0.232h-0.891l-1.124-0.445
										h2.015l-0.678-0.233h1.569c-0.181-0.18-0.387-0.349-0.619-0.503l-0.272-0.174h0.233c0.296,0,0.658,0.058,1.085,0.174
										c0.258,0.064,0.793,0.233,1.608,0.503v0.233c0.103,0,0.155,0.039,0.155,0.116c0,0.064-0.052,0.097-0.155,0.097
										C229.277,41.55,230.02,42.073,230.627,42.887z"/>
									<polygon fill="#FFFFFF" points="226.365,41.317 224.795,41.996 224.583,41.55 225.474,41.55 									"/>
									
										<path fill="none" stroke="#373535" stroke-width="1.6101" stroke-linecap="round" stroke-linejoin="round" stroke-miterlimit="3" d="
										M234.443,22.467l4.049-5.599c0.258-0.711,0.452-1.233,0.581-1.569c0.22-0.582,0.471-1.103,0.756-1.569
										c0.335-1.021,0.685-1.763,1.047-2.228c0.362-0.465,0.762-0.697,1.201-0.697c1.071,0,1.97,0.6,2.693,1.801
										c0.452,0.685,0.678,1.434,0.678,2.248c0,2.725-0.523,5.34-1.569,7.847c-0.685,1.369-1.408,2.415-2.169,3.139
										c-0.776,0.749-1.55,1.124-2.325,1.124"/>
									
										<path fill="none" stroke="#373535" stroke-width="1.6101" stroke-linecap="round" stroke-linejoin="round" stroke-miterlimit="3" d="
										M234.443,22.467l0.91,0.465c1.098,0.646,2.441,1.989,4.031,4.03"/>
									
										<path fill="none" stroke="#373535" stroke-width="1.6101" stroke-linecap="round" stroke-linejoin="round" stroke-miterlimit="3" d="
										M239.384,26.962l4.03,6.723c0.452,0.31,1.724,1.285,3.817,2.925c0.658,0.439,1.13,1.001,1.414,1.685
										c0.259,0.633,0.387,1.421,0.387,2.364l-1.124,5.832c0,0.064,0.219,0.801,0.658,2.209c0.659,2.131,1.267,4.159,1.822,6.083
										c0.103,1.034,0.497,2.19,1.182,3.468c0.685,1.343,1.634,2.732,2.848,4.165c0.491,1.175,0.852,2.241,1.085,3.197
										c0.167,0.671,0.251,1.175,0.251,1.511c0.116,0.556,0.297,1.027,0.543,1.414c0.246,0.375,0.594,0.73,1.047,1.066
										c0.309,0.206,0.581,0.458,0.814,0.756c0.206,0.259,0.31,0.452,0.31,0.582l0.213,4.262l-2.248,4.941
										c-0.595,0.981-1.266,1.73-2.015,2.248h-2.906c-1.9,0-3.998-0.897-6.297-2.693l-4.262-5.618
										c-2.841-1.653-4.262-2.925-4.262-3.817c0-0.052,0.039-0.129,0.116-0.232c0.077-0.116,0.116-0.259,0.116-0.426"/>
									
										<path fill="none" stroke="#373535" stroke-width="1.6101" stroke-linecap="round" stroke-linejoin="round" stroke-miterlimit="3" d="
										M242.756,68.925l0.232-2.693c0-1.434-1.2-3.901-3.602-7.401c-2.312-3.914-4.107-6.083-5.386-6.509"/>
									
										<path fill="none" stroke="#373535" stroke-width="1.6101" stroke-linecap="round" stroke-linejoin="round" stroke-miterlimit="3" d="
										M250.156,75.647c-0.22,0-0.445-0.897-0.678-2.693c-0.104-0.762-0.258-1.324-0.466-1.685
										c-0.194-0.336-0.413-0.447-0.658-0.33c-0.18-0.09-0.4-0.071-0.658,0.058c-0.297,0.193-0.524,0.323-0.678,0.387
										c-0.297,0.413-0.505,0.704-0.62,0.872c-0.18,0.284-0.271,0.516-0.271,0.698c0,0.878,0.225,1.569,0.677,2.073
										c0.426,0.478,1.098,0.833,2.015,1.066"/>
									
										<path fill="none" stroke="#373535" stroke-width="1.6101" stroke-linecap="round" stroke-linejoin="round" stroke-miterlimit="3" d="
										M250.389,71.386c-0.426-1.64-1.479-2.46-3.158-2.46c-0.619,0-1.291,0.445-2.015,1.336c-0.335,0.452-0.568,0.865-0.697,1.24
										c-0.13,0.362-0.194,0.775-0.194,1.24c0,0.658,0.296,1.478,0.891,2.46c0.156,0.156,0.355,0.407,0.601,0.756
										c0.233,0.31,0.484,0.51,0.756,0.6"/>
									
										<path fill="none" stroke="#373535" stroke-width="1.6101" stroke-linecap="round" stroke-linejoin="round" stroke-miterlimit="3" d="
										M240.741,77.449c0.658,2.906,1.775,5.147,3.351,6.723c1.266,1.047,3.287,1.569,6.064,1.569
										c2.893,0,4.688-1.047,5.386-3.139"/>
									
										<path fill="none" stroke="#373535" stroke-width="1.6101" stroke-linecap="round" stroke-linejoin="round" stroke-miterlimit="3" d="
										M26.914,143.416l-1.124-5.386c-0.852-3.422-1.46-6.013-1.822-7.769c-0.439-2.105-0.659-3.629-0.659-4.572l0.233-2.926
										v-0.214c-3.293-8.55-4.941-15.356-4.941-20.419c0-2.015,0.272-3.952,0.814-5.811c0.542-1.847,1.317-3.5,2.325-4.96
										c1.911-2.841,4.753-6.058,8.524-9.648"/>
									
										<path fill="none" stroke="#373535" stroke-width="1.6101" stroke-linecap="round" stroke-linejoin="round" stroke-miterlimit="3" d="
										M34.082,78.128l-9.415,4.92c-3.539,2.209-6.309,5.205-8.311,8.99c-1.73,2.906-3.326,6.496-4.785,10.772
										c-1.344,3.888-2.661,8.596-3.952,14.124v1.357c-0.31,0.878-0.465,2.221-0.465,4.03c0,11.043,0.975,20.69,2.925,28.944
										c1.796,8.279,2.693,13.742,2.693,16.39c0,4.883-0.601,8.622-1.802,11.217c-0.466,1.138-0.91,2.035-1.337,2.693"/>
									
										<path fill="none" stroke="#373535" stroke-width="1.6101" stroke-linecap="round" stroke-linejoin="round" stroke-miterlimit="3" d="
										M175.219,59.722l-6.509,1.569c-5.192,1.408-8.408,2.531-9.648,3.372c-4.663,2.906-7.956,4.92-9.881,6.044
										c-3.874,2.156-7.458,3.358-10.752,3.603l-8.99,0.445c-8.331,0-14.833-0.452-19.509-1.357
										c-6.716-1.473-15.989-2.666-27.821-3.584l-0.232-0.213c-0.595,0-1.498-0.104-2.712-0.31
										c-0.582-0.103-1.995-0.375-4.243-0.814c-3.965-0.749-6.432-1.123-7.401-1.123c-2.519,0-5.883,0.671-10.094,2.015
										l-8.989,2.46c-4.405,0.891-8.144,2.163-11.217,3.816l-3.139,2.481"/>
									
										<line fill="none" stroke="#373535" stroke-width="1.6101" stroke-linecap="round" stroke-linejoin="round" stroke-miterlimit="3" x1="34.082" y1="78.128" x2="30.265" y2="81.265"/>
									
										<path fill="none" stroke="#373535" stroke-width="1.6101" stroke-linecap="round" stroke-linejoin="round" stroke-miterlimit="3" d="
										M70.427,92.25l0.445,5.173c0,6.445-1.047,12.198-3.139,17.261l-3.139,6.297c-1.227,3.087-2.124,5.477-2.693,7.168"/>
									
										<path fill="none" stroke="#373535" stroke-width="1.6101" stroke-linecap="round" stroke-linejoin="round" stroke-miterlimit="3" d="
										M79.416,83.281c-0.31-1.214-0.685-2.19-1.124-2.926c-0.827-1.421-2.176-2.538-4.049-3.351"/>
									
										<polyline fill="none" stroke="#373535" stroke-width="1.6101" stroke-linecap="round" stroke-linejoin="round" stroke-miterlimit="3" points="
										145.596,97.423 141.779,94.265 141.779,89.344 									"/>
									
										<path fill="none" stroke="#373535" stroke-width="1.6101" stroke-linecap="round" stroke-linejoin="round" stroke-miterlimit="3" d="
										M220.766,21.808c0.103-0.827,0.362-1.782,0.775-2.867c0.323-0.814,0.814-1.878,1.473-3.197
										c1.833-3.229,3.629-4.947,5.386-5.153c0.296,0.439,0.445,1.182,0.445,2.228c0,3.139-0.149,6.135-0.445,8.99"/>
									
										<path fill="none" stroke="#373535" stroke-width="1.6101" stroke-linecap="round" stroke-linejoin="round" stroke-miterlimit="3" d="
										M210.207,31.01c0,0.206-0.103,0.542-0.31,1.007c-0.115,0.272-0.38,0.827-0.793,1.666c-0.568,0.426-1.098,1.105-1.589,2.034
										"/>
									
										<line fill="none" stroke="#373535" stroke-width="1.6101" stroke-linecap="round" stroke-linejoin="round" stroke-miterlimit="3" x1="207.515" y1="33.238" x2="210.207" y2="31.01"/>
									
										<path fill="none" stroke="#373535" stroke-width="1.6101" stroke-linecap="round" stroke-linejoin="round" stroke-miterlimit="3" d="
										M178.802,58.366h0.233l8.738-8.524c3.306-2.467,7.2-5.832,11.683-10.094c0.852-0.762,2.028-1.743,3.526-2.944
										c1.962-1.563,3.254-2.602,3.874-3.119l0.658-0.447"/>
									
										<line fill="none" stroke="#373535" stroke-width="1.6101" stroke-linecap="round" stroke-linejoin="round" stroke-miterlimit="3" x1="207.515" y1="33.238" x2="204.162" y2="38.625"/>
									
										<path fill="none" stroke="#373535" stroke-width="1.6101" stroke-linecap="round" stroke-linejoin="round" stroke-miterlimit="3" d="
										M210.207,31.01l1.569-1.357c1.369-1.588,2.344-2.861,2.926-3.817l0.678-0.677"/>
									
										<line fill="none" stroke="#373535" stroke-width="1.6101" stroke-linecap="round" stroke-linejoin="round" stroke-miterlimit="3" x1="229.291" y1="20.006" x2="234.443" y2="22.467"/>
									
										<path fill="none" stroke="#373535" stroke-width="1.6101" stroke-linecap="round" stroke-linejoin="round" stroke-miterlimit="3" d="
										M223.672,23.591l1.589-4.475l0.213-1.589c0-0.749,0.452-1.343,1.357-1.782"/>
									
										<path fill="none" stroke="#373535" stroke-width="1.6101" stroke-linecap="round" stroke-linejoin="round" stroke-miterlimit="3" d="
										M221.444,27.407c1.187,0,2.305-0.523,3.351-1.569c-0.206,0-0.375-0.09-0.503-0.27c-0.116-0.167-0.175-0.375-0.175-0.62
										c0-0.336,0.181-0.626,0.543-0.872c0.348-0.246,0.917-0.478,1.705-0.698"/>
									
										<path fill="none" stroke="#373535" stroke-width="1.6101" stroke-linecap="round" stroke-linejoin="round" stroke-miterlimit="3" d="
										M232.197,23.591c0.194,0,0.491,0.148,0.891,0.445c0.246,0.193,0.698,0.569,1.357,1.124"/>
									
										<path fill="none" stroke="#373535" stroke-width="1.6101" stroke-linecap="round" stroke-linejoin="round" stroke-miterlimit="3" d="
										M233.998,25.392c-0.194,0.103-0.491,0.122-0.891,0.058c-0.595-0.116-1.117-0.213-1.569-0.291
										c-1.318-0.246-2.067-0.542-2.248-0.891"/>
									
										<line fill="none" stroke="#373535" stroke-width="1.6101" stroke-linecap="round" stroke-linejoin="round" stroke-miterlimit="3" x1="215.381" y1="25.16" x2="216.503" y2="24.501"/>
									
										<path fill="none" stroke="#373535" stroke-width="1.6101" stroke-linecap="round" stroke-linejoin="round" stroke-miterlimit="3" d="
										M220.766,26.071l-0.445-0.91c0-0.801,0.148-1.918,0.445-3.352"/>
									
										<path fill="none" stroke="#373535" stroke-width="1.6101" stroke-linecap="round" stroke-linejoin="round" stroke-miterlimit="3" d="
										M216.95,28.085c0.439-1.021,0.742-1.672,0.911-1.957c0.296-0.542,0.594-0.865,0.891-0.968"/>
									
										<path fill="none" stroke="#373535" stroke-width="1.6101" stroke-linecap="round" stroke-linejoin="round" stroke-miterlimit="3" d="
										M216.95,24.036c0.891-0.595,2.164-1.337,3.817-2.228"/>
									
										<path fill="none" stroke="#373535" stroke-width="1.6101" stroke-linecap="round" stroke-linejoin="round" stroke-miterlimit="3" d="
										M214.702,36.609v-2.46c0.233-1.822,0.685-3.391,1.357-4.708"/>
									
										<line fill="none" stroke="#373535" stroke-width="1.6101" stroke-linecap="round" stroke-linejoin="round" stroke-miterlimit="3" x1="216.95" y1="38.179" x2="216.717" y2="39.302"/>
									
										<path fill="none" stroke="#373535" stroke-width="1.6101" stroke-linecap="round" stroke-linejoin="round" stroke-miterlimit="3" d="
										M216.95,33.025c0,0.582-0.091,1.311-0.272,2.19c-0.052,0.232-0.258,1.072-0.619,2.518c0,0.413,0.052,0.73,0.156,0.95
										c0.076,0.155,0.246,0.361,0.503,0.619"/>
									
										<line fill="none" stroke="#373535" stroke-width="1.6101" stroke-linecap="round" stroke-linejoin="round" stroke-miterlimit="3" x1="215.826" y1="42.887" x2="216.717" y2="39.302"/>
									
										<path fill="none" stroke="#373535" stroke-width="1.6101" stroke-linecap="round" stroke-linejoin="round" stroke-miterlimit="3" d="
										M224.795,41.996l1.569,2.247c0.233,0.336,0.556,0.606,0.968,0.814c0.413,0.207,0.839,0.31,1.278,0.31
										c0.595,0,1.195-0.304,1.802-0.91l0.445-1.337l-0.233-0.233c-0.606-0.814-1.35-1.336-2.227-1.568"/>
									
										<line fill="none" stroke="#373535" stroke-width="1.6101" stroke-linecap="round" stroke-linejoin="round" stroke-miterlimit="3" x1="226.831" y1="41.105" x2="226.598" y2="41.55"/>
									
										<path fill="none" stroke="#373535" stroke-width="1.6101" stroke-linecap="round" stroke-linejoin="round" stroke-miterlimit="3" d="
										M221.444,41.105c0-0.646,0.251-1.357,0.756-2.131c0.465-0.723,1.103-1.433,1.917-2.131"/>
									
										<path fill="none" stroke="#373535" stroke-width="1.6101" stroke-linecap="round" stroke-linejoin="round" stroke-miterlimit="3" d="
										M211.776,31.901c1.214-1.408,2.415-3.655,3.603-6.742"/>
									
										<path fill="none" stroke="#373535" stroke-width="1.6101" stroke-linecap="round" stroke-linejoin="round" stroke-miterlimit="3" d="
										M178.802,58.366l-1.782,2.247c-0.376,0.272-0.783,0.646-1.222,1.124c-0.465,0.529-0.807,0.905-1.026,1.124"/>
									
										<line fill="none" stroke="#373535" stroke-width="1.6101" stroke-linecap="round" stroke-linejoin="round" stroke-miterlimit="3" x1="171.169" y1="64.876" x2="175.219" y2="59.722"/>
									
										<path fill="none" stroke="#373535" stroke-width="1.6101" stroke-linecap="round" stroke-linejoin="round" stroke-miterlimit="3" d="
										M174.328,74.311c0-0.595,0.09-1.369,0.271-2.325c0.053-0.246,0.259-1.195,0.62-2.848c0.375-1.523,0.64-2.576,0.794-3.157
										c0.246-0.969,0.503-1.634,0.775-1.995"/>
									
										<line fill="none" stroke="#373535" stroke-width="1.6101" stroke-linecap="round" stroke-linejoin="round" stroke-miterlimit="3" x1="175.219" y1="59.722" x2="178.802" y2="58.366"/>
									
										<path fill="none" stroke="#373535" stroke-width="1.6101" stroke-linecap="round" stroke-linejoin="round" stroke-miterlimit="3" d="
										M176.787,77.449c-0.116,0-0.219-0.161-0.31-0.484c-0.09-0.336-0.135-0.775-0.135-1.318c0-3.358,0.748-7.395,2.248-12.108"
										/>
									
										<path fill="none" stroke="#373535" stroke-width="1.6101" stroke-linecap="round" stroke-linejoin="round" stroke-miterlimit="3" d="
										M187.327,102.577c-0.219-1.64-1.117-3.139-2.693-4.495c-1.859-1.175-2.906-2.666-3.139-4.475
										c-1.33-6.264-2.75-10.159-4.262-11.682"/>
									
										<line fill="none" stroke="#373535" stroke-width="1.6101" stroke-linecap="round" stroke-linejoin="round" stroke-miterlimit="3" x1="183.956" y1="78.34" x2="184.867" y2="68.925"/>
									
										<path fill="none" stroke="#373535" stroke-width="1.6101" stroke-linecap="round" stroke-linejoin="round" stroke-miterlimit="3" d="
										M186.203,76.771c0.749-2.584,1.124-5.347,1.124-8.292"/>
									
										<path fill="none" stroke="#373535" stroke-width="1.6101" stroke-linecap="round" stroke-linejoin="round" stroke-miterlimit="3" d="
										M181.495,77.449c0.233-2.971,0.685-6.335,1.357-10.093"/>
									
										<path fill="none" stroke="#373535" stroke-width="1.6101" stroke-linecap="round" stroke-linejoin="round" stroke-miterlimit="3" d="
										M178.802,79.019c0.749-3.462,1.124-7.723,1.124-12.786"/>
									
										<path fill="none" stroke="#373535" stroke-width="1.6101" stroke-linecap="round" stroke-linejoin="round" stroke-miterlimit="3" d="
										M229.291,57.262c-0.814-1.925-2.46-4.023-4.941-6.297c-2.234-2.235-3.578-4.256-4.03-6.064"/>
									
										<path fill="none" stroke="#373535" stroke-width="1.6101" stroke-linecap="round" stroke-linejoin="round" stroke-miterlimit="3" d="
										M216.717,39.302c0.466,2.7,0.769,5.166,0.911,7.401l-0.911,11.005c-0.194,1.576,0.703,4.12,2.693,7.633
										c0.466,0.904,1.667,1.576,3.603,2.015l0.658,0.445"/>
									
										<line fill="none" stroke="#373535" stroke-width="1.6101" stroke-linecap="round" stroke-linejoin="round" stroke-miterlimit="3" x1="223.672" y1="67.801" x2="227.489" y2="68.925"/>
									
										<line fill="none" stroke="#373535" stroke-width="1.6101" stroke-linecap="round" stroke-linejoin="round" stroke-miterlimit="3" x1="204.608" y1="47.614" x2="203.04" y2="53.446"/>
									
										<path fill="none" stroke="#373535" stroke-width="1.6101" stroke-linecap="round" stroke-linejoin="round" stroke-miterlimit="3" d="
										M208.637,52.089c0.556-1.291,1.233-3.383,2.035-6.277"/>
									
										<path fill="none" stroke="#373535" stroke-width="1.6101" stroke-linecap="round" stroke-linejoin="round" stroke-miterlimit="3" d="
										M205.732,55.228c1.473-4.404,2.066-6.871,1.782-7.401"/>
									
										<line fill="none" stroke="#373535" stroke-width="1.6101" stroke-linecap="round" stroke-linejoin="round" stroke-miterlimit="3" x1="194.069" y1="66.232" x2="194.515" y2="57.707"/>
									
										<line fill="none" stroke="#373535" stroke-width="1.6101" stroke-linecap="round" stroke-linejoin="round" stroke-miterlimit="3" x1="196.975" y1="66.678" x2="197.866" y2="62.861"/>
									
										<path fill="none" stroke="#373535" stroke-width="1.6101" stroke-linecap="round" stroke-linejoin="round" stroke-miterlimit="3" d="
										M202.594,62.182c0.787-1.795,1.311-3.661,1.569-5.599"/>
									
										<line fill="none" stroke="#373535" stroke-width="1.6101" stroke-linecap="round" stroke-linejoin="round" stroke-miterlimit="3" x1="200.346" y1="61.291" x2="201.916" y2="53.446"/>
									
										<path fill="none" stroke="#373535" stroke-width="1.6101" stroke-linecap="round" stroke-linejoin="round" stroke-miterlimit="3" d="
										M198.332,55.906c-1.498,3.862-2.248,6.852-2.248,8.97"/>
									
										<path fill="none" stroke="#373535" stroke-width="1.6101" stroke-linecap="round" stroke-linejoin="round" stroke-miterlimit="3" d="
										M198.544,97.191l0.911-3.584c0.18-1.357,0.31-2.37,0.386-3.042c0.13-1.175,0.149-2.182,0.059-3.022"/>
									
										<path fill="none" stroke="#373535" stroke-width="1.6101" stroke-linecap="round" stroke-linejoin="round" stroke-miterlimit="3" d="
										M189.575,147.892c3.901-2.738,7.117-5.948,9.648-9.63c2.144-3.035,3.766-6.218,4.863-9.55
										c1.097-3.332,1.647-6.736,1.647-10.21l-0.445-5.599c0-1.421,0.445-4.262,1.336-8.525l0.233-0.465
										c5.721-8.718,9.236-15.369,10.539-19.955c0.156-0.685,0.484-1.95,0.989-3.798c0.619-2.273,1.116-4.153,1.492-5.638
										c0.581-1.666,1.155-3.009,1.724-4.03c0.632-1.15,1.324-2.047,2.073-2.693"/>
									
										<path fill="none" stroke="#373535" stroke-width="1.6101" stroke-linecap="round" stroke-linejoin="round" stroke-miterlimit="3" d="
										M209.549,61.97c0.942-3.306,1.569-5.477,1.88-6.509c0.646-2.156,1.214-3.881,1.705-5.173l2.248-7.614"/>
									
										<path fill="none" stroke="#373535" stroke-width="1.6101" stroke-linecap="round" stroke-linejoin="round" stroke-miterlimit="3" d="
										M191.144,72.276c0.181-2.816,0.31-5.386,0.387-7.711c0.039-1.175,0.058-2.118,0.058-2.828"/>
									
										<line fill="none" stroke="#373535" stroke-width="1.6101" stroke-linecap="round" stroke-linejoin="round" stroke-miterlimit="3" x1="212.009" y1="47.614" x2="212.92" y2="43.12"/>
									
										<path fill="none" stroke="#373535" stroke-width="1.6101" stroke-linecap="round" stroke-linejoin="round" stroke-miterlimit="3" d="
										M188.451,74.311c0.749-3.462,1.124-6.53,1.124-9.202"/>
									
										<path fill="none" stroke="#373535" stroke-width="1.6101" stroke-linecap="round" stroke-linejoin="round" stroke-miterlimit="3" d="
										M186.203,144.095l3.372-3.817c1.498-1.498,2.621-2.997,3.372-4.495"/>
									
										<path fill="none" stroke="#373535" stroke-width="1.6101" stroke-linecap="round" stroke-linejoin="round" stroke-miterlimit="3" d="
										M155.69,120.749c-0.296,2.505-0.445,4.449-0.445,5.832c0,3.061,0.226,5.683,0.678,7.866
										c0.505,1.524,1.627,3.687,3.372,6.49c0.362,0.556,1.854,1.904,4.475,4.049c0.982,0.658,1.769,1.427,2.364,2.305
										c0.556,0.828,0.891,1.705,1.007,2.635"/>
									
										<path fill="none" stroke="#373535" stroke-width="1.6101" stroke-linecap="round" stroke-linejoin="round" stroke-miterlimit="3" d="
										M150.304,138.03c1.15-2.067,1.828-3.488,2.035-4.262c0.219-0.542,0.284-1.169,0.194-1.878
										c-0.077-0.659-0.297-1.453-0.658-2.383"/>
									
										<path fill="none" stroke="#373535" stroke-width="1.6101" stroke-linecap="round" stroke-linejoin="round" stroke-miterlimit="3" d="
										M81.431,140.49l7.401,4.726c5.451,3.203,9.641,5.296,12.573,6.278c6.083,1.795,12.735,2.692,19.955,2.692
										c6.148,0,12.431-0.748,18.85-2.247c1.021-0.169,2.519-0.355,4.495-0.561c2.621-0.272,4.34-0.459,5.153-0.561
										c0.723-0.129,1.428-0.175,2.112-0.136c0.762,0.026,1.627,0.149,2.596,0.368c1.589,0,3.462-0.6,5.618-1.801"/>
									
										<path fill="none" stroke="#373535" stroke-width="1.6101" stroke-linecap="round" stroke-linejoin="round" stroke-miterlimit="3" d="
										M160.185,149.248l0.213,4.475l0.466,3.158c0.439,1.549,0.658,3.564,0.658,6.044c0,6.329-0.219,13.587-0.658,21.775
										c0,0.839-0.452,2.861-1.357,6.064c0,0.905,0.453,2.693,1.357,5.367"/>
									
										<path fill="none" stroke="#373535" stroke-width="1.6101" stroke-linecap="round" stroke-linejoin="round" stroke-miterlimit="3" d="
										M160.185,149.248c-1.381-1.886-2.526-3.545-3.428-4.98c-0.711-1.15-1.066-1.809-1.066-1.976l0.678-2.015"/>
									
										<path fill="none" stroke="#373535" stroke-width="1.6101" stroke-linecap="round" stroke-linejoin="round" stroke-miterlimit="3" d="
										M182.174,134.446l3.351-5.173c0.685-1.705,1.138-3.19,1.357-4.456c0.22-1.304,0.22-2.512,0-3.623"/>
									
										<path fill="none" stroke="#373535" stroke-width="1.6101" stroke-linecap="round" stroke-linejoin="round" stroke-miterlimit="3" d="
										M172.74,190.533l0.465-1.801c1.085-7.802,2.803-16.403,5.153-25.806c0.516-1.563,1.64-4.779,3.372-9.648
										c0.891-2.015,1.336-4.779,1.336-8.292c0-2.609-0.672-4.928-2.015-6.955"/>
									
										<path fill="none" stroke="#373535" stroke-width="1.6101" stroke-linecap="round" stroke-linejoin="round" stroke-miterlimit="3" d="
										M172.74,190.533c1.252-1.666,2.234-3.229,2.944-4.688c0.606-1.228,0.975-2.286,1.103-3.177l-0.233-4.475
										c0-0.505,0.297-1.441,0.891-2.809c0.711-1.589,1.686-3.417,2.926-5.483l4.495-7.865l3.584-7.188
										c0.749-1.963,1.124-4.282,1.124-6.955"/>
									
										<polyline fill="none" stroke="#373535" stroke-width="1.6101" stroke-linecap="round" stroke-linejoin="round" stroke-miterlimit="3" points="
										169.833,168.097 168.709,162.713 168.709,155.97 									"/>
									
										<path fill="none" stroke="#373535" stroke-width="1.6101" stroke-linecap="round" stroke-linejoin="round" stroke-miterlimit="3" d="
										M164.892,197.255c0.104,0.219,0.376,0.239,0.814,0.058c0.362-0.142,0.917-0.458,1.667-0.949
										c0.956-0.478,1.737-1.008,2.344-1.589c0.698-0.672,1.259-1.486,1.685-2.441"/>
									
										<path fill="none" stroke="#373535" stroke-width="1.6101" stroke-linecap="round" stroke-linejoin="round" stroke-miterlimit="3" d="
										M167.14,223.507c-0.104-0.723-0.317-1.421-0.64-2.092c-0.246-0.516-0.633-1.162-1.162-1.939v-0.891l0.445-3.372
										c0.233-0.827,0.439-1.769,0.62-2.828c0.116-0.658,0.213-0.989,0.291-0.989l1.569-8.078c0.09-0.697,0.349-1.653,0.775-2.867
										c0.194-0.542,0.685-1.827,1.473-3.856c0.4-0.71,0.801-1.639,1.201-2.79c0.27-0.762,0.613-1.854,1.027-3.275"/>
									
										<path fill="none" stroke="#373535" stroke-width="1.6101" stroke-linecap="round" stroke-linejoin="round" stroke-miterlimit="3" d="
										M183.065,151.495c0.828-0.453,1.995-1.079,3.507-1.88c1.278-0.697,2.28-1.273,3.003-1.724"/>
									
										<path fill="none" stroke="#373535" stroke-width="1.6101" stroke-linecap="round" stroke-linejoin="round" stroke-miterlimit="3" d="
										M77.828,118.289c3.1-1.55,6.62-4.391,10.559-8.525"/>
									
										<path fill="none" stroke="#373535" stroke-width="1.6101" stroke-linecap="round" stroke-linejoin="round" stroke-miterlimit="3" d="
										M71.338,124.333h-1.569c-1.201,0.542-2.344,1.388-3.43,2.538c-1.007,1.059-2.034,2.46-3.081,4.205l-4.261,8.525
										c-0.698,1.085-1.388,2.317-2.074,3.7c-0.4,0.787-0.981,2.021-1.743,3.7"/>
									
										<path fill="none" stroke="#373535" stroke-width="1.6101" stroke-linecap="round" stroke-linejoin="round" stroke-miterlimit="3" d="
										M55.18,147.001c0,0.065-0.143,0.349-0.426,0.852c-0.375,0.658-0.685,1.272-0.931,1.841
										c-0.103,0.272-0.362,0.839-0.775,1.705c-0.361,0.749-0.626,1.376-0.793,1.88"/>
									
										<path fill="none" stroke="#373535" stroke-width="1.6101" stroke-linecap="round" stroke-linejoin="round" stroke-miterlimit="3" d="
										M62.135,136.462l3.817-0.233c4.52,0,8.705,0.897,12.553,2.693l2.926,1.569"/>
									
										<path fill="none" stroke="#373535" stroke-width="1.6101" stroke-linecap="round" stroke-linejoin="round" stroke-miterlimit="3" d="
										M89.278,218.353c-0.388-0.838-1.388-2.925-3.003-6.257c-1.602-3.32-2.989-6.244-4.165-8.777l-3.37-7.847
										c-0.4-0.955-0.666-1.647-0.794-2.073c-0.167-0.646-0.206-1.228-0.116-1.743c0-1.95-0.148-3.675-0.445-5.173
										c-0.749-2.816-1.123-4.611-1.123-5.386l0.232-0.214v-0.91l2.248-21.525c-0.22-3.448,0.155-6.967,1.124-10.558
										c0.387-1.912,0.761-3.404,1.123-4.475l0.447-2.926"/>
									
										<path fill="none" stroke="#373535" stroke-width="1.6101" stroke-linecap="round" stroke-linejoin="round" stroke-miterlimit="3" d="
										M79.862,131.074c-1.628-1.627-3.5-2.673-5.618-3.139"/>
									
										<path fill="none" stroke="#373535" stroke-width="1.6101" stroke-linecap="round" stroke-linejoin="round" stroke-miterlimit="3" d="
										M55.18,147.001c2.118,4.003,3.39,7.742,3.817,11.217l0.445,2.015c0.297,4.081,0.447,7.672,0.447,10.772l-0.891,11.003
										c0,2.093,0.82,3.959,2.46,5.6l0.233,0.233c1.885,2.131,3.9,5.572,6.044,10.325l2.481,5.153l6.723,11.663
										c0.697,1.395,1.182,2.396,1.452,3.003c0.426,0.944,0.691,1.667,0.794,2.169l0.891,4.922
										c0.259,0.994,1.608,2.047,4.049,3.157c0.633,0.206,1.156,0.633,1.569,1.278c0.349,0.568,0.646,1.336,0.892,2.305
										l0.678,2.248"/>
									
										<path fill="none" stroke="#373535" stroke-width="1.6101" stroke-linecap="round" stroke-linejoin="round" stroke-miterlimit="3" d="
										M63.472,179.975c0.31-0.505,0.51-1.137,0.6-1.899c0.052-0.478,0.077-1.336,0.077-2.576c0-1.383-0.026-2.345-0.077-2.886
										c-0.09-0.866-0.291-1.55-0.6-2.053"/>
									
										<path fill="none" stroke="#373535" stroke-width="1.6101" stroke-linecap="round" stroke-linejoin="round" stroke-miterlimit="3" d="
										M67.966,187.608c-2.997-1.744-4.494-3.236-4.494-4.476"/>
									
										<path fill="none" stroke="#373535" stroke-width="1.6101" stroke-linecap="round" stroke-linejoin="round" stroke-miterlimit="3" d="
										M87.263,234.065c0.09,0.376,0.239,0.769,0.445,1.183c0.116,0.219,0.265,0.497,0.445,0.832
										c1.111,1.33,2.428,2.339,3.952,3.022c1.485,0.672,3.086,1.008,4.805,1.008c1.498-0.143,3.591-0.511,6.277-1.105
										c1.369-0.349,2.344-0.703,2.926-1.065c0.594-0.387,0.891-0.86,0.891-1.415c0-0.271-0.142-0.594-0.425-0.968
										c-0.349-0.491-0.878-0.988-1.589-1.492c-0.426-0.258-0.942-0.672-1.55-1.24c-0.698-0.658-1.156-1.071-1.375-1.239
										l-4.263-4.262c-1.408-0.711-2.454-1.984-3.139-3.817c0-0.324-0.169-0.666-0.503-1.027c-0.31-0.335-0.814-0.736-1.511-1.201
										l-2.48-2.481"/>
									
										<path fill="none" stroke="#373535" stroke-width="1.6101" stroke-linecap="round" stroke-linejoin="round" stroke-miterlimit="3" d="
										M87.263,234.065c1.576,0.595,2.848,0.892,3.817,0.892l4.475-1.357c2.7-0.891,4.721-1.337,6.064-1.337"/>
									
										<path fill="none" stroke="#373535" stroke-width="1.6101" stroke-linecap="round" stroke-linejoin="round" stroke-miterlimit="3" d="
										M157.046,238.773c0.219,0.672,1.137,0.839,2.75,0.505c1.589-0.323,3.959-1.162,7.11-2.519c1.653,0,2.481,0.071,2.481,0.214
										l2.227,0.91"/>
									
										<path fill="none" stroke="#373535" stroke-width="1.6101" stroke-linecap="round" stroke-linejoin="round" stroke-miterlimit="3" d="
										M168.709,232.941c1.047,0,2.092-0.523,3.139-1.569"/>
									
										<path fill="none" stroke="#373535" stroke-width="1.6101" stroke-linecap="round" stroke-linejoin="round" stroke-miterlimit="3" d="
										M171.615,237.882c-1.24-1.498-2.176-2.687-2.809-3.565c-0.787-1.085-1.343-1.994-1.666-2.731l-0.233-1.124
										c0.646-2.131,0.723-4.45,0.233-6.955"/>
									
										<path fill="none" stroke="#373535" stroke-width="1.6101" stroke-linecap="round" stroke-linejoin="round" stroke-miterlimit="3" d="
										M171.848,231.371c1.757,3.048,3.106,4.695,4.049,4.941c-0.516,0.62-1.079,1.047-1.685,1.278
										c-0.466,0.194-1.027,0.291-1.685,0.291"/>
									
										<line fill="none" stroke="#373535" stroke-width="1.6101" stroke-linecap="round" stroke-linejoin="round" stroke-miterlimit="3" x1="167.14" y1="223.507" x2="171.848" y2="231.371"/>
									
										<path fill="none" stroke="#373535" stroke-width="1.6101" stroke-linecap="round" stroke-linejoin="round" stroke-miterlimit="3" d="
										M171.615,237.882l4.941,5.153c-1.782,0.595-2.809,0.931-3.08,1.007c-0.736,0.233-1.201,0.349-1.395,0.349
										c-0.466,0.219-2.861,0.219-7.188,0c-2.156,0-3.835-0.18-5.036-0.543c-1.24-0.361-2.028-0.936-2.364-1.723
										c-1.047-1.822-1.569-3.688-1.569-5.6c-0.452-1.588-0.678-3.009-0.678-4.262c0.452-1.498,0.678-3.067,0.678-4.707
										c0-0.336-0.026-0.608-0.077-0.815c-0.103-0.362-0.303-0.691-0.601-0.988c-0.296-1.138-0.445-1.886-0.445-2.248
										c3.512-14.958,5.457-23.856,5.832-26.697"/>
									
										<path fill="none" stroke="#373535" stroke-width="1.6101" stroke-linecap="round" stroke-linejoin="round" stroke-miterlimit="3" d="
										M21.063,193.226c-0.788-0.685-1.285-1.46-1.492-2.325c-0.194-0.891-0.071-1.834,0.368-2.829l4.282-11.005
										c0.995-2.673,1.963-6.038,2.906-10.092c0.749-5.361,1.124-9.997,1.124-13.91c0-3.243-0.445-6.459-1.336-9.648"/>
									
										<path fill="none" stroke="#373535" stroke-width="1.6101" stroke-linecap="round" stroke-linejoin="round" stroke-miterlimit="3" d="
										M26.914,143.416l0.891,6.723c0,5.85-2.169,12.438-6.509,19.76c-1.989,3.746-3.991,6.613-6.006,8.602
										c-1.95,1.925-3.836,2.945-5.658,3.061"/>
									
										<path fill="none" stroke="#373535" stroke-width="1.6101" stroke-linecap="round" stroke-linejoin="round" stroke-miterlimit="3" d="
										M20.617,158.896c0.606-2.415,0.91-4.734,0.91-6.955c0-2.248-0.156-5.464-0.465-9.648"/>
									
										<path fill="none" stroke="#373535" stroke-width="1.6101" stroke-linecap="round" stroke-linejoin="round" stroke-miterlimit="3" d="
										M45.532,235.846c-1.447-2.389-2.273-3.584-2.48-3.584c-1.047-0.827-1.569-2.169-1.569-4.03
										c0-0.375-0.445-1.124-1.336-2.248c-0.672-0.71-1.143-1.201-1.414-1.472c-0.426-0.426-0.781-0.685-1.066-0.775
										c-2.015-5.632-3.132-10.94-3.352-15.926v-7.632c0.103,0,0.206-0.045,0.31-0.136c0.09-0.103,0.135-0.206,0.135-0.31
										c0-0.156,0.064-0.425,0.194-0.814c0.167-0.503,0.4-1.058,0.697-1.666l0.445-1.124c0.169-0.646,0.394-1.912,0.678-3.798
										c0.13-1.717,0.252-2.944,0.368-3.681c0.142-0.878,0.316-1.375,0.523-1.492l-0.214-0.214
										c-0.09,0.091-0.058-0.296,0.097-1.163c0.31-1.472,0.574-2.808,0.794-4.009c0.439-1.769,1.402-4.037,2.886-6.8
										c1.447-2.701,3.475-6.038,6.083-10.017c1.085-4.314,2.505-7.833,4.262-10.558l0.678-1.124"/>
									
										<path fill="none" stroke="#373535" stroke-width="1.6101" stroke-linecap="round" stroke-linejoin="round" stroke-miterlimit="3" d="
										M43.963,151.94c1.459-0.453,2.841-1.117,4.145-1.995s2.46-1.931,3.468-3.158c2.028-2.247,3.152-4.869,3.37-7.865"/>
									
										<path fill="none" stroke="#373535" stroke-width="1.6101" stroke-linecap="round" stroke-linejoin="round" stroke-miterlimit="3" d="
										M23.311,147.446c0-4.611-0.478-8.808-1.433-12.592c-0.904-3.617-2.221-6.75-3.952-9.397"/>
									
										<path fill="none" stroke="#373535" stroke-width="1.6101" stroke-linecap="round" stroke-linejoin="round" stroke-miterlimit="3" d="
										M14.554,176.178c0.762-1.498,1.511-3.894,2.248-7.188c1.511-5.618,2.034-13.246,1.569-22.88"/>
									
										<path fill="none" stroke="#373535" stroke-width="1.6101" stroke-linecap="round" stroke-linejoin="round" stroke-miterlimit="3" d="
										M24.88,186.038c0.93-1.098,1.679-2.519,2.247-4.262c0.426-0.956,0.717-1.892,0.872-2.809
										c0.142-0.814,0.155-1.524,0.039-2.131"/>
									
										<path fill="none" stroke="#373535" stroke-width="1.6101" stroke-linecap="round" stroke-linejoin="round" stroke-miterlimit="3" d="
										M20.405,193.439c0.297,0.4,0.549,0.82,0.756,1.259c0.09,0.22,0.284,0.698,0.582,1.434c0.388,1.381,0.652,2.357,0.794,2.926
										c0.323,1.381,0.582,2.802,0.775,4.261l3.139,15.713c0.504,2.893,0.659,4.838,0.466,5.832l-0.91,5.155
										c-0.104,0.322,0.116,0.722,0.659,1.2c0.478,0.426,1.304,1.001,2.48,1.724c0.981,0.478,1.356,1.602,1.123,3.372
										c-0.142,0.736-0.213,1.854-0.213,3.351"/>
									
										<path fill="none" stroke="#373535" stroke-width="1.6101" stroke-linecap="round" stroke-linejoin="round" stroke-miterlimit="3" d="
										M27.127,193.226c-1.214-0.556-2.099-1.201-2.655-1.939c-0.542-0.723-0.703-1.427-0.484-2.111"/>
									
										<line fill="none" stroke="#373535" stroke-width="1.6101" stroke-linecap="round" stroke-linejoin="round" stroke-miterlimit="3" x1="52.255" y1="153.278" x2="49.562" y2="159.574"/>
									
										<path fill="none" stroke="#373535" stroke-width="1.6101" stroke-linecap="round" stroke-linejoin="round" stroke-miterlimit="3" d="
										M9.632,181.562c-0.335,0.336-0.711,0.601-1.124,0.794c-0.413,0.206-0.788,0.31-1.124,0.31"/>
									
										<path fill="none" stroke="#373535" stroke-width="1.6101" stroke-linecap="round" stroke-linejoin="round" stroke-miterlimit="3" d="
										M30.053,239.663l0.213,0.911c0.672,1.318,1.628,2.286,2.867,2.906c1.201,0.608,2.713,0.911,4.534,0.911
										c1.924,0,4.023-0.226,6.297-0.678c2.751-0.594,4.391-1.42,4.92-2.481c0-0.167-0.071-0.439-0.214-0.814
										c-0.206-0.515-0.503-1.065-0.891-1.647l-2.034-2.693l-0.214-0.233"/>
									
										<path fill="none" stroke="#373535" stroke-width="1.6101" stroke-linecap="round" stroke-linejoin="round" stroke-miterlimit="3" d="
										M30.053,239.663c5.372-1.187,9.183-2.156,11.43-2.906c2.222-0.606,3.571-0.911,4.049-0.911"/>
									
										<path fill="none" stroke="#373535" stroke-width="1.6101" stroke-linecap="round" stroke-linejoin="round" stroke-miterlimit="3" d="
										M227.489,69.603c6.483,3.126,10.674,5.515,12.574,7.168"/>
								</g>
							</g>
						</g>
					</g>
				</g>
			</g>
		</g>
	</g>
</g>
</svg>
