<?xml version="1.0" encoding="utf-8"?>
<!-- Generator: Adobe Illustrator 17.0.1, SVG Export Plug-In . SVG Version: 6.00 Build 0)  -->
<!DOCTYPE svg PUBLIC "-//W3C//DTD SVG 1.1//EN" "http://www.w3.org/Graphics/SVG/1.1/DTD/svg11.dtd">
<svg version="1.1" id="Layer_1" xmlns="http://www.w3.org/2000/svg" xmlns:xlink="http://www.w3.org/1999/xlink" x="0px" y="0px"
	 width="250.315px" height="217.243px" viewBox="3.061 16.276 250.315 217.243"
	 enable-background="new 3.061 16.276 250.315 217.243" xml:space="preserve">
<g>
	<g id="Layer_1_1_">
		<g>
			<g id="Layer_1_3_">
				<g>
					<path fill="#FFFFFF" d="M171.885,197.436c0.814-1.641,1.525-2.521,2.133-2.643c1.179-0.207,1.913-0.237,2.205-0.091
						c-0.619,0.606-1.209,1.536-1.768,2.788c-0.656,1.434-0.741,2.375-0.255,2.824c0.425,0.39,0.99,0.656,1.694,0.803
						c0.268,0.061,0.887,0.133,1.859,0.218l0.091,0.092c0.632,0.547,1.324,0.753,2.077,0.619c0.122,0,0.401-0.012,0.839-0.036
						c0.462,0.134,0.814,0.346,1.057,0.638c-0.947,0.607-2.266,0.941-3.954,1.003c-1.92-0.037-3.305-0.043-4.155-0.019
						c-1.933,0.036-2.923-0.681-2.971-2.15C170.688,200.437,171.071,199.088,171.885,197.436z"/>
					<path fill="none" stroke="#373535" stroke-width="1.5" d="M171.885,197.436c-0.813,1.652-1.196,3.001-1.147,4.046
						c0.048,1.47,1.038,2.187,2.971,2.15c0.851-0.024,2.235-0.019,4.155,0.019c1.688-0.062,3.007-0.396,3.954-1.003
						c-0.242-0.292-0.595-0.504-1.057-0.638c-0.438,0.024-0.717,0.036-0.839,0.036c-0.753,0.134-1.445-0.072-2.077-0.619
						l-0.091-0.092c-0.973-0.085-1.592-0.157-1.859-0.218c-0.704-0.146-1.27-0.413-1.694-0.803
						c-0.486-0.449-0.401-1.391,0.255-2.824c0.559-1.252,1.148-2.182,1.768-2.788c-0.292-0.146-1.026-0.116-2.205,0.091
						C173.41,194.914,172.699,195.795,171.885,197.436z"/>
					<path fill="#FFFFFF" d="M126.998,47.719c0.912,5.491,1.731,9.495,2.46,12.01c0.219,0.753,0.316,1.367,0.292,1.841
						c0.207,0.45,0.711,1.488,1.512,3.116c5.14,12.381,8.712,20.582,10.717,24.604c0.789,1.786,1.561,3.487,2.314,5.103
						l6.251,14.708l-15.929,16.238l16.876-14.27l1.986,4.21l-21.213,17.131l22.088-15.691l3.846,5.832l0.073,1.604l-17.952,9.714
						l20.212-9.058l5.741,4.374l0.655,4.191c-2.879,1.823-4.483,4.447-4.811,7.873c-0.475,3.451-10.012,5.681-28.613,6.688
						c-0.875,0.353-1.61,0.669-2.205,0.948c-0.425,0.158-1.203,0.407-2.333,0.747c-2.989,2.345-5.911,2.363-8.766,0.055
						c-0.316-0.23-0.559-0.468-0.729-0.711c-0.194-0.268-0.353-0.607-0.474-1.021c-2.564-9.222-3.341-19.075-2.333-29.561
						c0.45-2.722,0.808-4.599,1.076-5.632c0-0.23,0.079-1.069,0.237-2.515c0.206-1.798,0.358-3.469,0.456-5.012
						c0.619-6.537,1.288-12.15,2.004-16.84c1.082-7.132,1.209-14.009,0.383-20.63c-0.741-6.039-1.203-11.919-1.385-17.642
						c0.133-3.402,0.407-8.08,0.82-14.033c0.705-2.734,1.27-5.14,1.695-7.217c-0.024-0.656-0.03-1.142-0.018-1.458l2.825,8.766
						L126.998,47.719z"/>
					<path fill="none" stroke="#373535" stroke-width="1.5" d="M126.998,47.719c0.912,5.491,1.731,9.495,2.46,12.01
						c0.219,0.753,0.316,1.367,0.292,1.841c0.207,0.45,0.711,1.488,1.512,3.116c5.14,12.381,8.712,20.582,10.717,24.604
						c0.789,1.786,1.561,3.487,2.314,5.103l6.251,14.708l-15.929,16.238l16.876-14.27l1.986,4.21l-21.213,17.131l22.088-15.691
						l3.846,5.832l0.073,1.604l-17.952,9.714l20.212-9.058l5.741,4.374l0.655,4.191c-2.879,1.823-4.483,4.447-4.811,7.873
						c-0.475,3.451-10.012,5.681-28.613,6.688c-0.875,0.353-1.61,0.669-2.205,0.948c-0.425,0.158-1.203,0.407-2.333,0.747
						c-2.989,2.345-5.911,2.363-8.766,0.055c-0.316-0.23-0.559-0.468-0.729-0.711c-0.194-0.268-0.353-0.607-0.474-1.021
						c-2.564-9.222-3.341-19.075-2.333-29.561c0.45-2.722,0.808-4.599,1.076-5.632c0-0.23,0.079-1.069,0.237-2.515
						c0.206-1.798,0.358-3.469,0.456-5.012c0.619-6.537,1.288-12.15,2.004-16.84c1.082-7.132,1.209-14.009,0.383-20.63
						c-0.741-6.039-1.203-11.919-1.385-17.642c0.133-3.402,0.407-8.08,0.82-14.033c0.705-2.734,1.27-5.14,1.695-7.217
						c-0.024-0.656-0.03-1.142-0.018-1.458l2.825,8.766L126.998,47.719z"/>
					<g>
						<g>
							<path fill="#201F1F" d="M136.183,111.232l4.775,7.18l-7.673,9.769l8.237-8.62l1.349,2.551l-10.314,11.062l11.645-8.292
								l0.603,2.606l-12.266,9.623l13.067-8.456l0.51,1.239l-12.192,9.058l12.83-7.399l0.948,3.044l-15.091,7.6l15.218-7.163
								l1.458,5.358l-24.421,9.97c0.243-1.361,0.261-2.631,0.055-3.81c-0.122-1.228-0.443-2.442-0.966-3.645
								c-1.361-3.074-1.792-6.343-1.294-9.806c0.353-5.066,1.531-10.084,3.536-15.053l5.905-12.192l3.371,4.501l-2.26,3.663
								L136.183,111.232z"/>
						</g>
					</g>
					<g>
						<path fill="#FFFFFF" d="M203.269,173.543c-1.361-2.965-1.282-3.67,0.236-2.114
							C203.286,172.108,203.208,172.813,203.269,173.543z"/>
						<path fill="#373535" d="M204.508,170.444c0.389,0.413,0.498,0.893,0.327,1.439c-0.121,0.365-0.182,0.771-0.182,1.222
							l0.019,0.328c0.024,0.34-0.062,0.649-0.256,0.929c-0.206,0.268-0.474,0.45-0.802,0.547l-0.364,0.037
							c-0.268,0-0.517-0.073-0.747-0.219c-0.231-0.146-0.407-0.347-0.529-0.602c-0.437-1.009-0.692-1.622-0.765-1.841
							c-0.194-0.522-0.304-1.009-0.328-1.458c0-0.328,0.085-0.638,0.255-0.93c0.122-0.206,0.322-0.383,0.602-0.528
							c0.255-0.134,0.486-0.194,0.692-0.183c0.56,0.086,0.984,0.249,1.275,0.492C203.888,169.825,204.155,170.08,204.508,170.444z"
							/>
					</g>
					<path fill="#FFFFFF" d="M245.44,202.866c1.251,2.43,3.007,5.93,5.267,10.497c0.061,0.195,0.316,0.882,0.766,2.06
						c0.316,0.839,0.547,1.55,0.692,2.133l-0.893,0.018l-0.347-0.4c-0.802-0.936-1.811-2.241-3.025-3.918
						c-0.243-0.401-0.68-1.082-1.312-2.042c-0.607-0.887-1.044-1.567-1.312-2.041c-0.438-0.704-1.106-1.756-2.005-3.152
						c-0.911-1.386-1.586-2.437-2.023-3.153l-0.091-0.109c-0.157-0.17-0.17-0.401-0.036-0.692c-1.701-1.434-2.801-2.357-3.299-2.77
						c-1.324-1.07-2.588-2.029-3.791-2.88c-4.046-3.05-7.381-5.784-10.005-8.201c-1.361-1.143-2.977-2.57-4.848-4.283
						c-2.15-1.98-3.791-3.48-4.921-4.501c-0.936-0.911-1.646-1.598-2.133-2.06c-0.85-0.839-1.53-1.55-2.041-2.133l-4.848-5.595
						c-0.498-0.862-1.002-1.513-1.513-1.95l-0.182-0.219c-0.049,0.049-0.085,0.073-0.11,0.073c-0.012,0-0.042-0.024-0.091-0.073
						l-0.182-0.219c-0.037,0.036-0.098,0.061-0.183,0.073h-0.109l-0.711-0.82c0.036-0.486,0.073-0.838,0.109-1.057
						c0.061-0.341,0.17-0.662,0.328-0.966c0-0.062,0.043-0.158,0.128-0.292c0.097-0.158,0.164-0.279,0.2-0.364
						c1.094-0.754,2.278-0.99,3.554-0.711l0.383,0.036c4.823,1.179,9.684,3.499,14.58,6.962c0.704,0.607,1.3,1.3,1.786,2.078
						l-0.109,0.291l7.982,9.222c2.563,2.953,5.176,6.318,7.837,10.097C241.862,196.494,244.031,200.182,245.44,202.866z"/>
					<path fill="#FFFFFF" stroke="#373535" stroke-width="1.5" d="M245.44,202.866c-1.409-2.685-3.578-6.372-6.506-11.062
						c-2.661-3.778-5.273-7.144-7.837-10.097l-7.982-9.222l0.109-0.291c-0.486-0.778-1.082-1.471-1.786-2.078
						c-4.896-3.463-9.757-5.783-14.58-6.962l-0.383-0.036c-1.275-0.279-2.46-0.043-3.554,0.711c-0.036,0.085-0.104,0.206-0.2,0.364
						c-0.085,0.134-0.128,0.23-0.128,0.292c-0.158,0.304-0.268,0.625-0.328,0.966c-0.036,0.219-0.073,0.57-0.109,1.057l0.711,0.82
						h0.109c0.085-0.013,0.146-0.037,0.183-0.073l0.182,0.219c0.049,0.049,0.079,0.073,0.091,0.073c0.025,0,0.062-0.024,0.11-0.073
						l0.182,0.219c0.511,0.438,1.015,1.088,1.513,1.95l4.848,5.595c0.511,0.583,1.191,1.294,2.041,2.133
						c0.486,0.462,1.197,1.148,2.133,2.06c1.13,1.021,2.771,2.521,4.921,4.501c1.871,1.713,3.486,3.141,4.848,4.283
						c2.624,2.417,5.959,5.151,10.005,8.201c1.203,0.851,2.467,1.81,3.791,2.88c0.498,0.412,1.598,1.336,3.299,2.77
						c-0.134,0.291-0.121,0.522,0.036,0.692l0.091,0.109c0.438,0.717,1.112,1.768,2.023,3.153c0.898,1.396,1.567,2.448,2.005,3.152
						c0.268,0.474,0.704,1.154,1.312,2.041c0.633,0.96,1.069,1.641,1.312,2.042c1.215,1.677,2.224,2.982,3.025,3.918l0.347,0.4
						l0.893-0.018c-0.146-0.583-0.376-1.294-0.692-2.133c-0.449-1.178-0.705-1.864-0.766-2.06
						C248.447,208.796,246.691,205.296,245.44,202.866z"/>
					<path fill="#FFFFFF" d="M236.063,207.259L236,207.186c-0.486-0.729-2.272-3.086-5.358-7.071
						c-6.27-8.104-10.291-13.304-12.064-15.601c1.773,2.297,5.795,7.497,12.064,15.601c3.086,3.985,4.872,6.343,5.358,7.071
						L236.063,207.259c0.216,0.263,0.456,0.609,0.72,1.038c0.292,0.486,0.505,0.809,0.639,0.967c0.474,0.631,0.96,1.379,1.457,2.241
						c0.146,0.268,0.571,1.063,1.276,2.388c-0.073,0.061-0.049,0.164,0.072,0.31c0.803,1.397,1.805,3.475,3.008,6.232
						c1.057,2.15,1.877,4.514,2.46,7.09c-3.742-1.628-7.083-4.138-10.023-7.527c-2.965-3.426-5.734-7.047-8.311-10.861l-0.183-0.219
						c-1.008-1.434-2.199-3.214-3.572-5.34c-1.518-2.382-2.666-4.161-3.443-5.34c-0.134-0.134-0.195-0.268-0.183-0.4l-0.364-0.42
						c-0.413-0.632-1.009-1.501-1.786-2.606c-0.875-1.239-1.501-2.138-1.877-2.697c-0.904-1.271-2.496-4.352-4.775-9.239
						l-1.094-2.442l1.094,2.442c2.34,5.403,3.792,8.604,4.355,9.604c0.268,0.474,1.252,2.387,2.953,5.74l0.364,0.42
						c1.142,2.454,2.977,5.776,5.504,9.969c0.109,0.279,0.304,0.723,0.583,1.33c1.883,3.208,3.584,6.585,5.103,10.133
						c1.264,3.378,2.267,5.887,3.008,7.527c0.716,1.847,0.734,3.426,0.055,4.738c-2.188-1.871-4.277-4.356-6.27-7.454
						c-0.924-1.324-1.98-2.946-3.171-4.866c-1.312-2.139-2.297-3.724-2.953-4.757c-1.713-2.685-3.286-5.498-4.72-8.438
						c-2.442-5.504-4.988-11.275-7.637-17.313c-3.414-7.91-5.34-14.531-5.776-19.865c-0.062-0.814,0.023-1.567,0.255-2.26
						l0.455,0.528c3.11,3.815,5.061,5.93,5.851,6.342c0.072-0.061,0.17-0.018,0.291,0.128c0.511,0.596,1.203,1.312,2.078,2.15
						c0.485,0.474,1.209,1.173,2.169,2.096c1.142,1.045,2.807,2.57,4.993,4.575c1.896,1.725,3.536,3.171,4.921,4.337
						c2.661,2.442,6.051,5.219,10.169,8.329c1.228,0.862,2.51,1.841,3.846,2.934c0.632,0.511,1.743,1.446,3.335,2.807
						c-0.121,0.28-0.109,0.511,0.037,0.693l0.109,0.109c0.437,0.729,1.117,1.798,2.041,3.207c0.911,1.422,1.585,2.491,2.022,3.208
						c0.243,0.4,0.645,1.111,1.203,2.132c0.522,0.947,0.941,1.677,1.258,2.188c0.461,0.959,1.142,2.46,2.041,4.501
						c0.352,0.681,0.808,1.695,1.367,3.043c0.242,0.511,0.534,1.239,0.874,2.188c0.353,0.996,0.62,1.695,0.803,2.096
						c-0.875-0.729-2.236-2.017-4.083-3.863c-3.014-2.771-5.528-5.315-7.545-7.636l-1.549-1.786
						C238.118,209.778,236.967,208.302,236.063,207.259z"/>
					<path fill="#FFFFFF" stroke="#373535" stroke-width="1.5" d="M236.063,207.259c0.903,1.043,2.055,2.52,3.454,4.429l1.549,1.786
						c2.017,2.32,4.531,4.865,7.545,7.636c1.847,1.847,3.208,3.135,4.083,3.863c-0.183-0.4-0.45-1.1-0.803-2.096
						c-0.34-0.948-0.632-1.677-0.874-2.188c-0.56-1.348-1.016-2.362-1.367-3.043c-0.899-2.041-1.58-3.542-2.041-4.501
						c-0.316-0.511-0.735-1.24-1.258-2.188c-0.559-1.021-0.96-1.731-1.203-2.132c-0.438-0.717-1.111-1.786-2.022-3.208
						c-0.924-1.409-1.604-2.479-2.041-3.207l-0.109-0.109c-0.146-0.183-0.158-0.413-0.037-0.693
						c-1.592-1.36-2.703-2.296-3.335-2.807c-1.336-1.093-2.618-2.071-3.846-2.934c-4.118-3.11-7.508-5.887-10.169-8.329
						c-1.385-1.166-3.025-2.612-4.921-4.337c-2.187-2.005-3.852-3.53-4.993-4.575c-0.96-0.923-1.684-1.622-2.169-2.096
						c-0.875-0.838-1.567-1.555-2.078-2.15c-0.121-0.146-0.219-0.188-0.291-0.128c-0.79-0.412-2.74-2.526-5.851-6.342l-0.455-0.528
						c-0.231,0.692-0.316,1.445-0.255,2.26c0.437,5.334,2.362,11.955,5.776,19.865c2.648,6.038,5.194,11.81,7.637,17.313
						c1.434,2.939,3.007,5.753,4.72,8.438c0.656,1.033,1.641,2.618,2.953,4.757c1.19,1.92,2.247,3.542,3.171,4.866
						c1.992,3.098,4.082,5.583,6.27,7.454c0.68-1.312,0.661-2.892-0.055-4.738c-0.741-1.641-1.744-4.149-3.008-7.527
						c-1.519-3.548-3.22-6.925-5.103-10.133c-0.279-0.607-0.474-1.051-0.583-1.33c-2.527-4.192-4.362-7.515-5.504-9.969l-0.364-0.42
						c-1.701-3.354-2.686-5.267-2.953-5.74c-0.563-1-2.016-4.201-4.355-9.604l-1.094-2.442 M211.178,182.874
						c2.279,4.888,3.871,7.968,4.775,9.239c0.376,0.56,1.002,1.458,1.877,2.697c0.777,1.105,1.373,1.975,1.786,2.606l0.364,0.42
						c-0.013,0.133,0.049,0.267,0.183,0.4c0.777,1.179,1.926,2.958,3.443,5.34c1.373,2.126,2.564,3.906,3.572,5.34l0.183,0.219
						c2.576,3.814,5.346,7.436,8.311,10.861c2.94,3.39,6.281,5.899,10.023,7.527c-0.583-2.576-1.403-4.939-2.46-7.09
						c-1.203-2.758-2.205-4.835-3.008-6.232c-0.121-0.146-0.146-0.249-0.072-0.31c-0.705-1.324-1.13-2.12-1.276-2.388
						c-0.497-0.862-0.983-1.61-1.457-2.241c-0.134-0.158-0.347-0.48-0.639-0.967c-0.264-0.429-0.504-0.775-0.72-1.038L236,207.186
						c-0.486-0.729-2.272-3.086-5.358-7.071c-6.27-8.104-10.291-13.304-12.064-15.601"/>
					<path fill="#FFFFFF" d="M123.499,127.89c1.628,0.037,3.566,0.158,5.813,0.364c1.3,0.122,3.256,0.31,5.869,0.565
						c4.046,0.474,7.994,1.379,11.846,2.715c3.84,1.167,7.679,2.674,11.519,4.521c3.086,1.494,6.913,3.189,11.481,5.084
						c3.682,1.544,7.169,3.244,10.461,5.104c1.409,0.802,4.848,2.776,10.315,5.923c4.422,2.284,8.243,4.04,11.463,5.267
						c2.065,0.936,3.803,1.78,5.213,2.533c1.932,1.033,3.699,2.108,5.303,3.226c2.771,1.884,5.947,4.423,9.532,7.618
						c-1.835,0.231-3.269,0.037-4.302-0.583l-1.549,2.205l-0.492,0.438c0.109,0.899-2.126,1.045-6.707,0.438
						c-4.021-0.607-7.447-0.979-10.278-1.111l-2.205-0.164c-4.338-0.098-8.256,0.304-11.755,1.202
						c-5.346,1.264-9.173,2.097-11.481,2.497c-4.131,0.717-8.22,0.517-12.266-0.602c-4.034-1.057-7.721-2.521-11.062-4.392
						c-3.961-2.114-7.241-4.574-9.841-7.381c-2.989-3.038-5.692-6.167-8.11-9.386c-2.285-3.001-4.204-6.343-5.759-10.024
						c-0.705-1.725-1.883-3.414-3.536-5.066c-2.479-2.09-4.331-3.432-5.559-4.027c-2.375-1.17-4.367-1.078-5.978,0.273
						c0.771-0.685,1.305-1.529,1.604-2.533c0.11-0.389,0.098-1.015-0.036-1.877c-0.146-0.838-0.176-1.391-0.091-1.659
						c0.279-0.813,1.926-1.257,4.938-1.33C118.663,127.701,120.546,127.756,123.499,127.89z"/>
					<path fill="#FFFFFF" stroke="#373535" stroke-width="1.5" d="M123.499,127.89c-2.953-0.134-4.836-0.188-5.65-0.164
						c-3.013,0.073-4.659,0.517-4.938,1.33c-0.085,0.268-0.055,0.82,0.091,1.659c0.134,0.863,0.146,1.489,0.036,1.877
						c-0.299,1.004-0.833,1.849-1.604,2.533c1.61-1.352,3.603-1.443,5.978-0.273c1.228,0.596,3.08,1.938,5.559,4.027
						c1.653,1.652,2.831,3.342,3.536,5.066c1.555,3.682,3.475,7.023,5.759,10.024c2.418,3.219,5.121,6.348,8.11,9.386
						c2.6,2.807,5.88,5.267,9.841,7.381c3.342,1.871,7.028,3.335,11.062,4.392c4.046,1.118,8.135,1.318,12.266,0.602
						c2.309-0.4,6.136-1.233,11.481-2.497c3.499-0.898,7.417-1.3,11.755-1.202l2.205,0.164c2.831,0.133,6.257,0.504,10.278,1.111
						c4.581,0.607,6.816,0.462,6.707-0.438l0.492-0.438l1.549-2.205c1.033,0.62,2.467,0.814,4.302,0.583
						c-3.585-3.195-6.762-5.734-9.532-7.618c-1.604-1.117-3.371-2.192-5.303-3.226c-1.41-0.753-3.147-1.598-5.213-2.533
						c-3.22-1.227-7.041-2.982-11.463-5.267c-5.468-3.146-8.906-5.121-10.315-5.923c-3.292-1.859-6.779-3.56-10.461-5.104
						c-4.568-1.895-8.396-3.59-11.481-5.084c-3.84-1.847-7.679-3.354-11.519-4.521c-3.852-1.336-7.8-2.241-11.846-2.715
						c-2.612-0.255-4.568-0.443-5.869-0.565C127.064,128.047,125.126,127.926,123.499,127.89z"/>
					<path fill="#FFFFFF" d="M57.178,134.122l0.347-0.455c3.778-0.207,7.302-0.528,10.57-0.966
						c4.435-0.596,8.432-0.851,11.992-0.766c4.289-0.024,8.141,0.03,11.555,0.164c3.924-0.024,7.533-0.771,10.826-2.242
						c3.146-1.385,5.953-1.98,8.419-1.786l0.766-0.218c0.632,1.312,0.972,2.502,1.021,3.572c-0.024,1.081-0.231,1.949-0.62,2.605
						c-0.097,0.341-0.273,0.675-0.528,1.002c-0.146,0.243-0.34,0.529-0.583,0.857c-2.563,3.146-3.852,5.278-3.863,6.396
						c0.158,1.19-2.764,4.119-8.766,8.784c-4.921,3.973-8.967,5.613-12.138,4.921c-0.389-0.194-0.936-0.413-1.641-0.656
						c-1.105-0.656-1.896-1.19-2.369-1.604c-0.413-0.134-0.766-0.347-1.057-0.638c-1.41-0.984-3.317-2.618-5.723-4.902
						c-2.977-3.025-5.936-5.698-8.875-8.02C63.047,137.524,59.937,135.508,57.178,134.122z"/>
					<path fill="none" stroke="#373535" stroke-width="1.5" d="M57.178,134.122c2.758,1.386,5.869,3.402,9.332,6.051
						c2.94,2.321,5.899,4.994,8.875,8.02c2.405,2.284,4.313,3.918,5.723,4.902c0.291,0.291,0.644,0.504,1.057,0.638
						c0.474,0.413,1.264,0.947,2.369,1.604c0.705,0.243,1.251,0.462,1.641,0.656c3.171,0.692,7.217-0.948,12.138-4.921
						c6.002-4.665,8.924-7.594,8.766-8.784c0.012-1.118,1.3-3.25,3.863-6.396c0.243-0.328,0.438-0.614,0.583-0.857
						c0.255-0.327,0.431-0.661,0.528-1.002c0.389-0.656,0.595-1.524,0.62-2.605c-0.048-1.07-0.389-2.261-1.021-3.572l-0.766,0.218
						c-2.466-0.194-5.273,0.401-8.419,1.786c-3.293,1.47-6.901,2.217-10.826,2.242c-3.414-0.134-7.266-0.188-11.555-0.164
						c-3.56-0.085-7.557,0.17-11.992,0.766c-3.268,0.438-6.792,0.759-10.57,0.966L57.178,134.122z"/>
					<path fill="#FFFFFF" d="M122.952,138.241c1.628,1.652,2.8,3.342,3.518,5.066c1.567,3.669,3.487,7.017,5.759,10.042
						c2.526,3.305,5.236,6.434,8.128,9.386c2.637,2.843,5.917,5.297,9.841,7.362c3.221,1.823,6.908,3.293,11.062,4.411
						c3.998,1.105,8.086,1.306,12.266,0.602c2.503-0.438,6.33-1.276,11.481-2.516c3.512-0.887,7.424-1.281,11.737-1.185l2.223,0.164
						l0.073,0.091c0.717-0.036,1.458,0.019,2.224,0.165c0.595,0.193,0.929,0.31,1.002,0.346c0.353,0.158,0.638,0.364,0.856,0.619
						c0.498,0.256,0.771,0.766,0.82,1.531l0.164,0.201c0.036,0.036,0.146,0.091,0.328,0.163c0.183,0.085,0.285,0.141,0.31,0.164
						l0.164,0.201c2.455,0.898,4.593,2.503,6.415,4.811c0.474,0.754,0.607,1.44,0.401,2.06c-0.96,0.851-1.713,1.446-2.26,1.786
						c-0.851,0.911-1.933,1.854-3.244,2.825c-3.317,2.017-6.962,2.922-10.935,2.716l-0.748,0.146
						c-1.98-0.036-3.577,0.249-4.793,0.856c-7.508,3.791-16.505,5.717-26.99,5.777c-9.976,0.049-20.127-1.58-30.454-4.885
						c-10.424-3.341-19.634-7.939-27.628-13.796c-8.505-6.245-14.653-13.23-18.443-20.958c-0.122-0.231-0.14-0.365-0.055-0.401
						c3.171,0.692,7.217-0.948,12.138-4.921c6.002-4.665,8.924-7.594,8.766-8.784c0.012-1.118,1.3-3.25,3.863-6.396
						c0.243-0.328,0.438-0.614,0.583-0.857c0.146,0.013,0.425-0.406,0.838-1.257c0.389-0.802,0.656-1.148,0.802-1.039l-0.073-0.292
						l0.183,0.019C116.64,133.74,119.866,135.666,122.952,138.241z"/>
					<path fill="none" stroke="#373535" stroke-width="1.5" d="M122.952,138.241c-3.086-2.575-6.312-4.501-9.677-5.777l-0.183-0.019
						l0.073,0.292c-0.146-0.109-0.413,0.237-0.802,1.039c-0.413,0.851-0.693,1.27-0.838,1.257c-0.146,0.243-0.34,0.529-0.583,0.857
						c-2.563,3.146-3.852,5.278-3.863,6.396c0.158,1.19-2.764,4.119-8.766,8.784c-4.921,3.973-8.967,5.613-12.138,4.921
						c-0.085,0.036-0.067,0.17,0.055,0.401c3.791,7.728,9.938,14.713,18.443,20.958c7.994,5.856,17.204,10.455,27.628,13.796
						c10.327,3.305,20.479,4.934,30.454,4.885c10.485-0.061,19.482-1.986,26.99-5.777c1.216-0.607,2.812-0.893,4.793-0.856
						l0.748-0.146c3.973,0.206,7.617-0.699,10.935-2.716c1.312-0.972,2.394-1.914,3.244-2.825c0.547-0.34,1.3-0.936,2.26-1.786
						c0.206-0.619,0.072-1.306-0.401-2.06c-1.822-2.308-3.96-3.912-6.415-4.811l-0.164-0.201c-0.024-0.023-0.127-0.079-0.31-0.164
						c-0.183-0.072-0.292-0.127-0.328-0.163l-0.164-0.201c-0.049-0.766-0.322-1.275-0.82-1.531
						c-0.219-0.255-0.504-0.461-0.856-0.619c-0.073-0.036-0.407-0.152-1.002-0.346c-0.766-0.146-1.507-0.201-2.224-0.165
						l-0.073-0.091l-2.223-0.164c-4.313-0.097-8.226,0.298-11.737,1.185c-5.151,1.239-8.979,2.078-11.481,2.516
						c-4.18,0.704-8.268,0.504-12.266-0.602c-4.154-1.118-7.842-2.588-11.062-4.411c-3.924-2.065-7.204-4.52-9.841-7.362
						c-2.892-2.952-5.602-6.081-8.128-9.386c-2.272-3.025-4.192-6.373-5.759-10.042C125.752,141.583,124.58,139.894,122.952,138.241
						z"/>
					<path fill="#FFFFFF" d="M51.894,124.5c0.207-0.28,0.437-0.492,0.692-0.638c3.05-3.11,5.395-5.851,7.035-8.22
						c0.887-1.349,2.181-2.758,3.882-4.228c0.972-0.79,1.713-1.385,2.224-1.786c0.887-0.681,1.713-1.239,2.479-1.677
						c3.499-2.442,7.333-4.021,11.5-4.738c0.231-0.122,0.62-0.219,1.167-0.292c3.536-0.546,7.096-0.492,10.68,0.165
						c3.803,0.438,6.762,2.527,8.876,6.269c2.199,3.596,4.252,7.193,6.16,10.789c1.19,2.114,2.399,3.894,3.626,5.34
						c0.766,1.179,1.227,1.926,1.385,2.242l-0.711,0.346c-2.466-0.194-5.273,0.401-8.419,1.786
						c-3.293,1.47-6.901,2.217-10.826,2.242c-3.414-0.134-7.266-0.188-11.555-0.164c-3.56-0.085-7.557,0.17-11.992,0.766
						c-3.268,0.438-6.792,0.759-10.57,0.966l-0.292-0.583l-0.401,0.055l2.078-3.5l1.804-0.438l-0.456-0.948l-12.375-1.221
						L51.894,124.5z"/>
					<path fill="#FFFFFF" stroke="#373535" stroke-width="1.5" d="M51.894,124.5l-4.01,2.533l12.375,1.221l0.456,0.948l-1.804,0.438
						l-2.078,3.5l0.401-0.055l0.292,0.583c3.778-0.207,7.302-0.528,10.57-0.966c4.435-0.596,8.432-0.851,11.992-0.766
						c4.289-0.024,8.141,0.03,11.555,0.164c3.924-0.024,7.533-0.771,10.826-2.242c3.146-1.385,5.953-1.98,8.419-1.786l0.711-0.346
						c-0.158-0.316-0.62-1.063-1.385-2.242c-1.227-1.446-2.436-3.226-3.626-5.34c-1.907-3.596-3.961-7.193-6.16-10.789
						c-2.114-3.742-5.073-5.832-8.876-6.269c-3.584-0.656-7.144-0.711-10.68-0.165c-0.547,0.073-0.936,0.17-1.167,0.292
						c-4.167,0.717-8,2.296-11.5,4.738c-0.766,0.438-1.592,0.996-2.479,1.677c-0.51,0.401-1.251,0.996-2.224,1.786
						c-1.701,1.47-2.995,2.879-3.882,4.228c-1.64,2.369-3.985,5.109-7.035,8.22C52.331,124.008,52.1,124.22,51.894,124.5z"/>
					<g>
						<path fill="#373535" d="M79.084,119.779c-0.109-0.036-0.249-0.018-0.419,0.055c-0.304,0.17-0.48,0.303-0.529,0.401
							c0,0.097,0,0.212,0,0.346c0,0.097,0.037,0.158,0.109,0.182c-0.024,0.085,0.006,0.17,0.091,0.255
							c0.073,0.073,0.158,0.127,0.255,0.164c0.121,0.036,0.34-0.019,0.656-0.164c0.158-0.073,0.255-0.17,0.292-0.292
							c0.122-0.158,0.122-0.353,0-0.583C79.479,119.986,79.328,119.865,79.084,119.779z M74.747,120.837
							c0.401-0.134,0.711-0.45,0.93-0.948c0.219-0.51,0.23-0.965,0.036-1.367c-0.158-0.304-0.425-0.522-0.802-0.656
							c-0.352-0.122-0.705-0.146-1.057-0.073c-0.51,0.122-0.838,0.431-0.984,0.93c-0.158,0.583-0.049,1.13,0.328,1.64
							C73.599,120.897,74.115,121.055,74.747,120.837z M73.216,116.627c0.377-0.425,0.863-0.79,1.458-1.094
							c1.215-0.583,2.406-0.626,3.572-0.127c1.094,0.267,1.962,1.051,2.606,2.351c0.522,1.069,0.607,2.235,0.255,3.499
							c-0.438,1.3-1.203,2.211-2.297,2.734c-1.069,0.51-2.296,0.577-3.681,0.2c-1.3-0.668-2.168-1.458-2.606-2.369
							c-0.28-0.571-0.438-1.172-0.474-1.804c-0.037-0.595,0.037-1.16,0.219-1.695C72.5,117.641,72.815,117.076,73.216,116.627z"/>
						<path fill="#373535" d="M76.625,114.585c0.607,0,1.185,0.122,1.731,0.365c1.264,0.328,2.236,1.191,2.916,2.588
							c0.353,0.741,0.529,1.482,0.529,2.223c0,0.486-0.085,1.033-0.255,1.641c-0.474,1.409-1.318,2.412-2.533,3.007
							c-0.668,0.328-1.391,0.492-2.168,0.492c-0.583,0-1.228-0.097-1.932-0.292c-1.373-0.705-2.308-1.567-2.807-2.587
							c-0.364-0.717-0.547-1.482-0.547-2.296c0-0.547,0.085-1.063,0.255-1.549c0.486-1.421,1.373-2.442,2.661-3.062
							C75.178,114.762,75.896,114.585,76.625,114.585z M75.312,117.52c0.365,0.182,0.638,0.449,0.82,0.802
							c0.109,0.219,0.164,0.486,0.164,0.802c-0.012,0.474-0.14,0.905-0.383,1.294c-0.255,0.413-0.595,0.699-1.021,0.856
							c-0.219,0.073-0.432,0.109-0.638,0.109c-0.413-0.012-0.777-0.146-1.093-0.401c-0.292-0.219-0.51-0.517-0.656-0.893
							c0.061,0.559,0.206,1.069,0.437,1.531c0.401,0.802,1.172,1.506,2.314,2.114c0.608,0.158,1.136,0.237,1.586,0.237
							c0.595,0,1.178-0.134,1.75-0.401c0.984-0.474,1.67-1.288,2.06-2.442c0.133-0.51,0.2-0.965,0.2-1.367
							c0-0.607-0.14-1.209-0.419-1.804c-0.571-1.142-1.361-1.853-2.37-2.132c-0.498-0.195-0.978-0.292-1.439-0.292
							c-0.583,0-1.167,0.14-1.75,0.419c-0.826,0.425-1.428,0.99-1.804,1.695c0.194-0.158,0.413-0.261,0.656-0.31
							c0.219-0.048,0.395-0.073,0.528-0.073C74.644,117.277,74.996,117.362,75.312,117.52z M75.367,119.124
							c0-0.109-0.024-0.237-0.073-0.383c-0.073-0.158-0.207-0.286-0.401-0.383c-0.207-0.097-0.419-0.146-0.638-0.146l-0.291,0.036
							c-0.328,0.097-0.541,0.298-0.638,0.602l-0.456-0.127l0.438,0.146l-0.037,0.31c0,0.328,0.097,0.625,0.292,0.893
							c0.194,0.255,0.425,0.382,0.692,0.382c0.11,0,0.219-0.018,0.328-0.054c0.194-0.061,0.377-0.225,0.547-0.492
							C75.3,119.64,75.379,119.379,75.367,119.124z M77.663,120.545l0.037-0.456c0.085-0.194,0.212-0.346,0.383-0.456
							c0.182-0.097,0.304-0.164,0.364-0.201c0.194-0.097,0.358-0.146,0.492-0.146c0.122,0,0.225,0.018,0.31,0.055
							c0.183,0.049,0.346,0.14,0.492,0.273c0.122,0.122,0.194,0.225,0.219,0.31c0.097,0.243,0.146,0.413,0.146,0.51
							c0,0.219-0.042,0.371-0.127,0.456c-0.073,0.231-0.25,0.414-0.529,0.547c-0.134,0.061-0.243,0.109-0.328,0.146
							c-0.146,0.048-0.286,0.073-0.419,0.073c-0.097,0-0.182-0.012-0.255-0.036c-0.207-0.097-0.328-0.165-0.364-0.201
							c-0.134-0.097-0.225-0.237-0.273-0.419C77.663,120.806,77.615,120.654,77.663,120.545z M79.158,120.436l-0.037-0.091
							c-0.012-0.024-0.073-0.061-0.182-0.109l-0.328,0.164l-0.018,0.054c0.048,0.049,0.085,0.116,0.109,0.201l0.019,0.055
							c0.061,0,0.164-0.042,0.31-0.127c0.037,0.012,0.061,0.012,0.073,0c0.012-0.037,0.024-0.073,0.036-0.109L79.158,120.436z"/>
					</g>
					<path fill="#FFFFFF" d="M78.666,119.834c0.17-0.073,0.31-0.091,0.419-0.055c0.243,0.085,0.395,0.207,0.456,0.365
						c0.122,0.231,0.122,0.425,0,0.583c-0.037,0.122-0.134,0.219-0.292,0.292c-0.316,0.146-0.535,0.2-0.656,0.164
						c-0.098-0.037-0.183-0.091-0.255-0.164c-0.085-0.085-0.115-0.17-0.091-0.255c-0.073-0.024-0.109-0.085-0.109-0.182
						c0-0.134,0-0.249,0-0.346C78.186,120.138,78.362,120.004,78.666,119.834z"/>
					<path fill="#373535" d="M76.643,114.349c0.631,0,1.228,0.122,1.786,0.365c1.324,0.34,2.339,1.251,3.043,2.733
						c0.364,0.717,0.547,1.488,0.547,2.314c0,0.535-0.079,1.112-0.237,1.731c-0.498,1.458-1.391,2.497-2.679,3.116
						c-0.705,0.353-1.458,0.529-2.26,0.529c-0.632,0-1.312-0.109-2.042-0.328c-1.421-0.717-2.393-1.61-2.916-2.679
						c-0.376-0.765-0.565-1.567-0.565-2.405c0-0.583,0.091-1.13,0.273-1.64c0.486-1.458,1.409-2.515,2.771-3.171
						C75.094,114.537,75.853,114.349,76.643,114.349z M73.745,117.083c-0.316,0.364-0.589,0.856-0.82,1.476
						c-0.122,0.328-0.182,0.717-0.182,1.167c0,0.631,0.133,1.215,0.401,1.75l0.018,0.036c0.353,0.753,1.069,1.416,2.15,1.987
						c0.522,0.158,1.033,0.237,1.531,0.237c0.583,0,1.136-0.128,1.658-0.383c0.899-0.438,1.543-1.197,1.932-2.278
						c0.121-0.45,0.182-0.887,0.182-1.312c0-0.595-0.134-1.16-0.401-1.695c-0.522-1.082-1.27-1.756-2.242-2.023
						c-0.425-0.182-0.869-0.273-1.331-0.273c-0.546,0-1.1,0.134-1.658,0.401C74.461,116.426,74.049,116.73,73.745,117.083z"/>
					<path fill="#373535" d="M62.081,128.855c0.097,0.377,0.042,0.729-0.164,1.057c-0.194,0.34-0.48,0.559-0.856,0.656l-1.258,0.292
						l-1.185,2.005l0.018,0.018c0.049,0.39-0.042,0.735-0.273,1.039c-0.243,0.316-0.553,0.498-0.93,0.547l-0.383,0.055h-0.018
						l-0.201,0.019h-0.018l-9.914,0.491c-0.304,0-0.583-0.085-0.838-0.255c-0.243-0.182-0.413-0.419-0.511-0.711l-0.273-0.893
						c-0.134-0.389-0.097-0.759,0.109-1.111c0.194-0.353,0.486-0.577,0.875-0.675l12.283-3.098l0.019-0.018l1.822-0.456
						c0.376-0.097,0.729-0.042,1.057,0.164C61.783,128.188,61.996,128.479,62.081,128.855z"/>
					<path fill="#FFFFFF" d="M188.853,198.802c0.643-0.097,1.152-0.31,1.531-0.638c-0.123,0.113-0.27,0.38-0.438,0.802
						c-0.171,0.45-0.316,0.741-0.438,0.875c-0.292,0.364-0.711,0.705-1.258,1.021c-1.361,0.802-3.201,1.233-5.522,1.294
						c-2.673-0.109-4.599-0.176-5.777-0.2c-0.838-0.024-1.683-0.389-2.532-1.094c-0.924-0.766-1.276-1.507-1.058-2.223
						c0.098-0.328,0.607-1.094,1.531-2.297c1.008-1.3,1.628-1.822,1.858-1.567c0.061,0.073,0.092,0.255,0.092,0.547
						c0,0.061,0,0.315,0,0.766c0,0.292,0.012,0.485,0.036,0.583c0.134,0.583,0.364,1.063,0.692,1.439
						c0.596,0.632,1.635,1.075,3.116,1.331c2.212,0.376,4.587,0.23,7.126-0.438L188.853,198.802z"/>
					<path fill="none" stroke="#373535" stroke-width="1.5" d="M188.853,198.802l-1.039,0.201c-2.539,0.668-4.914,0.813-7.126,0.438
						c-1.481-0.256-2.521-0.699-3.116-1.331c-0.328-0.376-0.559-0.856-0.692-1.439c-0.024-0.098-0.036-0.291-0.036-0.583
						c0-0.45,0-0.705,0-0.766c0-0.292-0.031-0.474-0.092-0.547c-0.23-0.255-0.851,0.268-1.858,1.567
						c-0.924,1.203-1.434,1.969-1.531,2.297c-0.219,0.716,0.134,1.457,1.058,2.223c0.85,0.705,1.694,1.069,2.532,1.094
						c1.179,0.024,3.104,0.091,5.777,0.2c2.321-0.061,4.161-0.492,5.522-1.294c0.547-0.315,0.966-0.656,1.258-1.021
						c0.121-0.134,0.267-0.425,0.438-0.875c0.168-0.422,0.314-0.688,0.438-0.802C190.005,198.492,189.495,198.705,188.853,198.802z"
						/>
					<g>
						<path fill="#FFFFFF" d="M228.363,21.366l3.919-2.843l-2.15,4.848l-7.145,12.502c-3.56,5.552-6.142,9.993-7.745,13.322
							c-0.219,0.461-0.377,0.79-0.475,0.984c-0.157,0.304-0.321,0.553-0.491,0.747l-0.292,0.51
							c-0.413,1.385-0.862,2.667-1.349,3.846c-3.56,10.667-6.956,21.298-10.188,31.893c-0.279,1.167-0.614,2.43-1.002,3.791
							c-0.219,0.753-0.517,1.774-0.894,3.062l-5.923,17.751l-27.283,2.06c-0.376,0.036-0.687,0.194-0.929,0.474
							c-0.255,0.28-0.377,0.608-0.364,0.984c0.012,0.376,0.151,0.692,0.419,0.948c0.255,0.267,0.577,0.407,0.966,0.419l25.551,0.529
							l-0.875,2.697l-32.695-1.458c-0.389-0.012-0.723,0.109-1.002,0.364c-0.279,0.255-0.432,0.571-0.456,0.948
							c-0.023,0.376,0.086,0.71,0.328,1.002c0.243,0.292,0.553,0.461,0.93,0.51l32.058,3.281l-1.075,6.78l-0.456,0.564
							l-23.691-5.449c-0.377-0.085-0.724-0.03-1.039,0.164c-0.328,0.194-0.541,0.474-0.638,0.838
							c-0.098,0.364-0.055,0.717,0.127,1.057c0.183,0.328,0.45,0.546,0.802,0.656l25.533,8.019l1.44,7.181l-2.133,3.354
							c-0.559-0.073-1.112-0.109-1.658-0.109c-1.774,0-3.476,0.346-5.104,1.039c-1.628,0.68-3.099,1.67-4.41,2.971
							c-0.268,0.206-0.687,0.31-1.258,0.31c-2.005,0.072-5.442-1.349-10.314-4.265c-5.249-3.135-11.439-7.575-18.571-13.322
							l-0.401-0.237c-1.312-0.462-2.224-0.796-2.733-1.002l-0.2-0.073c-0.401-0.097-0.851-0.243-1.349-0.438
							c-0.109-0.049-0.608-0.261-1.495-0.638l-0.455-0.109c-2.09-0.206-3.639-0.76-4.647-1.659c-1.033-0.899-1.75-2.345-2.15-4.337
							c-0.049-0.17-0.073-0.346-0.073-0.528c0-0.364,0.104-0.753,0.31-1.167c4.896-10.364,11.962-19.932,21.195-28.704
							c0.219-0.073,0.42-0.2,0.602-0.382c0.693-0.753,1.525-1.507,2.497-2.26c0.534-0.413,1.488-1.099,2.861-2.059l0.128-0.073
							c1.907-1.64,4.234-3.772,6.979-6.396c3.778-3.803,9.003-8.499,15.674-14.088c6.646-5.601,12.447-11.913,17.404-18.936
							c4.642-6.877,8.997-12.764,13.067-17.66C221.037,28.425,225.144,24.355,228.363,21.366z"/>
						<path fill="none" stroke="#373535" stroke-width="1.5" d="M162.791,90.729c-1.373,0.96-2.327,1.646-2.861,2.059
							c-0.972,0.753-1.804,1.507-2.497,2.26c-0.182,0.182-0.383,0.31-0.602,0.382c-9.233,8.772-16.299,18.34-21.195,28.704
							c-0.206,0.413-0.31,0.802-0.31,1.167c0,0.182,0.024,0.358,0.073,0.528c0.4,1.993,1.117,3.438,2.15,4.337
							c1.009,0.899,2.558,1.453,4.647,1.659l0.455,0.109c0.887,0.377,1.386,0.589,1.495,0.638c0.498,0.194,0.947,0.341,1.349,0.438
							l0.2,0.073c0.51,0.206,1.421,0.54,2.733,1.002l0.401,0.237c7.132,5.747,13.322,10.188,18.571,13.322
							c4.872,2.916,8.31,4.337,10.314,4.265c0.571,0,0.99-0.104,1.258-0.31c1.312-1.301,2.782-2.291,4.41-2.971
							c1.628-0.693,3.329-1.039,5.104-1.039c0.546,0,1.1,0.036,1.658,0.109l2.133-3.354l-1.44-7.181l-25.533-8.019
							c-0.352-0.109-0.619-0.328-0.802-0.656c-0.182-0.34-0.225-0.693-0.127-1.057c0.097-0.365,0.31-0.644,0.638-0.838
							c0.315-0.194,0.662-0.249,1.039-0.164l23.691,5.449l0.456-0.564l1.075-6.78l-32.058-3.281c-0.377-0.049-0.687-0.219-0.93-0.51
							c-0.242-0.292-0.352-0.626-0.328-1.002c0.024-0.377,0.177-0.692,0.456-0.948c0.279-0.255,0.613-0.376,1.002-0.364
							l32.695,1.458l0.875-2.697l-25.551-0.529c-0.389-0.012-0.711-0.152-0.966-0.419c-0.268-0.255-0.407-0.571-0.419-0.948
							c-0.013-0.376,0.109-0.705,0.364-0.984c0.242-0.279,0.553-0.438,0.929-0.474l27.283-2.06l5.923-17.751
							c0.377-1.288,0.675-2.308,0.894-3.062c0.388-1.361,0.723-2.625,1.002-3.791c3.231-10.595,6.628-21.226,10.188-31.893
							c0.486-1.179,0.936-2.46,1.349-3.846l0.292-0.51c0.17-0.194,0.334-0.443,0.491-0.747c0.098-0.194,0.256-0.522,0.475-0.984
							c1.604-3.33,4.186-7.77,7.745-13.322l7.145-12.502l2.15-4.848l-3.919,2.843c-3.22,2.989-7.326,7.059-12.319,12.21
							c-4.07,4.896-8.426,10.783-13.067,17.66c-4.957,7.022-10.759,13.334-17.404,18.936c-6.671,5.589-11.896,10.285-15.674,14.088
							c-2.745,2.624-5.072,4.756-6.979,6.396"/>
					</g>
					<g>
						<g>
							<path fill="#201F1F" d="M180.359,103.213l-1.421,10.734l-15.182,2.606l14.799-1.057l-0.894,3.354l-18.644,1.804l17.623,2.005
								l-1.677,2.843l-19.172-1.002l19.136,2.77l-0.565,1.531l-18.972-1.549l18.17,3.608l-1.549,3.59l-20.375-5.157l19.956,5.687
								l-2.935,6.178l-30.891-10.734c1.288-1.118,2.357-2.272,3.207-3.463c0.802-1.154,1.465-2.588,1.987-4.301
								c1.385-3.779,3.626-7.108,6.725-9.987c5.249-4.908,10.491-8.699,15.728-11.372l15.546-6.379l-0.419,7.108l-5.194,1.385
								L180.359,103.213z"/>
						</g>
					</g>
					<polygon fill="#FFFFFF" points="4.309,143.69 4.035,143.107 9.375,140.063 46.134,127.598 46.663,127.471 47.884,127.033 
						60.258,128.254 60.714,129.202 					"/>
					<polygon fill="#FFFFFF" stroke="#373535" stroke-width="1.5" points="4.309,143.69 60.714,129.202 60.258,128.254 
						47.884,127.033 46.663,127.471 46.134,127.598 9.375,140.063 4.035,143.107 					"/>
					<path fill="#FFFFFF" d="M184.005,185.206c0.862-0.218,1.434-0.2,1.713,0.055c0.279,0.268,0.207,0.778-0.219,1.531
						c-0.304,0.547-0.82,1.361-1.549,2.442c-0.717,1.057-1.233,1.871-1.55,2.441c-0.17,0.316-0.504,0.827-1.002,1.531
						c-0.426,0.656-0.668,1.203-0.729,1.641c-0.122,0.862,0.115,1.519,0.71,1.968c0.511,0.377,1.228,0.571,2.151,0.584
						c0.521,0,1.16-0.116,1.913-0.347c0.413-0.134,1.033-0.328,1.858-0.583c0.499-0.109,1.24-0.249,2.224-0.42
						c0.851-0.182,1.537-0.468,2.06-0.856c0.049,0.109,0.091,0.28,0.128,0.511c0.036,0.243,0.072,0.419,0.109,0.528
						c0.109,0.315,0.055,0.626-0.164,0.93c-0.207,0.291-0.535,0.541-0.984,0.747l-0.291,0.255c-0.426,0.353-0.93,0.607-1.514,0.766
						c-0.133,0.036-0.674,0.14-1.621,0.31c-1.665,0.28-2.759,0.438-3.281,0.475c-1.713,0.121-3.231-0.049-4.556-0.511
						c-1.798-0.632-2.728-1.707-2.788-3.226c-0.037-0.851,0.078-1.774,0.346-2.771c0.511-1.834,1.403-3.505,2.679-5.012
						C180.998,186.604,182.449,185.607,184.005,185.206z"/>
					<path fill="none" stroke="#373535" stroke-width="1.5" d="M184.005,185.206c-1.556,0.401-3.007,1.397-4.356,2.989
						c-1.275,1.507-2.168,3.178-2.679,5.012c-0.268,0.996-0.383,1.92-0.346,2.771c0.061,1.519,0.99,2.594,2.788,3.226
						c1.324,0.462,2.843,0.632,4.556,0.511c0.522-0.037,1.616-0.194,3.281-0.475c0.947-0.17,1.488-0.273,1.621-0.31
						c0.584-0.158,1.088-0.413,1.514-0.766l0.291-0.255c0.449-0.206,0.777-0.456,0.984-0.747c0.219-0.304,0.273-0.614,0.164-0.93
						c-0.037-0.109-0.073-0.285-0.109-0.528c-0.037-0.23-0.079-0.401-0.128-0.511c-0.522,0.389-1.209,0.675-2.06,0.856
						c-0.983,0.171-1.725,0.311-2.224,0.42c-0.825,0.255-1.445,0.449-1.858,0.583c-0.753,0.23-1.392,0.347-1.913,0.347
						c-0.924-0.013-1.641-0.207-2.151-0.584c-0.595-0.449-0.832-1.105-0.71-1.968c0.061-0.438,0.303-0.984,0.729-1.641
						c0.498-0.704,0.832-1.215,1.002-1.531c0.316-0.57,0.833-1.385,1.55-2.441c0.729-1.081,1.245-1.896,1.549-2.442
						c0.426-0.753,0.498-1.264,0.219-1.531C185.438,185.006,184.867,184.988,184.005,185.206z"/>
				</g>
			</g>
		</g>
	</g>
</g>
</svg>
