<?xml version="1.0" encoding="utf-8"?>
<!-- Generator: Adobe Illustrator 17.0.1, SVG Export Plug-In . SVG Version: 6.00 Build 0)  -->
<!DOCTYPE svg PUBLIC "-//W3C//DTD SVG 1.1//EN" "http://www.w3.org/Graphics/SVG/1.1/DTD/svg11.dtd">
<svg version="1.1" id="Layer_1" xmlns="http://www.w3.org/2000/svg" xmlns:xlink="http://www.w3.org/1999/xlink" x="0px" y="0px"
	 width="257.739px" height="125.351px" viewBox="1.37 65.847 257.739 125.351" enable-background="new 1.37 65.847 257.739 125.351"
	 xml:space="preserve">
<g id="Layer_3">
	<path fill="#FFFFFF" d="M52.064,154.03c-1.394,0.02-2.75,0.308-4.11,0.584c-0.845,0.171-1.321,1.158-1.104,1.945
		c0.24,0.874,1.101,1.276,1.945,1.105c1.09-0.22,2.152-0.455,3.269-0.47C54.101,157.164,54.104,154.002,52.064,154.03z"/>
	<path fill="#FFFFFF" d="M254.069,131.808c0.157-0.383,0.1-0.858-0.168-1.169c0.008-0.199-0.019-0.403-0.111-0.595
		c-0.29-0.603-0.5-1.241-0.791-1.845c-0.205-0.425-0.726-0.575-1.165-0.47c-0.893-1.998-2.106-3.771-3.517-5.386
		c0.664-0.18,1.02-0.754,1.073-1.363c0.209-0.059,0.418-0.109,0.628-0.177c0.074,0.01,0.146,0.023,0.226,0.023
		c0.259,0,0.485-0.052,0.678-0.141c0.186,0.082,0.392,0.141,0.639,0.141c0.419,0,0.748-0.136,0.993-0.349
		c0.217,0.495,0.673,0.876,1.378,0.876c0.367,0,0.661-0.111,0.895-0.279c0.054,0.005,0.103,0.016,0.16,0.016
		c2.02,0,2.036-3.096,0.056-3.157c-0.172-0.199-0.384-0.374-0.69-0.476c-0.6-0.131-1.157-0.354-1.679-0.652
		c-7.223-6.302-17.063-7.738-26.75-8.662c-0.011-0.036-0.015-0.071-0.029-0.107c0.225-0.34,0.324-0.722,0.319-1.103
		c0.269,0.038,0.536,0.077,0.805,0.114c0.919,0.129,1.649-0.278,2.109-0.875c0.166,0.247,0.431,0.427,0.823,0.423
		c0.534-0.006,0.898-0.202,1.272-0.572c0.017-0.016,0.019-0.034,0.034-0.05c0.183,0.064,0.365,0.134,0.533,0.215
		c0.518,0.249,1.134,0.147,1.442-0.378c0.273-0.465,0.14-1.194-0.378-1.442c-0.75-0.36-1.538-0.638-2.377-0.671
		c-0.037-0.002-0.066,0.008-0.101,0.009c-0.168-0.16-0.39-0.273-0.69-0.273c-0.173,0-0.322,0.035-0.451,0.095
		c-0.249-0.272-0.6-0.477-1.097-0.547c-7.758-1.088-15.488-2.314-23.322-2.686c0.424-0.399,0.481-0.956,0.29-1.455
		c0.768-0.498,1.62-0.85,2.599-0.999c0.853-0.13,1.313-1.189,1.105-1.945c-0.248-0.903-1.093-1.234-1.945-1.104
		c-0.766,0.116-1.494,0.352-2.188,0.666c-0.227-0.449-0.671-0.768-1.346-0.723c-1.039,0.07-2.075,0.153-3.112,0.244
		c-3.335-0.297-6.654-0.687-9.958,0.076c-0.32,0.074-0.544,0.231-0.725,0.415c-3.104-0.843-6.368-0.994-9.636-1.087
		c0.07-0.04,0.133-0.092,0.167-0.173c0,0,0-0.001,0.001-0.002c0.105,0.017,0.218,0.005,0.337-0.073
		c1.951-1.274,3.605-3.47,6.183-3.109c0.664,0.093,0.951-0.922,0.28-1.016c-0.076-0.011-0.147-0.013-0.221-0.02
		c-0.058-0.108-0.154-0.199-0.306-0.243c-3.6-1.053-6.948,0.226-10.309,1.515c-0.115-0.14-0.29-0.234-0.513-0.197
		c-1.39,0.229-2.771,0.421-4.175,0.485c-1.069-0.659-2.248-1.129-3.537-1.422c-0.966-0.219-1.917-0.293-2.877-0.3
		c-1.342-1.118-3.045-1.823-4.932-1.848c-1.439-1.378-3.38-2.192-5.509-2.293c-1.996-0.094-3.988-0.103-5.977-0.06
		c-1.266-1.598-3.249-2.701-5.971-2.752c-2.216-0.041-4.414,0.104-6.596,0.381c-4.191,0.251-8.383,0.516-12.574,0.782
		c-1.203-0.934-2.776-1.514-4.725-1.514c-2.109,0-3.775,0.683-5.011,1.756c-1.28-0.909-2.823-1.445-4.476-1.405
		c-10.395,0.248-20.748,0.75-31.067,1.736c-5.515-3.098-12-3.414-18.371-3.168c-5.178-1.305-10.34-2.618-15.694-2.954
		c-1.245-1.074-2.957-1.71-5.144-1.587c-4.472,0.25-8.412,0.563-11.501,2.385c-0.618,0.029-1.237,0.136-1.845,0.358
		c-0.201,0.073-0.4,0.15-0.6,0.225c-0.495,0-0.999,0.038-1.508,0.126c-5.457,0.942-12.081,1.15-16.647,4.662
		C3.377,87.279,1.563,91.4,3.949,95.474c1.071,1.828,3.16,3.277,5.394,3.803c1.452,2.051,3.773,3.487,6.352,3.275
		c1.495-0.122,2.976-0.297,4.45-0.506c-0.007,2.783,1.268,5.625,3.858,6.806c0.612,0.278,1.171,0.646,1.708,1.052
		c0.643,1.383,1.226,2.788,2.058,4.076c0.174,0.269,0.392,0.449,0.625,0.566c0.526,1.951,1.716,3.695,3.59,4.692
		c0.288,0.512,0.612,1.003,1.015,1.435c0.852,2.971,3.279,5.423,7.293,5.423c0.155,0,0.3-0.015,0.45-0.022
		c0.972,0.455,2.105,0.725,3.415,0.725c2.205,0,3.931-0.742,5.183-1.901c0.979-0.214,1.985-0.518,3.013-0.877
		c0.782,1.357,1.759,2.569,2.868,3.667c-4.538,3.453-8.728,7.458-9.115,13.52c-0.761-0.049-1.581,0.22-2.456,0.844
		c-0.061,0.043-0.114,0.067-0.173,0.105c-0.134-0.288-0.35-0.545-0.631-0.735c-0.832-0.565-1.684-1.406-2.491-2.213
		c-0.792-0.793-1.821-0.474-2.351,0.212c-0.572-0.38-1.175-0.719-1.861-0.97c-1.919-0.703-2.739,2.353-0.841,3.049
		c0.051,0.019,0.094,0.049,0.145,0.07c-3.693,0.037-7.374,0.184-11.038,0.746c-2.01,0.308-1.154,3.355,0.841,3.049
		c3.73-0.572,7.507-0.637,11.276-0.645c-0.055,0.036-0.111,0.067-0.164,0.111c-1.057,0.875-1.645,1.977-2.356,3.131
		c-0.722,1.171,0.465,2.724,1.786,2.322c4.391-1.333,8.819-2.436,13.353-3.162c0.67-0.107,1.016-0.52,1.113-1.008
		c0.19,0.014,0.382,0.028,0.575,0.01c4.312-0.397,7.495-2.353,9.78-6.041c1.246-2.01,1.98-4.544,2.759-6.757
		c0.075-0.071,0.141-0.146,0.212-0.22c4.114,1.795,8.586,2.923,12.52,3.675c0.505,0.097,1.013,0.18,1.52,0.268
		c-0.087,0.151-0.172,0.303-0.259,0.454c-1.083,1.883-2.142,3.779-3.069,5.744c-0.722,1.529-1.374,3.181-1.671,4.809
		c-0.582-0.115-1.222,0.062-1.635,0.697c-0.613,0.943-0.872,1.792-0.884,2.557c-1.611,0.415-3.559,1.249-5.035,0.514
		c-1.479-0.738-2.768-1.628-4.417-1.953c-1.992-0.393-2.841,2.655-0.841,3.049c1.255,0.248,2.323,0.908,3.427,1.494
		c-2.604,0.381-5.247,0.392-7.593-0.326c-1.955-0.599-2.785,2.454-0.841,3.049c1.683,0.515,3.504,0.709,5.362,0.685
		c-0.876,0.341-1.74,0.713-2.577,1.169c-1.791,0.976-0.195,3.707,1.596,2.73c4.947-2.698,10.685-3.013,15.844-5.087
		c0.239,0.381,0.662,0.628,1.279,0.559c2.702-0.302,5.368-0.652,7.443-2.572c0.49-0.453,0.576-0.995,0.424-1.473
		c1.197-1.23,2.165-2.772,2.881-4.496c0.223-0.535,0.128-0.98-0.13-1.306c1.34-2.866,2.471-5.882,3.389-8.897
		c8.979,0.517,18.122,0.221,26.894,0.021c4.797-0.109,9.588-0.339,14.376-0.62c-2.051,0.756-3.89,1.826-5.269,3.467
		c-1.303,1.549,0.922,3.799,2.236,2.236c1.978-2.351,5.248-3.361,8.661-3.987c-0.957,0.629-1.883,1.287-2.727,2.015
		c-1.547,1.333,0.7,3.56,2.236,2.236c0.233-0.201,0.497-0.376,0.741-0.568c0.454,0.428,1.127,0.633,1.837,0.288
		c2.694-1.307,5.569-2.184,8.17-3.69c0.201-0.116,0.352-0.256,0.47-0.409c0.076,0.002,0.148,0.01,0.225,0.01
		c1.725,0,3.149-0.462,4.29-1.215c0.527,0.102,1.086,0.161,1.683,0.161c2.555,0,4.469-0.993,5.743-2.481
		c0.528-0.034,1.057-0.063,1.585-0.096c1.456,1.848,3.797,2.937,6.375,3.28c-1.442-0.192-1.036-0.284-0.005,0.778
		c0.928,0.955,1.8,1.911,2.842,2.746c0.149,0.119,0.295,0.229,0.444,0.34c-0.805-0.014-1.598,0.003-2.382,0.045
		c-3.257,0.01-6.466,0.251-9.572,1.593c-0.001,0-0.003,0.001-0.004,0.001c0,0,0,0,0,0.001c-0.126,0.054-0.252,0.101-0.378,0.159
		c-1.082,0.5-0.958,1.725-0.286,2.424c-1.587,0.767-3.038,1.815-4.234,3.414c-0.812,1.085,0.538,2.805,1.785,2.322
		c1.469-0.568,13.455-3.457,12.55-0.89c-0.023,0.064-0.031,0.122-0.045,0.183c-0.088-0.013-0.177-0.027-0.275-0.027
		c-1.574,0-1.928,1.879-1.072,2.739c-0.327-0.061-0.668-0.104-1.037-0.104c-0.325,0-0.631,0.031-0.925,0.077
		c-0.695-0.375-1.523-0.604-2.501-0.604c-0.278,0-0.542,0.024-0.797,0.058c-0.252-0.033-0.511-0.058-0.784-0.058
		c-0.244,0-0.476,0.018-0.702,0.043c-0.814-0.672-1.894-1.097-3.251-1.097c-0.647,0-1.23,0.097-1.753,0.269
		c-0.507-0.16-1.053-0.269-1.673-0.269c-1.187,0-2.15,0.338-2.923,0.869c-0.643-0.29-1.349-0.427-2.085-0.342
		c-0.962,0.111-1.921,0.234-2.879,0.359c-0.277-0.109-0.602-0.136-0.967-0.039c-0.055,0.014-0.109,0.02-0.164,0.034
		c-0.247-0.214-0.577-0.354-0.998-0.354c-0.642,0-1.081,0.314-1.319,0.743c-0.141,0.016-0.282,0.038-0.423,0.052
		c-0.234-0.165-0.53-0.269-0.894-0.269c-0.294,0-0.54,0.071-0.749,0.183c-0.421-0.106-0.863-0.183-1.359-0.183
		c-0.966,0-1.788,0.219-2.479,0.586c-0.252-0.345-0.653-0.586-1.211-0.586c-1.03,0-1.539,0.808-1.528,1.607
		c-0.107-0.007-0.206-0.026-0.317-0.026c-1.854,0-3.199,0.786-4.041,1.927c-0.448,0.17-0.856,0.387-1.209,0.66
		c-0.284,0.081-0.544,0.19-0.793,0.313c-0.006,0-0.012-0.001-0.019-0.001c-2.093,0-3.536,1.003-4.339,2.386
		c-1.145,0.467-1.812,1.486-2.029,2.61c-0.937,0.356-1.57,1.076-1.909,1.925c-0.462,0.28-0.887,0.675-1.234,1.231
		c-0.529,0.845-0.844,1.679-1.011,2.536c-2.468,0.666-3.117,3.677-1.966,5.596c-0.615,0.299-1.075,0.939-0.897,1.792
		c0.358,1.716,1.031,3.366,2.251,4.651c0.176,0.185,0.364,0.312,0.557,0.39c-0.06,0.147-0.121,0.293-0.174,0.444
		c-0.26,0.748,0.227,1.574,0.92,1.872c0.226,0.764,0.484,1.517,0.82,2.244c0.854,1.85,3.579,0.243,2.731-1.596
		c-0.284-0.615-0.5-1.249-0.698-1.888c1.002-0.241,1.331-1.368,0.991-2.199c0.299-0.227,0.619-0.437,0.984-0.602
		c0.306-0.139,0.518-0.395,0.642-0.696c0.023-0.005,0.045-0.004,0.068-0.01c1.132-0.312,2.095-1.264,2.508-2.392
		c0.451-0.34,0.78-0.793,1.013-1.294c1.11-0.11,2.138-0.562,2.84-1.489c0.163-0.028,0.321-0.044,0.491-0.096
		c2.605-0.781,4.768-2.287,7.107-3.622c2.525-1.441,6.142-1.929,8.969-2.44c1.103-0.2,1.822-0.754,2.232-1.465
		c2.016-0.235,4.06-0.25,6.088-0.248c0.571,0.483,1.332,0.791,2.295,0.791c1.23,0,2.136-0.498,2.73-1.229
		c10.12,1.175,19.749,4.541,29.885,6.223c2.674,0.444,5.505,0.746,8.43,0.897c-1.878,0.636-2.062,3.539,0.034,4.049
		c9.46,2.297,19.057-1.353,27.992-5.153c0.431,1.286,2.335,2.012,3.525,0.931c0.628,0.14,1.321,0.006,1.895-0.536
		c0.361-0.341,0.73-0.671,1.09-1.009c0.452,0.077,0.931,0.013,1.383-0.243c1.442-0.816,2.672-1.795,3.756-2.898
		c0.558,0.08,1.156-0.072,1.677-0.594c2.184-2.186,4.251-4.453,5.253-7.433c0.66-0.307,0.935-1.058,0.822-1.736
		c1.105-1.086,2.156-2.224,3.114-3.443c0.065,0.205,0.132,0.41,0.2,0.613c0.312,0.939,1.056,1.384,1.83,1.447
		c0.065,0.466,0.385,0.891,0.993,0.891c0.916,0,1.199-0.948,0.882-1.572c0.423-0.451,0.623-1.098,0.36-1.887
		c-0.164-0.492-0.324-0.975-0.456-1.459c0.142-0.161,0.275-0.335,0.392-0.543c0.099-0.233,0.197-0.466,0.294-0.7
		c0.018-0.044,0.027-0.067,0.037-0.096c0.014-0.018,0.025-0.029,0.046-0.059c0.676-0.933,0.163-2.347-0.756-2.885
		c-0.019-0.01-0.037-0.015-0.056-0.026c0.441-1.591,0.134-3.229-0.695-4.507c0.063-0.129,0.115-0.26,0.176-0.39
		c0.087-0.044,0.174-0.079,0.255-0.154c1.199-1.103,3.059-0.509,4.257,0.165c0.639,0.359,1.671-0.081,1.586-0.91
		C257.281,139.587,256.139,135.161,254.069,131.808z M219.866,145.836c-0.793,1.268-1.398,2.667-1.831,4.126
		c-1.855,0.409-3.532,1.739-3.95,3.65c-0.098,0.026-0.196,0.046-0.292,0.079c-3.581,1.213-7.611,1.315-10.901,3.309
		c-0.684-0.294-1.499-0.43-2.456-0.335c-4.378,0.437-8.807,0.811-13.217,0.751c-0.049-0.008-0.089-0.029-0.14-0.036
		c-0.467-0.07-0.935-0.122-1.402-0.182l0.001-0.006c-0.031-0.002-0.062-0.004-0.092-0.006c-2.489-0.314-4.979-0.505-7.483-0.696
		c-0.777-0.545-1.764-0.879-2.967-0.879c-0.737,0-1.389,0.13-1.966,0.351c-0.698-0.38-1.529-0.615-2.514-0.615
		c-0.62,0-1.182,0.09-1.688,0.249c-0.155-0.099-0.323-0.185-0.494-0.268c0.83-0.089,1.272-0.729,1.328-1.414
		c0.714,0.106,1.521-0.194,1.852-1.046c0.04-0.103,0.103-0.19,0.15-0.289c0.558,0.545,1.429,0.705,2.078-0.067
		c2.59-3.079,6.739-3.212,10.478-3.226c0.56-0.002,0.947-0.254,1.199-0.602c0.289,0.045,0.589,0.075,0.909,0.075
		c0.951,0,1.764-0.212,2.45-0.567c0.151,0.011,0.29,0.04,0.449,0.04c4.746,0,6.174-5.136,4.293-8.238
		c-0.022-1.348-0.408-2.662-1.091-3.842c0.497-0.297,0.971-0.636,1.405-1.02c3.819,0.153,7.642,0.409,11.469,0.802
		c0.969,0.099,1.899-0.059,2.765-0.389c0.62,0.822,1.582,1.446,2.949,1.693c5.553,1.002,7.965,3.853,8.971,8.255
		C220.042,145.611,219.944,145.712,219.866,145.836z"/>
</g>
<g id="Layer_1_1_">
	<g>
		<g id="Layer_1_4_">
			<g>
				<g id="Layer_1_5_">
					<g>
						<g>
							
								<path fill="none" stroke="#292929" stroke-width="1.5812" stroke-linecap="round" stroke-linejoin="round" stroke-miterlimit="3" d="
								M216.071,96.177c1.767,0.346,3.517,0.733,5.252,1.162C219.722,96.668,217.972,96.28,216.071,96.177
								c-1-0.051-2.041-0.024-3.125,0.082c-3.567,0.338-6,1.532-7.298,3.583c4.582-0.589,10.096-0.169,16.542,1.26
								c6.272,1.396,11.574,3.327,15.905,5.792c-1.276-0.621-3-0.856-5.171-0.704c-2.454,0.327-4.205,0.551-5.252,0.671
								c1.865,1.036,4.478,1.974,7.837,2.814c1.91,0.469,4.822,1.167,8.738,2.094c3.316,0.916,5.972,2.023,7.969,3.322
								c2.552,1.647,4.417,3.796,5.595,6.446c-1.799-0.229-3.343-0.261-4.63-0.098c-1.548,0.185-2.983,0.66-4.303,1.423
								c3.011,1.877,5.28,5.312,6.807,10.308c0.513,1.702,1.015,3.845,1.505,6.43c0.273,1.419,0.65,3.41,1.129,5.973
								c-1.167-0.404-2.1-0.682-2.798-0.835c-1.123-0.25-2.122-0.316-2.994-0.196c-0.011,0.959,0.103,2.252,0.343,3.878
								c0.306,2.018,0.486,3.316,0.54,3.893c0.24,3.033-0.453,5.422-2.078,7.167c-0.992-1.887-1.849-2.973-2.569-3.256
								c-0.612-0.24-1.179,0.081-1.702,0.966c-0.294,0.501-0.72,1.527-1.277,3.076c-0.546,1.528-0.998,2.58-1.358,3.158
								c-1.691,2.716-4.658,5.219-8.902,7.51c-1.123,0.612-2.934,1.505-5.432,2.684c-2.334,1.101-4.041,1.958-5.121,2.568
								c0.284-0.404,0.612-1.063,0.982-1.98c0.382-0.928,0.704-1.587,0.966-1.98c-3.011,1.014-5.487,1.838-7.428,2.471
								c-3.633,1.178-6.769,2.056-9.408,2.634c-7.92,1.735-13.363,1.244-16.33-1.473c0.906-0.131,1.696-0.415,2.373-0.85
								c0.72-0.469,1.211-1.058,1.472-1.768 M168.13,89.076c1.211,0.872,2.852,1.287,4.925,1.244
								c1.069-0.033,3.048-0.289,5.94-0.769c2.606-0.447,4.597-0.633,5.972-0.556c2.094,0.109,3.785,0.742,5.072,1.898
								c-1.341-0.033-2.765,0.306-4.27,1.015c-1.179,0.546-2.471,1.348-3.878,2.405c7.778-0.327,14.404-0.316,19.88,0.033
								c4.874,0.317,9.641,0.927,14.301,1.832"/>
						</g>
						
							<path fill="none" stroke="#292929" stroke-width="1.5812" stroke-linecap="round" stroke-linejoin="round" stroke-miterlimit="3" d="
							M14.389,81.124c-1.113,0.556-2.809,1.205-5.089,1.947c-1.986,0.666-3.387,1.249-4.205,1.751
							c-1.266,0.796-2.111,1.86-2.536,3.191c-0.502,1.538-0.529,3.621-0.082,6.25c2.127-0.317,5.028-0.273,8.705,0.131
							c4.592,0.513,7.554,0.769,8.885,0.769c0.36,0,1.877,0.229,4.549,0.687c2.062,0.36,3.491,0.355,4.287-0.016
							c0.731-0.338,1.364-0.873,1.898-1.604c0.535-0.895,0.938-1.56,1.211-1.996c1.025-1.626,2.58-2.438,4.663-2.438"/>
						
							<path fill="none" stroke="#292929" stroke-width="1.5812" stroke-linecap="round" stroke-linejoin="round" stroke-miterlimit="3" d="
							M89.933,82.106c0,0.065,0.016,0.523,0.049,1.374c0.022,0.578,0,1.031-0.065,1.358"/>
						
							<path fill="none" stroke="#292929" stroke-width="1.5812" stroke-linecap="round" stroke-linejoin="round" stroke-miterlimit="3" d="
							M14.389,81.124c1.134-0.262,3.19-0.785,6.168-1.57c2.651-0.698,4.756-1.211,6.316-1.538c4.941-1.037,9.163-1.249,12.665-0.638
							c9.141,1.593,13.728,2.389,13.761,2.389c5.345,0.982,9.921,1.926,13.728,2.83c1.538,0.371,3.878,1.02,7.019,1.948
							c2.771,0.621,5.181,0.605,7.232-0.049"/>
						
							<path fill="none" stroke="#292929" stroke-width="1.5812" stroke-linecap="round" stroke-linejoin="round" stroke-miterlimit="3" d="
							M2.984,94.361c1.189,1.909,2.771,3.545,4.745,4.909c1.909,1.32,4.009,2.263,6.299,2.831c5.007,1.244,9.392,0.579,13.155-1.996
							"/>
						
							<path fill="none" stroke="#292929" stroke-width="1.5812" stroke-linecap="round" stroke-linejoin="round" stroke-miterlimit="3" d="
							M15.845,102.624c2.901,0.96,5.983,3.801,9.244,8.524c0.884,1.287,2.165,3.218,3.846,5.793
							c1.483,2.181,2.781,3.823,3.894,4.925c2.203,2.182,4.505,3.687,6.904,4.516c2.52,0.872,5.291,1.047,8.312,0.523
							c0.665-0.12,1.685-0.513,3.059-1.178c1.658-0.796,2.787-1.298,3.387-1.505c2.694-0.927,4.456-0.159,5.285,2.307"/>
						
							<path fill="none" stroke="#292929" stroke-width="1.5812" stroke-linecap="round" stroke-linejoin="round" stroke-miterlimit="3" d="
							M16.827,102.722c3.458,1.08,6.588,2.646,9.392,4.696c1.2,0.873,2.912,2.378,5.138,4.516c0.72,0.687,1.652,1.909,2.798,3.665
							c1.124,1.735,2.067,2.956,2.831,3.665c2.542,2.367,5.486,3.185,8.836,2.454c1.221-0.273,2.711-0.802,4.467-1.587
							c1.004-0.447,2.52-1.145,4.549-2.094"/>
						
							<path fill="none" stroke="#292929" stroke-width="1.5812" stroke-linecap="round" stroke-linejoin="round" stroke-miterlimit="3" d="
							M58.96,124.877c0.371,1.113,1.009,2.013,1.914,2.7c0.72,0.546,1.735,1.02,3.044,1.424"/>
						
							<path fill="none" stroke="#292929" stroke-width="1.5812" stroke-linecap="round" stroke-linejoin="round" stroke-miterlimit="3" d="
							M63.918,128.591c0.687,3.905,2.438,6.556,5.252,7.952c2.029,1.015,5.231,1.528,9.605,1.538"/>
						
							<path fill="none" stroke="#292929" stroke-width="1.5812" stroke-linecap="round" stroke-linejoin="round" stroke-miterlimit="3" d="
							M77.122,137.672c-1.68,0.895-3.114,2.972-4.303,6.234c-0.654,1.799-1.418,4.346-2.291,7.641
							c-1.331-0.359-2.814-0.054-4.451,0.916c-1.56-1.232-3.027-1.996-4.401-2.291c-1.887-0.404-3.191,0.24-3.911,1.931
							c0.731,0.72,1.718,1.063,2.962,1.03c1.626-0.043,2.689,0.028,3.191,0.213"/>
						
							<path fill="none" stroke="#292929" stroke-width="1.5812" stroke-linecap="round" stroke-linejoin="round" stroke-miterlimit="3" d="
							M63.492,152.938c-0.262,0.863-1.484,1.315-3.665,1.358c-2.869-0.119-5.05-0.202-6.545-0.245
							c-2.694-0.098-4.549,0.104-5.563,0.605c-1.375,0.698-1.598,2.029-0.671,3.993c0.742,0.01,1.544-0.262,2.405-0.818
							c0.949-0.6,1.734-0.939,2.356-1.015c0.513-0.065,1.216,0.071,2.111,0.41c1.091,0.404,1.817,0.632,2.176,0.687
							c1.287,0.185,3.103-0.022,5.448-0.622c2.324-0.599,4.075-0.812,5.252-0.638"/>
						
							<path fill="none" stroke="#292929" stroke-width="1.5812" stroke-linecap="round" stroke-linejoin="round" stroke-miterlimit="3" d="
							M65.979,155.982c-1.047,1.341-2.547,2.105-4.5,2.29c-1.363,0.119-2.127,0.197-2.29,0.229
							c-0.862,0.164-1.593,0.475-2.193,0.933c-1.429,1.07-1.773,1.91-1.03,2.52c0.687,0.557,1.778,0.655,3.272,0.294
							c0.818-0.197,2.029-0.753,3.632-1.669c1.538-0.873,2.825-1.407,3.862-1.604c3.763-0.72,7.085-1.03,9.964-0.933"/>
						
							<path fill="none" stroke="#292929" stroke-width="1.5812" stroke-linecap="round" stroke-linejoin="round" stroke-miterlimit="3" d="
							M76.696,157.896c2.466-0.119,4.462-0.649,5.989-1.587c1.309-0.806,2.405-2.001,3.289-3.582
							c0.534-0.971,1.221-2.608,2.061-4.908c0.884-2.444,1.653-4.304,2.307-5.581c1.255-2.018,2.094-3.511,2.52-4.482
							c0.73-1.658,0.796-3.289,0.196-4.893c-0.447-1.189-1.429-2.656-2.945-4.401c-1.756-1.898-2.973-3.229-3.649-3.992
							c-1.669-1.876-3.643-3.387-5.923-4.533c-1.822-0.905-4.2-1.735-7.134-2.487"/>
						
							<path fill="none" stroke="#292929" stroke-width="1.5812" stroke-linecap="round" stroke-linejoin="round" stroke-miterlimit="3" d="
							M77.94,119.085c0.152-2.607-0.398-4.669-1.653-6.185"/>
						
							<path fill="none" stroke="#292929" stroke-width="1.5812" stroke-linecap="round" stroke-linejoin="round" stroke-miterlimit="3" d="
							M92.584,138.539c0.611-0.01,4.538,0.256,11.781,0.802c6.698,0.502,12.752,0.617,18.163,0.344
							c7.625-0.393,15.134-1.685,22.531-3.878c1.865-0.556,4.26-1.32,7.182-2.291c2.28-0.709,3.998-1.113,5.154-1.211"/>
						
							<path fill="none" stroke="#292929" stroke-width="1.5812" stroke-linecap="round" stroke-linejoin="round" stroke-miterlimit="3" d="
							M89.917,84.429c1.636,0.567,3.583,0.518,5.841-0.147c1.266-0.371,3.142-0.998,5.629-1.882
							c-0.011,0.273,0.082,0.682,0.278,1.228c0.207,0.556,0.311,0.954,0.311,1.194c1.189-0.273,2.962-0.856,5.318-1.751
							c2.16-0.698,4.047-0.916,5.661-0.654c-0.011,0.055-0.044,0.311-0.098,0.769c-0.044,0.284-0.109,0.534-0.196,0.753
							c2.313-0.676,4.248-1.189,5.809-1.538c2.356-0.523,4.385-0.802,6.087-0.834c-0.076,0.262-0.126,0.758-0.147,1.489
							c-0.022,0.502-0.191,0.97-0.507,1.407c2.324-0.807,5.11-1.26,8.361-1.358c0.458-0.011,3.245,0.038,8.361,0.147l-0.425,1.195
							c2.444-0.459,4.217-0.742,5.318-0.851c2.312-0.219,4.09-0.087,5.334,0.392c-0.501,0.589-0.857,0.976-1.063,1.162
							c1.244,0.098,3.137,0.175,5.678,0.229c2.203,0.164,3.976,0.6,5.317,1.309c-0.152,0.109-0.409,0.343-0.769,0.704
							c-0.36,0.36-0.605,0.583-0.736,0.671c1.123,0.087,2.798,0.174,5.023,0.262c1.91,0.164,3.519,0.551,4.827,1.162
							c-0.316,0.207-0.539,0.354-0.67,0.442c-0.24,0.153-0.546,0.273-0.917,0.36c0.502,0.338,1.718,0.682,3.649,1.031
							c1.604,0.284,2.716,0.872,3.337,1.767"/>
						
							<path fill="none" stroke="#292929" stroke-width="1.5812" stroke-linecap="round" stroke-linejoin="round" stroke-miterlimit="3" d="
							M177.816,126.939c0.306,0.338,1.844,1.407,4.614,3.207c3.218,2.073,5.7,3.813,7.445,5.22
							c6.196,4.996,7.407,8.792,3.633,11.388"/>
						
							<path fill="none" stroke="#292929" stroke-width="1.5812" stroke-linecap="round" stroke-linejoin="round" stroke-miterlimit="3" d="
							M171.222,143.236c-2.345-0.437-4.44-0.556-6.284-0.36c-2.127,0.218-4.096,0.868-5.907,1.948s-2.759,1.844-2.846,2.291
							c-0.076,0.371,0.442,0.551,1.554,0.54c0.491,0,1.674-0.077,3.55-0.23c1.549-0.131,2.585-0.159,3.109-0.081
							c-0.306,0.086-2.002,0.501-5.089,1.243c-2.084,0.49-3.747,0.998-4.991,1.522c-0.709,0.294-1.571,0.834-2.585,1.619
							c-1.07,0.84-1.905,1.652-2.504,2.438c-0.721,0.928-0.961,1.637-0.721,2.128c0.284,0.577,1.227,0.796,2.831,0.654
							c1.102-0.086,2.662-0.9,4.68-2.438c2.335-1.756,3.894-2.782,4.68-3.076c1.386-0.524,2.961-0.949,4.728-1.276
							c1.113-0.207,2.727-0.43,4.844-0.67c-1.669,1.341-2.978,2.464-3.927,3.37c-1.789,1.69-2.433,3.076-1.93,4.156
							c0.261,0.567,0.824,0.959,1.685,1.178c0.796,0.208,1.647,0.224,2.552,0.049c0.928-0.185,1.642-0.529,2.144-1.031
							c0.556-0.557,0.708-1.217,0.457-1.98c1.113-1.844,2.973-3.229,5.58-4.157c0.96-0.338,3.279-0.883,6.954-1.636
							c3.481-0.709,5.264-1.075,5.351-1.096c1.854-0.436,3.311-0.966,4.369-1.587"/>
						<g>
							<path fill="#373535" d="M26.775,86.033l0.049,0.032c-0.36,0.72-0.818,1.315-1.374,1.784
								c-0.611,0.513-1.233,0.791-1.865,0.834c-0.676,0.055-1.118-0.502-1.325-1.669c-0.196-1.047-0.153-1.942,0.131-2.683
								c0.152-0.404,0.392-0.627,0.72-0.671c0.207-0.032,0.529,0.022,0.965,0.164C25.144,84.162,26.044,84.898,26.775,86.033z"/>
							
								<path fill="none" stroke="#292929" stroke-width="1.5812" stroke-linecap="round" stroke-linejoin="round" stroke-miterlimit="3" d="
								M26.775,86.033c-0.731-1.134-1.631-1.87-2.7-2.209c-0.436-0.142-0.758-0.196-0.965-0.164
								c-0.327,0.043-0.567,0.267-0.72,0.671c-0.284,0.742-0.327,1.636-0.131,2.683c0.207,1.167,0.649,1.724,1.325,1.669
								c0.633-0.044,1.254-0.322,1.865-0.834C26.006,87.38,26.448,86.775,26.775,86.033z"/>
						</g>
						
							<path fill="none" stroke="#292929" stroke-width="1.5812" stroke-linecap="round" stroke-linejoin="round" stroke-miterlimit="3" d="
							M85.172,139.93c0.437,1.353,1.745,1.369,3.927,0.049c0.556-0.338,1.391-0.916,2.503-1.735
							c0.938-0.676,1.544-1.074,1.817-1.194"/>
						
							<path fill="none" stroke="#292929" stroke-width="1.5812" stroke-linecap="round" stroke-linejoin="round" stroke-miterlimit="3" d="
							M74.635,154.378c-0.818-0.087-1.544-0.382-2.176-0.883c-0.501-0.404-1.014-1.004-1.538-1.799"/>
						
							<path fill="none" stroke="#292929" stroke-width="1.5812" stroke-linecap="round" stroke-linejoin="round" stroke-miterlimit="3" d="
							M52.349,125.286c0.109,0.437,0.289,0.922,0.54,1.456l0.687,1.391c-2.04,1.483-3.916,3.48-5.629,5.988
							c-1.625,2.378-2.836,4.811-3.632,7.298c-0.502-0.152-1.047-0.534-1.636-1.146c-0.654-0.676-1.173-1.101-1.555-1.276
							c-0.643-0.305-1.532-0.49-2.667-0.556c-1.233-0.076-2.133,0.049-2.7,0.377c-1.407,0.796-1.287,1.593,0.36,2.388
							c0.447,0.229,1.189,0.551,2.225,0.966c0.851,0.392,1.386,0.736,1.603,1.03c-3.436-1.756-8.732-1.958-15.887-0.605
							c-0.687,0.131-1.129,0.393-1.325,0.785c-0.175,0.349-0.131,0.736,0.131,1.162c0.251,0.414,0.633,0.736,1.145,0.965
							c0.567,0.262,1.157,0.339,1.768,0.23c0.862-0.142,2.029-0.404,3.501-0.786c1.287-0.273,2.476-0.36,3.567-0.261
							c0.938,0.086,2.22,0.164,3.846,0.229c1.843,0.066,3.125,0.126,3.845,0.18c-1.735-0.066-2.983-0.055-3.747,0.033
							c-1.549,0.185-2.667,0.66-3.354,1.424c-0.6,0.676-0.829,1.341-0.688,1.996c0.142,0.687,0.644,1.166,1.506,1.439
							c0.96,0.306,2.275,0.023,3.943-0.85c2.04-1.07,3.376-1.647,4.009-1.735c1.233-0.164,2.842-0.278,4.827-0.344
							c2.574-0.087,4.183-0.152,4.827-0.196c1.614-0.12,3.07-0.617,4.368-1.49c1.004-0.676,2.133-1.761,3.387-3.256
							c2.072-2.466,3.141-3.741,3.207-3.828c1.254-1.658,2.029-3.104,2.323-4.336"/>
						
							<path fill="none" stroke="#292929" stroke-width="1.5812" stroke-linecap="round" stroke-linejoin="round" stroke-miterlimit="3" d="
							M56.767,118.348c0.414,0.742,0.862,1.882,1.342,3.42c0.556,1.811,0.949,2.978,1.178,3.502"/>
						<path fill="#FFFFFF" d="M23.551,85.117c0,0.251-0.06,0.463-0.18,0.638c-0.109,0.175-0.251,0.262-0.426,0.262
							c-0.164,0-0.305-0.087-0.425-0.262c-0.12-0.185-0.18-0.398-0.18-0.638s0.06-0.453,0.18-0.638
							c0.12-0.174,0.261-0.262,0.425-0.262c0.174,0,0.317,0.087,0.426,0.262C23.492,84.653,23.551,84.866,23.551,85.117z"/>
						<path fill="#FFFFFF" d="M26.235,86.098c0,0.153-0.044,0.279-0.131,0.376c-0.087,0.11-0.191,0.164-0.311,0.164
							s-0.223-0.054-0.311-0.164c-0.087-0.098-0.131-0.223-0.131-0.376c0-0.152,0.044-0.284,0.131-0.393s0.191-0.164,0.311-0.164
							s0.224,0.054,0.311,0.164S26.235,85.946,26.235,86.098z"/>
						
							<path fill="none" stroke="#292929" stroke-width="1.5812" stroke-linecap="round" stroke-linejoin="round" stroke-miterlimit="3" d="
							M89.933,81.942c-1.188,0.829-2.547,1.5-4.074,2.013c-1.56,0.513-3.049,0.775-4.467,0.785"/>
						
							<path fill="none" stroke="#292929" stroke-width="1.5812" stroke-linecap="round" stroke-linejoin="round" stroke-miterlimit="3" d="
							M159.67,136.02c-0.294,1.32-2.193,2.323-5.694,3.01c-3.883,0.546-6.283,0.987-7.199,1.326
							c-0.731,0.272-1.801,0.779-3.208,1.522c-1.614,0.85-2.754,1.429-3.42,1.735c-2.781,1.221-5.077,1.418-6.888,0.589
							c0.087-2.095,1.346-3.294,3.78-3.6c0.468-0.055,1.505-0.104,3.108-0.147c1.244-0.022,2.143-0.126,2.7-0.311"/>
						
							<path fill="none" stroke="#292929" stroke-width="1.5812" stroke-linecap="round" stroke-linejoin="round" stroke-miterlimit="3" d="
							M128.909,139.308c-0.883,0.011-1.723,0.279-2.52,0.802c-0.742,0.491-1.26,1.058-1.554,1.702
							c-0.305,0.688-0.256,1.25,0.147,1.685c0.469,0.502,1.336,0.742,2.601,0.721c0.873-0.023,2.16-0.442,3.861-1.26
							c1.898-0.916,3.196-1.44,3.895-1.571"/>
						
							<path fill="none" stroke="#292929" stroke-width="1.5812" stroke-linecap="round" stroke-linejoin="round" stroke-miterlimit="3" d="
							M190.612,119.919c0.675,2.105,1.107,3.665,1.292,4.68c0.228,1.298,0.213,2.367-0.049,3.207
							c-0.283,0.873-0.883,1.696-1.8,2.471c-0.85,0.698-2.176,1.51-3.976,2.438"/>
						
							<path fill="none" stroke="#292929" stroke-width="1.5812" stroke-linecap="round" stroke-linejoin="round" stroke-miterlimit="3" d="
							M6.568,87.751c0,0.185-0.065,0.349-0.197,0.49c-0.142,0.131-0.305,0.197-0.491,0.197c-0.185,0-0.349-0.065-0.491-0.197
							c-0.131-0.142-0.197-0.305-0.197-0.49c0-0.196,0.066-0.36,0.197-0.491c0.142-0.131,0.306-0.196,0.491-0.196
							c0.186,0,0.349,0.065,0.491,0.196C6.502,87.391,6.568,87.555,6.568,87.751z"/>
						<path fill="#FFFFFF" d="M145.09,82.442c0.936-1.295,2.425-1.189,4.468,0.319c0.796,0.6,2.056,1.838,3.779,3.714
							c-3.273-1.298-7.93-1.93-13.974-1.898c-6.784,0.294-11.579,0.447-14.382,0.458c-0.578,0-5.384-0.071-14.415-0.213
							c-5.771-0.098-10.565-0.017-14.382,0.246c-6.382,0.621-11.176,0.982-14.382,1.08c-5.52,0.185-10.265-0.322-14.235-1.522
							c-4.418-1.341-9.845-2.678-16.281-4.009c-7.177-1.407-12.577-2.514-16.199-3.322c0.611-1.276,1.724-2.531,3.338-3.763
							c0.24-0.186,1.653-1.129,4.238-2.831c0.087,0.229,0.066,0.475-0.065,0.737c-0.087,0.185-0.256,0.414-0.507,0.687
							c5.868-4.079,11.251-5.884,16.149-5.415c-0.938,0.502-1.827,1.227-2.667,2.176c-0.665,0.742-1.364,1.702-2.094,2.88
							c2.443-1.56,5.301-2.82,8.574-3.78c3.687-1.091,6.703-1.391,9.048-0.9c-0.982,0.72-2.291,1.893-3.927,3.518
							c-1.789,1.767-3.027,2.929-3.714,3.485c0.033-0.011,0.044-0.011,0.033,0c1.178-0.491,2.388-0.883,3.632-1.178
							c1.407-0.338,2.683-0.513,3.829-0.524c-0.84,0.84-1.467,1.467-1.882,1.882c-0.72,0.731-1.298,1.369-1.734,1.915
							c4.167-1.92,7.952-3.022,11.355-3.306c-0.895,1.058-1.571,1.871-2.029,2.438c-0.822,1.006-1.397,1.868-1.726,2.586
							c0.981-0.085,2.696-0.358,5.146-0.818c2.182-0.415,3.922-0.627,5.219-0.638c-0.316,0.36-0.742,0.976-1.276,1.849
							c-0.578,0.949-0.998,1.587-1.259,1.914c1.767-0.905,3.981-1.57,6.642-1.996c2.629-0.414,4.986-0.491,7.069-0.229
							c-0.261,0.251-0.676,0.796-1.244,1.636c-0.534,0.786-0.976,1.325-1.325,1.62c0.306-0.087,2.405-0.818,6.3-2.192
							c2.52-0.895,4.62-1.381,6.299-1.457c-0.228,0.251-0.556,0.704-0.982,1.358c-0.393,0.6-0.709,1.02-0.949,1.26
							c1.189-0.284,3.077-0.562,5.661-0.834c2.672-0.284,4.56-0.545,5.661-0.785c-1.058,0.633-2.383,1.598-3.976,2.896
							c2.454-0.437,5.083-0.731,7.886-0.884c2.142-0.127,4.702-0.176,7.682-0.147c0.086-0.194,0.133-0.298,0.139-0.311
							c-0.033,0.142,0.022,0.246,0.164,0.311c-0.102-0.001-0.203-0.001-0.303,0c-0.064,0.137-0.148,0.323-0.253,0.556
							c-0.218,0.502-0.404,0.834-0.556,0.998c1.887-0.578,3.834-0.998,5.841-1.26c1.822-0.24,3.801-0.354,5.939-0.343
							c-0.152,0.153-0.381,0.458-0.687,0.916c-0.294,0.458-0.524,0.763-0.688,0.916c0.546-0.011,1.948-0.191,4.205-0.54
							c1.778-0.272,3.213-0.327,4.303-0.164C145.486,81.766,145.317,82.068,145.09,82.442c-0.092,0.131-0.179,0.275-0.261,0.433
							C144.911,82.717,144.999,82.572,145.09,82.442z M74.921,77.901c-0.001-0.006-0.003-0.011-0.008-0.017
							c-0.011-0.011-0.022-0.005-0.033,0.017C74.895,77.9,74.909,77.9,74.921,77.901c-0.012-0.001-0.026-0.001-0.041,0
							c0.011-0.022,0.022-0.027,0.033-0.017C74.918,77.889,74.92,77.895,74.921,77.901z M74.937,77.901l-0.008,0.008l-0.008-0.008
							H74.937h-0.016l0.008,0.008L74.937,77.901z"/>
						
							<path fill="#FFFFFF" stroke="#292929" stroke-width="1.5812" stroke-linecap="round" stroke-linejoin="round" stroke-miterlimit="3" d="
							M145.09,82.442c0.936-1.295,2.425-1.189,4.468,0.319c0.796,0.6,2.056,1.838,3.779,3.714c-3.273-1.298-7.93-1.93-13.974-1.898
							c-6.784,0.294-11.579,0.447-14.382,0.458c-0.578,0-5.384-0.071-14.415-0.213c-5.771-0.098-10.565-0.017-14.382,0.246
							c-6.382,0.621-11.176,0.982-14.382,1.08c-5.52,0.185-10.265-0.322-14.235-1.522c-4.418-1.341-9.845-2.678-16.281-4.009
							c-7.177-1.407-12.577-2.514-16.199-3.322c0.611-1.276,1.724-2.531,3.338-3.763c0.24-0.186,1.653-1.129,4.238-2.831
							c0.087,0.229,0.066,0.475-0.065,0.737c-0.087,0.185-0.256,0.414-0.507,0.687c5.868-4.079,11.251-5.884,16.149-5.415
							c-0.938,0.502-1.827,1.227-2.667,2.176c-0.665,0.742-1.364,1.702-2.094,2.88c2.443-1.56,5.301-2.82,8.574-3.78
							c3.687-1.091,6.703-1.391,9.048-0.9c-0.982,0.72-2.291,1.893-3.927,3.518c-1.789,1.767-3.027,2.929-3.714,3.485
							c0.033-0.011,0.044-0.011,0.033,0c1.178-0.491,2.388-0.883,3.632-1.178c1.407-0.338,2.683-0.513,3.829-0.524
							c-0.84,0.84-1.467,1.467-1.882,1.882c-0.72,0.731-1.298,1.369-1.734,1.915c4.167-1.92,7.952-3.022,11.355-3.306
							c-0.895,1.058-1.571,1.871-2.029,2.438c-0.822,1.006-1.397,1.868-1.726,2.586c0.981-0.085,2.696-0.358,5.146-0.818
							c2.182-0.415,3.922-0.627,5.219-0.638c-0.316,0.36-0.742,0.976-1.276,1.849c-0.578,0.949-0.998,1.587-1.259,1.914
							c1.767-0.905,3.981-1.57,6.642-1.996c2.629-0.414,4.986-0.491,7.069-0.229c-0.261,0.251-0.676,0.796-1.244,1.636
							c-0.534,0.786-0.976,1.325-1.325,1.62c0.306-0.087,2.405-0.818,6.3-2.192c2.52-0.895,4.62-1.381,6.299-1.457
							c-0.228,0.251-0.556,0.704-0.982,1.358c-0.393,0.6-0.709,1.02-0.949,1.26c1.189-0.284,3.077-0.562,5.661-0.834
							c2.672-0.284,4.56-0.545,5.661-0.785c-1.058,0.633-2.383,1.598-3.976,2.896c2.454-0.437,5.083-0.731,7.886-0.884
							c2.142-0.127,4.702-0.176,7.682-0.147c0.086-0.194,0.133-0.298,0.139-0.311c-0.033,0.142,0.022,0.246,0.164,0.311
							c-0.102-0.001-0.203-0.001-0.303,0c-0.064,0.137-0.148,0.323-0.253,0.556c-0.218,0.502-0.404,0.834-0.556,0.998
							c1.887-0.578,3.834-0.998,5.841-1.26c1.822-0.24,3.801-0.354,5.939-0.343c-0.152,0.153-0.381,0.458-0.687,0.916
							c-0.294,0.458-0.524,0.763-0.688,0.916c0.546-0.011,1.948-0.191,4.205-0.54c1.778-0.272,3.213-0.327,4.303-0.164
							C145.486,81.766,145.317,82.068,145.09,82.442z M144.829,82.875c0.082-0.158,0.17-0.303,0.261-0.433 M74.921,77.901
							c-0.001-0.006-0.003-0.011-0.008-0.017c-0.011-0.011-0.022-0.005-0.033,0.017C74.895,77.9,74.909,77.9,74.921,77.901z
							 M74.937,77.901l-0.008,0.008l-0.008-0.008H74.937z"/>
						<g>
							
								<path fill="none" stroke="#292929" stroke-width="1.5812" stroke-linecap="round" stroke-linejoin="round" stroke-miterlimit="3" d="
								M175.247,92.627c3.763,0.272,8.426,1.227,13.989,2.863c3.142,0.927,7.723,2.34,13.745,4.238
								c5.955,1.691,10.946,3.245,14.971,4.663c5.378,1.887,10.188,3.905,14.431,6.054c9.568,4.854,15.905,10.766,19.014,17.737
								c3.479,7.8,2.443,16.128-3.109,24.985c-3.992,6.37-9.605,11.361-16.837,14.971c-6.84,3.415-14.187,5.16-22.041,5.236
								c-4.331,0.044-9.135-0.283-14.415-0.981c-3-0.382-7.706-1.141-14.121-2.275c-6.119-1.069-10.82-1.799-14.104-2.193
								c-5.236-0.632-10.024-0.888-14.366-0.769c-3.468,0.099-6.665,0.562-9.588,1.392c-2.956,0.829-5.891,2.105-8.803,3.828
								c-4.68,2.77-7.92,5.138-9.719,7.101c-3.022,3.294-4.052,6.937-3.093,10.93c-3.468-3.622-5.59-7.379-6.365-11.273
								c-0.72-3.61-0.251-7.112,1.407-10.505c1.582-3.24,4.091-6.087,7.527-8.541c3.447-2.454,7.45-4.254,12.01-5.399
								c6.893-1.723,15.097-2.181,24.609-1.374c2.944,0.251,7.041,0.72,12.288,1.407c5.748,0.763,9.823,1.265,12.223,1.505
								c7.124,0.709,12.899,0.824,17.328,0.344c7.211-0.807,12.234-3.12,15.07-6.937c2.487-3.349,2.651-6.185,0.491-8.508
								c-1.735-1.865-5.04-3.453-9.916-4.761c-2.684-0.721-7.03-1.587-13.041-2.602c-4.92-0.829-7.892-1.505-8.917-2.029"/>
						</g>
						
							<path fill="none" stroke="#292929" stroke-width="1.5812" stroke-linecap="round" stroke-linejoin="round" stroke-miterlimit="3" d="
							M186.488,116.041c-17.126-7.21-27.44-6.752-30.941,1.375c-1.276,2.956-1.341,6.397-0.197,10.324
							c1.08,3.688,2.826,6.61,5.236,8.77c1.462,1.309,3.377,2.646,5.743,4.009c1.364,0.786,3.403,1.898,6.12,3.339"/>
					</g>
				</g>
			</g>
		</g>
	</g>
	<path fill="#FFFFFF" d="M157.42,151.241c-0.212-0.771-1.138-1.413-1.945-1.105c-0.857,0.327-1.584,0.807-2.316,1.298
		c-0.155,0.034-0.29,0.093-0.415,0.164c-0.148,0.071-0.292,0.156-0.426,0.262c-0.082,0.057-0.155,0.124-0.221,0.199
		c-0.012,0.012-0.33,0.272-0.162,0.17c-0.038,0.023-0.066,0.05-0.101,0.075c-1.746,0.283-1.654,3.135,0.284,3.135
		c0.378,0,0.686-0.109,0.923-0.287c0.161-0.036,0.323-0.093,0.489-0.192c0.928-0.559,1.765-1.384,2.785-1.774
		C157.121,152.877,157.666,152.132,157.42,151.241z"/>
	<g>
		<path fill="#FFFFFF" d="M166.67,154.805c-0.005-0.027,0.001-0.052-0.003-0.078C166.654,154.609,166.654,154.63,166.67,154.805z"/>
		<path fill="#FFFFFF" d="M170.574,151.965c-0.647-0.379-1.374-0.222-1.916,0.247c-0.22,0.19-0.425,0.393-0.62,0.604
			c-0.089,0.007-0.178,0.02-0.264,0.043c-0.847,0.233-1.237,1.048-1.108,1.866c0.002,0.012,0.002,0.018,0.004,0.034
			c0.017,0.176,0.041,0.351,0.075,0.524c0.073,0.392,0.345,0.719,0.594,1.009c0.51,0.594,1.354,0.575,1.96,0.191
			c0.673-0.024,1.251-0.488,1.473-1.153c0.176-0.527,0.351-1.054,0.527-1.581C171.524,153.082,171.16,152.309,170.574,151.965z"/>
	</g>
</g>
</svg>
