<?xml version="1.0" encoding="utf-8"?>
<!-- Generator: Adobe Illustrator 17.0.1, SVG Export Plug-In . SVG Version: 6.00 Build 0)  -->
<!DOCTYPE svg PUBLIC "-//W3C//DTD SVG 1.1//EN" "http://www.w3.org/Graphics/SVG/1.1/DTD/svg11.dtd">
<svg version="1.1" id="Layer_1" xmlns="http://www.w3.org/2000/svg" xmlns:xlink="http://www.w3.org/1999/xlink" x="0px" y="0px"
	 width="251.926px" height="222.299px" viewBox="7.299 17.545 251.926 222.299"
	 enable-background="new 7.299 17.545 251.926 222.299" xml:space="preserve">
<g id="Layer_3">
	<path fill="#FFFFFF" d="M254.668,72.532c-0.048-1.052-0.26-2.096-0.639-3.067c1.558-3.471,0.907-8.018-1.954-10.591
		c0.541-2.306,0.387-4.623-0.141-6.991c-0.575-2.587-2.322-4.9-3.942-6.913c-0.6-0.745-1.22-1.463-1.861-2.174
		c-0.232-0.257-2.334-2.847-1.507-1.672c-1.104-1.57-2.56-2.789-4.188-3.522c-1.336-1.095-3.106-1.784-5.324-1.784
		c-0.136,0-0.263,0.014-0.395,0.019c-1.522-5.38-6.268-8.491-11.364-10.281c-2.437-0.854-5.115-1.054-7.678-1.009
		c-1.06,0.018-2.121,0.09-3.181,0.127c-1.306,0.047-2.639-0.599-1.018,0.274c-0.339-0.183-0.677-0.337-1.013-0.473
		c-0.798-1.239-1.934-2.258-3.396-2.892c-0.086-0.786-0.488-1.537-1.22-1.883c-1.336-0.631-2.777-0.923-4.232-0.512
		c-1.52,0.428-2.497,1.627-2.844,3.068c-0.368,0.248-0.712,0.522-1.023,0.825c-0.451-0.216-0.92-0.398-1.406-0.532
		c-0.767-0.103-1.535-0.207-2.302-0.31c-1.236,0.004-2.403,0.262-3.507,0.753c-0.329,0.091-0.663,0.167-1,0.235
		c-2.127,0.432-4.104,2.153-5.173,3.978c-0.508,0.869-0.845,1.821-1.026,2.802c-0.15,0.07-0.302,0.126-0.451,0.203
		c-1.607,0.827-3.15,1.963-4.363,3.304c-0.786,0.87-1.647,1.913-2.166,3.01c-1.038,2.193-1.203,3.132-1.492,5.575
		c-0.027,0.236-0.03,0.478-0.021,0.721c-0.003,0.01-0.007,0.019-0.009,0.029c-0.622,0.732-1.204,1.507-1.592,2.374
		c-2.007,4.475-1.282,8.9,1.971,12.581c2.044,2.315,4.437,3.555,7.324,4.56c0.453,0.158,0.919,0.285,1.384,0.412
		c0.239,0.881,0.648,1.707,1.178,2.453c-0.846-0.043-1.745,0.032-2.694,0.262c-5.22,1.267-9.383,4.473-12.867,8.448
		c-1.241,1.417-2.207,2.864-2.962,4.356c-3.363,2.507-4.158,7.507-2.397,11.203c-0.005,0.323-0.01,0.646-0.009,0.975
		c0,0.187,0.019,0.363,0.029,0.544c-0.233-0.016-0.464-0.035-0.708-0.035c-0.846,0-1.625,0.103-2.342,0.286
		c-0.87-0.292-1.842-0.456-2.92-0.456c-7.141,0-9.692,7.07-7.694,12.171c-0.469-0.07-0.955-0.119-1.472-0.119
		c-0.292,0-0.572,0.018-0.848,0.042c-0.276-0.022-0.556-0.042-0.848-0.042c-5.615,0-8.4,4.377-8.364,8.729
		c-1.763,0.251-2.905,1.376-3.405,2.773c-0.955-0.852-2.138-1.502-3.584-1.803c-1.143-1.495-2.757-2.608-4.582-3.11
		c-0.767-0.103-1.534-0.207-2.302-0.31c-0.771,0.002-1.516,0.102-2.236,0.293c-0.95,0.031-1.899,0.071-2.818,0.414
		c-2.35,0.878-2.044,0.801-4.002,2.325c-0.577,0.449-1.64,2.074-1.577,1.975c-1.003,1.626-1.365,3.462-1.418,5.347
		c-0.02,0.706,0.067,1.391,0.227,2.051c-0.192,0.361-0.29,0.802-0.227,1.343c0.272,2.316,0.423,4.645,0.212,6.972
		c-0.018,0.196-0.043,0.363-0.066,0.537c-0.157,0.005-0.316,0.016-0.483,0.05c-2.269,0.461-4.116,0.743-5.426,2.867
		c-0.019,0.032-0.026,0.063-0.044,0.096c-3.102,0.451-6.085,1.976-7.833,4.649c-0.163,0.248-0.316,0.532-0.46,0.838
		c-0.643,0.42-0.994,1.13-1.065,1.875c-0.504,0.663-0.636,1.576-0.421,2.384c-0.179,0.644-0.129,1.353,0.149,1.956
		c-0.212,5.334,1.694,10.903,7.579,8.868c6.566-2.27,7.889-10.06,3.491-14.813c0.285,0.113,0.606,0.185,0.975,0.185
		c0.836,0,1.457-0.332,1.867-0.826c2.558,0.475,4.906,1.605,7.041-0.599c2.146-2.215,4.888-4.204,5.158-7.439
		c0.427,0.413,0.889,0.795,1.421,1.109c1.396,1.598,3.474,2.662,6.239,2.662c4.814,0,7.538-3.218,8.2-6.877
		c1.141-2.013,1.453-4.502,0.954-6.785c1.121-0.184,1.979-0.727,2.574-1.473c0.035,0.02,0.067,0.043,0.104,0.062
		c0.229,0.845,0.574,1.654,1.036,2.39c0.204,1.042,0.583,2.041,1.124,2.941c-0.405,0.534-0.585,1.248-0.322,2.1
		c0.42,1.364,0.859,2.746,1.153,4.151c-0.272,0.045-0.548,0.123-0.83,0.274c-1.219,0.647-2.263,1.397-3.17,2.23
		c-0.941-0.048-1.942,0.345-2.325,1.228c-0.047,0.106-0.089,0.212-0.132,0.318c-0.195,0.147-0.382,0.315-0.547,0.531
		c-0.632,0.828-1.167,1.695-1.592,2.589c-0.547,0.408-0.936,1.043-0.961,1.922c-0.002,0.076-0.016,0.154-0.021,0.231
		c-0.171,0.235-0.312,0.497-0.398,0.788c-0.226,0.764-0.26,1.583-0.261,2.375c0,0.297,0.063,0.579,0.159,0.847
		c0,0.013-0.003,0.026-0.003,0.04c-0.013,0.784,0.139,1.511,0.422,2.175c-0.317,0.121-0.609,0.31-0.85,0.57
		c-0.071,0.084-0.154,0.157-0.233,0.233c-0.026,0.013-0.08,0.045-0.181,0.11c-0.021,0.011-0.031,0.015-0.049,0.024
		c-0.152,0.05-0.307,0.094-0.461,0.13c-0.109,0.024-0.22,0.044-0.33,0.063c-0.035,0.002-0.096,0.007-0.209,0.019
		c-0.325,0.026-0.654,0.029-0.98,0.031c-0.544,0.003-0.989,0.155-1.353,0.391c-0.296-0.13-0.635-0.212-1.022-0.221
		c-3.938-0.087-7.931-0.907-11.709,0.6c-0.762,0.303-1.238,0.847-1.487,1.466c-0.998,0.128-1.95,0.816-2.158,1.839
		c-0.068,0.335-0.142,0.668-0.232,0.997c-0.012,0.045-0.03,0.088-0.044,0.132c-0.038,0.085-0.099,0.223-0.148,0.299
		c-0.18,0.286-0.285,0.601-0.328,0.921c-0.514,0.643-0.874,1.362-1.116,2.232c-0.195,0.701-0.059,1.343,0.266,1.873
		c-0.02,0.326,0.024,0.626,0.116,0.902c-4.522,0.588-8.737-0.678-12.568,2.79c-2.614,2.366-2.967,6.313-1.626,9.419
		c-0.32,0.446-0.497,1.002-0.467,1.639c-1.071,0.513-2.25,0.891-3.22,1.375c-2.355,1.171-5.024,1.308-7.552,1.915
		c-0.201-0.125-0.418-0.234-0.67-0.304c-1.24-0.341-2.891,0.41-3.132,1.778c-0.005,0.031-0.04,0.128-0.073,0.233
		c-0.52,0.088-1.032,0.322-1.478,0.68c-1.008,0.81-1.953,1.719-2.584,2.864c-0.833,1.511-0.804,3.775,0.571,5.001
		c2.592,2.313,6.212,0.044,6.776-3.011c0.045-0.24,0.056-0.481,0.045-0.716c0.073,0.011,0.139,0.033,0.215,0.039
		c5.697,0.465,11.26-1.447,15.882-4.592c0.986-0.67,1.266-1.683,1.1-2.611c0.564-0.639,0.936-1.444,1.089-2.474
		c0.061-0.41,0.034-0.792-0.049-1.144c0.262-0.118,0.516-0.263,0.752-0.448c1.606-1.268,3.059-2.711,4.583-4.074
		c0.056-0.05,0.096-0.111,0.146-0.166c5.327,0.66,12.274,1.291,13.409-4.011c0.149-0.694-0.024-1.382-0.382-1.952
		c0.437-1.28,0.611-2.667,0.642-4.157c0.016-0.763-0.254-1.34-0.667-1.75c0.059-0.117,0.113-0.237,0.175-0.354
		c0.039-0.072,0.363-0.539,0.37-0.578c0.067-0.073,0.137-0.144,0.211-0.211c0.033-0.018,0.096-0.058,0.208-0.131
		c-0.185,0.037-0.115,0.009,0.209-0.085c0.329-0.112,0.679-0.157,1.02-0.206c0.562-0.08,1.01-0.423,1.329-0.874
		c0.853-0.039,1.718-0.05,2.577-0.054c0.535-0.002,0.975-0.147,1.335-0.371c0.3,0.128,0.646,0.204,1.041,0.201
		c1.254-0.008,2.531-0.153,3.691-0.58c0.372,0.252,0.834,0.41,1.401,0.41c1.064,0,1.778-0.538,2.152-1.261
		c0.635,0.285,1.397,0.314,2.188-0.106c6.093-3.226,8.222-9.833,8.899-16.285c0.036-0.343,0.001-0.642-0.071-0.911
		c1.242-1.077,2.233-2.364,3.399-3.569c0.166-0.172,0.293-0.352,0.4-0.534c1.306,0.997,2.997,1.62,5.099,1.62
		c0.058,0,0.11-0.007,0.167-0.008c0.907,0.323,1.919,0.517,3.058,0.517c4.585,0,7.274-2.922,8.091-6.363
		c1.177-0.573,1.573-2.035,1.182-3.205c1.456-2.682,1.5-6.164,0.101-8.88c0.695,0.433,1.446,0.776,2.241,0.995
		c0.767,0.103,1.535,0.207,2.302,0.31c1.562-0.005,3.02-0.399,4.369-1.182c1.433-0.631,3.261-2.417,3.913-3.847
		c0.997-2.189,1.045-2.376,1.28-4.829c0.02-0.21,0.016-0.421,0.006-0.631c0.501-1.07,0.79-2.324,0.786-3.767
		c-0.006-2.037-0.023-4.079-0.021-6.119c1.04-1.287,1.659-2.881,1.863-4.54c0.304-0.329,0.572-0.685,0.82-1.056
		c0.019,0,0.036,0.005,0.056,0.005c0.749,0,1.318-0.272,1.724-0.68c0.166-0.042,0.322-0.101,0.484-0.153
		c0.335,0.262,0.766,0.431,1.282,0.475c0.058,1.122,0.755,2.191,2.09,2.36c0.209,0.375,0.427,0.735,0.655,1.081
		c-0.56,1.107-0.256,2.812,0.967,3.36c1.17,0.525,2.168,1.323,3.225,2.037c0.746,0.505,1.707,0.444,2.473,0.032
		c0.409,0.493,1.031,0.826,1.868,0.826c0.549,0,0.997-0.151,1.364-0.388c0.571,0.071,1.155,0.127,1.766,0.151
		c0.857,0.034,1.709,0.054,2.565,0.116c-0.599,0.049-0.378,0.168,0.659,0.355c0.367,0.155,0.902,0.38,1.64,0.69
		c1.35,0.48,2.666,0.672,3.958,0.661c0.087,0.097,0.166,0.198,0.258,0.291c5.155,5.28,14.75,6.887,20.219,1.188
		c0.57-0.594,1.039-1.254,1.415-1.951c1.505-0.093,3.002-0.342,4.433-0.735c9.009-2.475,14.423-10.216,14.34-19.22
		C257.999,76.152,256.627,73.908,254.668,72.532z"/>
</g>
<g id="Layer_1_2_">
	<g>
		<g id="Layer_1_1_">
			<g>
				<g id="Layer_1_3_">
					<g>
						<path fill="none" stroke="#454343" stroke-width="1.5276" stroke-miterlimit="10" d="M207.027,36.92
							c-0.232-0.318-0.446-0.775-0.641-1.374c-0.183-0.598-0.312-0.946-0.384-1.043c-0.293-0.428-0.342-0.757-0.148-0.989"/>
						<path fill="none" stroke="#454343" stroke-width="1.5276" stroke-miterlimit="10" d="M195.272,34.723
							c-0.158-0.208-0.312-0.427-0.457-0.659c-0.306-0.464-0.494-0.94-0.568-1.428l0.165-2.473c0.109-1.16,0.201-1.898,0.275-2.216"
							/>
						<path fill="none" stroke="#454343" stroke-width="1.5276" stroke-miterlimit="10" d="M233.744,34.357
							c0.023,0.304,0.397,0.842,1.117,1.612c0.757,0.806,1.495,1.416,2.216,1.831"/>
						<path fill="none" stroke="#454343" stroke-width="1.5276" stroke-miterlimit="10" d="M221.457,44.575
							c-0.158-0.573-0.457-1.166-0.897-1.776c-0.134-0.183-0.457-0.579-0.971-1.19c-0.525-0.622-0.879-1.111-1.062-1.464"/>
						<path fill="none" stroke="#454343" stroke-width="1.5276" stroke-miterlimit="10" d="M194.246,88.997
							c-0.098-0.195-0.263-0.726-0.494-1.593c-0.244-0.916-0.367-1.52-0.367-1.813c0-0.33,0.044-0.818,0.128-1.464"/>
						<path fill="none" stroke="#454343" stroke-width="1.5276" stroke-miterlimit="10" d="M204.684,55.872
							c0.098-0.22,0.201-0.573,0.312-1.062c0.122-0.561,0.177-1.001,0.164-1.318c-0.036-0.647,0.05-1.117,0.257-1.409"/>
						<path fill="none" stroke="#454343" stroke-width="1.5276" stroke-miterlimit="10" d="M183.04,65.156
							c0.634-0.207,1.617-0.318,2.948-0.329c0.659-0.012,1.257,0,1.794,0.037"/>
						<path fill="none" stroke="#454343" stroke-width="1.5276" stroke-miterlimit="10" d="M137.703,112.856
							c0.977-0.379,1.709-0.885,2.197-1.519c0.049-0.073,0.299-0.538,0.751-1.392c0.354-0.744,0.751-1.252,1.191-1.52"/>
						<path fill="none" stroke="#454343" stroke-width="1.5276" stroke-miterlimit="10" d="M148.322,108.278
							c0.743-0.598,1.288-1.245,1.629-1.941c0.22-0.512,0.342-1.154,0.367-1.923c0.023-0.94-0.148-1.715-0.513-2.326"/>
						<path fill="none" stroke="#454343" stroke-width="1.5276" stroke-miterlimit="10" d="M164.088,90.17
							c1.331-0.758,2.21-1.557,2.638-2.399c0.5-0.989,0.793-1.959,0.879-2.911"/>
						<path fill="none" stroke="#454343" stroke-width="1.5276" stroke-miterlimit="10" d="M126.57,154.624
							c-0.379,0.121-1.001,0.531-1.868,1.226c-0.952,0.769-1.611,1.447-1.978,2.033"/>
						<path fill="none" stroke="#454343" stroke-width="1.5276" stroke-miterlimit="10" d="M107.104,170.812
							c-0.11,0.098-0.579,0.44-1.409,1.026c-0.807,0.586-1.264,0.928-1.374,1.026"/>
						<path fill="none" stroke="#454343" stroke-width="1.5276" stroke-miterlimit="10" d="M89.159,182.603
							c-0.023-0.012-0.555-0.018-1.593-0.018"/>
						<path fill="none" stroke="#454343" stroke-width="1.5276" stroke-miterlimit="10" d="M98.864,172.551
							c0.44-0.403,0.726-0.684,0.861-0.842c0.208-0.243,0.39-0.697,0.55-1.354"/>
						<path fill="none" stroke="#454343" stroke-width="1.5276" stroke-miterlimit="10" d="M112.707,158.323
							c0.061,0.024,0.373,0.043,0.934,0.055c0.647,0.062,1.209,0.171,1.684,0.329"/>
						<path fill="none" stroke="#454343" stroke-width="1.5276" stroke-miterlimit="10" d="M135.944,146.969
							c0.928-0.72,1.447-1.526,1.556-2.417"/>
						<path fill="none" stroke="#454343" stroke-width="1.5276" stroke-miterlimit="10" d="M218.545,101.485
							c-0.55-0.305-1.105-0.812-1.667-1.519c-0.391-0.501-0.733-1.019-1.026-1.556c-0.195-0.367-0.556-0.971-1.081-1.813
							c-0.586-0.928-1.007-1.55-1.264-1.868"/>
						<path fill="none" stroke="#454343" stroke-width="1.5276" stroke-miterlimit="10" d="M123.163,132.102
							c0.39-0.257,0.781-0.549,1.171-0.879c-0.098-0.098-0.244-0.275-0.44-0.531c-0.171-0.232-0.269-0.354-0.293-0.366
							L123.163,132.102z"/>
						<path fill="none" stroke="#454343" stroke-width="1.5276" stroke-miterlimit="10" d="M138.471,107.84
							c-0.269,0.451-0.427,1.038-0.477,1.759"/>
						<path fill="#454343" d="M137.995,109.597c-1.806,0.28-3.124,0.543-3.955,0.786l-3.103,1.026
							c-0.727-0.428-1.218-0.69-1.474-0.787c2.441-1.257,5.444-2.185,9.009-2.783C138.203,108.291,138.045,108.877,137.995,109.597z
							"/>
						<path fill="#454343" d="M87.548,155.21c2.1-2.295,3.742-4.229,4.925-5.805c1.782-2.344,3.132-4.62,4.047-6.829
							c-0.037,0.39-0.049,0.818-0.037,1.281c0.024,0.77,0.037,1.172,0.037,1.21c-2.612,4.882-6.855,9.741-12.727,14.575
							c-1.684,1.354-4.266,3.32-7.745,5.895c-3.37,2.552-5.92,4.553-7.654,6.005c-0.11-0.232,0.024-0.5,0.403-0.806
							c0.598-0.428,0.958-0.696,1.081-0.806c0.842-0.708,3.845-3.052,9.009-7.031C82.646,160.007,85.534,157.444,87.548,155.21z"/>
						<path fill="#454343" d="M94.872,156.528c1.417-1.683,2.698-3.1,3.845-4.248c0.061,0.086,0.312,0.378,0.751,0.879
							c0.342,0.366,0.531,0.659,0.568,0.879c-1.368,1.074-4.072,3.79-8.111,8.148c-3.26,3.491-6.293,5.926-9.1,7.306
							c-0.244,0.134-2.503,1.16-6.775,3.077c-2.698,1.221-4.853,2.356-6.464,3.407c-0.598,0.379-1.361,1.092-2.289,2.143
							c-0.903,1.087-1.655,1.844-2.252,2.27c1.403-2.368,3.613-4.51,6.628-6.427c1.965-1.245,4.902-2.735,8.808-4.469
							c0.964-0.44,1.746-0.83,2.344-1.171c2.722-1.55,5.559-4.041,8.515-7.471L94.872,156.528z"/>
						<path fill="#454343" d="M79.747,184.343c-0.159,0.659-0.061,1.209,0.293,1.648c-4.639,2.015-8.845,4.651-12.616,7.911
							c-3.321,2.857-6.568,6.445-9.742,10.767c-0.94,1.244-2.337,3.228-4.193,5.95l-4.194,6.116c-0.5,0.697-1.91,2.735-4.23,6.116
							c-1.611,2.331-3.143,4.174-4.596,5.53c-1.087,0.977-2.393,1.911-3.919,2.802l-4.321,2.325
							c-1.648,0.879-2.857,1.496-3.625,1.849c-1.441,0.659-2.783,1.166-4.029,1.519c-2.075,0.659-3.943,1.221-5.603,1.684
							c-2.112,0.562-4.162,0.989-6.152,1.282c1.452-0.477,3.777-1.123,6.976-1.941c2.979-0.732,5.256-1.403,6.83-2.014
							c1.831-0.744,3.79-1.733,5.878-2.967c1.001-0.537,1.959-1.074,2.875-1.611c1.111-0.634,1.965-1.22,2.563-1.759
							c1.013-0.818,1.862-1.648,2.545-2.49c0.55-0.732,0.886-1.177,1.007-1.336c0.464-0.5,0.806-0.897,1.026-1.189l2.198-2.93
							c0.793-1.184,1.733-2.655,2.82-4.414l2.637-4.431c4.09-6.788,7.715-11.793,10.877-15.015
							C66.74,191.996,72.973,187.529,79.747,184.343z"/>
						<path fill="none" stroke="#454343" stroke-width="1.5276" stroke-miterlimit="10" d="M161.122,132.247
							c-0.964,0-1.959-0.195-2.985-0.586l-2.582-1.044c-1.368,0.843-2.484,2.089-3.352,3.736c-0.354,0.671-0.616,1.361-0.787,2.068
							c-0.109,0.451-0.304,1.319-0.586,2.601c0.037,0.109-0.012,0.403-0.147,0.878c-0.073,0.379-0.159,0.868-0.257,1.464
							c-0.098,0.488-0.207,0.941-0.329,1.355c-0.879,2.014-2.014,3.68-3.407,4.998"/>
						<path fill="none" stroke="#454343" stroke-width="1.5276" stroke-miterlimit="10" d="M180.275,109.451
							c-1.404,0.244-2.522,0.604-3.352,1.081c-0.634,0.354-1.16,0.83-1.574,1.428c-0.513,0.782-0.751,1.666-0.714,2.655"/>
						<path fill="none" stroke="#454343" stroke-width="1.5276" stroke-miterlimit="10" d="M112.781,144.114
							c-0.524,0.622-0.647,1.282-0.366,1.978c0.073,0.561,0.11,0.957,0.11,1.191c0,0.427-0.086,0.812-0.257,1.153"/>
						<path fill="none" stroke="#454343" stroke-width="1.5276" stroke-miterlimit="10" d="M146.693,147.721
							c-1.282,1.245-2.899,2.326-4.853,3.242c-1.611,0.744-4.193,1.336-7.745,1.776c-3.48,0.464-5.988,1.093-7.526,1.887
							c0.11,1.197,0.061,2.447-0.147,3.754c-0.11,0.634-0.367,1.838-0.769,3.607c-0.354,1.172-0.696,2.002-1.026,2.49l-0.714,1.062
							c-0.318,0.428-0.567,0.72-0.751,0.879c-1.05,0.891-2.344,1.361-3.882,1.41c-0.634,0.023-2.088-0.105-4.358-0.385
							c-1.026-0.122-2.369,0.318-4.029,1.319c-2.075,1.257-3.339,1.94-3.79,2.051c-0.512,2.502-1.569,4.657-3.168,6.464
							c-1.367,1.563-3.204,2.942-5.512,4.138c-2.381,0.464-5.47,0.862-9.266,1.191c-0.073,0.94-0.476,1.831-1.209,2.673
							c-0.683,0.77-1.532,1.379-2.546,1.831c-2.392,0.978-4.18,0.605-5.365-1.117c-0.354-0.44-0.451-0.989-0.293-1.648
							c0.427-2.088,0.922-3.595,1.484-4.523c0.634-1.11,1.654-2.057,3.057-2.837c1.135-0.611,3.101-1.026,5.896-1.245
							c2.905-0.22,4.871-0.58,5.896-1.082c0.586-0.292,1.184-0.671,1.794-1.134c0.744-0.599,1.172-1.111,1.281-1.539
							c0.147-0.403-0.031-1.331-0.531-2.783c-0.463-1.464-0.579-2.538-0.347-3.222c0.256-0.806,0.793-1.746,1.611-2.82
							c0.757-0.928,1.502-1.661,2.234-2.198c2.222-1.599,5.75-2.479,10.584-2.637l0.604-2.783c0.244-1.16,0.537-2.051,0.879-2.673
							c1.562-2.857,4.394-4.735,8.496-5.64c3.833-0.854,7.715-0.696,11.646,0.477l0.825-0.329c0.366-0.122,0.628-0.257,0.786-0.403"
							/>
						<path fill="none" stroke="#454343" stroke-width="1.5276" stroke-miterlimit="10" d="M112.268,148.435
							c-1.721,3.87-4.712,6.031-8.973,6.482"/>
						<path fill="#454343" d="M135.212,144.041c-3.552,0.183-7.55,0.799-11.994,1.848c-4.724,1.184-8.374,2.033-10.95,2.545
							c0.171-0.341,0.257-0.726,0.257-1.153c0-0.233-0.037-0.629-0.11-1.191c6.922-1.684,10.609-2.576,11.06-2.673
							c4.358-0.916,8.27-1.447,11.737-1.593C135.066,142.619,135.066,143.357,135.212,144.041z"/>
						<path fill="none" stroke="#454343" stroke-width="1.5276" stroke-miterlimit="10" d="M112.562,120.364
							c-0.721-2.881-0.202-5.427,1.556-7.636c1.733-2.137,4.016-3.277,6.848-3.424"/>
						<path fill="none" stroke="#454343" stroke-width="1.5276" stroke-miterlimit="10" d="M101.134,154.478
							c-0.318-0.049-0.683-0.195-1.099-0.439c-0.037-0.22-0.226-0.513-0.568-0.879c-0.439-0.501-0.689-0.793-0.751-0.879
							c-0.781-1.759-1.252-2.857-1.41-3.296c-0.476-1.343-0.738-2.65-0.787-3.919c0-0.037-0.012-0.44-0.037-1.21
							c-0.012-0.463,0-0.891,0.037-1.281c0.086-0.244,0.213-0.744,0.384-1.502c0.122-0.598,0.287-1.087,0.494-1.464
							c0.611-1.001,1.813-2.02,3.607-3.058c2.282-1.16,4.174-2.148,5.676-2.967c2.844-1.538,4.657-2.71,5.438-3.515
							c0.463-1.16,0.732-2.246,0.806-3.259c0.061-0.587,0.037-1.819-0.073-3.699"/>
						<path fill="none" stroke="#454343" stroke-width="1.5276" stroke-miterlimit="10" d="M123.456,109.03
							c2.197,0.244,4.2,0.775,6.005,1.593c0.183,0.073,0.83,0.428,1.941,1.062c1.026,0.586,1.874,0.983,2.545,1.19
							c1.307,0.33,2.558,0.323,3.755-0.018c-0.012-0.269,0.031-0.781,0.128-1.538c0.109-0.879,0.164-1.453,0.164-1.721"/>
						<path fill="none" stroke="#454343" stroke-width="1.5276" stroke-miterlimit="10" d="M186.007,41.022
							c-0.086-0.232-0.397-0.573-0.934-1.026c-0.648-0.55-1.026-0.891-1.136-1.026c-0.903-0.806-1.348-2.221-1.336-4.248
							c0.012-0.219,0.037-1.166,0.073-2.838c0.023-0.916,0.147-1.788,0.366-2.618"/>
						<path fill="none" stroke="#454343" stroke-width="1.5276" stroke-miterlimit="10" d="M138.471,107.84
							c0.879-1.819,2.368-3.242,4.469-4.266c1.941-0.952,4.229-1.446,6.866-1.484c-1.319-3.112-1.05-5.841,0.806-8.185
							c1.733-2.209,4.261-3.405,7.581-3.589c0.171-0.012,1.232,0.055,3.186,0.202c1.282,0.11,2.185-0.006,2.71-0.347
							c-1.269-1.721-1.556-4.01-0.861-6.867c0.549-2.185,1.519-4.266,2.912-6.244c4.688-6.653,10.321-10.621,16.901-11.903
							c0.366-1.501,0.109-2.843-0.769-4.029c-0.77-1.026-1.678-1.593-2.729-1.703c-0.732-0.049-1.282-0.092-1.648-0.128
							c-0.634-0.061-1.123-0.165-1.464-0.312c-1.026-0.697-1.807-1.294-2.344-1.794c-0.366-0.318-0.757-0.897-1.171-1.739
							c-0.5-1.318-0.733-2.991-0.697-5.018c0.024-1.855,0.257-3.564,0.697-5.127c0.232-1.294,0.428-2.173,0.586-2.637
							c1.99-6.19,5.17-10.657,9.54-13.404"/>
						<g>
							<path fill="#454343" d="M106.812,110.586c-1.172,1.099-2.002,2.1-2.49,3.003c-0.11,0.195-0.196,0.457-0.257,0.787
								c-0.049,0.318-0.109,0.593-0.183,0.824c-0.635,1.77-1.721,4.224-3.259,7.361c-0.611,1.282-1.441,3.297-2.491,6.043
								c-0.989,2.674-1.77,4.627-2.343,5.86c-0.012,0.196-0.049,0.348-0.11,0.457c-0.037,0.073-0.049,0.165-0.037,0.276
								c3.028-1.575,6.068-3.772,9.119-6.593c2.259-2.062,4.859-4.81,7.801-8.24c1.391-1.587,2.411-2.82,3.057-3.699
								c1.917-2.551,3.034-3.997,3.352-4.339c0.439-0.488,1.105-1.495,1.995-3.022c1.855-2.979,3.382-5.481,4.579-7.508
								c1.611-2.808,3.014-5.512,4.211-8.111c-6.592,3.394-13.202,8.111-19.831,14.155
								C108.692,108.888,107.654,109.805,106.812,110.586z M135.652,81.233c1.636-3.845,2.918-7.191,3.844-10.034
								c-5.249,2.698-10.315,6.579-15.198,11.646c-3.063,3.21-7.074,8.105-12.03,14.685c-1.074,1.452-2.166,3.321-3.277,5.603
								l-2.765,6.025c5.505-5.224,9.271-8.636,11.298-10.236c4.504-3.577,9.082-6.201,13.733-7.874L135.652,81.233z M138.709,79.989
								c-2.368,5.493-3.716,8.692-4.047,9.595c2.552-1.441,6.501-3.509,11.848-6.207c4.712-2.479,8.46-4.767,11.243-6.867
								c4.627-3.528,7.99-6.208,10.089-8.039c3.613-3.162,6.476-6.323,8.588-9.485c3.321-4.529,5.035-6.977,5.146-7.343
								c-2.198,1.77-3.509,2.814-3.937,3.131c-0.403,0.306-1.081,0.781-2.033,1.429c-0.963,0.659-1.47,0.989-1.519,0.989
								c-3.186,2.075-8.35,4.279-15.491,6.61c-7.85,2.527-13.19,4.541-16.022,6.043C141.706,72.627,140.419,76.009,138.709,79.989z
								 M186.062,41.16c0.488,1.063,0.732,1.994,0.732,2.792c0.013,1.368-0.555,2.667-1.703,3.9
								c-0.293,0.367-0.531,0.641-0.714,0.824l-0.605,0.677l-0.128,0.11c-0.414,0.342-0.707,0.665-0.878,0.971
								c-0.232,0.196-0.385,0.354-0.458,0.476c-0.061,0.744-0.104,1.514-0.127,2.308c-0.024,0.501-0.073,1.013-0.148,1.539
								c-0.023,0.463-0.347,1.203-0.971,2.215c-0.537,0.806-1.043,1.624-1.519,2.454c-2.051,2.576-5.152,5.762-9.302,9.559
								c-0.086,0.098-0.897,0.775-2.436,2.033c-1.013,0.842-1.666,1.489-1.959,1.941c-0.147,0.11-0.226,0.189-0.238,0.237v0.018
								h-0.055l-0.128,0.092c-0.061,0-0.164,0.031-0.312,0.092c-3.711,3.37-8.52,6.506-14.429,9.412
								c-0.659,0.33-1.764,0.995-3.315,1.996c-1.44,0.916-2.545,1.569-3.314,1.959c-2.319,1.245-4.138,2.204-5.457,2.875
								c-2.161,1.123-4.022,1.984-5.585,2.582c-1.11,2.515-2.588,5.317-4.431,8.405c-1.441,2.332-3.15,5.133-5.128,8.405
								c-0.697,0.94-1.99,2.838-3.882,5.695c-1.135,1.672-2.051,2.954-2.747,3.845c-1.843,1.99-3.167,3.503-3.973,4.541
								c-0.391,0.257-1.385,1.184-2.985,2.783c-1.843,1.843-3.014,2.985-3.515,3.424c-0.744,0.659-1.837,1.514-3.278,2.564
								c-0.757,0.549-1.599,1.148-2.527,1.794l-1.978,1.374c-0.683,0.525-1.239,0.928-1.666,1.209
								c-0.732,0.464-1.446,0.799-2.143,1.007c-6.165,10.217-13.031,18.946-20.6,26.185c-2.088,2.014-5.128,4.81-9.119,8.386
								c-2.589,2.356-5.817,4.949-9.687,7.783c-4.138,2.991-6.233,4.504-6.28,4.541c-3.259,2.515-5.42,4.572-6.482,6.171
								c-0.891,1.306-1.648,2.607-2.27,3.9c-0.281,0.549-0.861,1.983-1.739,4.303c-0.683,1.807-1.336,3.217-1.959,4.23
								c1.209-3.541,2.137-6.086,2.783-7.636c1.136-2.795,2.533-5.152,4.193-7.068c0.879-1.001,2.02-2.045,3.425-3.132
								c0.44-0.354,1.929-1.373,4.468-3.057c3.309-2.234,6.653-4.834,10.034-7.801c2.82-2.479,5.848-5.371,9.082-8.679
								c4.162-4.235,7.94-8.461,11.335-12.671c3.454-4.309,6.788-8.973,9.998-13.99c-5.933,2.38-9.235,3.717-9.907,4.01
								c-3.601,1.611-6.568,3.315-8.9,5.109c-3.247,2.515-5.652,4.969-7.214,7.362c-1.282,1.977-2.289,3.424-3.022,4.34
								c-0.525,0.647-1.544,1.501-3.058,2.563c-1.013,0.708-1.909,1.294-2.692,1.759c-0.696,0.427-1.214,0.628-1.556,0.604
								c1.562-0.94,2.826-1.72,3.79-2.343c1.489-0.941,2.63-1.917,3.424-2.93c0.403-0.5,1.519-2.143,3.352-4.926
								c1.342-2.039,2.582-3.535,3.717-4.486c1.464-1.148,2.503-1.99,3.113-2.527c0.818-0.697,1.868-1.477,3.15-2.344
								c1.232-0.94,2.985-1.917,5.255-2.929c1.245-0.562,2.936-1.3,5.073-2.217c3.43-1.611,5.646-2.637,6.647-3.077
								c1.306-2.258,2.667-5.444,4.083-9.558c2.039-5.896,3.229-9.29,3.57-10.181c-3.48,2.453-7.679,5.035-12.598,7.745
								c-1.513,0.83-5.944,3.15-13.294,6.959c-2.54,1.331-4.712,2.569-6.519,3.717c-2.27,1.464-4.217,2.972-5.84,4.522
								c-1.612,1.562-3.974,4.511-7.086,8.845c-2.344,3.247-3.803,5.354-4.376,6.317c-4.333,7.35-8.166,13.387-11.5,18.11
								c-0.659,0.928-1.52,2.008-2.583,3.242c-1.403,1.611-2.308,2.692-2.71,3.242c-2.979,3.943-5.628,7.208-7.948,9.796
								c-3.064,3.394-6.097,6.257-9.101,8.589c-2.282,1.782-3.809,3.077-4.578,3.882c-1.453,1.464-2.625,3.21-3.516,5.238
								c-0.55,1.294-0.971,2.526-1.264,3.699c-0.293,1.306-0.458,2.728-0.494,4.266c-0.512-6.361,2.124-11.762,7.911-16.206
								c5.005-3.784,9.973-8.593,14.905-14.43c3.955-4.699,8.166-10.43,12.634-17.193c0.171-0.037,2.576-4.309,7.214-12.818
								c0.061-0.171,1.379-2.137,3.955-5.895c2.368-3.309,4.596-6.055,6.684-8.241c2.759-2.857,5.683-5.206,8.77-7.049
								c1.709-0.977,3.619-2.051,5.731-3.223l5.75-3.259c1.807-1.062,4.602-2.637,8.386-4.724c3.26-1.843,5.958-3.503,8.093-4.981
								c2.429-1.684,3.955-2.954,4.578-3.809c0.244-0.366,0.422-0.836,0.531-1.41c0.122-0.744,0.238-1.264,0.348-1.556
								c0.732-2.051,1.758-4.321,3.077-6.812c0.769-1.44,1.996-3.583,3.68-6.427c1.623-2.735,3.687-5.676,6.189-8.826
								c3.186-3.968,6.91-7.654,11.17-11.06c4.138-3.32,8.655-6.257,13.55-8.808c6.983-14.429,17.976-23.004,32.978-25.727
								c1.123-0.208,2.002-0.416,2.637-0.622c3.296-0.488,5.896-1.513,7.801-3.077c0.11,0.134,0.488,0.477,1.135,1.026
								c0.537,0.451,0.848,0.793,0.934,1.026c-2.467,1.391-4.023,2.216-4.67,2.472c-1.891,0.83-3.82,1.288-5.786,1.374
								c-0.989,0.232-1.868,0.378-2.637,0.44c-3.93,0.28-7.63,1.324-11.096,3.132c-2.551,1.318-5.432,3.363-8.642,6.134
								c-1.855,1.6-3.558,3.364-5.109,5.293c-1.759,2.172-2.985,4.199-3.68,6.079l-0.257,0.403
								c-0.085,0.196-0.061,0.287,0.073,0.275c1.759-1.001,4.138-1.99,7.142-2.967l7.58-2.472c1.904-0.708,4.315-1.666,7.234-2.875
								l6.757-2.857c0.708-0.341,2.319-1.417,4.834-3.223c0.378-0.293,1.062-0.916,2.051-1.868l2.362-2.418
								c1.746-1.746,2.771-2.82,3.077-3.223C186.221,43.375,186.496,42.187,186.062,41.16z"/>
						</g>
						<path fill="#454343" d="M188.405,97.402l1.813-0.403c1.379-0.306,2.49-0.532,3.332-0.678c0.464-0.073,1.343-0.202,2.638-0.384
							c0.94-0.134,1.587-0.244,1.94-0.33c0.306,0.17,0.776,0.494,1.41,0.971c0.622,0.414,1.166,0.683,1.63,0.806
							c-1.819-0.256-3.992-0.134-6.519,0.366c-2.771,0.647-4.773,1.062-6.005,1.245C188.643,98.75,188.564,98.22,188.405,97.402z"/>
						<path fill="none" stroke="#454343" stroke-width="1.5276" stroke-miterlimit="10" d="M221.75,69.13l-2.052-0.293
							c-0.427-0.061-1.281-0.018-2.563,0.128c-1.209,0.134-1.88,0.238-2.014,0.312"/>
						<path fill="none" stroke="#454343" stroke-width="1.5276" stroke-miterlimit="10" d="M182.307,50.91
							c-0.439,2.369,0.006,4.493,1.336,6.373c0.477,0.647,1.093,1.409,1.849,2.288c0.732,0.916,1.27,1.776,1.611,2.583
							c0.354,0.806,0.579,1.709,0.677,2.71l5.439,0.293c0.488-0.049,1.348-0.073,2.582-0.073c0.854-0.061,1.763-0.488,2.728-1.281
							c0.171-0.134,0.69-0.495,1.556-1.081c0.586-0.391,0.996-0.757,1.227-1.099c0.134-0.305,0.732-1.166,1.794-2.582
							c0.842-1.148,1.368-2.204,1.575-3.168l-0.934-1.684c-0.488-0.806-0.763-1.409-0.825-1.813
							c-0.109-0.318-0.226-0.764-0.348-1.337c-0.121-0.561-0.201-1.007-0.237-1.336c-0.037-0.721-0.031-1.337,0.018-1.849
							c0.184-1.636,0.715-3.15,1.593-4.541c0.488-0.782,1.044-1.464,1.667-2.051c1.012-0.953,2.082-1.617,3.204-1.996
							c-0.147-0.269-0.457-0.654-0.934-1.154c-0.391-0.416-0.677-0.812-0.862-1.19c-0.561-0.012-1.312,0.092-2.252,0.312
							c-1.026,0.244-1.739,0.385-2.143,0.422c-0.648,0.049-1.349,0-2.106-0.147c-0.647-0.243-1.209-0.408-1.684-0.494
							c-0.928-0.427-2.117-1.189-3.57-2.289c-0.403-0.085-0.868-0.098-1.391-0.037c-0.513,0.085-0.928,0.244-1.245,0.476
							c-0.672,0.416-1.154,1.252-1.447,2.508c-0.171,0.622-0.434,1.691-0.786,3.204c-0.171,0.451-0.367,0.842-0.587,1.172
							l-1.446,2.088c-0.196,0.293-0.799,1.001-1.813,2.123c-1.026,1.123-1.588,1.739-1.684,1.849"/>
						<path fill="none" stroke="#454343" stroke-width="1.5276" stroke-miterlimit="10" d="M163.21,132.394
							c2.137-0.22,4.01-1.043,5.622-2.472c0.819-0.733,2.033-2.161,3.644-4.285c1.221-1.538,1.953-3.827,2.198-6.867
							c0.086-0.977,0.109-1.953,0.072-2.93c-0.037-0.793-0.072-1.203-0.109-1.227c0.22-0.098,0.634-0.061,1.245,0.11
							c0.683,0.22,1.111,0.33,1.282,0.33c1.903,0.024,4.015-0.757,6.335-2.344c1.807-1.27,3.156-3.277,4.047-6.025
							c0.769-2.319,1.136-4.882,1.099-7.691c0-0.244-0.079-0.775-0.238-1.593c-0.061-0.342-0.049-0.683,0.037-1.026
							c0.122-0.524,0.189-0.879,0.202-1.061c0.147-1.77,0.568-3.242,1.263-4.413"/>
						<path fill="none" stroke="#454343" stroke-width="1.5276" stroke-miterlimit="10" d="M199.227,93.832
							c-0.647-0.061-1.257-0.244-1.831-0.55c-0.782-0.427-1.374-1.038-1.776-1.831"/>
						<path fill="#454343" d="M202.926,52.375c-0.537,0.769-1.556,2.375-3.058,4.816c-1.464,2.38-2.197,3.607-2.197,3.68
							c-0.414,0.671-0.825,1.532-1.227,2.582c-0.049,0.037-0.183,0.306-0.403,0.807c-0.207,0.512-0.286,0.787-0.237,0.824
							l-0.897,2.234c-0.622,1.599-0.989,2.637-1.099,3.113c-0.122,0.341-0.22,0.83-0.293,1.464l-0.421,1.739
							c-0.122,0.44-0.708,2.539-1.759,6.3c-0.561,2.062-1.067,3.607-1.519,4.633c-0.134,0.341-0.861,1.672-2.179,3.992
							c-2.612,4.382-3.992,6.683-4.138,6.903l-0.971,1.428c-0.44,0.635-0.757,1.142-0.952,1.52c0.793-0.269,1.904-0.726,3.332-1.374
							c0.427-0.183,1.16-0.524,2.197-1.026c0.782-0.379,1.294-0.61,1.539-0.696c0.622-0.269,1.843-0.848,3.662-1.739
							c0.416-0.208,1.068-0.506,1.959-0.897c0.697-0.318,1.21-0.567,1.539-0.751c3.21-1.672,6.06-3.284,8.55-4.834
							c1.832-1.123,3.955-2.503,6.373-4.138c3.503-2.735,6.568-5.573,9.192-8.515l1.244-1.484c0.99-1.209,2.18-2.484,3.571-3.827
							c1.197-1.16,2.356-2.192,3.479-3.095c0.086-0.073,0.237-0.263,0.457-0.567c0.208-0.293,0.458-0.544,0.751-0.751
							c0.196-0.122,0.477-0.183,0.842-0.183c0.44-0.037,0.842,0.024,1.209,0.183c0.049,0.159,0.196,0.476,0.44,0.952
							c0.184,0.414,0.281,0.781,0.293,1.099c0.037,1.087-0.306,1.629-1.026,1.629c-0.928,0-1.71,0.244-2.344,0.733
							c-0.354,0.256-1.166,1.013-2.436,2.27c-1.294,1.282-2.008,2.044-2.143,2.289l-0.237,0.256
							c-1.342,1.527-2.967,3.15-4.871,4.871c-2.331,2.137-4.992,4.298-7.983,6.482c-0.44,0.414-1.593,1.227-3.46,2.435
							c-0.697,0.452-2.772,1.556-6.225,3.314c-3.161,1.612-4.914,2.491-5.256,2.637c-4.773,2.283-7.378,3.522-7.819,3.717
							c-2.649,1.134-4.633,2.057-5.95,2.765c-0.11,0.073-0.446,0.244-1.007,0.512c-0.573,0.28-0.983,0.469-1.226,0.568
							c-0.196,0.061-0.422,0.202-0.678,0.421c-0.257,0.232-0.414,0.373-0.477,0.422c-0.451,0.416-1.006,1.136-1.666,2.161
							l-1.703,2.71c-0.562,0.83-1.099,1.698-1.612,2.601l-4.742,7.893c-1.257,2.051-2.18,3.754-2.765,5.108
							c-0.525,1.172-1.033,2.679-1.52,4.523c-0.109,0.391-0.476,1.428-1.099,3.113c-0.536,1.464-0.786,2.197-0.75,2.197
							c-0.354,0.562-0.836,1.545-1.447,2.949c-0.586,1.331-0.995,2.167-1.226,2.508c3.064-0.769,6.299-1.946,9.704-3.534
							c3.687-1.648,7.08-3.407,10.181-5.274c2.795-1.794,5.963-4.243,9.504-7.343c4.81-4.175,8.74-8.24,11.792-12.195
							c0.586-0.708,1.264-1.739,2.033-3.095c0.744-1.294,1.282-2.362,1.611-3.204c0.44-1.074,0.977-2.137,1.611-3.187
							c0.379-0.683,0.593-1.123,0.642-1.318c0.122-0.22,0.543-0.836,1.263-1.849c0.28-0.403,0.812-1.056,1.593-1.959
							c0.903-1.038,1.574-1.733,2.014-2.088c0.428-0.354,0.862-0.635,1.3-0.842c0.658-0.33,1.154-0.391,1.483-0.183
							c0.22,0.122,0.361,0.213,0.421,0.275c0.099,0.122,0.165,0.323,0.202,0.604c0.049,0.452-0.237,0.903-0.861,1.355
							c-0.037,0.024-0.238,0.098-0.605,0.22c-0.342,0.122-0.648,0.287-0.916,0.494c-0.318,0.244-0.769,0.818-1.354,1.721
							c-0.525,0.806-1.05,1.703-1.575,2.692c-0.391,0.757-0.891,1.898-1.501,3.424c-0.306,0.769-0.587,1.495-0.842,2.179
							c-0.599,1.27-1.831,3.229-3.699,5.877c-1.392,1.978-3.162,4.029-5.311,6.153c-1.123,1.087-3.077,2.869-5.86,5.347
							c-8.764,7.764-20.148,13.886-34.15,18.367c-1.136,2.539-2.759,5.273-4.871,8.203c-1.049,1.453-2.911,3.821-5.584,7.105
							c2.588-0.818,5.883-2.008,9.888-3.57c4.443-1.759,7.624-2.973,9.54-3.644c2.612-1.355,5.163-2.527,7.654-3.515l7.123-3.498
							c3.284-1.636,5.518-2.728,6.702-3.278c0.611-0.427,2.594-1.672,5.951-3.735c1.16-0.72,2.618-1.782,4.376-3.186
							c1.319-1.039,2.283-1.844,2.894-2.418l1.94-1.703c0.403-0.33,1.068-0.934,1.996-1.813c0.5-0.44,1.477-1.435,2.93-2.985
							c1.636-1.733,2.734-2.991,3.296-3.772c0.586-0.806,1.453-2.063,2.601-3.772c1.147-1.684,1.94-2.886,2.38-3.607
							c0.33-0.537,1.007-1.807,2.033-3.809c1.098-2.161,1.66-3.375,1.684-3.645c0.28-0.598,0.946-2.63,1.996-6.097
							c1.148-3.809,1.861-6.091,2.143-6.849c0.28-0.634,0.598-1.16,0.952-1.574c0.721,0.306,1.129,0.537,1.227,0.696
							c0.414,0.525,0.573,1.599,0.476,3.223c-0.072,1.171-0.372,2.698-0.897,4.578l-1.464,5.292
							c-0.561,1.416-0.854,2.154-0.878,2.215c-3.529,7.838-8.583,15.143-15.162,21.919c-2.576,2.661-4.982,4.962-7.215,6.903
							c-2.795,2.381-5.542,4.346-8.24,5.896c-4.358,2.514-9.815,5.066-16.37,7.654c-2.198,0.854-8.027,3.015-17.488,6.482
							c-0.562,0.208-1.385,0.469-2.473,0.786l-2.508,0.678l-4.468,1.519c-1.759,0.622-3.37,1.056-4.834,1.299
							c-2.722,2.722-5.695,5.518-8.918,8.386c-2.27,2.014-5.383,4.663-9.339,7.946c-3.393,2.845-6.873,5.348-10.437,7.509
							l-5.896,3.827c-0.501,0.354-1.374,0.891-2.618,1.611c-1.368,0.793-2.441,1.361-3.223,1.703
							c-1.087,0.44-2.514,1.044-4.285,1.813c-2.221,1.013-5.548,2.282-9.979,3.809c-4.553,1.587-7.947,2.868-10.181,3.844
							l-1.923,0.77c-0.732,0.292-1.27,0.573-1.611,0.841c-0.587,0.477-1.203,1.349-1.849,2.618c-0.72,1.342-1.33,2.24-1.831,2.693
							c0.098-0.257,0.341-0.744,0.732-1.464c0.342-0.562,0.531-1.099,0.568-1.611c0.647-0.99,1.416-1.813,2.307-2.473
							c0.807-0.549,1.91-1.105,3.314-1.667l9.192-3.57c3.772-1.477,6.83-2.74,9.174-3.79c2.844-1.148,5.982-2.729,9.412-4.743
							c3.003-1.854,4.682-2.874,5.036-3.057c3.613-2.271,7.563-5.097,11.847-8.478c3.442-2.772,7.184-5.97,11.225-9.595l2.673-2.765
							c1.001-1.013,1.831-1.959,2.49-2.838c-8.069,1.99-14.002,3.552-17.798,4.688c0.33-0.488,0.671-1.318,1.026-2.49
							c1.904-0.403,4.669-1.105,8.295-2.105c4.236-1.184,6.818-1.898,7.746-2.143l1.996-0.422c0.818-0.17,1.379-0.335,1.684-0.494
							c0.451-0.22,1.026-0.739,1.72-1.556c0.354-0.366,0.91-1.019,1.667-1.959c4.064-4.603,6.952-8.728,8.661-12.378
							c-3.968,1.039-6.41,1.636-7.324,1.795c0.122-0.414,0.232-0.868,0.329-1.355c0.098-0.598,0.183-1.086,0.257-1.464
							c1.759-0.269,3.216-0.537,4.376-0.806c1.27-0.304,2.412-0.665,3.424-1.081c0.257-0.414,0.519-0.922,0.787-1.519
							c0.293-0.697,0.525-1.197,0.697-1.502c0.318-0.562,0.836-1.716,1.556-3.46c0.696-1.697,1.16-2.918,1.391-3.662
							c0.611-1.929,1.001-3.124,1.171-3.589c0.928-2.576,2.491-5.683,4.689-9.32c3.589-5.896,5.67-9.278,6.245-10.144l0.677-1.117
							c-0.293,0.086-0.531,0.159-0.714,0.22c-0.33,0.11-0.629,0.238-0.898,0.384c-3.014,1.588-7.037,3.656-12.067,6.207
							c-4.407,2.234-7.916,3.992-10.529,5.273c-3.601,1.782-6.329,3.358-8.185,4.724c-5.285,3.358-8.411,5.377-9.375,6.061
							c-1.672,1.209-4.285,3.352-7.838,6.427c-0.61,0.525-1.636,1.355-3.077,2.49c0-0.023-0.579,0.422-1.739,1.336
							c-1.233,0.977-2.222,1.782-2.967,2.418c-1.538,1.379-2.863,2.588-3.974,3.625c-0.671,0.463-1.189,0.879-1.556,1.245
							c-0.744,0.611-1.831,1.673-3.259,3.187c-1.368,1.452-2.479,2.71-3.332,3.772c-0.134,0.158-1.099,1.44-2.893,3.844
							c-0.989,1.453-2.466,3.235-4.431,5.347c-2.417,2.564-3.98,4.273-4.688,5.128c-0.281,0.318-0.732,0.934-1.355,1.848
							c-0.598,0.843-1.087,1.447-1.464,1.813c-3.332,3.455-8.16,7.074-14.485,10.859l-7.946,4.633
							c-3.296,1.953-5.92,3.607-7.873,4.962c-1.66,1.698-3.332,3.809-5.018,6.336l-4.394,6.922
							c1.806-4.187,4.847-8.704,9.119-13.551c0.708-0.306,1.776-1.05,3.204-2.234c1.245-1.049,2.289-1.683,3.132-1.903
							c1.184-0.806,4.297-2.723,9.339-5.75c3.931-2.343,7.049-4.547,9.357-6.609c2.123-1.892,4.333-4.188,6.629-6.885
							c1.758-2.027,3.809-4.627,6.153-7.801c0.708-0.806,1.148-1.385,1.318-1.739c0.611-0.977,1.464-2.179,2.564-3.607
							c1.05-1.368,2.062-2.607,3.039-3.717c1.831-2.088,3.894-4.321,6.19-6.701c0.269-0.244,0.799-0.776,1.593-1.593
							c0.549-0.562,1.099-1.062,1.648-1.502c1.147-1.086,2.814-2.522,4.999-4.304c1.917-1.562,2.997-2.484,3.242-2.765
							c0.39-0.257,0.781-0.549,1.171-0.879l8.918-6.464c3.234-2.368,6.097-4.333,8.588-5.896c3.077-1.807,7.086-4.004,12.03-6.592
							c5.688-2.953,9.73-5.072,12.121-6.354l5.896-3.278c2.259-1.184,4.358-2.105,6.3-2.765c0.098-0.037,0.598-0.622,1.501-1.759
							c0.196-0.268,1.563-2.331,4.102-6.189c1.074-1.527,2.222-3.687,3.442-6.482l2.582-6.336c0.599-3.1,1.039-5.292,1.319-6.574
							c0.586-2.539,1.282-4.999,2.088-7.38c1.026-2.758,2.393-5.517,4.101-8.276c1.221-1.965,2.893-4.358,5.018-7.178
							c2.148-2.479,3.705-4.188,4.669-5.128c1.001-0.977,2.289-2.161,3.864-3.552c0.72-0.464,1.63-1.184,2.729-2.161
							c1.11-0.757,2.019-0.769,2.728-0.037c-0.354,0.488-0.94,1.007-1.759,1.556c-1.22,0.807-2.062,1.409-2.527,1.813
							c-2.185,1.941-3.79,3.437-4.816,4.487C205.13,48.829,203.694,50.727,202.926,52.375z"/>
						<path fill="none" stroke="#454343" stroke-width="1.5276" stroke-miterlimit="10" d="M225.888,90.902
							c-1.831-0.414-3.674-0.561-5.531-0.439c-2.026,0.147-3.722,0.586-5.09,1.318"/>
						<path fill="none" stroke="#454343" stroke-width="1.5276" stroke-miterlimit="10" d="M225.888,90.902
							c0.403-0.659,0.812-1.227,1.226-1.703c0.233-0.256,0.501-0.537,0.807-0.842c0.952-0.697,2.337-1.3,4.156-1.813
							c1.282-0.367,2.85-0.781,4.706-1.245c-1.306-1.172-2.185-2.02-2.637-2.545c-0.941-1.087-1.386-2.253-1.336-3.498
							c-0.428-0.757-0.622-2.075-0.587-3.955c0.148-2.062,0.19-3.541,0.128-4.431c-0.708,0.586-1.434,1.117-2.179,1.593
							c-0.257,0.147-0.781,0.341-1.574,0.586c-0.708,0.22-1.368,0.403-1.978,0.549c-1.061,0.281-1.848,0.312-2.362,0.092
							c-0.879-0.122-1.91-0.367-3.095-0.732c-0.792-0.269-1.483-0.537-2.068-0.807c-0.696-0.318-1.568-0.891-2.618-1.721
							l-1.354-1.154c-2.295,0.818-3.694,2.54-4.194,5.164c-0.318,1.721-0.237,4.413,0.238,8.075v2.783
							c0,0.451-0.037,0.903-0.11,1.355c-0.22,1.416-0.799,2.679-1.739,3.79c-0.648,0.769-1.654,1.605-3.022,2.508
							c-0.269,0.183-0.611,0.33-1.026,0.44c-0.868,0.171-1.929,0.318-3.187,0.44c-0.768,0.069-1.393,0.104-1.877,0.101
							c0.27,0.037,0.59,0.082,0.961,0.137c1.354,0.208,2.526,0.446,3.515,0.714c2.16,0.562,3.955,0.752,5.383,0.568 M200.207,93.931
							c-0.447-0.002-0.775-0.036-0.98-0.101"/>
						<path fill="none" stroke="#454343" stroke-width="1.5276" stroke-miterlimit="10" d="M246.634,83.98
							c-0.342,0.635-1.027,1.203-2.051,1.703c-0.83,0.403-1.973,0.593-3.424,0.568c-1.624-0.024-3.083-0.341-4.377-0.952"/>
						<path fill="none" stroke="#454343" stroke-width="1.5276" stroke-miterlimit="10" d="M247.66,66.181
							c-0.037,0.159-0.538,0.665-1.502,1.519c-1.026,0.916-1.862,1.569-2.509,1.959c-1.098,0.672-2.117,1.074-3.058,1.209
							c-1.769,0.293-3.771-0.049-6.004-1.026c-1.27-0.306-2.363-0.648-3.278-1.026c-1.746-0.732-2.778-1.66-3.095-2.783
							c-0.037-1.074-0.397-2.173-1.081-3.296c-1.074-1.684-1.684-2.692-1.831-3.022c-0.793-1.794-1.507-4.29-2.143-7.489
							c-0.732-3.894-1.299-6.445-1.703-7.654c-1.843,0.39-3.632,0.275-5.366-0.348c-0.707-0.244-2.057-0.922-4.047-2.033
							c-0.39-0.22-0.781-0.61-1.171-1.171c-0.329-0.22-0.616-0.422-0.861-0.605c-0.452-0.341-0.848-0.726-1.191-1.153"/>
						<path fill="none" stroke="#454343" stroke-width="1.5276" stroke-miterlimit="10" d="M235.428,100.167
							c-1.209,0.11-2.624-0.159-4.248-0.806c-1.697-0.793-2.875-1.307-3.535-1.538"/>
						<path fill="none" stroke="#454343" stroke-width="1.5276" stroke-miterlimit="10" d="M183.04,29.267
							c0.061-0.464,0.323-0.995,0.787-1.593l1.574-2.051c0.183-0.22,0.531-0.531,1.044-0.934l1.189-1.026
							c0.964-0.697,1.892-1.19,2.783-1.484c0.659-0.208,1.422-0.342,2.288-0.403c1.588-0.098,3.125,0.098,4.614,0.586
							c0.33-0.232,1.081-1.001,2.253-2.308c0.867-0.976,1.739-1.538,2.618-1.684c1.683-0.306,3.485,0.524,5.402,2.49l2.253,2.289
							c0.868,0.793,1.716,1.294,2.545,1.501c0.148-0.049,0.373,0.061,0.677,0.33c2.71-0.537,5.676-0.604,8.9-0.202
							c0.573,0.22,1,0.366,1.282,0.44l-0.019,0.055c1.99,0.647,3.827,1.593,5.512,2.838c1.746,1.282,3.101,2.692,4.065,4.229
							l0.677,1.52c0.306,0.659,0.622,1.092,0.952,1.299c0.477,0.33,1.294,0.604,2.453,0.824c1.368,0.232,2.259,0.446,2.674,0.641
							c0.195,0.073,0.421,0.237,0.677,0.494c0.243,0.232,0.469,0.409,0.677,0.531l2.838,1.556c1,0.573,1.813,1.227,2.436,1.959
							c0.732,0.879,1.464,1.904,2.197,3.077c0.428,0.683,1.062,1.771,1.904,3.26l0.824,1.794c0.611,1.563,1.05,3.242,1.319,5.036
							c0.318,2.112,0.385,3.858,0.202,5.237c1.354,1.074,2.148,2.693,2.38,4.853c0.11,0.867,0.062,2.722-0.147,5.567
							c-0.073,0.977,0.073,1.77,0.44,2.38c1.111,1.807,1.727,2.832,1.848,3.077c0.672,1.245,1.082,2.418,1.227,3.516
							c0.049,0.183,0.073,0.72,0.073,1.611c0,0.33-0.086,1.081-0.257,2.253c-0.171,1.232-0.354,2.35-0.549,3.35
							c-0.342,1.782-0.782,3.064-1.319,3.845c-0.671,1.026-1.874,2.033-3.607,3.022c-0.842,0.513-2.338,1.27-4.486,2.271
							c-0.562,0.403-0.934,0.653-1.117,0.751c-0.366,0.269-1.227,0.721-2.582,1.355l-3.571,1.428
							c-0.744,0.293-1.312,0.586-1.703,0.879c-0.244,0.171-0.531,0.488-0.861,0.952c-0.342,0.488-0.593,0.812-0.751,0.971
							c-1.478,1.465-3.242,2.497-5.292,3.095c-2.015,0.586-4.371,0.781-7.068,0.586c-0.22-0.012-0.733-0.232-1.539-0.659
							c-0.867-0.452-1.538-0.726-2.014-0.825c-0.537-0.061-1.172-0.463-1.904-1.209c-0.733-0.818-1.368-1.294-1.904-1.428
							c-0.098-0.049-0.342-0.031-0.732,0.055c-0.403,0.073-0.648,0.104-0.733,0.092c-0.732-0.073-1.721-0.427-2.967-1.061
							c-1.257-0.659-2.233-1.044-2.93-1.154c-0.647-0.159-1.147-0.275-1.501-0.348c-0.635-0.147-1.124-0.177-1.464-0.092
							c-0.842,0.22-1.917,0.104-3.223-0.348c-1.819-0.61-2.893-0.934-3.222-0.971c-0.464-0.122-1.007-0.391-1.63-0.806
							c-0.634-0.477-1.105-0.8-1.41-0.971c-0.329-0.306-0.751-0.891-1.263-1.758c-0.086-0.134-0.44-0.775-1.062-1.923
							c-0.024-0.183-0.263-0.604-0.714-1.264c-0.488-0.671-0.769-1.227-0.842-1.666c-1.88-0.329-3.327,0.306-4.34,1.904"/>
						<path fill="none" stroke="#454343" stroke-width="1.5276" stroke-miterlimit="10" d="M135.944,146.969
							c-0.292-1.134-0.537-2.111-0.732-2.929c-0.147-0.684-0.147-1.422,0-2.216c0.488-2.881,1.831-5.384,4.028-7.508
							c1.563-1.502,3.803-2.967,6.721-4.394c-0.171-1.953-0.507-3.705-1.007-5.256c-0.55-1.746-1.348-2.967-2.398-3.662
							c-0.11,0.037-0.189,0.098-0.237,0.183c-0.062,0.098-0.099,0.269-0.11,0.512l-0.072,1.299c-0.208,1.599-0.83,3.242-1.868,4.926
							c-1.027,1.673-2.277,3.064-3.755,4.175c-3.564,2.612-7.037,2.912-10.419,0.897"/>
						<path fill="none" stroke="#454343" stroke-width="1.5276" stroke-miterlimit="10" d="M114.923,139.169
							c-0.342,0.086-1.154,0.183-2.436,0.292c-1.05,0.073-1.807,0.22-2.27,0.44l0.861,1.082c0.304,0.403,0.506,0.829,0.604,1.282"/>
						<path fill="none" stroke="#454343" stroke-width="1.5276" stroke-miterlimit="10" d="M232.352,70.869
							c-0.036-0.598-0.104-1.184-0.201-1.758"/>
					</g>
				</g>
			</g>
		</g>
	</g>
</g>
</svg>
