<?xml version="1.0" encoding="utf-8"?>
<!-- Generator: Adobe Illustrator 17.0.1, SVG Export Plug-In . SVG Version: 6.00 Build 0)  -->
<!DOCTYPE svg PUBLIC "-//W3C//DTD SVG 1.1//EN" "http://www.w3.org/Graphics/SVG/1.1/DTD/svg11.dtd">
<svg version="1.1" id="Selected_Items" xmlns="http://www.w3.org/2000/svg" xmlns:xlink="http://www.w3.org/1999/xlink" x="0px"
	 y="0px" width="364.004px" height="261.746px" viewBox="161.247 57.848 364.004 261.746"
	 enable-background="new 161.247 57.848 364.004 261.746" xml:space="preserve">
<path fill="#373535" d="M506.842,96.561c0.391,0.391,0.627,0.892,0.709,1.505c0.093,0.669-0.023,1.28-0.346,1.833
	c-0.346,0.531-0.819,0.841-1.418,0.934c-0.577,0.069-1.096-0.104-1.557-0.519c-0.484-0.415-0.785-0.969-0.899-1.66
	c-0.093-0.669,0.035-1.28,0.38-1.833c0.346-0.531,0.807-0.842,1.384-0.934c0.1-0.012,0.197-0.017,0.294-0.017
	c0.464,0.014,0.897,0.192,1.297,0.536C506.742,96.454,506.794,96.505,506.842,96.561z M506.237,96.924
	c-0.092-0.069-0.196-0.092-0.311-0.069c-0.116,0-0.208,0.057-0.277,0.173c-0.093,0.116-0.127,0.254-0.104,0.415
	c0.024,0.138,0.081,0.242,0.173,0.311c0.116,0.092,0.231,0.127,0.346,0.104c0.051,0,0.097-0.012,0.138-0.035
	c0.061,0.153,0.176,0.211,0.346,0.173c0.093,0,0.161-0.035,0.208-0.104c0.046-0.069,0.058-0.149,0.035-0.242
	c-0.024-0.208-0.138-0.3-0.346-0.277c0.005-0.033,0.005-0.068,0-0.104C506.398,97.133,506.329,97.017,506.237,96.924z
	 M524.258,114.358l0.242,1.937c-0.023,1.406-0.45,2.456-1.28,3.148c-0.6,0.484-0.969,0.784-1.108,0.899
	c-0.415,0.323-0.83,0.531-1.245,0.623c-0.507,0.069-1.026,0.012-1.557-0.173c-0.484-0.185-0.819-0.438-1.003-0.761
	c-0.115-0.3-0.242-0.576-0.38-0.83c-0.161-0.277-0.277-0.484-0.346-0.623c-0.185-0.323-0.208-0.657-0.069-1.003
	c0.115-0.323,0.334-0.565,0.656-0.726c0.369-0.161,0.715-0.415,1.038-0.761l0.208-0.173c0.161-0.092,0.438-0.311,0.829-0.657
	c0.277-0.346,0.623-0.692,1.038-1.038c0.208-0.023,0.715-0.173,1.522-0.45C523.566,113.655,524.051,113.851,524.258,114.358z
	 M521.214,117.505c-0.046,0.116-0.069,0.254-0.069,0.415c0,0.138-0.023,0.23-0.07,0.277c0.369-0.116,0.657-0.346,0.865-0.692
	c-0.138-0.23-0.288-0.334-0.449-0.311C521.375,117.218,521.283,117.321,521.214,117.505z"/>
<path fill="#FFFFFF" d="M506.237,96.924c0.093,0.092,0.161,0.208,0.208,0.346c0.005,0.036,0.005,0.071,0,0.104
	c0.208-0.023,0.322,0.069,0.346,0.277c0.023,0.092,0.012,0.173-0.035,0.242c-0.046,0.069-0.115,0.104-0.208,0.104
	c-0.17,0.038-0.285-0.02-0.346-0.173c-0.042,0.023-0.088,0.035-0.138,0.035c-0.115,0.023-0.23-0.012-0.346-0.104
	c-0.092-0.069-0.149-0.173-0.173-0.311c-0.023-0.161,0.012-0.3,0.104-0.415c0.069-0.116,0.161-0.173,0.277-0.173
	C506.04,96.832,506.145,96.855,506.237,96.924z M521.214,117.505c0.069-0.185,0.161-0.288,0.277-0.311
	c0.161-0.024,0.311,0.081,0.449,0.311c-0.208,0.346-0.496,0.576-0.865,0.692c0.046-0.046,0.07-0.138,0.07-0.277
	C521.145,117.759,521.169,117.621,521.214,117.505z"/>
<path fill="none" stroke="#373535" stroke-width="1.5" stroke-miterlimit="10" d="M504.369,63.338
	c-0.454,0.057-0.892,0.12-1.314,0.19c0.017,1.408-0.535,3.362-1.66,5.863c-1.245,2.721-2.559,4.542-3.943,5.465
	c-1.453,0.969-2.906,1.499-4.359,1.591c-1.175,0.046-2.121-0.185-2.836-0.692c-0.205,0.532-0.401,1.062-0.588,1.591 M503.055,63.528
	c-1.467,0.256-2.748,0.607-3.839,1.055c-2.952,1.199-5.096,3.09-6.434,5.673c-0.966,1.841-1.807,3.674-2.525,5.5 M495.41,84.853
	c0.276,0,0.531-0.081,0.761-0.242l0.589-0.45c0.369-0.438,0.98-1.038,1.833-1.799c2.744-2.836,4.416-5.811,5.016-8.924
	c0.208-1.476,0.992-3.182,2.352-5.119c1.314-2.121,2.11-3.966,2.387-5.534v-0.83l-0.138-0.623c-0.531-0.946-1.303-1.649-2.318-2.11
	c-0.945-0.438-2.04-0.645-3.286-0.623c-1.867,0.023-3.92,0.807-6.156,2.352c-0.83,0.531-2.168,1.637-4.012,3.321l-0.623,0.588
	c-2.26,2.398-3.885,4.093-4.877,5.085c-0.531,0.553-0.98,0.98-1.349,1.28l-0.277,0.277c-0.369,0.369-0.841,1.084-1.418,2.145
	c-0.576,0.991-0.877,1.591-0.899,1.799 M524.258,114.358c-0.346-0.922-1.108-1.994-2.284-3.217c-0.945-1.061-2.479-2.513-4.6-4.358
	c-2.491-2.145-4.255-3.724-5.292-4.739c-0.599-0.6-1.049-1.083-1.349-1.453l-0.346-0.415c0-3.113-0.138-5.281-0.415-6.503
	l-0.277-0.623c-1.937-2.029-3.067-3.378-3.389-4.047c-0.807-1.384-2.329-2.791-4.567-4.22c-1.429-0.946-2.479-1.752-3.148-2.421
	 M506.842,96.561c0.389,0.308,0.648,0.648,0.778,1.02c0.346,0.899,0.231,1.88-0.346,2.94c-0.668,1.245-1.683,1.833-3.043,1.764
	c-1.522-0.092-2.606-0.623-3.251-1.591c-0.507-0.784-0.634-1.591-0.38-2.421c-0.346,0.116-0.796,0.185-1.349,0.208
	c-0.737,0.069-1.429,0.023-2.075-0.138 M505.389,95.869c-0.172-0.018-0.339-0.012-0.502,0.017c-0.623,0.046-1.188,0.242-1.695,0.588
	c-0.138,0.092-0.542,0.461-1.211,1.107l-1.384,0.692 M504.611,118.163l0.346,0.311c1.96,2.075,3.943,3.678,5.949,4.808
	c0.762,0.346,1.672,0.704,2.733,1.072c1.799,0.6,3.056,0.83,3.77,0.692c0.346,0.046,0.68,0.208,1.003,0.484
	c0.253,0.208,0.519,0.311,0.795,0.311c0.116,0,0.288-0.035,0.519-0.104c0.461-0.23,0.715-0.576,0.762-1.038
	c0.185-1.292,0.311-2.537,0.38-3.736c0.415-0.092,0.83-0.3,1.245-0.623c0.138-0.116,0.507-0.415,1.108-0.899
	c0.829-0.692,1.256-1.741,1.28-3.148l-0.242-1.937 M479.672,105.987c0,1.545,0.565,3.367,1.695,5.465
	c0.553,1.107,0.853,1.764,0.899,1.972c0.092,0.415,0.323,1.626,0.692,3.632c0.484,1.822,1.141,2.779,1.972,2.871
	c1.707,0.208,6.181,0.669,13.421,1.384l4.704,2.906c1.983,1.245,3.99,1.868,6.019,1.868c0.599,0,1.245-0.057,1.937-0.173
	c1.199,0.531,2.271,0.796,3.217,0.796c0.507,0.023,1.002-0.081,1.487-0.311c0.484-0.208,0.888-0.507,1.211-0.899
	c0.161-0.116,0.266-0.219,0.311-0.311l0.035-0.035l0.138-0.104 M496.448,60.951c-0.185-0.046-0.323-0.057-0.416-0.035
	c-4.035,0.553-7.067,1.626-9.096,3.217c-0.369,0.3-1.072,1.095-2.11,2.387c-0.277,0.3-1.729,2.098-4.359,5.396
	c0.946-0.138,2.122-0.242,3.529-0.311l1.314-0.104 M480.467,71.916h-0.035c-2.606,0.277-4.658,1.476-6.156,3.597
	c-2.26,3.597-3.69,5.938-4.289,7.022c-0.969,1.775-1.487,3.148-1.557,4.116c0,0.254,0.012,0.45,0.035,0.588l-8.578,7.402
	c-2.952,2.675-5.592,5.442-7.92,8.302c-3.459-0.715-6.296-1.072-8.51-1.072l-0.415,0.069c-1.983,0.669-3.125,0.992-3.424,0.969
	c-0.507,0.069-1.487-0.369-2.94-1.314c-1.591-1.061-3.355-2.479-5.292-4.255c-4.105-4.22-6.596-6.618-7.472-7.195
	c-8.071-5.811-14.954-9.974-20.65-12.487c-5.604-2.398-13.709-4.22-24.317-5.465c-9.938-1.292-19.797-1.937-29.574-1.937
	c-32.791,0-59.863,8.843-81.217,26.531c-22.414,18.655-37.231,46.259-44.448,82.808c-0.092,0.254-0.138,0.519-0.138,0.796
	l0.035,0.484c-0.969,3.943-2.779,13.421-5.431,28.433c-1.96,11.899-4.185,20.316-6.676,25.251
	c-3.251,6.041-8.302,11.426-15.15,16.154c-5.442,3.644-10.216,5.453-14.32,5.431c-0.899,0-1.729-0.08-2.49-0.242
	c-3.482-0.785-6.157-1.176-8.025-1.176c-0.807,0-1.522,0.093-2.145,0.277c-0.161,0.023-0.842,0.138-2.041,0.346
	c-0.6,0.092-0.969,0.138-1.107,0.138c-0.392,0.046-0.738,0.138-1.038,0.277c-0.161,0.116-0.427,0.3-0.796,0.553
	c-0.576,0.461-1.245,1.072-2.006,1.833l-0.035,0.035l-0.242,0.346l-0.104,0.346v0.242l0.035,0.138v0.104l0.035,0.173l0.035,0.069
	l0.242,0.346l0.069,0.07l0.208,0.138l0.035,0.07v-0.035c8.371,4.381,17.11,6.572,26.219,6.572h0.796
	c5.258,0,10.216-1.199,14.874-3.597c9.754-5.304,16.465-11.415,20.131-18.333c3.897-7.495,6.872-14.355,8.924-20.581
	c2.56-7.68,4.785-16.177,6.676-25.493c2.122-9.824,4.912-18.471,8.371-25.942c4.266-9.27,9.754-18.056,16.465-26.358
	c5.235-6.387,11.392-11.887,18.471-16.499c0.738-0.484,2.214-1.337,4.427-2.56c0.825-0.461,1.563-0.865,2.214-1.211
	c1.2-0.653,2.099-1.114,2.698-1.384c1.015-0.3,2.34-0.807,3.978-1.522 M436.019,126.568c-5.626,5.512-9.351,10.1-11.172,13.767
	h-0.035c-0.093,0.116-0.427,0.623-1.003,1.522c-0.692,1.083-1.406,2.145-2.145,3.182c-1.061,1.591-1.775,2.779-2.145,3.563
	c-0.484,0.969-0.737,1.822-0.761,2.56c0,0.369,0.173,1.257,0.519,2.663c0.115,0.323,0.219,0.726,0.311,1.211
	c0.093,0.6,0.161,1.026,0.208,1.28c0.092,0.369,0.288,1.061,0.588,2.075c0.253,0.946,0.439,1.707,0.553,2.283
	c0.392,1.268,0.646,2.433,0.762,3.494v0.035c0.092,0.692,0.415,2.755,0.968,6.192c0.3,2.214,0.45,3.99,0.45,5.327
	c0,3.298-0.68,8.555-2.041,15.773c-0.093,0.415-0.403,0.83-0.934,1.245c-0.646,0.484-1.545,0.922-2.698,1.314
	c-0.132,0.033-0.242,0.057-0.329,0.069c0.477-0.032,1.302-0.066,2.473-0.104c1.499,0,2.445,0.023,2.837,0.069 M427.13,152.131
	l-0.899,0.761c-0.3,0.23-0.45,0.553-0.45,0.969v5.742 M434.636,155.624c2.122-0.645,3.206-0.969,3.251-0.969l0.138-0.069
	c0.83-0.415,1.914-0.623,3.251-0.623 M366.39,119.201c0.138,0.323,0.23,0.657,0.276,1.003c0,0.138,0.012,0.507,0.035,1.107
	c0,1.891-0.323,5.269-0.969,10.135c0,7.449-0.888,14.62-2.663,21.515c-0.208,0.715-0.45,1.568-0.727,2.56
	c1.592,0,4.001-0.265,7.229-0.796c2.168,0.023,5.489,0.818,9.962,2.387c4.566,1.66,8.336,2.49,11.311,2.49
	c2.56,0,7.979-0.427,16.257-1.28l3.459-0.484l2.56-0.311c3.159-0.484,5.384-0.888,6.676-1.211 M410.561,157.838v0.484
	c0,0.185-0.046,0.623-0.138,1.314c-1.153,7.379-1.879,13.744-2.178,19.094c-0.07,2.421-0.38,4.428-0.935,6.019
	c-0.461,1.361-0.922,2.053-1.384,2.075c-0.208,0.069-0.38,0.161-0.519,0.277c0.646-0.23,2.018-0.265,4.116-0.104 M405.407,187.1
	c-1.752,0.669-3.136,1.28-4.151,1.833c-1.107,0.623-1.96,1.28-2.559,1.972c-0.208,0.046-1.707,0.334-4.497,0.865
	c-1.545,0.461-2.687,0.957-3.424,1.487c-0.946,0.692-1.442,1.591-1.487,2.698c0,0.946,0.254,1.833,0.762,2.664
	c0.463,0.704,1.056,1.275,1.781,1.712c-0.565-0.91-0.547-1.977,0.052-3.2c0.715-1.361,1.948-2.087,3.702-2.179
	c3.09-0.116,5.246-0.576,6.468-1.384 M414.297,201.144c-2.537,0.346-4.542,0.704-6.019,1.072c-2.79,0.669-4.347,1.465-4.67,2.387
	c-0.369,1.13-0.542,1.983-0.519,2.56c0.023,0.623,0.271,1.153,0.744,1.591c0.063,0.033,0.126,0.068,0.19,0.104
	c0.946,0.461,1.66,0.772,2.145,0.934c0.669,0.231,1.28,0.358,1.833,0.38c1.269-0.023,2.779-0.369,4.532-1.038
	c1.591-0.622,3.574-1.614,5.949-2.975c2.467-1.429,5.892-3.482,10.273-6.156c0.254-0.161,0.427-0.369,0.519-0.623
	c0.946-2.468,2.248-7.529,3.909-15.185c0.737-3.99,1.222-6.641,1.453-7.956c0.369-2.052,0.577-3.424,0.623-4.116
	c2.376-6.226,3.667-9.581,3.874-10.066c0.484-1.014,1.153-1.833,2.006-2.456c2.168-1.476,3.459-2.41,3.874-2.802
	c1.43-1.268,5.961-3.839,13.594-7.714c14.182-9.155,22.957-18.874,26.323-29.159 M422.667,170.394l-1.66,5.534
	c-1.407,5.004-2.284,8.959-2.63,11.864c-0.276,2.975-1.498,5.292-3.667,6.953c0.553-0.254,1.165-0.438,1.833-0.553l0.276-0.035
	c0.03,0.015,0.128,0.003,0.295-0.035 M391.831,200.331c0.108,0.068,0.217,0.131,0.329,0.19c1.66,0.853,4.035,1.303,7.126,1.348
	c1.222-0.046,2.64-0.495,4.255-1.348c1.384-0.715,3.24-1.914,5.569-3.597c1.498-0.185,2.882-0.6,4.151-1.245
	c-0.992,0.877-1.534,1.926-1.626,3.148c-1.476,0.115-2.905,0.484-4.288,1.107h-0.104c-0.669,0.07-1.314,0.358-1.937,0.865h-0.035
	c-1.338,0.046-2.364,0.254-3.079,0.623c-0.461,0.208-0.853,0.542-1.176,1.003c-0.323,0.461-0.473,0.957-0.45,1.487
	c0,1.015,0.334,1.961,1.003,2.837c0.542,0.758,1.297,1.427,2.266,2.006 M290.222,126.188c0.922,4.751,2.226,9.651,3.909,14.701
	c0.969,2.813,2.295,6.468,3.978,10.965c1.314,3.943,1.972,8.267,1.972,12.971c-0.138,0.369-0.576,1.084-1.314,2.145
	c-0.853,1.245-1.891,2.617-3.113,4.116l-0.208,0.311l-3.77,8.647c-0.323,0.138-0.553,0.358-0.692,0.657
	c-0.715,1.591-1.88,4.727-3.494,9.408c-0.161,0.346-0.254,0.749-0.277,1.211c0,0.185,0.035,0.45,0.104,0.796
	c-1.292,2.283-4.093,5.742-8.405,10.377c-2.698,2.928-6.745,7.148-12.141,12.66c-4.012,4.312-7.229,6.953-9.651,7.921
	c-1.683,0.576-2.975,1.118-3.874,1.626c-1.13,0.623-1.994,1.338-2.594,2.145c-1.015,1.153-1.522,3.02-1.522,5.604
	c0.023,2.837-0.634,8.256-1.972,16.257c-1.245,7.379-2.744,15.174-4.497,23.383c-0.531,3.644-1.465,7.425-2.802,11.345
	c-0.668,1.96-1.28,3.552-1.833,4.773c-0.116,0.322-0.358,0.818-0.726,1.487c-0.208,0.369-0.519,0.946-0.934,1.729
	c-1.729,3.229-2.825,5.477-3.286,6.745c-0.784,2.537-1.211,5.05-1.28,7.541c0.069,0.438,0.127,1.28,0.173,2.524
	c0.284,0.985,1.004,1.867,2.162,2.646c0.778-0.708,1.579-1.533,2.404-2.473c0.415-0.461,1.211-1.406,2.387-2.836
	c1.637-1.983,2.975-4.163,4.012-6.538 M283.581,129.958c1.176,2.675,2.56,6.872,4.151,12.591c1.868,7.425,2.79,12.049,2.767,13.871
	c0,7.241-1.314,15.035-3.943,23.383c-2.79,8.67-6.445,15.519-10.965,20.546c-4.82,5.719-7.46,8.74-7.921,9.063
	c-2.306,2.444-4.935,4.451-7.887,6.019c-1.591,0.992-4.474,3.309-8.647,6.953l-0.104,0.104c-0.23,0.185-1.384,0.772-3.459,1.764
	c-1.983,0.899-3.413,2.145-4.289,3.735l-0.173,0.589l-0.104,5.742c0,0.208,0.035,0.403,0.104,0.588v0.243
	c0,2.836-0.288,6.318-0.865,10.446c-0.784,4.635-1.176,8.232-1.176,10.793c0,1.568,0.173,4.047,0.519,7.437
	c0,0.023,0.242,1.325,0.726,3.908c0.369,2.075,0.484,3.529,0.346,4.358 M317.894,178.315c0.277,0,0.531-0.092,0.761-0.277
	s0.38-0.415,0.45-0.692c0.484-1.707,1.049-3.217,1.695-4.531c0.623-1.222,1.28-2.167,1.972-2.836 M326.715,192.878
	c0.392,0,0.888-0.081,1.487-0.242c0.715-0.208,1.395-0.45,2.041-0.726c1.083-0.438,3.298-1.476,6.641-3.113 M374.449,129.024
	c0,2.421,0.531,5.719,1.592,9.893 M234.135,310.881c0.249,0.174,0.52,0.341,0.813,0.502c0.16,0.057,0.403,0.178,0.726,0.362
	c0.333,0.195,0.749,0.455,1.245,0.778l0.726,0.173c0.946,0,1.856-0.23,2.733-0.692c0.623-0.369,1.649-1.395,3.078-3.079
	c1.568-1.914,2.629-3.193,3.182-3.839l0.415-0.553c0.403-0.358,0.829-0.801,1.28-1.332l0.035-0.052
	c0.715-0.83,1.522-1.822,2.421-2.975c1.292-1.822,1.925-3.92,1.902-6.296c0-0.807-0.069-1.671-0.208-2.594
	c1.338-7.24,2.825-15.058,4.462-23.451c1.637-8.302,2.744-13.997,3.321-17.087h0.138c0.484,0,0.853-0.208,1.107-0.623
	c4.104-6.987,11.484-14.897,22.138-23.729c9.985-8.463,19.52-14.781,28.606-18.955c0.092,0.023,0.219,0.035,0.38,0.035
	c0.138,0,0.277-0.023,0.415-0.07c15.45-5.442,28.03-14.897,37.738-28.364c5.327-7.656,9.178-15.496,11.553-23.521 M268.258,223.351
	c-2.468,1.337-6.33,4.623-11.588,9.858 M231.8,305.71l-0.104,0.103c-0.645,0.946-1.729,2.272-3.251,3.978
	c-1.73,2.03-2.594,3.932-2.594,5.707c-0.069,0.762,0.161,1.465,0.692,2.111c0.576,0.692,1.28,1.061,2.11,1.107
	c0.089,0.024,0.192,0.042,0.311,0.052c-0.116-1.096,0.842-2.485,2.871-4.168c2.179-1.572,3.459-2.524,3.839-2.854 M228.964,318.768
	c0.216,0.035,0.481,0.052,0.796,0.052h0.104c0.392,0,0.749-0.035,1.072-0.104c4.612,0,8.267-1.499,10.965-4.497
	c1.061-1.199,2.652-3.817,4.773-7.852c0.3-0.646,0.553-1.176,0.761-1.592c0.349-0.741,0.649-1.265,0.899-1.573"/>
</svg>
