<?xml version="1.0" encoding="utf-8"?>
<!-- Generator: Adobe Illustrator 17.0.1, SVG Export Plug-In . SVG Version: 6.00 Build 0)  -->
<!DOCTYPE svg PUBLIC "-//W3C//DTD SVG 1.1//EN" "http://www.w3.org/Graphics/SVG/1.1/DTD/svg11.dtd">
<svg version="1.1" id="Layer_1" xmlns="http://www.w3.org/2000/svg" xmlns:xlink="http://www.w3.org/1999/xlink" x="0px" y="0px"
	 width="225.084px" height="243.565px" viewBox="22.256 10.756 225.084 243.565"
	 enable-background="new 22.256 10.756 225.084 243.565" xml:space="preserve">
<g>
	<g id="Layer_1_1_">
		<g>
			<g id="Layer_1_3_">
				<g>
					<g>
						<path fill="#FFFFFF" stroke="#292929" stroke-width="1.5485" stroke-miterlimit="10" d="M188.406,13.675
							c-1.059-1.315-2.535-2.025-4.427-2.133c-2.226-0.121-4.681,0.644-7.364,2.294c-2.844,1.757-5.795,5.547-8.853,11.368
							c-2.978,5.647-5.493,12.112-7.546,19.397c-2.173,7.645-3.414,14.768-3.722,21.368c-0.349,7.351,0.53,13.125,2.636,17.325
							c-2.146,1.032-6.895,2.602-14.245,4.708c-6.613,1.892-10.074,3.032-10.383,3.42c-1.288-1.435-3.824-2.012-7.606-1.73
							c-3.943,0.282-7.156,1.429-9.638,3.441c-1.718,1.382-5.339,3.749-10.865,7.103c-4.896,2.977-7.592,4.795-8.088,5.453
							c-5.433-2.079-11.013-3.635-16.74-4.668c-9.189-1.663-17.727-1.744-25.614-0.242c-3.475-4.802-6.868-9.242-10.182-13.32
							c-4.44-5.46-7.532-8.739-9.275-9.839c-1.824-1.14-4.071-1.67-6.741-1.59c-2.441,0.054-4.051,0.503-4.829,1.348
							c-1.396,1.489-2.019,3.199-1.871,5.131c0.081,1.194,0.45,3.387,1.107,6.58c0.067,0.51,0.845,3.387,2.334,8.632
							c1.288,4.507,1.831,7.578,1.63,9.216c-0.161,1.396-0.556,4.554-1.187,9.477c-0.429,4.48-0.282,7.391,0.443,8.732
							c-1.851,4.091-3.092,8.384-3.723,12.877c-0.939,6.815-0.355,13.495,1.751,20.041c0.55,1.717,0.932,4.198,1.147,7.445
							c0.242,3.903,0.476,6.467,0.704,7.686c0.51,2.764,1.463,4.95,2.857,6.559c1.717,1.957,4.252,3.292,7.605,4.004
							c0.148,0.2,0.899,1.65,2.254,4.346c1.047,2.091,2.348,3.722,3.903,4.889c4.802,3.595,13.75,4.452,26.842,2.575
							c-4.574,5.742-7.639,9.645-9.195,11.711c-3.73,4.937-5.748,8.096-6.057,9.478c-4.48,0.375-8.404,0.919-11.771,1.629
							c-5.272,1.1-8.819,2.529-10.644,4.286c-0.872,0.832-1.624,2.086-2.254,3.763c-0.698,1.865-0.992,3.655-0.885,5.372
							c0.309,4.641,3.326,7.177,9.055,7.605c-0.173,3.059,0.725,5.736,2.696,8.028c2.602,3.019,6.459,4.037,11.57,3.059
							c3.461,1.515,5.99,2.434,7.586,2.756c3.205,0.644,6.097,0.215,8.672-1.287c0.966,0,2.696,0.127,5.192,0.382
							c2.401,0.255,4.252,0.376,5.554,0.362c4.345-0.081,7.498-1.563,9.457-4.447c2.75-0.483,5.426-1.361,8.028-2.636
							c2.454-1.221,4.701-2.723,6.74-4.507c5.472,0.121,13.528-4.3,24.166-13.26c4.225-3.554,8.096-7.223,11.61-11.006
							c3.42-3.676,5.695-6.58,6.821-8.713c4.937,0.107,8.92-0.026,11.952-0.403c1.515-0.188,2.542-0.382,3.077-0.583
							c0,1.637-0.268,3.333-0.804,5.091c-0.282,0.953-0.67,2.045-1.168,3.28c-2.2,0.121-4.139,0.772-5.815,1.952
							c-1.515,1.087-2.495,2.348-2.938,3.783c-0.443,1.462-0.181,2.643,0.786,3.541c1.099,1.007,2.903,1.415,5.412,1.227
							c2.011,1.57,3.535,2.475,4.567,2.716c1.57,0.376,3.85,0.074,6.841-0.905c3.193,1.302,6.667,1.441,10.423,0.422
							c4.306-1.167,6.907-3.608,7.806-7.324c0.912-3.782,0.872-8.222-0.121-13.32c-0.898-4.574-2.173-8.094-3.823-10.563
							c4.574-2.709,8.806-5.694,12.697-8.953c5.271-4.441,8.51-8.351,9.718-11.73c0.577,1.113,1.214,3.4,1.912,6.861
							c1.207,5.996,1.924,9.47,2.153,10.422c2.306,9.806,5.633,16.928,9.98,21.368c-0.953,0.899-1.945,2.005-2.978,3.321
							c-0.564,0.71-1.328,1.697-2.294,2.958c-1.583,1.917-3.193,2.782-4.829,2.595c-2.04-0.228-4.065,0.422-6.077,1.952
							c-1.864,1.436-3.119,3.132-3.763,5.091c-0.684,2.066-0.369,3.662,0.946,4.789c1.542,1.328,4.233,1.703,8.068,1.127
							c0.953,1.918,3.112,3.266,6.479,4.044c3.488,0.819,6.118,0.404,7.888-1.247c2.146,2.146,5.165,3.253,9.055,3.32
							c3.97,0.081,6.612-1.026,7.927-3.32c2.106-3.608,3.655-6.948,4.649-10.021c1.65-5.07,2.152-10.02,1.509-14.849
							c-0.738-5.594-1.382-14.407-1.931-26.439c-0.55-12.112-0.644-19.632-0.282-22.556c0.845-6.733,1.133-13.696,0.865-20.885
							c-0.469-12.367-2.643-22.649-6.518-30.845c-3.005-6.318-5.426-10.953-7.263-13.903c-3.019-4.856-6.406-8.834-10.162-11.932
							c-9.296-7.66-23.106-11.603-41.429-11.831c-1.287-2.321-2.172-6.291-2.655-11.912c-0.483-5.539-0.47-11.348,0.04-17.425
							c0.549-6.573,1.596-12.086,3.138-16.539c1.744-5.084,3.951-8.176,6.62-9.276c1.542-0.777,2.461-1.945,2.756-3.501
							C189.741,16.251,189.385,14.895,188.406,13.675z"/>
						<path fill="none" stroke="#292929" stroke-width="1.5485" stroke-miterlimit="10" d="M159.129,83.293
							c2.106-0.845,5.306-2.354,9.599-4.527c3.93-1.718,7.545-2.509,10.845-2.374"/>
						<path fill="none" stroke="#292929" stroke-width="1.5485" stroke-miterlimit="10" d="M134.502,91.422
							c1.905,1.409,3.226,4.843,3.964,10.302c0.724,5.218,0.637,9.827-0.262,13.824c-1.032,4.574-2.516,9.296-4.446,14.166
							c-2.307,5.835-4.521,9.812-6.641,11.932c0.215,2.695-0.054,6.023-0.804,9.979c-0.899,4.668-2.314,9.101-4.246,13.301
							c-5.164,11.228-12.756,18.243-22.777,21.047"/>
						<path fill="none" stroke="#292929" stroke-width="1.5485" stroke-miterlimit="10" d="M37.719,183.758
							c0.027,0,0.859,0.12,2.495,0.362c1.14,0.16,2.079,0.148,2.817-0.04c2.227-0.604,3.581-3.032,4.064-7.284
							c-0.228,4.252,1.456,7.183,5.05,8.793c2.75,1.234,7.029,1.797,12.838,1.69c4.373-0.066,7.653-0.658,9.839-1.77
							c1.314-0.671,2.628-1.885,3.943-3.642"/>
						<path fill="none" stroke="#292929" stroke-width="1.5485" stroke-miterlimit="10" d="M135.728,102.751
							c0.349,5.567-0.228,11.02-1.73,16.358c-2.495,8.853-7.224,15.493-14.185,19.92c-0.081-0.684-0.209-3.077-0.382-7.183
							c-0.121-2.991-0.456-5.399-1.007-7.224c-1.678-5.433-6.251-9.335-13.723-11.71c0.804-4.213,4.588-8.518,11.348-12.919
							c2.562-1.676,5.144-3.078,7.747-4.205c2.428-1.059,4.164-1.59,5.211-1.59c2.106,0,3.669,0.589,4.688,1.77
							C134.863,97.298,135.541,99.559,135.728,102.751z"/>
						<path fill="none" stroke="#292929" stroke-width="1.5485" stroke-miterlimit="10" d="M26.23,82.388
							c0.443-1.329,1.63-1.992,3.562-1.992c2.093-0.013,4.024,0.865,5.794,2.636c2.079,2.079,4.735,5.869,7.967,11.368
							c3.394,5.782,4.896,9.33,4.507,10.644c-0.282,0.952-2.804,3.125-7.566,6.519c-4.923,3.514-7.653,5.775-8.189,6.78
							c-0.792,1.502-1.341,1.536-1.651,0.101c-0.309-1.396-0.248-3.293,0.182-5.694c0.443-2.522,0.53-5.5,0.261-8.934
							c-0.309-3.836-0.999-6.989-2.072-9.457c-1.703-3.891-2.623-6.049-2.756-6.479C25.667,85.949,25.653,84.118,26.23,82.388z"/>
						<path fill="none" stroke="#292929" stroke-width="1.5485" stroke-miterlimit="10" d="M39.952,168.245
							c-0.455,0.255-0.583,0.644-0.382,1.168c0.201,0.537,0.61,0.925,1.227,1.167c0.416,0.175,1.254,1.08,2.516,2.717
							c1.328,1.73,2.254,2.756,2.776,3.078c0.738,0.455,1.422,0.597,2.052,0.422c0.47-0.134,1.059-0.523,1.77-1.168
							c0.966-0.925,1.717-1.623,2.254-2.093c0.979-0.844,1.703-1.295,2.173-1.348c0.644-0.066,1.295-0.369,1.952-0.905
							c0.71-0.589,0.925-1.113,0.644-1.57c-0.295-0.455-1.362-0.898-3.199-1.328c-1.623-0.376-3.514-0.67-5.675-0.885
							c-2.119-0.201-3.715-0.262-4.789-0.182C41.985,167.412,40.878,167.721,39.952,168.245z"/>
						<path fill="#292929" d="M81.482,149.311c1.475,1.448,2.213,3.193,2.213,5.231c0,2.04-0.738,3.783-2.213,5.232
							c-1.475,1.448-3.259,2.172-5.353,2.172c-2.079,0-3.857-0.724-5.332-2.172c-1.475-1.448-2.213-3.193-2.213-5.232
							s0.738-3.782,2.213-5.231c1.475-1.436,3.253-2.153,5.332-2.153C78.223,147.157,80.007,147.875,81.482,149.311z"/>
						<path fill="#FFFFFF" d="M77.679,153.596c0,0.738-0.261,1.362-0.785,1.872c-0.523,0.522-1.16,0.785-1.912,0.785
							c-0.738,0-1.375-0.262-1.912-0.785c-0.523-0.51-0.785-1.135-0.785-1.872c0-0.724,0.261-1.341,0.785-1.851
							c0.537-0.523,1.174-0.785,1.912-0.785c0.737,0,1.375,0.261,1.912,0.785C77.418,152.256,77.679,152.872,77.679,153.596z"/>
						<path fill="none" stroke="#292929" stroke-width="1.5485" stroke-miterlimit="10" d="M62.689,160.196
							c0.828-1.905,1.539-3.478,2.133-4.718c0.592-1.229,1.067-2.132,1.428-2.707c1.516-2.428,3.28-4.004,5.292-4.728
							c2.804-0.993,5.547-1.193,8.23-0.604c3.287,0.724,5.412,2.568,6.379,5.533c-0.242,2.804-1.053,4.895-2.434,6.278
							c-1.396,1.381-3.581,2.254-6.559,2.615c-2.44,0.295-4.903-0.194-7.384-1.469c-2.487-1.289-4.137-2.93-4.949-4.919"/>
						<path fill="#292929" d="M40.596,142.51c1.301,0.604,2.16,1.684,2.576,3.239c0.403,1.542,0.235,3.112-0.503,4.709
							c-0.737,1.583-1.831,2.723-3.28,3.42c-1.448,0.683-2.831,0.717-4.146,0.101c-1.314-0.604-2.173-1.684-2.576-3.24
							c-0.403-1.542-0.235-3.112,0.503-4.708c0.738-1.583,1.83-2.723,3.28-3.42C37.901,141.926,39.282,141.893,40.596,142.51z"/>
						<path fill="#FFFFFF" d="M35.264,146.554c0.268-0.577,0.658-0.986,1.167-1.227c0.522-0.241,1.02-0.254,1.489-0.04
							c0.47,0.228,0.771,0.617,0.905,1.168c0.148,0.549,0.087,1.107-0.181,1.67c-0.255,0.577-0.644,0.985-1.167,1.226
							c-0.51,0.255-0.999,0.268-1.469,0.04c-0.47-0.228-0.777-0.617-0.925-1.168C34.936,147.674,34.996,147.118,35.264,146.554z"/>
						<path fill="none" stroke="#292929" stroke-width="1.5485" stroke-miterlimit="10" d="M43.151,144.542
							c-1.395-1.596-3.044-2.556-4.949-2.877c-2.321-0.416-4.326,0.389-6.016,2.415c-0.859,2.254-1.107,4.118-0.744,5.593
							c0.375,1.489,1.435,2.811,3.18,3.964c1.422,0.939,3.146,1.281,5.171,1.026c2.031-0.265,3.661-1.056,4.889-2.374
							c0.074-1.129,0.101-1.974,0.081-2.535C44.694,147.433,44.158,145.695,43.151,144.542z M44.319,156.574
							c0.168-1.717,0.289-3.145,0.362-4.285"/>
						<path fill="none" stroke="#292929" stroke-width="1.5485" stroke-miterlimit="10" d="M70.717,195.569
							c4.198-0.804,6.888-1.335,8.069-1.589c2.334-0.523,4.158-1.06,5.473-1.61"/>
						<path fill="none" stroke="#292929" stroke-width="1.5485" stroke-miterlimit="10" d="M78.061,194.14
							c0.832,0.363,2.247,1.026,4.246,1.992c1.985,0.913,3.836,1.651,5.553,2.214c5.098,1.703,10.631,2.501,16.6,2.394
							c-3.059,5.044-5.614,8.892-7.666,11.55c-3.407,4.413-6.513,7.217-9.316,8.41c-3.891,1.636-7.821,3.112-11.791,4.427
							c-4.95,1.636-8.819,2.622-11.611,2.958c-2.562,0.241-4.715,0.462-6.458,0.664c-3.22,0.376-5.963,0.872-8.23,1.489
							c-6.747,1.825-10.221,4.883-10.423,9.175"/>
						<path fill="none" stroke="#292929" stroke-width="1.5485" stroke-miterlimit="10" d="M37.075,228.166
							c-1.314,1.314-1.744,3.025-1.288,5.131c0.47,2.106,1.61,3.615,3.421,4.528"/>
						<path fill="none" stroke="#292929" stroke-width="1.5485" stroke-miterlimit="10" d="M51.683,238.186
							c-1.502,1.247-2.093,3.219-1.77,5.915c0.309,2.723,1.415,4.856,3.32,6.398"/>
						<path fill="none" stroke="#292929" stroke-width="1.5485" stroke-miterlimit="10" d="M66.613,240.801
							c-1.329,1.516-1.737,3.582-1.227,6.198c0.537,2.776,1.905,4.433,4.105,4.97"/>
						<path fill="none" stroke="#292929" stroke-width="1.5485" stroke-miterlimit="10" d="M147.057,208.144
							c1.423-2.025,3.213-5.701,5.372-11.026c2.119-5.514,3.448-8.9,3.984-10.161"/>
						<path fill="none" stroke="#292929" stroke-width="1.5485" stroke-miterlimit="10" d="M162.087,207.158
							c2.75-0.603,6.304-1.985,10.664-4.145c3.648-1.811,7.151-3.797,10.504-5.957"/>
						<path fill="none" stroke="#292929" stroke-width="1.5485" stroke-miterlimit="10" d="M157.561,226.032
							c-0.792-0.966-1.215-1.979-1.269-3.038c-0.04-1.019,0.276-1.871,0.946-2.556"/>
						<path fill="none" stroke="#292929" stroke-width="1.5485" stroke-miterlimit="10" d="M168.968,227.843
							c-0.913-0.872-1.448-1.985-1.609-3.34c-0.174-1.583,0.334-2.823,1.528-3.722"/>
						<path fill="none" stroke="#292929" stroke-width="1.5485" stroke-miterlimit="10" d="M208.788,236.858
							c-0.858-1.235-1.207-2.529-1.046-3.885c0.148-1.22,0.658-2.273,1.529-3.159"/>
						<path fill="none" stroke="#292929" stroke-width="1.5485" stroke-miterlimit="10" d="M223.155,239.655
							c-1.033-1.221-1.295-2.857-0.785-4.91c0.455-1.891,1.234-3.213,2.334-3.964"/>
						<path fill="none" stroke="#292929" stroke-width="1.5485" stroke-miterlimit="10" d="M205.669,176.374
							c1.931-3.837,3.299-8.572,4.105-14.206c0.564-3.971,0.786-7.579,0.665-10.825"/>
					</g>
				</g>
			</g>
		</g>
	</g>
</g>
</svg>
