<?xml version="1.0" encoding="utf-8"?>
<!-- Generator: Adobe Illustrator 17.0.1, SVG Export Plug-In . SVG Version: 6.00 Build 0)  -->
<!DOCTYPE svg PUBLIC "-//W3C//DTD SVG 1.1//EN" "http://www.w3.org/Graphics/SVG/1.1/DTD/svg11.dtd">
<svg version="1.1" id="Layer_1" xmlns="http://www.w3.org/2000/svg" xmlns:xlink="http://www.w3.org/1999/xlink" x="0px" y="0px"
	 width="228.386px" height="248.347px" viewBox="15.048 8.35 228.386 248.347" enable-background="new 15.048 8.35 228.386 248.347"
	 xml:space="preserve">
<g>
	<g id="Layer_1_1_">
		<g>
			<g id="Layer_1_3_">
				<g>
					<g>
						<path fill="#FFFFFF" d="M218.254,109.798c-1.565-1.189-3.569-3.425-6.01-6.704c0.25,0.238,0.614,0.519,1.09,0.845
							c6.361,4.557,12.076,6.117,17.148,4.677c1.478-0.526,2.498-0.877,3.06-1.052c0.915-0.288,1.61-0.457,2.085-0.507
							c1.716-0.351,3.438,0.088,5.165,1.315c1.14,0.776,1.734,1.653,1.784,2.63c0.063,0.964-0.412,2.047-1.428,3.249
							c-0.5-3.105-1.258-4.826-2.272-5.165c-0.288,0.288-0.888,0.488-1.803,0.601c-0.952,0.113-1.671,0.47-2.159,1.07
							c-0.801,0.914-0.965,1.916-0.49,3.006c0.376,1.052,0.376,1.809,0,2.272c-0.301,0.413-0.694,0.694-1.183,0.846
							c-0.174-1.115-0.219-2.072-0.131-2.874c0-0.914-0.356-1.798-1.07-2.649c-0.401,0.088-0.683,0.17-0.845,0.245
							C226.161,112.915,221.847,112.314,218.254,109.798z"/>
						<path fill="#FFFFFF" d="M174.719,19.628c0.989-1.215,1.672-3.093,2.048-5.634c0.188-1.353,0.351-2.322,0.488-2.911
							c0.15-0.676,0.307-1.102,0.469-1.277c0.05-0.163,0.225-0.294,0.526-0.395c0.238-0.075,0.62-0.143,1.146-0.206
							c0.676,1.353,1.076,2.874,1.202,4.564c0.238,2.215-0.125,3.931-1.09,5.146c-1.753,2.229-4.946,3.468-9.578,3.719
							C172.684,21.193,174.28,20.191,174.719,19.628z"/>
						<path fill="#FFFFFF" d="M153.383,35.217c1.002,0.688,1.559,1.891,1.672,3.606c0.113,1.415-0.125,2.535-0.714,3.362
							c-0.627,0.751-1.347,1.07-2.16,0.957c6.06,1.578,10.694,3.494,13.899,5.747c3.718,2.605,6.679,5.121,8.884,7.549
							c5.209,5.835,6.924,11.476,5.146,16.922c-0.475-0.25-1.033-0.376-1.671-0.376c-14.323,7.112-25.155,12.151-32.492,15.119
							c1.891-0.163,3.97-0.081,6.237,0.244c-0.326,0-0.564,0.038-0.714,0.113c-2.403,0.238-4.282,0.394-5.634,0.47
							c-4.77,0.426-9.728,0.907-14.874,1.446l-0.845,165.463h-1.803l-0.601-115.692l-0.113-49.771
							c-6.549-0.589-10.148-0.907-10.8-0.957c-2.893-0.351-4.727-0.551-5.502-0.601h-0.733l-3.475-0.356
							c-7.3-0.839-13.373-2.435-18.218-4.79c-1.115-0.501-2.115-1.02-3.006-1.56c-0.038,0.038-0.113,0.075-0.225,0.113
							c-0.125,0.038-0.207,0.075-0.245,0.113c-0.049,0.05-0.131,0.094-0.244,0.131c-0.125,0.038-0.207,0.075-0.245,0.113
							l-0.827-1.427c-0.401-0.163-0.726-0.326-0.977-0.488c-0.175-0.175-0.614-0.694-1.314-1.56
							c-0.301-0.312-0.701-0.795-1.202-1.446c-0.075-0.075-0.113-0.15-0.113-0.225l-0.113-0.132L80.23,77.06
							c-0.237-0.313-0.394-0.551-0.469-0.714c-0.05-0.088-0.094-0.207-0.132-0.356c-0.038-0.163-0.075-0.282-0.113-0.356
							c-0.301-0.614-0.583-1.095-0.846-1.446c-1.064-2.743-1.302-5.459-0.714-8.152c1.565,5.81,5.641,9.848,12.227,12.115
							c0.676-1.252,0.957-4.013,0.845-8.282c-0.125-3.706,0.832-6.461,2.874-8.264c1.565-1.552,5.884-4.069,12.958-7.549
							c5.108-2.63,7.663-5.346,7.663-8.152c-0.476-1.215-0.714-2.06-0.714-2.537c3.23-0.713,6.386-1.589,9.465-2.629
							c1.691-0.564,4.971-0.846,9.842-0.846c3.08,0,7.393,0.445,12.94,1.333c2.58,0,4.219-1.12,4.921-3.362
							c0.238-0.827,0.356-1.784,0.356-2.874c-0.075-0.488-0.157-0.852-0.245-1.09L153.383,35.217z"/>
						<path fill="#FFFFFF" d="M203.849,44.1l1.691,2.874c-4.358,1.728-6.605,2.617-6.743,2.667c-2.091,0.814-3.681,1.403-4.77,1.766
							c0.113,6.123-1.565,10.442-5.033,12.959c0.701,0.589,1.728,1.603,3.08,3.042c0.852,0.902,2.423,2.605,4.714,5.108
							c-0.8,1.703-1.283,2.779-1.446,3.23c-0.051,0.05-0.295,0.182-0.733,0.394c-1.052,0.513-1.684,0.821-1.898,0.921
							c-3.706,1.803-8.381,1.565-14.028-0.714c0.138-0.301,0.257-0.501,0.356-0.601h12.226c1.89-0.951,1.934-2.949,0.131-5.992
							c-2.278-3.117-3.443-4.714-3.493-4.79c-0.338-0.438-0.614-0.882-0.827-1.333c-0.351-1.29,0.006-3.487,1.07-6.593
							c1.138-3.631,1.659-6.028,1.559-7.193c1.076,0.164,2.716,0.082,4.919-0.244l9.223-4.546V44.1H203.849z"/>
						<path fill="#FFFFFF" d="M145.59,31.498l0.244,0.131l1.428,0.47c0.038,0.05,0.118,0.094,0.245,0.132
							c0.124,0.038,0.207,0.075,0.244,0.113c1.616,0.739,2.729,1.258,3.344,1.56c0.088,0.238,0.168,0.601,0.245,1.09
							c0,1.09-0.118,2.047-0.356,2.874h-1.202c-2.567,0-5.322-1.12-8.264-3.362c0.564-1.002,1.321-1.841,2.272-2.516
							c0.401-0.276,0.801-0.476,1.202-0.601C145.225,31.386,145.426,31.423,145.59,31.498z"/>
						<path fill="#FFFFFF" d="M143.786,31.386v0.601c-0.952,0.676-1.709,1.515-2.272,2.516c2.942,2.242,5.697,3.362,8.264,3.362
							h1.202c-0.701,2.241-2.342,3.362-4.921,3.362c-5.547-0.889-9.86-1.333-12.94-1.333c-4.87,0-8.152,0.282-9.842,0.846
							c-3.081,1.039-6.235,1.916-9.465,2.629c0,0.476,0.238,1.322,0.714,2.537c0,2.804-2.555,5.522-7.663,8.152
							c-7.075,3.48-11.394,5.998-12.958,7.549c-2.041,1.803-2.999,4.557-2.874,8.264c0.113,4.269-0.168,7.03-0.845,8.282
							c-6.586-2.267-10.662-6.305-12.227-12.115c0.714-3.106,2.592-6.305,5.634-9.597c2.317-2.566,5.234-5.083,8.753-7.549
							c0.526-0.363,0.846-0.564,0.957-0.601c0.163-0.075,0.401-0.231,0.714-0.469c0.082-0.082,0.197-0.125,0.347-0.132
							c-0.603,0.535-1.358,1.256-2.263,2.16c-3.155,3.168-5.234,5.811-6.235,7.926c1.302-0.338,5.502-1.177,12.602-2.516
							c6.11-1.691,9.227-4.132,9.353-7.325c0.113-2.229-0.852-3.586-2.893-4.076c0.15-0.038,0.395-0.075,0.733-0.113
							c0.301-0.038,0.538-0.081,0.714-0.131c-0.952-0.351-1.671-0.827-2.16-1.428c-0.664-0.939-0.945-2.06-0.845-3.362
							c0.138-1.74,0.701-2.942,1.689-3.606c0.801-0.589,2.04-1.265,3.718-2.029c-1.202,1.077-1.802,2.197-1.802,3.362
							c0,1.002,0.2,1.639,0.601,1.916c0.225,0.1,0.827,0.219,1.803,0.356c1.765-0.589,5.96-1.546,12.584-2.874
							c2.392-0.601,3.587-1.684,3.587-3.249v-0.601c0.401,0.063,1.321,0.263,2.761,0.601h1.803
							c5.684-1.353,9.366-2.029,11.043-2.029c0.564-0.125,1.401-0.007,2.516,0.356C143.672,31.191,143.71,31.31,143.786,31.386z"/>
						<path fill="#FFFFFF" d="M143.786,31.986v-0.601l0.845-0.113c0.15,0,0.269,0.038,0.356,0.113
							C144.588,31.51,144.186,31.711,143.786,31.986z"/>
						<path fill="#FFFFFF" d="M125.549,32.099V32.7c0,1.565-1.195,2.648-3.587,3.249c-6.624,1.327-10.818,2.285-12.584,2.874
							c-0.927-0.113-1.528-0.231-1.803-0.356c-0.401-0.276-0.601-0.914-0.601-1.916c0-1.165,0.601-2.285,1.802-3.362
							c0.125-0.038,0.288-0.118,0.488-0.245c0.2-0.113,0.356-0.194,0.47-0.244c0.376-0.175,0.651-0.295,0.827-0.357h0.131
							c1.778-0.688,3.137-1.127,4.076-1.315c0.977-0.363,1.816-0.482,2.516-0.356C118.875,30.672,121.63,31.147,125.549,32.099z"/>
						<path fill="#FFFFFF" d="M178.437,72.986c0.639,0,1.197,0.125,1.671,0.376c-0.036,0.038-0.074,0.118-0.113,0.244
							c-0.036,0.163-0.074,0.276-0.113,0.338l-0.131,0.245c-0.263,0.351-0.545,0.832-0.846,1.446
							c-0.074,0.163-0.15,0.401-0.224,0.714l-0.356,0.714l-0.376,0.376c-0.075,0.074-0.113,0.15-0.113,0.225l-1.07,1.446
							c-0.727,0.801-1.209,1.322-1.447,1.56c-0.075,0.075-0.157,0.113-0.245,0.113l-1.671,0.845
							c-5.335,3.406-12.408,5.647-21.224,6.724c-2.266-0.326-4.344-0.406-6.237-0.244C153.283,85.137,164.114,80.098,178.437,72.986
							z"/>
						<path fill="#FFFFFF" d="M189.818,123.358c-2.416,0.337-4.294,1.897-5.634,4.676c-1.276,2.693-1.552,5.765-0.827,9.222
							c0.601,3.331,2.078,6.048,4.433,8.152c2.266,2.04,4.626,2.886,7.08,2.535c2.43-0.5,4.307-2.06,5.634-4.676
							c1.152-2.654,1.428-5.735,0.827-9.24c-0.726-3.456-2.204-6.173-4.432-8.152C194.608,123.708,192.248,122.869,189.818,123.358z
							 M173.404,81.625l1.671-0.845c3.056,1.101,8.57,5.822,16.547,14.16c0.113,0.2,0.356,0.356,0.733,0.47
							c11.944,11.945,19.294,27.252,22.049,45.919c2.054,14.21,1.177,28.286-2.63,42.22c-0.038,0.113-0.081,0.269-0.131,0.47
							c-0.038,0.163-0.075,0.281-0.114,0.355c-1.002,3.719-2.322,7.6-3.962,11.646c-0.501-0.839-0.977-1.478-1.428-1.916
							c-1.703-1.954-2.504-3.193-2.403-3.719c0-1.09,0.557-3.569,1.671-7.437c1.127-3.845,1.689-6.286,1.689-7.326
							c-0.763-2.641-1.202-4.357-1.314-5.146h-0.733c-0.952,5.083-3.305,11.075-7.061,17.973
							c-4.083,7.438-7.162,13.078-9.241,16.921c-1.34,2.805-3.818,6.361-7.437,10.669c0.488-2.967-0.188-5.128-2.029-6.479
							c-1.778-1.29-4.176-1.327-7.193-0.114c-3.217,1.365-5.978,3.481-8.281,6.348c-2.467,2.943-3.945,5.979-4.433,9.109
							c-0.476,2.967,0.2,5.128,2.028,6.479c1.415,0.889,3.056,1.17,4.921,0.845c-2.154,2.204-4.581,4.671-7.286,7.4
							c-1.616,1.652-2.423,2.504-2.423,2.554c0,1.753,0.512,3.15,1.54,4.188c1.026,1.066,2.554,1.748,4.582,2.048
							c-6.712,3.106-13.949,5.259-21.711,6.461c-3.155,0.513-6.793,0.832-10.912,0.957l0.113-17.372
							c5.371-1.441,10.448-18.47,15.231-51.086c0.088-1.34,0.288-3.255,0.601-5.747c-0.038-0.125-0.075-0.326-0.114-0.6
							c-0.007-0.055-0.014-0.105-0.018-0.151c0.643,2.895,2.366,5.343,5.164,7.343c3.205,2.242,6.806,3.118,10.798,2.63
							c3.982-0.475,7.219-2.19,9.71-5.146c2.403-3.006,3.362-6.368,2.874-10.086c-0.614-3.781-2.491-6.773-5.634-8.977
							c-3.193-2.267-6.786-3.15-10.781-2.648c-3.919,0.488-7.161,2.247-9.728,5.278l-1.07,1.446
							c2.718-23.251,4.076-35.403,4.076-36.455c-1.277-13.046-1.916-20.564-1.916-22.556c-0.114-5.033-0.594-10.03-1.447-14.988
							c-0.614-3.181-1.327-5.779-2.141-7.794c1.353-0.075,3.231-0.232,5.634-0.47c0.15-0.075,0.388-0.113,0.714-0.113
							C160.996,87.272,168.07,85.031,173.404,81.625z"/>
						<path fill="#FFFFFF" d="M184.184,128.034c1.34-2.779,3.218-4.339,5.634-4.676c2.43-0.488,4.79,0.351,7.081,2.516
							c2.228,1.979,3.706,4.696,4.432,8.152c0.601,3.505,0.326,6.586-0.827,9.24c-1.327,2.617-3.205,4.176-5.634,4.676
							c-2.453,0.352-4.815-0.495-7.08-2.535c-2.354-2.104-3.831-4.82-4.433-8.152C182.632,133.8,182.908,130.726,184.184,128.034z"
							/>
						<path fill="#FFFFFF" d="M113.323,95.543c0.801-2.167,1.959-4.207,3.475-6.123c0.651,0.05,4.251,0.369,10.8,0.957v21.58
							c-3.469-0.113-6.586,0.846-9.354,2.874c-3.318,2.253-5.278,5.371-5.879,9.353c-0.589,3.756,0.413,7.237,3.006,10.442
							c2.517,2.993,5.872,4.79,10.066,5.391c0.564,0.087,1.322,0.131,2.272,0.131l0.601,103.955
							c-3.055-0.174-5.778-5.427-8.17-15.758c-2.392-10.38-4.42-25.792-6.085-46.239c-1.09-13.147-1.927-27.458-2.516-42.934
							c-0.488-13.171-0.689-19.845-0.601-20.02c-0.213-3.656-0.257-7.093-0.132-10.31
							C110.943,103.656,111.782,99.224,113.323,95.543z"/>
						<path fill="#FFFFFF" d="M65.13,96.256c0.714-0.639,1.233-1.077,1.559-1.315c7.15-6.11,13.222-10.229,18.218-12.358
							c0.038-0.038,0.118-0.075,0.245-0.113c0.113-0.038,0.194-0.081,0.244-0.131c0.038-0.038,0.118-0.075,0.245-0.113
							c0.113-0.038,0.188-0.075,0.225-0.113c0.889,0.538,1.891,1.059,3.006,1.56c-7.626,4.733-14.543,13.366-20.753,25.899
							c-2.53,4.745-4.883,10.336-7.062,16.772c-2.053,2.054-3.373,4.614-3.962,7.682c-0.401,2.43-0.438,4.426-0.113,5.992v0.131
							c-0.163,1.026-0.245,1.621-0.245,1.784c0,2.967,0.038,5.171,0.113,6.611c-1.24,5.534-2.115,10.406-2.63,14.611
							c0,5.46,0.676,11.338,2.029,17.636c1.703,7.349,4.026,12.902,6.969,16.659c2.442,3.443,6.955,10.161,13.541,20.152
							c0.125,0.2,0.326,0.482,0.601,0.845c0.288,0.351,0.488,0.626,0.601,0.827c0.814,1.853,2.011,3.813,3.587,5.879
							c2.48,2.942,5.24,5.021,8.282,6.235c2.341,1.039,4.339,1.24,5.992,0.601c1.502-0.238,2.616-0.871,3.343-1.897
							c0.726-1.027,1.09-2.474,1.09-4.34c0-1.877-0.914-4.595-2.743-8.15c-2.328-4.145-3.731-7.5-4.207-10.068
							c-0.488-2.403-1.609-5.765-3.362-10.085c-2.029-4.82-3.306-8.014-3.832-9.579c-0.338-2.016-0.538-3.374-0.601-4.075
							c0.125,0.2,0.313,0.519,0.564,0.957c0.25,0.388,0.501,0.708,0.751,0.959c2.379,2.955,5.616,4.671,9.71,5.146
							c4.007,0.49,7.606-0.388,10.8-2.63c3.081-2.266,4.921-5.264,5.522-8.995c0.601-3.719-0.319-7.037-2.761-9.954
							c-2.541-3.031-5.778-4.79-9.71-5.278c-3.994-0.488-7.594,0.394-10.8,2.648c-3.092,2.253-4.926,5.171-5.502,8.753
							c-0.088-0.726-0.17-1.253-0.245-1.578c0.801-3.369,1.202-6.724,1.202-10.068c0-12.609,4.552-29.036,13.654-49.282
							c-1.49-5.221-1.19-9.973,0.902-14.255c2.116-4.307,6.017-8.107,11.701-11.4c0.776,0.05,2.611,0.25,5.502,0.601
							c-1.515,1.916-2.673,3.956-3.475,6.123c-1.54,3.681-2.379,8.113-2.517,13.297c-0.125,3.217-0.081,6.654,0.132,10.31
							c-0.088,0.175,0.113,6.855,0.601,20.04c0.589,15.464,1.427,29.768,2.516,42.915c1.666,20.447,3.693,35.86,6.085,46.239
							c2.392,10.331,5.115,15.583,8.17,15.758v11.739c-4.119-0.124-7.756-0.444-10.911-0.957
							c-24.904-3.957-44.249-17.786-58.034-41.487c-5.459-9.277-9.616-18.951-12.471-29.018c-0.038-0.087-0.075-0.207-0.113-0.355
							c-0.05-0.214-0.088-0.37-0.113-0.47c-3.806-13.885-4.689-27.96-2.648-42.221C46.787,123.051,53.824,108.025,65.13,96.256z"/>
						<path fill="#FFFFFF" d="M112.364,124.184c0.614-3.981,2.573-7.093,5.879-9.334c2.755-2.041,5.872-3.006,9.354-2.893
							l0.113,28.191c-0.951,0-1.709-0.044-2.272-0.131c-4.194-0.601-7.549-2.398-10.066-5.391
							C112.778,131.421,111.776,127.941,112.364,124.184z"/>
						<path fill="#FFFFFF" d="M140.18,114.831c3.331,2.342,5.291,5.459,5.879,9.353c0.589,3.77-0.406,7.25-2.986,10.442
							c-2.517,2.993-5.879,4.79-10.086,5.391c-0.551,0.087-1.308,0.131-2.272,0.131l0.113-28.191
							C134.195,111.845,137.312,112.802,140.18,114.831z"/>
						<path fill="#FFFFFF" d="M145.833,88.932c0.814,2.016,1.528,4.613,2.141,7.794c0.852,4.958,1.333,9.954,1.447,14.988
							c0,1.991,0.639,9.51,1.916,22.556c0,1.052-1.358,13.204-4.076,36.455c-1.603,2.58-2.16,5.416-1.671,8.509v0.244l0.244,0.959
							c0.038,0.125,0.075,0.326,0.113,0.601c0.038,0.274,0.075,0.475,0.114,0.6c-0.313,2.491-0.513,4.407-0.601,5.747
							c-4.783,32.616-9.859,49.645-15.231,51.086l0.488-98.32c0.964,0,1.721-0.044,2.272-0.131
							c4.207-0.601,7.569-2.398,10.086-5.391c2.58-3.192,3.575-6.673,2.986-10.442c-0.589-3.894-2.548-7.012-5.879-9.353v0.017
							c-2.868-2.041-5.985-3.006-9.353-2.893l0.131-21.58C136.105,89.839,141.062,89.356,145.833,88.932z"/>
						<path fill="#FFFFFF" d="M147.26,170.723l1.07-1.446c2.567-3.031,5.81-4.79,9.728-5.278c3.995-0.501,7.588,0.381,10.781,2.648
							c3.143,2.204,5.021,5.195,5.634,8.977c0.488,3.719-0.47,7.081-2.874,10.086c-2.491,2.955-5.728,4.671-9.71,5.146
							c-3.994,0.49-7.594-0.388-10.798-2.63c-2.943-2.103-4.695-4.701-5.259-7.794l-0.244-0.959v-0.244
							C145.1,176.139,145.657,173.303,147.26,170.723z"/>
						<path fill="#FFFFFF" d="M205.05,170.48h0.733c0.113,0.788,0.551,2.504,1.314,5.146c0,1.039-0.562,3.481-1.689,7.326
							c-1.115,3.867-1.671,6.347-1.671,7.437c-0.1,0.526,0.7,1.766,2.403,3.719c0.451,0.438,0.926,1.076,1.428,1.916
							c-2.154,5.559-4.99,11.351-8.509,17.373c-9.428,16.365-21.535,28.041-36.322,35.028c-2.029-0.301-3.557-0.983-4.582-2.048
							c-1.027-1.038-1.54-2.435-1.54-4.188c0-0.05,0.807-0.902,2.423-2.554c2.705-2.729,5.133-5.196,7.286-7.4
							c1.415-0.488,2.217-0.77,2.404-0.845c2.942-1.19,5.659-3.267,8.15-6.235c2.467-2.943,3.944-5.979,4.433-9.109
							c3.619-4.308,6.097-7.863,7.437-10.669c2.079-3.844,5.158-9.484,9.241-16.921C201.745,181.555,204.098,175.563,205.05,170.48z
							"/>
						<path fill="#FFFFFF" d="M179.282,209.564c1.841,1.353,2.517,3.512,2.029,6.479c-0.49,3.13-1.966,6.166-4.433,9.109
							c-2.491,2.967-5.209,5.046-8.15,6.235c-0.188,0.075-0.989,0.356-2.404,0.845c-1.866,0.326-3.505,0.044-4.921-0.845
							c-1.827-1.353-2.504-3.512-2.028-6.479c0.488-3.13,1.966-6.166,4.433-9.109c2.303-2.868,5.064-4.983,8.281-6.348
							C175.106,208.236,177.505,208.275,179.282,209.564z"/>
						<path fill="#FFFFFF" d="M108.777,33.188l0.113-0.132l0.846-0.356c-0.113,0.049-0.27,0.131-0.47,0.244
							C109.065,33.07,108.903,33.151,108.777,33.188z"/>
						<path fill="#FFFFFF" d="M78.915,18.914c-1.077-1.215-1.433-2.93-1.07-5.146c0.1-1.678,0.495-3.199,1.184-4.564
							c0.927,0.125,1.528,0.326,1.802,0.601c0.213,0.313,0.495,1.709,0.846,4.188c0.363,2.541,1.039,4.42,2.029,5.634
							c0.401,0.501,2.04,1.503,4.921,3.006C83.93,22.383,80.693,21.143,78.915,18.914z"/>
						<path fill="#FFFFFF" d="M59.645,49.641c-2.779-1.102-5.028-1.991-6.742-2.667l1.671-2.874c-0.1,0.326-0.1,0.646,0,0.957
							l9.241,4.546c0.401,0,0.72,0.043,0.957,0.131c1.791,0.225,3.106,0.263,3.944,0.113c-0.125,1.515,0.438,3.913,1.691,7.193
							c1.026,2.981,1.346,5.178,0.957,6.593c-0.413,0.776-0.657,1.22-0.732,1.333c-1.34,1.741-2.535,3.337-3.587,4.79
							c-1.828,3.043-1.791,5.04,0.113,5.992h12.245c0.063,0.075,0.182,0.276,0.356,0.601c-5.772,2.278-10.449,2.517-14.029,0.714
							c-0.977-0.476-1.616-0.783-1.916-0.921c-0.438-0.213-0.683-0.344-0.733-0.394c-0.238-0.338-0.714-1.415-1.427-3.23
							c3.593-4.081,6.191-6.799,7.794-8.152c-3.593-2.516-5.271-6.837-5.033-12.959C63.339,51.056,61.75,50.467,59.645,49.641z"/>
						<path fill="#FFFFFF" d="M92.099,49.847c1.24-1.214,2.079-2.009,2.516-2.385l8.282-3.117c0.237,0,0.438-0.044,0.6-0.132
							c0.238,0.088,0.558,0.132,0.959,0.132c-0.088-0.088-0.132-0.213-0.132-0.376c0.25,0,0.451-0.038,0.601-0.113
							c2.041,0.488,3.006,1.847,2.893,4.076c-0.125,3.193-3.242,5.634-9.353,7.325c-7.1,1.34-11.299,2.179-12.602,2.516
							C86.866,55.657,88.945,53.015,92.099,49.847z"/>
						<path fill="#FFFFFF" d="M103.499,44.213c0.164-0.075,0.438-0.156,0.827-0.244c0,0.163,0.044,0.288,0.132,0.376
							C104.057,44.344,103.738,44.301,103.499,44.213z"/>
						<path fill="#FFFFFF" d="M42.817,107.205c-1.027,1.177-1.902,2.04-2.63,2.591c-3.718,2.517-8.039,3.118-12.958,1.803
							c-0.313-0.075-0.589-0.157-0.827-0.245c-0.726,0.839-1.09,1.721-1.09,2.649c0.138,1.076,0.138,2.034,0,2.874
							c-0.538-0.1-0.976-0.381-1.315-0.846c-0.351-0.463-0.351-1.22,0-2.272c0.363-1.102,0.2-2.104-0.488-3.006
							c-0.576-0.601-1.29-0.957-2.141-1.07c-0.902-0.1-1.502-0.301-1.802-0.601c-1.077,0.351-1.797,2.072-2.16,5.165
							c-1.027-1.214-1.528-2.297-1.503-3.249c0.025-0.977,0.607-1.853,1.746-2.63c1.716-1.24,3.43-1.678,5.146-1.315
							c0.488,0.05,1.184,0.219,2.085,0.507c0.513,0.164,1.54,0.513,3.081,1.052c5.058,1.44,10.775-0.118,17.148-4.677
							c0.476-0.326,0.833-0.607,1.07-0.845C44.79,104.87,43.668,106.241,42.817,107.205z"/>
						<path fill="#FFFFFF" d="M61.41,125.874c-0.088,0.075-0.206,0.232-0.356,0.47c2.179-6.436,4.532-12.026,7.062-16.772
							c6.21-12.534,13.128-21.165,20.753-25.899c4.845,2.353,10.918,3.951,18.218,4.79l3.475,0.356h0.733
							c-5.684,3.292-9.585,7.093-11.701,11.4c-2.09,4.282-2.392,9.034-0.902,14.255c-9.103,20.247-13.654,36.673-13.654,49.282
							c0,3.344-0.401,6.699-1.202,10.068c-0.088,0.25-0.168,0.576-0.244,0.976l-0.356,0.959c-1.978,6.723-2.179,17.673-0.601,32.849
							c-5.359-12.508-10.755-20.941-16.189-25.298c-5.434-4.245-8.633-15.833-9.597-34.765c-0.075-1.44-0.113-3.643-0.113-6.611
							c0-0.164,0.082-0.758,0.245-1.784c0.088,0.852,0.406,1.891,0.957,3.117c1.327,2.641,3.205,4.2,5.634,4.676
							c2.442,0.352,4.795-0.495,7.062-2.535c0.25-0.15,0.413-0.269,0.488-0.356c0,0.238,0.124,0.213,0.376-0.075
							c0.238-0.288,0.632-0.857,1.184-1.709v-0.131l0.113-0.113c0-0.088,0.044-0.17,0.132-0.245c0.075-0.163,0.231-0.363,0.47-0.601
							l0.957-2.028c0.326-1.127,0.569-2.011,0.733-2.648v-0.113c0-0.064,0.006-0.101,0.019-0.114
							c0.014-0.013,0.044-0.019,0.094-0.019c0.614-3.532,0.294-6.604-0.957-9.222c-1.315-2.768-3.193-4.326-5.634-4.676
							c-2.442-0.476-4.802,0.362-7.08,2.516h-0.12V125.874z"/>
						<path fill="#FFFFFF" d="M61.523,125.874c2.278-2.154,4.639-2.992,7.08-2.516c2.442,0.351,4.319,1.909,5.634,4.676
							c1.252,2.616,1.571,5.69,0.957,9.222c-0.05,0-0.081,0.007-0.094,0.019s-0.019,0.05-0.019,0.114v0.113
							c-0.163,0.639-0.406,1.521-0.733,2.648l-0.957,2.028c-0.238,0.238-0.395,0.439-0.47,0.601
							c-0.088,0.074-0.132,0.157-0.132,0.245l-0.113,0.113v0.131c-0.551,0.852-0.946,1.421-1.184,1.709
							c-0.25,0.288-0.376,0.313-0.376,0.075c-0.075,0.088-0.238,0.207-0.488,0.356c-2.267,2.04-4.62,2.886-7.062,2.535
							c-2.43-0.476-4.307-2.034-5.634-4.676c-0.551-1.226-0.87-2.266-0.957-3.117v-0.131c-0.326-1.565-0.288-3.562,0.113-5.992
							c0.589-3.068,1.909-5.629,3.962-7.682c0.15-0.238,0.269-0.394,0.356-0.47L61.523,125.874L61.523,125.874z"/>
						<path fill="#FFFFFF" d="M83.836,173.824c0.075,0.324,0.157,0.852,0.245,1.578v0.224c-0.088,0.238-0.132,0.558-0.132,0.959
							l0.714,5.409c0.088,0.426,0.369,1.02,0.845,1.784c0.063,0.714,0.263,2.078,0.601,4.094c0.526,1.565,1.803,4.759,3.832,9.579
							c1.753,4.319,2.874,7.681,3.362,10.085c0.476,2.567,1.878,5.922,4.207,10.068c1.827,3.555,2.743,6.273,2.743,8.15
							c0,1.866-0.363,3.312-1.09,4.34c-0.726,1.026-1.841,1.659-3.343,1.897c0.326-0.075,0.564-0.157,0.713-0.245l0.488-0.356
							c1.828-1.34,2.511-3.5,2.047-6.479c-0.513-3.143-1.997-6.18-4.451-9.109c-2.392-2.868-5.146-4.983-8.263-6.348
							c-1.227-0.562-2.467-0.845-3.719-0.845c-1.578-15.175-1.376-26.125,0.601-32.849l0.356-0.959
							C83.667,174.4,83.749,174.074,83.836,173.824z"/>
						<path fill="#FFFFFF" d="M89.582,166.649c3.206-2.254,6.806-3.137,10.8-2.648c3.932,0.488,7.168,2.247,9.71,5.278
							c2.442,2.917,3.362,6.235,2.761,9.954c-0.601,3.731-2.442,6.73-5.522,8.995c-3.193,2.242-6.792,3.118-10.8,2.63
							c-4.094-0.475-7.331-2.19-9.71-5.146c-0.25-0.25-0.501-0.57-0.751-0.959c-0.25-0.451-0.438-0.776-0.564-0.976v-0.114
							c-0.351-0.589-0.632-1.145-0.845-1.671l-0.714-5.409c0-0.401,0.044-0.721,0.132-0.959V175.4
							C84.656,171.82,86.49,168.903,89.582,166.649z"/>
						<path fill="#FFFFFF" d="M85.508,183.663v0.114c-0.476-0.764-0.757-1.358-0.845-1.784
							C84.876,182.519,85.157,183.076,85.508,183.663z"/>
						<path fill="#FFFFFF" d="M44.019,194.107c-1.816,2.204-3.294,4.119-4.433,5.747c-0.776,1.164-1.214,2.122-1.314,2.874
							l-0.959-0.245c0.363-2.517,1.322-5.033,2.874-7.55c2.129-3.669,4.289-7.463,6.479-11.381c0.025,0.1,0.063,0.257,0.113,0.47
							c0.038,0.149,0.075,0.269,0.113,0.355c-1.138,0.927-1.778,2.486-1.916,4.677C44.865,191.509,44.545,193.192,44.019,194.107z"
							/>
						<path fill="#FFFFFF" d="M54.218,163.155c0.513-4.182,1.39-9.059,2.63-14.631c0.952,18.944,4.151,30.539,9.597,34.784
							c5.434,4.357,10.83,12.789,16.189,25.298c-1.315-0.113-2.473,0.207-3.475,0.959c-1.828,1.34-2.51,3.499-2.047,6.479v0.355
							c0.088,0.64,0.37,1.596,0.845,2.874c-0.113-0.2-0.313-0.476-0.601-0.827c-0.276-0.363-0.476-0.644-0.601-0.845
							c-6.586-9.991-11.1-16.709-13.541-20.152c-2.942-3.757-5.265-9.31-6.969-16.659C54.894,174.493,54.218,168.615,54.218,163.155
							z"/>
						<path fill="#FFFFFF" d="M35.023,215.687l1.691,1.428c-4.119,4.869-6.679,8.508-7.681,10.911l-1.428-1.802l-0.244-1.07
							l-0.356,0.244c-0.175,1.766-0.282,3.287-0.319,4.564c-0.025,1.09,0,1.803,0.075,2.141l-0.714-0.113l-3.117-3.719l-0.245,0.113
							c-0.713,3.431-1.152,5.316-1.315,5.654l-0.845-1.202c0.113-0.576-0.006-1.616-0.356-3.117
							c-0.225-1.215-0.025-2.136,0.601-2.762l7.418-5.278C31.054,219.612,33.333,217.615,35.023,215.687z"/>
						<path fill="#FFFFFF" d="M94.617,215.799c2.455,2.929,3.938,5.966,4.451,9.109c0.463,2.979-0.219,5.14-2.047,6.479
							l-0.488,0.356c-0.388,0.088-0.664,0.168-0.827,0.245h0.113c-1.653,0.639-3.651,0.438-5.992-0.601
							c-3.043-1.214-5.804-3.294-8.282-6.235c-1.577-2.066-2.773-4.026-3.587-5.879c-0.475-1.277-0.757-2.235-0.845-2.874v-0.355
							c-0.463-2.981,0.219-5.14,2.047-6.479c1.002-0.751,2.16-1.07,3.475-0.959c1.252,0,2.491,0.282,3.719,0.845
							C89.471,210.816,92.225,212.931,94.617,215.799z"/>
						<path fill="#FFFFFF" d="M95.819,231.99h-0.113c0.163-0.075,0.438-0.157,0.827-0.245
							C96.382,231.832,96.144,231.913,95.819,231.99z"/>
						
							<path fill="none" stroke="#373535" stroke-width="1.7077" stroke-linecap="round" stroke-linejoin="round" stroke-miterlimit="3" d="
							M211.418,25.863c0.639,1.152,0.476,2.51-0.49,4.076c-0.984,1.661-2.542,2.86-4.676,3.596
							c-0.057,0.019-0.114,0.038-0.168,0.056l-0.188,0.066c-2.005,0.632-3.124,0.995-3.361,1.09c0.75,2.029,1.189,5.065,1.314,9.109
							V44.1l1.691,2.874c-4.358,1.728-6.605,2.617-6.743,2.667c-2.091,0.814-3.681,1.403-4.77,1.766
							c0.113,6.123-1.565,10.442-5.033,12.959c0.701,0.589,1.728,1.603,3.08,3.042c0.852,0.902,2.423,2.605,4.714,5.108
							c-0.8,1.703-1.283,2.779-1.446,3.23c-0.051,0.05-0.295,0.182-0.733,0.394c-1.052,0.513-1.684,0.821-1.898,0.921
							c-3.706,1.803-8.381,1.565-14.028-0.714l-0.356,0.714l-0.376,0.376c-0.075,0.074-0.113,0.15-0.113,0.225l-1.07,1.446
							c-0.727,0.801-1.209,1.322-1.447,1.56c-0.075,0.075-0.157,0.113-0.245,0.113c3.056,1.101,8.57,5.822,16.547,14.16h0.356h0.244
							c1.478-0.401,3.557-1.12,6.237-2.16c2.316-0.977,4.239-0.939,5.765,0.113c1.39,1.014,3.625,3.775,6.705,8.282l0.114,0.113
							c0.25,0.401,0.651,1.002,1.202,1.803c0.25,0.238,0.614,0.519,1.09,0.845c6.361,4.557,12.076,6.117,17.148,4.677
							c1.478-0.526,2.498-0.877,3.06-1.052c0.915-0.288,1.61-0.457,2.085-0.507c1.716-0.351,3.438,0.088,5.165,1.315
							c1.14,0.776,1.734,1.653,1.784,2.63c0.063,0.964-0.412,2.047-1.428,3.249c-0.5-3.105-1.258-4.826-2.272-5.165
							c-0.288,0.288-0.888,0.488-1.803,0.601c-0.938,0.113-1.659,0.47-2.159,1.07c-0.801,0.914-0.965,1.916-0.49,3.006
							c0.363,1.064,0.363,1.822,0,2.272c-0.301,0.413-0.694,0.694-1.183,0.846c-0.174-1.115-0.219-2.072-0.131-2.874
							c0-0.914-0.356-1.798-1.07-2.649c-0.401,0.088-0.683,0.17-0.845,0.245c-5.033,1.315-9.347,0.714-12.94-1.803
							c-1.565-1.189-3.569-3.425-6.01-6.705c-0.513-0.513-0.952-1.077-1.315-1.691c-0.6-1.064-1.677-2.14-3.23-3.23 M203.849,44.1
							v0.957l-9.223,4.546c-2.204,0.326-3.844,0.406-4.919,0.244c0.1,1.165-0.42,3.562-1.559,7.193
							c-1.066,3.106-1.421,5.303-1.07,6.593c0.213,0.451,0.488,0.895,0.827,1.333c0.05,0.075,1.215,1.671,3.493,4.79
							c1.803,3.043,1.759,5.04-0.131,5.992h-11.512h-0.714c-0.1,0.1-0.219,0.301-0.356,0.601c0.074-0.313,0.15-0.551,0.224-0.714
							c0.302-0.614,0.583-1.095,0.846-1.446l0.131-0.245c0.038-0.063,0.075-0.175,0.113-0.338c0.038-0.125,0.075-0.206,0.113-0.244
							c1.778-5.446,0.064-11.087-5.146-16.922c-2.204-2.428-5.165-4.946-8.884-7.549c-3.205-2.253-7.838-4.17-13.899-5.747
							c0.814,0.113,1.534-0.206,2.16-0.957c0.589-0.827,0.827-1.947,0.714-3.362c-0.114-1.715-0.671-2.917-1.672-3.606l-2.292-1.315
							c-0.614-0.301-1.728-0.82-3.344-1.56c-0.036-0.038-0.118-0.075-0.244-0.113c-0.125-0.038-0.207-0.082-0.245-0.132l-1.428-0.47
							l-0.244-0.131c-0.164-0.075-0.363-0.113-0.601-0.113c-0.088-0.075-0.207-0.113-0.356-0.113
							c-0.463-0.163-0.783-0.245-0.959-0.245c0,0.164,0.038,0.282,0.114,0.357v0.601 M174.719,19.628
							c-0.438,0.564-2.034,1.565-4.788,3.006c4.632-0.25,7.825-1.49,9.578-3.719c0.964-1.215,1.327-2.93,1.09-5.146
							c-0.125-1.691-0.526-3.212-1.202-4.564c-0.526,0.063-0.909,0.131-1.146,0.206c-0.301,0.1-0.476,0.232-0.526,0.395
							c-0.163,0.175-0.319,0.601-0.469,1.277c-0.138,0.589-0.301,1.559-0.488,2.911C176.39,16.536,175.708,18.413,174.719,19.628z
							 M88.626,22.634c-4.696-0.25-7.932-1.49-9.71-3.719c-1.077-1.215-1.433-2.93-1.07-5.146c0.1-1.678,0.495-3.199,1.184-4.564
							c0.927,0.125,1.528,0.326,1.802,0.601c0.213,0.313,0.495,1.709,0.846,4.188c0.363,2.541,1.039,4.42,2.029,5.634
							C84.105,20.129,85.745,21.131,88.626,22.634c2.793,0.124,5.79-0.038,8.996-0.488c2.003-0.276,4.339-0.594,7.005-0.957
							c1.703-0.238,2.686-0.356,2.949-0.356c2.992-0.238,4.99,0.2,5.992,1.315c1.189,1.327,1.671,3.53,1.447,6.611
							c-0.164,1.027-0.245,1.784-0.245,2.272c0.977-0.363,1.816-0.482,2.516-0.356c1.59,0,4.344,0.475,8.264,1.427
							c0.401,0.063,1.321,0.263,2.761,0.601h1.803c5.684-1.353,9.366-2.029,11.043-2.029c0.564-0.125,1.401-0.007,2.516,0.356
							c0-0.964-0.043-1.721-0.131-2.272c-0.362-3.017,0.075-5.221,1.315-6.611c0.888-1.115,2.929-1.553,6.123-1.315
							c0.2,0,3.475,0.438,9.823,1.315c3.205,0.451,6.247,0.614,9.128,0.488 M178.906,75.634l0.132,0.113
							c0.188-0.463,0.426-0.983,0.714-1.559 M179.753,75.747c0.914-1.678,1.314-3.875,1.202-6.593
							c-0.114-3.106-0.795-5.785-2.048-8.039c-0.951-1.664-2.266-3.224-3.944-4.677 M191.622,94.942
							c0.113,0.2,0.356,0.356,0.733,0.47c-0.05-0.038-0.094-0.094-0.132-0.17c-0.036-0.088-0.074-0.15-0.113-0.188l-0.131-0.113
							 M192.355,95.411c11.944,11.945,19.294,27.252,22.049,45.919c2.054,14.21,1.177,28.286-2.63,42.22
							c1.866,3.393,4.025,7.186,6.479,11.381c1.428,2.517,2.385,5.033,2.872,7.55l0.114,0.131c0.351,2.267,0.351,4.545,0,6.837
							c-0.338,1.791,0.419,3.869,2.272,6.237c1.502,1.852,3.743,3.85,6.724,5.991l7.437,5.278c0.614,0.614,0.814,1.535,0.601,2.762
							c-0.352,1.552-0.47,2.591-0.357,3.117l-0.845,1.202c-0.074-0.163-0.213-0.701-0.412-1.616
							c-0.263-1.14-0.526-2.485-0.789-4.038l-0.356-0.113l-3.006,3.719l-0.827,0.113c0.15-0.788,0.107-3.024-0.131-6.706
							l-0.469-0.244l-0.245,1.07l-1.447,1.802c-1.164-2.554-3.681-6.191-7.55-10.911c-3.055-4.395-3.693-8.433-1.916-12.115
							c0.288-0.576,0.369-1.334,0.245-2.272c-0.213-0.701-0.658-1.66-1.334-2.874c-0.988-1.44-2.466-3.355-4.432-5.747
							c-0.288-0.402-0.507-1.033-0.658-1.897c-0.124-0.751-0.224-1.803-0.301-3.155c-0.113-2.192-0.75-3.75-1.916-4.677
							c-1.002,3.719-2.322,7.6-3.962,11.646c-2.154,5.559-4.99,11.351-8.509,17.373c-9.428,16.364-21.535,28.041-36.322,35.028
							c-6.712,3.106-13.949,5.259-21.711,6.461c-3.155,0.513-6.793,0.832-10.912,0.957l0.601-115.692l0.113-28.191l0.131-21.58
							c5.147-0.539,10.104-1.02,14.874-1.446c1.353-0.075,3.231-0.232,5.634-0.47c0.15-0.075,0.388-0.113,0.714-0.113
							c8.814-1.077,15.889-3.318,21.224-6.724 M130.714,140.148c0.964,0,1.721-0.044,2.272-0.131
							c4.207-0.601,7.569-2.398,10.086-5.391c2.58-3.192,3.575-6.673,2.986-10.442c-0.589-3.894-2.548-7.005-5.879-9.334
							c-2.868-2.041-5.985-3.006-9.353-2.893 M196.9,125.874c2.228,1.979,3.706,4.696,4.432,8.152
							c0.601,3.505,0.326,6.586-0.827,9.24c-1.327,2.617-3.205,4.176-5.634,4.676c-2.453,0.352-4.815-0.495-7.08-2.535
							c-2.354-2.104-3.831-4.82-4.433-8.152c-0.726-3.455-0.451-6.529,0.827-9.222c1.34-2.779,3.218-4.339,5.634-4.676
							C192.248,122.869,194.608,123.708,196.9,125.874z M104.927,43.856c0.15-0.038,0.395-0.075,0.733-0.113
							c0.301-0.038,0.538-0.081,0.714-0.131c-0.952-0.351-1.671-0.827-2.16-1.428c-0.664-0.939-0.945-2.06-0.845-3.362
							c0.138-1.74,0.701-2.942,1.689-3.606c0.801-0.589,2.04-1.265,3.718-2.029c0.125-0.038,0.288-0.118,0.488-0.245
							c0.2-0.113,0.356-0.194,0.47-0.244c0.376-0.175,0.651-0.295,0.827-0.357h0.131c1.778-0.688,3.137-1.127,4.076-1.315
							 M47.025,25.863c-0.739,1.09-0.539,2.448,0.601,4.076c1.039,1.753,2.716,2.992,5.033,3.719l-0.488-0.113
							c2.229,0.701,3.468,1.102,3.718,1.202c-0.751,2.079-1.189,5.115-1.315,9.109v0.244c-0.1,0.326-0.1,0.646,0,0.957l9.241,4.546
							c0.401,0,0.72,0.043,0.957,0.131c1.791,0.225,3.106,0.263,3.944,0.113c-0.125,1.515,0.438,3.913,1.691,7.193
							c1.026,2.981,1.346,5.178,0.957,6.593c-0.088,0.163-0.326,0.607-0.713,1.333c-1.165,1.465-2.367,3.061-3.606,4.79
							c-1.828,3.043-1.791,5.04,0.113,5.992h11.513c-0.914-1.716-1.315-3.913-1.202-6.593c0.125-3.205,0.845-5.885,2.16-8.039
							c0.852-1.678,2.172-3.237,3.963-4.677c2.317-2.566,5.234-5.083,8.753-7.549c0.526-0.363,0.846-0.564,0.957-0.601
							c0.163-0.075,0.401-0.231,0.714-0.469c0.088-0.088,0.213-0.132,0.376-0.132l0.225-0.225l8.282-3.117
							c0.237,0,0.438-0.044,0.6-0.132c0.164-0.075,0.438-0.156,0.827-0.244 M54.574,44.1l-1.671,2.874
							c3.994,1.59,6.241,2.48,6.742,2.667c2.079,0.814,3.669,1.403,4.77,1.766c-0.238,6.123,1.44,10.442,5.033,12.959
							c-1.603,1.353-4.2,4.069-7.794,8.152c0.713,1.816,1.189,2.893,1.427,3.23c0.05,0.05,0.295,0.182,0.733,0.394
							c0.301,0.138,0.939,0.445,1.916,0.921c3.582,1.803,8.257,1.565,14.029-0.714c-0.006-0.01-0.013-0.019-0.019-0.027
							c-0.165-0.31-0.278-0.5-0.338-0.573h-0.733 M47.626,101.177c-0.047,0.075-0.09,0.15-0.132,0.225
							c-0.363,0.614-0.801,1.177-1.315,1.691c-1.39,1.778-2.51,3.149-3.362,4.113c-1.027,1.177-1.902,2.04-2.63,2.591
							c-3.718,2.517-8.039,3.118-12.958,1.803c-0.313-0.075-0.589-0.157-0.827-0.245c-0.726,0.839-1.09,1.721-1.09,2.649
							c0.138,1.076,0.138,2.034,0,2.874c-0.538-0.1-0.976-0.381-1.315-0.846c-0.351-0.451-0.351-1.209,0-2.272
							c0.363-1.102,0.2-2.104-0.488-3.006c-0.601-0.601-1.315-0.957-2.141-1.07c-0.902-0.1-1.502-0.301-1.802-0.601
							c-1.077,0.351-1.797,2.072-2.16,5.165c-1.027-1.214-1.528-2.297-1.503-3.249c0.025-0.977,0.607-1.853,1.746-2.63
							c1.716-1.24,3.43-1.678,5.146-1.315c0.488,0.05,1.184,0.219,2.085,0.507c0.513,0.164,1.54,0.513,3.081,1.052
							c5.058,1.44,10.775-0.118,17.148-4.677c0.476-0.326,0.833-0.607,1.07-0.845C46.817,102.215,47.3,101.578,47.626,101.177
							c0.046-0.073,0.092-0.145,0.141-0.216c2.836-4.306,4.985-6.996,6.452-8.066c1.403-1.052,3.319-1.09,5.747-0.113
							c2.616,1.039,4.495,1.715,5.634,2.029h0.132c0.313,0,0.551,0.043,0.714,0.131h0.244c7.15-6.11,13.222-10.229,18.218-12.358
							c0.038-0.038,0.118-0.075,0.245-0.113c0.113-0.038,0.194-0.081,0.244-0.131c0.038-0.038,0.118-0.075,0.245-0.113
							c0.113-0.038,0.188-0.075,0.225-0.113c0.889,0.538,1.891,1.059,3.006,1.56c4.845,2.353,10.918,3.951,18.218,4.79l3.475,0.356
							 M66.445,94.942c-0.501,0.376-0.939,0.814-1.315,1.315c0.714-0.639,1.233-1.077,1.559-1.315 M50.743,98.172
							c-1.357,0.948-2.349,1.877-2.977,2.789 M61.41,125.874c-0.088,0.075-0.206,0.232-0.356,0.47
							c-2.053,2.054-3.373,4.614-3.962,7.682c-0.401,2.43-0.438,4.426-0.113,5.992v0.131c0.088,0.852,0.406,1.891,0.957,3.117
							c1.327,2.641,3.205,4.2,5.634,4.676c2.442,0.352,4.795-0.495,7.062-2.535c0.25-0.15,0.413-0.269,0.488-0.356
							c0,0.238,0.124,0.213,0.376-0.075c0.238-0.288,0.632-0.857,1.184-1.709v-0.131l0.113-0.113c0-0.088,0.044-0.17,0.132-0.245
							c0.075-0.163,0.231-0.363,0.47-0.601l0.957-2.028c0.326-1.127,0.569-2.011,0.733-2.648v-0.113
							c0-0.064,0.006-0.101,0.019-0.114c0.014-0.013,0.044-0.019,0.094-0.019c0.614-3.532,0.294-6.604-0.957-9.222
							c-1.315-2.768-3.193-4.326-5.634-4.676c-2.442-0.476-4.802,0.362-7.08,2.516L61.41,125.874L61.41,125.874z M127.596,111.956
							l0.113,28.191c-0.951,0-1.709-0.044-2.272-0.131c-4.194-0.601-7.549-2.398-10.066-5.391
							c-2.591-3.205-3.593-6.686-3.006-10.442c0.614-3.981,2.573-7.093,5.879-9.334
							C120.998,112.809,124.116,111.845,127.596,111.956V90.378c-6.549-0.589-10.148-0.907-10.8-0.957
							c-2.893-0.351-4.727-0.551-5.502-0.601 M83.591,56.44c-3.042,3.294-4.921,6.493-5.634,9.597
							c-0.589,2.691-0.351,5.409,0.714,8.152c0.263,0.351,0.545,0.832,0.846,1.446c0.038,0.075,0.075,0.194,0.113,0.356
							c0.033,0.133,0.071,0.242,0.113,0.329 M78.671,74.188c0.125,0.451,0.369,0.97,0.733,1.559l0.113-0.113 M79.76,76.348
							c0.075,0.163,0.232,0.401,0.469,0.714l0.132,0.244l0.113,0.132c0,0.074,0.038,0.15,0.113,0.225
							c0.501,0.651,0.902,1.134,1.202,1.446c0.701,0.864,1.138,1.383,1.314,1.56c0.25,0.163,0.576,0.326,0.977,0.488
							 M89.582,166.649c-3.092,2.253-4.926,5.171-5.502,8.753v0.224c-0.088,0.238-0.132,0.558-0.132,0.959l0.714,5.409
							c0.088,0.426,0.369,1.02,0.845,1.784c0.125,0.2,0.313,0.526,0.564,0.976c0.25,0.388,0.501,0.708,0.751,0.959
							c2.379,2.955,5.616,4.671,9.71,5.146c4.007,0.49,7.606-0.388,10.8-2.63c3.081-2.266,4.921-5.264,5.522-8.995
							c0.601-3.719-0.319-7.037-2.761-9.954c-2.541-3.031-5.778-4.79-9.71-5.278C96.388,163.512,92.788,164.395,89.582,166.649z
							 M44.019,194.107c0.526-0.914,0.845-2.598,0.957-5.053c0.138-2.192,0.776-3.75,1.916-4.677
							c-0.038-0.087-0.075-0.207-0.113-0.355c-0.05-0.214-0.088-0.37-0.113-0.47c-2.19,3.919-4.351,7.712-6.479,11.381
							c-1.552,2.517-2.51,5.033-2.874,7.55c-0.063,0-0.094,0.007-0.094,0.019s0.032,0.05,0.094,0.113
							c-0.463,2.154-0.507,4.433-0.131,6.837c0.238,1.877-0.482,3.957-2.16,6.237c-1.69,1.927-3.969,3.924-6.837,5.991l-7.418,5.278
							c-0.626,0.626-0.827,1.546-0.601,2.762c0.351,1.502,0.47,2.541,0.356,3.117l0.845,1.202c0.15-0.326,0.589-2.21,1.315-5.654
							l0.245-0.113l3.117,3.719l0.714,0.113c-0.075-0.338-0.1-1.052-0.075-2.141c0.038-1.277,0.143-2.798,0.319-4.564l0.356-0.244
							l0.244,1.07l1.428,1.802c1.002-2.403,3.562-6.042,7.681-10.911c2.893-4.344,3.487-8.383,1.784-12.115
							c-0.288-0.59-0.363-1.347-0.225-2.272c0.1-0.751,0.539-1.71,1.314-2.874C40.727,198.226,42.204,196.311,44.019,194.107z
							 M65.13,96.256c-11.306,11.77-18.343,26.795-21.11,45.075c-2.041,14.261-1.159,28.336,2.648,42.22 M94.617,215.799
							c-2.392-2.868-5.146-4.983-8.263-6.348c-1.227-0.562-2.467-0.845-3.719-0.845c-1.315-0.113-2.473,0.207-3.475,0.959
							c-1.828,1.34-2.51,3.499-2.047,6.479v0.355c0.088,0.64,0.37,1.596,0.845,2.874c0.814,1.853,2.011,3.813,3.587,5.879
							c2.48,2.942,5.24,5.021,8.282,6.235c2.341,1.039,4.339,1.24,5.992,0.601c0.326-0.075,0.564-0.157,0.713-0.245l0.488-0.356
							c1.828-1.34,2.511-3.5,2.047-6.479C98.554,221.765,97.071,218.729,94.617,215.799z M46.893,184.377
							c2.855,10.068,7.012,19.74,12.471,29.018c13.786,23.702,33.13,37.531,58.034,41.488c3.155,0.513,6.792,0.832,10.911,0.957
							 M211.774,183.552c-0.038,0.113-0.081,0.269-0.131,0.47c-0.038,0.163-0.075,0.281-0.114,0.355 M147.26,170.723
							c-1.603,2.58-2.16,5.416-1.671,8.509v0.244l0.244,0.959c0.564,3.093,2.316,5.691,5.259,7.794
							c3.205,2.242,6.806,3.118,10.798,2.63c3.982-0.475,7.219-2.19,9.71-5.146c2.403-3.006,3.362-6.368,2.874-10.086
							c-0.614-3.781-2.491-6.773-5.634-8.977c-3.193-2.267-6.786-3.15-10.781-2.648c-3.919,0.488-7.161,2.247-9.728,5.278
							L147.26,170.723z M179.282,209.564c1.841,1.353,2.517,3.512,2.029,6.479c-0.49,3.13-1.966,6.166-4.433,9.109
							c-2.491,2.967-5.209,5.046-8.15,6.235c-0.188,0.075-0.989,0.356-2.404,0.845c-1.866,0.326-3.505,0.044-4.921-0.845
							c-1.827-1.353-2.504-3.512-2.028-6.479c0.488-3.13,1.966-6.166,4.433-9.109c2.303-2.868,5.064-4.983,8.281-6.348
							C175.106,208.236,177.505,208.275,179.282,209.564z"/>
						<g>
							<line fill="none" stroke="#373535" stroke-width="1.7077" x1="128.31" y1="255.841" x2="127.709" y2="140.148"/>
						</g>
					</g>
				</g>
			</g>
		</g>
	</g>
</g>
<ellipse fill="#373535" cx="68.016" cy="135.928" rx="13.519" ry="14.5"/>
<ellipse fill="#373535" cx="129.991" cy="125.968" rx="18.714" ry="15.813"/>
<ellipse fill="#373535" cx="99.751" cy="176.913" rx="15.369" ry="14.5"/>
<ellipse fill="#373535" cx="160.874" cy="177.467" rx="15.44" ry="14.5"/>
<ellipse fill="#373535" cx="192.552" cy="134.505" rx="10.546" ry="14.5"/>
<ellipse transform="matrix(-0.6536 -0.7569 0.7569 -0.6536 -22.1572 430.3969)" fill="#373535" cx="87.421" cy="220.269" rx="15.763" ry="7.471"/>
<ellipse transform="matrix(0.6628 -0.7488 0.7488 0.6628 -107.7215 202.0512)" fill="#373535" cx="170.479" cy="220.63" rx="15.185" ry="8.274"/>
</svg>
