<?xml version="1.0" encoding="utf-8"?>
<!-- Generator: Adobe Illustrator 17.0.1, SVG Export Plug-In . SVG Version: 6.00 Build 0)  -->
<!DOCTYPE svg PUBLIC "-//W3C//DTD SVG 1.1//EN" "http://www.w3.org/Graphics/SVG/1.1/DTD/svg11.dtd">
<svg version="1.1" id="Layer_1" xmlns="http://www.w3.org/2000/svg" xmlns:xlink="http://www.w3.org/1999/xlink" x="0px" y="0px"
	 width="237.479px" height="250.859px" viewBox="16.262 7.256 237.479 250.859"
	 enable-background="new 16.262 7.256 237.479 250.859" xml:space="preserve">
<g id="Layer_3">
	<path fill="#FFFFFF" d="M245.76,9.689c-1.642,0-2.729,0.848-3.284,1.975c-1.078-0.417-2.366-0.459-3.823,0.074
		c-8.265,3.016-16.898,4.89-24.542,9.409c-0.506,0.299-0.917,0.641-1.287,0.999c-0.02,0.002-0.04,0.006-0.059,0.008
		c-1.584,0.187-2.839,0.858-3.772,1.791c-1.253-0.938-2.628-1.535-4.043-1.822c-1-1.164-2.304-2.088-3.897-2.655
		c-1.934-2.228-4.866-3.579-8.086-3.913c-7.538-0.78-12.663,2.634-19.465,4.821c-3.41,1.097-6.204,1.892-8.524,3.348
		c-0.317-0.558-0.825-1.054-1.597-1.411c-10.579-4.891-22.068-6.972-32.815-11.387c-3.404-1.399-5.704,2.995-4.347,5.655
		c1.042,2.044,2.71,3.705,4.333,5.376c-0.306,1.156-0.059,2.435,1.034,3.469c1.079,1.021,2.203,1.984,3.358,2.908
		c0.015,0.054,0.036,0.104,0.052,0.159c0.202,0.759,0.553,1.337,0.985,1.774c0.19,1.203,0.945,2.38,1.884,3.092
		c6.719,5.098,14.363,7.415,22.319,8.984c1.125,2.841,2.691,5.539,4.163,7.767c-1.166,0.773-2.233,1.842-3.132,3.249
		c-0.835,1.307-1.469,2.684-2.068,4.083c-2.452,0.165-4.851,1.104-6.564,2.801c-1.576-1.2-3.528-2.005-5.811-2.16
		c-1.005-0.068-2.013-0.108-3.02-0.142c-3.926-1.899-7.549-3.105-12.01-3.524c-1.205-0.113-2.344,0.029-3.396,0.37
		c-0.603-0.304-1.237-0.549-1.893-0.729c-2.337-0.642-4.376-0.348-6.459,0.407c-0.011,0.001-0.023,0.001-0.034,0.002l0.493-0.208
		c-0.236,0.087-0.473,0.155-0.709,0.222c-0.432,0.037-0.863,0.082-1.295,0.131c-0.565,0.033-1.128,0.075-1.692,0.133
		c-1.552-1.098-3.414-1.738-5.393-1.929c-1.646-1.483-3.892-2.43-6.753-2.43c-0.365,0-0.716,0.022-1.061,0.052
		c-0.596-0.243-1.221-0.453-1.907-0.582c-0.618-0.354-1.269-0.669-1.953-0.93c-0.509-0.195-1.029-0.364-1.544-0.544
		c-1.376-1.377-3.225-2.349-5.547-2.652c-0.223-0.176-0.437-0.36-0.679-0.517c-14.5-9.437-34.416-9.813-49.729-2.26
		c-2.015,0.993-3.988,2.29-5.829,3.805c-7.168,0.459-10.196,7.06-9.083,12.723c-0.352,1.075-0.623,2.166-0.789,3.271
		c-0.179,1.189-0.263,2.358-0.282,3.513c-1.247,0.659-2.219,1.926-2.071,3.368c0.339,3.293,0.366,6.592,0.366,9.899
		c0,1.695,0.905,2.797,2.086,3.335c-0.242,3.649-0.231,7.329-0.143,10.847c0.151,5.992,0.481,13.666,3.41,19.365
		c-0.195,0.478-0.393,0.957-0.581,1.438c-1.039,2.67-0.463,5.547,1.003,7.929c-0.097,0.343-0.173,0.696-0.224,1.057
		c-0.516,1.914-1.098,3.816-1.879,5.68c-0.146,0.348-0.257,0.701-0.345,1.055c-0.621,1.213-1.285,2.408-1.879,3.594
		c-3.192,3.576-5.506,7.775-5.791,12.506c-1.869,1.304-3.173,3.506-2.774,6.294c2.935,20.443,13.901,40.001,9.535,61.223
		c1.067,3.25,2.575,4.047,4.686,4.284c-0.068,0.343-0.12,0.697-0.136,1.076c-0.199,4.796,2.597,7.042,5.591,10.54
		c3.581,4.184,10.718,8.032,14.486,3.366c3.633-4.497,1.596-9.643-1.13-14.004c-1.134-1.815-2.425-3.534-3.679-5.265
		c-0.153-0.211-0.298-0.43-0.45-0.641c0.018-0.682-0.091-1.415-0.37-2.201c-0.517-1.452-1.076-2.878-1.639-4.295
		c0.007-0.111,0.02-0.216,0.022-0.33c0.102-6.001-2.204-11.425-2.984-17.289c-0.584-4.383-0.867-8.682-2.301-12.746
		c0.168-7.095,0.491-14.21-0.213-21.292c-0.031-0.305-0.085-0.594-0.15-0.875c1.277-4.537,3.015-8.971,4.853-13.343
		c2.1-1.38,3.754-3.548,4.823-6.1c1.649-3.933,2.069-8.314,3.384-12.323c0.665-0.587,1.271-1.267,1.795-2.046
		c1.676-2.49,4.383-3.983,6.316-6.329c1.154,0.453,2.397,0.658,3.689,0.507c0.137,0.355,0.304,0.682,0.456,1.022
		c-1.053,0.757-2.022,1.755-2.843,3.051c-3.804,5.999-8.45,12.429-10.002,19.464c-1.665,7.548,1.926,13.109,6.4,18.525
		c0.091,1.103,0.463,2.261,1.21,3.433c3.974,6.243,5.087,12.994,7.756,19.765c0.661,1.677,1.368,3.329,2.052,4.989
		c0.956,3.527,1.7,7.046,2.742,10.412c0.172,2.009,0.409,4.017,1.444,5.964c1.058,1.991,2.551,3.347,4.172,4.837
		c2.179,2.003,2.509,5.749,4.668,8.017c2.306,2.421,4.965,3.902,7.963,5.295c3.65,1.697,5.931,4.601,10.39,3.08
		c3.427-1.168,7.302-1.65,5.33-5.57c-1.972-3.92,0.23-1.087,0.184-0.703c-0.459-3.147-2.383-3.972-5.842-9.316
		c-0.133-0.217-0.273-0.434-0.433-0.651c-1.991-2.696-4.116-4.888-6.682-7.029c-0.565-0.472-1.124-0.919-1.66-1.37
		c-1.022-3.007-2.744-5.606-4.884-8.024c-0.005-0.114-0.007-0.233-0.015-0.346c-0.266-3.595-1.574-7.027-3.022-10.413
		c-0.064-0.224-0.124-0.452-0.191-0.673c-0.267-0.869-0.637-1.623-1.082-2.27c-0.78-1.808-1.528-3.612-2.102-5.431
		c-1.08-3.425-2.082-6.718-3.326-9.922c-0.261-1.907-0.456-3.819-0.573-5.738c1.094-2.459,1.091-5.176,0.181-7.706
		c0.94-3.832,4.029-7.168,5.946-10.502c0.664-0.618,1.284-1.3,1.821-2.069c1.265-1.809,3.891-2.498,4.909-4.449
		c0.833-0.771,1.831-4.612,2.475-5.499c2.123,1.46,2.709,4.417,5.725,5.175c4.547,1.143,4.306,2.258,8.848,3.349
		c-0.206,1.398,4.556,2.952,4.772,4.427c0.372,2.529,1.079,7.497,2.887,10.929c0.384,0.728,0.874,1.417,1.435,2.064
		c0.067,1.599,0.527,3.166,1.498,4.535c0.114,0.161,0.69,1.291,0.901,1.583c0.1,0.519,0.219,1.17,0.267,1.279
		c0.037,0.859,0.022,1.723-0.007,2.581c0.004-0.12-0.255,2.571-0.176,2.238c-0.738,5.113-1.925,10.143-2.563,15.277
		c-0.68,5.472-0.106,10.427,1.818,14.636c-1.313,2.229-1.789,4.969-1.381,7.728c-0.003,0.104-0.003,0.235,0.001,0.431
		c0.003,0.112-0.003,0.252-0.015,0.399c-0.107,0.439-0.23,0.874-0.363,1.304c-0.014,0.047-0.022,0.076-0.035,0.117
		c-0.988,2.148-1.359,4.451-1.09,6.627c-4.144,4.058-5.935,9.441-6.374,15.055c-0.006,0.015-0.013,0.03-0.019,0.046
		c-0.464,1.342-0.436,2.643-0.081,3.853c0.045,1.946,0.219,3.884,0.486,5.778c-4.075,7.299-1.203,17.485,7.172,20.371
		c0.256,0.088,0.503,0.144,0.751,0.207c0.462,1.361,1.626,2.452,3.495,2.452c2.461,0,3.699-1.892,3.72-3.8
		c4.815,2.46,11.755-2.71,8.104-8.236c-1.983-3-4.299-5.748-5.213-9.279c-1.091-4.214-0.507-9.865,0.063-14.299
		c0.705-1.258,1.362-2.544,1.841-3.922c1.303-0.449,2.502-1.149,3.493-2.085c-0.056,0.352-0.092,0.718-0.091,1.11
		c0.009,2.101,0.098,4.148,0.367,6.233c0.323,2.508,1.764,5.142,4.244,5.868c-0.298,1.171-0.495,2.372-0.579,3.665
		c-0.329,5.063,5.529,5.564,9.361,3.9c-1.329,0.576-0.945,1.525,0.862,2.267c1.233,0.505,2.443,0.914,3.8,0.95
		c2.491,0.068,4.465-3.319,6.701-4.411c4.965-2.424,0.621-5.338-2.211-8.663c-2.372-2.787-2.255-4.444-4.593-7.089
		c-0.02-6.145-0.133-12.283-0.55-18.414c0.411-1.422,0.801-2.766,1.077-3.961c0.106-0.453,0.161-0.891,0.174-1.31
		c1.248-1.591,1.586-3.827,1.046-5.788c1.665-1.387,2.338-3.689,2.016-5.819c0.096-0.309,0.199-0.61,0.273-0.944
		c0.179-0.806,0.332-1.619,0.482-2.43c1.489-1.659,2.443-3.967,2.458-6.947c0.021-3.737-0.537-7.457-1.213-11.143
		c0.231-6.777-0.322-14.308,3.452-19.879c0.764-1.13,1.257-2.25,1.535-3.344c3.062-0.911,6.062-2.206,9.013-3.907
		c1.593-0.917,2.76-2.05,3.579-3.298c3.748-0.829,7.248-3.469,7.821-7.345c0.044-0.297,0.101-0.571,0.161-0.824
		c3.381-2.369,5.972-5.285,7.813-9.054c3.863-7.901,5.04-17.05,9.304-24.655c1.381-2.463,1.672-4.868,1.223-7.029
		c1.459-3.027,2.337-6.462,3.187-9.656c0.131-0.491,0.294-0.98,0.472-1.468c3.714-3.058,5.707-6.645,6.07-10.961
		c3.086-6.64,6.537-14.011,6.939-21.305c0.839,0.464,1.786,0.705,2.783,0.602c4.922-0.508,8.909-2.428,12.257-5.47
		c6.503-3.126,12.182-7.86,16.797-14.39c0.963-1.363,1.232-2.707,1.032-3.92C250.553,14.822,249.816,9.689,245.76,9.689z"/>
</g>
<g id="Layer_1_2_">
	<g>
		<g id="Layer_1_1_">
			<g>
				<g id="Layer_1_3_">
					<g>
						<g>
							<path fill="#373535" d="M166.554,40.976c-0.106,0.287-0.157,0.665-0.157,1.136c0,0.208,0.163,0.496,0.489,0.862
								c-0.327,0.327-0.489,0.712-0.489,1.156c0,0.64,0.111,0.783,0.333,0.431c0.222-0.079,0.706-0.549,1.45-1.411
								c0.169-0.169,0.28-0.3,0.333-0.392c0.104-0.144,0.287-0.36,0.549-0.647h-0.216c0.104-0.392,0.157-0.758,0.157-1.098
								l-1.077-0.921h0.157c0.104-0.065,0.176-0.098,0.214-0.098c0.797,0,1.431,0.399,1.902,1.196
								c0.196,0.353,0.398,0.947,0.607,1.783l0.157,2.606c-0.066,1.098-0.203,1.894-0.411,2.39
								c-0.274,0.679-0.738,1.018-1.391,1.018c-0.718,0-1.424-0.222-2.116-0.667c-0.745-0.496-1.196-1.098-1.352-1.803l-0.431-1.959
								c0.038-0.653,0.235-1.418,0.587-2.292C166.097,41.708,166.332,41.277,166.554,40.976z"/>
							<path fill="#373535" d="M210.206,41.681c0-0.601-0.053-1.163-0.157-1.685c0.405,0.536,0.745,1.058,1.018,1.567
								c0.458,0.757,0.764,1.848,0.922,3.272c0,0.824-0.071,1.438-0.216,1.842c-0.026,0.078-0.112,0.202-0.254,0.372
								c-0.615,1.058-1.34,1.587-2.176,1.587c-1.319,0-2.058-0.04-2.214-0.118c-0.549-0.3-0.922-1.26-1.117-2.881
								c-0.131-1.149-0.025-2.135,0.313-2.957c0.287-0.706,0.692-1.169,1.214-1.391c0,0.078,0.02,0.151,0.059,0.216l0.214,0.333
								c-0.471,0.47-0.705,0.848-0.705,1.136c0,0.692,0.104,0.874,0.312,0.549c0.313,0,0.771-0.274,1.372-0.823
								c0.066,0.04,0.157,0.059,0.274,0.059c0.706,0,1.084-0.124,1.137-0.373v-0.706H210.206z"/>
							<path fill="#373535" d="M190.046,63.155c2.011,0,3.094,1.032,3.252,3.095v0.529c0.274,1.241,0.169,2.07-0.313,2.488
								c-0.379,0.34-0.928,0.398-1.645,0.176c-0.144-0.025-0.25-0.058-0.315-0.098c-0.039-0.183-0.058-0.562-0.058-1.136
								c-0.117-0.549-0.483-0.823-1.097-0.823c-1.084,0-1.627,0.581-1.627,1.743c0,0.287,0.144,0.738,0.432,1.352
								c0,0.013-0.489,0.431-1.469,1.254c-0.169,0.038-0.496,0.058-0.98,0.058c-1.28,0-1.998-0.47-2.156-1.41
								c0.091-0.653,0.104-1.182,0.04-1.587v-0.333h-0.04c-0.157-0.444-0.503-0.64-1.038-0.587c-0.365,0-0.66,0.071-0.881,0.216
								c0,0.222,0.162,0.673,0.489,1.352c-0.04,0.066-0.04,0.124,0,0.177c-0.262,0.392-0.62,0.587-1.078,0.587
								c-0.249,0-0.431-0.02-0.548-0.058c-0.471-0.34-0.797-0.627-0.98-0.862c-0.026-0.038-0.04-0.091-0.04-0.156l-0.235-1.194
								c0-0.667,0.013-1.091,0.04-1.274c0.052-0.405,0.189-0.816,0.411-1.234c0.117-0.549,0.516-1.051,1.194-1.509
								c0.313-0.222,0.489-0.313,0.529-0.275c0.601-0.327,1.325-0.489,2.176-0.489c0.692,0,1.672,0.268,2.939,0.803
								C187.714,63.958,188.713,63.69,190.046,63.155z"/>
							
								<path fill="none" stroke="#373535" stroke-width="1.6498" stroke-linecap="round" stroke-linejoin="round" stroke-miterlimit="3" d="
								M245.589,11.137c0.692,0,1.815-0.184,3.369-0.549h0.921 M241.788,16.408c-2.169,0.353-5.14,0.64-8.914,0.862
								c-0.64,0-1.241,0.071-1.803,0.216c-0.692,0.157-1.274,0.34-1.743,0.549c-1.529,0.536-3.298,1.405-5.31,2.606l-0.274,0.157
								c-1.267,0.797-2.226,1.418-2.88,1.861c-0.13,0.078-0.528,0.345-1.194,0.803c-0.444,0.313-0.829,0.607-1.156,0.881
								c-1.764,1.058-3.214,2.143-4.35,3.252c-0.313,0.327-0.634,0.784-0.96,1.372c-0.299,0.549-0.45,0.908-0.45,1.078l0.176,6.191
								c0.693,0.809,1.287,1.738,1.783,2.782c0.249,0.444,0.471,1.006,0.665,1.685c5.316,1.045,11.402-0.824,18.261-5.604
								c0.496-0.418,1.11-0.869,1.841-1.352l1.312-1.196c3.788-3.252,6.72-6.589,8.798-10.012l0.763-1.411
								c0.601-1.201,1.182-2.612,1.743-4.232c0.209-0.757,0.444-1.705,0.706-2.841c1.005-0.653,1.111-1.176,0.313-1.567
								c0.327-0.078,0.98-0.202,1.959-0.372h1.842 M250.701,14.762l-2.606,2.135 M246.51,9.668c-3.239,0.954-5.12,1.547-5.643,1.783
								c-1.489,0.104-2.957,0.359-4.408,0.763c-2.141,0.587-4.826,1.496-8.052,2.723c-2.324,0.745-4.898,1.652-7.719,2.723
								c-5.891,2.129-9.915,3.775-12.07,4.937l-0.471,0.333 M219.393,36.353c1.072-0.287,1.959-0.582,2.665-0.882
								c0.261-0.065,0.496-0.098,0.706-0.098c3.083-0.627,5.818-1.659,8.209-3.095c0.249-0.209,0.463-0.353,0.647-0.431
								c0.914-0.667,1.763-1.378,2.546-2.136c1.398-1.266,2.684-2.637,3.86-4.115l0.333-0.333c1.959-1.985,3.337-3.559,4.133-4.722
								 M207.972,22.972l-0.214,0.176v-0.058c-0.079-0.078-0.131-0.118-0.157-0.118c-0.602-0.574-1.744-1.405-3.429-2.488
								 M215.593,29.339c-0.758,1.776-1.196,2.717-1.312,2.821 M215.378,40.702c0.144,0.653,0.249,1.358,0.313,2.116v0.431
								c0,0.196-0.032,0.796-0.098,1.803c-0.275,3.488-1.274,6.602-2.998,9.345c-1.868,2.834-2.879,6.022-3.038,9.561
								c-0.038,0.261-0.058,0.627-0.058,1.097c-0.849,1.358-2.064,3.207-3.644,5.545l-3.918,5.486l-1.587,1.979
								c0.04,0.483-0.065,1.528-0.312,3.135c-0.536,3.866-1.443,7.85-2.724,11.951c-1.997,6.243-3.174,9.9-3.526,10.972
								 M207.541,41.29c-0.901,0.379-1.41,1.829-1.529,4.35v0.823c0,0.366,0.274,1.144,0.823,2.332
								c2.703,0.601,4.349-0.104,4.937-2.116c0.144-0.405,0.216-1.018,0.216-1.842c-0.157-1.423-0.464-2.514-0.922-3.272
								c-0.274-0.509-0.614-1.032-1.018-1.567 M246.353,21.13c0.706-0.705,1.3-1.136,1.783-1.292 M130.152,8.845
								c2.455,1.476,3.794,2.325,4.016,2.547c1.293,0.209,2.959,0.574,4.997,1.098c2.625,0.627,4.982,1.3,7.073,2.017
								c3.448,1.189,6.543,2.508,9.286,3.958c2.795,1.501,5.33,3.135,7.602,4.898l1.803,1.529c1.476-2.364,5.211-4.702,11.206-7.014
								c2.35-0.967,4.741-1.803,7.171-2.508c2.403-0.692,4.415-1.038,6.034-1.038c1.438,0,3.265,0.438,5.485,1.312h0.059
								c1.645,0.601,3.344,1.378,5.094,2.332c1.645,0.889,2.879,1.613,3.702,2.174 M160.305,30.69v3.761 M24.003,55.65l0.705-1.038
								c2.39-3.252,5.27-6.368,8.64-9.345c0,0.667-0.398,1.352-1.194,2.058c3.97-2.678,7.138-4.017,9.502-4.017
								c4.82-3.997,13.375-6.407,25.665-7.229c4.911,0,18.893,5.075,41.947,15.223l3.154,0.98
								c4.872,1.149,11.886,1.692,21.042,1.627c1.868,0.196,5.577,1.208,11.128,3.037c3.957,1.332,7.438,1.803,10.442,1.411
								c0.131-0.078,0.313-0.151,0.549-0.216c1.319-0.823,2.475-2.05,3.467-3.683c0.627-1.098,1.77-3.219,3.429-6.368l-1.02-2.272
								c-0.143-0.378-0.398-0.98-0.763-1.803c-0.091-0.118-0.163-0.28-0.216-0.489l-0.176-0.274l-0.706-1.744
								c0-0.98,0.295-2.155,0.882-3.527c0-0.143,0.013-0.254,0.04-0.332c0-0.066,0.02-0.118,0.058-0.157
								c0.091-0.287,0.307-0.758,0.647-1.411c1.071-2.194,1.541-3.788,1.411-4.78c-0.053-0.497-0.36-1.169-0.922-2.018
								c-0.249-0.327-0.626-0.745-1.136-1.254c-2.194-2.351-5.237-4.578-9.13-6.68c-0.992-0.562-1.934-1.065-2.821-1.509
								c-1.436-0.64-2.651-1.13-3.644-1.469c-1.959-0.627-3.611-0.94-4.956-0.94c-0.209,0-0.496-0.033-0.862-0.098
								c-0.574,0-1.045-0.02-1.41-0.059c-1.098-0.196-2.13-0.359-3.096-0.489 M158.738,37.489c-1.071-0.849-2.592-1.574-4.564-2.176
								c-0.94-0.287-1.666-0.522-2.175-0.705l-2.606-0.823c-1.555-0.64-3.076-1.489-4.564-2.547
								c-0.967-0.705-2.202-1.776-3.703-3.213c-0.535-0.588-1.62-1.711-3.252-3.37l-0.823-0.862 M168.083,40.094h-0.157
								c-0.379,0.053-0.725,0.235-1.038,0.55c-0.078,0.038-0.151,0.111-0.216,0.216c-0.287,0.287-0.489,0.522-0.607,0.705
								c-0.496,0.836-0.803,1.926-0.922,3.272c0,0.824,0.112,1.547,0.334,2.175c0.601,1.803,2.193,2.397,4.78,1.783
								c0.471-1.149,0.706-1.926,0.706-2.332l-0.157-3.487c-0.208-0.836-0.411-1.43-0.607-1.783 M160.148,43.25
								c-0.169-0.066-0.3-0.098-0.392-0.098V42.76l-2.116,0.176 M160.481,43.524V43.25c-0.052-0.053-0.111-0.053-0.176,0
								 M200.35,78.064l-1.018,1.274c-2.574,3.03-4.728,4.989-6.466,5.878c-2.39,1.163-4.604,1.743-6.641,1.743
								c-3.697,0-7.713-2.305-12.05-6.916c-1.41-1.502-2.788-3.186-4.133-5.055c-0.392-0.536-0.627-0.894-0.706-1.078L167.22,70.6
								c-0.169-0.287-0.352-0.673-0.549-1.156c-0.535-1.005-0.914-2.541-1.136-4.604l-0.235-3.154
								c-0.038-1.907-0.091-3.592-0.157-5.055c-0.104-1.723-0.176-2.703-0.214-2.939c-1.164-2.612-1.959-4.427-2.391-5.446
								c-0.038-0.025-0.058-0.078-0.058-0.157 M190.75,64.722c0.653-0.378,1.358-0.104,2.116,0.824
								c0.04,0.04,0.184,0.275,0.432,0.705c0.287,0.509,0.431,1.051,0.431,1.627v0.489c-0.104,0.418-0.32,0.778-0.647,1.077
								c-0.405,0.366-1.058,0.601-1.959,0.706c-0.066-0.169-0.099-0.438-0.099-0.803c-0.039-0.183-0.058-0.562-0.058-1.136
								c-0.117-0.549-0.483-0.823-1.097-0.823c-1.084,0-1.627,0.581-1.627,1.743c0,0.287,0.144,0.738,0.432,1.352
								c0,0.013-0.489,0.431-1.469,1.254l-0.706,0.549c-1.293,0-2.123-0.509-2.489-1.528c0.04-0.104,0.059-0.229,0.059-0.372
								c0.091-0.653,0.104-1.182,0.04-1.587c0-0.143-0.014-0.254-0.04-0.333c-0.157-0.444-0.503-0.64-1.038-0.587
								c-0.365,0-0.66,0.071-0.881,0.216c0,0.222,0.162,0.673,0.489,1.352c-0.04,0.066-0.04,0.124,0,0.177
								c-0.04,0.614-0.398,0.921-1.078,0.921l-0.548-0.392c-0.471-0.34-0.797-0.627-0.98-0.862
								c-0.392-0.522-0.569-0.881-0.529-1.077c-0.117-0.665-0.117-1.194,0-1.587c0-0.366,0.104-0.653,0.313-0.862 M202.485,68.248
								c-0.705,1.385-1.901,2.078-3.584,2.078h-0.158c-0.299,0.927-0.646,1.815-1.037,2.664c-0.889,1.803-2.143,3.395-3.761,4.78
								c-1.084,0.98-2.208,1.738-3.37,2.272c-1.319,0.588-2.71,0.915-4.173,0.98c-1.829,0-3.73-0.665-5.703-1.998
								c-0.431-0.261-0.829-0.554-1.194-0.882c-1.032-0.848-2.031-1.848-2.998-2.997c-1.438-1.725-2.508-3.474-3.213-5.251
								c-0.066,0.025-0.169,0.111-0.313,0.254c-1.529-0.104-2.652-0.392-3.37-0.862 M153.134,127.671l-2.508,4.996 M160.148,132.06
								c-0.823,0.927-1.456,1.58-1.901,1.959 M191.887,111.076c0-2.207-0.02-3.761-0.058-4.663
								c-0.106-1.057-0.177-1.802-0.216-2.233c-0.066-0.784-0.169-1.438-0.313-1.959 M190.046,116.19l-0.549-3.586
								c-0.131-0.378-0.222-0.705-0.274-0.98c-0.209-0.954-0.353-1.547-0.432-1.783 M183.736,125.007
								c1.214-2.547,1.972-4.468,2.272-5.76c0.117-0.483,0.176-0.869,0.176-1.156c-0.091-0.313-0.163-0.653-0.214-1.018
								c-0.3-1.202-0.451-1.914-0.451-2.136 M175.41,132.06c1.489-1.477,2.775-2.867,3.859-4.173
								c1.045-1.45,1.861-2.736,2.449-3.859c0.366-0.94,0.602-1.652,0.706-2.136 M125.842,19.993l2.508,1.685
								c-0.47-0.797-0.907-1.665-1.312-2.606c-1.607-3.121-2.272-6.08-1.998-8.876l-1.685-1.352 M125.842,8.081
								c2.287,1.633,3.775,2.541,4.468,2.723c-2.155-0.352-3.912-0.587-5.27-0.705v0.098l1.352,0.94 M128.683,24.931
								c0.144,0.3,1.339,1.189,3.585,2.664c-1.345-1.697-2.652-3.67-3.918-5.916 M27.098,54.612
								c-0.757,0.405-1.227,0.64-1.411,0.705c-0.443,0.209-0.665,0.842-0.665,1.901c0,1.672,0.346,2.161,1.038,1.469
								c0,0.444-0.046,1.018-0.137,1.723c0.013,0.588,0.333,1.111,0.96,1.567c0.348-0.823,0.727-1.665,1.136-2.527
								c2.912-6.217,6.682-10.854,11.304-13.91c0.078-0.091,0.202-0.203,0.372-0.333c0.549-0.627,1.202-1.26,1.959-1.901
								 M25.414,97.107V94.56c0-0.118,0.033-0.209,0.098-0.274c0.131-0.718,0.222-1.313,0.275-1.784
								c-0.04-0.143-0.059-0.294-0.059-0.451c-0.679-0.417-1.018-0.848-1.018-1.292c0.144-0.509,0.32-1.235,0.529-2.175
								c-0.757-6.478-1.136-11.48-1.136-15.007c0-3.304,0.927-7.17,2.782-11.598 M26.648,88.801
								c-0.118,0.405-0.366,1.456-0.745,3.154v0.098c0,0.066-0.04,0.216-0.118,0.451c0.052,0.575,0.144,1.221,0.275,1.94
								l0.333,2.077c1.45,10.032,2.174,17.528,2.174,22.492c0,4.076-1.907,9.496-5.72,16.261c-2.051,3.592-3.501,6.617-4.35,9.072
								c-0.94,2.717-1.411,4.964-1.411,6.739c0,1.136,0.653,3.292,1.959,6.466c1.267,3.252,1.901,5.989,1.901,8.209
								c1.398,7.523,2.592,14.119,3.586,19.787c0.483,2.782,0.778,4.435,0.882,4.957c0,0.118,0.033,0.295,0.098,0.529
								c0.757,5.015,1.136,12.375,1.136,22.079c0,3.697,1.705,5.486,5.113,5.368v0.176c-0.066,0.261-0.137,0.64-0.216,1.136
								c-0.104,0.758-0.052,1.535,0.157,2.332c0,0.235,0.059,0.489,0.177,0.763l0.705,2.058c0,0.078,0.02,0.151,0.059,0.214
								c0.025,0.04,0.038,0.118,0.038,0.235l3.116,4.232 M25.726,92.052c-0.183-1.411-0.345-2.566-0.489-3.468
								c0.94-3.761,1.411-6.426,1.411-7.994 M155.583,235.114c0.914,0,2.018-0.432,3.312-1.293
								c-1.516-3.892-3.907-7.393-7.172-10.501c-2.025-2.025-3.037-5.538-3.037-10.541c0-8.097,0.411-15.288,1.234-21.57
								c0.053-0.379,1.287-3.278,3.703-8.699c0.471-1.098,0.816-1.881,1.038-2.351v-0.098c0-0.04,0.013-0.059,0.038-0.059
								c1.529-3.853,2.292-6.805,2.292-8.856c-0.901-8.307-1.352-13.075-1.352-14.302c0-4.609,0.431-8.248,1.292-10.913
								c0.222-0.731,0.673-1.645,1.352-2.742c0.587-0.981,1.117-1.738,1.587-2.272l-1.078,0.333h-0.058
								c-0.288,0-0.51,0.02-0.667,0.058c-0.025,0-0.038,0.021-0.038,0.059c-1.501,0.275-3.461,0.562-5.878,0.862
								c-0.066,0-0.176,0.038-0.333,0.117l-3.292,0.432c-1.673,0.221-2.992,0.345-3.958,0.372c-0.998,2.206-2.586,5.431-4.76,9.679
								c-2.129,4.715-3.193,8.79-3.193,12.225c0,1.582,0.327,3.41,0.98,5.486c0.653,2.155,0.98,3.951,0.98,5.387
								c0,0.169-0.529,1.997-1.587,5.485v0.059l-1.352,4.232c-0.04,0.04-0.059,0.112-0.059,0.216
								c-0.078,0.078-0.118,0.136-0.118,0.176c-0.966,3.148-1.743,5.629-2.331,7.446c-2.783,8.79-4.487,15.255-5.113,19.396
								c-0.026,0.04-0.04,0.098-0.04,0.176c-0.157,0.875-0.235,1.705-0.235,2.489l-0.647,19.454c0,1.02,0.96,3.448,2.881,7.289
								c1.881,3.814,2.821,6.263,2.821,7.347c-0.013,0.104-0.099,0.372-0.255,0.803c-1.163,2.834-2.448,4.251-3.859,4.251
								c-0.313,0-0.66-0.059-1.038-0.176c-0.901-0.3-1.842-0.791-2.821-1.469c-0.078,0.117-0.189,0.249-0.332,0.392l-0.588-0.608
								c-0.066,1.346-0.287,2.364-0.667,3.056c-0.483,0.901-1.189,1.352-2.116,1.352h-0.372l-1.254-0.157
								c-2.469-0.548-5.46-2.18-8.973-4.898l-0.706-0.549c-0.117-0.157-0.32-0.332-0.607-0.528
								c-3.761-3.227-5.642-6.256-5.642-9.091c0-1.293,0.418-3.213,1.254-5.76l0.216-0.705c0.692-2.078,1.038-3.547,1.038-4.408
								l-0.176-0.706c-0.718-2.652-1.077-4.428-1.077-5.33c0-0.783,0.45-2.267,1.352-4.447c0.47-1.214,0.778-1.98,0.921-2.292
								l0.058-0.04c0.091-0.261,0.235-0.587,0.431-0.98c1.476-3.213,2.599-5.428,3.369-6.642c0.066-0.235,0.137-0.398,0.216-0.489
								c1.62-2.415,2.619-5.256,2.998-8.522v-0.275l0.156-1.841c0.118-2.56,0.32-4.736,0.607-6.525c0-0.078,0.033-0.3,0.098-0.665
								c0-0.901-0.091-1.861-0.275-2.879v-0.313c-0.249-1.333-0.569-2.711-0.96-4.134c-0.914-2.912-1.372-5.251-1.372-7.014
								c0-1.855,0.653-4.866,1.96-9.032c1.267-4.272,1.901-7.818,1.901-10.639c0-0.144-0.509-1.738-1.529-4.781
								c-0.261-0.745-0.803-2.397-1.627-4.957c-0.783-2.546-1.307-4.324-1.567-5.329c-0.747-2.95-1.246-5.602-1.499-7.954
								c-0.873-0.08-2.125-0.399-3.753-0.96c-1.554-0.549-2.834-1.09-3.841-1.627c-2.612-1.476-4.369-2.364-5.27-2.665
								c-2.469-1.332-4.552-2.383-6.25-3.154c-0.522,0.796-0.973,1.45-1.352,1.959c-1.829,2.783-4.31,5.989-7.445,9.62
								c-3.513,4.062-5.27,8.758-5.27,14.087c0,6.806,4.872,21.349,14.616,43.632c2.194,2.259,5.166,5.975,8.914,11.148
								c1.398,1.932,2.665,3.742,3.801,5.427c1.711,2.769,2.566,4.546,2.566,5.33c0,0.587-0.619,1.209-1.861,1.861
								c-0.078,0.025-0.242,0.117-0.489,0.274l-0.216,0.04c-0.288-0.328-0.667-0.725-1.136-1.196
								c0.065,0.443,0.229,0.954,0.489,1.529c0,1.919-0.725,2.879-2.175,2.879h-0.607c-1.92-0.157-5.198-1.189-9.835-3.095
								c-5.942-2.338-9.163-4.493-9.659-6.465c-0.601-2.169-1.855-4.128-3.761-5.879c-2.103-1.881-3.39-3.513-3.859-4.898
								c-1.62-7.601-2.866-12.271-3.742-14.008c-2.809-5.604-5.8-13.212-8.974-22.825l-6.407-10.835
								c-2.05-3.474-3.501-6.335-4.35-8.582c-0.874-2.259-1.312-4.16-1.312-5.702c0-0.939,0.254-2.116,0.764-3.526
								c0.392-1.266,0.954-2.574,1.685-3.918c0.522-1.084,1.411-2.718,2.665-4.899c2.428-3.997,4.258-7.236,5.486-9.717
								c0.823-1.841,1.352-3.115,1.587-3.821c0-0.066,0.013-0.098,0.038-0.098 M60.346,114.936
								c-3.41,2.012-7.34,7.791-11.795,17.339l-1.45,3.214c-0.209,0.392-0.36,0.718-0.45,0.98l-0.04,0.059
								c-4.82,11.05-7.229,19.729-7.229,26.038c0,10.671,1.463,21.917,4.388,33.738c0.862,3.487,1.934,8.776,3.213,15.87
								c0.026,0.13,0.209,0.496,0.549,1.097c0.705,1.084,1.861,2.553,3.468,4.408c1.998,2.313,2.998,5.029,2.998,8.151
								c0,2.063-0.164,3.709-0.489,4.936c-0.483,1.986-1.372,3.004-2.665,3.056h-0.118c-0.327-0.209-0.647-0.373-0.96-0.489
								c-0.078-0.04-0.189-0.059-0.333-0.059c-0.209,1.189-1.025,1.783-2.449,1.783h-0.549l-2.665-0.528
								c-0.405-0.158-0.98-0.411-1.723-0.764c-1.646-0.797-3.39-1.849-5.231-3.154c-0.3-0.235-0.569-0.47-0.804-0.705
								 M90.948,127.005c-3.775-1.698-6.452-2.547-8.032-2.547c-0.758,0.849-2.351,0.431-4.781-1.254
								c-2.769-2.169-4.473-3.252-5.113-3.252c-0.824,2.168-1.438,3.252-1.842,3.252c-1.006-0.667-2.188-1.646-3.546-2.939
								c-0.392-0.34-0.698-0.647-0.921-0.921l-0.157-0.156c-0.065-0.066-0.156-0.137-0.274-0.216
								c-0.144-0.144-0.235-0.255-0.275-0.333c-1.018-1.018-2.103-1.835-3.252-2.449c-0.731-0.378-1.293-0.634-1.685-0.764
								 M111.716,96.52c-1.189,0.824-1.62,2.129-1.292,3.919 M114.381,99.674l-0.862,2.116c-0.04,0-0.058,0.02-0.058,0.058
								c-0.327,0.809-0.601,1.514-0.823,2.116l-0.216,0.764 M115.086,108.373l1.196,0.216c-0.222,0.392-0.346,0.66-0.373,0.803
								l-0.489,0.764v0.058c-0.862,1.516-1.645,3.201-2.351,5.055c-2.09,5.264-3.135,10.861-3.135,16.791
								c0,1.058,0.013,1.854,0.038,2.39c0.025,0.313,0.055,0.634,0.089,0.96 M130.857,184.233c-1.346,1.567-2.129,2.514-2.351,2.841
								l-0.313,1.077 M132.798,183.586c0,0.366-0.013,0.673-0.04,0.921c-0.038,0.04-0.059,0.131-0.059,0.275
								c-0.038,0.039-0.077,0.059-0.117,0.059v0.117l-0.04,0.216c-0.247,0.679-0.573,1.403-0.98,2.174 M56.33,140.661
								c-0.601,1.163-0.529,2.207,0.216,3.135l0.176,0.176c0.549,0.731,1.542,1.652,2.978,2.763c0,0.967-0.184,2.181-0.549,3.644
								c-0.066,0-0.098,0.038-0.098,0.117c0,0.509,0.398,1.522,1.194,3.038 M48.18,230.059c0.874,0.77,1.312,1.567,1.312,2.39
								c0,0.365-0.02,0.64-0.059,0.823c-0.287-0.078-0.47-0.117-0.549-0.117l0.392-0.373l0.216-0.333 M129.604,210.879
								c0,0.418-0.202,1.163-0.607,2.233c0,2.574,0.438,5.29,1.312,8.15c1.045,3.056,2.096,4.67,3.154,4.839l0.763,6.132
								c0.026,0.106,0.078,0.235,0.157,0.392c1.032,3.723,2.736,5.584,5.113,5.584c0.797,0,2.37-0.634,4.722-1.902l2.508,1.255
								c1.202,0.587,2.254,0.985,3.154,1.194c0.249,0.04,0.569,0.059,0.96,0.059c1.868,0,2.997-0.059,3.389-0.176
								c1.098-0.366,1.568-1.339,1.411-2.919l-0.608-0.665 M121.983,242.068c0.509,0.458,1.149,1.58,1.92,3.37
								c0.823,2.011,1.234,3.735,1.234,5.171c0,1.189-0.104,2.018-0.313,2.489 M103.076,219.186
								c-0.104-0.249-0.157-0.483-0.157-0.706h-0.607L103.076,219.186z M159.874,140.915h0.274l1.783-0.529
								c5.355-1.815,9.201-4.806,11.54-8.973 M151.88,132.666l-5.702,5.76c-0.431,0.431-0.724,0.973-0.882,1.627
								c-0.091,0.405-0.214,1.168-0.372,2.292c-0.11,0.251-0.227,0.519-0.353,0.803 M150.626,178.474
								c-2.861,3.735-4.342,5.655-4.448,5.759 M157.483,42.935c-10.357-1.436-18.762-6.551-25.215-15.341"/>
						</g>
					</g>
				</g>
			</g>
		</g>
	</g>
</g>
</svg>
