<?xml version="1.0" encoding="utf-8"?>
<!-- Generator: Adobe Illustrator 17.0.1, SVG Export Plug-In . SVG Version: 6.00 Build 0)  -->
<!DOCTYPE svg PUBLIC "-//W3C//DTD SVG 1.1//EN" "http://www.w3.org/Graphics/SVG/1.1/DTD/svg11.dtd">
<svg version="1.1" id="Layer_1" xmlns="http://www.w3.org/2000/svg" xmlns:xlink="http://www.w3.org/1999/xlink" x="0px" y="0px"
	 width="176.6px" height="254.042px" viewBox="48.113 5.571 176.6 254.042" enable-background="new 48.113 5.571 176.6 254.042"
	 xml:space="preserve">
<g id="Layer_3">
	<path fill="#FFFFFF" d="M148.452,105.315c-1.231-2.782-2.331-5.661-3.495-8.512c0.891-9.006,1.081-18.067,0.224-26.914
		c-0.244-2.516-1.394-4.66-3.133-6.003c0.522-1.196,0.966-2.425,1.386-3.678c0.488-0.431,0.875-0.988,1.076-1.676
		c0.452-1.55,0.604-2.616,0.672-4.224c0.097-2.324-1.567-3.526-3.365-3.608c1.238-2.76,1.753-5.619,1.665-8.506
		c0.044-0.07,0.092-0.134,0.135-0.206c1.914-3.268,1.032-8.588-2.698-10.292c-0.114-0.052-0.228-0.098-0.341-0.148
		c-0.064-0.126-0.119-0.251-0.185-0.377c-2.628-5.056-8.188-4.515-11.426-1.47c-1.816,0.283-3.637,0.859-5.472,1.76
		c-4.25,2.09-7.323,6.451-8.716,10.866c-1.63,5.168,0.148,10.485,4.569,13.542c2.562,1.771,5.639,1.869,8.632,1.18
		c-0.638,0.833-1.254,1.694-1.844,2.58c-0.917-0.865-2.006-1.516-3.132-1.826c-4.314-1.186-7.699,1.462-9.253,5.254
		c-5.182,12.645-16.904,21.579-25.955,31.337c-4.597,4.957-8.201,10.391-11.939,15.977c-3.315,4.955-7.98,8.926-11.249,13.971
		c-3.166,4.885-3.775,11.666-1,16.771c3.304,6.08,11.611,5.93,16.255,1.822c0.563,2.348,2.137,3.882,4.066,4.62
		c1.688,2.911,5.116,3.815,8.155,3.068c0.761,5.304,1.686,10.585,2.862,15.831c1.943,8.674,14.261,6.118,14.775-2
		c0.253-3.987,0.091-8.001-0.177-12.023c3.018,0.732,6.292-0.17,7.747-3.521c0.523-1.206,0.999-2.419,1.455-3.636
		c0.36-0.565,0.674-1.199,0.916-1.921c0.414-1.238,0.831-2.475,1.255-3.706c1.291,0.016,2.62-0.276,3.885-0.933
		c5.357-2.781,9.011-6.613,11.741-11.049c1.943-0.776,3.531-2.322,4.074-4.729c0.46-2.036,0.896-4.092,1.31-6.159
		C146.478,116.153,150.956,110.97,148.452,105.315z"/>
	<path fill="#FFFFFF" d="M177.806,112.066c-0.522-0.144-1.081-0.212-1.651-0.224c-0.515-7.886-1.627-15.756-1.424-23.686
		c0.248-9.707-14.797-9.683-15.044,0c-0.317,12.363,3.118,24.905,1.343,37.222c-0.776,5.381-3.639,9.889-4.03,15.432
		c-0.373,5.275,3.096,10.362,4.03,15.432c1.435,7.792,12.38,6.547,14.507,0c3.694-11.382,5.878-23.09,7.522-34.924
		C183.622,117.261,182.141,113.259,177.806,112.066z"/>
	<path fill="#FFFFFF" d="M152.971,192.54c-1.531-7.836-2.637-15.738-3.761-23.641c-0.578-4.066-5.686-6.235-9.253-5.254
		c-4.325,1.19-5.831,5.197-5.254,9.253c0.913,6.417,1.827,12.833,2.953,19.216c-2.585,0.957-4.686,3.196-4.833,6.724
		c-0.407,9.72-6.178,17.727-3.492,27.79c2.499,9.364,17.012,5.386,14.507-4.001c-0.994-3.724,0.488-7.44,1.569-11.01
		c1.015-3.352,1.852-6.684,2.245-10.13C151.041,200.309,153.85,197.039,152.971,192.54z"/>
	<path fill="#FFFFFF" d="M103.272,244.508c-1.66,0-2.984,0.519-3.981,1.343c-0.586-0.17-1.225-0.269-1.929-0.269
		c-8.315,0-8.315,12.895,0,12.895c1.66,0,2.984-0.519,3.981-1.343c0.585,0.17,1.225,0.269,1.929,0.269
		C111.587,257.403,111.587,244.508,103.272,244.508z"/>
</g>
<g id="Layer_1_2_">
	<g>
		<g id="Layer_1_1_">
			<g>
				<g id="Layer_1_3_">
					<g>
						<path fill="#373535" d="M69.119,41.495c0.14-0.226,0.21-0.36,0.21-0.403c1.257,0,2.041,0.322,2.353,0.967
							c0.097,0.172,0.193,0.564,0.29,1.177c0.043,0.054,0.134,0.172,0.274,0.355c-0.376,0.043-0.725,0.064-1.048,0.064
							c-1.483,0-2.224-0.532-2.224-1.596C68.974,41.822,69.022,41.634,69.119,41.495z M71.343,42.204c0-0.333-0.161-0.5-0.484-0.5
							c-0.333,0-0.5,0.167-0.5,0.5c0,0.279,0.167,0.419,0.5,0.419C71.182,42.623,71.343,42.483,71.343,42.204z"/>
						<path fill="#FFFFFF" stroke="#373535" stroke-width="1.6119" d="M115.955,203.39c0,0.752,0.07,1.634,0.21,2.643
							c0.097,1.354,0.145,2.165,0.145,2.434c0,0.634-0.419,2.095-1.257,4.384c-0.795,2.246-1.193,4.335-1.193,6.269v0.694
							c0.548,1.128,1.005,2.551,1.37,4.27c0.204,0.914,0.424,2.042,0.661,3.385c0.505,2.117,0.758,4.018,0.758,5.705v0.21
							c0,0.075,0.134,0.426,0.403,1.049s0.435,0.971,0.5,1.048c0.752,1.676,1.59,3.439,2.515,5.287
							c0.322,0.654,0.441,1.46,0.355,2.417c-0.054,0.549-0.172,1.366-0.355,2.45c-0.086,0.58-0.682,1.724-1.789,3.432
							c-0.603,0.935-1.424,2.16-2.466,3.675c-0.838,1.278-1.369,2.112-1.596,2.497c-1.386,2.235-3.706,3.353-6.962,3.353
							c-0.967,0-2.079-0.21-3.335-0.629c-0.978-0.408-1.51-0.639-1.596-0.693c-0.419,0.14-0.795,0.251-1.128,0.337
							c-1.128,0.28-2.149,0.419-3.063,0.419c-0.967,0-1.94-0.183-2.916-0.548c-0.946-0.074-1.687-0.424-2.224-1.048
							c-0.387,0.14-0.596,0.21-0.629,0.21c-1.075-0.075-2.026-0.426-2.853-1.048c-0.913-0.28-1.585-1.021-2.015-2.224l-0.419-2.369
							c0-2.041,0.833-3.481,2.498-4.32c0.924-0.376,1.665-0.537,2.223-0.484c0.15-0.203,0.478-0.462,0.983-0.774
							c0.913-0.398,1.655-0.88,2.224-1.451c0.398-0.613,0.655-1.052,0.774-1.322c0.225-0.74,0.387-1.23,0.484-1.466
							c0.064-0.161,0.247-1.042,0.548-2.643c0.333-1.494,0.499-2.492,0.499-2.998c0-1.965-1.091-7.419-3.271-16.358
							c-2.235-8.812-3.353-14.887-3.353-18.229c0-0.279,0.048-0.672,0.145-1.177c-0.494-0.118-0.758-0.177-0.79-0.177
							c-0.236-0.064-0.414-0.145-0.532-0.242c-0.172-0.098-0.29-0.145-0.355-0.145v-0.484c0-0.645,0.07-1.763,0.21-3.353
							c0.14-1.472,0.21-2.583,0.21-3.335c0-0.43-0.14-1.15-0.419-2.16c-0.14-0.451-0.253-0.903-0.339-1.355
							c-0.075-0.386-0.124-0.628-0.145-0.725c-0.043,0.043-0.183,0.204-0.419,0.484c-0.183,0.184-0.414,0.274-0.693,0.274
							c-0.494,0-0.865-0.16-1.112-0.482c-0.107-0.129-0.188-0.226-0.242-0.291c-0.097-0.117-0.157-0.231-0.177-0.337
							c-0.172,0.203-0.426,0.574-0.758,1.111v0.081c-0.269,0.377-0.521,0.65-0.758,0.822c-0.279,0.195-0.586,0.291-0.918,0.291
							c-0.463,0-0.881-0.258-1.257-0.774c0-0.086-0.021-0.157-0.064-0.21c-0.462,0.752-1.252,1.73-2.369,2.933
							c-0.817,1.204-1.349,1.805-1.596,1.805c-0.376,0-0.564-0.188-0.564-0.563c0.086-0.226,0.167-0.521,0.242-0.887
							c0.075-0.419,0.134-0.746,0.177-0.983c0.322-1.139,0.484-2.32,0.484-3.546c0-0.472-0.113-1.263-0.338-2.368
							c-0.118,0.14-0.301,0.446-0.548,0.918c-0.15,0.291-0.435,0.838-0.854,1.644c-0.645,1.075-1.085,1.612-1.322,1.612
							c-0.312,0-0.505-0.07-0.58-0.21c-0.086-0.14-0.075-0.371,0.032-0.693c-0.107,0.054-0.269,0.193-0.484,0.419
							c-0.118,0.183-0.285,0.274-0.5,0.274c-0.269,0-0.451-0.091-0.548-0.274c-0.054-0.054-0.081-0.15-0.081-0.291
							c0-0.407,0.167-1.263,0.5-2.562c0.183-0.892,0.322-1.472,0.419-1.742c-0.118,0.075-0.467,0.35-1.048,0.823
							c-1.182,0.977-2.112,1.467-2.789,1.467h-0.064c-0.236,0.042-0.398,0.064-0.484,0.064c-0.333,0-0.5-0.091-0.5-0.274
							c-0.086,0-0.129-0.048-0.129-0.145v-0.338c0.086-0.462,0.247-1.134,0.484-2.015c0.279-1.268,0.51-2.637,0.693-4.109
							l-0.064-0.146c-0.322,0.237-0.58,0.355-0.774,0.355c-0.462,0-0.693-0.3-0.693-0.903c0-0.128,0.048-0.268,0.145-0.419
							c-0.139,0.086-0.328,0.226-0.564,0.419c-0.795,0.655-1.698,1.026-2.708,1.112h-0.081l-0.484-0.081
							c-0.043,0-0.064-0.091-0.064-0.274l0.274-0.548v-0.21l0.838-2.578c0-0.752-0.279-1.263-0.838-1.531
							c-0.548-0.312-0.919-0.844-1.112-1.595h-0.064c-1.15,0-1.8-0.118-1.95-0.355c-0.15-0.043-0.269-0.183-0.355-0.42v-0.482
							c0-0.613,0.208-1.403,0.628-2.369c0.107-0.258,0.247-0.56,0.419-0.903c0.183-0.387,0.301-0.645,0.355-0.774
							c-0.236,0.14-0.677,0.328-1.322,0.563c-1.461,0.505-2.488,0.758-3.079,0.758c-0.183,0-0.414-0.043-0.693-0.129
							c-0.043-0.097-0.064-0.193-0.064-0.29c0-0.043-0.021-0.086-0.064-0.129v-0.355c0-0.376,0.091-0.656,0.274-0.838
							c0.117-0.322,0.328-0.715,0.628-1.177c0.849-1.009,1.402-1.729,1.66-2.16l-0.693-1.676c0-0.344,0.069-1.085,0.21-2.224
							c0.097-0.408,0.145-0.731,0.145-0.966l-0.064,0.064c-0.559,0.183-0.849,0.279-0.87,0.291c-0.301,0.086-0.57,0.128-0.806,0.128
							h-0.484c-0.654,0-0.983-0.208-0.983-0.628c0-0.247,0.602-1.687,1.805-4.32c1.537-3.106,2.395-4.889,2.578-5.35l0.081-0.146
							c-0.57,0-0.967-0.112-1.193-0.337c-0.043-0.097-0.064-0.215-0.064-0.355l1.676-5.77c-0.333-0.257-0.564-0.477-0.693-0.66
							c-0.15-0.193-0.226-0.392-0.226-0.596c0-0.355,0.21-1.257,0.629-2.709c0.247-1.064,0.408-2.251,0.484-3.561
							c-0.516,0.333-1.026,0.5-1.531,0.5c-0.313,0-0.564-0.097-0.758-0.29h-0.064c-0.376-0.172-0.564-0.451-0.564-0.838
							c-0.043-0.086-0.064-0.457-0.064-1.112c-0.118,0-0.231-0.027-0.338-0.081c-0.118-0.054-0.215-0.097-0.29-0.129
							c-0.322,0-0.532-0.021-0.629-0.064c-0.043,0-0.064-0.14-0.064-0.419c0-0.441,0.21-1.252,0.628-2.434
							c0.226-0.645,0.387-1.107,0.484-1.386c-0.097,0.043-0.258,0.086-0.484,0.129c-0.816,0.376-1.537,0.563-2.159,0.563h-0.29
							c-0.172,0-0.306-0.09-0.403-0.274c-0.054-0.097-0.081-0.193-0.081-0.29c0.462-0.698,1.021-1.649,1.676-2.853
							c0.58-0.956,1.161-2.208,1.741-3.756c-0.054-0.043-0.081-0.161-0.081-0.355c0-0.14,0.016-0.263,0.048-0.371l0.032-0.113
							c0-0.419-0.258-0.972-0.774-1.66c-0.494-0.827-1.005-1.386-1.531-1.676c-0.827-0.322-1.241-0.833-1.241-1.531
							c0.075-0.505,0.118-0.86,0.129-1.064c0.021-0.301,0-0.548-0.064-0.741l-0.21-1.676c0.064-0.752,0.064-1.332,0-1.741
							c0.064-0.763,0.064-1.322,0-1.676c0-0.215-0.188-0.398-0.564-0.548l-0.693-0.145c-0.182-0.086-0.274-0.338-0.274-0.758
							c0-1.923,0.441-3.755,1.322-5.495c0.215-0.441,0.446-0.817,0.693-1.128c-0.086-0.365-0.178-0.639-0.274-0.822
							c-0.14-0.494-0.236-0.844-0.29-1.048c-0.086-0.355-0.129-0.634-0.129-0.838h-0.064c-0.333,0.043-0.57,0.09-0.709,0.144
							c-0.183,0.087-0.365,0.13-0.548,0.13c-0.193,0-0.403-0.441-0.629-1.322c-0.14-0.806-0.21-1.526-0.21-2.16
							c-0.054-0.774-0.167-1.353-0.337-1.741v-0.613c-0.677-0.14-1.236-0.279-1.676-0.419c-0.021,0-0.064-0.048-0.129-0.145
							c-0.097-0.161-0.172-0.279-0.226-0.355v-0.129c-0.043,0-0.064-0.048-0.064-0.145c-0.14-0.204-0.208-0.365-0.208-0.484
							c0-0.86,0.048-1.58,0.144-2.16c0.087-1.031,0.157-1.729,0.21-2.095c-0.097,0.054-0.193,0.081-0.29,0.081
							c-0.398,0.226-0.741,0.338-1.032,0.338c-0.333,0-0.5-0.091-0.5-0.274v-0.337c0-0.14,0.236-0.72,0.709-1.741
							c0.505-0.967,0.758-1.547,0.758-1.741c0.086-0.344,0.16-0.698,0.225-1.064c0.066-0.365,0.107-0.618,0.129-0.758
							c0-0.075,0.021-0.177,0.064-0.306s0.064-0.21,0.064-0.242v-0.21c0-0.333,0.301-1.262,0.903-2.789
							c0.183-0.376,0.371-0.801,0.564-1.273c0.172-0.419,0.29-0.688,0.355-0.806c-0.118-0.087-0.355-0.344-0.709-0.774
							c0-0.043,0.027-0.091,0.081-0.145v-0.129c0-0.279,0.462-0.951,1.386-2.015c0.376-0.559,0.935-1.279,1.676-2.16
							c0.365-0.537,0.639-1.236,0.822-2.095c0.193-0.559,0.29-0.93,0.29-1.112c-0.849-1.687-1.408-2.966-1.676-3.835
							c-0.161-0.763-0.274-1.504-0.338-2.224c0.043-0.602,0.064-1.273,0.064-2.015c-0.043-1.3-0.064-2.712-0.064-4.238h-0.919
							v-0.703c0-0.15,0.07-1.053,0.21-2.708c0.215-1.741,0.381-2.81,0.5-3.208V49.23c-0.903,0-1.51-0.07-1.821-0.21
							c-0.14-0.161-0.208-0.392-0.208-0.693c0-0.118,0.859-1.069,2.578-2.853c0.752-0.752,1.284-1.289,1.596-1.612
							c0.537-0.537,0.978-0.951,1.321-1.241c0.226-0.322,0.806-0.768,1.742-1.338c-0.226,0.054-0.64,0.081-1.241,0.081h-0.774
							c-0.043-0.054-0.064-0.172-0.064-0.355c0-0.15,0.14-0.334,0.419-0.548c0.021-0.054,0.118-0.145,0.29-0.274
							c0.3-0.226,0.484-0.371,0.548-0.435c-0.655,0.139-1.193,0.21-1.612,0.21h-0.548c-0.054,0-0.081-0.113-0.081-0.338
							c0-0.193,0.376-0.494,1.128-0.903c-2.568,0.064-4.147,0.016-4.739-0.145c-0.107,0-0.204-0.032-0.29-0.097
							c-0.086-0.075-0.129-0.161-0.129-0.258c0-0.097,0.188-0.274,0.564-0.532c0.279-0.204,0.832-0.559,1.66-1.064
							c0.193-0.097,0.559-0.29,1.096-0.58c0.473-0.269,0.849-0.467,1.128-0.596l0.29-0.145c-0.236,0-0.489,0.011-0.758,0.032
							s-0.434,0.032-0.499,0.032c-0.752,0-1.214-0.091-1.386-0.274v-0.21c0-0.247,0.441-0.666,1.322-1.257
							c0.784-0.57,1.177-0.962,1.177-1.177c0-0.161-0.161-0.441-0.484-0.838c-0.42-0.484-0.629-0.784-0.629-0.903
							c0-0.183,0.07-0.344,0.208-0.484c0.13-0.097,0.365-0.156,0.709-0.177c0.226-0.023,0.639-0.032,1.241-0.032
							c0.086,0.086,0.129-0.005,0.129-0.274c0-0.559-0.854-1.375-2.563-2.45c-1.815-1.107-2.794-1.821-2.933-2.144
							c0.054-0.097,0.193-0.145,0.419-0.145c0.322,0,0.649,0.048,0.983,0.145c0.279,0.14,0.951,0.21,2.015,0.21
							c1.977,0,3.111-0.118,3.402-0.355c-0.044-0.183-0.064-0.301-0.064-0.355c0-0.215,0.048-0.398,0.145-0.548
							c0-0.055,0.021-0.081,0.064-0.081c-0.021-0.021-0.043-0.086-0.064-0.193c-0.032-0.129-0.059-0.226-0.081-0.29
							c-0.14-0.301-0.21-0.462-0.21-0.484c0-1.01,0.349-1.94,1.048-2.789c0.913-1.053,2.261-1.445,4.045-1.177
							c0-0.097,0.059-0.172,0.177-0.226c0.054-0.032,0.177-0.075,0.371-0.129c-0.021,0-0.043-0.027-0.064-0.081
							c-0.021-0.064-0.043-0.107-0.064-0.129c-0.193-0.172-0.29-0.312-0.29-0.419c0-0.269,0.441-0.403,1.322-0.403
							c1.096,0.129,2.004-0.177,2.724-0.919c0.183-0.182,0.274-0.575,0.274-1.177c0-0.559,0.21-0.838,0.629-0.838
							c0.054,0,0.611,0.161,1.676,0.484c1.107,0.333,2.498,0.5,4.175,0.5c1.633,0,3.256-1.021,4.867-3.063
							c1.601-2.094,2.53-3.142,2.789-3.142c0.086,0,0.177,0.032,0.274,0.097c0.054,0.032,0.145,0.097,0.274,0.193
							c0.247,0.226,0.457,0.338,0.629,0.338c0.537,0,0.885-0.419,1.048-1.257c-0.043-0.548-0.091-1.101-0.145-1.66h0.056h0.154
							c0.107,0,0.365,0.58,0.774,1.741c0.527,1.139,1.128,1.881,1.805,2.224c0.14-0.376,0.371-0.887,0.693-1.531
							c0.419-0.838,0.677-1.257,0.774-1.257c0.484,0,0.553,0.467,0.21,1.402c0,0.193,0.161,0.424,0.484,0.693
							c0.387,0.365,0.779,0.548,1.177,0.548c0.322,0,0.72-0.741,1.193-2.224c0.473-1.44,1.123-2.16,1.95-2.16
							c0.301,0.774,1.155,2.165,2.563,4.175l0.435,0.604c0.043-0.414,0.596-1.077,1.66-1.99c0.064-0.054,0.387-0.344,0.967-0.87
							c0.462-0.419,0.881-0.779,1.257-1.08c1.021-1.085,1.811-1.177,2.369-0.274c0.204,0.365,0.462,1.107,0.774,2.224v0.064
							c0.14,0,0.414-0.14,0.822-0.419c0.537-0.226,0.956-0.338,1.256-0.338c0.313,0,0.527,0.14,0.645,0.419
							c0.118,0.258,0.161,0.672,0.129,1.241v0.29c0.516-0.472,1.327-1.052,2.434-1.741c1.784-1.279,3.057-2.047,3.82-2.305
							c0,0.333-0.043,1.842-0.129,4.528c0,0.043,0.07,0.226,0.21,0.548c0.14,0.387,0.21,0.666,0.21,0.838v0.419
							c0.698-0.763,1.601-1.274,2.708-1.531c0.688-0.204,1.123-0.145,1.306,0.177c0.183,0.313,0.097,0.854-0.258,1.628l1.032,0.21
							l0.5-0.129c0.408-0.107,0.849-0.204,1.322-0.29c1.3-0.269,2.251-0.403,2.853-0.403c0.301,0,0.516,0.059,0.645,0.177
							c0.118,0.107,0.156,0.253,0.113,0.435c0,0.204-0.694,0.924-2.079,2.16c-0.064,0.129-0.161,0.226-0.29,0.29
							c0.333,0,0.613-0.027,0.838-0.081c0.741-0.032,1.177,0.054,1.306,0.258c0.14,0.193-0.016,0.548-0.467,1.064
							c0.924-0.322,1.553-0.322,1.886,0c0.14,0.161,0.21,0.462,0.21,0.903c0,0.333-0.027,0.5-0.081,0.5
							c0,0.14-0.14,0.349-0.419,0.629c1.945,0.054,3.314,0.215,4.11,0.484c0.107,0.032,0.204,0.097,0.29,0.193
							c0.086,0.097,0.129,0.193,0.129,0.291c0,0.236-0.183,0.467-0.548,0.693c-0.57,0.355-0.94,0.655-1.112,0.903
							c0.075-0.043,0.312-0.161,0.709-0.355c0.387-0.182,0.725-0.365,1.015-0.548c0.473-0.183,1.048-0.333,1.725-0.451
							c0.43-0.064,1.112-0.145,2.047-0.242c0.203,0,0.645-0.091,1.322-0.274c0.591-0.13,1.101-0.269,1.531-0.42l1.322-0.564
							c0.559-0.279,0.928-0.419,1.111-0.419c0.215,0,0.398,0.167,0.549,0.5c0,0.075-0.103,0.253-0.306,0.532
							c-0.247,0.333-0.559,0.688-0.935,1.064c-0.935,0.999-1.402,1.531-1.402,1.596l-0.129,0.21
							c1.815-0.279,2.977-0.322,3.482-0.129c0.279,0.086,0.419,0.316,0.419,0.693c0,0.333-0.768,1.585-2.305,3.756
							c-0.516,0.74-0.956,1.321-1.322,1.741c0.967-0.548,1.795-0.881,2.482-0.999c0.666-0.118,1.161-0.016,1.483,0.306
							c0.258,0.322,0.42,1.155,0.484,2.498c2.095,0.484,4.137,1.553,6.124,3.208c1.366,1.107,2.895,2.547,4.593,4.32
							c1.569,2.278,2.569,3.713,2.998,4.303c0.978,1.526,1.467,2.896,1.467,4.11c-0.075,1.107,0.434,2.498,1.531,4.175
							c0.613,0.956,1.633,2.396,3.063,4.32c0.172,0.226,0.371,0.543,0.596,0.951c0.14,0.236,0.36,0.639,0.661,1.209
							c0.398,0.838,1.021,1.531,1.87,2.079l3.481,2.095c1.397,0.849,2.095,1.521,2.095,2.015c0,0.484-0.167,0.924-0.501,1.322
							c-0.311,0.279-0.794,0.747-1.451,1.402c0.451,0.655,0.752,1.977,0.903,3.964c0.129,1.848,0.36,3.009,0.694,3.482
							c0.806,1.171,1.365,2.445,1.676,3.82v0.21c1.655,0.462,3.508,1.644,5.561,3.546c1.503-0.064,2.923-0.666,4.254-1.805
							c0.634-0.559,1.467-1.487,2.498-2.789c1.902-2.439,3.572-4.201,5.012-5.286c1.226-0.935,2.337-1.836,3.337-2.708
							c1.676-1.214,3.024-2.052,4.046-2.515c2.02-0.774,3.62-1.284,4.802-1.531c2.075-0.365,4.116-0.478,6.124-0.338
							c0.141-0.161,0.58-0.21,1.322-0.145c0.999,0.172,2.063,0.403,3.191,0.694l2.933,1.402c3.621,1.707,5.942,2.563,6.962,2.563
							c1.279,0,2.02-0.07,2.224-0.21c0.226-0.226,0.408-0.337,0.548-0.337c0.376,0,0.564,0.231,0.564,0.693
							c0,0.623-0.42,1.392-1.257,2.305c-0.473,0.602-1.124,1.112-1.95,1.531c-0.15,0.075-0.263,0.188-0.337,0.338l-0.63,0.629
							c-0.676,0.451-1.213,0.704-1.611,0.758c-0.322,0.14-0.806,0.21-1.451,0.21c-1.172,0-2.704-0.392-4.594-1.177
							c-1.354-0.505-2.352-0.994-2.997-1.466c-1.172-1.032-1.87-1.612-2.095-1.741c-0.204-0.107-0.596-0.381-1.177-0.822
							c-0.032-0.021-0.215-0.167-0.549-0.435c-0.182-0.14-0.3-0.253-0.354-0.338c-0.924-0.559-1.504-0.838-1.741-0.838
							c-1.784,0-3.637,0.698-5.561,2.095c-0.654,0.623-1.294,1.204-1.918,1.741c-0.482,0.419-0.751,0.65-0.805,0.693
							c-1.763,1.3-2.874,2.133-3.335,2.498c-0.721,0.537-1.812,1.467-3.272,2.789c-0.881,0.881-1.58,1.623-2.095,2.224
							c-0.097,0.066-0.279,0.274-0.548,0.629c-1.064,1.429-1.714,2.38-1.95,2.853c-0.086,0.086-0.236,0.376-0.451,0.87
							c-0.129,0.322-0.397,0.962-0.805,1.918c-0.291,0.72-0.521,1.23-0.694,1.531c1.59,1.397,2.891,3.159,3.901,5.286
							c0.516,1.085,1.257,2.966,2.223,5.642c1.483,3.319,2.552,7.032,3.208,11.137c0.451,3.459,0.703,7.032,0.756,10.718
							c0.237,1.655,0.356,3.277,0.356,4.867c0,0.129-0.469,2.681-1.403,7.655c-0.441,3.084-0.623,5.615-0.548,7.592
							c0.032,0.74,0.021,1.8-0.032,3.174c-0.031,0.838-0.091,2.283-0.177,4.336c-0.183,3.106-0.274,5.615-0.274,7.526
							c0.505,6.802,0.758,10.767,0.758,11.894c0,0.097-0.048,0.193-0.145,0.29c0.054,0.043,0.081,0.134,0.081,0.274
							c0.246,1.741,0.408,2.713,0.482,2.917c0.366,1.225,0.549,3.127,0.549,5.706c0,4.169-0.204,7.882-0.613,11.137
							c-0.376,3.557-0.564,6.507-0.564,8.848c0,0.806,0.07,2.009,0.21,3.609c0.14,1.547,0.21,2.686,0.21,3.417
							c-1.526,7.381-2.638,11.766-3.335,13.152v0.208c0.88,3.052,1.321,6.253,1.321,9.606l-0.419,2.369
							c-0.28,1.623-0.42,2.525-0.42,2.708c0,2.525,1.322,6.19,3.964,10.992c1.214,2.191,2.176,4.007,2.886,5.447
							c0.634,1.288,0.951,2.026,0.951,2.208v0.145c0.086,0.086,0.129,0.226,0.129,0.419c0,0.334-0.141,0.634-0.42,0.904
							c-0.096,0.117-0.305,0.236-0.628,0.354c-0.409,0.141-0.752,0.231-1.033,0.274c-0.074,0.184-0.333,0.575-0.774,1.177
							c-0.86,1.075-1.923,1.612-3.191,1.612h-0.354h-0.146c-0.279,0.279-0.532,0.489-0.758,0.629
							c-0.774,0.506-1.702,0.758-2.789,0.758c-2.664,0-5.195-0.881-7.591-2.643c-0.903-0.688-1.595-1.316-2.079-1.886
							c-0.074-0.021-0.15-0.059-0.226-0.112c-0.064-0.054-0.107-0.081-0.129-0.081c-1.58-1.032-2.368-2.681-2.368-4.947
							c0-0.398,0.069-1.349,0.208-2.852c0.14-1.409,0.21-2.729,0.21-3.964c0-2.569-0.392-5.19-1.177-7.866
							c-0.269-0.708-0.458-1.177-0.564-1.402l-1.74-3.9c-0.227-0.655-0.338-1.3-0.338-1.934c0-0.334,0.112-0.613,0.338-0.838
							c0.193-0.591,0.801-1.569,1.82-2.934c1.343-1.686,2.015-3.147,2.015-4.383c0-0.591-0.93-4.255-2.789-10.992
							c-2.267-8.027-3.427-12.158-3.482-12.394c-0.88-3.525-1.343-5.47-1.385-5.835c-0.097-0.365-0.21-0.849-0.339-1.451
							c-0.14-0.677-0.236-1.123-0.291-1.338l-0.208-0.774c-0.236-1.021-0.424-1.735-0.564-2.144
							c-0.107-0.236-0.246-0.611-0.419-1.128c-0.246-0.72-0.408-1.182-0.484-1.386c-0.16-0.441-0.693-1.369-1.595-2.789
							c-0.215-0.312-0.334-0.494-0.355-0.548c-0.193,0-0.376-0.14-0.548-0.419c-0.152,0.214-0.365,0.623-0.646,1.225
							c-0.064,0.14-0.38,0.865-0.951,2.176c-0.849,1.836-1.499,3.067-1.949,3.69c-0.333,0.484-0.731,1.855-1.193,4.11
							c0,0.086-0.043,0.226-0.128,0.419c0,0.183-0.027,0.505-0.081,0.967c-0.129,0.946-0.36,1.552-0.694,1.82
							c-0.064,0.603-0.343,2.294-0.837,5.077c-0.784,4.233-1.226,6.856-1.322,7.865c-0.312,2.278-1.214,6.684-2.708,13.216
							l-2.789,12.539c-1.204,6.329-1.805,10.922-1.805,13.78c0,1.311,0.14,2.54,0.419,3.691c0.365,1.202,0.548,1.923,0.548,2.159
							v0.21c0.097,0.58,0.146,0.994,0.146,1.241c0.14,0.666,0.208,1.456,0.208,2.369c0,0.226-0.118,0.574-0.355,1.048
							c-0.085,0.14-0.246,0.489-0.484,1.048c-0.419,0.913-0.88,1.445-1.385,1.596c-1.085,1.02-2.547,1.531-4.384,1.531
							c-0.611,0-1.263-0.091-1.949-0.274c-0.408,0.386-0.918,0.731-1.531,1.032c-1.429,0.751-3.127,1.128-5.093,1.128
							c-1.107,0-2.171-0.258-3.191-0.775c-0.14-0.043-0.236-0.064-0.29-0.064c-0.537,0.279-1.392,0.419-2.563,0.419
							c-2.138,0-3.835-0.697-5.093-2.094c-0.559-0.709-0.903-1.332-1.032-1.87c-0.376-0.817-0.564-1.537-0.564-2.16
							c0-0.72,0.091-1.719,0.274-2.997c0.118-0.752,0.537-1.795,1.257-3.127c2.052-3.89,3.213-6.141,3.481-6.753
							c0.688-1.729,1.386-3.842,2.095-6.335c0.193-0.86,0.505-2.09,0.935-3.691c0.387-1.495,0.677-2.563,0.87-3.208
							c-0.097-0.407-0.145-0.639-0.145-0.693c-0.559-2.267-0.838-4.169-0.838-5.706c0-1.374,0.306-3.486,0.919-6.335
							c0.505-3.127,0.758-4.775,0.758-4.947c0-0.16,0.07-0.344,0.21-0.548c0.044-0.183,0.064-0.344,0.064-0.484
							c0.333-1.827,0.5-3.106,0.5-3.835c0-0.129,0.043-0.429,0.129-0.903c-0.408-0.086-0.801-0.243-1.177-0.469
							c-0.451-0.269-0.752-0.574-0.903-0.918c-0.215-1.097-0.381-1.724-0.5-1.886c-0.129-0.441-0.381-1.161-0.758-2.16
							c-0.419,1.729-0.978,3.261-1.676,4.593c-1.107,2.418-2.149,3.627-3.127,3.627c-0.322,0-0.484-0.21-0.484-0.629l0.548-0.903
							c0.376-0.505,0.564-1.015,0.564-1.531c0-0.377-0.048-0.682-0.145-0.919l-0.066-0.064l-0.484,0.482
							c-0.107,0.195-0.274,0.291-0.5,0.291c-0.14,0-0.484-0.349-1.032-1.048c-0.376-0.377-0.586-0.607-0.629-0.694
							c-0.838,0.903-1.58,1.601-2.224,2.095c-0.591,0.451-1.032,0.677-1.322,0.677c-0.193,0-0.5-0.064-0.918-0.193
							c-0.398-0.141-0.672-0.446-0.822-0.919c-0.097-0.58-0.145-0.923-0.145-1.032c-0.29,0.258-0.521,0.441-0.693,0.548
							c-0.516,0.516-0.887,0.775-1.112,0.775c-0.473,0-0.822-0.07-1.048-0.21c-0.097-0.086-0.161-0.145-0.193-0.177
							c-0.054-0.054-0.081-0.113-0.081-0.177c-0.097-0.075-0.146-0.167-0.146-0.274v-0.274c-0.269,0.258-0.897,0.649-1.885,1.177
							c-1.698,0.838-2.858,1.257-3.482,1.257c-0.269,0-0.451-0.048-0.548-0.145l-0.066-0.21c0-0.097,0.023-0.165,0.066-0.208
							l0.064-0.066c0.42-1.02,0.887-2.203,1.402-3.546c0.849-2.041,1.359-3.6,1.531-4.674l-0.564,1.048
							c-0.849,1.547-1.478,2.59-1.886,3.127c-0.183,0.333-0.994,1.402-2.434,3.207c-0.838,0.904-1.531,1.531-2.079,1.886
							c-0.613,0.603-1.15,0.903-1.612,0.903c-0.129,0-0.29-0.156-0.484-0.467c-0.15-0.246-0.381-0.698-0.693-1.354
							c-0.924-2.084-1.504-3.358-1.741-3.82c-0.623,0.236-1.064,0.355-1.322,0.355h-0.693c-0.312-0.086-0.532-0.145-0.661-0.177
							c-0.215-0.064-0.365-0.124-0.451-0.177c-0.043,0-0.102,0.026-0.177,0.081c-0.086,0.043-0.167,0.064-0.242,0.064
							c-0.527,0.14-0.967,0.21-1.322,0.21h-1.257 M212.077,69.345c0.086,0,0.829,0.183,2.224,0.548c1.042,0.333,2.132,0.5,3.272,0.5
							c1.503,0,2.616-0.118,3.335-0.355c0.279-0.043,0.715-0.269,1.306-0.677c0.697-0.484,1.225-0.994,1.58-1.531
							c-1.085,0.903-2.208,1.386-3.369,1.451c-0.634,0.032-1.51-0.102-2.626-0.403c-0.763-0.236-1.875-0.623-3.337-1.161
							c-1.235-0.462-1.88-0.693-1.934-0.693 M170.528,77.065l0.629,3.417v0.129c0.086,0.376,0.317,0.913,0.694,1.612
							c0.311,0.613,0.52,1.193,0.628,1.741c0.086,0.279,0.22,0.903,0.403,1.87c0.109,0.43,0.527,1.778,1.257,4.046
							c0.129,0.398,0.372,1.134,0.725,2.208c0.172,0.515,0.258,0.801,0.258,0.854c0,0.355-0.559,1.858-1.676,4.512
							c-1.021,2.59-1.531,4.121-1.531,4.594c1.257,5.307,1.886,8.236,1.886,8.784l-0.5,7.656c0,0.484,0.14,1.365,0.419,2.643
							c0.236,1.332,0.355,2.305,0.355,2.916c0,1.343,0.14,3.175,0.419,5.496c0.377,2.009,0.698,3.89,0.967,5.64
							c0.462,2.783,0.693,4.545,0.693,5.287c0,0.193-0.021,0.333-0.064,0.419c-0.129,0.183-0.312,0.274-0.548,0.274
							c-0.42,0-1.026-0.322-1.821-0.967c-0.924-0.741-1.408-1.134-1.451-1.177c0.043,0.118,0.122,0.313,0.242,0.581
							c0.097,0.258,0.177,0.505,0.243,0.74c0.226,0.57,0.337,1.053,0.337,1.452c0,0.301-0.14,0.698-0.419,1.192
							c-0.269,0.689-0.5,1.033-0.694,1.033c-0.183,0-0.294-0.023-0.337-0.066c-0.109,0.365-0.247,0.693-0.42,0.983
							c-0.591,0.903-1.499,1.245-2.723,1.032c0,0.011,0.118,0.29,0.355,0.837c0.14,0.463,0.21,0.79,0.21,0.983
							c0,0.506-0.329,0.758-0.983,0.758c-0.075,0-0.306-0.043-0.694-0.128c-0.441-0.152-0.693-0.247-0.758-0.291
							c-0.386,0.903-0.365,2.482,0.066,4.738c0,1.903-1.461,3.202-4.384,3.901l-0.064,0.337c0,0.28,0.279,0.887,0.838,1.821
							c0.505,0.892,0.757,1.843,0.757,2.853c0,1.374-0.349,3.319-1.048,5.834c-0.066,0.204-0.317,0.972-0.758,2.305
							c0.129,1.15,0.177,2.08,0.145,2.79c-0.043,0.966-0.231,1.777-0.563,2.434 M181.729,87.09
							c-1.698-2.095-3.207-3.835-4.529-5.221c0-0.064-0.176-0.279-0.531-0.645c-0.366-0.376-0.56-0.58-0.58-0.613 M212.77,71.296
							c0.257,0,0.649,0.14,1.177,0.419c0.408,0.225,1.106,0.337,2.094,0.337c0.967,0,2.203-0.306,3.707-0.919
							c2.041-0.827,3.389-1.928,4.046-3.304 M136.279,28.278c-0.172,0.408-0.473,0.833-0.903,1.273
							c-0.419,0.387-0.65,0.613-0.693,0.677c-1.848,1.332-3.917,2.492-6.205,3.482c-0.118,0.043-0.279,0.124-0.484,0.242
							c-0.215,0.117-0.376,0.199-0.484,0.242c0.183-0.043,0.365-0.064,0.548-0.064c0.613,0,1.521,0.371,2.724,1.112
							c1.182,0.698,2.622,1.048,4.32,1.048c0.505,0,1.273-0.081,2.305-0.242c0.012,0,0.795-0.129,2.352-0.387
							c0.323-0.913,0.646-2.492,0.967-4.738v-0.838 M132.442,53.196c0-0.258-0.274-0.768-0.822-1.531
							c-0.613-0.666-0.983-1.128-1.112-1.387c-0.762-1.784-1.209-2.782-1.338-2.997c3.761-0.066,5.642-0.532,5.642-1.402
							c0-0.269-0.414-0.543-1.241-0.822c-0.161,0-0.467-0.07-0.919-0.21c-0.881-0.193-1.343-0.312-1.386-0.355
							c0.075-0.603-0.177-1.064-0.758-1.387c-0.301-0.107-1.021-0.408-2.159-0.903c-0.473-0.193-0.774-0.611-0.903-1.256
							c-0.075-0.698-0.193-1.166-0.355-1.402l0.145-0.064c0.86,0.795,2.181,1.193,3.965,1.193c0.774,0,1.8-0.15,3.079-0.451
							c1.235-0.301,2.391-0.661,3.466-1.08c0.193-0.075,0.817-0.381,1.869-0.918c3.063-1.526,4.593-2.751,4.593-3.675
							c-0.042-0.236-0.064-0.376-0.064-0.419c-0.74,0.376-1.691,0.747-2.852,1.112c-0.58,0.215-1.092,0.355-1.532,0.419
							 M62.286,135.458c0.172-0.086,0.441-0.258,0.806-0.516l0.661-0.451c0.14,0.322,0.21,0.672,0.21,1.048
							c0,0.044-0.021,0.274-0.064,0.693c0.054,0.161,0.235,0.274,0.548,0.339c0.246,0.097,0.525,0.145,0.838,0.145h0.064
							c-0.043,0.14-0.134,0.349-0.274,0.629c-0.043,0.043-0.086,0.134-0.13,0.274l-0.081,0.145l-0.064,0.419v0.129
							c0,0.14,0,0.236,0,0.29c0,0.118,0.117,0.258,0.355,0.419c0.484,0.183,1.338,0.274,2.563,0.274h1.257
							c-0.043,0.086-0.064,0.317-0.064,0.693c0,0.215,0.027,0.36,0.081,0.435c0.054,0.086,0.167,0.128,0.338,0.128
							c0.408,0,0.919-0.069,1.531-0.21c1.107-0.225,2.058-0.736,2.853-1.53c0.645-0.795,1.037-1.263,1.177-1.402l0.064,1.402
							c0,0.14-0.021,0.58-0.064,1.322c0,0.548,0.231,0.822,0.693,0.822c0.43,0,1.01-0.371,1.741-1.112
							c0.107-0.086,0.204-0.129,0.29-0.129c0.72-0.484,1.134-0.784,1.241-0.903L79,138.939c0.279,0.279,0.532,0.419,0.758,0.419
							c0.15,0,0.317-0.091,0.5-0.274c0.312-0.097,0.473-0.145,0.484-0.145l0.419,0.145c0.236,0.183,0.516,0.274,0.838,0.274
							c0.129,0,0.36-0.113,0.693-0.338c-0.559,1.021-0.838,1.714-0.838,2.079c0,0.42,0.14,0.63,0.419,0.63
							c0.365,0,0.666-0.091,0.903-0.275c0.322,0,0.811-0.279,1.467-0.837c0.752-0.688,1.144-1.058,1.177-1.112
							c0.258-0.215,0.537-0.586,0.838-1.112c0.279-0.559,0.462-0.93,0.548-1.112c0.537-0.989,0.913-1.988,1.128-2.998
							c0.183-0.806,0.296-1.386,0.338-1.741c0.054,0.182,0.215,0.274,0.484,0.274c0.515,0,1.053-0.279,1.612-0.838v0.629
							c0.86,0.097,1.58,0.075,2.159-0.064v1.048c0,0.043-0.15,0.296-0.45,0.758c-0.462,0.72-0.87,1.37-1.225,1.95
							c-0.881,1.547-1.321,2.455-1.321,2.724l0.064,0.403c0.064,0.236,0.204,0.355,0.419,0.355c0.043,0.043,0.161,0.064,0.355,0.064
							c0.88,0,1.691-0.371,2.434-1.112c0.322-0.225,0.693-0.457,1.112-0.693c0.14-0.043,0.258-0.091,0.355-0.145
							c0.032,0.064,0.193,0.301,0.484,0.709c0.43,0.43,0.801,0.682,1.112,0.758c0.043,0.043,0.226,0.064,0.548,0.064h0.29
							c0.279,1.096,0.762,2.696,1.451,4.802c0.472,1.58,0.709,2.928,0.709,4.046v0.146c0,0.139-0.097,0.371-0.29,0.693h-0.064v0.064
							c0,0.097-0.021,0.215-0.064,0.355v0.21c0.043,0,0.064,0.021,0.064,0.064l0.016,0.032c0.011,0.021,0.027,0.032,0.048,0.032
							c0.054,0,0.081-0.023,0.081-0.066c1.494-0.817,2.488-1.515,2.982-2.095l0.983-1.111c0.021-0.054,0.081-0.152,0.177-0.291
							c0.086-0.117,0.14-0.231,0.161-0.337c0.032-0.066,0.107-0.231,0.226-0.5c0.064-0.129,0.107-0.193,0.129-0.193
							c0.161-0.399,0.296-0.732,0.403-1c0.183-0.494,0.349-0.971,0.5-1.435c0.462-1.321,0.693-2.32,0.693-2.998v-0.903
							c0.451,0.602,0.731,0.903,0.838,0.903c0.344,0,0.575-0.231,0.693-0.693c0.107-0.279,0.247-0.462,0.419-0.548
							c0.043,0.043,0.204,0.183,0.484,0.419c0.322,0.215,0.603,0.349,0.838,0.403c0.269,0.14,0.527,0.21,0.774,0.21
							c0.258,0,0.741-0.672,1.451-2.015c0.505-0.989,0.924-1.918,1.257-2.789l0.484,0.5c0.419,0.321,0.747,0.532,0.983,0.628
							c0.215,0.13,0.376,0.193,0.484,0.193c0.279,0,0.768-0.811,1.467-2.434c0.74-1.623,1.112-2.944,1.112-3.964
							c0.881-0.29,1.461-0.682,1.741-1.177v0.338c0.043,0.193,0.066,0.43,0.066,0.709c0,0.15,0.047,0.312,0.145,0.484
							c0.075,0.14,0.118,0.21,0.129,0.21c0.075,0.193,0.172,0.376,0.29,0.548c0-0.032,0.044-0.102,0.129-0.21
							c0.58-0.312,1.091-1.143,1.531-2.498c0.602-1.816,0.972-2.928,1.112-3.335c0.021,0.054,0.188,0.285,0.5,0.693h0.064
							l0.419,0.548c0.216,0.279,0.447,0.419,0.693,0.419c0.451,0,0.892-0.602,1.322-1.805c0.226-0.515,0.435-1.096,0.629-1.741
							c0.021-0.064,0.274-0.876,0.758-2.434c0.215-0.709,0.381-1.177,0.5-1.402c0.043,0.247,0.344,0.854,0.903,1.821
							c0.107,0.107,0.199,0.247,0.274,0.419c0.527,0.838,1.015,1.37,1.467,1.596c0.204,0.14,0.344,0.21,0.419,0.21
							c0.086,0,0.177-0.048,0.274-0.145c0.279,0,0.559-0.14,0.838-0.419c0.14-0.279,0.279-0.532,0.419-0.758l0.21,0.274
							c-0.129,0.515-0.408,1.306-0.838,2.369c0,0.376,0.183,0.564,0.548,0.564c1.666,0,3.406-1.999,5.222-5.996
							c1.439-3.212,2.16-5.323,2.16-6.334c0-0.365-0.21-0.897-0.629-1.596v-0.693c-0.463-3.6-0.694-6.039-0.694-7.318
							c0-0.226,0.023-0.408,0.066-0.548c0.074-0.021,0.199-0.064,0.371-0.129c0.172-0.064,0.328-0.14,0.467-0.226
							c0.516-0.183,1.026-0.365,1.531-0.548c0.613-0.204,0.983-0.414,1.112-0.629c0.193-0.269,0.291-0.596,0.291-0.983
							c0-0.193-0.049-0.446-0.146-0.758c-0.064-1.032-0.414-3.584-1.048-7.656c-0.731-4.331-1.311-7.119-1.741-8.364l0.145,0.081
							c0.086,0.086,0.226,0.182,0.42,0.29c0.118,0.064,0.328,0.177,0.629,0.337c0.269,0.204,0.5,0.344,0.693,0.419
							c0.032,0.032,0.097,0.075,0.193,0.129c0.075,0.043,0.124,0.091,0.146,0.145c0.752,0.655,1.332,1.187,1.741,1.596
							c0.515,0,0.703-0.623,0.563-1.87c0-1.3-0.392-3.412-1.177-6.335c-0.56-2.514-0.908-4.046-1.048-4.593
							c0.042-0.054,0.064-0.15,0.064-0.29c0-0.075-0.048-0.236-0.145-0.484c0.085-0.226,0.085-0.338,0-0.338
							c-0.312-0.967-1.026-2.778-2.144-5.431c-1.064-2.493-2.084-4.674-3.063-6.543h0.064c1.193,0.183,2.214,0.274,3.061,0.274
							c0.312,0,0.672-0.027,1.081-0.081c0.236-0.032,0.548-0.075,0.934-0.129c0.215-0.097,0.355-0.145,0.42-0.145
							c0.14,0,0.231-0.021,0.274-0.064c0.193-0.086,0.29-0.247,0.29-0.484c0-0.118-0.031-0.247-0.097-0.387
							c-0.075-0.161-0.14-0.29-0.193-0.387c-0.14-0.183-0.231-0.322-0.274-0.419h0.484c1.159,0,2.11-0.112,2.852-0.337
							c0.054-0.044,0.124-0.091,0.208-0.145c0.334-0.064,0.576-0.156,0.726-0.274c0.171-0.14,0.257-0.328,0.257-0.564
							c0-0.559-0.72-1.343-2.16-2.353c-1.063-0.784-2.014-1.322-2.852-1.612c0.344-0.054,0.854-0.193,1.531-0.419
							c0.086,0,0.193-0.027,0.322-0.081c0.064-0.021,0.167-0.064,0.306-0.129c0.645-0.064,0.966-0.296,0.966-0.693
							c0-0.505-1.392-1.177-4.174-2.015c-2.73-0.795-4.449-1.166-5.158-1.112 M132.652,44.847c0.279-0.183,0.639-0.494,1.08-0.935
							c0.215-0.215,0.693-0.716,1.435-1.499c1.719-1.934,2.579-2.982,2.579-3.143v-0.129 M97.099,11.566l-0.066-0.089 M76.42,23.621
							c-2.513-1.494-5.115-2.724-7.8-3.691c-0.795-0.355-1.815-0.703-3.063-1.048c-0.484-0.118-0.784-0.167-0.903-0.145
							 M60.899,31.131c-0.107-0.365-0.199-1.134-0.274-2.305c-0.086-0.462-0.344-1.204-0.774-2.223
							c-0.097-0.269-0.236-0.57-0.419-0.903c-0.086-0.226-0.156-0.457-0.208-0.693 M58.74,59.11
							c-0.591,1.139-1.053,2.482-1.386,4.03c-0.14,0.935-0.51,2.654-1.112,5.157 M155.974,189.546
							c-0.322,0.387-0.854,0.355-1.595-0.097c-0.817-0.613-1.354-0.999-1.612-1.161c-1.623-1.02-2.756-1.531-3.401-1.531
							c-0.333,0-0.591,0.091-0.774,0.274c-0.258,0.204-0.441,0.484-0.548,0.838c-0.097,0.312-0.145,0.731-0.145,1.257
							c0.064,0.946,0.064,1.526,0,1.741c-0.043,0.043-0.066,0.112-0.066,0.208c-0.14,0.646-0.489,0.967-1.048,0.967
							c-0.279,0-0.908-0.279-1.886-0.838c-0.774-0.58-1.283-0.923-1.531-1.032c-0.634-0.322-1.257-0.602-1.869-0.837
							c-0.399-0.215-0.672-0.36-0.823-0.435c-0.247-0.14-0.414-0.253-0.5-0.338c-0.269,0.828-0.758,2.661-1.467,5.496
							c-0.837,2.514-1.789,3.771-2.852,3.771c-0.559-0.246-0.86-0.414-0.903-0.499c-0.301,0.611-0.693,1.542-1.177,2.789
							c-0.097,0.182-0.285,0.462-0.564,0.837c-0.193,0.279-0.403,0.532-0.629,0.758c-0.043,0.054-0.15,0.167-0.322,0.337
							c-0.183,0.152-0.355,0.247-0.516,0.291c-0.086,0.752-0.129,1.359-0.129,1.82l-0.145,3.191
							c-0.064,0.956-0.226,2.047-0.484,3.272c-0.43,2.063-0.661,3.132-0.693,3.207c-0.247,1.816-0.484,3.949-0.709,6.399
							c-0.118,2.278-0.371,4.249-0.758,5.914 M96.744,246.68c-1.934,0.15-3.304,0.892-4.11,2.224
							c-0.559,0.999-0.838,2.089-0.838,3.271c0,0.032,0.011,0.512,0.032,1.435c0.15,1.075,0.537,2.015,1.161,2.821 M131.749,202.343
							c-0.473,0.236-0.913,0.355-1.322,0.355 M113.86,219.815c0.064,2.374,0.371,4.852,0.919,7.43c0.505,2.352,1.128,4.4,1.87,6.14
							 M104.335,247.036h-0.145c-2.127,1.365-3.191,3.615-3.191,6.753c0,0.441,0.109,0.983,0.322,1.628
							c0.258,0.784,0.591,1.403,0.999,1.855 M139.277,256.642c0.183-0.365,0.258-0.93,0.226-1.692
							c-0.054-1.161-0.387-2.477-0.999-3.949c-0.023-0.333-0.066-0.703-0.129-1.112c-0.054-0.343-0.081-0.553-0.081-0.628
							c0-0.098,0.069-0.329,0.21-0.694c0.054-0.376,0.171-0.656,0.354-0.837 M129.67,248.212c0.226,0.516,0.435,1.097,0.629,1.741
							c0,0.16-0.279,0.881-0.838,2.16c-0.656,1.374-0.983,2.187-0.983,2.434c0,0.237,0,0.741,0,1.515
							c0.064,0.752,0.296,1.386,0.693,1.902 M187.224,250.163c0.775,0.72,1.295,1.316,1.564,1.788
							c0.484,0.795,0.682,1.709,0.597,2.74 M193.703,251.903c-0.042-0.923-0.294-1.735-0.757-2.434
							c-0.312-0.484-0.78-0.971-1.402-1.466"/>
						<path fill="none" stroke="#373535" stroke-width="1.6119" stroke-miterlimit="10" d="M90.812,46.234
							c0.87,0.655,2.105,0.983,3.706,0.983c2.472,0,4.492-0.398,6.061-1.193c1.139-0.58,1.789-1.204,1.95-1.87
							c0.075,0.054,0.21,0.107,0.403,0.161c0.118,0.032,0.328,0.091,0.629,0.178c1.193,0.419,1.913,0.628,2.16,0.628
							c0.032,0,0.124-0.048,0.274-0.145"/>
						<path fill="none" stroke="#373535" stroke-width="1.6119" stroke-miterlimit="10" d="M88.121,46.443
							c0.193,0.097,0.376,0.145,0.548,0.145c1.225,0,2.386-0.328,3.482-0.984c0.58-0.333,0.999-0.655,1.257-0.966
							c0.043-0.032,0.134-0.113,0.274-0.242c0.107-0.097,0.199-0.156,0.274-0.177l-0.066,0.484c0,0.29,0.258,0.618,0.774,0.984
							c0.58,0.462,1.295,0.693,2.144,0.693c1.225,0,2.041-0.371,2.449-1.112c0.226-0.344,0.338-0.784,0.338-1.322
							c0-0.407-0.113-0.783-0.338-1.128c0.086,0.054,0.247,0.102,0.484,0.145c0.462,0.172,1.182,0.5,2.16,0.983l0.629,0.21"/>
						<path fill="none" stroke="#373535" stroke-width="1.6119" d="M126.399,64.671v-0.21c0-0.269-0.328-1.311-0.983-3.127
							c-0.376-0.978-0.629-1.623-0.758-1.934c-0.183-0.484-0.274-0.768-0.274-0.854c-0.236-0.783-0.403-1.386-0.5-1.805
							c-0.032-0.215-0.021-0.86,0.032-1.933c0.054-1.075,0.07-1.66,0.048-1.757c-0.215-1.268-0.424-2.171-0.629-2.708l-1.499-1.966"
							/>
						<path fill="none" stroke="#373535" stroke-width="1.6119" d="M120.13,69.07l0.21-1.53c0-0.494-0.93-1.983-2.789-4.465
							c-1.827-2.343-2.869-3.756-3.127-4.238"/>
						<path fill="none" stroke="#373535" stroke-width="1.6119" d="M115.117,71.085c0.419-0.838,0.629-1.628,0.629-2.369
							c0-1.472-0.833-3.122-2.498-4.947"/>
						<path fill="none" stroke="#373535" stroke-width="1.6119" d="M111.087,76.791c0.783,0.064,1.316-0.446,1.596-1.531
							c0.236-0.709,0.355-1.408,0.355-2.095c0-1.547-0.559-3.122-1.676-4.723"/>
						<path fill="none" stroke="#373535" stroke-width="1.6119" d="M105.51,82.223c0.484-0.494,1.225-1.612,2.224-3.353
							c0.516-0.999,0.876-1.746,1.08-2.24c0.258-0.623,0.387-1.08,0.387-1.37c0-0.634-0.118-1.424-0.355-2.369
							c-0.226-0.623-0.338-1.063-0.338-1.321c0.075-0.387,0.075-0.618,0-0.693"/>
						<g>
							<path fill="#373535" d="M74.003,66.734c0.183,0.107,0.301,0.134,0.355,0.081c0.301-0.097,0.704-0.124,1.209-0.081
								c0.107,0,0.263-0.043,0.467-0.129c0.376-0.15,0.57-0.226,0.58-0.226c0.129-0.064,0.306-0.215,0.532-0.451
								c0.183-0.204,0.338-0.317,0.467-0.338l1.322-0.21c-0.677-0.086-1.118-0.086-1.322,0c-0.215,0-0.591,0.113-1.128,0.337
								l-0.967,0.355c-0.322,0-0.715,0.021-1.177,0.066c-0.559,0.064-0.838,0.182-0.838,0.355l0.066,0.064h0.064
								C73.663,66.557,73.788,66.616,74.003,66.734z M63.333,64.123c0-0.355,0.14-0.682,0.419-0.983
								c0.333-0.269,0.762-0.446,1.289-0.532c0.752-0.118,1.483,0.038,2.192,0.467c1.483,0.602,2.294,0.903,2.434,0.903
								c1.311,0,2.472-0.161,3.482-0.484c1.064-0.279,1.735-0.419,2.015-0.419c0.086,0,0.693,0.14,1.821,0.419
								c1.075,0.322,1.698,0.484,1.87,0.484c0.86,0,1.95-0.231,3.271-0.693c0.172,0,0.285,0.054,0.338,0.161
								c0.054,0.097,0.081,0.274,0.081,0.532c0,0.591-0.881,1.521-2.643,2.789c-0.086,0-1.526,0.833-4.32,2.498
								c-0.58,0.355-1.392,1.263-2.434,2.724c-0.044,0.064-0.274,0.596-0.693,1.596c-0.043,0.183-0.134,0.414-0.274,0.693
								c-0.064,0.14-0.161,0.236-0.29,0.29c-0.15,0.054-0.29,0.005-0.419-0.145c-0.075-0.182-0.258-0.762-0.548-1.741
								c-0.269-0.688-0.57-1.268-0.903-1.741c-0.999-1.461-2.461-2.853-4.384-4.175C64.102,65.584,63.333,64.703,63.333,64.123z
								 M66.396,65.026c-0.313-0.322-0.661-0.484-1.048-0.484c-0.505,0-0.758,0.043-0.758,0.129l0.064,0.145
								c0.688-0.054,1.316,0.203,1.886,0.774c0.473,0.602,1.005,0.903,1.596,0.903l0.774-0.21c-0.183,0-0.602-0.117-1.257-0.355
								c-0.193-0.043-0.451-0.183-0.774-0.419L66.396,65.026z"/>
						</g>
						<path fill="none" stroke="#373535" stroke-width="1.6119" d="M100.998,77.339c0,0.193,0.231,0.87,0.693,2.031
							c0.559,1.268,0.838,2.472,0.838,3.611c0,0.193-0.167,1.005-0.5,2.434v0.355c0.075,0.236,0.263,0.355,0.563,0.355
							c0.333,0,0.806-0.279,1.418-0.838c0.57-0.505,1.327-1.316,2.273-2.434"/>
						<path fill="none" stroke="#373535" stroke-width="1.6119" d="M94.665,98.082c-0.623-0.075-0.951-0.118-0.983-0.13
							c0-0.14-0.392-0.21-1.177-0.21c-0.365,0-0.602,0.043-0.709,0.129"/>
						<path fill="none" stroke="#373535" stroke-width="1.6119" d="M70.989,93.279c-1.514,0.645-2.605,1.042-3.271,1.193"/>
						<path fill="none" stroke="#373535" stroke-width="1.6119" d="M85.672,107.059c-0.247-0.269-0.892-0.752-1.934-1.451
							c-1.159-0.881-1.741-1.209-1.741-0.983"/>
						<path fill="none" stroke="#373535" stroke-width="1.6119" d="M92.569,103.868c-0.419-0.236-1.069-0.564-1.949-0.983
							c-1.257-0.548-1.886-0.801-1.886-0.758"/>
						<path fill="none" stroke="#373535" stroke-width="1.6119" d="M82.206,26.539c-1.687,0.408-3.036,0.801-4.046,1.177
							c-1.709,0.677-2.868,1.354-3.481,2.031L72.6,31.826c-0.924,0.999-1.435,1.649-1.53,1.95c0.408-0.322,0.988-0.645,1.741-0.967
							c1.665-0.774,3.218-1.053,4.657-0.838 M71.069,33.775c-0.58,0.279-1.048,0.628-1.402,1.048
							c-0.236,0.193-0.817,0.983-1.741,2.369l-0.693,1.177c-0.226,0.226-0.365,0.457-0.419,0.694
							c-0.086,0.054-0.177,0.172-0.274,0.355l-1.193,2.079c-0.011,0-0.054,0.07-0.129,0.21l-0.064,0.145
							c0,0.14,0.064,0.328,0.193,0.564l-0.403,0.693c-0.235,0.236-0.355,0.419-0.355,0.548c-1.01,1.472-1.66,2.59-1.95,3.353
							c-0.365,0.903-0.548,2.224-0.548,3.965c0,0.515,0.09,1.348,0.274,2.498c0.086,0.838,0.199,1.51,0.338,2.015
							c0.204,0.827,0.833,2.155,1.886,3.981c0.107-0.548,0.258-1.186,0.451-1.918c0.204-0.762,0.355-1.263,0.451-1.499
							c0.408-1.139,0.849-2.069,1.322-2.789c1.064-1.762,2.923-4.012,5.576-6.753c0.279-0.322,0.65-0.715,1.112-1.177l-0.21,0.066
							c-0.559,0.193-1.096,0.29-1.612,0.29c-0.86,0-1.666-0.15-2.418-0.451s-1.408-0.731-1.966-1.289
							c-0.881-0.902-1.322-1.6-1.322-2.094l0.564-0.355c0.344-0.193,1.134-0.328,2.369-0.403c-0.054,0.021-0.102,0.081-0.145,0.177
							c-0.054,0.107-0.101,0.183-0.145,0.226c-0.14,0.387-0.21,0.693-0.21,0.919c0,0.301,0.118,0.645,0.355,1.032
							c0.537,0.559,1.349,0.838,2.434,0.838c0.462,0,0.93-0.043,1.402-0.129c0.193,0.29,0.376,0.521,0.548,0.693
							c0.172,0.204,0.29,0.365,0.355,0.484l0.484-0.484c1.064-1.278,1.596-2.138,1.596-2.579c0-0.14-0.07-0.441-0.21-0.903
							c-0.182-0.312-0.274-0.521-0.274-0.629c0-0.043,0.016-0.086,0.048-0.129c0.032-0.054,0.064-0.081,0.097-0.081 M69.119,41.495
							c0.14-0.226,0.21-0.36,0.21-0.403c1.257,0,2.041,0.322,2.353,0.967c0.097,0.172,0.193,0.564,0.29,1.177
							c0.043,0.054,0.134,0.172,0.274,0.355c-0.376,0.043-0.725,0.064-1.048,0.064c-1.483,0-2.224-0.532-2.224-1.596
							C68.974,41.822,69.022,41.634,69.119,41.495z M64.59,59.465l-1.177,2.079c-0.29,0.419-0.57,0.999-0.838,1.741
							c-0.279,0.924-0.419,1.526-0.419,1.805c0,0.451,0.322,1.171,0.967,2.159c0.58,0.806,1.122,1.473,1.628,1.999
							c0.527,0.57,0.892,0.854,1.096,0.854 M63.124,67.249c-0.054,0-0.124,0.07-0.21,0.21c-0.548,1.257-0.892,1.977-1.031,2.16
							c-0.838,1.182-1.257,2.321-1.257,3.417c0,0.559,0.392,1.483,1.177,2.772c0.322,0.472,0.972,1.402,1.95,2.789
							c2.223,3.621,3.825,5.431,4.802,5.431"/>
						<path fill="none" stroke="#373535" stroke-width="1.6119" d="M65.766,96.97h0.081c0.591-0.408,1.402-0.779,2.434-1.112
							c0.924-0.398,1.386-0.628,1.386-0.693"/>
						<path fill="none" stroke="#373535" stroke-width="1.6119" d="M66.54,102.611c0.118-0.064,0.247-0.183,0.387-0.355
							c0.183-0.226,0.333-0.408,0.451-0.548l0.758-0.983c1.256-1.182,1.886-1.875,1.886-2.079"/>
						<path fill="none" stroke="#373535" stroke-width="1.6119" d="M72.036,102.611c0,0.408-0.14,0.827-0.419,1.257
							c-0.226,0.516-0.338,0.887-0.338,1.112l0.193,1.322"/>
						<path fill="none" stroke="#373535" stroke-width="1.6119" d="M77.259,106.785c-0.064-0.066-0.134-0.226-0.21-0.484
							c-0.107-0.365-0.199-0.666-0.274-0.903c-0.075-0.43-0.285-0.827-0.629-1.193"/>
						<line fill="none" stroke="#373535" stroke-width="1.6119" x1="93.956" y1="44.219" x2="94.246" y2="44.009"/>
						<line fill="none" stroke="#373535" stroke-width="1.6119" x1="99.257" y1="42.816" x2="98.839" y2="42.752"/>
						<g>
							<path fill="#373535" d="M96.809,46.024c-0.72,0-1.392-0.231-2.015-0.693c-0.419-0.419-0.629-0.768-0.629-1.048
								c0.054-0.086,0.081-0.177,0.081-0.274c0.441-0.376,0.693-0.564,0.758-0.564c0.795-0.387,1.864-0.639,3.207-0.758l0.145-0.016
								c0.14,0.011,0.301,0.038,0.484,0.081c0.043,0,0.182,0.398,0.419,1.192c0,0.301-0.118,0.645-0.355,1.032
								C98.496,45.675,97.797,46.024,96.809,46.024z M97.647,42.897c-0.204,0-0.349,0.038-0.435,0.112
								c-0.075,0.086-0.112,0.231-0.112,0.435c0,0.236,0.021,0.355,0.064,0.355c0,0.032,0.027,0.064,0.081,0.097
								c0.054,0.032,0.097,0.047,0.129,0.047c0,0.044,0.091,0.066,0.274,0.066c0.15,0,0.29-0.07,0.419-0.21
								c0.097-0.215,0.145-0.334,0.145-0.355C98.21,43.08,98.023,42.897,97.647,42.897z"/>
						</g>
						<path fill="none" stroke="#373535" stroke-width="1.6119" d="M72.6,44.154c-0.15-0.279-0.269-0.467-0.355-0.564"/>
						<path fill="none" stroke="#373535" stroke-width="1.6119" d="M68.909,41.092c0.097-0.011,0.236-0.011,0.419,0"/>
						<path fill="#373535" d="M71.617,85.704c0-0.591-0.231-1.289-0.693-2.095l-0.064-0.145l0.064-0.064
							c0.279-0.118,0.661-0.344,1.143-0.677L72.1,82.77c0.097,0.097,0.446,0.328,1.048,0.693c0.548,0.333,0.918,0.521,1.112,0.564
							c0.365,0.086,0.655,0.129,0.87,0.129c-0.441,0.226-0.87,0.693-1.289,1.402c-0.494,1.064-0.794,1.596-0.903,1.596
							c-0.226,0-0.446-0.118-0.661-0.355C72.095,86.585,71.875,86.22,71.617,85.704z"/>
						<path fill="#373535" d="M75.372,84.72l-0.21,0.21c-0.183,0.204-0.274,0.344-0.274,0.419l0.064,0.064
							c0.032,0.064,0.086,0.107,0.161,0.129c0.043,0.011,0.129,0.016,0.258,0.016c0.236,0,0.473-0.021,0.709-0.064
							c0.408-0.096,0.919-0.145,1.531-0.145c0.602,0,1.247,0.118,1.934,0.355c0.623,0.183,0.972,0.273,1.048,0.273
							c0.054,0,0.091-0.011,0.113-0.031c0.118,0.269,0.269,0.532,0.451,0.789l0.274,0.5l-0.419,0.064
							c-0.355,0-0.887-0.118-1.595-0.355l-0.774-0.339c-0.731-0.129-1.402-0.059-2.015,0.21c-0.56,0.279-1.048,0.419-1.467,0.419
							c-0.408-0.054-0.682-0.081-0.822-0.081c-0.054,0-0.102-0.021-0.145-0.064c0-0.559,0.048-0.881,0.145-0.966
							C74.524,85.628,74.867,85.161,75.372,84.72z"/>
						<path fill="#373535" d="M88.459,84.656c0.064,0,0.344,0.043,0.838,0.129c0.602,0.087,1.182,0.157,1.741,0.21
							c1.311,0.269,2.122,0.527,2.434,0.774c0.881,1.009,1.37,1.638,1.467,1.886v1.386c0,0.086,0.043,0.365,0.129,0.838
							c0.097,0.279,0.146,0.629,0.146,1.048c0,0.505-0.048,0.827-0.146,0.967c-0.054,0.29-0.285,0.639-0.693,1.048
							c0,0.043-0.021,0.064-0.064,0.064l-1.885,1.048l-0.13-0.066c-0.032,0.032-0.102,0.075-0.21,0.129
							c-0.075,0.043-0.124,0.091-0.145,0.145c-0.86,0.645-1.95,0.967-3.272,0.967c-0.956,0-1.836-0.253-2.642-0.758l-1.741-1.741
							c-1.676-1.676-4.066-2.513-7.172-2.513h-0.693c-1.494,0.387-2.933,1.128-4.32,2.224c-0.344,0.364-0.715,0.645-1.112,0.838
							c0-0.086-0.027-0.177-0.081-0.274c-0.086-0.173-0.129-0.263-0.129-0.274c-0.183-0.462-0.296-0.74-0.338-0.838
							c-0.054-0.183-0.081-0.763-0.081-1.741c0-1.343,0.097-2.364,0.29-3.063c0.097-0.623,0.145-1.209,0.145-1.757
							c0.021-0.269-0.124-0.822-0.435-1.66c-0.527,0.279-0.94,0.419-1.241,0.419c-0.236,0-0.403-0.021-0.5-0.064
							c-0.064-0.054-0.091-0.14-0.081-0.258c0.021-0.14,0.091-0.231,0.21-0.274c-0.183-0.032-0.338-0.134-0.467-0.306
							c-0.021-0.064-0.064-0.139-0.129-0.225c-0.054-0.075-0.081-0.14-0.081-0.193c0.054-0.172,0.236-0.451,0.548-0.838
							c0.118-0.333,0.306-0.655,0.564-0.967c0.182-0.301,0.38-0.586,0.596-0.854c0.161-0.204,0.242-0.312,0.242-0.322
							c0.043-0.118,0.14-0.306,0.29-0.564c0.172-0.301,0.306-0.553,0.403-0.758c0.333-0.355,0.725-0.591,1.177-0.709
							c0.193-0.044,0.591-0.157,1.193-0.338c0.419,0.279,1.461,0.951,3.127,2.015c1.472,0.849,2.611,1.429,3.417,1.741
							c0.193,0.097,0.747,0.349,1.66,0.758c0.806,0.408,1.504,0.645,2.095,0.709c0.666,0.118,1.408,0.322,2.224,0.613
							c0.043,0.054,0.113,0.102,0.21,0.145c0.032-0.021,0.075-0.016,0.129,0.016c0.032,0.011,0.059,0.027,0.081,0.048
							c0.172,0.097,0.263,0.145,0.274,0.145c0.204,0,0.462,0.091,0.774,0.274C87.633,84.162,88.094,84.42,88.459,84.656z"/>
						<path fill="#FFFFFF" d="M70.924,83.399c0.279-0.118,0.661-0.344,1.143-0.677L72.1,82.77c0.097,0.097,0.446,0.328,1.048,0.693
							c0.548,0.333,0.918,0.521,1.112,0.564c0.365,0.086,0.655,0.129,0.87,0.129c-0.441,0.226-0.87,0.693-1.289,1.402
							c-0.494,1.064-0.794,1.596-0.903,1.596c-0.226,0-0.446-0.118-0.661-0.355c-0.183-0.215-0.403-0.58-0.661-1.096
							c0-0.591-0.231-1.289-0.693-2.095l-0.064-0.145L70.924,83.399z"/>
						<path fill="#FFFFFF" d="M80.707,85.945c0.118,0.269,0.269,0.532,0.451,0.789l0.274,0.5l-0.419,0.064
							c-0.355,0-0.887-0.118-1.595-0.355l-0.774-0.339c-0.731-0.129-1.402-0.059-2.015,0.21c-0.56,0.279-1.048,0.419-1.467,0.419
							c-0.408-0.054-0.682-0.081-0.822-0.081c-0.054,0-0.102-0.021-0.145-0.064c0-0.559,0.048-0.881,0.145-0.966
							c0.183-0.494,0.527-0.962,1.031-1.402l-0.21,0.21c-0.183,0.204-0.274,0.344-0.274,0.419l0.064,0.064
							c0.032,0.064,0.086,0.107,0.161,0.129c0.043,0.011,0.129,0.016,0.258,0.016c0.236,0,0.473-0.021,0.709-0.064
							c0.408-0.096,0.919-0.145,1.531-0.145c0.602,0,1.247,0.118,1.934,0.355c0.623,0.183,0.972,0.273,1.048,0.273
							C80.648,85.978,80.686,85.967,80.707,85.945z"/>
						<path fill="#FFFFFF" d="M84.64,84.301c-0.161,0.161-0.279,0.532-0.355,1.112c-0.097,0.226-0.215,0.666-0.355,1.321
							c-0.193,0.698-0.424,1.048-0.693,1.048c-0.795,0-1.445-0.672-1.95-2.015c-0.204-0.774-0.365-1.311-0.484-1.612
							c0.182-0.247,0.301-0.381,0.355-0.403l0.419-0.29c1.085,0.097,1.87,0.145,2.352,0.145l1.048,0.145l0.081,0.064
							C84.898,83.893,84.758,84.054,84.64,84.301z"/>
						<path fill="none" stroke="#373535" stroke-width="1.6119" d="M120.064,245.634c0.172-0.023,0.527-0.066,1.064-0.129
							c0.473-0.075,0.758-0.199,0.854-0.371"/>
					</g>
				</g>
			</g>
		</g>
	</g>
</g>
</svg>
