<?xml version="1.0" encoding="utf-8"?>
<!-- Generator: Adobe Illustrator 17.0.1, SVG Export Plug-In . SVG Version: 6.00 Build 0)  -->
<!DOCTYPE svg PUBLIC "-//W3C//DTD SVG 1.1//EN" "http://www.w3.org/Graphics/SVG/1.1/DTD/svg11.dtd">
<svg version="1.1" id="Layer_1" xmlns="http://www.w3.org/2000/svg" xmlns:xlink="http://www.w3.org/1999/xlink" x="0px" y="0px"
	 width="255.989px" height="158.755px" viewBox="4.324 42.914 255.989 158.755"
	 enable-background="new 4.324 42.914 255.989 158.755" xml:space="preserve">
<g id="Layer_3">
	<path fill="#FFFFFF" d="M254.944,141.587c-0.357-0.111-1.781-1.937-2.141-2.252c-1.133-0.996-2.973-1.785-3.855-3.015
		c-0.38-0.528-0.801-0.967-1.249-1.34c0.206-2.097-0.739-4.174-3.38-5.318c-5.951-2.579-11.348-1.417-17.581-0.803
		c-3.101,0.305-6.298,0.269-9.449,0.295c0.163-0.073,0.324-0.147,0.493-0.219c2.244-0.945,5.861-3.931,8.329-2.743
		c1.251,0.603,2.349-1.263,1.093-1.869c-3.845-1.852-6.532,1.071-9.996,2.525c-1.691,0.71-3.149,1.464-4.377,2.51
		c-0.598,0.061-1.23,0.127-1.89,0.188c0.564-0.59,1.039-1.229,1.501-1.939c0.181-0.278,0.213-0.549,0.15-0.787
		c1.543-1.12,2.62-2.749,4.152-3.876c1.11-0.817,0.034-2.697-1.093-1.869c-1.695,1.247-2.904,2.966-4.621,4.199
		c-1.434,1.029-3.017,1.648-4.384,2.7c-1.111,0.251-2.194,0.497-3.092,0.988c-0.656-0.321-1.304-0.526-1.936-0.624
		c-0.017-0.009-0.028-0.021-0.045-0.029c-0.182-0.103-0.363-0.219-0.543-0.327c-0.536-3.056-1.143-6.095-1.065-9.218
		c0.035-1.397-2.131-1.394-2.164,0c-0.063,2.556,0.315,5.064,0.751,7.567c-5.198-3.769-10.298-8.908-16.894-8.243
		c-3.179,0.32-5.903,2.256-6.403,5.432c-11.019-1.217-22.055-2.127-33.069-3.411c-3.102-0.361-6.207-0.596-9.316-0.754
		c-0.387-4.776-2.027-8.254-7.144-10.022c-5.936-2.052-14.272-1.014-20.491,0.276c-0.004-0.406-0.173-0.812-0.438-1.118
		c0.135-0.144,0.267-0.289,0.407-0.435c0.479-0.505-0.285-1.273-0.765-0.765c-0.209,0.221-0.407,0.455-0.628,0.664
		c-0.622-0.075-1.22,0.253-1.609,0.792c-0.41,0.568-0.805,1.147-1.202,1.725c-0.203,0.039-0.405,0.084-0.608,0.122
		c-0.17-3.235,0.163-6.42,0.99-9.66c0.442-1.73-2.159-2.962-2.967-1.251c-0.145,0.307-0.303,0.6-0.459,0.894
		c0.132-1.117,0.243-2.236,0.331-3.358c0.148-0.038,0.291-0.114,0.374-0.231c0.6-0.841,0.735-1.833,0.75-2.843
		c0.011-0.698-1.071-0.697-1.082,0c-0.005,0.378-0.035,0.74-0.103,1.089c-0.083-0.285-0.142-0.572-0.182-0.865
		c0.025-0.473,0.018-0.955,0.014-1.443c-0.001-0.108-0.041-0.197-0.094-0.275c0.028-0.085,0.043-0.172,0.075-0.258
		c0.245-0.655-0.802-0.936-1.043-0.288c-0.373,1.003-0.495,2.035-0.537,3.082c-0.688,0.131-1.316,0.638-1.377,1.526
		c-0.146,2.123-0.411,4.232-0.68,6.341c-0.841-0.592-1.802-0.861-2.812-1.143c-0.672-0.187-1.374,0.101-1.759,0.646
		c-1.171-0.779-2.375-1.505-3.63-2.144c-2.414-1.23-5.201-2.233-6.492-4.79c-0.232-0.459-0.576-0.703-0.948-0.789
		c-0.857-0.924-2.296-1.625-2.962-2.589c-0.28-0.406-0.814-0.314-0.989,0.13c-0.022,0.055-0.032,0.107-0.05,0.161
		c-0.446-0.523-1.197,0.24-0.759,0.771c0.879,1.064,1.716,2.154,2.726,3.06c-0.024,0.282,0.022,0.584,0.177,0.894
		c1.98,3.921,6.423,5.052,9.917,7.212c2.413,1.491,4.873,2.871,5.108,5.953c0.038,0.502,0.041,1.031,0.052,1.566
		c-1.125,0.158-2.251,0.313-3.379,0.453c-3.388-0.22-6.796-0.328-10.058-1.161c-5.086-1.3-10.071-3.106-15.151-4.464
		c-0.285-0.076-0.558-0.113-0.832-0.153c-0.394-2.281-1.862-4.337-4.398-4.994c0-0.25-0.002-0.504-0.013-0.766
		c-0.06-1.571-0.57-2.846-1.354-3.827c0.265-2.552,0.382-5.098,0.407-7.672c0.005-0.535-0.15-0.965-0.404-1.294
		c1.856-7.007,4.802-13.89,8.131-20.094c3.782-7.048,6.937-18.144,17.028-18.247c1.062-0.011,1.716-0.645,1.971-1.423
		c1.538-0.04,3.058,0.056,4.519,0.33c0.092,0.353,0.343,0.671,0.807,0.872c1.213,0.527,2.449,0.827,3.738,1.111
		c0.986,0.218,2.593,0.408,3.255,1.281c1.248,1.645,4.07,0.03,2.804-1.638c-1.12-1.475-2.586-2.029-4.148-2.428
		c-0.021-0.047-0.022-0.096-0.045-0.142c-0.127-0.232-0.279-0.446-0.406-0.676c-0.372-0.681-1.227-0.952-1.936-0.712
		c-0.147-0.668-0.603-1.262-1.461-1.503c-3.369-0.95-6.621-1.854-10.038-0.676c-3.174,1.094-6.852,0.944-9.884,2.38
		c-3.434,1.628-4.961,4.818-8.087,6.87c-2.109,1.384-3.158,2.618-2.96,5.014c-2.301,1.641-4.372,3.27-5.106,6.593
		c-0.098,0.448-0.08,0.846,0.019,1.191c-1.868,2.652-3.513,5.409-4.631,8.813c-1.087,3.308-3.067,6.275-4.321,9.535
		c-1.54,4.002-0.812,8.522-1.155,12.69c-0.055,0.67,0.158,1.173,0.511,1.519c-0.183,0.637-0.269,1.348-0.24,2.133
		c0.203,5.349,0.784,8.99,3.365,13.798c2.597,4.84,6.333,9.937,10.837,13.139c2.156,1.532,4.424,2.821,6.736,4.102
		c2.188,1.212,3.789,3.37,5.585,5.072c2.012,1.908,4.352,3.269,6.795,4.459c-0.725,0.694-1.32,1.599-1.701,2.752
		c-0.517,1.564-1.342,5.579-2.69,6.819c-5.71-4.823-14.905-5.948-22.027-5.904c-2.777,0.017-5.527,0.955-7.341,2.97
		c-6.7,0.073-13.519,0.945-20.087-0.322c-1.001-0.194-1.789,0.249-2.253,0.91c-0.898,0.083-2.08,0.828-2.519,1.116
		c-0.247,0.162-0.284,0.422-0.207,0.642c-0.15,0.326,0.056,0.772,0.478,0.772c0.476,0,1.283-0.032,1.989-0.212
		c0.234,0.456,0.674,0.815,1.358,0.947c4.053,0.782,8.231,0.615,12.345,0.804c1.829,0.084,3.682,0.023,5.541-0.056
		c-0.012,0.015-0.023,0.025-0.035,0.041c-1.417,1.449-2.135,2.848-2.839,4.731c-0.451,1.207-0.532,2.305-0.344,3.275
		c-0.067,0.055-0.135,0.102-0.2,0.167c-0.45,0.459-0.938,0.871-1.436,1.273c-0.327-0.211-0.753-0.277-1.253-0.09
		c-2.28,0.852-3.988,2.447-6.426,2.942c-2.552,0.518-4.531,1.34-6.881,2.498c-4.909,2.418-10.259,3.913-14.947,6.764
		c-1.786,1.085-0.156,3.894,1.638,2.803c4.133-2.511,8.822-3.94,13.223-5.914c2.618-1.174,4.952-2.528,7.831-3.019
		c1.369-0.234,2.36-0.742,3.322-1.307c0.005,0.018,0.006,0.038,0.013,0.056c-0.334,0.394-0.489,0.914-0.498,1.436
		c-2.44,0.94-4.984,2.457-5.578,5.158c-0.036,0.163-0.031,0.313-0.024,0.46c-1.089,1.659-1.813,3.574-2.276,5.492
		c-0.491,2.035,2.639,2.898,3.131,0.863c0.432-1.791,1.076-3.504,2.136-5.024c0.045-0.067,0.076-0.132,0.11-0.198
		c0.128-0.036,0.258-0.091,0.389-0.167c1.727-1.011,3.441-2.035,5.276-2.841c0.811-0.356,0.991-1.524,0.583-2.221
		c-0.015-0.026-0.035-0.045-0.051-0.07c0.32-0.412,0.48-0.94,0.468-1.469c0.466,0.025,0.931,0.063,1.383,0.158
		c-0.069-0.015,0.413,0.704,0.868,1.324c0.209,1.702,1.189,3.133,1.496,4.808c0.083,0.459,0.784,0.529,0.989,0.129
		c0.708-1.381,1.446-2.618,1.157-4.199c0.255-0.251,0.465-0.558,0.598-0.91c0.306-0.809,0.408-1.644,0.536-2.451
		c0.181,0.286,0.363,0.569,0.581,0.835c0.238,0.291,0.524,0.459,0.824,0.558c0.026,0.39,0.092,0.778,0.185,1.167
		c0.075,0.313,0.517,0.534,0.794,0.324c0.529-0.399,0.84-0.921,1.059-1.541c0.057-0.16,0.037-0.297-0.028-0.405
		c0.352-0.282,0.641-0.643,0.782-1.058c0.18-0.619,0.423-1.213,0.728-1.781c0.249-0.488,0.3-0.964,0.219-1.396
		c0.598-0.469,1.133-1.054,1.564-1.776c0.221-0.161,0.545-0.437,1.005-0.857c0.794-0.522,1.43-1.198,1.908-2.03
		c0.305-0.368,0.564-0.762,0.784-1.177c0.488,0.633,1.096,1.185,1.82,1.604c2.032,1.179,4.231,2.322,6.558,2.765
		c0.975,1.707,2.77,3.055,5.376,3.398c4.454,0.585,8.266,3.091,12.746,0.466c0.398-0.234,5.165-4.349,1.921-1.94
		c1.991-1.478,3.999-2.755,5.447-4.822c1.287-1.839,1.74-3.355,3.552-4.804c1.703-1.362,3.506-2.295,5.481-3.034
		c3.951,3.813,8.648,5.857,13.705,8.649c2.251,1.242,4.604,1.962,7,2.486c1.055,0.894,2.243,1.379,3.75,1.822
		c0.054,0.016,0.105,0.018,0.158,0.032c4.357,3.815,12.487,3.346,18.817,3.241c1.463,0.067,2.915,0.088,4.395,0.068
		c0.247-0.003,0.483-0.019,0.714-0.042c3.32,0.113,6.639,0.278,9.963,0.307c5.864,0.054,11.576-1.193,17.258-2.503
		c0.681-0.158,1.356-0.338,2.035-0.505c0.299,0.35,0.643,0.661,1.003,0.951c-0.121,0.557-0.074,1.171,0.24,1.805
		c1.078,2.181,2.615,3.73,4.413,4.921c0.107,0.911,0.7,1.696,1.937,1.87c1.045,0.146,2.069,0.358,3.079,0.622
		c0.097,0.152,0.195,0.303,0.328,0.439c1.941,1.992,4.387,2.857,6.894,3.921c3.52,1.496,4.23,4.194,5.125,7.601
		c0.089,0.337,0.229,0.61,0.393,0.855c-0.147,0.291-0.214,0.635-0.16,1.021c0.23,1.641-0.287,3.154,0.295,4.777
		c0.561,1.563,1.812,2.422,2.962,3.515c1.516,1.44,3.816-0.852,2.295-2.295c-0.706-0.67-1.535-1.222-2.029-2.051
		c0.653-0.212,1.23-0.826,1.151-1.537c-0.122-1.1-0.225-2.197-0.253-3.303c0.547-0.583,0.829-1.414,0.564-2.422
		c-0.049-0.186-0.1-0.367-0.148-0.552c0.539,0.211,1.128,0.205,1.677,0.042c0.405,0.666,1.109,1.097,1.885,1.224
		c0.207,0.332,0.488,0.628,0.863,0.853c3.307,1.987,6.836,3.659,9.869,6.07c0.601,0.477,1.255,0.654,1.883,0.627
		c0.224,0.745,0.911,1.369,1.871,1.199c0.016,0.068,0.028,0.14,0.04,0.209c0.003,0.026,0.006,0.065,0.013,0.118
		c0.092,0.948,0.027,1.943,0.328,2.858c0.649,1.98,3.784,1.133,3.131-0.863c-0.026-0.078-0.101-0.476-0.111-0.473
		c-0.028-0.288-0.042-0.577-0.057-0.866c-0.035-0.669-0.085-1.348-0.249-2.001c-0.313-1.238-1.182-1.931-2.242-2.144
		c0.105-0.292,0.158-0.596,0.133-0.903c0.272-0.009,0.539-0.055,0.799-0.127c0.256,0.384,0.668,0.673,1.245,0.721
		c1.564,0.127,2.174,0.879,2.927,2.172c1.082,1.857,3.61,0.232,2.803-1.638c-0.595-1.379-0.848-2.856-2.235-3.712
		c-0.667-0.411-1.138-0.491-1.228-1.343c-0.096-0.913-0.122-1.8-0.431-2.674c-0.131-0.371-0.35-0.641-0.613-0.822
		c-0.159-1.096-0.907-2.088-2.248-2.231c-0.587-0.474-1.261-0.874-2.058-1.164c-1.167-0.425-2.371-0.591-3.584-0.711
		c0.036-0.207,0.064-0.419,0.056-0.647c-0.069-2.266-1.226-4.932-3.711-5.31c-1.751-0.266-3.968,0.765-5.366,1.795
		c-0.048,0.035-0.08,0.08-0.124,0.116c-0.869-0.424-1.907-0.439-2.685-0.05c-0.412-0.407-0.919-0.738-1.517-0.978
		c-0.3-0.121-0.588-0.23-0.866-0.333c-0.227-0.378-0.488-0.72-0.776-1.035c-0.143-0.616-0.511-1.197-1.193-1.627
		c-1.354-0.852-2.336-2.174-3.375-3.365c-0.759-0.871-1.695-1.555-2.546-2.326c2.373-0.409,4.803-0.872,6.52-2.426
		c0.145-0.023,0.292-0.037,0.437-0.06c0.947-0.145,1.772-0.574,2.459-1.176c0.838,0.092,1.675,0.189,2.514,0.267
		c1.041,0.097,2.088,0.146,3.135,0.17c0.352,0.369,0.755,0.715,1.227,1.03c3.095,2.066,7.06,2.215,10.655,1.913
		c3.902-0.328,6.97-2.394,10.716-3.016c0.93-0.155,1.742-0.575,2.424-1.16c0.055-0.009,0.111-0.014,0.166-0.023
		c4.251-0.687,7.894-2.223,11.677-4.224c2.987-1.58,6.535-2.052,9.334-3.906C261.2,150.338,260.467,143.315,254.944,141.587z"/>
</g>
<g>
	<g id="Layer_1_1_">
		<g>
			<g id="Layer_1_3_">
				<g>
					<path fill="#373535" d="M235.778,142.984c0.184,0.354,0.331,0.656,0.439,0.908c0.184-0.079,0.319-0.126,0.406-0.137
						c0.413-0.079,0.646-0.148,0.699-0.205c0-0.195,0.012-0.326,0.032-0.394C236.944,143.051,236.418,142.995,235.778,142.984z
						 M233.809,142.486c0.032-0.08,0.109-0.171,0.228-0.274c0.152-0.126,0.308-0.195,0.472-0.206c0.542,0,1.046,0.012,1.513,0.034
						c1.313,0.103,2.17,0.36,2.57,0.772l1.14,1.51c0.109,0.228,0.109,0.406,0,0.531c-0.13,0.366-0.715,0.549-1.757,0.549
						c-1.28,0-2.338-0.4-3.173-1.2c-0.585-0.561-0.911-1.108-0.976-1.646L233.809,142.486z"/>
					
						<path fill="none" stroke="#373535" stroke-width="1.6233" stroke-linecap="round" stroke-linejoin="round" stroke-miterlimit="3" d="
						M226.228,157.349l0.196,0.068c0.022,0,1.068-0.144,3.139-0.429c2.061-0.275,3.915-0.418,5.565-0.429
						c2.419-0.035,6.6-0.229,12.545-0.583c0.542-0.023,1.237-0.085,2.082-0.188c1.306-0.159,2.483-0.385,3.531-0.677
						c0.005-0.003,0.011-0.007,0.016-0.009c1.482-0.824,2.886-1.577,4.215-2.264c0.868-0.616,1.42-1.28,1.659-1.988
						c0.216-0.662,0.326-1.812,0.326-3.447c0-0.765-0.705-1.994-2.115-3.685c-1.899-2.103-2.88-3.195-2.946-3.274
						c-0.173-0.206-0.922-1.017-2.244-2.435c-0.814-0.834-1.449-1.467-1.905-1.902c-0.944-0.971-1.736-1.726-2.374-2.263
						c-1.757-4.217-4.952-6.327-9.583-6.327c-0.944,0-4.068,0.514-9.372,1.543c-4.393,0.845-8.227,1.337-11.503,1.474l-1.757,0.035
						c-1.594,0-3.248-0.087-4.962-0.258c-3.134-0.429-5.176-0.732-6.125-0.908c-0.062-0.012-0.118-0.024-0.171-0.035l-3.368-0.737
						c-5.358-1.314-8.102-1.972-8.232-1.972 M217.458,130.538l2.213-1.937c2.331-1.805,4.262-2.709,5.792-2.709
						c0.249,0,0.63,0.097,1.14,0.292c0.466,0,0.699-0.24,0.699-0.721c0-0.411-0.206-0.869-0.618-1.371
						c-0.596-0.663-1.41-0.995-2.44-0.995c-1.041,0-3.537,1.045-7.484,3.137c-2.593,1.406-4.524,2.354-5.793,2.846
						c1.454-1.475,3.358-3.738,5.711-6.789c0.445-0.582,1.167-1.542,2.164-2.88c0-0.16-0.092-0.28-0.277-0.36
						c-0.488,0.263-2.066,1.343-4.735,3.24l-2.782,2.006c-3.6,2.583-5.77,3.874-6.508,3.874c-2.19,0-3.487-0.8-3.888-2.4
						c-0.13-0.457-0.168-1.103-0.114-1.937l0.081-1.543c-0.239-2.845-0.71-5-1.416-6.463c-0.109-0.091-0.216-0.16-0.326-0.206
						c-0.239-0.103-0.38-0.035-0.423,0.206c-0.087,0.606-0.266,2.423-0.537,5.452l-0.081,1.011c-0.162,1.92-0.245,3.023-0.245,3.308
						l0.016,0.155c-1.01-0.8-2.549-1.954-4.621-3.463c-0.162-0.103-0.254-0.166-0.277-0.188c-2.051-1.463-3.59-2.474-4.621-3.034
						c-1.909-1.075-3.933-1.611-6.068-1.611c-2.104,0-3.818,0.594-5.142,1.782c-1.03,0.948-1.546,1.824-1.546,2.622l0.05,0.977
						l1.627,0.479c1.41,0.491,3.531,0.892,6.361,1.2 M210.722,181.487l5.158,2.657l3.091,1.44c1.475,0.159,2.588,0.359,3.335,0.601
						c0.184,0.067,0.429,0.347,0.733,0.839l3.953,1.097l0.016-0.617c0-0.366-0.19-1.148-0.569-2.348
						c-0.054-0.114-0.114-0.286-0.179-0.515c-0.468-1.417-0.803-2.233-1.01-2.451c-0.661-0.732-1.313-1.177-1.952-1.337
						c-0.468-0.115-2.277-0.303-5.434-0.566c0.109-0.57,0.162-1.302,0.162-2.194c0.022-0.834-0.114-1.646-0.407-2.434
						c-0.575-1.578-1.638-2.367-3.188-2.367c-0.738,0-2.029,0.343-3.872,1.028c-1.824,0.686-2.924,1.029-3.304,1.029
						c-1.377,0-2.581-0.55-3.611-1.646c-1.824-1.944-3.335-3.36-4.539-4.252c-0.098-0.08-0.174-0.132-0.228-0.155
						c-0.401-0.332-1.426-1.28-3.076-2.846c-0.932-0.857-1.779-1.594-2.538-2.211c-0.944-0.754-1.524-1.132-1.741-1.132
						c-0.281,0-0.456,0.068-0.519,0.205 M195.802,166.452c1.432-0.126,3.335-0.702,5.711-1.732c2.614-1.166,4.48-1.749,5.597-1.749
						c1.333,0,3.265,0.617,5.792,1.852c2.462,1.223,4.821,1.834,7.078,1.834c3.254,0,11.97-2.474,26.146-7.423
						c2.557-1.525,4.943-2.899,7.159-4.123 M208.736,184.366c0,0.183,0.19,0.446,0.569,0.789c0.521,0.503,1.443,1.16,2.766,1.972
						c5.609,2.766,8.412,4.16,8.412,4.183l4.229,1.371c0.716,0.308,2.202,1.286,4.458,2.932c0.477,0,0.733-0.314,0.765-0.943
						c0.173-0.229,0.216-0.646,0.13-1.251c0-2.48-1.025-4.247-3.075-5.298 M223.039,187.023c-0.228-0.045-0.347-0.068-0.358-0.068
						c-0.89-0.205-2.127-0.662-3.71-1.371 M210.039,178.349l3.026,0.909c0.218-0.045,0.646-0.177,1.286-0.394l0.585-0.24
						l0.944,1.149c0.097,0.091,0.216,0.223,0.358,0.394l-0.245-0.017l-2.93-0.892 M188.254,152.618c-1.399,0-3.845,0.92-7.337,2.76
						c-4.23,2.217-6.345,4.423-6.345,6.618c0,0.25,0.13,1.439,0.39,3.565c0.293,1.383,0.76,2.681,1.399,3.893
						c0.868,1.646,2.061,3.136,3.58,4.474c1.638,1.464,5.266,3.183,10.885,5.161c1.475,0.549,2.902,1.669,4.279,3.359l0.716,0.944
						l0.634,1.577c0.011,0.057,0.038,0.119,0.081,0.188c0.879,2.184,1.383,3.932,1.513,5.247c0.293,2.629,0.526,4.176,0.699,4.646
						c0.695,1.781,2.201,3.257,4.524,4.423l0.13-0.085c0.216,0,0.352-0.052,0.407-0.155c0.054,0.034,0.08-0.058,0.08-0.275
						c0-0.845-0.248-2.035-0.748-3.566c-0.542-1.509-0.813-2.721-0.813-3.634c0-1.005,0.108-1.909,0.326-2.709
						c0.281-0.903,0.553-1.857,0.813-2.862c0.423,0.445,0.857,0.668,1.302,0.668c0.196,0,0.337-0.057,0.423-0.171
						c2.094,1.531,5.451,3.721,10.072,6.565c0.791,0.48,1.893,1.115,3.303,1.904c1.16,0.754,1.866,1.354,2.115,1.8
						c0.055,0.104,0.288,0.885,0.699,2.348l0.212,0.653c0,0.148,0.026,0.292,0.08,0.429c0.088,0.206,0.245,0.338,0.473,0.394
						c0.065,0.058,0.135,0.085,0.211,0.085c0.153,0,0.26-0.027,0.326-0.085c0.922-0.216,1.562-1.411,1.919-3.583
						c0-1.965-1.263-3.852-3.79-5.658l-0.326-0.222 M175.384,122.841c-0.532-0.148-1.269-0.331-2.213-0.549
						c-1.855-0.411-3.959-0.76-6.314-1.045c-5.704-0.732-13.102-1.16-22.192-1.286c-4.469-0.035-8.379-0.216-11.731-0.549
						c0.097-0.64,0.146-1.359,0.146-2.16c0-2.137-0.45-3.743-1.351-4.818c-1.627-1.885-5.032-3.132-10.217-3.737h-1.757
						c-2.928-0.035-6.709,0.44-11.34,1.423c-1.432,0.308-2.56,0.577-3.384,0.806c0.239-0.549,0.548-1.549,0.927-3
						c-0.032-0.72-0.33-1.08-0.895-1.08c-0.607,0-1.383,0.446-2.327,1.338c-0.803,0.742-1.313,1.32-1.529,1.732l-0.081-0.017
						c-0.218-0.709-0.326-1.669-0.326-2.88l0.081-0.429c0.618-4.172,0.927-7.034,0.927-8.589c-0.022-0.114-0.043-0.183-0.065-0.206
						c-0.032-0.045-0.108-0.08-0.227-0.103c-0.119-0.023-0.218-0.012-0.293,0.035l-0.097,0.068
						c-0.575,0.526-1.448,1.857-2.619,3.994l-0.944,1.8c0.022-0.88,0.266-2.537,0.732-4.972c0.466-2.651,0.699-4.348,0.699-5.092
						c-0.293-1.965-0.634-2.949-1.025-2.949c-0.043,0-0.07,0.011-0.081,0.035c-0.087-0.057-0.195-0.087-0.325-0.087
						c-0.369,0-0.542,0.36-0.521,1.08c0.032,0.937-0.049,1.549-0.245,1.834c-0.076,0.136-0.499,0.685-1.269,1.646
						c-0.51,0.663-0.825,1.188-0.944,1.578c-0.944,2.731-1.416,4.886-1.416,6.463v0.12c-0.834-0.389-1.914-0.845-3.238-1.371
						c-3.46-1.394-6.015-2.703-7.663-3.925c-2.386-2.035-5.087-4.28-8.102-6.738l-0.245-0.343h-0.18v0.035
						c-0.043,0.068-0.103,0.132-0.18,0.188l0.081,0.206l-0.032,0.137c0,2.697,2.327,5.932,6.98,9.703
						c3.058,2.48,5.673,4.074,7.842,4.782c0.434,0.149,0.814,0.371,1.14,0.669c0.9,0.822,1.351,2.246,1.351,4.268l-0.13,1.509v0.068
						c4.708,0.32,7.533,0.594,8.477,0.822c1.128,0.263,4.517,0.737,10.168,1.423c1.941,0.228,3.335,0.457,4.182,0.685
						c0.629,0.172,1.324,0.469,2.082,0.892 M52.235,154.691c0,0.058,0.19,0.424,0.569,1.098c0.13,0.216,0.407,0.582,0.83,1.097
						c0.347,0.606,0.504,1.399,0.473,2.383l3.139,1.559c2.95,1.485,4.664,2.331,5.142,2.537c1.041,0.503,2.901,1.463,5.581,2.88
						c2.907,1.464,4.762,2.195,5.565,2.195c3.731,0,6.968-1.235,9.713-3.703c0.771-0.686,1.601-1.577,2.49-2.674
						c0.748-0.972,1.155-1.486,1.22-1.544c1.779-1.302,3.373-2.822,4.783-4.559l1.351-1.749c0.326-0.342,0.76-0.748,1.302-1.216
						c1.041-0.88,1.92-1.32,2.636-1.32c0.412,0,1.583,0.732,3.515,2.194c1.822,1.394,3.102,2.48,3.84,3.257
						c0.65,0.72,1.979,1.65,3.986,2.794c1.941,1.097,3.845,1.971,5.711,2.623c0.748,0.274,2.473,0.988,5.174,2.142
						c2.029,0.904,3.894,1.617,5.597,2.143c5.097,1.519,11.926,2.279,20.484,2.279c4.653,0,8.47-0.251,11.454-0.754
						c1.399-0.228,3.45-0.645,6.15-1.25c1.203-0.195,4.002-0.498,8.396-0.909c1.746-0.218,2.955-0.429,3.629-0.635 M90.796,112.435
						c-0.022-0.023-0.065-0.035-0.13-0.035c-4.653-0.263-7.045-0.406-7.175-0.429l-5.5-0.908c-0.423-0.148-1.03-0.263-1.822-0.343
						l-2.017-0.308l-0.196,0.017c-1.822-0.274-3.379-0.594-4.67-0.96c-0.911-0.24-2.489-0.972-4.735-2.195
						c-0.401-0.206-0.771-0.434-1.106-0.685c-2.082-1.418-3.537-3.189-4.36-5.315c-0.337-0.857-0.677-3.08-1.025-6.67
						c-0.216-2.286-0.337-3.845-0.358-4.679c0-0.035,0.016-0.303,0.049-0.806c0.239-2.891,0.673-5.52,1.302-7.886
						c0.358-1.268,1.171-3.297,2.44-6.086c0.846-1.805,1.638-3.457,2.375-4.954c1.767-3.783,3.042-6.44,3.823-7.971
						c1.464-2.869,2.891-5.103,4.279-6.703c3.568-4.195,8.634-6.292,15.196-6.292c2.615,0,5.12,0.657,7.517,1.972
						c2.484,1.292,3.802,1.937,3.953,1.937c0.162,0,0.299-0.136,0.407-0.411h-0.016c0.054-0.148,0.081-0.308,0.081-0.479
						c0-0.641-1.313-2.172-3.937-4.595c-0.575-0.709-1.475-1.383-2.701-2.023c-2.419-1.258-5.488-1.886-9.208-1.886l-1.546,0.07
						c-2.061-0.389-5.298,0.542-9.714,2.794c-4.762,2.423-8.33,5.148-10.705,8.177c-1.345,1.714-2.68,3.749-4.003,6.103
						l-3.384,6.086c-1.074,1.84-2.392,4.566-3.953,8.177l-1.302,3.085c-2.582,6.297-3.872,10.652-3.872,13.063l0.032,2.743
						c0.032,0.583,0.087,1.035,0.162,1.354c-0.13,1.188-0.195,2.789-0.195,4.801c0,2.766,0.049,4.611,0.146,5.537
						c0,0.08,0.043,0.366,0.13,0.857c0.282,1.714,0.825,3.348,1.627,4.902c1.518,3.017,2.538,4.909,3.059,5.674
						c0.521,0.743,1.268,1.629,2.246,2.658c0.803,1.166,2.19,2.731,4.165,4.697c2.234,2.275,4.148,4.08,5.743,5.417
						c2.527,2.08,5.705,4.422,9.534,7.029c0.38,0.24,0.9,0.589,1.562,1.045c2.431,1.635,4.079,2.635,4.947,3
						c0.781-1.463,1.345-2.462,1.691-3c0.51-0.742,0.911-1.216,1.203-1.422 M77.943,141.012c-0.651,1.223-1.123,2.383-1.416,3.48
						c-0.358,1.291-1.383,3.675-3.075,7.148c-0.76-0.96-2.478-2.108-5.158-3.446c-4.165-2.057-8.297-3.103-12.398-3.137h-1.22
						c-4.002,0.126-6.952,0.857-8.851,2.195c-1.009,0.72-1.795,1.166-2.359,1.337c-1.106,0.399-2.696,0.6-4.767,0.6
						c-2.993,0-5.835-0.171-8.526-0.514c-2.885-0.354-5.05-0.531-6.492-0.531c-1.53,0-2.82,0.463-3.872,1.388
						c-0.89,0.765-1.334,1.446-1.334,2.04c0,0.092,0.022,0.195,0.065,0.308v0.052c0,0.251,0.016,0.308,0.049,0.171
						c0.023-0.023,0.049-0.034,0.081-0.034l0.131,0.119l0.081-0.223c1.138-0.514,2.104-0.772,2.896-0.772
						c6.324,1.669,11.801,2.503,16.433,2.503c1.41,0,2.577-0.017,3.498-0.052c-0.803,1.131-1.762,2.766-2.88,4.902
						c-0.596,1.132-1.839,2.28-3.725,3.447c-2.018,1.245-4.311,2.228-6.882,2.949c-3.016,0.834-6.839,2.336-11.47,4.508
						l-2.083,0.993c-6.357,3.086-9.534,5.36-9.534,6.823c0,0.126,0.016,0.275,0.049,0.446c0.292,0.104,0.455,0.155,0.488,0.155
						c1.161,0,3.406-0.714,6.736-2.142c4.198-1.783,7.236-2.926,9.111-3.429c1.019-0.286,2.44-0.845,4.263-1.68
						c1.03-0.479,1.914-0.869,2.652-1.166c0.531-0.241,1.155-0.48,1.871-0.721c0.813-0.262,1.832-0.737,3.058-1.422l-0.699,0.772
						c-0.076,0.068-0.499,0.525-1.269,1.372c-1.378,1.348-2.532,2.458-3.465,3.326c-1.713,2.045-2.717,3.691-3.01,4.937
						c-0.065,0.275-0.097,1.789-0.097,4.543l0.016,0.342c0.087,0.206,0.288,0.308,0.602,0.308c0.337,0,1.111-1.085,2.327-3.257
						c1.464-2.594,2.869-4.445,4.214-5.554c2.961-2.468,4.805-4.018,5.531-4.646l0.651-0.549v0.651c0,0.479,0.189,1.035,0.569,1.662
						c0.434,0.733,0.694,1.303,0.78,1.715c0.456,2.331,0.819,3.497,1.091,3.497c0.401,0,0.879-1.104,1.432-3.309
						c0.358-1.44,0.771-2.663,1.237-3.669c0.488-1.017,0.992-1.829,1.513-2.435c0.108,0.378,0.31,1.189,0.602,2.435l0.162,0.686
						c0.358,1.439,0.645,2.159,0.863,2.159c0.173,0,0.569-0.948,1.187-2.845v-0.035c0.748-2.388,1.237-3.806,1.465-4.251
						c0.271-0.55,1.329-1.754,3.172-3.618c0.835-0.824,1.459-1.583,1.871-2.279"/>
					<path fill="none" stroke="#373535" stroke-width="1.6233" stroke-miterlimit="10" d="M243.978,145.281
						c0-0.205-0.331-0.366-0.992-0.479l-1.252-0.223l-0.456-0.137c-0.12-0.065-0.246-0.145-0.376-0.24
						c0.003,1.108-0.957,1.663-2.88,1.663c-1.572,0-2.772-0.458-3.595-1.372c-0.521-0.594-0.781-1.149-0.781-1.662
						c-0.022-0.126-0.026-0.251-0.016-0.378c0.011-0.263,0.081-0.531,0.211-0.806l-0.472-0.017c-0.153,0-0.239,0.052-0.261,0.155
						l-0.358,0.017c-0.553,0-1.187-0.223-1.904-0.668l-0.911-0.721 M232.784,139.64c0,0.195,0.298,0.48,0.895,0.857
						c0.358,0.218,0.781,0.4,1.269,0.55c0.433,0.091,0.84,0.136,1.221,0.136c1.41,0,2.354-0.155,2.83-0.463
						c-0.249-0.57-0.374-0.914-0.374-1.028 M234.948,141.047c-0.13,0.205-0.223,0.338-0.277,0.393l-0.196,0.223
						c1.985,0.035,3.368,0.206,4.149,0.515c0.326,0.126,0.776,0.509,1.351,1.149c0.334,0.368,0.644,0.659,0.926,0.874
						 M234.476,141.663l-0.634-0.017 M241.734,144.578c-0.055-0.206-0.098-0.406-0.131-0.601c-0.118-0.845-0.298-1.371-0.537-1.577
						l-1.822-1.422l-0.245-0.258"/>
					<path fill="none" stroke="#373535" stroke-width="1.6233" stroke-miterlimit="10" d="M232.068,144.063
						c0,0.423,0.472,1.052,1.416,1.886c1.172,1.005,2.441,1.509,3.808,1.509c1.29,0,1.936-0.211,1.936-0.634"/>
					<path fill="none" stroke="#373535" stroke-width="1.6233" stroke-miterlimit="10" d="M230.1,141.373
						c-1.42,0.091-2.766-0.24-4.036-0.995"/>
					<path fill="#373535" d="M255.481,146.293c0,0.549-0.357,0.784-1.074,0.702l-0.683,0.857c-0.142-0.148-0.211-0.251-0.211-0.308
						c0-0.183,0.135-0.485,0.406-0.908c0.315-0.538,0.63-0.806,0.944-0.806C255.274,145.829,255.481,145.983,255.481,146.293z"/>
					<path fill="none" stroke="#373535" stroke-width="1.6233" stroke-miterlimit="10" d="M98.833,141.269
						c1.909,0.48,4.1,1.703,6.573,3.67c2.57,2.045,5.071,3.462,7.501,4.251c0.716,0.241,2.294,0.869,4.735,1.886
						c2.593,1.074,4.274,1.714,5.044,1.92c0.944,0.262,1.844,0.582,2.701,0.96c0.781,0.332,1.578,0.571,2.392,0.72
						c1.931,0.297,6.817,0.526,14.659,0.686c0.476-0.114,1.952-0.155,4.425-0.119l4.979,0.034l2.489-0.24
						c1.388-0.218,2.793-0.354,4.215-0.411c1.54-0.16,4.783-0.418,9.729-0.772c2.669-0.538,8.081-1.423,16.237-2.658"/>
					
						<line fill="none" stroke="#373535" stroke-width="1.6233" stroke-linecap="round" stroke-linejoin="round" stroke-miterlimit="3" x1="216.238" y1="180.166" x2="217.865" y2="180.287"/>
					
						<path fill="none" stroke="#373535" stroke-width="1.6233" stroke-linecap="round" stroke-linejoin="round" stroke-miterlimit="3" d="
						M105.031,110.926c-1.421,0.446-2.858,0.948-4.311,1.509"/>
				</g>
			</g>
		</g>
	</g>
</g>
</svg>
