<?xml version="1.0" encoding="utf-8"?>
<!-- Generator: Adobe Illustrator 17.0.1, SVG Export Plug-In . SVG Version: 6.00 Build 0)  -->
<!DOCTYPE svg PUBLIC "-//W3C//DTD SVG 1.1//EN" "http://www.w3.org/Graphics/SVG/1.1/DTD/svg11.dtd">
<svg version="1.1" id="Layer_1" xmlns="http://www.w3.org/2000/svg" xmlns:xlink="http://www.w3.org/1999/xlink" x="0px" y="0px"
	 width="216.418px" height="254.391px" viewBox="22.781 6.929 216.418 254.391"
	 enable-background="new 22.781 6.929 216.418 254.391" xml:space="preserve">
<g>
	<g id="Layer_1_1_">
		<g>
			<g id="Layer_1_3_">
				<g>
					<g>
						<path fill="#FFFFFF" d="M202.883,28.39c1.65,0.285,5.586,0.635,11.807,1.051c3.621,0.487,6.838,1.335,9.652,2.547
							c4.31,1.851,6.868,4.303,7.674,7.355c0.938,3.574,0.825,6.322-0.337,8.245c-1.199,1.971-3.224,2.601-6.074,1.888
							c-2.315-0.582-5.829-1.828-10.542-3.739c-4.536-1.911-7.22-3.01-8.049-3.295c-1.033-0.344-2.41-0.582-4.132-0.713
							l-2.279-0.107c-1.211-0.831-2.202-1.556-2.974-2.173c-1.449-1.164-2.386-2.297-2.813-3.401
							c-0.487-1.282,0.415-2.944,2.707-4.986c0.95-0.843,1.918-1.519,2.904-2.03C201.459,28.509,202.278,28.295,202.883,28.39z"/>
						
							<path fill="#FFFFFF" stroke="#292929" stroke-width="1.5611" stroke-linecap="round" stroke-linejoin="round" stroke-miterlimit="3" d="
							M202.883,28.39c1.65,0.285,5.586,0.635,11.807,1.051c3.621,0.487,6.838,1.335,9.652,2.547c4.31,1.851,6.868,4.303,7.674,7.355
							c0.938,3.574,0.825,6.322-0.337,8.245c-1.199,1.971-3.224,2.601-6.074,1.888c-2.315-0.582-5.829-1.828-10.542-3.739
							c-4.536-1.911-7.22-3.01-8.049-3.295c-1.033-0.344-2.41-0.582-4.132-0.713l-2.279-0.107c-1.211-0.831-2.202-1.556-2.974-2.173
							c-1.449-1.164-2.386-2.297-2.813-3.401c-0.487-1.282,0.415-2.944,2.707-4.986c0.95-0.843,1.918-1.519,2.904-2.03
							C201.459,28.509,202.278,28.295,202.883,28.39z"/>
						<path fill="#FFFFFF" d="M205.43,18.062c3.978,0.986,6.637,2.434,7.978,4.345c1.508,2.137,2.226,3.835,2.154,5.093
							c-0.082,1.353-1.074,2.481-2.973,3.383c-1.638,0.772-3.68,1.419-6.127,1.942l-3.169,0.534
							c-0.309,1.389-1.128,2.595-2.458,3.616c-1.757,1.329-3.762,1.502-6.019,0.516c-2.718-5.544-4.125-9.759-4.22-12.644
							c-0.12-3.693,1.685-6.185,5.413-7.48C198.715,16.951,201.856,17.184,205.43,18.062z"/>
						
							<path fill="#FFFFFF" stroke="#292929" stroke-width="1.5611" stroke-linecap="round" stroke-linejoin="round" stroke-miterlimit="3" d="
							M205.43,18.062c3.978,0.986,6.637,2.434,7.978,4.345c1.508,2.137,2.226,3.835,2.154,5.093
							c-0.082,1.353-1.074,2.481-2.973,3.383c-1.638,0.772-3.68,1.419-6.127,1.942l-3.169,0.534
							c-0.309,1.389-1.128,2.595-2.458,3.616c-1.757,1.329-3.762,1.502-6.019,0.516c-2.718-5.544-4.125-9.759-4.22-12.644
							c-0.12-3.693,1.685-6.185,5.413-7.48C198.715,16.951,201.856,17.184,205.43,18.062z"/>
						<path fill="#FFFFFF" d="M142.958,8.143c2.077-0.724,4.643-0.54,7.694,0.553c1.497,0.522,4.167,1.787,8.014,3.793
							c3.158,0,5.669,0.89,7.533,2.672c1.519,1.449,2.724,3.656,3.614,6.624c-3.787,3.609-8.399,5.247-13.837,4.915
							c-3.218-0.202-6.114-0.944-8.691-2.226c-6.885-3.444-10.946-5.989-12.181-7.64c-0.89-1.187-0.41-2.742,1.443-4.666
							C138.304,10.363,140.441,9.021,142.958,8.143z"/>
						
							<path fill="#FFFFFF" stroke="#292929" stroke-width="1.5611" stroke-linecap="round" stroke-linejoin="round" stroke-miterlimit="3" d="
							M142.958,8.143c-2.516,0.878-4.654,2.22-6.41,4.025c-1.853,1.923-2.333,3.478-1.443,4.666c1.235,1.65,5.295,4.196,12.181,7.64
							c2.577,1.282,5.473,2.024,8.691,2.226c5.438,0.332,10.049-1.306,13.837-4.915c-0.89-2.968-2.095-5.177-3.614-6.624
							c-1.864-1.781-4.375-2.672-7.533-2.672c-3.847-2.007-6.518-3.271-8.014-3.793C147.601,7.603,145.035,7.418,142.958,8.143z"/>
						<path fill="#FFFFFF" d="M179.003,20.662c-1.069,0.261-2.529,0.439-4.381,0.534c-2.481,0.119-3.739,0.178-3.775,0.178
							c-1.721,0.19-3.96-0.801-6.714-2.973c-2.481-1.959-4.303-3.93-5.467-5.912l0.321-0.641c0.322-0.522,0.73-1.003,1.229-1.442
							c1.58-1.412,3.747-2.167,6.5-2.262c5.9-0.178,10.857,2.096,14.869,6.821C183.151,17.931,182.29,19.83,179.003,20.662z"/>
						
							<path fill="#FFFFFF" stroke="#292929" stroke-width="1.5611" stroke-linecap="round" stroke-linejoin="round" stroke-miterlimit="3" d="
							M179.003,20.662c3.288-0.831,4.148-2.731,2.581-5.699c-4.012-4.725-8.969-6.999-14.869-6.821
							c-2.754,0.095-4.922,0.849-6.5,2.262c-0.499,0.439-0.908,0.92-1.229,1.442l-0.321,0.641c1.164,1.983,2.986,3.954,5.467,5.912
							c2.754,2.172,4.992,3.164,6.714,2.973c0.035,0,1.294-0.059,3.775-0.178C176.474,21.101,177.934,20.923,179.003,20.662z"/>
						<path fill="#FFFFFF" d="M196.134,24.135c-0.035,3.122,0.077,5.028,0.338,5.717c0.107,0.273,0.379,0.885,0.819,1.835
							c0.415,0.986,0.7,1.858,0.854,2.617c0.487,2.362-0.144,4.114-1.888,5.254c-2.504-5.746-4.648-9.717-6.429-11.914
							c-2.47-3.05-5.699-5.004-9.688-5.858c-3.966-0.843-7.966-0.374-12.003,1.407c-3.419,1.508-5.96,3.448-7.621,5.823
							c-0.606-1.697-1.032-2.939-1.282-3.723c-0.427-1.353-0.617-2.451-0.569-3.295c0.107-2.22,1.965-3.739,5.573-4.558
							c3.597-0.808,6.779-1.633,9.546-2.476c1.436-0.428,3.282-1.044,5.538-1.853c1.662-0.593,3.55-0.932,5.663-1.015
							c2.422-0.083,4.25,0.256,5.486,1.015c2.161,1.33,3.46,2.167,3.9,2.511c1.258,0.962,1.887,1.846,1.887,2.654
							C196.258,18.893,196.217,20.846,196.134,24.135z"/>
						
							<path fill="#FFFFFF" stroke="#292929" stroke-width="1.5611" stroke-linecap="round" stroke-linejoin="round" stroke-miterlimit="3" d="
							M196.134,24.135c-0.035,3.122,0.077,5.028,0.338,5.717c0.107,0.273,0.379,0.885,0.819,1.835
							c0.415,0.986,0.7,1.858,0.854,2.617c0.487,2.362-0.144,4.114-1.888,5.254c-2.504-5.746-4.648-9.717-6.429-11.914
							c-2.47-3.05-5.699-5.004-9.688-5.858c-3.966-0.843-7.966-0.374-12.003,1.407c-3.419,1.508-5.96,3.448-7.621,5.823
							c-0.606-1.697-1.032-2.939-1.282-3.723c-0.427-1.353-0.617-2.451-0.569-3.295c0.107-2.22,1.965-3.739,5.573-4.558
							c3.597-0.808,6.779-1.633,9.546-2.476c1.436-0.428,3.282-1.044,5.538-1.853c1.662-0.593,3.55-0.932,5.663-1.015
							c2.422-0.083,4.25,0.256,5.486,1.015c2.161,1.33,3.46,2.167,3.9,2.511c1.258,0.962,1.887,1.846,1.887,2.654
							C196.258,18.893,196.217,20.846,196.134,24.135z"/>
						<path fill="#FFFFFF" d="M197.862,39.841c0.331,4.31-1.644,6.417-5.93,6.322c-1.781-4.464-3.093-7.658-3.936-9.581
							c-1.449-3.276-2.991-5.68-4.629-7.212c-2.066-1.935-4.725-3.021-7.978-3.26c-3.633-0.26-8.316,0.499-14.051,2.279
							c2.208-4.404,4.499-7.509,6.873-9.314c3.598-2.742,8.055-3.425,13.374-2.047c5.117,1.329,8.797,3.614,11.041,6.855
							c0.771,1.116,1.407,2.404,1.906,3.864c0.274,0.819,0.576,1.864,0.908,3.134c0.179,0.546,0.618,1.817,1.319,3.811
							C197.386,36.7,197.756,38.417,197.862,39.841z"/>
						
							<path fill="#FFFFFF" stroke="#292929" stroke-width="1.5611" stroke-linecap="round" stroke-linejoin="round" stroke-miterlimit="3" d="
							M197.862,39.841c0.331,4.31-1.644,6.417-5.93,6.322c-1.781-4.464-3.093-7.658-3.936-9.581
							c-1.449-3.276-2.991-5.68-4.629-7.212c-2.066-1.935-4.725-3.021-7.978-3.26c-3.633-0.26-8.316,0.499-14.051,2.279
							c2.208-4.404,4.499-7.509,6.873-9.314c3.598-2.742,8.055-3.425,13.374-2.047c5.117,1.329,8.797,3.614,11.041,6.855
							c0.771,1.116,1.407,2.404,1.906,3.864c0.274,0.819,0.576,1.864,0.908,3.134c0.179,0.546,0.618,1.817,1.319,3.811
							C197.386,36.7,197.756,38.417,197.862,39.841z"/>
						<path fill="#FFFFFF" d="M196.027,52.984c-0.654,1.899-3.537,2.315-8.655,1.247c-2.042-4.702-3.81-8.304-5.307-10.81
							c-2.055-3.443-4.215-5.978-6.483-7.604c-5.391-3.894-12.477-3.271-21.264,1.869c0.463-3.17,1.342-5.776,2.635-7.818
							c1.58-2.505,3.8-4.238,6.661-5.201c3.882-1.295,7.651-1.834,11.308-1.62c4.737,0.273,8.406,1.853,11.006,4.736
							c2.671,2.957,4.844,6.198,6.518,9.724c1.388,2.956,2.316,5.841,2.778,8.655c0.144,0.831,0.404,2.066,0.784,3.704
							C196.271,51.245,196.277,52.283,196.027,52.984z"/>
						
							<path fill="#FFFFFF" stroke="#292929" stroke-width="1.5611" stroke-linecap="round" stroke-linejoin="round" stroke-miterlimit="3" d="
							M196.027,52.984c-0.654,1.899-3.537,2.315-8.655,1.247c-2.042-4.702-3.81-8.304-5.307-10.81
							c-2.055-3.443-4.215-5.978-6.483-7.604c-5.391-3.894-12.477-3.271-21.264,1.869c0.463-3.17,1.342-5.776,2.635-7.818
							c1.58-2.505,3.8-4.238,6.661-5.201c3.882-1.295,7.651-1.834,11.308-1.62c4.737,0.273,8.406,1.853,11.006,4.736
							c2.671,2.957,4.844,6.198,6.518,9.724c1.388,2.956,2.316,5.841,2.778,8.655c0.144,0.831,0.404,2.066,0.784,3.704
							C196.271,51.245,196.277,52.283,196.027,52.984z"/>
						<path fill="#FFFFFF" d="M151.791,38.096c2.102-3.324,5.01-5.247,8.727-5.77c5.901-0.843,10.644-0.671,14.229,0.516
							c5.531,1.829,9.813,6.132,12.84,12.911c2.018,6.957,3.128,10.875,3.33,11.753c0.665,3.004,0.587,5.01-0.232,6.019
							c-1.032,1.258-2.516,1.817-4.451,1.675c-2.125-0.154-3.669-1.193-4.63-3.117c-1.377-4.534-2.262-7.289-2.654-8.262
							c-1.246-3.027-2.826-5.324-4.737-6.892c-4.986-4.119-13.629-4.345-25.928-0.676c0.569-1.638,1.039-2.927,1.407-3.864
							C150.343,40.69,151.043,39.26,151.791,38.096z"/>
						
							<path fill="#FFFFFF" stroke="#292929" stroke-width="1.5611" stroke-linecap="round" stroke-linejoin="round" stroke-miterlimit="3" d="
							M151.791,38.096c2.102-3.324,5.01-5.247,8.727-5.77c5.901-0.843,10.644-0.671,14.229,0.516
							c5.531,1.829,9.813,6.132,12.84,12.911c2.018,6.957,3.128,10.875,3.33,11.753c0.665,3.004,0.587,5.01-0.232,6.019
							c-1.032,1.258-2.516,1.817-4.451,1.675c-2.125-0.154-3.669-1.193-4.63-3.117c-1.377-4.534-2.262-7.289-2.654-8.262
							c-1.246-3.027-2.826-5.324-4.737-6.892c-4.986-4.119-13.629-4.345-25.928-0.676c0.569-1.638,1.039-2.927,1.407-3.864
							C150.343,40.69,151.043,39.26,151.791,38.096z"/>
						<path fill="#FFFFFF" d="M157.206,51.524c-3.55,0.368-7.955,1.816-13.213,4.345c1.318-4.488,2.95-7.972,4.897-10.453
							c2.718-3.443,6.114-5.122,10.187-5.04c4.642,0.107,8.946,1.075,12.91,2.904c4.096,1.876,6.957,4.286,8.584,7.23
							c1.389,2.529,2.428,5.96,3.116,10.293c0.202,1.329,0.468,3.888,0.802,7.675c0.178,1.994,0.231,3.46,0.159,4.399
							c-0.131,1.71-0.599,2.653-1.407,2.832c-1.021,0.237-2.457-0.511-4.31-2.244c-1.971-1.853-3.152-3.787-3.544-5.805
							c-2.802-5.247-4.34-8.097-4.613-8.548c-1.71-2.79-3.491-4.773-5.343-5.948C163.177,51.737,160.434,51.191,157.206,51.524z"/>
						
							<path fill="#FFFFFF" stroke="#292929" stroke-width="1.5611" stroke-linecap="round" stroke-linejoin="round" stroke-miterlimit="3" d="
							M157.206,51.524c-3.55,0.368-7.955,1.816-13.213,4.345c1.318-4.488,2.95-7.972,4.897-10.453
							c2.718-3.443,6.114-5.122,10.187-5.04c4.642,0.107,8.946,1.075,12.91,2.904c4.096,1.876,6.957,4.286,8.584,7.23
							c1.389,2.529,2.428,5.96,3.116,10.293c0.202,1.329,0.468,3.888,0.802,7.675c0.178,1.994,0.231,3.46,0.159,4.399
							c-0.131,1.71-0.599,2.653-1.407,2.832c-1.021,0.237-2.457-0.511-4.31-2.244c-1.971-1.853-3.152-3.787-3.544-5.805
							c-2.802-5.247-4.34-8.097-4.613-8.548c-1.71-2.79-3.491-4.773-5.343-5.948C163.177,51.737,160.434,51.191,157.206,51.524z"/>
						<path fill="#FFFFFF" d="M147.339,50.294c3.229-1.223,7.693-1.223,13.391,0c5.805,1.258,10.524,4.161,14.158,8.709
							c2.34,2.944,3.954,6.102,4.844,9.474c0.428,1.65,0.66,3.959,0.694,6.927c0.024,1.555,0,3.241-0.071,5.057
							c0,2.933-0.19,5.045-0.569,6.34c-0.963,3.241-2.974,4.161-6.037,2.76c-0.724-3.705-1.502-6.654-2.333-8.85
							c-1.353-3.561-3.193-6.464-5.52-8.708c-6.233-6.067-16.288-7.794-30.168-5.182c0.558-2.327,1.74-5.052,3.544-8.174
							c1.567-2.731,2.796-4.482,3.686-5.254c0.238-0.202,0.736-0.671,1.497-1.407C145.296,51.274,146.259,50.71,147.339,50.294z"/>
						
							<path fill="#FFFFFF" stroke="#292929" stroke-width="1.5611" stroke-linecap="round" stroke-linejoin="round" stroke-miterlimit="3" d="
							M147.339,50.294c3.229-1.223,7.693-1.223,13.391,0c5.805,1.258,10.524,4.161,14.158,8.709c2.34,2.944,3.954,6.102,4.844,9.474
							c0.428,1.65,0.66,3.959,0.694,6.927c0.024,1.555,0,3.241-0.071,5.057c0,2.933-0.19,5.045-0.569,6.34
							c-0.963,3.241-2.974,4.161-6.037,2.76c-0.724-3.705-1.502-6.654-2.333-8.85c-1.353-3.561-3.193-6.464-5.52-8.708
							c-6.233-6.067-16.288-7.794-30.168-5.182c0.558-2.327,1.74-5.052,3.544-8.174c1.567-2.731,2.796-4.482,3.686-5.254
							c0.238-0.202,0.736-0.671,1.497-1.407C145.296,51.274,146.259,50.71,147.339,50.294z"/>
						<path fill="#FFFFFF" d="M156.368,64.701c4.311,1.484,7.829,3.295,10.56,5.432c3.467,2.731,5.972,5.438,7.515,8.121
							c1.104,1.923,1.906,4.315,2.404,7.177c0.428,2.518,0.66,3.93,0.695,4.239c0.19,1.829,0.077,3.306-0.338,4.435
							c-1.187,3.158-4.891,3.983-11.113,2.475c-3.217-4.334-5.544-7.349-6.98-9.047c-2.588-3.05-5.094-5.437-7.515-7.158
							c-5.913-4.226-13.066-5.574-21.46-4.042c0.274-2.505,0.748-4.512,1.425-6.02c0.237-0.522,0.867-1.543,1.887-3.063
							c1.093-1.638,2.025-2.725,2.796-3.259c1.768-1.223,4.351-1.793,7.746-1.71C147.886,62.387,152.01,63.193,156.368,64.701z"/>
						
							<path fill="#FFFFFF" stroke="#292929" stroke-width="1.5611" stroke-linecap="round" stroke-linejoin="round" stroke-miterlimit="3" d="
							M156.368,64.701c4.311,1.484,7.829,3.295,10.56,5.432c3.467,2.731,5.972,5.438,7.515,8.121
							c1.104,1.923,1.906,4.315,2.404,7.177c0.428,2.518,0.66,3.93,0.695,4.239c0.19,1.829,0.077,3.306-0.338,4.435
							c-1.187,3.158-4.891,3.983-11.113,2.475c-3.217-4.334-5.544-7.349-6.98-9.047c-2.588-3.05-5.094-5.437-7.515-7.158
							c-5.913-4.226-13.066-5.574-21.46-4.042c0.274-2.505,0.748-4.512,1.425-6.02c0.237-0.522,0.867-1.543,1.887-3.063
							c1.093-1.638,2.025-2.725,2.796-3.259c1.768-1.223,4.351-1.793,7.746-1.71C147.886,62.387,152.01,63.193,156.368,64.701z"/>
						<g>
							<path fill="#FFFFFF" d="M62.732,94.815c2.612-2.279,5.728-3.823,9.35-4.63c6.672-1.496,14.216,0.035,22.634,4.595
								c2.85,1.543,5.865,3.479,9.046,5.806c1.721,1.258,3.764,2.819,6.126,4.683c1.045,0.795,1.574,1.674,1.585,2.636
								c0.011,0.843-0.357,1.626-1.104,2.35c-0.724,0.7-1.603,1.17-2.635,1.407c-1.104,0.261-2.107,0.196-3.01-0.196
								c-1.127-1.152-2.754-2.54-4.879-4.167c-3.015-2.316-6.138-4.375-9.367-6.18c-3.337-1.853-7.355-2.742-12.056-2.672
								c-3.906,0.048-6.844,0.594-8.815,1.639c-1.247,0.665-3.259,3.93-6.037,9.794c-0.297,0.606-1.365,2.908-3.205,6.909
								c-1.164,2.529-2.007,4.262-2.529,5.2c-2.184,3.859-5.877,9.088-11.077,15.69c-6.399,8.096-10.768,12.234-13.107,12.412
								c-3.894-2.648-3.342-7.943,1.656-15.885c1.734-2.754,4.066-5.912,6.999-9.474c0.582-0.7,2.725-3.199,6.429-7.497
								c1.295-1.497,2.701-3.817,4.22-6.964c2.255-4.63,3.603-7.331,4.042-8.103C58.743,99.083,60.655,96.631,62.732,94.815z"/>
							
								<path fill="#FFFFFF" stroke="#292929" stroke-width="1.5611" stroke-linecap="round" stroke-linejoin="round" stroke-miterlimit="3" d="
								M62.732,94.815c-2.077,1.817-3.989,4.268-5.734,7.355c-0.439,0.772-1.787,3.473-4.042,8.103
								c-1.519,3.146-2.927,5.467-4.22,6.964c-3.704,4.297-5.847,6.797-6.429,7.497c-2.932,3.561-5.265,6.72-6.999,9.474
								c-4.998,7.942-5.55,13.237-1.656,15.885c2.339-0.178,6.708-4.315,13.107-12.412c5.199-6.601,8.892-11.831,11.077-15.69
								c0.522-0.938,1.365-2.671,2.529-5.2c1.84-4.002,2.909-6.305,3.205-6.909c2.778-5.865,4.79-9.129,6.037-9.794
								c1.971-1.045,4.909-1.591,8.815-1.639c4.702-0.071,8.72,0.819,12.056,2.672c3.229,1.805,6.352,3.864,9.367,6.18
								c2.125,1.627,3.752,3.015,4.879,4.167c0.902,0.391,1.906,0.457,3.01,0.196c1.032-0.237,1.911-0.707,2.635-1.407
								c0.747-0.724,1.116-1.508,1.104-2.35c-0.012-0.962-0.541-1.841-1.585-2.636c-2.362-1.864-4.404-3.425-6.126-4.683
								c-3.182-2.327-6.198-4.263-9.046-5.806c-8.417-4.558-15.962-6.09-22.634-4.595C68.461,90.992,65.344,92.536,62.732,94.815z"
								/>
						</g>
						<g>
							<path fill="#FFFFFF" d="M58.868,124.109c-2.196,2.101-4.404,5.117-6.624,9.046c-0.558,0.997-2.202,5.521-4.933,13.57
								c-2.718,8.001-4.517,12.774-5.396,14.317c-0.415,0.724-1.122,2.03-2.119,3.918c-0.986,1.721-1.965,3.087-2.938,4.096
								c-2.79,2.909-6.132,3.615-10.026,2.119c-4.832-3.882-4.31-10.637,1.567-20.266c1.829-2.991,4.339-6.493,7.533-10.507
								c3.372-4.249,5.159-6.53,5.36-6.838c3.169-4.832,6.66-9.094,10.471-12.786c6.329-6.137,12.965-10.139,19.91-12.003
								c6.98-1.888,13.671-1.739,20.069,0.445c2.327,0.784,4.731,1.882,7.212,3.295c0.974,0.558,2.832,1.721,5.574,3.491
								c0.843,1.14,1.377,2.333,1.603,3.579c0.213,1.151,0.148,2.161-0.196,3.027c-0.332,0.878-0.872,1.425-1.62,1.638
								c-0.808,0.237-1.704,0.035-2.689-0.606c-2.327-2.149-4.078-3.645-5.254-4.488c-1.556-1.127-3.117-1.911-4.683-2.35
								c-1.603-0.452-3.645-0.676-6.126-0.676c-2.054,0-5.236,0.167-9.546,0.499C69.239,117.152,63.522,119.646,58.868,124.109z"/>
							
								<path fill="#FFFFFF" stroke="#292929" stroke-width="1.5611" stroke-linecap="round" stroke-linejoin="round" stroke-miterlimit="3" d="
								M58.868,124.109c4.654-4.465,10.37-6.957,17.149-7.48c4.31-0.332,7.491-0.499,9.546-0.499c2.481,0,4.523,0.226,6.126,0.676
								c1.566,0.439,3.127,1.223,4.683,2.35c1.175,0.843,2.927,2.34,5.254,4.488c0.986,0.641,1.882,0.843,2.689,0.606
								c0.748-0.214,1.288-0.76,1.62-1.638c0.344-0.867,0.41-1.876,0.196-3.027c-0.226-1.247-0.76-2.439-1.603-3.579
								c-2.742-1.768-4.601-2.932-5.574-3.491c-2.481-1.412-4.885-2.511-7.212-3.295c-6.398-2.184-13.089-2.333-20.069-0.445
								c-6.945,1.864-13.582,5.865-19.91,12.003c-3.811,3.693-7.302,7.955-10.471,12.786c-0.202,0.308-1.989,2.588-5.36,6.838
								c-3.194,4.013-5.704,7.516-7.533,10.507c-5.876,9.629-6.398,16.383-1.567,20.266c3.894,1.497,7.236,0.79,10.026-2.119
								c0.973-1.01,1.952-2.374,2.938-4.096c0.997-1.887,1.704-3.193,2.119-3.918c0.878-1.542,2.678-6.315,5.396-14.317
								c2.731-8.049,4.375-12.573,4.933-13.57C54.463,129.227,56.672,126.211,58.868,124.109z"/>
						</g>
						<g>
							<path fill="#FFFFFF" d="M76.623,58.557c-0.167,1.412-1.151,2.981-2.957,4.702c-0.558,0.534-1.537,1.431-2.938,2.689
								c-1.353,1.247-2.553,2.433-3.598,3.561c-2.398,2.6-0.997,5.122,4.202,7.568c4.488,2.114,11.006,3.864,19.554,5.254
								c5.888,0.95,11.564,3.093,17.024,6.429c3.075,1.876,5.456,3.657,7.14,5.343c0.214,0.213,0.326,0.76,0.338,1.638
								c0,0.914-0.119,1.805-0.356,2.672c-0.642,2.35-1.734,3.116-3.277,2.297c-1.947-3.015-5.217-5.675-9.812-7.978
								c-4.108-2.042-8.619-3.515-13.534-4.417c-3.253-0.546-5.77-0.986-7.551-1.319c-3.169-0.593-5.853-1.241-8.049-1.941
								c-6.137-1.936-10.097-4.773-11.878-8.512c-1.781-3.752-0.196-7.682,4.754-11.789c1.769-1.46,3.824-2.819,6.162-4.079
								C73.762,59.643,75.353,58.938,76.623,58.557z"/>
							
								<path fill="#FFFFFF" stroke="#292929" stroke-width="1.5611" stroke-linecap="round" stroke-linejoin="round" stroke-miterlimit="3" d="
								M76.623,58.557c-1.271,0.38-2.862,1.087-4.773,2.119c-2.339,1.258-4.393,2.618-6.162,4.079
								c-4.95,4.108-6.535,8.038-4.754,11.789c1.781,3.739,5.741,6.576,11.878,8.512c2.196,0.7,4.88,1.347,8.049,1.941
								c1.781,0.333,4.297,0.772,7.551,1.319c4.915,0.902,9.427,2.374,13.534,4.417c4.595,2.303,7.866,4.962,9.812,7.978
								c1.543,0.819,2.635,0.053,3.277-2.297c0.237-0.867,0.356-1.757,0.356-2.672c-0.012-0.878-0.125-1.425-0.338-1.638
								c-1.686-1.686-4.066-3.467-7.14-5.343c-5.462-3.336-11.137-5.478-17.024-6.429c-8.548-1.389-15.066-3.14-19.554-5.254
								c-5.2-2.446-6.6-4.968-4.202-7.568c1.045-1.128,2.244-2.316,3.598-3.561c1.401-1.258,2.38-2.155,2.938-2.689
								C75.472,61.537,76.457,59.97,76.623,58.557z"/>
						</g>
						<g>
							<path fill="#FFFFFF" d="M97.085,58.148c-0.13,0.819-0.801,1.561-2.013,2.226c-0.475,0.249-1.817,0.824-4.025,1.728
								c-4.096,1.65-6.631,3.639-7.604,5.965c-0.82,1.983,0.374,3.638,3.579,4.968c2.279,0.938,6.459,1.971,12.537,3.098
								c4.512,0.82,8.958,2.262,13.338,4.327c3.514,1.662,5.888,3.111,7.124,4.345c0.451,0.452,0.683,1.033,0.694,1.745
								c0.011,0.665-0.16,1.312-0.516,1.941c-0.867,1.519-2.095,2.084-3.686,1.691c-0.606-0.771-1.715-1.781-3.33-3.027
								c-2.03-1.579-3.817-2.641-5.36-3.188c-1.105-0.391-4.642-1.069-10.614-2.03c-6.316-1.021-10.625-1.858-12.929-2.511
								c-3.134-0.878-5.253-2.85-6.357-5.912c-1.01-2.79-0.955-5.639,0.16-8.548c0.891-2.327,3.544-4.06,7.961-5.199
								C88.239,59.21,91.92,58.67,97.085,58.148z"/>
							
								<path fill="#FFFFFF" stroke="#292929" stroke-width="1.5611" stroke-linecap="round" stroke-linejoin="round" stroke-miterlimit="3" d="
								M97.085,58.148c-5.164,0.522-8.845,1.063-11.041,1.621c-4.417,1.14-7.07,2.872-7.961,5.2c-1.116,2.909-1.17,5.758-0.16,8.548
								c1.104,3.063,3.223,5.034,6.357,5.912c2.303,0.654,6.613,1.49,12.929,2.511c5.972,0.962,9.509,1.638,10.614,2.03
								c1.542,0.546,3.33,1.609,5.36,3.188c1.614,1.247,2.725,2.255,3.33,3.027c1.591,0.391,2.819-0.173,3.686-1.691
								c0.356-0.629,0.528-1.277,0.516-1.941c-0.011-0.712-0.244-1.294-0.694-1.745c-1.235-1.235-3.609-2.683-7.124-4.345
								c-4.38-2.066-8.826-3.508-13.338-4.327c-6.079-1.127-10.257-2.161-12.537-3.098c-3.205-1.33-4.399-2.986-3.579-4.968
								c0.973-2.327,3.508-4.316,7.604-5.965c2.208-0.902,3.55-1.478,4.025-1.728C96.283,59.709,96.954,58.967,97.085,58.148z"/>
						</g>
						<g>
							<path fill="#FFFFFF" d="M154.837,135.187c0.617-0.606,1.496-1.11,2.635-1.514c1.116-0.404,2.238-0.623,3.365-0.659
								c1.057-0.035,2.992,0.226,5.805,0.784c3.585,0.712,7.124,1.685,10.614,2.92c10.198,3.598,17.487,8.472,21.868,14.621
								c11.018,15.458,13.921,30.261,8.708,44.414c-1.792,4.855-4.445,9.331-7.96,13.426c-2.529,2.956-4.874,5.105-7.034,6.446
								c-2.707,1.662-4.589,2.024-5.645,1.087c-0.962-0.854-0.997-2.405-0.107-4.649c1.804-4.534,3.443-10.476,4.915-17.826
								c2.268-11.267,2.819-21.103,1.656-29.509c-1.175-8.477-6.761-15.066-16.758-19.767c-3.55-1.662-7.48-2.998-11.788-4.008
								c-3.194-0.736-6.079-1.198-8.655-1.388C153.845,138.154,153.306,136.694,154.837,135.187z"/>
							
								<path fill="#FFFFFF" stroke="#292929" stroke-width="1.5611" stroke-linecap="round" stroke-linejoin="round" stroke-miterlimit="3" d="
								M154.837,135.187c-1.532,1.507-0.992,2.968,1.62,4.38c2.577,0.19,5.461,0.653,8.655,1.388
								c4.31,1.01,8.238,2.346,11.788,4.008c9.996,4.702,15.583,11.291,16.758,19.767c1.164,8.405,0.612,18.241-1.656,29.509
								c-1.473,7.35-3.111,13.291-4.915,17.826c-0.89,2.244-0.854,3.795,0.107,4.649c1.056,0.938,2.938,0.576,5.645-1.087
								c2.161-1.341,4.505-3.491,7.034-6.446c3.515-4.096,6.168-8.571,7.96-13.426c5.213-14.153,2.31-28.956-8.708-44.414
								c-4.38-6.15-11.67-11.023-21.868-14.621c-3.491-1.235-7.029-2.208-10.614-2.92c-2.813-0.558-4.748-0.82-5.805-0.784
								c-1.127,0.035-2.249,0.256-3.365,0.659C156.332,134.077,155.454,134.581,154.837,135.187z"/>
						</g>
						<g>
							<path fill="#FFFFFF" d="M159.075,127.368c-1.033-1.412-1.402-2.463-1.104-3.151c0.414-1.021,2.161-1.763,5.235-2.226
								c4.333,0,7.983,0.553,10.952,1.657c3.383,1.258,7.86,3.876,13.426,7.852c6.175,4.404,11.618,6.91,16.33,7.516
								c5.449,0.688,11.712-0.784,18.787-4.417c3.752-1.935,6.584-5.193,8.494-9.777c0.808-2.137,1.408-3.592,1.799-4.363
								c0.654-1.282,1.425-2.012,2.316-2.19c0.867-0.167,1.626,0.623,2.279,2.368c0.7,1.864,0.955,4.072,0.765,6.624
								c-0.237,3.016-1.098,5.888-2.581,8.619c-1.782,3.276-4.346,6.084-7.694,8.424c-6.305,4.416-13.843,5.401-22.616,2.956
								c-5.912-1.638-11.872-4.619-17.88-8.94c-3.443-2.469-8.608-4.861-15.493-7.177C168.84,130.051,164.5,128.793,159.075,127.368
								z"/>
							
								<path fill="#FFFFFF" stroke="#292929" stroke-width="1.5611" stroke-linecap="round" stroke-linejoin="round" stroke-miterlimit="3" d="
								M159.075,127.368c5.425,1.425,9.765,2.683,13.017,3.776c6.885,2.316,12.051,4.707,15.493,7.177
								c6.007,4.321,11.967,7.302,17.88,8.94c8.774,2.447,16.312,1.46,22.616-2.956c3.348-2.34,5.912-5.146,7.694-8.424
								c1.484-2.731,2.345-5.603,2.581-8.619c0.19-2.553-0.065-4.76-0.765-6.624c-0.654-1.745-1.412-2.535-2.279-2.368
								c-0.89,0.178-1.662,0.908-2.316,2.19c-0.391,0.772-0.991,2.226-1.799,4.363c-1.911,4.583-4.743,7.842-8.494,9.777
								c-7.075,3.633-13.337,5.105-18.787,4.417c-4.712-0.606-10.157-3.111-16.33-7.516c-5.568-3.977-10.043-6.594-13.426-7.852
								c-2.969-1.104-6.619-1.657-10.952-1.657c-3.074,0.463-4.821,1.205-5.235,2.226
								C157.674,124.905,158.041,125.956,159.075,127.368z"/>
						</g>
						<g>
							<path fill="#FFFFFF" d="M162.993,116.826c-1.532-1.258-1.734-2.547-0.606-3.864c0.452-0.534,1.02-0.909,1.71-1.122
								c0.723-0.226,1.389-0.213,1.994,0.035c0.938,0.392,2.636,0.452,5.094,0.178c3.656-0.391,6.232-0.587,7.728-0.587
								c2.577,0,5.544,0.439,8.905,1.318c1.057,0.273,3.663,1.069,7.818,2.386c4.571,1.46,8.388,2.558,11.451,3.295
								c6.019,1.436,11.023,2.066,15.012,1.887c3.93-0.178,6.797-2.297,8.603-6.357c0.593-1.354,1.063-2.92,1.407-4.702
								c0.274-1.721,0.445-2.79,0.516-3.205c0.938,0.748,1.924,2.054,2.957,3.918c1.223,2.196,1.976,4.339,2.262,6.429
								c0.784,5.888-2.332,9.533-9.349,10.934c-6.019,1.211-12.377,1.04-19.072-0.516c-4.999-1.152-9.865-2.974-14.603-5.467
								c-3.3-1.745-6.725-2.76-10.275-3.045c-2.184-0.189-5.093-0.071-8.727,0.356c-2.434,0.285-5.14,0.154-8.121-0.391
								C165.07,117.83,163.503,117.336,162.993,116.826z"/>
							
								<path fill="#FFFFFF" stroke="#292929" stroke-width="1.5611" stroke-linecap="round" stroke-linejoin="round" stroke-miterlimit="3" d="
								M162.993,116.826c0.51,0.511,2.077,1.003,4.701,1.478c2.98,0.545,5.687,0.676,8.121,0.391
								c3.633-0.427,6.542-0.545,8.727-0.356c3.55,0.285,6.975,1.301,10.275,3.045c4.737,2.494,9.605,4.315,14.603,5.467
								c6.696,1.555,13.054,1.728,19.072,0.516c7.017-1.401,10.133-5.045,9.349-10.934c-0.284-2.09-1.039-4.233-2.262-6.429
								c-1.032-1.864-2.018-3.17-2.957-3.918c-0.071,0.415-0.242,1.484-0.516,3.205c-0.344,1.781-0.813,3.348-1.407,4.702
								c-1.805,4.06-4.672,6.18-8.603,6.357c-3.988,0.178-8.993-0.452-15.012-1.887c-3.063-0.737-6.88-1.835-11.451-3.295
								c-4.155-1.318-6.761-2.114-7.818-2.386c-3.361-0.878-6.328-1.318-8.905-1.318c-1.497,0-4.072,0.196-7.728,0.587
								c-2.457,0.273-4.156,0.214-5.094-0.178c-0.605-0.249-1.271-0.261-1.994-0.035c-0.689,0.214-1.258,0.588-1.71,1.122
								C161.259,114.28,161.461,115.567,162.993,116.826z"/>
						</g>
						<g>
							<path fill="#FFFFFF" d="M164.862,108.563c-0.606-1.614-0.414-3.01,0.57-4.185c0.962-1.151,2.077-1.407,3.348-0.766
								c1.032,0.511,2.76,0.766,5.182,0.766c1.365,0.011,3.361-0.035,5.983-0.143c0.689,0,5.266-0.136,13.73-0.41
								c8.465-0.285,14.49-0.428,18.075-0.428c4.048,0,6.773-1.419,8.174-4.257c0.986-1.995,1.223-4.09,0.713-6.286
								c2.801,1.247,4.534,2.927,5.2,5.039c0.666,2.125,0.173,4.375-1.478,6.749c-1.519,2.196-4.529,3.781-9.029,4.755
								c-3.739,0.795-8.304,1.14-13.694,1.032c-3.929-0.083-9.813-0.107-17.648-0.072c-7.443,0.048-11.617,0.072-12.519,0.072
								c-1.555,0-2.89-0.13-4.008-0.391C166.109,109.72,165.242,109.228,164.862,108.563z"/>
							
								<path fill="#FFFFFF" stroke="#292929" stroke-width="1.5611" stroke-linecap="round" stroke-linejoin="round" stroke-miterlimit="3" d="
								M164.862,108.563c0.38,0.665,1.247,1.157,2.6,1.478c1.117,0.261,2.452,0.391,4.008,0.391c0.902,0,5.076-0.024,12.519-0.072
								c7.835-0.035,13.719-0.011,17.648,0.072c5.39,0.107,9.955-0.237,13.694-1.032c4.5-0.974,7.51-2.559,9.029-4.755
								c1.651-2.375,2.144-4.624,1.478-6.749c-0.665-2.113-2.399-3.793-5.2-5.039c0.51,2.196,0.274,4.292-0.713,6.286
								c-1.401,2.838-4.125,4.257-8.174,4.257c-3.585,0-9.61,0.143-18.075,0.428c-8.465,0.273-13.041,0.41-13.73,0.41
								c-2.624,0.107-4.618,0.154-5.983,0.143c-2.422,0-4.149-0.255-5.182-0.766c-1.271-0.641-2.386-0.386-3.348,0.766
								C164.448,105.553,164.257,106.948,164.862,108.563z"/>
						</g>
						<path fill="#FFFFFF" d="M146.04,73.25c4.558,1.127,8.625,2.843,12.198,5.146c3.467,2.232,6.358,5.063,8.672,8.494
							c2.897,4.286,4.345,8.826,4.345,13.623c0,4.88-1.287,10.775-3.863,17.684c-2.173,5.818-5.016,11.765-8.531,17.843
							c-2.765,4.808-5.396,7.972-7.889,9.493c-1.02,0.629-2.143,1.063-3.365,1.3c-0.689,0.143-1.829,0.267-3.42,0.374
							c-1.281,0.083-3.793-0.577-7.532-1.976c-4.119-1.532-8.239-3.438-12.359-5.717c-11.195-6.185-17.784-12.436-19.767-18.752
							c-1.519-9.118,4.125-21.584,16.935-37.398c1.449-1.792,3.099-4.031,4.951-6.714c1.425-1.875,2.808-3.015,4.149-3.42
							C135.123,71.83,140.281,71.837,146.04,73.25z"/>
						
							<path fill="#FFFFFF" stroke="#292929" stroke-width="1.5611" stroke-linecap="round" stroke-linejoin="round" stroke-miterlimit="3" d="
							M146.04,73.25c-5.758-1.412-10.916-1.419-15.476-0.019c-1.342,0.404-2.725,1.543-4.149,3.42
							c-1.851,2.683-3.502,4.922-4.951,6.714c-12.81,15.814-18.455,28.28-16.935,37.398c1.983,6.316,8.571,12.567,19.767,18.752
							c4.119,2.279,8.239,4.185,12.359,5.717c3.739,1.401,6.251,2.06,7.532,1.976c1.591-0.107,2.731-0.232,3.42-0.374
							c1.223-0.238,2.345-0.671,3.365-1.3c2.494-1.521,5.124-4.684,7.889-9.493c3.515-6.078,6.358-12.026,8.531-17.843
							c2.576-6.909,3.863-12.804,3.863-17.684c0-4.796-1.448-9.337-4.345-13.623c-2.315-3.431-5.206-6.263-8.672-8.494
							C154.664,76.093,150.598,74.377,146.04,73.25z"/>
						<g>
							<path fill="#FFFFFF" d="M132.416,208.36c1.686-1.757,3.194-3.247,4.523-4.47c2.516-2.316,5.005-3.853,7.462-4.613
								c4.773-1.484,7.983-2.399,9.634-2.743c3.989-0.831,7.871-1.02,11.646-0.569c-0.949-1.887-1.923-4.244-2.92-7.071
								l-1.211-3.668c-1.164-0.499-2.125-1.686-2.884-3.561c-0.832-2.447-1.591-4.358-2.279-5.735
								c-1.686-2.896-2.927-5.087-3.722-6.57c-1.402-2.635-2.018-4.72-1.851-6.251c-0.855-1.46-1.971-3.306-3.349-5.538
								l-1.816-2.921c-0.736-1.164-1.133-2.518-1.193-4.06c-0.059-1.603,0.261-3.069,0.962-4.399c1.721-3.3,4.898-4.619,9.528-3.954
								c1.353,1.021,6.535,6.393,15.546,16.116c9.214,9.949,14.496,15.944,15.849,17.986c1.21,1.817,1.851,3.569,1.923,5.254
								c0.035,0.915-0.054,1.989-0.267,3.224c0,0.522,0.66,2.38,1.976,5.573c1.259,3.075,1.841,4.838,1.745,5.289
								c-0.071,0.309-0.819,1.218-2.243,2.725c-1.342,1.389-1.971,2.434-1.888,3.135c0.024,0.226,0.351,1.105,0.979,2.635
								c0.713,1.734,1.241,3.276,1.585,4.63c1.175,4.654,0.736,8.78-1.319,12.376c-3.562,6.223-7.919,11.873-13.072,16.955
								c-7.504,7.408-15.892,12.702-25.164,15.885c-12.869,4.428-23.56,6.601-32.072,6.518
								c-11.753-0.119-21.928-4.149-30.524-12.091c-0.511-2.054-0.143-3.354,1.104-3.901c0.356-0.154,0.885-0.274,1.585-0.356
								c0.653-0.095,1.063-0.19,1.228-0.284c3.205-7.373,7.165-13.737,11.879-19.091c5.71-6.483,11.943-10.727,18.699-12.732
								c3.691-1.068,5.71-1.662,6.054-1.781C130.226,209.731,131.514,209.084,132.416,208.36z"/>
							
								<path fill="#FFFFFF" stroke="#292929" stroke-width="1.5611" stroke-linecap="round" stroke-linejoin="round" stroke-miterlimit="3" d="
								M132.416,208.36c1.686-1.757,3.194-3.247,4.523-4.47c2.516-2.316,5.005-3.853,7.462-4.613
								c4.773-1.484,7.983-2.399,9.634-2.743c3.989-0.831,7.871-1.02,11.646-0.569c-0.949-1.887-1.923-4.244-2.92-7.071
								l-1.211-3.668c-1.164-0.499-2.125-1.686-2.884-3.561c-0.832-2.447-1.591-4.358-2.279-5.735
								c-1.686-2.896-2.927-5.087-3.722-6.57c-1.402-2.635-2.018-4.72-1.851-6.251c-0.855-1.46-1.971-3.306-3.349-5.538
								l-1.816-2.921c-0.736-1.164-1.133-2.518-1.193-4.06c-0.059-1.603,0.261-3.069,0.962-4.399c1.721-3.3,4.898-4.619,9.528-3.954
								c1.353,1.021,6.535,6.393,15.546,16.116c9.214,9.949,14.496,15.944,15.849,17.986c1.21,1.817,1.851,3.569,1.923,5.254
								c0.035,0.915-0.054,1.989-0.267,3.224c0,0.522,0.66,2.38,1.976,5.573c1.259,3.075,1.841,4.838,1.745,5.289
								c-0.071,0.309-0.819,1.218-2.243,2.725c-1.342,1.389-1.971,2.434-1.888,3.135c0.024,0.226,0.351,1.105,0.979,2.635
								c0.713,1.734,1.241,3.276,1.585,4.63c1.175,4.654,0.736,8.78-1.319,12.376c-3.562,6.223-7.919,11.873-13.072,16.955
								c-7.504,7.408-15.892,12.702-25.164,15.885c-12.869,4.428-23.56,6.601-32.072,6.518
								c-11.753-0.119-21.928-4.149-30.524-12.091c-0.511-2.054-0.143-3.354,1.104-3.901c0.356-0.154,0.885-0.274,1.585-0.356
								c0.653-0.095,1.063-0.19,1.228-0.284c3.205-7.373,7.165-13.737,11.879-19.091c5.71-6.483,11.943-10.727,18.699-12.732
								c3.691-1.068,5.71-1.662,6.054-1.781C130.226,209.731,131.514,209.084,132.416,208.36z"/>
						</g>
						
							<path fill="#FFFFFF" stroke="#292929" stroke-width="1.5611" stroke-linecap="round" stroke-linejoin="round" stroke-miterlimit="3" d="
							M165.681,195.966c0.76,0.487,2.666,1.727,5.717,3.722c2.873,1.804,4.826,2.838,5.859,3.098"/>
						
							<path fill="#FFFFFF" stroke="#292929" stroke-width="1.5611" stroke-linecap="round" stroke-linejoin="round" stroke-miterlimit="3" d="
							M161.55,185.227c1.116-3.467,2.357-6.524,3.722-9.171c1.508-2.921,2.75-4.482,3.723-4.683
							c1.056-0.213,3.858,0.802,8.405,3.045c4.629,2.292,8.233,4.476,10.809,6.553"/>
						
							<path fill="#FFFFFF" stroke="#292929" stroke-width="1.5611" stroke-linecap="round" stroke-linejoin="round" stroke-miterlimit="3" d="
							M133.075,207.773c0.784-0.012,1.65,0.225,2.6,0.712c1.093,0.546,2.066,1.319,2.921,2.316c2.22,2.565,3.193,5.954,2.92,10.169
							c-1.899,2.447-4.69,5.356-8.37,8.727c-3.977,3.633-7.318,6.233-10.025,7.8c-3.977,2.315-8.565,4.012-13.766,5.093
							c-5.331,1.116-11.142,1.555-17.434,1.319"/>
						<g>
							<path fill="#FFFFFF" d="M56.678,134.67c0.107-0.902,0.35-1.542,0.73-1.923c0.689-0.689,3.051-1.395,7.088-2.12
								c4.38-0.795,8.702-1.193,12.964-1.193c4.048,0,8.749-0.415,14.104-1.247c4.547-0.7,7.491-1.318,8.833-1.853
								c1.899,0.724,3.051,1.976,3.455,3.757c0.368,1.556,0.143,3.348-0.676,5.379c-0.748,1.887-1.853,3.609-3.313,5.164
								c-1.473,1.58-2.949,2.6-4.435,3.063c-0.986-0.131-1.976-0.024-2.973,0.321c-1.247,0.44-2.386,1.223-3.419,2.351
								c-0.962,1.057-1.639,1.473-2.03,1.247c-0.38-0.546-0.742-0.963-1.085-1.247c-0.404-0.321-1.157,0.012-2.262,0.997
								c-1.805,1.591-2.773,2.434-2.903,2.53c-0.617,0.415-1.822,1.104-3.616,2.065c-1.781,1.08-3.396,2.386-4.844,3.918
								c-1.484,1.567-2.606,2.042-3.366,1.425c-0.238-0.19-0.529-0.577-0.872-1.157c-0.391-0.641-0.7-1.075-0.926-1.301
								l-3.829,4.079c-2.826,3.027-4.927,5.318-6.305,6.874l1.585,1.834c1.412,1.485,3.021,2.873,4.826,4.167
								c1.864,1.342,2.736,2.434,2.618,3.277c-0.036,0.308-0.214,0.64-0.535,0.997c-0.178,0.201-0.463,0.499-0.854,0.89l3.383,10.81
								c2.718,8.512,5.241,15.997,7.568,22.455c2.422,6.697,3.372,13.767,2.85,21.21c-0.19,2.671-0.552,5.159-1.087,7.462
								c-0.451,1.899-0.896,3.223-1.335,3.97c-1.127,1.912-1.792,3.082-1.995,3.508c-0.606,1.258-0.909,2.428-0.909,3.508
								c-9.486,2.101-18.372,0.433-26.658-5.005c-5.569-3.657-10.94-9.147-16.117-16.473c-3.467-4.926-5.597-11.658-6.393-20.194
								c-0.689-7.384-0.344-15.255,1.033-23.612c1.021-6.245,4.327-14.395,9.919-24.451c1.638-2.957,3.621-6.321,5.948-10.097
								c2.053-3.336,3.17-5.182,3.348-5.538c0.76-1.519,2.505-3.218,5.236-5.093c2.41-1.651,4.517-2.779,6.321-3.384
								C56.286,135.862,56.595,135.406,56.678,134.67z"/>
							
								<path fill="#FFFFFF" stroke="#292929" stroke-width="1.5611" stroke-linecap="round" stroke-linejoin="round" stroke-miterlimit="3" d="
								M56.678,134.67c-0.083,0.736-0.391,1.193-0.926,1.371c-1.805,0.606-3.911,1.734-6.321,3.384
								c-2.731,1.875-4.476,3.574-5.236,5.093c-0.178,0.356-1.295,2.202-3.348,5.538c-2.327,3.776-4.31,7.14-5.948,10.097
								c-5.592,10.056-8.898,18.206-9.919,24.451c-1.377,8.357-1.721,16.229-1.033,23.612c0.796,8.536,2.927,15.269,6.393,20.194
								c5.177,7.326,10.548,12.816,16.117,16.473c8.286,5.438,17.172,7.105,26.658,5.005c0-1.08,0.303-2.25,0.909-3.508
								c0.202-0.427,0.867-1.596,1.995-3.508c0.439-0.748,0.885-2.071,1.335-3.97c0.535-2.303,0.896-4.792,1.087-7.462
								c0.522-7.443-0.428-14.513-2.85-21.21c-2.327-6.458-4.85-13.943-7.568-22.455l-3.383-10.81
								c0.391-0.392,0.676-0.689,0.854-0.89c0.321-0.357,0.499-0.689,0.535-0.997c0.119-0.844-0.755-1.936-2.618-3.277
								c-1.805-1.294-3.414-2.682-4.826-4.167l-1.585-1.834c1.377-1.556,3.479-3.847,6.305-6.874l3.829-4.079
								c0.226,0.226,0.535,0.66,0.926,1.301c0.344,0.582,0.635,0.968,0.872,1.157c0.76,0.617,1.882,0.143,3.366-1.425
								c1.448-1.532,3.063-2.838,4.844-3.918c1.793-0.962,2.997-1.65,3.616-2.065c0.13-0.096,1.098-0.938,2.903-2.53
								c1.104-0.985,1.858-1.318,2.262-0.997c0.344,0.284,0.706,0.7,1.085,1.247c0.391,0.226,1.069-0.19,2.03-1.247
								c1.032-1.128,2.172-1.911,3.419-2.351c0.997-0.344,1.989-0.452,2.973-0.321c1.484-0.463,2.962-1.484,4.435-3.063
								c1.46-1.555,2.564-3.276,3.313-5.164c0.819-2.03,1.045-3.823,0.676-5.379c-0.404-1.781-1.556-3.034-3.455-3.757
								c-1.342,0.535-4.286,1.152-8.833,1.853c-5.355,0.831-10.056,1.247-14.104,1.247c-4.263,0-8.584,0.398-12.964,1.193
								c-4.036,0.724-6.398,1.431-7.088,2.12C57.028,133.126,56.784,133.767,56.678,134.67z"/>
						</g>
						
							<path fill="#FFFFFF" stroke="#292929" stroke-width="1.5611" stroke-linecap="round" stroke-linejoin="round" stroke-miterlimit="3" d="
							M56.589,135.204c3.004,1.08,5.829,2.635,8.477,4.666c2.754,2.113,4.132,3.87,4.132,5.27c0,2.766-0.03,4.411-0.09,4.933
							c-0.237,2.029-0.896,3.621-1.976,4.772"/>
						
							<path fill="#FFFFFF" stroke="#292929" stroke-width="1.5611" stroke-linecap="round" stroke-linejoin="round" stroke-miterlimit="3" d="
							M41.167,162.432c0.878-0.119,2.582-0.421,5.111-0.909c2.244-0.332,3.752-0.284,4.523,0.144c1.71,0.962,2.819,1.596,3.33,1.905
							c1.378,0.854,2.333,1.596,2.867,2.227"/>
						
							<path fill="#FFFFFF" stroke="#292929" stroke-width="1.5611" stroke-linecap="round" stroke-linejoin="round" stroke-miterlimit="3" d="
							M69.125,191.175c-2.351,0.713-5.295,2.221-8.833,4.524c-3.419,2.232-5.342,3.835-5.77,4.808
							c-0.428,0.949,0.071,5.068,1.497,12.359c1.425,7.312,2.648,11.943,3.669,13.891c0.689,1.306,2.796,5.318,6.321,12.038
							c3.431,6.267,5.8,9.966,7.106,11.094"/>
						<g>
							<path fill="#FFFFFF" d="M94.841,161.667c2.053-1.794,4.226-2.796,6.517-3.011c2.208-0.201,3.473,0.386,3.793,1.763
								c-4.891,2.826-11.41,8.643-19.553,17.453c-6.684,7.219-13.048,14.834-19.09,22.847c-6.589,8.727-13.891,21.608-21.904,38.643
								c-0.285-4.523,1.175-10.197,4.38-17.023c2.244-4.773,6.5-12.251,12.769-22.439c4.678-7.61,10.863-15.635,18.556-24.077
								C86.483,169.034,91.326,164.314,94.841,161.667z"/>
							
								<path fill="#FFFFFF" stroke="#292929" stroke-width="1.5611" stroke-linecap="round" stroke-linejoin="round" stroke-miterlimit="3" d="
								M94.841,161.667c-3.515,2.647-8.358,7.366-14.532,14.157c-7.693,8.441-13.878,16.466-18.556,24.077
								c-6.268,10.187-10.525,17.666-12.769,22.439c-3.205,6.827-4.666,12.501-4.38,17.023
								c8.014-17.036,15.315-29.917,21.904-38.643c6.042-8.014,12.407-15.63,19.09-22.847c8.144-8.81,14.662-14.628,19.553-17.453
								c-0.321-1.377-1.585-1.965-3.793-1.763C99.067,158.872,96.894,159.873,94.841,161.667z"/>
						</g>
						<g>
							<path fill="#FFFFFF" d="M109.621,162.629c0.641-0.357,1.906-0.469,3.793-0.338c0.7,0.7,1.715,3.229,3.045,7.586
								c1.971,6.446,4.743,17.144,8.316,32.091c3.537,14.78,4.458,26.843,2.76,36.186c-0.653,3.597-1.774,7.289-3.366,11.078
								c-0.095,0.237-1.614,3.491-4.559,9.759c3.93-11.1,5.254-21.827,3.971-32.179c-0.416-3.372-1.218-7.443-2.405-12.216
								c-1.46-5.877-2.327-9.54-2.6-10.989c-1.235-6.552-3.051-14.127-5.449-22.722c-2.173-7.752-3.734-12.644-4.683-14.674
								C108.256,164.333,108.648,163.139,109.621,162.629z"/>
							
								<path fill="#FFFFFF" stroke="#292929" stroke-width="1.5611" stroke-linecap="round" stroke-linejoin="round" stroke-miterlimit="3" d="
								M109.621,162.629c-0.974,0.51-1.365,1.704-1.175,3.579c0.95,2.029,2.511,6.921,4.683,14.674
								c2.398,8.595,4.214,16.17,5.449,22.722c0.273,1.449,1.14,5.111,2.6,10.989c1.187,4.773,1.989,8.844,2.405,12.216
								c1.281,10.352-0.042,21.079-3.971,32.179c2.945-6.268,4.465-9.522,4.559-9.759c1.591-3.788,2.712-7.481,3.366-11.078
								c1.697-9.344,0.777-21.405-2.76-36.186c-3.574-14.947-6.345-25.645-8.316-32.091c-1.33-4.358-2.345-6.885-3.045-7.586
								C111.527,162.16,110.262,162.272,109.621,162.629z"/>
						</g>
						<g>
							<g>
								<path fill="#FFFFFF" d="M139.539,110.113c2.351,1.127,4.315,2.677,5.895,4.648c1.58,1.983,2.552,5.42,2.92,10.312
									c0.333,4.499,0.119,9.533-0.64,15.101c2.255,2.779,1.912,6.981-1.032,12.608c-1.057,2.018-3.206,3.598-6.446,4.737
									c-2.79,0.974-5.811,1.46-9.065,1.46l-1.264,2.759c-0.997,2.043-1.883,3.533-2.654,4.471
									c-0.428,0.534-0.724,0.771-0.89,0.712c-0.13-0.034-0.196-0.29-0.196-0.765c0-1.651-0.054-2.594-0.16-2.832
									c-0.321-0.748-0.867-0.932-1.638-0.552c-0.83,0.415-1.798,1.425-2.903,3.027c-1.01,1.484-1.853,2.433-2.529,2.848
									c-0.297,0.178-1.039,0.398-2.226,0.659c-0.736,0.167-1.175-0.095-1.318-0.784c-0.308-1.567-0.487-2.404-0.534-2.51
									c-0.332-0.736-1.116-0.962-2.351-0.676c-2.433,0.57-3.787,0.861-4.06,0.873c-1.306,0.095-2.298-0.392-2.973-1.46
									c-0.487-1.223-0.801-1.976-0.944-2.262c-0.226-0.44-0.849-0.749-1.87-0.927c-1.057-0.178-1.882-0.071-2.475,0.322
									c-0.309,0.201-0.843,0.777-1.603,1.727c-0.653,0.819-1.288,1.341-1.906,1.567c-1.247,0.476-1.87-1.039-1.87-4.541
									c0-1.258-0.018-1.971-0.053-2.137c-0.083-0.488-0.41-1.151-0.979-1.995c-0.534-0.795-0.647-1.976-0.338-3.544
									c0.012-0.047,0.469-1.691,1.371-4.932c-0.606-1.128,0.119-5.349,2.173-12.662c2.529-8.347,4.149-13.767,4.861-16.259
									c0.867-3.039,2.356-5.372,4.47-6.999c2.422-1.425,4.125-2.635,5.111-3.632c1.412-1.413,4.072-2.268,7.978-2.565
									c3.645-0.273,6.951-0.005,9.919,0.802C134.138,108.017,137.545,109.151,139.539,110.113z"/>
								
									<path fill="#FFFFFF" stroke="#292929" stroke-width="1.5611" stroke-linecap="round" stroke-linejoin="round" stroke-miterlimit="3" d="
									M139.539,110.113c-1.994-0.962-5.401-2.095-10.222-3.401c-2.968-0.808-6.275-1.075-9.919-0.802
									c-3.906,0.298-6.566,1.152-7.978,2.565c-0.986,0.997-2.688,2.207-5.111,3.632c-2.114,1.627-3.603,3.959-4.47,6.999
									c-0.713,2.494-2.333,7.913-4.861,16.259c-2.054,7.312-2.778,11.533-2.173,12.662c-0.902,3.241-1.359,4.885-1.371,4.932
									c-0.308,1.567-0.196,2.75,0.338,3.544c0.569,0.844,0.896,1.507,0.979,1.995c0.036,0.165,0.053,0.878,0.053,2.137
									c0,3.502,0.623,5.016,1.87,4.541c0.617-0.226,1.253-0.748,1.906-1.567c0.76-0.949,1.294-1.526,1.603-1.727
									c0.593-0.392,1.419-0.499,2.475-0.322c1.021,0.178,1.644,0.487,1.87,0.927c0.143,0.284,0.457,1.039,0.944,2.262
									c0.676,1.068,1.668,1.555,2.973,1.46c0.274-0.012,1.627-0.303,4.06-0.873c1.235-0.284,2.018-0.059,2.351,0.676
									c0.047,0.107,0.226,0.943,0.534,2.51c0.143,0.689,0.582,0.95,1.318,0.784c1.187-0.261,1.93-0.481,2.226-0.659
									c0.676-0.415,1.519-1.365,2.529-2.848c1.104-1.603,2.072-2.612,2.903-3.027c0.772-0.38,1.318-0.196,1.638,0.552
									c0.107,0.238,0.16,1.181,0.16,2.832c0,0.475,0.065,0.731,0.196,0.765c0.167,0.06,0.463-0.178,0.89-0.712
									c0.771-0.938,1.656-2.428,2.654-4.471l1.264-2.759c3.252,0,6.275-0.487,9.065-1.46c3.24-1.14,5.39-2.718,6.446-4.737
									c2.944-5.627,3.288-9.83,1.032-12.608c0.759-5.568,0.974-10.602,0.64-15.101c-0.368-4.891-1.34-8.328-2.92-10.312
									C143.854,112.789,141.89,111.24,139.539,110.113z"/>
							</g>
							
								<path fill="#FFFFFF" stroke="#292929" stroke-width="1.5611" stroke-linecap="round" stroke-linejoin="round" stroke-miterlimit="3" d="
								M111.136,147.421c-1.092-0.297-1.899-0.351-2.422-0.16c-0.452,0.167-0.95,0.629-1.497,1.389
								c-0.748,1.045-1.497,2.036-2.244,2.973c-1.045,1.282-1.745,2.013-2.102,2.19c-0.724,0.202-1.329,0.392-1.816,0.57
								c-0.902,0.321-1.609,0.819-2.119,1.497c-0.784,1.056-1.306,1.994-1.567,2.813c-0.333,1.069-0.083,1.644,0.747,1.728
								c0.855,0.096,1.829-0.136,2.921-0.694c0.926-0.476,1.745-1.069,2.457-1.782"/>
							
								<path fill="#FFFFFF" stroke="#292929" stroke-width="1.5611" stroke-linecap="round" stroke-linejoin="round" stroke-miterlimit="3" d="
								M115.053,150.305c0,0.583,0.173,1.057,0.517,1.425c0.249,0.261,0.837,0.89,1.763,1.888c0.641,0.795,0.944,1.638,0.909,2.529
								c-0.047,1.14-0.006,1.875,0.125,2.207c0.213,0.559,0.629,1.224,1.246,1.995c0.415,0.676,0.415,1.388,0,2.138
								c-0.688,1.258-1.318,2.077-1.887,2.456c-0.95,0.641-2.25,0.731-3.901,0.267"/>
							<path fill="#FFFFFF" d="M120.77,153.191c0.035-1.555,0.476-2.516,1.319-2.885c0.986-0.439,2.19-0.196,3.614,0.731
								c1.46,0.949,2.048,2.013,1.763,3.187c-0.487,1.96-0.968,3.17-1.442,3.633c-0.962,0.914-2.481,0.535-4.558-1.141
								C120.978,155.731,120.746,154.556,120.77,153.191z"/>
							<path stroke="#373435" stroke-width="1.5611" d="M120.77,153.191c0.035-1.555,0.476-2.516,1.319-2.885
								c0.986-0.439,2.19-0.196,3.614,0.731c1.46,0.949,2.048,2.013,1.763,3.187c-0.487,1.96-0.968,3.17-1.442,3.633
								c-0.962,0.914-2.481,0.535-4.558-1.141C120.978,155.731,120.746,154.556,120.77,153.191z"/>
							<path fill="#FFFFFF" d="M102.659,144.927c2.635,0.784,3.555,2.291,2.76,4.523c-0.284,0.832-0.789,1.669-1.513,2.511
								c-0.653,0.748-1.294,1.312-1.923,1.692c-1.127,0.665-2.107,0.712-2.938,0.143c-0.808-0.545-1.253-1.502-1.336-2.867
								c-0.083-1.342,0.457-2.713,1.621-4.114C100.48,145.402,101.59,144.773,102.659,144.927z"/>
							<path stroke="#373435" stroke-width="1.5611" d="M102.659,144.927c-1.069-0.154-2.178,0.475-3.33,1.887
								c-1.164,1.401-1.704,2.773-1.621,4.114c0.083,1.365,0.529,2.321,1.336,2.867c0.83,0.569,1.811,0.522,2.938-0.143
								c0.63-0.38,1.271-0.944,1.923-1.692c0.724-0.843,1.229-1.68,1.513-2.511C106.214,147.218,105.294,145.711,102.659,144.927z"
								/>
						</g>
					</g>
				</g>
			</g>
		</g>
	</g>
</g>
</svg>
