<?xml version="1.0" encoding="utf-8"?>
<!-- Generator: Adobe Illustrator 17.0.1, SVG Export Plug-In . SVG Version: 6.00 Build 0)  -->
<!DOCTYPE svg PUBLIC "-//W3C//DTD SVG 1.1//EN" "http://www.w3.org/Graphics/SVG/1.1/DTD/svg11.dtd">
<svg version="1.1" id="Layer_1" xmlns="http://www.w3.org/2000/svg" xmlns:xlink="http://www.w3.org/1999/xlink" x="0px" y="0px"
	 width="202.508px" height="249.403px" viewBox="38.23 11.228 202.508 249.403"
	 enable-background="new 38.23 11.228 202.508 249.403" xml:space="preserve">
<g>
	<g id="Layer_1_1_">
		<g>
			<g id="Layer_1_3_">
				<g>
					<path fill="#FFFFFF" stroke="#373535" stroke-width="1.6001" stroke-miterlimit="10" d="M201.631,45.687
						c-1.384-2.347-2.596-4.107-3.636-5.281c-1.782-2.247-3.31-4.001-4.583-5.264c-2.048-1.184-3.377-2.043-3.985-2.574
						c-3.598-2.967-6.653-5.287-9.166-6.958c-0.83-0.63-2.359-1.444-4.584-2.441c-2.778-1.229-4.556-2.065-5.329-2.508
						c-1.329-0.764-4.428-1.838-9.3-3.222c-2.834-0.952-4.56-1.494-5.181-1.627c-1.405-0.377-3.531-0.814-6.377-1.311
						c-2.225-0.388-3.736-0.632-4.533-0.731c-1.385-0.1-2.353-0.21-2.907-0.333c-1.981-0.564-3.598-0.847-4.849-0.847
						c-5.225-0.045-8.839-0.21-10.843-0.498c-1.439-0.222-5.612,0.127-12.52,1.045l-4.284,0.564
						c-0.123,0.033-0.781,0.305-1.977,0.814c-1.505,0.632-2.596,1.085-3.271,1.362c-3.288,1.306-5.607,2.33-6.957,3.072
						c-1.782,0.953-3.515,1.97-5.198,3.055c-0.443,0.199-1.45,0.703-3.022,1.512c-1.627,0.842-2.557,1.339-2.789,1.494
						c-0.31,0.199-1.085,0.609-2.324,1.229c-1.185,0.587-1.794,0.891-1.827,0.913c-1.561,0.753-3.836,2.324-6.825,4.716
						c-1.649,1.251-3.354,2.834-5.114,4.749c-0.487,0.531-1.134,1.411-1.943,2.64c-0.918,1.317-1.378,2.043-1.378,2.175
						c-1.45,3.299-2.53,5.541-3.239,6.726c-0.21,0.432-0.842,2.142-1.892,5.131c-1.24,3.51-1.96,5.884-2.159,7.124
						c-0.199,1.24-0.415,3.022-0.647,5.347c-0.177,1.781-0.299,3.166-0.366,4.151c-0.045,1.517-0.055,2.685-0.033,3.504
						c0,0.244,0.078,0.885,0.233,1.925c0.199,1.274,0.404,2.176,0.614,2.707c0.786,2.059,1.422,3.416,1.909,4.067
						c0.233,0.72,1.09,2.773,2.574,6.16c0.099,0.299,0.658,1.384,1.677,3.255c0.753,1.406,1.418,2.364,1.993,2.873
						c-0.41,0.875-0.83,1.833-1.262,2.873c-0.243,0.62-0.814,1.87-1.711,3.753c-0.243,0.63-0.653,1.887-1.229,3.77
						c-0.299,0.908-0.979,1.882-2.043,2.923c-0.022-0.022-0.078-0.033-0.165-0.033c-0.244,0-1.899,1.123-4.966,3.371
						c-1.406,1.073-2.834,2.225-4.285,3.454c-1.052,0.864-2.075,2.01-3.072,3.437c-1.139,1.661-1.743,2.779-1.81,3.355
						c-0.498,0.842-1.146,2.357-1.943,4.551c-0.962,2.657-1.594,4.777-1.892,6.36c-0.133,0.144-0.359,1.09-0.681,2.84
						c-0.276,1.516-0.453,2.606-0.531,3.271c-0.045,0.31-0.371,2.097-0.979,5.363c-0.642,3.577-1.064,6.388-1.262,8.436
						c-0.266,2.557-0.51,5.407-0.731,8.552l0.033,2.093c0.022,1.484,0.045,2.452,0.066,2.906v10.661
						c0,0.244,0.178,1.057,0.532,2.442c0.399,1.538,0.62,2.434,0.665,2.689c0.122,0.443,0.316,0.785,0.58,1.029
						c0.111,0.487,0.432,1.948,0.963,4.383c0.444,1.152,0.936,1.987,1.478,2.508l1.196,1.312c0.863,0.708,1.755,1.062,2.673,1.062
						c0.731,0,1.4-0.266,2.009-0.797c0.432-0.378,0.902-0.969,1.411-1.777c0.564-1.24,0.974-2.043,1.229-2.408
						c0.321-0.51,1.013-1.312,2.076-2.409l1.411-2.375c0.421-0.708,0.991-2.314,1.711-4.816c1.13-2.069,1.755-3.553,1.876-4.45
						c0.332-0.764,0.62-1.422,0.863-1.977c0.741-1.859,1.156-3.077,1.245-3.654c0.852-3.586,1.361-5.784,1.528-6.592
						c1.307-6.731,2.053-10.977,2.242-12.736c0.564-0.875,1.345-3.017,2.341-6.427c0.089-0.365,0.526-1.561,1.312-3.586
						c0.51-1.295,0.708-2.463,0.598-3.504c0.421-0.476,0.957-1.212,1.611-2.208c1.406-2.158,2.242-3.387,2.508-3.687
						c2.225-2.591,4.112-4.228,5.662-4.915c1.517-0.675,3.924-1.013,7.223-1.013c1.295,0.156,2.104,0.266,2.425,0.333
						c0.653,0.155,1.196,0.415,1.628,0.78l1.162,1.295c0.133,0.155,0.609,0.581,1.428,1.279c0.698,0.587,1.156,0.969,1.378,1.146
						c0.531,0.388,1.605,0.93,3.222,1.628c1.361,0.564,2.607,1.279,3.736,2.142c0.387,0.299,1.218,1.179,2.491,2.64
						c0.774,0.93,1.632,1.677,2.574,2.242c0.609,0.487,1.378,1.013,2.308,1.578l3.57,3.188c0.21,0.165,1.384,1.4,3.52,3.704
						c1.251,1.361,2.154,2.208,2.707,2.541c0.487,0.476,1.683,1.3,3.586,2.474c2.291,1.936,3.636,3.01,4.035,3.222
						c1.352,0.62,2.535,1.677,3.554,3.172c0.111,0.089,0.614,0.714,1.512,1.876c0.642,0.909,1.14,1.378,1.494,1.411
						c0.864,0.608,1.738,1.201,2.623,1.777c1.418,0.885,2.663,1.644,3.737,2.274c0.41,0.31,1.428,1.146,3.055,2.508
						c1.273,1.064,2.441,1.91,3.503,2.541c0.564,0.322,3.837,2.325,9.814,6.012c3.897,2.424,6.293,3.807,7.19,4.152l1.229,1.278
						c1.34,1.329,2.197,2.546,2.574,3.654c0.111,0.343,0.918,1.301,2.424,2.873c1.384,1.417,2.34,2.297,2.873,2.64
						c-0.466,0.742-1.036,2.093-1.711,4.052c-0.587,1.517-1.222,3.044-1.909,4.584c-0.055,0.121-0.255,0.669-0.598,1.644
						c-0.41,1.163-0.732,2.142-0.963,2.939l-1.278,3.105c-0.598,0.953-1.345,3.432-2.242,7.439
						c-0.156,0.687-0.736,3.006-1.744,6.957c-0.321,0.387-0.564,1.368-0.731,2.94c-0.133,1.517-0.255,3.187-0.366,5.015
						c-0.698,4.871-1.045,7.627-1.045,8.269l0.033,2.142c0,1.151,0.055,1.933,0.165,2.341c0.111,0.31,0.558,1.234,1.345,2.773
						c0.555,1.096,1.345,2.314,2.376,3.654c0.332,0.431,0.681,0.803,1.045,1.113c0.31,0.254,0.487,0.371,0.531,0.349
						c1.317,1.373,5.12,3.675,11.408,6.908c4.019,1.738,6.46,2.696,7.323,2.872c3.465,0.688,5.917,1.213,7.356,1.578
						c1.307,0.244,3.483,0.366,6.526,0.366c2.17,0,4.544-0.122,7.124-0.366c3.742,0,7.651-1.086,11.723-3.255
						c0.909-0.476,3.294-2.037,7.158-4.684c3.166-2.225,5.264-3.93,6.293-5.114c0.144-0.199,1.146-1.024,3.005-2.475
						c0.643-0.52,1.224-1.145,1.744-1.876c0.387-0.642,0.587-0.968,0.598-0.979c0.111-0.177,0.637-1.046,1.578-2.607
						c0.521-0.554,1.246-2.069,2.175-4.55c1.064-5.048,1.595-8.06,1.595-9.034c-0.366-2.258-0.776-3.51-1.229-3.753l-0.979-2.11
						c-0.066-0.177-0.538-0.72-1.411-1.627c-0.909-0.93-1.406-1.444-1.494-1.544c-0.653-0.72-1.588-2.06-2.807-4.019
						c-1.948-3.288-3.52-5.584-4.716-6.892c-2.18-2.379-3.432-3.94-3.753-4.683c-0.387-0.554-0.913-1.345-1.578-2.375
						c-0.62-1.062-1.007-1.877-1.162-2.441c-0.987-2.68-1.478-4.096-1.478-4.251c-0.343-1.406-0.531-2.341-0.564-2.807l-0.066-2.873
						c0-1.771,0.233-3.35,0.697-4.733c0.753-1.793,1.423-3.63,2.01-5.513c1.064-2.325,1.645-4.029,1.744-5.115l0.996-4.185
						c0.643-1.106,1.617-3.841,2.923-8.202c1.439-4.827,2.275-8.192,2.508-10.097c0.132-0.156,0.421-1.251,0.864-3.288
						c0.642-1.794,1.024-2.973,1.146-3.537c0.222-0.985,0.365-2.628,0.431-4.931v-2.142c0-1.849-0.122-3.288-0.365-4.317
						c0.066-2.48-0.116-3.881-0.548-4.201c-0.289-1.029-0.432-1.666-0.432-1.909v-1.876c0.089-1.451,0.111-2.712,0.066-3.786
						l-0.1-3.736c-0.066-1.506-0.309-2.756-0.731-3.753c-1.107-2.69-1.744-5.198-1.91-7.523c-0.099-1.418-0.386-2.973-0.863-4.667
						c-0.066-0.233-0.758-2.463-2.076-6.692c-1.251-3.985-1.953-6.337-2.109-7.057c-0.432-2.657-0.814-4.561-1.146-5.712
						c-0.354-1.151-0.852-2.325-1.494-3.52c-0.132-0.233-0.404-0.609-0.814-1.13c-0.443-0.554-0.731-0.869-0.864-0.946
						c-0.089-0.432-0.814-2.114-2.175-5.048c-1.461-3.166-2.496-5.319-3.105-6.46c-1.594-3.022-2.701-4.949-3.321-5.778
						c-1.13-1.461-1.843-2.425-2.142-2.889c-0.753-1.14-1.423-1.954-2.01-2.441c-0.066-0.089-0.426-0.438-1.08-1.046
						c-0.665-0.598-1.019-0.918-1.062-0.963C203.142,47.708,202.439,46.827,201.631,45.687z"/>
					<path fill="#373535" d="M80.145,55.734c0-0.387-0.188-0.802-0.564-1.245c-0.399-0.432-0.598-0.687-0.598-0.764
						c0-0.343,0.189-0.514,0.565-0.514c1.073,0,1.611,0.875,1.611,2.623c0.033,1.627-0.842,2.441-2.623,2.441
						c-0.875,0-1.494-0.359-1.86-1.08l-0.349-1.062c0-0.543,0.149-0.814,0.448-0.814c0.31,0,0.532,0.326,0.665,0.979
						c0.165,0.621,0.554,0.93,1.163,0.93C79.664,57.228,80.178,56.73,80.145,55.734z"/>
					<path fill="none" stroke="#373535" stroke-width="1.6001" stroke-miterlimit="10" d="M81.689,49.739
						c-0.852,0-1.8,0.276-2.84,0.83c-1.494,0.785-2.712,1.87-3.652,3.255c-0.963,1.34-1.444,2.8-1.444,4.384v0.864
						c0.166,0.531,0.659,0.797,1.478,0.797c0.276,0,0.576-0.089,0.896-0.266c-0.089,0.222-0.144,0.415-0.166,0.581
						c-0.177,0.741-0.266,1.24-0.266,1.494l0.033,0.814c0.099,0.531,0.354,0.797,0.764,0.797"/>
					<path fill="none" stroke="#373535" stroke-width="1.6001" stroke-miterlimit="10" d="M109.221,69.151
						c0-1.073-0.769-2.696-2.308-4.865c-0.896-1.406-1.422-2.22-1.578-2.441c-1.13-1.628-1.954-2.442-2.474-2.442"/>
					<path fill="none" stroke="#373535" stroke-width="1.6001" stroke-miterlimit="10" d="M116.578,68.636
						c0-0.453-0.355-1.533-1.064-3.239c-0.741-1.782-1.522-3.21-2.341-4.284c-0.842-1.107-1.959-2.357-3.355-3.753
						c-0.963-0.798-1.689-1.422-2.175-1.876c-0.266-0.243-0.842-0.653-1.727-1.229c-0.698-0.42-1.113-0.63-1.245-0.63"/>
					<path fill="#373535" d="M98.611,72.423c0.066,0.366,0.033,0.63-0.099,0.797c-0.089,0.177-0.233,0.337-0.432,0.482
						c-0.354,0.288-0.741,0.431-1.163,0.431c-0.498,0-0.979-0.304-1.444-0.913l-0.564-0.93c0-0.333,0.166-0.498,0.498-0.498
						c0.222,0,0.487,0.222,0.798,0.665c0.288,0.42,0.514,0.632,0.681,0.632c0.288,0,0.487-0.089,0.598-0.267
						c0.033-0.078,0.089-0.133,0.165-0.166l-0.165-0.665c-0.233-0.941-0.614-1.411-1.147-1.411c-0.564,0-1.233,0.648-2.009,1.943
						c-0.752,1.295-1.512,1.942-2.274,1.942c-0.288,0-0.465-0.078-0.532-0.233l-0.033-0.266c0-0.055,0.725-0.802,2.175-2.242
						c0.099-0.133,0.299-0.548,0.598-1.245c0.443-0.621,1.156-0.93,2.142-0.93C97.774,69.549,98.512,70.507,98.611,72.423z"/>
					<path fill="#373535" d="M81.922,71.111c-0.267-0.642-0.543-0.963-0.831-0.963c-0.741,1.085-1.113,1.656-1.113,1.711
						c0,0.055,0.156,0.188,0.465,0.399c0.155-0.156,0.382-0.343,0.681-0.564C81.534,71.37,81.8,71.177,81.922,71.111z
						 M79.348,72.721l-0.366-0.797c0-0.333,0.166-0.814,0.498-1.444c0.476-0.908,1.045-1.361,1.711-1.361
						c1.295,0,2.031,1.134,2.208,3.404c0,0.621-0.172,0.93-0.515,0.93c-0.122,0-0.332-0.454-0.63-1.362l-0.266,0.233
						c-0.299,0.299-0.564,0.498-0.797,0.598v0.1c-0.033,0.332-0.205,0.498-0.515,0.498C80.155,73.518,79.713,73.253,79.348,72.721z"
						/>
					<path fill="none" stroke="#373535" stroke-width="1.6001" stroke-miterlimit="10" d="M80.776,94.441
						c0,0.033,0.592,0.648,1.777,1.843l0.88,0.963c0.642,0.509,1.422,0.764,2.341,0.764"/>
					<path fill="none" stroke="#373535" stroke-width="1.6001" stroke-miterlimit="10" d="M74.118,48.493
						c-0.31,0-0.93,0.781-1.86,2.341c-0.897,1.494-1.467,2.668-1.711,3.52c-0.63,2.247-0.947,4.223-0.947,5.928
						c0,0.288,0.066,0.698,0.199,1.229c0.033,0.099,0,0.355-0.099,0.764"/>
					<path fill="none" stroke="#373535" stroke-width="1.6001" stroke-miterlimit="10" d="M65.349,71.956
						c0,0.41,0.47,1.683,1.411,3.82c0.543,1.029,0.913,1.661,1.113,1.892c0.333,0.443,1.046,1.08,2.142,1.91"/>
					<path fill="none" stroke="#373535" stroke-width="1.6001" stroke-miterlimit="10" d="M95.439,50.768
						c-0.166,0.066-0.802,0.1-1.91,0.1c-3.73,0-6.886,1.307-9.465,3.918c-1.782,1.782-2.739,3.211-2.873,4.285
						c-1.218,0.797-2.236,1.915-3.056,3.355l-2.109,3.338c-1.173,1.981-1.798,3.21-1.876,3.687
						c-0.122,0.332-0.233,0.786-0.332,1.361c-0.166,0.632-0.444,1.539-0.83,2.723l-1.677,3.902"/>
					<path fill="none" stroke="#373535" stroke-width="1.6001" stroke-miterlimit="10" d="M87.069,55.517
						c-0.177,0-0.93,0.41-2.258,1.229c-1.118,0.687-2.325,1.461-3.62,2.325"/>
					<path fill="none" stroke="#373535" stroke-width="1.6001" stroke-miterlimit="10" d="M112.509,86.769
						c0.144-0.498,0.233-1.002,0.266-1.512c0-0.022,0-0.266,0-0.731c0-1.892-0.205-2.84-0.614-2.84"/>
					<path fill="none" stroke="#373535" stroke-width="1.6001" stroke-miterlimit="10" d="M88.68,97.812
						c0.3,0,1.002-0.299,2.11-0.897c1.041-0.587,2.097-0.864,3.171-0.83c0.708,0.033,1.467-0.249,2.275-0.847
						c0.675-0.498,1.013-0.852,1.013-1.062v-0.166c0.753,0.621,2.192,0.93,4.317,0.93h0.532c0.133,0.045,0.288,0.066,0.465,0.066
						c1.672,0,2.978-0.188,3.919-0.564c1.672-0.698,3.211-2.159,4.617-4.383c0.653-1.064,1.124-2.159,1.411-3.289
						c0.444-0.399,0.953-0.963,1.528-1.694c0.953-1.173,1.733-2.269,2.341-3.289c0.177-0.288,0.46-1.189,0.847-2.706
						c0.354-1.406,0.531-2.286,0.531-2.64"/>
					<path fill="none" stroke="#373535" stroke-width="1.6001" stroke-miterlimit="10" d="M69.666,75.66
						c0,0.155,0.194,0.481,0.581,0.979c0.333,0.399,0.687,0.665,1.064,0.798c-0.144,0.41-0.233,0.747-0.267,1.013
						c-0.233,0.399-0.398,1.113-0.498,2.142c-0.089,0.764-0.133,1.666-0.133,2.706l0.066,2.043c0,0.045,0.022,0.133,0.066,0.266
						c-0.022,0.022-0.033,0.066-0.033,0.133l0.665,1.278c0.123,0.233,0.692,1.267,1.711,3.105c0.587,1.517,0.996,2.441,1.229,2.773
						c0.741,1.074,1.738,1.611,2.989,1.611c1.949,0,3.183-0.714,3.703-2.142c0.609-0.498,1.08-0.936,1.411-1.312l0.798,0.581
						c0.099,0.066,0.205,0.21,0.315,0.432c0.267,0.199,0.986,0.299,2.159,0.299c1.804,0,3.244-0.415,4.317-1.245
						c0.366-0.277,0.637-0.521,0.814-0.731c0.111,0.133,0.432,0.443,0.963,0.93c0.299,0.255,1.057,0.692,2.275,1.312
						c0.122,0.077,0.614,0.199,1.477,0.365c0.354,0.078,0.731,0.233,1.13,0.465c0.343,0.188,0.603,0.371,0.781,0.548"/>
					<path fill="none" stroke="#373535" stroke-width="1.6001" stroke-miterlimit="10" d="M126.757,55.933
						c0-0.233-0.21-1.08-0.632-2.541c-0.498-1.616-0.858-2.635-1.08-3.055c-0.465-0.842-1.5-1.777-3.105-2.807
						c-0.498-0.332-1.168-0.936-2.009-1.81c-0.632-0.665-1.08-0.996-1.345-0.996"/>
					<path fill="none" stroke="#373535" stroke-width="1.6001" stroke-miterlimit="10" d="M122.954,78.3
						c1.329,0,2.01-1.932,2.043-5.794"/>
					<path fill="none" stroke="#373535" stroke-width="1.6001" stroke-miterlimit="10" d="M128.136,78.383
						c0.21,0,1.279-1.163,3.204-3.487c1.96-2.391,3.321-4.24,4.086-5.546c0.609-1.097,1.333-2.602,2.175-4.517
						c0.908-1.749,1.5-2.967,1.777-3.654c1.029-0.565,1.561-3.709,1.594-9.432c0-2.303-0.255-4.157-0.764-5.563
						c-1.45-3.742-2.341-5.612-2.674-5.612"/>
					<path fill="none" stroke="#373535" stroke-width="1.6001" stroke-miterlimit="10" d="M110.964,91.12
						c0.066,0.177,0.222,0.266,0.465,0.266c1.273,0,3.293-0.432,6.061-1.295c2.789-0.863,4.185-1.5,4.185-1.909"/>
					<path fill="none" stroke="#373535" stroke-width="1.6001" stroke-miterlimit="10" d="M123.137,92.332
						c0.089,0.155,0.349,0.233,0.78,0.233c1.627,0,3.643-0.31,6.044-0.93c2.015-0.554,3.256-0.946,3.72-1.179
						c4.661-2.38,6.991-4.018,6.991-4.914"/>
					<path fill="none" stroke="#373535" stroke-width="1.6001" stroke-miterlimit="10" d="M157.128,83.199
						c0.189,0,1.538-0.825,4.051-2.474c0.698-0.453,1.706-1.333,3.023-2.64c0.908-0.985,2.59-2.74,5.047-5.264
						c0.31-0.343,0.904-1.224,1.777-2.64c0.764-1.196,1.478-2.076,2.143-2.64c3.652-3.332,5.48-5.11,5.48-5.33"/>
					<path fill="none" stroke="#373535" stroke-width="1.6001" stroke-miterlimit="10" d="M202.478,79.38
						c-1.029-0.399-1.599-0.632-1.711-0.698c-1.316-0.985-2.375-1.611-3.171-1.876c-1.706-0.819-2.89-1.378-3.554-1.677
						c-1.67-0.708-3.536-1.062-5.596-1.062c-3.907,0-7.317,1.222-10.229,3.67c-1.417,1.163-2.579,2.513-3.487,4.051
						c-0.421,0.675-2.291,3.62-5.613,8.835"/>
					<path fill="none" stroke="#373535" stroke-width="1.6001" stroke-miterlimit="10" d="M187.417,89.492
						c-0.874,0-1.477,0.769-1.809,2.308c-0.057,0.354-0.111,1.123-0.166,2.308l-0.165,2.308c-0.122,0.342-0.859,1.123-2.208,2.341"
						/>
					<path fill="none" stroke="#373535" stroke-width="1.6001" stroke-miterlimit="10" d="M191.103,100.502l1.262,1.645
						c0.897,1.162,1.444,1.926,1.645,2.291c0.298,0.576,1.08,1.915,2.34,4.019c1.827,3.044,2.739,5.723,2.739,8.037l-0.233,3.603
						c-0.033,1.539-0.022,3.492,0.033,5.862c-0.132,1.352-0.254,2.923-0.366,4.716c-0.144,1.35-0.42,2.923-0.83,4.716
						c0,0.066-0.16,0.858-0.481,2.375l-0.962,5.464c-0.676,2.689-1.013,5.702-1.013,9.034v3.137
						c-0.033,0.765-0.011,2.048,0.066,3.853c0,0.498-0.156,2.64-0.465,6.425l-0.133,3.504c-0.077,1.794-0.1,3.432-0.066,4.914
						c0,2.569,0.078,4.086,0.234,4.551c0.111,0.387,0.337,1.156,0.681,2.308c0.055,0.155,0.337,0.554,0.847,1.195
						c0.519,0.653,0.835,1.002,0.947,1.046c0.819,0.608,2.291,1.538,4.417,2.789l2.408,2.042c1.361,1.019,2.402,1.529,3.122,1.529
						c0.598,0,1.051-0.156,1.361-0.466c0.111,0,1.184-2.02,3.223-6.061c1.638-3.62,2.54-5.646,2.706-6.077
						c0.342-1.196,0.769-3.482,1.278-6.858c0.288-2.081,0.466-3.421,0.531-4.019c0.366-0.233,0.499-1.201,0.399-2.907
						c-0.177-2.546-0.266-4.19-0.266-4.931l-0.066-4.749c0.122-1.173,0.244-2.84,0.366-4.999c0.089-1.727,0.132-2.756,0.132-3.089
						c0-2.612-0.121-5.025-0.365-7.24l-0.266-1.86c-0.277-1.317-0.399-2.823-0.366-4.517c0-2.38-0.205-3.83-0.614-4.351
						c-0.111-1.461-0.165-2.446-0.165-2.956c0.233-3.299,0.349-5.752,0.349-7.356c0.066-3.089-0.205-4.649-0.815-4.683
						c-1.029-2.047-1.644-3.465-1.843-4.251c-0.255-2.612-0.476-4.372-0.665-5.28c-0.332-1.727-0.509-2.602-0.531-2.623
						c-0.398-0.708-1.08-1.588-2.042-2.64c-0.045-0.045-0.571-0.913-1.578-2.607c-0.21-0.366-0.642-0.975-1.295-1.827
						c-0.665-0.874-1.069-1.411-1.213-1.611c-0.598-0.819-1.089-1.345-1.478-1.578c-2.302-2.17-3.874-3.255-4.716-3.255"/>
					<path fill="none" stroke="#373535" stroke-width="1.6001" stroke-miterlimit="10" d="M116.046,61.18
						c-0.963-0.698-1.622-1.224-1.977-1.578c-0.564-1.064-1.029-1.594-1.395-1.594"/>
					<path fill="none" stroke="#373535" stroke-width="1.6001" stroke-miterlimit="10" d="M119.633,63.057
						c0-0.576-0.593-1.683-1.777-3.321c-0.498-0.687-0.946-1.173-1.345-1.461c0.753,0,1.146-0.908,1.179-2.723
						c0-0.465-0.493-1.555-1.478-3.271c-0.155-0.3-0.913-0.88-2.274-1.744c-1.529-0.908-2.651-1.361-3.371-1.361
						c-0.465,0-0.748,0.066-0.847,0.199"/>
					<path fill="none" stroke="#373535" stroke-width="1.6001" stroke-miterlimit="10" d="M116.511,58.274
						c-0.609-0.521-1.162-0.957-1.661-1.311c-0.487-0.354-0.792-0.531-0.913-0.531"/>
					<path fill="#373535" d="M113.207,52.445c0.333,0,0.498,0.144,0.498,0.432c0,0.21-0.177,0.703-0.531,1.478
						c0,0.165,0.066,0.365,0.199,0.597c0.222,0.354,0.542,0.531,0.963,0.531c0.542,0,0.891-0.111,1.045-0.332
						c0.288,0,0.432,0.144,0.432,0.431c0,0.543-0.492,0.814-1.477,0.814c-0.786,0-1.362-0.326-1.727-0.979
						c-0.21-0.354-0.315-0.709-0.315-1.062c0-0.377,0.044-0.698,0.133-0.963C112.603,52.761,112.863,52.445,113.207,52.445z"/>
					<path fill="none" stroke="#373535" stroke-width="1.6001" stroke-miterlimit="10" d="M143.86,82.701
						c0.765,0,3.194-3.305,7.29-9.913c0.963-1.617,1.765-3.277,2.409-4.982c0.642-1.87,1.051-3.31,1.228-4.317
						c0.555-1.406,0.847-4.987,0.88-10.744c0-1.218-0.044-2.557-0.132-4.018c-0.354-2.236-0.531-3.603-0.531-4.102"/>
					<path fill="none" stroke="#373535" stroke-width="1.6001" stroke-miterlimit="10" d="M151.183,37.55
						c0-1.019-0.614-2.154-1.843-3.404c-0.521-0.543-1.267-1.123-2.242-1.744c-1.307-1.163-2.031-1.743-2.175-1.743"/>
				</g>
			</g>
		</g>
	</g>
</g>
<path fill="#373535" d="M117.802,55.165c0,1.566-1.343,2.835-3,2.835l0,0c-1.657,0-3-1.269-3-2.835v-0.597
	c0-1.566,1.343-2.835,3-2.835l0,0c1.657,0,3,1.269,3,2.835V55.165z"/>
<path fill="#373535" d="M81.934,55.991c0,1.698-1.403,3.076-3.134,3.076l0,0c-1.73,0-3.134-1.378-3.134-3.076v-0.647
	c0-1.698,1.403-3.076,3.134-3.076l0,0c1.73,0,3.134,1.378,3.134,3.076V55.991z"/>
</svg>
