<?xml version="1.0" encoding="utf-8"?>
<!-- Generator: Adobe Illustrator 17.0.1, SVG Export Plug-In . SVG Version: 6.00 Build 0)  -->
<!DOCTYPE svg PUBLIC "-//W3C//DTD SVG 1.1//EN" "http://www.w3.org/Graphics/SVG/1.1/DTD/svg11.dtd">
<svg version="1.1" id="Layer_1" xmlns="http://www.w3.org/2000/svg" xmlns:xlink="http://www.w3.org/1999/xlink" x="0px" y="0px"
	 width="247.429px" height="231.44px" viewBox="8.377 9.28 247.429 231.44" enable-background="new 8.377 9.28 247.429 231.44"
	 xml:space="preserve">
<g>
	<g id="Layer_1_1_">
		<g>
			<g id="Layer_1_3_">
				<g>
					<g>
						<g>
							<path fill="#FFFFFF" d="M74.298,47.875c-1.605,3.504-4.083,5.65-7.433,6.439c-0.854,0.254-1.943,0.446-3.267,0.573
								c-3.376,0.509-6.146,0.045-8.312-1.395c-2.14-1.427-3.662-3.789-4.567-7.088c0-1.797,0.343-2.93,1.031-3.401
								c0.688-0.472,1.739-0.312,3.153,0.477c1.121,3.007,3.191,4.624,6.21,4.853c3.083,0.229,5.382-0.522,6.897-2.254
								c1.681-2.077,2.617-4.338,2.809-6.783c0.343-2.751,0.121-5.389-0.669-7.91c-0.65-2.535-1.815-4.535-3.497-6
								c-0.318-0.254-0.962-0.854-1.93-1.795c-3.542-2.306-6.968-3.854-10.28-4.643c-6.625-2.076-12.617-0.719-17.981,4.069
								c-0.93,0.79-1.795,1.58-2.599,2.369C18.299,41.183,15.14,59.341,24.387,79.862c5.274,11.924,14.273,20.661,26.999,26.215
								c10.421,4.369,21.458,5.427,33.113,3.172l-0.439,1.242c-2.051,1.72-4.013,3.98-5.885,6.784
								c-1.147,1.706-2.165,3.815-3.058,6.325c-13.769-1.72-26.463-6.802-38.08-15.248c-13.49-9.529-22.145-22.267-25.967-38.215
								c-4.076-15.872-1.522-30.374,7.661-43.507c9.274-13.108,21.14-18.42,35.597-15.936c7.286,1.363,12.77,3.917,16.451,7.663
								c3.681,3.758,5.579,8.738,5.694,14.942C76.642,39.501,75.916,44.361,74.298,47.875z"/>
							<path fill="#FFFFFF" d="M80.202,130.725c3.885-3.745,9.917-4.956,18.095-3.63c8.178,1.35,14.885,8.057,20.121,20.121
								c-0.675,3.133-0.675,6.375,0,9.725c0.179,1.465,0.701,3.198,1.568,5.198c1.795,4.472,3.72,9.897,5.77,16.28
								c1.795,5.069,2.509,10.496,2.14,16.28c-0.433,5.375-2.503,10.534-6.209,15.477c-3.503,4.713-7.343,10.89-11.522,18.534
								c5.631-2.713,12.069-3.847,19.317-3.401c3.491,0.229,6.421,0.815,8.789,1.757c2.344,0.931,4.09,2.191,5.236,3.784
								c2.23,3.133,0.606,4.866-4.872,5.198l-2.924,0.343c-0.23,0-0.586,0.02-1.071,0.058c-0.496,0.038-0.859,0.058-1.089,0.058
								c-1.35,0.075-3.362,0.171-6.038,0.287c-2.879,0.113-4.974,0.209-6.286,0.287c-5.796,0.114-11.255,0.751-16.375,1.911
								c-2.968,0.726-5.891,1.019-8.77,0.879c-2.816-0.14-5.656-0.694-8.522-1.661c0.166-1.962,0.643-3.585,1.432-4.873
								c0.777-1.26,1.879-2.236,3.305-2.924c2.738-1.427,4.472-2.675,5.198-3.746c3.771-6.024,6.408-10.356,7.91-12.992
								c1.427-2.408,1.81-6.025,1.147-10.853c-0.573-4.904-2.834-9.949-6.783-15.133c-1.286-1.835-3.095-4.172-5.427-7.013
								c-0.598-0.867-1.343-1.86-2.236-2.98c-0.955-1.172-1.643-2.025-2.064-2.561c-0.114-0.051-0.179-0.089-0.191-0.114
								c-0.025-0.013-0.038-0.051-0.038-0.114c-5.375-7.605-9.707-15.966-12.993-25.088c0-0.293-0.153-0.746-0.459-1.356
								c-0.598-1.975-0.897-3.476-0.897-4.51v-3.955C75.934,136.528,77.515,133.439,80.202,130.725z"/>
							<path fill="#FFFFFF" d="M76.819,149.814c3.287,9.121,7.618,17.484,12.993,25.088c0,0.064,0.013,0.102,0.038,0.114
								c0.012,0.025,0.076,0.064,0.191,0.114c0.42,0.534,1.108,1.388,2.064,2.561c0.892,1.121,1.636,2.114,2.236,2.98
								c-2.051,3.02-4.311,5.541-6.783,7.566c-4.089,3.63-9.178,5.784-15.266,6.459c-5.554,0.942-12.637,2.599-21.248,4.968
								c8.458,6.675,13.095,12.133,13.91,16.375c0.815,4.319,0.624,7.561-0.573,9.726c-1.019,2.051-1.924,3.599-2.713,4.643
								c-0.56,0.561-1.465,0.746-2.713,0.555c-0.56-0.141-1.082-0.255-1.567-0.344c-1.096-0.343-1.987-0.814-2.675-1.414
								c-0.713-0.624-1.178-1.356-1.394-2.198c-0.446-2.178-1.503-5.866-3.172-11.063c-1.797-5.846-5.185-10.184-10.165-13.012
								c-4.904-2.93-8.75-7.069-11.541-12.421c2.982-2.624,5.924-3.383,8.828-2.274c2.598,0.943,4.668,1.287,6.209,1.032
								c1.605-0.358,6.541-1.528,14.808-3.517c2.853-0.701,5.713-2.993,8.579-6.879c3.058-3.86,4.981-8.987,5.77-15.382
								c1.032-6.687,1.713-12.037,2.044-16.05c0.076-1.057,0.184-1.885,0.325-2.483c0.484,1.668,0.975,3.216,1.472,4.643
								c0.064,0,0.134,0.02,0.21,0.058C76.775,149.712,76.819,149.763,76.819,149.814z"/>
							<path fill="#FFFFFF" d="M231.99,97.039c1.874,2.407,2.402,5.198,1.587,8.369c0,0.089-0.026,0.191-0.077,0.305
								c-0.088,0.204-0.14,0.325-0.153,0.363c-0.586,0.191-0.961,0.343-1.127,0.459c-0.013,0.025-0.064,0.063-0.154,0.114
								c-0.05,0.038-0.076,0.076-0.076,0.114c-0.153,0-0.305,0.038-0.458,0.114l-0.325,0.343l-0.23,0.095l-1.701,0.917
								c-1.147-0.866-2.344-1.394-3.592-1.586c-1.299-0.204-2.701-0.051-4.204,0.459l0.343-0.343
								c-2.712,0.114-5.012-0.714-6.897-2.484c-0.114-0.344-0.267-0.612-0.459-0.802c0.343-1.593,0.948-2.866,1.815-3.821
								c0.867-0.968,2.032-1.649,3.497-2.044c0.879-0.204,1.897-0.128,3.058,0.229c2.024,0.802,4.432,1.592,7.222,2.369
								C231.144,99.396,231.787,98.339,231.99,97.039z"/>
							<path fill="#FFFFFF" d="M231.99,106.765c0.038,0.038,0.076,0.114,0.114,0.229c0.038,0.114,0.076,0.191,0.114,0.229
								c0.88,1.987,0.917,3.905,0.114,5.752c-0.23,0.305-0.421,0.535-0.573,0.688c-0.114,0.038-0.261,0.114-0.439,0.229
								c-0.191,0.101-0.343,0.171-0.458,0.209l-0.802,0.229l-1.568-0.898c-0.128,0.064-0.356,0.249-0.688,0.554
								c-1.668,1.21-3.478,1.815-5.427,1.815c-0.446-0.076-0.784-0.114-1.013-0.114c-0.23,0-0.421-0.038-0.573-0.114
								c-0.777-0.128-1.376-0.35-1.795-0.668c-0.305-0.383-0.535-0.688-0.688-0.917c-0.433-1.121-0.433-2.248,0-3.382v-0.343
								c0.662-1.21,1.757-2.338,3.287-3.383v0.114l-0.114,0.114c1.503-0.51,2.904-0.663,4.204-0.459
								c1.248,0.191,2.445,0.719,3.592,1.586l1.701-0.917l0.23-0.095l0.325-0.343L231.99,106.765z"/>
							<path fill="#FFFFFF" d="M228.494,113.434l1.568,0.898l0.802-0.229c1.835,0.37,3.305,1.051,4.414,2.044l1.013,1.013
								c1.273,1.745,1.911,3.706,1.911,5.885c-0.128,1.555-0.656,2.904-1.586,4.051l-0.554,0.459l-0.459,0.229l-0.325,0.229
								c-0.23,0-0.65,0.076-1.261,0.23c-1.949,0-3.942-0.568-5.98-1.701l-0.688-0.344c-1.923-1.158-3.388-2.286-4.394-3.382
								c-0.675-0.905-1.847-2.115-3.516-3.631c-0.038-0.089-0.134-0.172-0.288-0.249c-0.178-0.089-0.305-0.153-0.383-0.191
								l-1.585-0.458h-0.343c-0.37-0.204-0.644-0.356-0.822-0.459c-0.318-0.179-0.567-0.363-0.746-0.554l-0.114-0.114
								c-0.038,0.268-0.101,0.739-0.191,1.414c-0.089,0.675-0.179,1.261-0.268,1.758c0.076,0.076,0.114,0.222,0.114,0.439
								c0.076,0.229,0.114,0.497,0.114,0.802v0.114c0,0.063,0.02,0.197,0.058,0.401c0.038,0.204,0.058,0.37,0.058,0.496l0.113,0.23
								l0.668,3.955l0.114,0.114c0,0.37,0.038,0.63,0.114,0.783c0.242,1.097,0.656,1.924,1.242,2.484
								c0.79,0.701,1.503,1.114,2.141,1.242l0.572,0.114c0.229,0,0.568-0.038,1.013-0.114c0.751-0.153,1.243-0.299,1.472-0.438
								c0.23-0.154,0.497-0.305,0.802-0.459c0.395-0.064,0.612,0.216,0.65,0.84c0.051,0.624-0.095,1.547-0.438,2.77
								c-0.102,1.606-0.892,2.471-2.37,2.599c0-0.051-0.02-0.083-0.058-0.096l-0.058-0.02v0.114
								c-3.464,0.586-7.267-1.86-11.407-7.337c-1.452-2.127-2.356-4.65-2.712-7.567c-0.114-2.712,0.713-5.127,2.483-7.242
								c2.14-1.606,3.872-2.471,5.198-2.599c0.612-0.84,1.192-1.306,1.739-1.395c0.535-0.076,1.089,0.197,1.662,0.822l0.325-0.783
								c-0.433,1.134-0.433,2.261,0,3.382c0.153,0.229,0.383,0.535,0.688,0.917c0.421,0.318,1.019,0.542,1.795,0.668
								c0.154,0.076,0.343,0.114,0.573,0.114c0.229,0,0.567,0.038,1.013,0.114c1.948,0,3.758-0.605,5.427-1.815
								C228.137,113.682,228.366,113.497,228.494,113.434z"/>
							
								<radialGradient id="SVGID_1_" cx="4827.771" cy="-4438.4243" r="0.1767" gradientTransform="matrix(0.6474 0 0 -0.6474 -2903.9448 -2766.7073)" gradientUnits="userSpaceOnUse">
								<stop  offset="0" style="stop-color:#C0A48C"/>
								<stop  offset="0.3176" style="stop-color:#B49B8B"/>
								<stop  offset="1" style="stop-color:#A79088"/>
							</radialGradient>
							<path fill="url(#SVGID_1_)" d="M221.711,106.88c0-0.051,0.007-0.083,0.02-0.096c0.013-0.012,0.045-0.019,0.096-0.019
								L221.711,106.88l-0.113,0.114v-0.114H221.711z"/>
							<path fill="#FFFFFF" d="M194.025,104.166c1.019,1.924,2.598,2.828,4.739,2.713c0.65,0,1.363-0.114,2.14-0.343
								c-0.192,1.669-0.529,3.216-1.013,4.643c-0.828,0.064-2.032,0.096-3.612,0.096c-1.555,0-2.911-0.522-4.068-1.568
								c-0.447-0.446-1.014-1.273-1.702-2.483c-1.21-2.917-1.548-5.592-1.013-8.026c0.472-3.044,2.318-4.891,5.541-5.541
								c0.93-0.114,1.873-0.114,2.828,0c1.783,0.318,3.179,1.407,4.185,3.267c-0.421,1.134-0.688,2.453-0.802,3.955
								c-2.102-2.675-4.287-3.165-6.554-1.472c-0.689,0.586-1.096,1.28-1.223,2.083
								C193.329,102.333,193.515,103.224,194.025,104.166z"/>
							<g>
								<path fill="#FFFFFF" d="M194.025,104.166c-0.51-0.943-0.695-1.834-0.555-2.675c0.128-0.802,0.534-1.497,1.223-2.083
									c2.266-1.694,4.452-1.203,6.554,1.472c0.114-1.502,0.383-2.821,0.802-3.955c-1.006-1.86-2.402-2.949-4.185-3.267
									c1.439-2.866,4.038-5.128,7.796-6.784c2.891-1.197,5.535-1.873,7.93-2.025c2.432-0.153,4.688,0.223,6.763,1.127
									c2.153,0.917,4.069,2.044,5.752,3.383c0.624,0.624,1.038,1.114,1.242,1.472c0.624,0.497,1.114,1.064,1.472,1.701
									c0.076,0,0.114,0.032,0.114,0.096c0.025,0.064,0.076,0.191,0.154,0.383c0.05,0.114,0.075,0.217,0.075,0.305
									c0.535,0.751,1.147,1.624,1.835,2.617c0.459,0.637,0.79,1.006,0.993,1.109c-0.204,1.299-0.846,2.357-1.93,3.172
									c-2.79-0.777-5.198-1.568-7.222-2.369c-1.16-0.356-2.179-0.433-3.058-0.229c-1.465,0.395-2.63,1.076-3.497,2.044
									c-0.867,0.955-1.472,2.228-1.815,3.821c0.192,0.191,0.343,0.458,0.459,0.802c1.877,1.762,4.162,2.59,6.859,2.484
									c-0.028,0.003-0.048,0.01-0.058,0.019c-0.013,0.013-0.02,0.045-0.02,0.096h-0.113c-1.528,1.044-2.624,2.172-3.287,3.383
									v0.343l-0.325,0.783c-0.573-0.625-1.127-0.898-1.662-0.822c-0.547,0.089-1.127,0.555-1.739,1.395
									c-1.326,0.128-3.058,0.993-5.198,2.599c-1.77,2.114-2.599,4.528-2.483,7.242c0.356,2.917,1.26,5.44,2.712,7.567
									c-0.28-0.141-1.522,0.948-3.726,3.267c-1.553,1.465-3.363,4.14-5.427,8.024c-0.293,0.969-0.86,2.178-1.701,3.63
									c-0.038,0.038-0.076,0.114-0.114,0.23c-0.051,0.153-0.089,0.261-0.114,0.325h-0.113c-0.625-0.254-2.319-1.757-5.083-4.51
									l-1.126-1.147c-0.23-2.942-1.096-5.528-2.6-7.757c-1.502-2.229-3.611-4.051-6.324-5.465
									c-0.23-0.089-0.408-0.159-0.535-0.209c-0.216-0.076-0.414-0.114-0.592-0.114c-0.994-2.344-1.599-4.567-1.815-6.668
									c-0.255-0.038-0.593-0.114-1.014-0.229c-0.459-0.128-0.763-0.204-0.917-0.229c-0.28-0.154-0.504-0.229-0.668-0.229
									c4.497-0.433,8.452-2.35,11.865-5.752c0.713-0.56,1.58-1.503,2.6-2.828c1.158,1.044,2.515,1.568,4.068,1.568
									c1.58,0,2.784-0.032,3.612-0.096c0.483-1.427,0.821-2.974,1.013-4.643v-1.931c0-0.827,0.076-1.994,0.229-3.497
									c-0.713,1.248-1.503,3.172-2.369,5.77C196.622,106.994,195.044,106.089,194.025,104.166z"/>
							</g>
							<path fill="#FFFFFF" d="M200.903,104.606v1.931c-0.777,0.229-1.49,0.343-2.14,0.343c0.866-2.599,1.656-4.522,2.369-5.77
								C200.98,102.612,200.903,103.778,200.903,104.606z"/>
							
								<radialGradient id="SVGID_2_" cx="4690.2271" cy="-4480.5659" r="1413.017" gradientTransform="matrix(0.6474 0 0 -0.6474 -2903.9448 -2766.7073)" gradientUnits="userSpaceOnUse">
								<stop  offset="0" style="stop-color:#CFAF8C"/>
								<stop  offset="0.1686" style="stop-color:#B49B8B"/>
								<stop  offset="1" style="stop-color:#A79088"/>
							</radialGradient>
							<path fill="url(#SVGID_2_)" d="M215.157,117.16l0.114,0.114c-0.154,0.98-0.305,2.146-0.459,3.496
								c0-0.217-0.038-0.363-0.114-0.439c0.089-0.497,0.179-1.084,0.268-1.758C215.055,117.898,215.119,117.427,215.157,117.16z"/>
							<path fill="#373535" d="M216.952,118.287c0.152,0,0.228,0.038,0.23,0.114v-0.114l1.585,0.458
								c0.076,0.038,0.205,0.102,0.383,0.191c0.154,0.076,0.25,0.159,0.288,0.249v0.114c-0.854,2.216-1.23,4.14-1.127,5.771
								c0,0.075,0.038,0.153,0.113,0.229c0.433,0.28,0.88,0.643,1.339,1.089c0.254,0.254,0.637,0.643,1.147,1.165h-0.114
								c1.388,0.98,2.223,1.962,2.503,2.942c-0.305,0.154-0.572,0.305-0.802,0.459c-0.229,0.14-0.719,0.287-1.472,0.438
								c0.332-0.153,0.401-0.465,0.21-0.935c-0.192-0.446-0.637-1.076-1.339-1.891c0.114-0.331,0.128-0.675,0.038-1.031
								c-0.101-0.356-0.267-0.65-0.496-0.88c-0.128-0.153-0.37-0.421-0.726-0.802c-0.23-0.242-0.363-0.426-0.401-0.554
								c-0.433-0.688-1.185-1.331-2.254-1.931c-0.114-0.113-0.414-0.299-0.898-0.554V122.7c0-0.051-0.007-0.083-0.02-0.096
								c0-0.013-0.032-0.02-0.095-0.02c0-0.126-0.02-0.293-0.058-0.496c-0.038-0.205-0.058-0.339-0.058-0.401v-0.114
								c0-0.305-0.038-0.573-0.114-0.802c0.154-1.35,0.305-2.516,0.459-3.496c0.179,0.191,0.427,0.375,0.746,0.554
								c0.178,0.102,0.452,0.255,0.822,0.459L216.952,118.287L216.952,118.287z"/>
							<polygon fill="#ED8471" points="215.157,122.815 215.042,122.585 215.157,122.701 							"/>
							<path fill="#FFFFFF" d="M216.055,123.369c1.069,0.6,1.822,1.243,2.254,1.931c0.038,0.128,0.171,0.312,0.401,0.554
								c0.356,0.383,0.598,0.651,0.726,0.802c0.229,0.23,0.395,0.522,0.496,0.88c0.089,0.356,0.076,0.701-0.038,1.031
								c0.702,0.815,1.147,1.446,1.339,1.891c0.191,0.471,0.121,0.784-0.21,0.935c-0.445,0.076-0.784,0.114-1.013,0.114
								l-0.572-0.114c-0.638-0.126-1.351-0.541-2.141-1.242c-0.585-0.561-1-1.388-1.242-2.484c-0.076-0.153-0.114-0.413-0.114-0.783
								l-0.114-0.114l-0.668-3.955C215.641,123.069,215.941,123.255,216.055,123.369z"/>
							
								<radialGradient id="SVGID_3_" cx="4689.2998" cy="-4480.7822" r="1422.5674" gradientTransform="matrix(0.6474 0 0 -0.6474 -2903.9448 -2766.7073)" gradientUnits="userSpaceOnUse">
								<stop  offset="0" style="stop-color:#C0A48C"/>
								<stop  offset="0.0667" style="stop-color:#B49B8B"/>
								<stop  offset="0.1961" style="stop-color:#A79088"/>
							</radialGradient>
							<path fill="url(#SVGID_3_)" d="M221.137,136.706h-0.114v-0.114l0.058,0.02C221.119,136.623,221.137,136.655,221.137,136.706z
								"/>
							<path fill="#FFFFFF" d="M218.31,213.231c1.568-0.113,2.394,0.561,2.483,2.025c-0.701-0.205-1.866-0.013-3.497,0.573
								c-0.126,0.075-0.318,0.165-0.572,0.267c-0.318,0.128-0.542,0.222-0.668,0.287l-0.23-2.483
								C216.794,213.569,217.623,213.345,218.31,213.231z"/>
							<path fill="#FFFFFF" d="M218.31,213.231c-0.688,0.114-1.516,0.339-2.484,0.669c-2.725,1.109-5.324,1.446-7.796,1.013
								c-0.917-0.777-1.668-1.376-2.253-1.795c2.586,0.318,5.26,0.013,8.024-0.917c1.121-0.332,2.044-0.414,2.77-0.25
								C217.284,212.117,217.864,212.544,218.31,213.231z"/>
							<path fill="#FFFFFF" d="M216.055,216.383c0.126-0.064,0.35-0.159,0.668-0.287c0.254-0.102,0.446-0.192,0.572-0.267
								c1.631-0.586,2.796-0.778,3.497-0.573c1.249,0.23,1.815,1.21,1.701,2.942c-0.751,0.535-1.955,1.21-3.611,2.025
								c-1.783,0.84-3.63,1.109-5.541,0.802c-1.885-0.331-4.745,0.007-8.579,1.013c2.128-1.096,3.58-2.064,4.357-2.904
								c0.801-0.88,0.93-1.682,0.383-2.408c0.968,0.281,2.019,0.383,3.153,0.305C213.673,216.97,214.807,216.753,216.055,216.383z"
								/>
							<path fill="#FFFFFF" d="M212.654,217.033c-1.134,0.076-2.185-0.024-3.153-0.305c-0.114-0.356-0.306-0.617-0.573-0.784
								c-0.076-0.165-0.222-0.35-0.439-0.554c-0.242-0.229-0.395-0.388-0.459-0.477c2.472,0.433,5.07,0.096,7.796-1.013l0.23,2.483
								C214.807,216.753,213.673,216.97,212.654,217.033z"/>
							<path fill="#FFFFFF" d="M196.165,223.855c-2.216,1.503-4.593,2.254-7.127,2.254c-2.114-0.343-2.904-1.401-2.369-3.172
								c0.713-1.859,1.204-2.872,1.471-3.037c0.154-0.102,0.281-0.299,0.383-0.593c0.051-0.14,0.154-0.509,0.306-1.109v-0.343
								c0.063-0.076,0.095-0.261,0.095-0.554v-1.147c0.114-1.096,0.267-1.885,0.459-2.37c0.356-0.802,1.866-0.688,4.528,0.343
								c1.286,0.497,2.298,1.102,3.038,1.815c0.725,0.702,1.14,1.452,1.242,2.254v0.229c0.305,1.326,0.237,2.567-0.209,3.726
								C197.458,222.778,196.852,223.345,196.165,223.855z"/>
							
								<radialGradient id="SVGID_4_" cx="4722.686" cy="-4549.2388" r="5730.2783" gradientTransform="matrix(0.6474 0 0 -0.6474 -2903.9448 -2766.7073)" gradientUnits="userSpaceOnUse">
								<stop  offset="0" style="stop-color:#CFAF8C"/>
								<stop  offset="0.1686" style="stop-color:#B49B8B"/>
								<stop  offset="1" style="stop-color:#A79088"/>
							</radialGradient>
							<polygon fill="url(#SVGID_4_)" points="236.061,127.554 236.614,127.095 236.519,127.325 							"/>
							
								<radialGradient id="SVGID_5_" cx="-5283.2188" cy="5459.6675" r="14.6479" gradientTransform="matrix(-0.6469 -0.0251 0.0379 0.838 -3380.3264 -4522.2344)" gradientUnits="userSpaceOnUse">
								<stop  offset="0.0235" style="stop-color:#CFAF8C"/>
								<stop  offset="1" style="stop-color:#A79088"/>
							</radialGradient>
							<path fill="url(#SVGID_5_)" d="M236.519,182.831l-0.113,0.209v-0.113c-0.075-0.063-0.113-0.129-0.114-0.202
								C236.293,182.796,236.37,182.831,236.519,182.831z"/>
							<path fill="#FFFFFF" d="M237.761,183.386c1.414,0.383,2.701,0.612,3.859,0.688c1.351,0.101,2.662,0.025,3.936-0.23
								c1.376-0.113,2.465,0.045,3.267,0.477c0.815,0.446,1.42,1.23,1.815,2.35c-0.572,0-1.025,0.02-1.356,0.058
								c-0.561,0.063-1.089,0.191-1.586,0.383c-2.445,0.394-4.63,0.394-6.554,0c-0.038-0.039-0.089-0.058-0.154-0.058
								c-0.051,0-0.076-0.021-0.076-0.058c-1.12-0.459-1.911-0.758-2.369-0.898c-0.701-1.185-1.376-2.165-2.025-2.942
								c0-0.051-0.007-0.083-0.02-0.096c0-0.012-0.032-0.02-0.095-0.02l0.113-0.209c0.141,0.141,0.287,0.209,0.439,0.209l0.058,0.02
								c0.038,0.013,0.058,0.045,0.058,0.096l0.534,0.134C237.658,183.302,237.709,183.335,237.761,183.386z"/>
							<path fill="#FFFFFF" d="M240.131,189.271c0.293,0.216,0.821,0.477,1.585,0.783c0.141,0,0.363,0.076,0.668,0.23
								c1.528,0.446,3.262,0.56,5.198,0.343c0.192-0.038,0.477-0.114,0.86-0.23c0.37-0.113,0.65-0.191,0.84-0.229
								c1.706-0.459,3.063-0.459,4.069,0c1.286,0.815,1.815,2.471,1.585,4.969c-1.057,0.585-2.566,1.229-4.527,1.93
								c-1.885,0.727-4.031,0.613-6.439-0.343c-2.191-0.98-5.394-1.356-9.611-1.127h-0.229c2.496-0.904,4.235-1.873,5.216-2.904
								C240.315,191.658,240.575,190.519,240.131,189.271z"/>
							<path fill="#FFFFFF" d="M249.283,190.168c-0.192,0.038-0.472,0.114-0.84,0.229c-0.383,0.114-0.668,0.192-0.86,0.23
								l0.114-3.516c0.497-0.192,1.025-0.319,1.586-0.383c0.331-0.038,0.784-0.058,1.356-0.058c1.809,0.113,2.713,1.28,2.713,3.496
								C252.346,189.709,250.989,189.709,249.283,190.168z"/>
							<path fill="#FFFFFF" d="M241.143,187.112c1.924,0.394,4.109,0.394,6.554,0l-0.114,3.516
								c-1.935,0.216-3.668,0.102-5.198-0.343c-0.305-0.154-0.528-0.23-0.668-0.23c-0.764-0.305-1.293-0.567-1.585-0.783
								c-0.23-0.689-0.383-1.14-0.459-1.357c-0.141-0.267-0.325-0.585-0.555-0.955c-0.331-0.484-0.522-0.771-0.572-0.86
								c0.458,0.141,1.249,0.439,2.369,0.898c0,0.037,0.025,0.058,0.076,0.058C241.054,187.055,241.105,187.072,241.143,187.112z"/>
							<path fill="#FFFFFF" d="M175.815,159.54c0.904,0.751,2.114,1.847,3.63,3.287c0,0.459-0.076,0.981-0.229,1.568
								c-0.892,4.649,0.464,9.814,4.069,15.496c3.605,5.631,6.203,11.732,7.794,18.304c1.147,5.032,2.803,8.459,4.969,10.281
								c0.331,0.242,1.013,0.656,2.044,1.242c3.275,0.918,5.835,2.052,7.682,3.401c0.585,0.421,1.338,1.019,2.253,1.795
								c0.064,0.089,0.217,0.25,0.459,0.477c0.217,0.204,0.363,0.388,0.439,0.554c0.267,0.166,0.459,0.427,0.573,0.784
								c0.547,0.726,0.42,1.528-0.383,2.408c-0.777,0.84-2.229,1.809-4.357,2.904v-0.23c-0.764,0.23-1.897,0.421-3.4,0.573
								c-0.751,0-1.879-0.076-3.383-0.23c0.446-1.158,0.516-2.4,0.209-3.726V218.2c-0.101-0.802-0.517-1.553-1.242-2.254
								c-0.74-0.713-1.752-1.318-3.038-1.815c-2.662-1.031-4.172-1.147-4.528-0.343c-0.192,0.484-0.343,1.274-0.459,2.37v1.147
								c-0.064-0.154-0.171-0.344-0.325-0.573c-0.229-0.79-1.661-2.898-4.298-6.325c-0.242-0.242-0.51-0.56-0.802-0.955
								c-0.37-0.497-0.668-0.898-0.898-1.204c-3.503-4.356-7.043-9.325-10.623-14.904c-3.414-5.452-5.445-10.203-6.095-14.253
								c-0.484-3.452-2.592-9.4-6.325-17.845C165.109,161.482,170.528,160.914,175.815,159.54z"/>
							<path fill="#FFFFFF" d="M178.414,118.516c0.154,0.025,0.458,0.101,0.917,0.229c0.421,0.114,0.758,0.191,1.014,0.229
								c0.216,2.102,0.821,4.325,1.815,6.668c-1.746-0.585-4.383-1.038-7.911-1.356c-4.382-0.472-8.305,1.184-11.77,4.968
								c-3.478,3.822-4.192,8.191-2.14,13.108c2.14,4.98,4.209,8.636,6.209,10.968c0.701,0.242,1.432,0.572,2.198,0.993
								c0.331,0.192,1.031,0.613,2.102,1.261l2.141,1.356h-0.096l2.924,2.599c-5.287,1.376-10.706,1.943-16.26,1.702
								c-2.637-0.141-4.676-0.331-6.115-0.573c-7.948-1.516-14.164-2.605-18.648-3.267c-4.025-0.739-9.484-0.892-16.375-0.459
								c-0.675-3.35-0.675-6.592,0-9.725c-5.236-12.063-11.942-18.771-20.121-20.121c-8.178-1.326-14.21-0.113-18.095,3.63
								c-2.687,2.713-4.268,5.803-4.739,9.267v3.955c0,1.032,0.299,2.535,0.897,4.51c0.305,0.61,0.458,1.063,0.459,1.356
								c-0.001-0.051-0.046-0.102-0.134-0.153c-0.076-0.038-0.146-0.058-0.21-0.058c-0.497-1.427-0.988-2.975-1.472-4.643
								c-2.216-7.796-2.178-14.917,0.114-21.362c0.892-2.509,1.911-4.618,3.058-6.325c1.873-2.803,3.834-5.064,5.885-6.784
								c2.496-1.924,5.165-3.191,8.006-3.802c2.879-0.625,6.007-0.598,9.382,0.076c10.152,2.254,18.896,4.553,26.234,6.897
								c7.464,2.521,19.445,3.726,35.94,3.612c3.02-0.089,5.994-0.051,8.924,0.114c0.726,0.05,1.592,0.172,2.599,0.363
								c0.585,0.114,1.452,0.293,2.599,0.535h-0.086C177.893,118.292,178.145,118.369,178.414,118.516z"/>
							<path fill="#FFFFFF" d="M162.479,129.254c3.466-3.784,7.388-5.439,11.77-4.968c3.528,0.318,6.165,0.771,7.911,1.356
								c0.178,0,0.376,0.038,0.592,0.114c0.128,0.05,0.305,0.12,0.535,0.209c2.712,1.414,4.822,3.236,6.324,5.465
								c1.504,2.229,2.37,4.815,2.6,7.757c0.075,0.076,0.113,0.192,0.113,0.343c0.114,2.433,0.643,4.695,1.586,6.784
								c0.076,0.229,0.184,0.491,0.325,0.784c0.101,0.204,0.446,0.733,1.031,1.586c0.598,0.827,1.879,2.452,3.841,4.872l0.113,0.096
								c0.408,0.535,1.313,2.082,2.713,4.644c0.472,0.955,1.414,2.012,2.828,3.171c0.433,0.433,1.032,0.847,1.795,1.243
								c2.254,1.286,4.255,3.057,6,5.311c0.28,0.433,0.918,1.299,1.911,2.599c1.172,1.528,2.153,2.846,2.942,3.955
								c2.803,3.491,4.382,5.37,4.739,5.637c1.465,1.668,2.859,2.688,4.185,3.058c1.044,0.254,1.835,0.293,2.37,0.114
								c2.941-0.51,5.548-0.586,7.814-0.23c0.651,0.777,1.326,1.757,2.025,2.942c0.051,0.089,0.242,0.376,0.572,0.86
								c0.23,0.37,0.414,0.688,0.555,0.955c0.076,0.217,0.229,0.668,0.459,1.357c0.445,1.248,0.184,2.387-0.784,3.42
								c-0.981,1.031-2.72,2-5.216,2.904h0.114c-2.511,0.484-4.388,0.638-5.637,0.459c-1.452-0.229-3.038-0.796-4.757-1.701
								c-0.114-0.23-0.299-0.343-0.555-0.343c-0.458-0.459-2.682-1.74-6.668-3.841c-0.331-0.089-0.733-0.249-1.204-0.477
								c-0.56-0.28-0.993-0.496-1.298-0.65c-4.904-2.294-10.247-5.198-16.031-8.712c-5.349-3.35-9.197-6.7-11.54-10.051
								c-1.121-1.593-3.491-4.076-7.109-7.452c-1.516-1.439-2.726-2.535-3.63-3.287l-2.924-2.599h0.096l-2.141-1.356
								c-1.069-0.65-1.77-1.069-2.102-1.261c-0.764-0.421-1.497-0.751-2.198-0.993c-2-2.332-4.069-5.987-6.209-10.968
								C158.287,137.445,159,133.076,162.479,129.254z"/>
							<path fill="#FFFFFF" d="M193.336,140.336c2.765,2.751,4.459,4.255,5.083,4.51c-0.306,0.242-0.682,0.733-1.127,1.472
								c-0.217,0.318-0.542,0.713-0.976,1.185c-0.688,0.777-1.038,1.172-1.051,1.185c-0.585-0.854-0.931-1.383-1.031-1.586
								c-0.141-0.293-0.249-0.555-0.325-0.784c-0.943-2.089-1.472-4.35-1.586-6.784c0-0.143-0.035-0.251-0.106-0.325
								L193.336,140.336z"/>
							
								<path fill="none" stroke="#373535" stroke-width="1.6352" stroke-linecap="round" stroke-linejoin="round" stroke-miterlimit="3" d="
								M250.639,186.672c1.809,0.113,2.713,1.28,2.713,3.496"/>
							
								<path fill="none" stroke="#373535" stroke-width="1.6352" stroke-linecap="round" stroke-linejoin="round" stroke-miterlimit="3" d="
								M177.746,118.287c-1.147-0.242-2.013-0.421-2.599-0.535c-1.007-0.191-1.873-0.313-2.599-0.363
								c-2.93-0.166-5.904-0.204-8.924-0.114c-16.496,0.114-28.476-1.09-35.941-3.612c-7.338-2.344-16.082-4.643-26.234-6.897
								c-3.376-0.676-6.503-0.701-9.382-0.076c-2.84,0.612-5.51,1.878-8.006,3.802"/>
							
								<path fill="none" stroke="#373535" stroke-width="1.6352" stroke-linecap="round" stroke-linejoin="round" stroke-miterlimit="3" d="
								M75.119,123.599c0.892-2.509,1.911-4.618,3.058-6.325c1.873-2.803,3.834-5.064,5.885-6.784"/>
							
								<path fill="none" stroke="#373535" stroke-width="1.6352" stroke-linecap="round" stroke-linejoin="round" stroke-miterlimit="3" d="
								M237.608,183.29c0.051,0.013,0.102,0.045,0.154,0.096c1.414,0.383,2.701,0.612,3.859,0.688
								c1.351,0.101,2.662,0.025,3.936-0.23c1.376-0.113,2.465,0.045,3.267,0.477c0.815,0.446,1.42,1.23,1.815,2.35"/>
							
								<path fill="none" stroke="#373535" stroke-width="1.6352" stroke-linecap="round" stroke-linejoin="round" stroke-miterlimit="3" d="
								M253.353,190.168c-1.007-0.459-2.363-0.459-4.069,0c-0.192,0.038-0.472,0.114-0.84,0.229c-0.383,0.114-0.668,0.192-0.86,0.23
								c-1.935,0.216-3.668,0.102-5.198-0.343c-0.305-0.154-0.528-0.23-0.668-0.23c-0.764-0.305-1.293-0.567-1.585-0.783"/>
							
								<path fill="none" stroke="#373535" stroke-width="1.6352" stroke-linecap="round" stroke-linejoin="round" stroke-miterlimit="3" d="
								M238.545,186.098c0.458,0.141,1.249,0.439,2.369,0.898c0,0.037,0.025,0.058,0.076,0.058c0.064,0,0.114,0.019,0.154,0.058
								c1.924,0.394,4.109,0.394,6.554,0c0.497-0.192,1.025-0.319,1.586-0.383c0.331-0.038,0.784-0.058,1.356-0.058"/>
							
								<path fill="none" stroke="#373535" stroke-width="1.6352" stroke-linecap="round" stroke-linejoin="round" stroke-miterlimit="3" d="
								M84.062,110.49l0.439-1.242c-11.656,2.254-22.693,1.198-33.113-3.172c-12.725-5.554-21.725-14.292-26.999-26.215
								c-9.248-20.521-6.088-38.679,9.478-54.475c0.802-0.79,1.669-1.58,2.599-2.369c5.362-4.79,11.356-6.146,17.981-4.069
								c3.312,0.79,6.738,2.338,10.28,4.643c0.968,0.943,1.611,1.541,1.93,1.795c1.681,1.465,2.847,3.466,3.497,6
								c0.79,2.521,1.013,5.158,0.669,7.91c-0.191,2.446-1.127,4.706-2.809,6.783c-1.516,1.732-3.815,2.484-6.897,2.254
								c-3.02-0.229-5.089-1.847-6.21-4.853c-1.414-0.789-2.465-0.95-3.153-0.477c-0.688,0.471-1.031,1.605-1.031,3.401
								c0.905,3.299,2.427,5.662,4.567,7.088c2.165,1.439,4.936,1.904,8.312,1.395c1.325-0.128,2.414-0.318,3.267-0.573
								c3.35-0.79,5.828-2.936,7.433-6.439c1.618-3.516,2.344-8.375,2.178-14.578c-0.114-6.204-2.012-11.185-5.694-14.942
								c-3.681-3.746-9.165-6.299-16.451-7.663C39.876,8.207,28.01,13.519,18.736,26.627C9.552,39.759,6.998,54.262,11.075,70.134
								c3.821,15.948,12.477,28.686,25.967,38.215c11.618,8.445,24.311,13.527,38.08,15.248"/>
							
								<path fill="none" stroke="#373535" stroke-width="1.6352" stroke-linecap="round" stroke-linejoin="round" stroke-miterlimit="3" d="
								M76.819,149.814c0-0.293-0.153-0.746-0.459-1.356c-0.598-1.975-0.897-3.476-0.897-4.51"/>
							
								<path fill="none" stroke="#373535" stroke-width="1.6352" stroke-linecap="round" stroke-linejoin="round" stroke-miterlimit="3" d="
								M75.119,123.599c-2.293,6.445-2.331,13.566-0.114,21.362c0.484,1.668,0.975,3.216,1.472,4.643c0.064,0,0.134,0.02,0.21,0.058
								c0.089,0.051,0.134,0.102,0.134,0.153"/>
							
								<path fill="none" stroke="#373535" stroke-width="1.6352" stroke-linecap="round" stroke-linejoin="round" stroke-miterlimit="3" d="
								M135.709,236.389c-0.23,0-0.586,0.02-1.07,0.058c-0.496,0.038-0.859,0.058-1.089,0.058c-1.35,0.075-3.362,0.171-6.038,0.287
								c-2.879,0.113-4.974,0.209-6.286,0.287c-5.796,0.114-11.255,0.751-16.375,1.911c-2.968,0.726-5.891,1.019-8.77,0.879
								c-2.816-0.14-5.656-0.694-8.522-1.661c0.166-1.962,0.643-3.585,1.432-4.873c0.777-1.26,1.879-2.236,3.305-2.924
								c2.738-1.427,4.472-2.675,5.198-3.746c3.771-6.024,6.408-10.356,7.91-12.992c1.427-2.408,1.81-6.025,1.147-10.853
								c-0.573-4.904-2.834-9.949-6.783-15.133c-1.286-1.835-3.095-4.172-5.427-7.013c-0.598-0.867-1.343-1.86-2.236-2.98
								c-0.955-1.172-1.643-2.025-2.064-2.561c-0.114-0.051-0.179-0.089-0.191-0.114c-0.025-0.013-0.038-0.051-0.038-0.114
								c-5.375-7.605-9.707-15.966-12.993-25.088"/>
							
								<path fill="none" stroke="#373535" stroke-width="1.6352" stroke-linecap="round" stroke-linejoin="round" stroke-miterlimit="3" d="
								M118.417,156.941c0.179,1.465,0.701,3.198,1.568,5.198c1.795,4.472,3.72,9.897,5.77,16.28
								c1.795,5.069,2.509,10.496,2.14,16.28c-0.433,5.375-2.503,10.534-6.209,15.477c-3.503,4.713-7.343,10.89-11.522,18.534
								c5.631-2.713,12.069-3.847,19.317-3.401c3.491,0.229,6.421,0.815,8.789,1.757c2.344,0.931,4.09,2.191,5.236,3.784
								c2.23,3.133,0.606,4.866-4.872,5.198l-2.924,0.343"/>
							
								<path fill="none" stroke="#373535" stroke-width="1.6352" stroke-linecap="round" stroke-linejoin="round" stroke-miterlimit="3" d="
								M118.417,156.941c6.891-0.433,12.35-0.28,16.375,0.459c4.484,0.662,10.7,1.751,18.648,3.267
								c1.439,0.243,3.478,0.433,6.115,0.573"/>
							
								<path fill="none" stroke="#373535" stroke-width="1.6352" stroke-linecap="round" stroke-linejoin="round" stroke-miterlimit="3" d="
								M118.417,147.216c-0.675,3.133-0.675,6.375,0,9.725"/>
							
								<path fill="none" stroke="#373535" stroke-width="1.6352" stroke-linecap="round" stroke-linejoin="round" stroke-miterlimit="3" d="
								M127.11,229.492c6.483-1.364,9.725,0.821,9.725,6.554c-0.126,0-0.305,0.045-0.534,0.133c-0.293,0.114-0.491,0.185-0.592,0.21
								"/>
							
								<path fill="none" stroke="#373535" stroke-width="1.6352" stroke-linecap="round" stroke-linejoin="round" stroke-miterlimit="3" d="
								M197.865,93.658c1.439-2.866,4.038-5.128,7.796-6.784c2.891-1.197,5.535-1.873,7.93-2.025
								c2.432-0.153,4.688,0.223,6.763,1.127c2.153,0.917,4.069,2.044,5.752,3.383"/>
							
								<path fill="none" stroke="#373535" stroke-width="1.6352" stroke-linecap="round" stroke-linejoin="round" stroke-miterlimit="3" d="
								M231.99,97.039c-0.204,1.299-0.846,2.357-1.93,3.172c-2.79-0.777-5.198-1.568-7.222-2.369
								c-1.16-0.356-2.179-0.433-3.058-0.229c-1.465,0.395-2.63,1.076-3.497,2.044c-0.867,0.955-1.472,2.228-1.815,3.821
								c0.192,0.191,0.343,0.458,0.459,0.802c1.885,1.77,4.185,2.599,6.897,2.484"/>
							
								<path fill="none" stroke="#373535" stroke-width="1.6352" stroke-linecap="round" stroke-linejoin="round" stroke-miterlimit="3" d="
								M229.163,93.313c0-0.089-0.025-0.191-0.075-0.305c-0.076-0.191-0.128-0.318-0.154-0.383c0-0.064-0.038-0.096-0.114-0.096
								c-0.356-0.637-0.847-1.203-1.472-1.701"/>
							
								<path fill="none" stroke="#373535" stroke-width="1.6352" stroke-linecap="round" stroke-linejoin="round" stroke-miterlimit="3" d="
								M231.99,97.039c-0.204-0.101-0.534-0.471-0.993-1.109c-0.688-0.993-1.298-1.866-1.835-2.617"/>
							
								<path fill="none" stroke="#373535" stroke-width="1.6352" stroke-linecap="round" stroke-linejoin="round" stroke-miterlimit="3" d="
								M230.863,114.102c0.113-0.038,0.267-0.108,0.458-0.209c0.179-0.114,0.325-0.191,0.439-0.229
								c0.154-0.153,0.343-0.383,0.573-0.688c0.801-1.847,0.764-3.764-0.114-5.752c-0.038-0.038-0.076-0.114-0.114-0.229
								c-0.038-0.114-0.076-0.191-0.114-0.229l-0.458,0.114"/>
							
								<path fill="none" stroke="#373535" stroke-width="1.6352" stroke-linecap="round" stroke-linejoin="round" stroke-miterlimit="3" d="
								M221.482,107.109c1.503-0.51,2.904-0.663,4.204-0.459c1.248,0.191,2.445,0.719,3.592,1.586l1.701-0.917l0.23-0.095
								l0.325-0.343"/>
							
								<path fill="none" stroke="#373535" stroke-width="1.6352" stroke-linecap="round" stroke-linejoin="round" stroke-miterlimit="3" d="
								M231.532,106.88c0.153-0.076,0.305-0.114,0.458-0.114c0-0.038,0.026-0.076,0.076-0.114c0.089-0.051,0.141-0.089,0.154-0.114
								c0.166-0.114,0.541-0.268,1.127-0.459c0.013-0.038,0.064-0.159,0.153-0.363c0.051-0.114,0.077-0.217,0.077-0.305
								c0.814-3.172,0.287-5.962-1.587-8.369"/>
							
								<path fill="none" stroke="#373535" stroke-width="1.6352" stroke-linecap="round" stroke-linejoin="round" stroke-miterlimit="3" d="
								M219.438,119.185c1.668,1.516,2.84,2.725,3.516,3.631c1.006,1.096,2.472,2.223,4.394,3.382l0.688,0.344
								c2.039,1.133,4.031,1.701,5.98,1.701c0.613-0.154,1.031-0.23,1.261-0.23l0.325-0.229l0.459-0.229l0.554-0.459
								c0.931-1.147,1.459-2.496,1.586-4.051c0-2.178-0.638-4.139-1.911-5.885l-1.013-1.013c-1.109-0.993-2.579-1.676-4.414-2.044"
								/>
							
								<path fill="none" stroke="#373535" stroke-width="1.6352" stroke-linecap="round" stroke-linejoin="round" stroke-miterlimit="3" d="
								M221.596,106.88c-1.528,1.044-2.624,2.172-3.287,3.383v0.343c-0.433,1.134-0.433,2.261,0,3.382
								c0.153,0.229,0.383,0.535,0.688,0.917c0.421,0.318,1.019,0.542,1.795,0.668c0.154,0.076,0.343,0.114,0.573,0.114
								c0.229,0,0.567,0.038,1.013,0.114c1.948,0,3.758-0.605,5.427-1.815c0.331-0.305,0.56-0.491,0.688-0.554l1.568,0.898
								l0.802-0.229"/>
							
								<path fill="none" stroke="#373535" stroke-width="1.6352" stroke-linecap="round" stroke-linejoin="round" stroke-miterlimit="3" d="
								M226.106,89.358c0.624,0.624,1.038,1.114,1.242,1.472"/>
							
								<path fill="none" stroke="#373535" stroke-width="1.6352" stroke-linecap="round" stroke-linejoin="round" stroke-miterlimit="3" d="
								M192.21,109.708c-0.447-0.446-1.014-1.273-1.702-2.483c-1.21-2.917-1.548-5.592-1.013-8.026
								c0.472-3.044,2.318-4.891,5.541-5.541c0.93-0.114,1.873-0.114,2.828,0"/>
							
								<path fill="none" stroke="#373535" stroke-width="1.6352" stroke-linecap="round" stroke-linejoin="round" stroke-miterlimit="3" d="
								M201.247,100.88c-2.102-2.675-4.287-3.165-6.554-1.472c-0.689,0.586-1.096,1.28-1.223,2.083
								c-0.141,0.84,0.045,1.732,0.555,2.675c1.019,1.924,2.598,2.828,4.739,2.713c0.65,0,1.363-0.114,2.14-0.343"/>
							
								<path fill="none" stroke="#373535" stroke-width="1.6352" stroke-linecap="round" stroke-linejoin="round" stroke-miterlimit="3" d="
								M217.986,111.389c-0.573-0.625-1.127-0.898-1.662-0.822c-0.547,0.089-1.127,0.555-1.739,1.395
								c-1.326,0.128-3.058,0.993-5.198,2.599c-1.77,2.114-2.599,4.528-2.483,7.242c0.356,2.917,1.26,5.44,2.712,7.567"/>
							
								<path fill="none" stroke="#373535" stroke-width="1.6352" stroke-linecap="round" stroke-linejoin="round" stroke-miterlimit="3" d="
								M216.952,118.287h0.23l1.585,0.458c0.076,0.038,0.205,0.102,0.383,0.191c0.154,0.076,0.25,0.159,0.288,0.249"/>
							
								<line fill="none" stroke="#373535" stroke-width="1.6352" stroke-linecap="round" stroke-linejoin="round" stroke-miterlimit="3" x1="215.157" y1="117.16" x2="215.271" y2="117.274"/>
							
								<path fill="none" stroke="#373535" stroke-width="1.6352" stroke-linecap="round" stroke-linejoin="round" stroke-miterlimit="3" d="
								M214.469,113.777c-0.114,1.134,0.114,2.261,0.688,3.383"/>
							
								<path fill="none" stroke="#373535" stroke-width="1.6352" stroke-linecap="round" stroke-linejoin="round" stroke-miterlimit="3" d="
								M215.271,117.274c0.179,0.191,0.427,0.375,0.746,0.554c0.178,0.102,0.452,0.255,0.822,0.459"/>
							
								<line fill="none" stroke="#373535" stroke-width="1.6352" stroke-linecap="round" stroke-linejoin="round" stroke-miterlimit="3" x1="177.63" y1="118.287" x2="177.746" y2="118.287"/>
							
								<path fill="none" stroke="#373535" stroke-width="1.6352" stroke-linecap="round" stroke-linejoin="round" stroke-miterlimit="3" d="
								M180.344,118.975c-0.255-0.038-0.593-0.114-1.014-0.229c-0.459-0.128-0.763-0.204-0.917-0.229
								c-0.28-0.154-0.504-0.229-0.668-0.229"/>
							
								<path fill="none" stroke="#373535" stroke-width="1.6352" stroke-linecap="round" stroke-linejoin="round" stroke-miterlimit="3" d="
								M192.21,109.708c1.158,1.044,2.515,1.568,4.068,1.568c1.58,0,2.784-0.032,3.612-0.096"/>
							
								<path fill="none" stroke="#373535" stroke-width="1.6352" stroke-linecap="round" stroke-linejoin="round" stroke-miterlimit="3" d="
								M177.746,118.287c4.497-0.433,8.452-2.35,11.865-5.752c0.713-0.56,1.58-1.503,2.6-2.828"/>
							
								<path fill="none" stroke="#373535" stroke-width="1.6352" stroke-linecap="round" stroke-linejoin="round" stroke-miterlimit="3" d="
								M202.049,96.925c-1.006-1.86-2.402-2.949-4.185-3.267"/>
							
								<path fill="none" stroke="#373535" stroke-width="1.6352" stroke-linecap="round" stroke-linejoin="round" stroke-miterlimit="3" d="
								M172.987,156.941l-2.141-1.356c-1.069-0.65-1.77-1.069-2.102-1.261c-0.764-0.421-1.497-0.751-2.198-0.993"/>
							
								<line fill="none" stroke="#373535" stroke-width="1.6352" stroke-linecap="round" stroke-linejoin="round" stroke-miterlimit="3" x1="172.891" y1="156.941" x2="175.815" y2="159.54"/>
							
								<path fill="none" stroke="#373535" stroke-width="1.6352" stroke-linecap="round" stroke-linejoin="round" stroke-miterlimit="3" d="
								M205.775,213.116c-1.847-1.35-4.407-2.483-7.682-3.401c-1.031-0.585-1.713-1-2.044-1.242
								c-2.165-1.822-3.822-5.248-4.969-10.281c-1.592-6.572-4.19-12.674-7.794-18.304c-3.606-5.682-4.962-10.847-4.069-15.496
								c0.153-0.585,0.229-1.109,0.229-1.568"/>
							
								<path fill="none" stroke="#373535" stroke-width="1.6352" stroke-linecap="round" stroke-linejoin="round" stroke-miterlimit="3" d="
								M175.815,159.54c0.904,0.751,2.114,1.847,3.63,3.287"/>
							
								<path fill="none" stroke="#373535" stroke-width="1.6352" stroke-linecap="round" stroke-linejoin="round" stroke-miterlimit="3" d="
								M159.555,161.24c5.554,0.242,10.973-0.326,16.26-1.702"/>
							
								<path fill="none" stroke="#373535" stroke-width="1.6352" stroke-linecap="round" stroke-linejoin="round" stroke-miterlimit="3" d="
								M159.555,161.24c3.733,8.445,5.84,14.393,6.325,17.845c0.65,4.051,2.681,8.802,6.095,14.253
								c3.58,5.579,7.121,10.548,10.623,14.904c0.23,0.305,0.529,0.706,0.898,1.204c0.293,0.395,0.561,0.713,0.802,0.955
								c2.637,3.427,4.069,5.535,4.298,6.325c0.154,0.229,0.261,0.421,0.325,0.573"/>
							
								<path fill="none" stroke="#373535" stroke-width="1.6352" stroke-linecap="round" stroke-linejoin="round" stroke-miterlimit="3" d="
								M183.287,125.968c2.712,1.414,4.822,3.236,6.324,5.465c1.504,2.229,2.37,4.815,2.6,7.757
								c0.075,0.076,0.113,0.192,0.113,0.343c0.114,2.433,0.643,4.695,1.586,6.784c0.076,0.229,0.184,0.491,0.325,0.784
								c0.101,0.204,0.446,0.733,1.031,1.586"/>
							
								<path fill="none" stroke="#373535" stroke-width="1.6352" stroke-linecap="round" stroke-linejoin="round" stroke-miterlimit="3" d="
								M209.616,129.369c-0.28-0.141-1.522,0.948-3.726,3.267c-1.553,1.465-3.363,4.14-5.427,8.024
								c-0.293,0.969-0.86,2.178-1.701,3.63c-0.038,0.038-0.076,0.114-0.114,0.23c-0.051,0.153-0.089,0.261-0.114,0.325"/>
							
								<path fill="none" stroke="#373535" stroke-width="1.6352" stroke-linecap="round" stroke-linejoin="round" stroke-miterlimit="3" d="
								M195.266,148.687c0.013-0.013,0.363-0.408,1.051-1.185c0.433-0.472,0.758-0.867,0.976-1.185
								c0.445-0.739,0.821-1.23,1.127-1.472"/>
							
								<path fill="none" stroke="#373535" stroke-width="1.6352" stroke-linecap="round" stroke-linejoin="round" stroke-miterlimit="3" d="
								M215.042,122.585c0-0.126-0.02-0.293-0.058-0.496c-0.038-0.205-0.058-0.339-0.058-0.401v-0.114
								c0-0.305-0.038-0.573-0.114-0.802c0.154-1.35,0.305-2.516,0.459-3.496"/>
							
								<path fill="none" stroke="#373535" stroke-width="1.6352" stroke-linecap="round" stroke-linejoin="round" stroke-miterlimit="3" d="
								M221.023,136.706h0.114c1.477-0.128,2.267-0.993,2.37-2.599c0.343-1.223,0.489-2.146,0.438-2.77
								c-0.038-0.625-0.254-0.905-0.65-0.84c-0.305,0.154-0.572,0.305-0.802,0.459c-0.229,0.14-0.719,0.287-1.472,0.438
								c-0.445,0.076-0.784,0.114-1.013,0.114l-0.572-0.114c-0.638-0.126-1.351-0.541-2.141-1.242c-0.585-0.561-1-1.388-1.242-2.484
								c-0.076-0.153-0.114-0.413-0.114-0.783l-0.114-0.114l-0.668-3.955"/>
							
								<line fill="none" stroke="#373535" stroke-width="1.6352" stroke-linecap="round" stroke-linejoin="round" stroke-miterlimit="3" x1="221.023" y1="136.706" x2="221.137" y2="136.706"/>
							
								<path fill="none" stroke="#373535" stroke-width="1.6352" stroke-linecap="round" stroke-linejoin="round" stroke-miterlimit="3" d="
								M221.023,136.706c-3.464,0.586-7.267-1.86-11.407-7.337"/>
							
								<path fill="none" stroke="#373535" stroke-width="1.6352" stroke-linecap="round" stroke-linejoin="round" stroke-miterlimit="3" d="
								M236.519,183.156c-2.266-0.356-4.873-0.28-7.814,0.23c-0.535,0.178-1.326,0.14-2.37-0.114
								c-1.326-0.37-2.72-1.389-4.185-3.058c-0.356-0.267-1.935-2.146-4.739-5.637c-0.79-1.109-1.77-2.427-2.942-3.955
								c-0.993-1.298-1.631-2.165-1.911-2.599c-1.745-2.254-3.746-4.025-6-5.311c-0.763-0.395-1.363-0.809-1.795-1.243
								c-1.414-1.159-2.356-2.216-2.828-3.171c-1.401-2.562-2.306-4.109-2.713-4.644l-0.113-0.096
								c-1.962-2.42-3.243-4.044-3.841-4.872"/>
							
								<path fill="none" stroke="#373535" stroke-width="1.6352" stroke-linecap="round" stroke-linejoin="round" stroke-miterlimit="3" d="
								M179.445,162.825c3.617,3.376,5.987,5.859,7.109,7.452c2.343,3.35,6.191,6.7,11.54,10.051
								c5.784,3.516,11.127,6.42,16.031,8.712c0.305,0.154,0.739,0.37,1.298,0.65c0.472,0.23,0.873,0.388,1.204,0.477
								c3.987,2.102,6.21,3.383,6.668,3.841c0.255,0,0.439,0.113,0.555,0.343c1.719,0.904,3.305,1.472,4.757,1.701
								c1.249,0.179,3.126,0.025,5.637-0.459h0.113c4.217-0.229,7.421,0.147,9.611,1.127c2.408,0.956,4.555,1.071,6.439,0.343
								c1.961-0.701,3.471-1.343,4.527-1.93c0.23-2.497-0.299-4.153-1.585-4.969"/>
							
								<path fill="none" stroke="#373535" stroke-width="1.6352" stroke-linecap="round" stroke-linejoin="round" stroke-miterlimit="3" d="
								M218.31,213.231c1.568-0.113,2.394,0.561,2.483,2.025"/>
							
								<path fill="none" stroke="#373535" stroke-width="1.6352" stroke-linecap="round" stroke-linejoin="round" stroke-miterlimit="3" d="
								M208.03,214.913c2.472,0.433,5.07,0.096,7.796-1.013c0.969-0.331,1.797-0.555,2.484-0.669"/>
							
								<path fill="none" stroke="#373535" stroke-width="1.6352" stroke-linecap="round" stroke-linejoin="round" stroke-miterlimit="3" d="
								M220.794,215.256c-0.701-0.205-1.866-0.013-3.497,0.573c-0.126,0.075-0.318,0.165-0.572,0.267
								c-0.318,0.128-0.542,0.222-0.668,0.287c-1.249,0.37-2.383,0.586-3.401,0.65c-1.134,0.076-2.185-0.024-3.153-0.305
								c-0.114-0.356-0.306-0.617-0.573-0.784c-0.076-0.165-0.222-0.35-0.439-0.554c-0.242-0.229-0.395-0.388-0.459-0.477"/>
							
								<path fill="none" stroke="#373535" stroke-width="1.6352" stroke-linecap="round" stroke-linejoin="round" stroke-miterlimit="3" d="
								M204.762,222.04c3.835-1.006,6.694-1.343,8.579-1.013c1.911,0.305,3.758,0.037,5.541-0.802
								c1.657-0.815,2.859-1.49,3.611-2.025c0.114-1.732-0.451-2.712-1.701-2.942"/>
							
								<path fill="none" stroke="#373535" stroke-width="1.6352" stroke-linecap="round" stroke-linejoin="round" stroke-miterlimit="3" d="
								M208.03,214.913c-0.917-0.777-1.668-1.376-2.253-1.795"/>
							
								<path fill="none" stroke="#373535" stroke-width="1.6352" stroke-linecap="round" stroke-linejoin="round" stroke-miterlimit="3" d="
								M205.775,213.116c2.586,0.318,5.26,0.013,8.024-0.917c1.121-0.332,2.044-0.414,2.77-0.25c0.713,0.166,1.294,0.593,1.74,1.28"
								/>
							
								<path fill="none" stroke="#373535" stroke-width="1.6352" stroke-linecap="round" stroke-linejoin="round" stroke-miterlimit="3" d="
								M188.922,217.301c0,0.293-0.032,0.477-0.095,0.554v0.343c-0.154,0.6-0.255,0.969-0.306,1.109
								c-0.101,0.294-0.229,0.491-0.383,0.593c-0.267,0.165-0.757,1.178-1.471,3.037c-0.535,1.771,0.254,2.829,2.369,3.172
								c2.535,0,4.911-0.751,7.127-2.254c0.688-0.51,1.293-1.076,1.815-1.702"/>
							
								<path fill="none" stroke="#373535" stroke-width="1.6352" stroke-linecap="round" stroke-linejoin="round" stroke-miterlimit="3" d="
								M197.98,222.153c1.503,0.154,2.63,0.23,3.383,0.23c1.503-0.154,2.636-0.343,3.4-0.573"/>
							
								<path fill="none" stroke="#373535" stroke-width="1.6352" stroke-linecap="round" stroke-linejoin="round" stroke-miterlimit="3" d="
								M198.189,218.427c0.305,1.326,0.237,2.567-0.209,3.726"/>
							
								<path fill="none" stroke="#373535" stroke-width="1.6352" stroke-linecap="round" stroke-linejoin="round" stroke-miterlimit="3" d="
								M188.922,217.301v-1.147c0.114-1.096,0.267-1.885,0.459-2.37"/>
							
								<line fill="none" stroke="#373535" stroke-width="1.6352" stroke-linecap="round" stroke-linejoin="round" stroke-miterlimit="3" x1="237.646" y1="183.271" x2="237.531" y2="183.271"/>
							
								<path fill="none" stroke="#373535" stroke-width="1.6352" stroke-linecap="round" stroke-linejoin="round" stroke-miterlimit="3" d="
								M236.405,183.041l0.113-0.209c0.141,0.141,0.287,0.209,0.439,0.209l0.058,0.02c0.038,0.013,0.058,0.045,0.058,0.096
								l0.458,0.114"/>
							
								<path fill="none" stroke="#373535" stroke-width="1.6352" stroke-linecap="round" stroke-linejoin="round" stroke-miterlimit="3" d="
								M58.954,230.963c-0.56-0.141-1.082-0.255-1.567-0.344c-1.096-0.343-1.987-0.814-2.675-1.414
								c-0.713-0.624-1.178-1.356-1.394-2.198c-0.446-2.178-1.503-5.866-3.172-11.063c-1.797-5.846-5.185-10.184-10.165-13.012
								c-4.904-2.93-8.75-7.069-11.541-12.421c2.982-2.624,5.924-3.383,8.828-2.274c2.598,0.943,4.668,1.287,6.209,1.032
								c1.605-0.358,6.541-1.528,14.808-3.517c2.853-0.701,5.713-2.993,8.579-6.879c3.058-3.86,4.981-8.987,5.77-15.382
								c1.032-6.687,1.713-12.037,2.044-16.05c0.076-1.057,0.184-1.885,0.325-2.483"/>
							
								<path fill="none" stroke="#373535" stroke-width="1.6352" stroke-linecap="round" stroke-linejoin="round" stroke-miterlimit="3" d="
								M94.341,180.672c-2.051,3.02-4.311,5.541-6.783,7.566c-4.089,3.63-9.178,5.784-15.266,6.459
								c-5.554,0.942-12.637,2.599-21.248,4.968c8.458,6.675,13.095,12.133,13.91,16.375c0.815,4.319,0.624,7.561-0.573,9.726
								c-1.019,2.051-1.924,3.599-2.713,4.643c-0.56,0.561-1.465,0.746-2.713,0.555"/>
							
								<path fill="none" stroke="#373535" stroke-width="1.6352" stroke-linecap="round" stroke-linejoin="round" stroke-miterlimit="3" d="
								M59.758,214.472c1.923,1.924,2.942,4.37,3.057,7.337c0.318,2.891-0.586,5.229-2.713,7.013
								c-0.497,0.638-0.879,1.351-1.147,2.141"/>
							
								<path fill="none" stroke="#373535" stroke-width="1.6352" stroke-linecap="round" stroke-linejoin="round" stroke-miterlimit="3" d="
								M227.921,120.886c0.598-1.528,1.503-2.695,2.712-3.497c0.205,0,0.465,0.114,0.784,0.343c1.286,0.701,1.668,1.636,1.147,2.808
								"/>
						</g>
						<g>
							<g>
								<g>
									<g>
										
											<path fill="none" stroke="#373535" stroke-width="1.6352" stroke-linecap="round" stroke-linejoin="round" stroke-miterlimit="3" d="
											M230.633,108.121c0.217-0.446,0.517-0.746,0.898-0.898c0.522,0,0.828,0.223,0.917,0.668
											c0.293,0.637,0.439,1.203,0.439,1.701s-0.147,1.134-0.439,1.911c-0.178,0.293-0.338,0.503-0.477,0.63
											c-0.141,0.14-0.326,0.235-0.555,0.287c-0.154,0-0.293-0.045-0.421-0.134c-0.191-0.114-0.312-0.299-0.363-0.554
											c-0.153-0.205-0.254-0.459-0.305-0.764c-0.025-0.191-0.038-0.504-0.038-0.936c0-0.484,0.013-0.829,0.038-1.032
											C230.379,108.67,230.482,108.375,230.633,108.121z"/>
									</g>
								</g>
								<g>
									<g>
										<path fill="#373535" d="M232.105,108.58c0.154,0.216,0.23,0.592,0.23,1.127c0,0.598-0.076,0.975-0.23,1.127
											c-0.101,0.191-0.197,0.325-0.287,0.401c-0.025,0.025-0.121,0.076-0.287,0.153c-0.102,0.051-0.192,0.038-0.268-0.038
											c-0.113-0.114-0.209-0.21-0.287-0.287c-0.153-0.229-0.229-0.612-0.229-1.146c0-0.6,0.076-0.976,0.229-1.128
											c0.102-0.191,0.198-0.325,0.287-0.401c0.026-0.025,0.114-0.076,0.268-0.154c0.102-0.051,0.197-0.038,0.287,0.038
											C231.883,108.325,231.979,108.427,232.105,108.58z"/>
									</g>
								</g>
								<g>
									<g>
										<path fill="#FFFFFF" d="M231.208,108.121c0.063,0,0.133-0.038,0.209-0.114c0.076,0.076,0.114,0.191,0.114,0.343
											c0,0.216-0.038,0.325-0.114,0.325c0,0.229-0.07,0.343-0.209,0.343c-0.154,0.153-0.268,0.229-0.343,0.229
											c0-0.089-0.02-0.159-0.058-0.21c-0.038-0.063-0.058-0.108-0.058-0.134c0.076-0.153,0.114-0.299,0.114-0.439
											L231.208,108.121z"/>
									</g>
								</g>
								<g>
									<g>
										<path fill="#FFFFFF" d="M231.99,110.72c0.076,0,0.114,0.153,0.114,0.458c0,0.217-0.038,0.363-0.114,0.439
											c-0.153,0.153-0.343,0.229-0.572,0.229c-0.051,0.05-0.109,0.063-0.171,0.038c-0.102-0.064-0.192-0.114-0.268-0.153
											c-0.051,0-0.101-0.045-0.153-0.134c-0.051-0.101-0.076-0.21-0.076-0.325c0-0.14,0.076-0.287,0.229-0.439
											c0.051-0.025,0.141-0.076,0.268-0.153c0.075-0.05,0.133-0.076,0.171-0.076C231.621,110.503,231.812,110.542,231.99,110.72
											z"/>
									</g>
								</g>
								<g>
									<g>
										<path fill="#FFFFFF" d="M231.99,108.675c0-0.14,0.038-0.21,0.114-0.21c0-0.038,0.025-0.051,0.076-0.038
											c0.089,0.025,0.141,0.038,0.154,0.038c0.075,0.076,0.113,0.223,0.113,0.439c0.076,0.076,0.114,0.191,0.114,0.344
											c0,0.153-0.038,0.229-0.114,0.229h-0.113c-0.102-0.05-0.166-0.114-0.192-0.191c-0.025-0.038-0.038-0.126-0.038-0.267
											C232.028,108.943,231.99,108.829,231.99,108.675z"/>
									</g>
								</g>
							</g>
							<g>
								<g>
									<g>
										
											<path fill="none" stroke="#373535" stroke-width="1.6352" stroke-linecap="round" stroke-linejoin="round" stroke-miterlimit="3" d="
											M226.794,114.331c-0.713,0-1.395-0.261-2.045-0.783c-0.483-0.598-0.784-1.427-0.897-2.484
											c-0.114-1.082,0.076-1.987,0.572-2.713c0.154-0.433,0.376-0.764,0.668-0.994c0.243-0.191,0.58-0.35,1.014-0.477
											c0.382-0.051,0.731,0,1.051,0.153c0.28,0.14,0.572,0.388,0.879,0.746c0.561,0.56,0.898,1.35,1.014,2.369
											c0.126,1.109-0.058,2.012-0.555,2.713c-0.153,0.421-0.395,0.751-0.726,0.994
											C227.527,114.032,227.202,114.191,226.794,114.331z"/>
									</g>
								</g>
								<g>
									<g>
										<path fill="#373535" d="M226.678,112.86c-0.534,0.128-0.911-0.019-1.127-0.439c-0.395-0.293-0.662-0.784-0.802-1.472
											c0-0.751,0.114-1.356,0.343-1.815c0.114-0.229,0.275-0.413,0.477-0.554c0.216-0.154,0.433-0.229,0.65-0.229
											c0.446-0.114,0.822,0.032,1.127,0.439c0.459,0.459,0.688,0.988,0.688,1.586c0.102,0.497,0.025,1.064-0.229,1.702
											C227.487,112.6,227.112,112.86,226.678,112.86z"/>
									</g>
								</g>
								<g>
									<g>
										<path fill="#FFFFFF" d="M225.991,108.121c0.154,0.076,0.229,0.191,0.229,0.343c0,0.293-0.038,0.477-0.113,0.554
											c-0.051,0.141-0.121,0.267-0.21,0.383c-0.114,0.089-0.191,0.153-0.229,0.191c-0.23,0.153-0.421,0.229-0.573,0.229
											l-0.209-0.172c-0.089-0.064-0.134-0.121-0.134-0.172c0-0.305,0.076-0.497,0.23-0.573c0.064-0.191,0.133-0.324,0.209-0.401
											c0.089-0.101,0.209-0.153,0.363-0.153C225.705,108.198,225.85,108.121,225.991,108.121z"/>
									</g>
								</g>
								<g>
									<g>
										<path fill="#FFFFFF" d="M227.577,111.733c0.305,0.101,0.458,0.331,0.458,0.688c0,0.293-0.113,0.554-0.343,0.783
											c-0.343,0.229-0.643,0.344-0.897,0.344c-0.192,0.051-0.408,0.063-0.65,0.038c-0.243-0.025-0.401-0.038-0.477-0.038
											c-0.305-0.102-0.459-0.331-0.459-0.688c0-0.293,0.114-0.554,0.343-0.783s0.529-0.343,0.897-0.343
											c0.192-0.051,0.409-0.064,0.651-0.038C227.227,111.707,227.386,111.72,227.577,111.733z"/>
									</g>
								</g>
								<g>
									<g>
										<path fill="#FFFFFF" d="M227.252,108.904c0-0.216,0.033-0.363,0.096-0.439c0.076,0,0.192,0.07,0.343,0.21
											c0.102,0,0.192,0.045,0.268,0.134c0.05,0.064,0.075,0.134,0.075,0.21c0.038,0.076,0.109,0.184,0.21,0.325
											c0.063,0.114,0.07,0.197,0.02,0.249c0.051,0.102,0.064,0.191,0.038,0.267c-0.025,0.038-0.076,0.096-0.154,0.172
											c-0.076,0-0.191-0.07-0.343-0.21c-0.089,0-0.179-0.045-0.267-0.134c-0.089-0.102-0.154-0.172-0.192-0.21
											C227.285,109.172,227.252,108.982,227.252,108.904z"/>
									</g>
								</g>
							</g>
						</g>
						<g>
							<path fill="#FFFFFF" d="M235.277,116.146v0.439h-13.91v-0.898c0.229,0,0.567,0.038,1.013,0.114
								c1.948,0,3.758-0.605,5.427-1.815c0.331-0.305,0.56-0.491,0.688-0.554l1.568,0.898l0.802-0.229
								C232.698,114.471,234.169,115.153,235.277,116.146z"/>
							
								<path fill="none" stroke="#373535" stroke-width="1.6352" stroke-linecap="round" stroke-linejoin="round" stroke-miterlimit="3" d="
								M235.277,116.146c-1.109-0.993-2.579-1.676-4.414-2.044l-0.802,0.229l-1.568-0.898c-0.128,0.064-0.356,0.249-0.688,0.554
								c-1.668,1.21-3.478,1.815-5.427,1.815c-0.446-0.076-0.784-0.114-1.013-0.114"/>
						</g>
					</g>
				</g>
			</g>
		</g>
	</g>
</g>
</svg>
