<?xml version="1.0" encoding="utf-8"?>
<!-- Generator: Adobe Illustrator 17.0.1, SVG Export Plug-In . SVG Version: 6.00 Build 0)  -->
<!DOCTYPE svg PUBLIC "-//W3C//DTD SVG 1.1//EN" "http://www.w3.org/Graphics/SVG/1.1/DTD/svg11.dtd">
<svg version="1.1" id="Layer_1" xmlns="http://www.w3.org/2000/svg" xmlns:xlink="http://www.w3.org/1999/xlink" x="0px" y="0px"
	 width="247.911px" height="134.246px" viewBox="6.405 67.645 247.911 134.246"
	 enable-background="new 6.405 67.645 247.911 134.246" xml:space="preserve">
<g id="Layer_3">
	<path fill="#FFFFFF" d="M252.935,97.172c-0.938-3.242-3.716-3.229-6.56-3.172c-0.637,0.013-1.115,0.268-1.438,0.642
		c-4.309-4.503-10.197-8.241-15.576-11.182c-8.435-4.611-16.812-5.151-26.119-5.675c-1.404-3.13-3.556-5.84-6.798-7.707
		c-5.473-3.151-12.605-2.209-16.704,2.199c-1.788,0.16-5.064-0.024-6.5,0.401c-3.729,1.105-6.737,3.034-8.988,6.135
		c-0.371,0.058-0.748,0.132-1.137,0.24c-1.612,0.448-3.841-0.391-5.562-0.962c-0.673-0.223-1.803-1.268-2.389-1.681
		c-0.43-0.192-0.871-0.355-1.306-0.535c-0.517-0.458-1.114-0.872-1.819-1.215c-0.469-0.228-3.172-2.09-3.192-1.547
		c-0.09-0.038-0.181-0.085-0.271-0.119c-1.488-1.771-3.135-3.136-5.442-3.94c-3.746-1.306-7.419-0.624-11.145,0.375
		c-3.829,1.026-7.968,1.344-11.861,2.342c-2.172,0.557-4.124,1.834-6.145,2.795c-0.966-0.023-1.982,0.156-3.026,0.595
		c-0.316,0.033-0.639,0.08-0.968,0.143c-0.937,0.18-1.82,0.464-2.68,0.794c-1.191,0.299-2.388,0.571-3.57,0.956
		c-2.243,0.731-4.06,2.16-5.784,3.704c-2.015,0.328-3.578,1.284-4.68,2.598c-1.953,0.677-3.304,1.739-4.357,3.182
		c-1.4,0.661-2.471,1.696-3.219,2.932c-1.647,0.631-3.223,1.486-4.46,2.771c-1.981,2.058-3.66,4.361-5.128,6.797
		c-0.262,0.216-0.515,0.445-0.747,0.703c-7.496,8.313-10.618,19.341-16.314,28.768c-1.532,2.535-2.937,5.635-3.944,8.938
		c-0.782,1.075-1.513,2.279-2.438,3.187c-0.834-0.195-1.754-0.076-2.741,0.409c-1.134,0.559-2.169,1.249-3.245,1.909
		c-2.151,1.321-6.98,0.239-9.363,0.035c-4.317-0.371-8.109,0.821-12.337,0.95c-2.317,0.071-4.819,0.355-5.739,2.659
		c-1.001,0.199-1.969,0.51-2.812,1.141c-1.083,0.811-1.824,1.855-2.699,2.871c-0.032,0.037-0.056,0.079-0.085,0.117
		c-0.9,0.732-1.774,1.578-2.633,2.617c-2.865,3.466-3.283,8.077-2.424,12.323c0.174,0.862,0.665,1.38,1.267,1.626
		c1.525,3.189,6.574,5.235,9.269,6.45c3.478,1.566,6.967,3.122,10.487,4.591c3.241,1.352,6.702,1.938,10.073,2.821
		c2.087,0.854,4.159,1.744,6.179,2.755c0.886,0.443,1.738,0.338,2.411-0.059c0.069,0.03,0.123,0.072,0.202,0.097
		c1.703,0.527,3.426,0.962,5.159,1.354c2.247,0.771,4.467,1.643,6.812,2.128c2.816,0.583,5.678,0.953,8.549,1.205
		c3.412,0.82,6.814,1.584,10.378,1.867c0.374,0.029,0.672-0.061,0.901-0.225c5.474,1.073,10.585,1.983,16.286,2.118
		c7.658,0.181,15.186,0.612,22.813,1.356c0.602,0.059,1.014-0.194,1.237-0.576c4.164,0.924,8.275,2.065,12.464,2.881
		c5.16,1.005,10.076,3.083,15.283,3.784c1.261,0.17,1.805-1.757,0.531-1.928c-4.427-0.597-8.525-2.363-12.859-3.351
		c0.168-0.495,0.01-1.102-0.641-1.274c-5.154-1.372-10.204-2.525-15.548-2.413c-0.142-0.06-0.294-0.106-0.468-0.123
		c-5.798-0.565-11.563-1.084-17.38-1.248c-0.172-0.547-0.627-0.995-1.37-1.002c-3.92-0.033-7.833-0.233-11.75-0.375
		c-3.923-0.142-7.695-1.703-11.625-2c-0.168-0.013-0.317,0.006-0.455,0.037c-0.057-0.013-0.109-0.03-0.17-0.037
		c-5.293-0.628-10.403-1.999-15.565-3.274c-1.601-0.396-3.207-0.745-4.808-1.101c-0.158-0.14-0.355-0.252-0.603-0.321
		c-2.623-0.729-5.307-1.302-7.852-2.224c-0.21-0.345-0.539-0.648-1.036-0.863c-1.08-0.467-2.177-0.869-3.279-1.249
		c-0.074-0.049-0.152-0.088-0.226-0.138c-0.32-0.217-0.634-0.283-0.921-0.249c-0.545-0.177-1.092-0.347-1.641-0.512
		c-3.111-1.262-6.243-2.472-9.308-3.853c-5.526-2.489-10.749-5.623-16.034-8.589c0.164-0.318,0.267-0.69,0.272-1.128
		c0.07-5.073,2.22-7.337,6.779-9.138c3.488-1.378,7.382-1.862,11.091-2.039c4.062-0.194,8.604,0.316,12.349,1.976
		c2.848,1.263,5.268,2.86,8.367,3.487c0.056,0.012,0.11,0.014,0.165,0.022c0.796,2.322,2.612,4.185,5.615,4.638
		c0.755,0.114,1.509,0.205,2.263,0.279l-0.003,0.024c-0.295-0.018-0.59-0.036-0.885-0.054c0.896,0.306,1.848,0.389,2.798,0.311
		c0.395,0.581,1.042,0.993,1.961,0.993c0.423,0,0.787-0.09,1.099-0.239c0.397,0.164,0.814,0.313,1.266,0.436
		c1.847,0.497,3.503,0.621,5.117,0.51c0.278,0.172,0.612,0.286,1.018,0.294c5.574,0.109,13.504-1.092,18.297,1.793
		c0.854,0.515,2.09,0.555,2.981,0.166c0.392-0.098,0.737-0.272,1.062-0.482c0.579,0.492,1.388,0.664,2.168,0.125
		c0.141-0.098,0.271-0.208,0.4-0.318l0.004,0.006c0.943-0.936,4.478,0.416,5.836,0.336c2.563-0.15,2.578-4.151,0-4
		c-1.501,0.088-2.759-0.274-3.936-0.497c-0.019-0.168-0.05-0.331-0.099-0.484c4.974,0.802,10.389,0.199,15.517-0.736
		c0.294,0.503,0.84,0.825,1.642,0.718c1.144-0.153,2.454-0.18,3.735-0.032c0.265,0.65,0.85,1.157,1.765,1.157
		c0.175,0,0.336-0.021,0.488-0.056c0.276,0.165,0.605,0.283,1.012,0.306c1.855,0.104,3.901,0.803,5.75,0.75
		c2.552-0.072,4.744-0.297,7.219,0.429c1.532,0.449,2.772-1.016,2.46-2.46c-0.476-2.196-2.181-2.959-4.304-2.714
		c-0.022,0.003-0.046,0.011-0.068,0.014c0.037-0.034,0.071-0.07,0.107-0.104c0.471-0.439,0.647-0.944,0.619-1.428
		c0.314-0.086,0.628-0.169,0.94-0.266c1.823-0.564,3.584-1.278,5.299-2.093c1.208,0.911,2.771,1.471,4.687,1.493
		c1.215,0.779,2.724,1.254,4.541,1.254c1.604,0,2.955-0.381,4.088-1.003c0.668,0.159,1.384,0.253,2.162,0.253
		c0.453,0,0.877-0.042,1.29-0.101c0.182,0.774,0.692,1.449,1.531,1.718c0.208,0.266,0.426,0.524,0.668,0.769
		c0.512,0.619,1.126,1.125,1.75,1.625c0.574,0.442,1.147,0.886,1.721,1.329c1.28,0.742,2.661,1.12,4.137,1.15
		c0.639,0.895,1.64,1.551,3.028,1.635c2.812,0.169,5.668,0.029,8.437,0.607c2.435,0.508,4.816,0.946,7.313,0.893
		c1.264-0.027,2.214-0.532,2.858-1.273c0.319,0.41,0.82,0.683,1.517,0.648c1.84-0.089,3.662,0.222,5.5,0.25
		c2.624,0.041,2.516-3.752,0-4c-0.95-0.094-1.892-1.117-2.636-1.64c-1.124-0.791-2.488-1.232-3.864-1.11
		c-0.236,0.021-0.443,0.083-0.637,0.162c-0.641-0.644-1.545-1.062-2.738-1.037c-1.749,0.038-3.396-0.274-5.064-0.59
		c-0.051-0.139-0.119-0.279-0.209-0.42c-1.007-1.581-2.381-2.879-3.125-4.625c-0.121-0.284-0.328-0.497-0.577-0.656
		c0.018-0.717-0.04-1.424-0.203-2.094c0.423,1.738,0.697-3.343,0.633-2.872c0.196-1.442,0.506-2.87,0.833-4.29
		c1.924-0.722,3.774-1.536,5.434-2.221c5.803-2.396,10.712-5.352,14.119-10.817c0.107-0.172,0.193-0.343,0.287-0.515
		c3.392-0.681,6.753-1.673,9.633-2.704c2.688-0.962,5.436-1.696,8.159-2.546c1.676-0.522,3.275-1.254,4.826-2.066
		c0.079-0.041,3.091-1.439,1.63-1.333c2.978-0.216,5.15-1.604,6.512-3.498c3.065-1.05,6.141-2.081,9.248-3.056
		c1.251-0.393,2.339-0.94,3.294-1.589c0.528,0.009,1.062-0.188,1.485-0.568c1.426-1.284,2.465-2.742,2.846-4.58
		c0.679-0.078,1.271-0.516,1.419-1.428c0.209-1.288,0.388-2.503,1.048-3.647c0.06-0.103,0.105-0.205,0.146-0.306
		C252.51,100.378,253.5,99.127,252.935,97.172z M51.306,145.993c0.067-0.179-0.118-0.44-0.59-1.106
		c0.433,0.611,1.041,1.033,1.708,1.175C52.053,146.033,51.679,146.016,51.306,145.993z"/>
</g>
<g id="Layer_1_2_">
	<g>
		<g id="Layer_1_1_">
			<g>
				<g id="Layer_1_3_">
					<g>
						<path fill="#373535" d="M217.089,94.452c-0.136,0.128-0.34,0.25-0.611,0.368c-1.162-0.928-1.742-1.594-1.742-1.999
							c0-0.341,0.167-0.581,0.502-0.72c0.262,0.139,0.622,0.501,1.083,1.087C216.833,93.807,217.089,94.228,217.089,94.452z
							 M218.471,87.608c-0.104-0.032-0.257-0.048-0.455-0.048c-1.141,0-2.135,0.4-2.982,1.2c-0.795,0.767-1.219,1.743-1.271,2.926
							c0.053,1.151,0.477,2.143,1.271,2.974c0.419,0.384,0.879,0.677,1.381,0.879c0.534,0.213,1.067,0.32,1.602,0.32
							c1.172,0,2.176-0.4,3.014-1.199c0.826-0.842,1.239-1.833,1.239-2.974c0-0.959-0.271-1.78-0.815-2.463
							c0.062,0.213,0.094,0.336,0.094,0.368c0,0.309-0.12,0.672-0.361,1.087c-0.355,0.672-0.816,1.008-1.381,1.008
							c-0.639,0-1.183-0.368-1.632-1.104c-0.346-0.554-0.519-1.007-0.519-1.359C217.612,88.359,217.885,87.821,218.471,87.608z"/>
						
							<path fill="none" stroke="#373535" stroke-width="1.5" stroke-linecap="round" stroke-linejoin="round" stroke-miterlimit="3" d="
							M71.607,113.816c-2.658,2.516-4.991,7.009-7,13.48c-1.434,4.647-2.365,8.869-2.793,12.665"/>
						
							<path fill="none" stroke="#373535" stroke-width="1.5" stroke-linecap="round" stroke-linejoin="round" stroke-miterlimit="3" d="
							M104.27,159.263c-1.214,0.437-2.564,0.768-4.05,0.991l-1.397,0.16"/>
						
							<path fill="none" stroke="#373535" stroke-width="1.5" stroke-linecap="round" stroke-linejoin="round" stroke-miterlimit="3" d="
							M105.604,164.268l1.428,0.479v1.407c-0.439,0.288-0.989,0.41-1.648,0.368c-1.12-0.256-1.973-0.47-2.559-0.64
							c-0.743-0.182-1.632-0.299-2.668-0.352"/>
						
							<path fill="none" stroke="#373535" stroke-width="1.5" stroke-linecap="round" stroke-linejoin="round" stroke-miterlimit="3" d="
							M105.604,164.268c-0.335-0.139-0.921-0.432-1.758-0.88c-0.418-0.33-0.79-0.661-1.114-0.991c0-0.043-0.021-0.063-0.062-0.063
							c-0.167-0.245-0.319-0.438-0.455-0.576"/>
						
							<path fill="none" stroke="#373535" stroke-width="1.5" stroke-linecap="round" stroke-linejoin="round" stroke-miterlimit="3" d="
							M100.157,165.531c-0.136-0.043-0.356-0.064-0.659-0.064l0.973,0.368v0.688c-1.737,0.17-3.871,0.293-6.403,0.367
							c-0.973,0.054-1.794-0.207-2.464-0.783l-0.518-0.527l-0.047-0.416l-16.402-0.271"/>
						
							<path fill="none" stroke="#373535" stroke-width="1.5" stroke-linecap="round" stroke-linejoin="round" stroke-miterlimit="3" d="
							M93.094,163.068l3.375-0.672c1.109,0.917,2.338,1.962,3.688,3.135"/>
						
							<path fill="none" stroke="#373535" stroke-width="1.5" stroke-linecap="round" stroke-linejoin="round" stroke-miterlimit="3" d="
							M102.213,161.757c-0.576-0.629-1.24-0.991-1.994-1.087c-0.188-0.021-0.654-0.106-1.397-0.256"/>
						
							<path fill="none" stroke="#373535" stroke-width="1.5" stroke-linecap="round" stroke-linejoin="round" stroke-miterlimit="3" d="
							M58.125,158.687l-2.763,1.615c5.902,2.452,12.002,3.966,18.301,4.541h0.047c0.408,0,0.717,0.017,0.926,0.049"/>
						
							<path fill="none" stroke="#373535" stroke-width="1.5" stroke-linecap="round" stroke-linejoin="round" stroke-miterlimit="3" d="
							M98.823,160.414c-1.255,0.149-2.092,0.234-2.511,0.256c-1.664,0.117-3.081,0.148-4.253,0.096c-0.01,0-0.576-0.032-1.695-0.096
							c-0.669-0.043-1.229-0.059-1.679-0.048c-12.306,0.213-22.1-0.357-29.382-1.712c-2.333-0.426-4.442-0.948-6.325-1.566
							c-0.983-0.32-1.999-0.672-3.045-1.056c-0.92-0.202-1.967-0.501-3.139-0.896"/>
						
							<path fill="none" stroke="#373535" stroke-width="1.5" stroke-linecap="round" stroke-linejoin="round" stroke-miterlimit="3" d="
							M46.792,155.393c-3.003-1.993-6.074-3.022-9.213-3.086c-2.072-0.267-3.986-0.368-5.745-0.304h-0.565
							c-3.547,0.159-6.843,0.975-9.888,2.446c-4.667,2.249-6.875,4.547-6.624,6.892c0.052,0.587,0.256,1.179,0.612,1.775
							c0.282,0.438,0.644,0.858,1.083,1.264l5.949,3.854c0.062,0,0.115,0.021,0.157,0.063c0.094,0.032,0.162,0.064,0.204,0.097
							c0.178,0.053,0.382,0.144,0.612,0.271c14.827,6.791,30.392,11.924,46.694,15.399l1.036,0.208
							c0.146,0.021,0.502,0.106,1.067,0.255l5.07,0.944"/>
						
							<path fill="none" stroke="#373535" stroke-width="1.5" stroke-linecap="round" stroke-linejoin="round" stroke-miterlimit="3" d="
							M40.592,142.808c-0.439,0-0.78,0.017-1.02,0.048c-0.104-0.031-0.256-0.048-0.456-0.048c-0.345-0.031-0.858-0.069-1.538-0.111"
							/>
						
							<line fill="none" stroke="#373535" stroke-width="1.5" stroke-linecap="round" stroke-linejoin="round" stroke-miterlimit="3" x1="40.796" y1="142.808" x2="40.592" y2="142.808"/>
						
							<path fill="none" stroke="#373535" stroke-width="1.5" stroke-linecap="round" stroke-linejoin="round" stroke-miterlimit="3" d="
							M40.592,142.808c-0.701-0.074-1.742-0.144-3.123-0.208c-6.613-0.373-11.96,0.288-16.041,1.983l-1.083,0.464
							c-3.17,1.566-5.373,2.979-6.607,4.237c-6.938,7.121-8.392,13.229-4.363,18.325c0.523,0.629,1.125,1.258,1.805,1.887
							c1.559,1.418,3.725,2.81,6.498,4.174c12.494,6.066,26.881,10.837,43.163,14.312c12.494,2.611,25.087,4.333,37.78,5.165
							c4.248,0.213,7.361,0.352,9.339,0.415c7.963,0,16.417,0.928,25.364,2.782c0.449,0.096,0.795,0.166,1.035,0.208l6.451,1.567
							c3.735,0.959,7.257,1.967,10.563,3.022c-0.45-2.133-5.117-4.59-14.001-7.372c-6.393-2.388-13.122-3.764-20.184-4.126
							c-13.31-0.415-26.604-1.807-39.882-4.173"/>
						
							<path fill="none" stroke="#373535" stroke-width="1.5" stroke-linecap="round" stroke-linejoin="round" stroke-miterlimit="3" d="
							M203.355,77.837c-0.304-0.8-0.68-1.615-1.13-2.447c-0.408-0.671-1.146-1.737-2.213-3.198
							c-0.513-0.704-1.057-1.258-1.633-1.663c-2.396-1.802-5.164-2.463-8.303-1.983c-1.287,0.352-2.093,0.575-2.417,0.671
							c-2.731-0.042-5.227,0.863-7.487,2.719"/>
						
							<path fill="none" stroke="#373535" stroke-width="1.5" stroke-linecap="round" stroke-linejoin="round" stroke-miterlimit="3" d="
							M189.606,78.253c0.346-0.032,0.811-0.048,1.396-0.048c1.643-0.042,2.784,0.042,3.422,0.256
							c2.637-0.17,4.604-0.309,5.901-0.416c0.858-0.085,1.868-0.155,3.029-0.208"/>
						
							<path fill="none" stroke="#373535" stroke-width="1.5" stroke-linecap="round" stroke-linejoin="round" stroke-miterlimit="3" d="
							M164.399,78.829c0.22-0.362,0.476-0.746,0.769-1.151c1.402-1.897,3.229-3.182,5.479-3.854
							c1.433-0.522,2.511-0.906,3.232-1.151c1.56-0.491,3.145-0.528,4.756-0.112c0.649,0.17,1.078,0.293,1.287,0.368h0.047
							l0.832,0.16c1.633,0.266,3.066,0.927,4.301,1.982c0.137,0.096,0.612,0.374,1.429,0.832c1.067,0.565,2.077,1.333,3.029,2.303"
							/>
						
							<path fill="none" stroke="#373535" stroke-width="1.5" stroke-linecap="round" stroke-linejoin="round" stroke-miterlimit="3" d="
							M189.606,78.253c0.167,0.118,0.287,0.24,0.36,0.368c0.408,0.416,0.702,0.747,0.88,0.992l3.327,3.502
							c0.91,0.917,2.02,1.578,3.327,1.983"/>
						
							<path fill="none" stroke="#373535" stroke-width="1.5" stroke-linecap="round" stroke-linejoin="round" stroke-miterlimit="3" d="
							M193.766,88.183c-0.974,0.619-2.015,0.826-3.123,0.624l-2.057-0.464c-1.36-0.437-2.333-1.188-2.919-2.254v-0.048l0.251-0.16
							c0.304-0.288,0.508-0.533,0.612-0.736c0.251-0.352,0.424-0.682,0.518-0.991l0.047-0.048c0.325-0.8,0.414-1.668,0.268-2.606
							c-0.042-0.075-0.063-0.166-0.063-0.272c-0.062,0-0.109,0.022-0.141,0.064c-0.137,0-0.241,0.016-0.314,0.048l-1.225,0.304
							l-0.973,0.368c-1.015,0.31-1.904,0.608-2.668,0.896l-1.742,0.576c-0.073,0-0.126,0.016-0.157,0.048
							c-0.366,0.117-0.706,0.309-1.021,0.576c-0.491,0.437-0.884,0.959-1.177,1.567c-0.419,0.885-0.335,1.844,0.251,2.878"/>
						
							<path fill="none" stroke="#373535" stroke-width="1.5" stroke-linecap="round" stroke-linejoin="round" stroke-miterlimit="3" d="
							M218.471,87.608c0.963,0.053,1.815,0.437,2.559,1.151c0.188,0.17,0.329,0.325,0.424,0.463
							c0.544,0.683,0.815,1.503,0.815,2.463c0,1.141-0.413,2.132-1.239,2.974c-0.838,0.799-1.842,1.199-3.014,1.199
							c-0.534,0-1.067-0.106-1.602-0.32c-0.502-0.202-0.962-0.496-1.381-0.879c-0.795-0.832-1.219-1.823-1.271-2.974
							c0.053-1.184,0.477-2.159,1.271-2.926c0.848-0.8,1.842-1.2,2.982-1.2C218.214,87.56,218.366,87.576,218.471,87.608z"/>
						
							<path fill="none" stroke="#373535" stroke-width="1.5" stroke-linecap="round" stroke-linejoin="round" stroke-miterlimit="3" d="
							M244.761,93.396c-3.202-2.473-6.043-4.525-8.522-6.156c-2.962-2.015-5.949-3.843-8.963-5.485
							c-0.335-0.213-0.842-0.437-1.522-0.671c-4.437-1.279-8.674-2.345-12.713-3.198c-1.057-0.203-2.119-0.304-3.187-0.304
							c-1.988,0-4.154,0.085-6.498,0.256"/>
						
							<path fill="none" stroke="#373535" stroke-width="1.5" stroke-linecap="round" stroke-linejoin="round" stroke-miterlimit="3" d="
							M219.601,97.314c-1.413,0.277-2.657,0.138-3.735-0.416l-0.723-0.416"/>
						
							<path fill="none" stroke="#373535" stroke-width="1.5" stroke-linecap="round" stroke-linejoin="round" stroke-miterlimit="3" d="
							M230.509,104.478c-0.628,0.288-1.35,0.565-2.166,0.832c-0.429,0.117-0.784,0.24-1.067,0.368
							c-2.688,0.927-5.231,1.919-7.628,2.974c-3.494,1.429-6.791,3.15-9.888,5.165"/>
						
							<line fill="none" stroke="#373535" stroke-width="1.5" stroke-linecap="round" stroke-linejoin="round" stroke-miterlimit="3" x1="228.343" y1="108.651" x2="228.139" y2="108.124"/>
						
							<path fill="none" stroke="#373535" stroke-width="1.5" stroke-linecap="round" stroke-linejoin="round" stroke-miterlimit="3" d="
							M245.373,98.162c0.104,0.512,0.083,0.959-0.062,1.343c-0.304,1.237-0.252,2.458,0.156,3.662v0.048
							c0.136,0.416,0.445,0.768,0.926,1.055c0.555,0.256,1.036,0.304,1.444,0.144c0.502-0.352,0.874-0.8,1.114-1.343
							c0.325-0.661,0.414-1.343,0.267-2.047l0.974,2.398h0.706c1.496-1.407,2.37-3.128,2.621-5.165
							c0.157-1.066-0.083-2.025-0.722-2.878c-0.952-1.365-2.37-2.074-4.254-2.127c-0.941,0-1.862,0.155-2.762,0.464"/>
						
							<path fill="none" stroke="#373535" stroke-width="1.5" stroke-linecap="round" stroke-linejoin="round" stroke-miterlimit="3" d="
							M248.951,106.669l0.062-0.048c0.335-0.426,0.571-0.757,0.707-0.991l0.832-1.151"/>
						
							<path fill="none" stroke="#373535" stroke-width="1.5" stroke-linecap="round" stroke-linejoin="round" stroke-miterlimit="3" d="
							M243.631,113.561c-0.314,0.107-0.774,0.283-1.382,0.528c-0.753,0.277-1.318,0.469-1.695,0.576"/>
						
							<path fill="none" stroke="#373535" stroke-width="1.5" stroke-linecap="round" stroke-linejoin="round" stroke-miterlimit="3" d="
							M243.678,113.561c0.262-0.096,0.69-0.288,1.287-0.575c1.192-0.608,2.129-1.423,2.81-2.447
							c0.732-1.162,1.125-2.436,1.177-3.822"/>
						
							<path fill="none" stroke="#373535" stroke-width="1.5" stroke-linecap="round" stroke-linejoin="round" stroke-miterlimit="3" d="
							M238.498,111.418c1.716,0.053,3.223-0.123,4.521-0.527c2.312-0.725,4.29-2.116,5.933-4.174"/>
						
							<path fill="none" stroke="#373535" stroke-width="1.5" stroke-linecap="round" stroke-linejoin="round" stroke-miterlimit="3" d="
							M240.554,114.664c-0.261,0.106-0.638,0.224-1.13,0.352c-0.408,0.107-1.025,0.251-1.852,0.432"/>
						
							<line fill="none" stroke="#373535" stroke-width="1.5" stroke-linecap="round" stroke-linejoin="round" stroke-miterlimit="3" x1="235.469" y1="111.258" x2="236.96" y2="105.518"/>
						
							<line fill="none" stroke="#373535" stroke-width="1.5" stroke-linecap="round" stroke-linejoin="round" stroke-miterlimit="3" x1="232.706" y1="110.539" x2="235.469" y2="111.322"/>
						
							<line fill="none" stroke="#373535" stroke-width="1.5" stroke-linecap="round" stroke-linejoin="round" stroke-miterlimit="3" x1="235.579" y1="103.743" x2="232.706" y2="110.539"/>
						
							<line fill="none" stroke="#373535" stroke-width="1.5" stroke-linecap="round" stroke-linejoin="round" stroke-miterlimit="3" x1="238.498" y1="111.418" x2="235.469" y2="111.322"/>
						
							<line fill="none" stroke="#373535" stroke-width="1.5" stroke-linecap="round" stroke-linejoin="round" stroke-miterlimit="3" x1="239.628" y1="106.557" x2="238.498" y2="111.418"/>
						
							<path fill="none" stroke="#373535" stroke-width="1.5" stroke-linecap="round" stroke-linejoin="round" stroke-miterlimit="3" d="
							M238.655,129.807c1.015-7.003,1.611-11.529,1.789-13.576c0.042-0.107,0.062-0.267,0.062-0.48v-0.048
							c0.031-0.075,0.047-0.16,0.047-0.256c0.053-0.373,0.053-0.634,0-0.784"/>
						
							<line fill="none" stroke="#373535" stroke-width="1.5" stroke-linecap="round" stroke-linejoin="round" stroke-miterlimit="3" x1="237.572" y1="115.448" x2="233.837" y2="116.535"/>
						
							<polyline fill="none" stroke="#373535" stroke-width="1.5" stroke-linecap="round" stroke-linejoin="round" stroke-miterlimit="3" points="
							227.73,119.717 231.168,117.639 233.837,116.535 						"/>
						
							<path fill="none" stroke="#373535" stroke-width="1.5" stroke-linecap="round" stroke-linejoin="round" stroke-miterlimit="3" d="
							M233.837,116.535l-1.225,3.134c-0.429,1.077-1.183,2.873-2.261,5.389c-1.694,4.03-3.776,7.996-6.246,11.897
							c-2.428,3.753-5.06,7.255-7.896,10.506"/>
						
							<path fill="none" stroke="#373535" stroke-width="1.5" stroke-linecap="round" stroke-linejoin="round" stroke-miterlimit="3" d="
							M243.427,121.444c0.031-2.473,0.062-4.142,0.094-5.005c0.031-0.213,0.047-0.496,0.047-0.847
							c0.073-0.938,0.095-1.615,0.063-2.031"/>
						
							<line fill="none" stroke="#373535" stroke-width="1.5" stroke-linecap="round" stroke-linejoin="round" stroke-miterlimit="3" x1="232.55" y1="138.778" x2="237.572" y2="115.448"/>
						
							<path fill="none" stroke="#373535" stroke-width="1.5" stroke-linecap="round" stroke-linejoin="round" stroke-miterlimit="3" d="
							M191.302,164.747c0.251-0.757,0.047-1.471-0.612-2.143c-0.617-0.693-1.454-1.061-2.512-1.104c0-0.032-0.016-0.032-0.047,0
							l-1.538-0.304c-0.513-0.117-1.214-0.347-2.104-0.688c-0.575-0.203-1.261-0.549-2.056-1.039
							c-0.304-0.246-0.544-0.422-0.722-0.528c-0.23-0.17-0.398-0.309-0.503-0.416c-0.69,0-1.512-0.037-2.464-0.111
							c-0.701-0.054-1.366-0.155-1.993-0.304c-0.388,0.053-0.732-0.054-1.036-0.32c-0.764-0.586-1.413-1.162-1.946-1.727
							l-0.77-0.928h-0.408c-0.104-0.043-0.203-0.112-0.298-0.208c-0.304-0.629-0.304-1.327,0-2.095
							c0.732-1.642,1.753-3.103,3.061-4.381c1.308-1.279,2.978-2.666,5.007-4.158c3.14-2.303,6.001-3.912,8.586-4.829
							c3.432-1.215,6.676-3.497,9.731-6.844c0.606-0.598,1.192-1.327,1.758-2.191l11.112-4.958"/>
						
							<path fill="none" stroke="#373535" stroke-width="1.5" stroke-linecap="round" stroke-linejoin="round" stroke-miterlimit="3" d="
							M208.018,137.435c3.809-2.462,7.293-5.005,10.453-7.627c3.024-2.516,5.702-5.335,8.036-8.459
							c0.533-0.682,0.941-1.226,1.224-1.631"/>
						
							<line fill="none" stroke="#373535" stroke-width="1.5" stroke-linecap="round" stroke-linejoin="round" stroke-miterlimit="3" x1="210.419" y1="126.673" x2="211.549" y2="125.474"/>
						
							<path fill="none" stroke="#373535" stroke-width="1.5" stroke-linecap="round" stroke-linejoin="round" stroke-miterlimit="3" d="
							M211.549,125.474c2.95-1.46,6.063-2.681,9.339-3.662c2.71-0.874,4.468-1.429,5.273-1.663h0.048
							c0.68-0.181,1.188-0.325,1.521-0.432"/>
						
							<path fill="none" stroke="#373535" stroke-width="1.5" stroke-linecap="round" stroke-linejoin="round" stroke-miterlimit="3" d="
							M200.013,164.684l1.852-0.256v-0.672c-1.183-1.269-2.191-2.09-3.029-2.463l-0.455,0.528"/>
						
							<polyline fill="none" stroke="#373535" stroke-width="1.5" stroke-linecap="round" stroke-linejoin="round" stroke-miterlimit="3" points="
							196.685,164.843 198.945,166.106 200.53,165.835 200.53,165.163 200.013,164.684 						"/>
						
							<path fill="none" stroke="#373535" stroke-width="1.5" stroke-linecap="round" stroke-linejoin="round" stroke-miterlimit="3" d="
							M198.38,161.821c0-0.075-0.016-0.112-0.047-0.112c-0.628-1.396-1.789-2.388-3.484-2.975l-0.628-0.159
							c-1.904-0.48-3.798-0.342-5.682,0.415"/>
						
							<path fill="none" stroke="#373535" stroke-width="1.5" stroke-linecap="round" stroke-linejoin="round" stroke-miterlimit="3" d="
							M200.013,164.684l-1.178-0.928c-0.041-0.693-0.193-1.338-0.455-1.935"/>
						
							<path fill="none" stroke="#373535" stroke-width="1.5" stroke-linecap="round" stroke-linejoin="round" stroke-miterlimit="3" d="
							M196.685,164.843l-0.204,0.624c0-0.032-0.036-0.048-0.109-0.048c-0.073-0.054-0.346-0.176-0.816-0.368
							c-0.544,0.043-1.088,0.043-1.632,0l-2.417-0.256c-0.032-0.031-0.1-0.048-0.204-0.048"/>
						
							<polyline fill="none" stroke="#373535" stroke-width="1.5" stroke-linecap="round" stroke-linejoin="round" stroke-miterlimit="3" points="
							188.539,158.99 194.127,160.302 196.685,164.843 						"/>
						
							<line fill="none" stroke="#373535" stroke-width="1.5" stroke-linecap="round" stroke-linejoin="round" stroke-miterlimit="3" x1="189.967" y1="164.428" x2="191.302" y2="164.747"/>
						
							<path fill="none" stroke="#373535" stroke-width="1.5" stroke-linecap="round" stroke-linejoin="round" stroke-miterlimit="3" d="
							M189.198,165.531l0.109,0.623c-0.104,0.032-0.277,0.064-0.518,0.096l-1.287,0.16l-1.381-0.096
							c-0.45-0.054-1.01-0.176-1.68-0.368c-0.251-0.128-0.56-0.25-0.926-0.367"/>
						
							<path fill="none" stroke="#373535" stroke-width="1.5" stroke-linecap="round" stroke-linejoin="round" stroke-miterlimit="3" d="
							M191.302,164.747c-0.126,0.192-0.246,0.347-0.361,0.464c-0.45,0.32-1.03,0.427-1.742,0.32"/>
						
							<line fill="none" stroke="#373535" stroke-width="1.5" stroke-linecap="round" stroke-linejoin="round" stroke-miterlimit="3" x1="211.549" y1="125.474" x2="228.343" y2="108.651"/>
						
							<line fill="none" stroke="#373535" stroke-width="1.5" stroke-linecap="round" stroke-linejoin="round" stroke-miterlimit="3" x1="237.572" y1="115.448" x2="238.498" y2="111.418"/>
						
							<line fill="none" stroke="#373535" stroke-width="1.5" stroke-linecap="round" stroke-linejoin="round" stroke-miterlimit="3" x1="233.837" y1="116.535" x2="235.469" y2="111.322"/>
						
							<line fill="none" stroke="#373535" stroke-width="1.5" stroke-linecap="round" stroke-linejoin="round" stroke-miterlimit="3" x1="232.706" y1="110.539" x2="227.73" y2="119.717"/>
						
							<line fill="none" stroke="#373535" stroke-width="1.5" stroke-linecap="round" stroke-linejoin="round" stroke-miterlimit="3" x1="228.343" y1="108.651" x2="232.706" y2="110.539"/>
						
							<line fill="none" stroke="#373535" stroke-width="1.5" stroke-linecap="round" stroke-linejoin="round" stroke-miterlimit="3" x1="232.863" y1="104.846" x2="228.343" y2="108.651"/>
						
							<path fill="none" stroke="#373535" stroke-width="1.5" stroke-linecap="round" stroke-linejoin="round" stroke-miterlimit="3" d="
							M164.399,78.829c-3.369-0.213-6.069-0.89-8.1-2.031c-0.513-0.309-1.563-1.039-3.154-2.19
							c-1.287-0.928-2.375-1.594-3.265-1.999c-0.575-0.256-1.669-0.805-3.28-1.647c-1.706-0.789-3.479-1.359-5.321-1.711
							c-5.482-1.056-12.321-0.379-20.514,2.031c-10.495,3.091-19.468,6.961-26.918,11.609c-8.664,5.416-16.125,12.376-22.382,20.884
							c-5.033,6.833-8.852,13.726-11.458,20.676c-0.649,1.738-1.517,4.089-2.605,7.052c-0.983,2.399-2.124,4.478-3.422,6.237
							c-0.24,0.319-0.581,0.805-1.02,1.455c-0.429,0.554-0.879,0.976-1.35,1.263c-0.732,0.438-1.653,0.821-2.762,1.151h-0.157
							c-1.35,0.395-2.82,0.688-4.411,0.88c-1.653,0.139-2.49,0.208-2.511,0.208c-0.199,0.042-0.523,0.08-0.973,0.111h-0.204"/>
						
							<path fill="none" stroke="#373535" stroke-width="1.5" stroke-linecap="round" stroke-linejoin="round" stroke-miterlimit="3" d="
							M164.399,78.829c-2.166,3.454-2.731,7.217-1.695,11.29c0.45,1.812,1.318,3.379,2.605,4.702c0.9,0.853,1.638,1.844,2.213,2.974
							c0.565,1.151,1.245,2.265,2.04,3.342c0.325,0.384,0.686,0.73,1.084,1.04c2.908,2.132,6.204,3.022,9.888,2.67
							c2.082,0,3.777-0.821,5.085-2.462"/>
						
							<path fill="none" stroke="#373535" stroke-width="1.5" stroke-linecap="round" stroke-linejoin="round" stroke-miterlimit="3" d="
							M181.868,90.63c0.053,0.234,0.142,0.496,0.268,0.784l0.345,0.896c0.042,0.032,0.062,0.064,0.062,0.096
							c0.649,1.385,1.555,2.521,2.716,3.406c1.36,0.917,2.04,1.961,2.04,3.134c0,0.277-0.031,0.586-0.094,0.927
							c-0.042,0.171-0.126,0.331-0.251,0.48l-0.77,1.199"/>
						
							<path fill="none" stroke="#373535" stroke-width="1.5" stroke-linecap="round" stroke-linejoin="round" stroke-miterlimit="3" d="
							M188.539,158.99l-0.612-0.144l-0.157-0.16c0,0.032-0.016,0.048-0.047,0.048c0,0.107-0.021,0.192-0.062,0.256
							c0,0.107-0.016,0.197-0.047,0.272l-4.207-2.767c-1.59-1.269-2.668-2.873-3.233-4.813c-0.083-0.267-0.251-0.943-0.502-2.03
							c-0.115-0.555-0.151-1.045-0.109-1.472c0.062-0.437,0.198-0.906,0.407-1.407l1.759-3.454"/>
						
							<path fill="none" stroke="#373535" stroke-width="1.5" stroke-linecap="round" stroke-linejoin="round" stroke-miterlimit="3" d="
							M178.431,159.934h2.057c0.963,0.491,1.7,0.837,2.213,1.04c0.251,0.085,0.712,0.277,1.381,0.575
							c0.848,0.32,1.481,0.565,1.899,0.735c1.664,0.704,2.736,1.786,3.218,3.247"/>
						
							<path fill="none" stroke="#373535" stroke-width="1.5" stroke-linecap="round" stroke-linejoin="round" stroke-miterlimit="3" d="
							M128.786,134.845c1.412,7.974,4.75,13.821,10.014,17.542c1.737,1.226,3.693,2.217,5.87,2.974
							c2.093,0.587,3.391,0.96,3.893,1.12c1.434,0.458,3.364,0.671,5.792,0.64c2.26-0.021,4.07-0.229,5.431-0.624
							c1.37,1.865,3.061,3.48,5.069,4.845c0.513,0.353,1.418,0.821,2.715,1.407c5.002,1.674,10.146,2.719,15.429,3.135
							c0.241-0.171,0.414-0.272,0.519-0.304"/>
						
							<path fill="none" stroke="#373535" stroke-width="1.5" stroke-linecap="round" stroke-linejoin="round" stroke-miterlimit="3" d="
							M183.517,165.579c0.104-0.106,0.188-0.267,0.251-0.48c0.157-0.512,0.005-1.034-0.455-1.566
							c-1.412-1.652-3.056-2.66-4.929-3.022c-0.628-0.106-1.208-0.16-1.742-0.16"/>
						
							<path fill="none" stroke="#373535" stroke-width="1.5" stroke-linecap="round" stroke-linejoin="round" stroke-miterlimit="3" d="
							M97.913,107.388c1.287,0.416,3.317,2.729,6.09,6.94c2.825,4.296,4.74,8.06,5.745,11.29l1.994,6.908"/>
						
							<path fill="none" stroke="#373535" stroke-width="1.5" stroke-linecap="round" stroke-linejoin="round" stroke-miterlimit="3" d="
							M139.537,160.558c-0.418-0.245-0.815-0.438-1.192-0.575l-3.375-1.567l2.512-0.88"/>
						
							<path fill="none" stroke="#373535" stroke-width="1.5" stroke-linecap="round" stroke-linejoin="round" stroke-miterlimit="3" d="
							M139.537,160.558h0.204c0.031-0.032,0.062-0.048,0.095-0.048c0.136,0,0.24-0.017,0.313-0.048l0.706-0.16
							c0.251-0.096,0.424-0.219,0.519-0.368c-0.754-1.172-2.051-1.972-3.893-2.398"/>
						
							<path fill="none" stroke="#373535" stroke-width="1.5" stroke-linecap="round" stroke-linejoin="round" stroke-miterlimit="3" d="
							M134.562,163.068l0.361,0.367c0.335-0.042,0.675-0.042,1.021,0c1.841,0,3.223,0.017,4.144,0.049
							c0.533-0.256,0.931-0.48,1.192-0.672l0.048-0.735c-0.481-0.491-0.843-0.821-1.084-0.992c-0.114-0.127-0.235-0.213-0.36-0.256
							c-0.031-0.042-0.079-0.08-0.142-0.111c0-0.032-0.021-0.048-0.062-0.048c-0.031-0.032-0.062-0.048-0.094-0.048l-0.048-0.064"/>
						
							<line fill="none" stroke="#373535" stroke-width="1.5" stroke-linecap="round" stroke-linejoin="round" stroke-miterlimit="3" x1="137.481" y1="157.535" x2="143.43" y2="155.393"/>
						
							<path fill="none" stroke="#373535" stroke-width="1.5" stroke-linecap="round" stroke-linejoin="round" stroke-miterlimit="3" d="
							M134.562,163.068h2.716c-0.324-0.288-0.77-0.603-1.334-0.943l-0.816-0.464h-0.062c-1.444-0.693-2.962-1.039-4.552-1.039"/>
						
							<path fill="none" stroke="#373535" stroke-width="1.5" stroke-linecap="round" stroke-linejoin="round" stroke-miterlimit="3" d="
							M126.714,163.181c0.858,0.17,2.177,0.362,3.956,0.575c1.318,0.043,2.616-0.187,3.892-0.688"/>
						
							<polyline fill="none" stroke="#373535" stroke-width="1.5" stroke-linecap="round" stroke-linejoin="round" stroke-miterlimit="3" points="
							118.615,160.829 118.725,161.134 126.306,163.116 						"/>
						
							<polyline fill="none" stroke="#373535" stroke-width="1.5" stroke-linecap="round" stroke-linejoin="round" stroke-miterlimit="3" points="
							106.671,161.98 107.754,162.748 107.754,164.06 105.604,164.268 						"/>
						
							<path fill="none" stroke="#373535" stroke-width="1.5" stroke-linecap="round" stroke-linejoin="round" stroke-miterlimit="3" d="
							M102.213,161.757c1.392,0.149,2.877,0.224,4.458,0.224"/>
						
							<path fill="none" stroke="#373535" stroke-width="1.5" stroke-linecap="round" stroke-linejoin="round" stroke-miterlimit="3" d="
							M134.97,158.415c-1.758,0.575-6.456,1.316-14.094,2.223c-7.053,0.831-11.788,1.279-14.205,1.343"/>
						
							<path fill="none" stroke="#373535" stroke-width="1.5" stroke-linecap="round" stroke-linejoin="round" stroke-miterlimit="3" d="
							M179.875,110.427c0.575,1.087,1.188,3.134,1.837,6.14c0.669,3.103,1.37,5.395,2.103,6.876
							c1.203,2.431,2.962,4.222,5.274,5.373c2.804,1.386,6.586,1.924,11.348,1.615"/>
					</g>
				</g>
			</g>
		</g>
	</g>
</g>
</svg>
