<?xml version="1.0" encoding="utf-8"?>
<!-- Generator: Adobe Illustrator 17.0.1, SVG Export Plug-In . SVG Version: 6.00 Build 0)  -->
<!DOCTYPE svg PUBLIC "-//W3C//DTD SVG 1.1//EN" "http://www.w3.org/Graphics/SVG/1.1/DTD/svg11.dtd">
<svg version="1.1" id="Layer_1" xmlns="http://www.w3.org/2000/svg" xmlns:xlink="http://www.w3.org/1999/xlink" x="0px" y="0px"
	 width="256.826px" height="198.855px" viewBox="0 0 256.826 198.855" enable-background="new 0 0 256.826 198.855"
	 xml:space="preserve">
<g>
	<g id="Layer_1_1_">
		<g>
			<g id="Layer_1_3_">
				<g>
					<g>
						<path fill-rule="evenodd" clip-rule="evenodd" fill="#FFFFFF" d="M148.197,36.273c-1.553-1.711-3.61-3.421-6.172-5.129
							l-0.087-0.087l-0.347-0.174c-2.386-1.265-4.763-2.286-7.129-3.064l1.521,0.456c4.665,1.536,8.548,3.984,11.648,7.345
							L148.197,36.273z"/>
						<path fill-rule="evenodd" clip-rule="evenodd" fill="#FFFFFF" d="M153.76,46.357l-2.825-6.259
							C152.123,42.097,153.064,44.183,153.76,46.357z"/>
						<path fill-rule="evenodd" clip-rule="evenodd" fill="#FFFFFF" d="M174.797,134.632l-0.391-0.826
							c0.493,0.261,0.913,0.434,1.261,0.522L174.797,134.632z"/>
						<polygon fill-rule="evenodd" clip-rule="evenodd" fill="#FFFFFF" points="60.572,0.806 61.094,1.241 61.137,1.327 
							61.311,1.545 61.485,1.892 						"/>
						<path fill-rule="evenodd" clip-rule="evenodd" fill="#FFFFFF" d="M59.964,30.187v-0.13l0.131,0.087l-0.348,0.912h-0.043
							C59.79,30.593,59.877,30.303,59.964,30.187z"/>
						<path fill-rule="evenodd" clip-rule="evenodd" fill="#FFFFFF" d="M63.31,6.847V6.717l-0.043-0.304l-0.391-1.521
							c-0.348-1.131-0.783-2.129-1.304-2.999l4.173,6.172c0.55,1.159,1.173,2.608,1.869,4.346c0.232,0.522,0.42,1.13,0.565,1.826
							l0.521,4.086v2.303c-0.058,1.333-0.13,2.362-0.217,3.086c-0.348,1.333-0.942,3.014-1.783,5.042l-2.042,4.216
							c-1.304,2.405-2.42,4.39-3.347,5.955c-0.956,1.68-2.028,3.969-3.217,6.867l-2.26,5.78l3.869-20.515h0.043l0.348-0.912
							l-0.131-0.087l2.782-13.344v-0.043l0.043-0.088l0.218-1.391v-0.13c0.261-1.826,0.42-3.26,0.478-4.303v-0.131
							c0.029-0.666,0.014-1.536-0.044-2.608l-0.087-0.956V6.978L63.31,6.847z"/>
						<polygon fill-rule="evenodd" clip-rule="evenodd" fill="#FFFFFF" points="16.63,139.978 16.934,139.804 18.195,141.413 						
							"/>
						<g>
							<g>
								
									<path fill-rule="evenodd" clip-rule="evenodd" fill="#FFFFFF" stroke="#231F20" stroke-width="1.5" stroke-miterlimit="10" d="
									M10.502,138.588c1.217,0,2.579-0.232,4.086-0.696c-1.739-1.913-3.869-3.188-6.39-3.825l-0.434-0.087
									c-0.609-0.145-1.072-0.115-1.391,0.087c-0.405,0.203-0.724,0.594-0.956,1.173c-0.318,0.782-0.246,1.405,0.218,1.869
									l0.304,0.174C7.3,138.066,8.821,138.501,10.502,138.588z M151.717,149.932c-1.101-0.377-3.028-1.217-5.78-2.52l-0.826-0.391
									c-3.13-1.449-5.042-2.39-5.737-2.825l-4.52-2.783c-2.551,3.188-2.607,7.548-0.174,13.083l1.174,0.739
									c3.158,1.883,6.649,3.13,10.475,3.739c3.245,0.492,6.693,0.477,10.344-0.044c2.579-0.377,6.115-1.854,10.606-4.433
									c-0.551-0.087-2.333-0.522-5.346-1.304l-5.477-1.609C155.064,151.178,153.485,150.627,151.717,149.932z M175.014,143.064
									l0.434-1.912h-1.217c-4.433-0.232-6.751-0.377-6.954-0.434c0.319,0.232,2.65,0.941,6.998,2.129
									C174.565,142.876,174.811,142.949,175.014,143.064z M169.711,130.678l0.131,0.478c0.753-0.204,1.506-0.261,2.259-0.175
									l-0.39-0.26c-1.159-0.696-2.362-0.941-3.607-0.739l-1.173,0.304C167.857,130.547,168.784,130.678,169.711,130.678z
									 M174.405,133.806l0.391,0.826l0.87-0.304c-0.261-0.058-0.493-0.145-0.696-0.26L174.405,133.806z M141.59,30.883
									l0.347,0.174l0.087,0.087c2.607,1.739,4.694,3.477,6.258,5.216c0.725,0.927,1.608,2.173,2.653,3.738l2.042,4.433
									c0.551,1.304,0.812,2.057,0.783,2.26l0.131-0.087c0.52,1.941,0.854,3.883,0.999,5.824c0.377,6.172-0.334,13.025-2.13,20.558
									c-1.188,4.869-3.114,9.649-5.78,14.343c-2.55,4.579-5.042,8.49-7.476,11.736l-3.694,4.868l1.13,2.564
									c1.623,3.448,3.028,5.984,4.217,7.606c1.796,2.492,3.925,4.796,6.388,6.912c3.709,3.158,7.303,5.404,10.779,6.736
									l2.304,0.869l1.912-1.476c1.363-1.044,3.028-1.71,4.999-2c1.971-0.551,3.956-0.406,5.955,0.434l0.739,0.391
									c1.71,0.926,3.115,2.217,4.217,3.868c1.448-0.288,3.014-0.767,4.693-1.434c4.81-2.057,9.012-4.578,12.605-7.562
									c3.594-3.043,6.723-6.331,9.388-9.866c1.855-2.492,3.477-5.65,4.869-9.475c-1.333,0.435-2.579,0.247-3.737-0.565
									c2.231-0.927,3.042-2.506,2.433-4.737c-0.926-1.536-2.014-3.202-3.26-4.998c-0.55-1.826-0.071-3.216,1.434-4.173
									c1.536-0.956,3.058-1.115,4.564-0.478l0.174,0.087c1.101,0.696,1.999,1.434,2.695,2.217
									c2.173,2.405,3.042,5.969,2.609,10.693c-0.435,4.81-1.753,9.562-3.956,14.256c-2.55,5.534-5.984,10.576-10.301,15.125
									c-4.26,4.52-9.244,7.866-14.952,10.039c-2.115,0.725-4.158,1.232-6.129,1.521c-0.087,1.739-0.188,2.941-0.304,3.608
									c2.318,0.347,5.157,0.536,8.519,0.565c4.375-0.028,10.069-0.739,17.081-2.13c6.955-1.42,13.778-4.013,20.472-7.78
									c3.013-1.767,5.491-3.81,7.432-6.129c1.913-2.405,3.536-5.432,4.867-9.084c0.898-3.101,2.029-5.723,3.391-7.866
									c1.275-2.174,3.433-3.173,6.476-3c1.014,0.116,1.941,0.363,2.782,0.739c2,0.725,2.883,2.102,2.652,4.129
									c-0.087,0.957-0.319,1.957-0.696,3l-0.13,0.434c-0.29,3.275,0.014,5.144,0.913,5.607c1.043,0.579,1.26,0.811,0.652,0.696
									c-2.173,0.29-3.926-0.059-5.259-1.044c-1.304-1.071-1.652-2.825-1.043-5.259c0.492-2.288,0.449-3.636-0.131-4.042
									l-0.696-0.391c-1.448-0.523-2.593,0.681-3.433,3.607c-0.869,2.897-1.406,4.926-1.609,6.085
									c-0.377,1.623-1.014,3.796-1.912,6.52c-1.159,3.275-3.999,7.374-8.519,12.301l-1.609,1.565v0.043
									c-0.318,0.319-0.739,0.667-1.26,1.043l-13.083,6.737c-1.216,0.464-3.071,1.072-5.563,1.826l-1.825,0.435
									c-0.929,0.173-1.608,0.361-2.044,0.565h-0.173c-0.348,0.174-0.898,0.319-1.652,0.434l-0.348,0.087
									c-0.434,0.058-0.724,0.072-0.869,0.043h-0.043l-7.954,1.348l-1.912,0.086l-0.914-0.086h-0.39v0.086l-5.65,0.304v0.087
									l-2.956,0.087c-1.826,0-2.826-0.028-2.999-0.087l-4.738-0.217c-1.448,2.115-2.767,3.782-3.955,4.998
									c-4.172,4.056-9.664,6.795-16.473,8.216c-6.722,1.506-13.256,1.637-19.602,0.39l-0.522-0.13l0.827,1.13
									c0.579,1.477,1.275,2.854,2.086,4.129c1.217,2,2.666,3.796,4.346,5.39c2.637,2.579,5.68,4.607,9.128,6.085
									c3.332,1.304,7.055,2.521,11.171,3.652c2.926,0.839,5.984,1.492,9.171,1.956c4.086,0.782,8.099,0.203,12.04-1.739
									l6.042-3.303c1.303-1.072,2.433-2.217,3.39-3.434c2.491-3.157,3.361-6.723,2.607-10.692
									c-0.232-0.956-0.653-1.739-1.261-2.347c-1.303-1.449-2.94-1.825-4.912-1.13c-2.288,0.696-3.057,2.115-2.303,4.26
									l0.434,0.086c0.84-2.491,1.623-2.52,2.347-0.086c0.174,1.39-0.275,2.607-1.347,3.65c-0.202,0.232-0.449,0.377-0.739,0.434
									c-1.449,0.319-2.666,0.029-3.65-0.869c-2.087-1.681-2.492-3.752-1.218-6.216c0.261-0.579,0.653-1.173,1.174-1.782
									c2.869-3.071,6.418-4.042,10.649-2.912c0.839,0.29,1.594,0.724,2.26,1.303c1.448,1.362,2.448,3.014,2.999,4.956
									c1.043,4.056,0.681,7.983-1.086,11.778c-1.71,3.68-4.318,6.665-7.823,8.953l-5.303,2.87
									c-1.971,0.724-3.696,1.26-5.173,1.607c-1.158,0.29-2.014,0.478-2.564,0.566c-3.767,0.666-7.635,0.884-11.605,0.652
									c-3.912-0.377-7.766-1.043-11.562-1.999c-3.882-0.928-7.491-2.202-10.822-3.826c-2.926-1.333-5.737-3.173-8.432-5.52
									c-0.957-0.839-1.898-1.737-2.826-2.695c-0.55-0.55-1.347-1.434-2.39-2.65c-0.434-0.493-0.956-1.159-1.564-2l-2.869-4.042
									c-2.057-3.101-4.027-6.693-5.911-10.78l-0.913-1.999c-0.145-0.173-0.29-0.29-0.434-0.347
									c-2.232-1.768-4.187-3.913-5.868-6.433c-2.086,2.724-4.375,5.491-6.867,8.302l-1.13,1.26
									c-2.695,2.898-5.302,5.491-7.823,7.78c-2.637,2.29-5.491,4.506-8.563,6.65c-3.158,2.26-6.461,4.259-9.91,5.998
									c-3.477,1.681-6.882,3.058-10.214,4.129c-2.724,0.812-5.346,1.391-7.867,1.739l-9.736,1.391
									c-3.419,0.406-7.056,0.666-10.91,0.783l-4.955-0.305l-4.694-1.086l-1.696-0.609c-1.072-0.405-2.448-1.043-4.129-1.913
									c-3.448-1.941-6.36-4.535-8.736-7.779c-0.58-0.783-0.971-1.58-1.174-2.39c-1.159-3.651-1.058-7.346,0.304-11.083
									c1.072-2.811,3.086-4.579,6.041-5.303c2.463-0.521,4.55,0.072,6.259,1.782c1.304,1.247,1.869,2.782,1.696,4.607v1.434
									c0.174,1.333-0.058,2.448-0.696,3.347l-0.261,0.434l-1.869,0.304c-1.014-0.232-1.738-0.855-2.172-1.87
									c-0.29-0.723-0.421-1.463-0.391-2.216l0.13-0.956c-2.202-3.39-3.68-2.651-4.434,2.216l-0.173,1.131
									c0.376,5.157,2.897,8.822,7.562,10.995c4.81,2.115,10.128,2.941,15.952,2.478c10.866-1.159,21.385-4.013,31.556-8.563
									c9.967-4.463,18.443-16.632,25.426-36.509c-3.304,2.463-7.65,4.925-13.039,7.388c-7.273,3.42-16.749,5.433-28.426,6.043
									c-5.216,0.231-10.62-0.204-16.212-1.304l-3.999-0.913c-5.1-1.362-9.49-3.13-13.169-5.303l-4.086-2.869
									c-1.391-1.072-2.738-2.231-4.042-3.477l-1.261-1.608l-0.304,0.174c-1.159,0.811-2.275,1.362-3.347,1.652l-0.869,0.261
									l-1.913,0.13c-2.579,0-4.766-0.478-6.563-1.434l-0.392-0.174c-1.014-0.637-1.71-1.433-2.086-2.39l-0.347-0.913
									c-0.32-1.158-0.392-2.173-0.218-3.042c0.232-1.421,1.014-2.594,2.347-3.52l0.304-0.175c0.753-0.463,1.594-0.796,2.521-0.999
									c0.318-0.087,0.854-0.13,1.608-0.13c2.695-0.087,5.274,0.594,7.736,2.043l10.605,7.345c1.304,0.783,2.593,1.478,3.869,2.087
									l1.13,0.434c2.289,0.956,4.912,1.695,7.867,2.217c0.84,0.203,2.376,0.433,4.607,0.695c2.897,0.261,5.462,0.247,7.694-0.043
									c10.141-1.391,17.269-2.826,21.384-4.303l3.086-1.173c1.912-0.753,2.811-1.159,2.695-1.218v-0.13l-1.261,0.609l-0.174-0.391
									h-3.433c-3.217,0.059-7.042-0.13-11.475-0.564c-4.52-0.434-8.882-1.304-13.082-2.609c-1.883-0.55-3.694-1.26-5.433-2.13
									c-3.071-1.506-6.462-3.636-10.171-6.388c-1.42-1.102-2.391-1.913-2.913-2.434c-3.506-3.13-6.49-7.099-8.953-11.909
									l-1.652-3.477c-1.304-3.043-2.057-6.274-2.26-9.693c-0.29-3.969,0.087-8.374,1.13-13.213
									c0.493-3.477,1.797-6.577,3.912-9.301c1.015-1.362,2.376-2.289,4.086-2.781c2.288-0.522,4.49-0.29,6.606,0.695
									c1.564,0.666,2.897,1.738,3.999,3.216c1.304,1.709,1.55,3.563,0.738,5.563c-0.58,1.217-1.086,2.086-1.521,2.607
									c-1.448,2.405-3.723,5.158-6.823,8.258c1.565-3.274,2.593-6.027,3.085-8.258c0.551-1.941,0.493-3.941-0.174-5.998
									c-0.405-1.101-1.158-1.434-2.26-0.999c-0.899,0.29-1.667,0.913-2.304,1.869c-0.985,1.652-1.579,3.361-1.782,5.128
									c-0.29,2.028-0.463,4.303-0.521,6.824c0.028,2.144,0.275,4.274,0.739,6.388c0.898,4.289,2.695,8.056,5.39,11.301
									c3.767,4.897,8.142,8.505,13.126,10.823c4.753,2.232,8.997,3.491,12.735,3.782c3.419,0.377,7.142,0.405,11.17,0.087
									c4.144-0.291,7.766-0.957,10.866-2l3.912-1.391v-0.043l-0.173-0.434l-3.695-1.782c-0.753-0.348-1.463-0.739-2.13-1.174
									c-1.942-1.159-4.115-2.811-6.52-4.955l-0.347-0.261c-3.101-2.752-5.94-6.041-8.519-9.866
									c-2.434-3.651-4.448-8.461-6.042-14.43l-1.261-7.345v-0.131c-0.405-3.651-0.594-7.229-0.565-10.735
									c0.029-1.883,0.131-4.332,0.304-7.346c0.203-3.767,0.58-7.287,1.13-10.561v-0.174l2.26-5.78
									c1.188-2.898,2.26-5.187,3.217-6.867c0.927-1.565,2.043-3.55,3.347-5.955l2.042-4.216c0.841-2.028,1.435-3.709,1.783-5.042
									c-0.116,1.391-0.333,3.13-0.652,5.216c-0.493,3.418-0.869,5.882-1.131,7.388c-1.622,9.04-2.419,16.14-2.39,21.297
									l0.087,4.694c0.116,3.651,0.42,7.245,0.913,10.779c0.667,5.94,1.956,10.866,3.868,14.778
									c1.912,3.883,4.158,7.331,6.737,10.344c3.68,3.999,7.505,6.665,11.475,7.997c3.999,1.449,6.896,1.942,8.692,1.478
									c2.202-0.725,3.695-2.115,4.477-4.173c0.783-1.941,1.174-3.332,1.174-4.172c0.029-0.116,0-0.493-0.087-1.131
									c-0.347-1.999-1.753-7.446-4.216-16.342c-0.725-2.608-1.29-5.057-1.695-7.346l-0.521-2.694V71.74l-0.044-0.087l-0.478-5.042
									c-0.116-1.477-0.116-2.999,0-4.563l0.217-3.434c0.116-1.478,0.348-3.26,0.695-5.346c0.348-1.709,0.797-3.564,1.348-5.563
									l0.043-0.174c0.782-2.695,1.826-5.128,3.129-7.302c0.753-1.362,1.898-2.898,3.434-4.607l0.173-0.131
									c0-0.086,0.059-0.145,0.174-0.173l0.087-0.131h0.044V35.1c3.158-2.435,5.563-4.115,7.214-5.042l0.218-0.131l2.13-0.999
									c1.97-0.956,3.839-1.667,5.607-2.13l0.043-0.044h0.087c1.333-0.203,2.854-0.333,4.563-0.391l2.564,0.087
									c0.058-0.029,0.102-0.029,0.131,0h0.478l5.868,0.912C135.809,28.174,138.692,29.347,141.59,30.883z"/>
							</g>
							
								<line fill-rule="evenodd" clip-rule="evenodd" fill="#FFFFFF" stroke="#FFFFFF" stroke-width="1.6117" stroke-linecap="round" stroke-linejoin="round" stroke-miterlimit="3" x1="22.237" y1="144.89" x2="23.15" y2="145.586"/>
						</g>
						<polygon fill-rule="evenodd" clip-rule="evenodd" fill="#FFFFFF" points="136.548,169.013 137.069,169.143 137.374,170.143 
													"/>
						
							<path fill-rule="evenodd" clip-rule="evenodd" fill="none" stroke="#373535" stroke-width="1.6117" stroke-linecap="round" stroke-linejoin="round" stroke-miterlimit="3" d="
							M135.636,118.768c0.058,0.203,1.115,1.637,3.172,4.302l0.696,0.914c2.579,3.216,5.955,6.186,10.128,8.91
							c4.172,2.346,7.896,4.157,11.17,5.433l0.303,0.086l0.218,0.131l0.217,0.043l5.737,2.13c0.203,0.058,2.52,0.203,6.954,0.434
							h1.217c0.146-1.275,0.189-2.42,0.13-3.434c-0.115-1.13-0.377-2.158-0.782-3.086l-0.391-0.826l-0.13-0.13
							c-0.637-0.115-1.245-0.115-1.826,0c-1.333,0.492-2.506,1.231-3.52,2.216c-1.015,1.044-2.159,1.884-3.434,2.521l-1.086,0.304
							c-1.102,0.145-2.028,0.087-2.782-0.173l-0.826-0.262c-1.159-0.521-2.014-1.274-2.564-2.26
							c-0.261-0.492-0.421-1.129-0.478-1.912c-0.087-0.956,0.159-1.941,0.739-2.955l0.347-0.435c0.465-0.666,1.059-1.333,1.783-2
							l-2.304-0.869c-3.476-1.333-7.07-3.578-10.779-6.736c-2.463-2.115-4.592-4.42-6.388-6.912
							c-1.189-1.622-2.594-4.158-4.217-7.606l-1.13-2.564l3.694-4.868c2.434-3.245,4.926-7.157,7.476-11.736
							c2.666-4.694,4.593-9.475,5.78-14.343c1.796-7.533,2.507-14.386,2.13-20.558c-0.145-1.942-0.478-3.883-0.999-5.824
							l-0.131-0.347l-2.825-6.259c-1.044-1.565-1.927-2.811-2.653-3.738l-0.086-0.087c-1.553-1.711-3.61-3.421-6.172-5.129
							l-0.087-0.087l-0.347-0.174c-2.386-1.265-4.763-2.286-7.129-3.064l-0.347-0.109c-0.393-0.122-0.783-0.237-1.174-0.348
							l-5.868-0.912h-0.478c-0.029-0.029-0.072-0.029-0.131,0l-4.694-0.044c-0.898,0.029-1.709,0.145-2.433,0.348h-0.087
							l-0.043,0.044c-1.769,0.463-3.637,1.174-5.607,2.13l-2.13,0.999c-2.926,1.507-5.404,3.231-7.432,5.173l-0.044,0.087
							l-0.434,0.434c-1.537,1.71-2.681,3.245-3.434,4.607c-1.304,2.174-2.347,4.607-3.129,7.302l-0.043,0.174
							c-0.551,1.999-1,3.854-1.348,5.563c-0.347,2.086-0.579,3.868-0.695,5.346l-0.044,0.522l-0.174,2.912
							c-0.116,1.565-0.116,3.086,0,4.563l0.478,5.042l0.044,0.087v0.088l0.521,2.694c0.406,2.289,0.971,4.738,1.695,7.346
							c3.042,10.924,4.477,16.748,4.303,17.472c0,0.84-0.391,2.231-1.174,4.172c-0.782,2.058-2.274,3.448-4.477,4.173
							c-1.796,0.464-4.693-0.029-8.692-1.478c-3.97-1.333-7.795-3.999-11.475-7.997c-2.579-3.013-4.825-6.461-6.737-10.344
							c-1.912-3.912-3.201-8.837-3.868-14.778c-0.667-5.1-1-10.258-1-15.473c-0.029-5.158,0.768-12.257,2.39-21.297
							c0.261-1.507,0.638-3.97,1.131-7.388c0.319-2.086,0.536-3.825,0.652-5.216c-0.348,1.333-0.942,3.014-1.783,5.042l-2.042,4.216
							c-1.304,2.405-2.42,4.39-3.347,5.955c-0.956,1.68-2.028,3.969-3.217,6.867l-2.26,5.78v0.174
							c-0.811,4.984-1.289,10.953-1.434,17.907c-0.029,3.506,0.16,7.084,0.565,10.735l1.086,6.781l0.174,0.695
							c1.594,5.969,3.607,10.779,6.042,14.43c2.579,3.826,5.418,7.114,8.519,9.866l0.347,0.261c2.405,2.144,4.578,3.795,6.52,4.955
							c0.667,0.435,1.377,0.826,2.13,1.174l3.695,1.782 M134.462,27.819l1.521,0.456c4.665,1.536,8.548,3.984,11.648,7.345
							l0.566,0.652 M153.76,46.357c-0.696-2.174-1.637-4.26-2.825-6.259 M210.003,101.6c-1.391,3.825-3.014,6.983-4.869,9.475
							c-2.665,3.535-5.794,6.823-9.388,9.866c-3.593,2.984-7.795,5.505-12.605,7.562c-1.68,0.667-3.245,1.146-4.693,1.434
							c1.014,1.45,1.81,3.145,2.39,5.086c0.492,1.739,0.739,3.593,0.739,5.563c1.971-0.29,4.013-0.796,6.129-1.521
							c5.708-2.173,10.692-5.519,14.952-10.039c4.317-4.55,7.751-9.591,10.301-15.125c2.202-4.694,3.52-9.447,3.956-14.256
							c0.433-4.724-0.435-8.288-2.609-10.693c-0.696-0.782-1.594-1.521-2.695-2.217l-0.174-0.087
							c-1.507-0.637-3.028-0.478-4.564,0.478c-1.506,0.957-1.984,2.347-1.434,4.173c1.246,1.796,2.334,3.462,3.26,4.998
							c0.609,2.231-0.203,3.81-2.433,4.737C207.424,101.846,208.67,102.035,210.003,101.6l0.565-0.261
							c2.087-1.449,3.145-3.071,3.174-4.868c0.145-1.883-0.161-3.433-0.914-4.65l-1.216-1.913l-1.044-1.217 M178.448,129.938
							c-1.102-1.65-2.507-2.941-4.217-3.868l-0.739-0.391c-1.999-0.841-3.984-0.985-5.955-0.434c-1.971,0.29-3.636,0.956-4.999,2
							l-1.912,1.476 M172.101,130.981c-0.753-0.086-1.506-0.028-2.259,0.175l-0.434,0.13c-1.276,0.695-2.666,1.593-4.173,2.695
							c-0.666,0.464-1.347,0.811-2.043,1.043c-0.696,0.261-1.26,0.101-1.696-0.477c-0.115-0.378-0.028-0.71,0.261-1
							c0.579-0.753,1.304-1.362,2.173-1.826c0.84-0.521,1.839-1,3-1.434l1.173-0.304c1.245-0.203,2.448,0.043,3.607,0.739
							L172.101,130.981c0.523,0.029,1.116,0.175,1.783,0.435c0.579,0.26,1.058,0.652,1.434,1.173
							c0.464,0.58,0.579,1.159,0.348,1.739c-0.348-0.087-0.768-0.26-1.261-0.522 M166.93,130.286
							c0.927,0.261,1.854,0.391,2.781,0.391l2,0.043 M167.278,140.718c0.319,0.232,2.65,0.941,6.998,2.129
							c0.29,0.029,0.536,0.102,0.739,0.217l0.434-1.912 M156.716,151.67l5.216,1.521c3.014,0.783,4.795,1.217,5.346,1.304
							l0.869-0.739h0.043l0.348-0.304l2.087-2.173c1.158-1.363,2.144-2.826,2.955-4.391c0.696-1.448,1.174-2.723,1.434-3.825
							 M156.454,151.583c-1.39-0.405-2.969-0.956-4.737-1.652c-1.101-0.377-3.028-1.217-5.78-2.52l-0.826-0.391
							c-3.13-1.449-5.042-2.39-5.737-2.825l-4.52-2.783c-2.551,3.188-2.607,7.548-0.174,13.083l1.174,0.739
							c3.158,1.883,6.649,3.13,10.475,3.739c3.245,0.492,6.693,0.477,10.344-0.044c2.579-0.377,6.115-1.854,10.606-4.433
							 M14.587,137.892c-1.507,0.464-2.869,0.696-4.086,0.696c-1.68-0.087-3.202-0.521-4.564-1.304l-0.304-0.174
							c-0.463-0.464-0.536-1.087-0.218-1.869c0.406-1.101,1.188-1.521,2.348-1.26C10.546,134.589,12.82,135.892,14.587,137.892
							l2.825-2.043l0.652-0.13c0.521,0.405,0.724,0.971,0.608,1.695c-0.26,1.044-0.84,1.84-1.739,2.39l-0.304,0.174l1.564,1.434
							c1.304,1.247,2.651,2.405,4.042,3.477l4.086,2.869c3.68,2.173,8.069,3.941,13.169,5.303l3.999,0.913
							c5.592,1.101,10.996,1.535,16.212,1.304c11.677-0.61,21.153-2.623,28.426-6.043c5.39-2.463,9.736-4.925,13.039-7.388
							c0.898-0.667,1.912-1.521,3.042-2.565l1.26-1.216c2.521-2.464,3.796-3.811,3.825-4.043c-0.029,0.783,0.044,2.724,0.217,5.824
							c0.262,3.622,0.885,6.838,1.87,9.649c0.955,2.288,2.042,4.346,3.26,6.172c1.681,2.52,3.636,4.665,5.868,6.433
							c0.145,0.058,0.29,0.174,0.434,0.347c1.072,0.753,1.666,1.159,1.782,1.217c0.753,0.493,1.738,1.028,2.955,1.609l3.173,1.347
							c2.144,0.84,4.709,1.637,7.693,2.39l0.522,0.13c6.346,1.247,12.881,1.115,19.602-0.39c6.81-1.421,12.302-4.159,16.473-8.216
							c1.188-1.216,2.507-2.882,3.955-4.998l0.87-1.391c0.666-1.216,1.303-2.622,1.912-4.216l0.827-2.869
							c0.29-1.39,0.477-2.347,0.565-2.868c0.116-0.667,0.217-1.87,0.304-3.608 M177.1,155.539l4.738,0.217
							c0.173,0.059,1.173,0.087,2.999,0.087l2.956-0.087v-0.087l5.65-0.304l0.39-0.086l0.914,0.086l1.912-0.086l1.26-0.305
							l6.694-1.043h0.043c0.145,0.029,0.434,0.015,0.869-0.043l0.348-0.087c0.753-0.115,1.303-0.26,1.652-0.434h0.173
							c0.435-0.204,1.115-0.391,2.044-0.565l0.695-0.131l1.13-0.304c2.492-0.753,4.347-1.362,5.563-1.826l13.083-6.737l2.869-2.65
							c4.52-4.926,7.36-9.026,8.519-12.301c0.898-2.724,1.535-4.897,1.912-6.52c0.203-1.158,0.74-3.188,1.609-6.085
							c0.84-2.926,1.985-4.13,3.433-3.607l0.696,0.391c0.58,0.406,0.623,1.753,0.131,4.042c-0.609,2.434-0.261,4.188,1.043,5.259
							c1.333,0.985,3.086,1.334,5.259,1.044c0.609,0.115,0.391-0.116-0.652-0.696c-0.899-0.464-1.202-2.333-0.913-5.607l0.13-0.434
							c0.377-1.043,0.609-2.043,0.696-3c0.232-2.027-0.652-3.404-2.652-4.129c-0.84-0.376-1.768-0.622-2.782-0.739
							c-3.043-0.173-5.201,0.826-6.476,3c-1.362,2.144-2.493,4.766-3.391,7.866c-1.331,3.652-2.955,6.679-4.867,9.084
							c-1.941,2.319-4.419,4.362-7.432,6.129c-6.694,3.767-13.518,6.361-20.472,7.78c-7.012,1.391-12.706,2.102-17.081,2.13
							c-3.362-0.028-6.201-0.217-8.519-0.565 M188.749,175.141c0.203-1.043,0.391-1.739,0.565-2.087
							c0.84-2.491,1.623-2.52,2.347-0.086c0.174,1.39-0.275,2.607-1.347,3.65c-0.202,0.232-0.449,0.377-0.739,0.434
							c-1.449,0.319-2.666,0.029-3.65-0.869c-2.087-1.681-2.492-3.752-1.218-6.216c0.261-0.579,0.653-1.173,1.174-1.782
							c2.869-3.071,6.418-4.042,10.649-2.912c0.839,0.29,1.594,0.724,2.26,1.303c1.448,1.362,2.448,3.014,2.999,4.956
							c1.043,4.056,0.681,7.983-1.086,11.778c-1.71,3.68-4.318,6.665-7.823,8.953l-5.303,2.87c-1.971,0.724-3.696,1.26-5.173,1.607
							c-1.158,0.29-2.014,0.478-2.564,0.566c-3.767,0.666-7.635,0.884-11.605,0.652c-3.912-0.377-7.766-1.043-11.562-1.999
							c-3.882-0.928-7.491-2.202-10.822-3.826c-2.926-1.333-5.737-3.173-8.432-5.52c-0.957-0.839-1.898-1.737-2.826-2.695
							c-0.55-0.55-1.347-1.434-2.39-2.65c-0.434-0.493-0.956-1.159-1.564-2l-2.869-4.042c-2.057-3.101-4.027-6.693-5.911-10.78
							l-0.913-1.999l-0.131-0.086l-0.304-0.261 M207.699,153.366l2.739-0.696 M188.879,172.968c-0.753-2.145,0.015-3.564,2.303-4.26
							c1.972-0.695,3.608-0.319,4.912,1.13c0.609,0.609,1.029,1.391,1.261,2.347c0.753,3.969-0.116,7.535-2.607,10.692
							c-0.957,1.217-2.087,2.362-3.39,3.434l-6.042,3.303c-3.941,1.941-7.954,2.52-12.04,1.739
							c-3.187-0.464-6.244-1.116-9.171-1.956c-4.115-1.13-7.838-2.347-11.171-3.652c-3.448-1.477-6.491-3.506-9.128-6.085
							c-1.68-1.594-3.129-3.39-4.346-5.39c-0.811-1.275-1.507-2.652-2.086-4.129l-0.305-1 M121.77,26.406l0.218-0.044
							c1.507-0.029,3.042-0.029,4.607,0l0.478,0.087 M94.909,58.613h-0.044v0.522 M68.483,23.711
							c0.087-0.724,0.159-1.753,0.217-3.086v-2.303l-0.521-4.086c-0.145-0.696-0.333-1.304-0.565-1.826
							c-0.696-1.738-1.318-3.187-1.869-4.346l-4.26-6.172v0.044l0.174,0.261l0.261,0.477l0.044,0.131l0.348,0.696l0.043,0.043
							l0.131,0.348l0.391,1l0.391,1.521l0.043,0.304v0.131l0.044,0.217l0.087,0.956c0.058,1.072,0.072,1.942,0.044,2.608
							l-0.088,1.001v0.13l-0.391,3.303v0.13l-0.218,1.391l-0.043,0.088l-2.782,13.387v0.13c-0.087,0.116-0.173,0.405-0.26,0.869
							l-3.869,20.515 M62.485,3.892l0.522,1.739v0.087l0.044,0.087l0.044,0.261l0.044,0.131l0.304,3.955l-0.044,1.478 M61.094,1.241
							l-0.522-0.435l0.913,1.086l-0.174-0.348l-0.174-0.217L61.094,1.241z M76.915,137.414h-3.433
							c-3.217,0.059-7.042-0.13-11.475-0.564c-4.52-0.434-8.882-1.304-13.082-2.609c-1.883-0.55-3.694-1.26-5.433-2.13
							c-3.071-1.506-6.462-3.636-10.171-6.388c-1.42-1.102-2.391-1.913-2.913-2.434c-3.506-3.13-6.49-7.099-8.953-11.909
							l-1.652-3.477c-2.723-6.23-3.101-13.865-1.13-22.906c0.493-3.477,1.797-6.577,3.912-9.301
							c1.015-1.362,2.376-2.289,4.086-2.781c2.288-0.522,4.49-0.29,6.606,0.695c1.564,0.666,2.897,1.738,3.999,3.216
							c1.304,1.709,1.55,3.563,0.738,5.563c-0.58,1.217-1.086,2.086-1.521,2.607c-1.448,2.405-3.723,5.158-6.823,8.258
							c1.565-3.274,2.593-6.027,3.085-8.258c0.551-1.941,0.493-3.941-0.174-5.998c-0.405-1.101-1.158-1.434-2.26-0.999
							c-0.899,0.29-1.667,0.913-2.304,1.869c-0.985,1.652-1.579,3.361-1.782,5.128c-0.29,2.028-0.463,4.303-0.521,6.824
							c0.174,7.012,2.217,12.909,6.128,17.689c3.767,4.897,8.142,8.505,13.126,10.823c4.753,2.232,8.997,3.491,12.735,3.782
							c3.419,0.377,7.142,0.405,11.17,0.087c4.144-0.291,7.766-0.957,10.866-2l3.912-1.391v-0.043l0.435-0.217l0.131-0.043
							c2.463-1.043,4.708-2.173,6.737-3.391c3.766-2.52,5.737-3.882,5.911-4.085 M16.63,139.978
							c-1.159,0.811-2.275,1.362-3.347,1.652l-0.869,0.261l-1.913,0.13c-2.579,0-4.766-0.478-6.563-1.434l-0.392-0.174
							c-1.014-0.637-1.71-1.433-2.086-2.39l-0.347-0.913c-0.783-2.869-0.073-5.055,2.129-6.562l0.304-0.175
							c0.753-0.463,1.594-0.796,2.521-0.999c0.318-0.087,0.854-0.13,1.608-0.13c2.695-0.087,5.274,0.594,7.736,2.043
							c0,0,13.199,8.823,14.474,9.432l1.13,0.434c2.289,0.956,4.912,1.695,7.867,2.217c0.84,0.203,2.376,0.433,4.607,0.695
							c2.897,0.261,5.462,0.247,7.694-0.043c10.141-1.391,17.269-2.826,21.384-4.303l3.086-1.173l2.434-1.218l2.13-1.043
							c3.796-1.969,7.519-4.274,11.171-6.911c3.042-2.26,5.665-4.651,7.866-7.172l3.086-3.737 M31.973,192.309l-1.696-0.609
							c-1.072-0.405-2.448-1.043-4.129-1.913c-3.448-1.941-6.36-4.535-8.736-7.779c-0.58-0.783-0.971-1.58-1.174-2.39
							c-1.159-3.651-1.058-7.346,0.304-11.083c1.072-2.811,3.086-4.579,6.041-5.303c2.463-0.521,4.55,0.072,6.259,1.782
							c1.304,1.247,1.869,2.782,1.696,4.607v1.434c0.174,1.333-0.058,2.448-0.696,3.347l-0.261,0.434l-1.869,0.304
							c-1.014-0.232-1.738-0.855-2.172-1.87c-0.29-0.723-0.421-1.463-0.391-2.216l0.13-0.956c-2.202-3.39-3.68-2.651-4.434,2.216
							l-0.173,1.131c0.376,5.157,2.897,8.822,7.562,10.995c4.81,2.115,10.128,2.941,15.952,2.478
							c10.866-1.159,21.385-4.013,31.556-8.563c9.967-4.463,18.443-16.632,25.426-36.509 M25.279,170.1
							c0.203-1.043,0.768-1.855,1.695-2.434 M75.654,138.545c1.912-0.753,2.811-1.159,2.695-1.218h-0.261 M134.853,141.413
							l-0.652-0.477c-1.391-1.044-2.536-1.971-3.434-2.783l-3.303-2.955c-0.753-0.753-1.131-1.159-1.131-1.217
							c-0.088,0.347-0.015,1.985,0.217,4.912l0.044,0.477l0.044,0.174c0.203,3.39,1.028,6.548,2.477,9.476
							c1.158,1.969,3.014,3.795,5.563,5.476 M114.642,155.669c-2.028,2.724-4.39,5.578-7.085,8.563l-0.913,0.999
							c-2.695,2.898-5.302,5.491-7.823,7.78c-2.637,2.29-5.491,4.506-8.563,6.65c-3.158,2.26-6.461,4.259-9.91,5.998
							c-3.477,1.681-6.882,3.058-10.214,4.129c-2.724,0.812-5.346,1.391-7.867,1.739l-9.736,1.391
							c-3.419,0.406-7.056,0.666-10.91,0.783h-1.521l-3.434-0.305l-4.477-1.042"/>
					</g>
					<path fill-rule="evenodd" clip-rule="evenodd" d="M110.948,88.604c0.289,0.029,0.521,0.145,0.695,0.347
						c0.203,0.232,0.29,0.478,0.261,0.739l-0.044,0.087h0.044c0.493,0.058,0.71,0.304,0.652,0.739c0,0.203-0.087,0.363-0.261,0.478
						c-0.145,0.145-0.318,0.203-0.521,0.174c-0.377-0.058-0.594-0.261-0.652-0.609l-0.347,0.043
						c-0.29-0.029-0.521-0.145-0.696-0.347c-0.202-0.203-0.29-0.45-0.261-0.739c0.029-0.29,0.159-0.521,0.391-0.695
						C110.411,88.647,110.658,88.575,110.948,88.604z"/>
					
						<path fill-rule="evenodd" clip-rule="evenodd" fill="#FFFFFF" stroke="#373535" stroke-width="1.6117" stroke-miterlimit="10" d="
						M104.124,89.995c-0.435-1.884,0.492-2.912,2.781-3.086c2.289-0.174,4.129,0.55,5.52,2.173"/>
					<path fill-rule="evenodd" clip-rule="evenodd" fill="none" stroke="#373535" stroke-width="1.6117" stroke-miterlimit="10" d="
						M99.516,86.17c-0.087-0.724,0.218-1.753,0.913-3.086c0.812-1.507,1.826-2.767,3.042-3.782
						c3.448-2.753,7.186-2.434,11.214,0.956c3.477,2.955,5.375,5.144,5.694,6.564c0.174,0.723,0.058,1.332-0.348,1.825"/>
					<path fill-rule="evenodd" clip-rule="evenodd" d="M133.027,90.429h0.043l-0.043-0.086c0-0.261,0.102-0.493,0.304-0.695
						c0.203-0.203,0.449-0.305,0.739-0.305c0.291-0.028,0.536,0.058,0.739,0.261c0.204,0.174,0.305,0.406,0.305,0.696
						c0.028,0.261-0.059,0.492-0.261,0.695c-0.203,0.203-0.449,0.319-0.739,0.348l-0.348-0.087c-0.058,0.377-0.29,0.566-0.696,0.566
						c-0.203,0.029-0.376-0.029-0.522-0.174c-0.145-0.116-0.217-0.275-0.217-0.478c0-0.202,0.072-0.377,0.217-0.522
						C132.665,90.501,132.825,90.429,133.027,90.429z"/>
					
						<path fill-rule="evenodd" clip-rule="evenodd" fill="#FFFFFF" stroke="#373535" stroke-width="1.6117" stroke-miterlimit="10" d="
						M140.808,91.081c0.55-1.855-0.319-2.941-2.608-3.26c-2.288-0.29-4.172,0.333-5.65,1.869"/>
					<path fill-rule="evenodd" clip-rule="evenodd" fill="none" stroke="#373535" stroke-width="1.6117" stroke-miterlimit="10" d="
						M145.589,87.517c0.116-0.609-0.059-1.478-0.521-2.608c-0.493-1.275-1.189-2.42-2.087-3.434
						c-1.449-1.71-3.101-2.724-4.955-3.042c-2.319-0.377-4.737,0.405-7.259,2.347c-3.622,2.752-5.636,4.824-6.041,6.215
						c-0.203,0.725-0.116,1.362,0.261,1.912"/>
					<path fill-rule="evenodd" clip-rule="evenodd" d="M130.897,92.255c-0.028-0.985,0.319-1.854,1.044-2.607
						c0.724-0.725,1.622-1.116,2.695-1.174c1.071-0.029,1.999,0.304,2.782,0.999c0.753,0.667,1.145,1.507,1.173,2.521
						c0.059,1.014-0.29,1.898-1.043,2.652c-0.724,0.753-1.622,1.144-2.695,1.173c-1.072,0.029-1.985-0.304-2.739-0.999
						C131.333,94.124,130.927,93.269,130.897,92.255z"/>
					<path fill-rule="evenodd" clip-rule="evenodd" d="M113.946,91.733c-0.087,1.015-0.536,1.84-1.347,2.478
						c-0.812,0.637-1.753,0.912-2.825,0.826c-1.072-0.087-1.942-0.522-2.608-1.304c-0.695-0.782-0.999-1.68-0.912-2.695
						c0.087-0.985,0.536-1.811,1.347-2.477c0.811-0.638,1.753-0.913,2.825-0.826c1.072,0.087,1.942,0.522,2.608,1.304
						C113.729,89.821,114.033,90.719,113.946,91.733z"/>
				</g>
			</g>
		</g>
	</g>
</g>
</svg>
