<?xml version="1.0" encoding="utf-8"?>
<!-- Generator: Adobe Illustrator 17.0.1, SVG Export Plug-In . SVG Version: 6.00 Build 0)  -->
<!DOCTYPE svg PUBLIC "-//W3C//DTD SVG 1.1//EN" "http://www.w3.org/Graphics/SVG/1.1/DTD/svg11.dtd">
<svg version="1.1" id="Layer_1" xmlns="http://www.w3.org/2000/svg" xmlns:xlink="http://www.w3.org/1999/xlink" x="0px" y="0px"
	 width="188.557px" height="259.079px" viewBox="39.583 1.42 188.557 259.079" enable-background="new 39.583 1.42 188.557 259.079"
	 xml:space="preserve">
<g id="Layer_1_2_">
	<g>
		<g id="Layer_1_1_">
			<g>
				<g id="Layer_1_3_">
					<g>
						<g>
							<path fill="#FFFFFF" stroke="#373535" stroke-width="1.6472" stroke-miterlimit="10" d="M125.862,153.927
								c-0.363,1.642-0.65,2.943-0.86,3.902c-0.111,0.484-0.458,1.939-1.042,4.364c-1.189,4.904-2.248,8.844-3.174,11.819
								c-0.506,1.676-1.019,3.131-1.537,4.365c-0.507,1.212-0.909,1.95-1.207,2.216c-1.356,1.366-2.023,3.031-2.001,4.992
								c0,1.443,0.32,2.827,0.959,4.149c0.507,2.381,0.982,5.037,1.422,7.968c0.815,5.555,1.223,10.491,1.223,14.811
								c0,2.81-0.177,5.257-0.529,7.34c-2.215,13.599-4.987,21.711-8.315,24.332c-1.972,1.588-2.948,3.219-2.926,4.893
								c0,0.871,0.226,1.592,0.678,2.167c0.187,0.231,0.43,0.336,0.728,0.313c0.298-0.022,0.524-0.155,0.678-0.395
								c0.418-0.662,0.942-1.323,1.57-1.984c0.474-0.54,0.982-0.982,1.521-1.323c0.573-0.374,1.052-0.55,1.439-0.528
								c0.265,0,0.513,0.071,0.743,0.215c0.75,0.451,1.296,1.234,1.637,2.348c0.254,0.815,0.374,1.658,0.363,2.529l-0.016,0.628
								c-0.011,0.188,0.027,0.358,0.115,0.513c0.089,0.165,0.215,0.287,0.381,0.363c0.044,0.011,0.71,0.214,2,0.612
								c1.764,0.44,3.911,0.794,6.447,1.059c2.425,0.253,5.158,0.838,8.198,1.753c1.51,0.462,2.783,0.897,3.819,1.305l0.381,0.051
								l1.635-0.115c0.783,0.342,1.466,0.528,2.05,0.562h2.15c3.725,0,6.033,0.099,6.927,0.298c0.794,0.155,2.358,0.232,4.694,0.232
								c1.333,0,2.617-0.016,3.851-0.049c0.331-0.023,0.572-0.177,0.727-0.463c0.155-0.276,0.149-0.562-0.016-0.859l-1.496-4.582
								c-0.199-0.332-2.498-1.623-2.885-1.568c-2.237,0.365-4.165,0.546-5.786,0.546c-0.683,0-1.229-0.044-1.636-0.132
								c-1.906-0.376-3.544-0.783-4.91-1.223c-0.927-0.507-1.764-0.904-2.514-1.19c-0.374-0.155-0.782-0.302-1.222-0.446
								c-0.783-0.507-1.404-1.24-1.868-2.198c-0.518-1.301-1.008-2.408-1.471-3.323c-0.022-0.011-0.071-0.248-0.149-0.709
								c-0.088-0.551-0.154-1.13-0.199-1.736c-0.385-4.365-0.578-11.709-0.578-22.035c0-6.381,0.088-12.139,0.265-17.273
								c0.198-5.576,0.457-9.135,0.776-10.679c0.496-2.512,3.239-7.34,8.233-14.481c2.732-3.847,4.727-6.657,5.984-8.431
								c2.204-3.108,3.77-5.455,4.693-7.042c0.133-0.22,0.352-0.639,0.662-1.256"/>
							<path fill="#FFFFFF" stroke="#231F20" stroke-width="1.6472" stroke-miterlimit="10" d="M183.513,100.531l11.799-8.395
								c6.479-4.804,10.403-9.208,11.77-13.208c0.463-1.323,0.804-3.135,1.026-5.439c0.264-2.788,0.539-4.822,0.827-6.1
								c0.209-0.981,0.314-2.264,0.314-3.851c0.011-4.408-0.839-10.867-2.547-19.374c-0.307-1.543-1.328-6.116-3.057-13.72
								c-0.221-1.003-0.331-2.7-0.331-5.092c0-2.094,0.081-4.59,0.248-7.488c0.132-2.26,0.281-4.314,0.446-6.166
								c0.264-2.38,1.665-4.502,4.198-6.364c2.469-1.818,5.229-2.843,8.282-3.075l0.546-0.016c2.6,0.044,4.788,1.284,6.562,3.719
								c0.628,0.86,1.56,2.689,2.794,5.488c0.617,1.432,0.927,2.947,0.927,4.545c0,0.562-0.033,1.075-0.1,1.537
								c-0.033,0.254-0.149,0.452-0.346,0.595l-0.414,0.381c-0.44,0.44-0.843,0.904-1.207,1.389
								c-1.322,1.741-2.441,3.907-3.356,6.496c-0.849,2.392-1.273,5.824-1.273,10.298c0,6.425,0.941,16.299,2.827,29.623
								c0.32,2.348,0.48,4.612,0.48,6.794c0.011,6.69-2.26,13.186-6.81,19.489c-1.61,2.226-3.362,4.22-5.257,5.984
								c-1.543,1.443-6.658,4.968-3.538,2.711"/>
							<path fill="none" stroke="#373535" stroke-width="1.6472" stroke-miterlimit="10" d="M68.211,100.005
								c0-0.474-0.089-0.942-0.265-1.404c-0.352-0.949-0.964-1.422-1.835-1.422c-0.86,0-1.565-0.32-2.116-0.959
								c-0.705-1.003-1.41-1.857-2.116-2.562c-0.882-0.87-1.968-1.482-3.256-1.835l-1.67-0.265"/>
							<path fill="none" stroke="#373535" stroke-width="1.6472" stroke-miterlimit="10" d="M63.283,107.046h-4.926
								c-1.333,0-2.331-0.204-2.992-0.612c-0.54-0.342-1.185-1.079-1.934-2.215c-0.584-0.87-1.697-1.482-3.339-1.835l-2.298-0.265"
								/>
							<path fill="none" stroke="#373535" stroke-width="1.6472" stroke-miterlimit="10" d="M52.721,118.304
								c1.179,3.814,3.763,4.844,7.754,3.091c1.994-0.882,3.873-2.144,5.637-3.785"/>
							<path fill="none" stroke="#373535" stroke-width="1.6472" stroke-miterlimit="10" d="M75.253,122.536
								c-0.287-1.179-1.428-1.417-3.423-0.71l-2.909,1.404"/>
							<path fill="none" stroke="#373535" stroke-width="1.6472" stroke-miterlimit="10" d="M131.34,180.475
								c1.565-1.345,3.009-3.036,4.331-5.074c2.633-4.066,3.35-7.831,2.149-11.291"/>
							<path fill="none" stroke="#373535" stroke-width="1.6472" stroke-miterlimit="10" d="M124.727,197.088
								c2.204,3.361,3.747,11.902,4.629,25.622c0.441,6.865,0.662,13.389,0.662,19.572"/>
							<path fill="none" stroke="#373535" stroke-width="1.6472" stroke-miterlimit="10" d="M140.687,258.385
								c-0.465-0.184-2.702,1.831-5.396,0.014c-2.304-1.521-3.726-2.325-4.265-2.413c-0.694-0.165-1.477-0.469-2.348-0.909
								c-0.683-0.352-1.195-0.518-1.537-0.496c-0.352,0-0.732,0.077-1.141,0.232c-1.344,0.463-2.766,0.755-4.265,0.876
								c-0.639,0.1-1.03,0.138-1.174,0.115c-0.132-0.033-0.309-0.181-0.528-0.446c-0.155-0.232-0.188-0.484-0.1-0.76l1.802-5.29
								c0.21-0.584,0.314-1.119,0.314-1.603c0.011-0.298-0.061-0.667-0.215-1.108c-0.155-0.484-0.243-0.908-0.265-1.273
								c0-0.65,0.309-1.311,0.926-1.984l0.049-0.081c0.055-0.156,0.093-0.31,0.115-0.463c0.111-0.44,0.188-1.015,0.232-1.719
								c0.133-1.434,0.199-3.323,0.199-5.671c0.011-5.84-0.309-12.326-0.959-19.456c-0.705-7.68-1.532-12.916-2.48-15.704
								l-0.331-0.975c-0.188-0.816-0.309-2.1-0.365-3.852c-0.055-1.786-0.016-3.504,0.115-5.157c0.067-0.883,0.188-1.67,0.365-2.364
								c0.187-0.727,0.473-1.515,0.86-2.363c0.342-0.76,1.145-2.034,2.414-3.819c0.628-0.892,1.901-2.629,3.819-5.207
								c1.851-2.545,3.064-4.253,3.637-5.124c1.123-1.719,1.791-3.025,2.001-3.917c0.044-0.21,0.066-0.43,0.066-0.662
								c-0.022-1.994-1.212-6.188-3.57-12.579"/>
							<path fill="none" stroke="#231F20" stroke-width="1.6472" stroke-miterlimit="10" d="M223.795,16.278l0.032,0.016
								c-0.342,0.44-0.738,0.893-1.189,1.356c-0.54,0.572-1.086,1.063-1.637,1.47c-0.617,0.452-1.123,0.706-1.521,0.761
								l-0.645,0.049c-1.234,0.011-2.562-0.331-3.984-1.025c-1.697-0.827-3.025-1.95-3.984-3.372l0.381,0.033l0.016,0.033
								c0.783,0.044,1.404,0.038,1.868-0.016c0.981-0.077,1.736-0.309,2.264-0.694c0.451-0.352,0.981-0.645,1.586-0.876
								c0.684-0.276,1.323-0.407,1.918-0.396c0.87,0,1.587,0.281,2.149,0.843c0.518,0.507,1.057,0.938,1.62,1.289
								C223.21,16.068,223.584,16.245,223.795,16.278z"/>
							<path fill="none" stroke="#000000" stroke-width="1.6472" stroke-miterlimit="10" d="M210.718,14.244
								c0.739-0.066,1.306-0.479,1.703-1.24c0.352-0.661,0.54-1.51,0.562-2.545c-0.022-1.026-0.209-1.868-0.562-2.529
								c-0.396-0.761-0.964-1.174-1.703-1.24c-0.738,0.067-1.311,0.48-1.719,1.24c-0.343,0.661-0.528,1.504-0.562,2.529
								c0.033,1.036,0.22,1.884,0.562,2.545C209.407,13.765,209.981,14.179,210.718,14.244z"/>
							<path d="M193.544,99.756c0.661,0,2.908,0.342,6.745,1.026c3.405,0.606,6.082,0.777,8.033,0.513
								c0.1,0.077-0.534,0.859-1.901,2.347c-1.399,1.521-2.418,2.512-3.057,2.976c-2.832,2.027-5.284,3.681-7.356,4.959
								c-1.577,0.915-3.637,2.755-6.182,5.521c-2.458,2.655-3.824,4.447-4.099,5.373c-0.22,0.639-0.502,2.248-0.843,4.827
								c-0.451,2.512-1.163,4.276-2.133,5.29c-0.088,0.045-0.17,0.259-0.248,0.646c-0.077,0.429-0.11,0.926-0.099,1.487
								c0,0.815,0.115,2.551,0.346,5.207c0.244,2.688,0.363,4.793,0.363,6.314c-0.011,2.005-0.17,3.664-0.479,4.976
								c-0.396,1.653-1.059,2.953-1.984,3.902c-2.205,2.182-5.174,4.033-8.91,5.554c-4.089,1.665-8.144,2.501-12.166,2.512
								c-1.29,0-2.562-0.1-3.819-0.298c-1.101-0.332-1.383-1.786-0.843-4.365c0.804-2.732,1.251-4.325,1.34-4.778h-2.795
								l-2.016,0.71c-1.355,0.672-2.034,1.515-2.034,2.529c0,1.179-1.448,1.516-4.347,1.009c-2.865-0.496-4.926-1.372-6.183-2.629
								c-1.266-1.267-4.672-1.647-10.215-1.14c-0.684,0.055-1.378,0.38-2.083,0.975c-0.804,0.672-1.284,1.03-1.439,1.075
								c-5.664,0.562-9.935,0.843-12.812,0.843c-2.094,0-3.708-0.137-4.844-0.413c-1.477-0.43-3.239-2.006-5.29-4.728
								c-0.804-1.07-2.728-3.962-5.768-8.678c-0.794-1.278-1.565-2.491-2.314-3.637c0.177,0,0.524,0.143,1.041,0.43
								c1.057,0.594,1.592,0.892,1.603,0.892c1.565,0.816,2.832,1.059,3.802,0.727c0.661-0.407,1.35-0.76,2.067-1.059
								c1.101-0.439,2.1-0.665,2.992-0.676c1.994,0,3.262,0.06,3.802,0.181c0.077,0.033,0.221,0.088,0.43,0.165
								c0.187,0.1,0.309,0.298,0.363,0.596c-0.066,0.318-0.204,0.55-0.413,0.694c-0.133,0.077-0.374,0.188-0.727,0.331
								c-0.584,0.221-1.008,0.667-1.273,1.34c-0.188,0.484-0.281,1.046-0.281,1.686v0.248l3.372,0.926
								c3.637-1.014,6.502-1.669,8.596-1.967l0.479-0.049c0.221,0,0.407,0.038,0.562,0.115c0.099,0.044,0.188,0.126,0.265,0.248
								c0.089,0.132,0.127,0.258,0.115,0.38c-0.044,0.309-0.165,0.569-0.363,0.777c-0.121,0.132-0.352,0.336-0.694,0.613
								c-0.374,0.32-1.008,0.782-1.901,1.388l-1.289,0.827h0.016c1.333,0,2.556-0.188,3.67-0.562c0.893-0.287,1.681-0.43,2.364-0.43
								c0.749-0.011,1.333,0.137,1.751,0.446c1.874,0.374,3.544,0.562,5.01,0.562c0.661,0,1.377-0.044,2.149-0.132
								c0.761-0.088,2.027-0.551,3.802-1.389c1.521-0.716,3.206-1.609,5.058-2.677c1.278-0.716,2.777-1.603,4.497-2.662h-0.332
								c-3.163,0.011-5.724-0.612-7.687-1.868c-1.178-0.76-1.993-1.62-2.447-2.578c-0.287-0.144-0.606-0.27-0.959-0.381
								c-0.97-0.331-2.022-0.495-3.157-0.495c-0.44,0-0.92,0.032-1.439,0.099c-0.562,0.067-1.075,0.1-1.537,0.1
								c-1.059,0-1.995-0.16-2.81-0.48c-0.485-0.188-0.871-0.408-1.157-0.662l-3.703-2.297c-0.166-0.111-0.248-0.265-0.248-0.463
								c0-0.287,0.088-0.65,0.265-1.09c0.309-0.826,0.854-1.636,1.636-2.43c-0.451,0.055-1.09,0.204-1.917,0.447l-1.124,0.329
								l-0.181,0.033c-0.628,0-1.311-0.022-2.05-0.066c-1.499-0.077-2.579-0.221-3.241-0.429c-0.143-0.044-0.276-0.127-0.396-0.248
								c-0.144-0.154-0.215-0.325-0.215-0.513c0.033-0.275,0.137-0.506,0.314-0.694c0.232-0.188,0.409-0.337,0.529-0.447
								c0.374-0.275,0.849-0.572,1.421-0.893c1.345-0.672,2.028-1.014,2.05-1.025l1.901-0.777c0.309-0.121,0.639-0.276,0.993-0.462
								c-1.19,0.066-4.238,0.32-9.142,0.76c-4.397,0.396-6.904,0.595-7.521,0.595c-0.231,0-0.43-0.049-0.595-0.149
								c-0.099-0.066-0.182-0.16-0.248-0.28c-0.066-0.133-0.093-0.248-0.082-0.347c0.044-0.363,0.214-0.732,0.512-1.107
								c0.419-0.452,0.738-0.81,0.959-1.075c0.584-0.606,0.964-1.014,1.141-1.223c-5.169,0-8.645,0.155-10.431,0.462
								c-1.025,0.176-1.802,0.628-2.331,1.355c-0.044,0.055-0.121,0.177-0.232,0.365h4.331c0.121,0,0.236,0.038,0.347,0.115
								c0.099,0.077,0.159,0.176,0.181,0.298c0.023,0.122,0.005,0.243-0.049,0.363c-0.067,0.121-0.155,0.204-0.265,0.248
								c-3.405,1.554-5.89,2.645-7.455,3.273c-0.507,0.209-0.854,0.451-1.042,0.727c-0.121,0.177-0.187,0.408-0.198,0.694
								c-0.089,0.155-0.248,0.287-0.48,0.396c-0.132,0.055-0.391,0.165-0.777,0.331c-0.143-0.077-0.314-0.143-0.512-0.199
								c-2.27-0.76-4.006-1.141-5.207-1.141c-0.352,0-0.656,0.038-0.909,0.115l-0.166,0.082l-0.199-0.198l-0.926-0.314
								c-1.339,0.298-2.661,0.451-3.967,0.462c0.524-0.024,1.212-0.278,2.067-0.76c0.882-0.507,1.477-0.986,1.786-1.439
								c0.133-0.331,0.243-0.579,0.331-0.745c0.506-0.915,1.196-1.41,2.066-1.487c0.485-0.363,1.036-0.634,1.653-0.81
								c0.728-0.166,1.444-0.55,2.149-1.157l0.331-0.959c0.242-0.794,0.451-1.625,0.628-2.496c-0.551-0.573-0.915-1.581-1.092-3.025
								c-0.132-1.873-0.27-3.372-0.413-4.497c-0.199-2.094-0.513-3.868-0.942-5.323c-0.562-1.928-1.367-3.488-2.414-4.678
								c-0.078-0.144-0.667-1.422-1.769-3.836c-0.886-1.946-1.503-3.191-1.851-3.736c1.329,1.967,2.7,3.625,4.116,4.976
								c0.926,0.882,1.807,1.57,2.645,2.067c0.243,0.143,0.413,0.231,0.513,0.265l0.165,0.067l0.033,0.049
								c2.381,0.55,4.694,0.826,6.943,0.826c1.565,0,3.025-0.126,4.38-0.38c2.259-0.409,6.429-1.515,12.514-3.323
								c5.136-1.532,8.513-2.303,10.133-2.314c5.995,0,11.45-0.06,16.365-0.182c9.235-0.221,14.994-0.623,17.274-1.207
								c1.322-0.342,2.717-0.513,4.183-0.513c1.631,0,3.25,0.204,4.86,0.612c0.804,0.209,1.454,0.418,1.95,0.628l0.132,0.066
								l0.71,0.761c0.507,0.518,1.03,0.992,1.57,1.421c1.665,1.344,3.113,2.012,4.347,2l0.579-0.049
								c0.518-0.11,1.036-0.166,1.554-0.166c1.665,0,3.13,0.496,4.397,1.488c2.006-0.485,5.24-1.157,9.704-2.016
								c2.204,0.243,3.383,0.374,3.537,0.396C191.223,99.663,192.618,99.756,193.544,99.756z"/>
							<path fill="#FFFFFF" stroke="#373535" stroke-width="1.6472" stroke-miterlimit="10" d="M83.654,128.121
								c0,0-12.486,0.596-13.642,0.134c-0.551-0.221-1.212-0.331-1.984-0.331c-1.3,0-2.755,0.287-4.364,0.86
								c-0.518,0.177,2.477,2.74-2.596,1.107s-3.521-2.37-4.083-2.611c-0.628-0.254-6.491-1.884-10.414-4.76
								c-1.167-0.804-1.779-1.857-1.834-3.157c-0.077-0.473-0.171-0.804-0.281-0.992c-0.221-0.396-0.694-0.898-1.422-1.504
								c-0.65-0.529-1.123-1.004-1.421-1.422c-0.32-0.462-0.485-0.937-0.496-1.421c0.044-0.518,0.237-1.097,0.579-1.736
								c0.298-0.573,0.435-1.075,0.413-1.504c0-0.198-0.027-0.452-0.082-0.76l-0.694-3.471c-0.177-0.518-0.347-1.145-0.513-1.884
								c-0.276-1.201-0.413-2.264-0.413-3.191c0-0.694,0.077-1.278,0.231-1.751c0.275-0.694,0.805-1.35,1.587-1.968
								c0.462-0.365,1.218-0.838,2.264-1.422c0.826-0.43,1.697-0.831,2.611-1.207l0.579-1.736c0.407-1.168,1.399-1.972,2.975-2.414
								c0.606-0.155,1.145-0.243,1.62-0.265l1.868-2.496c0.452-0.617,0.981-1.086,1.587-1.406c0.562-0.287,1.157-0.424,1.786-0.413
								c0.506,0.011,1.395,0.143,2.661,0.396c1.212,0.253,2.248,0.374,3.108,0.363c2.811-0.033,5.026,0.254,6.646,0.86
								C72.506,89,80.361,101.306,82.28,104.236"/>
							<path fill="#FFFFFF" stroke="#373535" stroke-width="1.6472" stroke-miterlimit="10" d="M91.75,123.329
								c0.529-0.728,1.306-1.179,2.331-1.355c1.786-0.309,5.262-0.462,10.431-0.462c-0.176,0.209-0.556,0.617-1.141,1.223
								c-0.221,0.265-0.539,0.623-0.959,1.075c-0.298,0.374-0.468,0.743-0.512,1.107c-0.011,0.099,0.016,0.215,0.082,0.347
								c0.067,0.121,0.149,0.214,0.248,0.28c0.165,0.099,0.365,0.149,0.595,0.149c0.617,0,3.124-0.199,7.521-0.595
								c4.904-0.44,7.951-0.694,9.142-0.76c-0.354,0.187-0.684,0.342-0.993,0.462l-1.901,0.777c-0.022,0.011-0.705,0.352-2.05,1.025
								c-0.572,0.321-1.047,0.617-1.421,0.893c-0.121,0.11-0.298,0.259-0.529,0.447c-0.176,0.187-0.281,0.418-0.314,0.694
								c0,0.188,0.071,0.359,0.215,0.513c0.121,0.121,0.253,0.204,0.396,0.248c0.661,0.209,1.741,0.352,3.241,0.429
								c0.738,0.044,1.421,0.066,2.05,0.066l0.181-0.033l1.124-0.329c0.826-0.243,1.465-0.391,1.917-0.447
								c-0.782,0.794-1.328,1.603-1.636,2.43c-0.177,0.44-0.265,0.804-0.265,1.09c0,0.199,0.082,0.352,0.248,0.463l3.703,2.297
								c0.287,0.253,0.672,0.474,1.157,0.662c0.815,0.32,1.751,0.48,2.81,0.48c0.462,0,0.975-0.033,1.537-0.1
								c0.517-0.067,0.997-0.099,1.439-0.099c1.135,0,2.187,0.165,3.157,0.495c0.352,0.111,0.672,0.237,0.959,0.381
								c0.452,0.959,1.267,1.817,2.447,2.578c1.962,1.257,4.524,1.879,7.687,1.868h0.332c-1.719,1.059-3.219,1.945-4.497,2.662
								c-1.853,1.07-3.538,1.961-5.058,2.677c-1.775,0.838-3.042,1.301-3.802,1.389c-0.771,0.088-1.488,0.132-2.149,0.132
								c-1.466,0-3.135-0.188-5.01-0.562c-0.418-0.309-1.003-0.457-1.751-0.446c-0.683,0-1.471,0.144-2.364,0.43
								c-1.113,0.374-2.336,0.562-3.67,0.562h-0.016l1.289-0.827c0.893-0.606,1.526-1.068,1.901-1.388
								c0.343-0.277,0.573-0.481,0.694-0.613c0.199-0.209,0.32-0.469,0.363-0.777c0.011-0.121-0.027-0.248-0.115-0.38
								c-0.077-0.121-0.165-0.204-0.265-0.248c-0.155-0.077-0.342-0.115-0.562-0.115l-0.479,0.049
								c-2.094,0.298-4.96,0.953-8.596,1.967l-3.372-0.926v-0.248c0-0.639,0.093-1.201,0.281-1.686
								c0.265-0.672,0.689-1.119,1.273-1.34c0.352-0.143,0.595-0.253,0.727-0.331c0.209-0.144,0.347-0.376,0.413-0.694
								c-0.055-0.298-0.176-0.496-0.363-0.596c-0.21-0.077-0.352-0.132-0.43-0.165c-0.54-0.121-1.807-0.181-3.802-0.181
								c-0.893,0.011-1.89,0.237-2.992,0.676c-0.716,0.298-1.406,0.651-2.067,1.059c-0.97,0.332-2.237,0.089-3.802-0.727
								c-0.011,0-0.546-0.298-1.603-0.892c-0.518-0.288-0.865-0.43-1.041-0.43h-1.057c-0.265,0-0.435-0.121-0.513-0.363l-0.38-1.124
								c-0.716-0.165-1.179-0.269-1.388-0.313c-1.201-0.254-2.232-0.381-3.091-0.381c-0.672,0-1.108,0.077-1.306,0.232
								c-0.518,0.331-1.267,0.495-2.248,0.495c-0.684,0-1.433-0.07-2.248-0.214c-0.672-0.111-1.026-0.181-1.059-0.214l-0.248-0.133
								c-0.254-0.253-0.506-0.557-0.76-0.909c-0.496-0.705-0.761-1.377-0.794-2.016c-0.022-0.343,0.082-0.667,0.314-0.976
								c0.232-0.331,0.551-0.568,0.959-0.71c1.345-0.54,3.284-1.504,5.819-2.892c0.385-0.166,0.645-0.276,0.777-0.331
								c0.232-0.11,0.391-0.243,0.48-0.396c0.011-0.287,0.077-0.518,0.198-0.694c0.187-0.275,0.535-0.518,1.042-0.727
								c1.565-0.628,4.05-1.72,7.455-3.273c0.11-0.045,0.198-0.127,0.265-0.248c0.055-0.121,0.071-0.242,0.049-0.363
								c-0.022-0.121-0.082-0.221-0.181-0.298c-0.111-0.078-0.226-0.115-0.347-0.115h-4.331
								C91.628,123.505,91.706,123.384,91.75,123.329z"/>
							<path d="M211.099,13.236c-0.484-0.044-0.86-0.336-1.123-0.876c-0.232-0.474-0.358-1.079-0.381-1.818
								c0.023-0.738,0.149-1.345,0.381-1.818c0.264-0.551,0.639-0.849,1.123-0.893c0.484,0.044,0.859,0.342,1.123,0.893
								c0.232,0.473,0.352,1.079,0.363,1.818c-0.011,0.738-0.132,1.344-0.363,1.818C211.958,12.9,211.584,13.192,211.099,13.236z"/>
							<path fill="#FFFFFF" d="M211.462,12.907c-0.265-0.023-0.469-0.177-0.613-0.463c-0.121-0.265-0.181-0.59-0.181-0.975
								c0-0.396,0.06-0.721,0.181-0.975c0.144-0.287,0.347-0.44,0.613-0.462c0.253,0.022,0.451,0.177,0.595,0.462
								c0.121,0.254,0.187,0.579,0.199,0.975c-0.012,0.387-0.077,0.71-0.199,0.975C211.914,12.73,211.716,12.884,211.462,12.907z"/>
							<path fill="none" stroke="#231F20" stroke-width="1.6472" stroke-miterlimit="10" d="M222.638,14.244
								c0.738-0.066,1.305-0.479,1.702-1.24c0.352-0.661,0.54-1.51,0.562-2.545c-0.022-1.026-0.209-1.868-0.562-2.529
								c-0.396-0.761-0.964-1.174-1.702-1.24c-0.75,0.067-1.323,0.48-1.72,1.24c-0.351,0.661-0.539,1.504-0.562,2.529
								c0.023,1.036,0.21,1.884,0.562,2.545C221.314,13.765,221.888,14.179,222.638,14.244z"/>
							<path stroke="#000000" stroke-width="0.2745" stroke-miterlimit="10" d="M223.086,13.511
								c-0.484-0.044-0.86-0.336-1.123-0.876c-0.232-0.474-0.358-1.079-0.381-1.818c0.023-0.738,0.149-1.345,0.381-1.818
								c0.264-0.551,0.639-0.849,1.123-0.893c0.484,0.044,0.86,0.342,1.123,0.893c0.232,0.473,0.352,1.079,0.363,1.818
								c-0.011,0.727-0.132,1.333-0.363,1.818C223.946,13.175,223.571,13.467,223.086,13.511z"/>
							<path fill="#FFFFFF" d="M223.381,12.907c-0.265-0.023-0.469-0.177-0.612-0.463c-0.121-0.253-0.188-0.579-0.199-0.975
								c0.011-0.396,0.077-0.721,0.199-0.975c0.143-0.287,0.346-0.44,0.612-0.462c0.253,0.022,0.451,0.177,0.595,0.462
								c0.121,0.254,0.188,0.579,0.199,0.975c-0.011,0.387-0.077,0.71-0.199,0.975C223.832,12.73,223.634,12.884,223.381,12.907z"/>
							<path fill="none" stroke="#000000" stroke-width="1.6472" stroke-miterlimit="10" d="M211.264,15.6
								c0.023,0.011,0.706,0.495,2.049,1.455c1.675,0.97,3.334,1.455,4.976,1.455c0.938,0,2.012-0.276,3.224-0.827
								c1.003-0.462,1.762-0.931,2.282-1.404"/>
						</g>
					</g>
				</g>
			</g>
		</g>
	</g>
</g>
<g id="Layer_3">
	<path fill="#FFFFFF" d="M85.638,108.688c-0.563-3.91-2.862-5.774-5.74-8.177c-2.698-2.252-6.603,1.611-3.882,3.882
		c0.43,0.359,0.888,0.702,1.341,1.052c-0.768,0.198-1.413,0.787-1.635,1.904c-1.165,5.85-2.014,11.76-5.214,16.914
		c-1.376,2.217,0.872,4.428,3.1,4.032c5.353-0.949,11.581-4.544,12.559-10.283C86.696,114.906,86.08,111.764,85.638,108.688z"/>
	<path fill="#FFFFFF" d="M156.252,152.239c-4.932-4.932-6.977,5.377-9.775,4.845c-6.772-1.288-11.754-6-18.872-3.746
		c-3.362,1.066-1.925,6.367,1.459,5.295c0.838-0.265,1.686-0.376,2.541-0.384c-0.132,1.457,0.74,3.046,2.631,3.089
		c4.4,0.1,8.627,0.779,12.859,1.961c2.297,0.641,4.469,1.569,6.814,0.686C156.865,162.872,158.5,154.487,156.252,152.239z"/>
</g>
</svg>
