<?xml version="1.0" encoding="utf-8"?>
<!-- Generator: Adobe Illustrator 17.0.1, SVG Export Plug-In . SVG Version: 6.00 Build 0)  -->
<!DOCTYPE svg PUBLIC "-//W3C//DTD SVG 1.1//EN" "http://www.w3.org/Graphics/SVG/1.1/DTD/svg11.dtd">
<svg version="1.1" id="Layer_1" xmlns="http://www.w3.org/2000/svg" xmlns:xlink="http://www.w3.org/1999/xlink" x="0px" y="0px"
	 width="130.371px" height="251.22px" viewBox="66.325 7.835 130.371 251.22" enable-background="new 66.325 7.835 130.371 251.22"
	 xml:space="preserve">
<g id="Layer_2">
</g>
<g id="Layer_1_2_">
	<g>
		<g id="Layer_1_1_">
			<g>
				<g id="Layer_1_3_">
					<g>
						<path fill="#FFFFFF" stroke="#292929" stroke-width="1.6378" stroke-miterlimit="10" d="M184.385,17.882
							c-0.578-0.321-1.508-0.744-2.792-1.268c-0.055-0.92-0.103-1.493-0.145-1.718c-0.161-0.813-0.524-1.22-1.092-1.22
							c-0.064,0-0.443,0.123-1.139,0.369c-0.417,0-1.081-0.278-1.99-0.834c-1.541-0.953-2.6-1.573-3.177-1.863
							c-3.563-1.797-7.869-2.696-12.92-2.696c-1.959,0-2.937,0.022-2.937,0.064c-2.011,0.181-3.568,0.465-4.67,0.851
							c-1.338,0.471-2.493,0.781-3.467,0.931c-1.83,0.257-3.055,0.476-3.675,0.658c-0.845,0.225-1.402,0.519-1.668,0.883
							c-1.734,0.728-3.826,1.856-6.276,3.387c-4.44,2.76-8.137,5.559-11.09,8.394c-3.296,3.168-6.688,7.64-10.175,13.418
							c-1.745,2.921-3.745,7.367-6.003,13.337l-0.465,1.251c-1.274,3.382-2.612,6.789-4.013,10.223
							c-0.492,0.61-1.247,1.755-2.263,3.435c-1.851,3.07-2.996,4.906-3.435,5.505c-0.514,0.716-1.937,2.311-4.269,4.782
							c-1.905,2.022-3.173,3.622-3.804,4.799c-1.284,2.332-2.563,4.52-3.836,6.564c-1.199,1.905-1.985,3.226-2.36,3.965
							c-0.589,1.188-0.978,2.349-1.172,3.483l-0.064,0.417c-0.171,1.156-0.257,2.723-0.257,4.703l0.033,3.033
							c0.096,1.059,0.299,1.835,0.61,2.327c-0.15,0.524-0.251,0.841-0.305,0.947c-0.813,2.023-1.279,3.323-1.396,3.9
							c-0.129,0.578-0.193,1.675-0.193,3.291l0.129,2.825c0.15,0.899,0.369,1.562,0.658,1.989l-0.161,0.642
							c-0.524,1.829-1.192,5.365-2.006,10.609c-0.204,1.231-0.578,4.199-1.124,8.907l-0.192,1.702
							c-0.578,5.039-0.915,8.245-1.011,9.614c-0.417,0.738-0.824,2.707-1.221,5.906c-0.471,3.723-0.705,7.068-0.705,10.032
							c-0.054,0.877-0.343,3.637-0.866,8.282c-0.332,3.038-0.503,5.585-0.514,7.639v0.369c0,3.328,0.128,5.346,0.385,6.051
							c0.214,0.62,0.578,1.841,1.092,3.66c0.129,0.385,0.273,0.722,0.433,1.011c-0.236,0.813-0.487,2.285-0.754,4.413l-0.69,6.1
							l-1.428,9.307l-1.573,5.136c0.011,0.438-0.026,0.941-0.112,1.509v0.61c-0.171,0.75-0.985,3.943-2.439,9.581
							c-1.295,5.061-2.284,9.202-2.97,12.423c-2.192,10.271-2.343,15.756-0.45,16.45c2.279,0.834,4.997-0.316,8.154-3.45
							c3.166-3.158,6.131-7.682,8.891-13.579c6.206-13.322,9.341-20.855,9.405-22.598c0.546-0.395,2.472-1.262,5.778-2.6
							c3.061-1.231,4.917-2.231,5.57-3.002c0.321-0.364,0.593-0.615,0.819-0.753l0.465-0.369l4.413-0.305
							c0.406-0.236,1.065-0.509,1.974-0.819c0.728-0.236,1.199-0.429,1.412-0.578l2.889-1.284c1.092-0.492,1.776-0.91,2.055-1.251
							l0.24,0.096l-0.225,0.899c-0.214,0.535-0.813,1.347-1.797,2.439c-1.231,2.343-1.942,4.055-2.135,5.136
							c-0.075,0.364-0.112,1.856-0.112,4.478c0,0.482,0.069,1.273,0.209,2.376c0.064,0.685,0.144,1.257,0.241,1.716
							c0.074,0.418,0.166,0.734,0.273,0.948c1.305,2.472,2.557,4.024,3.755,4.655c0.31,0.395,0.653,0.593,1.027,0.593
							c0.129,0,0.251-0.091,0.369-0.273c0.257-0.041,0.385-0.288,0.385-0.738c0-0.15-0.247-0.432-0.739-0.851l-0.32-0.273
							c-0.075-0.17-0.096-0.432-0.064-0.786c0.096-0.61-0.085-1.327-0.546-2.151c-0.15-0.278-0.284-0.653-0.402-1.124
							c-0.192-0.844-0.289-1.963-0.289-3.354c0-0.181,0.081-0.491,0.241-0.931l0.225-0.626c0.557,0.055,1.22,0.081,1.99,0.081
							c0.524,0,0.947-0.391,1.268-1.172c0.289-0.663,0.423-1.359,0.402-2.087c-0.011-0.438,0.171-0.941,0.546-1.509
							c0.449-0.589,0.861-1.177,1.236-1.764c0.117-0.193,0.218-0.477,0.305-0.851c0.075-0.321,0.161-0.572,0.257-0.754
							c0.214-0.375,0.54-0.711,0.978-1.011c0.396-0.289,0.642-0.52,0.738-0.69c0.182-0.299,0.471-0.615,0.867-0.947
							c0.406-0.343,0.647-0.583,0.723-0.723c0.053-0.096,0.294-0.342,0.722-0.738c0,1.048-0.059,1.873-0.177,2.472
							c0.022,0.546,0.343,1.637,0.963,3.275c0.203,0.587,0.438,1.556,0.705,2.904c0.022,0.096,0.443,1.065,1.268,2.905
							c0.053,0.117,0.745,0.899,2.07,2.343c0.995,1.091,1.583,2.151,1.764,3.177l0.032,0.305c0.086,1.092,0.413,2.226,0.979,3.402
							c0.749,1.562,1.663,2.343,2.745,2.343c0.471,0,0.733-0.647,0.786-1.941c-0.255-1.049-0.562-2.418-0.915-4.11
							c-0.631-2.921-0.989-4.991-1.074-6.211c-0.193-2.546-0.364-4.264-0.514-5.151c-0.064-0.321-0.161-0.68-0.289-1.076
							c0.697,0.599,1.498,1.156,2.408,1.668l-0.032,1.124c0,0.568,0.096,1.06,0.289,1.477c0.502,1.091,1.648,1.696,3.435,1.814
							c0.117,0.321,0.209,0.605,0.273,0.851c0.289,0.834,0.432,1.631,0.432,2.39c0,1.134-0.112,2.172-0.337,3.114
							c-0.278,1.231-0.727,2.387-1.347,3.468l-1.172,2.022c-0.353,0.705-0.53,1.328-0.53,1.862l0.066,0.433
							c0.15,0.266,0.449,0.401,0.898,0.401c0.171,0,0.347-0.107,0.53-0.321c0.524-0.107,0.978-0.487,1.365-1.14l0.722-1.733
							c0.931-1.413,1.472-2.439,1.62-3.081c0.096-0.407,0.321-0.927,0.674-1.558l0.193-0.353c0.247-0.514,0.385-0.883,0.417-1.107
							c0.022-0.236,0.032-1.268,0.032-3.098c0-2.097-0.032-3.419-0.096-3.965l-0.642-5.232c-0.053-0.364-0.144-0.69-0.273-0.978
							c-0.395-1.026-1.241-2.236-2.535-3.627l-0.096-0.08c1.69-0.439,2.99-0.856,3.899-1.251l0.739-0.418
							c0.224,0,0.438,0.103,0.642,0.305c0.385,0.429,0.61,0.668,0.674,0.723c0.91,0.674,2.546,1.011,4.911,1.011
							c0.385,0,0.738-0.075,1.059-0.225c-0.022,0.321-0.026,0.568-0.016,0.738c0,0.953,0.209,1.643,0.626,2.07
							c0.268,0.268,0.535,0.675,0.803,1.22c0.214,0.428,0.375,0.83,0.482,1.204c0.011,0,0.117,0.369,0.32,1.108
							c0.225,0.823,0.455,1.428,0.691,1.814c0.77,1.295,1.626,0.395,2.568-2.697c0.022-0.085,0.064-0.337,0.128-0.754
							c0.066-0.406,0.103-0.658,0.114-0.753l1.074-3.74l0.016,0.016c0.278,0.247,1.001,0.369,2.167,0.369
							c0.235,0,0.465-0.08,0.69-0.241l0.08,0.289c0.074-0.043,0.535,1.027,1.38,3.21c0.856,2.225,1.445,3.327,1.766,3.305
							c0.685,0,1.299-1.054,1.845-3.162c0.46-2.268,0.739-3.574,0.835-3.917c0.268-0.685,0.578-1.926,0.931-3.723
							c0-0.878-0.005-1.321-0.016-1.332c-0.108-0.31-0.583-0.792-1.429-1.445c-1.455-1.08-2.611-1.557-3.467-1.428
							c-0.492,0.085-1.076,0.498-1.75,1.236c-0.674,0.705-1.273,1.059-1.797,1.059c-0.867,0.011-2.059-0.637-3.578-1.941
							c-0.182-0.151-0.776-0.353-1.782-0.61c-1.08-0.299-1.637-0.461-1.669-0.482c-0.705-0.395-2.017-1.151-3.932-2.262
							c-1.97-1.145-3.547-2.097-4.735-2.856c-0.011-0.546-0.364-0.952-1.059-1.22c-0.653-0.161-1.081-0.289-1.284-0.385
							c-0.429-0.269-0.845-0.611-1.251-1.027c-0.492-0.513-0.787-0.801-0.883-0.867c-1.605-1.605-2.616-2.605-3.033-3v-0.081
							c0-0.417-0.31-0.69-0.931-0.818l2.568-4.125c0.686-1.091,1.723-2.825,3.115-5.201c3.05-5.209,4.809-8.688,5.28-10.432
							c0.375-0.535,0.812-1.231,1.316-2.087c1.594-2.686,3.028-4.762,4.301-6.227c1.145-1.306,2.177-2.852,3.098-4.639l2.151-4.654
							c1.978-4.055,3.317-7.154,4.013-9.294c0.032-0.128,0.117-0.342,0.257-0.642l0.272-0.497c0.225-0.353,0.563-0.54,1.012-0.562
							c0.524-0.011,0.856-0.092,0.995-0.241l2.408-2.279c0.299-0.257,0.899-1.038,1.797-2.343l0.626-0.915
							c0.642-0.064,2.777-6.699,6.404-19.902c0.235-1.166,0.557-4.227,0.963-9.18c0.278-3.328,0.46-5.745,0.545-7.255
							c0.055-0.856,0.092-2.006,0.114-3.45c0.631-1.177,1.172-3.734,1.62-7.671c0-0.482-0.133-1.247-0.401-2.295
							c-0.299-1.092-0.455-1.97-0.466-2.633l-0.255-5.088c0-0.675,0.015-1.07,0.048-1.187l0.705-1.524
							c0.139-0.321,0.218-0.754,0.241-1.3c0-0.033,0.08-0.064,0.24-0.096c0.268-0.054,0.621-0.225,1.06-0.514
							c0.225-0.161,0.337-0.412,0.337-0.754c0-0.171-0.069-0.401-0.209-0.69c-0.128-0.299-0.192-0.556-0.192-0.77
							c0.406-0.578,0.807-1.348,1.204-2.311c0.801-1.904,1.204-3.841,1.204-5.81c-0.193-1.038-0.391-1.771-0.594-2.199
							c0.192-0.043,0.39-0.064,0.594-0.064c0.235,0,0.69,0.102,1.364,0.306c0.182,0,0.594-0.103,1.236-0.306l0.241,0.161
							c0.289,0.117,0.668,0.177,1.139,0.177c0.353,0,0.53-0.273,0.53-0.819L194,56.133c0.61,0,1.128,0.022,1.557,0.064
							c0.213-0.022,0.321-0.225,0.321-0.61c0-0.428-0.412-1.166-1.236-2.214c0.46-0.332,0.727-0.578,0.801-0.738
							c0.033-0.075,0.048-0.269,0.048-0.578l-0.015-0.225c-0.097-0.845-0.706-1.958-1.83-3.338c0.385-0.364,0.77-0.701,1.155-1.011
							c0.204-0.171,0.305-0.412,0.305-0.723c0-0.417,0.064-0.813,0.193-1.187c0.128-0.354,0.192-0.664,0.192-0.931
							c0-0.705-0.353-1.332-1.059-1.878c0.182-0.364,0.491-0.69,0.931-0.978c0.342-0.192,0.514-0.391,0.514-0.594
							c0-0.492-0.793-1.883-2.376-4.173l1.075-0.754c0.277-0.182,0.417-0.417,0.417-0.706c0-0.096-0.14-0.251-0.417-0.465
							c-0.342-0.268-0.686-0.562-1.027-0.883c0.299-0.225,0.45-0.53,0.45-0.915c0-0.289-0.108-0.508-0.321-0.658
							c-0.418-0.257-0.835-0.546-1.251-0.867c-0.129-0.107-0.257-0.375-0.387-0.803c-0.107-0.385-0.299-0.653-0.578-0.803
							c0.599-0.225,0.899-0.572,0.899-1.043c0-0.738-0.744-1.268-2.231-1.59c0.085-0.535,0.102-0.899,0.049-1.092
							c-0.097-0.438-0.461-0.781-1.092-1.027c0.353-0.395,0.528-0.808,0.528-1.235c0-0.396-0.753-0.787-2.262-1.172
							c0-0.225,0.085-0.417,0.257-0.578c0-0.375-0.268-0.856-0.803-1.445c-0.568-0.631-1.188-0.995-1.862-1.092
							c0.268-0.375,0.402-0.61,0.402-0.705C185.348,18.701,185.026,18.268,184.385,17.882z"/>
						<g>
							<g>
								<path fill="none" stroke="#292929" stroke-width="1.6378" stroke-miterlimit="10" d="M163.457,39.999
									c-0.161,0.513-0.75,0.77-1.766,0.77c-0.75,0-1.31-0.043-1.686-0.129l0.016,0.033c0.299,0.353,0.675,0.615,1.124,0.786
									c0.022-0.032,0.059-0.048,0.112-0.048l1.124,0.096c0.793,0,1.29-0.225,1.493-0.674l0.159-0.465
									c0.011-0.064,0.038-0.118,0.08-0.161l0.049-0.369c0-0.428-0.161-0.642-0.482-0.642c-0.096,0-0.15,0.085-0.159,0.257
									C163.509,39.658,163.489,39.839,163.457,39.999z"/>
							</g>
						</g>
						<g>
							<path fill="none" stroke="#292929" stroke-width="1.6378" stroke-miterlimit="10" d="M163.457,39.999
								c-0.161,0.513-0.75,0.77-1.766,0.77c-0.75,0-1.31-0.043-1.686-0.129l0.016,0.033c0.299,0.353,0.675,0.615,1.124,0.786
								c0.022-0.032,0.059-0.048,0.112-0.048l1.124,0.096c0.793,0,1.29-0.225,1.493-0.674l0.159-0.465
								c0.011-0.064,0.038-0.118,0.08-0.161l0.049-0.369c0-0.428-0.161-0.642-0.482-0.642c-0.096,0-0.15,0.085-0.159,0.257
								C163.509,39.658,163.489,39.839,163.457,39.999z"/>
						</g>
						<path fill="#292929" d="M163.681,39.197c-0.096,0-0.15,0.085-0.159,0.257c-0.011,0.204-0.032,0.385-0.064,0.546
							c-0.161,0.513-0.75,0.77-1.766,0.77c-0.75,0-1.31-0.043-1.686-0.129l0.016,0.033c0.299,0.353,0.675,0.615,1.124,0.786
							c0.022-0.032,0.059-0.048,0.112-0.048l1.124,0.096c0.793,0,1.29-0.225,1.493-0.674l0.159-0.465
							c0.011-0.064,0.038-0.118,0.08-0.161l0.049-0.369C164.162,39.411,164.002,39.197,163.681,39.197z M158.545,36.501
							c-0.052,0.129-0.08,0.225-0.08,0.288c-0.022,0.086-0.022,0.161,0,0.225c0.043,0.129,0.166,0.192,0.37,0.192
							c0.043,0,0.102-0.107,0.176-0.321c0.097-0.192,0.145-0.321,0.145-0.385c0-0.192-0.086-0.289-0.257-0.289
							C158.748,36.212,158.631,36.308,158.545,36.501z M160.102,36.083c0-0.214-0.114-0.321-0.338-0.321
							c-0.139,0-0.235,0.064-0.288,0.192l-0.049,0.192c-0.011,0.044-0.005,0.102,0.016,0.177c0.033,0.118,0.118,0.177,0.257,0.177
							C159.967,36.501,160.102,36.361,160.102,36.083z M161.498,36.003c0.321,0,0.583-0.048,0.787-0.144
							c0.289,0,0.48,0.219,0.578,0.658c0.096,0.428,0.235,0.642,0.417,0.642c0.182,0,0.273-0.096,0.273-0.289
							c-0.139-1.027-0.578-1.541-1.316-1.541c-0.931,0-1.396,0.128-1.396,0.385l0.016,0.144
							C160.919,35.955,161.135,36.003,161.498,36.003z M157.341,36.564l-0.016-0.048c-0.129,0.054-0.219,0.08-0.273,0.08
							c-0.085,0-0.129-0.048-0.129-0.144c0-0.193,0.824-0.647,2.472-1.365l1.156-0.642c0.856-0.395,1.52-0.593,1.99-0.593
							c1.679,0,2.52,1.358,2.52,4.076c0,0.599-0.074,1.3-0.225,2.103c-0.043,0.235-0.181,0.583-0.417,1.044
							c-0.055,0.631-0.599,0.947-1.638,0.947c-1.059,0-1.915-0.247-2.568-0.738l-0.177-0.144c-0.192-0.074-0.539-0.45-1.043-1.124
							c-0.31-0.375-0.557-0.76-0.738-1.156c-0.066-0.118-0.257-0.55-0.578-1.299c-0.225-0.578-0.337-0.899-0.337-0.963V36.564z"/>
						<path fill="#292929" d="M181.191,35.153c0.61-0.631,1.31-0.947,2.103-0.947c1.006-0.011,1.509,1.139,1.509,3.45
							c0,0.502-0.043,1.096-0.129,1.782c-0.235,1.134-0.647,1.701-1.236,1.701c-0.642,0-1.155-0.209-1.54-0.627l-0.114-0.112
							c-0.108-0.075-0.316-0.396-0.626-0.963c-0.182-0.321-0.332-0.647-0.45-0.979c-0.074-0.161-0.133-0.305-0.176-0.433
							c-0.074-0.225-0.128-0.449-0.161-0.674C180.276,36.549,180.549,35.815,181.191,35.153z M181.431,36.308
							c0.022,0.096,0.074,0.144,0.161,0.144c0.159,0,0.24-0.123,0.24-0.369c0-0.171-0.069-0.257-0.207-0.257
							c-0.086,0-0.145,0.054-0.177,0.161L181.431,36.308z M182.267,35.778l0.016,0.129c0.043,0.074,0.17,0.112,0.385,0.112
							c0.204,0,0.358-0.037,0.465-0.112c0.171,0,0.289,0.182,0.354,0.546c0.064,0.364,0.144,0.545,0.24,0.545
							c0.118,0,0.177-0.08,0.177-0.24c-0.074-0.867-0.342-1.3-0.803-1.3C182.544,35.457,182.267,35.564,182.267,35.778z"/>
						<path fill="none" stroke="#292929" stroke-width="1.6378" stroke-miterlimit="10" d="M174.113,46.291
							c0.503-0.91,1.31-1.659,2.424-2.247c1.103-0.599,1.97-0.76,2.6-0.482c2.664,1.166,4.698,3.526,6.099,7.078
							c0.728,1.851,1.279,3.874,1.654,6.068"/>
						<path fill="#292929" d="M177.099,46.772c0.48-0.375,0.963-0.637,1.445-0.786c0.631-0.203,1.043-0.102,1.236,0.305
							c0.096,0.203,0.096,0.316,0,0.337c-0.043,0.011-0.225-0.016-0.546-0.08C178.409,46.387,177.698,46.462,177.099,46.772z"/>
						<path fill="none" stroke="#292929" stroke-width="1.6378" stroke-miterlimit="10" d="M173.631,52.165
							c0.247,0.278,0.754,0.568,1.525,0.867c0.449,0.182,1.246,0.482,2.39,0.899c2.322,0.952,4.067,2.263,5.232,3.932
							c0.995,1.434,1.562,2.841,1.702,4.221c0.159,1.487-0.112,3.321-0.819,5.505"/>
						<path fill="none" stroke="#292929" stroke-width="1.6378" stroke-miterlimit="10" d="M171.063,48.104
							c-0.61,0.524-1.113,1.134-1.509,1.83c-0.556,1.006-0.626,1.856-0.207,2.552"/>
						<path fill="none" stroke="#292929" stroke-width="1.6378" stroke-miterlimit="10" d="M138.29,197.191l-0.562-1.461
							c-0.61-1.52-1.059-2.583-1.347-3.194c-0.214-0.387-0.395-0.754-0.546-1.108"/>
						<path fill="none" stroke="#292929" stroke-width="1.6378" stroke-miterlimit="10" d="M170.967,53.481
							c0,0.941,1.022,2.087,3.066,3.435c0.117,0.075,0.626,0.354,1.524,0.835c0.15,0.086,0.626,0.102,1.428,0.048
							c0.867,0.032,1.579,0.295,2.135,0.786c0.129,0.107,0.557,0.701,1.285,1.782c0.48,0.696,1.059,1.883,1.733,3.563
							c0.064,0.139,0.225,0.792,0.482,1.958c0.31,1.113,0.658,1.68,1.043,1.701c0.236,0.086,0.482,0.081,0.738-0.016
							c0.28-0.107,0.503-0.288,0.675-0.546"/>
						<path fill="none" stroke="#292929" stroke-width="1.6378" stroke-miterlimit="10" d="M87.605,99.046
							c-0.064,0-0.316,0.786-0.754,2.36c-0.385,1.348-0.712,2.568-0.978,3.659"/>
						<path fill="none" stroke="#292929" stroke-width="1.6378" stroke-miterlimit="10" d="M88.472,108.163
							c-0.31,0-0.771,0.711-1.38,2.135c-0.353,0.781-0.771,1.814-1.252,3.098c-0.064,0.171-0.423,1.711-1.074,4.622"/>
						<path fill="none" stroke="#292929" stroke-width="1.6378" stroke-miterlimit="10" d="M101.102,153.198
							c0.257,0,0.466-0.364,0.626-1.091l0.466-2.985c0.556-3.789,1.412-7.094,2.568-9.919l0.416-1.027
							c1.274-3.253,2.028-5.254,2.263-6.002c0.096-0.322,0.733-1.477,1.91-3.467c0.192-0.332,0.31-0.696,0.354-1.092
							c0.085-0.45,0.177-0.754,0.273-0.915c0.353-0.632,1.594-1.134,3.723-1.509c0.311,3.756,1.402,5.633,3.275,5.633
							c0.375,0,0.781-0.102,1.22-0.305c0.781-0.353,1.445-0.958,1.989-1.814"/>
						<path fill="none" stroke="#292929" stroke-width="1.6378" stroke-miterlimit="10" d="M94.907,218.343
							c0.161-1.904,0.209-4.328,0.145-7.27c-0.086-3.007-0.107-4.773-0.064-5.297c0.054-0.942,0.096-1.885,0.129-2.825l0.032-2.97
							c0.011-2.718,0.037-4.607,0.081-5.666c0.086-2.674,0.128-4.585,0.128-5.729c0-0.738,0.251-1.697,0.754-2.874
							c0.568-1.231,0.963-2.177,1.188-2.841c0.139-0.428,0.332-0.936,0.578-1.524c0.696-1.701,1.674-3.654,2.937-5.858l1.445-2.616
							c0.428-0.055,0.883-0.893,1.365-2.52c0.642-2.206,1.059-3.51,1.251-3.917l1.669-3.306c0.705-1.241,1.407-2.262,2.102-3.066
							l0.064,0.353c0.118,0.193,0.369,0.289,0.754,0.289c1.059,0,1.888-0.582,2.487-1.749c0.395-0.813,0.626-1.702,0.69-2.664
							c0.033-0.438,0.011-1.209-0.064-2.311c-0.032-1.006-0.011-1.764,0.064-2.279c0.225-1.177,0.733-2.734,1.524-4.67
							c1.059-2.461,1.675-3.97,1.845-4.527c0.171-0.502,0.551-1.947,1.14-4.334l0.048-0.224c0.471-1.959,0.952-3.479,1.445-4.559
							c0.438-0.963,1.006-2.718,1.701-5.265c0.354-1.369,0.568-2.209,0.642-2.52c0.321-0.385,0.851-1.412,1.589-3.081
							c1.262-2.996,1.985-4.697,2.166-5.103c0.161-0.407,0.952-1.825,2.375-4.254c0.974-1.69,1.524-3.087,1.653-4.188
							c0.257-2.022,0.813-4.981,1.669-8.876c0.385-1.808,0.658-3.509,0.819-5.103c0.096-1.059,0.145-2.081,0.145-3.065
							c0-1.295-0.053-2.087-0.161-2.376c-0.161-0.471-0.792-1.412-1.893-2.825c-2.257-3.478-3.408-5.216-3.451-5.216"/>
						<path fill="none" stroke="#292929" stroke-width="1.6378" stroke-miterlimit="10" d="M107.121,170.162
							c0,0.278,1.118,2.413,3.354,6.404l2.664,4.782c0.395,0.697,0.62,1.092,0.674,1.188l-0.337,0.514
							c-0.235,0.332-0.354,0.572-0.354,0.722c0,0.332,0.295,0.642,0.883,0.931c-0.257,0.888-0.225,1.396,0.096,1.524
							c0.171,0.074,0.359,0.069,0.562-0.016l-0.112,0.498c-0.033,0.364-0.027,0.668,0.016,0.915
							c0.203,0.845,0.968,1.268,2.295,1.268c0.214,0,0.498-0.161,0.851-0.482c0.609-0.321,1.541-0.48,2.792-0.48
							c1.124,0,2.012,0.899,2.664,2.696c0.332,0.92,0.535,1.825,0.61,2.712c0,0.247-0.086,0.717-0.257,1.413
							c0,0.224,0.085,0.631,0.257,1.22c0,0.278-0.199,0.753-0.594,1.428c-0.161,0.268-0.594,0.996-1.299,2.184
							c-0.578,1.069-1.033,2.192-1.365,3.371c-0.117,0.449-0.187,1.176-0.207,2.182c-0.022,0.557-0.033,1.306-0.033,2.248"/>
						<path fill="none" stroke="#292929" stroke-width="1.6378" stroke-miterlimit="10" d="M123.653,201.427
							c-0.461,0-0.947,0.509-1.461,1.525c-1.081,2.952-1.637,4.461-1.669,4.526"/>
						<path fill="none" stroke="#292929" stroke-width="1.6378" stroke-miterlimit="10" d="M144.308,205.489l-1.541-1.381
							c-1.208-1.069-1.963-1.83-2.262-2.279c-0.438-0.706-0.872-1.53-1.299-2.472c0.375-0.524,0.61-1.611,0.705-3.258l0.032-0.369
							c0.022-0.62,0.016-1.018-0.016-1.188c-0.022-0.128-0.268-0.797-0.738-2.006c-0.247-0.631-0.824-1.338-1.734-2.118
							c-0.952-0.845-1.76-1.268-2.424-1.268l-0.272,0.032c-0.097-0.193-0.289-0.61-0.579-1.251c-0.406-0.91-1.017-1.845-1.829-2.808
							c-0.578-0.675-1.086-1.161-1.524-1.461c0.353-0.45,0.711-1.06,1.074-1.83c0-0.204-0.037-0.364-0.112-0.482
							c-0.074-0.117-0.188-0.203-0.337-0.257l-1.204-0.192c-1.424-0.299-2.707-1.376-3.852-3.226
							c-0.342-0.62-0.701-1.358-1.075-2.214c-0.439-1.006-0.781-1.711-1.026-2.118c-0.46-0.727-0.823-2.31-1.092-4.751
							c-0.214-1.766-0.321-3.028-0.321-3.788c-0.011-4.452,0.122-7.33,0.402-8.635c0.385-1.819,1.395-3.756,3.033-5.81
							c1.562-1.745,2.343-2.707,2.343-2.889"/>
						<path fill="none" stroke="#292929" stroke-width="1.6378" stroke-miterlimit="10" d="M157.213,206.58
							c0.268-0.523,0.391-1.017,0.369-1.477c-0.011-0.375-0.053-0.561-0.128-0.561h-0.016c-0.289-0.193-0.551-0.439-0.787-0.739
							c-0.022-0.022-0.064-0.375-0.128-1.06c-0.043-0.46-0.321-0.689-0.835-0.689"/>
						<path fill="none" stroke="#292929" stroke-width="1.6378" stroke-miterlimit="10" d="M166.875,206.932
							c0.043-0.085,0.048-0.454,0.016-1.107c-0.022-0.674-0.022-1.055,0-1.14c0.159-0.771,0.203-1.241,0.128-1.413
							c-0.15-0.502-0.486-0.642-1.011-0.417"/>
						<path fill="none" stroke="#292929" stroke-width="1.6378" stroke-miterlimit="10" d="M182.346,91.551
							c-0.268,0.268-1.803,2.258-4.607,5.97c-2.472,3.264-4.328,5.74-5.57,7.431c-1.572,2.129-2.601,3.83-3.081,5.103
							c-1.69,4.472-3.868,9.18-6.532,14.124c-1.262,2.365-2.424,4.43-3.483,6.195l0.016,0.096c-2.14,2.996-3.637,4.891-4.493,5.682
							c-0.696,0.631-1.514,1.305-2.456,2.022l-2.103,1.557c-2.087,1.509-3.664,2.734-4.734,3.675
							c-0.642,0.578-1.766,1.819-3.371,3.723c-1.209,1.455-2.569,2.66-4.076,3.612l-1.814,1.156
							c-0.941,0.696-1.669,1.481-2.184,2.358c-0.288,0.503-0.936,1.707-1.941,3.612c-2.076,0-3.424,0.91-4.044,2.729
							c-0.225,0.663-0.337,1.787-0.337,3.371l-0.032,2.36c0.011,1.529,0.102,2.711,0.273,3.546c0.181,0.813,0.771,1.782,1.766,2.904
							c1.499,1.691,2.36,2.697,2.584,3.018c0.856,1.22,2.402,3.07,4.638,5.553c2.439,2.697,3.889,4.072,4.349,4.125"/>
						<path fill="none" stroke="#292929" stroke-width="1.6378" stroke-miterlimit="10" d="M178.463,70.751l-2.97,1.412
							c-0.107-0.353-0.369-0.53-0.786-0.53c-0.257,0-0.535,0.182-0.835,0.546c-0.332,0.364-0.722,0.546-1.172,0.546
							c-0.931-0.845-1.524-1.343-1.781-1.493c-0.45-0.268-1.103-0.492-1.959-0.674c-0.738-0.139-1.155-0.284-1.251-0.433
							c-0.139-0.214-0.519-0.444-1.139-0.69c-0.663-0.235-1.108-0.476-1.333-0.722c-0.46-0.696-0.903-1.258-1.332-1.685
							c-0.364-0.364-0.76-0.653-1.188-0.867c-0.472-0.214-0.792-0.396-0.963-0.546c-0.128-0.107-0.284-0.385-0.466-0.835
							c-0.022-0.022-0.203-0.064-0.545-0.128c-0.406-0.064-0.749-0.247-1.027-0.546c-2.129-2.161-3.205-3.242-3.225-3.242
							c-0.48,0-1.295-0.797-2.439-2.391c-1.092-1.584-1.674-2.413-1.75-2.488c-0.502-0.482-1.08-1.386-1.733-2.712
							c-0.546-1.102-1.22-1.867-2.023-2.295v-1.845c0-0.364-0.161-0.717-0.48-1.059c-0.321-0.321-0.492-0.572-0.514-0.754
							c-0.032-0.428,0.053-1.102,0.257-2.022c0.011-0.738-0.498-1.327-1.524-1.766c-0.097-1.262-0.342-2.498-0.739-3.707
							c-0.332-1.049-0.497-2.07-0.497-3.066s0.209-1.99,0.626-2.985c0.406-0.952,0.61-1.472,0.61-1.557
							c0-0.161-0.31-0.551-0.931-1.172c0.364-0.364,1-0.878,1.91-1.541c0.696-0.609,0.803-1.129,0.321-1.557
							c0.771-0.705,2.782-2.648,6.035-5.826c4.247-4.024,6.815-6.034,7.704-6.034c1.231,0,2.194-0.321,2.889-0.963l0.69-0.675
							c0.289-0.203,0.583-0.305,0.883-0.305c1.616,0,2.915,0.198,3.9,0.594c0.963,0.375,1.498,0.561,1.605,0.561l0.705-0.369
							c0.193,0,0.964,0.498,2.311,1.493c1.338,0.985,2.22,1.477,2.648,1.477"/>
						<path fill="none" stroke="#292929" stroke-width="1.6378" stroke-miterlimit="10" d="M156.378,36.228
							c-0.129,0.182-0.193,0.444-0.193,0.786c0,0.118,0.107,0.455,0.321,1.011c0.299,0.738,0.685,1.434,1.156,2.087
							c1.08,1.466,2.429,2.391,4.044,2.777c1.262,0.129,2.214-0.129,2.856-0.771c0.685-0.685,1.103-1.862,1.251-3.531l0.064-0.899
							c0.011-0.685-0.048-1.338-0.176-1.958c-0.418-1.863-1.439-2.793-3.066-2.793c-0.931,0-1.926,0.268-2.985,0.803
							c-0.332,0.159-0.888,0.637-1.668,1.428C157.31,35.843,156.774,36.195,156.378,36.228z"/>
						<path fill="none" stroke="#292929" stroke-width="1.6378" stroke-miterlimit="10" d="M179.586,36.228
							c-0.074,0.139-0.112,0.358-0.112,0.658c0,0.107,0.064,0.391,0.192,0.851c0.161,0.589,0.39,1.177,0.69,1.766
							c0.643,1.241,1.455,2.033,2.439,2.376c0.749,0.096,1.322-0.129,1.717-0.675c0.406-0.578,0.658-1.572,0.753-2.985l0.032-0.771
							c0.011-0.535-0.026-1.086-0.112-1.653c-0.247-1.583-0.861-2.375-1.845-2.375c-0.781,0-1.364,0.08-1.749,0.241
							C180.64,34.055,179.971,34.912,179.586,36.228z"/>
						<path fill="none" stroke="#292929" stroke-width="1.6378" stroke-miterlimit="10" d="M78.874,192.44
							c0.578,1.018,1.364,1.702,2.358,2.055"/>
						<path fill="none" stroke="#292929" stroke-width="1.6378" stroke-miterlimit="10" d="M134.759,189.182
							c0.096,0.246,0.272,0.631,0.528,1.156c0.14,0.277,0.321,0.641,0.546,1.091"/>
						<path fill="none" stroke="#292929" stroke-width="1.6378" stroke-miterlimit="10" d="M138.29,197.191
							c0.225,0.587,0.53,1.31,0.915,2.166"/>
					</g>
				</g>
			</g>
		</g>
	</g>
</g>
</svg>
