<?xml version="1.0" encoding="utf-8"?>
<!-- Generator: Adobe Illustrator 17.0.1, SVG Export Plug-In . SVG Version: 6.00 Build 0)  -->
<!DOCTYPE svg PUBLIC "-//W3C//DTD SVG 1.1//EN" "http://www.w3.org/Graphics/SVG/1.1/DTD/svg11.dtd">
<svg version="1.1" id="Layer_1" xmlns="http://www.w3.org/2000/svg" xmlns:xlink="http://www.w3.org/1999/xlink" x="0px" y="0px"
	 width="187.889px" height="248.138px" viewBox="40.501 2.713 187.889 248.138"
	 enable-background="new 40.501 2.713 187.889 248.138" xml:space="preserve">
<g>
	<g id="Layer_1_1_">
		<g>
			<g id="Layer_1_3_">
				<g>
					<path fill="none" stroke="#373535" stroke-width="1.6023" stroke-miterlimit="10" d="M101.06,40.614
						c-3.592,1.152-6.139,4.305-7.639,9.461c-0.116,0.38-0.359,1.431-0.73,3.153"/>
					<path d="M107.527,231.992l1.299-0.443c2.568-0.834,4.127-1.411,4.675-1.727c0.624-0.338,1.791-0.181,3.504,0.474l0.19-0.063
						c0.221-0.012,0.565,0.074,1.03,0.253l1.41,0.617c0.613,0.265,1.152,0.444,1.616,0.539c0.57,0.244,0.967,0.474,1.189,0.696
						l0.333,0.491c0.084,0.148,0.237,0.244,0.459,0.286c0.275,0.064,0.803,0.095,1.584,0.095c0.973,0,1.544,0.354,1.712,1.062
						c0.106,0.338,0.116,0.814,0.032,1.426c0.063,0.57,0.253,1.031,0.57,1.379c0.307,0.338,0.459,0.719,0.459,1.141
						c0,0.191-0.1,0.449-0.301,0.777l-0.635,1.031c-0.613,1.003-0.919,1.929-0.919,2.774l0.253,0.649
						c0.169,0.475,0.253,0.75,0.253,0.824v0.063c0.053,0.022,0.09,0.048,0.111,0.079c0.064,0.053,0.116,0.228,0.158,0.523
						c0.052,0.379,0.005,0.723-0.143,1.031c-0.169-0.043-0.322-0.116-0.459-0.222l-0.364,0.031
						c-0.761-0.053-1.722-0.143-2.884-0.269c-1.997-0.222-3.429-0.428-4.295-0.618l-1.997-0.586
						c-0.538-0.158-1.326-0.238-2.362-0.238c-0.307,0-0.739-0.021-1.299-0.064c-0.698-0.052-1.078-0.09-1.141-0.111l-0.095-0.127
						c-0.043-0.063-0.142-0.095-0.301-0.095c-2.346,0-3.91,0.329-4.692,0.983l-0.696,0.683c-0.244,0.201-0.592,0.3-1.046,0.3
						c-0.592,0-0.935-0.248-1.03-0.745l-0.032-0.235c0-0.232,0.021-0.475,0.063-0.729l0.079-0.412c0-0.181-0.027-0.312-0.079-0.396
						l-0.269-0.238c-0.402-0.339-0.841-1.056-1.316-2.157c-0.19,0.116-0.735,0.576-1.632,1.379c-0.888,0.73-1.532,1.094-1.933,1.094
						c-0.307,0-0.523-0.012-0.649-0.032l-0.079,0.112l-0.38-0.032l-0.285-0.111l-0.032-0.238c-0.052-0.074-0.079-0.163-0.079-0.269
						l0.047-0.048l0.521-0.593c0-0.655-0.077-1.038,0.811-2.243c0.507-0.696,1.168-1.484,1.98-2.361
						c1.627-1.765,3.022-3.117,4.184-4.058C104.984,233.017,105.951,232.574,107.527,231.992z"/>
					<path fill="#FFFFFF" stroke="#000000" stroke-width="1.6023" stroke-miterlimit="10" d="M160.35,126.389
						c-0.412,1.395-0.633,2.715-0.666,3.962l-0.079,2.806c-0.095,1.162-0.264,2.16-0.507,2.995l-0.871,2.837
						c-0.455,1.479-0.735,2.425-0.841,2.836c-0.095,0.307-0.48,1.241-1.156,2.805c-0.539,1.236-0.81,2.229-0.81,2.979
						c0,0.645-0.237,1.712-0.713,3.203l-0.286,0.871l-0.269,2.14l-0.031,3.488c-0.064,1.838-0.17,3.227-0.317,4.167
						c-0.233,1.596-0.348,3.635-0.348,6.119c0,0.708,0.079,1.797,0.237,3.266c0.158,1.384,0.228,2.483,0.206,3.297
						c-0.011,0.718,0.111,1.806,0.364,3.266c0.265,1.457,0.396,2.552,0.396,3.281l-0.269,4.786c0.011,0.106,0.005,0.289-0.016,0.555
						c0,0.402-0.016,0.809-0.048,1.221l0.048,1.806c0,0.115-0.064,0.433-0.19,0.951c-0.181,0.708-0.36,1.3-0.539,1.775
						c-0.581,1.638-1.205,2.477-1.87,2.519c-0.507,0.391-1.062,0.588-1.664,0.588c-2.219,0-4.871-2.224-7.956-6.673
						c-0.581-0.834-1.273-1.923-2.076-3.264c-1.269-2.093-2.516-4.417-3.741-6.973l-0.809-1.775c-0.316-0.466-0.66-1.305-1.03-2.52
						l-0.665-2.567c-0.242-0.929-0.459-1.6-0.649-2.014c-0.497-1.087-0.861-2.35-1.093-3.788c-0.138-0.877-0.259-2.16-0.364-3.851
						c-0.053-1.067-0.154-2.456-0.301-4.167l-0.999-11.238l0.317-4.739c0-0.126-0.048-0.517-0.143-1.173l-0.142-1.173
						c0-0.508,0.074-1.601,0.222-3.281l0.032-0.238c-0.011-0.064-0.043-0.339-0.095-0.824l-0.127-2.267
						c0-0.814,0.217-2.811,0.651-5.991l0.856-5.96l0.745-2.868c0.349-1.3,0.645-2.31,0.888-3.027
						c0.391-1.225,0.94-2.457,1.649-3.693l0.126-0.238c-0.074-0.19-0.115-0.391-0.126-0.602l-0.016-1.204
						c0-0.75,0.005-1.13,0.016-1.141c0.063-0.465,0.291-0.698,0.682-0.698s0.655,0.174,0.793,0.523
						c0.074,0.179,0.126,0.391,0.158,0.633c0.043,0.032,0.074,0.021,0.095-0.031c-0.074-0.317-0.137-0.671-0.19-1.062
						c-0.063-0.391-0.095-0.676-0.095-0.857c0-0.242,0.036-0.47,0.111-0.682c0.127-0.37,0.333-0.597,0.618-0.682
						c0-0.412-0.079-0.746-0.238-0.999c-0.158-0.253-0.238-0.491-0.238-0.713c0-0.285,0.085-0.581,0.254-0.888
						c0.106-0.232,0.285-0.549,0.539-0.951c0.517-0.94,0.777-1.944,0.777-3.011c0-0.275,0.179-1.03,0.538-2.266l0.159-0.507
						c0.264-1.024,0.395-1.722,0.395-2.093l-0.3-2.726l0.095-2.109c0.063-1.374,0.095-2.414,0.095-3.121
						c0-0.222-0.026-0.661-0.079-1.316c-0.043-0.518-0.064-0.956-0.064-1.315c0-0.877,0.158-1.473,0.475-1.79l0.317-0.301
						c0.095-0.106,0.143-0.242,0.143-0.411c0-0.085-0.163-0.703-0.492-1.854c-0.359-1.268-0.553-2.108-0.585-2.52
						c-0.085-0.666-0.318-1.494-0.698-2.489c-0.307-0.824-0.486-1.405-0.539-1.743c-0.158-0.137-0.285-0.375-0.379-0.714
						c-0.084-0.307-0.132-0.596-0.143-0.872c0-0.095,0.059-0.449,0.174-1.062c0.106-0.56,0.158-0.914,0.158-1.063
						c0-0.021-0.222-0.327-0.666-0.919c-0.455-0.56-0.682-0.882-0.682-0.967l0.064-0.143c0.084-0.106,0.195-0.217,0.332-0.333
						l-0.475-1.062c-0.582-1.279-1.083-2.287-1.506-3.027c-0.106-0.275-0.169-0.597-0.19-0.967l-0.016-2.029
						c0-0.889-0.635-2.647-1.903-5.278c-0.687-1.458-1.405-2.843-2.156-4.152l-0.412-0.698c-0.317-0.507-0.735-1.347-1.252-2.519
						c-0.58-1.342-0.977-2.213-1.189-2.615c-0.147-0.253-0.655-0.888-1.521-1.901l-0.285-0.333
						c-0.835-1.024-1.327-1.806-1.474-2.346l-0.175,0.079c-0.529,0.265-0.845,0.396-0.951,0.396c-0.359,0-1.136-0.48-2.33-1.442
						c-0.802-0.635-2.07-1.686-3.804-3.154l-1.141-0.935c-1.426-1.119-2.636-1.976-3.63-2.568c-1.225-0.739-2.187-1.11-2.884-1.11
						c-1.152,0-2.451,0.371-3.899,1.11l-0.38,0.206c-0.412,0.222-0.909,0.523-1.49,0.904c-0.402,0.265-0.623,0.396-0.666,0.396
						c-0.687,0-1.099-0.163-1.237-0.491c-0.074-0.169-0.079-0.348-0.016-0.538c0-0.116,0.042-0.275,0.127-0.475
						c0.212-0.528,0.755-1.389,1.632-2.583l0.635-0.824c1.469-1.881,2.398-2.938,2.789-3.169c0.434-0.307,0.93-0.692,1.49-1.157
						l0.649-0.538c0.635-0.517,1.131-0.909,1.49-1.173c0.411-0.296,0.771-0.538,1.078-0.73c0.655-0.401,1.358-0.734,2.108-0.999
						c1.236-0.423,2.541-0.628,3.915-0.618l0.111-0.047c0.834-0.392,1.315-0.74,1.442-1.046c0.032-0.043,0.048-0.095,0.048-0.158
						c0.042-0.391,0.158-0.793,0.348-1.204c0.233-0.518,0.554-0.956,0.967-1.315c0.951-0.825,1.728-1.648,2.33-2.473l0.016-0.047
						c0.687-0.94,5.703-5.463-7.307-6.815c0,0-9.811,0.233-13.044,1.712c0,0-3.16,0.923-4.342,2.552
						c-1.183,1.628-0.782,1.067-1.395,2.599l-0.079,0.206c-0.624,1.616-0.935,2.663-0.935,3.138c0,0.391,0.163,0.993,0.491,1.806
						c0.423,1.119,1.252,2.827,2.488,5.119l2.029,3.82c0.286,0.57,0.492,1.025,0.619,1.363c0.201,0.507,0.301,0.882,0.301,1.126
						c0,1.225-0.549,2.562-1.648,4.01l-0.016,0.016c-1.194,1.596-2.636,2.721-4.326,3.376c-0.898,0.348-2.668,1.718-5.309,4.105
						c-0.38,0.359-1.194,1.204-2.441,2.536c-0.718,0.782-0.78,0.489-1.309,0.722c0.961,1.638,1.525,4.096,2.814,5.776
						c1.384,1.775,2.398,2.806,3.043,3.09c-0.465,2.568-0.698,5.405-0.698,8.512c0,1.035,0.021,1.971,0.064,2.805
						c0.011,0.666,0.052,1.41,0.127,2.235c0.179,2.461,0.459,4.274,0.84,5.436l0.111,1.49c0.254,2.874,0.418,4.908,0.491,6.102
						c0.052,0.633,0.238,1.516,0.554,2.647c0.307,1.13,0.466,1.998,0.475,2.6c-0.074,1.184-0.079,2.077-0.016,2.678
						c0.011,0.212,0.052,0.427,0.127,0.649l-0.048,0.301l1.49,10.809c0.633,4.364,1.109,7.407,1.426,9.129
						c0.064,1.183,0.19,2.762,0.38,4.739c0.285,2.884,0.423,4.86,0.412,5.928c0.084,1.152,0.185,3.519,0.301,7.1l0.015,0.412
						c0.074,1.384,0.212,2.468,0.412,3.25l0.286,3.503c0.253,2.937,0.391,4.733,0.411,5.388c0.085,3.191,0.174,5.357,0.269,6.498
						c0.116,1.331,0.254,2.288,0.412,2.869c0.095,1.49,0.248,3.154,0.459,4.993c0.222,1.806,0.402,3.143,0.538,4.01
						c0.106,0.633,0.222,1.221,0.349,1.758c0.253,0.888,0.454,1.966,0.602,3.234l0.301,3.153c0.201,2.092,0.597,3.867,1.189,5.325
						c0.233,1.384,0.348,2.134,0.348,2.25c0,0.475,0.248,2.932,0.746,7.37c0.37,3.317,0.687,5.928,0.951,7.829l0.316,2.045
						c0.181,1.121,0.296,2.557,0.349,4.311l0.175,5.737c-0.328,0.623-0.676,1.32-1.046,2.092c-0.265,0.56-0.798,1.765-1.601,3.614
						c-0.592,1.426-1.431,3.058-2.52,4.898l-1.3,2.187c0,0.253,0.143,0.455,0.428,0.602c0.222,0.095,0.714,0.232,1.474,0.412
						l-0.048,0.047c-0.275,0.433-0.443,0.972-0.506,1.617c-0.021,0.275-0.032,0.777-0.032,1.505c0,0.286,0.068,0.893,0.206,1.822
						l0.032,0.175c0.137,0.887,0.205,1.568,0.205,2.044c-0.01,0.508,0.122,1.141,0.396,1.903c0.466,1.257,0.73,2.007,0.793,2.25
						c0.127,0.433,0.222,1.194,0.285,2.283c0.115,0.75,0.343,1.305,0.682,1.664l0.269,0.222c0.138,0.084,0.359,0.163,0.666,0.238
						l0.698,0.111c0.538,0.126,0.888,0.507,1.046,1.141c0.064,0.275,0.244,0.555,0.539,0.84l1.299-0.443
						c2.568-0.834,4.127-1.411,4.675-1.727c0.624-0.338,1.791-0.181,3.504,0.474l0.19-0.063c0.221-0.012,0.565,0.074,1.03,0.253
						l1.41,0.617c0.613,0.265,1.152,0.444,1.616,0.539c0.57,0.244,0.967,0.474,1.189,0.696l0.333,0.491
						c0.084,0.148,0.237,0.244,0.459,0.286c0.275,0.064,0.803,0.095,1.584,0.095c0.973,0,1.544,0.354,1.712,1.062
						c0.106,0.338,0.116,0.814,0.032,1.426c0.063,0.57,0.253,1.031,0.57,1.379c0.307,0.338,0.459,0.719,0.459,1.141
						c0,0.191-0.1,0.449-0.301,0.777l-0.635,1.031c-0.613,1.003-0.919,1.929-0.919,2.774l0.253,0.649
						c0.169,0.475,0.253,0.75,0.253,0.824v0.063c0.053,0.022,0.09,0.048,0.111,0.079c0.064,0.053,0.116,0.228,0.158,0.523
						c0.052,0.379,0.46,0.141,0.313,0.449c0.158,0.042-0.111,0.645,0.099,0.645c0.158,0,0.502-0.122,1.03-0.364
						c0.55-0.242,0.861-0.365,0.936-0.365c0.158,0,0.253,0.027,0.285,0.079c0.031,0.021,0.047,0.048,0.047,0.079
						c0.074,0.803,0.581,1.712,1.521,2.727c0.296,0.327,0.619,0.633,0.967,0.919c0.275,0.233,0.427,0.348,0.459,0.348
						c0.201,0,0.364-0.138,0.491-0.412c0.116-0.264,0.206-0.439,0.269-0.522c0.074,0.052,0.222,0.259,0.444,0.617
						c0.275,0.338,0.613,0.507,1.015,0.507c0.93-0.761,1.585-1.357,1.966-1.791l0.032,0.079c0,0.539,0.354,0.882,1.062,1.031
						c0.412,0.095,1.078,0.174,1.997,0.238v0.538c0.063,0.202,0.285,0.301,0.666,0.301c0.043,0,0.307-0.169,0.792-0.507
						c0.466-0.338,0.841-0.507,1.126-0.507l0.683,0.3c0.454,0.212,0.967,0.317,1.537,0.317c0.56,0,0.925-0.158,1.094-0.475
						l0.143-0.553c0.052,0.042,0.412,0.106,1.078,0.19c0.707,0.074,1.114,0.111,1.22,0.111c0.423,0,0.698-0.253,0.824-0.761
						c0.032-0.55,0.064-0.857,0.096-0.919c0.115,0.147,0.237,0.381,0.364,0.696c0.127,0.296,0.253,0.507,0.381,0.635
						c0.412,0.423,1.352,0.635,2.821,0.635c0.169,0,0.618-0.132,1.348-0.396c0.687-0.233,1.103-0.45,1.252-0.649l0.142-3.898
						c0-0.116,0.068-0.36,0.206-0.73c0.148-0.338,0.222-0.534,0.222-0.588c0-0.115-0.048-0.269-0.143-0.459
						c-0.095-0.191-0.143-0.348-0.143-0.475c0-0.379,0.169-1.126,0.507-2.235l0.016-0.032c0.444-1.362,0.915-2.113,1.411-2.251
						l-0.079-0.253v-0.348c0-0.338,0.438-0.941,1.316-1.806c0.845-0.824,1.39-1.236,1.632-1.236c0.232,0,0.433-0.148,0.601-0.444
						c0.095-0.179,0.205-0.517,0.333-1.014c0.158-0.517,0.286-0.851,0.38-0.999c0.179-0.307,0.407-0.46,0.682-0.46
						c0.127,0,0.244,0.064,0.348,0.191c0.084,0.115,0.197,0.174,0.332,0.174c0.053,0,0.233-0.163,0.539-0.491l1.283-1.284
						l0.064-0.079c0-0.031,0.017-0.064,0.048-0.095c0.391-0.655,0.586-1.194,0.586-1.617c0-0.084-0.095-0.565-0.285-1.442
						l-0.286-1.284c0-0.201,0.026-0.343,0.079-0.427c0.074-0.148,0.217-0.222,0.427-0.222c0.127,0,0.371,0.212,0.73,0.635
						c0.296,0.348,0.539,0.671,0.73,0.967c0-0.021,0.1-0.276,0.301-0.762c0.179-0.454,0.269-0.729,0.269-0.824l-0.206-0.696
						c-0.147-0.433-0.221-0.692-0.221-0.777c0-0.455,0.137-0.893,0.412-1.316c0.285-0.423,0.427-0.786,0.427-1.094
						c0-0.053-0.053-0.379-0.158-0.983l-0.143-0.983c0-0.475,0.202-1.3,0.602-2.472c0.454-1.279,0.966-2.472,1.537-3.583
						c1.289-2.462,2.484-3.883,3.583-4.263l0.856-1.378c2.747-4.375,4.12-7.296,4.12-8.765c0-0.676-0.073-1.336-0.221-1.98
						c-0.158-0.602-0.238-1.485-0.238-2.647c0-1.036-1.474-1.553-4.422-1.553c-1.098,0-2.014-0.348-2.741-1.046
						c-0.265-0.264-0.47-0.529-0.618-0.793l-0.079-0.111c-0.57-0.264-0.898-0.778-0.983-1.537l-0.016-0.158
						c-0.031-0.295-0.011-0.66,0.064-1.093l0.126-0.714c0-0.73-0.142-1.268-0.427-1.616c-0.19-0.212-0.497-0.391-0.919-0.539
						c-0.412-0.158-0.676-0.338-0.793-0.538c-0.201-0.307-0.238-0.82-0.111-1.537c0.064-0.391,0.036-1.21-0.079-2.457l-0.222-1.854
						l0.016-0.238l0.032-0.143l0.095-0.047c0.084-0.042,0.185-0.064,0.301-0.064c0.148,0,0.385,0.122,0.713,0.365l0.523,0.364
						l0.507-0.111c-0.064-0.084-0.338-0.312-0.824-0.683c-0.348-0.264-0.522-0.502-0.522-0.713c0-0.233,0.148-0.528,0.443-0.888
						c0.285-0.359,0.427-0.57,0.427-0.635c0-0.253-0.289-0.607-0.871-1.062c-0.581-0.454-0.872-0.755-0.872-0.904
						c0-0.095,0.127-0.364,0.38-0.808c0.254-0.444,0.38-0.778,0.38-1c0-0.285-0.042-0.502-0.126-0.648
						c-0.233-0.412-0.418-0.804-0.555-1.174c-0.053,0.032-0.217,0.269-0.491,0.714c-0.19,0.296-0.455,0.443-0.793,0.443
						c-0.328,0-0.528-0.147-0.601-0.443l-0.047-0.491c0-0.486,0.162-0.924,0.49-1.315c0.285-0.328,0.649-0.597,1.094-0.809
						l0.142-0.048l-0.364-0.474c-1.247-1.711-1.992-3.07-2.235-4.073c0.031-0.084,0.067-0.148,0.111-0.19
						c0.064-0.064,0.169-0.095,0.317-0.095c0.233,0,0.475,0.195,0.73,0.586l0.474,0.761c-0.083-0.423-0.316-1.241-0.696-2.457
						c-0.402-1.3-0.64-2.134-0.714-2.505c-0.169-0.654-0.379-1.252-0.633-1.79c-0.242-0.486-0.498-0.919-0.761-1.3
						c-0.307-0.444-0.503-0.75-0.588-0.919c-0.169-0.317-0.253-0.635-0.253-0.952c0-0.138,0.017-0.253,0.048-0.348l0.031-0.143
						l0.031-0.079c0.043-0.063,0.143-0.095,0.301-0.095c0.296,0,0.497,0.106,0.602,0.317l0.333,0.618h0.078
						c0-0.063-0.162-0.486-0.49-1.269c-0.329-0.834-0.491-1.32-0.491-1.458c0-0.084,0.026-0.169,0.078-0.253
						c0.096-0.179,0.249-0.328,0.46-0.443l-0.158-0.317c-0.064-0.138-0.095-0.286-0.095-0.444c0-0.115,0.064-0.333,0.19-0.648
						c0.116-0.286,0.175-0.503,0.175-0.651c0-0.21-0.212-0.506-0.635-0.887c-0.422-0.391-0.635-0.751-0.635-1.078
						c0-0.242-0.048-0.602-0.143-1.078c-0.095-0.455-0.142-0.735-0.142-0.841c0-0.379,0.058-0.592,0.174-0.633
						c0.147-0.063,0.307-0.17,0.475-0.317l-0.396-0.602c-0.665-0.729-0.957-1.224-0.872-1.49l0.238-0.396
						c0.106-0.201,0.158-0.443,0.158-0.729c0-0.043-0.201-0.371-0.601-0.983c-0.402-0.613-0.602-0.941-0.602-0.984
						c0-0.242,0.107-0.49,0.317-0.743c0.201-0.242,0.301-0.481,0.301-0.714c0-0.116-0.048-0.486-0.143-1.109
						c-0.095-0.613-0.143-0.984-0.143-1.11c0-1.881,0.396-4.089,1.189-6.625c0.233-0.707,0.491-1.447,0.777-2.219
						c0.466-1.257,1.126-2.869,1.98-4.834c1.469-3.266,2.483-5.574,3.043-6.926c1.036-2.473,1.717-4.518,2.045-6.134
						c-0.179,0.412-0.502,1.014-0.966,1.806c0,0.011-0.57,0.945-1.712,2.805c-0.434,0.676-0.893,1.648-1.379,2.916
						c-0.581,1.5-0.983,2.457-1.205,2.868c-1.268,2.324-2.187,4.248-2.757,5.769C160.716,125.222,160.52,125.797,160.35,126.389z"/>
					<g>
						<path d="M81.803,18.71c0-0.19-0.074-0.26-0.222-0.206c-0.148,0.032-0.222,0.1-0.222,0.206c0,0.032,0.016,0.063,0.047,0.095
							l0.174,0.158l0.127-0.047l0.079-0.048l0.016-0.047V18.71H81.803z M72.5,32.34c0.729-0.338,1.421-0.601,2.076-0.792
							c-1.279,0.063-2.594,0.21-3.946,0.443c-0.275,0.043-1.162,0.238-2.663,0.586l-2.9,0.649c-0.486,0.084-1.083,0.217-1.79,0.396
							c-0.993,0.244-1.886,0.502-2.679,0.777c-0.644,0.201-1.86,0.645-3.645,1.332c-1.521,0.592-3.08,1.627-4.676,3.106l-1.648,1.6
							l1.204-0.475c1.447-0.529,2.762-0.967,3.946-1.315c0.465-0.137,0.861-0.242,1.189-0.316l0.57-0.301
							c0.56-0.412,2.145-1.024,4.755-1.838c3.551-1.024,5.589-1.638,6.118-1.839c0.475-0.201,0.983-0.443,1.521-0.729l0.349-0.174
							C71.146,32.995,71.887,32.626,72.5,32.34z M83.039,18.251v-0.079c-0.032-0.137-0.127-0.217-0.285-0.238
							c-0.158,0-0.253,0.08-0.285,0.238l-0.016,0.111l0.016,0.158c0.032,0.095,0.122,0.143,0.269,0.143
							C82.938,18.584,83.039,18.473,83.039,18.251z M81.327,17.822c-0.021,0.084-0.016,0.154,0.016,0.206
							c0.011,0.064,0.063,0.111,0.158,0.143l0.158,0.016l0.126-0.016c0.106-0.053,0.165-0.085,0.174-0.095
							c0.095-0.074,0.143-0.165,0.143-0.27c0-0.19-0.127-0.301-0.381-0.333C81.46,17.463,81.327,17.58,81.327,17.822z M80.44,16.792
							c0,0.063,0.011,0.095,0.031,0.095l0.048-0.047l0.49-0.159c0.349-0.116,0.586-0.174,0.714-0.174
							c0.877,0,1.494,0.355,1.854,1.062l0.349,1.015c-0.053,0.043-0.116,0.115-0.19,0.222l-0.348,0.57
							c-0.412,0.55-0.977,0.825-1.696,0.825c-0.328,0-0.57-0.217-0.729-0.649c-0.106-0.275-0.158-0.529-0.158-0.761l0.016-0.19
							c0.011-0.063-0.027-0.158-0.111-0.285c-0.158,0.074-0.275,0.244-0.348,0.507c-0.064,0.19-0.095,0.374-0.095,0.554
							c0.031,0.296,0.137,0.56,0.316,0.793c0.349,0.507,0.898,0.761,1.648,0.761c0.624,0,1.162-0.291,1.617-0.872
							c0.359-0.475,0.538-0.84,0.538-1.094l-0.048-0.19v-0.063c0-0.169-0.026-0.349-0.079-0.538
							c-0.095-0.339-0.275-0.64-0.538-0.904c-0.339-0.36-0.782-0.64-1.332-0.841c-0.517-0.179-0.967-0.238-1.347-0.174
							C80.641,16.317,80.44,16.497,80.44,16.792z M196.567,54.18c0.169,0.824,0.503,2.05,0.999,3.677
							c0.245,0.814,0.63,2.029,1.158,3.646c0.232,0.75,0.607,1.765,1.125,3.043l1.744,4.295c1.12,2.98,1.679,5.43,1.679,7.354v0.159
							c0.466,1.099,0.809,2.324,1.031,3.677c0.221,1.374,0.449,3.519,0.682,6.435c0.021,1.119,0.289,3.248,0.809,6.387l0.396,2.615
							c0.233,1.691,0.348,3.001,0.348,3.931c0,0.538-0.043,0.936-0.127,1.189c0.233,2.071,0.466,4.834,0.698,8.289
							c0.348,5.219,0.522,8.632,0.522,10.238c0,0.793-0.047,1.664-0.143,2.615c-0.073,0.771-0.169,1.368-0.285,1.79
							c0.095,0.475,0.138,0.913,0.127,1.315c0,0.328-0.037,0.825-0.112,1.49v0.064c-0.063,0.655-0.095,1.226-0.095,1.712
							l0.285,7.639c0,0.201-0.216,3.112-0.648,8.733c-0.158,1.955-0.328,3.688-0.507,5.199v0.095c0,0.115-0.027,0.285-0.08,0.507
							c-0.21,1.702-0.402,2.631-0.569,2.789l-0.175,0.872c-0.295,1.352-0.533,2.477-0.713,3.376l-0.365,2.013
							c-0.137,1.047-0.306,2.959-0.507,5.737c-0.115,1.003-0.238,1.749-0.365,2.235v0.665c0,0.698-0.3,2.568-0.904,5.611
							c-0.612,3.181-0.94,5.051-0.982,5.61l-0.809,5.04c-0.179,1.121-0.38,2.457-0.602,4.01c-0.126,0.972-0.19,1.612-0.19,1.919
							c-0.307,1.216-0.565,2.123-0.777,2.726c-0.084,0.96-0.328,2.536-0.73,4.724l-0.935,5.009c-0.233,1.891-0.566,4.062-1,6.514
							c-0.221,1.152-0.401,2.013-0.538,2.583l0.095,0.174c0.138,0.338,0.174,0.649,0.111,0.936
							c-0.031,0.179-0.126,0.486-0.285,0.919c-0.138,0.454-0.205,0.951-0.205,1.49c0,0.73,0.337,1.496,1.014,2.298
							c0.084,0.115,0.242,0.301,0.474,0.555c0.518,0.233,1.179,0.559,1.982,0.983l0.142,0.063c1.479,0.772,2.922,1.569,4.327,2.393
							c2.027,1.174,3.566,2.118,4.612,2.837c0.328,0.212,1.083,0.655,2.267,1.331l2.076,1.174c0.433,0.264,1.49,0.554,3.171,0.871
							c1.986,0.391,3.085,0.624,3.297,0.698c0.888,0.307,1.722,0.633,2.504,0.983l0.048,0.031c1.152,0.529,1.96,0.882,2.425,1.062
							c0.233,0.084,0.466,0.301,0.698,0.649c0.264,0.402,0.517,0.691,0.761,0.872l2.109,1.204c0.106,0.074,0.269,0.545,0.491,1.41
							c0.179,0.835,0.269,1.348,0.269,1.537c0,0.486-0.702,0.904-2.109,1.252c-1.319,0.307-2.789,0.46-4.405,0.46
							c-0.624,0-1.067-0.09-1.331-0.269c-0.244-0.181-0.439-0.27-0.588-0.27c-0.147,0.074-0.39,0.143-0.729,0.206
							c-0.667,0.148-1.87,0.212-3.614,0.19l-2.932,0.111c-1.026,0-1.896-0.026-2.615-0.078c-0.053,0-0.153-0.059-0.3-0.175
							c-0.138-0.126-0.281-0.19-0.428-0.19c-0.202,0-0.47,0.154-0.809,0.46c-0.379,0.328-0.597,0.502-0.649,0.522
							c-0.338,0.127-0.84,0.212-1.505,0.253c-0.623,0.053-1.078,0.163-1.363,0.333l-1.552,0.919c-0.613,0.381-0.972,0.57-1.078,0.57
							c-0.878,0-1.416-0.074-1.617-0.222c-0.074-0.031-0.101-0.083-0.079-0.158l0.031-0.095c0-0.043,0.026-0.101,0.079-0.175
							l-1.696-0.601c-0.052,0.053-0.131,0.106-0.237,0.158c-0.244,0.169-0.466,0.289-0.667,0.364l-0.205,0.032
							c-0.116,0-0.292-0.011-0.522-0.032c-0.36-0.063-0.714-0.205-1.062-0.426c-0.138-0.085-0.281-0.202-0.428-0.349l-0.633,0.127
							l-1.839,0.538l-1.221,0.111c-0.581,0.053-0.888,0.101-0.919,0.143c-0.379,0.455-0.719,0.645-1.014,0.57
							c-0.296-0.179-0.512-0.269-0.649-0.269c-0.475,0-0.809,0.106-0.999,0.317c-0.095,0.115-0.19,0.348-0.285,0.696
							c-0.074,0.317-0.195,0.55-0.364,0.698c-0.242,0.21-0.655,0.317-1.236,0.317c-2.251,0-3.718-0.084-4.406-0.254
							c-0.412-0.095-0.617-0.264-0.617-0.507v-0.047l-0.714-0.427c-1.003-0.645-1.822-1.031-2.457-1.158l-0.206-0.079
							c-0.295-0.147-0.872-0.497-1.726-1.046l-1.57-1.031c-1.311,0-2.15,0.148-2.519,0.444c-0.107,0.095-0.197,0.21-0.27,0.348
							c-0.063,0.148-0.137,0.238-0.221,0.269c-0.253,0.138-0.761,0.301-1.522,0.491c-0.645,0.158-1.072,0.323-1.283,0.491
							l0.031,0.031c0.433,0.624,1.003,1.474,1.712,2.552c0.856,1.3,1.283,1.982,1.283,2.045c0,0.234-0.19,0.419-0.57,0.555
							l-0.031,0.016c-0.348,0.116-0.967,0.245-1.853,0.38c-3.688,0.55-6.182,0.957-7.482,1.221l-2.852,0.824
							c-1.627,0.443-2.948,0.665-3.963,0.665c-0.106,0-0.311,0.043-0.617,0.127l-0.095,0.031l0.142-3.898
							c0-0.116,0.068-0.36,0.206-0.73c0.148-0.338,0.222-0.534,0.222-0.588c0-0.115-0.048-0.269-0.143-0.459
							c-0.095-0.191-0.143-0.348-0.143-0.475c0-0.379,0.169-1.126,0.507-2.235l0.016-0.032c0.444-1.362,0.915-2.113,1.411-2.251
							l-0.079-0.253v-0.348c0-0.338,0.438-0.941,1.316-1.806c0.845-0.824,1.39-1.236,1.632-1.236c0.232,0,0.433-0.148,0.601-0.444
							c0.095-0.179,0.205-0.517,0.333-1.014c0.158-0.517,0.286-0.851,0.38-0.999c0.179-0.307,0.407-0.46,0.682-0.46
							c0.127,0,0.244,0.064,0.348,0.191c0.084,0.115,0.197,0.174,0.332,0.174c0.053,0,0.233-0.163,0.539-0.491l1.283-1.284
							l0.064-0.079c0-0.031,0.017-0.064,0.048-0.095c0.391-0.655,0.586-1.194,0.586-1.617c0-0.084-0.095-0.565-0.285-1.442
							l-0.286-1.284c0-0.201,0.026-0.343,0.079-0.427c0.074-0.148,0.217-0.222,0.427-0.222c0.127,0,0.371,0.212,0.73,0.635
							c0.296,0.348,0.539,0.671,0.73,0.967c0-0.021,0.1-0.276,0.301-0.762c0.179-0.454,0.269-0.729,0.269-0.824l-0.206-0.696
							c-0.147-0.433-0.221-0.692-0.221-0.777c0-0.455,0.137-0.893,0.412-1.316c0.285-0.423,0.427-0.786,0.427-1.094
							c0-0.053-0.053-0.379-0.158-0.983l-0.143-0.983c0-0.475,0.202-1.3,0.602-2.472c0.454-1.279,0.966-2.472,1.537-3.583
							c1.289-2.462,2.484-3.883,3.583-4.263l0.856-1.378c2.747-4.375,4.12-7.296,4.12-8.765c0-0.676-0.073-1.336-0.221-1.98
							c-0.158-0.602-0.238-1.485-0.238-2.647c0-1.036-1.474-1.553-4.422-1.553c-1.098,0-2.014-0.348-2.741-1.046
							c-0.265-0.264-0.47-0.529-0.618-0.793l-0.079-0.111c-0.57-0.264-0.898-0.778-0.983-1.537l-0.016-0.158
							c-0.031-0.295-0.011-0.66,0.064-1.093l0.126-0.714c0-0.73-0.142-1.268-0.427-1.616c-0.19-0.212-0.497-0.391-0.919-0.539
							c-0.412-0.158-0.676-0.338-0.793-0.538c-0.201-0.307-0.238-0.82-0.111-1.537c0.064-0.391,0.036-1.21-0.079-2.457l-0.222-1.854
							l0.016-0.238l0.032-0.143l0.095-0.047c0.084-0.042,0.185-0.064,0.301-0.064c0.148,0,0.385,0.122,0.713,0.365l0.523,0.364
							l0.507-0.111c-0.064-0.084-0.338-0.312-0.824-0.683c-0.348-0.264-0.522-0.502-0.522-0.713c0-0.233,0.148-0.528,0.443-0.888
							c0.285-0.359,0.427-0.57,0.427-0.635c0-0.253-0.289-0.607-0.871-1.062c-0.581-0.454-0.872-0.755-0.872-0.904
							c0-0.095,0.127-0.364,0.38-0.808c0.254-0.444,0.38-0.778,0.38-1c0-0.285-0.042-0.502-0.126-0.648
							c-0.233-0.412-0.418-0.804-0.555-1.174c-0.053,0.032-0.217,0.269-0.491,0.714c-0.19,0.296-0.455,0.443-0.793,0.443
							c-0.328,0-0.528-0.147-0.601-0.443l-0.047-0.491c0-0.486,0.162-0.924,0.49-1.315c0.285-0.328,0.649-0.597,1.094-0.809
							l0.142-0.048l-0.364-0.474c-1.247-1.711-1.992-3.07-2.235-4.073c0.031-0.084,0.067-0.148,0.111-0.19
							c0.064-0.064,0.169-0.095,0.317-0.095c0.233,0,0.475,0.195,0.73,0.586l0.474,0.761c-0.083-0.423-0.316-1.241-0.696-2.457
							c-0.402-1.3-0.64-2.134-0.714-2.505c-0.169-0.654-0.379-1.252-0.633-1.79c-0.242-0.486-0.498-0.919-0.761-1.3
							c-0.307-0.444-0.503-0.75-0.588-0.919c-0.169-0.317-0.253-0.635-0.253-0.952c0-0.138,0.017-0.253,0.048-0.348l0.031-0.143
							l0.031-0.079c0.043-0.063,0.143-0.095,0.301-0.095c0.296,0,0.497,0.106,0.602,0.317l0.333,0.618h0.078
							c0-0.063-0.162-0.486-0.49-1.269c-0.329-0.834-0.491-1.32-0.491-1.458c0-0.084,0.026-0.169,0.078-0.253
							c0.096-0.179,0.249-0.328,0.46-0.443l-0.158-0.317c-0.064-0.138-0.095-0.286-0.095-0.444c0-0.115,0.064-0.333,0.19-0.648
							c0.116-0.286,0.175-0.503,0.175-0.651c0-0.21-0.212-0.506-0.635-0.887c-0.422-0.391-0.635-0.751-0.635-1.078
							c0-0.242-0.048-0.602-0.143-1.078c-0.095-0.455-0.142-0.735-0.142-0.841c0-0.379,0.058-0.592,0.174-0.633
							c0.147-0.063,0.307-0.17,0.475-0.317l-0.396-0.602c-0.666-0.729-0.957-1.224-0.872-1.49l0.238-0.396
							c0.106-0.201,0.158-0.443,0.158-0.729c0-0.043-0.201-0.371-0.601-0.983c-0.402-0.613-0.602-0.941-0.602-0.984
							c0-0.242,0.107-0.49,0.317-0.743c0.201-0.242,0.301-0.481,0.301-0.714c0-0.116-0.048-0.486-0.143-1.109
							c-0.095-0.613-0.143-0.984-0.143-1.11c0-1.881,0.396-4.089,1.189-6.625c0.233-0.707,0.491-1.447,0.777-2.219
							c0.466-1.257,1.126-2.869,1.98-4.834c1.469-3.266,2.483-5.574,3.043-6.926c1.036-2.473,1.717-4.518,2.045-6.134
							c-0.179,0.412-0.502,1.014-0.966,1.806c0,0.011-0.57,0.945-1.712,2.805c-0.434,0.676-0.893,1.648-1.379,2.916
							c-0.581,1.5-0.983,2.457-1.205,2.868c-1.268,2.324-2.187,4.248-2.757,5.769c-0.222,0.56-0.418,1.136-0.588,1.727
							c-0.412,1.395-0.633,2.715-0.665,3.962l-0.079,2.806c-0.095,1.162-0.264,2.16-0.507,2.995l-0.871,2.837
							c-0.455,1.479-0.735,2.425-0.841,2.836c-0.095,0.307-0.48,1.241-1.156,2.805c-0.539,1.236-0.81,2.229-0.81,2.979
							c0,0.645-0.237,1.712-0.713,3.203l-0.286,0.871l-0.269,2.14l-0.031,3.488c-0.064,1.838-0.17,3.227-0.317,4.167
							c-0.233,1.596-0.348,3.635-0.348,6.119c0,0.708,0.079,1.797,0.237,3.266c0.158,1.384,0.228,2.483,0.206,3.297
							c-0.011,0.718,0.111,1.806,0.364,3.266c0.265,1.457,0.396,2.552,0.396,3.281l-0.269,4.786
							c0.011,0.106,0.005,0.289-0.016,0.555c0,0.402-0.016,0.809-0.048,1.221l0.048,1.806c0,0.115-0.064,0.433-0.19,0.951
							c-0.181,0.708-0.36,1.3-0.539,1.775c-0.581,1.638-1.205,2.477-1.87,2.519c-0.507,0.391-1.062,0.588-1.664,0.588
							c-2.219,0-4.871-2.224-7.956-6.673c-0.581-0.834-1.273-1.923-2.076-3.264c-1.269-2.093-2.516-4.417-3.741-6.973l-0.809-1.775
							c-0.316-0.466-0.66-1.305-1.03-2.52l-0.666-2.567c-0.242-0.929-0.459-1.6-0.649-2.014c-0.497-1.087-0.861-2.35-1.093-3.788
							c-0.138-0.877-0.258-2.16-0.364-3.851c-0.053-1.067-0.154-2.456-0.301-4.167l-0.999-11.238l0.317-4.739
							c0-0.126-0.048-0.517-0.143-1.173l-0.142-1.173c0-0.508,0.074-1.601,0.222-3.281l0.032-0.238
							c-0.011-0.064-0.043-0.339-0.095-0.824l-0.127-2.267c0-0.814,0.217-2.81,0.651-5.991l0.856-5.96l0.745-2.868
							c0.349-1.3,0.645-2.31,0.888-3.027c0.391-1.225,0.94-2.457,1.649-3.693l0.126-0.238c-0.074-0.19-0.115-0.391-0.126-0.602
							l-0.016-1.204c0-0.75,0.005-1.13,0.016-1.141c0.063-0.465,0.291-0.698,0.682-0.698c0.391,0,0.655,0.174,0.793,0.523
							c0.074,0.179,0.126,0.391,0.158,0.633c0.043,0.032,0.074,0.021,0.095-0.031c-0.074-0.317-0.137-0.671-0.19-1.062
							c-0.063-0.391-0.095-0.676-0.095-0.857c0-0.242,0.036-0.47,0.111-0.682c0.127-0.37,0.333-0.597,0.618-0.682
							c0-0.412-0.079-0.746-0.238-0.999c-0.158-0.253-0.238-0.491-0.238-0.713c0-0.285,0.085-0.581,0.254-0.888
							c0.106-0.232,0.285-0.549,0.539-0.951c0.517-0.94,0.777-1.944,0.777-3.011c0-0.275,0.179-1.03,0.538-2.266l0.159-0.507
							c0.264-1.024,0.395-1.722,0.395-2.093l-0.3-2.726l0.095-2.109c0.063-1.374,0.095-2.414,0.095-3.121
							c0-0.222-0.026-0.661-0.079-1.316c-0.043-0.518-0.064-0.956-0.064-1.315c0-0.877,0.158-1.473,0.475-1.79l0.317-0.301
							c0.095-0.106,0.143-0.242,0.143-0.411c0-0.085-0.163-0.703-0.492-1.854c-0.359-1.268-0.553-2.108-0.585-2.52
							c-0.085-0.666-0.318-1.494-0.698-2.489c-0.307-0.824-0.486-1.405-0.539-1.743c-0.158-0.137-0.285-0.375-0.379-0.714
							c-0.084-0.307-0.132-0.596-0.143-0.872c0-0.095,0.059-0.449,0.174-1.062c0.106-0.56,0.158-0.914,0.158-1.063
							c0-0.021-0.222-0.327-0.666-0.919c-0.455-0.56-0.682-0.882-0.682-0.967l0.064-0.143c0.084-0.106,0.195-0.217,0.332-0.333
							l-0.475-1.062c-0.582-1.279-1.083-2.287-1.506-3.027c-0.106-0.275-0.169-0.597-0.19-0.967l-0.016-2.029
							c0-0.889-0.635-2.647-1.903-5.278c-0.687-1.458-1.405-2.843-2.156-4.152l-0.412-0.698c-0.317-0.507-0.735-1.347-1.252-2.519
							c-0.58-1.342-0.977-2.213-1.189-2.615c-0.147-0.253-0.655-0.888-1.521-1.901l-0.285-0.333
							c-0.835-1.024-1.327-1.806-1.474-2.346l-0.175,0.079c-0.529,0.265-0.845,0.396-0.951,0.396c-0.359,0-1.136-0.48-2.33-1.442
							c-0.802-0.635-2.07-1.686-3.804-3.154l-1.141-0.935c-1.426-1.12-2.636-1.976-3.63-2.568c-1.225-0.739-2.187-1.11-2.884-1.11
							c-1.152,0-2.451,0.371-3.899,1.11l-0.38,0.206c-0.412,0.222-0.909,0.523-1.49,0.904c-0.402,0.265-0.623,0.396-0.666,0.396
							c-0.687,0-1.099-0.163-1.237-0.491c-0.074-0.169-0.079-0.348-0.016-0.538c0-0.116,0.042-0.275,0.127-0.475
							c0.212-0.528,0.755-1.389,1.632-2.583l0.635-0.824c1.469-1.881,2.398-2.938,2.789-3.169c0.434-0.307,0.93-0.692,1.49-1.157
							l0.649-0.538c0.635-0.517,1.131-0.909,1.49-1.173c0.411-0.296,0.771-0.538,1.078-0.73c0.655-0.401,1.358-0.734,2.108-0.999
							c1.236-0.423,2.541-0.628,3.915-0.619l0.111-0.047c0.834-0.392,1.315-0.74,1.442-1.046c0.032-0.043,0.048-0.095,0.048-0.158
							c0.042-0.391,0.158-0.793,0.348-1.204c0.233-0.518,0.554-0.956,0.967-1.315c0.951-0.825,1.728-1.648,2.33-2.473l0.016-0.047
							c0.687-0.94,1.03-1.775,1.03-2.504c0-0.887-0.38-1.596-1.141-2.124c-0.317-0.19-0.618-0.348-0.904-0.475
							c-0.645-0.317-1.617-0.735-2.916-1.252c-0.602-0.042-1.727-0.195-3.376-0.459l-2.789-0.507c-3.603,0-7.021,0.74-10.255,2.22
							l-0.048,0.016c-1.024,0.475-2.007,1.014-2.948,1.617l-1.347,0.919c-0.317,0.201-0.782,1.067-1.395,2.599l-0.079,0.206
							c-0.624,1.616-0.935,2.663-0.935,3.138c0,0.391,0.163,0.993,0.491,1.806c0.423,1.119,1.252,2.827,2.488,5.119l2.029,3.82
							c0.286,0.57,0.492,1.025,0.619,1.363c0.201,0.507,0.301,0.882,0.301,1.126c0,1.225-0.549,2.562-1.648,4.01l-0.016,0.016
							c-1.194,1.596-2.636,2.721-4.326,3.376c-0.898,0.348-2.668,1.718-5.309,4.105c-0.38,0.359-1.194,1.204-2.441,2.536
							c-0.718,0.782-1.342,1.289-1.87,1.521c-1.627-2.78-5.362-4.686-11.206-5.721c-3.466-0.602-8.13-0.904-13.995-0.904
							c-3.508,0-7.364,1.236-11.57,3.709c-1.141,0.666-2.705,1.686-4.692,3.058c-1.881,1.289-3.138,2.114-3.772,2.473l-0.332-0.301
							c-0.043-0.052-0.064-0.121-0.064-0.205l0.016-0.064l-0.095-0.127c-0.043-0.074-0.064-0.174-0.064-0.301
							c0-0.972,0.866-2.552,2.599-4.739c0.909-1.162,2.14-2.573,3.693-4.231c0.983-1.067,3.112-2.441,6.387-4.12l3.867-1.95
							c1.405-0.73,2.509-1.374,3.313-1.933l1.87-1.332c1.384-0.993,2.859-2.097,4.422-3.313l2.314-1.838
							c1.141-0.93,2.156-1.797,3.043-2.599c0.635-0.571,1.337-1.32,2.109-2.251l1.95-2.298c0.751-0.834,1.575-1.591,2.472-2.267
							l0.841-0.888c2.187-2.335,3.677-3.671,4.469-4.009c0.718-0.328,1.4-0.708,2.045-1.141c0.38-0.254,0.745-0.523,1.093-0.809
							c0.93-0.73,1.749-1.241,2.457-1.537c1.184-0.486,2.932-0.925,5.246-1.315c3.149-1.205,6.566-1.654,10.254-1.347l3.059-0.158
							c2.579,0.084,5.526,0.364,8.844,0.84c2.356,0.36,3.947,0.682,4.771,0.967c0.877-0.106,2.504,0.137,4.881,0.73l1.015,0.269
							c0.338-0.052,0.877-0.048,1.617,0.016c1.152,0.116,2.425,0.348,3.82,0.698c1.458,0.359,2.662,0.729,3.614,1.11l0.475,0.19
							c0.856,0.095,1.733,0.143,2.631,0.143c0.443,0,0.924,0.068,1.442,0.206c1.056,0.253,2.472,0.834,4.248,1.743
							c1.479,0.782,2.821,1.537,4.026,2.267l5.531,2.33c2.188,0.834,3.72,1.342,4.597,1.521c0.581,0.116,1.775,0.554,3.583,1.315
							c0.687,0.275,1.553,0.649,2.6,1.126c1.193,0.549,2.202,1.03,3.026,1.442l0.539,0.269c1.067,0.529,2.134,1.105,3.201,1.728
							c1.162,0.676,2.023,1.247,2.584,1.711c0.654,0.538,1.019,0.988,1.093,1.347l1.426,1.014c0.486,0.391,0.898,0.751,1.236,1.078
							c0.56,0.529,1.131,1.098,1.711,1.711c0.739,0.803,1.453,1.664,2.14,2.583c0.698,0.888,1.32,1.743,1.87,2.568
							c0.592,0.888,1.098,1.675,1.521,2.362l1.379,1.933c1.205,1.711,1.998,2.858,2.378,3.44l0.491,0.729
							c1.479,2.208,2.584,4.01,3.313,5.404c0.148,0.116,0.323,0.317,0.523,0.602c0.233,0.338,0.433,0.671,0.601,0.999
							C195.426,50.361,196.038,52.057,196.567,54.18z"/>
					</g>
				</g>
			</g>
		</g>
	</g>
</g>
</svg>
