<?xml version="1.0" encoding="utf-8"?>
<!-- Generator: Adobe Illustrator 17.0.1, SVG Export Plug-In . SVG Version: 6.00 Build 0)  -->
<!DOCTYPE svg PUBLIC "-//W3C//DTD SVG 1.1//EN" "http://www.w3.org/Graphics/SVG/1.1/DTD/svg11.dtd">
<svg version="1.1" id="Layer_1" xmlns="http://www.w3.org/2000/svg" xmlns:xlink="http://www.w3.org/1999/xlink" x="0px" y="0px"
	 width="254.133px" height="140.869px" viewBox="4.301 60.428 254.133 140.869"
	 enable-background="new 4.301 60.428 254.133 140.869" xml:space="preserve">
<g id="Layer_3">
	<g>
		<path fill="#FFFFFF" d="M212.351,89.089c-0.221-0.811-0.403-1.105-0.424-1.031c0.143,0.29,0.262,0.594,0.367,0.906
			C212.315,89.004,212.331,89.047,212.351,89.089z"/>
		<path fill="#FFFFFF" d="M252.991,150.929c-0.408,0-0.765,0.08-1.081,0.207c-0.415-0.659-0.914-1.264-1.52-1.774
			c-2.975-4.83-7.503-8.374-10.441-13.209c-0.539-0.887-1.116-1.755-1.69-2.623c0.003-0.006,0.008-0.009,0.011-0.015
			c1.579-2.55,2.664-5.08,2.66-7.954c2.024-2.998,3.301-6.521,3.065-10.05c-0.071-1.067-0.305-2.09-0.675-3.04
			c6.092-2.515,14.539-4.441,13.605-12.701c-0.049-0.437-0.18-0.821-0.365-1.151c1.736-3.136-3.082-5.929-4.872-2.796
			c-1.152,2.016-1.997,4.187-3.161,6.196c-1.267,2.191-2.909,2.75-5.376,2.53c-0.631-0.056-1.143,0.076-1.553,0.324
			c-0.017-0.668-0.055-1.338-0.134-2.01c-0.056-0.474-0.197-0.92-0.403-1.318c0.118-0.327,0.229-0.66,0.304-1.028
			c0.715-3.54-4.704-5.046-5.422-1.494c-0.002,0.01-0.007,0.019-0.009,0.029c-0.309,0.035-0.625,0.108-0.948,0.259
			c-1.726,0.805-4.399,1.372-6.078,2.752c-0.747-0.749-1.637-1.342-2.607-1.772c-0.047-0.446-0.3-0.868-0.85-1.134
			c-0.84-0.406-1.657-0.853-2.465-1.314c-1.789-1.989-3.957-3.626-6.591-4.979c-0.507-0.26-1.031-0.454-1.561-0.62
			c-0.55-0.797-1.223-1.502-1.986-1.973c-0.134-0.404-0.305-0.796-0.498-1.183c0.046,0.171,0.093,0.352,0.143,0.57
			c-0.054-0.238-0.124-0.468-0.2-0.695c-0.034-0.064-0.054-0.132-0.089-0.195c-0.219-0.398-0.295-0.656-0.278-0.712
			c-1.362-2.761-4.396-4.485-7.458-4.564c-0.513-0.644-0.993-1.247-1.432-1.727c-3.197-3.486-6.843-6.094-11.147-8.036
			c-2.725-1.229-5.535-2.105-8.388-2.799c-1.359-1.585-3.4-2.645-6.124-2.645c-0.262,0-0.514,0.018-0.763,0.037
			c-0.397-0.088-0.794-0.173-1.204-0.225c-5.932-0.735-11.28-2.015-16.921-2.279c-1.301-0.871-2.826-1.355-4.445-1.186
			c-1.875,0.196-3.822,0.462-5.787,0.695c-1.122-0.611-2.467-0.976-4.051-0.976c-1.01,0-1.926,0.146-2.748,0.41
			c-0.468-0.074-0.951-0.127-1.468-0.129c-2.893-0.016-5.785-0.093-8.673-0.201c-0.184-0.144-0.418-0.253-0.717-0.301
			c-3.411-0.552-6.843-0.896-10.286-1.185c-0.506-0.043-0.888,0.114-1.157,0.373c-1.055-0.575-2.264-0.922-3.622-0.935
			c-4.142-0.038-8.24-0.142-12.368,0.281c-0.08,0.008-0.154,0.024-0.233,0.034c-0.627-0.088-1.295-0.109-2.016-0.034
			c-0.749,0.078-1.495,0.186-2.241,0.305c0-0.001,0-0.002,0-0.003c-0.011,0.003-0.022,0.006-0.034,0.009
			c-0.932,0.148-1.864,0.317-2.795,0.495c-0.257,0.019-0.516,0.034-0.775,0.044c-1.052-0.002-2.103-0.006-3.149-0.004
			c-1.104,0-2.09,0.181-2.971,0.491c-4.114-0.541-7.784-0.232-11.898,0.703c-5.043,1.145-10.136,1.692-15.225,2.61
			c-10.711,1.931-19.219,8.032-27.851,14.156c-7.254,5.145-14.658,8.441-17.65,17.486c-1.452,4.387-1.968,9.396-1.823,14.333
			c-1.449,1.992-2.099,4.52-1.268,6.995c0.299,0.891,0.589,1.803,0.878,2.724c0.083,1.382,0.492,2.696,1.196,3.861
			c2.614,8.45,5.627,17.27,12.909,22.4c0.92,0.648,1.87,1.172,2.84,1.593c-0.223,0.711-0.373,1.476-0.416,2.317
			c0.024-0.469-2.027,2.615-1.941,2.49c-1.863,2.716-1.42,6.597,0.488,9.264c-0.073,0.545,0.039,1.142,0.431,1.752
			c3.704,5.754,1.206,15.086,2.774,21.711c1.336,5.65,7.652,11.037,12.961,12.75c3.461,1.115,4.93-4.313,1.494-5.422
			c-1.445-0.465-2.658-1.05-3.692-1.725c0.437-0.914,0.347-2.016-0.689-2.892c-0.065-0.055-0.121-0.115-0.183-0.17
			c0.139-0.774-0.02-1.612-0.66-2.36c-1.539-1.799-0.687-5.184-0.304-7.25c0.474-2.549,1.158-5.041,1.408-7.628
			c0.087-0.896-0.197-1.567-0.675-2.015c0.117-0.934,0.168-1.829,0.116-2.666c0.367-0.09,0.734-0.205,1.102-0.331
			c0.085,0.265,0.205,0.536,0.401,0.808c3.963,5.468,2.182,15.939,8.547,19.675c0.298,1.067,1.155,1.955,2.594,1.955
			c0.492,0,0.907-0.117,1.266-0.296c0.234,0.464,0.608,0.844,1.095,1.101c0.098,1.32,0.991,2.568,2.698,2.568
			c0.247,0,0.471-0.034,0.684-0.082c0.169,0.655,0.686,1.206,1.565,1.206c1.087,0,2.212-0.02,3.26-0.342
			c0.878-0.269,1.427-1.168,1.177-2.074c-0.238-0.867-1.195-1.448-2.074-1.178c-0.624,0.191-1.215,0.216-1.945,0.219
			c0.204-1.179-0.254-2.495-1.374-3.068c-0.106-1.314-0.997-2.552-2.697-2.552c-0.358,0-0.67,0.069-0.957,0.166
			c0.598-3.207-0.689-6.393-1.475-9.522c-1.211-4.821-0.422-9.973-1.246-14.925c0.569-0.528,1.1-1.097,1.53-1.77
			c2.43-3.79,2.692-8.957,3.771-13.226c0.671-2.65,1.871-4.809,3.343-6.788c0.558,0.132,1.148,0.218,1.779,0.246
			c0.754,0.033,1.383,0.116,1.988,0.28c1.284,0.615,2.596,1.154,3.923,1.667c0.379,0.147,0.75,0.252,1.115,0.338
			c6.474,2.253,13.151,3.406,19.942,4.878c4.669,1.011,9.187,1.702,13.977,1.802c1.34,0.027,2.682,0.015,4.022,0.001
			c3.888,0.931,7.795,1.304,11.784,0.923c0.635,0.159,1.263,0.308,1.871,0.427c4.755,0.928,9.24,0.613,13.99-0.127
			c4.329-0.675,8.603-1.636,12.884-2.555c-0.159,1.861,0.36,3.692,1.377,5.271c0.044,0.806,0.19,1.604,0.435,2.366
			c-0.166,0.414-0.317,0.847-0.432,1.32c-0.358,1.486-0.539,2.964-0.582,4.491c-0.082,2.896,1.36,5.268,3.461,6.737
			c0.051,0.675,0.112,1.337,0.212,1.97c0.45,2.817,2.266,5.26,2.228,8.158c-0.02,1.601,0.345,2.949,0.955,4.077
			c-0.379,1.094-0.78,2.179-1.286,3.224c-0.941,1.949,1.967,3.661,2.912,1.702c0.35-0.723,0.65-1.462,0.938-2.205
			c0.372,0.234,0.759,0.446,1.166,0.62c-0.377,1.602,0.491,3.545,2.624,3.545c0.367,0,0.685-0.071,0.978-0.175
			c0.257,0.175,0.559,0.304,0.901,0.38c-0.031,0.253-0.073,0.504-0.132,0.753c-0.494,2.116,2.758,3.014,3.253,0.896
			c0.298-1.276,0.336-2.574,0.34-3.878c0.295,0.44,0.596,0.871,0.902,1.299c0.002,0.111-0.012,0.218,0.005,0.331
			c0.39,2.593,2.04,4.617,4.148,6.067c0.805,0.554,1.584,0.271,2.043-0.318c1.184,0.694,2.481,1.246,3.962,1.573
			c0.496,0.11,0.948,0.087,1.355-0.019c0.018,0.006,0.033,0.013,0.051,0.019c3.48,1.052,4.955-4.375,1.495-5.422
			c-5.126-1.55-7.475-6.298-9.281-10.967c-0.127-0.331-0.305-0.6-0.503-0.84c0.018-0.218,0.037-0.434,0.04-0.661
			c0.017-1.3-0.101-2.556-0.307-3.789c0.409-1.597,0.406-3.316-0.024-4.907c1.33-2.353,1.528-5.363,0.557-7.898
			c2.601-1.806,3.726-5.088,3.357-8.176c0.709-0.591,1.327-1.262,1.837-1.99c0.065,0.37,0.289,0.713,0.747,0.86
			c4.682,1.503,8.839,3.932,13.658,5.07c0.979,0.23,1.972,0.405,2.971,0.558c0.831,0.431,1.644,0.822,2.429,1.14
			c4.864,1.965,9.715,3.159,14.089,6.176c3.436,2.37,6.787,1.687,9.12-0.398c1.161-0.058,2.375-0.371,3.608-1.007
			c-1.178,0.608,0.965,0.018,1.57,0.028c1.201,0.021,2.36,0.252,3.542,0.454c3.676,0.634,7.408,1.421,11.153,1.231
			c2.134-0.109,3.843-0.858,5.137-1.977c0.284-0.11,0.553-0.239,0.814-0.378c2.469-1.056,3.945-3.256,4.477-5.698
			c0.506-0.328,0.612-1.045,0.32-1.547C256.597,156.145,256.49,150.929,252.991,150.929z M191.164,126.875
			c0.071-0.097,0.145-0.189,0.214-0.288c0.787,0.011,1.574,0.031,2.362,0.048C192.88,126.721,192.021,126.798,191.164,126.875z"/>
	</g>
	<path fill="#FFFFFF" d="M17.261,100.91c0.098-0.191,0.192-0.383,0.304-0.572c0.739-1.253-1.206-2.384-1.942-1.136
		c-0.106,0.18-0.191,0.362-0.286,0.544c-0.033,0.028-0.069,0.038-0.1,0.072c-0.428,0.449-0.754,0.856-1.01,1.267
		c-1.878,2.39-3.593,4.906-3.841,7.878c-0.368,0.813-0.664,1.647-0.868,2.506c-0.024,0.038-0.057,0.057-0.079,0.1
		c-2.329,4.653-2.901,9.708-2.949,14.826c-0.054,0.671-0.073,1.349-0.016,2.045c0.002,0.034,0.019,0.057,0.024,0.089
		c0.045,3.105,0.218,6.214,0.253,9.256c-0.226,1.591-0.332,3.233-0.286,5.033c0.132,5.253,0.938,10.472,1.414,15.7
		c0.012,0.135,0.07,0.236,0.142,0.32c-0.067,0.16-0.121,0.329-0.142,0.523c-0.441,4.096-2.661,8.76-0.332,12.657
		c1.115,1.864,4.032,0.169,2.913-1.702c-0.786-1.316-0.79-2.981-0.521-4.707c0.998,0.439,2.438-0.048,2.436-1.471
		c0-1.087-0.02-2.212-0.342-3.258c-0.141-0.458-0.454-0.823-0.85-1.036c0.025-0.164,0.049-0.327,0.067-0.485
		c0.053-0.497-0.091-0.87-0.336-1.137c0.216-0.18,0.356-0.453,0.336-0.831c-0.045-0.837-0.329-1.576-0.892-2.2
		c-0.566-0.63-1.328-0.342-1.684,0.213c-0.617-5.433-1.423-10.956-0.955-16.348c0.613,0.081,1.289-0.261,1.282-1.059
		c-0.015-1.604-0.08-3.242-0.146-4.892c0.107-0.344,0.208-0.688,0.331-1.031c0.986-2.757,1.594-5.451,1.95-8.321
		c0.31-0.984,0.643-1.96,1.086-2.896c0.193-0.408,0.119-0.792-0.07-1.097c0.41-0.797,0.947-1.491,1.638-2.126
		c0.309-0.081,0.584-0.278,0.747-0.623c0.452-0.345,0.939-0.682,1.498-1.014c0.622-0.37,0.057-1.342-0.568-0.97
		c-0.128,0.075-0.25,0.155-0.376,0.233c0.69-2.9,0.499-5.951,0.761-8.902c0.505-1.092,1.069-2.162,1.711-3.208
		c0.277-0.449,0.129-0.997-0.2-1.356C17.477,101.464,17.427,101.158,17.261,100.91z"/>
</g>
<g id="Layer_1_2_">
	<g>
		<g id="Layer_1_1_">
			<g>
				<g id="Layer_1_3_">
					<g>
						<path fill="none" stroke="#373535" stroke-width="1.6865" d="M218.561,120.68c-0.098,0-0.44-0.25-1.024-0.748
							c-0.465-0.434-0.85-0.846-1.152-1.236c-0.25-0.369-0.498-0.953-0.748-1.755c-0.26-0.953-0.417-1.636-0.471-2.047
							c-0.087-0.271-0.129-0.834-0.129-1.69c0-1.842,0.698-3.564,2.096-5.168c1.581-1.907,3.911-3.418,6.987-4.533
							c2.48-0.844,4.16-1.549,5.037-2.113c-0.682-0.455-1.295-0.883-1.837-1.284c-0.704-0.455-1.408-0.926-2.113-1.413
							c-0.704-0.498-1.066-0.752-1.088-0.763l-2.438-2.243c-1.256-1.17-1.934-1.803-2.032-1.9c-0.758-0.586-1.711-1.263-2.859-2.032
							c-1.538-1.04-2.535-1.696-2.99-1.967c-0.942-0.898-1.711-1.581-2.308-2.047c-0.238-0.304-0.709-0.752-1.413-1.348
							c-0.444-0.358-1.328-1.061-2.648-2.113l-4.892-3.655c-0.477-0.304-1.223-0.964-2.242-1.982
							c-0.931-0.792-1.744-1.376-2.438-1.755c-1.31-0.704-3.439-1.971-6.385-3.801c-1.105-0.682-3.143-1.658-6.111-2.926
							c-3.932-1.559-6.829-2.507-8.692-2.844c-1.246-0.304-3.125-0.623-5.639-0.959c-2.395-0.304-3.613-0.461-3.656-0.471
							c-1.549-0.39-3.001-0.731-4.355-1.024c-0.953-0.195-1.609-0.26-1.967-0.195c-1.884-0.184-3.764-0.277-5.639-0.277
							c-9.348-0.13-17.018-0.515-23.009-1.154c-12.966-1.138-20.251-1.793-21.854-1.967h-2.714c-5.146,0-13.996,0.792-26.551,2.372
							c-4.268,0.477-6.981,0.817-8.14,1.023c-3.607,0.423-6.846,0.986-9.717,1.69c-5.774,1.495-10.096,2.811-12.967,3.949
							c-1.386,0.498-3.672,1.561-6.857,3.185c-0.346,0.109-0.796,0.401-1.348,0.878c-0.325,0.227-0.618,0.477-0.878,0.748
							c-0.422-0.141-1.576,0.471-3.461,1.836c-2.318,1.679-4.176,3.061-5.573,4.143c-0.736,0.519-2.426,1.603-5.07,3.249
							c-1.972,1.116-3.331,2.161-4.078,3.137c-0.314,0.444-1.49,1.571-3.526,3.38c-1.538,1.408-2.399,2.519-2.584,3.33l-0.813,3.055
							c-0.195,0.129-0.558,0.471-1.088,1.023l-2.307,3.055c-0.487,0.617-0.894,1.386-1.218,2.307
							c-0.412,0.953-0.709,1.679-0.894,2.178c-0.792,1.548-1.511,3.061-2.161,4.533c-0.682,1.788-1.094,3.303-1.235,4.549
							c-0.4,1.982-0.829,4.858-1.284,8.628c-0.455,3.791-0.682,6.959-0.682,9.505v0.195c0,0.336-0.022,0.753-0.065,1.251
							c-0.033,0.281-0.075,0.682-0.129,1.202c-0.044,0.314-0.065,0.926-0.065,1.836c0,0.586,0.044,1.193,0.13,1.82
							c0.184,0.779,0.277,1.575,0.277,2.388c0,0.271,0.022,0.948,0.065,2.032c0.044,0.184,0.087,0.434,0.13,0.748v0.129
							c0,2.567,0.271,5.329,0.812,8.287c0.596,2.882,0.894,4.875,0.894,5.979c0,0.586-0.342,1.826-1.024,3.722
							c-0.769,1.961-1.154,2.978-1.154,3.055c0,1.073,0.092,2.118,0.277,3.136c0.217,1.257,0.575,2.297,1.073,3.12
							c0.087,0.087,0.184,0.238,0.293,0.454c0.054,0.13,0.163,0.385,0.325,0.765l0.065,0.129l0.016,0.081
							c0.011,0.065,0.027,0.109,0.048,0.13c0.498,1.051,1.024,1.727,1.576,2.031c0.186,0.281,0.58,0.794,1.186,1.536
							c-0.86-1.549-1.402-2.478-1.625-2.787C8,173.572,7.573,172.77,7.225,171.86c-0.206-0.552-0.428-1.3-0.667-2.243
							c-0.087-0.27-0.13-0.654-0.13-1.152c0-0.736,0.157-1.576,0.471-2.519c0-0.141,0.298-0.975,0.894-2.503 M229.966,118.291
							c0.13-0.953,0.829-1.809,2.096-2.567c0.13-0.065,1.512-0.656,4.144-1.771c2.438-0.953,4.047-2.155,4.826-3.607
							c0.63-0.867,0.943-1.971,0.943-3.315c0-0.736-0.044-1.256-0.13-1.56c-0.108-1.061-0.427-2.806-0.959-5.232
							c-0.325-1.484-0.552-2.519-0.681-3.103c-0.217-0.975-0.397-1.685-0.537-2.13v-0.13c-0.009-0.009-0.017-0.02-0.024-0.031
							c-0.123,0.48-0.305,0.913-0.544,1.3c-0.065,0.108-0.439,0.59-1.121,1.446c-0.833,1.246-1.581,2.199-2.242,2.86
							c-0.617,0.454-1.592,1.311-2.926,2.567c-0.314,0.271-1.419,1.202-3.315,2.795c-0.629,0.412-1.332,0.894-2.112,1.446
							c-0.813,0.586-1.311,0.937-1.495,1.056c-1.429,1.051-2.405,1.934-2.926,2.649c-0.541,0.736-0.925,1.64-1.152,2.713
							c-0.098,0.434-0.234,1.317-0.406,2.649l-0.066,0.13 M239.644,94.844c-0.027-0.043-0.04-0.101-0.04-0.179
							c0.044-0.087,0.065-0.196,0.065-0.325c0-0.098-0.021-0.189-0.065-0.277l-0.129,0.13h-0.081v0.065
							c-2.535,2.751-5.948,5.129-10.236,7.133 M241.032,110.345l0.26,0.423c0.465,0.66,0.921,1.538,1.365,2.632
							c0.022,0.075,0.119,0.352,0.293,0.829c0.172,0.563,0.304,1.127,0.39,1.69c0.129-0.227,0.244-0.433,0.342-0.617
							c0.054-0.488,0.118-0.802,0.195-0.942c0.216-0.748,0.807-1.359,1.771-1.836c1.43-0.715,3.581-1.64,6.45-2.778
							c2.34-0.888,3.9-2.02,4.68-3.397c0.541-0.953,0.813-2.199,0.813-3.737c-0.129-1.355-0.221-2.237-0.275-2.649
							c0-1.354-0.022-2.236-0.066-2.648c-0.206-1.051-0.541-1.907-1.007-2.567c-0.726-1.094-1.159-1.728-1.3-1.901
							c-0.099-0.13-0.183-0.23-0.252-0.301c-0.157,0.45-0.528,1.07-1.113,1.861c-0.65,0.856-1.101,1.576-1.348,2.161
							c-0.77,1.897-1.219,3.683-1.349,5.363c-0.075,1.82-0.644,3.293-1.707,4.42c-0.681,0.586-1.544,1.289-2.584,2.113
							c-1.115,0.975-1.814,1.744-2.096,2.307 M254.691,92.544c-0.074-0.075-0.132-0.117-0.171-0.121
							c-0.075-0.01-0.114,0.103-0.114,0.342c-1.571,0.715-2.746,1.76-3.527,3.136c-0.4,0.552-0.948,1.82-1.64,3.803
							c-0.13,0.412-0.196,1.067-0.196,1.967c-0.065,0.715-0.471,1.3-1.219,1.755c-0.802,0.477-2.204,0.953-4.208,1.429l-1.771,0.617
							 M239.644,94.844c0.061-0.233,0.107-0.476,0.138-0.732 M246.931,160.181c-0.27-0.129-0.449-0.287-0.536-0.471
							c-0.098-0.216-0.146-0.444-0.146-0.681c0-0.445,0.454-1.056,1.365-1.837c0.769-0.769,1.494-1.402,2.178-1.9
							c0.823-0.759,1.615-1.413,2.371-1.967c1.452-1.127,2.657-1.673,3.616-1.64c-0.045-0.099-0.097-0.186-0.154-0.26
							c-0.391-0.586-1.366-0.877-2.926-0.877c-0.846-0.282-1.679-0.715-2.503-1.3c-0.4-0.325-0.765-0.546-1.09-0.667
							c-0.227-0.368-0.385-0.667-0.471-0.894c-0.075-0.108-0.342-0.514-0.796-1.219c-0.227-0.346-0.396-0.575-0.504-0.681
							c-1.679-2.329-2.719-3.64-3.119-3.932c-0.607-0.607-1.49-1.782-2.648-3.527c-1.495-2.275-2.242-3.791-2.242-4.549
							c0-0.465,0.681-2.774,2.046-6.922c1.354-4.16,2.032-7.378,2.032-9.653c0-0.671-0.022-1.1-0.065-1.284 M228.943,156.184h0.277
							c0.183,0,0.385-0.048,0.6-0.146c0.455-0.087,1.294-0.13,2.519-0.13c0.465,0,1.663,0.586,3.591,1.756
							c1.376,0.833,2.556,1.581,3.542,2.242c0.487,0.26,1.727,1.056,3.721,2.388c1.03,0.618,1.826,1.067,2.389,1.349
							c0.129,0,0.196,0.021,0.196,0.065c0.097,0.043,0.211,0.092,0.341,0.146c0.488,0.227,0.943,0.342,1.365,0.342l0.877-0.081h0.13
							c0.726,0,1.337-0.157,1.836-0.471c0.238-0.153,0.374-0.245,0.406-0.277c1.115-0.519,2.291-2.194,3.526-5.021
							c0.77-1.625,1.202-2.573,1.3-2.844c0.271-0.942,0.406-1.803,0.406-2.584c0-0.525-0.062-0.937-0.187-1.235 M173.891,137.774
							c0-0.141,0.119-0.152,0.358-0.031c0.25,0.129,0.606,0.39,1.073,0.779c0.541,0.454,1.148,1.002,1.819,1.64
							c0.932,1.42,1.5,2.46,1.707,3.12c0.098,0.726,0.347,1.923,0.748,3.59c0.085,0.369,0.129,1.274,0.129,2.714
							c0,1.419-0.115,2.707-0.342,3.867c2.07,0.477,3.429,0.819,4.079,1.023c1.635,0.423,3.153,0.921,4.549,1.495
							c1.3,0.649,2.633,1.24,3.998,1.771c1.236,0.444,2.638,0.894,4.208,1.348l5.036,1.365c1.495,0.509,2.849,1.007,4.062,1.495
							c0.227,0.054,0.509,0.162,0.846,0.324c0.183,0.098,0.492,0.26,0.925,0.489c0.813,0.877,2.236,1.803,4.274,2.778
							c2.676,1.224,4.983,1.836,6.922,1.836c0.682,0,1.836-0.406,3.461-1.219c1.69-0.769,4.16-1.152,7.411-1.152
							c3.086,0,5.843,0.362,8.27,1.088c2.405,0.715,4.149,1.073,5.232,1.073c1.527,0,2.866-0.385,4.013-1.154
							c1.084-0.629,1.625-1.192,1.625-1.69c0.044-0.043,0.065-0.115,0.065-0.211 M53.259,141.723
							c0.639-0.325,1.159-0.488,1.559-0.488l1.088-0.195c1.332-0.142,2.167-0.184,2.503-0.13c1.159,0,2.924,0.25,5.297,0.748
							c1.615,0.368,3.672,0.888,6.175,1.561c6.564,1.906,12.133,3.352,16.704,4.338c7.063,1.419,12.88,2.438,17.451,3.055
							c7.442,1.127,14.272,1.625,20.49,1.494h4.956c0.66,0,3.195-0.227,7.604-0.681c2.406-0.314,4.827-0.629,7.263-0.942
							c1.843-0.4,3.202-0.721,4.079-0.959c0.953-0.238,1.836-0.498,2.648-0.78c0.813-0.281,1.219-0.471,1.219-0.569 M148.43,149.522
							c0.227,0.314,0.449,0.649,0.667,1.007c0.118,0.196,0.26,0.428,0.422,0.698c0.066,0.184,0.19,0.455,0.374,0.813
							c0.183,0.369,0.308,0.639,0.373,0.813c0.098,0.25,0.385,0.883,0.862,1.901c0.477,1.018,0.822,1.808,1.04,2.371
							c0.856,2.178,1.603,4.122,2.242,5.833c0.4,1.267,0.715,2.264,0.942,2.99c0.141,0.336,0.277,0.834,0.406,1.494
							c0.196,0.586,0.785,1.04,1.771,1.365c0.498,0.207,0.883,0.975,1.154,2.308c0.098,0.379,0.325,1.533,0.681,3.461
							c0,0.368,0.293,0.888,0.878,1.561c0.314,0.497,0.633,0.975,0.959,1.429c0.152,0.586,0.331,1.169,0.536,1.755
							c0.227,0.813,0.454,1.219,0.682,1.219l0.812-0.195c0.033,0.031,0.509,0.481,1.43,1.348c-0.065,0.26-0.136,0.807-0.211,1.642
							c-0.087,0.769-0.129,1.446-0.129,2.031c0,0.736,0.201,1.507,0.602,2.308c0.444,0.985,0.741,1.733,0.894,2.242
							c0,0.022,0.07,0.211,0.211,0.569c0.152,0.4,0.238,0.709,0.26,0.925c0,0.207,0.065,0.477,0.195,0.813
							c0.575,1.495,1.278,2.243,2.113,2.243c0.292,0,0.471-0.071,0.536-0.211c0.639-0.065,1.095-1.012,1.365-2.844
							c0.044-0.085,0.066-0.178,0.066-0.275c0.206,0.304,0.546,0.894,1.023,1.771c1.094,1.561,2.063,2.6,2.909,3.119
							c1.061,0.639,2.535,0.959,4.42,0.959c4.983,0,7.475-0.477,7.475-1.429v-0.277c0.129-0.314,0.238-0.629,0.325-0.942
							c0-0.672-0.521-1.419-1.561-2.242l-3.055-2.242c-0.77-0.79-1.49-1.609-2.161-2.454l-1.772-2.371
							c-0.617-0.694-1.094-1.463-1.429-2.308c-0.347-1.104-0.639-1.917-0.877-2.438c-0.358-1.06-0.698-1.857-1.023-2.388
							c-0.044-0.25-0.157-0.678-0.342-1.284c0-0.007,0-0.016,0-0.024c-0.369,0.264-0.769,0.506-1.202,0.723
							c-0.563,0.293-1.04,0.465-1.429,0.521 M150.266,152.853l-0.065,0.277c0,0.206,0.065,0.477,0.196,0.813
							c0,0.227,0.021,0.449,0.065,0.666l1.023,7.345c0.271,1.212,0.563,2.431,0.877,3.655c0.314,1.311,0.726,2.535,1.236,3.673
							c0.758,1.701,1.592,4.143,2.503,7.329c0.087,0.454,0.428,1.63,1.023,3.526c0.542,2.004,0.813,3.293,0.813,3.867
							c0,0.477-0.135,1.886-0.406,4.225c0,0.054,0.033,0.146,0.098,0.275c0.141,0.305,0.221,0.483,0.244,0.537
							c0.304,0.444,0.531,0.666,0.681,0.666c0.25,0,0.748-0.222,1.495-0.666c0.509-0.38,0.802-0.65,0.877-0.813l0.277-0.211
							c0.043,0,0.065-0.043,0.065-0.129c0.206,0.314,0.342,0.586,0.406,0.813c0.173,0.617,0.58,1.138,1.219,1.561
							c1.289,0.813,2.329,1.219,3.119,1.219c0.098,0,0.19-0.022,0.277-0.066 M174.494,176.585c-0.008-0.034-0.028-0.07-0.065-0.107
							c0.022-0.065,0.157-0.449,0.406-1.152c0.054-0.542,0.081-1.019,0.081-1.429c0-0.77,0.021-1.246,0.065-1.43
							c0.129-1.96,0.195-3.884,0.195-5.768c0-1.95,0.022-3.239,0.066-3.867c0.054,0,0.081,0.043,0.081,0.129l0.195-0.129
							c0.314-1.236,1.241-3.364,2.779-6.386c0.563-1.3,0.925-2.297,1.088-2.99 M14.91,106.283c-0.519,0.304-0.883,1.636-1.088,3.997
							c-0.119,0.921-0.233,2.372-0.341,4.355c-0.271,1.896-0.428,2.892-0.471,2.99v1.69c0,2.384,0.455,5.033,1.365,7.945
							c0.509,1.484,1.593,4.197,3.251,8.142c1.018,2.394,2.534,5.084,4.549,8.075c0.748,1.289,1.765,2.628,3.055,4.014
							c0.617,0.681,1.409,1.382,2.372,2.096c0.953,0.758,1.771,1.256,2.453,1.494c0.412-0.471,0.953-0.871,1.625-1.202
							c0.694-0.347,1.414-0.558,2.161-0.633 M9.548,159.564c0.758,0.975,1.376,2.308,1.852,3.998
							c0.519,1.852,0.758,3.791,0.715,5.816c0.119-0.551,0.26-1.126,0.423-1.721c0.629-1.886,0.942-2.974,0.942-3.266
							c0-0.216-0.087-0.693-0.26-1.429c-0.195-0.953-0.763-2.469-1.706-4.55c-1.386-3-2.107-4.582-2.161-4.745
							c-0.4-1.354-0.677-3.027-0.829-5.021c-0.129-1.452-0.216-2.448-0.26-2.99l0.065-0.211c-0.044-0.173-0.065-0.281-0.065-0.325
							c0-0.454-0.022-0.796-0.065-1.023h0.065l0.065-1.43c0-0.248,0.022-0.617,0.065-1.104c0.043-0.487,0.065-0.844,0.065-1.073
							c0.044-0.27,0.092-0.471,0.146-0.6l0.342-2.242c0-4.853,0.336-8.451,1.007-10.789c0.488-2.016,0.942-3.83,1.365-5.444
							c0.119-0.336,0.569-1.376,1.349-3.12c0.195-0.346,0.308-0.569,0.341-0.666 M30.056,151.082
							c-0.018,0.024-0.037,0.046-0.057,0.065v0.009c-0.461,0.662-0.69,1.364-0.69,2.104c-0.097,0.445-0.368,1.42-0.813,2.926
							c-0.314,1.127-0.471,1.803-0.471,2.032v0.129c-0.596,1.538-0.894,2.557-0.894,3.055c0,0.25,0.146,0.851,0.44,1.803
							c0.173,0.541,0.596,1.819,1.267,3.835c1.127,3.184,1.69,4.972,1.69,5.362c0.119,0.672,0.277,2.48,0.471,5.427
							c0.227,3.38,0.341,5.216,0.341,5.508l-0.195,1.836c-0.184,1.452-0.277,2.193-0.277,2.225c0,0.325,0.206,1.095,0.617,2.307
							c0.217,0.682,0.504,1.366,0.861,2.047c0.238,0.575,0.715,1.344,1.43,2.307c0.942,1.224,1.869,1.837,2.778,1.837
							c0.292,0,0.471-0.135,0.536-0.406c0.141-0.075,0.211-0.26,0.211-0.552v-1.878c0.002,0.139,0.024,0.315,0.065,0.528
							c0,1.159,0.385,2.401,1.154,3.722c1.311,2.09,3.303,3.136,5.979,3.136h2.503c0.358,0,0.904-0.07,1.64-0.211
							c0.856-0.196,1.284-0.4,1.284-0.617v-0.066c0.141-0.206,0.211-0.519,0.211-0.942c0-0.606-0.412-1.083-1.235-1.429
							c-1.202-0.563-2.015-1.084-2.438-1.561c-0.412-0.412-0.888-0.752-1.43-1.023c-0.195-0.022-0.406-0.119-0.633-0.292
							c-0.206-0.153-0.308-0.255-0.308-0.309c-0.304-0.129-0.873-0.087-1.707,0.13c-0.433,0.195-0.721,0.342-0.861,0.439
							c-0.196,0.119-0.292,0.244-0.292,0.374 M58.41,140.91c-1.159,2.633-1.744,3.965-1.755,3.998
							c-0.228,0.498-0.661,1.477-1.3,2.94c-0.423,0.953-0.736,1.625-0.942,2.015c-0.108,0.152-0.244,0.445-0.406,0.878
							c-0.054,0.054-0.081,0.102-0.081,0.146c-0.065,0.141-0.244,0.589-0.536,1.348v0.065c-0.184,0.412-0.525,1.251-1.024,2.519
							c-0.217,0.563-0.623,1.354-1.219,2.371c-0.748,1.28-1.224,2.14-1.429,2.584c-0.087,0.184-0.401,1.024-0.942,2.519
							c-0.336,1.007-0.742,1.82-1.219,2.438c-0.575,0.759-1.294,1.49-2.161,2.194c-0.769,0.617-1.544,1.132-2.323,1.544
							c0.087,0.454,0.379,1.316,0.877,2.584c0.823,1.96,1.322,3.114,1.495,3.461c0.487,1.138,0.871,2.178,1.154,3.119
							c0.152,0.759,0.422,1.799,0.813,3.119c0.271,1.007,0.568,1.891,0.893,2.649c0.542,1.57,1.04,2.767,1.495,3.59
							c0.617,1.17,1.386,2.372,2.307,3.607c1.159,1.625,1.993,2.438,2.503,2.438c0.13,0,0.244-0.037,0.342-0.114
							c0.075-0.055,0.168-0.173,0.277-0.358c0.087-0.281,0.13-0.509,0.13-0.682c0-0.27-0.022-0.471-0.065-0.6v-0.081
							c0.065,0.065,0.163,0.184,0.292,0.356c0.119,0.163,0.227,0.293,0.325,0.391c1.884,2.632,4.078,3.949,6.581,3.949
							c2.578,0,4.366-0.135,5.362-0.406h0.065c0.184,0,0.277-0.184,0.277-0.552c0-0.4-0.228-0.829-0.682-1.284
							c-0.108-0.109-0.2-0.179-0.277-0.211c-0.108-0.141-0.26-0.287-0.455-0.439c-0.248-0.173-0.454-0.319-0.617-0.44
							c-1.365-0.856-2.296-1.396-2.795-1.625c-0.541-0.292-0.937-0.569-1.186-0.828c-0.292-0.305-0.439-0.618-0.439-0.943
							c0-0.087-0.044-0.222-0.13-0.406c-0.141-0.25-0.255-0.454-0.342-0.617c-0.304-0.379-0.575-0.694-0.813-0.943l-1.154-0.813
							c-0.519-0.324-0.748-0.666-0.682-1.023c0-0.585-0.048-1.24-0.146-1.965l-0.878-3.867c-0.79-2.751-1.446-5.379-1.967-7.882
							c-0.423-2.394-0.671-4.88-0.748-7.458c-0.454,0.346-0.959,0.687-1.511,1.023c-0.586,0.358-0.942,0.536-1.073,0.536
							 M54.884,164.195c0.617-0.488,1.024-0.964,1.219-1.429c0.748-1.561,1.154-2.579,1.219-3.056
							c0.455-1.321,0.819-2.34,1.088-3.055c0.552-1.376,0.894-2.394,1.024-3.055c0.575-2.188,1.457-4.907,2.648-8.157
							c0.4-1.127,0.672-1.869,0.813-2.225l0.065-0.146l0.682-1.285v-0.065l0.065-0.065 M38.39,168.728l0.406,0.147
							c0.347,0.129,0.844,0.195,1.495,0.195c0.834,0,1.582-0.114,2.242-0.342c0.033-0.01,0.211-0.097,0.537-0.259 M45.037,194.597
							v-0.26c0-0.541-0.541-1.992-1.625-4.355c-1.04-2.48-1.559-5.036-1.559-7.669c0-1.083,0.135-2.757,0.406-5.021
							c0.227-2.123,0.341-3.211,0.341-3.265l0.129-3.315c0-0.975-0.065-1.636-0.195-1.983 M10.134,177.056
							c0.02,0.025,0.043,0.053,0.065,0.081c0.263,0.322,0.567,0.686,0.91,1.097c0.13,0,0.223-0.087,0.277-0.26
							c0.044,0,0.065-0.027,0.065-0.081c0.065,0,0.119-0.038,0.163-0.115c0.022-0.045,0.036-0.094,0.04-0.146
							c-0.015-0.029-0.017-0.073-0.008-0.129c-0.028-0.065-0.061-0.141-0.097-0.227c-0.01-0.018-0.021-0.034-0.033-0.049
							l0.008-0.017l-0.008-0.016c-0.25-0.586-0.521-1.165-0.813-1.739c-0.682-1.506-1.09-2.524-1.219-3.055
							c-0.542-1.581-0.861-2.53-0.959-2.844c-0.173-0.661-0.26-1.477-0.26-2.453l0.536-3.656l-0.065-0.406 M9.077,161.611
							c0.736,1.473,1.213,3.417,1.429,5.833l0.471,5.021c0,0.455,0.065,1.024,0.195,1.707c0.054,0.25,0.157,0.721,0.308,1.414
							c0.13,0.606,0.204,0.994,0.219,1.161c0.102-0.416,0.154-1.025,0.154-1.828c-0.13-0.813-0.195-1.382-0.195-1.707
							c0-1.126,0.152-2.404,0.454-3.835 M11.547,177.276c-0.008-0.021-0.016-0.043-0.025-0.066c0.072-0.11,0.132-0.264,0.179-0.462
							 M11.645,177.503c0.004,0.017,0.01,0.033,0.017,0.048c0.085,0.219,0.082,0.247-0.008,0.081
							c0.006-0.02,0.008-0.042,0.008-0.065v-0.017"/>
						<path fill="none" stroke="#373535" stroke-width="1.6865" d="M231.933,134.865c-0.639,0.726-1.115,1.196-1.429,1.414
							c-0.705,0.779-1.63,1.348-2.779,1.707"/>
						<path fill="none" stroke="#373535" stroke-width="1.6865" stroke-miterlimit="10" d="M225.206,130.997
							c0,0.4,0.455,0.921,1.366,1.561c1.029,0.672,2.181,1.007,3.461,1.007c0.856,0,1.396-0.043,1.625-0.129
							c0.259,0.314,0.558,0.471,0.894,0.471h0.195c-0.358-0.119-0.759-0.44-1.202-0.959c-0.282-0.347-0.536-0.704-0.765-1.073
							v-0.129c-0.183-0.358-0.525-0.721-1.023-1.09c-0.356-0.195-0.629-0.331-0.813-0.406l-0.342-0.081
							c-0.4-0.129-0.807-0.195-1.218-0.195h-0.13l-0.342,0.065c-1.181,0.065-2.248,0.471-3.201,1.219"/>
						<path fill="none" stroke="#373535" stroke-width="1.6865" d="M230.308,134.93h-0.081c-0.163,0.098-0.287,0.173-0.373,0.228
							c-0.152,0.097-0.298,0.157-0.44,0.178c-0.519,0.184-1.561,0.277-3.119,0.277c-0.693,0-1.121-0.115-1.284-0.342
							c-0.163-0.368-0.347-0.617-0.552-0.748"/>
						<path fill="none" stroke="#373535" stroke-width="1.6865" d="M230.098,153.454c-0.813,0.141-1.538,0.595-2.178,1.365
							c-0.541,0.779-0.813,1.413-0.813,1.9c0,0.055,0.115,0.282,0.342,0.682"/>
						<path fill="none" stroke="#373535" stroke-width="1.6865" d="M246.054,157.257c0.075,0,0.255-0.358,0.536-1.073
							c0.358-0.931,0.607-1.479,0.748-1.642c0.054-0.021,0.184-0.163,0.39-0.422c0.314-0.391,0.596-0.722,0.846-0.992
							c0.531-0.607,0.823-1.061,0.877-1.365"/>
						<path fill="#373535" d="M251.271,157.24c0.108,0.173,0.135,0.342,0.081,0.504c-0.736,1.667-1.349,2.503-1.837,2.503
							c-0.444,0-0.736-0.115-0.877-0.342v-0.26c0-1.3,1.582-2.659,4.745-4.079l0.065,0.066L251.271,157.24z"/>
						<path fill="none" stroke="#373535" stroke-width="1.6865" d="M182.309,147.018c0.227,0,0.406-0.254,0.536-0.763
							c0.119-0.434,0.234-1.175,0.342-2.225c0.098-1.993,0.146-3.034,0.146-3.12c0-0.454-0.01-0.925-0.031-1.413
							c-0.033-0.488-0.049-0.742-0.049-0.765c-0.227-0.91-0.519-1.836-0.877-2.778c-0.833-2.113-1.673-3.722-2.519-4.826"/>
						<path fill="#373535" d="M230.779,131.745v0.129c0.109,0.022,0.211,0.125,0.308,0.308c0.098,0.196,0.055,0.347-0.129,0.455
							c-0.227,0.141-0.736,0.163-1.527,0.065c-0.617-0.075-1.121-0.173-1.511-0.293c0-0.021-0.023-0.043-0.066-0.065
							c-0.043-0.021-0.065-0.043-0.065-0.065c-0.335-0.206-0.6-0.417-0.796-0.633c-0.195-0.216-0.292-0.412-0.292-0.586
							c0.043-0.27,0.065-0.519,0.065-0.747c0.098-0.076,0.146-0.168,0.146-0.277l0.342-0.065v0.536c0,0.434,0.115,0.704,0.342,0.813
							c0.075,0,0.183,0.07,0.325,0.211c0.227,0.087,0.477,0.201,0.747,0.342c-0.27-0.356-0.405-0.586-0.405-0.681
							c0-0.434,0.114-0.775,0.341-1.024c0.196,0.044,0.308,0.07,0.342,0.081c0.336,0.13,0.617,0.271,0.846,0.423
							c0.141,0.098,0.304,0.233,0.488,0.406C230.535,131.328,230.704,131.55,230.779,131.745z"/>
						<path fill="#FFFFFF" d="M229.089,131.112c0,0.129-0.07,0.195-0.211,0.195s-0.211-0.065-0.211-0.195
							c0-0.142,0.071-0.211,0.211-0.211C229.019,130.901,229.089,130.97,229.089,131.112z"/>
						<path fill="#FFFFFF" d="M229.268,131.404c0,0.141-0.07,0.211-0.211,0.211s-0.211-0.07-0.211-0.211s0.07-0.211,0.211-0.211
							C229.199,131.193,229.268,131.264,229.268,131.404z"/>
					</g>
				</g>
			</g>
		</g>
	</g>
</g>
</svg>
