<?xml version="1.0" encoding="utf-8"?>
<!-- Generator: Adobe Illustrator 17.0.1, SVG Export Plug-In . SVG Version: 6.00 Build 0)  -->
<!DOCTYPE svg PUBLIC "-//W3C//DTD SVG 1.1//EN" "http://www.w3.org/Graphics/SVG/1.1/DTD/svg11.dtd">
<svg version="1.1" id="Layer_1" xmlns="http://www.w3.org/2000/svg" xmlns:xlink="http://www.w3.org/1999/xlink" x="0px" y="0px"
	 width="169.506px" height="252.129px" viewBox="52.468 5.237 169.506 252.129"
	 enable-background="new 52.468 5.237 169.506 252.129" xml:space="preserve">
<g id="Layer_2">
</g>
<g id="Layer_1_2_">
	<g>
		<g id="Layer_1_1_">
			<g>
				<g id="Layer_1_3_">
					<g>
						<path fill="#FFFFFF" d="M158.857,17.925l0.064,0.064c0,0.211,0.106,0.485,0.316,0.823l-0.949-0.823L158.857,17.925z"/>
						<path fill="#FFFFFF" d="M158.287,17.988l1.328,1.202v-0.127c3.248,2.742,5.02,4.387,5.315,4.935l-0.064-1.264l2.72,2.909
							c1.477,1.52,2.362,2.784,2.658,3.797c0.379-0.042,0.57-0.274,0.57-0.696c1.645,1.645,2.847,3.059,3.605,4.238v0.064
							l0.064,0.064v0.064l-0.064-0.064h-0.064l-0.127-0.064v0.633c0.086,0.379,0.317,0.57,0.697,0.57c0-0.042-0.148-0.4-0.444-1.076
							c0.464,0.295,1.055,0.991,1.773,2.087c0.758,1.35,1.243,2.868,1.454,4.556l1.392,2.467c3.163,2.91,6.833,7.698,11.01,14.363
							c5.23,8.351,8.055,15.268,8.478,20.751h-21.511c0.676-1.264,1.308-2.93,1.898-4.998l1.14-5.252
							c0.294-1.981,0.4-4.049,0.317-6.2c-0.253-3.206-0.844-6.222-1.772-9.046c-0.802-2.573-1.814-4.598-3.036-6.074
							c-0.676-0.802-1.434-1.434-2.277-1.898c-1.014-0.464-2.005-0.676-2.975-0.633l-0.949,0.253l-0.253,0.949l0.507,1.455
							c-0.97-0.633-2.551-1.413-4.745-2.34c-3.838-1.561-5.989-2.804-6.453-3.732c-2.616-5.441-5.759-8.077-9.427-7.909
							c-2.616,0.127-4.618,1.434-6.011,3.923c-0.843,1.519-1.497,3.648-1.961,6.39l-3.228,0.822l-3.669-12.779
							c0.464-1.855,0.675-3.332,0.632-4.429c0.085-3.037-0.822-4.534-2.72-4.492c-1.266,0.042-2.004,0.421-2.214,1.138
							c-0.042,0.085-0.042,0.696,0,1.835l0.57,5.567l0.38-0.062c0.041-0.297,0.021-1.371-0.065-3.227l0.317,0.317l0.507,1.708v0.064
							c-0.043,4.133,0.126,9.722,0.506,16.766c0,5.23-0.55,10.06-1.646,14.488c-0.421-4.344-1.244-8.519-2.468-12.527
							c-2.531-8.225-5.884-12.252-10.06-12.084c-2.277,0.126-7.17,2.594-14.678,7.402l-1.455,0.886
							c-5.822,3.753-9.237,6.2-10.249,7.339c-0.379,0.421-0.864,1.096-1.455,2.025l-0.506-1.455l-0.064-0.127
							c-0.422-0.802-0.928-1.329-1.519-1.582l-0.949-0.189c-2.025,0.084-3.418,3.732-4.175,10.944
							c-0.55,4.682-0.738,8.561-0.57,11.641v0.064l0.949,4.303h0.064l0.191,0.758H68.636l0.885-3.036
							c2.953-8.647,4.471-13.371,4.555-14.173c1.223-7.549,2.889-12.506,4.999-14.868c1.729-2.024,5.104-6.221,10.123-12.59
							l0.633-0.632c0.422-2.489,1.349-4.45,2.783-5.884c2.278-2.405,3.732-4.156,4.365-5.252c6.074-5.357,9.511-8.477,10.313-9.363
							l-1.835,0.127c0.38-0.042,0.57-0.274,0.57-0.696c2.194-0.127,5.505-1.349,9.934-3.67l1.266-0.696l13.855-0.633
							c6.834,0.591,14.362,3.375,22.587,8.352l0.317-0.38l4.556,3.671L158.287,17.988z"/>
						<path fill="#FFFFFF" d="M65.726,97.073c-0.253-5.061,0.717-11.62,2.91-19.677h14.868l5.821,24.548
							c2.911,11.347,5.378,19.382,7.403,24.106c-0.885,0.801-1.434,2.088-1.645,3.86c-0.169,1.602-0.042,3.5,0.379,5.693
							c-0.042,1.477-0.843,3.648-2.404,6.516c-1.476,2.911-2.214,4.514-2.214,4.809v0.064l0.127,0.064l2.214,1.391l0.759-0.317
							l2.214-1.328l-0.697,0.633c-0.675,0.549-1.476,0.928-2.404,1.138l-0.127,0.064l-1.202,0.126
							c-3.712,0.168-6.074-2.572-7.086-8.225l-0.506-7.909c0.211-0.759,0.232-1.434,0.064-2.024v-0.064
							c-0.843-2.7-2.404-5.208-4.682-7.528c-3.247-2.826-5.399-4.956-6.453-6.391C68.468,110.464,66.021,103.948,65.726,97.073z"/>
						<path fill="#FFFFFF" d="M198.652,78.156c0.211,4.682-0.696,10.06-2.72,16.132c-1.477,4.556-2.216,8.541-2.216,11.959
							c-0.041,0.801,0,1.666,0.126,2.593c0.845,7.845,0.908,14.763,0.191,20.752l-0.949-1.138c-4.091,4.723-6.959,7.149-8.605,7.277
							c-1.392,0.084-3.965-4.535-7.719-13.857l-0.317-0.822c-1.855-4.429-3.142-7.359-3.859-8.794l-0.379-0.823
							c-0.633-1.349-1.202-2.34-1.707-2.973c0.21-1.014,0.273-2.089,0.19-3.227l-0.379-2.594c0.211-1.223,0.274-2.468,0.191-3.732
							c-0.338-5.526-1.118-9.869-2.342-13.034l-0.253-0.697l3.354-4.618c0.084,0.338,0.252,0.612,0.506,0.823l0.443,0.191
							c1.898-0.253,3.522-1.646,4.872-4.177h21.511L198.652,78.156z"/>
						<path fill="#FFFFFF" d="M159.235,18.81c-0.21-0.337-0.316-0.612-0.316-0.823l0.632,0.57l0.064,0.506L159.235,18.81z"/>
						<path fill="#FFFFFF" d="M131.082,26.973l-0.317-0.317c0.086,1.855,0.106,2.931,0.065,3.227l-0.38,0.062l-0.57-5.567
							c-0.042-1.14-0.042-1.751,0-1.835c0.211-0.717,0.949-1.097,2.214-1.138c1.898-0.042,2.804,1.455,2.72,4.492
							c0.042,1.097-0.168,2.573-0.632,4.429l-1.582-5.441l-0.949,0.065l-0.064,0.19c-0.043,1.054-0.043,2.235,0,3.543
							L131.082,26.973z"/>
						<path fill="#FFFFFF" d="M161.514,90.556c-0.042,1.096-0.042,2.299,0,3.606c0.084,1.14,1.034,4.577,2.847,10.313
							c-0.42,3.627-2.298,5.526-5.63,5.694c-0.168,0-2.319-1.813-6.454-5.441c-0.042-0.422,0.338-1.117,1.14-2.087
							c0.802-1.055,1.16-1.793,1.075-2.214c-0.042-0.675-0.148-1.034-0.316-1.076c-0.211,0.042-0.486,0.021-0.823-0.064
							c-0.041,0.253-0.211,0.549-0.506,0.885c0.379-0.549,0.57-1.054,0.57-1.518c-0.168-1.182-0.738-1.941-1.708-2.278
							c1.434-1.687,2.109-3.143,2.025-4.366l-0.191-1.012c0.253-0.759,0.359-1.625,0.317-2.594c-0.633-1.983-1.73-4.092-3.289-6.328
							c-2.911-4.091-6.263-6.052-10.06-5.883c-0.549-0.169-1.245-0.232-2.088-0.191c-4.259,0.211-7.444,2.278-9.554,6.2
							c-1.434,2.531-2.109,4.872-2.024,7.023l0.506,2.468c-0.337,0.885-0.485,1.625-0.443,2.216
							c0.085,1.898,1.602,3.564,4.555,4.998h0.064l0.064,0.064l0.506,0.19l-0.506,0.633c-1.181,0.253-1.751,1.118-1.708,2.594
							c0.085,2.572-0.168,4.302-0.759,5.188c-1.561,2.151-5.273,3.374-11.135,3.669c-1.519,0.043-3.016-0.569-4.492-1.834
							c-1.138-1.012-2.109-1.603-2.91-1.772c1.223-1.687,2.489-4.534,3.796-8.541c2.657-8.097,4.429-12.652,5.314-13.665
							c2.405-2.657,4.829-6.749,7.276-12.274l0.064-0.126c2.404-5.61,3.543-9.87,3.416-12.781v-0.253
							c1.096-4.429,1.646-9.258,1.646-14.488c-0.38-7.044-0.55-12.632-0.506-16.766V28.68c-0.043-1.308-0.043-2.489,0-3.543
							l0.064-0.19l0.949-0.065L140.7,52.53l0.38,8.795c0.126,1.813,0.526,3.227,1.201,4.238h0.065l0.317,0.57
							c1.349,1.94,5.652,6.601,12.907,13.982C157.043,81.762,159.026,85.242,161.514,90.556z"/>
						<path fill="#FFFFFF" d="M171.446,46.395c0.885-0.085,1.708-0.295,2.467-0.633l0.949,3.037
							c1.266,3.88,2.025,8.182,2.278,12.908v0.695c-0.253-1.602-0.485-2.847-0.697-3.732V57.91c-0.21-0.843-0.42-1.455-0.632-1.834
							c-0.675-1.055-1.687-1.56-3.036-1.518c-0.253,0-0.485,0.064-0.696,0.19c-0.507-0.971-1.392-2.088-2.658-3.354
							c-3.374-3.248-8.076-4.703-14.108-4.365c-3.206,0.127-6.18,1.455-8.921,3.985l-1.519-4.491
							c-1.138-2.826-1.708-4.45-1.708-4.872c-0.041-0.127,0-0.549,0.127-1.266c0.42-0.422,0.991-1.413,1.707-2.974
							c0.591-1.434,1.983-2.193,4.176-2.278c1.054-0.042,4.302,1.878,9.743,5.758C164.319,44.687,168.493,46.522,171.446,46.395z"/>
						<path fill="#FFFFFF" d="M169.675,45.953l-0.507-1.455l0.253-0.949l0.949-0.253c0.97-0.042,1.961,0.168,2.975,0.633
							c0.843,0.464,1.602,1.096,2.277,1.898c1.222,1.476,2.235,3.501,3.036,6.074c0.928,2.826,1.519,5.842,1.772,9.046
							c0.084,2.151-0.022,4.218-0.317,6.2l-1.14,5.252c-1.602,5.821-3.859,8.879-6.769,9.175l-0.443-0.191l1.266-3.606l1.391-2.721
							c0.549-1.096,1.287-2.783,2.214-5.061c0.338-0.884,0.57-1.876,0.696-2.973c0.042-1.308-0.021-2.805-0.19-4.494v-0.822
							c-0.253-4.724-1.012-9.026-2.278-12.908l-0.949-3.037c-0.758,0.338-1.581,0.549-2.467,0.633
							c-2.953,0.127-7.127-1.708-12.526-5.505c-5.441-3.88-8.689-5.799-9.743-5.758c-2.193,0.085-3.586,0.844-4.176,2.278
							c-0.717,1.561-1.287,2.552-1.707,2.974c-0.127,0.718-0.168,1.14-0.127,1.266c0,0.421,0.57,2.046,1.708,4.872l1.519,4.491
							c2.742-2.531,5.715-3.859,8.921-3.985c6.031-0.338,10.734,1.117,14.108,4.365c1.266,1.264,2.151,2.383,2.658,3.354
							c0.337,0.632,0.549,1.328,0.633,2.087c0.041,0.505-0.168,1.138-0.633,1.898c-0.676,0.759-1.413,1.16-2.214,1.202
							c-0.042-0.042-0.065-0.042-0.065,0h-0.064l-0.949-0.253h-0.064l-0.126-0.062c-0.929-0.506-2.067-1.52-3.418-3.037
							l-0.823-0.886l-0.253-0.886c-0.336-0.843-0.801-1.602-1.391-2.277l-0.443-0.442l-0.191-0.127
							c-0.379-0.379-0.864-0.717-1.455-1.012h-0.064l-0.317-0.317l-0.317-0.127c-0.928-0.253-1.876-0.358-2.847-0.317
							c-0.928,0.085-1.813,0.274-2.657,0.57l-1.138,0.57c-0.675,0.422-1.161,0.779-1.455,1.075l-0.064,0.064v0.064l-0.633,0.696
							c-0.802,0.971-1.223,2.025-1.266,3.163c-0.758,0.632-1.286,1.349-1.581,2.151c-0.379,0.928-0.4,2.004-0.064,3.227
							c0.211,0.675,0.421,1.202,0.633,1.581c0.042,0.549,0.021,1.349-0.064,2.405c2.235,3.627,3.564,5.968,3.986,7.023
							c-4.388-1.94-7.761-4.154-10.123-6.642l-0.317-0.57h-0.065c-0.675-1.011-1.075-2.425-1.201-4.238l-0.444-11.263l0.127-1.075
							l-0.127-0.191l0.127-3.289l-2.214-0.064l-0.697-2.34l3.228-0.822c0.464-2.741,1.118-4.872,1.961-6.39
							c1.392-2.489,3.395-3.796,6.011-3.923c3.669-0.168,6.812,2.468,9.427,7.909c0.464,0.928,2.615,2.172,6.453,3.732
							C167.123,44.539,168.705,45.319,169.675,45.953z"/>
						<path fill="#FFFFFF" d="M140.635,50.761l0.064,1.771l-2.15-7.086l2.214,0.064l-0.127,1.961
							C140.594,48.483,140.594,49.579,140.635,50.761z"/>
						<path fill="#373535" d="M157.084,50.191c0.971-0.042,1.919,0.064,2.847,0.317l0.696,0.443
							c1.182,1.096,1.793,2.425,1.834,3.985v0.443l-0.126,0.823l-0.822,2.214l-1.076,1.203c-1.012,0.884-2.13,1.349-3.354,1.392
							c-1.306,0.085-2.489-0.274-3.543-1.076l-0.57-0.442c-1.138-1.097-1.75-2.425-1.834-3.986
							c-0.042-0.758,0.065-1.497,0.317-2.214c0.042-0.253,0.148-0.506,0.317-0.759v-0.064l0.064-0.064
							c0.294-0.295,0.781-0.653,1.455-1.075c-0.379,0.38-0.549,0.97-0.506,1.772c0.084,0.759,0.759,1.666,2.024,2.721
							c0.549-0.085,1.035-0.527,1.456-1.328c0.42-0.717,0.632-1.35,0.632-1.899c-0.042-1.307-0.717-1.94-2.025-1.898l-0.379,0.064
							h-0.064C155.271,50.465,156.157,50.276,157.084,50.191z"/>
						<path fill="#F0EBE9" d="M156.895,52.595c0,0.549-0.211,1.182-0.632,1.899c-0.421,0.801-0.908,1.243-1.456,1.328
							c-1.264-1.055-1.94-1.961-2.024-2.721c-0.042-0.802,0.126-1.392,0.506-1.772l1.138-0.57h0.064l0.379-0.064
							C156.178,50.655,156.852,51.288,156.895,52.595z"/>
						<path fill="#FFFFFF" d="M167.777,59.112l-0.949,1.455c-0.885,1.434-1.603,2.721-2.151,3.86
							c-0.717,1.349-1.034,2.278-0.949,2.783c0.084,1.603,1.054,2.362,2.909,2.278c3.46-0.169,6.138-2.004,8.036-5.505
							c1.055-2.024,1.646-3.797,1.771-5.314c0.212,0.885,0.444,2.13,0.697,3.732v0.127c-0.042,0.802-0.317,2.236-0.822,4.303
							l-0.126-1.646l-0.065,2.531c-0.543,2.004-1.556,5.294-3.036,9.869l-2.975,4.682c-1.054-2.151-2.467-3.205-4.238-3.162
							l-1.266,0.378c-0.168,0.507-0.253,0.928-0.253,1.266c0.085,0.759,0.507,1.983,1.266,3.67c0.929,2.067,1.898,3.206,2.91,3.416
							l1.962,11.072l-0.949,7.718l-0.444,0.064c-0.464,0-2.234-3.69-5.314-11.071l-2.277-5.061
							c-2.489-5.314-4.471-8.794-5.948-10.439c-7.254-7.38-11.556-12.042-12.907-13.981c2.362,2.489,5.736,4.703,10.123,6.642
							c-0.421-1.055-1.751-3.395-3.986-7.023c0.084-1.055,0.106-1.855,0.064-2.405c-0.211-0.379-0.421-0.907-0.633-1.581
							c-0.337-1.223-0.317-2.298,0.064-3.227c0.295-0.802,0.823-1.519,1.581-2.151v0.885c0.085,1.857,0.886,3.395,2.405,4.62
							c0.676,0.632,1.477,1.075,2.405,1.328c0.675,0.211,1.497,0.358,2.467,0.443l0.38-0.064c1.981-0.042,3.648-0.781,4.998-2.214
							c0.802-0.759,1.35-1.561,1.646-2.404l0.252-1.14l0.065-1.264l-0.127-0.886l0.823,0.886c1.119,1.258,2.09,2.165,2.91,2.721
							L167.777,59.112z M173.408,77.08c-0.14,0.141-0.245,0.309-0.317,0.506c-0.012,0.033-0.022,0.064-0.032,0.095
							c0.011-0.032,0.021-0.064,0.032-0.095C173.164,77.389,173.269,77.22,173.408,77.08z"/>
						<path fill="#FFFFFF" d="M157.084,61.01c1.224-0.042,2.342-0.507,3.354-1.392c0.337,0.59,0.843,1.223,1.519,1.898l1.138-0.949
							l-0.506,0.506c-1.477,1.434-3.163,2.277-5.061,2.531l-0.38,0.064c-0.969-0.085-1.792-0.232-2.467-0.443
							c-0.928-0.253-1.729-0.697-2.405-1.328c-1.519-1.224-2.319-2.763-2.405-4.62v-0.885c0.042-1.14,0.464-2.193,1.266-3.163
							l0.317,0.064c-0.252,0.717-0.359,1.456-0.317,2.214c0.085,1.561,0.696,2.889,1.834,3.986l0.57,0.442
							C154.596,60.736,155.777,61.095,157.084,61.01z"/>
						<path fill="#FFFFFF" d="M151.138,53.228l0.633-0.696c-0.168,0.253-0.274,0.506-0.317,0.759L151.138,53.228z"/>
						<path fill="#FFFFFF" d="M174.356,33.109h0.064l0.064,0.064c0.295,0.675,0.444,1.034,0.444,1.076
							c-0.38,0-0.611-0.19-0.697-0.57v-0.632L174.356,33.109z"/>
						<path fill="#FFFFFF" d="M162.273,52.09l0.443,0.442c0.591,0.675,1.055,1.434,1.391,2.277l-0.695-0.062
							c-0.253,0.041-0.57,0.252-0.949,0.632v-0.443c-0.041-1.56-0.652-2.889-1.834-3.985c0.591,0.295,1.076,0.633,1.455,1.012
							L162.273,52.09z"/>
						<path fill="#FFFFFF" d="M164.36,55.696l0.127,0.886l-0.065,1.264l-0.252,1.14l-0.506,0.949l-0.57,0.633l-1.138,0.949
							c-0.676-0.675-1.181-1.308-1.519-1.898l1.076-1.203l0.822-2.214l0.126-0.823c0.379-0.379,0.696-0.591,0.949-0.632l0.695,0.062
							L164.36,55.696z"/>
						<path fill="#FFFFFF" d="M162.589,61.074l1.076-1.14l0.506-0.949c-0.294,0.843-0.844,1.645-1.646,2.404
							c-1.348,1.434-3.016,2.172-4.998,2.214C159.426,63.351,161.113,62.508,162.589,61.074z"/>
						<path fill="#FFFFFF" d="M163.728,67.21c-0.085-0.505,0.232-1.434,0.949-2.783c0.549-1.14,1.266-2.425,2.151-3.86l0.949-1.455
							l0.823,0.506l0.126,0.062h0.064l0.949,0.253h0.064c0-0.042,0.022-0.042,0.065,0c0.802-0.042,1.539-0.442,2.214-1.202
							c0.464-0.759,0.675-1.393,0.633-1.898c-0.085-0.759-0.295-1.456-0.633-2.087c0.211-0.127,0.443-0.19,0.696-0.19
							c1.349-0.042,2.362,0.464,3.036,1.518l0.632,2.531v0.064c-0.125,1.518-0.716,3.29-1.771,5.314
							c-1.898,3.501-4.576,5.335-8.036,5.505C164.781,69.573,163.811,68.813,163.728,67.21z"/>
						<path fill="#FFFFFF" d="M176.444,58.606l-0.632-2.531c0.211,0.38,0.421,0.992,0.632,1.834V58.606z"/>
						<path fill="#FFFFFF" d="M195.299,106.689c0.928,0.676,1.855,1.793,2.784,3.354c0.549,0.928,2.489,2.974,5.819,6.136
							c2.91,3.332,5.209,7.867,6.896,13.603c0.507,1.772,1.625,4.156,3.354,7.15c1.645,2.869,2.826,5.546,3.544,8.035
							c0.294,0.97,0.864,3.732,1.707,8.288c1.055,5.187,1.603,8.436,1.645,9.742c0.338,6.708,0.022,12.211-0.949,16.515
							c-1.348,5.819-4.091,11.282-8.226,16.386l0.57,0.633c0.717,0.591,1.392,1.94,2.025,4.049c0.506,1.603,0.802,3.059,0.885,4.365
							c0.211,4.682-1.307,9.258-4.556,13.729c-2.192,2.994-4.955,5.567-8.287,7.719c-0.338,0.464-0.823,0.949-1.455,1.454
							c-0.802,0.591-1.793,1.202-2.974,1.834l-0.191-7.276c-0.126-5.693-0.168-11.641-0.126-17.842v-6.706l0.126-0.822l0.633-7.656
							l3.036,0.253c0.042,0.969,0.126,1.201,0.253,0.695l1.138-0.191c3.923-9.912,5.821-16.111,5.694-18.6
							c-1.94-4.302-2.91-6.748-2.91-7.339c-0.085-1.012,0.4-2.531,1.455-4.555c0.97-2.236,1.434-4.156,1.391-5.758
							c-3.838-6.37-7.127-10.862-9.869-13.476c-1.898-1.814-3.521-2.701-4.873-2.658c-0.884,0.084-1.518,0.191-1.898,0.317
							c1.815-1.855,2.953-3.289,3.418-4.302c0.253-0.506,0.379-0.928,0.379-1.265c-0.042-0.549-0.611-1.52-1.708-2.911
							c0.718-5.989,0.654-12.907-0.191-20.752L195.299,106.689z"/>
						<path fill="#FFFFFF" d="M177.141,62.528c0.168,1.688,0.232,3.185,0.19,4.494c-0.126,1.096-0.358,2.087-0.696,2.973
							l-0.316-3.162C176.825,64.763,177.098,63.33,177.141,62.528z"/>
						<path fill="#FFFFFF" d="M176.128,67.716l0.065-2.531l0.442,4.808c-0.928,2.278-1.666,3.965-2.214,5.061l0.126-0.379
							c0.295-0.801,0.654-2.004,1.077-3.606L176.128,67.716z"/>
						<path fill="#FFFFFF" d="M164.36,80.75c0-0.338,0.085-0.759,0.253-1.266l1.266-0.378c1.772-0.042,3.185,1.011,4.238,3.162
							l-2.214,2.91l0.253,0.697l0.379,1.961c-1.012-0.211-1.981-1.349-2.91-3.416C164.867,82.732,164.445,81.509,164.36,80.75z"/>
						<path fill="#FFFFFF" d="M170.498,98.908l-2.342-13.034C169.38,89.039,170.16,93.382,170.498,98.908z"/>
						<path fill="#FFFFFF" d="M171.763,81.383c-0.253-0.211-0.421-0.485-0.506-0.823l1.772-2.783L171.763,81.383z"/>
						<path fill="#FFFFFF" d="M138.421,76.005c0.843-0.042,1.54,0.021,2.088,0.191c3.797-0.169,7.149,1.792,10.06,5.883
							c1.56,2.236,2.657,4.345,3.289,6.328c0.042,0.97-0.064,1.834-0.317,2.594c-0.421-1.393-1.539-2.489-3.354-3.29v-0.57
							c-2.318-5.23-5.969-7.719-10.944-7.465c-1.603,0.085-3.502,1.266-5.694,3.544c-1.94,2.109-2.889,3.438-2.847,3.985
							l0.127,0.886c-1.014,0.211-1.94,0.991-2.784,2.34c-0.253,0.379-0.485,0.802-0.696,1.264l-0.506-2.468
							c-0.085-2.151,0.59-4.491,2.024-7.023C130.977,78.282,134.16,76.216,138.421,76.005z"/>
						<path fill="#373535" d="M133.422,99.73l-1.834-0.758l-0.064-0.064h-0.064c-2.953-1.434-4.471-3.1-4.555-4.998
							c-0.042-0.591,0.106-1.329,0.443-2.216c0.211-0.464,0.443-0.885,0.696-1.264l2.784-2.34l8.793-1.961l4.43,0.064l0.191,0.064
							c1.391,0.127,2.572,0.337,3.542,0.632l0.759,0.253h0.191l0.632,0.253l0.253,0.064l0.569,0.253
							c1.815,0.802,2.932,1.898,3.354,3.29l0.191,1.012c0.084,1.223-0.592,2.678-2.025,4.366l-0.886,0.885
							c-1.012,1.012-2.277,2.087-3.797,3.227c-0.675,0.591-2.066,1.561-4.175,2.911c-0.549,0.294-0.949,0.737-1.202,1.328
							c-0.252,0.549-0.359,1.16-0.317,1.834c0,0.379,0.065,0.696,0.191,0.949l-0.064,0.064l-0.253,0.19h-0.064l-0.886,0.57
							l-0.126,0.064l0.19-0.443c0.127-0.422,0.191-0.907,0.191-1.456c-0.042-0.42-0.317-0.907-0.823-1.455
							c-0.421-0.591-1.519-1.624-3.288-3.101C134.962,100.764,133.971,100.025,133.422,99.73z"/>
						<path fill="#373535" d="M135.827,91.885c-1.181,0.042-2.679-0.294-4.492-1.012l6.2-1.834c1.52-0.042,2.362,0.316,2.531,1.075
							C139.011,91.252,137.598,91.843,135.827,91.885z"/>
						<path fill="#FFFFFF" d="M131.335,90.873l6.2-1.834c1.52-0.042,2.362,0.316,2.531,1.075c-1.054,1.14-2.467,1.729-4.238,1.771
							C134.645,91.927,133.148,91.59,131.335,90.873z"/>
						<path fill="#FFFFFF" d="M133.549,83.217c2.193-2.277,4.092-3.459,5.694-3.544c4.975-0.253,8.626,2.236,10.944,7.465v0.19
							l-0.569,0.127l-0.253-0.064l-0.632-0.253h-0.191l-0.759-0.253l-2.277-1.201l-1.264,0.57l-0.191-0.064l-4.43-0.064
							l-8.541,1.898l-0.317-0.253l-0.062-0.57C130.66,86.655,131.609,85.326,133.549,83.217z"/>
						<polygon fill="#373535" points="150.188,87.709 149.619,87.457 150.188,87.33 						"/>
						<path fill="#373535" d="M145.507,85.685l2.277,1.201c-0.97-0.295-2.151-0.505-3.543-0.632L145.507,85.685z"/>
						<path fill="#FFFFFF" d="M150.821,97.262l0.886-0.885c0.97,0.337,1.54,1.096,1.708,2.278c0,0.464-0.191,0.97-0.57,1.518
							l-1.645,1.834c-1.562,1.349-2.32,2.636-2.278,3.86c0,0.253,0.696,0.97,2.088,2.151c1.434,1.181,2.172,2.151,2.214,2.91v0.253
							c-0.042,0.042-0.042,0.084,0,0.126c-0.042,0.042-0.042,0.085,0,0.126l-0.253,1.014l-0.19,0.379l-0.444,0.506l-0.632,0.317
							l-7.276-3.986c-0.042-1.349-0.991-2.003-2.847-1.961l-0.379,0.064l0.253-0.19l0.064-0.064
							c-0.126-0.253-0.191-0.57-0.191-0.949c-0.042-0.675,0.065-1.287,0.317-1.834c0.253-0.591,0.653-1.034,1.202-1.328
							c2.109-1.35,3.501-2.32,4.175-2.911C148.543,99.35,149.809,98.275,150.821,97.262z"/>
						<path fill="#FFFFFF" d="M161.514,94.163c-0.042-1.307-0.042-2.51,0-3.606l2.277,5.061c3.08,7.382,4.85,11.071,5.314,11.071
							l0.444-0.064c-0.464,1.434-0.822,2.404-1.076,2.91l-1.266,2.34c-0.464-0.21-0.991-0.274-1.581-0.19
							c-1.266,0.085-2.362,0.738-3.289,1.962l-1.138,1.961l-0.253,0.317l-0.19-0.064c-1.012-0.844-2.131-1.244-3.354-1.202
							c-0.126,0-0.611,0.253-1.454,0.759l-2.405-0.886l-1.203-1.202l0.444-0.506l0.19-0.379l0.253-1.014
							c-0.042-0.041-0.042-0.084,0-0.126c-0.042-0.043-0.042-0.085,0-0.126v-0.253c-0.042-0.759-0.781-1.729-2.214-2.91
							c-1.392-1.182-2.088-1.898-2.088-2.151c-0.042-1.223,0.717-2.51,2.278-3.86l1.645-1.834c0.294-0.338,0.464-0.633,0.506-0.885
							c0.337,0.085,0.612,0.106,0.823,0.064c0.167,0.042,0.273,0.401,0.316,1.076c0.085,0.422-0.273,1.16-1.075,2.214
							c-0.802,0.97-1.182,1.666-1.14,2.087c4.133,3.627,6.285,5.441,6.454,5.441c3.332-0.168,5.209-2.067,5.63-5.694
							C162.547,98.739,161.598,95.301,161.514,94.163z"/>
						<path fill="#FFFFFF" d="M132.094,99.16l1.328,0.57c0.549,0.295,1.54,1.034,2.975,2.214c1.771,1.477,2.867,2.51,3.288,3.101
							c0.507,0.549,0.781,1.034,0.823,1.455c0,0.55-0.064,1.035-0.191,1.456l-0.57,1.265l-1.771,1.14l-0.253,0.19l-1.645,1.011
							l-0.191,0.064l-0.506,0.317l-5.252,2.783l-0.19-1.328c-0.042-0.802,1.666-2.637,5.125-5.505
							c-0.253-0.928-0.971-1.961-2.151-3.101c-1.055-1.054-1.624-2.13-1.708-3.227c-0.085-0.717,0.042-1.307,0.38-1.771
							L132.094,99.16z"/>
						<path fill="#FFFFFF" d="M117.985,111.244c5.863-0.294,9.575-1.518,11.135-3.669c0.591-0.886,0.843-2.616,0.759-5.188
							c-0.042-1.476,0.527-2.34,1.708-2.594c-0.338,0.464-0.464,1.055-0.38,1.771c0.085,1.097,0.653,2.173,1.708,3.227
							c1.181,1.14,1.898,2.172,2.151,3.101c-3.459,2.868-5.167,4.703-5.125,5.505l0.19,1.297l-3.289,1.423
							c-0.253,0.042-0.507,0.147-0.759,0.316l-0.253,0.064l-0.127,0.064h-0.062l-0.253,0.127l-3.353,1.012h-0.064l-3.418,0.506
							c-1.434,0.085-2.826-0.106-4.175-0.57l-0.317-0.127c-1.012-0.38-2.131-1.034-3.353-1.961
							c-0.759-0.717-1.456-1.434-2.088-2.151l-0.19-0.317l-1.075-2.34v-0.064l-0.064-0.507v-0.57l0.632,0.064l1.645-0.823
							c0.338-0.337,0.654-0.738,0.949-1.202h0.064c0.801,0.168,1.772,0.759,2.91,1.772
							C114.969,110.676,116.467,111.287,117.985,111.244z"/>
						<path fill="#FFFFFF" d="M141.205,107.765l0.379-0.064c1.857-0.042,2.804,0.612,2.847,1.961
							c0.084,1.393-0.802,2.11-2.657,2.151c-1.308,0.085-2.468-0.232-3.48-0.949c-0.168,0.253-0.275,0.084-0.317-0.506l1.771-1.14
							l0.38-0.822l0.126-0.064l0.886-0.57h0.065V107.765z"/>
						<path fill="#FFFFFF" d="M144.432,109.663l0.759,0.443c-0.085,0.97-0.38,1.834-0.885,2.594
							c-0.718,1.055-1.625,1.603-2.721,1.645c-2.489,0.127-3.774-0.801-3.86-2.784c-0.042-0.378-0.042-0.716,0-1.011l0.253-0.19
							c0.041,0.59,0.148,0.759,0.317,0.506c1.012,0.716,2.172,1.033,3.48,0.949C143.63,111.772,144.516,111.055,144.432,109.663z"/>
						<path fill="#FFFFFF" d="M144.305,112.7c0.505-0.759,0.801-1.624,0.885-2.594l2.847,1.645v0.191
							c0.168,3.965-2.531,6.095-8.099,6.39c-1.56,0.042-2.973-0.042-4.238-0.253c-1.055-0.169-1.857-0.527-2.405-1.076
							c-0.464-1.138-0.653-1.75-0.569-1.834c-0.042-0.633,0.822-1.687,2.594-3.163l0.064-0.064l0.506-0.317l0.191-0.064l1.645-1.011
							c-0.042,0.295-0.042,0.633,0,1.011c0.085,1.984,1.371,2.911,3.86,2.784C142.68,114.303,143.588,113.755,144.305,112.7z"/>
						<path fill="#FFFFFF" d="M125.704,116.559l0.127-0.064l0.253-0.064c0.253-0.168,0.506-0.273,0.759-0.316l8.541-4.176
							l-0.064,0.064c-1.772,1.476-2.636,2.531-2.594,3.163c-0.085,0.085,0.106,0.696,0.569,1.834
							c0.549,0.549,1.35,0.907,2.405,1.076c1.266,0.211,2.678,0.295,4.238,0.253c5.568-0.295,8.268-2.425,8.099-6.39v-0.191
							l4.364,2.278c-1.137,2.446-2.572,4.345-4.302,5.694c-1.265,0.928-2.7,1.561-4.302,1.898l-1.898,0.19l-10.313-1.328h-0.191
							l-0.064-0.064l-5.44-3.67l-0.127-0.127l-0.127-0.064h0.065V116.559z"/>
						<path fill="#FFFFFF" d="M164.677,117.382c0.886,0,1.349,0.021,1.393,0.064c0.21,0.085,0.337,0.464,0.379,1.14
							c0.041,1.392-2.278,3.711-6.96,6.96c-1.729,1.181-3.162,2.066-4.302,2.657c-1.771,0.801-3.269,1.223-4.491,1.264
							c-1.687,0.085-3.101-0.421-4.238-1.518c-2.49,0.716-5.4,1.181-8.732,1.392l-3.67-0.127c-2.995-0.675-5.694-1.729-8.099-3.163
							l-0.949-0.57l-0.632-0.696c-2.109-3.67-3.48-5.8-4.112-6.39c0.085-0.253,0.506-0.379,1.266-0.379
							c0.085,0,0.232-0.106,0.443-0.317l3.416-1.012l0.253-0.127l0.127,0.064l0.127,0.127l5.44,3.67l0.064,0.064h0.191l2.974,0.379
							c2.362,0.97,5.187,1.37,8.478,1.202h0.822l0.317,1.771c0-0.337,0.675-1.012,2.025-2.025c2.319-0.253,5.272-0.843,8.857-1.771
							L164.677,117.382z"/>
						<path fill="#FFFFFF" d="M134.562,120.862l7.339,0.949l1.898-0.19l0.064,0.443h-0.822
							C139.749,122.232,136.923,121.831,134.562,120.862z"/>
						<polygon fill="#FFFFFF" points="152.339,113.333 153.542,114.534 152.467,114.028 152.402,114.028 151.708,113.649 						"/>
						<path fill="#FFFFFF" d="M152.402,114.028h0.065l3.48,1.393c-1.434,0.802-3.186,1.898-5.252,3.288l-4.491,3.101
							c-1.35,1.012-2.025,1.688-2.025,2.025l-0.379-2.214c1.603-0.337,3.037-0.97,4.302-1.898
							C149.83,118.373,151.265,116.474,152.402,114.028z"/>
						<path fill="#FFFFFF" d="M168.536,112.953l0.191,0.19l0.126,0.949v0.253l0.065,0.253l0.188,1.456v0.064
							c-0.041,0.378-0.252,0.907-0.632,1.581l-0.506,0.759l-1.772,1.961l-0.126,0.19l-3.797,3.226l-6.39,4.05l-0.064,0.064
							l-0.633,0.253c1.14-0.591,2.573-1.476,4.302-2.657c4.682-3.248,7.001-5.568,6.96-6.96c-0.042-0.676-0.169-1.055-0.379-1.14
							c-0.043-0.042-0.507-0.064-1.393-0.064l-9.616,2.657c-3.586,0.928-6.537,1.518-8.857,1.771l4.491-3.101
							c2.066-1.391,3.817-2.488,5.252-3.288l0.633,0.19c1.434,0.464,2.656,0.653,3.669,0.569c2.827-0.168,5.146-1.602,6.959-4.302
							C167.799,112.089,168.24,112.447,168.536,112.953z"/>
						<path fill="#FFFFFF" d="M155.947,115.421c0.843-0.507,1.328-0.759,1.454-0.759c1.223-0.042,2.342,0.358,3.354,1.202
							l0.19,0.064l0.253-0.317l1.138-1.961c0.928-1.223,2.024-1.877,3.289-1.962c0.591-0.085,1.118-0.02,1.581,0.19
							c-1.813,2.7-4.132,4.133-6.959,4.302c-1.012,0.086-2.235-0.105-3.669-0.569L155.947,115.421z"/>
						<path fill="#FFFFFF" d="M169.548,106.626c0.379-1.307,0.633-2.636,0.759-3.985l0.379,2.594
							c0.084,1.138,0.021,2.214-0.19,3.227c-0.253-0.295-0.444-0.443-0.57-0.443l-0.444,0.064l-0.064,0.19l0.253,2.784l-0.633,1.202
							l-0.506,0.696c-0.295-0.506-0.737-0.864-1.329-1.076l1.266-2.34C168.726,109.03,169.085,108.06,169.548,106.626z"/>
						<path fill="#FFFFFF" d="M170.308,102.64c-0.126,1.349-0.379,2.678-0.759,3.985l0.949-7.718
							C170.582,100.173,170.518,101.418,170.308,102.64z"/>
						<path fill="#FFFFFF" d="M169.042,112.257l0.633-1.202c0.211,2.489,0.274,5.546,0.191,9.173
							c-0.295-1.307-0.55-2.678-0.76-4.112v-0.064l0.064-0.759c-0.083-0.928-0.231-1.645-0.442-2.151l-0.064-0.379L169.042,112.257z
							"/>
						<path fill="#FFFFFF" d="M169.104,116.117c0.211,1.434,0.464,2.804,0.76,4.112v1.328l-1.392-3.859
							C168.852,117.023,169.063,116.496,169.104,116.117z"/>
						<path fill="#FFFFFF" d="M168.473,117.699l1.392,3.859v-1.328c0.42,1.983,0.864,3.775,1.329,5.378
							c0.548,1.94,1.137,3.647,1.771,5.125c2.066,5.314,5.715,8.12,10.945,8.414l0.507,0.064c1.687,0.042,3.205-0.232,4.555-0.822
							c-0.21,0.844-0.337,1.75-0.378,2.72l-1.456,1.012l1.077-0.696l1.328,0.57c0.041,1.138,0.717,2.192,2.024,3.163l0.191,0.126
							c1.646,1.055,2.742,2.594,3.289,4.618c0.253,0.758,0.379,2.13,0.379,4.112c0.253,1.391,1.202,2.383,2.847,2.974l-0.317,1.519
							c0,0.253,0.127,0.76,0.38,1.52l0.505,1.581c0.633,1.729,0.971,3.101,1.012,4.112v0.253c-0.041,0.042-0.041,0.085,0,0.126
							v0.507c0.085,1.096,0.085,2.489,0,4.175l-0.949,0.317c-1.855,0.085-2.93-1.349-3.226-4.302v-4.364
							c-0.085-0.676-1.012-2.363-2.784-5.061c-2.024-3.037-3.142-5.042-3.353-6.011c-0.464-1.857-2.236-3.544-5.315-5.061
							c-4.935-2.573-7.485-3.923-7.656-4.049c-3.079-2.319-5.8-5.843-8.161-10.567c-2.024-3.922-3.163-7.297-3.418-10.123
							l1.077-0.949l0.126-0.19l1.772-1.961L168.473,117.699z"/>
						<path fill="#FFFFFF" d="M170.498,108.462c0.506,0.632,1.075,1.624,1.707,2.973l-0.443-0.378l-0.317,0.316l0.885,6.77
							c0.421,3.459,1.035,6.41,1.834,8.857c2.277,7.38,6.455,10.903,12.527,10.566c2.109-0.126,3.88-0.718,5.315-1.773
							c-0.791,1.13-1.804,1.995-3.037,2.595c-1.349,0.591-2.868,0.864-4.555,0.822l-0.507-0.064
							c-5.23-0.294-8.879-3.101-10.945-8.414c-0.633-1.477-1.223-3.185-1.771-5.125c-0.464-1.602-0.908-3.395-1.329-5.378
							c0.084-3.627,0.021-6.685-0.191-9.173l-0.253-2.784l0.064-0.19l0.444-0.064C170.054,108.019,170.245,108.166,170.498,108.462z
							"/>
						<path fill="#FFFFFF" d="M172.205,111.434l0.379,0.823c0.717,1.434,2.004,4.365,3.859,8.794l0.317,0.822
							c3.754,9.322,6.328,13.94,7.719,13.857c1.646-0.127,4.514-2.552,8.605-7.277l0.949,1.138l-0.064,0.632
							c-0.168,1.392-0.485,2.636-0.949,3.733l-0.127,0.317l-0.885,1.518c-1.434,1.055-3.206,1.647-5.315,1.773
							c-6.073,0.337-10.25-3.186-12.527-10.566c-0.801-2.446-1.413-5.398-1.834-8.857l-0.885-6.77l0.317-0.316L172.205,111.434z"/>
						<path fill="#FFFFFF" d="M155.82,127.948l0.064-0.064l2.151-1.202c1.898-0.928,4.112-1.581,6.642-1.961l0.507,0.507
							c-0.085,1.011-0.527,2.109-1.328,3.288c-1.984,1.561-4.03,3.017-6.138,4.366c-2.277,1.434-4.893,3.88-7.845,7.339
							l-5.883,3.606c1.983-2.025,4.238-5.673,6.769-10.945C152.108,130.857,153.795,129.213,155.82,127.948z"/>
						<path fill="#FFFFFF" d="M163.855,128.517c-2.152,3.122-6.813,7.024-13.984,11.706c2.953-3.459,5.568-5.905,7.845-7.339
							C159.826,131.533,161.871,130.077,163.855,128.517z"/>
						<path fill="#FFFFFF" d="M158.033,126.683l6.959-5.125c0.253,2.826,1.393,6.201,3.418,10.123
							c2.361,4.724,5.082,8.247,8.161,10.567c0.169,0.126,2.72,1.476,7.656,4.049c2.7,1.307,4.408,2.804,5.125,4.491h-87.499
							l-0.191-0.191h-0.064c0.97-2.657,1.793-5.947,2.468-9.869c-0.042-0.632-0.168-0.991-0.38-1.075l-0.317,0.126l-1.898,1.011
							l0.633-1.707c0.802-2.405,1.097-5.778,0.885-10.123l-0.19-0.632c1.349,1.476,2.7,2.826,4.049,4.05l2.468,2.15
							c2.783,2.362,5.378,4.365,7.782,6.011c1.223,0.844,2.319,1.497,3.289,1.962c0.211-0.086,0.42-0.042,0.632,0.126v-0.949
							c-0.085-0.337-3.121-3.986-9.111-10.945c-4.049-4.682-6.875-7.824-8.478-9.427c0.801-0.506,1.434-1.37,1.898-2.595
							c0.633-2.066,2.046-3.141,4.238-3.226c0.253-0.042,0.632-0.021,1.14,0.064c1.222,0.928,2.34,1.581,3.353,1.961l0.064,0.253
							l0.253-0.126c1.349,0.464,2.741,0.653,4.175,0.57l3.418-0.506c-0.212,0.211-0.359,0.317-0.443,0.317
							c-0.759,0-1.181,0.127-1.266,0.379c0.632,0.59,2.004,2.721,4.112,6.39l0.632,0.696c2.573,2.446,6.116,3.732,10.629,3.859
							h2.088c3.332-0.211,6.243-0.676,8.732-1.392c1.137,1.096,2.551,1.602,4.238,1.518c1.222-0.042,2.721-0.464,4.491-1.264
							l0.633-0.253c-2.024,1.264-3.712,2.91-5.061,4.935c-2.531,5.272-4.787,8.92-6.769,10.945l5.883-3.606
							c7.171-4.682,11.832-8.583,13.984-11.706c0.801-1.18,1.243-2.277,1.328-3.288l-0.507-0.507
							C162.145,125.1,159.931,125.755,158.033,126.683z"/>
						<path fill="#FFFFFF" d="M141.584,170.97l-0.949,0.19l-0.443,2.468c0.085,0.928,0.864,2.236,2.34,3.922
							c1.857,2.067,3.86,3.06,6.011,2.975c0.633-0.042,1.011-0.168,1.138-0.379l0.064-0.696c-0.758-2.067-2.298-4.07-4.618-6.011
							C143.188,171.793,142.006,170.97,141.584,170.97z M135.194,170.526l-0.443,0.064c0.506,0.971,1.202,2.531,2.088,4.682
							c1.054,1.94,2.72,3.037,4.999,3.29C138.632,174.808,136.417,172.129,135.194,170.526z M152.402,173.501
							c-1.18-1.35-1.961-2.004-2.34-1.962c-0.843,0-1.222,0.168-1.138,0.507c2.278,3.12,3.964,4.999,5.061,5.63l0.443-0.378
							C154.217,176.158,153.542,174.893,152.402,173.501z M146.33,170.463l0.191,3.163c0.758,0.844,1.496,1.772,2.214,2.784
							c0.885,1.096,1.834,1.602,2.847,1.519c0.378-0.295,0.611-0.57,0.695-0.822c-2.235-3.037-4.006-5.273-5.315-6.707
							L146.33,170.463z M107.736,174.829c0.717-1.94,1.244-3.774,1.582-5.504c0.211-1.519,0.295-2.657,0.253-3.416
							c-2.742-7.929-5.314-12.97-7.718-15.121h87.499l0.191,0.57c0.211,0.969,1.329,2.974,3.353,6.011
							c1.772,2.698,2.7,4.364,2.784,4.998v4.429c0.295,2.953,1.37,4.388,3.226,4.302l0.949-0.317l-0.064,0.379v0.064l-0.949,14.742
							h-73.011l0.886-1.707c-0.464-0.212-0.801-0.507-1.014-0.886l-0.758,0.317l-0.126-0.127l0.062,0.127l0.759,2.277H97.234
							l-1.266-5.948c1.014,1.984,2.258,2.932,3.733,2.847C103.16,182.695,105.838,180.016,107.736,174.829z"/>
						<path fill="#FFFFFF" d="M125.64,185.965l0.062,0.191l0.127-0.191h41.947c-0.085,0.886-0.253,1.834-0.507,2.847
							c0.085,1.349,0.317,2.425,0.697,3.227c-2.236,0.294-4.218,3.247-5.948,8.857c-1.011,3.29-2.004,6.813-2.974,10.567
							c1.983-1.815,4.259-4.471,6.833-7.972c1.476-1.94,2.615-3.648,3.416-5.125v-0.064h0.064l-1.391,4.175
							c-1.349,3.754-1.919,7.635-1.708,11.642l0.759,7.15H156.39l-0.696-1.393c-0.168-0.041-0.359-0.041-0.57,0
							c-1.729,0.085-2.995,0.549-3.796,1.393h-1.392l0.569-0.823c0.97-1.561,1.434-2.91,1.392-4.049
							c-0.041-0.549-0.168-1.055-0.378-1.52c-0.338-0.632-0.845-1.033-1.52-1.201c-0.549-0.127-1.118-0.169-1.708-0.127
							c-2.15,0.042-4.028,1.138-5.63,3.289c-0.844,1.097-1.392,2.088-1.646,2.974l-0.696,0.379c-0.041-0.041-0.041-0.085,0-0.126
							c-0.041-0.549-0.717-1.287-2.024-2.214c-1.434-1.012-2.573-1.497-3.418-1.455l-0.949,0.378
							c-1.054,0.76-1.624,1.835-1.708,3.228l0.064,0.379c-0.042,0.041-0.042,0.085,0,0.126l0.064,0.76h-3.289v-0.065l-0.064-0.126
							v-0.191l-0.127-1.519l0.191-5.884l0.064-0.317l0.064-2.847c-1.012-7.466-2.362-13.393-4.049-17.778
							c-0.464,0.337-0.844,1.582-1.138,3.733c-0.338,2.15-0.485,3.563-0.443,4.238l-0.57,8.415
							c-0.464,5.525-0.632,9.468-0.506,11.831v0.507h-21.071c0.379-3.08,0.443-7.234,0.19-12.465
							c-0.127-2.91-1.476-10.039-4.049-21.384l-0.317-1.455h28.407V185.965z"/>
						<path fill="#FFFFFF" d="M133.422,223.293l-0.949,1.011c-0.591,0.676-0.949,1.52-1.076,2.531l-0.064,0.253v0.949l-0.443-1.012
							l-0.127-0.191c-0.885-1.729-1.455-3.585-1.707-5.566h3.289C132.558,222.069,132.917,222.744,133.422,223.293z"/>
						<path fill="#FFFFFF" d="M144.62,224.304l0.064-0.064l0.443-0.316c2.025-0.338,3.628-1.223,4.809-2.657h1.392
							c-0.802,0.801-1.244,2.024-1.329,3.669l-2.531,3.29h-0.444c-0.758,0.084-1.413,0.274-1.961,0.569l-0.19,0.191l0.126-0.317
							c-0.59-1.392-1.476-2.362-2.657-2.91l-0.065-0.064l0.065-0.065c0.759-0.379,1.476-0.802,2.15-1.266L144.62,224.304z"/>
						<path fill="#FFFFFF" d="M92.931,232.15l1.962-1.455c2.024-1.56,3.543-2.826,4.555-3.797c0.928-0.927,1.581-2.803,1.961-5.629
							h21.069c0.338,2.909,2.236,8.878,5.694,17.903l0.253,1.835c0.379,1.434,0.864,2.594,1.455,3.479l0.127,0.57l-0.823,0.443
							c-1.772,0.843-3.817,1.371-6.136,1.581h-0.507c-1.434,0.042-2.362-0.147-2.783-0.57l-0.823-1.833
							c0.168-0.168,0.253-0.485,0.253-0.949c-0.042-0.168-0.042-0.358,0-0.569l0.064-0.444v-0.064
							c-0.253-2.784-0.738-4.787-1.456-6.011c-0.675-1.054-1.497-1.539-2.468-1.454c-1.646,0.084-2.657,1.94-3.036,5.567
							c-0.127,1.476-0.127,3.46,0,5.947l0.379,2.847c0.042,0.294,0.169,0.57,0.379,0.823h-0.506
							c-0.633,0.041-1.434,0.021-2.405-0.065c-0.168-4.175-1.076-6.242-2.72-6.2c-0.506,0-0.886,0.19-1.14,0.57l-2.405,0.569
							l-0.253-1.833l0.127-1.33c-0.253-0.42-0.653-0.863-1.202-1.328c-0.886,0.421-1.645,1.413-2.277,2.974
							c-0.423,0.885-0.654,1.624-0.697,2.216c-0.379-1.224-1.054-1.793-2.025-1.709c-0.759,0.042-1.243,0.612-1.456,1.709
							c-0.084,0.337-0.084,0.737,0,1.201c0.086,0.886,0.168,1.477,0.253,1.773l-0.822-0.507c-1.181-0.802-2.066-1.751-2.657-2.847
							c-0.423-0.802-0.676-1.707-0.759-2.72c-0.042-0.592-0.021-1.349,0.064-2.277c-0.464-0.464-0.927-0.654-1.392-0.57
							c-0.168,0-0.4,0.211-0.696,0.633l-0.127,0.126l-0.443-0.379C89.346,237.168,90.485,234.427,92.931,232.15z"/>
						<path fill="#FFFFFF" d="M168.284,191.975l-0.317,0.064c-0.38-0.802-0.612-1.877-0.697-3.227
							c0.253-1.012,0.421-1.961,0.507-2.847h31.064l-0.949,11.072l-0.126,0.822v6.706c-0.592-4.302-0.949-7.171-1.077-8.604
							c0.253-0.886,0.38-1.499,0.38-1.834c-0.676,0.969-1.181,3.5-1.519,7.592c-0.295,4.006-1.097,7.106-2.405,9.299
							c-1.307,2.066-2.046,5.484-2.214,10.25h-23.915l-0.759-7.15c-0.211-4.007,0.359-7.888,1.708-11.642l1.391-4.175
							c0.971-1.855,1.434-3.206,1.392-4.049C170.708,192.692,169.886,191.931,168.284,191.975z"/>
						<path fill="#FFFFFF" d="M167.144,222.786c-0.758-0.252-1.729-0.337-2.91-0.252c-3.205,0.126-5.23,1.076-6.073,2.847
							l-0.253-0.697h-0.064l-1.455-3.415h10.629L167.144,222.786z"/>
						<path fill="#FFFFFF" d="M167.144,222.786l-0.126-1.518h23.915c-0.085,2.572-0.064,5.166,0.064,7.781
							c0.085,0.971,2.447,4.767,7.086,11.389l1.961,2.658c-1.054-0.507-2.109-0.781-3.163-0.823
							c-0.843-0.085-1.476-0.106-1.898-0.064c-1.519,0.041-2.257,0.928-2.214,2.657c0,0.633,0.885,2.151,2.657,4.556
							c1.814,2.404,3.353,3.69,4.618,3.86c-0.507,0.591-1.034,1.075-1.582,1.454l-1.202,0.697c-0.675-2.953-1.561-4.408-2.657-4.365
							c-0.97,0.084-1.392,1.054-1.264,2.91c0,0.252,0.232,1.011,0.695,2.276c-2.531,0.086-4.429-1.034-5.693-3.352v-0.065h-0.317
							v-0.064c-0.126-2.066-0.359-3.797-0.696-5.187l-0.253-1.202c-0.549-2.067-1.645-3.059-3.289-2.974
							c-1.983,0.084-2.91,2.635-2.783,7.656l-2.088,0.126c-0.55,0.717-0.802,1.581-0.759,2.593l1.328,2.721
							c-3.67-0.21-6.284-1.349-7.845-3.416l-0.316-0.317l-0.317-0.57l-1.203,0.127c-0.252,0.041-0.611,0.064-1.075,0.064
							c-0.676-1.94-1.055-3.522-1.14-4.745l-1.707,0.191c-0.464,0.126-0.676,0.611-0.633,1.454c0,0.507,0.232,1.181,0.696,2.025
							c0,0.295-0.042,0.485-0.126,0.569h-0.127c-2.531-0.927-3.86-3.12-3.986-6.579c-0.041-0.886,0.337-2.214,1.138-3.986
							l1.646-3.289l2.214-5.505c0.885-0.294,1.666-0.759,2.34-1.391c1.181-1.097,1.729-2.362,1.646-3.797
							C170.518,224.895,169.337,223.376,167.144,222.786z"/>
						<path fill="#FFFFFF" d="M140.193,173.627l0.443-2.468l0.949-0.19c0.42,0,1.603,0.822,3.543,2.467
							c2.32,1.941,3.861,3.944,4.618,6.011l-0.064,0.696c-0.127,0.211-0.506,0.337-1.138,0.379
							c-2.151,0.085-4.155-0.907-6.011-2.975C141.057,175.864,140.277,174.555,140.193,173.627z"/>
						<path fill="#FFFFFF" d="M135.194,170.526c1.223,1.603,3.438,4.282,6.643,8.036c-2.278-0.253-3.945-1.35-4.999-3.29
							c-0.886-2.151-1.582-3.711-2.088-4.682L135.194,170.526z"/>
						<path fill="#FFFFFF" d="M151.582,177.93c-1.012,0.084-1.962-0.421-2.847-1.519c-0.718-1.012-1.456-1.94-2.214-2.784
							l-0.191-3.163l0.632-0.064c1.308,1.434,3.08,3.67,5.315,6.707C152.193,177.36,151.96,177.633,151.582,177.93z"/>
						<path fill="#FFFFFF" d="M153.985,177.676c-1.097-0.632-2.783-2.51-5.061-5.63c-0.084-0.338,0.295-0.507,1.138-0.507
							c0.379-0.041,1.161,0.611,2.34,1.962c1.14,1.392,1.815,2.657,2.025,3.797L153.985,177.676z"/>
						<path fill="#FFFFFF" d="M135.637,129.34c-4.513-0.127-8.055-1.413-10.629-3.859l0.949,0.57
							c2.404,1.434,5.104,2.489,8.099,3.163L135.637,129.34z"/>
						<path fill="#FFFFFF" d="M193.97,130.225l0.064-0.632c1.097,1.392,1.666,2.363,1.708,2.911c0,0.337-0.126,0.759-0.379,1.264
							c-0.253-0.042-0.506-0.042-0.759,0c-0.591,0-1.118,0.064-1.581,0.191C193.485,132.861,193.801,131.617,193.97,130.225z"/>
						<path fill="#FFFFFF" d="M194.603,133.768c0.253-0.042,0.506-0.042,0.759,0c-0.464,1.012-1.602,2.447-3.418,4.302
							c0.38-0.126,1.014-0.233,1.898-0.317c1.35-0.042,2.975,0.844,4.873,2.658c-1.18-0.802-2.172-1.181-2.974-1.14
							c-0.506,0-0.864,0.127-1.076,0.38c0.042,0.294-0.064,0.843-0.317,1.645c0.085,1.519,1.497,3.944,4.239,7.276
							c2.827,3.332,4.259,5.821,4.302,7.465c0.042,0.886-0.295,3.565-1.012,8.036c0.085,1.181,0.57,2.551,1.455,4.112
							c0.802,1.434,1.244,2.974,1.329,4.617c0,0.464-0.633,2.911-1.898,7.34c0.252-1.814,0.379-3.08,0.379-3.796l-3.354-5.126
							v-0.064l0.064-0.379c0.085-1.687,0.085-3.079,0-4.175v-0.507c-0.041-0.041-0.041-0.084,0-0.126v-0.253
							c-0.041-1.011-0.379-2.383-1.012-4.112l-0.505-1.581l0.758-2.784l-0.822-0.253c-1.646-0.591-2.594-1.582-2.847-2.974
							c0-1.983-0.126-3.354-0.379-4.112c-0.549-2.025-1.645-3.564-3.289-4.618l-0.191-0.126c-1.307-0.971-1.983-2.025-2.024-3.163
							c-0.042-0.676,0.021-1.266,0.19-1.772l-1.137,0.885c0.041-0.97,0.168-1.876,0.378-2.72c1.477-0.718,2.637-1.814,3.48-3.289
							l0.443-0.822l0.127-0.317C193.485,133.831,194.012,133.768,194.603,133.768z"/>
						<path fill="#FFFFFF" d="M208.585,153.888c0.043,1.602-0.42,3.521-1.391,5.758c-1.055,2.024-1.54,3.542-1.455,4.555
							c0,0.591,0.97,3.037,2.91,7.339c0.126,2.49-1.772,8.688-5.694,18.6l-1.138,0.191c-0.127,0.506-0.211,0.274-0.253-0.695
							l-3.036-0.253l1.076-13.349c0.506-1.097,1.138-1.688,1.898-1.772h0.317l1.329,2.088c0,0.716-0.127,1.981-0.379,3.796
							c1.264-4.429,1.898-6.875,1.898-7.34c-0.085-1.645-0.527-3.185-1.329-4.617c-0.885-1.561-1.37-2.931-1.455-4.112
							c0.717-4.471,1.055-7.15,1.012-8.036c-0.042-1.645-1.476-4.132-4.302-7.465c-2.742-3.332-4.155-5.758-4.239-7.276
							c0.253-0.802,0.359-1.349,0.317-1.645c0.211-0.253,0.57-0.38,1.076-0.38c0.802-0.041,1.793,0.338,2.974,1.14
							C201.456,143.027,204.747,147.518,208.585,153.888z"/>
						<path fill="#FFFFFF" d="M187.137,142.119l2.594-1.898c-0.168,0.506-0.232,1.096-0.19,1.772l-1.328-0.57L187.137,142.119z"/>
						<path fill="#FFFFFF" d="M198.336,160.024c-0.253-0.759-0.38-1.266-0.38-1.52l0.317-1.519l0.822,0.253L198.336,160.024z"/>
						<path fill="#FFFFFF" d="M199.79,171.223l2.025,3.037h-0.317c-0.759,0.084-1.392,0.675-1.898,1.772L199.79,171.223z"/>
						<path fill="#FFFFFF" d="M117.922,35.387c4.176-0.168,7.529,3.86,10.06,12.084c1.223,4.007,2.046,8.183,2.468,12.527v0.253
							c0.127,2.91-1.012,7.171-3.416,12.781c-1.855,2.615-3.88,4.618-6.075,6.011c2.995-6.243,4.451-10.355,4.366-12.337
							c1.097-4.598,1.602-8.035,1.519-10.313c-2.236-12.779-4.935-19.086-8.099-18.917c-0.506,0-2.192,1.223-5.061,3.669
							c-2.91,2.404-5.672,3.67-8.288,3.796c-0.843,0.085-1.687-0.148-2.531-0.696l-1.076-0.57l1.455-0.886
							C110.752,37.98,115.645,35.513,117.922,35.387z"/>
						<path fill="#FFFFFF" d="M105.395,44.94c2.616-0.127,5.378-1.392,8.288-3.796c2.869-2.446,4.555-3.669,5.061-3.669
							c3.163-0.169,5.863,6.136,8.099,18.917c0.084,2.278-0.422,5.715-1.519,10.313c0.085,1.981-1.37,6.094-4.366,12.337
							c2.194-1.393,4.218-3.396,6.075-6.011l-0.064,0.126c-2.446,5.525-4.872,9.617-7.276,12.274
							c-0.885,1.012-2.657,5.567-5.314,13.665c-1.307,4.007-2.573,6.855-3.796,8.541h-0.064c-0.294,0.464-0.611,0.865-0.949,1.202
							l-1.645,0.823l-0.632-0.064l-0.253-0.127c-0.885-0.464-1.813-1.519-2.783-3.163l-1.266-5.251
							c0.632-0.212,1.054-0.423,1.266-0.633c0.337-1.771,0.464-3.163,0.379-4.176c-0.127-2.783-0.759-4.935-1.898-6.454h-0.443
							c0.085,1.983,0.042,4.197-0.126,6.643c-0.801-2.869-2.51-5.421-5.125-7.656l-0.506-0.443l-0.19-0.253l-4.745-8.479
							l-0.064-0.19l-1.518-2.909c-1.561-3.206-2.447-5.631-2.657-7.276c0.591-2.784,1.034-6.011,1.328-9.681l0.38-4.618
							c0.085-1.223,0.253-2.34,0.506-3.353l0.506,1.455c0.591-0.928,1.075-1.602,1.455-2.025c1.014-1.14,4.429-3.585,10.249-7.339
							l1.076,0.57C103.707,44.792,104.552,45.025,105.395,44.94z M108.368,49.874l-1.392,0.064l-0.253,0.064h-0.064
							c-0.801,0.085-1.54,0.274-2.214,0.57h-0.064l-0.253,0.126l-0.379,0.127l-0.064,0.064c-0.59,0.211-1.244,0.57-1.961,1.076
							c-0.675,0.421-1.16,0.779-1.455,1.075c-0.844,0.633-1.708,1.729-2.595,3.29l-0.064,0.064l-0.57,0.949l-0.19,0.253
							c-0.422,0.506-0.864,0.928-1.328,1.266l-0.57,0.379l-0.506,0.949l-0.19,0.949l0.379,1.519
							c-0.928,0.085-1.54,0.379-1.834,0.886c0.253,1.729,1.264,3.859,3.037,6.389c2.656,3.839,5.905,5.673,9.743,5.505
							c1.476-0.042,3.079-0.591,4.809-1.645c1.772-1.14,2.636-2.236,2.594-3.289v-0.064c0.885-0.337,1.687-0.717,2.404-1.138
							l-0.127,0.316c0.085,1.012,0.233,1.709,0.443,2.088c4.64-1.434,7.508-2.953,8.605-4.556c0.422-0.632,0.59-2.151,0.506-4.555
							c-0.127-1.772-0.676-3.627-1.646-5.567l-0.252-0.569l-0.949-0.633l-0.949-0.57l-0.127-0.443l-0.379,0.127l-3.923-2.468
							l-0.253-0.127c-1.392-0.843-2.721-1.455-3.985-1.834l-0.317-0.127h-0.127l-0.19-0.064c-0.718-0.211-1.37-0.337-1.961-0.379
							C109.465,49.896,109.002,49.874,108.368,49.874z"/>
						<path fill="#FFFFFF" d="M104.446,50.571c0.675-0.295,1.413-0.485,2.214-0.57c-1.771,0.676-3.711,1.878-5.822,3.607
							c-1.054,0.802-2.109,1.708-3.162,2.721c0.885-1.561,1.75-2.657,2.595-3.29c0.294-0.295,0.781-0.653,1.455-1.075
							c0.717-0.506,1.37-0.864,1.961-1.076l0.064-0.064l0.379-0.127l0.253-0.126C104.383,50.571,104.446,50.571,104.446,50.571z"/>
						<path fill="#373535" d="M107.736,55.379c-0.042-1.476-0.696-2.172-1.962-2.087c-0.675,0.085-1.243,0.527-1.707,1.329
							c-0.338,0.632-0.485,1.181-0.443,1.645c0,0.211,0.591,0.843,1.772,1.898C107.04,57.404,107.82,56.476,107.736,55.379z
							 M111.279,53.165l0.38,0.317c1.223,1.096,1.855,2.425,1.898,3.985l-0.127,1.393c-0.168,1.011-0.633,1.919-1.392,2.721
							l-0.57,0.569c-1.012,0.844-2.172,1.287-3.48,1.329c-0.675,0.042-1.413-0.042-2.214-0.253c-0.843-0.38-1.496-0.781-1.961-1.202
							c-1.181-1.055-1.813-2.384-1.898-3.986c-0.085-1.138,0.127-2.13,0.633-2.974l0.695-0.632c0.507-0.423,0.971-0.718,1.393-0.886
							h0.064l0.064-0.064l0.317-0.127c0.843-0.337,1.834-0.549,2.974-0.633C109.064,52.68,110.14,52.828,111.279,53.165z"/>
						<path fill="#F0EBE9" d="M105.774,53.292c1.266-0.085,1.92,0.612,1.962,2.087c0.085,1.097-0.696,2.025-2.34,2.784
							c-1.181-1.055-1.772-1.687-1.772-1.898c-0.041-0.464,0.105-1.014,0.443-1.645C104.53,53.819,105.099,53.376,105.774,53.292z"
							/>
						<path fill="#FFFFFF" d="M105.774,63.225c0.802,0.211,1.54,0.294,2.214,0.253c1.308-0.042,2.468-0.485,3.48-1.329
							c0.127,0.802,0.676,1.37,1.646,1.709l1.266-0.633l-1.519,1.012c-1.898,1.096-3.501,1.729-4.808,1.898h-0.822l-2.025-0.506
							l-0.19-0.064l-1.14-0.57l-0.633-0.442h-0.062l-0.064-0.127c-0.844-0.633-1.477-1.35-1.898-2.152
							c-0.295-0.632-0.485-1.307-0.57-2.025l-0.064-0.443c-0.042-1.855,0.611-3.438,1.961-4.745
							c-0.506,0.844-0.718,1.835-0.633,2.974c0.085,1.602,0.717,2.931,1.898,3.986C104.277,62.444,104.931,62.844,105.774,63.225z"
							/>
						<path fill="#FFFFFF" d="M111.279,53.165c0.844,0.253,1.625,0.675,2.34,1.266c1.561,1.18,2.404,2.72,2.531,4.618v0.696
							c-0.085,0.717-0.19,1.266-0.316,1.646l0.19-0.949c-0.168-1.138-0.801-1.687-1.898-1.645l-0.696,0.064l0.127-1.393
							c-0.043-1.56-0.676-2.889-1.898-3.985L111.279,53.165z"/>
						<path fill="#FFFFFF" d="M114.125,58.796c1.097-0.042,1.729,0.506,1.898,1.645l-0.19,0.949l-0.443,0.885l-0.064,0.064
							l-0.064,0.19l-0.064,0.064l-0.822,0.633l-1.266,0.633c-0.97-0.338-1.519-0.908-1.646-1.709l0.57-0.569
							c0.759-0.802,1.223-1.709,1.392-2.721L114.125,58.796z"/>
						<path fill="#373535" d="M122.921,56.455l0.252,0.569c-0.21-0.337-0.464-0.632-0.758-0.885L122.921,56.455z"/>
						<polygon fill="#FFFFFF" points="121.022,55.252 120.517,54.936 120.896,54.81 						"/>
						<path fill="#FFFFFF" d="M107.23,66.135h1.455c2.151-0.127,3.965-0.864,5.441-2.214c0.337-0.338,0.717-0.802,1.138-1.393
							l0.064-0.19l0.064-0.064l0.443-0.885c0.127-0.379,0.231-0.928,0.316-1.646c0.843,1.14,1.287,2.236,1.328,3.289
							c0,0.253-0.696,2.34-2.087,6.264c-0.717,0.422-1.519,0.801-2.404,1.138C112.861,69.13,110.941,67.696,107.23,66.135z"/>
						<path fill="#FFFFFF" d="M112.861,64.237l2.34-1.646l0.064-0.064c-0.422,0.591-0.802,1.055-1.138,1.393
							c-1.476,1.349-3.29,2.087-5.441,2.214h-0.632C109.36,65.967,110.962,65.333,112.861,64.237z"/>
						<path fill="#FFFFFF" d="M105.205,65.629l2.025,0.506c3.711,1.561,5.63,2.995,5.757,4.302V70.5
							c0.042,1.055-0.822,2.151-2.594,3.289c-1.729,1.055-3.332,1.603-4.809,1.645c-3.838,0.168-7.086-1.666-9.743-5.505
							c-1.772-2.531-2.784-4.66-3.037-6.389c0.295-0.507,0.907-0.802,1.834-0.886h0.253l3.859,0.506
							c1.393,0.338,2.868,0.802,4.429,1.393l0.696,0.442l1.14,0.57L105.205,65.629z"/>
						<path fill="#FFFFFF" d="M103.18,64.554c-1.135-0.43-2.222-0.789-3.259-1.076c0.287-0.222,0.719-0.623,1.298-1.202
							c0.42,0.802,1.054,1.519,1.898,2.152L103.18,64.554z"/>
						<path fill="#FFFFFF" d="M106.977,49.938l1.392-0.064c0.632,0,1.096,0.021,1.392,0.064c0.59,0.042,1.243,0.169,1.961,0.379
							l0.19,0.064h0.127l0.317,0.127c1.264,0.38,2.594,0.991,3.985,1.834l0.253,0.127l5.378,3.354l0.443,0.317
							c0.295,0.253,0.549,0.549,0.758,0.885c0.971,1.941,1.52,3.796,1.646,5.567c0.084,2.404-0.085,3.923-0.506,4.555
							c-1.097,1.603-3.965,3.122-8.605,4.556c-0.211-0.379-0.358-1.076-0.443-2.088l0.127-0.316
							c1.392-3.924,2.087-6.011,2.087-6.264c-0.042-1.055-0.485-2.151-1.328-3.289V59.05c-0.127-1.898-0.97-3.439-2.531-4.618
							c-0.717-0.591-1.497-1.012-2.34-1.266c-1.138-0.337-2.214-0.485-3.226-0.443c-1.138,0.085-2.13,0.295-2.974,0.633l-0.443,0.19
							c-0.422,0.168-0.885,0.464-1.393,0.886l-0.696,0.63c-1.35,1.308-2.004,2.89-1.961,4.745l0.064,0.443
							c0.085,0.717,0.274,1.393,0.57,2.025c-0.591,0.591-1.034,0.991-1.329,1.202l-1.14-0.317l-3.859-0.506h-0.253l-0.379-1.519
							l0.19-0.949l0.506-0.949l0.57-0.379c0.464-0.338,0.907-0.759,1.328-1.266l0.57-0.822l0.19-0.38l0.064-0.064
							c1.054-1.012,2.109-1.919,3.162-2.721c2.11-1.729,4.05-2.931,5.822-3.607L106.977,49.938z"/>
						<path fill="#FFFFFF" d="M89.515,51.457l0.064,0.127c-0.253,1.011-0.422,2.13-0.506,3.353l-0.38,4.618
							c-0.294,3.67-0.737,6.896-1.328,9.681l-0.127,0.758c0.085,0.886,0.653,3.163,1.708,6.834l1.266,4.112
							c0.675,2.446,2.594,8.752,5.757,18.917l1.773,5.758l2.973,20.435c0.085,2.278,0.106,3.945,0.064,4.998
							c-0.042,3.163-0.443,6.201-1.202,9.112c-0.802,2.994-1.94,5.208-3.416,6.642l-2.214,1.328l-0.759,0.317l-0.696-0.379
							c1.603-0.843,2.868-2.593,3.796-5.251c0.971-2.699,1.413-4.914,1.329-6.642c-0.423-11.894-1.076-21.132-1.962-27.711
							c-0.422-2.911-2.067-8.226-4.935-15.944l-3.036-8.226c0.337-0.717,0.485-1.581,0.443-2.594
							c-0.464-2.278-1.076-3.965-1.835-5.061v-1.646c-1.264-4.302-1.94-7.065-2.025-8.287l3.734-16.832
							C88.587,50.127,89.093,50.655,89.515,51.457z"/>
						<path fill="#FFFFFF" d="M87.048,49.686l0.949,0.189l-3.733,16.83c0.085,1.222,0.759,3.985,2.025,8.287v1.646
							c0.759,1.096,1.371,2.783,1.835,5.061c0.042,1.012-0.106,1.877-0.443,2.594l3.036,8.226
							c2.868,7.719,4.514,13.034,4.935,15.944c0.885,6.579,1.54,15.817,1.962,27.711c0.084,1.729-0.359,3.944-1.329,6.642
							c-0.927,2.658-2.192,4.408-3.796,5.251l-1.519-1.011l-0.127-0.064v-0.064c0-0.295,0.738-1.898,2.214-4.809
							c1.561-2.868,2.362-5.04,2.404-6.516c-0.422-2.193-0.549-4.091-0.379-5.693c0.211-1.772,0.759-3.059,1.645-3.86
							c-2.025-4.723-4.491-12.759-7.403-24.106l-6.01-25.307h-0.064l-0.949-4.303v-0.064c-0.168-3.08,0.021-6.959,0.57-11.641
							C83.63,53.418,85.023,49.77,87.048,49.686z"/>
						<path fill="#FFFFFF" d="M130.829,88.089l-2.784,2.34C128.888,89.08,129.816,88.3,130.829,88.089z"/>
						<polygon fill="#373535" points="130.765,87.772 131.082,88.025 130.829,88.089 						"/>
						<path fill="#FFFFFF" d="M87.237,69.994l0.127-0.758c0.211,1.645,1.097,4.07,2.657,7.276l1.518,2.909l0.064,0.19l0.317,0.633
							c-0.633,0.338-1.138,0.802-1.519,1.393l-0.317-1.203l-0.19-0.506L87.237,69.994z"/>
						<path fill="#FFFFFF" d="M91.919,80.244l1.518,3.29c0.886,1.855,1.856,3.374,2.911,4.555l0.19,0.253l0.506,0.443
							c2.615,2.235,4.324,4.787,5.125,7.656c0.294,1.138,0.485,2.319,0.57,3.543c0.085,1.94,0.57,3.985,1.455,6.137l0.253,1.201
							l0.317,0.064l2.214,3.859l1.076,1.456c-0.127,0.422-0.4,1.096-0.822,2.025c-0.886,1.646-1.855,2.489-2.911,2.531
							c-1.898,0.085-3.732-2.13-5.505-6.642l-1.012-4.43l-0.064-0.57l-0.191-0.633c-1.14-4.64-2.425-9.132-3.86-13.476l-3.289-9.869
							C90.78,81.045,91.286,80.581,91.919,80.244z"/>
						<path fill="#FFFFFF" d="M90.401,81.636l3.289,9.869c1.434,4.344,2.721,8.836,3.86,13.476l-1.582-5.125
							C93.068,90.542,91.213,84.468,90.401,81.636z"/>
						<path fill="#FFFFFF" d="M88.945,76.828c-1.055-3.671-1.624-5.948-1.708-6.834l2.657,9.933L88.945,76.828z"/>
						<path fill="#FFFFFF" d="M93.437,83.534l-1.834-3.924l4.745,8.479C95.293,86.907,94.323,85.389,93.437,83.534z"/>
						<path fill="#FFFFFF" d="M104.256,100.427c-0.212,0.211-0.633,0.422-1.266,0.633l-0.253-1.076
							c-0.085-1.223-0.274-2.404-0.57-3.543c0.168-2.447,0.211-4.662,0.126-6.643h0.443c1.138,1.519,1.771,3.67,1.898,6.454
							C104.72,97.262,104.593,98.655,104.256,100.427z"/>
						<path fill="#FFFFFF" d="M97.866,106.436l0.949,4.176c0.759,4.259,1.287,7.929,1.582,11.009l0.317,3.544v0.885L97.866,106.436z
							"/>
						<path fill="#FFFFFF" d="M102.737,99.983l1.519,6.327l-0.064-0.189C103.307,103.968,102.822,101.923,102.737,99.983z"/>
						<polygon fill="#FFFFFF" points="104.192,106.121 104.256,106.31 105.079,107.954 104.762,107.386 104.446,107.322 						"/>
						<path fill="#FFFFFF" d="M103.434,121.305c-0.549,0.295-1.223,0.485-2.025,0.569l-0.949-0.064l-0.064-0.19
							c-0.294-3.079-0.822-6.748-1.582-11.009c1.772,4.514,3.607,6.728,5.505,6.642c1.055-0.042,2.025-0.885,2.911-2.531
							c0.422-0.928,0.696-1.602,0.822-2.025l0.569,0.697c0.633,0.716,1.329,1.434,2.088,2.151c-0.507-0.085-0.885-0.106-1.14-0.064
							c-2.193,0.085-3.606,1.16-4.238,3.226C104.868,119.933,104.235,120.799,103.434,121.305z"/>
						<path fill="#FFFFFF" d="M100.46,121.81l0.949,3.797c-0.253-0.253-0.485-0.401-0.696-0.443l-0.317-3.544L100.46,121.81z"/>
						<path fill="#FFFFFF" d="M102.801,128.327l0.19,0.632c0.211,4.345-0.085,7.719-0.885,10.123l-0.633,1.707l1.898-1.011
							l0.317-0.126c0.212,0.084,0.338,0.443,0.38,1.075c-0.675,3.923-1.497,7.213-2.468,9.869h0.064l-5.378,11.959
							c-0.885-0.253-1.729-1.52-2.531-3.797l-0.822-2.277v-0.444c0.085-0.388,0.169-0.748,0.253-1.075l-0.064-0.443
							c-0.084-1.393,0.696-3.754,2.34-7.086l0.697-0.633c1.476-1.434,2.615-3.648,3.416-6.642c0.759-2.91,1.161-5.948,1.202-9.112
							c0.042-1.053,0.021-2.72-0.064-4.998v-0.885c0.212,0.042,0.443,0.19,0.696,0.443l-0.949-3.797l0.949,0.064
							c0.802-0.084,1.476-0.273,2.025-0.569c1.602,1.602,4.429,4.745,8.478,9.427c5.99,6.959,9.025,10.608,9.111,10.945v0.949
							c-0.212-0.168-0.422-0.212-0.632-0.126c-0.97-0.464-2.066-1.118-3.289-1.962l-0.633-1.012
							c-0.97-1.603-1.708-2.551-2.214-2.847l-7.403-4.302C105.5,131.154,104.15,129.804,102.801,128.327z"/>
						<path fill="#FFFFFF" d="M108.621,113.397l-1.645-2.152l-2.721-4.935c0.97,1.646,1.898,2.701,2.783,3.163l0.317,1.203v0.064
							l1.075,2.34L108.621,113.397z"/>
						<polygon fill="#FFFFFF" points="107.356,110.676 107.04,109.473 107.293,109.6 107.293,110.169 						"/>
						<polygon fill="#FFFFFF" points="114.125,117.761 114.063,117.508 114.379,117.635 						"/>
						<path fill="#FFFFFF" d="M58.134,184.446l0.064-0.19l1.707,0.569l-0.633,3.1l-0.064,0.886c-0.042,0.294-0.042,0.57,0,0.823
							c0.085,1.137,0.232,2.172,0.443,3.099l-3.418,0.633l-0.316-1.518L55.6,190.9c0.168-0.929,0.168-2.025,0-3.29
							c-0.042-0.421,0.085-0.885,0.38-1.391l0.064,1.328l1.392,0.191l0.19-0.949C57.67,186.112,57.838,185.331,58.134,184.446z"/>
						<path fill="#FFFFFF" d="M114.252,136.679c0.506,0.295,1.244,1.244,2.214,2.847l0.633,1.012
							c-2.404-1.646-4.999-3.648-7.782-6.011l-2.468-2.15L114.252,136.679z"/>
						<path fill="#FFFFFF" d="M92.931,156.038l0.127-7.465c0.928-0.211,1.729-0.591,2.404-1.138
							c-1.645,3.332-2.425,5.693-2.34,7.086l0.064,0.443C93.1,155.291,93.015,155.651,92.931,156.038z"/>
						<path fill="#FFFFFF" d="M109.57,165.909c0.042,0.759-0.042,1.898-0.253,3.416c-0.338,1.729-0.865,3.564-1.582,5.504
							c-1.898,5.187-4.576,7.867-8.035,8.035c-1.476,0.085-2.721-0.863-3.733-2.847c-1.264-6.242-2.13-11.705-2.594-16.387
							l-0.317-3.605l-0.127-3.544l0.822,2.277c0.802,2.277,1.646,3.544,2.531,3.797l5.378-11.959
							C104.192,152.833,106.828,157.936,109.57,165.909z"/>
						<path fill="#FFFFFF" d="M93.374,163.631c-1.35,2.32-4.112,6.116-8.288,11.389c-0.844-1.223-1.287-2.783-1.329-4.682
							l-0.127-3.162l0.57-0.886c1.984-3.247,4.133-5.315,6.454-6.2l2.531,0.885L93.374,163.631z"/>
						<path fill="#FFFFFF" d="M85.086,175.02c4.175-5.273,6.938-9.068,8.288-11.389c0.464,4.682,1.328,10.145,2.594,16.387
							l1.582,7.403c2.573,11.347,3.923,18.474,4.049,21.384c0.506,10.166-0.211,16.196-2.151,18.094
							c-1.012,0.971-2.531,2.237-4.555,3.797l-1.962,1.455c-2.446,2.277-3.585,5.019-3.416,8.226l0.064,0.633h-0.506
							c-1.307,0.676-2.657,1.054-4.049,1.138c-0.717,0.041-1.497-0.042-2.34-0.253c-2.277-0.379-4.091-0.759-5.441-1.138
							l-0.253-0.443l-0.317,0.253c-2.192-0.676-3.374-1.097-3.543-1.266l-0.19,0.506c-1.729-0.421-2.932-0.969-3.607-1.645
							l-0.064-0.317l-0.127-0.126l-0.19-0.127h-0.064c-2.109-0.969-3.521-1.877-4.238-2.72c-1.012-1.181-1.539-2.911-1.581-5.188
							c-0.126-2.277,0.801-4.514,2.784-6.706c1.687-1.983,3.269-3.016,4.745-3.101l0.316-0.064c0.632-0.168,1.708-0.57,3.226-1.202
							l3.733-1.582c1.56-0.758,2.868-1.306,3.923-1.645c1.729-0.633,2.995-0.802,3.796-0.507l0.759-1.518l0.126,0.252v-0.317
							l-0.126,0.065c-0.801-2.151-1.308-4.745-1.519-7.783l-0.064-0.633c-0.042-1.434,0.211-2.868,0.759-4.302
							c0.549-1.391,0.822-2.298,0.822-2.72c-0.084-1.772-0.97-4.64-2.657-8.604c-1.687-3.924-2.595-7.571-2.721-10.946
							c-0.168-3.922,0.717-7.656,2.656-11.197l0.127,3.162C83.8,172.236,84.242,173.795,85.086,175.02z"/>
						<path fill="#FFFFFF" d="M123.553,200.516c-0.041-0.676,0.105-2.088,0.443-4.238c0.294-2.151,0.675-3.396,1.138-3.733
							c1.687,4.387,3.037,10.312,4.049,17.778l-0.064,2.847l-0.064,0.317l-0.191,5.884l0.127,1.519v0.191l0.064,0.126
							c0.253,2.025,0.822,3.902,1.707,5.63l1.14,2.658c0.379,1.097,0.59,2.067,0.632,2.91v0.379l-0.759,3.354
							c0,0.294,0.127,0.843,0.379,1.645v0.064l0.759,2.277v0.823c-0.168,1.602-1.055,2.931-2.657,3.985v-0.064l-0.127,0.127h-0.064
							l-0.064,0.064l-0.127-0.57c-0.591-0.885-1.076-2.046-1.455-3.479l-0.253-1.835c-3.67-9.616-5.567-15.753-5.694-18.41
							c-0.126-2.362,0.042-6.306,0.506-11.831L123.553,200.516z"/>
						<path fill="#FFFFFF" d="M56.235,193.43c-0.041-0.042-0.041-0.065,0-0.065l3.418-0.633c0.759,3.08,2.468,5.843,5.125,8.289
							c3.712,3.5,8.014,5.125,12.908,4.872c0.802-0.042,2.362,0,4.681,0.126l2.151-0.443h0.317c0.211,3.037,0.717,5.631,1.519,7.783
							l-0.759,1.518c-0.802-0.294-2.066-0.126-3.796,0.507l-0.253-0.633c-13.539,1.477-21.89-5.145-25.054-19.867L56.235,193.43z"/>
						<path fill="#FFFFFF" d="M92.171,240.565c-0.085,0.928-0.105,1.686-0.064,2.277l-2.468-1.519v-0.064l0.317-0.507l0.127-0.126
							c0.295-0.421,0.527-0.633,0.696-0.633C91.245,239.91,91.707,240.101,92.171,240.565z"/>
						<path fill="#FFFFFF" d="M99.827,246.954l0.064,1.329l0.57,1.961c-1.392-0.126-2.763-0.57-4.112-1.328
							c-0.085-0.295-0.168-0.886-0.253-1.773c-0.084-0.464-0.084-0.863,0-1.201c0.212-1.097,0.697-1.667,1.456-1.709
							c0.971-0.084,1.645,0.485,2.025,1.709L99.827,246.954z"/>
						<path fill="#FFFFFF" d="M103.75,242.082l-0.127,1.33l0.253,1.833c0.042,0.38,0.168,0.802,0.38,1.264
							c0.211,0.507,0.422,0.886,0.633,1.14c-1.983,1.729-3.101,2.594-3.354,2.594c-0.38,0.085-0.738,0.085-1.076,0l-0.19-0.506
							l-0.38-1.455l-0.064-1.329l-0.253-1.011c0.042-0.592,0.274-1.33,0.697-2.216c0.632-1.561,1.391-2.551,2.277-2.974
							C103.096,241.218,103.497,241.661,103.75,242.082z"/>
						<path fill="#FFFFFF" d="M104.256,246.511c-0.212-0.464-0.338-0.884-0.38-1.264l2.405-0.569
							c-0.253,0.42-0.358,0.97-0.316,1.645L104.256,246.511z"/>
						<path fill="#FFFFFF" d="M117.795,236.641c0.718,1.224,1.202,3.227,1.456,6.011v0.064l-0.064,0.444
							c-0.042,0.211-0.042,0.4,0,0.569c0,0.464-0.085,0.781-0.253,0.949l-1.076-2.025L117.795,236.641z"/>
						<path fill="#FFFFFF" d="M112.291,240.754c0.379-3.627,1.391-5.484,3.036-5.567c0.97-0.085,1.792,0.4,2.468,1.454l0.064,6.011
							l1.582,3.163v0.064l0.127,1.076c-1.349,1.983-3.522,3.121-6.517,3.418c-0.211-0.253-0.337-0.528-0.379-0.823l-0.38-2.849
							C112.165,244.214,112.165,242.231,112.291,240.754z"/>
						<path fill="#FFFFFF" d="M107.419,244.107c1.645-0.041,2.551,2.025,2.72,6.2h-0.126c-1.224-0.211-2.278-0.527-3.163-0.949
							l-0.633-2.024c-0.168-0.379-0.252-0.717-0.252-1.012c-0.042-0.675,0.062-1.223,0.316-1.645
							C106.533,244.297,106.913,244.107,107.419,244.107z"/>
						<polygon fill="#FFFFFF" points="119.568,246.954 119.441,245.879 119.441,245.816 119.757,246.511 						"/>
						<path fill="#FFFFFF" d="M203.46,245.627l-0.252,0.126l0.569,1.075L203.46,245.627z M196.689,195.961
							c0.127,1.434,0.485,4.302,1.077,8.604c-0.042,6.2,0,12.148,0.126,17.842l-0.443,3.29c-0.295,1.434-0.696,2.847-1.203,4.238
							l0.886,0.191l1.076,2.214c1.772,0.506,3.564,2.277,5.378,5.314c1.813,2.995,2.783,5.631,2.909,7.909
							c0.085,1.646-0.42,2.995-1.518,4.049l-0.76-0.886c0,0.55-0.064,1.077-0.19,1.582l-0.57,0.38l-2.025,0.821h-0.126l-0.064,0.064
							l-0.19,0.065h-0.065v-0.191l0.126-0.378l-0.442-2.278c-0.844-3.162-2.109-5.335-3.797-6.516
							c1.055,0.042,2.11,0.317,3.163,0.823l-1.961-2.658c-4.64-6.622-7.001-10.418-7.086-11.389
							c-0.421-8.983,0.295-14.993,2.151-18.03c1.307-2.193,2.109-5.293,2.405-9.299c0.337-4.092,0.843-6.623,1.519-7.592
							C197.071,194.462,196.944,195.075,196.689,195.961z"/>
						<path fill="#FFFFFF" d="M196.247,229.935c0.507-1.391,0.907-2.804,1.203-4.238l0.443-3.29l0.191,7.276l-0.949,0.444
							L196.247,229.935z"/>
						<path fill="#FFFFFF" d="M187.073,246.385c-0.042,0.125-0.022,0.337,0.064,0.632l-0.19-0.317l0.379,1.012
							c0.211,1.223,0.274,2.678,0.19,4.365l0.065,1.834l-0.886,0.949l-3.796,1.581l-0.379,0.064h-0.57l-0.506-5.44h-0.443
							c-0.127-5.02,0.801-7.571,2.783-7.656C185.43,243.328,186.526,244.318,187.073,246.385z"/>
						<path fill="#FFFFFF" d="M187.137,247.018l0.191,0.57c0.337,1.391,0.57,3.121,0.696,5.187v0.064
							c-0.085,0.085-0.085,0.191,0,0.317l-0.443,0.759l-0.065-1.834c0.085-1.687,0.022-3.142-0.19-4.365l-0.379-1.012
							L187.137,247.018z"/>
						<path fill="#FFFFFF" d="M194.982,242.209c0.421-0.042,1.055-0.022,1.898,0.064c1.688,1.181,2.953,3.354,3.797,6.516
							l0.442,2.278l-0.126,0.378v0.191c-0.294,0.633-0.611,1.181-0.949,1.646c-1.266-0.169-2.804-1.456-4.618-3.86
							c-1.772-2.405-2.657-3.923-2.657-4.556C192.725,243.137,193.464,242.251,194.982,242.209z"/>
						<polygon fill="#FFFFFF" points="203.208,245.753 203.46,245.627 203.777,246.827 						"/>
						<path fill="#FFFFFF" d="M168.6,192.986l-0.633-0.949l0.317-0.064c1.602-0.043,2.424,0.717,2.467,2.277
							c0.042,0.843-0.42,2.193-1.392,4.049l0.507-1.961C169.823,195.075,169.402,193.956,168.6,192.986z"/>
						<path fill="#FFFFFF" d="M167.967,192.038l0.633,0.949c0.802,0.97,1.222,2.088,1.264,3.354l-0.507,1.961h-0.064v0.064
							c-0.802,1.476-1.94,3.185-3.416,5.125c-2.573,3.502-4.85,6.157-6.833,7.972c0.97-3.754,1.962-7.276,2.974-10.567
							C163.749,195.285,165.731,192.333,167.967,192.038z"/>
						<path fill="#FFFFFF" d="M133.928,216.774l0.949-0.378c0.844-0.042,1.983,0.443,3.418,1.455
							c1.307,0.928,1.983,1.666,2.024,2.214c-0.041,0.041-0.041,0.085,0,0.126c-0.041,0.464-0.527,1.308-1.454,2.531
							c0.42,0.421,1.16,0.612,2.214,0.57l0.569-0.064h0.065l0.064,0.443l0.505,2.025c-0.548,0.21-1.075,0.358-1.581,0.443
							c-2.615-0.295-4.64-0.907-6.073-1.835l-1.203-1.011c-0.716-0.844-1.096-1.772-1.138-2.784c-0.042-0.041-0.042-0.085,0-0.126
							l-0.064-0.379C132.305,218.611,132.875,217.535,133.928,216.774z"/>
						<path fill="#FFFFFF" d="M141.775,223.672l-0.064-0.443c0.758-0.127,1.306-0.401,1.645-0.823
							c0.337-0.506,0.485-1.054,0.443-1.645c-0.042-0.886-0.696-1.308-1.961-1.266l-0.823,0.317
							c0.253-0.885,0.802-1.876,1.646-2.974c1.603-2.151,3.48-3.247,5.63-3.289c0.591-0.042,1.161,0,1.708,0.127
							c0.675,0.168,1.181,0.569,1.52,1.201c0.21,0.464,0.337,0.971,0.378,1.52c0.042,1.138-0.421,2.489-1.392,4.049
							c-1.264,1.94-3.057,3.101-5.378,3.48l0.191-0.126l0.191-0.191l-0.444,0.317l-1.202,0.126
							C142.977,224.137,142.279,224.009,141.775,223.672z"/>
						<path fill="#FFFFFF" d="M149.998,224.936c0.085-3.247,1.792-4.934,5.125-5.061c0.211-0.041,0.401-0.041,0.57,0l2.151,4.808
							h0.064l2.404,6.517l0.065,0.126c0.506,1.772,0.779,2.994,0.822,3.67c0.084,1.519-0.274,2.89-1.076,4.113
							c-0.843,1.18-2.066,2.172-3.67,2.973l-1.203,0.949h-0.064c0.085-0.633,0.106-1.37,0.064-2.214
							c-0.885-0.506-1.539-0.759-1.961-0.759c-0.253,0-0.549,0.085-0.886,0.253h-0.252l-1.329-1.645l-0.064-0.253v-0.127l0.253-0.19
							c0.211-0.338,0.317-0.592,0.317-0.76l-0.064-0.506l-0.253-0.317v-0.064l0.317-2.468l-1.392,0.253
							c-0.759,0-1.413-0.106-1.962-0.317c-0.802-0.379-1.307-1.012-1.518-1.898l0.317-0.065l0.758-0.252
							c1.223-0.464,1.834-1.561,1.834-3.289l-0.252-0.064h-0.507l-1.138-0.126L149.998,224.936z"/>
						<path fill="#FFFFFF" d="M145.317,223.799l-0.633,0.442l-0.064,0.064l-0.127,0.064c-0.675,0.464-1.391,0.886-2.15,1.266
							l-0.065,0.065l-0.505-2.025c0.505,0.337,1.202,0.464,2.087,0.379l1.202-0.126l0.444-0.317L145.317,223.799z"/>
						<path fill="#FFFFFF" d="M148.987,228.354h0.126l0.252,0.064c0,1.729-0.611,2.827-1.834,3.289l-0.758,0.252l-0.317,0.065
							c-0.127-0.085-0.233-0.085-0.317,0c-0.592,0.211-1.035,0.19-1.33-0.065c-0.336-0.337-0.505-0.863-0.505-1.581
							c-0.042-0.168,0.064-0.485,0.316-0.949l0.253-0.442l0.19-0.191c0.549-0.294,1.203-0.485,1.961-0.569L148.987,228.354z"/>
						<path fill="#FFFFFF" d="M147.973,233.921l-1.581,0.252l-0.379-0.064l-1.392-0.062l0.19-2.09
							c0.295,0.253,0.738,0.275,1.33,0.065c0.084-0.085,0.19-0.085,0.317,0C146.667,232.909,147.173,233.541,147.973,233.921z"/>
						<path fill="#FFFFFF" d="M144.62,229.429c-0.252,0.464-0.358,0.781-0.316,0.949c0,0.718,0.168,1.244,0.505,1.581l-0.19,2.089
							c-0.802-0.043-1.496-0.043-2.088,0c-1.813-0.464-3.205-1.012-4.175-1.646c-1.012-0.676-1.751-1.392-2.214-2.151
							c-0.211-0.464-0.443-1.16-0.696-2.088c-0.295-0.885-0.57-2.172-0.822-3.86c1.434,0.929,3.459,1.54,6.073,1.835
							c0.507-0.085,1.035-0.233,1.581-0.443l0.065,0.064c1.181,0.549,2.067,1.519,2.657,2.91l-0.126,0.317L144.62,229.429z"/>
						<path fill="#FFFFFF" d="M141.711,223.229h-0.065l-0.569,0.064c-1.055,0.042-1.793-0.148-2.214-0.57
							c0.927-1.222,1.413-2.066,1.454-2.531l0.696-0.379l0.823-0.317c1.265-0.042,1.919,0.379,1.961,1.266
							c0.042,0.591-0.106,1.138-0.443,1.645C143.018,222.828,142.47,223.102,141.711,223.229z"/>
						<path fill="#FFFFFF" d="M133.422,223.293l1.203,1.011c0.252,1.688,0.527,2.975,0.822,3.86
							c0.253,0.929,0.485,1.625,0.696,2.088c0.464,0.759,1.202,1.476,2.214,2.151c0.97,0.633,2.362,1.181,4.175,1.646
							c0.592-0.043,1.287-0.043,2.088,0l1.392,0.063l0.379,0.064l0.822-0.125c0.421,0.549,1.055,1.16,1.899,1.834
							c-2.025,1.476-3.016,2.468-2.974,2.973c0.041,1.055,0.506,1.456,1.391,1.203h0.064c0.464-0.085,0.929-0.253,1.393-0.507h0.064
							l0.253,0.886c-0.043,0.379-0.043,1.035,0,1.961h-0.065l-0.317,0.127h-0.064v0.064c-0.802,0.253-1.307,0.4-1.52,0.443
							l-0.758,0.127c-1.392,0.041-3.142-0.507-5.252-1.646c-1.266-0.717-2.257-1.54-2.974-2.468
							c-2.489,0.928-4.345,0.443-5.567-1.455l-0.632,0.191c-0.253-0.802-0.379-1.349-0.379-1.645l0.759-3.354v-0.379
							c-0.042-0.843-0.253-1.813-0.632-2.91l-0.57-1.455v-0.949l0.064-0.253c0.127-1.011,0.485-1.855,1.076-2.531L133.422,223.293z"
							/>
						<path fill="#FFFFFF" d="M151.012,236.451c-0.379-0.379-1.012-0.569-1.898-0.569c-0.844-0.676-1.477-1.287-1.899-1.834
							l0.759-0.127c0.55,0.211,1.203,0.317,1.962,0.317l1.392-0.253L151.012,236.451z"/>
						<path fill="#FFFFFF" d="M146.14,238.855c-0.042-0.505,0.949-1.496,2.974-2.973c0.885,0,1.519,0.19,1.898,0.569v0.064
							l0.253,0.317l0.064,0.506c0,0.168-0.106,0.421-0.317,0.76l-0.253,0.19l-0.126,0.127l-1.581,1.137h-0.064
							c-0.464,0.253-0.929,0.421-1.393,0.507h-0.064C146.645,240.312,146.181,239.91,146.14,238.855z"/>
						<path fill="#FFFFFF" d="M149.05,239.551l1.581-1.137l1.519,1.898l-0.379,0.317c-0.759,0.717-1.582,1.307-2.467,1.771
							c-0.043-0.927-0.043-1.581,0-1.961L149.05,239.551z"/>
						<path fill="#FFFFFF" d="M152.339,240.375l0.064-0.064c0.338-0.168,0.633-0.253,0.886-0.253c0.421,0,1.076,0.253,1.961,0.759
							c0.042,0.844,0.022,1.581-0.064,2.214c-1.391,0.885-2.762,1.349-4.112,1.392c-0.591,0.085-1.455-0.168-2.594-0.759
							l-0.064-0.064h-0.064l-1.014-0.57c0.212-0.042,0.718-0.19,1.52-0.443v-0.064h0.064l0.317-0.127h0.065
							c0.884-0.464,1.707-1.054,2.467-1.771l0.506-0.253h0.061V240.375z"/>
						<path fill="#FFFFFF" d="M164.234,222.533c1.181-0.085,2.152,0,2.91,0.252l0.379,3.48c0.085,2.151-0.148,4.071-0.696,5.758
							v0.064l-0.569-0.191c-2.657,0.211-4.43-0.106-5.315-0.949l-0.633,0.253c-0.633-1.899-1.18-3.438-1.645-4.62l-0.506-1.201
							C159.003,223.609,161.029,222.66,164.234,222.533z"/>
						<path fill="#FFFFFF" d="M166.828,232.086v-0.064c0.549-1.687,0.781-3.606,0.696-5.758l-0.379-3.48
							c2.193,0.591,3.375,2.11,3.544,4.556c0.084,1.434-0.464,2.699-1.646,3.797c-0.675,0.632-1.455,1.096-2.34,1.391
							L166.828,232.086z"/>
						<path fill="#FFFFFF" d="M167.587,247.651c0.085,1.222,0.464,2.804,1.14,4.745c-1.266-0.085-2.236-0.253-2.91-0.507
							c0.084-0.084,0.126-0.273,0.126-0.569c-0.464-0.844-0.696-1.519-0.696-2.025c-0.042-0.843,0.168-1.328,0.633-1.454
							L167.587,247.651z"/>
						<path fill="#FFFFFF" d="M178.912,251.193l2.531-0.126l0.506,5.44v0.064l-2.468-0.064l-1.328-2.721
							C178.111,252.776,178.364,251.91,178.912,251.193z"/>
						<polygon fill="#FFFFFF" points="204.219,248.725 204.98,249.611 204.536,249.928 204.472,249.991 						"/>
						<path fill="#FFFFFF" d="M203.46,250.688l0.57-0.38c0.126-0.506,0.19-1.034,0.19-1.582l0.253,1.266
							C204.052,250.329,203.713,250.561,203.46,250.688z"/>
						<path fill="#FFFFFF" d="M194.033,256.255c-0.464-1.264-0.695-2.024-0.695-2.276c-0.127-1.857,0.294-2.827,1.264-2.91
							c1.096-0.042,1.983,1.413,2.657,4.365c-0.886,0.464-1.855,0.737-2.91,0.821H194.033L194.033,256.255z"/>
						
							<path fill="none" stroke="#FFFFFF" stroke-width="1.5886" stroke-linecap="round" stroke-linejoin="round" stroke-miterlimit="3" d="
							M111.279,53.165l0.38,0.317c1.223,1.096,1.855,2.425,1.898,3.985l-0.127,1.393c-0.168,1.011-0.633,1.919-1.392,2.721
							l-0.57,0.569c-1.012,0.844-2.172,1.287-3.48,1.329c-0.675,0.042-1.413-0.042-2.214-0.253c-0.843-0.38-1.496-0.781-1.961-1.202
							c-1.181-1.055-1.813-2.384-1.898-3.986c-0.085-1.138,0.127-2.13,0.633-2.974"/>
						
							<path fill="none" stroke="#FFFFFF" stroke-width="1.5886" stroke-linecap="round" stroke-linejoin="round" stroke-miterlimit="3" d="
							M133.422,99.73c0.549,0.295,1.54,1.034,2.975,2.214c1.771,1.477,2.867,2.51,3.288,3.101c0.507,0.549,0.781,1.034,0.823,1.455
							c0,0.55-0.064,1.035-0.191,1.456l-0.19,0.443"/>
						
							<path fill="none" stroke="#FFFFFF" stroke-width="1.5886" stroke-linecap="round" stroke-linejoin="round" stroke-miterlimit="3" d="
							M127.348,91.695c-0.337,0.885-0.485,1.625-0.443,2.216c0.085,1.898,1.602,3.564,4.555,4.998h0.064l0.064,0.064l0.506,0.19"/>
						
							<path fill="none" stroke="#FFFFFF" stroke-width="1.5886" stroke-linecap="round" stroke-linejoin="round" stroke-miterlimit="3" d="
							M141.522,107.512c-0.126-0.253-0.191-0.57-0.191-0.949c-0.042-0.675,0.065-1.287,0.317-1.834
							c0.253-0.591,0.653-1.034,1.202-1.328c2.109-1.35,3.501-2.32,4.175-2.911c1.52-1.14,2.784-2.214,3.797-3.227l0.886-0.885
							c1.434-1.687,2.109-3.143,2.025-4.366l-0.191-1.012"/>
						
							<path fill="none" stroke="#FFFFFF" stroke-width="1.5886" stroke-linecap="round" stroke-linejoin="round" stroke-miterlimit="3" d="
							M151.453,53.292c-0.252,0.717-0.359,1.456-0.317,2.214c0.085,1.561,0.696,2.889,1.834,3.986l0.57,0.442
							c1.054,0.802,2.236,1.161,3.543,1.076c1.224-0.042,2.342-0.507,3.354-1.392l1.076-1.203l0.822-2.214l0.126-0.823v-0.443
							c-0.041-1.56-0.652-2.889-1.834-3.985"/>
						
							<path fill="none" stroke="#373535" stroke-width="1.5886" stroke-linecap="round" stroke-linejoin="round" stroke-miterlimit="3" d="
							M177.709,39.817c-0.211-1.688-0.696-3.206-1.454-4.556c-0.718-1.096-1.308-1.792-1.773-2.087
							c0.295,0.675,0.444,1.034,0.444,1.076c-0.38,0-0.611-0.19-0.697-0.57v-0.633l0.127,0.064h0.064l0.064,0.064V33.11
							l-0.064-0.064v-0.064c-0.758-1.18-1.961-2.594-3.605-4.238c0,0.421-0.191,0.654-0.57,0.696
							c-0.295-1.012-1.181-2.277-2.658-3.797l-2.72-2.909l0.064,1.264c-0.294-0.549-2.066-2.193-5.315-4.935v0.127l-0.379-0.379
							l-0.949-0.823l0.57-0.064l-5.315-4.302l0.126,0.759c-8.226-4.978-15.753-7.761-22.587-8.352l-13.855,0.633 M158.92,17.925
							h-0.064l0.064,0.064V17.925z M159.615,19.064l-0.379-0.253c-0.21-0.337-0.316-0.612-0.316-0.823l0.632,0.57L159.615,19.064z
							 M178.975,39.12l0.127,3.163c3.163,2.91,6.833,7.698,11.01,14.363c5.399,8.688,8.246,15.859,8.54,21.511
							c0.211,4.682-0.696,10.06-2.72,16.132c-1.477,4.556-2.216,8.541-2.216,11.959c-0.041,0.801,0,1.666,0.126,2.593
							c0.845,7.845,0.908,14.763,0.191,20.752l-0.064,0.632c-0.168,1.392-0.485,2.636-0.949,3.733l-0.127,0.317l-0.443,0.822
							c-0.843,1.476-2.004,2.572-3.48,3.289c-1.349,0.591-2.868,0.864-4.555,0.822l-0.507-0.064
							c-5.23-0.294-8.879-3.101-10.945-8.414c-0.633-1.477-1.223-3.185-1.771-5.125c-0.464-1.602-0.908-3.395-1.329-5.378
							c-0.295-1.307-0.55-2.678-0.76-4.112l-0.189-1.52l-0.065-0.253v-0.253l-0.19-1.328l0.378-0.506 M145.001,55.696
							c2.91-4.723,6.833-7.191,11.767-7.403l0.253-0.064h0.126c3.754-0.127,6.539,0.633,8.353,2.277l1.961,2.278
							c0.718,0.971,1.54,1.687,2.468,2.151 M160.628,50.95l-0.158-0.095l0.095,0.095H160.628c0.591,0.295,1.076,0.633,1.455,1.012
							l0.191,0.127l0.443,0.442 M164.36,55.696l0.127,0.886l-0.065,1.264l-0.252,1.14c-0.294,0.843-0.844,1.645-1.646,2.404
							c-1.348,1.434-3.016,2.172-4.998,2.214l-0.38,0.064c-0.969-0.085-1.792-0.232-2.467-0.443
							c-0.928-0.253-1.729-0.697-2.405-1.328c-1.519-1.224-2.319-2.763-2.405-4.62v-0.885c0.042-1.14,0.464-2.193,1.266-3.163
							l0.127-0.126l0.506-0.57V52.47l0.064-0.064c0.294-0.295,0.781-0.653,1.455-1.075l1.138-0.57
							c0.844-0.295,1.729-0.485,2.657-0.57c0.971-0.042,1.919,0.064,2.847,0.317l0.317,0.127l0.221,0.221l-0.538-0.348
							 M150.315,64.932c0.843,0.507,1.792,0.971,2.847,1.393l0.19,0.064l0.823,0.317c1.56,0.464,3.162,0.653,4.808,0.569
							c1.645-0.042,3.542-0.991,5.693-2.847l1.646-1.519 M165.816,81.636c0.802,0.928,1.496,2.109,2.087,3.543l5.126-7.402
							l1.391-2.721c0.549-1.096,1.287-2.783,2.214-5.061c0.338-0.884,0.57-1.876,0.696-2.973c0.042-1.308-0.021-2.847-0.19-4.62
							c-0.253-1.602-0.485-2.847-0.697-3.732v-0.064l-3.415-10.819 M143.419,109.03l8.983,4.999h0.065l4.113,1.582
							c1.434,0.464,2.656,0.653,3.669,0.569c2.827-0.168,5.146-1.602,6.959-4.302l1.266-2.34c0.253-0.506,0.612-1.476,1.076-2.91
							c0.379-1.307,0.633-2.636,0.759-3.985c0.211-1.223,0.274-2.468,0.191-3.732c-0.338-5.526-1.118-9.869-2.342-13.034
							l-0.253-0.697 M165.499,127.125l-1.645,1.391c-1.984,1.561-4.03,3.017-6.138,4.366c-2.277,1.434-4.893,3.88-7.845,7.339
							 M194.476,106.121l0.823,0.569c0.928,0.676,1.855,1.793,2.784,3.354c0.549,0.928,2.489,2.974,5.819,6.136
							c2.91,3.332,5.209,7.867,6.896,13.603c0.507,1.772,1.625,4.156,3.354,7.15c1.645,2.869,2.826,5.546,3.544,8.035
							c0.294,0.97,0.864,3.732,1.707,8.288c1.055,5.187,1.603,8.436,1.645,9.742c0.338,6.708,0.022,12.211-0.949,16.515
							c-1.348,5.819-4.091,11.282-8.226,16.386 M153.542,13.622c-0.126-0.337-0.317-0.485-0.57-0.443 M115.961,7.359
							c-4.429,2.32-7.739,3.544-9.934,3.67c0,0.422-0.19,0.654-0.57,0.696l1.835-0.127c-0.802,0.886-4.239,4.007-10.313,9.363
							c-0.633,1.096-2.087,2.847-4.365,5.252c-1.434,1.434-2.362,3.395-2.783,5.884 M121.022,55.252l-4.429-2.783l-0.253-0.127
							c-1.392-0.843-2.721-1.455-3.985-1.834l-0.317-0.127h-0.127l-0.19-0.064c-0.718-0.211-1.37-0.337-1.961-0.379
							c-0.295-0.042-0.759-0.064-1.392-0.064l-1.392,0.064l-0.317,0.064c-0.801,0.085-1.54,0.274-2.214,0.57h-0.064l-0.253,0.126
							l-0.379,0.127l-0.064,0.064c-0.59,0.211-1.244,0.57-1.961,1.076c-0.675,0.421-1.16,0.779-1.455,1.075
							c-0.844,0.633-1.708,1.729-2.595,3.29l-0.064,0.064l-0.19,0.38l-0.57,0.822c-0.422,0.506-0.864,0.928-1.328,1.266l-0.57,0.379
							l-0.506,0.949 M108.053,66.135h0.632c2.151-0.127,3.965-0.864,5.441-2.214c0.337-0.338,0.717-0.802,1.138-1.393l0.064-0.19
							l0.064-0.064l0.443-0.885c0.127-0.379,0.231-0.928,0.316-1.646v-0.696c-0.127-1.898-0.97-3.439-2.531-4.618
							c-0.717-0.591-1.497-1.012-2.34-1.266c-1.138-0.337-2.214-0.485-3.226-0.443c-1.138,0.085-2.13,0.295-2.974,0.633l-0.443,0.19
							c-0.422,0.168-0.885,0.464-1.393,0.886l-0.696,0.632c-1.35,1.308-2.004,2.89-1.961,4.745l0.064,0.443
							c0.085,0.717,0.274,1.393,0.57,2.025c0.42,0.802,1.054,1.519,1.898,2.152l0.064,0.127l0.696,0.442l1.14,0.57l0.19,0.064
							l1.708,0.443 M107.23,66.135h0.442 M123.173,57.024c-0.21-0.337-0.464-0.632-0.758-0.885l-0.443-0.317 M89.578,51.584
							c-0.253,1.011-0.422,2.13-0.506,3.353l-0.38,4.618c-0.294,3.67-0.737,6.896-1.328,9.681l-0.127,0.758
							c0.085,0.886,0.653,3.163,1.708,6.834l1.266,4.112l3.479,10.566c1.434,4.344,2.721,8.836,3.86,13.476l0.191,0.633l0.064,0.57
							l1.011,4.429c0.759,4.259,1.287,7.929,1.582,11.009l0.317,3.544 M89.199,32.73c-5.02,6.369-8.393,10.566-10.123,12.59
							c-2.11,2.362-3.774,7.319-4.999,14.868c-0.085,0.802-1.602,5.526-4.555,14.173c-2.826,9.531-4.091,17.103-3.796,22.712
							c0.295,6.875,2.742,13.392,7.339,19.549c1.054,1.434,3.206,3.565,6.453,6.391c2.278,2.319,3.839,4.829,4.682,7.528v0.065
							c0.168,0.59,0.148,1.264-0.064,2.024l0.506,7.909c1.012,5.652,3.374,8.393,7.086,8.225l1.202-0.126l0.127-0.064
							c0.928-0.211,1.729-0.591,2.404-1.138l0.697-0.633c1.476-1.434,2.615-3.648,3.416-6.642c0.759-2.91,1.161-5.948,1.202-9.112
							c0.042-1.053,0.021-2.72-0.064-4.998 M90.021,76.511l1.518,2.909l0.064,0.19l1.834,3.924c0.886,1.855,1.856,3.374,2.911,4.555
							l0.19,0.253l0.506,0.443c2.615,2.235,4.324,4.787,5.125,7.656c0.294,1.138,0.485,2.319,0.57,3.543
							c0.085,1.94,0.57,3.985,1.455,6.137l0.064,0.189l2.721,4.935l1.645,2.152c0.633,0.716,1.329,1.434,2.088,2.151
							c1.222,0.928,2.34,1.581,3.353,1.961l0.317,0.127c1.349,0.464,2.741,0.653,4.175,0.57l3.418-0.506l3.416-1.012l0.253-0.127
							h0.062l0.127-0.064l0.253-0.064c0.253-0.168,0.506-0.273,0.759-0.316l8.541-4.176l0.506-0.317l0.191-0.064l1.645-1.011
							l0.253-0.19l1.771-1.14l0.38-0.822 M127.348,91.695c0.211-0.464,0.443-0.885,0.696-1.264c0.844-1.349,1.771-2.13,2.784-2.34
							l8.793-1.961l4.43,0.064c1.519,0.168,2.762,0.399,3.732,0.695l0.759,0.253h0.191l1.454,0.57
							c1.815,0.802,2.932,1.898,3.354,3.29 M106.913,70.69c2.404,0.338,4.429,0.253,6.074-0.253
							c0.885-0.337,1.687-0.717,2.404-1.138c1.476-1.012,2.616-2.49,3.416-4.43 M125.64,116.559l0.127,0.064l0.127,0.127l5.44,3.67
							l0.064,0.064h0.191l10.313,1.328l1.898-0.19c1.603-0.337,3.037-0.97,4.302-1.898c1.729-1.349,3.163-3.248,4.302-5.694
							 M106.85,132.377l7.403,4.302c0.506,0.295,1.244,1.244,2.214,2.847l0.633,1.012c0.675,0.97,1.243,1.581,1.708,1.834
							 M128.109,184.32c-0.591,0.084-1.055,0.064-1.392-0.064c-0.464-0.212-0.801-0.507-1.014-0.886
							c-0.632-0.97-0.97-2.383-1.011-4.239c-1.055,1.181-1.751,2.046-2.088,2.595c-0.127-2.151-0.422-4.409-0.885-6.77h-0.633
							l-1.455,3.479v-0.317c0.379-0.759,0.527-2.151,0.443-4.175c-0.042-1.645-0.4-2.953-1.076-3.922
							c-0.464-0.551-1.266-1.603-2.404-3.163 M124.185,189.065c0.843,0.969,1.54,1.983,2.087,3.036
							c1.772,3.206,2.741,6.812,2.91,10.819c0.085,1.392,0.085,3.86,0,7.402 M124.185,182.295l0.696,1.392l2.342,8.035
							 M92.045,245.499c-1.266-0.97-2.067-2.362-2.405-4.175v-0.064l-0.064-0.253l-0.064-0.633c-0.168-3.206,0.97-5.948,3.416-8.226
							l1.962-1.455c2.024-1.56,3.543-2.826,4.555-3.797c1.94-1.898,2.657-7.928,2.151-18.094c-0.127-2.91-1.476-10.039-4.049-21.384
							l-1.582-7.403c-1.264-6.242-2.13-11.705-2.594-16.387l-0.19-2.657l-0.443-0.949l-2.088,0.064
							c-2.319,0.885-4.47,2.953-6.454,6.2l-0.57,0.886c-1.94,3.543-2.824,7.276-2.656,11.197c0.126,3.375,1.034,7.023,2.721,10.946
							c1.687,3.964,2.573,6.832,2.657,8.604c0,0.421-0.273,1.329-0.822,2.72c-0.549,1.434-0.802,2.869-0.759,4.302l0.064,0.602
							v0.031c0.211,3.037,0.717,5.631,1.519,7.783l0.126-0.065v0.317l-0.126-0.252l-0.759,1.518
							c-0.802-0.294-2.066-0.126-3.796,0.507c-1.055,0.338-2.362,0.886-3.923,1.645l-3.733,1.582
							c-1.518,0.632-2.594,1.034-3.226,1.202l-0.316,0.064c-1.476,0.085-3.059,1.118-4.745,3.101
							c-1.984,2.192-2.91,4.429-2.784,6.706c0.042,2.277,0.57,4.007,1.581,5.188c0.717,0.843,2.13,1.751,4.238,2.72
							c-1.054-0.675-1.834-2.362-2.34-5.061c-0.548-2.657,1.266-5.863,5.441-9.616 M93.058,148.573v11.451l0.127,0.949
							 M62.435,177.865c-1.855,0.845-3.247,2.89-4.175,6.138l-0.127,0.443c-0.295,0.885-0.464,1.666-0.506,2.342l-0.19,0.949
							l-0.064,0.949 M53.262,180.84c1.223,0.549,2.045,1.834,2.468,3.86l0.253,1.519l0.064,1.328 M84.833,205.546l-2.468,0.473
							c-2.319-0.126-3.88-0.168-4.681-0.126c-4.893,0.253-9.195-1.371-12.908-4.872c-2.657-2.447-4.365-5.209-5.125-8.289
							c-0.212-0.927-0.358-1.961-0.443-3.099c-0.042-0.253-0.042-0.528,0-0.823l0.064-0.886l0.633-3.1 M55.984,186.218
							c-0.295,0.506-0.423,0.969-0.38,1.391c0.168,1.266,0.168,2.362,0,3.29 M81.543,214.751
							c-13.539,1.477-21.89-5.145-25.054-19.867l-0.253-1.454c-0.041-0.042-0.041-0.065,0-0.065l-0.316-1.518 M68.889,237.591h0.064
							l0.19,0.127l0.127,0.126l0.064,0.317c0.675,0.676,1.878,1.222,3.607,1.645l0.127,0.064c1.18,0.295,2.383,0.528,3.605,0.697
							c-2.192-0.676-3.374-1.097-3.543-1.266c-0.549-0.421-0.971-1.096-1.266-2.025l-0.064-0.379
							c-0.253-0.801-0.422-1.919-0.507-3.353c-0.21-3.753,0.759-6.707,2.911-8.858c0.885-0.927,1.983-1.707,3.29-2.34
							 M68.953,237.591l0.126,0.253l0.253,0.317 M76.671,240.565l0.57,0.19c1.35,0.379,3.163,0.759,5.441,1.138
							c-0.759-0.253-1.434-0.611-2.025-1.076c-0.717-0.591-1.223-1.202-1.519-1.834c-0.337-0.717-0.548-1.54-0.632-2.468
							c-0.295-5.652,2.151-10.418,7.338-14.298 M95.967,232.213c-2.318,1.857-3.585,4.64-3.796,8.353
							c-0.085,0.928-0.105,1.686-0.064,2.277c0.085,1.012,0.337,1.919,0.759,2.72c0.591,1.096,1.476,2.046,2.657,2.847l0.758,0.507
							h0.064c-0.085-0.295-0.168-0.886-0.253-1.773c-0.084-0.464-0.084-0.863,0-1.201c0.212-1.097,0.697-1.667,1.456-1.709
							c0.971-0.084,1.645,0.485,2.025,1.709l0.253,1.011l0.064,1.329l0.19,0.758 M92.171,240.565
							c-0.464-0.464-0.927-0.654-1.392-0.57c-0.168,0-0.4,0.211-0.696,0.633l-0.127,0.126l-0.317,0.507 M82.682,241.893
							c0.844,0.211,1.624,0.294,2.34,0.253c1.392-0.085,2.742-0.464,4.049-1.138 M96.347,248.916
							c1.349,0.758,2.721,1.202,4.112,1.328c0.338,0.085,0.696,0.085,1.076,0c0.253,0,1.37-0.864,3.354-2.594
							c-0.212-0.253-0.423-0.633-0.633-1.14c-0.212-0.464-0.338-0.884-0.38-1.264l-0.253-1.833l0.127-1.33
							c0.338-1.771,1.16-4.787,2.468-9.046 M133.739,215.384l-0.443,0.507v0.064l-0.632,0.696l-0.822,1.202l0.379,2.151
							c0.085-1.392,0.654-2.468,1.708-3.228l0.949-0.378c0.844-0.042,1.983,0.443,3.418,1.455c1.307,0.928,1.983,1.666,2.024,2.214
							c-0.041,0.041-0.041,0.085,0,0.126l0.696-0.379l0.823-0.317c1.264-0.042,1.919,0.379,1.961,1.266
							c0.042,0.591-0.106,1.138-0.443,1.645c-0.338,0.421-0.886,0.696-1.645,0.823h-0.065l-0.569,0.064
							c-1.055,0.042-1.793-0.148-2.214-0.57c0.927-1.222,1.413-2.066,1.454-2.531 M155.82,233.669
							c-0.294,2.066-1.244,3.985-2.847,5.757l-0.253,0.253v0.064l-0.506,0.443l-0.064,0.127l-0.379,0.317l0.506-0.253h0.064
							l0.064-0.064c0.338-0.168,0.633-0.253,0.886-0.253c0.421,0,1.076,0.253,1.961,0.759c0.042,0.844,0.022,1.581-0.064,2.214
							h0.064l1.203-0.949c1.603-0.801,2.827-1.792,3.67-2.973c0.802-1.223,1.16-2.595,1.076-4.113
							c-0.042-0.676-0.317-1.898-0.822-3.67l-0.065-0.126c-0.633-1.899-1.18-3.438-1.645-4.62l-0.759-1.898h-0.064l-1.708-3.985
							l-0.696-1.266c-0.928-1.434-1.834-2.658-2.721-3.67c-1.687-1.898-3.057-2.932-4.112-3.101
							c-4.091-0.802-6.791-1.16-8.097-1.075c-2.066,0.675-3.501,1.054-4.302,1.138l-2.404,0.126l-0.38,0.064
							c-1.602,0.211-2.635,0.421-3.1,0.633 M132.22,220.002l0.064,0.379c-0.042,0.041-0.042,0.085,0,0.126
							c0.042,1.012,0.423,1.94,1.138,2.784l1.203,1.011c1.434,0.929,3.459,1.54,6.073,1.835c0.507-0.085,1.035-0.233,1.581-0.443
							l0.065-0.065c0.759-0.379,1.476-0.802,2.15-1.266l0.127-0.064l0.064-0.064l0.633-0.442l0.191-0.191
							c0.168-0.168,0.317-0.274,0.443-0.317c2.405-1.94,3.69-3.544,3.859-4.808 M132.537,232.403
							c-0.042-0.843-0.253-1.813-0.632-2.91l-0.57-1.455l-0.443-1.012l-0.127-0.191c-0.885-1.729-1.455-3.605-1.707-5.63
							l-0.064-0.126v-0.191l-0.127-1.519l0.191-5.884l0.064-0.317l0.064-2.531 M106.281,244.677c-0.253,0.42-0.358,0.97-0.316,1.645
							c0,0.295,0.085,0.633,0.252,1.012l0.633,2.024c0.885,0.421,1.94,0.738,3.163,0.949h0.126c-0.168-4.175-1.076-6.242-2.72-6.2
							C106.913,244.107,106.533,244.297,106.281,244.677z M106.85,249.358h-0.064c-0.759-0.42-1.392-0.991-1.898-1.707
							 M132.537,232.783l-0.759,3.354c0,0.294,0.127,0.843,0.379,1.645v0.064l0.759,2.277v0.823
							c-0.168,1.602-1.055,2.931-2.657,3.985l-0.127,0.065h-0.064l-0.064,0.064l-0.823,0.443c-1.772,0.843-3.817,1.371-6.136,1.581
							h-0.507c-1.434,0.042-2.362-0.147-2.783-0.57l-0.19,0.444c-1.349,1.983-3.522,3.121-6.517,3.418h-0.506
							c-0.633,0.041-1.434,0.021-2.405-0.065 M122.983,246.448c0.338-3.288-0.4-4.872-2.214-4.745c-0.843,0-1.349,0.338-1.518,1.012
							l-0.064,0.444c-0.042,0.211-0.042,0.4,0,0.569c0,0.464-0.085,0.781-0.253,0.949l0.823,1.833 M117.795,236.641l0.064,6.011
							l1.076,2.025 M147.468,228.228h-0.444c-0.758,0.084-1.413,0.274-1.961,0.569l-0.19,0.191l-0.253,0.442
							c-0.252,0.464-0.358,0.781-0.316,0.949c0,0.718,0.168,1.244,0.505,1.581c0.295,0.253,0.738,0.275,1.33,0.065
							c0.084-0.085,0.19-0.085,0.317,0l0.317-0.065l0.758-0.252c1.223-0.464,1.834-1.561,1.834-3.289l-0.252-0.064h-0.507
							l-0.506-0.064 M144.875,228.987l0.126-0.317c-0.59-1.392-1.476-2.362-2.657-2.91l-0.065-0.064 M154.553,226.077
							c-1.306,4.132-3.332,6.685-6.073,7.656l-0.507,0.19l-0.759,0.127c0.421,0.549,1.055,1.16,1.899,1.834
							c0.885,0,1.519,0.19,1.898,0.569v0.064l0.253,0.317l0.064,0.506c0,0.168-0.106,0.421-0.317,0.76l-0.253,0.19l-0.126,0.127
							l-1.581,1.137h-0.064c-0.464,0.253-0.929,0.421-1.393,0.507h-0.064c-0.885,0.253-1.349-0.148-1.391-1.203
							c-0.042-0.505,0.949-1.496,2.974-2.973 M134.625,224.304c0.252,1.688,0.527,2.975,0.822,3.86
							c0.253,0.929,0.485,1.625,0.696,2.088c0.464,0.759,1.202,1.476,2.214,2.151c0.97,0.633,2.362,1.181,4.175,1.646
							c0.592-0.043,1.287-0.043,2.088,0l1.392,0.063l0.379,0.064l0.822-0.125 M132.473,224.304c-0.591,0.676-0.949,1.52-1.076,2.531
							l-0.064,0.253v0.949 M137.851,232.973l0.317,0.633c-0.591,0.928-0.864,1.833-0.822,2.72c0.085,1.011,0.421,1.919,1.012,2.72
							c0.717,0.928,1.707,1.751,2.974,2.468c2.11,1.138,3.86,1.687,5.252,1.646l0.758-0.127c0.212-0.042,0.718-0.19,1.52-0.443
							v-0.064h0.064l0.317-0.127h0.065c-0.043-0.927-0.043-1.581,0-1.961 M132.79,237.591c1.223,1.898,3.08,2.383,5.567,1.455
							 M147.341,243.031l1.014,0.57h0.064l0.064,0.064c1.138,0.591,2.004,0.844,2.594,0.759c1.349-0.042,2.721-0.507,4.112-1.392
							 M151.77,240.628c-0.759,0.717-1.582,1.307-2.467,1.771 M198.146,148.952c0.042,1.222,0.232,3.016,0.569,5.378l-0.759,4.175
							c0,0.253,0.127,0.76,0.38,1.52l0.505,1.581c0.633,1.729,0.971,3.101,1.012,4.112v0.253c-0.041,0.042-0.041,0.085,0,0.126
							v0.507c0.085,1.096,0.085,2.489,0,4.175l-0.064,0.379l-1.898,25.878l-0.126,0.822v6.706c-0.042,6.2,0,12.148,0.126,17.842
							l0.191,7.276c1.18-0.633,2.172-1.244,2.974-1.834c0.632-0.506,1.117-0.991,1.455-1.454c3.332-2.152,6.095-4.725,8.287-7.719
							c3.248-4.471,4.767-9.047,4.556-13.729c-0.084-1.307-0.379-2.762-0.885-4.365c-0.633-2.109-1.308-3.459-2.025-4.049
							 M162.779,167.427l4.999,18.411c0,0.42-0.168,1.413-0.507,2.974c0.085,1.349,0.317,2.425,0.697,3.227l0.633,0.949
							c0.802,0.97,1.222,2.088,1.264,3.354l-1.898,6.136c-1.349,3.754-1.919,7.635-1.708,11.642l1.264,12.147
							c0.085,2.151-0.148,4.071-0.696,5.758v0.064l-0.191,0.633l-2.15,5.315l-0.127,0.252l0.064,1.772 M166.259,231.897
							c-2.657,0.211-4.43-0.106-5.315-0.949 M165.816,251.889c0.675,0.253,1.645,0.421,2.91,0.507
							c-0.676-1.94-1.055-3.522-1.14-4.745l-1.707,0.191c-0.464,0.126-0.676,0.611-0.633,1.454c0,0.507,0.232,1.181,0.696,2.025
							C165.942,251.616,165.9,251.805,165.816,251.889z M164.36,238.287l-1.519,3.037c-0.802,1.772-1.18,3.1-1.138,3.986
							c0.126,3.459,1.455,5.652,3.986,6.579h0.127 M168.726,252.395c0.464,0,0.822-0.022,1.075-0.064l1.203-0.127l0.317,0.57v-0.886
							c0.295-1.011,0.759-2.298,1.392-3.859 M171.32,252.776l0.316,0.317c1.562,2.066,4.176,3.206,7.845,3.416l-1.328-2.721
							c-0.042-1.011,0.21-1.876,0.759-2.593l2.088-0.126 M168.536,240.501c2.784-0.928,4.45-0.485,4.999,1.329 M203.46,245.627
							l0.443,1.707l0.57,2.657l0.064-0.064l0.444-0.317c1.096-1.054,1.602-2.404,1.518-4.049c-0.126-2.277-1.096-4.914-2.909-7.909
							c-1.814-3.036-3.606-4.808-5.378-5.314l-0.126-2.658l-0.949,0.444 M185.366,232.15c1.771-0.464,3.773-0.317,6.01,0.443
							 M181.443,251.067l0.506,5.44h0.57l0.379-0.064l3.796-1.581l0.886-0.949l0.443-0.759c-0.085-0.126-0.085-0.232,0-0.317v-0.064
							c-0.126-2.066-0.359-3.797-0.696-5.187l-0.191-0.57c-0.085-0.294-0.106-0.507-0.064-0.632 M194.033,256.255h0.317
							c1.055-0.084,2.024-0.358,2.91-0.821c-0.675-2.953-1.561-4.408-2.657-4.365c-0.97,0.084-1.392,1.054-1.264,2.91
							C193.338,254.231,193.569,254.989,194.033,256.255z M188.34,252.903c1.264,2.318,3.162,3.438,5.693,3.352 M202.384,246.322
							c-0.379,0.337-0.633,0.696-0.759,1.076c-0.21,0.338-0.273,0.738-0.191,1.203l0.191,0.695 M197.259,255.433l1.202-0.697
							c0.55-0.379,1.076-0.863,1.582-1.454c0.337-0.464,0.653-1.012,0.949-1.646v-0.191l0.126-0.378l-0.442-2.278
							c-0.844-3.162-2.109-5.335-3.797-6.516 M200.992,251.636h0.065l0.19-0.065l0.064-0.064h0.126l2.025-0.821
							c0.253-0.127,0.592-0.359,1.012-0.697 M179.481,256.508l2.468,0.064v-0.064"/>
						<path fill="#FFFFFF" d="M133.043,98.402l-1.012-0.443c-0.506-0.168-0.781-0.506-0.823-1.012
							c-0.042-1.096,1.772-1.75,5.442-1.961c0.337-0.042,0.737-0.021,1.201,0.064c1.014,0.168,1.54,0.696,1.582,1.581
							c0.085,0.591-0.443,1.14-1.582,1.646c-0.802,0.337-1.496,0.549-2.087,0.633C134.372,98.487,133.464,98.317,133.043,98.402z"/>
						<path fill="#FFFFFF" d="M147.531,93.277l1.646,0.126l0.506,0.317l0.633,0.696c0.506,0.675,0.779,1.224,0.822,1.646
							c0,0.422-0.168,0.758-0.506,1.012c-0.379,0.253-0.949,0.443-1.708,0.57c-1.349,0.212-2.383,0.19-3.1-0.064l-0.823-0.443
							l-1.645-0.253c-0.379-0.126-0.57-0.399-0.57-0.822C142.744,94.416,144.325,93.488,147.531,93.277z"/>
					</g>
				</g>
			</g>
		</g>
	</g>
</g>
</svg>
