<?xml version="1.0" encoding="utf-8"?>
<!-- Generator: Adobe Illustrator 17.0.1, SVG Export Plug-In . SVG Version: 6.00 Build 0)  -->
<!DOCTYPE svg PUBLIC "-//W3C//DTD SVG 1.1//EN" "http://www.w3.org/Graphics/SVG/1.1/DTD/svg11.dtd">
<svg version="1.1" id="Layer_1" xmlns="http://www.w3.org/2000/svg" xmlns:xlink="http://www.w3.org/1999/xlink" x="0px" y="0px"
	 width="216.777px" height="244.397px" viewBox="20.968 6.258 216.777 244.397"
	 enable-background="new 20.968 6.258 216.777 244.397" xml:space="preserve">
<g>
	<g id="Layer_1_1_">
		<g>
			<g id="Layer_1_3_">
				<g>
					<path fill="#FFFFFF" stroke="#000000" stroke-width="1.5445" stroke-miterlimit="10" d="M165.647,95.673
						c-8.901-2.029-17.546-2.612-25.939-1.748c-9.887,1.015-18.985,4.018-27.296,9.01c-0.933-2.908-1.611-5.108-2.037-6.603
						c-0.768-2.687-0.995-4.484-0.679-5.389c0.206-0.617,0.802-1.694,1.79-3.23c0.905-1.398,1.454-2.557,1.645-3.476
						c0.082-0.37,0.028-2.474-0.165-6.315c-0.178-3.414,0.124-5.972,0.905-7.672c0.178-0.384,0.864-1.632,2.057-3.744
						c1.055-1.865,1.9-3.586,2.531-5.163c2.016-5.046,2.907-10.923,2.674-17.628c-0.356-10.587-0.974-18.465-1.851-23.635
						c-1.344-7.857-3.511-12.15-6.5-12.876c-3.154-0.768-7.22,1.042-12.198,5.429c-4.58,4.046-7.96,8.352-10.141,12.918
						c-2.317,4.813-4.49,10.436-6.521,16.867c-2.359,7.432-3.579,13.192-3.662,17.279c-0.15,7.241-0.239,11.067-0.267,11.478
						c-0.247,3.208-0.884,4.895-1.913,5.06c-0.905,0.137-1.653-0.918-2.242-3.167c-1.111-4.21-1.996-7.089-2.653-8.639
						c-1.481-3.483-3.915-7.364-7.302-11.643c-3.442-4.361-7.37-8.474-11.787-12.342C42.524,30.282,35.503,24.228,33.035,22.281
						c-2.51-2.208-4.422-3.723-5.739-4.546c-2.318-1.439-4.1-1.495-5.348-0.165c-0.508,0.535-0.082,4.786,1.275,12.754
						c1.481,8.708,3.236,15.654,5.266,20.838c1.824,4.677,4.635,9.599,8.433,14.769c0.493,0.686,1.831,2.441,4.012,5.266
						c1.33,1.728,2.209,2.982,2.633,3.765c0.74,1.372,1.473,3.71,2.201,7.014c0.671,3.03,1.268,4.875,1.789,5.534
						c0.687,0.837,1.591,1.632,2.715,2.387c0.562,0.384,1.055,0.679,1.481,0.884c-0.041,0.851-0.315,1.934-0.823,3.25
						c-0.384,0.96-0.439,2.2-0.165,3.723c0.041,0.219-0.144,0.994-0.556,2.324c-0.178,1.426,0.288,2.584,1.398,3.476
						c-0.644,1.536-1.014,2.605-1.11,3.21c-0.234,1.494,0,3.188,0.699,5.08c-1.439,0.809-2.764,2.365-3.969,4.67
						c-1.193,2.303-1.927,4.683-2.201,7.138c-0.493,4.32-0.568,7.672-0.226,10.059c0.658,4.677,2.667,8.345,6.027,11.005
						c-0.013,0.671-0.178,2.914-0.493,6.726c-0.302,3.703-0.473,6.808-0.515,9.319c-0.15,8.2,0.912,13.816,3.189,16.847
						c2.976,3.963,6.78,7.706,11.416,11.231c5.197,3.977,10.353,6.774,15.468,8.392c2.194,2.071,4.32,4.814,6.377,8.228
						c2.386,3.99,3.414,7.062,3.086,9.215c-0.15,0.973-1.097,2.112-2.839,3.414c-1.001,0.754-2.66,1.927-4.977,3.517
						c-1.893,1.467-3.051,2.845-3.476,4.134c-0.549,1.688,0.007,3.442,1.666,5.266c0.316,0.645,1.255,0.953,2.818,0.926
						c1.276-0.014,2.393-0.199,3.353-0.555c0.617,0.864,1.748,1.419,3.394,1.665c1.55,0.22,2.901,0.09,4.053-0.39
						c-2.235,1.55-4.053,3.291-5.451,5.225c-1.714,2.345-2.078,4.175-1.09,5.492c-0.603,1.59-0.631,3.044-0.082,4.36
						c0.659,1.618,2.078,1.982,4.258,1.09c1.261,0.974,3.435,1.282,6.521,0.926c3.195-0.357,5.143-1.275,5.841-2.756
						c1.029-0.357,3.456-1.029,7.282-2.016c3.401-1.152,5.328-2.598,5.78-4.34c0.452-1.714,1.679-4.943,3.682-9.688
						c2.043-4.677,3.182-7.316,3.414-7.919c1.564,0.178,3.463,0.466,5.698,0.864c2.262,0.398,4.114,0.775,5.554,1.132
						c-0.878,0.714-1.907,2.132-3.086,4.259c-1.372,2.482-2.262,4.833-2.674,7.055c-0.521,2.784-0.165,4.971,1.07,6.562
						c1.481,1.934,4.197,2.88,8.146,2.839c2.113,1.097,4.573,1.632,7.385,1.604c2.839-0.013,4.977-0.61,6.417-1.789
						c3.429-0.439,10.731-1.611,21.907-3.517c11.874-2.031,18.807-3.339,20.795-3.928c3.372-0.987,5.478-1.714,6.315-2.181
						c2.083-1.179,3.367-2.995,3.846-5.451c0.452-2.344,0.98-4.807,1.584-7.384l0.783-3.148c2.18-0.357,4.661-1.282,7.446-2.777
						c3.413-1.851,5.897-3.956,7.446-6.315c2.057-3.141,6.055-9.133,11.992-17.978c0.891-1.344,1.659-3.25,2.303-5.718
						c0.823-3.21,0.72-5.486-0.309-6.83c-1.083-1.413-2.53-2.303-4.34-2.674c-1.576-0.33-2.79-0.22-3.641,0.328
						c0.577-3.812,0.98-6.815,1.214-9.01c0.397-3.84,0.459-7.391,0.185-10.655c-0.74-9.024-4.175-17.855-10.305-26.494
						c-6.596-9.298-15.297-17.36-26.104-24.19C183.734,101.686,174.574,97.702,165.647,95.673z"/>
					<path fill="#FFFFFF" stroke="#000000" stroke-width="1.5445" stroke-miterlimit="10" d="M56.648,86.951
						c0.946-1.728,1.591-2.846,1.934-3.353c0.96-1.398,2.091-2.564,3.394-3.497c3.565-2.578,8.933-3.867,16.106-3.867
						c7.035,0,12.876,1.536,17.526,4.608c2.523,1.659,4.552,3.696,6.088,6.109"/>
					<path fill="#FFFFFF" stroke="#000000" stroke-width="1.5445" stroke-miterlimit="10" d="M21.865,19.75
						c0.727,1.439,2.249,3.024,4.567,4.751c1.344,1.001,3.482,2.503,6.417,4.505c3.017,2.235,5.629,4.45,7.837,6.645
						c3.263,3.263,5.376,6.253,6.336,8.969c0.124,0.343,0.953,2.331,2.489,5.965c1.316,3.113,2.345,5.925,3.085,8.434
						c2.372,7.967,2.873,15.763,1.501,23.387"/>
					<path fill="#FFFFFF" stroke="#000000" stroke-width="1.5445" stroke-miterlimit="10" d="M54.735,77.509
						c-4.306-3.99-7.906-7.412-10.799-10.264c-5.444-5.376-8.838-9.703-10.183-12.979"/>
					<path fill="#FFFFFF" stroke="#000000" stroke-width="1.5445" stroke-miterlimit="10" d="M109.327,11.214
						c-2.756,1.659-5.8,4.066-9.133,7.22c-4.43,4.196-7.2,7.96-8.311,11.292c-1.207,3.662-1.467,9.86-0.782,18.595
						c0.671,8.461,1.721,13.891,3.147,16.292c0.714,1.207,1.886,3.901,3.517,8.084c1.221,3.141,2.166,4.745,2.839,4.814
						c0.631,0.068,0.919-1.021,0.864-3.27c-0.069-2.893,0.13-4.889,0.596-5.986c0.274-0.658,0.967-1.529,2.078-2.612
						c1.645-1.619,2.715-2.715,3.21-3.292c2.88-3.388,4.505-7.535,4.875-12.445"/>
					<path fill="#FFFFFF" stroke="#000000" stroke-width="1.5445" stroke-miterlimit="10" d="M94.784,96.392
						c-0.618,0.531-1.304,1.272-2.057,2.222c2.29,1.152,3.819,2.996,4.587,5.533c0.618,2.071,0.645,3.963,0.082,5.677
						c-0.411,1.221-1.255,2.091-2.531,2.612c-1.014,0.425-2.09,0.577-3.229,0.453c-3.401-1.454-4.183-4.355-2.346-8.702
						c0.659-1.55,1.598-3.139,2.818-4.772c0.21-0.282,0.416-0.55,0.617-0.802"/>
					<path d="M92.727,98.614c2.29,1.152,3.819,2.996,4.587,5.533c0.618,2.071,0.645,3.963,0.082,5.677
						c-0.411,1.221-1.255,2.091-2.531,2.612c-1.014,0.425-2.09,0.577-3.229,0.453c-2.77-1.193-3.778-3.394-3.024-6.603
						c0.548-2.359,1.899-4.889,4.052-7.591L92.727,98.614z"/>
					<path fill="#FFFFFF" stroke="#000000" stroke-width="1.5445" stroke-miterlimit="10" d="M52.04,98.696l1.481,1.244l0.309,0.257
						c0.782,0.645,1.399,1.337,1.851,2.078c1.344,2.139,2.016,5.635,2.016,10.49c-0.974,0.658-2.146,0.98-3.517,0.967
						c-1.632-0.027-2.627-0.658-2.983-1.893c-0.686-2.359-0.809-4.374-0.37-6.047c0.233-0.836,1.132-2.787,2.695-5.853"/>
					<path d="M57.697,112.766c-0.974,0.658-2.146,0.98-3.517,0.967c-1.632-0.027-2.627-0.658-2.983-1.893
						c-0.686-2.359-0.809-4.374-0.37-6.047c0.233-0.836,1.132-2.79,2.695-5.862l0.021,0.041c1.303,1.055,2.242,2.262,2.818,3.62
						C57.252,105.704,57.697,108.762,57.697,112.766z"/>
					<path stroke="#000000" stroke-width="1.5445" stroke-miterlimit="10" d="M73.967,137.141c-1.221-0.261-2.441-0.39-3.662-0.39
						c-1.111,0-2.063,0.109-2.859,0.328c-0.686,0.205-1.467,0.555-2.345,1.049c-0.603,0.357-0.899,0.926-0.884,1.707
						c0.027,0.782,0.322,1.309,0.884,1.584c0.096,0.056,0.884,0.768,2.365,2.14c1.221,1.138,2.215,1.706,2.983,1.706
						c0.782,0,1.556-0.487,2.324-1.46c0.727-1.083,1.227-1.741,1.501-1.975c0.754-0.617,1.364-1.214,1.831-1.789
						c0.754-0.92,0.926-1.557,0.515-1.913C76.154,137.731,75.271,137.402,73.967,137.141z"/>
					<path fill="#FFFFFF" stroke="#000000" stroke-width="1.5445" stroke-miterlimit="10" d="M56.175,138.807
						c-0.48,0.63-0.748,1.79-0.802,3.476c-0.082,1.824,0.131,3.648,0.638,5.472c1.357,4.868,4.114,7.604,8.269,8.208
						c1.454-0.562,2.914-1.475,4.381-2.736c1.316-1.11,2.091-1.981,2.324-2.612c-0.247-1.262-0.405-2.277-0.473-3.045
						c-0.041-0.507-0.062-1.275-0.062-2.303"/>
					<path fill="#FFFFFF" stroke="#000000" stroke-width="1.5445" stroke-miterlimit="10" d="M70.984,150.615
						c1.262,1.262,3.045,2.564,5.348,3.909c2.743,1.591,5.074,2.482,6.994,2.674c2.18,0.206,4.621-0.555,7.323-2.284
						c2.784-1.781,4.779-3.949,5.986-6.499c4.251-0.507,7.7-1.467,10.346-2.879c3.634-1.92,6.13-4.8,7.488-8.64
						c1.385-3.894,1.762-9.401,1.132-16.518c-0.521-5.979-1.585-11.794-3.189-17.443"/>
					<path fill="#FFFFFF" stroke="#000000" stroke-width="1.5445" stroke-miterlimit="10" d="M64.279,155.963
						c0.809,0.973,3.291,1.673,7.446,2.097c4.498,0.452,7.83,0.063,9.997-1.173"/>
					<path fill="#FFFFFF" stroke="#000000" stroke-width="1.5445" stroke-miterlimit="10" d="M50.826,144.711
						c0.603,0.508,1.7,1.351,3.291,2.53c1.385,1.097,2.29,2.023,2.715,2.777"/>
					<path fill="#FFFFFF" stroke="#000000" stroke-width="1.5445" stroke-miterlimit="10" d="M87.65,196.975
						c3.463-1.519-6.427,1.709-4.891,2.574c0.892,0.493,8.092-6.245,10.039-5.148c3.703,1.988,3.052,9.532,5.301,9.695
						c0.219,1.659,0.466,4.992,0.74,9.997c0.275,5.225,0.349,8.386,0.227,9.482c0,0.056-0.034,0.693-0.103,1.913
						c-0.055,0.836-0.165,1.55-0.328,2.139c-0.508,1.756-1.782,3.251-3.826,4.484"/>
					<path fill="#FFFFFF" stroke="#000000" stroke-width="1.5445" stroke-miterlimit="10" d="M85.898,231.371
						c-0.754-0.836-0.939-1.866-0.556-3.086c0.343-1.111,1.001-2.002,1.975-2.674"/>
					<path fill="#FFFFFF" stroke="#000000" stroke-width="1.5445" stroke-miterlimit="10" d="M86.803,243.364
						c0.219-0.714,0.597-1.461,1.132-2.243l0.74-0.967"/>
					<path fill="#FFFFFF" stroke="#000000" stroke-width="1.5445" stroke-miterlimit="10" d="M90.979,248.814
						c-0.671-0.823-0.671-2.056,0-3.703c0.59-1.467,1.33-2.523,2.222-3.167"/>
					<path fill="#FFFFFF" stroke="#000000" stroke-width="1.5445" stroke-miterlimit="10" d="M138.741,156.231
						c0.397,3.017,0.768,9.434,1.111,19.253c0.37,10.408,0.363,16.558-0.022,18.451c-0.315,1.605-1.975,4.265-4.977,7.981
						c-3.566,4.388-5.472,6.801-5.719,7.241c-0.713,1.261-1.721,3.599-3.024,7.014c-1.673,4.402-2.544,6.685-2.612,6.849"/>
					<path fill="#FFFFFF" stroke="#000000" stroke-width="1.5445" stroke-miterlimit="10" d="M134.751,225.014
						c0.877-0.726,3.058-1.357,6.541-1.892c2.936-0.453,5.829-0.72,8.681-0.802c7.611-0.193,12.102-0.296,13.473-0.309
						c6.898-0.068,11.182,0.13,12.856,0.596c1.77,0.48,4.094,1.611,6.973,3.395c2.399,1.481,4.1,2.68,5.101,3.599"/>
					<path fill="#FFFFFF" stroke="#000000" stroke-width="1.5445" stroke-miterlimit="10" d="M174.801,172.418
						c-2.907,2.893-5.108,5.437-6.602,7.631c-2.962,4.334-4.65,8.824-5.061,13.473c-0.534,6.062,0.24,11.574,2.325,16.539
						c2.427,5.814,6.397,10.112,11.909,12.897"/>
					<path fill="#FFFFFF" stroke="#000000" stroke-width="1.5445" stroke-miterlimit="10" d="M138.207,245.729
						c-0.658-0.37-1.221-1.097-1.687-2.18c-0.481-1.111-0.734-2.311-0.761-3.6c-0.055-3.237,1.166-5.451,3.662-6.645"/>
					<path fill="#FFFFFF" stroke="#000000" stroke-width="1.5445" stroke-miterlimit="10" d="M228.137,177.972
						c-0.316,1.618-0.836,5.163-1.563,10.635c-0.947,5.115-2.297,8.811-4.053,11.088c-1.55,1.988-4.087,4.32-7.611,6.994
						c-3.264,2.455-5.115,4.059-5.554,4.814c-0.604,1.042-1.077,2.496-1.42,4.36c-0.178,1.002-0.411,2.359-0.699,4.073"/>
					<path fill="#FFFFFF" stroke="#000000" stroke-width="1.5445" stroke-miterlimit="10" d="M140.1,124.963
						c-0.328-4.196-1.789-8.131-4.381-11.806c-2.537-3.607-5.506-6.069-8.907-7.385c-3.03-1.18-6.137-2.029-9.319-2.551
						c-2.715-0.453-4.409-0.549-5.08-0.288"/>
					<path fill="#FFFFFF" stroke="#FFFFFF" stroke-width="1.0297" stroke-miterlimit="10" d="M95.257,103.469
						c0,0.439-0.075,0.816-0.227,1.132s-0.336,0.473-0.556,0.473c-0.219,0-0.405-0.158-0.555-0.473
						c-0.151-0.315-0.227-0.693-0.227-1.132s0.075-0.816,0.227-1.132c0.15-0.315,0.336-0.473,0.555-0.473
						c0.219,0,0.405,0.158,0.556,0.473C95.182,102.652,95.257,103.03,95.257,103.469z"/>
					<path fill="#FFFFFF" stroke="#FFFFFF" stroke-width="1.0297" stroke-miterlimit="10" d="M54.961,102.913
						c0.15,0.315,0.227,0.692,0.227,1.132c0,0.453-0.075,0.836-0.227,1.152c-0.15,0.316-0.336,0.473-0.555,0.473
						s-0.411-0.158-0.577-0.473c-0.15-0.315-0.227-0.699-0.227-1.152c0-0.439,0.075-0.816,0.227-1.132
						c0.165-0.315,0.356-0.473,0.577-0.473C54.625,102.44,54.81,102.598,54.961,102.913z"/>
				</g>
			</g>
		</g>
	</g>
</g>
</svg>
