<?xml version="1.0" encoding="utf-8"?>
<!-- Generator: Adobe Illustrator 17.0.1, SVG Export Plug-In . SVG Version: 6.00 Build 0)  -->
<!DOCTYPE svg PUBLIC "-//W3C//DTD SVG 1.1//EN" "http://www.w3.org/Graphics/SVG/1.1/DTD/svg11.dtd">
<svg version="1.1" id="Layer_1" xmlns="http://www.w3.org/2000/svg" xmlns:xlink="http://www.w3.org/1999/xlink" x="0px" y="0px"
	 width="260px" height="260px" viewBox="0 0 260 260" enable-background="new 0 0 260 260" xml:space="preserve">
<path d="M105.995,167.371c-0.023-0.279-0.213-0.516-0.481-0.599l-25.201-7.793c-0.216-0.066-0.452-0.022-0.629,0.118
	c-0.178,0.142-0.274,0.361-0.257,0.587c0.369,5.061,0.643,8.051,0.837,9.139c0.552,3.149,1.593,5.461,3.095,6.876
	c0.832,2.164,1.495,4.245,1.991,6.25c0.491,1.391,1.591,2.927,3.36,4.697c2.843,2.854,5.346,4.404,7.648,4.737
	c0.376,0.056,0.76,0.083,1.141,0.083c0,0,0,0,0,0c3.121,0,6.421-1.88,9.811-5.588c0.129-0.141,0.193-0.329,0.177-0.52
	L105.995,167.371z M96.556,190.026c-1.972-0.285-4.285-1.748-6.875-4.35c-1.6-1.6-2.622-3.008-3.019-4.12
	c-0.502-2.043-1.203-4.23-2.083-6.502c-0.039-0.101-0.102-0.191-0.183-0.264c-1.334-1.192-2.27-3.279-2.783-6.206
	c-0.171-0.958-0.421-3.646-0.746-7.998l23.797,7.359l1.429,17.226C102.69,188.826,99.503,190.461,96.556,190.026z"/>
<path fill="#FFFFFF" stroke="#231F20" stroke-width="1.5" stroke-miterlimit="10" d="M88.069,37.758
	c4.521,1.537,5.194,10.285,2.023,26.246c-2.51,12.589-7.4,29.578-14.673,50.966c-5.328,15.706-8.224,24.2-8.688,25.483
	c-3.117,8.654-5.98,15.385-8.589,20.193c-3.183,5.869-6.521,9.959-10.014,12.27c-3.868,2.574-8.184,3.156-12.948,1.74
	c-4.576-1.348-7.616-4.184-9.119-8.506c-1.359-3.891-1.519-9.195-0.48-15.916c0.862-5.582,2.675-12.805,5.438-21.67
	c1.172-3.791,4.035-12.379,8.588-25.765C47.609,77.997,56.667,59.87,66.78,48.419c4.09-4.642,8.102-7.859,12.037-9.65
	C82.31,37.189,85.394,36.852,88.069,37.758z"/>
<path fill-rule="evenodd" clip-rule="evenodd" fill="#FFFFFF" stroke="#000000" stroke-width="1.5" stroke-linecap="round" stroke-linejoin="round" stroke-miterlimit="10" d="
	M183.584,47.689c6.952,7.98,12.424,17.126,16.414,27.439c4.156,10.743,6.233,21.609,6.233,32.595
	c0,10.092-3.912,19.282-11.737,27.573c-5.45,5.758-13.999,12.043-25.649,18.852c-6.167,3.504-10.683,6.096-13.546,7.775
	c-4.929,2.895-8.798,5.416-11.605,7.561c-3.604,2.74-6.239,5.404-7.908,7.99c-1.89,2.93-2.681,5.951-2.371,9.07
	c-6.355,0.42-13.744-1.156-22.167-4.727c-8.853-3.758-17.011-8.98-24.472-15.668c-8.356-7.494-14.695-15.883-19.017-25.168
	c-4.941-10.6-6.881-21.686-5.819-33.258c-3.714-14.513-4.41-27.616-2.089-39.31c2.188-10.954,6.875-20.067,14.059-27.34
	c6.931-7.008,15.635-11.788,26.114-14.341c10.479-2.565,21.83-2.675,34.054-0.332c8.688-1.636,17.48-0.453,26.378,3.548
	C168.856,33.729,176.565,39.643,183.584,47.689z"/>
<path fill-rule="evenodd" clip-rule="evenodd" fill="#FFFFFF" stroke="#000000" stroke-width="1.5" stroke-linecap="round" stroke-linejoin="round" stroke-miterlimit="10" d="
	M205.734,65.396c5.604,6.344,9.942,14.457,13.017,24.339c2.783,8.909,4.448,18.94,4.989,30.092c0.21,4.41-0.928,11.545-3.415,21.405
	c-2.111,8.389-4.582,16.496-7.411,24.322c-2.045,5.658-2.99,12.035-2.835,19.133c0.088,3.734,0.431,7.727,1.027,11.971
	c0.066,0.961,0.282,2.227,0.647,3.797c0.22,0.916,0.612,2.414,1.177,4.492c0.497,0.664,2.012,2.703,4.542,6.119
	c2.311,3.205,3.537,5.105,3.681,5.703c0.189,0.818,0.276,1.453,0.265,1.906c-0.011,0.563-0.17,1-0.48,1.311
	c-0.178,0.164-0.448,0-0.812-0.498c-0.553-0.74-1.211-1.26-1.973-1.559c1.071,2.809,1.631,4.891,1.675,6.25
	c0.055,1.791,0.021,3.066-0.101,3.83c-0.109,0.719-0.337,1.139-0.68,1.26c-0.176,0.057-0.436-0.33-0.778-1.16
	c-0.134-0.332-0.459-1.244-0.979-2.736c0.077,2.477-0.05,4.494-0.381,6.053c-0.344,1.646-0.847,2.398-1.51,2.254
	c-0.288-0.066-0.425-0.895-0.414-2.486c0.01-1.934-0.111-3.244-0.365-3.93v-0.018c-0.319,2.498-0.768,4.295-1.342,5.389
	c-0.984,1.902-1.902,3.084-2.753,3.549c-0.874,0.475-0.983-0.236-0.331-2.139c0.597-1.725,0.712-4.969,0.347-9.732
	c-0.132-1.746-0.298-3.15-0.496-4.211c-0.189-1.072-0.315-1.293-0.382-0.662c-0.242,2.332-0.492,4.018-0.745,5.055
	c-0.487,2.045-1.14,2.887-1.957,2.521c-0.719-0.322-1.228-1.072-1.525-2.256c-0.343-1.393-0.647-2.232-0.912-2.52
	c-2.078-2.232-3.515-4.404-4.311-6.516c-0.232-0.641-0.476-1.477-0.729-2.504c-0.277-1.082-0.492-1.857-0.648-2.32
	c-0.232-0.652-0.276-1.52-0.133-2.604c0.243-1.305,0.425-2.295,0.547-2.969c0.42-2.541,0.012-4.398-1.227-5.568
	c-0.52-0.5-5.029-4.002-13.529-10.514c-7.87-6.035-12.64-10.059-14.309-12.068c-5.56,1.336-11.771,2.584-18.635,3.746
	c-5.151,0.861-10.203,1.393-15.154,1.592c-0.32,9.516,1.453,17.088,5.322,22.713c1.349,1.969,2.99,3.742,4.924,5.324
	c0.486,0.387,1.886,1.381,4.195,2.982c0.939,0.652,2.221,1.195,3.846,1.625c0.476,0.133,2.051,0.482,4.726,1.045
	c4.41,0.928,7.81,2.283,10.196,4.063c3.04,2.287,5.091,4.791,6.151,7.51c0.862,2.223,1.243,5.252,1.145,9.086
	c-0.034,1.57-0.398,2.559-1.095,2.967c-0.764,0.455-1.388-0.584-1.874-3.115c-0.508-2.631-1.636-5.029-3.382-7.195
	c-1.525-1.879-3.288-3.34-5.288-4.377l0.961,2.982c0.729,2.377,1.337,4.555,1.824,6.533c1.547,6.301,1.568,9.373,0.065,9.219
	c-0.818-0.076-1.68-0.758-2.586-2.039c-0.608-0.852-1.448-2.322-2.521-4.41c-1.248-2.443-2.155-4.129-2.719-5.059
	c-1.095-1.811-2.156-3.127-3.184-3.945l1.111,2.604c0.861,2.1,1.581,4.051,2.154,5.852c1.869,5.75,2.013,8.926,0.432,9.535
	c-1.083,0.143-2.757-2.111-5.024-6.766c-1.193-2.531-2.072-4.354-2.636-5.471c-0.973-1.912-1.769-3.189-2.387-3.83
	c-0.066,0.066-0.824,0.221-2.271,0.465l0.547,2.287c0.398,1.813,0.712,3.465,0.945,4.957c0.729,4.764,0.414,6.986-0.945,6.666
	c-0.763-0.178-1.476-0.73-2.139-1.658c-0.53-0.764-1.172-2-1.923-3.713c-0.951-2.289-1.73-4.141-2.339-5.555
	c-1.104-2.598-2.221-4.98-3.349-7.146c-3.67-1.746-10.29-9.34-19.862-22.781c-3.327-4.664-9.335-13.563-18.021-26.691
	c-2.399-2.234-4.941-5.119-7.627-8.656c-2.841-3.768-5.421-7.736-7.743-11.904c-5.637-10.102-8.456-18.867-8.456-26.295
	c0-11.097,1.315-21.769,3.946-32.015c2.885-11.186,7.057-20.647,12.518-28.384c6.102-8.632,13.451-14.551,22.051-17.757
	c9.617-3.593,20.476-3.647,32.579-0.166C173.637,46.12,192.659,50.585,205.734,65.396z"/>
<path fill-rule="evenodd" clip-rule="evenodd" fill="#FFFFFF" stroke="#000000" stroke-width="1.5" stroke-linecap="round" stroke-linejoin="round" stroke-miterlimit="10" d="
	M215.069,110.155c-2.554-3.813-6.014-7.909-10.379-12.286c-4.277-4.067-6.925-6.682-7.942-7.842
	c-3.139-2.907-6.455-5.753-9.947-8.539c-4.365-3.482-7.732-5.792-10.097-6.93c-4.72-2.598-8.24-4.394-10.562-5.389
	c-4.023-1.724-7.499-2.161-10.428-1.31c-3.771-0.994-8.031-0.983-12.783,0.034c-1.481,0.321-3.135,0.773-4.958,1.359
	c-1.989,0.63-3.072,0.967-3.249,1.012c-3.648,2.332-7.091,4.957-10.33,7.875c-1.171,1.061-4.034,3.852-8.587,8.373
	c-2.598,2.365-5.201,5.106-7.809,8.223c-3.67,4.41-6.661,8.804-8.97,13.181c-6.521,12.423-6.809,23.205-0.862,32.346
	c3.482,5.361,9.196,8.887,17.144,10.578c2.497,0.531,5.51,0.922,9.035,1.178c4.023,0.299,6.235,0.48,6.632,0.547
	c0.531,0.961,1.454,2.658,2.769,5.09c1.282,2.244,2.525,4.123,3.729,5.637c3.416,4.322,7.152,6.555,11.209,6.699
	c4.067,0.154,9.218-1.742,15.451-5.688c2.576-1.625,4.925-3.365,7.048-5.223c2.089-1.824,3.586-3.432,4.492-4.824
	c0.21-0.023,2.896-0.057,8.059-0.1c4.664-0.033,8.698-0.254,12.102-0.662c10.909-1.316,18.057-4.672,21.439-10.064
	C223.729,133.117,222.994,122.025,215.069,110.155z"/>
<path fill-rule="evenodd" clip-rule="evenodd" fill="#FFFFFF" stroke="#000000" stroke-width="1.5" stroke-linecap="round" stroke-linejoin="round" stroke-miterlimit="10" d="
	M132.999,64.7c1.327,1.636,1.902,3.481,1.726,5.538c-3.648,2.332-7.091,4.958-10.33,7.875c-1.171,1.061-4.034,3.852-8.587,8.373
	c-1.935-2.101-3.509-4.571-4.726-7.411c-1.171-2.73-1.868-5.433-2.089-8.108c-0.221-2.741,0.095-5.051,0.945-6.93
	c0.918-2.034,2.366-3.327,4.344-3.88c2.067-0.575,4.328-0.773,6.781-0.597c2.453,0.166,4.725,0.68,6.813,1.542
	C130.098,62.03,131.806,63.229,132.999,64.7z"/>
<path fill-rule="evenodd" clip-rule="evenodd" fill="#FFFFFF" stroke="#000000" stroke-width="1.5" stroke-linecap="round" stroke-linejoin="round" stroke-miterlimit="10" d="
	M200.016,62.362c1.956,0.607,3.314,2.017,4.078,4.228c0.707,2.022,0.845,4.498,0.413,7.428c-0.408,2.841-1.292,5.676-2.651,8.505
	c-1.404,2.951-3.107,5.444-5.107,7.478c-2.199-2.034-5.753-4.902-10.66-8.605c-3.525-2.664-6.653-4.952-9.384-6.864
	c0.574-5.582,3.598-9.451,9.068-11.606c2.255-0.896,4.698-1.376,7.329-1.442C195.588,61.405,197.893,61.698,200.016,62.362z"/>
<path d="M154.796,164.77c-2.022-3.672-2.28-3.92-2.397-4.032c-0.671-0.67-1.77-0.995-3.36-0.995c-0.203,0-0.414,0.005-0.571,0.018
	c-1.91-0.17-3.093,0.027-3.688,0.604c-0.287,0.272-0.828,1.031-2.217,4.511c-0.466,1.766,0.033,3.305,1.483,4.571
	c1.274,1.121,2.844,1.689,4.663,1.689c1.838,0,3.477-0.6,4.873-1.783C155.584,167.64,155.354,165.927,154.796,164.77z"/>
<path d="M90.887,188.458c-0.323,0-0.61-0.229-0.673-0.559c-0.402-2.123-0.663-4.155-0.773-6.041
	c-0.127-1.981-0.079-3.443,0.146-4.465c0.082-0.37,0.444-0.604,0.818-0.522c0.37,0.082,0.604,0.448,0.522,0.817
	c-0.195,0.883-0.234,2.257-0.117,4.086c0.107,1.831,0.36,3.805,0.752,5.869c0.071,0.372-0.174,0.731-0.546,0.802
	C90.972,188.454,90.929,188.458,90.887,188.458z"/>
<path d="M96.043,191.325c-0.327,0-0.617-0.235-0.675-0.568c-0.391-2.245-0.645-4.538-0.755-6.815
	c-0.139-2.539-0.052-4.233,0.267-5.177c0.121-0.359,0.511-0.551,0.869-0.431c0.359,0.121,0.552,0.511,0.431,0.87
	c-0.177,0.524-0.355,1.761-0.196,4.667c0.108,2.226,0.355,4.461,0.737,6.649c0.065,0.374-0.185,0.729-0.558,0.794
	C96.122,191.321,96.082,191.325,96.043,191.325z"/>
<path d="M102.095,190.098c-0.357,0-0.659-0.276-0.684-0.639c-0.118-1.717-0.534-3.915-1.238-6.533
	c-0.901-3.28-1.295-3.933-1.395-4.055c-0.239-0.294-0.195-0.726,0.098-0.965c0.293-0.241,0.726-0.196,0.965,0.098
	c0.282,0.347,0.726,1.178,1.655,4.563c0.727,2.707,1.158,4.993,1.283,6.799c0.026,0.378-0.26,0.705-0.638,0.731
	C102.126,190.098,102.11,190.098,102.095,190.098z"/>
<path fill="#231F20" d="M129.833,74.016c-0.198,0-0.395-0.085-0.53-0.25c-3.09-3.76-6.45-5.943-9.987-6.49
	c-2.173-0.343-4.532-0.043-7.015,0.893c-0.355,0.134-0.75-0.045-0.884-0.399c-0.134-0.354,0.045-0.75,0.399-0.884
	c2.709-1.022,5.303-1.345,7.711-0.965c3.878,0.599,7.524,2.946,10.834,6.974c0.241,0.292,0.198,0.725-0.094,0.965
	C130.141,73.965,129.987,74.016,129.833,74.016z"/>
<path fill="#231F20" d="M182.706,79.114c-0.154,0-0.309-0.051-0.437-0.157c-0.292-0.241-0.334-0.673-0.093-0.966
	c3.321-4.028,6.973-6.374,10.853-6.973c2.4-0.38,4.997-0.057,7.709,0.964c0.354,0.134,0.533,0.529,0.399,0.884
	s-0.524,0.535-0.884,0.4c-2.485-0.937-4.846-1.235-7.013-0.893c-3.539,0.547-6.905,2.73-10.006,6.491
	C183.1,79.029,182.903,79.114,182.706,79.114z"/>
<path fill-rule="evenodd" clip-rule="evenodd" d="M146.052,101.066c1.172,1.193,1.952,2.249,2.339,3.167
	c0.642,1.492,0.503,6.339-0.415,14.54c-0.929,8.268-2.056,14.524-3.382,18.768c-2.797,1.095-5.848,3.652-9.152,7.678
	c-1.403,1.723-2.497,3.32-3.282,4.791c-0.818,1.557-1.123,2.695-0.913,3.416c-0.396-0.066-2.608-0.25-6.632-0.547
	c-3.525-0.256-6.538-0.646-9.035-1.178c-7.947-1.691-13.662-5.219-17.144-10.578c-4.576-7.053-5.421-15.154-2.537-24.306
	c1.901-4.399,5.261-8.373,10.081-11.921c4.797-3.559,10.782-6.494,17.956-8.804c6.188-2.001,11.899-1.592,17.127,1.227
	C142.94,98.325,144.604,99.574,146.052,101.066z"/>
<path fill-rule="evenodd" clip-rule="evenodd" d="M162.346,103.198c2.012-1.503,4.271-2.802,6.781-3.896
	c6.875-3.04,13.274-3.614,19.199-1.724c6.831,2.188,13.59,5.886,20.277,11.092c7.218,5.615,11.351,10.849,12.4,15.701
	c1.492,6.975,0.249,13.645-3.729,20.013c-3.382,5.393-10.529,8.748-21.439,10.064c-3.403,0.408-7.438,0.629-12.102,0.662
	c-5.163,0.043-7.849,0.076-8.059,0.1c-0.154-0.895-0.884-2.244-2.189-4.045c-1.315-1.814-2.891-3.637-4.726-5.473
	c-4.608-4.608-8.488-7.106-11.639-7.493c0-6.179,0.155-12.358,0.465-18.536c0.376-7.594,0.878-12.021,1.508-13.281
	C159.494,105.574,160.577,104.513,162.346,103.198z"/>
<g>
	<path fill-rule="evenodd" clip-rule="evenodd" fill="#FFFFFF" d="M140.99,112.251c2.466,1.104,4.787,2.509,6.965,4.21
		c-0.387,3.935-0.895,7.798-1.525,11.589c-0.767,4.58-1.301,7.007-2.105,9.583c-2.178,0.852-4.638,2.741-7.379,5.671
		c-3.937,4.207-4.617,5.816-5.405,7.561c-5.526-0.498-10.334-1.133-14.424-1.906c-7.825-1.494-12.291-3.531-13.396-6.119
		c-1.856-5.969-1.901-11.279-0.132-15.933c1.47-3.879,4.156-7.217,8.057-10.014c3.074-2.2,6.704-3.946,10.894-5.239
		c3.227-0.995,6.029-1.536,8.406-1.625C134.105,109.908,137.454,110.648,140.99,112.251z"/>
	<path d="M131.823,151.35l-0.324-0.029c-5.521-0.497-10.389-1.141-14.468-1.912c-8.062-1.539-12.553-3.629-13.732-6.389
		c-1.895-6.086-1.937-11.547-0.139-16.275c1.496-3.947,4.261-7.386,8.218-10.223c3.1-2.218,6.809-4.003,11.025-5.305
		c3.25-1.002,6.118-1.555,8.524-1.645c3.21-0.124,6.667,0.637,10.251,2.262c2.483,1.112,4.858,2.548,7.058,4.267l0.198,0.155
		l-0.024,0.25c-0.386,3.922-0.9,7.832-1.529,11.619c-0.771,4.603-1.306,7.036-2.12,9.645l-0.065,0.209l-0.204,0.08
		c-2.106,0.824-4.533,2.694-7.212,5.558c-3.799,4.06-4.514,5.645-5.271,7.322L131.823,151.35z M131.616,110.474
		c-0.219,0-0.438,0.004-0.654,0.013c-2.327,0.086-5.116,0.626-8.289,1.604c-4.122,1.272-7.743,3.014-10.762,5.174
		c-3.808,2.729-6.465,6.028-7.896,9.804c-1.723,4.533-1.675,9.793,0.141,15.635c1.02,2.381,5.414,4.349,13.046,5.806
		c3.969,0.751,8.697,1.38,14.055,1.87c0.763-1.684,1.589-3.362,5.354-7.388c2.688-2.873,5.156-4.789,7.34-5.701
		c0.766-2.488,1.285-4.883,2.027-9.316c0.612-3.686,1.116-7.489,1.497-11.307c-2.086-1.605-4.329-2.95-6.672-4
		C137.591,111.212,134.5,110.474,131.616,110.474z"/>
</g>
<g>
	<path fill-rule="evenodd" clip-rule="evenodd" fill="#FFFFFF" d="M165.52,111.505c3.802-1.614,7.301-2.381,10.495-2.305
		c4.93,0.111,9.561,0.896,13.894,2.354c4.608,1.547,8.527,3.747,11.754,6.599c7.462,6.587,10.342,15.58,8.639,26.975
		c-1.116,2.607-6.892,4.322-17.325,5.139c-6.632,0.521-12.916,0.643-18.852,0.365c-2.056-2.939-4.614-5.725-7.677-8.356
		c-3.548-3.052-6.543-4.725-8.986-5.022c0-7.804,0.21-14.972,0.63-21.504C160.116,114.169,162.591,112.754,165.52,111.505z"/>
	<path d="M180.443,151.234c-2.145,0-4.277-0.049-6.34-0.145l-0.225-0.011l-0.129-0.185c-2.023-2.894-4.581-5.677-7.6-8.271
		c-3.46-2.976-6.402-4.63-8.744-4.915l-0.401-0.049v-0.405c0-7.777,0.212-15.022,0.631-21.534l0.013-0.205l0.162-0.126
		c2.049-1.6,4.582-3.048,7.53-4.305c3.844-1.632,7.43-2.433,10.686-2.341c4.952,0.111,9.673,0.912,14.028,2.378
		c4.646,1.561,8.654,3.811,11.911,6.69c7.551,6.666,10.508,15.879,8.788,27.385l-0.032,0.112c-1.2,2.806-6.993,4.576-17.709,5.415
		C188.697,151.063,184.469,151.234,180.443,151.234z M174.37,150.187c5.834,0.262,12.077,0.137,18.57-0.375
		c12.577-0.984,16.153-3.148,16.918-4.812c1.651-11.15-1.208-20.068-8.498-26.503c-3.165-2.798-7.066-4.987-11.597-6.508
		c-4.269-1.438-8.897-2.222-13.759-2.331c-3.125-0.077-6.583,0.688-10.306,2.269c-2.797,1.192-5.207,2.558-7.164,4.059
		c-0.401,6.329-0.608,13.349-0.616,20.875c2.45,0.433,5.417,2.136,8.827,5.069C169.759,144.519,172.323,147.296,174.37,150.187z"/>
</g>
<path d="M140.554,123.023c-0.646,0-1.342-0.08-2.064-0.238c-1.091-0.218-2.108-0.713-3.013-1.47
	c-0.806-0.672-1.404-1.443-1.778-2.289c-0.072-0.164-0.077-0.35-0.014-0.519c0.531-1.414,1.313-2.506,2.325-3.246
	c1.063-0.783,2.251-1.073,3.493-0.851c1.851,0.34,3.286,1.169,4.271,2.465c0.821,1.093,1.235,2.358,1.235,3.764
	c0,0.138-0.041,0.272-0.119,0.386c-0.64,0.94-1.595,1.559-2.836,1.841C141.577,122.972,141.074,123.023,140.554,123.023z
	 M135.074,118.723c0.292,0.555,0.722,1.072,1.282,1.54c0.727,0.608,1.539,1.005,2.414,1.18c1.131,0.247,2.124,0.274,2.985,0.086
	c0.82-0.186,1.438-0.549,1.878-1.106c-0.038-1.025-0.352-1.917-0.954-2.719c-0.78-1.026-1.9-1.663-3.421-1.942
	c-0.853-0.152-1.668,0.04-2.438,0.607C136.09,116.903,135.504,117.694,135.074,118.723z"/>
<path d="M164.032,123.458L164.032,123.458c-0.532,0-1.044-0.053-1.521-0.159c-1.245-0.282-2.199-0.902-2.839-1.842
	c-0.077-0.114-0.118-0.248-0.118-0.386c0-1.409,0.415-2.669,1.233-3.747c0.974-1.306,2.407-2.138,4.257-2.466
	c1.241-0.22,2.428,0.062,3.503,0.831c1.02,0.747,1.797,1.84,2.317,3.256c0.062,0.167,0.056,0.352-0.017,0.515
	c-0.374,0.845-0.967,1.614-1.76,2.285c-0.904,0.757-1.925,1.258-3.037,1.491C165.342,123.383,164.662,123.458,164.032,123.458z
	 M160.931,120.853c0.438,0.558,1.057,0.92,1.881,1.107c0.376,0.083,0.788,0.126,1.221,0.126l0,0c0.536,0,1.121-0.065,1.739-0.194
	c0.888-0.186,1.707-0.589,2.434-1.198c0.551-0.466,0.978-0.984,1.27-1.542c-0.42-1.027-1.001-1.818-1.73-2.352
	c-0.775-0.554-1.585-0.746-2.459-0.591c-1.516,0.27-2.629,0.904-3.401,1.94C161.28,118.943,160.969,119.829,160.931,120.853z"/>
<path d="M139.984,114.573h-0.521c-1.831,0-3.321,1.47-3.321,3.277s1.49,3.277,3.321,3.277h0.521c1.831,0,3.321-1.47,3.321-3.277
	S141.815,114.573,139.984,114.573z"/>
<path d="M165.516,115.217h-0.521c-1.831,0-3.321,1.47-3.321,3.277s1.49,3.277,3.321,3.277h0.521c1.832,0,3.322-1.47,3.322-3.277
	S167.348,115.217,165.516,115.217z"/>
</svg>
