<?xml version="1.0" encoding="utf-8"?>
<!-- Generator: Adobe Illustrator 17.0.1, SVG Export Plug-In . SVG Version: 6.00 Build 0)  -->
<!DOCTYPE svg PUBLIC "-//W3C//DTD SVG 1.1//EN" "http://www.w3.org/Graphics/SVG/1.1/DTD/svg11.dtd">
<svg version="1.1" id="Layer_1" xmlns="http://www.w3.org/2000/svg" xmlns:xlink="http://www.w3.org/1999/xlink" x="0px" y="0px"
	 width="247.349px" height="164.421px" viewBox="3.273 51.273 247.349 164.421"
	 enable-background="new 3.273 51.273 247.349 164.421" xml:space="preserve">
<g>
	<g id="Layer_1_1_">
		<g>
			<g id="Layer_1_3_">
				<g>
					<path fill="#FFFFFF" d="M58.229,115.936l0.125,0.11h0.22l0.705-1.27l-0.235-0.36c-0.637,0.637-1.103,1.029-1.395,1.175
						c0.157,0.073,0.313,0.188,0.47,0.345C58.119,115.936,58.229,115.936,58.229,115.936z M38.34,98.366v-0.125
						c0.334-0.669,0.449-1.285,0.344-1.85c-0.146-0.826-0.459-1.333-0.94-1.52c-0.229-0.167-0.501-0.251-0.814-0.251
						c-0.324,0-0.632,0.083-0.925,0.251c-0.731,0.25-1.312,0.757-1.74,1.52c-0.387,0.627-0.58,1.244-0.58,1.85v0.36
						c0.115,0.857,0.46,1.4,1.035,1.63c0.167,0.146,0.365,0.22,0.595,0.22c0.272,0.157,0.538,0.235,0.799,0.235
						c0.481,0,1.024-0.23,1.63-0.689c0.23-0.23,0.387-0.476,0.471-0.737C38.298,99.03,38.34,98.732,38.34,98.366z M150.607,150.025
						c0.335-0.157,0.527-0.235,0.58-0.235h-2.681c0.115,0.042,0.314,0.12,0.597,0.235c0.271,0.104,0.501,0.183,0.689,0.234
						C150.002,150.26,150.273,150.182,150.607,150.025z M216.812,98.601c0.22,0.219,0.58,0.596,1.081,1.128
						c0.513,0.543,0.931,0.977,1.254,1.301l-1.521,1.521c0.962,1.097,1.74,2.184,2.336,3.26c1.734,2.727,3.208,5.945,4.42,9.654
						v0.58l1.63,5.125l0.925-0.471c-0.053,0.125-0.053,0.209,0,0.251c0.062,0.042,0.178,0.037,0.345-0.016
						c1.045,0,1.859,0.079,2.445,0.235c4.222,2.706,7.675,7.204,10.359,13.494l-0.705,0.815c3.041,2.695,4.32,6.457,3.84,11.284
						l0.94,0.126c2.059,2.988,2.445,6.399,1.16,10.234l-1.285,0.109h-0.345c-0.042,0.053-0.115,0.089-0.22,0.11l-4.436,0.36h-0.109
						c-0.084-0.073-0.204-0.109-0.36-0.109c0-0.053-0.016-0.089-0.048-0.11l-0.062-0.016c-0.94-0.24-1.713-0.663-2.319-1.27
						l-0.47,0.455c1.984,0.605,4.273,1.421,6.864,2.444c0.073,0,0.267,0.157,0.58,0.471c-0.68,2.789-2.268,4.185-4.765,4.185
						c0-0.282-0.078-0.59-0.235-0.925c-2.414,0.355-4.352-0.423-5.814-2.335l0.345-0.925c-1.693-0.429-3.401-1.322-5.125-2.681
						h-0.58c-2.184,0-4.509-0.308-6.975-0.924c-3.762-1.15-7.602-3.094-11.52-5.831c-0.063,0-0.104,0.005-0.126,0.016
						c-0.021,0.011-0.058,0.047-0.109,0.109h-0.126c-0.396,0.324-1.055,0.711-1.975,1.16c-3.082,1.285-5.992,1.714-8.729,1.285V152
						h-0.11c-0.146,0-0.387,0.021-0.721,0.062s-0.601,0.062-0.799,0.062l0.125,1.051c-1.107,1.87-2.461,3.056-4.06,3.558
						c-1.619,0.512-3.526,0.334-5.721-0.533l-0.925,1.505c-2.173,1.442-5.741,2.45-10.705,3.024c-2.1,0.408-4.038,0.68-5.814,0.815
						c-0.084,0.042-0.229,0.078-0.438,0.109c-0.271,0.042-0.476,0.084-0.611,0.126c-3.052-1.244-5.574-2.487-7.57-3.73
						c-1.296-0.909-2.304-1.876-3.025-2.899h-2.899c-4.075,1.505-7.57,0.34-10.485-3.495c0-0.313,0.042-0.549,0.126-0.705v-0.11
						c0.136-0.042,0.271-0.12,0.407-0.234c0.188-0.179,0.324-0.293,0.407-0.346l0.235-0.125c0.052,0,0.083-0.005,0.094-0.016
						s0.016-0.042,0.016-0.094c-0.073,0.073-0.229,0.109-0.47,0.109c-2.163,0.376-3.83,1.04-5,1.99
						c-1.965,0-3.902-0.778-5.814-2.335c-4.336,1.494-8.563,1.651-12.68,0.47c-3.95,1.118-7.753,0.769-11.411-1.05l-0.345,0.58
						c-2.11,1.233-4.321,1.97-6.63,2.21h-0.235c-0.408,0.052-0.862,0.062-1.364,0.031c-0.136-0.011-0.611-0.058-1.426-0.141h-0.125
						c-0.146,0-0.376-0.079-0.689-0.235c-2.142-0.313-4.279-1.207-6.41-2.681c-3.03,1.118-5.397,1.547-7.1,1.285
						c-0.878-0.449-1.688-0.799-2.429-1.05c-2.372,0.533-4.347,1.191-5.925,1.975l0.345-1.159c1.118-0.825,2.048-1.562,2.79-2.21
						c0.083-0.136,0.141-0.23,0.172-0.282c0.042-0.094,0.062-0.193,0.062-0.298c-0.177-0.157-0.308-0.271-0.392-0.345
						c-0.157-0.146-0.256-0.267-0.298-0.36l-3.495,0.705h-1.05c-0.951-0.679-1.881-1.065-2.79-1.16h-1.16
						c-0.292-0.449-0.528-0.763-0.706-0.94c-0.585-1.014-1.008-1.828-1.27-2.444c-0.449-1.004-0.799-2.127-1.05-3.37
						c0-0.22-0.021-0.591-0.062-1.113s-0.062-0.924-0.062-1.206c0-0.471,0.042-0.862,0.125-1.176v-0.11
						c-3.145-1.797-4.66-4.435-4.545-7.915l-0.815-0.11c-0.105-4.419-2.121-8.187-6.05-11.3c-0.073,0-0.152,0.042-0.235,0.125
						c-0.94,0.512-1.74,0.898-2.398,1.16c-0.951,0.386-1.896,0.658-2.837,0.815c-2.748,0.773-6.938,1.16-12.57,1.16
						c-8.223,0.282-12.607,0.439-13.15,0.47l-1.505-0.47c-0.345,0.815-0.81,1.515-1.395,2.1c-0.063,0-0.1-0.005-0.11-0.016
						s-0.016-0.042-0.016-0.094l-0.925,0.58l-3.37,1.27c0.177,0.209,0.292,0.366,0.345,0.47c-1.327,0.219-2.686,0.104-4.075-0.345
						H14.25c-2.383-0.794-4.285-2.732-5.706-5.815l-0.815-0.815c0.031,0,0.068-0.037,0.11-0.11c0.042-0.083,0.083-0.125,0.125-0.125
						l1.74-2.445c0-0.083,0.078-0.125,0.235-0.125v-0.109c0-0.094,0.079-0.209,0.235-0.345c0.115-0.345,0.115-0.648,0-0.909
						c-0.115-0.251-0.35-0.491-0.706-0.721v-0.345c-0.104-0.115-0.104-0.235,0-0.36v-0.11c0.345-0.397,0.476-0.768,0.392-1.113
						c-0.094-0.324-0.376-0.575-0.847-0.752c-0.083,0.073-0.162,0.11-0.235,0.11c-0.23,0-0.502,0.157-0.815,0.47
						c-0.073,0.083-0.209,0.183-0.408,0.298c-0.188,0.115-0.324,0.209-0.407,0.282c-0.105,0.052-0.533,0.324-1.285,0.815
						c0.125-0.115,0.308-0.313,0.548-0.596c0.261-0.303,0.465-0.528,0.611-0.674l0.094-0.063c0.084-0.042,0.172-0.062,0.267-0.062
						h0.235c4.263-4.159,9.613-11.332,16.049-21.52c5.726-7.836,12.319-12.455,19.78-13.855c0.47-0.157,1.249-0.309,2.335-0.455
						l1.269,0.455c-0.104,3.02,0.559,6.551,1.991,10.595l2.555-0.705c-0.93-2.675-1.202-5.585-0.815-8.73
						c0-0.021,0.005-0.042,0.016-0.062c0.021-0.063,0.052-0.115,0.094-0.157c0.136-0.982,0.371-1.875,0.706-2.68v0.109
						c0,0.063-0.026,0.162-0.078,0.298c-0.053,0.136-0.105,0.23-0.157,0.282v0.125c-0.543,2.633-0.386,5.423,0.47,8.37
						c0.554,1.776,1.369,3.328,2.445,4.655h0.109c0,0.042,0.021,0.084,0.063,0.125s0.062,0.078,0.062,0.11
						c0.648,0.658,1.395,1.17,2.242,1.536c0.877,0.375,1.797,0.564,2.758,0.564h0.345c0.136-0.136,0.292-0.371,0.47-0.705
						c0.157-0.334,0.235-0.564,0.235-0.69c0.074-0.083,0.11-0.162,0.11-0.235c0-0.157,0.079-0.313,0.235-0.47
						c0.157-0.23,0.413-0.617,0.768-1.16c0.334-0.491,0.622-0.877,0.862-1.16c0.334-0.334,0.606-0.569,0.815-0.706v-0.109
						c2.059-2.414,3.61-4.666,4.655-6.755l1.05,0.58c5.601,0,10.443-1.087,14.529-3.26l0.58,0.94c2.916-1.41,5.82-3.077,8.715-5
						l0.595,0.925c4.138-1.181,7.586-2.811,10.345-4.89c2.664-0.71,5-1.567,7.006-2.571c2.09-1.044,3.908-2.283,5.454-3.714
						l0.925,0.815c2.591-2.811,5.852-4.984,9.78-6.52c2.089-0.847,4.111-1.327,6.065-1.442c1.839-0.115,3.657,0.094,5.454,0.627
						c0.313-0.146,0.543-0.219,0.689-0.219c1.902-0.491,3.224-0.805,3.966-0.94c5.224-0.919,9.607-0.141,13.149,2.335
						c3.375,0,7.017,0.465,10.925,1.395h0.125l-0.47,1.74c2.915,0.627,5.788,1.521,8.62,2.68c0.772,0.062,2.361,0.334,4.765,0.815
						l-0.11,1.16c2.268,3.292,5.214,5.23,8.84,5.815l-0.125,1.755c3.177,1.755,7.444,4.467,12.805,8.134l-1.52,2.335
						c1.441,0.867,3.344,1.761,5.704,2.68l-0.689,1.975c5.36,2.916,8.851,7.027,10.47,12.335
						C216.111,98.011,216.498,98.361,216.812,98.601z"/>
					<path fill="#373535" d="M35.362,96.626c-0.334-0.22-0.7-0.298-1.097-0.235c0.428-0.763,1.008-1.27,1.74-1.52
						c0.292-0.167,0.601-0.251,0.925-0.251c0.313,0,0.585,0.083,0.814,0.251c0.481,0.188,0.794,0.694,0.94,1.52
						c0.105,0.564-0.01,1.181-0.344,1.85c0,0.042-0.021,0.104-0.063,0.188c-0.042,0.073-0.062,0.13-0.062,0.172
						c-0.397,0.689-0.977,1.233-1.74,1.63c-0.313,0.146-0.7,0.22-1.16,0.22c-0.23,0-0.428-0.073-0.595-0.22
						c-0.575-0.229-0.92-0.773-1.035-1.63v-0.36l0.062,0.016c0.031,0.021,0.047,0.058,0.047,0.11c0.47,0.177,0.883,0.23,1.238,0.157
						c0.366-0.073,0.69-0.282,0.972-0.627c0.073,0,0.109-0.115,0.109-0.345C35.937,97.133,35.686,96.825,35.362,96.626z"/>
					<path fill="#FFFFFF" d="M36.114,97.551c0,0.23-0.037,0.345-0.109,0.345c-0.282,0.345-0.606,0.554-0.972,0.627
						c-0.355,0.073-0.768,0.021-1.238-0.157c0-0.052-0.016-0.089-0.047-0.11l-0.062-0.016c0-0.606,0.193-1.223,0.58-1.85
						c0.397-0.062,0.763,0.016,1.097,0.235C35.686,96.825,35.937,97.133,36.114,97.551z"/>
					<path fill="#FFFFFF" d="M236.137,156.2c0.606,0.606,1.379,1.029,2.319,1.27l0.062,0.016c0.032,0.021,0.048,0.058,0.048,0.11
						c0.156,0,0.276,0.036,0.36,0.109h0.109l4.436-0.36c0.104-0.021,0.178-0.058,0.22-0.11h0.345c0.293,0.45,0.564,0.8,0.815,1.051
						v0.125c3.447,4.138,5.119,9.451,5.015,15.939l-0.234,2.305c0-0.105,0-0.215,0-0.329c-0.45-2.435-1.265-5.073-2.445-7.915
						c-0.439-0.136-0.826-0.293-1.16-0.471v0.126c-0.355,0.229-0.747,0.345-1.175,0.345c-0.073,0.156-0.267,0.392-0.581,0.705v1.27
						c0.084,0.198,0.199,0.465,0.346,0.799c0.115,0.282,0.193,0.522,0.235,0.722c0,0.345-0.079,0.81-0.235,1.395
						c-0.346,1.745-0.46,3.604-0.346,5.58c-0.919,1.933-2.157,3.866-3.714,5.799c-0.993,1.118-1.928,2.053-2.806,2.806
						c-5.057,4.482-9.242,9.445-12.555,14.89c-1.786,0.323-3.029,0.517-3.729,0.58c-0.669,0.156-1.171,0.234-1.505,0.234
						c-7.147,0.794-16.106,0.602-26.88-0.579h-0.234c-1.056-0.178-2.456-0.335-4.201-0.471c-0.324-0.042-0.789-0.12-1.395-0.235
						c-0.638-0.114-1.103-0.193-1.396-0.234h-0.109c-0.647-0.073-1.557-0.209-2.728-0.408c-1.243-0.198-2.157-0.334-2.742-0.407
						h-0.11c-0.763-0.146-2.293-0.418-4.592-0.815c-2.017-0.354-3.631-0.663-4.843-0.924c-2.748-0.544-4.838-0.962-6.27-1.254
						c-2.455-0.502-4.629-0.978-6.521-1.427c-8.182-1.923-15.903-3.704-23.165-5.345c-20.939-4.2-41.565-3.657-61.878,1.63
						c-0.083,0.073-0.204,0.11-0.36,0.11h-0.345l-1.74-4.765c0-0.063,0.042-0.115,0.125-0.157c0.073-0.052,0.146-0.078,0.219-0.078
						h0.235c0.042-0.042,0.099-0.084,0.172-0.125c0.084-0.042,0.141-0.079,0.173-0.11h0.11c2.612-0.773,5.057-1.474,7.335-2.1
						c21.702-5.569,43.843-6.035,66.423-1.396c4.097,0.93,10.925,2.561,20.485,4.891c5.35,1.337,10.548,2.502,15.595,3.495
						c1.223,0.209,4.362,0.71,9.42,1.504c11.984,1.567,21.724,1.567,29.215,0c3.364-0.647,6.619-1.734,9.765-3.26
						c1.222-0.606,2.388-1.301,3.495-2.084c0.888-0.606,1.625-1.149,2.21-1.631l1.159-1.159c2.717-2.717,4.075-6.207,4.075-10.47
						c-0.104-2.216-0.878-6.092-2.319-11.63c2.497,0,4.085-1.396,4.765-4.185c-0.313-0.313-0.507-0.471-0.58-0.471
						c-2.591-1.023-4.88-1.839-6.864-2.444L236.137,156.2z"/>
					<path fill="#FFFFFF" d="M244.271,170.385v-1.27c0.314-0.313,0.508-0.549,0.581-0.705c0.428,0,0.819-0.115,1.175-0.345v-0.126
						c0.334,0.178,0.721,0.335,1.16,0.471c1.181,2.842,1.995,5.48,2.445,7.915c0,0.699-0.042,1.201-0.126,1.504l-3.135,9.765
						c0,0.073-0.042,0.151-0.125,0.235c-0.042,0-0.078,0.042-0.109,0.125c-0.042,0.115-0.079,0.188-0.11,0.22l-0.125,0.235
						c-0.031,0.083-0.089,0.162-0.173,0.235c-0.073,0.083-0.13,0.161-0.172,0.234c0,0.031-0.021,0.094-0.063,0.188
						c-0.041,0.094-0.062,0.183-0.062,0.267c-0.042,0-0.078,0.025-0.109,0.078c-0.052,0.084-0.089,0.136-0.109,0.156
						c0,0.084-0.042,0.162-0.126,0.235c-0.031,0-0.067,0.021-0.109,0.062c-0.042,0.032-0.084,0.047-0.125,0.047
						c0,0.157-0.037,0.277-0.11,0.361c-0.146,0.146-0.303,0.376-0.471,0.689c0,0.083-0.036,0.125-0.109,0.125
						c0,0.073-0.042,0.151-0.125,0.235c-0.157,0.156-0.235,0.271-0.235,0.345c-0.042,0-0.1,0.042-0.172,0.125
						c-0.095,0.126-0.151,0.199-0.173,0.22c-0.125,0.167-0.318,0.402-0.58,0.705c-0.282,0.313-0.476,0.544-0.58,0.689
						c-0.386,0.471-0.893,1.014-1.521,1.631c0,0.083-0.036,0.125-0.109,0.125c-1.149,1.139-2.586,2.263-4.31,3.37
						c-2.268,1.117-3.699,1.817-4.295,2.1h-0.125c-2.132,0.711-4.378,1.291-6.74,1.74c3.312-5.444,7.498-10.407,12.555-14.89
						c0.878-0.753,1.812-1.688,2.806-2.806c1.557-1.933,2.795-3.866,3.714-5.799c-0.114-1.976,0-3.835,0.346-5.58
						c0.156-0.585,0.235-1.05,0.235-1.395c-0.042-0.199-0.12-0.439-0.235-0.722C244.47,170.85,244.354,170.583,244.271,170.385z"/>
					<path fill="#FFFFFF" d="M56.364,59.151c-0.198,0.408-0.559,1.082-1.082,2.022c-0.46,0.826-0.794,1.468-1.003,1.928
						c-2.163,1.076-3.908,2.67-5.235,4.781c-0.157,0.271-0.235,0.465-0.235,0.58c0,0.073-0.078,0.188-0.235,0.345l-1.395,4.655
						c0,0.084-0.021,0.204-0.062,0.361c-0.042,0.157-0.063,0.271-0.063,0.345c-3.438-0.23-4.289-2.445-2.555-6.646
						c0.24-0.585,0.512-1.087,0.815-1.505c1.432-4.785,4.106-8.275,8.025-10.469h0.125C54.781,55.975,55.748,57.177,56.364,59.151z"
						/>
					<path fill="#FFFFFF" d="M57.415,66.596l-0.471-3.025c0.125-0.146,0.518-0.653,1.176-1.521c0.46-0.073,1.196-0.109,2.21-0.109
						c2.414,0,4.394,0.512,5.94,1.536c1.526,0.993,2.607,2.461,3.245,4.405c0,0.303,0.042,0.496,0.125,0.58v4.294
						c-0.178,0.668-0.334,1.139-0.47,1.411c-0.878,1.432-1.98,3.192-3.307,5.282c-2.048,3.198-3.156,4.927-3.323,5.188
						c-0.24,0.282-0.528,0.668-0.862,1.16c-0.355,0.543-0.611,0.93-0.768,1.16c-0.157,0.157-0.235,0.313-0.235,0.47
						c0,0.073-0.036,0.151-0.11,0.235c0,0.125-0.078,0.355-0.235,0.69c-0.178,0.334-0.334,0.569-0.47,0.705h-0.345
						c-0.961,0-1.881-0.188-2.758-0.564c-0.835-0.361-1.574-0.862-2.218-1.505c0.091,0.078,0.276,0.183,0.557,0.313
						c0.136,0.094,0.313,0.193,0.533,0.298c0.125,0.062,0.334,0.162,0.627,0.297c0.23-0.156,0.58-0.355,1.05-0.595l0.58-0.58
						c0.617-1.86,1.625-4.649,3.025-8.37C63.01,72.845,61.845,68.926,57.415,66.596z"/>
					<path fill="#FFFFFF" d="M69.279,74.167H69.17c0.136-0.272,0.292-0.742,0.47-1.411C69.64,73.216,69.52,73.686,69.279,74.167z"/>
					<path fill="#FFFFFF" d="M57.415,66.596c4.43,2.33,5.595,6.249,3.495,11.755c-1.4,3.72-2.409,6.51-3.025,8.37l-0.58,0.58
						c-0.47,0.24-0.82,0.439-1.05,0.595c-0.292-0.136-0.501-0.235-0.627-0.297c-0.219-0.104-0.397-0.204-0.533-0.298
						c-0.313-0.146-0.507-0.261-0.58-0.345c0-0.032-0.021-0.068-0.062-0.11s-0.063-0.083-0.063-0.125h-0.11
						c-2.309-4.044-3.281-8.385-2.916-13.024v-0.125c0.052-0.052,0.104-0.146,0.157-0.282c0.052-0.136,0.078-0.235,0.078-0.298
						v-0.109c0-0.062,0.005-0.099,0.016-0.11c0.01-0.011,0.042-0.016,0.094-0.016L57.415,66.596z"/>
					<path fill="#FFFFFF" d="M56.944,63.571l-0.109-1.285c0.491-0.157,0.919-0.235,1.285-0.235
						C57.461,62.918,57.069,63.425,56.944,63.571z"/>
					<path fill="#FFFFFF" d="M56.834,62.286l0.58,4.31l-5.705,6.16c-0.052,0-0.084,0.005-0.094,0.016
						c-0.011,0.011-0.016,0.047-0.016,0.11c-0.334,0.805-0.57,1.698-0.706,2.68c-0.042,0.042-0.073,0.094-0.094,0.157
						c-0.011,0.021-0.016,0.042-0.016,0.062c-0.387,3.145-0.115,6.055,0.815,8.73l-2.555,0.705
						c-1.432-4.043-2.095-7.575-1.991-10.595v-0.345c0-0.073,0.021-0.209,0.063-0.408c0.042-0.188,0.062-0.324,0.062-0.408
						l1.395-4.655c0.157-0.157,0.235-0.272,0.235-0.345c0-0.115,0.079-0.308,0.235-0.58c1.327-2.111,3.072-3.705,5.235-4.781
						c0.355-0.198,0.747-0.36,1.175-0.486c0.104-0.031,0.528-0.141,1.27-0.329h0.112V62.286z"/>
					<path fill="#FFFFFF" d="M56.364,59.151c0.021,0.167,0.099,0.658,0.235,1.474c0.115,0.658,0.193,1.212,0.235,1.661h-0.11
						c-0.742,0.188-1.165,0.298-1.27,0.329c-0.428,0.125-0.82,0.288-1.175,0.486c0.209-0.46,0.543-1.102,1.003-1.928
						C55.805,60.233,56.166,59.559,56.364,59.151z"/>
					<path fill="#FFFFFF" d="M42.76,64.387c0.773-2.853,2.325-5.256,4.655-7.21c1.045-0.878,2.074-1.458,3.088-1.74
						c1.024-0.282,1.969-0.246,2.837,0.11c-3.918,2.194-6.593,5.684-8.025,10.469c-0.303,0.418-0.575,0.92-0.815,1.505
						c-1.734,4.201-0.883,6.416,2.555,6.646c0-0.073,0.021-0.188,0.063-0.345c0.026-0.098,0.044-0.182,0.055-0.251
						c-0.01,0.078-0.028,0.177-0.055,0.298c-0.042,0.199-0.063,0.334-0.063,0.408v0.345l-1.269-0.455
						c-1.087,0.146-1.866,0.298-2.335,0.455C41.893,71.309,41.663,67.897,42.76,64.387z"/>
					<path fill="#FFFFFF" d="M51.834,82.066c-0.856-2.947-1.013-5.737-0.47-8.37c-0.365,4.639,0.606,8.98,2.916,13.024
						C53.204,85.394,52.389,83.842,51.834,82.066z"/>
					<path fill="#FFFFFF" d="M69.169,74.167c-0.251,1.097-0.638,2.063-1.16,2.899c-1.044,2.09-2.596,4.342-4.655,6.755v0.109
						c-0.209,0.136-0.48,0.371-0.815,0.706c0.167-0.261,1.275-1.99,3.323-5.188C67.189,77.358,68.292,75.598,69.169,74.167z"/>
					<path fill="#373535" d="M9.015,109.416c0.47,0.178,0.752,0.429,0.847,0.752c0.083,0.345-0.047,0.716-0.392,1.113v0.11
						c-0.104,0.125-0.104,0.246,0,0.36v0.345c0.355,0.23,0.59,0.47,0.706,0.721c0.115,0.261,0.115,0.564,0,0.909
						c-0.157,0.136-0.235,0.25-0.235,0.345v0.109c-0.418,0.261-1.04,0.998-1.865,2.21l-0.454,0.47
						c-0.69,0.543-1.547,0.815-2.571,0.815c-0.292-0.585-0.485-1.014-0.58-1.285c0-0.209,0.01-0.355,0.031-0.439
						c0.031-0.136,0.099-0.256,0.204-0.36c-0.23-1.274-0.115-2.325,0.345-3.15c0.052-0.073,0.188-0.229,0.408-0.47
						c0.178-0.208,0.313-0.402,0.408-0.58c0.752-0.491,1.18-0.763,1.285-0.815c0.083-0.073,0.219-0.167,0.407-0.282
						c0.199-0.115,0.334-0.214,0.408-0.298c0.313-0.313,0.585-0.47,0.815-0.47C8.853,109.525,8.932,109.489,9.015,109.416z"/>
					<path fill="#606163" d="M5.865,111.391v0.125c-0.085,0.085-0.164,0.167-0.235,0.243C5.725,111.63,5.803,111.507,5.865,111.391z
						"/>
					<path fill="#FFFFFF" d="M4.47,113.365c0.052-0.146,0.136-0.298,0.25-0.455c0.146-0.198,0.256-0.355,0.329-0.47
						c-0.459,0.826-0.575,1.876-0.345,3.15c-0.104,0.104-0.172,0.225-0.204,0.36c-0.021,0.084-0.031,0.23-0.031,0.439
						C3.875,115.209,3.875,114.201,4.47,113.365z"/>
					<path fill="#606163" d="M9.595,114.455l-1.63,2.296c-0.042,0-0.084,0.042-0.125,0.125c-0.042,0.073-0.079,0.11-0.11,0.11
						l-0.109-0.125l0.454-0.47C8.699,115.474,9.206,114.829,9.595,114.455l0.11-0.149c0-0.083,0.078-0.125,0.235-0.125
						C9.838,114.244,9.723,114.335,9.595,114.455z"/>
					<path fill="#FFFFFF" d="M59.969,144.32c0.23-0.126,0.632-0.371,1.207-0.737c0.491-0.313,0.868-0.532,1.129-0.658
						c-0.857-0.073-2.137-0.109-3.84-0.109c-2.236-0.125-4.252-0.011-6.05,0.345c0.46-1.588,2.555-2.675,6.285-3.26
						c-1.892-0.104-3.83-0.528-5.815-1.27c0.982-1.39,2.722-2.216,5.219-2.477c2.456-0.261,5.679,0.021,9.67,0.847h0.11
						c0,0.282,0.021,0.684,0.062,1.206s0.062,0.894,0.062,1.113c0.251,1.243,0.601,2.366,1.05,3.37
						C66.166,143.912,63.135,144.456,59.969,144.32z"/>
					<path fill="#FFFFFF" d="M48.794,158.677c0.251-0.805,0.951-1.672,2.1-2.602c0.084,0,1.871-1.165,5.36-3.495
						c-2.686,0.229-4.2,0.115-4.545-0.345c-0.115-0.335,0.23-0.69,1.034-1.066c0.752-0.355,2.001-0.772,3.746-1.254
						c0.397-0.104,0.898-0.225,1.504-0.36c1.076-0.261,3.406-0.763,6.991-1.505c0.062,0,0.219-0.021,0.47-0.062
						s0.439-0.062,0.564-0.062c1.432-0.46,2.675-1.154,3.73-2.084c0.271,0,0.7,0.078,1.285,0.234h1.16
						c0.909,0.095,1.839,0.481,2.79,1.16h1.05l3.495-0.705c0.042,0.094,0.141,0.214,0.298,0.36c0.083,0.073,0.214,0.188,0.392,0.345
						c0,0.104-0.021,0.204-0.062,0.298c-0.031,0.052-0.089,0.146-0.172,0.282c-0.742,0.647-1.672,1.385-2.79,2.21l-0.345,1.159
						c-1.463,0.784-2.936,1.792-4.419,3.025l-3.73,3.73c-0.324,0.522-0.747,1.107-1.27,1.755c-0.272,0.366-0.664,0.867-1.175,1.505
						c-0.627,0.805-1.197,1.41-1.708,1.818c-0.501,0.396-0.899,0.563-1.191,0.501c-0.355-0.114-0.501-0.71-0.439-1.786
						c0.062-1.056,0.324-2.67,0.784-4.844l-0.345-0.109c-2.957,1.411-6.139,4.044-9.545,7.899c-0.794-1.358-0.522-3.062,0.815-5.109
						c0.742-1.129,1.907-2.487,3.495-4.075v-0.345c-4.148,2.006-7.058,3.902-8.73,5.689
						C48.742,160.202,48.543,159.481,48.794,158.677z"/>
					<path fill="#FFFFFF" d="M69.75,145.841c0.042-0.073,0.141-0.188,0.297-0.346c0.157-0.156,0.251-0.276,0.282-0.36
						c0.178,0.178,0.413,0.491,0.706,0.94C70.449,145.919,70.021,145.841,69.75,145.841z"/>
					<path fill="#FFFFFF" d="M138.743,162.595l-0.925,0.463c0.082-0.044,0.212-0.141,0.392-0.29
						c0.198-0.157,0.334-0.256,0.407-0.298L138.743,162.595z"/>
					<path fill="#FFFFFF" d="M138.617,162.47c-0.073,0.042-0.209,0.141-0.407,0.298c-0.18,0.149-0.31,0.246-0.392,0.29l0.925-0.463
						L138.617,162.47z M144.433,150.135c0.24,0,0.396-0.036,0.47-0.109c0,0.052-0.005,0.083-0.016,0.094s-0.042,0.016-0.094,0.016
						l-0.235,0.125c-0.083,0.053-0.219,0.167-0.407,0.346c-0.136,0.114-0.271,0.192-0.407,0.234v0.11
						c-0.084,0.156-0.126,0.392-0.126,0.705c2.915,3.835,6.41,5,10.485,3.495h2.899c0.722,1.023,1.729,1.99,3.025,2.899
						c1.996,1.243,4.519,2.486,7.57,3.73c-1.766,0-3.124-0.157-4.075-0.471c-0.157,0-0.313,0.042-0.471,0.126
						c-1.577,0.387-2.795,0.716-3.651,0.987c-1.087,0.334-1.923,0.663-2.508,0.987l-2.68,2.085c0.136-0.199,0.292-0.544,0.47-1.035
						c-0.021-0.021-0.131-0.12-0.329-0.298c-0.125-0.104-0.209-0.198-0.251-0.282c-0.146-0.094-0.329-0.192-0.549-0.298
						c-0.261-0.114-0.47-0.214-0.626-0.297v0.125c-0.335,0.229-0.722,0.345-1.16,0.345c-0.031,0.084-0.125,0.204-0.282,0.36
						c-0.157,0.157-0.256,0.271-0.298,0.345c-2.142,2.143-3.887,4.702-5.234,7.68c-0.115,0.084-0.335,0.277-0.659,0.58
						c-0.271,0.262-0.517,0.455-0.736,0.58c-0.24-2.11,0.225-4.169,1.396-6.175c0.25-0.544,0.679-1.332,1.285-2.367
						c0.365-0.627,1.023-1.734,1.975-3.322c-3.532,1.567-6.363,3.077-8.495,4.529c-2.56,1.515-4.425,3.03-5.596,4.545
						c-0.48-2.926,0.413-5.407,2.681-7.444c-2.738,0.909-4.713,1.139-5.925,0.689c0.293-0.898,0.705-1.698,1.238-2.398
						c0.721-0.961,1.63-1.677,2.728-2.146h0.109c0.084-0.073,0.162-0.11,0.235-0.11s0.109-0.041,0.109-0.125
						c1.17-0.418,2.179-0.903,3.025-1.458c1.358-0.898,2.596-2.115,3.714-3.651c-0.041,0.042-0.183,0.104-0.423,0.188
						c-0.334,0.115-0.616,0.209-0.847,0.282l-0.47,0.11c-0.126,0-0.513,0.078-1.16,0.234v0.11c-1.828,0.355-2.8,0.59-2.915,0.705
						c0.334-1.369,1.071-2.492,2.21-3.37C140.603,151.175,142.27,150.511,144.433,150.135z"/>
					<path fill="#FFFFFF" d="M149.793,150.26c-0.188-0.052-0.418-0.13-0.689-0.234c-0.282-0.115-0.481-0.193-0.597-0.235h2.681
						c-0.053,0-0.245,0.078-0.58,0.235C150.273,150.182,150.002,150.26,149.793,150.26z"/>
					<path fill="#FFFFFF" d="M154.103,163.88c0.042,0.084,0.126,0.178,0.251,0.282c0.198,0.178,0.309,0.277,0.329,0.298
						c-0.178,0.491-0.334,0.836-0.47,1.035c-0.773,0.626-1.354,1.133-1.74,1.52c-1.901,1.661-4.075,3.37-6.52,5.125
						c1.348-2.978,3.093-5.537,5.234-7.68c0.042-0.073,0.141-0.188,0.298-0.345c0.157-0.156,0.251-0.276,0.282-0.36
						c0.438,0,0.825-0.115,1.16-0.345v-0.125c0.156,0.083,0.365,0.183,0.626,0.297C153.773,163.688,153.956,163.786,154.103,163.88z
						"/>
					<path fill="#FFFFFF" d="M70.219,188.064l1.865,4.89c-14.064,3.74-31.367,11.07-51.91,21.989
						C36.036,202.51,52.718,193.55,70.219,188.064z"/>
					
						<path fill="none" stroke="#373535" stroke-width="1.5" stroke-linecap="round" stroke-linejoin="round" stroke-miterlimit="3" d="
						M14.36,123.616c-0.115-1.787-0.115-3.574,0-5.36"/>
					
						<path fill="none" stroke="#373535" stroke-width="1.5" stroke-linecap="round" stroke-linejoin="round" stroke-miterlimit="3" d="
						M92.303,148.975c-0.711-0.563-1.223-0.981-1.536-1.254c-0.543-0.49-0.998-0.966-1.363-1.426"/>
					
						<path fill="none" stroke="#373535" stroke-width="1.5" stroke-linecap="round" stroke-linejoin="round" stroke-miterlimit="3" d="
						M138.508,53.556c-2.779,0.773-5.574,2.017-8.385,3.73"/>
					
						<path fill="none" stroke="#373535" stroke-width="1.5" stroke-linecap="round" stroke-linejoin="round" stroke-miterlimit="3" d="
						M9.94,114.18v-0.109c0-0.094,0.079-0.209,0.235-0.345"/>
					
						<path fill="none" stroke="#373535" stroke-width="1.5" stroke-linecap="round" stroke-linejoin="round" stroke-miterlimit="3" d="
						M237.751,161.436c0.011,0.041,0.058,0.287,0.141,0.736c0.053,0.293,0.126,0.512,0.22,0.658"/>
					
						<path fill="none" stroke="#373535" stroke-width="1.5" stroke-linecap="round" stroke-linejoin="round" stroke-miterlimit="3" d="
						M143.853,106.626c-5.089,2.487-7.8,5.318-8.135,8.495"/>
					
						<path fill="none" stroke="#373535" stroke-width="1.5" stroke-linecap="round" stroke-linejoin="round" stroke-miterlimit="3" d="
						M144.902,150.025c0,0.052-0.005,0.083-0.016,0.094s-0.042,0.016-0.094,0.016l-0.235,0.125"/>
					
						<path fill="none" stroke="#373535" stroke-width="1.5" stroke-linecap="round" stroke-linejoin="round" stroke-miterlimit="3" d="
						M44.155,143.396c-8.537-7.43-13.349-11.734-14.435-12.915c-3.135-3.02-5.538-5.93-7.209-8.73"/>
					
						<path fill="none" stroke="#373535" stroke-width="1.5" stroke-linecap="round" stroke-linejoin="round" stroke-miterlimit="3" d="
						M139.433,152.125c1.17-0.95,2.837-1.614,5-1.99c0.24,0,0.396-0.036,0.47-0.109"/>
					
						<path fill="none" stroke="#373535" stroke-width="1.5" stroke-linecap="round" stroke-linejoin="round" stroke-miterlimit="3" d="
						M144.902,150.025h0.345c0.387-0.073,1.474-0.152,3.26-0.235h2.681c0.836-0.084,3.317,0.109,7.445,0.58
						c1.734,1.17,3.907,1.755,6.52,1.755c1.494,0.104,3.741,0.104,6.739,0c0.115,0,0.235,0.115,0.361,0.346
						c2.831,2.006,6.671,2.084,11.52,0.234"/>
					
						<path fill="none" stroke="#373535" stroke-width="1.5" stroke-linecap="round" stroke-linejoin="round" stroke-miterlimit="3" d="
						M56.6,116.391c-0.073,0-0.152,0.042-0.235,0.125c-0.94,0.512-1.74,0.898-2.398,1.16c-0.951,0.386-1.896,0.658-2.837,0.815
						c-2.748,0.773-6.938,1.16-12.57,1.16c-8.223,0.282-12.607,0.439-13.15,0.47"/>
					
						<path fill="none" stroke="#373535" stroke-width="1.5" stroke-linecap="round" stroke-linejoin="round" stroke-miterlimit="3" d="
						M238.111,162.83c0.157,0.335,0.235,0.643,0.235,0.925c1.441,5.538,2.215,9.414,2.319,11.63c0,4.263-1.358,7.753-4.075,10.47
						l-1.159,1.159c-0.585,0.481-1.322,1.024-2.21,1.631c-1.107,0.783-2.273,1.478-3.495,2.084c-3.146,1.525-6.4,2.612-9.765,3.26
						c-7.491,1.567-17.23,1.567-29.215,0c-5.058-0.794-8.197-1.295-9.42-1.504c-5.047-0.993-10.245-2.158-15.595-3.495
						c-9.561-2.33-16.389-3.961-20.485-4.891c-22.58-4.64-44.721-4.174-66.423,1.396c-2.278,0.626-4.723,1.326-7.335,2.1h-0.11
						c-0.032,0.031-0.089,0.068-0.173,0.11c-0.073,0.041-0.13,0.083-0.172,0.125h-0.235c-0.073,0-0.146,0.026-0.219,0.078
						c-0.084,0.042-0.125,0.094-0.125,0.157h-0.235c-17.501,5.485-34.183,14.445-50.044,26.879
						c20.542-10.919,37.846-18.249,51.91-21.989c0.073,0,0.11-0.042,0.11-0.125h0.345c0.157,0,0.277-0.037,0.36-0.11
						c20.312-5.287,40.938-5.83,61.878-1.63c7.262,1.641,14.983,3.422,23.165,5.345c1.892,0.449,4.065,0.925,6.521,1.427
						c1.432,0.292,3.521,0.71,6.27,1.254"/>
					
						<path fill="none" stroke="#373535" stroke-width="1.5" stroke-linecap="round" stroke-linejoin="round" stroke-miterlimit="3" d="
						M210.182,148.865c-0.188,0.115-0.46,0.309-0.815,0.58c-0.344,0.271-0.616,0.465-0.814,0.58l-0.109,0.109"/>
					
						<path fill="none" stroke="#373535" stroke-width="1.5" stroke-linecap="round" stroke-linejoin="round" stroke-miterlimit="3" d="
						M142.692,115.121c-1.023,0.898-1.917,1.985-2.68,3.26c-0.909,1.097-1.683,2.607-2.32,4.529"/>
					
						<path fill="none" stroke="#373535" stroke-width="1.5" stroke-linecap="round" stroke-linejoin="round" stroke-miterlimit="3" d="
						M100.798,143.16c-0.24-1.641-0.24-3.349,0-5.125"/>
					
						<path fill="none" stroke="#373535" stroke-width="1.5" stroke-linecap="round" stroke-linejoin="round" stroke-miterlimit="3" d="
						M22.51,121.75c-0.063,0-0.1-0.005-0.11-0.016s-0.016-0.042-0.016-0.094c-0.125-0.198-0.214-0.334-0.267-0.407
						c-0.084-0.125-0.146-0.261-0.188-0.408c-1.39-2.152-2.361-4.169-2.916-6.05"/>
					
						<path fill="none" stroke="#373535" stroke-width="1.5" stroke-linecap="round" stroke-linejoin="round" stroke-miterlimit="3" d="
						M139.433,152.125c-1.965,0-3.902-0.778-5.814-2.335c-4.336,1.494-8.563,1.651-12.68,0.47"/>
					
						<path fill="none" stroke="#373535" stroke-width="1.5" stroke-linecap="round" stroke-linejoin="round" stroke-miterlimit="3" d="
						M185.167,157.705c-2.173,1.442-5.741,2.45-10.705,3.024c-2.1,0.408-4.038,0.68-5.814,0.815
						c-0.084,0.042-0.229,0.078-0.438,0.109c-0.271,0.042-0.476,0.084-0.611,0.126c-1.766,0-3.124-0.157-4.075-0.471
						c-0.157,0-0.313,0.042-0.471,0.126c-1.577,0.387-2.795,0.716-3.651,0.987c-1.087,0.334-1.923,0.663-2.508,0.987l-2.68,2.085
						c-0.773,0.626-1.354,1.133-1.74,1.52c-1.901,1.661-4.075,3.37-6.52,5.125c-0.115,0.084-0.335,0.277-0.659,0.58
						c-0.271,0.262-0.517,0.455-0.736,0.58c-0.24-2.11,0.225-4.169,1.396-6.175c0.25-0.544,0.679-1.332,1.285-2.367
						c0.365-0.627,1.023-1.734,1.975-3.322c-3.532,1.567-6.363,3.077-8.495,4.529c-2.56,1.515-4.425,3.03-5.596,4.545
						c-0.48-2.926,0.413-5.407,2.681-7.444"/>
					
						<path fill="none" stroke="#373535" stroke-width="1.5" stroke-linecap="round" stroke-linejoin="round" stroke-miterlimit="3" d="
						M23.09,109.651c1.693,3.009,2.2,5.763,1.521,8.26c-0.125,0.585-0.361,1.165-0.706,1.74c-0.345,0.815-0.81,1.515-1.395,2.1"/>
					
						<line fill="none" stroke="#373535" stroke-width="1.5" stroke-linecap="round" stroke-linejoin="round" stroke-miterlimit="3" x1="244.036" y1="157.234" x2="243.691" y2="157.234"/>
					
						<path fill="none" stroke="#373535" stroke-width="1.5" stroke-linecap="round" stroke-linejoin="round" stroke-miterlimit="3" d="
						M137.803,163.065c0.084-0.042,0.22-0.142,0.407-0.298c0.198-0.157,0.334-0.256,0.407-0.298c1.662-1.129,3.872-2.33,6.63-3.604"
						/>
					
						<path fill="none" stroke="#373535" stroke-width="1.5" stroke-linecap="round" stroke-linejoin="round" stroke-miterlimit="3" d="
						M141.188,154.477c-0.856,0.156-1.734,0.355-2.633,0.596c-0.825,0.219-1.27,0.36-1.332,0.423c0.334-1.369,1.071-2.492,2.21-3.37
						"/>
					
						<path fill="none" stroke="#373535" stroke-width="1.5" stroke-linecap="round" stroke-linejoin="round" stroke-miterlimit="3" d="
						M137.803,163.065c-2.738,0.909-4.713,1.139-5.925,0.689c0.293-0.898,0.705-1.698,1.238-2.398
						c0.721-0.961,1.63-1.677,2.728-2.146h0.109c0.084-0.073,0.162-0.11,0.235-0.11s0.109-0.041,0.109-0.125
						c1.17-0.418,2.179-0.903,3.025-1.458c1.358-0.898,2.596-2.115,3.714-3.651c-0.041,0.042-0.183,0.104-0.423,0.188
						c-0.334,0.115-0.616,0.209-0.847,0.282l-0.47,0.11"/>
					
						<path fill="none" stroke="#373535" stroke-width="1.5" stroke-linecap="round" stroke-linejoin="round" stroke-miterlimit="3" d="
						M38.277,98.429c-0.042,0.073-0.062,0.13-0.062,0.172c-0.397,0.689-0.977,1.233-1.74,1.63c-0.313,0.146-0.7,0.22-1.16,0.22
						c-0.23,0-0.428-0.073-0.595-0.22c-0.575-0.229-0.92-0.773-1.035-1.63v-0.36c0-0.606,0.193-1.223,0.58-1.85
						c0.428-0.763,1.008-1.27,1.74-1.52c0.292-0.167,0.601-0.251,0.925-0.251c0.313,0,0.585,0.083,0.814,0.251
						c0.481,0.188,0.794,0.694,0.94,1.52c0.105,0.564-0.01,1.181-0.344,1.85C38.34,98.282,38.319,98.345,38.277,98.429z"/>
					
						<path fill="none" stroke="#373535" stroke-width="1.5" stroke-linecap="round" stroke-linejoin="round" stroke-miterlimit="3" d="
						M120.938,150.26c-0.606-0.208-1.045-0.365-1.317-0.47c-0.46-0.188-0.836-0.382-1.128-0.58"/>
					
						<path fill="none" stroke="#373535" stroke-width="1.5" stroke-linecap="round" stroke-linejoin="round" stroke-miterlimit="3" d="
						M109.183,149.79c-2.11,1.233-4.321,1.97-6.63,2.21h-0.235c-0.408,0.052-0.862,0.062-1.364,0.031
						c-0.136-0.011-0.611-0.058-1.426-0.141h-0.125c-0.146,0-0.376-0.079-0.689-0.235c-2.142-0.313-4.279-1.207-6.41-2.681"/>
					
						<path fill="none" stroke="#373535" stroke-width="1.5" stroke-linecap="round" stroke-linejoin="round" stroke-miterlimit="3" d="
						M9.94,114.18c-0.418,0.261-1.04,0.998-1.865,2.21l-0.454,0.47c-0.69,0.543-1.547,0.815-2.571,0.815
						c-0.292-0.585-0.485-1.014-0.58-1.285c-0.596-1.181-0.596-2.189,0-3.025c0.052-0.146,0.136-0.298,0.25-0.455
						c0.146-0.198,0.256-0.355,0.329-0.47c0.052-0.073,0.188-0.229,0.408-0.47c0.178-0.208,0.313-0.402,0.408-0.58
						c0.125-0.115,0.308-0.313,0.548-0.596c0.261-0.303,0.465-0.528,0.611-0.674l0.094-0.063c0.084-0.042,0.172-0.062,0.267-0.062
						H7.62c4.263-4.159,9.613-11.332,16.049-21.52c5.726-7.836,12.319-12.455,19.78-13.855"/>
					
						<path fill="none" stroke="#373535" stroke-width="1.5" stroke-linecap="round" stroke-linejoin="round" stroke-miterlimit="3" d="
						M245.321,157.125c-0.543,0-0.93,0.036-1.16,0.109"/>
					
						<path fill="none" stroke="#373535" stroke-width="1.5" stroke-linecap="round" stroke-linejoin="round" stroke-miterlimit="3" d="
						M208.442,150.135c-0.063,0-0.104,0.005-0.126,0.016c-0.021,0.011-0.058,0.047-0.109,0.109h-0.126
						c-0.396,0.324-1.055,0.711-1.975,1.16c-3.082,1.285-5.992,1.714-8.729,1.285"/>
					
						<path fill="none" stroke="#373535" stroke-width="1.5" stroke-linecap="round" stroke-linejoin="round" stroke-miterlimit="3" d="
						M215.651,97.551c-1.619-5.308-5.109-9.419-10.47-12.335"/>
					
						<path fill="none" stroke="#373535" stroke-width="1.5" stroke-linecap="round" stroke-linejoin="round" stroke-miterlimit="3" d="
						M99.638,150.84c-0.251-0.794-0.439-1.4-0.564-1.817c-0.23-0.742-0.392-1.38-0.486-1.912V147
						c-0.324-1.087-0.595-2.173-0.815-3.26c-0.115-0.878-0.266-1.614-0.455-2.21"/>
					
						<path fill="none" stroke="#373535" stroke-width="1.5" stroke-linecap="round" stroke-linejoin="round" stroke-miterlimit="3" d="
						M102.318,149.21c-0.157-0.387-0.272-0.658-0.345-0.814l-0.706-2.101c-0.042-0.366-0.12-0.889-0.235-1.567
						c-0.115-0.721-0.193-1.243-0.235-1.567"/>
					
						<path fill="none" stroke="#373535" stroke-width="1.5" stroke-linecap="round" stroke-linejoin="round" stroke-miterlimit="3" d="
						M53.339,55.547c-0.868-0.355-1.813-0.392-2.837-0.11c-1.014,0.282-2.042,0.862-3.088,1.74c-2.33,1.954-3.881,4.357-4.655,7.21
						c-1.097,3.51-0.867,6.922,0.69,10.234"/>
					
						<path fill="none" stroke="#373535" stroke-width="1.5" stroke-linecap="round" stroke-linejoin="round" stroke-miterlimit="3" d="
						M120.938,150.26c-3.95,1.118-7.753,0.769-11.411-1.05c-0.961-0.48-2.048-1.254-3.26-2.319"/>
					
						<path fill="none" stroke="#373535" stroke-width="1.5" stroke-linecap="round" stroke-linejoin="round" stroke-miterlimit="3" d="
						M106.628,135.245c1.902-2.8,2.56-6.677,1.975-11.629c-0.71-4.817-2.262-8.307-4.655-10.47"/>
					
						<path fill="none" stroke="#373535" stroke-width="1.5" stroke-linecap="round" stroke-linejoin="round" stroke-miterlimit="3" d="
						M56.834,92.771c3.312,0.408,5.517-0.136,6.614-1.63s1.065-3.897-0.094-7.21"/>
					
						<path fill="none" stroke="#373535" stroke-width="1.5" stroke-linecap="round" stroke-linejoin="round" stroke-miterlimit="3" d="
						M244.036,157.234c0.293,0.45,0.564,0.8,0.815,1.051"/>
					
						<path fill="none" stroke="#373535" stroke-width="1.5" stroke-linecap="round" stroke-linejoin="round" stroke-miterlimit="3" d="
						M100.798,143.16c2.8-2.068,4.431-4.629,4.89-7.68c0-0.157,0.042-0.235,0.125-0.235c0.355-3.03-0.267-5.862-1.865-8.495"/>
					
						<path fill="none" stroke="#373535" stroke-width="1.5" stroke-linecap="round" stroke-linejoin="round" stroke-miterlimit="3" d="
						M109.183,60.782c-1.588,2.184-3.375,4.043-5.36,5.58"/>
					
						<line fill="none" stroke="#373535" stroke-width="1.5" stroke-linecap="round" stroke-linejoin="round" stroke-miterlimit="3" x1="51.709" y1="72.756" x2="57.415" y2="66.596"/>
					
						<path fill="none" stroke="#373535" stroke-width="1.5" stroke-linecap="round" stroke-linejoin="round" stroke-miterlimit="3" d="
						M103.823,66.361c-0.167,0.042-0.423,0.083-0.769,0.125c-0.407,0.042-0.695,0.078-0.862,0.109"/>
					
						<path fill="none" stroke="#373535" stroke-width="1.5" stroke-linecap="round" stroke-linejoin="round" stroke-miterlimit="3" d="
						M99.293,63.681c-1.421,2.372-3.558,4.587-6.41,6.646c-2.895,1.922-5.799,3.589-8.715,5"/>
					
						<path fill="none" stroke="#373535" stroke-width="1.5" stroke-linecap="round" stroke-linejoin="round" stroke-miterlimit="3" d="
						M62.54,84.636c0.334-0.334,0.606-0.569,0.815-0.706"/>
					
						<path fill="none" stroke="#373535" stroke-width="1.5" stroke-linecap="round" stroke-linejoin="round" stroke-miterlimit="3" d="
						M244.852,158.285c0.239-0.544,0.396-0.93,0.47-1.16"/>
					
						<path fill="none" stroke="#373535" stroke-width="1.5" stroke-linecap="round" stroke-linejoin="round" stroke-miterlimit="3" d="
						M206.451,147.345c-0.042-0.042-0.12-0.078-0.234-0.109c-0.157-0.042-0.272-0.084-0.346-0.125
						c-2.246-0.795-4.571-2.033-6.974-3.715"/>
					
						<path fill="none" stroke="#373535" stroke-width="1.5" stroke-linecap="round" stroke-linejoin="round" stroke-miterlimit="3" d="
						M103.823,66.361c-2.759,2.079-6.207,3.709-10.345,4.89"/>
					
						<path fill="none" stroke="#373535" stroke-width="1.5" stroke-linecap="round" stroke-linejoin="round" stroke-miterlimit="3" d="
						M119.073,56.707c-0.606,0.773-1.055,1.348-1.348,1.724c-0.533,0.668-1.013,1.217-1.442,1.646
						c-1.546,1.432-3.364,2.67-5.454,3.714c-2.006,1.003-4.342,1.86-7.006,2.571"/>
					
						<path fill="none" stroke="#373535" stroke-width="1.5" stroke-linecap="round" stroke-linejoin="round" stroke-miterlimit="3" d="
						M51.6,72.881c-0.334,0.805-0.57,1.698-0.706,2.68c-0.042,0.042-0.073,0.094-0.094,0.157c-0.011,0.021-0.016,0.042-0.016,0.062
						c-0.387,3.145-0.115,6.055,0.815,8.73c0.104,0.46,0.267,0.967,0.486,1.521c0.073,0.146,0.298,0.648,0.674,1.504"/>
					
						<path fill="none" stroke="#373535" stroke-width="1.5" stroke-linecap="round" stroke-linejoin="round" stroke-miterlimit="3" d="
						M176.782,84.871c-0.355,0-0.842,0.021-1.458,0.063c-0.616,0.031-1.097,0.047-1.441,0.047
						c-6.688,0.23-13.866,1.238-21.535,3.025"/>
					
						<path fill="none" stroke="#373535" stroke-width="1.5" stroke-linecap="round" stroke-linejoin="round" stroke-miterlimit="3" d="
						M165.622,87.536c-7.062,1.244-11.373,1.98-12.93,2.21h-0.11c-0.532,0.094-1.023,0.204-1.473,0.329l-0.502,0.141
						c-6.112,1.505-10.303,3.986-12.569,7.445"/>
					
						<path fill="none" stroke="#373535" stroke-width="1.5" stroke-linecap="round" stroke-linejoin="round" stroke-miterlimit="3" d="
						M56.834,62.286h-0.11c-0.742,0.188-1.165,0.298-1.27,0.329c-0.428,0.125-0.82,0.288-1.175,0.486
						c-2.163,1.076-3.908,2.67-5.235,4.781c-0.157,0.271-0.235,0.465-0.235,0.58c0,0.073-0.078,0.188-0.235,0.345l-1.395,4.655
						c0,0.084-0.021,0.22-0.062,0.408c-0.042,0.199-0.063,0.334-0.063,0.408v0.345c-0.104,3.02,0.559,6.551,1.991,10.595
						c0.271,0.731,0.543,1.312,0.815,1.74"/>
					
						<path fill="none" stroke="#373535" stroke-width="1.5" stroke-linecap="round" stroke-linejoin="round" stroke-miterlimit="3" d="
						M244.852,158.285v0.125c3.447,4.138,5.119,9.451,5.015,15.939l-0.36,3.479l-3.135,9.765c0,0.073-0.042,0.151-0.125,0.235
						c-0.042,0-0.078,0.042-0.109,0.125c-0.042,0.115-0.079,0.188-0.11,0.22l-0.125,0.235c-0.031,0.083-0.089,0.162-0.173,0.235
						c-0.073,0.083-0.13,0.161-0.172,0.234c0,0.031-0.021,0.094-0.063,0.188c-0.041,0.094-0.062,0.183-0.062,0.267
						c-0.042,0-0.078,0.025-0.109,0.078c-0.052,0.084-0.089,0.136-0.109,0.156c0,0.084-0.042,0.162-0.126,0.235
						c-0.031,0-0.067,0.021-0.109,0.062c-0.042,0.032-0.084,0.047-0.125,0.047c0,0.157-0.037,0.277-0.11,0.361
						c-0.146,0.146-0.303,0.376-0.471,0.689c0,0.083-0.036,0.125-0.109,0.125c0,0.073-0.042,0.151-0.125,0.235
						c-0.157,0.156-0.235,0.271-0.235,0.345c-0.042,0-0.1,0.042-0.172,0.125c-0.095,0.126-0.151,0.199-0.173,0.22
						c-0.125,0.167-0.318,0.402-0.58,0.705c-0.282,0.313-0.476,0.544-0.58,0.689c-0.386,0.471-0.893,1.014-1.521,1.631"/>
					
						<path fill="none" stroke="#373535" stroke-width="1.5" stroke-linecap="round" stroke-linejoin="round" stroke-miterlimit="3" d="
						M150.027,99.635c-2.57,0.209-5.287,0.831-8.149,1.865c0,0.084-0.037,0.125-0.11,0.125c-0.731,0.345-1.159,0.538-1.285,0.58
						c-0.396,0.146-0.82,0.345-1.27,0.596c-0.512,0.303-0.903,0.527-1.175,0.674"/>
					
						<path fill="none" stroke="#373535" stroke-width="1.5" stroke-linecap="round" stroke-linejoin="round" stroke-miterlimit="3" d="
						M156.312,54.731c-4.013-0.115-7.544,0.622-10.595,2.21c-0.22,0.094-0.507,0.25-0.862,0.47
						c-0.396,0.251-0.653,0.402-0.768,0.455"/>
					
						<path fill="none" stroke="#373535" stroke-width="1.5" stroke-linecap="round" stroke-linejoin="round" stroke-miterlimit="3" d="
						M87.068,71.831c-0.46,0.46-1.014,0.914-1.662,1.364c-0.219,0.157-0.825,0.554-1.818,1.191c-4.085,2.173-8.928,3.26-14.529,3.26
						"/>
					
						<path fill="none" stroke="#373535" stroke-width="1.5" stroke-linecap="round" stroke-linejoin="round" stroke-miterlimit="3" d="
						M175.513,60.546c-2.853-0.554-4.603-0.862-5.251-0.925"/>
					
						<path fill="none" stroke="#373535" stroke-width="1.5" stroke-linecap="round" stroke-linejoin="round" stroke-miterlimit="3" d="
						M175.513,60.546c-2.832-1.16-5.705-2.053-8.62-2.68c-3.626-0.669-7.001-0.705-10.125-0.11c-0.126,0-0.313,0.021-0.564,0.063
						c-0.251,0.031-0.413,0.047-0.486,0.047"/>
					
						<path fill="none" stroke="#373535" stroke-width="1.5" stroke-linecap="round" stroke-linejoin="round" stroke-miterlimit="3" d="
						M63.354,83.931v-0.109c2.059-2.414,3.61-4.666,4.655-6.755c0.522-0.836,0.909-1.802,1.16-2.899
						c0.136-0.272,0.292-0.742,0.47-1.411v-4.294c-0.084-0.083-0.125-0.277-0.125-0.58c-0.638-1.944-1.719-3.412-3.245-4.405
						c-1.546-1.024-3.526-1.536-5.94-1.536c-1.014,0-1.75,0.037-2.21,0.109c-0.366,0-0.794,0.079-1.285,0.235"/>
					
						<line fill="none" stroke="#373535" stroke-width="1.5" stroke-linecap="round" stroke-linejoin="round" stroke-miterlimit="3" x1="244.161" y1="157.234" x2="244.036" y2="157.234"/>
					
						<path fill="none" stroke="#373535" stroke-width="1.5" stroke-linecap="round" stroke-linejoin="round" stroke-miterlimit="3" d="
						M210.997,146.186c-0.742-0.241-1.218-0.402-1.427-0.486c-0.48-0.188-0.898-0.413-1.254-0.674l-0.109-0.126
						c-1.494-1.013-2.774-2.522-3.84-4.529"/>
					
						<path fill="none" stroke="#373535" stroke-width="1.5" stroke-linecap="round" stroke-linejoin="round" stroke-miterlimit="3" d="
						M224.382,115.465c-1.212-3.709-2.686-6.927-4.42-9.654c-0.596-1.077-1.374-2.163-2.336-3.26
						c-0.908-0.909-1.76-1.646-2.554-2.21"/>
					
						<path fill="none" stroke="#373535" stroke-width="1.5" stroke-linecap="round" stroke-linejoin="round" stroke-miterlimit="3" d="
						M201.687,78.226c-5.36-3.667-9.628-6.379-12.805-8.134"/>
					
						<path fill="none" stroke="#373535" stroke-width="1.5" stroke-linecap="round" stroke-linejoin="round" stroke-miterlimit="3" d="
						M185.747,85.687c-0.93-1.557-2.21-2.837-3.84-3.84c-1.223-0.742-2.617-1.17-4.185-1.285c-0.199-0.052-0.653-0.062-1.364-0.031
						c-1.034,0.062-1.901,0.11-2.602,0.141h-0.109c-0.575,0-1.427,0.047-2.555,0.141c-1.536,0.115-2.586,0.188-3.15,0.219"/>
					
						<path fill="none" stroke="#373535" stroke-width="1.5" stroke-linecap="round" stroke-linejoin="round" stroke-miterlimit="3" d="
						M167.362,56.126h-0.125c-3.908-0.93-7.55-1.395-10.925-1.395"/>
					
						<path fill="none" stroke="#373535" stroke-width="1.5" stroke-linecap="round" stroke-linejoin="round" stroke-miterlimit="3" d="
						M53.465,55.547c1.316,0.428,2.283,1.63,2.899,3.604c0.021,0.167,0.099,0.658,0.235,1.474c0.115,0.658,0.193,1.212,0.235,1.661"
						/>
					
						<path fill="none" stroke="#373535" stroke-width="1.5" stroke-linecap="round" stroke-linejoin="round" stroke-miterlimit="3" d="
						M187.142,62.521c-1.097-0.198-3.385-0.585-6.864-1.16c-2.403-0.48-3.992-0.752-4.765-0.815"/>
					
						<path fill="none" stroke="#373535" stroke-width="1.5" stroke-linecap="round" stroke-linejoin="round" stroke-miterlimit="3" d="
						M45.785,74.167c-1.087,0.146-1.866,0.298-2.335,0.455"/>
					
						<path fill="none" stroke="#373535" stroke-width="1.5" stroke-linecap="round" stroke-linejoin="round" stroke-miterlimit="3" d="
						M138.508,53.556c-1.797-0.533-3.615-0.742-5.454-0.627c-1.954,0.115-3.976,0.595-6.065,1.442
						c-3.929,1.536-7.189,3.709-9.78,6.52c-0.251,0.23-0.439,0.408-0.564,0.533c-0.23,0.208-0.392,0.381-0.486,0.517"/>
					
						<path fill="none" stroke="#373535" stroke-width="1.5" stroke-linecap="round" stroke-linejoin="round" stroke-miterlimit="3" d="
						M244.161,157.234h-0.47c-3.219,0-5.543-1.551-6.975-4.654c-0.157-0.146-0.282-0.34-0.376-0.58
						c-0.031-0.073-0.1-0.267-0.204-0.58"/>
					
						<path fill="none" stroke="#373535" stroke-width="1.5" stroke-linecap="round" stroke-linejoin="round" stroke-miterlimit="3" d="
						M68.009,135.715c0-1.348,0.351-3.056,1.05-5.125"/>
					
						<line fill="none" stroke="#373535" stroke-width="1.5" stroke-linecap="round" stroke-linejoin="round" stroke-miterlimit="3" x1="180.277" y1="200.038" x2="180.277" y2="197.374"/>
					
						<line fill="none" stroke="#373535" stroke-width="1.5" stroke-linecap="round" stroke-linejoin="round" stroke-miterlimit="3" x1="185.747" y1="201.669" x2="186.092" y2="199.693"/>
					
						<path fill="none" stroke="#373535" stroke-width="1.5" stroke-linecap="round" stroke-linejoin="round" stroke-miterlimit="3" d="
						M65.564,141.64c-1.17,0.262-2.257,0.69-3.26,1.285"/>
					
						<path fill="none" stroke="#373535" stroke-width="1.5" stroke-linecap="round" stroke-linejoin="round" stroke-miterlimit="3" d="
						M156.312,54.731c-3.542-2.476-7.926-3.254-13.149-2.335c-0.742,0.136-2.063,0.449-3.966,0.94c-0.146,0-0.376,0.073-0.689,0.219
						"/>
					
						<path fill="none" stroke="#373535" stroke-width="1.5" stroke-linecap="round" stroke-linejoin="round" stroke-miterlimit="3" d="
						M185.747,201.669c-0.647-0.073-1.557-0.209-2.728-0.408c-1.243-0.198-2.157-0.334-2.742-0.407h-0.11
						c-0.763-0.146-2.293-0.418-4.592-0.815c-2.017-0.354-3.631-0.663-4.843-0.924"/>
					
						<path fill="none" stroke="#373535" stroke-width="1.5" stroke-linecap="round" stroke-linejoin="round" stroke-miterlimit="3" d="
						M170.732,199.114c0.251-0.878,0.329-1.729,0.234-2.556"/>
					
						<path fill="none" stroke="#373535" stroke-width="1.5" stroke-linecap="round" stroke-linejoin="round" stroke-miterlimit="3" d="
						M71.035,146.075c-0.292-0.449-0.528-0.763-0.706-0.94"/>
					
						<path fill="none" stroke="#373535" stroke-width="1.5" stroke-linecap="round" stroke-linejoin="round" stroke-miterlimit="3" d="
						M71.959,137.581c0.136,2.549-0.136,4.603-0.815,6.159c-0.157,0.229-0.428,0.695-0.815,1.395"/>
					
						<path fill="none" stroke="#373535" stroke-width="1.5" stroke-linecap="round" stroke-linejoin="round" stroke-miterlimit="3" d="
						M221.467,202.954c-0.188-1.045-0.073-2.288,0.345-3.73"/>
					
						<path fill="none" stroke="#373535" stroke-width="1.5" stroke-linecap="round" stroke-linejoin="round" stroke-miterlimit="3" d="
						M243.347,157.36l-4.311,0.345h-0.109c-0.084-0.073-0.204-0.109-0.36-0.109c0-0.053-0.016-0.089-0.048-0.11l-0.062-0.016
						c-0.94-0.24-1.713-0.663-2.319-1.27c-0.721-0.606-1.343-1.385-1.865-2.335"/>
					
						<path fill="none" stroke="#373535" stroke-width="1.5" stroke-linecap="round" stroke-linejoin="round" stroke-miterlimit="3" d="
						M214.492,145.841c-0.136-0.847-0.293-2.247-0.471-4.201c-0.605-3.782-1.228-6.301-1.865-7.555"/>
					
						<path fill="none" stroke="#373535" stroke-width="1.5" stroke-linecap="round" stroke-linejoin="round" stroke-miterlimit="3" d="
						M70.329,145.135c-0.585-1.014-1.008-1.828-1.27-2.444"/>
					
						<path fill="none" stroke="#373535" stroke-width="1.5" stroke-linecap="round" stroke-linejoin="round" stroke-miterlimit="3" d="
						M87.068,148.63c-1.003,0.073-2.435,0.267-4.294,0.58"/>
					
						<path fill="none" stroke="#373535" stroke-width="1.5" stroke-linecap="round" stroke-linejoin="round" stroke-miterlimit="3" d="
						M236.356,198.534c-2.268,1.117-3.699,1.817-4.295,2.1h-0.125c-2.132,0.711-4.378,1.291-6.74,1.74
						c-1.786,0.323-3.029,0.517-3.729,0.58"/>
					
						<path fill="none" stroke="#373535" stroke-width="1.5" stroke-linecap="round" stroke-linejoin="round" stroke-miterlimit="3" d="
						M92.303,148.975c-3.03,1.118-5.397,1.547-7.1,1.285c-0.878-0.449-1.688-0.799-2.429-1.05"/>
					
						<path fill="none" stroke="#373535" stroke-width="1.5" stroke-linecap="round" stroke-linejoin="round" stroke-miterlimit="3" d="
						M82.774,149.132v0.078c-2.372,0.533-4.347,1.191-5.925,1.975c-1.463,0.784-2.936,1.792-4.419,3.025l-3.73,3.73
						c-0.324,0.522-0.747,1.107-1.27,1.755c-0.272,0.366-0.664,0.867-1.175,1.505c-0.627,0.805-1.197,1.41-1.708,1.818
						c-0.501,0.396-0.899,0.563-1.191,0.501c-0.355-0.114-0.501-0.71-0.439-1.786c0.062-1.056,0.324-2.67,0.784-4.844"/>
					
						<path fill="none" stroke="#373535" stroke-width="1.5" stroke-linecap="round" stroke-linejoin="round" stroke-miterlimit="3" d="
						M192.848,202.609c-1.056-0.178-2.456-0.335-4.201-0.471c-0.324-0.042-0.789-0.12-1.395-0.235
						c-0.638-0.114-1.103-0.193-1.396-0.234h-0.109"/>
					
						<path fill="none" stroke="#373535" stroke-width="1.5" stroke-linecap="round" stroke-linejoin="round" stroke-miterlimit="3" d="
						M243.002,149.21c0.146-1.087,0.219-1.901,0.219-2.445c0.48-4.827-0.799-8.589-3.84-11.284c-0.292-0.303-0.836-0.769-1.63-1.396
						"/>
					
						<path fill="none" stroke="#373535" stroke-width="1.5" stroke-linecap="round" stroke-linejoin="round" stroke-miterlimit="3" d="
						M63.354,156.78c-2.957,1.411-6.139,4.044-9.545,7.899c-0.794-1.358-0.522-3.062,0.815-5.109
						c0.742-1.129,1.907-2.487,3.495-4.075"/>
					
						<path fill="none" stroke="#373535" stroke-width="1.5" stroke-linecap="round" stroke-linejoin="round" stroke-miterlimit="3" d="
						M62.305,142.925c-0.261,0.126-0.638,0.345-1.129,0.658c-0.575,0.366-0.977,0.611-1.207,0.737
						c3.166,0.136,6.196-0.408,9.09-1.63"/>
					
						<path fill="none" stroke="#373535" stroke-width="1.5" stroke-linecap="round" stroke-linejoin="round" stroke-miterlimit="3" d="
						M192.848,202.609c-0.209-0.408-0.251-1.265-0.126-2.571"/>
					
						<path fill="none" stroke="#373535" stroke-width="1.5" stroke-linecap="round" stroke-linejoin="round" stroke-miterlimit="3" d="
						M58.7,139.9c-3.73,0.585-5.825,1.672-6.285,3.26c1.797-0.355,3.814-0.47,6.05-0.345c1.703,0,2.983,0.036,3.84,0.109"/>
					
						<path fill="none" stroke="#373535" stroke-width="1.5" stroke-linecap="round" stroke-linejoin="round" stroke-miterlimit="3" d="
						M58.12,155.15c-4.148,2.006-7.058,3.902-8.73,5.689c-0.648-0.638-0.847-1.358-0.596-2.163s0.951-1.672,2.1-2.602
						c0.084,0,1.871-1.165,5.36-3.495c-2.686,0.229-4.2,0.115-4.545-0.345c-0.115-0.335,0.23-0.69,1.034-1.066
						c0.752-0.355,2.001-0.772,3.746-1.254c0.397-0.104,0.898-0.225,1.504-0.36c1.076-0.261,3.406-0.763,6.991-1.505
						c0.062,0,0.219-0.021,0.47-0.062s0.439-0.062,0.564-0.062c1.432-0.46,2.675-1.154,3.73-2.084
						c0.042-0.073,0.141-0.188,0.297-0.346c0.157-0.156,0.251-0.276,0.282-0.36"/>
					
						<path fill="none" stroke="#373535" stroke-width="1.5" stroke-linecap="round" stroke-linejoin="round" stroke-miterlimit="3" d="
						M221.467,202.954c-0.669,0.156-1.171,0.234-1.505,0.234c-7.147,0.794-16.106,0.602-26.88-0.579h-0.234"/>
					
						<path fill="none" stroke="#373535" stroke-width="1.5" stroke-linecap="round" stroke-linejoin="round" stroke-miterlimit="3" d="
						M229.616,156.78c-0.47,0.073-1.17,0.109-2.1,0.109"/>
					
						<path fill="none" stroke="#373535" stroke-width="1.5" stroke-linecap="round" stroke-linejoin="round" stroke-miterlimit="3" d="
						M217.156,141.06c0.366-2.34,0.251-4.701-0.345-7.084c-0.575-2.644-1.505-4.545-2.79-5.705"/>
					
						<path fill="none" stroke="#373535" stroke-width="1.5" stroke-linecap="round" stroke-linejoin="round" stroke-miterlimit="3" d="
						M215.651,97.551c0.46,0.46,0.847,0.81,1.16,1.05c0.22,0.219,0.58,0.596,1.081,1.128c0.513,0.543,0.931,0.977,1.254,1.301
						c0.073,0.125,0.209,0.282,0.408,0.47c0.198,0.209,0.334,0.366,0.407,0.47c0.156,0.157,0.392,0.408,0.705,0.752
						c0.293,0.313,0.56,0.564,0.8,0.752"/>
					
						<path fill="none" stroke="#373535" stroke-width="1.5" stroke-linecap="round" stroke-linejoin="round" stroke-miterlimit="3" d="
						M57.649,115.591c-0.24,0.241-0.59,0.507-1.05,0.8"/>
					
						<path fill="none" stroke="#373535" stroke-width="1.5" stroke-linecap="round" stroke-linejoin="round" stroke-miterlimit="3" d="
						M62.649,127.69c-0.105-4.419-2.121-8.187-6.05-11.3"/>
					
						<path fill="none" stroke="#373535" stroke-width="1.5" stroke-linecap="round" stroke-linejoin="round" stroke-miterlimit="3" d="
						M231.481,199.224c0.617-0.366,0.925-0.904,0.925-1.614c0.094-0.658-0.062-1.516-0.47-2.57"/>
					
						<path fill="none" stroke="#373535" stroke-width="1.5" stroke-linecap="round" stroke-linejoin="round" stroke-miterlimit="3" d="
						M58.7,139.9c-1.892-0.104-3.83-0.528-5.815-1.27c0.982-1.39,2.722-2.216,5.219-2.477c2.456-0.261,5.679,0.021,9.67,0.847h0.11"
						/>
					
						<path fill="none" stroke="#373535" stroke-width="1.5" stroke-linecap="round" stroke-linejoin="round" stroke-miterlimit="3" d="
						M69.06,142.69c-0.449-1.004-0.799-2.127-1.05-3.37c0-0.22-0.021-0.591-0.062-1.113s-0.062-0.924-0.062-1.206"/>
					
						<path fill="none" stroke="#373535" stroke-width="1.5" stroke-linecap="round" stroke-linejoin="round" stroke-miterlimit="3" d="
						M240.775,195.039c0.648-0.993,0.909-1.959,0.784-2.899c-0.115-0.951-0.606-1.808-1.474-2.571"/>
					
						<path fill="none" stroke="#373535" stroke-width="1.5" stroke-linecap="round" stroke-linejoin="round" stroke-miterlimit="3" d="
						M237.751,160.385c-1.881,0-3.584-0.271-5.109-0.814c-1.693-0.429-3.401-1.322-5.125-2.681"/>
					
						<path fill="none" stroke="#373535" stroke-width="1.5" stroke-linecap="round" stroke-linejoin="round" stroke-miterlimit="3" d="
						M67.884,137.001c0-0.471,0.042-0.862,0.125-1.176v-0.11"/>
					
						<path fill="none" stroke="#373535" stroke-width="1.5" stroke-linecap="round" stroke-linejoin="round" stroke-miterlimit="3" d="
						M64.859,139.665c-1.62,0-3.673,0.078-6.16,0.235"/>
					
						<path fill="none" stroke="#373535" stroke-width="1.5" stroke-linecap="round" stroke-linejoin="round" stroke-miterlimit="3" d="
						M240.775,195.039c0,0.083-0.036,0.125-0.109,0.125c-1.149,1.139-2.586,2.263-4.31,3.37"/>
					
						<path fill="none" stroke="#373535" stroke-width="1.5" stroke-linecap="round" stroke-linejoin="round" stroke-miterlimit="3" d="
						M59.279,114.776c2.623,0.877,5.104,1.264,7.445,1.16"/>
					
						<path fill="none" stroke="#373535" stroke-width="1.5" stroke-linecap="round" stroke-linejoin="round" stroke-miterlimit="3" d="
						M68.009,135.715c-3.145-1.797-4.66-4.435-4.545-7.915c0.125-1.024,0.439-2.226,0.94-3.605"/>
					
						<path fill="none" stroke="#373535" stroke-width="1.5" stroke-linecap="round" stroke-linejoin="round" stroke-miterlimit="3" d="
						M236.356,198.534c0.668-1.327,0.94-2.529,0.814-3.605c-0.104-0.961-0.685-1.969-1.739-3.024"/>
					
						<path fill="none" stroke="#373535" stroke-width="1.5" stroke-linecap="round" stroke-linejoin="round" stroke-miterlimit="3" d="
						M227.517,156.89h-0.58c-2.184,0-4.509-0.308-6.975-0.924c-3.762-1.15-7.602-3.094-11.52-5.831"/>
					
						<path fill="none" stroke="#373535" stroke-width="1.5" stroke-linecap="round" stroke-linejoin="round" stroke-miterlimit="3" d="
						M229.727,121.171c-0.293-0.199-0.622-0.387-0.987-0.564c-0.418-0.209-0.747-0.371-0.987-0.486l-0.815,0.58
						c-0.053,0.125-0.053,0.209,0,0.251c0.062,0.042,0.178,0.037,0.345-0.016C228.326,120.936,229.141,121.014,229.727,121.171z"/>
					
						<path fill="none" stroke="#373535" stroke-width="1.5" stroke-linecap="round" stroke-linejoin="round" stroke-miterlimit="3" d="
						M63.229,99.761c0.178,3.271-0.083,6.139-0.784,8.604c-0.7,2.466-1.833,4.483-3.401,6.05c-0.637,0.637-1.103,1.029-1.395,1.175"
						/>
					
						<path fill="none" stroke="#373535" stroke-width="1.5" stroke-linecap="round" stroke-linejoin="round" stroke-miterlimit="3" d="
						M64.405,120.591c-1.704-1.943-3.647-3.458-5.831-4.545h-0.22l-0.125-0.11h-0.11c-0.157-0.157-0.313-0.271-0.47-0.345"/>
					
						<path fill="none" stroke="#373535" stroke-width="1.5" stroke-linecap="round" stroke-linejoin="round" stroke-miterlimit="3" d="
						M232.297,160.495c1.463,1.912,3.4,2.69,5.814,2.335"/>
					
						<path fill="none" stroke="#373535" stroke-width="1.5" stroke-linecap="round" stroke-linejoin="round" stroke-miterlimit="3" d="
						M41.13,157c-5.831-1.014-11.107-6.134-15.83-15.36c-0.867-1.714-3.156-7.606-6.865-17.679"/>
					
						<path fill="none" stroke="#373535" stroke-width="1.5" stroke-linecap="round" stroke-linejoin="round" stroke-miterlimit="3" d="
						M29.03,158.99c-9.205-11.065-14.095-22.856-14.67-35.375"/>
					
						<path fill="none" stroke="#373535" stroke-width="1.5" stroke-linecap="round" stroke-linejoin="round" stroke-miterlimit="3" d="
						M240.086,134.665c-2.685-6.29-6.138-10.788-10.359-13.494"/>
					
						<path fill="none" stroke="#373535" stroke-width="1.5" stroke-linecap="round" stroke-linejoin="round" stroke-miterlimit="3" d="
						M227.517,156.89c-0.157-0.156-0.313-0.271-0.471-0.345c-0.229-0.209-0.396-0.365-0.501-0.47
						c-0.188-0.168-0.329-0.324-0.424-0.471"/>
					
						<path fill="none" stroke="#373535" stroke-width="1.5" stroke-linecap="round" stroke-linejoin="round" stroke-miterlimit="3" d="
						M18.435,123.96c-1.327,0.219-2.686,0.104-4.075-0.345"/>
					
						<path fill="none" stroke="#373535" stroke-width="1.5" stroke-linecap="round" stroke-linejoin="round" stroke-miterlimit="3" d="
						M22.51,121.75c-0.45,0.449-1.071,0.878-1.866,1.285c-0.554,0.313-1.29,0.622-2.209,0.925"/>
					
						<path fill="none" stroke="#373535" stroke-width="1.5" stroke-linecap="round" stroke-linejoin="round" stroke-miterlimit="3" d="
						M246.481,156.78c-0.418,0.104-0.805,0.22-1.16,0.345"/>
					
						<path fill="none" stroke="#373535" stroke-width="1.5" stroke-linecap="round" stroke-linejoin="round" stroke-miterlimit="3" d="
						M18.435,123.96c-0.052-0.104-0.167-0.261-0.345-0.47c0-0.146-0.037-0.339-0.11-0.58c-0.083-0.23-0.125-0.423-0.125-0.58
						c-0.376-0.731-0.763-1.698-1.16-2.9"/>
					
						<path fill="none" stroke="#373535" stroke-width="1.5" stroke-linecap="round" stroke-linejoin="round" stroke-miterlimit="3" d="
						M14.36,123.616h-0.11c-2.383-0.794-4.285-2.732-5.706-5.815"/>
					
						<path fill="none" stroke="#373535" stroke-width="1.5" stroke-linecap="round" stroke-linejoin="round" stroke-miterlimit="3" d="
						M245.321,157.125c1.285-3.835,0.898-7.246-1.16-10.234"/>
					
						<path fill="none" stroke="#373535" stroke-width="1.5" stroke-linecap="round" stroke-linejoin="round" stroke-miterlimit="3" d="
						M191.562,147.345c0.471,0.095,1.312,0.251,2.523,0.471c1.014,0.178,1.803,0.334,2.367,0.47c3.72,0.616,6.63,0.925,8.729,0.925
						c-2.57,1.525-5.172,2.455-7.805,2.79h-0.11c-0.146,0-0.387,0.021-0.721,0.062s-0.601,0.062-0.799,0.062
						c-2.258,0-4.311-0.313-6.16-0.94"/>
					
						<line fill="none" stroke="#373535" stroke-width="1.5" stroke-linecap="round" stroke-linejoin="round" stroke-miterlimit="3" x1="224.382" y1="116.045" x2="226.701" y2="123.036"/>
					
						<path fill="none" stroke="#373535" stroke-width="1.5" stroke-linecap="round" stroke-linejoin="round" stroke-miterlimit="3" d="
						M211.342,94.98c1.421,0.606,2.857,1.463,4.31,2.57"/>
					
						<path fill="none" stroke="#373535" stroke-width="1.5" stroke-linecap="round" stroke-linejoin="round" stroke-miterlimit="3" d="
						M208.661,84.056c-0.396-0.094-0.888-0.23-1.473-0.407c-0.7-0.22-1.139-0.355-1.317-0.408c-2.36-0.919-4.263-1.813-5.704-2.68
						c-0.711-0.47-1.249-0.831-1.615-1.082c-0.627-0.438-1.133-0.856-1.52-1.254"/>
					
						<path fill="none" stroke="#373535" stroke-width="1.5" stroke-linecap="round" stroke-linejoin="round" stroke-miterlimit="3" d="
						M195.872,153.176c-1.107,1.87-2.461,3.056-4.06,3.558c-1.619,0.512-3.526,0.334-5.721-0.533"/>
					
						<path fill="none" stroke="#373535" stroke-width="1.5" stroke-linecap="round" stroke-linejoin="round" stroke-miterlimit="3" d="
						M192.722,81.031c-1.599-1.483-3.15-2.424-4.655-2.821c-1.557-0.418-3.108-0.256-4.654,0.486"/>
					
						<path fill="none" stroke="#373535" stroke-width="1.5" stroke-linecap="round" stroke-linejoin="round" stroke-miterlimit="3" d="
						M192.377,68.336c-1.233,0.125-2.356,0.125-3.37,0c-3.626-0.585-6.572-2.523-8.84-5.815"/>
				</g>
			</g>
		</g>
	</g>
</g>
</svg>
