<?xml version="1.0" encoding="utf-8"?>
<!-- Generator: Adobe Illustrator 17.0.1, SVG Export Plug-In . SVG Version: 6.00 Build 0)  -->
<!DOCTYPE svg PUBLIC "-//W3C//DTD SVG 1.1//EN" "http://www.w3.org/Graphics/SVG/1.1/DTD/svg11.dtd">
<svg version="1.1" id="Layer_1" xmlns="http://www.w3.org/2000/svg" xmlns:xlink="http://www.w3.org/1999/xlink" x="0px" y="0px"
	 width="192.393px" height="242.206px" viewBox="25.668 3.574 192.393 242.206"
	 enable-background="new 25.668 3.574 192.393 242.206" xml:space="preserve">
<g id="Layer_3">
	<g>
		<path fill="#FFFFFF" d="M124.092,175.091c-0.003,0.006-0.006,0.013-0.009,0.019C124.095,175.088,124.098,175.083,124.092,175.091z
			"/>
		<path fill="#FFFFFF" d="M216.804,222.371c-1.631-8.684-5.466-15.945-11.567-21.598c0.353-0.288,0.703-0.518,1.188-0.812
			c0.697-0.424,0.957-1.338,0.538-2.052c-0.407-0.696-1.353-0.963-2.052-0.538c-0.696,0.423-1.36,0.908-1.97,1.451
			c-1.449-1.148-2.995-2.227-4.662-3.218c-3.796-2.258-7.633-3.759-11.513-4.675c0.653-0.099,1.238-0.574,1.234-1.43
			c-0.002-0.493-0.098-0.923-0.244-1.36c0.43-1.305-1.312-2.734-2.483-1.534c-0.984,1.009-1.827,2.181-2.4,3.471
			c-0.017,0.036-0.026,0.074-0.041,0.111c-5.099-0.688-10.276-0.432-15.545,0.473c-0.373-0.841-0.793-1.656-1.324-2.417
			c-0.376-0.539-0.993-0.836-1.61-0.704c-0.047-0.624-0.103-1.249-0.185-1.873c-0.247-1.89-3.251-1.914-3,0
			c0.21,1.602,0.286,3.203,0.314,4.811c-0.757-0.012-1.542,0.105-2.274,0.232c-1.115,0.192-2.35,0.485-3.5,0.92
			c-0.029-0.121-0.045-0.245-0.094-0.361c-0.315-0.754-0.98-1.286-1.845-1.048c-0.713,0.196-1.364,1.09-1.048,1.845
			c0.045,0.09,0.074,0.185,0.099,0.282c-0.03-0.053,0.014,0.32,0.014,0.319c0.001,0.194,0.039,0.364,0.094,0.52
			c-0.99,0.212-1.93,0.645-2.669,1.341c-1.337,0.027-2.66,0.097-3.98,0.209c0.443-0.889,0.02-2.235-1.277-2.235
			c-1.435,0-1.803,1.647-1.11,2.5c-0.917,0.127-1.835,0.273-2.756,0.468c-1.392,0.294-2.704,0.812-4.011,1.351
			c-0.005-0.017-0.005-0.034-0.01-0.051c-0.135-0.439-0.199-0.895-0.334-1.333c-0.145-0.471-0.494-0.832-0.925-0.999
			c-0.03-0.808-0.109-1.619-0.188-2.436c-0.183-1.908-3.184-1.926-3,0c0.169,1.771,0.446,3.54-0.113,5.268
			c-0.149,0.462-0.08,0.857,0.117,1.162c-0.439,0.106-0.885,0.195-1.341,0.255c-1.176,0.153-2.361,0.229-3.551,0.254
			c-0.026-0.729-0.505-1.438-1.446-1.438c-0.919,0-1.396,0.678-1.442,1.39c-1.416-0.074-2.836-0.225-4.255-0.417
			c0.018-0.097,0.03-0.197,0.03-0.307V197c0-0.794-0.507-1.257-1.104-1.399c0.409-1.033,0.749-2.085,1.399-3.011
			c1.115-1.587-1.487-3.083-2.591-1.514c-1.258,1.79-1.366,4.537-3.295,5.795c-0.237,0.154-0.399,0.344-0.511,0.549
			c-2.163-0.445-4.308-0.937-6.418-1.405c0.728-0.769,1.236-1.76,1.458-2.871c0.684-0.132,1.359-0.297,2.024-0.507
			c1.941-0.543,3.265-2.125,3.771-3.915c0.995-0.695,1.726-1.692,1.904-2.927c0.059-0.407,0.117-0.814,0.176-1.222
			c0.042-0.148,0.074-0.276,0.102-0.392c1.589-0.828,2.889-2.285,3.331-3.946c0.735-1.088,1.332-2.234,1.888-3.568
			c-0.625,1.5,1.212-1.462,1.291-1.576c0.7-1.206,0.727-2.494,0.804-3.841c0.254-4.413-1.531-10.629-4.84-13.64
			c-0.221-0.201-0.453-0.38-0.691-0.54c-0.689-1.942-0.632-5.098-1.061-6.699c-0.252-0.941-0.703-1.689-1.29-2.28
			c0.087-1.229-0.186-2.233-0.708-3.009c0.156-0.124,0.337-0.272,0.562-0.464c1.863-1.59,2.328-3.132,2.548-5.514
			c0.029,1.213,0.43,1.12,1.202-0.278c1.048-1.091,2.114-2.123,3.104-3.271c0.269-0.312,0.547-0.604,0.828-0.888
			c0.124,0.521,0.507,0.976,1.051,1.11c0.867,0.217,1.747,0.403,2.631,0.167c0.612-0.163,1.145-0.79,1.101-1.446
			c-0.053-0.794-0.387-1.339-0.939-1.894c-0.306-0.307-0.72-0.439-1.128-0.421c0.937-0.85,1.822-1.73,2.537-2.819
			c0.178,0.535,0.631,0.967,1.365,0.967c1.769,0,1.915-2.5,0.45-2.931c1.056-0.626,2.62-1.687,2.938-2.012
			c0.509-0.521,0.871-1.125,1.198-1.745c0.894-0.423,1.707-1.138,2.328-2.202c0.823-1.41,2.34-2.232,3.167-3.667
			c0.131-0.228,0.249-0.458,0.372-0.688c0.031,0.969,0.046,1.939,0.046,2.911c0,1.935,3,1.935,3,0c0-1.726-0.021-3.447-0.167-5.167
			c-0.021-0.247-0.091-0.461-0.194-0.645c0.754-0.526,1.467-1.112,2.162-1.723c0.118,0.286,0.319,0.53,0.609,0.664
			c0.213,0.098,0.429,0.19,0.648,0.275c0,0,0.404,0.16,0.185,0.059c0.213,0.098,0.436,0.152,0.656,0.17
			c0.088,0.015,0.171,0.035,0.268,0.035c1.885,0,1.928-2.841,0.139-2.986c-0.066-0.027-0.13-0.058-0.197-0.083
			c0,0-0.403-0.16-0.185-0.059c-0.032-0.015-0.065-0.024-0.099-0.037c0.511-0.547,1.011-1.109,1.481-1.71
			c1.635-2.089,3.048-4.281,4.283-6.628c0.705-1.338,1.408-2.654,1.966-4.064c0.687-1.734,0.624-3.706,1.268-5.404
			c1.993-0.938,3.149-3.05,3.667-5.341c0.639,0.561,1.289,1.105,1.782,1.707c0.52,0.633,1.586,0.536,2.121,0
			c0.62-0.62,0.519-1.49,0-2.121c-0.614-0.75-1.396-1.336-2.118-1.975c-0.463-0.409-0.965-0.824-1.084-1.399
			c2.118-0.288,4.125-0.95,6.207-1.453c0.919-0.222,1.411-1.401,0.896-2.204c-1.142-1.782-2.941-2.124-4.705-3.038
			c-0.211-0.109-0.418-0.165-0.617-0.179c-0.023-0.953-0.22-1.911-0.594-2.898c0.008-0.104,0.02-0.205,0.026-0.311
			c0.209-3.25,0.093-6.891-0.548-10.091c-0.718-3.59-2.401-7.065-2.753-10.704c-0.101-1.042-0.334-1.973-0.645-2.839
			c0.411-0.175,0.752-0.502,0.819-0.951c0.247-1.647-0.044-3.225-1.522-4.194c-0.665-0.436-1.596-0.153-2.013,0.485
			c-1.672-2.184-3.519-4.237-4.448-7.099c-0.148-0.456-0.337-0.871-0.545-1.267c2.089-1.551,4.86-2.245,7.006-3.695
			c1.106-0.748,0.854-2.987-0.757-2.795c-3.934,0.468-7.873,0.654-11.833,0.667c-0.422,0.001-0.745,0.15-0.983,0.373
			c-0.907-0.599-1.761-1.263-2.741-1.788c-0.709-0.411-1.466-0.644-2.266-0.717c-0.033-0.049-0.058-0.089-0.095-0.143
			c-0.101-0.178-0.23-0.338-0.354-0.502c0.756-0.834,0.403-2.556-1.062-2.556c-0.638,0-1.061,0.328-1.278,0.766
			c-1.26-0.524-2.692-0.635-3.947-0.145c-0.303-1.975-1.354-3.516-2.626-5.099c-1.257-1.563-3.593-1.911-5.418-2.085
			c-1.557-0.148-2.428-1.262-3.673-2.326c-0.456-0.389-0.998-0.698-1.579-0.935c-0.018-0.029-0.04-0.053-0.057-0.082
			c0.401-0.226,0.703-0.65,0.748-1.262c0.003-0.041,0.019-0.09,0.025-0.133c0.183,0.084,0.396,0.133,0.641,0.133H123
			c1.935,0,1.935-3,0-3h-1.525c0.116-0.497,0.158-0.989,0.011-1.444c-0.283-0.878-0.92-1.575-1.8-1.877
			c-0.772-0.266-1.752-0.057-2.292-0.739c-0.427-0.541-0.968-0.612-1.436-0.418c0.034-0.446,0.054-0.895,0.042-1.354
			c-0.049-1.931-3.049-1.936-3,0c0.064,2.513-0.737,4.777-1.577,7.083c-1.004-0.087-2.092,0.146-3.2,0.836
			c-1.052,0.654-2.047,1.399-3.073,2.094c-0.554,0.37-1.12,0.721-1.698,1.052c-0.075,0.044-0.132,0.075-0.199,0.113
			c-1.113-0.436-2.37-0.568-3.383-0.147c-2.224,0.924-3.446,1.75-4.853,3.728c-1.174,1.65-0.671,3.723-2.051,5.278
			c-3.379,3.809-6.271,7.784-9.383,11.793c-1.12-0.521-2.482-0.538-3.784-0.16c-0.029-0.58-0.08-1.157-0.188-1.735
			c-0.151-0.804-1.107-1.25-1.845-1.047c-0.833,0.229-1.195,1.037-1.047,1.837c-0.71,0.046-1.387,0.523-1.387,1.442V39
			c0,0.569,0.263,0.966,0.629,1.201c-0.184,0.3-0.349,0.613-0.473,0.95c-0.836,0.43-1.567,1.146-2.073,2.241
			c-1.089,2.357-1.691,4.448-1.995,6.952c-0.242,0.146-0.48,0.323-0.713,0.521c-0.612-0.212-1.356-0.108-1.837,0.544
			c-1.242,1.685-2.041,2.544-4.205,2.591c-1.041,0.022-1.996,1.295-1.295,2.257c1.265,1.737,1.393,3.853,2.248,5.718
			c-0.355,0.111-0.709,0.247-1.062,0.443c-5.064,2.829-10.381,4.827-15.892,6.596c-2.817,0.904-5.634,1.692-8.538,2.264
			c-2.885,0.568-5.794-0.149-8.589,0.918c-3.918,1.498-5.367,5.931-2.427,9.193c3.189,3.538,5.676,6.236,10.724,6.507
			c2.031,0.109,3.922-1.227,5.337-2.501c2.042-1.84,4.351-3.054,6.835-4.254c2.271-1.097,4.732-1.573,7.122-2.337
			c3.287-1.051,6.41-2.735,9.607-4.029c1.045-0.423,2.082-0.864,3.118-1.308c2.031,0.932,4.464,0.497,6.202-1.078
			c1.125-1.02,2.261-1.557,3.389-1.974c1.39-0.514,2.771-1.015,4.14-1.559c0.567,0.199,1.205,0.311,1.915,0.311
			c1.178,0,2.156-0.308,2.943-0.814c1.929-0.416,3.177-1.753,3.722-3.367c3.869,0.896,7.6,1.667,11.616,1.803
			c-0.116,0.293-0.147,0.621-0.06,0.942c0.149,0.555,0.381,1.078,0.583,1.615c-0.046-0.004-0.088-0.014-0.136-0.014
			c-1.935,0-1.935,3,0,3c1.056,0,1.531-0.894,1.434-1.706c0.078,0.013,0.149,0.039,0.232,0.039c0.472,0,0.945-0.248,1.225-0.632
			c0.287,1.256,2.036,1.415,2.693,0.457c0.779-0.045,1.416-0.702,1.416-1.491c0-0.357,0.005-0.715,0.014-1.072
			c0.218,0.146,0.488,0.238,0.819,0.238c1.205,0,1.659-1.164,1.363-2.042c0.31-0.041,0.62-0.076,0.929-0.119
			c-0.265,0.872,0.191,1.994,1.375,1.994c1.357,0,1.758-1.473,1.212-2.354c1.491-0.212,2.981-0.423,4.475-0.603
			c-0.745,1.148-1.006,2.365-1.159,3.643c-1.12,1.548-3.068,2.724-4.423,4.284c-1.634,0.069-3.144,0.642-4.166,1.84
			c-1.326-0.072-2.739,0.352-3.91,1.161c-0.558-0.93-1.966-1.297-2.491-0.061c-0.589,1.389-1.291,2.573-2.453,3.551
			c-1.15,0.967-2.678,1.58-4.009,2.245c-0.534,0.267-0.757,0.698-0.761,1.142c-0.093,0.041-0.182,0.084-0.275,0.125
			c-0.233-0.371-0.633-0.638-1.207-0.638c-0.526,0-0.904,0.225-1.144,0.548c-0.112-0.025-0.227-0.048-0.356-0.048
			c-1.308,0-1.728,1.37-1.268,2.258c-0.409,0.29-0.811,0.6-1.198,0.953c-2.036,1.859-3.589,4.411-5.231,6.621
			c-0.032,0.012-0.067,0.018-0.099,0.031c-0.458,0.192-0.93,0.341-1.405,0.479c-0.323-0.314-0.792-0.468-1.365-0.288
			c-0.535,0.168-1.038,0.399-1.531,0.654c-0.148-0.016-0.303-0.018-0.469,0.013c-0.969,0.177-1.957,0.045-2.926,0.289
			c-1.107,0.279-1.849,1.189-2.121,2.258c-0.203,0.797,0.25,1.619,1.047,1.845c0.04,0.011,0.077,0.016,0.116,0.025
			c-0.024,0.099-0.058,0.194-0.078,0.294c-0.892,0.747-1.612,1.727-2.026,2.773c-1.242,3.14-4.895,5.422-7.034,7.954
			c-0.536,0.634-1.032,1.285-1.518,1.941c-0.644-0.275-1.384-0.435-2.229-0.435c-4.41,0-6.073,4.248-4.999,7.464
			c-1.543,1.121-2.255,3.056-2.138,4.933c-0.257,0.208-0.509,0.438-0.752,0.715c-0.57,0.65-3.129,4.283-2.331,3.683
			c-1.775,1.335-3.341,2.522-4.083,4.744c-0.286,0.855-0.461,1.741-0.562,2.642c-0.045-0.004-0.086-0.014-0.133-0.014
			c-1.935,0-1.935,3,0,3c0.024,0,0.044-0.006,0.068-0.007c0.082,1.438,0.3,2.882,0.595,4.283c-0.175,1.041-0.254,2.075-0.238,3.081
			c-1.685,0.242-1.607,2.976,0.241,2.976c0.049,0,0.092-0.01,0.139-0.014c0.11,0.434,0.237,0.858,0.398,1.264
			c-1.153,3.229,0.5,7.583,4.963,7.583c0.195,0,0.382-0.012,0.566-0.027c0.158,0.21,0.311,0.42,0.479,0.631
			c0.028,0.035,0.076,0.123,0.138,0.244c-0.186,0.125-0.353,0.304-0.479,0.562c-2.13,4.38,0.12,8.262,0.295,12.757
			c0.075,1.926,3.045,1.939,3,0c-0.065-2.757-1.183-6.338-0.07-9.016c0.919,0.726,1.906,1.015,2.923,1.229
			c0.004,0.027,0.005,0.055,0.009,0.082c0.347,1.144,0.749,2.299,1.389,3.312c-0.593,1.156-0.793,2.524-0.386,3.968
			c-1.445,0.445-1.293,2.925,0.468,2.925c0.233,0,0.437-0.046,0.613-0.122c0.162,0.52,0.29,1.045,0.394,1.574
			c0.043,1.153,0.206,2.294,0.261,3.443c-0.583,0.017-1.154,0.331-1.382,1.04c-0.268,0.835-0.613,1.537-1.135,2.147
			c-0.418,0.298-0.812,0.628-1.146,1.023c-1.027,1.216,0.343,3.413,1.818,2.355c0.106-0.076,0.202-0.156,0.303-0.235
			c0,0.001,0,0.001,0,0.001c0.001-0.002,0.003-0.003,0.005-0.005c0.317-0.246,0.614-0.5,0.88-0.768
			c0.301-0.214,0.617-0.415,0.941-0.609c0.055,1.1,0.15,2.196,0.343,3.282c0.074,0.418,0.18,0.852,0.272,1.278
			c-0.408,0.32-0.645,0.838-0.448,1.493c0.268,0.894,1.12,2.794,0.112,3.495c-0.947,0.659-1.78,1.028-2.461,2.016
			c-1.056,1.53,1.128,2.769,2.356,1.817c0.666-0.516,1.348-0.921,2.171-1.114c0.112-0.026,0.213-0.062,0.306-0.104
			c0.109,0.373,0.222,0.756,0.325,1.12c0.641,2.263,2.216,4.066,3.505,5.998c-0.37,0.329-0.598,0.825-0.481,1.438
			c0.1,0.521,0.176,1.059,0.231,1.599c-0.021,0.028-0.046,0.05-0.066,0.079c-0.826,1.17-0.638,2.717,0.153,3.848
			c0.676,0.967,2.47,1.029,2.742-0.358c0.115-0.588,0.168-1.177,0.194-1.765c0.249,0.019,0.476-0.017,0.677-0.098
			c2.153,2.206,4.777,3.868,7.513,5.438c-0.018,1.428-0.132,2.856,0.224,4.257c0.279,1.101,1.722,1.449,2.507,0.662
			c0.649-0.65,1.287-1.327,1.735-2.137c0.031-0.056,0.048-0.111,0.071-0.166c2.81,1.641,5.445,3.133,8.476,4.134
			c-0.002,0.037-0.01,0.07-0.01,0.108c0.011,1.339,0.096,2.944,0.872,4.091c0.458,0.676,1.312,0.972,2.053,0.538
			c0.67-0.393,0.997-1.374,0.538-2.052c-0.306-0.452-0.409-1.195-0.444-1.907c0.61,0.12,1.223,0.237,1.876,0.314
			c0.53,0.062,1.084,0.125,1.655,0.185c0.001,0.75,0.484,1.498,1.451,1.498c0.545,0,0.931-0.242,1.168-0.584
			c0.149,0.051,0.312,0.084,0.499,0.084c0.183,0,0.343-0.034,0.491-0.082c1.128,0.776,2.066,1.669,2.714,3.006
			c0.483,0.997,2.097,0.962,2.591,0c0.423-0.825,0.878-1.634,1.151-2.525c0.071-0.231,0.088-0.446,0.062-0.642
			c2.909,0.115,5.958,0.145,9.045,0.027c-0.021,0.767,0.458,1.549,1.447,1.549h0.333c1.062,0,1.537-0.903,1.433-1.718
			c2.938-0.212,5.868-0.569,8.693-1.119c0.168,0.552,0.624,1.004,1.374,1.004c1.022,0,1.499-0.838,1.44-1.628
			c2.697-0.674,5.264-1.546,7.602-2.666c0.213,0.451,0.64,0.794,1.291,0.794c1.281,0,1.709-1.313,1.293-2.202
			c4.589-2.808,7.996-6.801,9.291-12.432c0.85,0.228,1.816,0.233,2.878-0.062c10.483-2.922,19.53-3.848,29.496,1.266
			c8.646,4.437,12.989,11.58,14.738,20.893C207.505,232.262,218.105,229.303,216.804,222.371z M163.116,79.632
			c0.348,0.147,0.729,0.282,1.116,0.425c-0.482,0.132-0.967,0.253-1.455,0.356C162.904,80.151,163.019,79.891,163.116,79.632z
			 M131.088,210.102c-5.298,0.643-10.574,0.417-15.885,0.149c-4.822-0.243-9.527-0.066-14.21-1.425
			c-4.021-1.167-8.014-4.749-11.654-6.867c-3.247-1.89-6.497-6.355-7.516-9.955c-1.371-4.842-2.384-9.471-2.322-14.505
			c0.029-2.349-0.335-4.49-0.969-6.576c0.46-0.023,0.918-0.038,1.383-0.077c0.464,3.938,2.497,7.904,4.627,11.323
			c2.102,3.373,5.268,5.6,8.095,8.299c2.693,2.57,4.56,4.793,7.645,6.148c-2.948,2.664-3.02,8.33,1.924,9.354
			c8.594,1.778,17.148,3.705,25.962,3.863c3.375,0.061,6.785-0.522,9.993-1.53c1.568-0.492,3.016-0.958,4.438-1.369
			C139,208.82,134.496,209.688,131.088,210.102z"/>
	</g>
	<path fill="#FFFFFF" d="M210.345,224.011c0.03-0.151,0.062-0.302,0.092-0.455c0.829-4.322,1.87-11.054-2.088-14.238
		c-0.696-0.561-1.553-0.955-2.437-1.135c-0.272-1.434-0.811-2.412-2.142-3.405c-1.593-1.188-3.292-1.433-4.827-0.991
		c-2.438-1.636-4.601-3.193-7.752-4.115c-4.897-1.433-10.052-2.573-15.164-2.695c-9.568-0.229-18.397,5.052-27.557,7.019
		c-0.665,0.143-1.215,0.391-1.665,0.71c-2.705-0.132-5.408-0.162-8.133-0.038c-3.38,0.153-6.694,0.784-10.039,1.162
		c-5.553-0.898-11.182-1.554-16.8-1.162c-0.497,0.035-0.927,0.169-1.296,0.37c-3.304-0.395-6.609-0.781-9.921-0.934
		c0.045-0.226,0.047-0.456-0.002-0.668c-0.295-1.253-0.887-2.22-1.634-3.063c0.156-0.146,0.313-0.292,0.471-0.44
		c0.609-0.01,1.237-0.34,1.496-1.032c0.365-0.973,0.426-1.377,0.554-2.398c0.114-0.91-0.569-1.368-1.311-1.416
		c-0.399-0.829-1.54-1.311-2.285-0.611c-0.302-0.807-1.307-1.142-2.106-0.735l-0.002-0.002c0.15-0.501,0.309-1.001,0.483-1.504
		c0.576-1.69-1.816-2.474-2.695-1.18c-0.102-0.556-0.146-1.117-0.084-1.719c0.075-0.736-0.593-1.36-1.279-1.476
		c-0.135-1.936-0.234-3.835-0.607-5.423c-0.331-1.406-2.603-1.467-2.893,0c-0.211,1.064-0.332,2.129-0.414,3.194
		c-0.237-1.202-0.43-2.406-0.693-3.527c-0.213-0.907-1.412-1.427-2.203-0.896c-0.213,0.143-0.406,0.312-0.582,0.506
		c-0.186-1.903-0.459-3.792-1.03-5.632c0.01-0.084,0.032-0.159,0.036-0.246c0.154-3.391,0.164-6.779,0.164-10.17
		c0-3.869-6-3.869-6,0c0,0.803-0.009,1.605-0.012,2.408c-0.641,0.105-1.193,0.579-1.155,1.426
		c0.536,11.706-0.737,32.829,13.739,36.888c1.882,0.527,3.877,0.668,5.882,0.693c0.134,0.079,0.267,0.159,0.401,0.235
		c0.103,0.124,0.231,0.23,0.387,0.312c1.895,0.983,3.76,1.825,5.769,2.409c0.239,0.24,0.566,0.417,0.988,0.463
		c2.524,0.276,5.056,0.48,7.584,0.703c0.242,0.277,0.603,0.463,1.083,0.463h6c0.237,0,0.445-0.046,0.624-0.125
		c0.523-0.033,1.047-0.069,1.571-0.096c0.037,0.414,0.245,0.798,0.714,1.016c3.023,1.407,6.024,0.771,8.968-0.373
		c0.67-0.056,1.244-0.319,1.704-0.711c0.652-0.288,1.301-0.584,1.946-0.876c3.806,0.091,7.495-0.633,11.189-1.397
		c0.55,2.229,2.589,4.189,5.479,3.568c0.807-0.173,1.605-0.384,2.402-0.602c0.178,0.192,0.4,0.336,0.669,0.376
		c0.466,0.07,0.92,0.164,1.368,0.312c0.25,0.083,0.601,0.312,0.735,0.499c0.474,0.664,1.298,0.98,2.052,0.538
		c0.657-0.385,1.015-1.386,0.538-2.052c-0.161-0.226-0.337-0.423-0.521-0.609c3.02,0.111,6.04,0.222,9.06,0.032
		c0.917-0.058,1.779-0.923,1.446-1.898c-0.056-0.164-0.119-0.311-0.181-0.461c3.75-0.296,7.406-1.721,11.169-0.86
		c1.057,0.242,1.772-0.563,1.863-1.394c1.037,0.206,2.069,0.445,3.091,0.698c0.035,0.721,0.514,1.415,1.444,1.415
		c0.62,0,1.038-0.31,1.261-0.728c3.919,1.027,6.083,3.085,9.468,5.113c0.542,0.325,1.127,0.511,1.718,0.579
		c0.775,1.515,1.938,2.973,3.683,4.023c-0.018,0.805-0.079,1.619-0.187,2.401c-0.271,1.971-0.596,4.293-1.427,6.123
		c-0.663,1.46-2.048,2.192-2.848,3.378c-0.732,0.155-1.437,0.387-2.106,0.724c-0.436,0.286-2.684,1.835-1.925,1.547
		c-0.26,0.099-0.497,0.218-0.721,0.345c-0.147-1.073-0.479-2.062-0.973-2.961c0.023-0.181,0.057-0.358,0.057-0.545v-3
		c0-2.453-2.047-4.5-4.5-4.5s-4.5,2.047-4.5,4.5v1.564c-0.078,0.107-0.152,0.217-0.219,0.331c-1.1,1.877-0.622,3.938,0.736,5.382
		c0.008,0.365,0.046,0.73,0.144,1.086c0.047,0.172,0.114,0.35,0.189,0.529c-1,1.915-0.771,4.378,1.711,5.66
		c1.508,0.779,2.701,1.644,3.982,2.314c0.979,1.483,2.759,2.394,4.819,1.805c1.938-0.553,3.298-1.116,4.664-2.165
		c1.965-0.207,3.501-0.596,5.379-2.055c1.072-0.833,1.547-1.959,2.781-2.671c0.4-0.23,0.743-0.518,1.063-0.826
		c0.801-0.202,1.567-0.607,2.249-1.289c0.786-0.785,1.207-1.806,1.519-2.85c0.036-0.178,0.064-0.357,0.098-0.535
		C215.09,230.178,213.815,225.141,210.345,224.011z M87.809,201.825c0.029-0.051,0.059-0.101,0.082-0.156
		c0.022-0.028,0.05-0.048,0.071-0.079c0.048-0.07,0.091-0.144,0.139-0.215c0.08,0.056,0.157,0.115,0.238,0.169
		c0.024,0.322,0.151,0.598,0.338,0.82C88.384,202.199,88.093,202.023,87.809,201.825z"/>
</g>
<g id="Layer_1_2_">
	<g>
		<g id="Layer_1_1_">
			<g>
				<g id="Layer_1_3_">
					<g>
						<path fill="none" stroke="#000000" stroke-width="1.5" stroke-miterlimit="10" d="M75.012,42.285
							c1.179,1.479,1.769,2.262,1.769,2.348c0.107,0.536,0.161,1.34,0.161,2.413"/>
						<path fill="none" stroke="#000000" stroke-width="1.5" stroke-miterlimit="10" d="M71.699,48.236
							c-0.536,2.423-0.804,3.967-0.804,4.632c-0.064,2.595,0.171,4.096,0.708,4.503"/>
						<path fill="none" stroke="#000000" stroke-width="1.5" stroke-miterlimit="10" d="M61.374,64.19
							c-0.257,0.343-0.494,0.836-0.708,1.48c-0.171,0.536-0.268,0.986-0.289,1.351c-0.064,2.916,0.826,5.061,2.67,6.433
							c0.644,0.515,1.072,0.632,1.286,0.354"/>
						<path fill="none" stroke="#000000" stroke-width="1.5" stroke-miterlimit="10" d="M59.733,64.448
							c-0.558,0.364-1.051,0.825-1.479,1.383c-1.179,1.544-1.748,2.702-1.705,3.474l0.032,2.831c0,0.193,0.042,0.439,0.128,0.74
							c0.214,1.029,0.74,1.854,1.576,2.476"/>
						<path fill="none" stroke="#000000" stroke-width="1.5" stroke-miterlimit="10" d="M55.23,66.023
							c-0.536,0.515-0.997,1.201-1.383,2.059c-0.364,0.836-0.558,1.576-0.579,2.22v0.193c0,0.579,0.15,1.522,0.45,2.831
							c0.386,1.608,0.847,2.616,1.383,3.023"/>
						<path fill="none" stroke="#000000" stroke-width="1.5" stroke-miterlimit="10" d="M52.206,67.085
							c-0.193,0.15-0.439,0.418-0.739,0.804c-0.236,0.322-0.397,0.558-0.482,0.708c-0.322,0.729-0.644,1.705-0.965,2.927
							c-0.15,0.407-0.171,1.201-0.064,2.38c0.043,0.751,0.418,1.823,1.126,3.217"/>
						<path fill="none" stroke="#000000" stroke-width="1.5" stroke-miterlimit="10" d="M47.606,68.886
							c-0.193,0.214-0.364,0.579-0.515,1.093c-0.257,0.794-0.204,1.33,0.161,1.608"/>
						<path fill="none" stroke="#000000" stroke-width="1.5" stroke-miterlimit="10" d="M45.001,70.044
							c-0.386,0.493-0.643,1.018-0.771,1.576c-0.085,0.364-0.129,0.847-0.129,1.447c0,2.272,0.204,3.549,0.611,3.828"/>
						<path fill="none" stroke="#000000" stroke-width="1.5" stroke-miterlimit="10" d="M41.656,71.492
							c-0.322,0.601-0.537,1.319-0.644,2.155c-0.15,1.973-0.043,3.099,0.321,3.378"/>
						<path fill="none" stroke="#000000" stroke-width="1.5" stroke-miterlimit="10" d="M37.636,71.813
							c-0.343,0.708-0.397,1.309-0.161,1.802c0.15,0.343,0.504,0.729,1.061,1.158"/>
						<path fill="none" stroke="#000000" stroke-width="1.5" stroke-miterlimit="10" d="M34.386,72.231
							c-0.085,0.172-0.268,0.365-0.546,0.579c-0.15,0.085-0.461,0.193-0.933,0.322c-0.557,0.086-0.933,0.225-1.125,0.418"/>
						<path fill="none" stroke="#000000" stroke-width="1.5" stroke-miterlimit="10" d="M161.248,68.211
							c0.428,0.321,0.739,1.715,0.933,4.182c0.106,1.607,0.106,2.766,0,3.474c-0.086,0.515-0.204,1.597-0.354,3.249
							c-0.107,0.536-0.076,1.275,0.096,2.219l0.161,1.029l0.9,1.287l0.772-0.611c0.578-0.515,1.136-0.772,1.673-0.772
							c0.621-0.021,1.489,0.021,2.605,0.129c0.643,0.042,1.104-0.129,1.383-0.515c0.643-0.772,0.3-1.661-1.029-2.669
							c-0.986-0.708-1.598-1.051-1.834-1.03c-0.321,0-1.061-0.439-2.22-1.318c-0.3-0.236-0.568-0.408-0.804-0.515
							c0.043-0.3,0.183-0.675,0.418-1.126c0.172-0.429,0.215-0.997,0.129-1.705l-0.032-5.403c0.043-0.836,0.043-1.512,0-2.026
							c-0.021-1.479-0.279-2.82-0.772-4.021c-0.686-1.737-1.437-4.675-2.251-8.813c-0.558-2.144-0.869-3.581-0.933-4.31
							c-0.043-0.15,0-0.397,0.128-0.74l0.419-1.062c0.321-0.686,0.268-1.19-0.161-1.511l-4.406-2.059
							c-0.215-0.365-0.387-0.632-0.515-0.804l-1.158-1.543c-0.558-1.008-1.416-2.273-2.573-3.795
							c0.515-0.365,0.868-0.676,1.062-0.934c0.3-0.364,0.343-0.718,0.129-1.061l-0.161-0.129l0.772-0.579
							c0.729-0.601,1.383-0.997,1.961-1.19l4.054-1.223c0.407-0.772,0.192-1.479-0.644-2.123c-0.601-0.429-3.206-0.311-7.816,0.354
							c-1.115,0.15-2.037,0.236-2.767,0.257c-3.151,0.107-5.414-0.354-6.787-1.383c-0.771-0.622-1.254-1.211-1.446-1.769
							c-0.13-0.558-0.397-0.997-0.804-1.318c-0.387-0.344-0.891-0.408-1.513-0.193c-0.407,0.257-0.708,0.418-0.9,0.482
							c-1.158,0.279-1.845,0.525-2.06,0.74c-0.342-0.064-0.696-0.236-1.061-0.515c-1.865-3.774-3.185-6.047-3.956-6.819
							l-0.194-0.192l-0.322-0.193l-0.064-0.032c-0.214-0.108-0.406-0.161-0.579-0.161h-0.483c-0.449,0.15-0.74,0.225-0.868,0.225
							c-0.493-0.043-1.137-0.354-1.93-0.933l-1.576-1.062c-1.951-1.007-2.981-1.565-3.088-1.672
							c-0.386-0.279-0.546-0.686-0.482-1.222c0.021-0.343,0.107-0.622,0.257-0.836l0.096-0.033l0.065-0.032h0.032l0.128-0.032h0.032
							l0.322,0.064v-0.032l1.094,0.29c1.072,0.258,1.715,0.236,1.93-0.064c0.643-0.386,0.257-1.115-1.158-2.188
							c-0.686-0.515-1.362-0.804-2.026-0.868c0.15-0.279,0.236-0.472,0.257-0.58c0.472-1.114,0.333-1.962-0.418-2.541
							c-0.407-0.279-0.89-0.407-1.447-0.386l-0.932,0.193l-0.837-0.032l-0.032,0.032l-0.386-0.032
							c-0.537,0.043-0.836,0.118-0.901,0.225v0.032l-0.257-0.161c-0.064-0.042-0.085-0.472-0.064-1.287
							c0.043-0.815-0.29-1.479-0.998-1.994c-0.408-0.322-0.868-0.257-1.383,0.193c-0.192,0.171-0.428,0.428-0.708,0.771
							c-0.408,0.558-0.654,1.565-0.74,3.023c-0.064,1.394-0.321,2.413-0.771,3.056l-0.097,0.129
							c-0.386,0.536-1.136,1.126-2.251,1.77c-1.008,0.579-1.918,0.954-2.734,1.125c-0.493,0.086-0.976,0.3-1.448,0.643
							c-0.686,0.472-1.072,0.719-1.158,0.74c-0.257,0.107-0.965,0.128-2.123,0.065c-0.386-0.022-0.805-0.011-1.255,0.032
							c-0.386-0.15-0.825,0-1.318,0.451l-1.19,1.157l-1.833,0.451c-0.644,0.15-1.094,0.407-1.351,0.771L94.6,20.703
							c-0.064,1.222-0.214,2.015-0.45,2.38c-0.579,0.857-1.308,1.854-2.187,2.991c-1.266,1.694-2.895,3.656-4.889,5.887
							l-2.445,2.927c-1.823,1.823-2.905,2.616-3.248,2.38c-0.794-0.622-1.233-1.104-1.319-1.447
							c-0.064-0.365-0.482-0.836-1.254-1.416c-0.365-0.278-0.719-0.214-1.062,0.193l-0.289,0.482l-0.097,0.29l-0.064,0.064
							c-0.365,0.493-0.579,0.912-0.644,1.254c-0.021,0-0.021,0.021,0,0.064c-0.514-0.386-0.922-0.386-1.222,0
							c-0.365,0.451-0.579,1.041-0.643,1.77l-0.128,2.284c-0.065,0.579,0.031,1.041,0.289,1.383
							c0.043,0.042,0.064,0.075,0.064,0.096l-0.386,0.354c-0.214,0.214-0.419,0.482-0.611,0.804
							c-0.836,1.094-1.362,1.887-1.576,2.38c-0.193,0.451-0.44,1.255-0.74,2.413c-0.301,0.193-0.686,0.568-1.158,1.126l-1.865,2.283
							c-0.922,0.794-1.608,1.276-2.059,1.448c-0.386,0.15-0.997,0.247-1.833,0.29c-0.536,0.043-0.912,0.193-1.126,0.451
							c-0.364,0.493-0.15,1.136,0.644,1.93c0.922,0.9,1.222,1.876,0.9,2.927c-0.064,0.15-0.214,0.675-0.45,1.576
							c-0.214,0.493-0.29,0.89-0.225,1.189c-0.107,0-0.193,0.022-0.257,0.065c-0.322,0.085-0.729,0.343-1.222,0.771
							c-0.386,0.322-0.805,0.75-1.255,1.287l-0.418,0.611c-0.407-0.279-0.955-0.193-1.641,0.258
							c-0.579-0.344-1.437-0.247-2.573,0.289c-0.729,0.343-1.373,0.772-1.93,1.287c-0.343-0.086-0.901,0.021-1.673,0.322
							c-0.579,0.257-1.029,0.504-1.351,0.74c-0.407-0.257-1.136-0.193-2.187,0.193l-0.515,0.193
							c-0.879,0.408-1.501,0.869-1.866,1.383l-0.032,0.032c-0.386-0.086-0.89,0.054-1.511,0.418c-0.601,0.343-0.965,0.59-1.094,0.74
							c-0.407-0.257-0.911-0.29-1.512-0.097c-0.644,0.236-1.189,0.654-1.641,1.254l-0.192,0.29
							c-0.301-0.301-0.494-0.482-0.579-0.547c-0.837-0.621-1.641-0.696-2.413-0.225c-0.321,0.193-0.632,0.493-0.932,0.901
							l-0.096,0.192c-0.472-0.257-1.062-0.332-1.77-0.225c-0.644,0.129-1.137,0.343-1.48,0.644c-0.45-0.343-1.115-0.515-1.994-0.515
							h-0.225c-1.266,0-2.199,0.397-2.799,1.19c-0.064,0.107-0.182,0.322-0.354,0.644l-0.032,0.193c-0.3,0-0.687,0.15-1.158,0.451
							c-0.557,0.364-0.933,0.675-1.126,0.932c-0.515,0.644-0.321,1.512,0.58,2.606c0.879,1.115,1.201,1.833,0.965,2.155l-0.74,0.901
							c-0.386,0.686-0.311,1.222,0.225,1.608c0.3,0.257,0.601,0.364,0.901,0.321c0.279-0.064,0.59,0.032,0.933,0.29
							c0.021,0.022,0.054,0.236,0.097,0.643c-0.021,0.322,0.15,0.622,0.515,0.901l0.45,0.257c0.429,0.343,1.169,0.579,2.22,0.708
							l0.836,0.129c0.365,0.043,1.169,0.536,2.412,1.479c1.223,0.965,1.931,1.448,2.124,1.448c0.943,0.042,1.801-0.097,2.573-0.418
							c1.351-0.622,2.069-0.976,2.155-1.062c0.129-0.085,0.472-0.515,1.029-1.287c0.193-0.171,0.418-0.407,0.676-0.708
							c0.107-0.021,0.236-0.107,0.386-0.257c0.193-0.279,0.375-0.482,0.547-0.611l1.512-0.644l0.837-0.193
							c1.029-0.3,1.844-0.579,2.444-0.836c0.944-1.094,1.737-1.662,2.381-1.705c2.058-0.149,3.248-0.439,3.57-0.868l0.16-0.451
							c0.858,0.279,2.359-0.139,4.504-1.254c1.672-0.965,2.991-1.544,3.956-1.736l3.313-0.837h0.032
							c2.638-0.708,4.321-1.308,5.05-1.801l0.546-0.546 M159.188,87.768c0.172,0.107,0.462,0.096,0.868-0.032l1.095,0.515
							l2.315,1.319c0.665,0.343,1.147,0.472,1.447,0.386c0.108-0.021,0.269-0.182,0.483-0.482c0.472-0.643,0.311-1.673-0.483-3.088
							l-1.93-2.734 M158.835,89.086c0.064,0.064-0.343,1.812-1.223,5.243c0.216-0.085,0.451-0.354,0.708-0.804
							c0.879-1.18,1.438-2.027,1.673-2.542l0.804-1.705c0.193-0.407,0.312-0.75,0.354-1.029 M146.902,111.795
							c0.363,0.279,0.953-0.204,1.769-1.447l0.418-0.611c1.286-1.973,2.154-3.463,2.605-4.471c0.343-0.3,0.814-0.857,1.416-1.673
							c0.558-0.558,1.188-1.297,1.897-2.219c0.943-1.265,1.607-2.723,1.993-4.375c0.087-0.343,0.173-0.836,0.258-1.479l0.354-1.19
							 M117.953,140.904c0.086-0.128,0.247-0.149,0.482-0.063c0.279,0.106,0.525,0.354,0.74,0.739
							c0.3-0.128,0.718-0.536,1.254-1.222c0.729-0.708,1.201-1.201,1.416-1.48l0.032-0.031c0.965-1.287,1.715-2.123,2.251-2.509
							c0.644-0.473,1.608-0.516,2.895-0.129c1.2,0.386,1.962,0.364,2.283-0.064c1.029-1.479,0.644-2.959-1.157-4.439
							c0.107-0.107,0.171-0.192,0.192-0.257l0.58-0.933c0.364-0.429,0.889-0.418,1.575,0.033c0.687,0.472,1.189,0.482,1.512,0.032
							c0.472-1.287,0.719-2.23,0.74-2.832c0.321-0.299,0.751-0.6,1.286-0.899c0.579-0.236,0.923-0.408,1.029-0.516
							c0.043-0.407,0.097-0.654,0.161-0.739l2.702-3.506c0.386-0.493,0.868-1.051,1.448-1.672c0.921-0.537,1.5-0.934,1.735-1.191
							l0.098-0.128c0.257,0.215,0.438,0.407,0.546,0.579l0.161,0.321c0.258,0.751,0.472,1.201,0.644,1.351
							c0.558,0.386,1.018,0.386,1.383,0l0.097-0.128c0.344-0.429,0.59-1.565,0.739-3.41c0.15-1.801,0.451-3.002,0.901-3.603
							l0.481-0.643l0.227-0.097l1.029,0.097c0.257,0,0.771,0.149,1.543,0.45c0.687,0.085,1.18-0.065,1.479-0.45
							c0.515-1.523,0.161-2.745-1.062-3.667c-0.064-0.064-0.16-0.118-0.289-0.161 M116.891,141.741l-1.029,0.965l0.064-0.032
							l1.061,2.477c0.322,0.236,0.655,0.118,0.998-0.354c1.05-1.437,1.447-2.509,1.19-3.217 M96.112,177.992
							c0.15,0.107,0.311,0.375,0.482,0.804c0.193,0.472,0.311,0.923,0.354,1.351l0.129,1.705c0.257,1.416,0.6,2.584,1.03,3.506
							c0.299,0.687,0.686,1.888,1.157,3.604c0.107,0.472,0.215,0.804,0.322,0.996c0.321,0.515,0.986,1.138,1.994,1.866
							c1.073,0.75,1.716,1.265,1.931,1.544c0.149,0.214,0.417,0.847,0.804,1.897c0.472,0.364,1.565,0.804,3.281,1.319l0.129-0.032
							c0.515-0.236,1.265-0.794,2.251-1.673c0.129-0.815,0.311-1.373,0.547-1.673c0.45-0.063,0.825-0.15,1.126-0.258
							c0.643,0.064,1.683-0.429,3.12-1.479l0.161-0.289l0.064-0.289v-0.258c0.042-0.343,0.053-0.643,0.032-0.9l0.065-1.158
							c0.042-0.258,0.096-0.418,0.16-0.482c1.137-0.129,1.898-0.461,2.284-0.997c0.129-0.172,0.204-0.29,0.225-0.354
							c0.15-0.278,0.279-0.621,0.386-1.028l0.064-0.482c0.043-0.687,0.086-1.052,0.128-1.095c0.901-0.171,1.469-0.332,1.705-0.481
							l0.097-0.065l0.129-0.128l0.097-2.155c1.48-0.386,2.251-0.611,2.316-0.676l-0.032-0.192l-0.032-0.676h-0.032l-0.097-0.9
							c-0.128-1.029-0.182-1.619-0.16-1.77c0.857-0.257,1.479-0.644,1.865-1.157l0.354-0.515l0.064-0.129l0.097-0.129l0.096-0.192
							l0.097-0.129c0.107-0.149,0.193-0.344,0.257-0.58c0.043-0.149,0.075-0.257,0.097-0.32l0.096-0.579l0.033-0.129l0.064-0.515
							l-0.74-2.928l-0.032-0.064l-0.032-0.128v-0.032l-0.065-0.321c-0.043-0.386-0.021-0.729,0.065-1.03l0.096-0.289l0.032-0.192
							l0.064-0.161v-0.032l0.064-0.418c0.043-0.258,0.032-0.493-0.032-0.707l-0.096-0.419l-0.322-0.676v-0.031l-0.45-0.741
							l-0.836-1.061v-0.032l0.161-0.226c0.193-0.278,0.268-0.503,0.226-0.676l-0.257-0.417l-0.065-0.161l-0.225-0.387
							c-0.214-0.364-0.354-0.633-0.418-0.804l-0.032-0.322c-0.107-0.557-0.247-0.953-0.419-1.189l-0.321-0.354
							c-0.836-0.943-1.329-1.565-1.479-1.866l-0.032-0.482l-0.097-0.257c-0.085-0.493-0.279-1.244-0.579-2.252l0.161-0.579v-0.482
							l-0.064-0.321c-0.085-0.321-0.193-0.601-0.321-0.836l-0.128-0.226l-0.354-0.45l-0.354-0.547l-0.675-1.255
							c-0.129-0.215-0.172-0.611-0.129-1.189l0.032-0.161l-0.032-0.097v-0.032c-0.043-0.172-0.172-0.354-0.386-0.547
							c-0.321-0.279-0.461-0.6-0.418-0.965l0.065-0.289l-0.033-0.322l-0.16-0.386l-0.064-0.032c-0.193-0.301-0.59-0.696-1.19-1.189
							c-0.236-0.151-0.386-0.236-0.451-0.258c0.407-0.558,0.654-0.954,0.74-1.19 M111.423,149.203
							c0.279,0.107,0.643,0.14,1.093,0.098c0.45-0.13,0.751-0.279,0.9-0.451l0.032-0.418 M110.33,151.069
							c0.086-0.301,0.236-0.686,0.45-1.158 M109.911,154.414l0.097-1.446c0-0.408,0.075-0.912,0.225-1.513 M109.043,157.856
							c0.407-0.536,0.675-1.233,0.804-2.091v-0.129l0.257,0.804c0.236,0.622,0.3,1.02,0.193,1.19
							c-0.236,0.236-0.675,0.493-1.319,0.772c-0.279,0.343-0.075,1.008,0.611,1.994c0.708,0.965,0.997,1.533,0.868,1.704
							c-0.086,0.151-0.461,0.097-1.125-0.161c-0.622-0.278-1.008-0.32-1.158-0.128c-0.15,0.236-0.054,0.621,0.29,1.158
							c0.429,0.536,0.783,0.943,1.062,1.222l1.705,1.865c-0.085,0.13-0.557,0.173-1.415,0.13c-0.75-0.044-1.19-0.032-1.319,0.031
							l0.9,2.96c0.386,1.243,0.472,2.123,0.257,2.637c0.064,0.086,0.043,0.204-0.064,0.354c-0.129,0.151-0.322,0.194-0.579,0.13
							l-0.29-0.064c-0.45-0.15-1.029-0.504-1.737-1.062l-1.287-1.158c-0.644-0.472-1.469-0.825-2.477-1.062
							c-0.729-0.172-1.265-0.312-1.608-0.418 M108.496,166.219c-0.021-0.043-0.064-0.182-0.129-0.417
							c-0.6-1.438-0.954-2.521-1.062-3.25l0.032-0.417c0.107-1.416,0.14-2.146,0.097-2.188 M186.626,224.085
							c-0.278,0.365-0.203,1.309,0.226,2.83c0.644,2.167,1.137,3.378,1.479,3.635c0.943,0.729,2.005,0.258,3.185-1.414
							c0.343-0.687,0.547-1.512,0.611-2.478l0.354-0.611c0.128-0.364,0.149-0.665,0.063-0.9c-0.535-0.687-0.835-1.201-0.9-1.543
							c0.279-0.43-0.021-0.955-0.899-1.577l-0.483-0.321c-0.407-0.192-0.933-0.247-1.576-0.161c-0.578,0.108-1.136-0.043-1.673-0.45
							c-0.515-0.387-0.933-0.504-1.254-0.354l-0.161,0.128c-0.235,0.151-0.558,0.515-0.965,1.094l-0.707,1.158
							c-0.086,0.086-0.332,0.192-0.74,0.322c-0.45,0.578-0.675,1.683-0.675,3.312c-0.322,0-0.536,0.086-0.645,0.258l-0.096,0.771
							h-0.032c-0.193,0.278-0.15,1.437,0.128,3.474c0.258,2.188,0.869,3.72,1.834,4.6l-0.644,0.354
							c-0.107,0.171-0.074,1.318,0.161,1.769l0.097,0.354c0.043,0.172,0.021,0.236-0.064,0.193l2.315,1.802
							c1.266,0.943,2.112,1.458,2.542,1.544c0.363,0.45,1.242,1.2,2.638,2.252c1.2,0.643,1.93,0.943,2.187,0.9
							c0.192-0.021,0.407-0.14,0.644-0.354l1.897-0.257c1.223-0.193,2.327-0.483,3.313-0.868c0.3-0.108,0.729-0.344,1.287-0.708
							c0.385-0.278,0.942-0.396,1.672-0.354c0.857,0.043,1.415-0.075,1.673-0.354c0.3-0.3,0.611-0.644,0.933-1.029
							c0.106-0.214,0.15-0.365,0.128-0.45c0.322,0.128,0.633-0.15,0.934-0.837c0.836-0.385,1.287-0.6,1.351-0.643l0.901-0.933
							c0.256,0,0.557-0.044,0.9-0.129l0.161-0.064h-0.033l0.29-0.129l0.063-0.063l0.194-0.161l0.289-0.74
							c0.287-0.763,0.534-1.299,0.739-1.608c0.536-0.3,1.041-0.611,1.513-0.933v-0.032l0.32-0.289h-0.031
							c0.235-0.771,0.503-1.448,0.804-2.027c0.322-0.535,0.568-1.039,0.74-1.512l0.097-0.128c1.266-2.81,2.005-4.364,2.219-4.664
							c0.601-0.193,1.04-0.45,1.318-0.772c0.151-0.235,0.033-0.825-0.354-1.769c-0.515-1.244-0.782-2.102-0.804-2.573
							c-0.558-2.166-0.912-3.625-1.062-4.374c-0.258-1.416-0.664-2.949-1.223-4.601l-2.637-5.532l-1.319-0.129
							c-0.107-0.235-0.601-0.965-1.479-2.187l-2.026-2.638c-0.215-0.601-0.097-1.287,0.354-2.06c0.32-0.6,0.192-1.114-0.387-1.544
							c-0.407-0.3-1.104-0.128-2.091,0.515c-0.15,0.087-0.504,0.194-1.062,0.322l-0.192,0.097l-0.097,0.032l-6.208-4.118
							c0.063-0.277-0.107-0.567-0.515-0.868c-0.129-0.106-0.472-0.106-1.029,0l-0.289,0.064l-0.098-0.064h-0.063l-7.271-2.991
							c0.064-0.922,0.076-1.737,0.033-2.444c-0.064-1.029-0.247-1.662-0.547-1.898c-0.387-0.3-0.88-0.182-1.479,0.354
							c-0.451,0.408-0.847,0.837-1.19,1.287c-0.493,0.687-1.062,1.33-1.704,1.93c-1.244,0.022-1.888,0.055-1.931,0.097
							c-1.544-0.192-2.445-0.268-2.702-0.225c-0.493-0.107-0.965-0.183-1.415-0.226c-0.343,0-0.537-0.01-0.578-0.031
							c-0.645-0.472-1.02-0.697-1.126-0.676l-1.095,0.771c-4.824,0.065-7.365,0-7.623-0.192c-0.3-0.236-0.771-0.998-1.415-2.284
							l-0.321-1.158c-0.193-0.515-0.537-0.976-1.03-1.383c-0.558-0.386-1.051-0.29-1.479,0.29c-0.32,0.406-0.418,1.383-0.289,2.926
							c0.128,1.545,0.128,2.413,0,2.606l-5.661,2.059c-0.558-1.18-1.019-1.908-1.384-2.188c-0.385-0.301-0.729-0.247-1.029,0.161
							c-0.214,0.257-0.343,0.708-0.386,1.351l-0.031,1.415c-1.395,0.493-2.295,0.772-2.702,0.837
							c-0.215,0.021-0.365,0.054-0.45,0.096c-2.209,0.364-3.442,0.44-3.7,0.226c-0.085-0.579-0.524-1.158-1.318-1.736
							c-0.558-0.43-0.997-0.397-1.318,0.097l-0.45,2.54c-3.71,0.814-5.726,1.083-6.047,0.805c-1.566-3.775-2.487-5.769-2.767-5.982
							c-0.45-0.365-0.943-0.194-1.479,0.514c-0.429,0.601-0.697,1.854-0.804,3.764c-0.108,0.987-0.151,2.188-0.13,3.603
							c-2.679,0.9-4.17,1.232-4.471,0.997c0.064-0.708-0.193-1.266-0.771-1.673c-0.343-0.278-0.676-0.214-0.997,0.193l-0.386,1.608
							l-1.705,0.032c-0.301,0-0.708-0.021-1.223-0.065c-0.729-0.106-1.34-0.342-1.833-0.707c-0.258-0.192-0.44-0.729-0.547-1.607
							c-0.128-0.987-0.021-1.855,0.322-2.606c0.428-0.622,0.718-1.179,0.869-1.672c0.321-0.965,0.171-1.684-0.451-2.155
							c-0.472-0.343-1.05-0.215-1.737,0.386c-0.407,0.343-0.729,0.687-0.965,1.029l-2.123,3.056
							c-0.408,0.558-0.783,1.233-1.126,2.027l-0.29,0.771c-2.015-0.106-3.323-0.203-3.924-0.289
							c-0.879-0.149-1.748-0.332-2.605-0.546l-0.29-0.064 M98.139,219.228c0.708,3.39,1.222,5.189,1.543,5.404
							c0.429,0.344,0.89,0.192,1.383-0.45c0.601-1.18,1.094-2.048,1.479-2.605c0.322-0.429,0.622-0.654,0.9-0.675
							c0.472,0,1.351,0.268,2.638,0.804c2.573,0.9,4.117,1.34,4.631,1.318l0.579,0.836c0.644,0.923,1.244,1.588,1.801,1.994
							c0.687,0.536,1.287,0.45,1.801-0.257l1.416-2.991c2.53-0.128,3.827-0.183,3.892-0.161c2.402,0.215,3.764,0.204,4.085-0.031
							l0.708,0.546c1.287,0.986,2.22,1.104,2.799,0.354c0.257-0.835,0.503-1.426,0.74-1.769c4.782-0.257,7.248-0.504,7.398-0.74
							l0.064-0.097c1.8,1.244,3.002,1.47,3.603,0.676c0.129-0.171,0.225-0.407,0.288-0.707l0.098-0.515
							c0.042-0.6,0.15-1.03,0.321-1.287l3.956-1.254c0.451-0.087,0.858-0.118,1.224-0.097c0.256,0,0.91,0.215,1.961,0.643
							c1.051,0.193,1.77,0.033,2.155-0.481c0.771-1.309,0.836-2.209,0.193-2.702l-0.033-0.033c0.344-0.085,1.342-0.535,2.992-1.351
							c0.729-0.235,1.598-0.257,2.605-0.063c0.472,0.042,1.223,0.257,2.251,0.644c0.666,0.214,1.083,0.203,1.255-0.033
							c0.215-0.257,0.301-0.633,0.258-1.126c-0.107-0.643-0.161-1.168-0.161-1.575c0.815-0.236,2.24-0.439,4.278-0.611
							c0.621-0.065,2.337-0.044,5.146,0.064c0.536-0.729,0.46-1.566-0.226-2.51h0.804c2.146-0.043,3.453-0.16,3.925-0.354
							l0.129,0.097c0.943,0.707,1.586,0.815,1.93,0.321c0.043-0.558,0.086-0.856,0.128-0.899c0.064-0.087,0.837-0.065,2.316,0.063
							l1.737,0.129c1.222,0.857,2.026,1.029,2.412,0.515c0.235-0.472,0.354-0.825,0.354-1.062c0.386,0.193,0.91,0.343,1.576,0.45
							c0.729,0.386,1.189,0.622,1.382,0.708l1.576,1.126h0.161l0.322-0.033c0.558-0.085,0.965-0.45,1.222-1.093
							c0.9,0.536,1.405,0.804,1.512,0.804c0.43,0.043,0.825,0.418,1.19,1.126c0.322,0.621,0.943,0.868,1.865,0.739
							c0.45-0.106,0.719-0.268,0.804-0.482l1.384,0.934c0.536,0.407,0.933,0.879,1.19,1.415c0.278,0.515,0.515,0.857,0.707,1.029
							c0.279,0.215,0.515,0.258,0.708,0.129c0.086-0.021,0.214-0.097,0.387-0.227c0.042,0.173,0.097,0.279,0.16,0.322
							c0.107,0.086,0.226,0.108,0.354,0.064c0.322,0.322,0.676,0.761,1.062,1.319l0.225,0.837c0.129,0.472,0.408,0.856,0.836,1.157
							c0.279,0.193,0.472,0.235,0.579,0.128c0.172,0.387,0.235,0.998,0.193,1.834l0.611,2.155c-0.558,0.751-0.772,1.383-0.645,1.897
							c0.13,0.558,0,1.083-0.385,1.576c-0.172,0.258-0.611,0.601-1.319,1.029c-0.107,0.129-0.192,0.547-0.257,1.255v1.126
							c-0.258-0.044-0.654,0.021-1.19,0.192c-0.559,0.193-0.912,0.375-1.062,0.547l-0.097,0.129
							c-0.214,0.343-0.321,0.739-0.321,1.189c-0.215,0-0.516,0.098-0.9,0.29c-0.58,0.321-0.955,0.504-1.126,0.547l-1.287-0.386
							c-0.258-0.086-0.536-0.107-0.836-0.064l-0.257-0.707c-0.279-0.537-0.515-0.912-0.708-1.126"/>
						<path fill="none" stroke="#000000" stroke-width="1.5" stroke-miterlimit="10" d="M72.342,71.363
							c-0.128,0.192,0.118,0.546,0.74,1.061c0.214,0.215,0.579,0.644,1.093,1.287c0.772,0.579,1.394,0.708,1.865,0.386l0.708-0.772
							c0.836-0.408,1.404-0.794,1.705-1.158v-0.032c0.514-0.193,1.243-0.536,2.187-1.03c2.123-1.137,3.581-1.705,4.375-1.705
							c2.573-0.021,4.375-0.118,5.404-0.29l0.225-0.064c1.308-0.257,2.327-0.9,3.056-1.93l0.643-0.997
							c0.493-0.494,0.976-0.815,1.448-0.965l0.997-0.289 M94.343,66.12l0.032,0.128c0.236,0.214,2.016,0.354,5.34,0.418
							c0.471,0,1.607,0.29,3.409,0.869c0.365,0.043,1.104-0.021,2.22-0.193c0.278,0.644,0.332,1.544,0.16,2.702l-0.45,1.093
							c-0.214,0.644-0.118,1.126,0.29,1.448c0.621,0.45,1.908-0.29,3.859-2.22c-0.407-1.265-0.601-1.908-0.579-1.93 M115.025,66.957
							c0.301,0.3,0.515,0.493,0.644,0.579c1.501,1.137,2.456,1.437,2.863,0.901c0.257-1.137,0.236-1.919-0.065-2.348l-2.702,0.547
							L115.025,66.957z M118.467,66.088l0.065-0.032c0.514-0.128,2.305-0.472,5.371-1.029c-0.386,0.429-0.568,1.008-0.547,1.737
							c0,0.45,0.097,0.847,0.29,1.19l0.579,0.611 M109.204,70.366l0.032-0.032c0.343,0.922,0.697,1.512,1.062,1.77
							c0.365,0.279,0.729,0.192,1.094-0.257l2.702-4.021c0.3-0.407,0.611-0.697,0.933-0.868 M96.306,84.679
							c-0.129-0.107-0.429,0.033-0.901,0.418c-0.386,0.3-0.75,0.632-1.094,0.997c-0.644,0.857-1.094,1.479-1.351,1.866l-3.216,3.474
							c-0.494,0.472-1.405,0.782-2.734,0.933l-6.82,0.932c-0.729,0.215-1.372,0.666-1.93,1.351
							c-0.214,0.301-0.332,0.515-0.354,0.644l0.161,1.222c0.064,1.287,0.258,2.113,0.579,2.477l1.158-2.219 M78.646,98.993
							l-0.998,1.833l-2.669,3.763c-2.059,2.745-3.903,4.396-5.533,4.953c-1.201,0.408-2.541,0.934-4.021,1.577
							c-1.458,0.579-2.53,1.33-3.216,2.251c-0.107,0.172-0.161,0.493-0.161,0.965c0,0.215,0.033,0.418,0.096,0.611
							c0.043,0.429,0.172,0.933,0.386,1.512l0.033,1.094l1.672-2.477 M62.564,117.553l-1.48,2.412
							c-0.343,0.493-0.676,1.448-0.997,2.863c-0.472,0.75-1.019,1.554-1.641,2.412c-1.5,1.994-3.023,3.731-4.567,5.21
							c-0.472,0.601-0.922,1.341-1.351,2.22l-1.576,2.798c-0.9,0.943-1.008,1.662-0.322,2.155c0.279,0.258,0.74,0.482,1.383,0.676
							l0.515,0.192c0.042-0.449,0.118-0.933,0.226-1.447c0.107-0.536,0.214-0.879,0.321-1.029 M123.646,67.954l-1.126,0.836
							l-0.321,1.287c0.021,0.021,0.021,0.064,0,0.128c-0.279,0.687-0.236,1.169,0.129,1.448 M122.199,70.205
							c-0.472-0.107-1.426,0.247-2.863,1.062l-5.308,3.088c-0.75,0.365-1.383,0.558-1.897,0.579l-3.024-0.354
							c-1.329-0.15-2.133-0.043-2.413,0.322c-0.343,0.45-0.46,1.287-0.354,2.509l-0.257,0.257c-0.086,0.108-0.119,0.205-0.097,0.29
							c1.287-0.644,1.951-0.943,1.994-0.901 M105.987,77.957l-1.93,1.415c-0.901,0.643-1.555,1.062-1.962,1.254L98.75,82.17
							c-0.75,0.15-1.705,0.225-2.863,0.225c-0.472,0-0.89,0.247-1.255,0.74c-0.3,0.407-0.439,0.933-0.417,1.576l0.096,1.383
							 M52.528,138.492v0.482c-0.064,1.458,0.032,2.51,0.289,3.152c0.279,0.579,0.279,1.094,0,1.544
							c-0.214,0.301-0.493,0.623-0.836,0.965c-0.858,1.479-0.879,2.52-0.064,3.121c0.429,0.342,1.083,0.385,1.962,0.128
							c0.9-0.386,1.362-0.579,1.383-0.579c2.359-0.172,3.57-0.3,3.635-0.386 M53.879,147.885h0.032
							c-0.279,0.579-0.525,1.233-0.74,1.963c-0.108,0.342-0.15,0.932-0.129,1.769c-0.021,0.322,0.043,0.676,0.193,1.062
							c0.171,0.364,0.396,0.686,0.675,0.965l0.257,0.418l4.247,3.281h-0.032l0.836,0.611c0.279-0.536,0.386-1.298,0.322-2.285
							c-0.107-0.899-0.139-1.382-0.097-1.446 M60.215,164.128c0.236,0.194,0.644,0.183,1.223-0.031
							c0.644-0.236,1.275-0.676,1.897-1.319c0.601-0.214,1.19-0.107,1.769,0.322c0.429,0.3,0.74,1.158,0.933,2.572l0.096,1.095
							c0.043,0.707,0.097,1.232,0.161,1.576l0.032,0.257c0.043,0.15,0.064,0.354,0.064,0.611v0.482l-0.032,0.192l-0.097,0.322
							l-0.064,0.096c-0.064,0.172-0.139,0.301-0.225,0.386l-0.225,0.322c-0.6,0.837-0.558,1.513,0.129,2.026
							c0.429,0.322,0.986,0.451,1.672,0.387c0.965-0.215,1.469-0.354,1.512-0.419 M59.218,157.953
							c-0.15,0.279-0.375,1.232-0.675,2.862c-0.3,1.587-0.451,2.627-0.451,3.12c0.021,0.794,0.333,2.187,0.934,4.182l0.031,0.129
							c0.021,0.214,0.108,0.814,0.257,1.801c0.043,0.15,0.043,0.483,0,0.997c0.043,0.558,0.312,1.019,0.805,1.383
							c1.136,0.837,1.951,0.912,2.445,0.226c0.107-0.149,0.182-0.676,0.225-1.576c0.064-0.751,0.075-1.941,0.033-3.57
							c-0.021-0.772,0.096-1.92,0.354-3.441c0.129-0.622,0.182-1.051,0.161-1.287 M67.549,173.425l0.064,2.252
							c-0.021,1.778-0.236,2.916-0.643,3.409c-0.665,0.943-1.565,1.939-2.702,2.991l-0.74,1.254
							c-0.386,0.901-0.29,1.565,0.289,1.994c0.407,0.322,0.879,0.375,1.416,0.161l0.9-0.547c0.793-0.257,1.308-0.45,1.544-0.579
							l0.579,3.249c0.429,2.423,0.525,3.827,0.29,4.214l-2.573,3.827c-0.279,0.751-0.15,1.33,0.386,1.737
							c0.836,0.601,2.552,0.15,5.146-1.351c0.193,0.621,0.836,2.005,1.93,4.148c0.836,1.716,1.147,3.013,0.933,3.893
							c-0.943,3.518-0.901,5.65,0.129,6.4c0.429,0.322,0.836,0.258,1.222-0.192c0.321-0.515,0.601-0.922,0.836-1.223
							c0.408-0.365,0.857-0.643,1.351-0.836c0.666-0.278,1.104-0.343,1.319-0.193c3.109,2.316,5.072,3.903,5.886,4.761
							c0.236,0.193,0.472,0.354,0.708,0.482c-0.171,3.131,0,4.889,0.515,5.275c0.536,0.407,1.051,0.397,1.544-0.032l1.383-1.705
							c0.407-0.579,1.383-0.418,2.927,0.482c3.989,2.188,6.047,3.195,6.176,3.024"/>
						<path stroke="#000000" stroke-width="1.5" stroke-miterlimit="10" d="M79.515,48.011c1.33,1.029,1.544,2.187,0.644,3.474
							c-1.093,1.179-2.134,1.34-3.12,0.482c-0.965-0.836-1.233-1.641-0.804-2.413l0.386-0.514c0.214-0.343,0.525-0.665,0.933-0.965
							C78.239,47.582,78.893,47.561,79.515,48.011z"/>
						<path fill="none" stroke="#000000" stroke-width="1.5" stroke-miterlimit="10" d="M94.472,178.023
							c0.343,0.258,1.05,0.193,2.123-0.192c0.472-0.129,0.912-0.097,1.318,0.096c0.751,0.322,1.212,0.827,1.383,1.513
							c0.065,0.386,0.622,0.525,1.673,0.419c0.279-0.065,0.429-0.118,0.451-0.161c0.085-0.108,0.128-0.215,0.128-0.322l0.354-0.386
							c0.45-0.622,0.557-1.458,0.321-2.509s-0.3-1.641-0.193-1.769c0.129-0.151,0.365-0.098,0.708,0.159l0.579,0.645
							c0.665,0.493,1.276,0.192,1.833-0.901c0.622-1.072,1.029-1.983,1.222-2.734c0.172-0.729,0.118-1.19-0.161-1.383"/>
						
							<line fill="none" stroke="#000000" stroke-width="1.5" stroke-miterlimit="10" x1="109.911" y1="154.414" x2="109.847" y2="155.637"/>
						
							<line fill="none" stroke="#000000" stroke-width="1.5" stroke-miterlimit="10" x1="110.33" y1="151.069" x2="110.233" y2="151.455"/>
						<path fill="none" stroke="#000000" stroke-width="1.5" stroke-miterlimit="10" d="M110.78,149.911
							c0.171-0.535,0.386-0.771,0.644-0.708"/>
						
							<line fill="none" stroke="#000000" stroke-width="1.5" stroke-miterlimit="10" x1="113.449" y1="148.432" x2="113.578" y2="147.37"/>
						<path fill="none" stroke="#000000" stroke-width="1.5" stroke-miterlimit="10" d="M113.546,147.725
							c0.364-0.021,0.986-0.107,1.866-0.258s1.469-0.269,1.77-0.354"/>
						<path fill="none" stroke="#000000" stroke-width="1.5" stroke-miterlimit="10" d="M111.198,151.294
							c0.472-0.021,2.906-0.289,7.302-0.804"/>
						<path fill="none" stroke="#000000" stroke-width="1.5" stroke-miterlimit="10" d="M111.391,153.675
							c0.558,0,1.866,0.042,3.924,0.129c2.272,0.107,3.71,0.192,4.31,0.257"/>
						<path fill="none" stroke="#000000" stroke-width="1.5" stroke-miterlimit="10" d="M111.198,155.604
							c0.622,0.044,2.08,0.225,4.375,0.547c2.53,0.344,4.117,0.601,4.76,0.772"/>
						<path fill="none" stroke="#000000" stroke-width="1.5" stroke-miterlimit="10" d="M111.294,157.889
							c0.665,0.171,1.812,0.429,3.442,0.771c1.736,0.364,2.831,0.579,3.281,0.644c0.45,0.043,1.147,0.064,2.091,0.064
							c0.922-0.021,1.598-0.054,2.026-0.097"/>
						<path fill="none" stroke="#000000" stroke-width="1.5" stroke-miterlimit="10" d="M111.358,160.494
							c1.395,0.214,3.302,0.515,5.726,0.9c3.517,0.579,5.672,0.965,6.466,1.157"/>
						<path fill="none" stroke="#000000" stroke-width="1.5" stroke-miterlimit="10" d="M112.581,163.163
							c0.6,0.172,2.455,0.548,5.565,1.126c3.237,0.601,5.339,0.934,6.304,0.998"/>
						<path fill="none" stroke="#000000" stroke-width="1.5" stroke-miterlimit="10" d="M113.578,166.605
							c5.232,1.223,8.899,1.93,11,2.122"/>
						<path fill="none" stroke="#000000" stroke-width="1.5" stroke-miterlimit="10" d="M109.911,169.018
							c0.579,0.193,3.485,0.793,8.717,1.801c4.203,1.073,6.476,1.706,6.819,1.898"/>
						<path fill="none" stroke="#000000" stroke-width="1.5" stroke-miterlimit="10" d="M110.715,171.784
							c3.174,1.051,5.275,1.769,6.305,2.155c3.195,1.179,5.232,2.122,6.111,2.83"/>
						<path fill="none" stroke="#000000" stroke-width="1.5" stroke-miterlimit="10" d="M110.78,174.421
							c1.48,0.794,3.185,1.78,5.114,2.96c3.023,1.823,4.76,3.066,5.211,3.731"/>
						<path fill="none" stroke="#000000" stroke-width="1.5" stroke-miterlimit="10" d="M110.844,177.831
							c0.922,0.686,2.251,1.705,3.989,3.056c2.23,1.758,3.484,2.819,3.763,3.185"/>
						<path fill="none" stroke="#000000" stroke-width="1.5" stroke-miterlimit="10" d="M111.037,182.303
							c0.407,0.32,1.351,1.221,2.831,2.701c1.373,1.352,2.284,2.272,2.734,2.766"/>
						<path fill="none" stroke="#000000" stroke-width="1.5" stroke-miterlimit="10" d="M110.715,186.677
							c0.236,0.45,0.719,1.404,1.448,2.862c0.729,1.479,1.168,2.402,1.319,2.767"/>
					</g>
				</g>
			</g>
		</g>
	</g>
</g>
</svg>
