<?xml version="1.0" encoding="utf-8"?>
<!-- Generator: Adobe Illustrator 17.0.1, SVG Export Plug-In . SVG Version: 6.00 Build 0)  -->
<!DOCTYPE svg PUBLIC "-//W3C//DTD SVG 1.1//EN" "http://www.w3.org/Graphics/SVG/1.1/DTD/svg11.dtd">
<svg version="1.1" id="Layer_1" xmlns="http://www.w3.org/2000/svg" xmlns:xlink="http://www.w3.org/1999/xlink" x="0px" y="0px"
	 width="236.866px" height="200.824px" viewBox="8.533 25.772 236.866 200.824"
	 enable-background="new 8.533 25.772 236.866 200.824" xml:space="preserve">
<g>
	<g id="Layer_1_1_">
		<g>
			<g id="Layer_1_3_">
				<g>
					<path fill="#FFFFFF" d="M34.991,144.627c0.977-0.273,2.15-0.191,3.521,0.247c1.437,0.45,2.501,0.604,3.192,0.461
						c0.998-0.197,1.941-0.834,2.83-1.909c0.9-1.086,1.723-1.723,2.469-1.908c2.227-0.538,4.783-0.873,7.668-1.005
						c3.291-0.153,6.27,0.022,8.935,0.527c6.988,1.306,10.153,4.448,9.495,9.429c-0.713,5.31-4.344,8.831-10.893,10.564
						c-4.98,1.306-10.323,1.447-16.028,0.428c-5.408-0.966-11.475-1.553-18.199-1.761c-1.931-0.065-8.107-0.104-18.529-0.115
						c-0.779-4.442,1.141-7.032,5.759-7.767c3.28-0.516,7.004-0.154,11.173,1.086c0.888-2.809,1.903-4.739,3.044-5.792
						C30.438,146.201,32.292,145.373,34.991,144.627z"/>
					
						<path fill="#FFFFFF" stroke="#292929" stroke-width="1.5" stroke-linecap="round" stroke-linejoin="round" stroke-miterlimit="3" d="
						M34.991,144.627c0.977-0.273,2.15-0.191,3.521,0.247c1.437,0.45,2.501,0.604,3.192,0.461c0.998-0.197,1.941-0.834,2.83-1.909
						c0.9-1.086,1.723-1.723,2.469-1.908c2.227-0.538,4.783-0.873,7.668-1.005c3.291-0.153,6.27,0.022,8.935,0.527
						c6.988,1.306,10.153,4.448,9.495,9.429c-0.713,5.31-4.344,8.831-10.893,10.564c-4.98,1.306-10.323,1.447-16.028,0.428
						c-5.408-0.966-11.475-1.553-18.199-1.761c-1.931-0.065-8.107-0.104-18.529-0.115c-0.779-4.442,1.141-7.032,5.759-7.767
						c3.28-0.516,7.004-0.154,11.173,1.086c0.888-2.809,1.903-4.739,3.044-5.792C30.438,146.201,32.292,145.373,34.991,144.627z"/>
					
						<path fill="none" stroke="#292929" stroke-width="1.5" stroke-linecap="round" stroke-linejoin="round" stroke-miterlimit="3" d="
						M47.431,147.128c1.689,0.396,3.812,0.104,6.369-0.872c2.304-0.877,4.53-2.122,6.681-3.735c2.117-1.591,3.582-3.093,4.394-4.509
						c0.889-1.547,0.74-2.61-0.444-3.191"/>
					<path fill="#FFFFFF" d="M231.237,125.67c0.428,0.987,1.059,2.463,1.892,4.427c1.559,3.533,3.182,6.248,4.871,8.145
						c3.928,4.158,6.116,7.68,6.565,10.564c0.362,2.326-0.428,4.603-2.369,6.829c-0.658,0.757-1.662,1.738-3.012,2.945
						c-1.766,1.591-2.907,2.639-3.423,3.144c-2.786,2.721-4.673,5.49-5.66,8.31c-3.291,3.017-7.789,5.672-13.493,7.964
						c-1.986,0.802-4.492,1.701-7.521,2.699c-3.335,1.086-5.803,1.903-7.404,2.452c-6.846,2.369-15.057,3.598-24.634,3.686
						c-2.029,0.022-6.094-0.033-12.193-0.165c-5.112-0.109-9.215-0.104-12.309,0.017c-0.472-1.591-0.417-2.847,0.164-3.768
						c0.472-0.758,1.35-1.36,2.633-1.811c0.406-0.143,1.668-0.466,3.785-0.971c1.591-0.373,2.775-0.796,3.555-1.268l6.928-2.648
						c0.307-0.253,0.817-0.691,1.53-1.317c0.658-0.559,1.218-0.971,1.678-1.233c2.601-1.503,4.29-2.469,5.068-2.896
						c2.074-1.141,3.796-1.985,5.167-2.534c0.878-0.362,2.035-0.784,3.472-1.267l-1.562,0.099c-2.83-0.022-4.92-0.017-6.27,0.017
						c-4.86,0.099-8.804,0.307-11.831,0.625c-4.125,0.461-7.943,1.272-11.453,2.436c-2.304,0.768-3.922,1.486-4.854,2.155
						l-1.151,1.811l-13.346,6.977l-0.872-0.461l-0.526-1.283l-0.658-0.675c-4.213,0.779-8.996,1.234-14.349,1.366
						c-3.752,0.099-8.217,0.038-13.395-0.181c-5.704-0.253-10.449-0.697-14.234-1.333c-4.651-0.79-8.677-1.986-12.078-3.588
						c-7.69-3.62-13.482-10.081-17.377-19.384c-3.225-7.69-4.849-16.209-4.871-25.555c-0.033-8.677,1.3-17.278,3.999-25.802
						c0.285-0.91,0.839-2.177,1.662-3.801c0.845-1.646,1.405-2.896,1.679-3.752c0.252-0.746,0.554-1.843,0.905-3.291
						c0.362-1.492,0.658-2.594,0.889-3.308l0.872-7.701c0.011-1.448-0.236-3.346-0.74-5.693c-0.46-2.15-1.256-3.955-2.386-5.414
						c-1.085-1.416-2.6-2.661-4.542-3.736c-3.51-1.919-6.253-3.829-8.228-5.727c-2.523-2.424-4.333-5.26-5.43-8.507
						c-1.207-3.609-1.722-6.905-1.547-9.89c0.23-3.828,1.635-6.625,4.212-8.392c2.183-1.492,4.778-2.205,7.784-2.139
						c1.086,0.022,2.43,0.159,4.031,0.412c0.911,0.131,2.288,0.351,4.13,0.658l0.938-0.313c0.274-1.602,1.146-2.512,2.616-2.731
						c0.966-0.142,2.271,0.027,3.917,0.51l0.23-1.152c1.536-0.516,3.724-1.267,6.565-2.254c2.436-0.746,4.695-1.201,6.78-1.366
						c2.512-0.197,5.205-0.049,8.08,0.444c0.855,0.143,3.384,0.696,7.586,1.662c3.148,0.724,5.534,1.382,7.158,1.975
						c2.227,0.812,4.459,1.936,6.697,3.373c2.666,1.723,5.233,4.19,7.701,7.405c2.205,2.875,4.064,5.979,5.579,9.314
						c1.623,3.587,2.765,6.308,3.423,8.162c1.107,3.148,1.728,5.962,1.858,8.442c0.121,2.556-0.076,5.2-0.592,7.931
						c-0.296,1.536-0.927,4.048-1.893,7.537c-0.405,1.47-0.833,3.73-1.283,6.78l-0.099,0.608c-0.241,1.602-0.439,2.797-0.592,3.587
						l0.576-0.132c5.343,0.582,11.842,0.614,19.5,0.099c4.354-0.296,10.894-0.829,19.614-1.596
						c7.591-0.494,14.053-0.417,19.385,0.23c6.9,0.834,13.152,2.688,18.759,5.562c4.685,2.402,8.875,5.704,12.571,9.906
						c3.028,3.445,6.051,7.91,9.067,13.395C229.778,122.467,230.48,123.926,231.237,125.67z"/>
					
						<path fill="none" stroke="#292929" stroke-width="1.5" stroke-linecap="round" stroke-linejoin="round" stroke-miterlimit="3" d="
						M106.786,46.356c-1.865-1.558-4.026-1.854-6.483-0.888c-1.284,0.494-3.214,1.722-5.792,3.686
						c1.623,0.549,3.362,1.997,5.216,4.344c1.953,2.479,2.742,4.454,2.369,5.924"/>
					
						<path fill="none" stroke="#292929" stroke-width="1.5" stroke-linecap="round" stroke-linejoin="round" stroke-miterlimit="3" d="
						M45.276,49.351c0.066-0.384,0.515-0.79,1.35-1.218c1.239-0.636,1.881-0.971,1.925-1.004c1.152-0.833,1.937-1.805,2.353-2.913
						c0.23,2.962,1.24,5.896,3.028,8.804c1.711,2.787,3.84,5.09,6.385,6.911c1.152,0.823,2.562,1.619,4.229,2.386
						c0.955,0.438,2.441,1.091,4.459,1.958c1.36,0.625,2.945,1.075,4.755,1.35c1.053,0.154,2.726,0.373,5.019,0.658
						c-0.099,1.437,0.57,2.885,2.007,4.344c1.075,1.097,2.419,2.074,4.032,2.929c0.318,0.132,0.45-0.017,0.395-0.444"/>
					<path fill="#373535" d="M52.055,35.364c0.735-0.384,1.811-0.362,3.226,0.066c1.393,0.417,2.265,0.949,2.616,1.597
						c-1.942,0.877-3.209,1.492-3.801,1.842c-1.14,0.646-2.158,1.417-3.052,2.312l0.107,0.107c-0.078-0.009-0.146-0.012-0.206-0.008
						c-0.104,0.105-0.205,0.212-0.305,0.321c-0.026-0.2,0.075-0.307,0.305-0.321c0.033-0.034,0.066-0.067,0.099-0.099l-0.436-0.469
						c-0.68-0.472-0.807-1.388-0.378-2.748C50.635,36.659,51.244,35.792,52.055,35.364z"/>
					
						<path fill="none" stroke="#292929" stroke-width="1.5" stroke-linecap="round" stroke-linejoin="round" stroke-miterlimit="3" d="
						M52.055,35.364c0.735-0.384,1.811-0.362,3.226,0.066c1.393,0.417,2.265,0.949,2.616,1.597
						c-1.942,0.877-3.209,1.492-3.801,1.842c-1.14,0.646-2.158,1.417-3.052,2.312l0.107,0.107c-0.078-0.009-0.146-0.012-0.206-0.008
						c-0.104,0.105-0.205,0.212-0.305,0.321c-0.026-0.2,0.075-0.307,0.305-0.321c0.033-0.034,0.066-0.067,0.099-0.099l-0.436-0.469
						c-0.68-0.472-0.807-1.388-0.378-2.748C50.635,36.659,51.244,35.792,52.055,35.364z"/>
					
						<path fill="none" stroke="#292929" stroke-width="1.5" stroke-linecap="round" stroke-linejoin="round" stroke-miterlimit="3" d="
						M129.856,93.517c-0.002,0.044-0.004,0.088-0.008,0.132c-0.402,9.635-0.778,16.053-1.127,19.252
						c-0.786,7.138-2.223,13.363-4.312,18.677c-0.011,0.23-0.016,0.352-0.016,0.362l-0.017-0.28c0.01-0.027,0.021-0.055,0.033-0.082
						"/>
					
						<path fill="none" stroke="#292929" stroke-width="1.5" stroke-linecap="round" stroke-linejoin="round" stroke-miterlimit="3" d="
						M129.543,97.598l-0.51-0.181c1.613,0.109,3.335,1.618,5.167,4.525c1.327,2.106,2.402,4.328,3.226,6.664
						c0.482,1.372,1.261,3.341,2.336,5.908c0.801,2.271,1.136,4.344,1.004,6.22"/>
					
						<path fill="none" stroke="#292929" stroke-width="1.5" stroke-linecap="round" stroke-linejoin="round" stroke-miterlimit="3" d="
						M121.842,163.633c0.45,0.406,0.691,1.08,0.724,2.024c0.055,1.448,0.093,2.221,0.115,2.32c0.088,0.329,0.165,0.57,0.23,0.724"/>
					
						<path fill="none" stroke="#292929" stroke-width="1.5" stroke-linecap="round" stroke-linejoin="round" stroke-miterlimit="3" d="
						M64.989,33.916c1.36,0.187,2.556,0.302,3.587,0.345"/>
					
						<path fill="none" stroke="#292929" stroke-width="1.5" stroke-linecap="round" stroke-linejoin="round" stroke-miterlimit="3" d="
						M72.46,31.382l0.296,0.083c0.351,0.109,0.866,0.312,1.546,0.608c0.582,0.264,1.097,0.444,1.547,0.543
						c1.042,0.219,1.591,0.329,1.646,0.329c0.011,0,0.554-0.126,1.629-0.378"/>
					
						<path fill="none" stroke="#292929" stroke-width="1.5" stroke-linecap="round" stroke-linejoin="round" stroke-miterlimit="3" d="
						M209.944,161.922c1.141-0.549,2.616-1.471,4.426-2.765c2.425-1.723,5.003-4.317,7.734-7.783
						c0.405-0.526,1.524-2.002,3.356-4.427c1.371-1.821,2.513-3.264,3.423-4.328"/>
					
						<path fill="none" stroke="#292929" stroke-width="1.5" stroke-linecap="round" stroke-linejoin="round" stroke-miterlimit="3" d="
						M115.655,71.911c0.954-0.68,1.903,0.872,2.847,4.657c0,0.011,0.312,1.404,0.938,4.18c0.307,1.372,0.543,2.128,0.708,2.271
						c1.404-0.965,2.336-3.006,2.797-6.121c0.362-2.447,0.389-4.816,0.082-7.109"/>
					
						<path fill="none" stroke="#292929" stroke-width="1.5" stroke-linecap="round" stroke-linejoin="round" stroke-miterlimit="3" d="
						M129.659,93.83c-0.198,1.13-0.439,2.172-0.724,3.126c-1.294,4.333-3.165,8.233-5.611,11.7
						c-2.995,4.235-6.231,6.769-9.708,7.603"/>
					
						<path fill="none" stroke="#292929" stroke-width="1.5" stroke-linecap="round" stroke-linejoin="round" stroke-miterlimit="3" d="
						M48.089,41.436c-2.019,0.691-3.829,2.644-5.43,5.858c-1.097,2.194-2.04,4.844-2.83,7.948c-0.57,2.282-0.927,5.084-1.07,8.409
						c-0.077,1.677-0.146,4.096-0.206,7.256c-0.009,0.416-0.017,0.843-0.024,1.284"/>
					
						<path fill="none" stroke="#292929" stroke-width="1.5" stroke-linecap="round" stroke-linejoin="round" stroke-miterlimit="3" d="
						M48.238,38.128c-4.026,2.315-7.613,6.138-10.762,11.469c-3.072,5.2-4.833,10.279-5.282,15.238"/>
					
						<path fill="none" stroke="#292929" stroke-width="1.5" stroke-linecap="round" stroke-linejoin="round" stroke-miterlimit="3" d="
						M35.715,60.014c0.274-6.517,1.091-11.623,2.452-15.32c2.227-6.012,5.88-8.738,10.959-8.179"/>
					
						<path fill="none" stroke="#292929" stroke-width="1.5" stroke-linecap="round" stroke-linejoin="round" stroke-miterlimit="3" d="
						M54.721,41.716c-0.647,0.065-0.889-0.165-0.724-0.691c1.24-0.318,2.342,2.03,3.308,7.043c0.855,4.498,1.168,7.729,0.938,9.692
						c-0.23,1.942-0.785,4.125-1.662,6.549c-0.505,1.404-1.327,3.5-2.468,6.286c-0.121,0.329-0.604,1.305-1.448,2.929
						c-0.614,1.196-0.959,2.161-1.037,2.896"/>
					
						<path fill="none" stroke="#292929" stroke-width="1.5" stroke-linecap="round" stroke-linejoin="round" stroke-miterlimit="3" d="
						M58.094,40.202c-0.219-0.538-0.159-0.966,0.181-1.284c3.752,7.986,5.968,15.709,6.648,23.169
						c0.823,8.962-0.708,16.768-4.591,23.416"/>
					
						<path fill="none" stroke="#292929" stroke-width="1.5" stroke-linecap="round" stroke-linejoin="round" stroke-miterlimit="3" d="
						M61.402,40.333c0.055-0.131,0.647,0.856,1.777,2.962c1.053,1.953,1.81,3.434,2.271,4.443c1.13,2.458,2.013,4.685,2.65,6.681
						c0.734,2.282,1.256,4.602,1.563,6.961c0.604,4.531,1.026,8.397,1.267,11.601c0.318,4.19,0.406,8.096,0.264,11.716"/>
					
						<path fill="none" stroke="#292929" stroke-width="1.5" stroke-linecap="round" stroke-linejoin="round" stroke-miterlimit="3" d="
						M204.612,162.744c3.434-2.479,5.918-5.968,7.454-10.466c1.481-4.344,1.788-8.704,0.922-13.082"/>
					
						<path fill="none" stroke="#292929" stroke-width="1.5" stroke-linecap="round" stroke-linejoin="round" stroke-miterlimit="3" d="
						M186.527,166.974c2.447-0.823,5.124-1.585,8.031-2.287c2.709-0.658,5.281-1.19,7.717-1.597
						c1.909-0.318,4.733-0.757,8.475-1.316c3.203-0.581,5.907-1.365,8.112-2.353c1.251-0.56,2.66-1.399,4.229-2.519
						c0.899-0.646,2.232-1.623,3.998-2.929c3.248-2.304,6.226-3.505,8.936-3.604"/>
					
						<path fill="none" stroke="#292929" stroke-width="1.5" stroke-linecap="round" stroke-linejoin="round" stroke-miterlimit="3" d="
						M181.559,183.791c0.625-1.186,3.511-2.704,8.655-4.559c0.977-0.351,3.017-1.053,6.121-2.106
						c2.282-0.768,3.834-1.327,4.657-1.678c2.348-1.01,5.332-1.953,8.952-2.831c2.073-0.504,5.237-1.233,9.494-2.188"/>
					
						<path fill="none" stroke="#292929" stroke-width="1.5" stroke-linecap="round" stroke-linejoin="round" stroke-miterlimit="3" d="
						M164.938,184.762c5.913-4.597,13.576-8.606,22.988-12.029c8.93-3.247,17.272-5.21,25.028-5.891"/>
					
						<path fill="none" stroke="#292929" stroke-width="1.5" stroke-linecap="round" stroke-linejoin="round" stroke-miterlimit="3" d="
						M150.771,171.334c0.614-1.031,1.612-2.287,2.995-3.769c1.897-2.018,2.989-3.203,3.274-3.554c0.516-0.626,1.47-1.755,2.863-3.39
						c1.306-1.58,2.381-2.979,3.226-4.196c2.457-3.588,3.576-6.561,3.356-8.919"/>
					
						<path fill="none" stroke="#292929" stroke-width="1.5" stroke-linecap="round" stroke-linejoin="round" stroke-miterlimit="3" d="
						M116.412,174.987c2.841,1.503,5.671,2.583,8.491,3.241c3.599,0.845,6.533,0.801,8.803-0.131"/>
					
						<path fill="none" stroke="#292929" stroke-width="1.5" stroke-linecap="round" stroke-linejoin="round" stroke-miterlimit="3" d="
						M149.635,174.921c0.209-1.524,0.84-3.708,1.893-6.549c1.152-3.127,1.859-5.31,2.123-6.55c0.449-2.128,0.773-4.7,0.971-7.717
						c0.176-3.511,0.312-6.144,0.411-7.898"/>
					
						<path fill="none" stroke="#292929" stroke-width="1.5" stroke-linecap="round" stroke-linejoin="round" stroke-miterlimit="3" d="
						M149.405,174.115l1.151-1.811c0.933-0.669,2.551-1.388,4.854-2.155c3.51-1.163,7.328-1.975,11.453-2.436
						c3.027-0.318,6.971-0.526,11.831-0.625c1.35-0.033,3.439-0.039,6.27-0.017l1.562-0.099c-1.437,0.482-2.594,0.904-3.472,1.267
						c-1.371,0.549-3.093,1.394-5.167,2.534c-0.778,0.428-2.468,1.394-5.068,2.896c-0.46,0.263-1.02,0.675-1.678,1.233
						c-0.713,0.626-1.224,1.064-1.53,1.317l-6.928,2.648c-0.779,0.472-1.964,0.895-3.555,1.268
						c-2.117,0.505-3.379,0.828-3.785,0.971c-1.283,0.45-2.161,1.053-2.633,1.811c-0.581,0.921-0.636,2.177-0.164,3.768
						c3.094-0.12,7.196-0.126,12.309-0.017c6.1,0.132,10.164,0.188,12.193,0.165c9.577-0.088,17.788-1.316,24.634-3.686
						c1.602-0.549,4.069-1.366,7.404-2.452c3.028-0.998,5.534-1.897,7.521-2.699c5.704-2.292,10.202-4.947,13.493-7.964
						c0.987-2.819,2.874-5.589,5.66-8.31c0.516-0.505,1.657-1.553,3.423-3.144c1.35-1.207,2.354-2.188,3.012-2.945
						c1.941-2.227,2.731-4.503,2.369-6.829c-0.449-2.885-2.638-6.406-6.565-10.564c-1.689-1.897-3.312-4.612-4.871-8.145
						c-0.833-1.964-1.464-3.439-1.892-4.427c-0.757-1.744-1.459-3.203-2.106-4.377c-3.017-5.485-6.039-9.95-9.067-13.395
						c-3.696-4.202-7.887-7.503-12.571-9.906c-5.606-2.875-11.858-4.729-18.759-5.562c-5.332-0.647-11.794-0.724-19.385-0.23
						c-8.721,0.768-15.26,1.3-19.614,1.596c-7.658,0.515-14.157,0.482-19.5-0.099l-0.576,0.132c0.153-0.79,0.351-1.985,0.592-3.587
						l0.099-0.608c0.45-3.05,0.878-5.31,1.283-6.78c0.966-3.489,1.597-6,1.893-7.537c0.516-2.731,0.713-5.375,0.592-7.931
						c-0.131-2.479-0.751-5.293-1.858-8.442c-0.658-1.854-1.8-4.574-3.423-8.162c-1.514-3.335-3.374-6.439-5.579-9.314
						c-2.468-3.214-5.035-5.682-7.701-7.405c-2.238-1.437-4.47-2.562-6.697-3.373c-1.624-0.593-4.009-1.251-7.158-1.975
						c-4.202-0.966-6.73-1.52-7.586-1.662c-2.875-0.494-5.567-0.642-8.08-0.444c-2.084,0.165-4.344,0.62-6.78,1.366
						c-2.841,0.987-5.03,1.739-6.565,2.254l-0.23,1.152c-1.646-0.483-2.951-0.652-3.917-0.51c-1.47,0.219-2.342,1.13-2.616,2.731
						l-0.938,0.313c-1.843-0.307-3.22-0.527-4.13-0.658c-1.602-0.252-2.945-0.389-4.031-0.412c-3.006-0.065-5.601,0.647-7.784,2.139
						c-2.578,1.767-3.982,4.564-4.212,8.392c-0.175,2.984,0.34,6.281,1.547,9.89c1.097,3.248,2.907,6.083,5.43,8.507
						c1.975,1.898,4.717,3.807,8.228,5.727c1.942,1.075,3.456,2.32,4.542,3.736c1.13,1.459,1.926,3.263,2.386,5.414
						c0.504,2.348,0.751,4.245,0.74,5.693l-0.872,7.701c-0.23,0.713-0.526,1.815-0.889,3.308c-0.351,1.448-0.653,2.545-0.905,3.291
						c-0.274,0.856-0.833,2.106-1.679,3.752c-0.823,1.624-1.376,2.891-1.662,3.801c-2.699,8.524-4.032,17.125-3.999,25.802
						c0.022,9.346,1.646,17.865,4.871,25.555c3.895,9.303,9.687,15.764,17.377,19.384c3.4,1.602,7.427,2.798,12.078,3.588
						c3.785,0.636,8.53,1.08,14.234,1.333c5.178,0.219,9.643,0.279,13.395,0.181c5.354-0.132,10.136-0.587,14.349-1.366l0.658,0.675
						l0.526,1.283l0.872,0.461"/>
					
						<path fill="none" stroke="#292929" stroke-width="1.5" stroke-linecap="round" stroke-linejoin="round" stroke-miterlimit="3" d="
						M109.731,155.948c0.713,0.362,1.574,1.547,2.583,3.555c1.152,2.293,2.002,3.719,2.551,4.278c1.689,1.711,2.83,2.78,3.423,3.209
						c1.327,0.943,2.726,1.376,4.196,1.3l0.428,0.411c0.384,1.053,1.015,1.991,1.893,2.813c0.351,0.33,0.861,0.62,1.53,0.872
						c0.373,0.143,0.927,0.335,1.662,0.576l0.921,0.362c2.457,0.987,4.372,2.995,5.743,6.022"/>
					<g>
						<path fill="#FFFFFF" d="M193.061,186.753c0.614,0.516,1.997,1.305,4.146,2.369c1.832,0.922,3.1,1.826,3.802,2.716
							c-2.228,1.996-3.505,3.516-3.834,4.558c-0.274,0.855,0.076,1.563,1.053,2.123c0.593,0.34,1.728,0.86,3.406,1.562
							c1.525,0.779,2.6,1.739,3.226,2.88c0.768,1.383,0.883,2.518,0.345,3.406c-0.273,0.45-1.02,1.092-2.237,1.926
							c-1.075,0.724-1.689,1.42-1.843,2.09c-0.242,1.009,0.269,2.325,1.53,3.949c0.438,0.57,1.42,1.503,2.945,2.797
							c1.47,1.24,2.44,2.188,2.913,2.847c0.745,1.054,0.844,1.986,0.296,2.798c-0.669,0.977-2.304,1.849-4.903,2.616
							c-2.348,0.702-5.656,0.593-9.923-0.329c-4.663-1.24-7.877-2.04-9.644-2.402c-4.629-0.889-8.184-1.591-10.662-2.106
							c-4.389-0.899-8.129-1.815-11.223-2.748c-8.623-2.589-15.073-6.104-19.352-10.548c-2.008-2.084-3.555-5.93-4.641-11.535
							c-0.549-3.159-0.971-5.523-1.267-7.092c-0.505-2.787-1.031-5.036-1.58-6.747l0.444-0.79c1.141-0.834,2.287-1.755,3.439-2.765
							c2.314-2.019,3.493-3.461,3.538-4.327c0.789-0.121,1.897-0.356,3.323-0.708c1.186-0.153,2.2,0.121,3.045,0.823l0.229,0.806
							l-0.395,3.39c-0.537,5.332-0.12,9.518,1.251,12.556l0.065,0.23c2.523-0.044,5.315-0.526,8.376-1.447
							c1.952-0.593,4.706-1.624,8.26-3.095c3.829-1.558,6.6-2.621,8.311-3.191c3.115-1.021,5.94-1.618,8.475-1.794
							c2.809-0.197,4.717,0.22,5.727,1.25c0.164,0.165,0.608,0.747,1.332,1.745C191.662,185.42,192.337,186.149,193.061,186.753z"/>
						<path fill="#FFFFFF" d="M165.827,199.094c-2.589-0.646-4.536-1.146-5.842-1.497c-2.325-0.614-4.157-1.339-5.496-2.172
							c-1.799-1.119-3.132-2.639-3.998-4.559l16.093,8.467c1.801,0.61,3.232,1.364,4.295,2.263l-4.295-2.263
							C166.339,199.251,166.086,199.172,165.827,199.094z"/>
					</g>
					<g>
						
							<path fill="#FFFFFF" stroke="#292929" stroke-width="1.5" stroke-linecap="round" stroke-linejoin="round" stroke-miterlimit="3" d="
							M149.405,174.115l0.229,0.806l-0.395,3.39c-0.537,5.332-0.12,9.518,1.251,12.556l0.065,0.23
							c2.523-0.044,5.315-0.526,8.376-1.447c1.952-0.593,4.706-1.624,8.26-3.095c3.829-1.558,6.6-2.621,8.311-3.191
							c3.115-1.021,5.94-1.618,8.475-1.794c2.809-0.197,4.717,0.22,5.727,1.25c0.164,0.165,0.608,0.747,1.332,1.745
							c0.626,0.855,1.301,1.585,2.024,2.188c0.614,0.516,1.997,1.305,4.146,2.369c1.832,0.922,3.1,1.826,3.802,2.716
							c-2.228,1.996-3.505,3.516-3.834,4.558c-0.274,0.855,0.076,1.563,1.053,2.123c0.593,0.34,1.728,0.86,3.406,1.562
							c1.525,0.779,2.6,1.739,3.226,2.88c0.768,1.383,0.883,2.518,0.345,3.406c-0.273,0.45-1.02,1.092-2.237,1.926
							c-1.075,0.724-1.689,1.42-1.843,2.09c-0.242,1.009,0.269,2.325,1.53,3.949c0.438,0.57,1.42,1.503,2.945,2.797
							c1.47,1.24,2.44,2.188,2.913,2.847c0.745,1.054,0.844,1.986,0.296,2.798c-0.669,0.977-2.304,1.849-4.903,2.616
							c-2.348,0.702-5.656,0.593-9.923-0.329c-4.663-1.24-7.877-2.04-9.644-2.402c-4.629-0.889-8.184-1.591-10.662-2.106
							c-4.389-0.899-8.129-1.815-11.223-2.748c-8.623-2.589-15.073-6.104-19.352-10.548c-2.008-2.084-3.555-5.93-4.641-11.535
							c-0.549-3.159-0.971-5.523-1.267-7.092c-0.505-2.787-1.031-5.036-1.58-6.747l0.444-0.79"/>
						
							<path fill="none" stroke="#292929" stroke-width="1.5" stroke-linecap="round" stroke-linejoin="round" stroke-miterlimit="3" d="
							M170.879,201.596c-1.207-1.021-2.891-1.854-5.052-2.502c-2.589-0.646-4.536-1.146-5.842-1.497
							c-2.325-0.614-4.157-1.339-5.496-2.172c-1.799-1.119-3.132-2.639-3.998-4.559"/>
					</g>
				</g>
			</g>
		</g>
	</g>
</g>
</svg>
