<?xml version="1.0" encoding="utf-8"?>
<!-- Generator: Adobe Illustrator 17.0.1, SVG Export Plug-In . SVG Version: 6.00 Build 0)  -->
<!DOCTYPE svg PUBLIC "-//W3C//DTD SVG 1.1//EN" "http://www.w3.org/Graphics/SVG/1.1/DTD/svg11.dtd">
<svg version="1.1" id="Layer_1" xmlns="http://www.w3.org/2000/svg" xmlns:xlink="http://www.w3.org/1999/xlink" x="0px" y="0px"
	 width="237.883px" height="158.006px" viewBox="11.503 42.235 237.883 158.006"
	 enable-background="new 11.503 42.235 237.883 158.006" xml:space="preserve">
<g id="Layer_1_2_">
	<g>
		<g id="Layer_1_1_">
			<g>
				<g id="Layer_1_3_">
					<g>
						<path fill="#FFFFFF" stroke="#000000" stroke-width="1.5" d="M218.045,112.531c-3.461-2.744-9.792-6.028-18.993-9.853
							c-4.772-1.978-8.723-3.476-11.851-4.495c-2.996-0.969-5.105-1.453-6.326-1.453c-3.683-0.343-6.538-0.933-8.566-1.771h-0.105
							c-0.403-0.162-0.722-0.283-0.953-0.363c-1.292-0.858-2.396-1.766-3.314-2.724c-0.979-1.029-1.816-2.179-2.513-3.451
							c-0.333-0.727-0.736-1.554-1.211-2.482c-0.494-0.958-0.842-1.635-1.044-2.028l-12.955-25.91
							c-1.332-2.412-3.506-5.181-6.522-8.309h-0.122l-7.37-6.538c-0.051-0.05-0.105-0.085-0.166-0.106l-0.076-0.015
							c-0.04-0.04-0.096-0.055-0.166-0.045l-0.182,0.045c0,0.081-0.041,0.162-0.121,0.242c0,0.02-0.016,0.076-0.046,0.167
							c-0.02,0.05-0.005,0.076,0.046,0.076c1.554,12.925,1.871,23.231,0.953,30.919c-0.928,7.729-3.107,12.864-6.538,15.407h-11.638
							c-4.157,0.545-8.99,0.979-14.499,1.302c-0.252-0.868-0.394-1.357-0.424-1.468c-0.111-0.414-0.167-0.751-0.167-1.014
							c0.131-0.918,0.257-1.902,0.378-2.951c0.121-1.06,0.191-1.66,0.212-1.801c0-0.243,0.04-0.444,0.121-0.605
							c0.696-2.442,0.263-5.171-1.301-8.188c-0.596-1.302-1.312-2.255-2.149-2.86c-0.323-0.162-0.55-0.257-0.681-0.288
							c-0.222-0.071-0.389-0.05-0.5,0.061h-0.121c-0.162,0-0.293,0.081-0.394,0.242c-0.051,0.081-0.156,0.313-0.318,0.696
							c-0.081,0-0.121,0.081-0.121,0.242c-0.242,0.484-0.6,0.918-1.075,1.301c-3.147,1.998-5.322,4.137-6.522,6.417
							c-0.343,0.343-1.176,2.563-2.498,6.659c-0.242,0.969-0.58,1.776-1.014,2.421c-0.444,0.676-1.02,1.216-1.726,1.62h0.121
							c-4.349,2.179-11.633,3.087-21.854,2.724c-3.37-0.242-6.659-0.636-9.868-1.181c-1.292-0.282-2.28-0.681-2.966-1.195v-0.106
							c0.585-0.646,0.777-1.806,0.575-3.481c-0.182-1.594-0.731-3.763-1.65-6.508c-2.099-5.701-4.273-9.898-6.523-12.592
							c-3.813-4.863-8.838-9.615-15.074-14.257l-0.182-0.045c-0.071-0.02-0.131-0.005-0.182,0.045c-0.111,0-0.176,0.005-0.197,0.016
							c-0.02,0.01-0.03,0.045-0.03,0.106c-1.14,1.14-1.775,2.527-1.907,4.162c-0.313,0.716-0.469,1.942-0.469,3.678v0.121
							l1.649,7.128c0.323,1.19,0.722,2.815,1.196,4.873v0.469c0,0.232,0.02,0.853,0.061,1.861c0.041,1.009,0.061,1.892,0.061,2.648
							c0.111,1.584,0.429,3.093,0.954,4.525c0.787,1.978,1.539,3.839,2.255,5.584c0.595,1.322,1.19,2.271,1.786,2.845
							c-1.291,0.434-2.482,1.145-3.571,2.134c-1.917,1.695-3.305,3.834-4.162,6.417c-0.081,0.081-0.873,1.508-2.376,4.283
							c-0.747,1.423-1.267,2.452-1.559,3.087c-0.383,0.837-0.575,1.393-0.575,1.665c-0.03,0.081-0.111,0.242-0.242,0.484
							c-0.111,0.202-0.187,0.394-0.227,0.575c-0.555,1.907-0.873,3.178-0.953,3.813c-0.424,1.261-1.256,2.881-2.497,4.858
							c-0.515,0.948-1.347,2.179-2.497,3.693c-0.848,0.696-1.443,1.089-1.786,1.18h-0.106c0-0.05-0.041-0.065-0.121-0.045
							c-0.041,0.01-0.081,0.025-0.121,0.045c0,0.041-0.02,0.101-0.061,0.182c-0.041,0.081-0.061,0.142-0.061,0.182
							c-0.061,0.061-0.071,0.116-0.03,0.167c0.03,0.041,0.081,0.061,0.151,0.061c0,0.041,0.041,0.081,0.121,0.121
							c0.081,0.041,0.121,0.081,0.121,0.121h0.711c0.464,0.282,1.493,0.56,3.087,0.833c2.058,0.161,3.481,0.242,4.268,0.242
							c4.672,0,8.672-0.954,12.002-2.86c1.059-0.747,1.988-1.448,2.785-2.104c0.515-0.414,0.853-0.701,1.014-0.862
							c2.401-1.564,4.576-3.501,6.522-5.812c2.119-1.786,3.94-3.768,5.464-5.948c0.242-0.232,0.605-0.323,1.089-0.272
							c0.464,0.041,1.09,0.212,1.877,0.515c8.364,5.146,19.493,11.522,33.386,19.13c0.394,0.232,0.989,0.625,1.786,1.181
							c1.503,1.029,2.966,1.978,4.389,2.845c-10.635,5.862-20.059,13.192-28.271,21.99c-1.019,1.19-2.482,2.815-4.389,4.873
							l-0.363,0.349c-0.081,0.08-0.121,0.161-0.121,0.242c-0.041,0-0.056,0.03-0.045,0.091c0.03,0.121,0.045,0.206,0.045,0.257
							l0.121,0.121h0.363c0.383,0,0.898-0.08,1.543-0.242c2.613,0,6.977-0.545,13.091-1.635c6.377-1.13,14.368-2.8,23.973-5.009
							c1.453-0.363,3.506-0.949,6.16-1.756c0.686-0.202,3.542-1.085,8.566-2.648c1.342-0.444,2.871-0.994,4.586-1.649
							c1.725-0.646,2.81-1.045,3.254-1.196l0.076,0.016c0.061,0.02,0.116,0.056,0.166,0.105c0.101,0,0.202,0.025,0.303,0.076
							c0.051,0.03,0.146,0.086,0.288,0.166c0.495,0.333,1.388,0.702,2.679,1.105c0.958,0.312,2.562,0.771,4.812,1.377
							c3.461,0.787,5.393,1.226,5.797,1.316c2.351,0.515,4.494,0.948,6.432,1.302c2.573,0.354,9.105,1.186,19.599,2.497l5.464,0.712
							c0.222,0.271,0.736,0.641,1.544,1.104c0.596,0.353,1.665,0.933,3.208,1.74c0.949,0.444,3.128,1.554,6.538,3.33
							c1.877,1.301,4.294,3.082,7.25,5.342c0.555,0.404,1.271,0.929,2.148,1.574c0.666,0.464,1.176,0.771,1.529,0.923
							c1.766,1.504,4.894,3.88,9.383,7.129c5.236,3.874,8.763,6.371,10.579,7.491l20.386,15.377c0.061,0.04,0.116,0.06,0.167,0.06
							c0.081-0.08,0.202-0.12,0.363-0.12c0-0.041,0.005-0.076,0.015-0.106c0.021-0.081,0.051-0.121,0.091-0.121
							c0.827-4.742-0.418-10.286-3.738-16.633c-3.299-6.315-8.702-13.524-16.209-21.627h-0.242
							c-0.161-0.161-0.282-0.317-0.362-0.469c-0.142-0.102-0.263-0.212-0.364-0.333l-0.105-0.151l-2.255-2.135h3.799
							c3.945,0,7.31-0.277,10.095-0.832c1.594-0.252,2.663-0.489,3.208-0.711c2.472-0.615,4.178-2.043,5.115-4.283h0.121
							c0.848-0.322,1.443-0.565,1.786-0.727c0.414-0.191,0.646-0.343,0.696-0.454c0.596-0.121,1.493-0.287,2.694-0.499
							c1.069-0.212,1.992-0.444,2.77-0.696c1.261-0.242,2.845-0.757,4.752-1.544c0.434-0.212,1.14-0.515,2.119-0.908
							c1.221-0.504,2.099-0.872,2.633-1.104c0.605-0.293,1.06-0.601,1.362-0.923c0.303-0.323,0.484-0.691,0.545-1.105
							c0.182-0.131,0.373-0.328,0.575-0.59c0.262-0.323,0.429-0.52,0.499-0.591v-0.121l0.591-1.785
							c0.353-1.716,0.156-3.693-0.591-5.933c-0.615-2.412-5.05-6.332-13.303-11.76l-9.505-5.948
							C222.908,116.103,220.567,114.519,218.045,112.531z"/>
						<path stroke="#000000" stroke-miterlimit="10" d="M207.084,155.416c-2.925,0-10.798-0.75-13.334-2
							c-2.435-1.191-4.118-2.964-7.5-6c-2.656-2.113-1.528-3.827-3.333-5.333s0.766-4.142-0.303-5.961
							c-0.03-0.268-0.119-0.564-0.268-0.894c-0.053-0.114-0.097-0.194-0.133-0.245c0.235-0.046,0.51,0.139,0.823,0.561
							c0.444,0.624,0.794,0.982,1.047,1.071c0.578,0.565,0.883,0.861,0.912,0.894c0.327,0.268,0.705,0.476,1.136,0.626l1.892,1.293
							c1.35,0.865,2.233,1.372,2.647,1.52c1.483,1.042,3.309,1.965,5.476,2.77c1.216,0.476,2.945,1.057,5.185,1.74
							c7.863,2.591,13.748,3.752,17.649,3.484c2.078-0.15,3.069,0.479,4.762-0.293c0.963-0.09,3.944-0.132,4.167,0.583
							c-1.915,1.579,0.248,2.775-1.325,3.519C222.504,154.743,211.979,155.746,207.084,155.416z"/>
						<g>
							<path fill="none" stroke="#000000" stroke-width="1.5" d="M201.428,125.956c0.736,0.374,1.17,0.888,1.302,1.544
								c0,0.716-0.237,1.312-0.712,1.786c-0.06,0-0.096,0.005-0.105,0.015s-0.016,0.045-0.016,0.106
								c-0.443,0.444-1.154,0.722-2.134,0.833c-0.575,0.232-1.367,0.151-2.376-0.242c-0.504-0.484-0.822-0.999-0.953-1.544
								c0-0.777,0.196-1.372,0.59-1.786h0.121c0.282-0.343,0.59-0.59,0.924-0.742c0.292-0.131,0.655-0.197,1.089-0.197h0.605
								C200.056,125.627,200.61,125.703,201.428,125.956z"/>
						</g>
						<path fill="none" stroke="#000000" stroke-width="1.5" d="M165.181,155.423c3.784,0.443,7.87,0.822,12.259,1.135
							c3.955,0.272,6.882,0.408,8.778,0.408h0.711c1.423,0.242,3.4,0.363,5.933,0.363c1.544,0.091,3.603,0.182,6.175,0.272
							c1.433,0.051,3.456,0.116,6.069,0.196"/>
						<path fill="none" stroke="#000000" stroke-width="1.5" d="M134.064,116.936h-0.363c-6.558,1.211-14.201,3.587-22.929,7.128
							h-0.121c-5.6,2.27-9.202,3.773-10.806,4.51l-8.793,4.389"/>
						<path fill="none" stroke="#000000" stroke-width="1.5" d="M119.566,146.75c0.05,0,0.56-0.217,1.528-0.65
							c0.484-0.212,0.964-0.429,1.438-0.65c0.081-0.081,0.162-0.121,0.243-0.121c1.836-0.989,3.38-2.377,4.631-4.162
							c0.081-0.081,0.121-0.197,0.121-0.349"/>
						<path fill="none" stroke="#000000" stroke-width="0.044" d="M211.696,150.262l-0.053,0.061"/>
						<path fill="none" stroke="#000000" stroke-width="1.5" d="M132.399,125.244c-0.545,0.454-1.059,2.079-1.543,4.874
							c-0.394,2.704-0.59,4.646-0.59,5.827c0,0.918,0.041,1.66,0.121,2.225c0.091,0.687,0.248,1.251,0.469,1.695
							c0.302,0.827,1.251,2.175,2.845,4.041"/>
						<path fill="none" stroke="#000000" stroke-width="1.5" d="M136.077,125.834c-1.109,2.745-1.665,4.253-1.665,4.525
							c-0.07,0.394-0.105,1.62-0.105,3.677c0,2.452,0.035,3.92,0.105,4.404c0.435,1.554,1.348,3.295,2.74,5.222"/>
						<path fill="none" stroke="#000000" stroke-width="1.5" d="M139.876,127.5c-0.545,0.222-1.06,1.927-1.544,5.116
							c-0.312,2.451-0.469,4.827-0.469,7.128c0,1.402,0.515,2.749,1.544,4.041"/>
						<path fill="none" stroke="#000000" stroke-width="1.5" d="M143.327,126.561c-1.423,3.562-2.135,8.47-2.135,14.726l0.121,1.301
							c0.121,0.798,0.358,1.196,0.712,1.196"/>
					</g>
				</g>
			</g>
		</g>
	</g>
	<path d="M200.75,128.375c0,0.852-0.821,1.542-1.833,1.542l0,0c-1.013,0-1.834-0.69-1.834-1.542v-0.417
		c0-0.852,0.821-1.542,1.834-1.542l0,0c1.012,0,1.833,0.69,1.833,1.542V128.375z"/>
	<ellipse fill="#FFFFFF" cx="197.881" cy="128.119" rx="1.036" ry="1.282"/>
	<path fill="#FFFFFF" d="M182.18,145.938l1.903-0.691l-0.436,1.762l3.237,0.051l-0.265,1.871l2.146-0.596l0.364,2.038l2.729-0.698
		l-0.071,2.116l3.54-1.194l0.136,3.271l3.152-2.527l-0.361,3.852l3.212-2.609l-0.374,3.783l3.371-2.988c0,0,0.802,2.382-0.981,3.752
		c-1.782,1.371-21.823-8.224-21.896-10.313C181.511,144.725,182.18,145.938,182.18,145.938z"/>
	<path fill="#FFFFFF" stroke="#FFFFFF" stroke-width="0.5" d="M204.438,154.828l2.5-2.487l0.062,3.385l3-3.039l0.25,3.73l2.25-2.764
		l0.75,2.901l1.938-2.418l1.125,2.211l1.562-1.52l0.688,1.174l1-2.486l0.938,2.003l1.375-1.658l0.625,0.968l1.062-1.244l0.625,0.691
		l1-1.865l0.312,1.105c0,0-5.062,3.799-9.562,3.385c-4.5-0.415-12.062-0.207-12.125-1.728
		C203.75,153.653,204.438,154.828,204.438,154.828z"/>
	<path fill="#FFFFFF" stroke="#FFFFFF" stroke-width="0.5" d="M198.335,141.182l4.747,7.011l3.296-2.663c0,0-1.176,5.328-0.9,5.434
		c0.277,0.102,5.679-4.465,5.679-4.465l-0.055,4.053l3.136-3.28l0.183,4.409l3.01-4.089l0.692,3.797l2.015-3.299l0.923,2.566
		l2.213-2.258l1.291,3.282c0,0,9.812-2.528,4.1-3.755C222.952,146.699,197.69,139.13,198.335,141.182z"/>
	<path fill="#FFFFFF" stroke="#FFFFFF" stroke-width="0.5" d="M183.01,132.639l2.642,8.045l3.9-1.657c0,0-2.593,4.801-2.356,4.979
		c0.238,0.173,6.686-2.736,6.686-2.736l-1.165,3.883l3.916-2.295l-1.034,4.29l4.016-3.106l-0.375,3.842l2.842-2.62l0.184,2.722
		l2.747-1.564l0.341,3.511c0,0,10.129,0.26,4.973-2.486C205.169,144.698,182.952,130.489,183.01,132.639z"/>
</g>
<g id="Layer_2" display="none">
	<g display="inline">
		<path fill="#FFFFFF" d="M188.422,139.121l-0.039,0.176c-0.842,0.883-1.316,1.566-1.423,2.054c-0.41-0.57-0.748-1.007-1.011-1.313
			C186.565,140.175,187.391,139.868,188.422,139.121z"/>
		<path fill="#FFFFFF" d="M187.577,142.206c0.233-0.058,0.631-0.147,1.194-0.272l-0.077,0.355c-0.266,0.328-0.329,0.616-0.19,0.863
			c-0.209-0.171-0.366-0.305-0.468-0.403C187.829,142.562,187.677,142.381,187.577,142.206z"/>
		<path fill="#FFFFFF" d="M189.974,142.386c0.196,0.042,0.243,0.292,0.145,0.75c-0.303-0.067-0.571-0.064-0.807,0.008
			c-0.066-0.014-0.139,0.001-0.217,0.045l-0.118,0.066l0.328-0.832c0.02-0.088,0.076-0.131,0.172-0.125
			C189.544,142.298,189.711,142.327,189.974,142.386z"/>
		<path fill="#FFFFFF" stroke="#373535" stroke-width="0.044" d="M194.273,147.878l0.158,0.035l0.177-0.146
			c0.104,0.021,0.194,0.088,0.267,0.196c0.097,0.13,0.126,0.276,0.089,0.438c-0.131-0.029-0.254-0.095-0.368-0.196
			C194.474,148.068,194.368,147.959,194.273,147.878z"/>
		<path fill="#FFFFFF" d="M197.513,150.051c-0.603-0.455-1.169-0.828-1.695-1.113c0.077-0.106,0.297-0.252,0.652-0.437
			c0.456-0.257,0.803-0.466,1.047-0.628C197.292,148.891,197.291,149.616,197.513,150.051z"/>
		<path fill="#FFFFFF" stroke="#373535" stroke-width="0.044" d="M198.993,150.726c-0.438-0.106-0.734-0.226-0.891-0.356
			l0.265-0.174c0.211-0.142,0.43-0.263,0.659-0.367L198.993,150.726l0.158,0.035"/>
		<path fill="#FFFFFF" d="M201.257,151.41c0.04,0.07,0.073,0.17,0.101,0.3c0.026,0.13,0.06,0.23,0.098,0.301
			c-0.761-0.415-1.247-0.646-1.456-0.692l0.078-0.354l-0.282-0.223c0.212-0.032,0.468-0.153,0.761-0.367
			c0.167-0.134,0.482-0.372,0.944-0.72C201.372,150.229,201.292,150.815,201.257,151.41z"/>
		<path fill="#FFFFFF" d="M203.416,151.167c0.026,0.128,0.058,0.299,0.095,0.507c0.057,0.184,0.158,0.406,0.306,0.671
			c0.159,0.282,0.227,0.482,0.199,0.601c-0.395-0.212-0.952-0.395-1.673-0.554c0.013-0.059,0.005-0.153-0.021-0.284
			c-0.026-0.13-0.032-0.225-0.02-0.282c0.035-0.163,0.42-0.44,1.154-0.836L203.416,151.167z"/>
		<path fill="#FFFFFF" d="M204.783,153.114l0.037-0.177l-0.039-0.565l1.037-0.306l-0.15,0.686c-0.046,0.207-0.069,0.342-0.069,0.402
			c0.009,0.093,0.044,0.146,0.11,0.164L204.783,153.114z"/>
		<path fill="#FFFFFF" d="M207.56,153.727l0.118-0.068c0.091-0.041,0.169-0.056,0.235-0.04c0.405-0.407,0.727-0.645,0.963-0.717
			c-0.04,0.177-0.05,0.385-0.034,0.62c0.017,0.234,0.055,0.405,0.115,0.512L207.56,153.727z"/>
		<path fill="#FFFFFF" stroke="#373535" stroke-width="0.044" d="M215.667,154.396l0.118,0.212c-0.196-0.044-0.413-0.03-0.649,0.044
			C215.398,154.461,215.575,154.375,215.667,154.396z"/>
		<path fill="#FFFFFF" stroke="#373535" stroke-width="0.044" d="M222.729,153.249c-0.022,0.116,0.035,0.362,0.167,0.743
			c-0.207-0.046-0.325-0.011-0.354,0.107L222.729,153.249z"/>
		<path fill="#FFFFFF" d="M210.884,153.343l0.236,0.424c-0.026,0.118-0.17,0.271-0.432,0.462l-0.038,0.177l-0.611-0.135
			c0.051-0.236,0.052-0.484-0.002-0.743L210.884,153.343z"/>
		<path fill="#FFFFFF" d="M212.283,154.394c-0.021,0.088-0.026,0.143-0.016,0.158c0.01,0.017,0.04,0.032,0.095,0.045l-1.043-0.229
			c0.092,0.02,0.205-0.02,0.333-0.111c0.105,0.021,0.184-0.086,0.234-0.32l0.041-0.084c0.037-0.053,0.09-0.074,0.156-0.059
			l0.01,0.141C212.121,154.064,212.184,154.218,212.283,154.394z"/>
		<path fill="#FFFFFF" stroke="#373535" stroke-width="0.044" d="M213.52,153.923c0.196,0.044,0.376,0.206,0.534,0.49
			c0.078,0.018,0.122,0.033,0.133,0.052c0.01,0.018,0.006,0.07-0.015,0.159c-0.211-0.046-0.38-0.024-0.512,0.073l-0.336-0.632
			l-0.147-0.032C213.279,154.053,213.395,154.015,213.52,153.923z"/>
		<path fill="#FFFFFF" stroke="#373535" stroke-width="0.044" d="M217.452,154.44l0.119,0.212c-0.209-0.045-0.379-0.028-0.508,0.052
			c0.181-0.317,0.296-0.593,0.348-0.828c0.06,0.104,0.09,0.181,0.093,0.229C217.51,154.151,217.491,154.265,217.452,154.44z"/>
		<path fill="#FFFFFF" d="M188.416,141.3c-0.327,0.176-0.56,0.294-0.696,0.357c-0.231,0.103-0.411,0.143-0.541,0.114l0.51-0.817
			c0.024,0.005,0.111,0.054,0.256,0.149C188.09,141.197,188.246,141.263,188.416,141.3z"/>
		<path fill="#FFFFFF" d="M218.645,153.427c-0.025,0.118-0.127,0.336-0.309,0.652c-0.134-0.633-0.328-0.978-0.578-1.032
			c0.329-0.052,0.651-0.043,0.964,0.026c0.298,0.065,0.511,0.056,0.639-0.033C219.088,153.236,218.851,153.365,218.645,153.427z"/>
		<path fill="#FFFFFF" d="M191.508,142.723l-0.11,0.509l-0.542,1.714l-0.074,0.332c-0.764-0.664-1.314-1.086-1.659-1.27l0.582-0.406
			c0.46-0.146,1.008-0.45,1.646-0.914L191.508,142.723z"/>
		<path fill="#FFFFFF" stroke="#373535" stroke-width="0.044" d="M191.898,145.359c0.053,0.074,0.084,0.182,0.094,0.323
			c0.007,0.095,0.017,0.298,0.032,0.609l-0.81-0.734l0.196-0.143c0.052,0.012,0.11,0.001,0.172-0.032
			c0.065-0.047,0.126-0.065,0.178-0.054L191.898,145.359z"/>
		<path fill="#FFFFFF" d="M192.651,145.688c-0.041-0.442-0.187-0.776-0.44-1.002c0.264-0.19,0.432-0.453,0.506-0.793
			c0.252,0.226,0.629,0.484,1.128,0.783C193.688,144.888,193.292,145.226,192.651,145.688z"/>
		<path fill="#FFFFFF" stroke="#373535" stroke-width="0.044" d="M194.816,146.165l-0.157-0.035l0.032-0.896
			c0.618,0.135,1.018,0.283,1.201,0.449c-0.079-0.018-0.232,0.024-0.463,0.131C195.202,145.917,194.998,146.034,194.816,146.165z"/>
		<path fill="#FFFFFF" d="M195.914,146.244c0.016-0.073,0.095-0.149,0.236-0.227l0.353-0.199c0.194,0.18,0.674,0.471,1.438,0.871
			l-0.702,0.194c-0.537,0.004-0.871,0.057-1.003,0.15c-0.08-0.143-0.092-0.331-0.041-0.566c-0.066-0.014-0.132-0.054-0.2-0.114
			L195.914,146.244z"/>
		<path fill="#FFFFFF" d="M194.03,146.734l-0.27,0.475l-0.078,0.354l-0.157-0.035c-0.3-0.065-0.425-0.217-0.374-0.453
			c-0.105-0.023-0.146-0.087-0.124-0.188c-0.236-0.424-0.329-0.753-0.277-0.989l0.512-0.074l0.158,0.035
			c0.074-0.092,0.21-0.209,0.406-0.351c0.185-0.146,0.314-0.271,0.394-0.379c0.129,0.23,0.025,0.694-0.308,1.396
			c0.079,0.017,0.124,0.034,0.133,0.052C194.056,146.595,194.05,146.646,194.03,146.734z"/>
		<path fill="#FFFFFF" d="M200.525,147.607c0.264,0.119,0.44,0.219,0.533,0.304l0.787,0.171c-0.334,0.144-0.564,0.249-0.688,0.313
			c-0.188,0.098-0.329,0.214-0.429,0.347l-0.971-1.49c-0.753,0.546-1.216,0.932-1.389,1.156c-0.123-0.32-0.2-0.53-0.233-0.631
			c-0.049-0.151-0.065-0.263-0.05-0.335l0.198-0.144c0.015-0.073-0.005-0.139-0.062-0.198c-0.1-0.115-0.158-0.188-0.178-0.225
			c0.079,0.017,0.127,0.02,0.143,0.006c0.018-0.011,0.033-0.052,0.05-0.127c0.397,0.196,0.904,0.362,1.521,0.497
			C199.906,147.331,200.161,147.449,200.525,147.607z"/>
		<path fill="#FFFFFF" d="M206.203,150.318c-0.393,0.285-0.688,0.405-0.884,0.36c0.051-0.235,0.024-0.365-0.081-0.388
			c-0.275-0.246-0.394-0.457-0.354-0.635l0.114-0.045c0.09-0.041,0.169-0.055,0.235-0.04c0.104,0.023,0.308,0.098,0.608,0.228
			c0.294,0.11,0.492,0.176,0.597,0.199c-0.033,0.024-0.066,0.056-0.102,0.095C206.264,150.168,206.22,150.245,206.203,150.318z"/>
		<path fill="#FFFFFF" d="M208.803,151.076c-0.165,0.119-0.317,0.255-0.463,0.408l-0.16,0.173c-0.086-0.235-0.189-0.451-0.312-0.648
			c-0.14-0.184-0.227-0.312-0.267-0.383c0.616,0.135,1.115,0.307,1.495,0.515L208.803,151.076z"/>
		<path fill="#FFFFFF" d="M210.246,151.357c0.369,0.166,0.869,0.317,1.5,0.458c-0.062-0.012-0.1-0.011-0.113,0
			c-0.017,0.01-0.035,0.061-0.054,0.149c-0.236,0.32-0.427,0.462-0.569,0.431C210.698,151.841,210.442,151.494,210.246,151.357z"/>
		<path fill="#FFFFFF" stroke="#373535" stroke-width="0.044" d="M214.787,152.578l-0.388,0.262c0.013-0.059-0.015-0.119-0.083-0.18
			c-0.12-0.088-0.224-0.173-0.316-0.256L214.787,152.578l0.138,0.03"/>
		<path fill="#FFFFFF" stroke="#373535" stroke-width="0.044" d="M217.434,152.976c-0.153-0.028-0.341,0.109-0.554,0.411
			c-0.158,0.212-0.261,0.438-0.312,0.675l-0.12-0.213l-0.32-0.789l0.078-0.355L217.434,152.976z"/>
		<path fill="#FFFFFF" d="M221.61,153.177c-0.232,0.056-0.408,0.133-0.525,0.23c-0.223,0.136-0.368,0.229-0.432,0.277
			c-0.099,0.069-0.164,0.179-0.196,0.326c-0.08-0.142-0.105-0.271-0.079-0.389c0.052-0.234,0.037-0.424-0.042-0.565
			c0.157,0.035,0.373,0.06,0.645,0.072C221.257,153.128,221.466,153.143,221.61,153.177z"/>
		<path fill="#FFFFFF" d="M201.777,148.718c0.196-0.171,0.304-0.303,0.323-0.393c1.184,0.508,2.036,0.818,2.562,0.934
			c-0.065,0.048-0.158,0.089-0.277,0.127c-0.117,0.035-0.207,0.068-0.269,0.103c-0.38,0.41-0.635,0.601-0.765,0.571
			c-0.265,0.192-0.405,0.339-0.429,0.441c-0.132,0.093-0.25,0.132-0.354,0.108c-0.135,0.108-0.256,0.229-0.368,0.359
			c-0.11,0.13-0.192,0.215-0.242,0.248l0.118-0.53c0.146-0.663,0.075-1.343-0.211-2.042L201.777,148.718z"/>
	</g>
</g>
</svg>
