<?xml version="1.0" encoding="utf-8"?>
<!-- Generator: Adobe Illustrator 17.0.1, SVG Export Plug-In . SVG Version: 6.00 Build 0)  -->
<!DOCTYPE svg PUBLIC "-//W3C//DTD SVG 1.1//EN" "http://www.w3.org/Graphics/SVG/1.1/DTD/svg11.dtd">
<svg version="1.1" id="Layer_1" xmlns="http://www.w3.org/2000/svg" xmlns:xlink="http://www.w3.org/1999/xlink" x="0px" y="0px"
	 width="244.673px" height="178.803px" viewBox="9.28 34.02 244.673 178.803" enable-background="new 9.28 34.02 244.673 178.803"
	 xml:space="preserve">
<g id="Layer_3">
	<path fill="#FFFFFF" d="M224.518,86.982c-2.408-2.976-3.561-6.66-5.359-9.994c-0.915-1.697-2.819-1.47-3.881-0.413
		c0.025-0.925,0.145-1.894,0.384-2.911c0.735-3.136-4.085-4.468-4.822-1.329c-2.115,9.015,2.079,16.648,11.246,18.825
		C224.669,91.774,226.052,88.878,224.518,86.982z"/>
</g>
<g id="Layer_1_2_">
	<g>
		<g id="Layer_1_1_">
			<g>
				<g id="Layer_1_3_">
					<g>
						
							<path fill="#FFFFFF" stroke="#000000" stroke-width="1.5" stroke-linecap="round" stroke-linejoin="round" stroke-miterlimit="3" d="
							M211.434,70.489c-4.063,9.714-1.374,16.452,8.07,20.215c1.588,0.629,3.345,1.163,5.271,1.602
							c1.823,0.411,3.799,0.738,5.925,0.979c1.482,0.166,3.93,0.321,7.34,0.466c6.604,1.306,11.621,0.327,15.053-2.939v-7.34
							c-5.806-10.211-11.072-17.81-15.799-22.796c-3.971-4.074-7.982-7.319-12.036-9.734c-0.363-1.389-1.343-2.55-2.939-3.483
							c-0.477-0.197-0.84-0.384-1.088-0.56c-1.017-1.109-2.701-2.27-5.055-3.483c-2.602-1.203-4.349-1.452-5.239-0.747
							c-0.923-1.099-1.628-1.985-2.115-2.659c-1.877-2.312-3.654-4.059-5.334-5.24h-2.752v7.542
							c-0.249-0.073-0.441-0.13-0.576-0.171c-0.248-0.073-0.486-0.109-0.715-0.109c-2.063-0.187-3.131,0.425-3.203,1.835
							c-1.441,0.332-2.509,0.804-3.204,1.416c-0.694,0.622-1.067,1.436-1.119,2.441c-3.12,0-4.773,1.228-4.961,3.685
							c-1.514,0.093-2.648,0.508-3.405,1.244c-0.746,0.726-1.146,1.778-1.197,3.157c-0.809,0.187-1.451,0.477-1.928,0.871
							c-0.457,0.374-0.731,0.819-0.824,1.337c-0.239,0-0.451,0.031-0.638,0.093c-1.67,0.228-2.908,0.648-3.717,1.26
							c-0.829,0.622-1.244,1.457-1.244,2.503c0,0.031,0.016,0.135,0.047,0.311c0.031,0.228,0.047,0.493,0.047,0.793h-0.653
							c-1.421,0.093-2.561,0.415-3.421,0.964c-0.851,0.539-1.39,1.291-1.617,2.255C167.255,65.565,166.12,65.166,165,65
							c-2.26-0.28-3.882,0.12-4.867,1.198c-0.602-0.342-1.55-0.467-2.846-0.374c-1.565,0.094-2.7,0.493-3.405,1.198
							c-0.643-0.322-1.498-0.534-2.565-0.638c-2.012,0-3.24,0.394-3.686,1.182h-0.357c-0.664-0.933-1.893-1.544-3.686-1.835
							c-1.783-0.353-3.007-0.197-3.67,0.467c-0.871-0.871-2.156-1.482-3.856-1.835c-1.358-0.291-2.493-0.233-3.405,0.171
							c-0.685,0.301-1.109,0.668-1.275,1.104c-1.068-0.653-2.69-1.171-4.867-1.555c-1.939-0.28-3.592-0.187-4.961,0.28h-0.186
							c-0.208-0.425-0.514-0.793-0.918-1.104c-1.109-0.922-2.488-1.477-4.136-1.664c-1.493-0.249-2.872-0.031-4.136,0.653
							c-0.632,0.363-1.094,0.818-1.384,1.368c-0.104-0.052-0.177-0.088-0.218-0.109c-0.083-0.042-0.161-0.062-0.233-0.062
							c-1.088-0.736-2.374-1.197-3.856-1.384c-2.799-0.363-4.608,0.099-5.427,1.384c-0.995-0.56-2.25-0.928-3.763-1.104
							c-0.995-0.104-1.799-0.14-2.41-0.109c-0.715,0.031-1.291,0.155-1.726,0.373c-0.125-0.052-0.218-0.109-0.28-0.171
							c-1.441-1.058-3.095-1.674-4.961-1.851c-2.042-0.28-3.665-0.125-4.867,0.466c-0.715,0.311-1.233,0.679-1.555,1.104
							c-0.902-0.549-2.219-0.824-3.95-0.824c-1.596,0.104-2.913,0.44-3.949,1.011c-0.394,0.197-0.669,0.378-0.824,0.544
							c-0.467-0.446-1.021-0.751-1.664-0.917c-1.472-0.643-3.307-0.917-5.505-0.824c-2.146,0-4.048,0.336-5.707,1.01
							c-0.788,0.301-1.369,0.638-1.742,1.011l-0.824-0.56c-1.762-0.684-3.752-0.897-5.971-0.638
							c-2.384,0.197-4.344,0.809-5.878,1.835c-1.534,0.954-2.395,2.027-2.581,3.219c-4.043-0.55-7.371,0.217-9.984,2.301
							c-0.58,0.487-1.135,1.037-1.664,1.648c-1.296-0.218-2.488-0.249-3.576-0.094c-1.991,0.353-3.707,1.239-5.147,2.66
							c-1.534,1.461-2.302,3.364-2.302,5.707l0.094,0.622c0.093,0.549,0.218,1.166,0.373,1.851c-0.321,0-0.596,0.062-0.824,0.187
							c-3.307,1.379-4.96,3.556-4.96,6.531c0,0.01,0.078,0.243,0.233,0.7c0.207,0.591,0.404,1.213,0.591,1.866
							c-2.882,1.98-4.323,4.307-4.323,6.982c0,0.404,0.549,1.446,1.648,3.125c0.062,0.062,0.093,0.125,0.093,0.187
							c-1.037,0.715-1.819,1.524-2.348,2.426c-0.518,0.86-0.777,1.762-0.777,2.706c0,0.788,0.43,1.798,1.291,3.032
							c0.736,1.203,1.684,2.032,2.845,2.488c-1.461,1.648-2.192,3.333-2.192,5.054c0,0.104,0.456,1.021,1.368,2.752
							c0.653,0.892,1.482,1.597,2.488,2.115c-1.286,1.441-1.928,3.219-1.928,5.333c0,1.109,0.244,2.151,0.731,3.125
							c0.518,1.037,1.312,1.799,2.379,2.287c-1.285,1.845-1.928,3.685-1.928,5.52c0,0.135,0.311,0.897,0.933,2.286
							c0.404,0.591,0.954,1.083,1.648,1.478c-1.472,1.918-2.208,3.695-2.208,5.333l0.56,3.857c0.664,1.627,1.643,2.695,2.939,3.203
							c-0.373,0.746-0.56,1.514-0.56,2.302c0,0.684,0.549,1.726,1.648,3.125c0.84,0.933,1.576,1.576,2.208,1.929
							c-0.301,0.694-0.451,1.611-0.451,2.752c0,0.892,0.306,1.84,0.917,2.846c0.156,0.332,0.378,0.643,0.668,0.934
							c0.135,0.155,0.399,0.398,0.793,0.73c-0.674,0.975-1.011,2.104-1.011,3.39c0,0.55,0.249,1.073,0.746,1.57
							c0.249,0.332,0.643,0.638,1.182,0.918v0.544c0,0.312,0.093,0.772,0.28,1.384c0.332,0.561,0.793,0.99,1.384,1.291
							c-0.134,4.759-0.321,8.521-0.56,11.29c-0.529,8.552-0.223,15.534,0.917,20.945c1.855,0,3.789,0.218,5.8,0.653
							c1.98,0.395,4.022,0.482,6.127,0.265c-2.892-7.08-4.11-14.487-3.654-22.222c0.29-3.929,1.052-7.055,2.286-9.376
							c0.238,0.124,0.694,0.187,1.368,0.187c1.773,0,3.245-0.861,4.417-2.582c0.311-0.394,0.523-0.757,0.638-1.088h0.746
							c0.342,0,0.731-0.037,1.167-0.109c0.249-0.031,0.591-0.088,1.026-0.171c0.736,3.224,1.716,8.309,2.939,15.255
							c1.296,7.453,3.167,12.627,5.614,15.52c1.731,0.539,3.752,0.906,6.064,1.104c1.524,0.052,2.747-0.005,3.67-0.171
							c0.985-0.177,1.721-0.487,2.208-0.933c-3.276-3.815-5.422-9.787-6.438-17.914c-0.208-1.576-0.378-3.847-0.514-6.812
							c-0.104-2.312-0.207-5.707-0.311-10.186c1.13,0,2.079-0.674,2.846-2.021c0.435-0.964,0.653-1.762,0.653-2.395v-0.918h0.824
							c2.437,0,4.546-0.673,6.329-2.021c0.062,0,0.125,0.03,0.187,0.093c2.975,2.882,7.018,4.323,12.129,4.323
							c0.798,0,1.742-0.285,2.831-0.855c1.016-0.539,2.218-1.358,3.607-2.457l0.544-0.544c0.167,0.259,0.472,0.689,0.918,1.29
							c1.876,2.136,4.971,3.204,9.283,3.204c1.908,0,3.53-0.855,4.868-2.566c0-0.062,0.062-0.155,0.187-0.279
							c1.203,0.922,2.856,1.384,4.96,1.384c0.663,0,1.368-0.368,2.115-1.104c0.125,0.135,0.368,0.254,0.731,0.358
							c1.938,1.108,4.297,1.663,7.075,1.663c1.949,0,3.509-0.337,4.681-1.011c1.151,0.975,2.835,1.462,5.054,1.462
							c0.612,0,1.436-0.611,2.473-1.835c0.892,0.498,2.151,0.747,3.779,0.747c1.016,0,1.84-0.188,2.472-0.561
							c0.218,0.55,0.68,1.13,1.384,1.742c1.141,1.047,2.52,1.57,4.137,1.57h0.187c0.073,0.146,0.166,0.415,0.28,0.809
							c0.072,0.229,0.191,0.632,0.357,1.213c0.404,0.611,0.892,1.036,1.462,1.275c-0.062,0.373-0.094,0.99-0.094,1.851
							c0,0.435,0.312,1.135,0.934,2.099c0.301,0.633,0.757,1.156,1.368,1.571c0,0.86-0.036,1.928-0.109,3.203
							c-0.052,0.757-0.134,1.985-0.248,3.686c-0.581,7.35-0.83,11.974-0.747,13.87c0.373,4.862,1.814,8.413,4.323,10.652v0.917h9.19
							c-2.136-6.966-3.027-13.948-2.675-20.946c0.094-3.69,0.617-6.873,1.57-9.547c0.239,0.062,0.545,0.093,0.918,0.093
							c1.202,0,2.089-0.43,2.659-1.291c0.259-0.425,0.445-0.85,0.56-1.274c0,0.373,0.243,0.892,0.73,1.555
							c0.705,1.016,1.561,1.565,2.566,1.648c0.187,1.202,0.279,2.488,0.279,3.856c0.312,4.841,0.617,9.133,0.918,12.876
							c0.715,4.396,2.125,7.547,4.229,9.454c2.644,2.291,6.687,2.871,12.129,1.741c-3.524-4.167-5.515-10.258-5.971-18.271
							c-0.177-3.017-0.114-6.386,0.187-10.107c0.663-0.083,1.244-0.513,1.741-1.29c0.363-0.644,0.545-1.317,0.545-2.022
							c0-0.757-0.089-1.368-0.265-1.835c0.55-0.466,1.037-1.078,1.462-1.835c0.674-1.265,1.011-2.213,1.011-2.846v-0.839
							c0.652-0.363,1.265-0.882,1.835-1.556c0.508-0.746,0.813-1.207,0.917-1.384c0.829,0.187,1.871,0.28,3.126,0.28
							c1.628,0,3.037-1.866,4.229-5.599h0.451c0.995,0,1.979-0.523,2.954-1.57c0.912-0.912,1.368-1.736,1.368-2.473
							c0-0.425-0.062-0.948-0.187-1.57c0.83-0.27,1.659-0.912,2.488-1.929c0.529-0.569,0.943-1.088,1.244-1.555
							c0.27-0.436,0.404-0.772,0.404-1.011c0.923-0.373,1.721-0.984,2.395-1.835c0.912-1.099,1.369-1.929,1.369-2.488v-0.265
							c0.414-0.248,0.876-0.771,1.384-1.57c0.923-1.202,1.384-2.182,1.384-2.938c0-1.597-0.031-2.701-0.094-3.312
							c0.685-0.384,1.296-1.146,1.836-2.286c0.611-1.451,0.917-2.462,0.917-3.032c0-0.798-0.125-1.44-0.373-1.928
							c0.995-0.404,1.762-1.296,2.301-2.675c0.736-1.379,1.104-2.633,1.104-3.763c0-0.985-0.244-1.871-0.731-2.659
							c0.788-0.456,1.369-1.13,1.742-2.021c0.611-1.058,0.918-2.037,0.918-2.939c0-0.943-0.431-1.892-1.291-2.846
							c0.394-0.311,0.824-0.741,1.291-1.291c0.798-0.975,1.197-1.773,1.197-2.395c0-1.058-0.249-2.037-0.747-2.939
							c0.27-0.197,0.638-0.596,1.104-1.197c0.497-0.975,0.746-1.768,0.746-2.379c0-0.757-0.124-1.337-0.373-1.741
							c1.037-1.203,1.835-3.193,2.395-5.972c0-1.316-0.368-2.483-1.104-3.499c1.534-0.093,2.757-0.643,3.67-1.648l1.072-0.902"/>
					</g>
					
						<path fill="none" stroke="#000000" stroke-width="1.5" stroke-linecap="round" stroke-linejoin="round" stroke-miterlimit="3" d="
						M47.036,175.796c1.503-0.177,2.685-0.467,3.545-0.871c1.389-0.643,2.182-1.617,2.379-2.923
						c1.731-0.954,2.944-1.706,3.639-2.255c1.182-0.923,1.845-2.162,1.99-3.717c1.006,0.249,2.732,0.348,5.178,0.295"/>
					
						<path fill="none" stroke="#000000" stroke-width="1.5" stroke-linecap="round" stroke-linejoin="round" stroke-miterlimit="3" d="
						M164.27,179.108c1.44-0.135,2.711-0.534,3.81-1.198c1.441-0.86,2.344-2.062,2.706-3.607c0.809-0.726,2.006-1.757,3.592-3.095
						c1.213-1.191,1.893-2.42,2.037-3.685c1.929-1.12,3.339-2.131,4.229-3.032c1.421-1.441,2.079-2.996,1.976-4.666
						c1.213,0,2.659-0.45,4.338-1.353c1.773-0.933,2.852-1.896,3.234-2.893"/>
					
						<path fill="none" stroke="#000000" stroke-width="1.5" stroke-linecap="round" stroke-linejoin="round" stroke-miterlimit="3" d="
						M26.758,178.004c0.197,0.238,0.523,0.752,0.98,1.539c0.519,0.685,1.125,1.042,1.819,1.073c1.182,0.643,2.509,0.928,3.98,0.855
						c1.763-0.083,3.142-0.721,4.137-1.912"/>
					
						<path fill="none" stroke="#000000" stroke-width="1.5" stroke-linecap="round" stroke-linejoin="round" stroke-miterlimit="3" d="
						M52.961,172.002c0.736,0.663,1.788,1.052,3.157,1.166c1.7,0.145,3.084-0.357,4.152-1.509"/>
					
						<path fill="none" stroke="#000000" stroke-width="1.5" stroke-linecap="round" stroke-linejoin="round" stroke-miterlimit="3" d="
						M148.828,179.746c-0.011,0.704,0.348,1.445,1.073,2.224c0.818,0.881,1.731,1.27,2.736,1.166c1.7,0.746,3.167,1.047,4.401,0.901
						c1.492-0.165,2.524-0.984,3.094-2.456"/>
					
						<path fill="none" stroke="#000000" stroke-width="1.5" stroke-linecap="round" stroke-linejoin="round" stroke-miterlimit="3" d="
						M167.566,182.312c1.379,0.591,2.208,0.917,2.488,0.979c1.212,0.238,2.275-0.067,3.188-0.917
						c0.238,0.062,0.777,0.228,1.617,0.497c0.58,0.187,1.042,0.296,1.384,0.326c0.954,0.073,1.985-0.373,3.095-1.337"/>
					
						<path fill="none" stroke="#000000" stroke-width="1.5" stroke-linecap="round" stroke-linejoin="round" stroke-miterlimit="3" d="
						M200.735,42.312c0.3,0.187,0.59,0.632,0.87,1.337c0.301,0.726,0.487,1.508,0.561,2.348c0.187,2.188-0.436,3.691-1.866,4.51
						c0.611,0.612,1.881,1.612,3.81,3.001c1.503,1.255,1.996,2.281,1.478,3.079c2.644,4.116,2.794,6.987,0.451,8.615
						c1.213,0.332,2.457,1.058,3.731,2.177c1.431,1.234,1.985,2.271,1.664,3.11"/>
					<path fill="#373535" stroke="#000000" stroke-width="1.5" stroke-miterlimit="10" d="M222.521,56.603
						c0.528,0.529,0.792,1.171,0.792,1.928c0,0.747-0.264,1.389-0.792,1.928c-0.529,0.529-1.172,0.793-1.929,0.793
						s-1.399-0.264-1.929-0.793c-0.539-0.539-0.809-1.182-0.809-1.928c0-0.757,0.27-1.399,0.809-1.928
						c0.529-0.539,1.172-0.809,1.929-0.809S221.992,56.064,222.521,56.603z"/>
					<path fill="#FFFFFF" stroke="#FFFFFF" stroke-width="1.5" stroke-miterlimit="10" d="M222.661,56.417
						c0.321,0.321,0.481,0.715,0.481,1.182c0,0.456-0.16,0.85-0.481,1.182c-0.332,0.332-0.731,0.498-1.197,0.498
						c-0.457,0-0.851-0.166-1.183-0.498c-0.321-0.332-0.481-0.726-0.481-1.182c0-0.467,0.16-0.861,0.481-1.182
						c0.332-0.332,0.726-0.498,1.183-0.498C221.93,55.919,222.329,56.084,222.661,56.417z"/>
					<path stroke="#000000" stroke-width="1.5" stroke-miterlimit="10" d="M247.898,85.76c-0.311,0.29-0.544-0.125-0.699-1.244
						c-0.146-1.109-0.099-1.866,0.14-2.27c0.177-0.301,0.851-0.42,2.021-0.358c1.587,0.083,2.54,0.099,2.861,0.047l0.373,0.373
						c0.26,0.342,0.426,0.731,0.498,1.166c0.104,0.508,0.135,1.244,0.093,2.208c-0.021,0.518-0.052,1.213-0.093,2.083
						c-0.892-0.072-1.565-0.388-2.021-0.949c-0.218-0.269-0.456-0.762-0.716-1.477c-0.187-0.508-0.404-0.762-0.652-0.762
						C249.36,84.578,248.76,84.972,247.898,85.76z"/>
					
						<path fill="none" stroke="#000000" stroke-width="1.5" stroke-linecap="round" stroke-linejoin="round" stroke-miterlimit="3" d="
						M223.111,51.829c-0.124,0.291-0.876,0.695-2.255,1.213c-0.403,0.148-0.77,0.283-1.096,0.404c2.69,1.296,4.093,2.939,4.206,4.93
						c0.042,0.85-0.182,1.627-0.668,2.333c-0.478,0.694-1.146,1.213-2.007,1.555c-1.265,0.498-2.524,0.56-3.778,0.187
						c-1.338-0.404-2.213-1.208-2.628-2.41c-0.519-1.482-0.29-2.846,0.685-4.09c0.601-0.777,1.311-1.358,2.13-1.742
						c0.033-0.017,0.72-0.271,2.061-0.762"/>
					
						<path fill="none" stroke="#000000" stroke-width="1.5" stroke-linecap="round" stroke-linejoin="round" stroke-miterlimit="3" d="
						M239.377,87.144c0.156,0.249,0.716,0.643,1.68,1.182c1.089,0.622,2.266,1.176,3.53,1.664c3.535,1.337,6.37,1.612,8.506,0.824"
						/>
				</g>
			</g>
		</g>
	</g>
</g>
</svg>
