<?xml version="1.0" encoding="utf-8"?>
<!-- Generator: Adobe Illustrator 17.0.1, SVG Export Plug-In . SVG Version: 6.00 Build 0)  -->
<!DOCTYPE svg PUBLIC "-//W3C//DTD SVG 1.1//EN" "http://www.w3.org/Graphics/SVG/1.1/DTD/svg11.dtd">
<svg version="1.1" id="Layer_1" xmlns="http://www.w3.org/2000/svg" xmlns:xlink="http://www.w3.org/1999/xlink" x="0px" y="0px"
	 width="245.813px" height="156.876px" viewBox="8.773 57.771 245.813 156.876"
	 enable-background="new 8.773 57.771 245.813 156.876" xml:space="preserve">
<g>
	<g id="Layer_1_1_">
		<g>
			<g id="Layer_1_3_">
				<g>
					<path fill="#FFFFFF" stroke="#000000" stroke-miterlimit="10" d="M169.684,74.092c-1.934,2.101-5.106,4.056-9.518,5.864
						c-1.453,0.596-3.156,1.218-5.111,1.866c-1.944,0.627-3.24,1.051-3.888,1.27c-1.422,0.481-4.84,2.451-10.255,5.911
						c-5.812,3.711-9.329,5.854-10.552,6.429c-0.888,0.418-3.298,1.866-7.228,4.343c-3.408,2.143-6.324,3.648-8.749,4.516
						c-0.836,1.965-2.457,4.212-4.861,6.742c-1.839,1.924-3.664,3.57-5.472,4.939c-1.213,0.909-3.23,1.609-6.052,2.101
						c-2.279,0.387-4.6,0.58-6.962,0.58c-1.014,1.422-2.268,2.342-3.763,2.76c-0.763,0.219-2.284,0.371-4.563,0.455
						c-1.453,0.063-3.564-0.601-6.334-1.991c-2.195-1.098-3.706-1.997-4.531-2.697c-3.146-2.039-5.687-3.638-7.62-4.798
						c-3.564-2.143-6.172-3.271-7.824-3.387c0.251-0.199,3.753,0.021,10.505,0.659c7.056,0.658,10.761,0.972,11.117,0.94
						c0.91-0.073,2.697-0.507,5.362-1.301c2.969-0.878,5.028-1.651,6.178-2.32c1.777-1.024,4.892-2.948,9.345-5.77
						c5.049-3.199,7.929-5.122,8.639-5.77c0.92-0.847,2.07-1.547,3.45-2.101c1.662-0.659,3.418-0.988,5.268-0.988
						c1.777,0,3.183-0.366,4.218-1.098c0.292-0.209,1.26-1.181,2.901-2.917c1.076-1.139,2.759-2.252,5.049-3.339
						c2.101-1.003,3.956-1.652,5.566-1.944c1.348-0.241,5.477-1.233,12.386-2.979c6.68-1.683,10.375-2.645,11.086-2.885
						c0.22-0.073,2.022-0.501,5.409-1.286C166.213,75.111,168.481,74.51,169.684,74.092z"/>
					
						<path fill="none" stroke="#000000" stroke-width="1.5" stroke-linecap="round" stroke-linejoin="round" stroke-miterlimit="3" d="
						M169.684,74.092c-1.934,2.101-5.106,4.056-9.518,5.864c-1.453,0.596-3.156,1.218-5.111,1.866
						c-1.944,0.627-3.24,1.051-3.888,1.27c-1.422,0.481-4.84,2.451-10.255,5.911c-5.812,3.711-9.329,5.854-10.552,6.429
						c-0.888,0.418-3.298,1.866-7.228,4.343c-3.408,2.143-6.324,3.648-8.749,4.516c-0.836,1.965-2.457,4.212-4.861,6.742
						c-1.839,1.924-3.664,3.57-5.472,4.939c-1.213,0.909-3.23,1.609-6.052,2.101c-2.279,0.387-4.6,0.58-6.962,0.58
						c-1.014,1.422-2.268,2.342-3.763,2.76c-0.763,0.219-2.284,0.371-4.563,0.455c-1.453,0.063-3.564-0.601-6.334-1.991
						c-2.195-1.098-3.706-1.997-4.531-2.697c-3.146-2.039-5.687-3.638-7.62-4.798c-3.564-2.143-6.172-3.271-7.824-3.387
						c0.251-0.199,3.753,0.021,10.505,0.659c7.056,0.658,10.761,0.972,11.117,0.94c0.91-0.073,2.697-0.507,5.362-1.301
						c2.969-0.878,5.028-1.651,6.178-2.32c1.777-1.024,4.892-2.948,9.345-5.77c5.049-3.199,7.929-5.122,8.639-5.77
						c0.92-0.847,2.07-1.547,3.45-2.101c1.662-0.659,3.418-0.988,5.268-0.988c1.777,0,3.183-0.366,4.218-1.098
						c0.292-0.209,1.26-1.181,2.901-2.917c1.076-1.139,2.759-2.252,5.049-3.339c2.101-1.003,3.956-1.652,5.566-1.944
						c1.348-0.241,5.477-1.233,12.386-2.979c6.68-1.683,10.375-2.645,11.086-2.885c0.22-0.073,2.022-0.501,5.409-1.286
						C166.213,75.111,168.481,74.51,169.684,74.092z"/>
					<path stroke="#000000" stroke-miterlimit="10" d="M68.364,117.194c0.815,1.16,1.307,4.651,1.474,10.474
						c0.136,4.662,0.089,8.19-0.141,10.584c0-0.502-0.664-1.385-1.991-2.65c-1.181-1.129-2.352-2.08-3.512-2.854l0.204,1.568
						c0.175,1.297,0.371,2.634,0.588,4.014c-0.274-1.535-1.771-3.343-4.492-5.425c-2.519-1.944-4.552-3.068-6.099-3.371
						c-1.547-2.99-1.756-6.507-0.627-10.552c0.564-2.039,1.625-4.474,3.183-7.307c2.874-0.732,5.43-0.408,7.667,0.972
						C66.446,113.776,67.695,115.292,68.364,117.194z"/>
					
						<path fill="none" stroke="#000000" stroke-width="1.5" stroke-linecap="round" stroke-linejoin="round" stroke-miterlimit="3" d="
						M68.364,117.194c0.815,1.16,1.307,4.651,1.474,10.474c0.136,4.662,0.089,8.19-0.141,10.584c0-0.502-0.664-1.385-1.991-2.65
						c-1.181-1.129-2.352-2.08-3.512-2.854l0.204,1.568c0.175,1.297,0.371,2.634,0.588,4.014c-0.274-1.535-1.771-3.343-4.492-5.425
						c-2.519-1.944-4.552-3.068-6.099-3.371c-1.547-2.99-1.756-6.507-0.627-10.552c0.564-2.039,1.625-4.474,3.183-7.307
						c2.874-0.732,5.43-0.408,7.667,0.972C66.446,113.776,67.695,115.292,68.364,117.194z"/>
					<path fill="#FFFFFF" stroke="#000000" stroke-miterlimit="10" d="M48.843,131.274c1.212,0.084,2.697,0.936,4.453,2.556
						c1.536,1.432,2.858,3.026,3.967,4.782c0.889,1.411,1.479,3.622,1.771,6.632c0.241,2.373,0.277,4.903,0.11,7.589
						c0.042-1.223-0.334-3.225-1.129-6.005c-0.805-2.801-1.563-4.735-2.273-5.801c-0.627-0.931-1.746-2.144-3.355-3.638
						c-1.181-1.087-2.211-1.966-3.089-2.635c-0.491-0.365-0.758-0.977-0.8-1.834C48.467,132.147,48.582,131.599,48.843,131.274z"/>
					
						<path fill="none" stroke="#000000" stroke-width="1.5" stroke-linecap="round" stroke-linejoin="round" stroke-miterlimit="3" d="
						M48.843,131.274c-0.261,0.324-0.376,0.873-0.345,1.646c0.042,0.857,0.309,1.469,0.8,1.834c0.878,0.669,1.908,1.548,3.089,2.635
						c1.61,1.494,2.729,2.707,3.355,3.638c0.71,1.065,1.469,3,2.273,5.801c0.794,2.78,1.17,4.782,1.129,6.005
						c0.167-2.686,0.131-5.216-0.11-7.589c-0.292-3.01-0.883-5.221-1.771-6.632c-1.108-1.756-2.431-3.351-3.967-4.782
						C51.54,132.21,50.056,131.358,48.843,131.274z"/>
					<path fill="#FFFFFF" stroke="#000000" stroke-miterlimit="10" d="M48.89,125.363c-0.429-0.188-0.585-0.606-0.47-1.254
						c0.104-0.627,0.397-1.15,0.878-1.568c0.481,0,1.74,0.643,3.779,1.929c2.059,1.307,3.617,2.456,4.672,3.449
						c1.077,1.014,1.976,2.436,2.697,4.265c0.732,1.84,1.129,3.727,1.192,5.66c-0.272-1.212-1.746-3.491-4.421-6.836
						c-0.534-0.659-1.856-1.698-3.967-3.12C51.169,126.477,49.716,125.635,48.89,125.363z"/>
					
						<path fill="none" stroke="#000000" stroke-width="1.5" stroke-linecap="round" stroke-linejoin="round" stroke-miterlimit="3" d="
						M48.89,125.363c0.826,0.272,2.279,1.113,4.359,2.524c2.111,1.422,3.434,2.461,3.967,3.12c2.675,3.345,4.149,5.624,4.421,6.836
						c-0.063-1.934-0.46-3.82-1.192-5.66c-0.721-1.829-1.62-3.25-2.697-4.265c-1.056-0.993-2.613-2.143-4.672-3.449
						c-2.039-1.286-3.298-1.929-3.779-1.929c-0.481,0.418-0.773,0.941-0.878,1.568C48.305,124.757,48.461,125.175,48.89,125.363z"/>
					<path fill="#FFFFFF" stroke="#000000" stroke-miterlimit="10" d="M48.357,130.067c-0.47-0.261-0.554-0.91-0.251-1.944
						c0.251-0.847,0.602-1.589,1.051-2.227c0.45-0.083,1.552,0.434,3.309,1.552c2.09,1.317,4.029,2.906,5.817,4.766
						c1.819,1.882,3.235,4.646,4.249,8.295c0.826,3.01,1.202,5.744,1.129,8.2c-0.575-4.182-1.882-7.615-3.92-10.302
						c-0.815-1.076-2.284-2.472-4.406-4.186c-0.847-0.68-2.112-1.49-3.794-2.431C49.826,130.861,48.765,130.287,48.357,130.067z"/>
					
						<path fill="none" stroke="#000000" stroke-width="1.5" stroke-linecap="round" stroke-linejoin="round" stroke-miterlimit="3" d="
						M48.357,130.067c0.408,0.219,1.469,0.794,3.183,1.725c1.683,0.94,2.948,1.751,3.794,2.431c2.122,1.714,3.59,3.109,4.406,4.186
						c2.038,2.687,3.345,6.12,3.92,10.302c0.073-2.456-0.303-5.19-1.129-8.2c-1.014-3.648-2.43-6.413-4.249-8.295
						c-1.788-1.86-3.727-3.449-5.817-4.766c-1.756-1.118-2.859-1.636-3.309-1.552c-0.449,0.638-0.8,1.38-1.051,2.227
						C47.803,129.158,47.887,129.806,48.357,130.067z"/>
					<path fill="#FFFFFF" stroke="#000000" stroke-miterlimit="10" d="M49.564,135.477c-0.408,0.251-1.166,0.298-2.273,0.142
						c-1.401-0.21-2.493-0.257-3.277-0.142c-1.62,0.209-2.754,0.366-3.403,0.471c-1.066,0.167-1.75,0.365-2.054,0.596
						c-0.178,0.136-0.434-0.204-0.768-1.02c-0.324-0.805-0.601-1.751-0.831-2.838c-0.617-2.896-0.502-4.5,0.345-4.813
						c0.669-0.261,1.897-0.209,3.685,0.157c1.463,0.303,2.624,0.638,3.481,1.003c1.861,0.794,2.932,1.254,3.214,1.38
						c1.568,0.711,2.524,1.233,2.869,1.568c0.397,0.396,0.476,0.992,0.235,1.787C50.558,134.541,50.15,135.11,49.564,135.477z"/>
					
						<path fill="none" stroke="#000000" stroke-width="1.5" stroke-linecap="round" stroke-linejoin="round" stroke-miterlimit="3" d="
						M49.564,135.477c-0.408,0.251-1.166,0.298-2.273,0.142c-1.401-0.21-2.493-0.257-3.277-0.142
						c-1.62,0.209-2.754,0.366-3.403,0.471c-1.066,0.167-1.75,0.365-2.054,0.596c-0.178,0.136-0.434-0.204-0.768-1.02
						c-0.324-0.805-0.601-1.751-0.831-2.838c-0.617-2.896-0.502-4.5,0.345-4.813c0.669-0.261,1.897-0.209,3.685,0.157
						c1.463,0.303,2.624,0.638,3.481,1.003c1.861,0.794,2.932,1.254,3.214,1.38c1.568,0.711,2.524,1.233,2.869,1.568
						c0.397,0.396,0.476,0.992,0.235,1.787C50.558,134.541,50.15,135.11,49.564,135.477z"/>
					<path stroke="#000000" stroke-miterlimit="10" d="M111.921,112.036c0.648-0.46,1.396-0.638,2.243-0.533
						c0.867,0.094,1.432,0.449,1.693,1.066c1.317,0.314,1.359,1.558,0.125,3.732c-0.836,1.463-2.007,3.021-3.512,4.672
						c-0.94,1.035-2.263,2.164-3.967,3.387c-1.787,1.286-3.329,2.185-4.625,2.697c-1.129,0.46-2.702,0.81-4.719,1.05
						c-2.101,0.199-3.45,0.33-4.045,0.392c-0.868,0.083-1.275-0.005-1.223-0.267c0.052-0.25,0.46-0.522,1.223-0.815
						c1.819-0.376,3.648-0.972,5.488-1.788c0.167-0.073,1.38-0.669,3.638-1.788c0.638-0.313,1.704-1.056,3.199-2.226
						c1.547-1.223,2.566-1.971,3.057-2.242c0.69-0.376,1.244-1.061,1.662-2.054c0.387-1.191,0.669-2.059,0.847-2.603
						c-0.575,0.575-1.531,0.957-2.869,1.145c-2.258,0.313-3.392,0.47-3.402,0.47c-1.484,0.418-2.613,0.732-3.387,0.941
						c-1.391,0.366-2.525,0.585-3.403,0.658c-0.982,0.084-2.096-0.136-3.339-0.658c-1.056-0.45-1.855-0.946-2.399-1.49
						c0.752,0.376,2.791,0.277,6.115-0.298c1.714-0.303,3.617-0.679,5.708-1.129c0.659-0.094,1.641-0.392,2.947-0.894
						C110.332,112.94,111.315,112.464,111.921,112.036z"/>
					
						<path fill="none" stroke="#000000" stroke-width="1.5" stroke-linecap="round" stroke-linejoin="round" stroke-miterlimit="3" d="
						M111.921,112.036c-0.606,0.428-1.589,0.904-2.948,1.427c-1.306,0.501-2.289,0.799-2.947,0.894
						c-2.091,0.45-3.993,0.826-5.708,1.129c-3.324,0.575-5.362,0.674-6.115,0.298c0.543,0.543,1.343,1.04,2.399,1.49
						c1.244,0.522,2.357,0.742,3.339,0.658c0.878-0.073,2.012-0.292,3.403-0.658c0.773-0.209,1.902-0.523,3.387-0.941
						c0.01,0,1.145-0.157,3.402-0.47c1.338-0.188,2.294-0.57,2.869-1.145c-0.178,0.543-0.46,1.411-0.847,2.603
						c-0.418,0.993-0.972,1.678-1.662,2.054c-0.491,0.271-1.51,1.019-3.057,2.242c-1.495,1.17-2.561,1.913-3.199,2.226
						c-2.258,1.119-3.47,1.714-3.638,1.788c-1.84,0.815-3.669,1.411-5.488,1.788c-0.763,0.292-1.171,0.564-1.223,0.815
						c-0.052,0.262,0.355,0.35,1.223,0.267c0.596-0.062,1.944-0.193,4.045-0.392c2.018-0.24,3.59-0.59,4.719-1.05
						c1.296-0.512,2.838-1.411,4.625-2.697c1.704-1.223,3.026-2.352,3.967-3.387c1.505-1.652,2.676-3.209,3.512-4.672
						c1.233-2.174,1.192-3.418-0.125-3.732c-0.261-0.617-0.826-0.972-1.693-1.066C113.316,111.398,112.569,111.576,111.921,112.036z
						"/>
					
						<path fill="none" stroke="#000000" stroke-width="1.5" stroke-linecap="round" stroke-linejoin="round" stroke-miterlimit="3" d="
						M161.985,79.172c1.683,0.24,3.094,0.334,4.233,0.282c1.327-0.042,2.498-0.277,3.512-0.706c0.46-0.188,1.066-0.69,1.819-1.505
						c0.46-0.492,1.228-1.354,2.305-2.587c2.269-2.498,4.374-4.113,6.318-4.845"/>
					<path fill="#FFFFFF" stroke="#000000" stroke-miterlimit="10" d="M38.119,117.226c0.868,0.084,2.545,0.633,5.033,1.646
						c2.258,0.92,4.186,1.803,5.786,2.65c1.212,0.648,1.928,1.693,2.148,3.136c0.125,0.784,0.125,1.824,0,3.12
						c0,0.721-0.256,1.417-0.768,2.085c-0.492,0.638-0.951,0.957-1.38,0.957c-0.313,0-1.134-0.282-2.462-0.847
						c-1.589-0.669-2.409-1.014-2.461-1.035c-0.774-0.261-1.73-0.501-2.87-0.721c-1.662-0.324-2.911-0.407-3.747-0.25
						c-0.701-0.7-0.983-2.436-0.847-5.206C36.687,119.938,37.209,118.093,38.119,117.226z"/>
					
						<path fill="none" stroke="#000000" stroke-width="1.5" stroke-linecap="round" stroke-linejoin="round" stroke-miterlimit="3" d="
						M38.119,117.226c-0.91,0.868-1.432,2.713-1.568,5.535c-0.136,2.77,0.146,4.505,0.847,5.206c0.836-0.157,2.085-0.073,3.747,0.25
						c1.14,0.22,2.096,0.46,2.87,0.721c0.052,0.021,0.873,0.366,2.461,1.035c1.328,0.564,2.148,0.847,2.462,0.847
						c0.429,0,0.888-0.319,1.38-0.957c0.512-0.669,0.768-1.364,0.768-2.085c0.125-1.296,0.125-2.336,0-3.12
						c-0.22-1.442-0.936-2.488-2.148-3.136c-1.6-0.847-3.528-1.73-5.786-2.65C40.664,117.858,38.986,117.31,38.119,117.226z"/>
					<path fill="#FFFFFF" stroke="#000000" stroke-miterlimit="10" d="M54.535,122.808c-0.178-0.701-0.042-1.333,0.408-1.897
						c0.313-0.408,0.711-0.711,1.192-0.91l1.537,0.91c1.139,0.71,2.017,1.343,2.634,1.897c1.14,1.045,2.53,2.55,4.171,4.516
						c2.122,2.54,3.413,4.484,3.873,5.833c0.523,1.474,0.695,3.162,0.518,5.064c-0.167,1.745-0.606,3.501-1.317,5.268
						c0.178-0.741,0.146-1.85-0.094-3.324c-0.334-1.683-0.57-2.858-0.706-3.527c-0.188-0.909-0.878-2.295-2.07-4.155
						c-1.045-1.62-1.97-2.875-2.775-3.763c-0.596-0.659-1.792-1.693-3.59-3.104C56.788,124.412,55.528,123.477,54.535,122.808z"/>
					
						<path fill="none" stroke="#000000" stroke-width="1.5" stroke-linecap="round" stroke-linejoin="round" stroke-miterlimit="3" d="
						M54.535,122.808c0.993,0.669,2.253,1.604,3.779,2.807c1.798,1.411,2.995,2.446,3.59,3.104c0.805,0.888,1.73,2.143,2.775,3.763
						c1.192,1.86,1.881,3.246,2.07,4.155c0.136,0.669,0.371,1.845,0.706,3.527c0.24,1.475,0.272,2.583,0.094,3.324
						c0.711-1.767,1.15-3.522,1.317-5.268c0.178-1.902,0.005-3.591-0.518-5.064c-0.46-1.349-1.751-3.293-3.873-5.833
						c-1.641-1.965-3.031-3.47-4.171-4.516c-0.617-0.554-1.495-1.187-2.634-1.897L56.133,120c-0.481,0.199-0.878,0.501-1.192,0.91
						C54.493,121.475,54.357,122.107,54.535,122.808z"/>
					<path fill="#FFFFFF" stroke="#000000" stroke-miterlimit="10" d="M37.491,116.771c0.648-1.076,1.61-2.08,2.885-3.01
						c1.338-0.972,2.373-1.37,3.104-1.192c0.721,0.167,2.404,0.774,5.049,1.819c2.571,1.014,4.17,1.688,4.798,2.023
						c0.941,0.512,1.813,1.076,2.618,1.693c1.171,0.899,1.756,1.62,1.756,2.164c0,0.596-0.298,1.265-0.894,2.007
						c-0.543,0.68-1.197,1.26-1.96,1.741c-0.648,0.407-1.521,0.533-2.618,0.376c-0.951-0.136-1.573-0.35-1.866-0.643
						c-0.492-0.491-1.082-1.045-1.772-1.662c-1.035-0.93-1.782-1.51-2.242-1.74c-0.335-0.167-1.14-0.476-2.415-0.925
						c-1.212-0.439-1.991-0.752-2.336-0.94c-0.313-0.178-1.045-0.476-2.195-0.894C38.349,117.2,37.711,116.928,37.491,116.771z"/>
					
						<path fill="none" stroke="#000000" stroke-width="1.5" stroke-linecap="round" stroke-linejoin="round" stroke-miterlimit="3" d="
						M37.491,116.771c0.22,0.157,0.857,0.429,1.913,0.815c1.15,0.418,1.881,0.716,2.195,0.894c0.345,0.188,1.124,0.501,2.336,0.94
						c1.275,0.45,2.08,0.758,2.415,0.925c0.459,0.23,1.207,0.81,2.242,1.74c0.69,0.617,1.28,1.17,1.772,1.662
						c0.292,0.293,0.915,0.507,1.866,0.643c1.098,0.157,1.97,0.031,2.618-0.376c0.763-0.481,1.417-1.061,1.96-1.741
						c0.596-0.742,0.894-1.411,0.894-2.007c0-0.543-0.585-1.265-1.756-2.164c-0.805-0.617-1.677-1.181-2.618-1.693
						c-0.627-0.335-2.227-1.009-4.798-2.023c-2.645-1.045-4.328-1.651-5.049-1.819c-0.732-0.178-1.767,0.22-3.104,1.192
						C39.101,114.691,38.139,115.695,37.491,116.771z"/>
					<path stroke="#000000" stroke-miterlimit="10" d="M74.698,119.546c0.282,0.031,1.432-0.11,3.45-0.423
						c1.63-0.251,2.691-0.167,3.183,0.251c0.69,0.585,1.772,1.15,3.246,1.693c1.641,0.606,3.303,0.993,4.986,1.16
						c1.254,0.125,2.89-0.152,4.908-0.831c1.798-0.617,2.963-0.815,3.496-0.596c1.735,0.7,1.625,2.169-0.329,4.406
						c-1.537,1.756-3.397,3.272-5.582,4.547c-1.39,0.815-3.277,1.379-5.66,1.694c-2.038,0.271-3.789,0.303-5.252,0.094
						c-1.275-0.188-3.209-1.014-5.801-2.478c-2.666-1.516-4.788-3.016-6.366-4.5c1.965,1.474,4.166,2.597,6.601,3.371
						c1.965,0.627,3.941,0.993,5.927,1.097c1.463,0.073,2.838-0.026,4.124-0.298l3.575-0.957c2.3-0.617,4.385-1.871,6.256-3.763
						c-1.892,0.794-4.463,1.082-7.714,0.862c-2.666-0.188-4.568-0.533-5.708-1.035c-0.972-0.439-2.216-1.087-3.731-1.944
						C76.559,120.895,75.357,120.111,74.698,119.546z"/>
					
						<path fill="none" stroke="#000000" stroke-width="1.5" stroke-linecap="round" stroke-linejoin="round" stroke-miterlimit="3" d="
						M74.698,119.546c0.659,0.564,1.861,1.348,3.606,2.352c1.516,0.857,2.76,1.505,3.731,1.944c1.14,0.502,3.042,0.847,5.708,1.035
						c3.251,0.219,5.822-0.068,7.714-0.862c-1.871,1.892-3.956,3.146-6.256,3.763l-3.575,0.957c-1.286,0.271-2.66,0.371-4.124,0.298
						c-1.986-0.104-3.962-0.47-5.927-1.097c-2.435-0.774-4.636-1.897-6.601-3.371c1.578,1.484,3.7,2.984,6.366,4.5
						c2.592,1.464,4.526,2.289,5.801,2.478c1.463,0.209,3.214,0.178,5.252-0.094c2.383-0.314,4.27-0.878,5.66-1.694
						c2.185-1.275,4.045-2.791,5.582-4.547c1.955-2.237,2.064-3.706,0.329-4.406c-0.533-0.22-1.698-0.021-3.496,0.596
						c-2.018,0.679-3.653,0.956-4.908,0.831c-1.683-0.167-3.345-0.554-4.986-1.16c-1.474-0.543-2.556-1.108-3.246-1.693
						c-0.491-0.418-1.552-0.502-3.183-0.251C76.13,119.437,74.98,119.578,74.698,119.546z"/>
					<path fill="#FFFFFF" stroke="#000000" stroke-miterlimit="10" d="M60.838,117.038c0.376,0.104,1.343,0.721,2.901,1.85
						c2.237,1.61,3.371,2.425,3.402,2.446c1.056,0.711,2.226,1.84,3.512,3.387c1.63,1.965,2.833,3.967,3.606,6.005
						c1.411,3.711,0.962,7.427-1.348,11.148c0.251-0.732,0.298-1.991,0.141-3.779c-0.136-1.505-0.361-2.932-0.674-4.28
						c-0.23-0.962-0.883-2.278-1.96-3.951c-0.021-0.042-0.841-1.228-2.461-3.559c-0.564-0.815-1.809-1.887-3.732-3.214
						c-1.746-1.213-3.324-2.153-4.735-2.822c-0.22-1.108-0.277-1.813-0.173-2.117C59.453,117.722,59.96,117.351,60.838,117.038z"/>
					
						<path fill="none" stroke="#000000" stroke-width="1.5" stroke-linecap="round" stroke-linejoin="round" stroke-miterlimit="3" d="
						M60.838,117.038c-0.878,0.313-1.385,0.685-1.521,1.113c-0.104,0.303-0.047,1.009,0.173,2.117
						c1.411,0.669,2.989,1.609,4.735,2.822c1.923,1.328,3.167,2.399,3.732,3.214c1.62,2.331,2.44,3.518,2.461,3.559
						c1.077,1.673,1.73,2.989,1.96,3.951c0.313,1.349,0.538,2.775,0.674,4.28c0.157,1.788,0.11,3.047-0.141,3.779
						c2.31-3.722,2.759-7.438,1.348-11.148c-0.773-2.038-1.976-4.04-3.606-6.005c-1.286-1.547-2.457-2.676-3.512-3.387
						c-0.032-0.021-1.166-0.836-3.402-2.446C62.181,117.759,61.214,117.142,60.838,117.038z"/>
					<path fill="#FFFFFF" stroke="#000000" stroke-miterlimit="10" d="M61.324,116.175c0.627,0.868,1.061,1.396,1.302,1.583
						c0.564,0.439,0.721,0.946,0.47,1.521c-0.167,0.387-0.59,0.894-1.27,1.521c-0.46,0.429-1.066,0.622-1.819,0.58
						c-0.376-0.021-0.873-0.125-1.49-0.313c-0.271-0.073-0.727-0.408-1.364-1.003c-0.261-0.241-0.732-0.711-1.411-1.412
						c-0.334-0.334-1.239-0.862-2.712-1.583c-1.38-0.659-2.446-1.114-3.199-1.364c-0.742-0.669-1.176-1.516-1.301-2.54
						c-0.094-0.794-0.016-1.443,0.235-1.945c0.157-0.313,0.978-0.564,2.462-0.752c1.212-0.157,2.436-0.23,3.669-0.219
						c1.233,0.01,2.744,1.139,4.531,3.387C59.74,114.032,60.373,114.879,61.324,116.175z"/>
					
						<path fill="none" stroke="#000000" stroke-width="1.5" stroke-linecap="round" stroke-linejoin="round" stroke-miterlimit="3" d="
						M61.324,116.175c-0.951-1.296-1.583-2.143-1.897-2.54c-1.787-2.248-3.298-3.376-4.531-3.387
						c-1.233-0.011-2.457,0.062-3.669,0.219c-1.484,0.188-2.305,0.439-2.462,0.752c-0.25,0.502-0.329,1.15-0.235,1.945
						c0.125,1.024,0.559,1.871,1.301,2.54c0.752,0.25,1.819,0.706,3.199,1.364c1.474,0.721,2.378,1.249,2.712,1.583
						c0.679,0.701,1.15,1.171,1.411,1.412c0.637,0.596,1.092,0.93,1.364,1.003c0.617,0.188,1.113,0.292,1.49,0.313
						c0.752,0.042,1.359-0.151,1.819-0.58c0.68-0.627,1.103-1.134,1.27-1.521c0.251-0.575,0.094-1.082-0.47-1.521
						C62.385,117.571,61.951,117.043,61.324,116.175z"/>
					
						<path fill="none" stroke="#000000" stroke-width="1.5" stroke-linecap="round" stroke-linejoin="round" stroke-miterlimit="3" d="
						M158.457,73.386c0.722-0.157,1.955-0.204,3.7-0.141c1.526,0.052,2.677-0.083,3.45-0.408c0.554-0.23,4.296-2.064,11.226-5.503
						c7.004-3.46,11.373-5.561,13.108-6.303"/>
					<path fill="#FFFFFF" stroke="#000000" stroke-miterlimit="10" d="M61.246,115.83c0.178-0.658,0.559-0.998,1.145-1.019
						c0.366-0.01,1.056,0.152,2.07,0.486c0.397,0.46,1.249,0.852,2.556,1.176c0.303,0.073,1.286,0.261,2.948,0.564
						c0.878,0.157,2.493,0.293,4.845,0.408c2.634,0.125,4.688,0.125,6.162,0c1.296-0.104,3.533-0.094,6.71,0.031
						c1.631,0.073,3.465,0.152,5.503,0.235c0.544,0,1.161-0.037,1.851-0.11c0.48,0.01,0.894,0.272,1.239,0.784
						c0.731,0.063,1.322,0.549,1.771,1.458c0.408,0.826,0.533,1.547,0.376,2.164c-0.115,0.471-0.993,1.704-2.634,3.701
						c-1.212,1.474-2.394,2.837-3.543,4.092c-0.293,0.313-1.646,1.929-4.061,4.845c-2.227,2.687-3.779,4.469-4.657,5.347
						c-0.972,0.564-2.791,1.307-5.457,2.227c-2.749,0.94-4.871,1.542-6.366,1.803c-1.934,0.335-3.826,0.502-5.676,0.502
						c-2.404,0-4.27-0.303-5.598-0.909c1.829,0,4.871-0.136,9.125-0.408c1.829-0.104,4.176-0.721,7.04-1.85
						c1.484-0.575,3.12-1.255,4.908-2.038c0.679-0.22,1.787-1.202,3.324-2.948c0.857-0.962,2.033-2.347,3.528-4.155
						c0.93-1.056,2.2-2.702,3.81-4.938c1.589-2.195,2.556-3.638,2.901-4.328c0.523-1.077,0.523-2.059,0-2.948
						c-0.836,0.659-3.632,0.925-8.389,0.8c-5.278-0.272-8.613-0.408-10.003-0.408c-4.223,0-7.265-0.402-9.125-1.207
						c-1.954-0.826-3.156-1.349-3.606-1.568C62.427,116.886,61.528,116.29,61.246,115.83z"/>
					
						<path fill="none" stroke="#000000" stroke-width="1.5" stroke-linecap="round" stroke-linejoin="round" stroke-miterlimit="3" d="
						M61.246,115.83c0.282,0.46,1.181,1.056,2.697,1.788c0.45,0.22,1.652,0.742,3.606,1.568c1.861,0.805,4.903,1.207,9.125,1.207
						c1.391,0,4.725,0.136,10.003,0.408c4.756,0.125,7.552-0.141,8.389-0.8c0.523,0.889,0.523,1.871,0,2.948
						c-0.345,0.69-1.312,2.132-2.901,4.328c-1.61,2.237-2.88,3.883-3.81,4.938c-1.495,1.809-2.67,3.193-3.528,4.155
						c-1.537,1.746-2.645,2.729-3.324,2.948c-1.788,0.783-3.423,1.463-4.908,2.038c-2.864,1.129-5.211,1.745-7.04,1.85
						c-4.254,0.272-7.296,0.408-9.125,0.408c1.328,0.606,3.193,0.909,5.598,0.909c1.85,0,3.742-0.167,5.676-0.502
						c1.495-0.261,3.617-0.862,6.366-1.803c2.666-0.92,4.484-1.662,5.457-2.227c0.878-0.878,2.43-2.66,4.657-5.347
						c2.415-2.916,3.768-4.531,4.061-4.845c1.15-1.255,2.331-2.619,3.543-4.092c1.641-1.997,2.519-3.23,2.634-3.701
						c0.157-0.617,0.031-1.338-0.376-2.164c-0.45-0.909-1.04-1.396-1.771-1.458c-0.345-0.512-0.758-0.773-1.239-0.784
						c-0.69,0.073-1.307,0.11-1.851,0.11c-2.038-0.083-3.873-0.162-5.503-0.235c-3.177-0.125-5.415-0.136-6.71-0.031
						c-1.474,0.125-3.528,0.125-6.162,0c-2.352-0.115-3.967-0.251-4.845-0.408c-1.662-0.303-2.645-0.491-2.948-0.564
						c-1.307-0.324-2.159-0.716-2.556-1.176c-1.014-0.334-1.704-0.497-2.07-0.486C61.805,114.832,61.423,115.172,61.246,115.83z"/>
					<path stroke="#000000" stroke-miterlimit="10" d="M106.339,102.456c-1.432,1.652-2.373,2.64-2.822,2.963
						c-0.522,0.376-1.631,0.936-3.324,1.678l-2.399,1.004c-0.313,0.042-1.307,0.078-2.979,0.109
						c-1.37,0.031-2.227,0.115-2.571,0.251c0.961-0.658,2.78-1.892,5.457-3.7c2.331-1.6,3.794-2.697,4.39-3.292
						c0.972-0.972,2.326-1.986,4.061-3.042c2.101-1.275,3.549-1.751,4.343-1.427s1.166,0.889,1.113,1.693
						c-0.021,0.387-0.271,1.312-0.752,2.775c-0.481,1.432-1.672,4.834-3.575,10.207c-0.669,0.376-1.348,0.664-2.038,0.862
						l-0.831,0.204c1.317-2.499,2.153-4.108,2.509-4.83c0.355-0.71,1.369-3.873,3.042-9.486
						C109.282,99.105,108.075,100.449,106.339,102.456z"/>
					
						<path fill="none" stroke="#000000" stroke-width="1.5" stroke-linecap="round" stroke-linejoin="round" stroke-miterlimit="3" d="
						M106.339,102.456c-1.432,1.652-2.373,2.64-2.822,2.963c-0.522,0.376-1.631,0.936-3.324,1.678l-2.399,1.004
						c-0.313,0.042-1.307,0.078-2.979,0.109c-1.37,0.031-2.227,0.115-2.571,0.251c0.961-0.658,2.78-1.892,5.457-3.7
						c2.331-1.6,3.794-2.697,4.39-3.292c0.972-0.972,2.326-1.986,4.061-3.042c2.101-1.275,3.549-1.751,4.343-1.427
						s1.166,0.889,1.113,1.693c-0.021,0.387-0.271,1.312-0.752,2.775c-0.481,1.432-1.672,4.834-3.575,10.207
						c-0.669,0.376-1.348,0.664-2.038,0.862l-0.831,0.204c1.317-2.499,2.153-4.108,2.509-4.83c0.355-0.71,1.369-3.873,3.042-9.486
						C109.282,99.105,108.075,100.449,106.339,102.456z"/>
					<g>
						<path stroke="#000000" stroke-miterlimit="10" d="M126.236,101.656c0.847,0,2.446-0.104,4.798-0.313
							c2.185-0.188,4.045-0.382,5.582-0.58c2.059-0.262,5.064-0.241,9.016,0.062c4.787,0.366,7.929,1.061,9.423,2.085
							c-2.582-1.536-6.878-1.954-12.888-1.254c-0.617,0.062-2.457,0.329-5.52,0.799c-3.293,0.502-5.091,0.774-5.394,0.816
							c-0.669,0.083-2.091,0.099-4.265,0.047c-1.986-0.052-3.726-0.131-5.221-0.235c-1.14-0.073-2.493,0.11-4.062,0.549
							c-0.094,0.021-1.186,0.376-3.277,1.066c-0.669,0.22-1.62,0.246-2.854,0.079c-1.369-0.23-2.326-0.376-2.87-0.439l1.066-1.615
							l2.807-0.126c1.934-0.125,3.089-0.261,3.465-0.407c0.387-0.157,1.976-0.293,4.767-0.408
							C123.006,101.698,124.814,101.656,126.236,101.656z"/>
						
							<path fill="none" stroke="#000000" stroke-width="1.5" stroke-linecap="round" stroke-linejoin="round" stroke-miterlimit="3" d="
							M126.236,101.656c-1.422,0-3.23,0.042-5.425,0.125c-2.791,0.115-4.38,0.251-4.767,0.408c-0.376,0.146-1.532,0.282-3.465,0.407
							l-2.807,0.126l-1.066,1.615c0.544,0.062,1.5,0.209,2.87,0.439c1.233,0.167,2.185,0.141,2.854-0.079
							c2.091-0.69,3.183-1.045,3.277-1.066c1.568-0.439,2.922-0.622,4.062-0.549c1.495,0.104,3.235,0.183,5.221,0.235
							c2.174,0.052,3.596,0.037,4.265-0.047c0.303-0.042,2.101-0.313,5.394-0.816c3.062-0.47,4.902-0.737,5.52-0.799
							c6.01-0.7,10.306-0.282,12.888,1.254c-1.494-1.024-4.636-1.719-9.423-2.085c-3.951-0.303-6.957-0.324-9.016-0.062
							c-1.537,0.198-3.397,0.392-5.582,0.58C128.683,101.552,127.083,101.656,126.236,101.656z"/>
						
							<path fill="none" stroke="#000000" stroke-width="1.5" stroke-linecap="round" stroke-linejoin="round" stroke-miterlimit="3" d="
							M155.055,102.91c2.028,1.161,4.6,2.734,7.715,4.72c3.334,2.122,5.592,3.648,6.772,4.579c1.746,1.38,4.161,3.005,7.244,4.876
							c3.815,2.32,6.591,3.679,8.326,4.076c0.658,0.146,1.876,0.46,3.653,0.941c1.756,0.418,3.318,0.679,4.688,0.784
							c4.066,0.292,7.433-0.701,10.098-2.979c3.062-2.624,5.896-5.54,8.498-8.749c2.509-3.094,4.265-5.786,5.269-8.075
							c1.62-3.899,2.953-7.035,3.998-9.408c1.924-4.369,3.518-7.374,4.782-9.016c0.513-0.658,1.464-1.934,2.854-3.826
							c1.453-1.704,3.042-2.932,4.767-3.685c4.997-2.195,11.702-0.768,20.117,4.281"/>
					</g>
					<g>
						<g>
							<path fill="#FFFFFF" stroke="#000000" stroke-miterlimit="10" d="M44.547,176.164c1.223-1.034,2.388-1.354,3.496-0.956
								c1.275,0.46,3.125,1.354,5.55,2.681c2.467,1.359,4.495,2.608,6.084,3.748c1.077,0.783,5.116,3.716,12.12,8.796
								c6.648,4.902,10.421,7.876,11.32,8.921c0.721,0.837,1.991,2.106,3.81,3.811c1.421,1.422,2.059,2.42,1.913,2.995
								c-0.136,0.543-0.533,0.878-1.192,1.003c-0.93,0.199-1.547,0.402-1.85,0.612c-0.585,0.417-1.338,0.736-2.258,0.956
								c-0.794,0.198-1.594,0.298-2.399,0.298c-0.366,0-2.54-1.349-6.522-4.045c-4.077-2.76-8.425-5.833-13.045-9.22
								c-12.408-9.104-18.888-14.645-19.442-16.62C42.896,177.879,43.7,176.886,44.547,176.164z"/>
							
								<path fill="none" stroke="#000000" stroke-width="1.5" stroke-linecap="round" stroke-linejoin="round" stroke-miterlimit="3" d="
								M44.547,176.164c1.223-1.034,2.388-1.354,3.496-0.956c1.275,0.46,3.125,1.354,5.55,2.681
								c2.467,1.359,4.495,2.608,6.084,3.748c1.077,0.783,5.116,3.716,12.12,8.796c6.648,4.902,10.421,7.876,11.32,8.921
								c0.721,0.837,1.991,2.106,3.81,3.811c1.421,1.422,2.059,2.42,1.913,2.995c-0.136,0.543-0.533,0.878-1.192,1.003
								c-0.93,0.199-1.547,0.402-1.85,0.612c-0.585,0.417-1.338,0.736-2.258,0.956c-0.794,0.198-1.594,0.298-2.399,0.298
								c-0.366,0-2.54-1.349-6.522-4.045c-4.077-2.76-8.425-5.833-13.045-9.22c-12.408-9.104-18.888-14.645-19.442-16.62
								C42.896,177.879,43.7,176.886,44.547,176.164z"/>
							<path fill="#FFFFFF" stroke="#000000" stroke-miterlimit="10" d="M76.313,205.266c1.39,0.396,2.942,1.113,4.657,2.147
								c1.223,0.731,2.357,1.725,3.402,2.979c1.265,1.516,1.5,2.55,0.706,3.104c-0.763,0.533-1.902,0.533-3.418,0
								c-1.714-0.773-2.9-1.312-3.559-1.615c-0.773-0.355-1.845-1.191-3.214-2.509c-1.913-1.829-2.99-2.843-3.23-3.042
								C72.43,204.951,73.982,204.597,76.313,205.266z"/>
							
								<path fill="none" stroke="#000000" stroke-width="1.5" stroke-linecap="round" stroke-linejoin="round" stroke-miterlimit="3" d="
								M76.313,205.266c-2.331-0.669-3.883-0.314-4.657,1.065c0.24,0.199,1.317,1.213,3.23,3.042
								c1.369,1.317,2.441,2.153,3.214,2.509c0.658,0.303,1.845,0.842,3.559,1.615c1.516,0.533,2.655,0.533,3.418,0
								c0.794-0.555,0.56-1.589-0.706-3.104c-1.045-1.255-2.179-2.248-3.402-2.979C79.256,206.379,77.704,205.662,76.313,205.266z"
								/>
							<g>
								<path fill="#FFFFFF" stroke="#000000" stroke-miterlimit="10" d="M46.256,178.955c0.355,0.418,0.936,1.171,1.741,2.258
									c0.752,0.951,1.421,1.573,2.007,1.866c0.878,0.429,3.026,1.762,6.444,3.998c3.679,2.404,6.005,4.051,6.978,4.939
									c1.066,0.982,3.438,2.885,7.118,5.707c3.669,2.812,5.953,4.489,6.852,5.033c1.181,0.721,1.934,1.259,2.258,1.614
									c0.554,0.638,0.632,1.354,0.235,2.148c-0.334,0.669-1.019,0.956-2.054,0.862c-1.14-0.094-1.824-0.026-2.054,0.204
									c-0.596,0.596-1.349,1.009-2.258,1.238c-1.202,0.293-2.357,0.12-3.465-0.518c-1.85-1.045-3.742-2.179-5.676-3.402
									c-2.624-1.631-4.254-2.765-4.892-3.402c-1.589-1.589-3.581-3.518-5.974-5.785c-3.408-3.241-5.53-5.128-6.366-5.66
									c-1.892-1.202-3.632-2.719-5.221-4.548c-2.237-2.581-2.587-4.405-1.051-5.472c0.878-0.658,1.819-1.129,2.822-1.411
									C44.913,178.281,45.765,178.391,46.256,178.955z"/>
								
									<path fill="none" stroke="#000000" stroke-width="1.5" stroke-linecap="round" stroke-linejoin="round" stroke-miterlimit="3" d="
									M46.256,178.955c0.355,0.418,0.936,1.171,1.741,2.258c0.752,0.951,1.421,1.573,2.007,1.866
									c0.878,0.429,3.026,1.762,6.444,3.998c3.679,2.404,6.005,4.051,6.978,4.939c1.066,0.982,3.438,2.885,7.118,5.707
									c3.669,2.812,5.953,4.489,6.852,5.033c1.181,0.721,1.934,1.259,2.258,1.614c0.554,0.638,0.632,1.354,0.235,2.148
									c-0.334,0.669-1.019,0.956-2.054,0.862c-1.14-0.094-1.824-0.026-2.054,0.204c-0.596,0.596-1.349,1.009-2.258,1.238
									c-1.202,0.293-2.357,0.12-3.465-0.518c-1.85-1.045-3.742-2.179-5.676-3.402c-2.624-1.631-4.254-2.765-4.892-3.402
									c-1.589-1.589-3.581-3.518-5.974-5.785c-3.408-3.241-5.53-5.128-6.366-5.66c-1.892-1.202-3.632-2.719-5.221-4.548
									c-2.237-2.581-2.587-4.405-1.051-5.472c0.878-0.658,1.819-1.129,2.822-1.411C44.913,178.281,45.765,178.391,46.256,178.955z
									"/>
								
									<path fill="none" stroke="#000000" stroke-width="1.5" stroke-linecap="round" stroke-linejoin="round" stroke-miterlimit="3" d="
									M46.961,185.039c1.579,1.578,3.91,3.309,6.994,5.189c2.101,1.296,3.376,2.096,3.825,2.399
									c1.484,1.014,2.535,1.944,3.152,2.79c0.742,1.035,1.719,2.097,2.932,3.184c1.275,1.149,2.383,1.938,3.324,2.367
									c0.669,0.304,1.861,0.653,3.575,1.051c1.621,0.376,2.634,0.68,3.042,0.909"/>
							</g>
							<path fill="#FFFFFF" stroke="#000000" stroke-miterlimit="10" d="M38.024,177.168c1.233-0.982,2.436-1.286,3.606-0.909
								c1.024,0.334,1.787,1.056,2.289,2.163c0.899,1.976,3.355,5.938,7.369,11.885c5.352,7.924,10.714,14.88,16.087,20.869
								c-2.676-1.338-8.457-5.717-17.341-13.139c-8.551-7.14-13.568-11.65-15.052-13.531c-1.16-1.464-1.239-2.911-0.235-4.344
								C35.155,179.577,36.248,178.579,38.024,177.168z"/>
							
								<path fill="none" stroke="#000000" stroke-width="1.5" stroke-linecap="round" stroke-linejoin="round" stroke-miterlimit="3" d="
								M38.024,177.168c-1.777,1.411-2.869,2.409-3.277,2.994c-1.003,1.433-0.925,2.88,0.235,4.344
								c1.484,1.881,6.501,6.392,15.052,13.531c8.885,7.422,14.665,11.801,17.341,13.139c-5.373-5.989-10.735-12.945-16.087-20.869
								c-4.014-5.947-6.47-9.909-7.369-11.885c-0.502-1.107-1.265-1.829-2.289-2.163C40.46,175.882,39.258,176.186,38.024,177.168z"
								/>
						</g>
						<path fill="#FFFFFF" stroke="#000000" stroke-miterlimit="10" d="M35.892,146.781c2.342-0.136,4.38,0.167,6.115,0.909
							c1.902,0.815,3.198,2.055,3.888,3.716c1.265,3.063,1.923,6.915,1.976,11.556c0.042,3.429-0.199,6.435-0.721,9.016
							c-0.366,1.809-1.145,3.606-2.336,5.394c-1.202,1.819-2.514,3.126-3.936,3.92c-0.826-0.605-1.479-1.145-1.959-1.614
							c-0.304,0.606-1.004,1.484-2.101,2.634c-0.032,0.031-1.004,1.004-2.917,2.916c-1.045-1.076-2.132-2.268-3.261-3.574
							c-2.269-2.635-3.627-4.547-4.077-5.739c-1.192-2.77-2.18-5.085-2.963-6.945c-1.495-3.544-2.352-6-2.571-7.369
							c-0.241-1.495,0.031-3.173,0.815-5.033c0.46-1.077,1.317-2.619,2.572-4.626c1.181-1.484,2.848-2.696,5.001-3.638
							C31.465,147.414,33.624,146.907,35.892,146.781z"/>
						
							<path fill="none" stroke="#000000" stroke-width="1.5" stroke-linecap="round" stroke-linejoin="round" stroke-miterlimit="3" d="
							M35.892,146.781c-2.268,0.126-4.427,0.633-6.476,1.521c-2.153,0.941-3.82,2.153-5.001,3.638
							c-1.254,2.007-2.112,3.549-2.572,4.626c-0.784,1.86-1.056,3.538-0.815,5.033c0.219,1.369,1.077,3.825,2.571,7.369
							c0.784,1.86,1.771,4.176,2.963,6.945c0.449,1.192,1.808,3.104,4.077,5.739c1.129,1.307,2.216,2.498,3.261,3.574
							c1.913-1.912,2.885-2.885,2.917-2.916c1.097-1.149,1.797-2.027,2.101-2.634c0.48,0.47,1.134,1.009,1.959,1.614
							c1.422-0.794,2.734-2.101,3.936-3.92c1.192-1.787,1.971-3.585,2.336-5.394c0.522-2.581,0.763-5.587,0.721-9.016
							c-0.052-4.641-0.711-8.492-1.976-11.556c-0.69-1.661-1.986-2.9-3.888-3.716C40.272,146.948,38.234,146.646,35.892,146.781z"/>
						<path fill="#FFFFFF" stroke="#000000" stroke-miterlimit="10" d="M40.251,135.272c-0.042,0.596-0.188,1.02-0.439,1.271
							c0.575,2.122,0.518,3.616-0.172,4.484c-1.986-1.046-5.29-2.023-9.909-2.933c-4.788-0.951-7.871-1.171-9.251-0.658
							c3.366-3.638,6.282-6.251,8.749-7.84c2.843-1.819,5.535-2.603,8.075-2.352c1.756,1.014,2.712,2.681,2.869,5.001
							C40.267,133.762,40.293,134.771,40.251,135.272z"/>
						
							<path fill="none" stroke="#000000" stroke-width="1.5" stroke-linecap="round" stroke-linejoin="round" stroke-miterlimit="3" d="
							M40.251,135.272c-0.042,0.596-0.188,1.02-0.439,1.271c0.575,2.122,0.518,3.616-0.172,4.484
							c-1.986-1.046-5.29-2.023-9.909-2.933c-4.788-0.951-7.871-1.171-9.251-0.658c3.366-3.638,6.282-6.251,8.749-7.84
							c2.843-1.819,5.535-2.603,8.075-2.352c1.756,1.014,2.712,2.681,2.869,5.001C40.267,133.762,40.293,134.771,40.251,135.272z"/>
						<path fill="#FFFFFF" stroke="#000000" stroke-miterlimit="10" d="M36.049,138.158c1.098,0.24,1.772,0.418,2.022,0.532
							c0.606,0.282,1.187,0.821,1.741,1.615c0.596,0.073,1.699,0.753,3.308,2.038c0.805,0.638,1.552,1.271,2.242,1.897l-1.442,0.36
							l0.784,1.521c0.575,1.494,0.972,3.434,1.191,5.816c-1.359,2.153-3.068,2.906-5.127,2.258c-1.516-0.48-3.089-1.651-4.72-3.512
							c-1.39,1.244-2.472,1.698-3.246,1.364c-0.282-0.126-0.685-0.424-1.207-0.894c-0.711-0.638-1.254-1.093-1.631-1.364
							c0.073,1.17-1.124,2.974-3.591,5.409c-0.648,0.638-1.604,1.567-2.869,2.791c-0.993,1.003-1.641,1.787-1.944,2.352
							c-2.028-2.143-3.46-3.689-4.296-4.641c-0.575-0.669-1.364-2.76-2.368-6.272c-0.94-3.303-1.463-5.571-1.568-6.805
							c-0.083-0.951,0.01-1.688,0.282-2.21c0.167-0.314,0.491-0.648,0.972-1.004c0.136-0.104,0.334-0.397,0.596-0.878
							c0.439-0.815,0.706-1.296,0.8-1.442c0.826-1.37,1.73-2.206,2.712-2.509c1.39-0.439,2.843-0.345,4.359,0.282
							c0.826,0.345,1.881,0.847,3.167,1.505c0.731,0.22,1.489,0.209,2.273-0.031c0.449-0.126,1.118-0.355,2.007-0.689
							c0.543-0.137,1.448,0.193,2.712,0.987C34.706,137.557,35.652,138.063,36.049,138.158z"/>
						
							<path fill="none" stroke="#000000" stroke-width="1.5" stroke-linecap="round" stroke-linejoin="round" stroke-miterlimit="3" d="
							M36.049,138.158c-0.397-0.095-1.343-0.602-2.838-1.521c-1.265-0.794-2.169-1.124-2.712-0.987
							c-0.889,0.334-1.558,0.563-2.007,0.689c-0.784,0.24-1.542,0.251-2.273,0.031c-1.286-0.658-2.342-1.16-3.167-1.505
							c-1.516-0.627-2.969-0.722-4.359-0.282c-0.982,0.303-1.887,1.139-2.712,2.509c-0.094,0.146-0.361,0.627-0.8,1.442
							c-0.261,0.48-0.46,0.773-0.596,0.878c-0.481,0.355-0.805,0.689-0.972,1.004c-0.272,0.522-0.366,1.259-0.282,2.21
							c0.104,1.233,0.627,3.502,1.568,6.805c1.003,3.513,1.793,5.604,2.368,6.272c0.836,0.951,2.268,2.498,4.296,4.641
							c0.303-0.564,0.951-1.349,1.944-2.352c1.265-1.224,2.221-2.153,2.869-2.791c2.467-2.436,3.664-4.239,3.591-5.409
							c0.376,0.271,0.92,0.727,1.631,1.364c0.522,0.47,0.925,0.768,1.207,0.894c0.773,0.334,1.855-0.12,3.246-1.364
							c1.63,1.86,3.204,3.031,4.72,3.512c2.059,0.648,3.768-0.104,5.127-2.258c-0.22-2.383-0.617-4.322-1.191-5.816l-0.784-1.521
							l1.442-0.36c-0.69-0.627-1.437-1.26-2.242-1.897c-1.609-1.285-2.712-1.965-3.308-2.038c-0.554-0.794-1.134-1.333-1.741-1.615
							C37.821,138.576,37.146,138.398,36.049,138.158z"/>
						<path fill="#FFFFFF" stroke="#000000" stroke-miterlimit="10" d="M11.542,111.848c0.157,1.098,0.758,2.3,1.803,3.606
							c0.522,0.648,1.532,1.714,3.026,3.198c0.857,0.868,2.289,1.568,4.296,2.102c1.349,0.366,2.78,0.622,4.296,0.768
							c0.763,0.062,1.673,0.763,2.729,2.101c1.369,1.714,2.19,2.681,2.461,2.9c0.763,0.596,1.767,0.857,3.011,0.784
							c1.16-0.073,2.122-0.392,2.885-0.957c0.314-0.23,0.491-0.622,0.533-1.176c0.021-0.115,0.016-0.56-0.016-1.333
							c-0.011-0.429,0.063-0.648,0.219-0.658c0.209-0.021,0.622,0.256,1.239,0.831c1.181,1.108,1.746,2.106,1.693,2.995
							c-0.021,0.46-0.35,1.192-0.988,2.195c-0.449,0.732-1.421,1.302-2.917,1.709c-1.515,0.408-2.807,0.439-3.873,0.094
							c-0.669,0.909-2.169,1.897-4.5,2.964c-2.185,1.003-3.727,1.505-4.625,1.505c-0.073,0.585-0.559,1.118-1.458,1.6
							c-0.491,0.271-1.202,0.632-2.132,1.082c-1.129,0.763-1.819,1.201-2.07,1.316c-0.993,0.46-1.913,0.497-2.759,0.11
							c-0.941-0.429-1.615-1.166-2.023-2.211c-0.387-0.973-0.486-2.022-0.298-3.151c0.157-0.941,0.125-2.29-0.094-4.046
							c-0.146-1.233-0.355-2.451-0.627-3.653c-0.293-1.212-0.539-2.231-0.737-3.057c-0.355-1.526-0.643-2.953-0.862-4.28
							c-0.293-1.715-0.309-3.183-0.047-4.406C9.99,113.421,10.602,112.444,11.542,111.848z"/>
						
							<path fill="none" stroke="#000000" stroke-width="1.5" stroke-linecap="round" stroke-linejoin="round" stroke-miterlimit="3" d="
							M11.542,111.848c-0.94,0.596-1.552,1.573-1.834,2.932c-0.261,1.223-0.246,2.691,0.047,4.406
							c0.219,1.327,0.507,2.754,0.862,4.28c0.198,0.826,0.444,1.845,0.737,3.057c0.272,1.202,0.481,2.42,0.627,3.653
							c0.22,1.756,0.251,3.104,0.094,4.046c-0.188,1.129-0.089,2.179,0.298,3.151c0.408,1.045,1.082,1.782,2.023,2.211
							c0.846,0.387,1.766,0.35,2.759-0.11c0.251-0.115,0.941-0.554,2.07-1.316c0.93-0.45,1.641-0.811,2.132-1.082
							c0.899-0.481,1.385-1.015,1.458-1.6c0.899,0,2.441-0.502,4.625-1.505c2.331-1.066,3.831-2.055,4.5-2.964
							c1.066,0.345,2.357,0.313,3.873-0.094c1.495-0.407,2.467-0.977,2.917-1.709c0.638-1.003,0.967-1.735,0.988-2.195
							c0.052-0.889-0.512-1.887-1.693-2.995c-0.617-0.575-1.03-0.852-1.239-0.831c-0.156,0.01-0.23,0.229-0.219,0.658
							c0.031,0.773,0.037,1.218,0.016,1.333c-0.042,0.554-0.219,0.946-0.533,1.176c-0.763,0.564-1.725,0.883-2.885,0.957
							c-1.244,0.073-2.248-0.188-3.011-0.784c-0.271-0.219-1.092-1.186-2.461-2.9c-1.056-1.338-1.965-2.039-2.729-2.101
							c-1.516-0.146-2.947-0.402-4.296-0.768c-2.007-0.533-3.439-1.234-4.296-2.102c-1.495-1.484-2.504-2.55-3.026-3.198
							C12.3,114.147,11.699,112.945,11.542,111.848z"/>
						<g>
							<path fill="#FFFFFF" stroke="#000000" stroke-miterlimit="10" d="M37.664,83.405c0.899-0.501,1.756-0.831,2.571-0.987
								c0.982-0.188,1.976-0.157,2.979,0.094l-0.721,2.681c-0.251,0.941-0.862,2.796-1.834,5.566
								c-1.066,3.052-1.767,5.132-2.101,6.24c-0.45,1.505-0.345,3.773,0.313,6.805c0.366,1.641,0.92,3.727,1.662,6.256
								c0.293,1.213,0.664,2.064,1.113,2.556c0.272,0.292,0.732,0.695,1.38,1.208c0.157,1.003-0.215,1.74-1.113,2.21
								c-0.063,0.031-1.061,0.366-2.995,1.003c3.386,2.446,4.521,4.28,3.402,5.503c-0.418,0.46-1.119,0.773-2.101,0.941
								c-0.868,0.146-1.72,0.146-2.556,0c0.951,0.596,1.547,1.087,1.787,1.474c0.397,0.648,0.277,1.411-0.361,2.29
								c-0.637,0.878-1.74,1.369-3.308,1.474c-1.181,0.083-2.461-0.052-3.841-0.408c-0.836-0.209-1.97-1.124-3.402-2.744
								c-1.714-1.954-2.671-3.005-2.87-3.151c-0.407-0.313-2.069-0.836-4.986-1.568c-2.77-0.7-4.385-1.312-4.845-1.834
								c-2.927-3.324-4.657-5.53-5.19-6.617c0.282-2.038,0.957-4.066,2.022-6.083c1.212-2.028,2.028-3.522,2.446-4.484
								c0.69-1.558,1.855-3.429,3.497-5.613c1.798-2.383,3.496-4.207,5.096-5.472c1.39-1.098,3.94-2.545,7.651-4.343
								C33.263,85.48,35.364,84.482,37.664,83.405z"/>
							
								<path fill="none" stroke="#000000" stroke-width="1.5" stroke-linecap="round" stroke-linejoin="round" stroke-miterlimit="3" d="
								M37.664,83.405c-2.3,1.077-4.401,2.075-6.303,2.995c-3.711,1.798-6.261,3.246-7.651,4.343
								c-1.6,1.265-3.298,3.088-5.096,5.472c-1.641,2.185-2.807,4.056-3.497,5.613c-0.418,0.962-1.234,2.457-2.446,4.484
								c-1.066,2.018-1.74,4.045-2.022,6.083c0.533,1.087,2.263,3.293,5.19,6.617c0.46,0.522,2.075,1.134,4.845,1.834
								c2.917,0.732,4.579,1.254,4.986,1.568c0.199,0.146,1.155,1.197,2.87,3.151c1.432,1.621,2.566,2.535,3.402,2.744
								c1.38,0.355,2.66,0.491,3.841,0.408c1.568-0.104,2.671-0.596,3.308-1.474c0.638-0.878,0.758-1.642,0.361-2.29
								c-0.24-0.387-0.836-0.878-1.787-1.474c0.836,0.146,1.688,0.146,2.556,0c0.982-0.167,1.683-0.481,2.101-0.941
								c1.118-1.223-0.016-3.058-3.402-5.503c1.934-0.638,2.932-0.972,2.995-1.003c0.898-0.471,1.27-1.208,1.113-2.21
								c-0.648-0.513-1.108-0.915-1.38-1.208c-0.45-0.492-0.82-1.343-1.113-2.556c-0.742-2.529-1.296-4.615-1.662-6.256
								c-0.658-3.031-0.763-5.3-0.313-6.805c0.334-1.108,1.035-3.188,2.101-6.24c0.972-2.77,1.583-4.625,1.834-5.566l0.721-2.681
								c-1.003-0.251-1.997-0.282-2.979-0.094C39.42,82.574,38.563,82.904,37.664,83.405z"/>
							
								<path fill="none" stroke="#000000" stroke-width="1.5" stroke-linecap="round" stroke-linejoin="round" stroke-miterlimit="3" d="
								M37.664,123.482c-0.753-0.209-1.835-0.931-3.246-2.164c-2.362-2.069-3.898-3.376-4.609-3.919"/>
							
								<path fill="none" stroke="#000000" stroke-width="1.5" stroke-linecap="round" stroke-linejoin="round" stroke-miterlimit="3" d="
								M38.918,117.038c-2.101-0.92-3.695-1.651-4.782-2.195c-1.944-0.951-3.146-1.767-3.606-2.446
								c-0.491-0.742-1.26-2.436-2.305-5.08c-0.93-2.383-1.651-4.39-2.164-6.021c-0.397-1.275-0.585-2.775-0.564-4.5
								c0.021-1.421,0.146-2.425,0.376-3.01"/>
						</g>
						<path fill="#FFFFFF" stroke="#000000" stroke-miterlimit="10" d="M65.228,78.749c-0.407,1.275-1.521,2.754-3.339,4.438
							c-2.164,1.997-3.497,3.381-3.999,4.155c-0.805,1.233-1.181,2.859-1.129,4.876c0.031,1.108,0.11,2.645,0.235,4.61
							c-0.063,0.899-0.659,2.388-1.788,4.468c-1.139,2.091-1.74,3.581-1.803,4.469c-0.062,0.92,0.303,1.95,1.098,3.089
							c0.69,1.003,0.92,1.767,0.69,2.289c-0.292,0.68-0.93,1.103-1.913,1.27c-1.348,0.104-2.44,0.214-3.277,0.33
							c1.129,1.129,1.808,1.892,2.039,2.289c0.491,0.826,0.23,1.317-0.784,1.474c-1.254,0.199-2.838,0.037-4.751-0.486
							c-2.08-0.564-3.716-1.354-4.908-2.368c-1.024-0.878-1.756-2.645-2.195-5.3c-0.324-2.968-0.606-4.96-0.847-5.974
							c-0.355-1.526-0.491-2.984-0.408-4.375c0.094-1.38,0.408-2.608,0.94-3.685c0.418-0.826,1.004-2.608,1.756-5.347
							c0.847-3.094,1.338-4.829,1.474-5.206c0.334-0.94,0.748-1.61,1.238-2.007c0.418-0.345,1.019-0.575,1.803-0.69
							c2.906-0.429,5.446-0.993,7.62-1.693c1.119-0.355,2.273-0.742,3.465-1.16c0.909-0.199,2.148-0.267,3.716-0.204
							C61.961,78.085,63.65,78.331,65.228,78.749z"/>
						
							<path fill="none" stroke="#000000" stroke-width="1.5" stroke-linecap="round" stroke-linejoin="round" stroke-miterlimit="3" d="
							M65.228,78.749c-1.578-0.418-3.267-0.664-5.064-0.737c-1.568-0.062-2.807,0.005-3.716,0.204
							c-1.192,0.418-2.347,0.805-3.465,1.16c-2.174,0.7-4.714,1.265-7.62,1.693c-0.784,0.115-1.385,0.345-1.803,0.69
							c-0.491,0.397-0.904,1.066-1.238,2.007c-0.136,0.376-0.627,2.111-1.474,5.206c-0.752,2.739-1.338,4.521-1.756,5.347
							c-0.533,1.077-0.846,2.305-0.94,3.685c-0.083,1.39,0.052,2.849,0.408,4.375c0.24,1.014,0.522,3.005,0.847,5.974
							c0.439,2.655,1.171,4.422,2.195,5.3c1.192,1.014,2.828,1.803,4.908,2.368c1.913,0.522,3.497,0.685,4.751,0.486
							c1.014-0.157,1.275-0.648,0.784-1.474c-0.23-0.397-0.91-1.16-2.039-2.289c0.836-0.115,1.929-0.225,3.277-0.33
							c0.983-0.167,1.621-0.59,1.913-1.27c0.23-0.522,0-1.286-0.69-2.289c-0.794-1.139-1.16-2.169-1.098-3.089
							c0.063-0.888,0.664-2.378,1.803-4.469c1.129-2.08,1.725-3.569,1.788-4.468c-0.125-1.965-0.204-3.502-0.235-4.61
							c-0.052-2.018,0.324-3.643,1.129-4.876c0.502-0.773,1.834-2.158,3.999-4.155C63.707,81.503,64.821,80.024,65.228,78.749z"/>
						<path fill="#FFFFFF" stroke="#000000" stroke-miterlimit="10" d="M149.505,69.529c1.191-0.366,2.085-0.575,2.681-0.627
							c0.982-0.073,1.782,0.011,2.399,0.251c0.345,0.136,0.736,0.35,1.176,0.643c0.773,0.387,1.641,0.862,2.603,1.427
							c1.526,0.909,2.749,1.746,3.669,2.509c-0.596,0.606-2.085,1.86-4.469,3.763c-0.303,0.125-3.632,1.134-9.987,3.026
							c-6.648,1.986-10.422,3.125-11.321,3.418c-2.352,0.721-4.238,1.317-5.66,1.788c-2.603,0.878-4.354,1.651-5.252,2.32
							c-0.282,0.209-1.296,1.108-3.042,2.697c-1.108,1.003-1.944,1.536-2.509,1.599c-0.366,0.052-1.427,0.089-3.183,0.11
							c-1.756,0.031-3.136,0.115-4.139,0.25c-1.128,0.146-2.9,1.124-5.315,2.932c-2.54,2.049-4.171,3.34-4.892,3.873
							c-0.878,0.658-2.995,2.132-6.35,4.421c-3.638,2.478-5.938,4.045-6.899,4.704c-1.725,1.192-3.543,2.044-5.457,2.556
							c-2.331,0.617-4.149,0.48-5.456-0.408c0.167,1.558-0.303,2.744-1.411,3.56c-0.868,0.638-2.185,1.061-3.951,1.27
							c-1.579,0.188-3.026-0.005-4.343-0.58c-1.422-0.617-2.958-1.793-4.61-3.528c0.742,1.286,1.082,2.389,1.019,3.308
							c-0.073,0.951-0.59,1.516-1.552,1.693c-0.92,0.167-1.568,0.125-1.944-0.125c-0.209-0.136-0.815-0.811-1.818-2.023
							c-1.725-2.069-2.87-3.491-3.434-4.265c-1.4-1.913-2.101-3.293-2.101-4.139c0-0.826,0.35-2.112,1.05-3.857
							c0.784-1.788,1.265-2.89,1.443-3.308c0.334-0.763,0.502-1.171,0.502-1.223c0-0.272-0.283-0.815-0.847-1.631
							c-0.522-0.742-0.627-1.437-0.313-2.085c0.502-0.7,0.841-1.259,1.019-1.677c0.146-0.345,0.188-1.014,0.125-2.007
							c-0.052-1.024,0.084-1.965,0.408-2.822c0.376-0.972,1.171-1.959,2.383-2.963c0.68-0.564,1.735-1.369,3.167-2.415
							c0.805-0.648,1.411-1.369,1.818-2.164c0.22-0.429,0.507-1.019,0.863-1.771c0.303-0.46,0.889-0.695,1.756-0.706
							c0.533,0,1.563,0.057,3.089,0.172c0.669,0.031,1.458-0.026,2.368-0.172c1.244-0.199,2.122-0.319,2.634-0.361
							c0.805-0.073,2.085-0.423,3.842-1.05c2.185-0.784,3.648-1.271,4.39-1.458c0.961-0.241,2.498-0.611,4.61-1.113
							c2.028-0.502,3.831-0.967,5.409-1.396c2.101-0.564,3.784-1.077,5.049-1.537c1.453-0.522,2.691-1.082,3.716-1.678
							c0.815-0.47,1.516-0.439,2.101,0.094c0.167,0.146,0.423,0.382,0.769,0.706c0.334,0.261,0.695,0.413,1.082,0.455
							c0.732,0.073,1.61-0.271,2.634-1.035c0.564-0.418,1.354-1.03,2.368-1.834c0.543-0.345,1.087-0.157,1.63,0.564
							c0.627,0.815,1.04,1.223,1.239,1.223c0.355,0,0.983-0.277,1.881-0.831c0.502-0.303,1.307-0.8,2.415-1.49
							c0.575-0.324,0.847-0.241,0.815,0.251c-0.031,0.679,0.11,1.071,0.423,1.176c0.544,0.178,1.432,0.157,2.666-0.062
							c1.254-0.23,2.279-0.564,3.073-1.003c0.606-0.335,1.223-0.241,1.85,0.282c0.982,0.826,1.735,1.328,2.258,1.505
							c0.732,0.241,1.432,0.167,2.102-0.219c0.763-0.45,1.552-0.617,2.367-0.502c0.784,0.115,1.6,0.408,2.446,0.878
							c0.773,0.429,1.63,0.674,2.571,0.737c1.014,0.062,1.782-0.042,2.305-0.314c0.648-0.345,1.191-0.538,1.631-0.58
							c0.763-0.083,1.5-0.026,2.21,0.172c0.439,0.125,1.135,0.366,2.086,0.722C147.963,69.822,148.679,69.791,149.505,69.529z"/>
						
							<path fill="none" stroke="#000000" stroke-width="1.5" stroke-linecap="round" stroke-linejoin="round" stroke-miterlimit="3" d="
							M149.505,69.529c-0.826,0.261-1.542,0.292-2.148,0.094c-0.951-0.355-1.646-0.596-2.086-0.722
							c-0.71-0.198-1.447-0.256-2.21-0.172c-0.439,0.042-0.982,0.235-1.631,0.58c-0.522,0.272-1.291,0.376-2.305,0.314
							c-0.941-0.063-1.798-0.309-2.571-0.737c-0.847-0.47-1.662-0.763-2.446-0.878c-0.815-0.115-1.604,0.052-2.367,0.502
							c-0.67,0.387-1.37,0.46-2.102,0.219c-0.522-0.177-1.275-0.679-2.258-1.505c-0.627-0.523-1.244-0.617-1.85-0.282
							c-0.794,0.439-1.819,0.773-3.073,1.003c-1.233,0.219-2.122,0.24-2.666,0.062c-0.313-0.104-0.455-0.497-0.423-1.176
							c0.032-0.492-0.24-0.575-0.815-0.251c-1.108,0.69-1.913,1.187-2.415,1.49c-0.898,0.554-1.526,0.831-1.881,0.831
							c-0.199,0-0.611-0.407-1.239-1.223c-0.543-0.721-1.087-0.91-1.63-0.564c-1.014,0.805-1.803,1.417-2.368,1.834
							c-1.024,0.763-1.902,1.108-2.634,1.035c-0.387-0.042-0.748-0.193-1.082-0.455c-0.345-0.324-0.602-0.559-0.769-0.706
							c-0.585-0.533-1.286-0.564-2.101-0.094c-1.024,0.596-2.263,1.155-3.716,1.678c-1.265,0.46-2.948,0.972-5.049,1.537
							c-1.579,0.429-3.381,0.894-5.409,1.396c-2.112,0.502-3.648,0.873-4.61,1.113c-0.742,0.188-2.206,0.674-4.39,1.458
							c-1.756,0.627-3.037,0.977-3.842,1.05c-0.512,0.042-1.39,0.163-2.634,0.361c-0.91,0.146-1.699,0.204-2.368,0.172
							c-1.526-0.115-2.556-0.172-3.089-0.172c-0.867,0.01-1.453,0.245-1.756,0.706c-0.355,0.752-0.643,1.343-0.863,1.771
							c-0.407,0.794-1.014,1.516-1.818,2.164c-1.432,1.045-2.488,1.85-3.167,2.415c-1.212,1.004-2.007,1.991-2.383,2.963
							c-0.324,0.857-0.46,1.798-0.408,2.822c0.063,0.993,0.021,1.662-0.125,2.007c-0.178,0.418-0.517,0.977-1.019,1.677
							c-0.313,0.648-0.209,1.343,0.313,2.085c0.564,0.815,0.847,1.359,0.847,1.631c0,0.052-0.167,0.46-0.502,1.223
							c-0.178,0.418-0.659,1.521-1.443,3.308c-0.7,1.746-1.05,3.031-1.05,3.857c0,0.846,0.7,2.226,2.101,4.139
							c0.564,0.773,1.709,2.195,3.434,4.265c1.003,1.212,1.609,1.887,1.818,2.023c0.376,0.25,1.024,0.292,1.944,0.125
							c0.962-0.178,1.479-0.742,1.552-1.693c0.063-0.919-0.277-2.022-1.019-3.308c1.651,1.735,3.188,2.911,4.61,3.528
							c1.317,0.575,2.765,0.768,4.343,0.58c1.766-0.209,3.083-0.632,3.951-1.27c1.108-0.815,1.578-2.002,1.411-3.56
							c1.307,0.889,3.125,1.025,5.456,0.408c1.913-0.512,3.732-1.364,5.457-2.556c0.961-0.658,3.261-2.226,6.899-4.704
							c3.355-2.289,5.472-3.763,6.35-4.421c0.721-0.533,2.352-1.824,4.892-3.873c2.415-1.808,4.187-2.786,5.315-2.932
							c1.003-0.136,2.383-0.219,4.139-0.25c1.756-0.021,2.817-0.058,3.183-0.11c0.565-0.063,1.401-0.596,2.509-1.599
							c1.746-1.589,2.76-2.488,3.042-2.697c0.899-0.669,2.649-1.442,5.252-2.32c1.421-0.47,3.308-1.066,5.66-1.788
							c0.899-0.292,4.673-1.432,11.321-3.418c6.355-1.892,9.685-2.901,9.987-3.026c2.384-1.903,3.873-3.157,4.469-3.763
							c-0.92-0.763-2.143-1.6-3.669-2.509c-0.962-0.564-1.829-1.04-2.603-1.427c-0.439-0.293-0.831-0.507-1.176-0.643
							c-0.617-0.24-1.417-0.324-2.399-0.251C151.59,68.955,150.696,69.164,149.505,69.529z"/>
					</g>
					<path fill="#373535" stroke="#000000" stroke-miterlimit="10" d="M111.215,105.953c0.565-0.857,1.066-1.38,1.505-1.568
						c0.659-0.271,0.988,0.371,0.988,1.929c0,1.578-1.119,3.209-3.355,4.892c-1.4,1.066-3.501,2.294-6.303,3.685
						c-1.704,0.857-4.035,1.364-6.993,1.521c-1.704,0.094-3.727,0.068-6.068-0.079c-1.328-0.094-2.603-0.376-3.826-0.847
						c-1.202-0.481-2.075-1.035-2.619-1.662c1.307,0.397,3,0.706,5.08,0.925c2.321,0.23,4.15,0.219,5.488-0.031
						c1.516-0.283,3.34-0.794,5.472-1.537c2.279-0.795,3.972-1.537,5.08-2.227c1.066-0.659,2.19-1.537,3.371-2.634
						C110.081,107.348,110.808,106.559,111.215,105.953z"/>
					<path stroke="#000000" stroke-width="1.5" stroke-linecap="round" stroke-linejoin="round" stroke-miterlimit="3" d="
						M111.215,105.953c-0.408,0.606-1.134,1.396-2.179,2.367c-1.181,1.098-2.305,1.976-3.371,2.634
						c-1.108,0.69-2.801,1.432-5.08,2.227c-2.132,0.742-3.957,1.254-5.472,1.537c-1.338,0.25-3.167,0.261-5.488,0.031
						c-2.08-0.219-3.773-0.528-5.08-0.925c0.543,0.627,1.417,1.181,2.619,1.662c1.223,0.47,2.498,0.752,3.826,0.847
						c2.341,0.146,4.364,0.172,6.068,0.079c2.958-0.157,5.289-0.664,6.993-1.521c2.801-1.39,4.902-2.619,6.303-3.685
						c2.237-1.683,3.355-3.314,3.355-4.892c0-1.558-0.329-2.2-0.988-1.929C112.282,104.573,111.78,105.095,111.215,105.953z"/>
					<g>
						<path stroke="#000000" stroke-miterlimit="10" d="M164.188,113.251c-1.591-0.983-3.95-2.381-7.079-4.194
							c-5.404-3.125-9.073-5.174-11.008-6.146c-2.121-1.066-4.745-2.644-7.87-4.735c-3.491-2.352-5.399-3.936-5.724-4.751
							c-0.773-0.324-1.714-0.689-2.822-1.097c-2.206-0.805-4.129-1.396-5.771-1.772c-1.547,2.864-2.681,4.772-3.402,5.723
							c-0.554,0.742-1.704,1.834-3.449,3.277c-1.788,1.474-3.204,2.472-4.249,2.995c-0.292-0.083-0.591-0.24-0.894-0.47
							c-0.596-0.449-0.894-1.009-0.894-1.678c1.181-0.178,2.446-0.685,3.794-1.521c1.359-0.836,2.305-1.704,2.838-2.603
							c0.355-0.596,0.915-1.845,1.678-3.748c0.857-1.777,1.908-3.031,3.151-3.763c1.83-1.077,3.298-1.767,4.406-2.07
							c1.495-0.418,2.649-0.267,3.465,0.455c1.307,1.181,2.101,1.929,2.383,2.242c0.763,0.836,1.338,1.761,1.725,2.775
							c0.397,1.024,1.542,2.279,3.434,3.763c1.506,1.171,2.869,2.064,4.093,2.682c0.773,0.386,3.167,1.886,7.181,4.5
							c2.718,1.767,5.331,3.486,7.84,5.159c0.293,0.198,1.568,1.087,3.826,2.666C162.052,111.788,163.167,112.559,164.188,113.251z"
							/>
						
							<path fill="none" stroke="#000000" stroke-width="1.5" stroke-linecap="round" stroke-linejoin="round" stroke-miterlimit="3" d="
							M166.501,114.811c-0.707-0.467-1.479-0.987-2.312-1.56c-1.591-0.983-3.95-2.381-7.079-4.194
							c-5.404-3.125-9.073-5.174-11.008-6.146c-2.121-1.066-4.745-2.644-7.87-4.735c-3.491-2.352-5.399-3.936-5.724-4.751
							c-0.773-0.324-1.714-0.689-2.822-1.097c-2.206-0.805-4.129-1.396-5.771-1.772c-1.547,2.864-2.681,4.772-3.402,5.723
							c-0.554,0.742-1.704,1.834-3.449,3.277c-1.788,1.474-3.204,2.472-4.249,2.995c-0.292-0.083-0.591-0.24-0.894-0.47
							c-0.596-0.449-0.894-1.009-0.894-1.678c1.181-0.178,2.446-0.685,3.794-1.521c1.359-0.836,2.305-1.704,2.838-2.603
							c0.355-0.596,0.915-1.845,1.678-3.748c0.857-1.777,1.908-3.031,3.151-3.763c1.83-1.077,3.298-1.767,4.406-2.07
							c1.495-0.418,2.649-0.267,3.465,0.455c1.307,1.181,2.101,1.929,2.383,2.242c0.763,0.836,1.338,1.761,1.725,2.775
							c0.397,1.024,1.542,2.279,3.434,3.763c1.506,1.171,2.869,2.064,4.093,2.682c0.773,0.386,3.167,1.886,7.181,4.5
							c2.718,1.767,5.331,3.486,7.84,5.159c0.293,0.198,1.568,1.087,3.826,2.666c1.211,0.849,2.326,1.62,3.348,2.312"/>
						
							<path fill="none" stroke="#000000" stroke-width="1.5" stroke-linecap="round" stroke-linejoin="round" stroke-miterlimit="3" d="
							M175.266,92.703c0.083-3.334,1.369-6.167,3.857-8.498c1.954-1.829,4.489-3.23,7.604-4.202
							c2.487-0.773,5.272-0.444,8.356,0.988c2.822,1.296,5.702,3.413,8.64,6.35c2.749,2.749,4.27,5.76,4.562,9.032
							c0.282,3.208-0.522,7.834-2.415,13.876c-1.661,5.279-3.763,8.984-6.303,11.117c-1.003,0.826-2.174,1.505-3.512,2.038
							c-0.564,0.22-1.767,0.606-3.606,1.161c-2.133,0.627-5.033,0.329-8.702-0.894c-2.31-0.784-5.436-2.158-9.376-4.124
							c-2.007-0.993-4.631-2.572-7.871-4.735"/>
					</g>
					<path fill="#FFFFFF" stroke="#000000" stroke-miterlimit="10" d="M112.736,103.898c-0.261-0.334-2.258-2.608-5.989-6.821
						c-2.75-3.094-4.124-4.938-4.124-5.535c-0.198,0.345-0.585,0.601-1.16,0.769c-0.627,0.178-1.254,0.162-1.881-0.047
						c-0.941,0.648-1.997,1.604-3.167,2.87c-1.014,1.066-1.808,2.017-2.383,2.854l-5.284,7.698
						c-0.491,0.722-1.521,1.882-3.089,3.481c-1.578,1.599-2.634,2.556-3.167,2.87c-0.659,0.387-1.307,0.648-1.944,0.784
						c-0.826,0.178-1.521,0.125-2.085-0.157c1.296-1.212,2.749-2.702,4.359-4.469c1.537-1.704,2.561-2.932,3.073-3.685
						c3-4.338,4.756-6.899,5.268-7.683c0.554-0.836,1.756-2.19,3.606-4.061c1.767-1.788,2.921-2.854,3.465-3.199
						c0.742-0.46,1.453-0.81,2.132-1.05c0.951-0.334,1.526-0.309,1.725,0.078c0.46,0,0.957,0.23,1.489,0.69
						c0.481,0.408,0.936,0.951,1.364,1.631c0.512,0.784,2.828,3.847,6.946,9.188c4.328,5.603,6.936,8.864,7.824,9.784
						c1.328,1.391,3.549,3.899,6.664,7.526c3.502,4.066,5.394,6.418,5.676,7.056c1.254,2.864,2.054,4.777,2.398,5.738
						c1.233,3.481,1.72,6.22,1.458,8.216c-0.532-1.463-1.98-4.338-4.343-8.623c-1.83-3.303-2.619-5.347-2.368-6.131
						c-0.951-0.868-3.653-4.008-8.106-9.423C117.268,109.595,114.482,106.146,112.736,103.898z"/>
					
						<path fill="none" stroke="#000000" stroke-width="1.5" stroke-linecap="round" stroke-linejoin="round" stroke-miterlimit="3" d="
						M112.736,103.898c-0.261-0.334-2.258-2.608-5.989-6.821c-2.75-3.094-4.124-4.938-4.124-5.535
						c-0.198,0.345-0.585,0.601-1.16,0.769c-0.627,0.178-1.254,0.162-1.881-0.047c-0.941,0.648-1.997,1.604-3.167,2.87
						c-1.014,1.066-1.808,2.017-2.383,2.854l-5.284,7.698c-0.491,0.722-1.521,1.882-3.089,3.481
						c-1.578,1.599-2.634,2.556-3.167,2.87c-0.659,0.387-1.307,0.648-1.944,0.784c-0.826,0.178-1.521,0.125-2.085-0.157
						c1.296-1.212,2.749-2.702,4.359-4.469c1.537-1.704,2.561-2.932,3.073-3.685c3-4.338,4.756-6.899,5.268-7.683
						c0.554-0.836,1.756-2.19,3.606-4.061c1.767-1.788,2.921-2.854,3.465-3.199c0.742-0.46,1.453-0.81,2.132-1.05
						c0.951-0.334,1.526-0.309,1.725,0.078c0.46,0,0.957,0.23,1.489,0.69c0.481,0.408,0.936,0.951,1.364,1.631
						c0.512,0.784,2.828,3.847,6.946,9.188c4.328,5.603,6.936,8.864,7.824,9.784c1.328,1.391,3.549,3.899,6.664,7.526
						c3.502,4.066,5.394,6.418,5.676,7.056c1.254,2.864,2.054,4.777,2.398,5.738c1.233,3.481,1.72,6.22,1.458,8.216
						c-0.532-1.463-1.98-4.338-4.343-8.623c-1.83-3.303-2.619-5.347-2.368-6.131c-0.951-0.868-3.653-4.008-8.106-9.423
						C117.268,109.595,114.482,106.146,112.736,103.898z"/>
					<path fill="#FFFFFF" stroke="#000000" stroke-miterlimit="10" d="M81.77,111.77c2.341-1.359,4.108-2.425,5.299-3.199
						c1.944-1.275,3.371-2.388,4.28-3.34c1.244-1.296,2.807-2.812,4.688-4.547c2.185-2.007,3.664-3.235,4.437-3.685
						c0.878-0.512,1.824-0.883,2.838-1.113c1.056-0.251,1.871-0.267,2.446-0.047c0.157,0.69,0.141,2.556-0.047,5.597
						c-0.167,2.645-0.36,4.803-0.58,6.476c-0.115,0.899-0.669,4.892-1.662,11.979c-0.941,6.867-1.433,10.839-1.474,11.916
						c-0.115,3.062-0.193,4.829-0.235,5.3c-0.23,2.31-0.69,3.674-1.38,4.092c-0.094,0.764-1.683,2.504-4.766,5.222
						c-3.282,2.896-6.104,4.882-8.467,5.958c3.188-3.376,5.598-5.906,7.229-7.589c2.917-3.011,4.562-4.536,4.939-4.578
						c0.094-1.882,0.889-8.995,2.383-21.34c1.516-12.554,2.42-19.338,2.712-20.352c-0.366,0.293-0.815,0.612-1.349,0.957
						c-0.679,0.438-1.244,0.805-1.693,1.097c-0.627,0.418-1.589,1.16-2.885,2.227c-1.212,1.003-2.038,1.725-2.478,2.164
						c-0.334,0.334-1.228,1.093-2.681,2.274l-2.07,1.662c-3.24,1.317-5.368,2.164-6.382,2.54
						C83.285,112.036,82.25,112.146,81.77,111.77z"/>
					
						<path fill="none" stroke="#000000" stroke-width="1.5" stroke-linecap="round" stroke-linejoin="round" stroke-miterlimit="3" d="
						M81.77,111.77c2.341-1.359,4.108-2.425,5.299-3.199c1.944-1.275,3.371-2.388,4.28-3.34c1.244-1.296,2.807-2.812,4.688-4.547
						c2.185-2.007,3.664-3.235,4.437-3.685c0.878-0.512,1.824-0.883,2.838-1.113c1.056-0.251,1.871-0.267,2.446-0.047
						c0.157,0.69,0.141,2.556-0.047,5.597c-0.167,2.645-0.36,4.803-0.58,6.476c-0.115,0.899-0.669,4.892-1.662,11.979
						c-0.941,6.867-1.433,10.839-1.474,11.916c-0.115,3.062-0.193,4.829-0.235,5.3c-0.23,2.31-0.69,3.674-1.38,4.092
						c-0.094,0.764-1.683,2.504-4.766,5.222c-3.282,2.896-6.104,4.882-8.467,5.958c3.188-3.376,5.598-5.906,7.229-7.589
						c2.917-3.011,4.562-4.536,4.939-4.578c0.094-1.882,0.889-8.995,2.383-21.34c1.516-12.554,2.42-19.338,2.712-20.352
						c-0.366,0.293-0.815,0.612-1.349,0.957c-0.679,0.438-1.244,0.805-1.693,1.097c-0.627,0.418-1.589,1.16-2.885,2.227
						c-1.212,1.003-2.038,1.725-2.478,2.164c-0.334,0.334-1.228,1.093-2.681,2.274l-2.07,1.662c-3.24,1.317-5.368,2.164-6.382,2.54
						C83.285,112.036,82.25,112.146,81.77,111.77z"/>
					<g>
						<path fill="#FFFFFF" stroke="#000000" stroke-miterlimit="10" d="M67.831,115.046c-0.575-0.125,0.146-0.34,2.164-0.643
							c1.108-0.167,2.754-0.408,4.939-0.721c1.035-0.178,4.63-1.301,10.788-3.371c5.937-1.986,9.229-3.141,9.878-3.465
							c1.076-0.543,1.719-0.836,1.928-0.878c0.773-0.157,1.249,0.225,1.427,1.145c1.233,0.397,1.025,1.829-0.627,4.296
							c-2.31,3-3.894,5.101-4.751,6.303c-1.056-0.073-1.845-0.094-2.367-0.063c0.512-0.638,1.562-2.101,3.151-4.39
							c1.871-2.718,2.953-4.453,3.246-5.205c-0.46,0.637-1.662,1.406-3.606,2.305c-1.17,0.543-2.472,1.071-3.904,1.583
							c-0.701,0.251-2.457,0.988-5.269,2.211c-2.697,1.181-4.651,2.054-5.864,2.618c-1.171,0.554-2.399,0.909-3.685,1.066
							c-1.328,0.157-2.52,0.073-3.575-0.251c-0.69-0.22-1.39-0.564-2.101-1.035C68.934,116.102,68.343,115.6,67.831,115.046z"/>
						
							<path fill="none" stroke="#000000" stroke-width="1.5" stroke-linecap="round" stroke-linejoin="round" stroke-miterlimit="3" d="
							M67.831,115.046c0.512,0.554,1.103,1.056,1.771,1.505c0.711,0.471,1.411,0.815,2.101,1.035
							c1.056,0.324,2.248,0.408,3.575,0.251c1.285-0.157,2.514-0.512,3.685-1.066c1.212-0.564,3.167-1.438,5.864-2.618
							c2.812-1.223,4.568-1.96,5.269-2.211c1.432-0.512,2.733-1.04,3.904-1.583c1.944-0.899,3.146-1.667,3.606-2.305
							c-0.292,0.752-1.375,2.487-3.246,5.205c-1.589,2.29-2.64,3.752-3.151,4.39c0.522-0.031,1.312-0.01,2.367,0.063
							c0.857-1.202,2.441-3.303,4.751-6.303c1.652-2.467,1.86-3.899,0.627-4.296c-0.178-0.92-0.653-1.302-1.427-1.145
							c-0.209,0.042-0.852,0.334-1.928,0.878c-0.648,0.324-3.941,1.479-9.878,3.465c-6.157,2.07-9.753,3.193-10.788,3.371
							c-2.185,0.313-3.831,0.554-4.939,0.721C67.977,114.707,67.256,114.921,67.831,115.046z"/>
					</g>
					
						<path fill="none" stroke="#000000" stroke-width="1.5" stroke-linecap="round" stroke-linejoin="round" stroke-miterlimit="3" d="
						M169.684,74.092c1.098-0.282,2.545-0.397,4.344-0.345c1.003,0.031,2.492,0.089,4.468,0.172c0.951,0,3.68,0.037,8.185,0.11
						c4.244,0.031,6.884-0.068,7.919-0.298c1.892-0.397,3.392-0.752,4.499-1.066c1.861-0.523,3.226-1.062,4.093-1.615"/>
					<path fill="#231F20" stroke="#000000" stroke-miterlimit="10" d="M134.893,76.75c-0.636,0.008-1.161,0.104-1.574,0.287
						c-1.042,0.469-2.159,0.406-3.353-0.191c-1.169-0.581-1.754-1.332-1.754-2.255c0-1.002,0.41-1.925,1.229-2.768
						c0.906-0.946,2.027-1.419,3.363-1.419c1.424,0,2.779,0.478,4.068,1.432c1.281,0.946,1.829,1.865,1.646,2.756
						c-0.286,1.384-0.986,2.112-2.1,2.184C135.752,76.759,135.242,76.75,134.893,76.75z"/>
					
						<path fill="none" stroke="#000000" stroke-width="1.5" stroke-linecap="round" stroke-linejoin="round" stroke-miterlimit="3" d="
						M121.595,82.873c1.861-0.125,3.476-0.298,4.845-0.518c2.007-0.334,3.852-0.821,5.534-1.458
						c1.275-0.481,3.951-1.385,8.028-2.713c3.847-1.244,6.12-2.012,6.82-2.305c1.233-0.512,7.019-2.718,17.357-6.617
						c1.776-0.659,3.847-1.254,6.209-1.788c2.874-0.638,5.038-0.878,6.491-0.721c2.121,0.241,3.606,0.345,4.452,0.313
						c1.517-0.042,2.953-0.381,4.312-1.019c1.714-0.815,3.992-2.049,6.836-3.7c3.094-1.798,5.054-3.073,5.88-3.826"/>
				</g>
			</g>
		</g>
	</g>
</g>
<path fill="#FFFFFF" stroke="#000000" stroke-miterlimit="10" d="M138.25,74.375c0,1.45-1.175,2.625-2.625,2.625h-1
	c-1.45,0-2.625-1.175-2.625-2.625l0,0c0-1.45,1.175-2.625,2.625-2.625h1C137.075,71.75,138.25,72.925,138.25,74.375L138.25,74.375z"
	/>
<path stroke="#000000" stroke-miterlimit="10" d="M138.438,74.5c0,0.841-0.682,1.522-1.522,1.522h-0.58
	c-0.841,0-1.522-0.682-1.522-1.522l0,0c0-0.841,0.682-1.522,1.522-1.522h0.58C137.756,72.978,138.438,73.659,138.438,74.5
	L138.438,74.5z"/>
</svg>
