<?xml version="1.0" encoding="utf-8"?>
<!-- Generator: Adobe Illustrator 17.0.1, SVG Export Plug-In . SVG Version: 6.00 Build 0)  -->
<!DOCTYPE svg PUBLIC "-//W3C//DTD SVG 1.1//EN" "http://www.w3.org/Graphics/SVG/1.1/DTD/svg11.dtd">
<svg version="1.1" id="Layer_1" xmlns="http://www.w3.org/2000/svg" xmlns:xlink="http://www.w3.org/1999/xlink" x="0px" y="0px"
	 width="187.333px" height="227.179px" viewBox="32.187 19.779 187.333 227.179"
	 enable-background="new 32.187 19.779 187.333 227.179" xml:space="preserve">
<g>
	<g id="Layer_1_1_">
		<g>
			<g id="Layer_1_3_">
				<g>
					<path fill="#FFFFFF" stroke="#000000" stroke-width="1.5" stroke-miterlimit="10" d="M156.95,26.708
						c-0.598-0.479-0.974-0.836-1.131-1.071c-0.166-0.245-0.445-0.592-0.836-1.042c-0.528-0.558-0.827-0.896-0.896-1.013
						c-0.715-0.9-1.302-1.556-1.762-1.966c-0.714-0.675-1.6-0.999-2.656-0.969c0-0.107-0.015-0.142-0.044-0.103l-0.19,0.132
						c-0.06,0.009-0.152,0.015-0.279,0.015c0.029,0.088,0.044,0.142,0.044,0.162l-0.132,0.103c-0.206,0.235-0.309,0.367-0.309,0.396
						c0,0.303,0.411,0.944,1.233,1.922c0.616,0.734,1.086,1.248,1.408,1.541c0.383,0.352,0.754,0.861,1.116,1.526
						c0.411,0.744,0.826,1.37,1.247,1.879c0.567,0.675,1.233,1.835,1.996,3.479c0.216,0.47,0.401,0.846,0.558,1.13l0.661,1.835
						c0.587,1.517,1.032,2.598,1.335,3.244c0.187,0.362,0.284,0.861,0.294,1.497c0.01,0.636,0.088,1.121,0.234,1.454
						c0.108,0.234,0.406,0.753,0.896,1.556c0.138,0.206,0.25,0.436,0.338,0.69c0.068,0.166,0.122,0.411,0.161,0.734
						c0.029,0.235,0.323,1.81,0.881,4.726c0.538,3.581,0.803,7.27,0.793,11.066c-0.059,12.025-2.838,23.621-8.337,34.785
						c0,0.166-0.832,1.502-2.495,4.007c-0.156,0.225-0.562,0.969-1.219,2.231c-0.352,0.675-0.602,1.199-0.748,1.57l-2.319,2.598
						c-0.88,0.969-1.448,1.624-1.702,1.967c-0.147-0.861-0.299-1.639-0.455-2.334c-0.959-4.07-3.337-8.787-7.133-14.148
						c-3.553-5.01-7.794-9.829-12.726-14.458c-0.372-0.352-0.836-0.65-1.394-0.895c-0.578-0.206-0.969-0.357-1.174-0.455
						c-1.409-0.626-2.593-0.939-3.552-0.939c-0.851,0-2.202,0.661-4.051,1.981c-1.663,1.213-2.524,1.923-2.583,2.128
						c-0.049,0.274-0.264,0.665-0.646,1.174c-0.45,0.607-0.704,0.983-0.763,1.13c-0.049,0.167-0.23,0.631-0.543,1.394
						c-0.254,0.617-0.382,0.94-0.382,0.969l0.044,0.059c-0.313,0.479-0.67,1.115-1.071,1.908c-0.538,1.067-0.871,1.83-0.998,2.29
						c-0.871,2.515-1.673,5.509-2.407,8.983c-1.243,5.851-1.791,11.149-1.644,15.895c-0.274-0.117-0.494-0.225-0.661-0.322
						l-0.411-0.338c-0.999-0.821-1.688-1.448-2.07-1.878l-1.482-1.556c-0.499-0.548-0.875-1.057-1.13-1.526
						c-0.783-1.086-1.458-2.045-2.025-2.876c-1.292-1.85-1.938-2.979-1.938-3.391c-0.293-0.528-1.149-1.781-2.569-3.757
						c-1.36-1.898-2.451-3.625-3.272-5.181c-2.681-5.098-4.1-11.111-4.257-18.039c-0.059-2.828-0.244-6.825-0.557-11.991
						c-0.294-5.088-0.465-8.801-0.514-11.14c-0.167-8.181,0.674-14.907,2.524-20.182c0.088-0.293,0.577-0.944,1.468-1.952
						c0.979-1.077,1.468-1.948,1.468-2.613c0-0.519-0.279-0.935-0.836-1.248c-0.969-1.115-1.732-1.218-2.29-0.308
						c-0.146,0.245-0.323,0.7-0.528,1.365c-0.196,0.646-0.318,1.003-0.367,1.072c-0.196,0.293-0.386,0.65-0.572,1.071
						c-0.255,0.519-0.45,0.875-0.587,1.071c-1.165,3.347-2.197,8.332-3.097,14.956c-1.262,9.305-1.746,19.144-1.453,29.516
						c0.254,8.62,1.463,16.238,3.625,22.853c1.527,4.638,3.156,7.979,4.888,10.024c0.176,0.196,0.675,0.729,1.497,1.6
						c1.037,1.262,1.629,1.967,1.776,2.114c0.705,0.528,1.346,1.193,1.923,1.996l0.044,0.074c0.206,0.265,0.68,0.93,1.424,1.996
						c0.578,0.705,1.262,1.385,2.055,2.04l2.407,1.908c0.46,0.362,0.954,0.861,1.482,1.497c0.098,0.117,0.376,0.484,0.836,1.101
						c0.675,0.89,1.042,1.335,1.101,1.335c0.029,0,0.107-0.044,0.235-0.132l0.205-0.235l0.822,0.866
						c0.381,0.372,0.704,0.641,0.968,0.807c0.666,0.431,1.033,0.685,1.101,0.763c0.342,0.264,0.562,0.553,0.661,0.866
						c0.019,0.137,0.137,0.24,0.352,0.308c0.313,0.156,0.626,0.353,0.939,0.587h0.015c0.744,1.311,1.644,2.48,2.701,3.508
						c-0.176,0.274-0.303,0.612-0.382,1.013c-0.088,0.401-0.098,0.758-0.029,1.072l-0.029-0.015
						c-0.352-0.088-0.602-0.142-0.749-0.162c-1.018-0.196-1.991-0.612-2.92-1.248c-0.235-0.167-0.744-0.484-1.527-0.954
						l-1.497-0.896c-0.646-0.43-1.272-0.783-1.878-1.057c-0.382-0.166-0.705-0.293-0.969-0.381l-1.086-0.176
						c-3.288-0.372-8.542-1.977-15.763-4.814c-6.947-2.936-10.792-4.56-11.536-4.873c-0.362-0.176-0.597-0.298-0.705-0.367
						c-0.626-0.313-1.228-0.592-1.805-0.837C66.572,114.18,34.667,76.667,33,79.333c-1.667,2.666,30.559,35.718,30.559,36.188
						c0,0.098,0.049,0.215,0.146,0.352l0.162,0.176c0.167,0.342,0.573,0.778,1.219,1.306c0.107,0.098,0.543,0.421,1.306,0.969
						l0.293,0.22c0.118,0.088,0.357,0.186,0.72,0.293c0.42,0.117,0.748,0.24,0.983,0.367c0.519,0.274,3.724,2.006,9.614,5.196
						c5.93,3.2,9.575,5.098,10.935,5.694c1.106,0.489,2.853,1.301,5.24,2.436c2.006,0.92,3.405,1.434,4.198,1.542
						c2.113,0.303,3.43,0.572,3.948,0.807c0.323,0.157,1.228,0.494,2.715,1.013c1.614,0.567,2.49,0.852,2.627,0.852l0.323,0.073
						l-0.073,0.176c-0.088,0.323,0.015,0.764,0.309,1.321c0.156,0.284,0.318,0.533,0.484,0.749l0.03,0.044l-0.206,0.073
						c-0.567,0.029-1.233,0.215-1.996,0.558c-0.881,0.392-1.478,0.616-1.791,0.675c-6.086,1.263-9.755,2.05-11.008,2.363
						c-6.36,1.595-10.113,3.092-11.258,4.491c-0.979,1.184-6.478,9.267-16.497,24.247c-10.225,15.294-15.803,23.547-16.732,24.761
						c-0.558,0.4-1.312,1.022-2.26,1.863c-1.165,1.038-1.981,1.742-2.452,2.114c-0.225,0.215-0.425,0.494-0.602,0.836
						c-0.02,0.039-0.049,0.093-0.088,0.161c-0.206,0.45-0.44,0.842-0.705,1.175c-0.391,0.46-0.67,0.827-0.836,1.101
						c-0.293,0.431-0.44,0.793-0.44,1.086l0.161,0.808c0.196,0.519,0.504,0.777,0.925,0.777c0.42,0,0.827-0.249,1.218-0.748
						l0.573-0.852c0.244-0.264,0.425-0.548,0.543-0.851c0.117-0.294,0.362-0.48,0.734-0.559c4.344-2.23,12.163-11.13,23.454-26.697
						c3.268-4.501,7.035-9.863,11.301-16.086c3.503-5.099,5.343-7.75,5.519-7.955c0.695-0.773,1.771-1.097,3.229-0.969
						c0.793,0.068,1.786,0.244,2.979,0.527c0.489,0.235,1.16,0.354,2.011,0.354c0.802,0,1.516-0.079,2.143-0.235
						c0.44-0.118,0.832-0.25,1.174-0.396c0.459-0.127,0.875-0.21,1.247-0.249c0.626-0.089,1.825-0.191,3.596-0.309
						c1.566-0.137,3.107-0.562,4.624-1.276c0.958-0.52,1.531-0.999,1.717-1.438l0.088,0.015c0.108,0.039,0.215,0.059,0.323,0.059
						c0.254,0,0.543-0.059,0.866-0.176c-0.421,0.665-0.714,1.08-0.88,1.247c-0.225,0.205-0.509,0.67-0.852,1.395
						c-0.304,0.606-0.455,1.012-0.455,1.218c-0.812,0.714-3.435,2.979-7.867,6.796c-4.1,3.659-6.302,6.022-6.605,7.089
						c-2.632,9.051-5.284,24.08-7.955,45.088c-0.988,7.74-1.791,14.839-2.407,21.297c-0.567,6.058-0.778,9.389-0.631,9.995
						c0.137,0.47,0.406,1.121,0.808,1.952c0.254,0.304,0.626,0.651,1.116,1.042c0.606,0.489,1.076,0.734,1.409,0.734
						c0.039,0,0.083-0.054,0.132-0.161c0.059-0.068,0.088-0.143,0.088-0.221c0-1.018-0.21-2.157-0.631-3.42
						c-0.294-0.743-0.489-1.276-0.587-1.6c-0.196-0.597,0.103-3.312,0.895-8.146c0.803-4.863,1.923-10.744,3.361-17.643
						c3.582-17.123,7.275-31.962,11.082-44.516c0.205-0.675,2.368-2.598,6.487-5.769c4.276-3.287,6.526-5.098,6.751-5.431
						c0.293-0.704,0.499-1.306,0.616-1.805c0.04-0.196,0.24-0.499,0.602-0.91c0.079-0.088,0.255-0.304,0.529-0.646
						c0.068-0.079,0.112-0.152,0.132-0.221c0.313-0.734,0.91-1.512,1.791-2.333c0.284-0.265,0.567-0.549,0.851-0.852l0.132-0.162
						c0.049,0.099,0.073,0.167,0.073,0.206l0.015,0.279l0.117,0.117c0.069,0.176,0.083,0.322,0.044,0.44l-0.118,0.308
						c-0.206,0.509-0.337,0.91-0.396,1.204c-0.098,0.489-0.059,0.87,0.117,1.145c0.196,0.283,0.494,0.426,0.896,0.426l0.279-0.029
						l-0.015,0.205c0,0.059-0.044,0.362-0.132,0.91v0.073c0,0.558,0.157,1.218,0.47,1.981c0.186,0.44,0.406,0.856,0.66,1.248
						l0.279,0.352l0.015,0.029l0.719,0.793c0.303,0.312,0.499,0.548,0.587,0.704l0.118,0.221h0.25
						c0.273,0.01,0.621,0.107,1.042,0.293c0.44,0.187,0.768,0.392,0.983,0.616l0.22,0.235l0.293-0.146
						c0.685-0.421,1.105-0.69,1.262-0.808c0.382-0.293,0.705-0.455,0.968-0.484c0.411-0.049,0.949-0.073,1.615-0.073l0.44,0.015
						c0.421-0.02,0.802-0.088,1.145-0.205v0.499c-0.01,0.176-0.035,0.283-0.074,0.323l-0.073,0.058l-0.455,1.16l0.939-0.382
						c0.568-0.226,1.096-0.479,1.585-0.764c0.489-0.293,0.929-0.631,1.32-1.013c0.284-0.244,0.715-0.719,1.292-1.423l0.353-0.471
						c0.831-0.929,1.379-2.221,1.644-3.874l0.939,0.748l-0.279-1.35l-0.029-0.088v-0.03l-0.337-1.276
						c-0.069-0.226-0.127-0.562-0.177-1.013l-0.015-0.117h0.015l0.309,0.014c0.312,0,0.577-0.082,0.793-0.249l0.924,1.174
						c0.567,0.686,1.027,1.214,1.38,1.586l0.294,0.322l0.704,0.983c0.206,0.304,0.533,0.577,0.983,0.822
						c0.166,0.088,0.455,0.234,0.866,0.44c0.391,0.186,0.777,0.327,1.159,0.426c10.078,2.495,15.382,4.173,15.91,5.034
						c0.626,1.027,2.318,5.704,5.078,14.031c3.072,9.286,4.927,15.959,5.562,20.02c1.027,6.536,1.64,12.006,1.835,16.409
						c0.313,7.183-0.181,14.148-1.482,20.9c-0.059,0.294-0.406,0.827-1.042,1.6c-0.714,0.852-1.071,1.434-1.071,1.747l0.103,0.852
						c0.176,0.528,0.553,0.792,1.13,0.792c0.606,0,1.253-0.445,1.938-1.336c0.676-0.919,1.013-1.78,1.013-2.583
						c0-0.039,0.138-0.333,0.411-0.88c0.294-0.617,0.528-1.189,0.705-1.718c0.117-0.343,0.22-0.773,0.308-1.292l0.514-2.568
						c0.02-0.078,0.112-0.309,0.279-0.689c0.156-0.284,0.234-0.499,0.234-0.646l0.103-1.32c0.128-6.164,0.137-10.769,0.029-13.812
						c-0.273-8.15-1.11-15.431-2.51-21.84c-2.24-10.186-3.747-16.781-4.521-19.785c-2.094-8.043-3.879-12.661-5.356-13.854
						c-1.302-1.058-4.545-2.896-9.731-5.519c-5.157-2.613-7.916-4.071-8.278-4.374c-0.186-0.146-0.483-0.499-0.895-1.057
						c-0.392-0.528-0.896-1.032-1.513-1.513c0.812,0.04,1.752,0.48,2.818,1.321c0.265,0.226,0.812,0.445,1.644,0.661
						c0.646,0.176,1.263,0.312,1.85,0.411c1.145,0.176,1.947,0.317,2.407,0.426c1.066,0.088,4.873,0.205,11.419,0.352
						c0.167,0.01,0.494,0.015,0.983,0.015c0.479,0.049,0.91,0.196,1.292,0.44c0.871,0.548,8.229,7.451,22.074,20.71
						c7.055,6.761,14.735,14.139,23.043,22.133c0.039,0.039,0.147,0.122,0.323,0.25c0.186,0.156,0.362,0.347,0.528,0.572
						c0.46,0.616,0.729,0.943,0.808,0.983c0.342,0.215,0.655,0.538,0.938,0.968l0.603,0.881c0.117,0.138,0.322,0.289,0.616,0.455
						c0.421,0.235,0.66,0.377,0.719,0.426c0.146,0.117,0.255,0.274,0.323,0.47c0.098,0.245,0.166,0.396,0.205,0.455
						c0.011,0.01,0.226,0.45,0.646,1.32c0.196,0.372,0.588,0.559,1.175,0.559c0.655,0,1.081-0.142,1.277-0.426
						c0.078-0.107,0.117-0.289,0.117-0.543c0-0.812-0.279-1.585-0.837-2.319c-0.832-0.949-1.492-1.806-1.981-2.568
						c-0.273-0.421-1.008-1.223-2.201-2.407c-0.617-0.694-1.008-1.105-1.175-1.233c-0.312-0.264-0.523-0.464-0.631-0.602
						c-0.606-0.616-7.354-7.926-20.24-21.928c-13.033-14.148-19.99-21.678-20.871-22.588c-1.076-1.115-5.259-2.422-12.549-3.919
						c-7.437-1.36-11.556-2.172-12.357-2.436c-0.196-0.138-0.603-0.339-1.219-0.603l-0.983-0.543
						c-0.313-0.166-0.558-0.205-0.733-0.117l-0.191-1.703l0.587-1.409l-0.66-1.306h0.015c0.117,0,0.9-0.362,2.349-1.086
						c0.215-0.099,0.777-0.245,1.688-0.44c0.998-0.186,1.541-0.304,1.63-0.353c0.948-0.362,1.878-0.768,2.788-1.218l2.143-1.174
						c0.705-0.352,1.458-0.773,2.261-1.262c3.16-2.417,6.076-5.313,8.747-8.689c5.313-6.751,9.193-14.711,11.64-23.879
						c0-0.127,0.171-0.617,0.514-1.468c0.333-0.861,0.499-1.453,0.499-1.776c-0.234-1.977,13.002-24.181,14.168-34.848
						s-17.354,33.213-17.793,33.967c-0.167,0.274-0.294,0.631-0.382,1.071l-0.22,0.925c-0.011,0.039-0.06,0.274-0.147,0.705
						c-0.088,0.47-0.2,0.925-0.338,1.365c-1.938,6.204-4.975,11.811-9.114,16.82c-2.877,3.464-5.685,6.062-8.425,7.793
						c-0.949,0.656-1.634,1.086-2.055,1.292c-2.554,1.145-4.153,1.938-4.799,2.378c-0.46,0.333-1.963,1.047-4.507,2.143
						c-0.909,0.391-1.57,0.69-1.98,0.895l-0.778,0.381c1.889-2.172,3.233-4.77,4.036-7.793l0.117-0.117
						c0.45-0.431,0.7-0.685,0.749-0.763c0.871-0.362,1.311-0.832,1.32-1.409c0.597-0.323,1.708-1.345,3.332-3.067l2.055-2.275
						c0.92-1.096,1.658-2.02,2.217-2.773c0.714-0.969,1.854-2.642,3.42-5.02c0.587-0.861,1.218-1.649,1.893-2.363
						c0.528-0.577,0.803-0.891,0.822-0.939c0.567-1.458,1.434-3.375,2.598-5.753c0.949-1.927,1.629-3.581,2.04-4.96
						c1.243-4.09,1.967-11.444,2.173-22.06c0.205-10.578-1.15-20.03-4.066-28.356c-1.634-4.648-3.488-8.366-5.562-11.155
						C157.752,27.389,157.479,27.149,156.95,26.708z"/>
					<path fill="#FFFFFF" stroke="#000000" stroke-width="1.5" stroke-miterlimit="10" d="M142.728,132.693l-0.426-0.969
						l-0.073-0.234c-0.01-0.06-0.181-0.489-0.514-1.292c-0.088-0.196-0.156-0.396-0.205-0.602c-0.05-0.196-0.073-0.357-0.073-0.484
						v-0.176c0.02-0.176-0.143-0.542-0.485-1.101c-0.078-0.146-0.186-0.376-0.322-0.69c-0.156-0.362-0.245-0.562-0.265-0.602"/>
					<path fill="#FFFFFF" stroke="#000000" stroke-width="1.5" stroke-miterlimit="10" d="M144.782,118.324
						c0.861-4.208,0.964-8.053,0.309-11.536"/>
					<path fill="#FFFFFF" stroke="#000000" stroke-width="1.5" stroke-miterlimit="10" d="M103.613,111.47
						c0.118,2.447,0.372,4.575,0.763,6.385c0.519,2.397,1.331,4.643,2.437,6.737"/>
					<path fill="#FFFFFF" stroke="#000000" stroke-width="1.5" stroke-miterlimit="10" d="M109.102,130.184
						c0.117,0.401,0.225,0.694,0.323,0.881c0.107,0.205,0.171,0.396,0.191,0.572l-0.015,1.688c-0.069,0.714-0.323,1.404-0.763,2.069
						c-0.215,0.323-0.499,0.798-0.852,1.424"/>
					<path fill="#FFFFFF" stroke="#000000" stroke-width="1.5" stroke-miterlimit="10" d="M112.316,146.094
						c-0.264,0.254-0.939,1.008-2.025,2.261"/>
					<path fill="#FFFFFF" stroke="#000000" stroke-width="1.5" stroke-miterlimit="10" d="M108.735,139.107
						c0.401,0.626,0.661,1.066,0.778,1.321c0.196,0.43,0.362,0.719,0.499,0.865c0.822,0.979,1.282,2.183,1.379,3.61l0.015,0.029
						c0.039,0.265,0.137,0.494,0.294,0.69c0.127,0.166,0.273,0.278,0.44,0.338l0.484,0.322"/>
					<path fill="#FFFFFF" stroke="#000000" stroke-width="1.5" stroke-miterlimit="10" d="M112.668,146.313
						c0.206,0.167,0.446,0.431,0.719,0.793c0.489,0.675,0.983,0.998,1.482,0.969h0.088c0.215,0,0.401,0.029,0.558,0.088
						c0.137,0.049,0.22,0.103,0.25,0.161c0.137,0.265,0.44,0.641,0.91,1.131c0.293,0.312,0.504,0.567,0.631,0.763
						c-0.146,0.166-0.215,0.382-0.206,0.646c0.01,0.196,0.073,0.377,0.191,0.543c0.118,0.157,0.264,0.26,0.44,0.309
						c0,0.01,0.073,0.073,0.22,0.19c0.147,0.157,0.229,0.313,0.25,0.47"/>
					<path fill="#FFFFFF" stroke="#000000" stroke-width="1.5" stroke-miterlimit="10" d="M109.513,128.099
						c1.379,1.565,3.41,2.784,6.091,3.655c2.544,0.832,5.362,1.247,8.454,1.247c2.926,0,5.489-0.327,7.691-0.983
						c3.571-1.066,6.531-2.994,8.88-5.783"/>
					<path fill="#FFFFFF" stroke="#000000" stroke-width="1.5" stroke-miterlimit="10" d="M137.899,153.183
						c0.176-0.127,0.327-0.338,0.454-0.631c0.088-0.235,0.147-0.484,0.177-0.749c0.029-0.234-0.045-0.704-0.221-1.408
						c-0.137-0.52-0.259-0.92-0.367-1.204l-0.103-0.234c0.029-0.549,0.06-0.886,0.088-1.014c0.107-0.42,0.313-0.792,0.617-1.115
						l0.059-0.073c0.059-0.107,0.156-0.229,0.293-0.366c0.157-0.157,0.284-0.304,0.382-0.441l0.044-0.072l0.029-0.074
						c0.059-0.195,0.245-0.479,0.558-0.851c0.245-0.265,0.445-0.47,0.603-0.617l0.234-0.234l0.661,0.558
						c0.068,0.059,0.317,0.195,0.748,0.411c0.431,0.215,0.699,0.372,0.807,0.469"/>
					<path fill="#FFFFFF" stroke="#000000" stroke-width="1.5" stroke-miterlimit="10" d="M140.746,144.098
						c0.616-0.665,0.954-1.189,1.013-1.57c0.538-1.771,0.808-2.862,0.808-3.273l0.029-0.044l0.015-0.059
						c0.02-0.059,0.073-0.161,0.161-0.309c0.216-0.372,0.323-0.636,0.323-0.792l-0.103-0.939"/>
					<path fill="#FFFFFF" stroke="#000000" stroke-width="1.5" stroke-miterlimit="10" d="M129.694,158.29
						c0.548-0.166,0.822,0.015,0.822,0.543c0,0.187-0.088,0.431-0.264,0.734c-0.235,0.401-0.509,0.602-0.822,0.602
						c-0.255,0-0.426-0.112-0.514-0.338l-0.059-0.366C128.857,158.828,129.136,158.437,129.694,158.29z"/>
					<path fill="#FFFFFF" stroke="#000000" stroke-width="1.5" stroke-miterlimit="10" d="M127.199,158.511
						c0.519,0.117,0.777,0.504,0.777,1.159c0,0.216-0.019,0.357-0.058,0.426c-0.088,0.166-0.25,0.249-0.484,0.249
						c-0.333,0-0.602-0.2-0.807-0.602c-0.137-0.293-0.206-0.509-0.206-0.646C126.421,158.589,126.68,158.393,127.199,158.511z"/>
				</g>
			</g>
		</g>
	</g>
</g>
</svg>
