<?xml version="1.0" encoding="utf-8"?>
<!-- Generator: Adobe Illustrator 17.0.1, SVG Export Plug-In . SVG Version: 6.00 Build 0)  -->
<!DOCTYPE svg PUBLIC "-//W3C//DTD SVG 1.1//EN" "http://www.w3.org/Graphics/SVG/1.1/DTD/svg11.dtd">
<svg version="1.1" id="Layer_1" xmlns="http://www.w3.org/2000/svg" xmlns:xlink="http://www.w3.org/1999/xlink" x="0px" y="0px"
	 width="238.639px" height="204.714px" viewBox="13.113 16.745 238.639 204.714"
	 enable-background="new 13.113 16.745 238.639 204.714" xml:space="preserve">
<g>
	<g id="Layer_1_1_">
		<g>
			<g id="Layer_1_3_">
				<g>
					<g>
						<g>
							<path fill="#FFFFFF" d="M250.845,17.958c-2.45,2.83-4.586,6.734-6.408,11.714c-1.586,5.075-2.713,8.341-3.38,9.798
								c-1.031,2.298-2.294,4.269-3.785,5.913c-1.593,1.748-3.156,2.761-4.691,3.039c-1.583,3.622-3.825,7.729-6.725,12.322
								c-4.487,7.09-9.353,13.167-14.598,18.232c-0.769-5.363-2.245-9.861-4.431-13.495c-2.696-4.453-6.205-7.022-10.524-7.708
								c-0.442-1.52-0.463-2.778-0.063-3.775c2.725-1.729,7.115-4.836,13.172-9.322c5.476-3.757,9.964-5.957,13.466-6.6
								c0.266-4.962,1.157-8.572,2.674-10.829c1.791-2.658,4.897-4.326,9.32-5.004c3.892-0.596,7.721-1.486,11.487-2.672
								C248.242,18.978,249.737,18.44,250.845,17.958z"/>
							<path fill="#FFFFFF" d="M245.729,54.197c-1.919,3.17-4.681,4.434-8.285,3.789c-1.061,3.324-4.462,8.977-10.205,16.958
								c-5.38,7.48-9.46,12.499-12.238,15.056c-1.386,0.328-2.633,0.575-3.742,0.743c0.293-1.375,0.443-3.069,0.452-5.082
								c0.018-2.172-0.133-4.401-0.452-6.685c5.245-5.065,10.11-11.142,14.598-18.232c2.899-4.593,5.142-8.701,6.725-12.322
								c1.535-0.277,3.099-1.291,4.691-3.039c1.491-1.644,2.754-3.615,3.785-5.913c0.667-1.457,1.794-4.723,3.38-9.798
								c1.822-4.98,3.958-8.884,6.408-11.714c-0.371,2.974-0.795,8.355-1.272,16.144c-0.408,6.665-0.782,10.705-1.124,12.12
								C247.525,50.06,246.619,52.718,245.729,54.197z"/>
							<path fill="#FFFFFF" d="M196.303,57.772c4.319,0.686,7.828,3.255,10.524,7.708c2.186,3.634,3.662,8.132,4.431,13.495
								c-0.436,1.118-1.37,2.628-2.805,4.533c-1.561,2.077-3.417,4.199-5.568,6.365c-0.407-0.295-0.733-0.659-0.979-1.09
								c-0.393-0.711-0.688-3.494-0.884-8.347c-0.164-3.943-0.219-7.461-0.163-10.553c0.021-1.278-0.591-3.222-1.836-5.832
								C197.475,60.823,196.567,58.73,196.303,57.772z"/>
							<path fill="#FFFFFF" d="M211.258,78.976c0.319,2.284,0.47,4.513,0.452,6.685c-0.009,2.012-0.159,3.706-0.452,5.082
								c-4.016,0.586-6.807,0.296-8.373-0.869c2.151-2.166,4.008-4.288,5.568-6.365C209.888,81.604,210.822,80.094,211.258,78.976z"
								/>
							<path fill="#FFFFFF" d="M199.023,64.052c1.245,2.61,1.857,4.554,1.836,5.832c-0.056,3.092-0.001,6.61,0.163,10.553
								c0.196,4.853,0.491,7.635,0.884,8.347c0.245,0.431,0.571,0.795,0.979,1.09c1.566,1.166,4.357,1.456,8.373,0.869
								c0.493,2.568-3.333,7.12-11.48,13.656c-3.231,2.579-6.712,5.115-10.442,7.609c-3.513,2.34-6.492,4.144-8.938,5.41
								c-4.085,2.097-7.907,6.315-11.469,12.653c-2.142,3.81-4.27,8.625-6.383,14.448c-1.076,2.966-2.447,9.492-4.113,19.58
								c-0.858,5.233-1.821,11.251-2.889,18.051c-0.548,2.836-2.69,6.259-6.428,10.268c-4.017,4.315-7.969,7.084-11.856,8.309
								c-4.097,1.29-8.145,1.698-12.143,1.227c-3.961-0.473-7.213-1.725-9.753-3.758c7.704,1.437,14.505,1.142,20.403-0.885
								c3.629-1.239,7.105-3.423,10.431-6.552c3.413-3.193,5.552-6.36,6.415-9.501c1.143-4.137,1.923-9.406,2.341-15.809
								c0.52-0.89,0.923-1.7,1.213-2.434c0.268-0.689,0.402-1.204,0.404-1.543c0.494-5.543,0.631-10.531,0.409-14.965
								c0.9-0.102,1.416-0.215,1.545-0.341l6.807-19.103l-18.799,2.522c-1.164,2.34-2.516,4.835-4.053,7.486
								c-2.84,1.862-5.446,4.002-7.821,6.42c-2.103,2.127-3.894,4.338-5.375,6.632l-2.396-1.553
								c2.151-4.127,4.254-8.523,6.308-13.188c1.021-2.331,1.828-4.25,2.419-5.755l-24.689,11.095l-0.539-1.192
								c3.996-3.533,8.128-7.25,12.397-11.148c-2.829,0.552-6.4,1.319-10.715,2.302c-6.978-2.209-15.221-2.436-24.727-0.678
								c-7.781,1.433-15.863,4.062-24.246,7.888c-1.698,0.183-4.477,1.046-8.337,2.588c-4.215,1.799-7.005,2.974-8.369,3.524
								c-2.188,0.895-4.315,1.54-6.381,1.937c-2.308,0.436-4.378,0.53-6.211,0.284c3.803-0.494,10.363-3.595,19.679-9.3
								c7.033-4.309,10.547-6.468,10.544-6.479c3.74-2.194,6.627-3.654,8.663-4.379c3.986-1.413,9.156-2.41,15.508-2.994
								c3.387-0.315,7.371-0.565,11.949-0.747c0.793-0.056,2.974-0.186,6.542-0.389c3.864-0.26,7.38-0.568,10.549-0.924
								c9.839-1.124,16.954-2.825,21.345-5.104c-2.304,1.101-8.882,1.913-19.733,2.436c-9.799,0.482-16.43,0.548-19.894,0.198
								c-1.513-0.153-4.261-0.171-8.243-0.056c-4.501,0.122-9.211,0.388-14.13,0.798c-13.275,1.092-23.663,2.819-31.164,5.18
								c-4.24,1.334-8.209,3.244-11.906,5.728c-3.602,2.441-6.633,5.211-9.096,8.311c-2.497,3.183-4.157,6.423-4.983,9.722
								c-0.873,3.495-0.738,6.806,0.403,9.933c1.177,3.2,3.34,5.341,6.488,6.42l0.022,0.011c1.089,0.384,2.339,0.625,3.751,0.726
								c4.196,0.677,7.93,0.657,11.203-0.059l0.587,2.558c-5.591,1.312-10.239,1.758-13.942,1.338
								c-5.122-0.579-8.872-2.781-11.25-6.608c-1.789-2.875-2.729-6.072-2.819-9.59c-0.086-3.774,0.825-7.493,2.734-11.157
								c4.565-8.761,13.694-15.641,27.385-20.641c11.854-4.337,30.116-7.084,54.786-8.241c1.096-0.055,9.616-0.352,25.558-0.892
								c8.221-0.264,13.525-0.663,15.912-1.196c4.981-1.096,10.232-4.892,15.754-11.388c1.635-1.919,3.56-4.419,5.773-7.501
								c2.168-2.995,3.506-4.784,4.012-5.367c2.234-2.555,3.896-4.888,4.987-6.999c0.743-1.445,1.32-3.037,1.729-4.775
								c0.465-2.023,0.81-3.312,1.035-3.867c0.571-1.415,1.548-2.848,2.931-4.3c1.16-1.2,3.402-2.5,6.727-3.897
								c3.388-1.43,5.239-2.297,5.555-2.602c1.195-1.163,2.314-1.933,3.358-2.31c1.242-0.439,2.641-0.456,4.197-0.05
								C196.567,58.73,197.475,60.823,199.023,64.052z M177.552,74.116c0.448,0.464,1.17,0.527,2.166,0.19
								c1.006-0.341,1.99-0.984,2.952-1.928c0.965-0.934,1.629-1.899,1.993-2.897c0.378-0.991,0.337-1.717-0.123-2.177
								c-0.448-0.464-1.171-0.527-2.166-0.189c-1.006,0.341-1.996,0.985-2.969,1.933c-0.965,0.934-1.629,1.899-1.993,2.897
								C177.057,72.928,177.103,73.652,177.552,74.116z"/>
							<path fill="#FFFFFF" d="M177.412,71.945c0.364-0.998,1.028-1.964,1.993-2.897c0.973-0.948,1.963-1.592,2.969-1.933
								c0.995-0.337,1.718-0.274,2.166,0.189c0.46,0.46,0.501,1.187,0.123,2.177c-0.364,0.998-1.028,1.964-1.993,2.897
								c-0.962,0.944-1.946,1.586-2.952,1.928c-0.996,0.337-1.718,0.274-2.166-0.19C177.103,73.652,177.057,72.928,177.412,71.945z
								 M180.441,71.936c0.544-0.196,1.08-0.552,1.607-1.069c0.53-0.506,0.897-1.033,1.1-1.581c0.203-0.548,0.181-0.947-0.067-1.195
								c-0.111-0.123-0.26-0.19-0.445-0.205c-0.006-0.095-0.034-0.165-0.085-0.209c-0.107-0.112-0.288-0.127-0.541-0.048
								c-0.25,0.091-0.495,0.253-0.737,0.486l-0.278,0.324c-0.229,0.157-0.476,0.356-0.739,0.596
								c-0.527,0.517-0.893,1.05-1.095,1.598c-0.191,0.545-0.164,0.941,0.084,1.19C179.495,72.082,179.895,72.12,180.441,71.936z"/>
							<path fill="#292929" d="M179.244,71.822c-0.248-0.249-0.275-0.646-0.084-1.19c0.202-0.548,0.567-1.081,1.095-1.598
								c0.264-0.24,0.51-0.439,0.739-0.596c-0.308,0.448-0.367,0.757-0.181,0.928c0.111,0.123,0.292,0.139,0.542,0.048
								c0.253-0.08,0.5-0.236,0.741-0.47c0.395-0.402,0.573-0.755,0.539-1.059c0.186,0.014,0.334,0.082,0.445,0.205
								c0.248,0.249,0.271,0.647,0.067,1.195c-0.202,0.548-0.569,1.075-1.1,1.581c-0.527,0.517-1.063,0.873-1.607,1.069
								C179.895,72.12,179.495,72.082,179.244,71.822z"/>
							<path fill="#FFFFFF" d="M182.551,67.676c0.051,0.044,0.079,0.114,0.085,0.209c-0.456-0.062-1.003,0.122-1.642,0.553
								l0.278-0.324c0.242-0.233,0.487-0.396,0.737-0.486C182.263,67.549,182.443,67.564,182.551,67.676z"/>
							<path fill="#FFFFFF" d="M180.994,68.438c0.639-0.431,1.186-0.615,1.642-0.553c0.034,0.304-0.145,0.657-0.539,1.059
								c-0.241,0.233-0.488,0.39-0.741,0.47c-0.25,0.091-0.431,0.075-0.542-0.048C180.627,69.196,180.687,68.886,180.994,68.438z"/>
							<path fill="#FFFFFF" d="M153.91,140.047c2.315-3.72,4.322-6.979,6.02-9.776c-6.207,1.01-12.024,3.277-17.451,6.802
								c1.537-2.651,2.889-5.146,4.053-7.486l18.799-2.522l-6.807,19.103c-0.129,0.126-0.645,0.239-1.545,0.341
								c-0.081-1.681-0.207-3.196-0.378-4.547l-0.243-1.521c-0.302,0.809-0.772,2.18-1.411,4.111l-0.021-0.238
								c-0.279,0.546-0.772,1.424-1.477,2.635c-1.729,0.351-3.365,0.866-4.906,1.545c1.799-2.782,3.583-5.595,5.351-8.439
								L153.91,140.047z"/>
							<path fill="#FFFFFF" d="M153.894,140.052c-3.187,0.991-6.668,3.37-10.445,7.138c-1.226,1.222-2.638,2.755-4.235,4.602
								c-2.089,2.401-3.196,3.67-3.323,3.807c-1.19,1.295-2.933,3.623-5.228,6.984c-2.997,4.478-5.388,8.052-7.175,10.721
								l-3.656-0.193c1.493-3.024,2.838-6.153,4.036-9.387c2.078-2.591,3.479-4.37,4.204-5.337
								c5.833-7.695,10.636-14.8,14.408-21.313c5.427-3.524,11.244-5.792,17.451-6.802c-1.697,2.798-3.704,6.057-6.02,9.776
								L153.894,140.052z"/>
							<path fill="#FFFFFF" d="M156.357,140.438l0.243,1.521c0.171,1.351,0.297,2.866,0.378,4.547l-1.903,0.182l-0.129-2.139
								C155.585,142.618,156.056,141.247,156.357,140.438z"/>
							<path fill="#FFFFFF" d="M139.213,151.791c1.598-1.847,3.01-3.38,4.235-4.602c3.777-3.768,7.259-6.146,10.445-7.138
								c-1.768,2.845-3.552,5.657-5.351,8.439c-5.453,2.406-10.361,6.984-14.725,13.732c-2.389,3.682-5.149,7.39-8.284,11.124
								l-2.048-0.045c1.787-2.669,4.179-6.243,7.175-10.721c2.295-3.361,4.037-5.689,5.228-6.984
								C136.017,155.461,137.124,154.192,139.213,151.791z"/>
							<polygon fill="#FFFFFF" points="154.918,144.314 154.946,144.55 154.641,145.481 							"/>
							<polygon fill="#FFFFFF" points="154.946,144.55 155.075,146.688 154.35,146.809 							"/>
							<path fill="#FFFFFF" d="M156.979,146.507c0.222,4.434,0.085,9.422-0.409,14.965c-0.002,0.339-0.137,0.854-0.404,1.543
								c-0.29,0.733-0.693,1.544-1.213,2.434c0.42-6.281,0.46-12.534,0.123-18.76L156.979,146.507z"/>
							<path fill="#FFFFFF" d="M154.174,146.827l-0.725,0.119c0.707-1.215,1.198-2.096,1.475-2.643L154.174,146.827z"/>
							<polygon fill="#FFFFFF" points="154.174,146.827 154.641,145.481 154.35,146.809 							"/>
							<path fill="#FFFFFF" d="M155.075,146.688c0.337,6.226,0.297,12.479-0.123,18.76c-1.015,1.736-2.272,3.451-3.772,5.146
								c0.169-1.155,0.643-5.032,1.422-11.633c0.65-5.471,1.233-9.522,1.748-12.153L155.075,146.688z"/>
							<path fill="#FFFFFF" d="M154.35,146.809c-0.515,2.631-1.098,6.683-1.748,12.153c-0.779,6.601-1.253,10.478-1.422,11.633
								c-1.831,2.029-3.836,3.756-6.014,5.18c-2.593,1.688-5.335,2.878-8.228,3.571c-1.408,0.334-3.242,0.584-5.502,0.751
								c2.76-3.193,5.172-6.392,7.238-9.597l0.236-0.347c2.085-1.104,3.965-2.459,5.639-4.063c1.377-1.316,2.536-2.711,3.478-4.181
								c0.893-1.396,1.941-3.638,3.147-6.729c0.839-2.141,1.839-4.925,2.999-8.353L154.35,146.809z"/>
							<path fill="#FFFFFF" d="M153.449,146.946c-2.585,4.518-7.431,12.254-14.538,23.207c-2.2,1.165-4.584,2.013-7.153,2.543
								c4.437-5.634,10.031-13.702,16.785-24.205C150.084,147.812,151.72,147.297,153.449,146.946z"/>
							<path fill="#FFFFFF" d="M154.952,165.448c-0.418,6.402-1.198,11.672-2.341,15.809c-0.863,3.141-3.002,6.308-6.415,9.501
								c-3.325,3.129-6.802,5.312-10.431,6.552c-5.898,2.026-12.7,2.321-20.403,0.885l0.238-0.165
								c0.535-0.339,1.32-0.556,2.355-0.651c0.647-0.059,1.87-0.116,3.667-0.174c4.248-0.235,8.701-1.087,13.36-2.554
								c5.375-1.691,9.371-5.051,11.99-10.075c0.875-1.68,1.635-3.632,2.278-5.856c0.338-1.195,0.73-2.657,1.18-4.384
								c0.239-0.741,0.488-1.988,0.748-3.74C152.68,168.899,153.938,167.185,154.952,165.448z"/>
							<path fill="#FFFFFF" d="M126.887,148.571c-1.939,0.03-3.969,0.621-6.088,1.771c0.428-1.369,0.822-2.559,1.183-3.567
								c1.405-4.074,2.761-7.152,4.066-9.233c-3.756,1.182-9.983,4.801-18.681,10.856c1.264-2.831,2.313-5.323,3.149-7.475
								l25.098-11.296c-0.591,1.505-1.397,3.424-2.419,5.755C131.141,140.048,129.038,144.444,126.887,148.571z"/>
							<path fill="#FFFFFF" d="M138.675,170.5c-2.066,3.205-4.479,6.403-7.238,9.597c-1.894,0.136-4.026,0.208-6.396,0.216
								c1.107-1.135,2.363-2.493,3.766-4.072c0.945-1.072,1.93-2.254,2.952-3.544c2.569-0.53,4.953-1.378,7.153-2.543L138.675,170.5
								z"/>
							<path fill="#FFFFFF" d="M129.282,150.124c-1.481,2.294-2.478,4.356-2.99,6.189c-0.646,2.333-1.454,4.803-2.425,7.409
								c-2.484,3.105-4.964,6.15-7.439,9.133l-2.975-0.28c1.183-2.164,2.202-4.331,3.056-6.5c0.805-2.058,1.307-3.692,1.506-4.905
								c0.192-1.198,0.53-2.739,1.014-4.622c0.52-2.04,1.11-4.108,1.77-6.205c2.119-1.15,4.148-1.741,6.088-1.771L129.282,150.124z"
								/>
							<path fill="#FFFFFF" d="M106.334,161.325c-1.437,2.05-3.434,5.051-5.991,9.004l-1.009-0.264
								c-1.218-0.331-2.347-0.532-3.386-0.604c1.874-2.624,3.91-6.001,6.108-10.131c1.784-3.37,3.554-7.014,5.311-10.932
								c8.698-6.056,14.925-9.675,18.681-10.856c-1.306,2.081-2.661,5.159-4.066,9.233c-3.533,1.16-7.062,3.79-10.589,7.891
								C109.902,156.395,108.216,158.614,106.334,161.325z"/>
							<path fill="#FFFFFF" d="M111.392,154.666c3.527-4.101,7.057-6.73,10.589-7.891c-0.36,1.009-0.754,2.198-1.183,3.567
								c-5.085,2.728-10.9,8.752-17.443,18.075c-0.576,0.823-1.14,1.569-1.692,2.239l-1.32-0.328
								c2.557-3.953,4.554-6.954,5.991-9.004C108.216,158.614,109.902,156.395,111.392,154.666z"/>
							<path fill="#FFFFFF" d="M131.758,172.696c-1.022,1.29-2.006,2.472-2.952,3.544c-1.403,1.579-2.659,2.938-3.766,4.072
								c-1.862,0.006-3.75-0.048-5.661-0.16c2.111-2.178,4.163-4.446,6.156-6.805C127.697,173.333,129.771,173.115,131.758,172.696z
								"/>
							<path fill="#FFFFFF" d="M114.774,131.666c-0.791-0.319-1.693-0.646-2.706-0.981c4.315-0.983,7.887-1.75,10.715-2.302
								c-4.269,3.898-8.401,7.615-12.397,11.148c-4.215,3.761-7.163,6.298-8.843,7.614c-0.154,0.012-0.65-0.201-1.49-0.639
								c-1.083-0.555-2.111-0.994-3.084-1.317c0.545-0.498,1.466-1.321,2.764-2.468c2.535-2.178,5.072-4.211,7.613-6.101
								C110.152,134.538,112.628,132.887,114.774,131.666z"/>
							<path fill="#FFFFFF" d="M83.618,138.079c2.797-0.881,6.898-2.026,12.301-3.437c5.517-1.434,10.9-2.753,16.149-3.958
								c1.013,0.335,1.916,0.662,2.706,0.981c-2.146,1.221-4.622,2.872-7.429,4.954c-2.541,1.89-5.078,3.923-7.613,6.101
								c-5.07-1.261-11.079-1.161-18.027,0.301c-3.961,0.835-8.723,2.286-14.282,4.351c-1.625,0.608-6.045,2.466-13.262,5.573
								c-6.342,2.735-10.842,4.515-13.5,5.339l-0.017,0.006c-2.095,0.114-3.951-0.148-5.569-0.789
								c0.844-0.048,3.827-1.09,8.948-3.126c2.92-1.186,5.43-2.248,7.531-3.188c4.607-2.056,9.713-4.256,15.318-6.602
								C74.765,141.278,80.347,139.109,83.618,138.079z"/>
							<path fill="#FFFFFF" d="M125.535,173.348c-1.993,2.358-4.045,4.627-6.156,6.805l-0.52-0.036
								c1.565-2.261,3.107-4.531,4.628-6.813L125.535,173.348z"/>
							<path fill="#FFFFFF" d="M30.393,202.555c2.678-0.031,5.75,0.46,9.217,1.475c3.609,1.043,6.718,2.461,9.329,4.254
								c1.003,0.688,2.255,1.645,3.753,2.868c0.876,0.704,2.34,1.896,4.394,3.574c1.539,0.544,3.25,0.828,5.135,0.853
								c1.822,0.02,3.445-0.207,4.871-0.68c24.18-8.097,43.496-19.625,57.949-34.586c2.371-0.008,4.502-0.08,6.396-0.216
								c-4.927,5.691-10.681,11.043-17.262,16.057c-6.067,4.646-12.525,8.779-19.375,12.4c-6.54,3.451-12.944,6.182-19.211,8.19
								c-8.717,2.805-15.802,4.121-21.255,3.949c-3.716-0.113-7.405-1.064-11.067-2.853c-2.633-1.29-5.408-3.007-8.322-5.152
								c-2.222-1.637-4.266-3.323-6.133-5.061c-2.186-2.023-3.364-3.129-3.532-3.318c-0.73-0.859-0.599-1.307,0.395-1.341
								C26.442,202.945,28.015,202.807,30.393,202.555z"/>
							<path fill="#FFFFFF" d="M116.428,172.855c2.475-2.982,4.955-6.027,7.439-9.133c-1.197,3.233-2.542,6.362-4.036,9.387
								L116.428,172.855z"/>
							<path fill="#FFFFFF" d="M63.54,168.896c2.761-0.651,6.141-2.163,10.139-4.535c3.372-2.019,6.843-4.431,10.415-7.237
								c1.828-1.423,3.511-2.824,5.05-4.205c1.442-1.301,2.571-2.407,3.386-3.317c1.061-1.205,2.541-2.676,4.44-4.412
								c0.973,0.323,2.001,0.763,3.084,1.317c0.84,0.438,1.336,0.65,1.49,0.639c1.68-1.316,4.627-3.854,8.843-7.614l0.539,1.192
								l-0.409,0.201c-0.836,2.151-1.885,4.644-3.149,7.475c-4.072,2.831-8.326,5.949-12.762,9.355
								c-3.647,2.795-6.431,5.009-8.35,6.642c-2.497,2.105-6.15,3.977-10.962,5.612c-3.82,1.287-6.885,2.028-9.196,2.223
								c-0.871,0.08-1.915,0.052-3.132-0.085c-1.279-0.143-2.26-0.354-2.941-0.636C58.209,170.749,59.382,169.878,63.54,168.896z"/>
							<path fill="#FFFFFF" d="M123.487,173.303c-1.521,2.282-3.063,4.553-4.628,6.813c-1.036-0.062-2.015-0.135-2.938-0.22
								c1.296-1.921,2.599-4.184,3.91-6.787L123.487,173.303z"/>
							<polygon fill="#FFFFFF" points="118.859,180.116 119.379,180.152 117.602,181.946 							"/>
							<path fill="#FFFFFF" d="M116.428,172.855l3.403,0.254c-1.311,2.604-2.614,4.866-3.91,6.787
								c-1.677-0.138-3.305-0.327-4.882-0.569C111.463,178.83,113.26,176.673,116.428,172.855z"/>
							<path fill="#FFFFFF" d="M107.414,188.059c2.124-1.213,3.901-2.584,5.333-4.112c1.06-1.132,2.118-2.482,3.174-4.05
								c0.923,0.085,1.902,0.158,2.938,0.22l-1.257,1.83c-3.736,3.706-7.471,6.994-11.204,9.864
								c-3.344,2.566-6.112,4.369-8.302,5.41c-3.188,1.524-4.698,1.823-4.529,0.899c0.165-0.863,1.386-2.077,3.666-3.643
								c0.658-0.448,1.918-1.675,3.781-3.678C103.337,190.068,105.471,189.154,107.414,188.059z"/>
							<path fill="#FFFFFF" d="M113.453,172.575l2.975,0.28c-3.168,3.817-4.964,5.975-5.389,6.472l-1.781-0.293
								C110.679,177.243,112.078,175.091,113.453,172.575z"/>
							<path fill="#FFFFFF" d="M98.136,174.564c1.331-1.351,2.506-2.653,3.528-3.907c3.412,0.803,7.342,1.442,11.789,1.918
								c-1.375,2.516-2.773,4.668-4.195,6.459c-3.557-0.647-6.18-1.462-7.869-2.443C100.138,175.847,99.053,175.172,98.136,174.564z
								"/>
							<path fill="#FFFFFF" d="M101.014,190.8c2.406-2.585,5.748-6.409,10.025-11.473c1.577,0.242,3.205,0.432,4.882,0.569
								c-1.056,1.567-2.114,2.918-3.174,4.05c-1.432,1.528-3.209,2.899-5.333,4.112C105.471,189.154,103.337,190.068,101.014,190.8z
								"/>
							<path fill="#FFFFFF" d="M104.345,183.56c1.581-0.861,3.219-2.369,4.913-4.525l1.781,0.293
								c-4.278,5.063-7.619,8.888-10.025,11.473c-2.497,0.798-4.989,1.322-7.476,1.573c-2.371,0.237-4.386,0.2-6.046-0.112
								c-2.662-0.494-3.652-1.296-2.973-2.405c0.245-0.416,0.696-0.807,1.356-1.172c0.634-0.332,1.234-0.54,1.802-0.621
								c3.459-0.472,5.705-0.816,6.738-1.032C98.322,186.212,101.632,185.055,104.345,183.56z"/>
							<path fill="#FFFFFF" d="M40.661,158.284c2.658-0.824,7.157-2.604,13.5-5.339c7.217-3.107,11.638-4.965,13.262-5.573
								c5.56-2.064,10.321-3.516,14.282-4.351c6.949-1.462,12.958-1.562,18.027-0.301c-1.297,1.146-2.219,1.97-2.764,2.468
								c-7.057-2.342-16.38-1.041-27.97,3.903c-2.77,1.162-4.836,2.019-6.2,2.568c-5.53,2.237-10.152,3.898-13.866,4.983
								C45.615,157.603,42.858,158.15,40.661,158.284z"/>
							<path fill="#FFFFFF" d="M101.664,170.657c-1.021,1.254-2.197,2.557-3.528,3.907l-0.39-0.259l2.597-3.977L101.664,170.657z"/>
							<path fill="#FFFFFF" d="M99.334,170.065l1.009,0.264l-2.597,3.977c-1.625-1.086-2.779-1.981-3.461-2.688
								c0.645-0.796,1.2-1.516,1.663-2.157C96.988,169.533,98.117,169.734,99.334,170.065z"/>
							<path fill="#FFFFFF" d="M97.746,174.306l0.39,0.259c-0.702,0.693-1.189,1.161-1.464,1.405L97.746,174.306z"/>
							<path fill="#FFFFFF" d="M71.282,188.702c1.718-0.541,4.87-2.411,9.456-5.61c4.97-3.477,8.993-6.753,12.068-9.827
								c0.457-0.471,0.95-1.02,1.479-1.646c0.682,0.706,1.835,1.602,3.461,2.688l-1.074,1.664c-3.74,3.502-8.012,6.698-12.814,9.591
								c-4.247,2.547-7.956,4.32-11.127,5.318c-3.403,1.071-4.971,1.129-4.703,0.173c0.09-0.367,0.46-0.786,1.111-1.257
								C69.807,189.306,70.522,188.941,71.282,188.702z"/>
							<path fill="#FFFFFF" d="M94.285,171.618c-0.883-0.884-1.103-1.505-0.659-1.862c0.37-0.286,1.144-0.384,2.322-0.295
								C95.485,170.103,94.93,170.822,94.285,171.618z"/>
							<path fill="#FFFFFF" d="M53.979,160.502c3.056-1.022,5.833-1.661,8.331-1.914c5.147-0.531,8.959-1.15,11.436-1.857
								c5.104-1.474,8.176-3.754,9.213-6.841c2.698,0.301,3.948,1.063,3.752,2.287c-0.178,1.012-1.335,2.297-3.472,3.853
								c-1.616,1.175-3.617,2.392-6.005,3.652c-2.73,1.44-7.188,2.644-13.372,3.61c-3.405,0.49-5.942,0.871-7.612,1.143
								c-2.9,0.478-5.304,0.974-7.212,1.49c-1.435,0.403-2.554,0.713-3.357,0.93c-1.438,0.392-2.706,0.712-3.801,0.961l-0.587-2.558
								c1.462-0.315,2.873-0.777,4.23-1.387C48.693,162.438,51.511,161.315,53.979,160.502z"/>
							<path fill="#FFFFFF" d="M63.499,153.365c6.111-2.469,11.655-3.682,16.632-3.638c1.004-0.002,1.947,0.053,2.829,0.162
								c-1.038,3.087-4.109,5.367-9.213,6.841c-2.477,0.707-6.289,1.326-11.436,1.857c-2.499,0.253-5.275,0.892-8.331,1.914
								c-2.468,0.813-5.286,1.937-8.454,3.369c-1.358,0.609-2.768,1.071-4.23,1.387c-3.273,0.716-7.007,0.735-11.203,0.059
								c3.213,0.248,6.916-0.259,11.107-1.518c3.064-0.916,5.747-1.99,8.046-3.223c0.955-0.507,2.91-1.582,5.866-3.227
								C58.114,155.738,60.91,154.41,63.499,153.365z"/>
							<path fill="#FFFFFF" d="M33.796,146.228c1.833,0.246,3.903,0.151,6.211-0.284c2.066-0.396,4.193-1.042,6.381-1.937
								c1.364-0.551,4.154-1.726,8.369-3.524c3.86-1.542,6.639-2.405,8.337-2.588l-1.551,0.724c-1.635,0.77-3.519,1.707-5.651,2.814
								c-4.263,2.226-7.619,4.196-10.069,5.911c-1.341,0.931-2.595,1.641-3.761,2.129c-2.181,0.916-3.994,1.118-5.438,0.604
								C35.096,149.529,34.153,148.246,33.796,146.228z"/>
						</g>
						<g>
							<path fill="none" stroke="#292929" stroke-width="1.5" d="M101.664,170.657c0.552-0.67,1.116-1.416,1.692-2.239
								c6.543-9.323,12.358-15.348,17.443-18.075"/>
							<path fill="none" stroke="#292929" stroke-width="1.5" d="M94.285,171.618c-0.529,0.627-1.022,1.176-1.479,1.646
								c-3.076,3.074-7.098,6.351-12.068,9.827c-4.586,3.199-7.738,5.069-9.456,5.61c-0.76,0.239-1.475,0.604-2.144,1.093
								c-0.651,0.471-1.021,0.89-1.111,1.257c-0.268,0.956,1.3,0.898,4.703-0.173c3.172-0.998,6.881-2.771,11.127-5.318
								c4.803-2.893,9.075-6.089,12.814-9.591c0.274-0.244,0.762-0.712,1.464-1.405"/>
							<path fill="none" stroke="#292929" stroke-width="1.5" d="M107.367,148.398c-1.756,3.918-3.527,7.562-5.311,10.932
								c-2.198,4.13-4.234,7.507-6.108,10.131"/>
							<path fill="none" stroke="#292929" stroke-width="1.5" d="M100.343,170.329c2.557-3.953,4.554-6.954,5.991-9.004
								c1.882-2.711,3.568-4.931,5.058-6.659c3.527-4.101,7.057-6.73,10.589-7.891"/>
							<line fill="none" stroke="#292929" stroke-width="1.5" x1="96.672" y1="175.97" x2="97.746" y2="174.306"/>
							<line fill="none" stroke="#292929" stroke-width="1.5" x1="153.449" y1="146.946" x2="154.174" y2="146.827"/>
							<path fill="none" stroke="#292929" stroke-width="1.5" d="M125.535,173.348c3.134-3.734,5.895-7.442,8.284-11.124
								c4.363-6.748,9.271-11.326,14.725-13.732"/>
							<path fill="none" stroke="#292929" stroke-width="1.5" d="M101.014,190.8c-1.863,2.003-3.124,3.229-3.781,3.678
								c-2.279,1.565-3.501,2.779-3.666,3.643c-0.169,0.924,1.341,0.625,4.529-0.899c2.19-1.041,4.958-2.844,8.302-5.41
								c3.733-2.87,7.467-6.158,11.204-9.864l1.777-1.794"/>
							<path fill="none" stroke="#292929" stroke-width="1.5" d="M142.479,137.072c-3.772,6.514-8.575,13.618-14.408,21.313
								c-0.725,0.967-2.126,2.746-4.204,5.337"/>
							<path fill="none" stroke="#292929" stroke-width="1.5" d="M123.487,173.303c1.787-2.669,4.179-6.243,7.175-10.721
								c2.295-3.361,4.037-5.689,5.228-6.984c0.127-0.137,1.234-1.405,3.323-3.807c1.598-1.847,3.01-3.38,4.235-4.602
								c3.777-3.768,7.259-6.146,10.445-7.138"/>
							<line fill="none" stroke="#292929" stroke-width="1.5" x1="117.602" y1="181.946" x2="118.859" y2="180.116"/>
							<path fill="none" stroke="#292929" stroke-width="1.5" d="M131.437,180.097c2.26-0.167,4.094-0.417,5.502-0.751
								c2.893-0.693,5.635-1.884,8.228-3.571c2.178-1.424,4.183-3.15,6.014-5.18"/>
							<path fill="none" stroke="#292929" stroke-width="1.5" d="M115.921,179.896c0.923,0.085,1.902,0.158,2.938,0.22l0.52,0.036
								c1.912,0.112,3.799,0.166,5.661,0.16"/>
							<path fill="none" stroke="#292929" stroke-width="1.5" d="M113.453,172.575c-4.447-0.476-8.377-1.115-11.789-1.918
								l-2.329-0.592c-1.218-0.331-2.347-0.532-3.386-0.604c-1.178-0.089-1.952,0.009-2.322,0.295
								c-0.444,0.357-0.224,0.979,0.659,1.862c0.682,0.706,1.835,1.602,3.461,2.688l0.39,0.259c0.917,0.607,2.002,1.282,3.253,2.026
								c1.688,0.981,4.312,1.796,7.869,2.443"/>
							<path fill="none" stroke="#292929" stroke-width="1.5" d="M131.758,172.696c-1.986,0.419-4.061,0.637-6.223,0.651
								l-5.704-0.238"/>
							<path fill="none" stroke="#292929" stroke-width="1.5" d="M154.641,145.481l-0.467,1.346c-1.16,3.428-2.16,6.212-2.999,8.353
								c-1.206,3.092-2.255,5.334-3.147,6.729c-0.941,1.47-2.101,2.864-3.478,4.181c-1.674,1.604-3.554,2.959-5.639,4.063"/>
							<path fill="none" stroke="#292929" stroke-width="1.5" d="M40.661,158.284c2.197-0.134,4.954-0.682,8.271-1.641
								c3.714-1.085,8.336-2.746,13.866-4.983c1.364-0.55,3.431-1.406,6.2-2.568c11.59-4.944,20.913-6.245,27.97-3.903"/>
							<path fill="none" stroke="#292929" stroke-width="1.5" d="M112.068,130.685c-5.25,1.205-10.633,2.524-16.149,3.958
								c-5.403,1.41-9.503,2.556-12.301,3.437c-3.271,1.03-8.853,3.199-16.745,6.507c-5.605,2.346-10.711,4.546-15.318,6.602
								c-2.101,0.939-4.611,2.002-7.531,3.188c-5.121,2.036-8.104,3.078-8.948,3.126c1.618,0.641,3.474,0.903,5.569,0.789"/>
							<path fill="none" stroke="#292929" stroke-width="1.5" d="M196.303,57.772c-0.442-1.52-0.463-2.778-0.063-3.775
								c2.725-1.729,7.115-4.836,13.172-9.322c5.476-3.757,9.964-5.957,13.466-6.6c0.266-4.962,1.157-8.572,2.674-10.829
								c1.791-2.658,4.897-4.326,9.32-5.004c3.892-0.596,7.721-1.486,11.487-2.672c1.884-0.593,3.379-1.13,4.486-1.612
								c-0.371,2.974-0.795,8.355-1.272,16.144c-0.408,6.665-0.782,10.705-1.124,12.12c-0.923,3.837-1.829,6.496-2.72,7.974
								c-1.919,3.17-4.681,4.434-8.285,3.789c-1.061,3.324-4.462,8.977-10.205,16.958c-5.38,7.48-9.46,12.499-12.238,15.056
								c-1.386,0.328-2.633,0.575-3.742,0.743"/>
							<path fill="none" stroke="#292929" stroke-width="1.5" d="M26.34,164.591c1.433,0.323,2.684,0.565,3.751,0.726"/>
							<path fill="none" stroke="#292929" stroke-width="1.5" d="M40.661,158.284c2.658-0.824,7.157-2.604,13.5-5.339
								c7.217-3.107,11.638-4.965,13.262-5.573c5.56-2.064,10.321-3.516,14.282-4.351c6.949-1.462,12.958-1.562,18.027-0.301"/>
							<path fill="none" stroke="#292929" stroke-width="1.5" d="M154.924,144.304c-0.276,0.547-0.768,1.428-1.475,2.643
								c-2.585,4.518-7.431,12.254-14.538,23.207l-0.236,0.347c-2.066,3.205-4.479,6.403-7.238,9.597
								c-4.927,5.691-10.681,11.043-17.262,16.057c-6.067,4.646-12.525,8.779-19.375,12.4c-6.54,3.451-12.944,6.182-19.211,8.19
								c-8.717,2.805-15.802,4.121-21.255,3.949c-3.716-0.113-7.405-1.064-11.067-2.853c-2.633-1.29-5.408-3.007-8.322-5.152
								c-2.222-1.637-4.266-3.323-6.133-5.061c-2.186-2.023-3.364-3.129-3.532-3.318c-0.73-0.859-0.599-1.307,0.395-1.341
								c0.768-0.023,2.34-0.162,4.718-0.414c2.678-0.031,5.75,0.46,9.217,1.475c3.609,1.043,6.718,2.461,9.329,4.254
								c1.003,0.688,2.255,1.645,3.753,2.868c0.876,0.704,2.34,1.896,4.394,3.574c1.539,0.544,3.25,0.828,5.135,0.853
								c1.822,0.02,3.445-0.207,4.871-0.68c24.18-8.097,43.496-19.625,57.949-34.586c1.107-1.135,2.363-2.493,3.766-4.072
								c0.945-1.072,1.93-2.254,2.952-3.544c4.437-5.634,10.031-13.702,16.785-24.205c1.799-2.782,3.583-5.595,5.351-8.439
								l0.017-0.005c2.315-3.72,4.322-6.979,6.02-9.776c-6.207,1.01-12.024,3.277-17.451,6.802c-2.84,1.862-5.446,4.002-7.821,6.42
								c-2.103,2.127-3.894,4.338-5.375,6.632s-2.478,4.356-2.99,6.189c-0.646,2.333-1.454,4.803-2.425,7.409
								c-1.197,3.233-2.542,6.362-4.036,9.387c-1.311,2.604-2.614,4.866-3.91,6.787c-1.056,1.567-2.114,2.918-3.174,4.05
								c-1.432,1.528-3.209,2.899-5.333,4.112c-1.943,1.096-4.077,2.01-6.4,2.741c-2.497,0.798-4.989,1.322-7.476,1.573
								c-2.371,0.237-4.386,0.2-6.046-0.112c-2.662-0.494-3.652-1.296-2.973-2.405c0.245-0.416,0.696-0.807,1.356-1.172
								c0.634-0.332,1.234-0.54,1.802-0.621c3.459-0.472,5.705-0.816,6.738-1.032c3.907-0.818,7.217-1.976,9.93-3.471
								c1.581-0.861,3.219-2.369,4.913-4.525c1.421-1.791,2.82-3.943,4.195-6.459c1.183-2.164,2.202-4.331,3.056-6.5
								c0.805-2.058,1.307-3.692,1.506-4.905c0.192-1.198,0.53-2.739,1.014-4.622c0.52-2.04,1.11-4.108,1.77-6.205
								c0.428-1.369,0.822-2.559,1.183-3.567c1.405-4.074,2.761-7.152,4.066-9.233c-3.756,1.182-9.983,4.801-18.681,10.856
								c-4.072,2.831-8.326,5.949-12.762,9.355c-3.647,2.795-6.431,5.009-8.35,6.642c-2.497,2.105-6.15,3.977-10.962,5.612
								c-3.82,1.287-6.885,2.028-9.196,2.223c-0.871,0.08-1.915,0.052-3.132-0.085c-1.279-0.143-2.26-0.354-2.941-0.636
								c-1.813-0.761-0.641-1.632,3.517-2.614c2.761-0.651,6.141-2.163,10.139-4.535c3.372-2.019,6.843-4.431,10.415-7.237
								c1.828-1.423,3.511-2.824,5.05-4.205c1.442-1.301,2.571-2.407,3.386-3.317c1.061-1.205,2.541-2.676,4.44-4.412
								c0.545-0.498,1.466-1.321,2.764-2.468c2.535-2.178,5.072-4.211,7.613-6.101c2.807-2.082,5.283-3.733,7.429-4.954
								c-0.791-0.319-1.693-0.646-2.706-0.981c-6.978-2.209-15.221-2.436-24.727-0.678c-7.781,1.433-15.863,4.062-24.246,7.888
								l-1.551,0.724c-1.635,0.77-3.519,1.707-5.651,2.814c-4.263,2.226-7.619,4.196-10.069,5.911
								c-1.341,0.931-2.595,1.641-3.761,2.129c-2.181,0.916-3.994,1.118-5.438,0.604c-1.528-0.548-2.471-1.831-2.828-3.85
								c3.803-0.494,10.363-3.595,19.679-9.3c7.033-4.309,10.547-6.468,10.544-6.479c3.74-2.194,6.627-3.654,8.663-4.379
								c3.986-1.413,9.156-2.41,15.508-2.994c3.387-0.315,7.371-0.565,11.949-0.747c0.793-0.056,2.974-0.186,6.542-0.389
								c3.864-0.26,7.38-0.568,10.549-0.924c9.839-1.124,16.954-2.825,21.345-5.104"/>
							<path fill="none" stroke="#292929" stroke-width="1.5" d="M138.798,115.805l-0.222,0.106
								c-2.304,1.101-8.882,1.913-19.733,2.436c-9.799,0.482-16.43,0.548-19.894,0.198c-1.513-0.153-4.261-0.171-8.243-0.056
								c-4.501,0.122-9.211,0.388-14.13,0.798c-13.275,1.092-23.663,2.819-31.164,5.18c-4.24,1.334-8.209,3.244-11.906,5.728
								c-3.602,2.441-6.633,5.211-9.096,8.311c-2.497,3.183-4.157,6.423-4.983,9.722c-0.873,3.495-0.738,6.806,0.403,9.933
								c1.177,3.2,3.34,5.341,6.488,6.42l0.022,0.011c1.089,0.384,2.339,0.625,3.751,0.726c3.213,0.248,6.916-0.259,11.107-1.518
								c3.064-0.916,5.747-1.99,8.046-3.223c0.955-0.507,2.91-1.582,5.866-3.227c3.003-1.611,5.799-2.939,8.388-3.984
								c6.111-2.469,11.655-3.682,16.632-3.638c1.004-0.002,1.947,0.053,2.829,0.162c2.698,0.301,3.948,1.063,3.752,2.287
								c-0.178,1.012-1.335,2.297-3.472,3.853c-1.616,1.175-3.617,2.392-6.005,3.652c-2.73,1.44-7.188,2.644-13.372,3.61
								c-3.405,0.49-5.942,0.871-7.612,1.143c-2.9,0.478-5.304,0.974-7.212,1.49c-1.435,0.403-2.554,0.713-3.357,0.93
								c-1.438,0.392-2.706,0.712-3.801,0.961c-5.591,1.312-10.239,1.758-13.942,1.338c-5.122-0.579-8.872-2.781-11.25-6.608
								c-1.789-2.875-2.729-6.072-2.819-9.59c-0.086-3.774,0.825-7.493,2.734-11.157c4.565-8.761,13.694-15.641,27.385-20.641
								c11.854-4.337,30.116-7.084,54.786-8.241c1.096-0.055,9.616-0.352,25.558-0.892c8.221-0.264,13.525-0.663,15.912-1.196
								c4.981-1.096,10.232-4.892,15.754-11.388c1.635-1.919,3.56-4.419,5.773-7.501c2.168-2.995,3.506-4.784,4.012-5.367
								c2.234-2.555,3.896-4.888,4.987-6.999c0.743-1.445,1.32-3.037,1.729-4.775c0.465-2.023,0.81-3.312,1.035-3.867
								c0.571-1.415,1.548-2.848,2.931-4.3c1.16-1.2,3.402-2.5,6.727-3.897c3.388-1.43,5.239-2.297,5.555-2.602
								c1.195-1.163,2.314-1.933,3.358-2.31c1.242-0.439,2.641-0.456,4.197-0.05c4.319,0.686,7.828,3.255,10.524,7.708
								c2.186,3.634,3.662,8.132,4.431,13.495c0.319,2.284,0.47,4.513,0.452,6.685c-0.009,2.012-0.159,3.706-0.452,5.082
								c0.493,2.568-3.333,7.12-11.48,13.656c-3.231,2.579-6.712,5.115-10.442,7.609c-3.513,2.34-6.492,4.144-8.938,5.41
								c-4.085,2.097-7.907,6.315-11.469,12.653c-2.142,3.81-4.27,8.625-6.383,14.448c-1.076,2.966-2.447,9.492-4.113,19.58
								c-0.858,5.233-1.821,11.251-2.889,18.051c-0.548,2.836-2.69,6.259-6.428,10.268c-4.017,4.315-7.969,7.084-11.856,8.309
								c-4.097,1.29-8.145,1.698-12.143,1.227c-3.961-0.473-7.213-1.725-9.753-3.758l0.238-0.165
								c0.535-0.339,1.32-0.556,2.355-0.651c0.647-0.059,1.87-0.116,3.667-0.174c4.248-0.235,8.701-1.087,13.36-2.554
								c5.375-1.691,9.371-5.051,11.99-10.075c0.875-1.68,1.635-3.632,2.278-5.856c0.338-1.195,0.73-2.657,1.18-4.384
								c0.239-0.741,0.488-1.988,0.748-3.74c0.169-1.155,0.643-5.032,1.422-11.633c0.65-5.471,1.233-9.522,1.748-12.153l0.574-2.505
								"/>
							<path fill="none" stroke="#292929" stroke-width="1.5" d="M177.552,74.116c0.448,0.464,1.17,0.527,2.166,0.19
								c1.006-0.341,1.99-0.984,2.952-1.928c0.965-0.934,1.629-1.899,1.993-2.897c0.378-0.991,0.337-1.717-0.123-2.177
								c-0.448-0.464-1.171-0.527-2.166-0.189c-1.006,0.341-1.996,0.985-2.969,1.933c-0.965,0.934-1.629,1.899-1.993,2.897
								C177.057,72.928,177.103,73.652,177.552,74.116z"/>
							<path fill="none" stroke="#292929" stroke-width="1.5" stroke-linecap="round" d="M250.845,17.958
								c-2.45,2.83-4.586,6.734-6.408,11.714c-1.586,5.075-2.713,8.341-3.38,9.798c-1.031,2.298-2.294,4.269-3.785,5.913
								c-1.593,1.748-3.156,2.761-4.691,3.039c-1.583,3.622-3.825,7.729-6.725,12.322c-4.487,7.09-9.353,13.167-14.598,18.232
								c-0.436,1.118-1.37,2.628-2.805,4.533c-1.561,2.077-3.417,4.199-5.568,6.365c-2.889,2.895-5.927,5.492-9.113,7.791
								c-3.727,2.662-7.42,4.732-11.082,6.212c-3.085,1.237-6.254,3.342-9.506,6.315c-1.495,1.366-3.23,3.178-5.208,5.435"/>
						</g>
					</g>
				</g>
			</g>
		</g>
	</g>
</g>
</svg>
