<?xml version="1.0" encoding="utf-8"?>
<!-- Generator: Adobe Illustrator 17.0.1, SVG Export Plug-In . SVG Version: 6.00 Build 0)  -->
<!DOCTYPE svg PUBLIC "-//W3C//DTD SVG 1.1//EN" "http://www.w3.org/Graphics/SVG/1.1/DTD/svg11.dtd">
<svg version="1.1" id="Layer_1" xmlns="http://www.w3.org/2000/svg" xmlns:xlink="http://www.w3.org/1999/xlink" x="0px" y="0px"
	 width="227.169px" height="231.817px" viewBox="13.568 17.167 227.169 231.817"
	 enable-background="new 13.568 17.167 227.169 231.817" xml:space="preserve">
<g>
	<g id="Layer_1_1_">
		<g>
			<g id="Layer_1_3_">
				<g>
					<g>
						<path fill="#FFFFFF" stroke="#000000" stroke-miterlimit="10" d="M151.88,31.421c0.439,0.616,0.616,1.552,0.527,2.809
							c-0.05,0.678-0.176,1.539-0.377,2.582c-0.037,0.339-0.15,0.886-0.339,1.64c-0.163,0.628-0.245,1.1-0.245,1.414
							c0,0.39,0.069,0.892,0.207,1.508c0.013,0.062,0.188,0.779,0.528,2.148c0.176,0.678,0.214,1.143,0.112,1.395
							c-0.313,0.779-0.496,1.281-0.546,1.507c-0.139,0.628-0.308,1.105-0.509,1.433c-0.101,0.164-0.126,0.415-0.075,0.754
							c0.088,0.641,0.081,1.728-0.02,3.26c-0.113,1.734-0.301,2.934-0.565,3.6c-0.238,0.59-0.308,1.225-0.207,1.903
							c0.062,0.402,0.183,1.074,0.358,2.017c0.05,0.641-0.044,1.125-0.283,1.451c-0.401,0.402-0.747,0.842-1.036,1.319
							c-0.377,0.641-0.578,1.225-0.604,1.753c0,0.088,0.057,0.672,0.17,1.752c0.15,1.445,0.05,3.191-0.302,5.239
							c-0.088,0.591-0.264,1.433-0.527,2.525c-0.101,1.005,0.125,2.061,0.678,3.167c0.528,1.042,0.49,2.946-0.112,5.71
							c-0.792,3.694-1.193,5.629-1.206,5.805c-0.063,1.27,0.006,2.174,0.207,2.714c0.088,0.239,0.559,1.03,1.413,2.375
							c1.973,3.179,3.418,5.409,4.335,6.69c2.425,3.417,4.379,5.466,5.861,6.144c1.471,0.678,5.051,1.118,10.742,1.319
							c2.3,0.088,5.812,0.132,10.536,0.132c2.299,0,4.925-0.044,7.877-0.132c3.833-0.113,6.452-0.264,7.859-0.452
							c0.817-0.113,1.929-0.214,3.336-0.302c0.93-0.076,1.859-0.22,2.79-0.434c1.494-0.352,2.337-0.546,2.525-0.584
							c0.553-0.088,1.356-0.132,2.412-0.132c1.193,0,1.935-0.019,2.224-0.057c0.327-0.037,0.704-0.163,1.131-0.376
							c0.314-0.164,0.635-0.295,0.961-0.396c0.478-0.15,0.937-0.314,1.376-0.49c0.604-0.239,1.169-0.358,1.696-0.358
							c0.352,0,1.1,0.025,2.243,0.076c0.917,0,1.614,0.094,2.092,0.283c0.302,0.125,0.816,0.371,1.546,0.735
							c0.603,0.239,1.111,0.258,1.526,0.057c0.264-0.138,0.772-0.452,1.526-0.942c0.591-0.289,1.012-0.371,1.263-0.245
							c0.565,0.251,0.873,0.383,0.924,0.396c0.339,0.05,0.816,0.188,1.432,0.415c0.653,0.176,1.395,0.232,2.224,0.169
							c0.679-0.05,0.987-0.057,0.924-0.019c-0.176,0.113-0.05,0.22,0.377,0.32c0.591,0.125,1.351,0.427,2.28,0.905
							c0.717,0.364,1.37,0.741,1.96,1.13c0.34,0.226,0.849,0.666,1.527,1.32c1.067,1.042,1.721,1.671,1.96,1.884
							c0.628,0.565,1.049,1.539,1.263,2.921c0.15,1.03,0.169,1.903,0.057,2.62c-0.101,0.553-0.396,1.57-0.886,3.053
							c-0.188,0.553-0.503,0.942-0.942,1.168c-0.679,0.251-1.288,0.496-1.828,0.735c-0.83,0.377-1.389,0.672-1.678,0.886
							c-0.326,0.251-0.735,0.729-1.225,1.433c-0.616,0.892-1.074,1.482-1.376,1.771c-0.49,0.465-1.1,0.798-1.828,0.999
							c-1.27,0.39-2.337,0.685-3.204,0.886c-0.565,0.125-1.056,0.301-1.47,0.527c-0.428,0.276-0.767,0.49-1.018,0.641
							c-0.302,0.176-0.635,0.502-0.999,0.98c-0.402,0.553-0.697,0.949-0.886,1.188c-0.252,0.314-0.698,0.685-1.338,1.111
							c-0.817,0.528-1.445,0.937-1.885,1.226c-0.528,0.364-1.207,0.527-2.036,0.489c-1.105-0.125-2.073-0.188-2.902-0.188
							c-1.005,0-1.702,0.138-2.092,0.414c-0.314,0.352-0.641,0.604-0.98,0.754c-1.721,0.741-3.034,1.226-3.938,1.451
							c-0.352,0.088-1.012,0.214-1.979,0.377c-1.019,0.176-1.859,0.34-2.526,0.49c-0.703,0.163-1.237,0.496-1.602,0.999
							c-0.578,0.804-1.112,1.395-1.602,1.771c-0.842,0.653-1.848,1.087-3.016,1.3c-0.528,0.101-1.709,0.202-3.544,0.302
							c-1.155,0.062-2.003,0.208-2.544,0.434c-0.778,0.439-1.583,0.88-2.412,1.319c-1.03,0.553-3.01,1.438-5.937,2.657
							c-3.33,1.395-5.629,2.356-6.898,2.884c-1.834,0.779-3.863,1.941-6.087,3.486c-2.148,1.495-3.713,2.809-4.693,3.939
							c-0.892,1.03-1.583,2.751-2.073,5.164c-0.452,2.174-0.634,4.291-0.546,6.352c0,0.012-0.019,2.349-0.057,7.011
							c-0.025,3.065,0.138,5.151,0.489,6.257c0.277,0.854,0.616,2.306,1.019,4.354c0.326,1.722,0.622,2.84,0.886,3.354
							c0.339,0.691,0.565,1.552,0.679,2.582c0.112,0.905,0.125,1.797,0.037,2.677c-0.062,0.754,0.006,1.307,0.207,1.658
							c0.126,0.226,0.591,0.741,1.396,1.545c0.678,0.666,1.049,1.075,1.111,1.226c0.088,0.176,0.207,0.691,0.358,1.545
							c0.138,0.591,0.194,1.194,0.17,1.81c-0.025,0.465,0.062,0.93,0.264,1.395c0.313,0.704,0.509,1.231,0.584,1.583
							c0.101,0.44,0.15,1.081,0.15,1.923c0,0.779,0.113,1.501,0.34,2.167c0.113,0.314,0.483,1.144,1.111,2.488
							c0.377,0.804,0.635,1.733,0.773,2.789c0.163,1.294,0.339,2.256,0.527,2.884c0.264,0.854,0.276,1.433,0.038,1.733
							c-0.289,0.352-0.396,0.748-0.321,1.188c0.139,0.704,0.327,1.288,0.565,1.753c0.089,0.138,0.384,0.578,0.887,1.319
							c0.251,0.339,0.571,0.729,0.961,1.169c0.326,0.439,0.641,1.018,0.942,1.733c0.289,0.716,0.333,1.275,0.132,1.677
							c-0.113,0.252-0.352,0.667-0.717,1.244c-0.188,0.503-0.144,0.949,0.133,1.339c0.176,0.251,0.615,0.729,1.319,1.432
							c0.439,0.49,0.553,1.188,0.339,2.092c-0.289,1.194-0.402,1.998-0.339,2.413c0.125,0.716,0.138,1.263,0.037,1.64
							c-0.062,0.227-0.17,0.559-0.32,0.999c-0.289,1.658-0.434,2.82-0.434,3.486c0,0.679-0.39,1.941-1.168,3.788l-0.962,0.829
							c-0.804,0.653-1.602,1.25-2.394,1.791c-0.778,0.54-1.488,0.69-2.129,0.452c-0.717-0.39-1.319-0.635-1.81-0.735
							c-0.276-0.062-0.823-0.126-1.64-0.188c-0.49-0.037-0.961-0.17-1.414-0.396c-0.729-0.364-1.464-0.829-2.205-1.395
							c-0.93-0.716-1.558-1.37-1.884-1.961c-0.265-0.477-0.585-0.716-0.962-0.716c-0.478,0-0.835-0.101-1.074-0.302
							c-0.767-0.641-1.495-1.658-2.186-3.053c-0.239-0.49-0.56-0.854-0.962-1.093c-0.666-0.34-1.318-0.704-1.96-1.094
							c-0.791-0.489-1.312-1.062-1.563-1.715c-0.164-0.804-0.321-1.451-0.472-1.941c-0.176-0.59-0.604-1.25-1.281-1.979
							c-0.792-0.767-1.339-1.319-1.64-1.658c-0.428-0.503-0.697-0.993-0.811-1.471c-0.113-0.465-0.132-1.143-0.057-2.035
							c0.062-0.666-0.163-1.182-0.679-1.545c-1.03-0.767-1.728-1.363-2.092-1.791c-0.767-0.892-1.382-1.897-1.847-3.016
							c-0.126-0.326-0.478-1.363-1.056-3.109c-0.289-0.88-0.741-1.59-1.357-2.13c-1.319-1.193-1.984-1.797-1.997-1.809
							c-0.717-0.779-1.207-1.401-1.471-1.866c0-0.013-0.339-0.748-1.018-2.205c-0.565-1.206-1.312-2.551-2.242-4.033
							c-1.043-1.671-2.042-3.047-2.997-4.128c-0.792-0.917-1.237-1.57-1.338-1.96c-0.226-0.967-0.414-1.627-0.565-1.979
							c-0.414-0.955-1.306-2.299-2.676-4.033c-1.508-1.821-2.507-3.054-2.997-3.694c-0.968-1.231-2.331-2.676-4.09-4.335
							c-2.124-1.997-3.776-3.223-4.957-3.675c-1.018-0.39-2.08-0.49-3.186-0.302c-2.01,0.364-3.323,0.56-3.938,0.585
							c-1.571,0.062-2.752,0.313-3.543,0.754c-0.101,0.05-0.622,0.478-1.564,1.281c-0.414,0.364-1.791,1.137-4.127,2.318
							c-1.257,0.653-2.991,1.532-5.202,2.639c-2.387,1.281-4.234,2.983-5.541,5.107c-0.49,0.791-1.012,1.413-1.564,1.865
							c-0.339,0.289-0.936,0.735-1.791,1.339c-0.578,0.464-1.338,0.948-2.28,1.45c-1.545,0.805-2.387,1.244-2.525,1.319
							c-0.704,0.415-1.175,0.867-1.414,1.357c-0.151,0.289-0.409,0.811-0.773,1.564c-0.327,0.49-0.741,0.86-1.244,1.111
							c-0.98,0.466-1.728,0.867-2.243,1.207c-0.804,0.54-1.47,1.074-1.998,1.602c-0.49,0.49-0.892,0.836-1.206,1.036
							c-1.571,0.968-2.739,1.841-3.505,2.62c-0.364,0.364-0.609,0.785-0.735,1.263c-0.062,0.276-0.157,0.729-0.283,1.357
							c-0.138,0.452-0.364,0.69-0.678,0.716c-0.088,0-0.641-0.095-1.658-0.282c-0.691-0.126-1.231-0.007-1.621,0.357
							c-0.251,0.227-0.685,0.741-1.3,1.546c-0.427,0.489-0.641,0.974-0.641,1.451c0,0.641-0.075,1.124-0.226,1.451
							c-0.251,0.553-0.641,0.81-1.168,0.772c-0.679-0.176-1.212-0.289-1.602-0.339c-0.452-0.051-0.98,0.132-1.583,0.546
							c-1.194,0.805-1.979,1.307-2.356,1.508c-1.005,0.54-1.614,0.849-1.828,0.924l-1.376,0.377
							c-0.678,0.188-1.206,0.302-1.583,0.339c-0.49,0.025-0.98,0.057-1.47,0.095c-0.541,0.05-1.269,0.207-2.187,0.471
							c-1.193,0.352-2.066,0.584-2.62,0.697c-0.879,0.201-1.533,0.145-1.96-0.169c-0.44-0.516-0.811-0.942-1.112-1.282
							c-0.251-0.289-0.622-0.597-1.112-0.924c-0.478-0.313-0.93-0.734-1.357-1.263c-0.59-0.74-0.98-1.42-1.168-2.035
							c-0.188-0.641-0.138-1.175,0.151-1.602c0.289-0.439,0.634-1.37,1.037-2.79c0.402-1.407,0.641-2.519,0.716-3.335
							c-0.025-0.942-0.044-1.646-0.056-2.111c-0.025-0.816,0.138-1.665,0.49-2.544c0.327-0.829,0.647-1.319,0.961-1.471
							c0.327-0.15,0.54-0.345,0.641-0.584l0.377-1.244c0.151-0.502,0.459-1.105,0.923-1.809c0.44-0.653,0.817-1.138,1.131-1.451
							c0.239-0.239,0.396-0.434,0.471-0.585c0.076-0.138,0.088-0.496,0.038-1.074c-0.038-0.628,0.051-1.243,0.264-1.847
							c0.201-0.553,0.672-1.056,1.414-1.508c0.779-0.478,1.281-0.948,1.508-1.413c0.289-0.591,0.697-1.2,1.225-1.828
							c0.691-0.767,1.25-1.42,1.678-1.96c1.005-1.144,1.753-2.018,2.243-2.62c0.892-1.08,1.458-1.954,1.696-2.62
							c0.615-1.671,1.489-3.272,2.62-4.806c0.478-0.641,1.319-1.57,2.525-2.789c1.37-1.395,2.281-2.362,2.733-2.902
							c0.59-0.69,1.351-1.489,2.28-2.394c1.093-1.081,1.885-1.885,2.375-2.412c0.553-0.591,1.175-1.401,1.866-2.432
							c0.666-1.018,1.357-1.903,2.073-2.657c1.056-1.131,2.205-2.607,3.449-4.429c1.307-1.897,2.243-3.487,2.808-4.769
							c0.528-1.193,0.905-3.612,1.131-7.256c0.201-3.292,0.213-5.68,0.038-7.162c-0.138-1.193-0.992-3.003-2.563-5.428
							c-1.482-2.299-2.958-4.184-4.429-5.654c-1.419-1.42-3.776-3.493-7.067-6.219c-3.355-2.777-5.71-4.586-7.067-5.428
							c-1.031-0.654-1.998-1.294-2.902-1.922c-1.018-0.704-1.797-1.232-2.337-1.583c-0.742-0.465-1.766-1.445-3.072-2.94
							c-1.433-1.646-2.45-2.708-3.053-3.185c-0.704-0.553-1.489-0.879-2.356-0.98c-0.842-0.087-1.514-0.339-2.017-0.753
							c-0.879-0.691-1.803-1.42-2.771-2.186c-0.565-0.453-0.974-0.691-1.225-0.716c-0.553-0.05-0.923-0.107-1.112-0.17
							c-0.502-0.163-0.955-0.584-1.357-1.263c-0.616-1.043-1.037-1.689-1.263-1.941c-0.44-0.503-0.892-0.742-1.357-0.716
							c-0.603,0.038-1.024-0.013-1.263-0.151c-0.314-0.176-0.528-0.609-0.641-1.3c-0.126-0.804-0.446-1.489-0.961-2.054
							c-0.553-0.604-1.125-0.98-1.715-1.131c-0.565-0.138-0.917-0.295-1.055-0.471c-0.088-0.113-0.264-0.446-0.528-0.999
							c-0.213-0.439-0.572-0.886-1.074-1.338c-0.226-0.201-0.678-0.553-1.357-1.055c-0.289-0.213-0.515-0.49-0.678-0.829
							c-0.113-0.226-0.227-0.622-0.339-1.188c-0.088-0.49-0.27-0.923-0.546-1.3c-0.327-0.465-0.672-0.861-1.037-1.188
							c-0.164-0.15-0.691-0.578-1.583-1.281c-0.628-0.503-1.099-1.501-1.414-2.997c-0.226-1.031-0.339-2.023-0.339-2.978
							c0-0.515,0.345-1.275,1.037-2.28c0.528-0.767,1.055-1.42,1.583-1.96c0.653-0.641,2.5-1.125,5.541-1.451
							c0.93-0.088,2.067-0.132,3.411-0.132c1.42,0,2.664-0.05,3.732-0.151c1.256-0.113,2.217-0.019,2.883,0.283
							c0.98,0.453,1.577,0.698,1.791,0.735c0.59,0.1,1.144,0.333,1.658,0.697c0.453,0.314,0.867,0.471,1.244,0.471
							c0.327,0,0.867-0.094,1.621-0.283c0.679-0.164,1.257-0.22,1.734-0.17c0.502,0.063,0.886,0.302,1.15,0.716
							c0.465,0.754,0.81,1.244,1.037,1.47c0.478,0.478,0.854,0.685,1.13,0.622c0.189-0.038,0.635-0.195,1.338-0.471
							c0.679-0.126,1.175-0.126,1.489,0c0.176,0.075,0.559,0.37,1.15,0.885c0.339,0.29,0.704,0.609,1.093,0.961
							c0.289,0.239,0.653,0.452,1.093,0.641c0.339,0.151,0.911,0.44,1.715,0.867c0.804,0.402,1.589,0.691,2.355,0.867
							c0.679,0.164,1.25,0.49,1.715,0.98c0.402,0.415,0.754,0.622,1.055,0.622c0.05,0,0.497-0.056,1.338-0.169
							c0.49-0.063,0.967-0.006,1.432,0.169c0.314,0.126,0.854,0.572,1.621,1.338c0.742,0.741,1.464,1.219,2.167,1.432
							c1.257,0.39,2.664,0.779,4.222,1.168c0.44,0.126,1.42,0.635,2.94,1.527c1.621,0.955,2.928,1.614,3.92,1.979
							c2.061,0.754,4.925,2.067,8.594,3.939c1.508,0.754,3.154,1.407,4.938,1.96c2.526,0.792,4.718,1.156,6.578,1.093
							c1.847-0.063,3.349-0.339,4.504-0.829c0.327-0.125,1.395-0.722,3.204-1.791c1.018-0.603,2.136-1.784,3.354-3.543
							c0.666-0.942,1.496-2.193,2.488-3.75c1.093-1.47,1.966-3.512,2.62-6.125c0.364-1.432,0.772-2.839,1.225-4.221
							c0.578-1.734,1.093-2.997,1.545-3.789c0.628-1.093,1.118-2.023,1.47-2.789c0.502-1.105,0.886-2.218,1.149-3.336
							c0.226-0.93,0.44-1.771,0.641-2.525c0.251-0.917,0.427-1.577,0.528-1.979c0.1-0.415,0.427-1.489,0.979-3.223
							c0.465-1.445,0.723-2.413,0.773-2.902c0.05-0.478,0.32-1.012,0.811-1.602c0.653-0.792,1.112-1.47,1.375-2.036
							c0.415-0.804,0.635-1.275,0.66-1.414c0.013-0.025-0.013-0.383-0.075-1.074c-0.063-0.603,0.069-1.181,0.396-1.734
							c0.188-0.326,0.541-0.867,1.056-1.621c0.314-0.565,0.559-1.37,0.735-2.413c0.05-0.339,0.145-1.187,0.283-2.544
							c0.063-0.59,0.245-1.005,0.547-1.244c0.201-0.164,0.603-0.477,1.206-0.942c0.427-0.427,0.622-1.011,0.584-1.752
							c-0.15-0.867-0.251-1.496-0.301-1.885c-0.05-0.453,0.113-0.892,0.49-1.319c0.603-0.716,0.974-1.2,1.112-1.451
							c0.29-0.503,0.497-1.112,0.622-1.828c0.188-1.056,0.321-1.709,0.396-1.96c0.214-0.678,0.465-1.256,0.754-1.733
							c0.226-0.377,0.66-0.961,1.301-1.753c0.565-0.716,1.274-1.564,2.129-2.544c0.83-0.942,1.433-1.602,1.81-1.979
							c0.402-0.414,0.811-0.722,1.226-0.923c0.553-0.277,1.407-0.553,2.562-0.83c0.817-0.188,1.564-0.32,2.243-0.396
							c0.503-0.063,1.018-0.176,1.545-0.339c0.604-0.176,1.502-0.076,2.695,0.301c1.068,0.327,1.815,0.666,2.243,1.018
							c0.289,0.239,0.471,0.703,0.546,1.395c0.113,1.231,0.176,1.885,0.188,1.96c0.201,0.867,0.88,2.324,2.036,4.373l0.414,1.64
							C151.057,29.895,151.453,30.806,151.88,31.421z"/>
						<path fill="#FFFFFF" stroke="#000000" stroke-width="1.5" d="M151.88,31.421c-0.427-0.615-0.823-1.526-1.188-2.732
							l-0.414-1.64c-1.156-2.048-1.835-3.506-2.036-4.373c-0.013-0.075-0.075-0.729-0.188-1.96
							c-0.075-0.691-0.257-1.156-0.546-1.395c-0.428-0.352-1.175-0.691-2.243-1.018c-1.193-0.377-2.092-0.478-2.695-0.301
							c-0.527,0.163-1.042,0.276-1.545,0.339c-0.679,0.076-1.426,0.208-2.243,0.396c-1.155,0.276-2.01,0.553-2.562,0.83
							c-0.415,0.201-0.823,0.509-1.226,0.923c-0.377,0.377-0.979,1.037-1.81,1.979c-0.854,0.98-1.563,1.828-2.129,2.544
							c-0.641,0.792-1.075,1.376-1.301,1.753c-0.289,0.478-0.54,1.055-0.754,1.733c-0.075,0.251-0.208,0.905-0.396,1.96
							c-0.125,0.716-0.333,1.325-0.622,1.828c-0.138,0.251-0.509,0.735-1.112,1.451c-0.376,0.427-0.54,0.867-0.49,1.319
							c0.05,0.389,0.151,1.018,0.301,1.885c0.038,0.741-0.157,1.326-0.584,1.752c-0.603,0.465-1.005,0.779-1.206,0.942
							c-0.302,0.239-0.484,0.653-0.547,1.244c-0.138,1.357-0.232,2.205-0.283,2.544c-0.176,1.043-0.421,1.847-0.735,2.413
							c-0.515,0.754-0.867,1.294-1.056,1.621c-0.327,0.553-0.458,1.131-0.396,1.734c0.062,0.691,0.088,1.049,0.075,1.074
							c-0.025,0.139-0.245,0.609-0.66,1.414c-0.264,0.565-0.722,1.244-1.375,2.036c-0.49,0.59-0.76,1.125-0.811,1.602
							c-0.05,0.49-0.308,1.458-0.773,2.902c-0.553,1.734-0.879,2.808-0.979,3.223c-0.101,0.402-0.276,1.062-0.528,1.979
							c-0.201,0.754-0.415,1.596-0.641,2.525c-0.264,1.118-0.647,2.23-1.149,3.336c-0.352,0.766-0.842,1.696-1.47,2.789
							c-0.452,0.792-0.967,2.055-1.545,3.789c-0.452,1.382-0.861,2.789-1.225,4.221c-0.654,2.614-1.527,4.655-2.62,6.125
							c-0.992,1.558-1.822,2.808-2.488,3.75c-1.219,1.759-2.337,2.94-3.354,3.543c-1.809,1.068-2.877,1.665-3.204,1.791
							c-1.156,0.49-2.657,0.766-4.504,0.829c-1.859,0.063-4.052-0.301-6.578-1.093c-1.784-0.553-3.43-1.206-4.938-1.96
							c-3.669-1.872-6.534-3.185-8.594-3.939c-0.992-0.364-2.299-1.024-3.92-1.979c-1.52-0.892-2.5-1.401-2.94-1.527
							c-1.558-0.389-2.965-0.779-4.222-1.168c-0.703-0.213-1.426-0.691-2.167-1.432c-0.766-0.767-1.306-1.212-1.621-1.338
							c-0.465-0.176-0.942-0.232-1.432-0.169c-0.842,0.113-1.288,0.169-1.338,0.169c-0.301,0-0.653-0.207-1.055-0.622
							c-0.465-0.49-1.037-0.817-1.715-0.98c-0.766-0.176-1.552-0.464-2.355-0.867c-0.804-0.427-1.376-0.716-1.715-0.867
							c-0.439-0.188-0.804-0.402-1.093-0.641c-0.39-0.352-0.754-0.672-1.093-0.961c-0.591-0.515-0.974-0.81-1.15-0.885
							c-0.314-0.126-0.81-0.126-1.489,0c-0.704,0.276-1.149,0.433-1.338,0.471c-0.276,0.062-0.653-0.145-1.13-0.622
							c-0.227-0.226-0.572-0.716-1.037-1.47c-0.264-0.415-0.647-0.653-1.15-0.716c-0.477-0.05-1.055,0.006-1.734,0.17
							c-0.754,0.188-1.294,0.283-1.621,0.283c-0.377,0-0.792-0.157-1.244-0.471c-0.515-0.364-1.068-0.597-1.658-0.697
							c-0.214-0.038-0.811-0.283-1.791-0.735c-0.666-0.301-1.627-0.396-2.883-0.283c-1.068,0.101-2.312,0.151-3.732,0.151
							c-1.344,0-2.481,0.044-3.411,0.132c-3.041,0.327-4.888,0.811-5.541,1.451c-0.528,0.541-1.055,1.194-1.583,1.96
							c-0.691,1.005-1.037,1.765-1.037,2.28c0,0.955,0.113,1.947,0.339,2.978c0.314,1.495,0.786,2.494,1.414,2.997
							c0.893,0.704,1.42,1.131,1.583,1.281c0.364,0.327,0.71,0.723,1.037,1.188c0.276,0.377,0.458,0.81,0.546,1.3
							c0.113,0.565,0.226,0.961,0.339,1.188c0.164,0.339,0.39,0.616,0.678,0.829c0.679,0.502,1.131,0.854,1.357,1.055
							c0.502,0.453,0.861,0.899,1.074,1.338c0.264,0.553,0.44,0.886,0.528,0.999c0.139,0.176,0.49,0.333,1.055,0.471
							c0.591,0.151,1.163,0.527,1.715,1.131c0.515,0.565,0.835,1.25,0.961,2.054c0.113,0.691,0.327,1.125,0.641,1.3
							c0.239,0.138,0.66,0.188,1.263,0.151c0.465-0.025,0.917,0.213,1.357,0.716c0.226,0.251,0.647,0.898,1.263,1.941
							c0.402,0.679,0.854,1.1,1.357,1.263c0.188,0.063,0.559,0.12,1.112,0.17c0.251,0.025,0.66,0.264,1.225,0.716
							c0.968,0.766,1.891,1.495,2.771,2.186c0.503,0.415,1.175,0.666,2.017,0.753c0.867,0.101,1.652,0.427,2.356,0.98
							c0.603,0.478,1.621,1.539,3.053,3.185c1.307,1.495,2.331,2.475,3.072,2.94c0.54,0.352,1.319,0.879,2.337,1.583
							c0.904,0.628,1.872,1.269,2.902,1.922c1.357,0.841,3.712,2.651,7.067,5.428c3.292,2.726,5.648,4.799,7.067,6.219
							c1.47,1.47,2.947,3.355,4.429,5.654c1.571,2.425,2.425,4.234,2.563,5.428c0.176,1.482,0.164,3.87-0.038,7.162
							c-0.226,3.644-0.603,6.062-1.131,7.256c-0.565,1.281-1.501,2.871-2.808,4.769c-1.244,1.821-2.394,3.298-3.449,4.429
							c-0.716,0.754-1.407,1.64-2.073,2.657c-0.691,1.03-1.313,1.841-1.866,2.432c-0.49,0.527-1.281,1.331-2.375,2.412
							c-0.93,0.904-1.69,1.703-2.28,2.394c-0.452,0.54-1.363,1.508-2.733,2.902c-1.206,1.219-2.048,2.148-2.525,2.789
							c-1.131,1.533-2.004,3.135-2.62,4.806c-0.239,0.666-0.804,1.54-1.696,2.62c-0.49,0.603-1.238,1.477-2.243,2.62
							c-0.427,0.54-0.986,1.193-1.678,1.96c-0.527,0.628-0.936,1.237-1.225,1.828c-0.227,0.465-0.729,0.936-1.508,1.413
							c-0.741,0.452-1.213,0.955-1.414,1.508c-0.213,0.604-0.302,1.219-0.264,1.847c0.051,0.578,0.038,0.937-0.038,1.074
							c-0.075,0.151-0.232,0.346-0.471,0.585c-0.314,0.313-0.691,0.798-1.131,1.451c-0.464,0.703-0.772,1.307-0.923,1.809
							l-0.377,1.244c-0.101,0.239-0.314,0.434-0.641,0.584c-0.314,0.151-0.635,0.642-0.961,1.471
							c-0.352,0.879-0.515,1.728-0.49,2.544c0.012,0.465,0.031,1.169,0.056,2.111c-0.075,0.816-0.314,1.928-0.716,3.335
							c-0.402,1.42-0.748,2.351-1.037,2.79c-0.289,0.427-0.339,0.961-0.151,1.602c0.188,0.615,0.578,1.295,1.168,2.035
							c0.427,0.528,0.88,0.949,1.357,1.263c0.49,0.327,0.86,0.635,1.112,0.924c0.301,0.34,0.672,0.767,1.112,1.282
							c0.427,0.313,1.081,0.37,1.96,0.169c0.553-0.113,1.426-0.346,2.62-0.697c0.917-0.264,1.646-0.421,2.187-0.471
							c0.49-0.038,0.98-0.069,1.47-0.095c0.377-0.037,0.905-0.15,1.583-0.339l1.376-0.377c0.214-0.075,0.823-0.384,1.828-0.924
							c0.377-0.201,1.162-0.703,2.356-1.508c0.603-0.414,1.131-0.597,1.583-0.546c0.39,0.05,0.923,0.163,1.602,0.339
							c0.528,0.037,0.917-0.22,1.168-0.772c0.151-0.327,0.226-0.811,0.226-1.451c0-0.478,0.214-0.962,0.641-1.451
							c0.616-0.805,1.049-1.319,1.3-1.546c0.39-0.364,0.93-0.483,1.621-0.357c1.018,0.188,1.57,0.282,1.658,0.282
							c0.314-0.025,0.54-0.264,0.678-0.716c0.126-0.629,0.22-1.081,0.283-1.357c0.126-0.478,0.371-0.898,0.735-1.263
							c0.767-0.779,1.935-1.652,3.505-2.62c0.314-0.2,0.716-0.546,1.206-1.036c0.528-0.527,1.194-1.062,1.998-1.602
							c0.515-0.34,1.263-0.741,2.243-1.207c0.502-0.251,0.917-0.621,1.244-1.111c0.364-0.754,0.622-1.275,0.773-1.564
							c0.239-0.49,0.71-0.942,1.414-1.357c0.138-0.075,0.98-0.515,2.525-1.319c0.942-0.502,1.702-0.986,2.28-1.45
							c0.854-0.604,1.451-1.05,1.791-1.339c0.553-0.452,1.074-1.074,1.564-1.865c1.307-2.124,3.154-3.826,5.541-5.107
							c2.211-1.106,3.945-1.985,5.202-2.639c2.336-1.182,3.713-1.954,4.127-2.318c0.942-0.804,1.464-1.231,1.564-1.281
							c0.792-0.44,1.973-0.691,3.543-0.754c0.615-0.025,1.929-0.221,3.938-0.585c1.106-0.188,2.167-0.088,3.186,0.302
							c1.181,0.452,2.833,1.678,4.957,3.675c1.759,1.659,3.122,3.104,4.09,4.335c0.49,0.641,1.489,1.873,2.997,3.694
							c1.37,1.734,2.262,3.078,2.676,4.033c0.151,0.352,0.339,1.012,0.565,1.979c0.101,0.39,0.547,1.043,1.338,1.96
							c0.955,1.081,1.954,2.457,2.997,4.128c0.93,1.482,1.677,2.827,2.242,4.033c0.679,1.457,1.018,2.192,1.018,2.205
							c0.264,0.465,0.754,1.087,1.471,1.866c0.013,0.012,0.678,0.615,1.997,1.809c0.616,0.54,1.068,1.25,1.357,2.13
							c0.578,1.746,0.93,2.783,1.056,3.109c0.465,1.118,1.08,2.124,1.847,3.016c0.364,0.428,1.062,1.024,2.092,1.791
							c0.516,0.363,0.741,0.879,0.679,1.545c-0.075,0.893-0.057,1.57,0.057,2.035c0.113,0.478,0.383,0.968,0.811,1.471
							c0.301,0.339,0.848,0.892,1.64,1.658c0.678,0.729,1.105,1.389,1.281,1.979c0.15,0.49,0.308,1.138,0.472,1.941
							c0.251,0.653,0.772,1.226,1.563,1.715c0.642,0.39,1.294,0.754,1.96,1.094c0.402,0.238,0.723,0.603,0.962,1.093
							c0.69,1.395,1.419,2.412,2.186,3.053c0.239,0.201,0.597,0.302,1.074,0.302c0.377,0,0.697,0.239,0.962,0.716
							c0.326,0.591,0.954,1.245,1.884,1.961c0.741,0.565,1.477,1.03,2.205,1.395c0.453,0.226,0.924,0.358,1.414,0.396
							c0.816,0.062,1.363,0.126,1.64,0.188c0.49,0.101,1.093,0.346,1.81,0.735c0.641,0.238,1.351,0.088,2.129-0.452
							c0.792-0.541,1.59-1.138,2.394-1.791l0.962-0.829c0.778-1.847,1.168-3.109,1.168-3.788c0-0.666,0.145-1.828,0.434-3.486
							c0.15-0.44,0.258-0.772,0.32-0.999c0.101-0.377,0.088-0.924-0.037-1.64c-0.063-0.415,0.05-1.219,0.339-2.413
							c0.214-0.904,0.101-1.602-0.339-2.092c-0.704-0.703-1.144-1.181-1.319-1.432c-0.276-0.39-0.32-0.836-0.133-1.339
							c0.365-0.577,0.604-0.992,0.717-1.244c0.201-0.401,0.157-0.961-0.132-1.677c-0.302-0.716-0.616-1.294-0.942-1.733
							c-0.39-0.44-0.71-0.83-0.961-1.169c-0.503-0.741-0.798-1.182-0.887-1.319c-0.238-0.465-0.427-1.049-0.565-1.753
							c-0.075-0.439,0.032-0.836,0.321-1.188c0.238-0.301,0.226-0.879-0.038-1.733c-0.188-0.628-0.364-1.59-0.527-2.884
							c-0.139-1.056-0.396-1.985-0.773-2.789c-0.628-1.345-0.998-2.174-1.111-2.488c-0.227-0.666-0.34-1.388-0.34-2.167
							c0-0.842-0.05-1.482-0.15-1.923c-0.075-0.352-0.271-0.879-0.584-1.583c-0.201-0.465-0.289-0.93-0.264-1.395
							c0.024-0.615-0.032-1.219-0.17-1.81c-0.151-0.854-0.271-1.369-0.358-1.545c-0.062-0.15-0.434-0.56-1.111-1.226
							c-0.805-0.804-1.27-1.319-1.396-1.545c-0.201-0.352-0.27-0.904-0.207-1.658c0.088-0.88,0.075-1.771-0.037-2.677
							c-0.113-1.03-0.34-1.891-0.679-2.582c-0.264-0.515-0.56-1.633-0.886-3.354c-0.402-2.048-0.741-3.499-1.019-4.354
							c-0.352-1.105-0.515-3.191-0.489-6.257c0.038-4.662,0.057-6.999,0.057-7.011c-0.088-2.061,0.094-4.178,0.546-6.352
							c0.49-2.413,1.182-4.134,2.073-5.164c0.98-1.131,2.545-2.444,4.693-3.939c2.224-1.545,4.253-2.707,6.087-3.486
							c1.27-0.527,3.568-1.489,6.898-2.884c2.927-1.219,4.906-2.104,5.937-2.657c0.829-0.439,1.634-0.88,2.412-1.319
							c0.541-0.226,1.389-0.371,2.544-0.434c1.835-0.1,3.016-0.201,3.544-0.302c1.168-0.213,2.174-0.646,3.016-1.3
							c0.489-0.377,1.023-0.968,1.602-1.771c0.364-0.503,0.898-0.836,1.602-0.999c0.667-0.15,1.508-0.314,2.526-0.49
							c0.967-0.163,1.627-0.289,1.979-0.377c0.904-0.226,2.218-0.71,3.938-1.451c0.34-0.15,0.666-0.402,0.98-0.754
							c0.39-0.276,1.087-0.414,2.092-0.414c0.829,0,1.797,0.062,2.902,0.188c0.829,0.038,1.508-0.125,2.036-0.489
							c0.439-0.289,1.067-0.697,1.885-1.226c0.64-0.427,1.086-0.797,1.338-1.111c0.188-0.239,0.483-0.635,0.886-1.188
							c0.364-0.478,0.697-0.804,0.999-0.98c0.251-0.151,0.59-0.365,1.018-0.641c0.414-0.226,0.904-0.402,1.47-0.527
							c0.867-0.201,1.935-0.497,3.204-0.886c0.729-0.201,1.338-0.534,1.828-0.999c0.302-0.289,0.76-0.879,1.376-1.771
							c0.489-0.704,0.898-1.181,1.225-1.433c0.289-0.213,0.848-0.509,1.678-0.886c0.54-0.239,1.149-0.484,1.828-0.735
							c0.439-0.227,0.754-0.616,0.942-1.168c0.489-1.483,0.785-2.5,0.886-3.053c0.112-0.716,0.094-1.59-0.057-2.62
							c-0.214-1.382-0.635-2.356-1.263-2.921c-0.239-0.213-0.893-0.842-1.96-1.884c-0.679-0.654-1.188-1.094-1.527-1.32
							c-0.59-0.389-1.243-0.767-1.96-1.13c-0.93-0.478-1.689-0.779-2.28-0.905c-0.427-0.101-0.553-0.208-0.377-0.32
							c0.063-0.038-0.245-0.032-0.924,0.019c-0.829,0.063-1.57,0.006-2.224-0.169c-0.615-0.226-1.093-0.364-1.432-0.415
							c-0.051-0.013-0.358-0.145-0.924-0.396c-0.251-0.125-0.672-0.044-1.263,0.245c-0.754,0.49-1.263,0.804-1.526,0.942
							c-0.415,0.201-0.924,0.182-1.526-0.057c-0.729-0.364-1.244-0.609-1.546-0.735c-0.478-0.188-1.175-0.283-2.092-0.283
							c-1.144-0.05-1.892-0.076-2.243-0.076c-0.527,0-1.093,0.12-1.696,0.358c-0.439,0.176-0.898,0.339-1.376,0.49
							c-0.326,0.101-0.646,0.232-0.961,0.396c-0.427,0.213-0.804,0.339-1.131,0.376c-0.289,0.038-1.03,0.057-2.224,0.057
							c-1.056,0-1.859,0.044-2.412,0.132c-0.188,0.038-1.031,0.232-2.525,0.584c-0.931,0.214-1.86,0.358-2.79,0.434
							c-1.407,0.088-2.519,0.188-3.336,0.302c-1.407,0.188-4.026,0.339-7.859,0.452c-2.952,0.088-5.578,0.132-7.877,0.132
							c-4.725,0-8.236-0.044-10.536-0.132c-5.691-0.201-9.271-0.641-10.742-1.319c-1.482-0.678-3.437-2.727-5.861-6.144
							c-0.917-1.282-2.362-3.512-4.335-6.69c-0.854-1.345-1.325-2.136-1.413-2.375c-0.201-0.54-0.271-1.444-0.207-2.714
							c0.013-0.176,0.414-2.11,1.206-5.805c0.603-2.764,0.641-4.668,0.112-5.71c-0.553-1.105-0.778-2.161-0.678-3.167
							c0.264-1.093,0.439-1.935,0.527-2.525c0.352-2.048,0.452-3.794,0.302-5.239c-0.113-1.081-0.17-1.665-0.17-1.752
							c0.025-0.528,0.227-1.112,0.604-1.753c0.289-0.478,0.635-0.917,1.036-1.319c0.239-0.327,0.333-0.811,0.283-1.451
							c-0.176-0.942-0.296-1.615-0.358-2.017c-0.101-0.679-0.031-1.313,0.207-1.903c0.265-0.666,0.452-1.866,0.565-3.6
							c0.101-1.533,0.107-2.62,0.02-3.26c-0.051-0.339-0.025-0.59,0.075-0.754c0.201-0.327,0.37-0.804,0.509-1.433
							c0.05-0.226,0.232-0.729,0.546-1.507c0.102-0.251,0.063-0.716-0.112-1.395c-0.34-1.37-0.516-2.086-0.528-2.148
							c-0.138-0.616-0.207-1.119-0.207-1.508c0-0.314,0.082-0.785,0.245-1.414c0.188-0.753,0.302-1.3,0.339-1.64
							c0.201-1.042,0.327-1.903,0.377-2.582C152.496,32.973,152.319,32.037,151.88,31.421z"/>
					</g>
					<path fill="none" stroke="#000000" stroke-width="1.5" d="M133.617,78.256c-1.131,2.625-1.696,6.854-1.696,12.684
						c0,0.528-0.15,1.797-0.452,3.807c-0.377,2.475-0.603,4.027-0.678,4.655c-0.176,1.546-0.214,3.123-0.113,4.731
						c0.125,1.973,0.446,3.405,0.961,4.297c0.377,0.666,1.281,2.418,2.714,5.258c1.369,2.614,2.343,4.153,2.921,4.618
						c0.729,0.578,1.954,1.256,3.676,2.036c1.771,0.804,3.272,1.344,4.504,1.621c1.131,0.251,4.196,0.308,9.197,0.17
						c4.385-0.113,7.526-0.264,9.424-0.453c1.005-0.1,4.228-0.748,9.668-1.941c5.252-1.143,8.047-1.715,8.387-1.715"/>
					<path fill="none" stroke="#000000" stroke-width="1.5" d="M171.122,137.472c-1.872,0.353-4.127,1.081-6.766,2.187
						c-2.814,1.281-4.787,2.155-5.918,2.619c-1.508,0.629-3.519,1.816-6.031,3.562c-2.01,1.395-3.669,2.651-4.976,3.77
						c-1.369,1.043-2.355,1.841-2.959,2.394c-1.055,0.979-1.759,2.061-2.11,3.241c-0.704,2.325-0.333,4.769,1.112,7.332
						c0.313,0.54,0.892,1.589,1.733,3.146c0.917,1.696,1.847,3.374,2.789,5.032c1.848,3.279,2.984,5.315,3.412,6.106
						c1.042,1.897,1.689,3.153,1.94,3.77c0.377,0.942,0.849,2.632,1.414,5.07"/>
					<path fill="none" stroke="#000000" stroke-width="1.5" d="M118.936,168.795c-1.407-0.703-2.487-1.149-3.241-1.338
						c-0.741-0.188-1.539-0.214-2.394-0.075c-0.767,0.126-1.904,0.666-3.411,1.62c-1.332,0.83-2.262,1.508-2.79,2.036
						c-0.54,0.54-1.363,1.237-2.469,2.092c-1.294,0.993-2.255,1.614-2.884,1.866c-0.402,0.163-1.156,0.27-2.261,0.32
						c-0.993,0.05-1.747,0.226-2.262,0.527c-0.565,0.339-1.445,0.999-2.639,1.979c-1.545,1.244-2.356,1.897-2.431,1.96
						l-10.441,8.463l-3.6,2.375c-2.438,1.646-3.775,2.638-4.014,2.978"/>
					<path fill="none" stroke="#000000" stroke-width="1.5" d="M48.713,106.45l2.224,2.148c1.646,1.558,2.877,2.626,3.694,3.204
						c0.704,0.502,2.808,1.596,6.314,3.279c3.782,1.822,6.1,2.99,6.954,3.505c0.704,0.415,2.45,1.256,5.239,2.525
						c2.35,1.056,3.889,1.904,4.618,2.544c0.666,0.565,1.822,1.508,3.468,2.827c1.344,1.168,2.073,2.104,2.186,2.808
						c0.063,0.377,0.038,1.263-0.075,2.658c-0.088,1.08,0.031,1.891,0.358,2.431c0.289,0.478,1.168,1.546,2.639,3.204
						c1.282,1.646,1.81,2.928,1.583,3.845c-0.214,0.842-0.622,1.973-1.225,3.393c-0.603,1.382-0.942,2.224-1.018,2.525
						c-0.151,0.604-0.565,1.558-1.244,2.864c-0.703,1.37-1.325,2.388-1.866,3.054c-0.754,0.942-2.915,4.14-6.483,9.593"/>
					<path fill="none" stroke="#000000" stroke-width="1.5" d="M119.746,116.571c0.565,0.691,1.081,1.037,1.545,1.037
						c0.289,0,0.874,0.063,1.753,0.188c0.792,0.038,1.37-0.169,1.734-0.622c0.741-0.917,1.118-1.382,1.131-1.395
						c0.264-0.44,0.251-0.848-0.038-1.225c-0.515-0.678-1.081-1.225-1.696-1.64c-0.93-0.616-1.822-0.798-2.676-0.546
						c-1.194,0.352-1.922,0.641-2.186,0.867c-0.289,0.227-0.434,0.666-0.434,1.319C118.879,115.195,119.168,115.867,119.746,116.571
						z"/>
					<path fill="none" stroke="#000000" stroke-width="1.5" d="M99.863,123.525c-0.239,0.276-0.628,0.716-1.168,1.319
						c-0.376,0.54-0.427,1.042-0.15,1.508c0.226,0.364,0.477,0.955,0.753,1.771c0.352,0.603,0.98,0.816,1.885,0.641
						c1.043-0.201,1.759-0.434,2.148-0.697c0.339-0.226,0.565-0.578,0.679-1.056c0.264-0.616,0.421-1.086,0.471-1.413
						c0.101-0.578-0.125-1.056-0.679-1.433c-0.98-0.641-1.658-1.024-2.035-1.149C101,122.765,100.365,122.935,99.863,123.525z"/>
					<path fill="none" stroke="#000000" stroke-width="1.5" d="M102.916,146.462c-0.163,0.604-0.232,1.181-0.207,1.734
						c0.013,0.352,0.082,0.866,0.207,1.545c0.151,0.741,0.383,1.332,0.697,1.771c0.415,0.615,0.911,0.829,1.489,0.641
						c0.754-0.251,1.319-0.553,1.696-0.904c0.478-0.44,0.716-1.012,0.716-1.715c0-0.829-0.157-1.615-0.471-2.356
						c-0.339-0.804-0.766-1.256-1.281-1.356c-0.565-0.113-1.156-0.107-1.772,0.019C103.362,145.966,103.004,146.173,102.916,146.462
						z"/>
					<path fill="none" stroke="#000000" stroke-width="1.5" d="M129.584,149.741c-0.716,0.139-1.218,0.483-1.507,1.036
						c-0.276,0.503-0.352,1.105-0.226,1.81c0.075,0.439,0.157,1.144,0.245,2.11c0.151,0.729,0.502,1.05,1.056,0.962
						c0.44-0.075,1.156-0.095,2.149-0.057c0.842-0.063,1.438-0.408,1.79-1.036c0.628-1.119,0.754-2.225,0.377-3.317
						C133.002,149.867,131.707,149.364,129.584,149.741z"/>
					<path fill="none" stroke="#000000" stroke-width="1.5" d="M138.009,129.65c-0.188,0.276-0.227,0.779-0.113,1.508
						c0.075,0.439,0.176,1.056,0.302,1.847c0.214,0.642,0.697,1.194,1.451,1.659c0.829,0.515,1.457,0.716,1.885,0.603
						c0.377-0.101,0.622-0.446,0.735-1.036c0.213-1.043,0.213-1.991,0-2.846c-0.34-1.357-1.213-2.086-2.62-2.187
						C138.807,129.148,138.26,129.299,138.009,129.65z"/>
					<path fill="none" stroke="#000000" stroke-width="1.5" d="M118.879,130.518c-0.439,0.038-0.741,0.308-0.904,0.811
						c-0.151,0.515,0.076,0.823,0.679,0.923l1.319,0.227c0.289-0.364,0.465-0.716,0.528-1.056
						C120.601,130.731,120.061,130.43,118.879,130.518z"/>
					<path fill="none" stroke="#000000" stroke-width="1.5" d="M113.847,133.797c0.314,0.439,0.622,0.729,0.923,0.867
						c0.352,0.163,0.628,0.088,0.83-0.227c0.264-0.402,0.427-0.879,0.49-1.433c0.076-0.641-0.088-0.961-0.49-0.961
						c-0.44,0-0.886,0.22-1.338,0.66C113.797,133.156,113.659,133.521,113.847,133.797z"/>
					<path fill="none" stroke="#000000" stroke-width="1.5" d="M115.826,138.811c0.578,0.176,1.086,0.194,1.527,0.056
						c0.527-0.176,0.596-0.559,0.207-1.149c-0.365-0.54-0.911-0.811-1.64-0.811l-0.98,0.17l0.057,0.754
						C115.123,138.37,115.399,138.697,115.826,138.811z"/>
					<path fill="none" stroke="#000000" stroke-width="1.5" d="M121.725,137.283c-0.603,0-1.093,0.107-1.47,0.32
						c-0.439,0.252-0.609,0.585-0.509,0.999c0.139,0.516,0.371,0.999,0.697,1.451c0.377,0.516,0.66,0.616,0.848,0.302
						c0.49-0.816,0.798-1.495,0.923-2.035C122.378,137.629,122.215,137.283,121.725,137.283z"/>
					<path fill="none" stroke="#000000" stroke-width="1.5" d="M122.385,133.137c-0.754-0.2-1.086,0.214-0.999,1.244
						c0.038,0.516,0.151,1.049,0.339,1.603l0.509-0.113c0.402-0.151,0.741-0.408,1.018-0.772c0.478-0.629,0.716-0.98,0.716-1.056
						C123.968,133.728,123.44,133.426,122.385,133.137z"/>
				</g>
			</g>
		</g>
	</g>
</g>
</svg>
