<?xml version="1.0" encoding="utf-8"?>
<!-- Generator: Adobe Illustrator 17.0.1, SVG Export Plug-In . SVG Version: 6.00 Build 0)  -->
<!DOCTYPE svg PUBLIC "-//W3C//DTD SVG 1.1//EN" "http://www.w3.org/Graphics/SVG/1.1/DTD/svg11.dtd">
<svg version="1.1" id="Layer_1" xmlns="http://www.w3.org/2000/svg" xmlns:xlink="http://www.w3.org/1999/xlink" x="0px" y="0px"
	 width="100%" height="100%" viewBox="10.186 60.132 244.997 145.035"
	 enable-background="new 10.186 60.132 244.997 145.035" xml:space="preserve">
<g>
	<g id="Layer_1_1_">
		<g>
			<g id="Layer_1_3_">
				<g>
					<path fill="#FFFFFF" stroke="#373535" stroke-width="1.5" stroke-miterlimit="10" d="M243.029,146.854
						c0.124,2.477-0.016,4.887-0.42,7.229c-0.445,2.644-1.176,4.773-2.192,6.391c2.001-0.539,4.032-1.353,6.096-2.441
						c1.378-0.715,3.202-1.819,5.473-3.312c0.166-0.093,0.519-0.332,1.058-0.715c0.456-0.239,0.886-0.265,1.29-0.078
						c-0.155,0.788-0.481,1.529-0.979,2.224c-0.228,0.301-0.751,0.892-1.57,1.772c-1.71,1.876-3.141,3.348-4.291,4.416
						c-0.238,0.248-0.586,0.627-1.042,1.135c-0.415,0.467-0.752,0.824-1.011,1.072l-0.451,0.312
						c-0.259,0.166-0.425,0.279-0.497,0.342c-0.498,0.425-1.384,1.073-2.659,1.943c-0.984,0.695-1.622,1.136-1.912,1.322
						c-0.746,0.497-1.379,0.86-1.897,1.088c-0.652,0.29-1.503,0.617-2.55,0.979l-5.52,1.959c-1.099,0.384-2.016,0.628-2.752,0.731
						c-1.337,0.187-2.897,0.301-4.68,0.342l-0.451,0.016c-0.155,0-0.296,0.016-0.42,0.047h-0.016c-0.011-0.011-0.047-0.011-0.108,0
						l-1.664,0.108c-0.633,0.042-1.125-0.016-1.478-0.171c-2.487-0.011-5.063-0.295-7.728-0.855
						c-1.804-0.362-4.078-0.969-6.825-1.818c-0.373-0.125-0.809-0.301-1.307-0.529c-0.632-0.279-1.067-0.461-1.306-0.544
						c-1.182-0.342-2.094-0.633-2.736-0.871c-1.067-0.436-1.938-0.767-2.612-0.995l-1.29-0.544
						c-0.436-0.197-0.851-0.373-1.244-0.528l-0.498-0.094c-0.259-0.031-0.425-0.067-0.497-0.108
						c-0.083-0.031-0.182-0.099-0.295-0.202c-0.136-0.104-0.239-0.171-0.312-0.202L188.844,165
						c-0.975-0.414-1.923-0.854-2.846-1.321c-0.425-0.207-1.348-0.689-2.768-1.446c-1.161-0.622-2.068-1.072-2.721-1.353
						c-0.083-0.041-0.26-0.094-0.529-0.155c-0.249-0.062-0.43-0.125-0.544-0.187l-0.42-0.28c-0.176-0.114-0.321-0.197-0.436-0.249
						c-0.445-0.145-1.072-0.274-1.881-0.389l-2.068-0.218c-2.851-0.279-5.349-0.367-7.494-0.264
						c-2.653,0.114-5.054,0.513-7.199,1.197c-0.912,0.279-2.052,0.771-3.42,1.477c-1.773,0.902-2.856,1.436-3.25,1.602
						c-0.954,0.114-2.099,0.114-3.437,0c-1.296-0.146-2.399-0.259-3.312-0.342c0.207,0.798,0.611,1.845,1.213,3.141
						c0.643,1.389,1.062,2.41,1.259,3.063c0.291,1.057,0.488,1.907,0.591,2.55l0.156,1.213c0.062,0.528,0.145,0.928,0.249,1.197
						c0.196,0.591,0.715,1.564,1.555,2.923c0.756,1.182,1.238,2.187,1.445,3.017c0.146,0.56,0.202,1.176,0.171,1.85
						c-0.041,0.664-0.16,1.203-0.357,1.617l-2.689,1.866c-1.047,0.735-1.871,1.431-2.473,2.083
						c-0.353,0.404-0.767,1.058-1.243,1.959c-0.529,0.954-0.934,1.592-1.213,1.913c-0.353,0.414-0.934,0.627-1.742,0.638
						c-0.704,0.01-1.394-0.136-2.067-0.436c-0.104-0.052-0.218-0.141-0.342-0.265c-0.135-0.135-0.244-0.228-0.327-0.28
						c-0.508-0.259-1.207-0.466-2.099-0.622c-1.275-0.145-2.089-0.248-2.441-0.311c-0.031-0.135-0.016-0.264,0.047-0.389
						c0-0.021,0.057-0.119,0.171-0.295l0.233-0.296v-0.016l0.031-0.031c0.487-0.643,0.881-1.099,1.182-1.368
						c-0.083-0.104-0.243-0.243-0.482-0.42c-0.196-0.145-0.347-0.301-0.45-0.466c0.601-0.57,1.306-1.016,2.114-1.337
						c0.477-0.208,1.332-0.473,2.565-0.794c0.197-0.259,0.409-0.637,0.638-1.135c0.279-0.549,0.492-0.923,0.638-1.119
						c-0.125-0.736-0.202-1.285-0.233-1.648c-0.062-0.622-0.031-1.192,0.093-1.71c-3.731-2.633-6.831-5.323-9.298-8.069l0.062,2.565
						c0.031,1.099,0.01,1.933-0.062,2.503l-0.218,2.239c-0.041,0.964,0.031,1.845,0.218,2.643c0.042,0.135,0.099,0.26,0.171,0.373
						c0.104,0.166,0.161,0.285,0.171,0.358l0.436,1.384c0.155,0.497,0.321,0.948,0.498,1.353c0.176,0.394,0.497,1.036,0.964,1.928
						c0.342,0.84,0.445,1.581,0.311,2.224c-0.113,0.477-0.45,1.072-1.011,1.788c-0.165,0.207-0.611,0.746-1.337,1.617
						c-1.907,2.508-3.151,4.156-3.731,4.944c-0.166,0.487-0.44,1.016-0.824,1.586l-0.979,1.555c-0.954,1.7-1.514,2.644-1.679,2.83
						c-0.798,0.984-1.778,1.461-2.939,1.43c-0.342,0-0.829-0.083-1.461-0.248l-1.399-0.482c-0.353-0.187-0.622-0.296-0.809-0.326
						c-0.705-0.125-1.772-0.021-3.203,0.311c-1.597,0.342-2.685,0.508-3.265,0.498c-0.508-0.591-0.539-1.291-0.093-2.1
						c0.176-0.311,0.632-0.881,1.368-1.71c-0.104-0.083-0.466-0.155-1.088-0.218c-0.498-0.062-0.783-0.213-0.855-0.451
						c0.145-0.425,0.477-0.829,0.995-1.213c1.606-1.15,3.384-1.818,5.333-2.006c1.026-2.155,2.363-3.757,4.011-4.804
						c-0.715-2.374-0.871-4.535-0.466-6.483c-1.606-2.104-2.752-3.675-3.436-4.712c-1.234-1.865-2.089-3.721-2.565-5.566
						c-0.477-0.58-1.016-1.337-1.617-2.27c-0.601-0.964-1.062-1.814-1.384-2.55c-0.487-1.078-0.591-2.4-0.311-3.965
						c0.104-0.633,0.337-1.343,0.7-2.131c0.3-0.652,0.632-1.249,0.995-1.788c-0.145,0.062-1.088,0.508-2.83,1.337
						c-1.99,0.954-3.861,1.814-5.613,2.582c-3.193,1.389-6.11,2.451-8.753,3.188c0.114,0.082,0.187,0.149,0.217,0.201
						c0.042,0.052,0.114,0.202,0.218,0.451c0.135,0.446,0.368,1.094,0.7,1.943c0.238,0.84,0.274,1.659,0.109,2.457
						c-0.073,0.362-0.275,0.746-0.606,1.15c-0.187,0.218-0.498,0.545-0.933,0.979c-1.731,1.97-3.089,3.307-4.074,4.012
						c0.052,0.819-0.104,1.664-0.466,2.534c-0.228,0.55-0.606,1.244-1.135,2.084c-0.363,0.57-0.876,1-1.54,1.29
						c-0.518,0.229-1.295,0.44-2.332,0.638l-1.353,0.28c-0.508,0.104-0.922,0.165-1.244,0.187l-1.088,0.016
						c-0.425,0-0.778,0.041-1.057,0.124c-0.083,0.021-0.275,0.14-0.576,0.357c-0.238,0.177-0.445,0.28-0.622,0.311
						c0.021,1.399-0.358,2.701-1.135,3.903c-0.259,0.404-1.037,1.353-2.332,2.845c-1.544,0.478-2.934,0.799-4.167,0.965
						c-1.575,0.165-2.907,0.046-3.996-0.357l-1.959,0.808c-0.839,0.208-1.456,0.026-1.85-0.544c0.166-0.643,0.436-1.244,0.809-1.804
						c0.259-0.414,0.632-0.901,1.12-1.462c-0.125-0.134-0.342-0.228-0.653-0.279l-0.73-0.062c0.155-0.456,0.436-0.896,0.839-1.321
						c0.27-0.27,0.653-0.591,1.151-0.964c1.026-0.726,1.897-1.254,2.612-1.586c0.187-0.094,0.534-0.166,1.042-0.218
						c0.487-0.042,0.829-0.104,1.026-0.187c0.259-0.114,0.606-0.389,1.042-0.824c0.415-0.414,0.757-0.653,1.026-0.715
						c0.27-1.711,0.865-3.364,1.788-4.96c0.167-0.321,1.063-1.675,2.69-4.059c-0.031-0.591,0.104-1.124,0.404-1.602
						c-0.259-0.321-0.715-0.762-1.368-1.321c-0.674-0.591-1.13-1.042-1.368-1.353c-0.819-0.539-1.685-1.249-2.597-2.13
						c-0.518-0.487-1.301-1.291-2.348-2.41c-0.56-0.591-1.291-1.441-2.192-2.551l-2.161-2.597c-0.052-0.196-0.254-0.616-0.606-1.259
						c-0.342-0.57-0.56-1.037-0.653-1.399c-2.519-1.016-4.991-2.374-7.417-4.073l-2.27-1.54c-0.954-0.663-1.664-1.197-2.13-1.602
						c-1.897-1.679-3.421-3.058-4.571-4.136c-1.576-1.514-2.923-2.965-4.042-4.354c-3.949-0.818-7.619-2-11.008-3.545
						c-0.602,1.078-1.363,1.912-2.286,2.504c-1.047,0.684-2.244,1.031-3.592,1.041c-0.819,0.011-1.757-0.135-2.814-0.436
						c-0.695-0.207-1.514-0.508-2.457-0.901l-1.555,0.591c-0.487,0.238-1.353,0.508-2.597,0.809
						c-0.912,0.248-1.472,0.394-1.679,0.436c-0.643,0.145-1.218,0.201-1.726,0.171c-0.197-0.021-0.456-0.078-0.777-0.171
						c-0.321-0.073-0.596-0.104-0.824-0.094c-0.094-0.187-0.28-0.342-0.56-0.466l-0.637-0.343l-0.855-0.699
						c-0.363-0.301-0.658-0.514-0.886-0.638c-0.114,0.052-0.363,0.228-0.746,0.528c-0.27,0.238-0.56,0.373-0.871,0.404
						c-0.156-0.394-0.176-1.191-0.062-2.395c0.156-1.337,0.534-2.498,1.135-3.482c0.653-1.058,1.477-1.772,2.472-2.146
						c0.922-1.794,2.705-3.017,5.348-3.67c0.902-1.047,1.866-1.896,2.893-2.55c1.15-0.715,2.415-1.197,3.793-1.446
						c0.322-0.394,0.767-0.767,1.337-1.12c0.353-0.228,0.928-0.544,1.726-0.948c1.088-0.539,1.783-0.855,2.084-0.949
						c0.725-0.228,1.523-0.295,2.394-0.202c0.57,0.083,1.192,0.353,1.866,0.809c0.84,0,1.731,0.156,2.674,0.466
						c0.146-0.228,0.529-0.658,1.151-1.29c0.518-0.498,0.845-0.979,0.979-1.446c0.093,0.125,0.27,0.436,0.529,0.933
						c0.27,0.466,0.477,0.798,0.622,0.995c0.197-0.146,0.41-0.441,0.638-0.887c0.238-0.508,0.425-0.829,0.56-0.964
						c0.425,0.477,0.871,1.275,1.337,2.395c0.756-0.705,1.337-1.28,1.741-1.726c0.611-0.705,1.005-1.467,1.182-2.285l1.088,1.866
						c0.436,0.726,0.876,1.259,1.322,1.602c0.238-0.249,0.492-0.731,0.762-1.446c0.29-0.726,0.565-1.197,0.824-1.415
						c0.155,0.176,0.477,0.58,0.964,1.212c0.363,0.466,0.715,0.84,1.058,1.12c0.083-0.529,0.093-1.353,0.031-2.472
						c-0.104-1.233-0.161-2.032-0.171-2.395c0.238,0.135,0.502,0.394,0.793,0.777c0.332,0.404,0.581,0.674,0.747,0.809l0.871,0.668
						c0.332,0.228,0.622,0.456,0.871,0.684c0-1.378-0.057-2.726-0.171-4.042c-0.083-0.912-0.249-2.172-0.498-3.778
						c1.347,0.632,2.451,1.166,3.312,1.602c1.254,0.643,2.286,1.244,3.094,1.804c0.166-1.161,0.264-1.907,0.295-2.239
						c0.083-0.912,0.093-1.674,0.031-2.285c-0.011-0.27-0.125-0.7-0.342-1.291c-0.187-0.549-0.295-0.969-0.327-1.26
						c1.41,1.182,2.996,1.897,4.758,2.146l-0.575-1.882c-0.207-0.736-0.353-1.425-0.435-2.067c-0.062-0.56-0.171-2.462-0.327-5.707
						c-0.114-2.374-0.363-4.167-0.746-5.38c0.705,0.643,1.896,1.13,3.576,1.461l4.042,0.809c-0.104-3.141-0.197-5.514-0.279-7.121
						c-0.104-2.819-0.321-5.032-0.653-6.639c0.85,0.301,2.052,0.612,3.607,0.933c0.104,0.01,0.29,0.067,0.56,0.171l0.575,0.171
						h0.436c0.187-0.031,0.332-0.031,0.436,0c0.725,0.125,1.617,0.399,2.674,0.824c1.472,0.581,2.317,0.902,2.535,0.964
						c-0.166-1.855-0.218-4.141-0.156-6.856l0.218-6.686c4.012,0.964,6.142,1.487,6.391,1.57c2.446,0.705,4.343,1.514,5.691,2.426
						c0.031-0.581,0.166-1.322,0.404-2.224c0.291-0.933,0.493-1.659,0.606-2.177l0.544-2.41c0.197-0.881,0.42-1.705,0.668-2.472
						c0.383-1.212,0.979-2.742,1.788-4.586c0.394-0.892,0.643-1.337,0.746-1.337l2.582,2.192c0.622,0.436,1.228,0.746,1.819,0.933
						c0.829,0.736,1.741,1.291,2.736,1.664c0.57,0.445,1.477,1.094,2.721,1.943c1.482,1.026,2.399,1.674,2.752,1.944
						c2.561-5.463,4.831-9.874,6.81-13.232l3.25,3.296c0.456,0.466,0.798,0.839,1.026,1.12c0.093,0.093,0.208,0.254,0.342,0.481
						l0.326,0.451c0.674,0.726,1.721,1.928,3.141,3.607c0.746,0.83,1.285,1.467,1.617,1.913c0.528,0.705,0.969,1.446,1.322,2.224
						c1.793-1.14,4.467-2.607,8.022-4.4c1.172-0.58,2.172-1.229,3.001-1.943l0.389-0.42c0.135-0.176,0.274-0.274,0.42-0.295
						c-0.177,0.86-0.177,1.726,0,2.597c0.146,0.715,0.415,1.487,0.809,2.317l0.964,2.13c0.384,0.819,0.772,1.467,1.166,1.944
						c1.606,1.99,2.716,3.685,3.327,5.084c1.307-0.249,2.644-0.585,4.012-1.011c0.694-0.176,1.141-0.29,1.337-0.342
						c0.56-0.156,0.959-0.285,1.197-0.389c0.26-0.104,0.638-0.348,1.136-0.731c0.486-0.353,0.85-0.555,1.088-0.606
						c-0.29,3.835-0.337,7.199-0.14,10.091c3.338-1.203,5.54-2.006,6.607-2.41c0.995-0.363,1.954-0.897,2.877-1.602
						c0.021,1.233,0.145,3.167,0.373,5.8c0.218,2.404,0.316,4.327,0.296,5.768c0.86,0.062,2.306,0,4.338-0.187
						c1.99-0.197,3.441-0.249,4.354-0.155c-0.197,0.881-0.456,2.627-0.777,5.24c-0.27,2.062-0.617,3.701-1.042,4.913
						c1.13-0.197,2.658-0.523,4.587-0.979c2.622-0.591,4.172-0.933,4.648-1.026c-0.487,2.902-0.938,6.333-1.353,10.293
						c2.55,0.653,5.069,0.958,7.557,0.917c-0.187,0.892-0.533,2.016-1.042,3.374l-1.368,3.701c0.083,0.042,0.141,0.031,0.171-0.031
						h0.062l0.28-0.109l0.016,0.016c0.818-0.187,2.14-0.627,3.965-1.321c1.762-0.664,3.047-1.089,3.855-1.275
						c-0.311,1.244-0.481,2.882-0.513,4.914c0,2.736-0.031,4.369-0.094,4.898c0.052,0,0.119-0.026,0.202-0.078h0.016l0.062-0.015
						c0.508-0.114,1.337-0.233,2.487-0.358c1.255-0.166,2.094-0.301,2.52-0.404c-0.146,1.285-0.368,2.612-0.669,3.98l-0.871,3.561
						l0.824-0.404c0.933-0.229,2.15-0.809,3.654-1.741c-0.384,3.026-0.451,5.789-0.202,8.287c0.56-0.197,1.27-0.55,2.13-1.058
						l2.067-1.274c0.156,1.14,0.239,2.389,0.249,3.747c0.021,0.912,0.005,2.13-0.047,3.653c0.395-0.03,0.918-0.191,1.571-0.481
						l1.43-0.685c0.114-0.041,0.312-0.171,0.591-0.389c0.28-0.207,0.478-0.367,0.591-0.481c0.187-0.197,0.353-0.274,0.498-0.233
						c-0.187,0.746-0.229,1.752-0.125,3.017c0.042,0.715,0.15,1.824,0.327,3.327c0.445-0.155,1.067-0.399,1.865-0.73l1.804-0.793
						c0.27,0.87,0.446,1.705,0.529,2.503c0.083,0.705,0.15,1.581,0.202,2.628c0.549-0.146,1.176-0.478,1.881-0.995
						c0.332-0.26,0.887-0.726,1.664-1.399c0.113,1.213,0.27,2.146,0.466,2.799c0.042,0.113,0.224,0.56,0.545,1.337
						c0.228,0.508,0.357,0.907,0.389,1.197c0.218,2.011-0.384,3.415-1.804,4.214c0.218,0.145,0.533,0.238,0.948,0.279
						c0.477,0.062,0.809,0.125,0.995,0.187c0.425-1.348,1.13-3.949,2.114-7.805c0.84-3.328,1.581-5.93,2.224-7.806
						c0.062-0.29,0.124-0.519,0.187-0.685c0.094-0.279,0.254-0.435,0.482-0.466c0.166,0.809,0.27,1.777,0.311,2.907
						c0.042,0.819,0.067,1.829,0.078,3.032c0.031,0.394,0.021,1.431-0.031,3.109c-0.021,1.327,0.016,2.358,0.108,3.095
						c0.508-0.457,1.068-1.302,1.68-2.535c0.663-1.265,1.125-2.197,1.384-2.798c0.083-0.197,0.15-0.41,0.202-0.638
						c0.094-0.321,0.16-0.534,0.202-0.638c0.57-1.15,0.948-1.97,1.135-2.457l0.482-1.213c0.218-0.445,0.481-0.751,0.793-0.917
						c0.031,0.55-0.031,1.244-0.187,2.083c-0.218,1.234-0.332,1.913-0.343,2.037l-0.108,1.229c-0.052,0.467-0.13,0.86-0.233,1.182
						l-0.56,2.13c-0.176,0.768-0.368,1.487-0.575,2.161l-0.265,1.073c-0.083,0.425-0.171,0.777-0.265,1.058
						c-0.113,0.362-0.357,0.969-0.73,1.818l-0.809,1.913l2.737-0.326c1.398-5.764,2.425-10.106,3.078-13.03
						c0.57-1.15,0.995-2.171,1.275-3.062c0.104-0.612,0.196-1.053,0.279-1.322c0.125-0.497,0.389-0.798,0.793-0.901
						c0.207,2.011,0.192,4.509-0.047,7.494l-0.621,7.743c1.077-1.026,2.114-2.368,3.109-4.027c0.953-1.575,1.783-3.239,2.487-4.991
						c0.021-0.052,0.042-0.16,0.062-0.326c0.021-0.146,0.047-0.254,0.077-0.326l0.685-1.617c0.26-0.611,0.389-1.171,0.389-1.679
						c0.031,0.01,0.067-0.141,0.109-0.451c0.041-0.321,0.083-0.487,0.124-0.498c0.041-0.021,0.104,0.125,0.187,0.436
						C242.941,146.698,242.998,146.854,243.029,146.854z"/>
					<path fill="none" stroke="#373535" stroke-width="1.5" stroke-miterlimit="10" d="M211.373,151.176
						c0.228,0.86,0.321,1.741,0.279,2.644c-0.041,0.942-0.223,1.71-0.544,2.301c-0.301,0.539-0.782,1.036-1.446,1.492
						c-0.601,0.404-1.274,0.731-2.021,0.98"/>
					<path fill="none" stroke="#373535" stroke-width="1.5" stroke-miterlimit="10" d="M213.254,161.267
						c-0.207-0.633-0.306-1.348-0.295-2.146c0.01-0.851,0.145-1.519,0.404-2.006c0.218-0.425,0.555-0.855,1.011-1.291
						c0.445-0.435,0.912-0.782,1.399-1.041"/>
					<path fill="none" stroke="#373535" stroke-width="1.5" stroke-miterlimit="10" d="M36.049,126.267
						c0.011,0.01,0.114,0.057,0.311,0.14c0.218,0.114,0.368,0.243,0.451,0.389"/>
					<path fill="none" stroke="#373535" stroke-width="1.5" stroke-miterlimit="10" d="M38.863,129.61
						c-0.332-0.062-0.529-0.399-0.591-1.01c-0.062-0.747,0.088-1.368,0.451-1.866"/>
					<path fill="none" stroke="#373535" stroke-width="1.5" stroke-miterlimit="10" d="M45.005,132.021
						c-0.383-0.57-0.736-1.333-1.057-2.286c-0.125-0.332-0.197-0.555-0.218-0.668c-0.187,0-0.404-0.036-0.653-0.109
						c-0.279-0.093-0.502-0.14-0.668-0.14c-0.114,0.383-0.285,0.736-0.513,1.057c-0.249,0.342-0.502,0.564-0.762,0.668"/>
					<path fill="none" stroke="#373535" stroke-width="1.5" stroke-miterlimit="10" d="M53.743,133.14
						c-0.166-0.062-0.275-0.13-0.327-0.202c-0.674-0.633-1.011-1.41-1.011-2.332c-0.56-0.062-0.938-0.13-1.135-0.203
						c-0.062,0.695-0.27,1.301-0.622,1.82c-0.342,0.518-0.782,0.823-1.321,0.917"/>
					<path fill="none" stroke="#373535" stroke-width="1.5" stroke-miterlimit="10" d="M69.292,130.885
						c-1.026-0.176-1.959-0.508-2.799-0.995c-0.715-0.415-1.425-0.975-2.13-1.68c-0.291,0.156-0.695,0.404-1.213,0.747
						c-0.487,0.301-0.975,0.472-1.461,0.513c0.217,1.513,0.104,2.499-0.342,2.954"/>
					<path fill="none" stroke="#373535" stroke-width="1.5" stroke-miterlimit="10" d="M83.86,118.648
						c-1.534-0.446-3.177-1.156-4.929-2.13l-1.135,1.244c-0.383,0.404-0.788,0.788-1.213,1.151c0.374,0.518,0.695,1.264,0.964,2.239
						c0.228,0.829,0.373,1.736,0.435,2.721l0.047,0.513"/>
					<path fill="none" stroke="#373535" stroke-width="1.5" stroke-miterlimit="10" d="M103.312,101.281
						c-0.519-0.404-1.296-0.896-2.333-1.477c-1.14-0.643-1.923-1.125-2.348-1.446c-0.311,0.259-0.715,0.637-1.213,1.135
						l-0.637,0.544c-0.301,0.259-0.461,0.477-0.482,0.653c-0.031,0.083-0.005,0.202,0.078,0.358l0.187,0.435
						c0.456,1.565,0.762,3.037,0.917,4.416"/>
					<path fill="none" stroke="#373535" stroke-width="1.5" stroke-miterlimit="10" d="M124.411,97.549
						c0.508-1.348,0.42-2.918-0.264-4.711l-0.887-2.208c-0.332-0.871-0.528-1.612-0.59-2.224c-0.736-0.124-1.493-0.166-2.271-0.124
						c-0.549,0.031-1.259,0.114-2.13,0.249c-0.083,0.891-0.285,1.897-0.606,3.016l-0.933,2.861
						c-0.342,1.089-0.539,1.752-0.591,1.991c-0.197,0.818-0.249,1.513-0.155,2.083"/>
					<path fill="none" stroke="#373535" stroke-width="1.5" stroke-miterlimit="10" d="M146.116,102.836
						c-0.135-0.943-0.104-2.068,0.093-3.374c0.156-1.109,0.395-2.146,0.716-3.11c-0.394-0.104-0.798-0.301-1.213-0.591
						c-0.55-0.363-0.928-0.591-1.135-0.684c-0.415,0.528-1.067,1.083-1.959,1.664c-1.161,0.767-1.866,1.259-2.115,1.477
						c-0.145,0.125-0.306,0.342-0.481,0.653c-0.166,0.291-0.337,0.498-0.514,0.622"/>
					<path fill="none" stroke="#373535" stroke-width="1.5" stroke-miterlimit="10" d="M162.209,117.327
						c-0.073-0.166-0.052-0.316,0.062-0.451l0.342-0.358c0.207-0.373,0.398-0.969,0.575-1.788c0.207-1.078,0.353-1.731,0.436-1.959
						c-0.073-0.104-0.462-0.586-1.167-1.446c-0.466-0.56-0.839-1.052-1.119-1.477c-0.249,0.114-0.679,0.244-1.29,0.389
						c-0.56,0.114-0.995,0.228-1.307,0.342c-0.207,0.073-0.502,0.254-0.886,0.544c-0.332,0.259-0.591,0.409-0.777,0.451"/>
					<path fill="none" stroke="#373535" stroke-width="1.5" stroke-miterlimit="10" d="M175.767,133.077
						c0.353-0.58,0.617-1.135,0.794-1.663c0.238-0.685,0.373-1.379,0.403-2.084l-1.632-1.804c-0.633-0.715-1.109-1.404-1.431-2.068
						c-0.177,0.031-0.316,0.042-0.42,0.031c-0.072,0-0.202-0.031-0.389-0.093c-0.487,0.166-1.016,0.254-1.586,0.264
						c-0.238,0.166-0.487,0.316-0.746,0.451c-0.301,0.176-0.57,0.249-0.809,0.217"/>
					<path fill="none" stroke="#373535" stroke-width="1.5" stroke-miterlimit="10" d="M189.403,146.854l0.56-1.011
						c0.187-0.363,0.331-0.741,0.436-1.136c-0.55-0.486-1.399-1.353-2.55-2.596c-1.026-1.109-1.893-1.954-2.597-2.535
						c-0.363-0.062-0.835,0.016-1.415,0.233c-0.487,0.208-0.881,0.415-1.182,0.622"/>
					<path fill="none" stroke="#373535" stroke-width="1.5" stroke-miterlimit="10" d="M201.795,155.685
						c0.062-0.519,0.067-0.84,0.016-0.964c-0.072,0.041-0.14,0.062-0.202,0.062c-0.104,0.021-0.213-0.021-0.326-0.125
						c-0.135-0.238-0.368-0.472-0.7-0.699c-0.539-0.373-0.839-0.586-0.901-0.638c-0.798-0.611-1.358-1.104-1.68-1.478
						c-0.321-0.113-0.652-0.32-0.995-0.621l-0.933-0.716c-0.155,0.031-0.373,0.177-0.653,0.436
						c-0.248,0.238-0.456,0.342-0.622,0.312"/>
					<path fill="none" stroke="#373535" stroke-width="1.5" stroke-miterlimit="10" d="M213.379,161.469
						c-0.083,0.021-0.125-0.047-0.125-0.202c0-0.135-0.959-0.611-2.876-1.431c-1.224-0.508-2.136-0.923-2.736-1.243l-0.591,0.279
						c-0.26,0.104-0.446,0.099-0.561-0.016"/>
					<path fill="none" stroke="#373535" stroke-width="1.5" stroke-miterlimit="10" d="M218.914,161.936
						c-0.042,0.01-0.182,0.124-0.42,0.342c-0.218,0.197-0.379,0.353-0.482,0.467"/>
					<path fill="none" stroke="#373535" stroke-width="1.5" stroke-miterlimit="10" d="M228.134,163.272
						c-0.155,0.342-0.368,0.715-0.638,1.119c-0.3,0.487-0.533,0.783-0.699,0.887c-0.757,0.528-1.757,0.606-3.001,0.233
						c-1.243-0.374-1.845-0.965-1.804-1.773c0-0.062,0.072-0.196,0.218-0.403c0.135-0.188,0.238-0.41,0.312-0.669"/>
					<path fill="none" stroke="#373535" stroke-width="1.5" stroke-miterlimit="10" d="M240.417,160.474
						c-0.311,0.622-0.757,1.373-1.337,2.255c-0.56,0.839-1.161,1.467-1.804,1.881c-0.124,0.094-0.311,0.182-0.56,0.265
						c-0.28,0.114-0.467,0.202-0.56,0.264l-0.467,0.404c-0.912,0.404-1.752,0.327-2.519-0.232c-0.902-0.674-0.892-1.556,0.031-2.644
						"/>
					<path fill="none" stroke="#373535" stroke-width="1.5" stroke-miterlimit="10" d="M131.951,164.144
						c1.534-0.954,2.919-2.001,4.151-3.142l1.913-1.741c0.602-0.549,1.213-1.146,1.835-1.788c0.56-0.663,1.072-1.321,1.539-1.975
						l2.192-3.125c0.321-0.436,0.564-0.788,0.73-1.058c0.155-0.249,0.404-0.591,0.746-1.026l0.731-1.041
						c0.218-0.353,0.45-0.819,0.699-1.399l2.006-4.4c0.528-1.12,0.938-2.104,1.229-2.954l0.481-1.586
						c0.177-0.612,0.389-1.13,0.638-1.555"/>
					<path fill="none" stroke="#373535" stroke-width="1.5" stroke-miterlimit="10" d="M118.456,199.204
						c-0.104-0.062-0.14-0.186-0.109-0.372c0.072-0.239,0.109-0.472,0.109-0.7"/>
					<path fill="none" stroke="#373535" stroke-width="1.5" stroke-miterlimit="10" d="M114.911,162.199l-0.249-2.519
						c-0.093-0.923-0.114-1.726-0.062-2.41c0.021-0.528,0.114-1.534,0.28-3.017l0.171-1.197c0.374-2.508,1.021-5.607,1.944-9.298
						l0.311-1.057c0.581-2.229,1.119-4.146,1.617-5.753c0.861-2.281,1.488-3.877,1.882-4.789c0.414-0.633,0.953-1.602,1.617-2.908
						c0.684-1.306,1.233-2.254,1.648-2.845c0.176-0.093,0.394-0.348,0.653-0.762"/>
					<path fill="none" stroke="#373535" stroke-width="1.5" stroke-miterlimit="10" d="M85.275,156.399
						c0.756,1.141,1.244,2.675,1.461,4.603c0.062-0.041,0.036,0.343-0.078,1.151c-0.135,0.85-0.332,1.445-0.591,1.788
						c-0.104,0.176-0.171,0.352-0.202,0.528c-0.156,0.528-0.233,1.052-0.233,1.57c-0.01,1.109,0.291,2.146,0.902,3.109"/>
					<path fill="none" stroke="#373535" stroke-width="1.5" stroke-miterlimit="10" d="M67.363,160.878
						c-0.166-0.321-0.419-1.042-0.762-2.161l-0.466-1.586c-0.031-0.26-0.202-1.083-0.513-2.473
						c-0.207-0.943-0.295-1.767-0.265-2.472"/>
					<path fill="none" stroke="#373535" stroke-width="1.5" stroke-miterlimit="10" d="M46.933,145.174
						c-0.042-0.072-0.176-0.233-0.404-0.481c-0.301-0.332-0.487-0.539-0.56-0.622c-0.291-0.312-0.498-0.586-0.622-0.824"/>
					<path fill="none" stroke="#373535" stroke-width="1.5" stroke-miterlimit="10" d="M36.78,137.229l0.016,0.887
						c0,0.384-0.026,0.689-0.078,0.917l-0.311,0.809c-0.042,0.104-0.099,0.342-0.171,0.716c-0.062,0.362-0.166,0.72-0.311,1.072"/>
					<path fill="none" stroke="#373535" stroke-width="1.5" stroke-miterlimit="10" d="M24.776,143.837
						c-0.031-0.021-0.187-0.067-0.466-0.14c-0.28-0.073-0.493-0.12-0.638-0.141"/>
					<path fill="none" stroke="#373535" stroke-width="1.5" stroke-miterlimit="10" d="M19.49,142.842
						c-0.29,0.342-0.585,0.42-0.886,0.233c-0.322-0.321-0.581-0.514-0.778-0.575c-0.466-0.155-1.005-0.036-1.617,0.357
						c-0.715,0.456-1.202,0.689-1.461,0.699c-0.104,0.031-0.316-0.005-0.637-0.108c-0.57-0.155-1.047-0.161-1.431-0.016"/>
					<path fill="none" stroke="#373535" stroke-width="1.5" stroke-miterlimit="10" d="M220.857,162.401
						c0.041,0.042,0.223,0.099,0.544,0.171c0.312,0.062,0.523,0.089,0.638,0.078c0.238-0.031,0.399-0.025,0.482,0.016
						c0.238-0.29,0.818-1.067,1.741-2.332c0.943-1.265,1.633-2.115,2.067-2.55"/>
					<path fill="none" stroke="#373535" stroke-width="1.5" stroke-miterlimit="10" d="M230.871,162.946l1.523-0.218
						c0.353-0.062,0.622-0.083,0.809-0.062l1.741-1.835c0.394-0.436,0.622-0.757,0.685-0.964"/>
					<path fill="none" stroke="#373535" stroke-width="1.5" stroke-miterlimit="10" d="M163.624,112.771
						c0.362-0.902,0.876-1.793,1.539-2.675c0.715-0.964,1.451-1.695,2.208-2.192c0.715-0.457,1.581-0.866,2.597-1.229
						c1.057-0.374,2.166-0.653,3.327-0.84"/>
					<path fill="none" stroke="#373535" stroke-width="1.5" stroke-miterlimit="10" d="M166.423,96.025
						c0.021,3.897-0.192,6.66-0.638,8.287c-0.395,1.431-0.902,2.571-1.524,3.421c-0.746,1.005-1.72,1.71-2.923,2.115"/>
					<path fill="none" stroke="#373535" stroke-width="1.5" stroke-miterlimit="10" d="M122.669,88.407
						c-0.28-1.306-0.327-2.959-0.14-4.96c0.218-1.928,1-3.659,2.348-5.193c0.591-0.684,1.104-1.223,1.54-1.617
						c0.881-0.798,1.923-1.529,3.125-2.192"/>
					<path fill="none" stroke="#373535" stroke-width="1.5" stroke-miterlimit="10" d="M111.708,74.584
						c1.804,1.523,3.452,3.524,4.944,6.001c0.176,0.28,0.358,0.658,0.544,1.135c0.238,0.58,0.415,0.958,0.529,1.135
						c0.01,0.042,0.062,0.093,0.155,0.155l0.125,0.171c0.217,0.56,0.347,1.342,0.389,2.348c0.042,0.933,0,1.933-0.125,3.001"/>
					<path fill="none" stroke="#373535" stroke-width="1.5" stroke-miterlimit="10" d="M147.64,81.457
						c0.27,0.487,0.472,1.13,0.606,1.928c0.125,0.736,0.166,1.436,0.125,2.099c-0.062,1.078-0.28,2.141-0.653,3.188
						c-0.114,0.342-0.249,0.824-0.404,1.446c-0.124,0.518-0.254,0.922-0.389,1.212l-0.467,0.747
						c-0.715,1.254-1.088,1.913-1.119,1.975c-0.342,0.56-0.596,0.902-0.762,1.026"/>
					<path fill="none" stroke="#373535" stroke-width="1.5" stroke-miterlimit="10" d="M146.925,96.352
						c0.27-0.954,0.726-1.83,1.368-2.628c0.311-0.394,0.901-1.057,1.772-1.99c0.56-0.487,1.374-1,2.441-1.54
						c0.539-0.27,1.436-0.689,2.689-1.259c0.104-0.042,0.337-0.135,0.7-0.28c0.259-0.103,0.383-0.166,0.373-0.186"/>
					<path fill="none" stroke="#373535" stroke-width="1.5" stroke-miterlimit="10" d="M176.964,129.33
						c0.104-1.078,0.456-2.058,1.058-2.938c0.56-0.84,1.296-1.529,2.208-2.068c1.036-0.612,3.068-1.348,6.095-2.208"/>
					<path fill="none" stroke="#373535" stroke-width="1.5" stroke-miterlimit="10" d="M181.178,114.124
						c-0.155,1.503-0.394,2.907-0.715,4.213c-0.342,1.41-0.741,2.519-1.197,3.328c-0.57,1.036-1.285,1.876-2.146,2.519
						c-0.954,0.705-2.026,1.13-3.219,1.275"/>
					<path fill="none" stroke="#373535" stroke-width="1.5" stroke-miterlimit="10" d="M190.398,144.707
						c0.052-1.357,0.368-2.663,0.948-3.918c0.508-1.099,1.197-1.928,2.068-2.487v-0.016l0.03-0.016l0.047-0.062l0.047,0.016
						l0.016-0.077l0.14-0.109l0.016-0.016c0.094-0.03,0.368-0.187,0.824-0.466c1.327-0.747,2.42-1.301,3.28-1.664"/>
					<path fill="none" stroke="#373535" stroke-width="1.5" stroke-miterlimit="10" d="M194.067,129.206
						c0.083,0.415,0.114,0.917,0.094,1.508c-0.031,0.643-0.119,1.202-0.265,1.68c-0.445,1.492-0.674,2.28-0.684,2.363
						c-0.031,0.135-0.13,0.301-0.296,0.497c-0.27,0.27-0.42,0.44-0.451,0.514c-0.601,0.87-1.135,1.487-1.602,1.85
						c-0.829,0.664-1.564,1.156-2.208,1.478c-1.067,0.508-2.202,0.668-3.404,0.481"/>
					<path fill="none" stroke="#373535" stroke-width="1.5" stroke-miterlimit="10" d="M202.091,142.033
						c-0.073,1.379-0.119,2.213-0.141,2.503c-0.072,0.882-0.15,1.493-0.233,1.835c-0.311,1.224-0.854,2.115-1.632,2.675
						c-0.332,0.238-0.896,0.477-1.695,0.715c-1.348,0.384-2.119,0.633-2.316,0.746"/>
					<path fill="none" stroke="#373535" stroke-width="1.5" stroke-miterlimit="10" d="M201.811,154.721
						c-0.062-0.498-0.094-1.083-0.094-1.757c0-0.746,0.042-1.343,0.125-1.788c0.218-1.119,0.611-1.918,1.182-2.395
						c0.528-0.363,1.114-0.705,1.757-1.026c0.663-0.321,1.233-0.539,1.71-0.653"/>
					<path fill="none" stroke="#373535" stroke-width="1.5" stroke-miterlimit="10" d="M82.197,90.661
						c1.627,0.695,3.073,1.41,4.338,2.146c0.705,0.373,1.881,1.062,3.529,2.068c1.389,0.829,2.498,1.586,3.328,2.27
						c0.539,0.446,1.094,1.021,1.664,1.726c0.498,0.622,0.912,1.229,1.244,1.819"/>
					<path fill="none" stroke="#373535" stroke-width="1.5" stroke-miterlimit="10" d="M98.631,98.358
						c-0.373-0.332-0.777-0.788-1.213-1.368c-0.456-0.612-0.819-1.203-1.088-1.773c-0.415-0.871-0.85-2.032-1.306-3.482
						c-0.467-1.452-0.788-2.747-0.964-3.887c-0.207-1.42-0.249-2.861-0.124-4.323l0.186-1.026c0.031-0.114,0.062-0.332,0.094-0.653
						c0.042-0.311,0.083-0.555,0.125-0.73"/>
					<path fill="none" stroke="#373535" stroke-width="1.5" stroke-miterlimit="10" d="M43.73,129.066
						c-0.093-0.466-0.031-0.938,0.187-1.415c0.207-0.446,0.415-0.839,0.622-1.182"/>
					<path fill="none" stroke="#373535" stroke-width="1.5" stroke-miterlimit="10" d="M42.004,125.925
						c0.208,0.27,0.389,0.71,0.544,1.321c0.042,0.218,0.052,0.472,0.031,0.762c-0.021,0.321-0.078,0.591-0.171,0.809"/>
					<path fill="none" stroke="#373535" stroke-width="1.5" stroke-miterlimit="10" d="M64.363,128.21
						c-0.498-0.404-0.943-0.969-1.337-1.694c-0.404-0.757-0.663-1.524-0.777-2.301c-0.176-1.337-0.14-3.058,0.109-5.162"/>
					<path fill="none" stroke="#373535" stroke-width="1.5" stroke-miterlimit="10" d="M56.62,123.468
						c1.223,0.674,2.28,1.457,3.172,2.348c0.435,0.446,0.829,1.016,1.182,1.71c0.332,0.653,0.57,1.301,0.715,1.944"/>
					<path fill="none" stroke="#373535" stroke-width="1.5" stroke-miterlimit="10" d="M49.872,125.925
						c0,0.021,0.052,0.104,0.155,0.249c0.104,0.166,0.187,0.275,0.249,0.327c0.166,0.166,0.27,0.29,0.311,0.373
						c0.29,0.487,0.498,1.062,0.622,1.726c0.114,0.632,0.135,1.233,0.062,1.803"/>
					<path fill="none" stroke="#373535" stroke-width="1.5" stroke-miterlimit="10" d="M52.406,130.605
						c-0.104-0.757,0-1.617,0.311-2.582c0.446-1.161,0.7-2.037,0.762-2.627"/>
					<path fill="none" stroke="#373535" stroke-width="1.5" stroke-miterlimit="10" d="M25.149,134.306
						c-0.176-0.083-0.243-0.347-0.202-0.793c0.011-0.155,0.14-0.368,0.389-0.638c0.208-0.228,0.374-0.378,0.498-0.451
						c-0.363,0.073-0.721,0.094-1.073,0.062c-0.29-0.021-0.492-0.067-0.606-0.14c-0.342-0.197-0.56-0.44-0.653-0.73"/>
					<path fill="none" stroke="#373535" stroke-width="1.5" stroke-miterlimit="10" d="M29.301,133.077
						c-0.124-0.01-0.264-0.114-0.419-0.311c-0.146-0.177-0.291-0.27-0.436-0.28c0.373,0.777,0.373,1.285,0,1.523"/>
					<path fill="none" stroke="#373535" stroke-width="1.5" stroke-miterlimit="10" d="M30.109,134.959
						c0.156-0.446,0.249-0.752,0.28-0.918c0.062-0.373-0.011-0.606-0.218-0.699c0.549-0.28,0.855-0.7,0.917-1.26
						c0.062-0.601-0.176-1.093-0.715-1.477c-0.207-0.176-0.544-0.306-1.01-0.389c-0.529-0.104-0.99-0.083-1.384,0.062"/>
					<path fill="none" d="M13.768,138.783c0.301-0.331,0.602-0.45,0.902-0.357c-0.228,0.104-0.373,0.27-0.436,0.498
						c-0.072,0.207-0.031,0.445,0.125,0.715c-0.135,0.28-0.311,0.436-0.528,0.467c-0.208,0.062-0.389-0.011-0.544-0.218
						C13.307,139.452,13.468,139.084,13.768,138.783z"/>
					<path fill="none" stroke="#373535" stroke-width="1.5" stroke-miterlimit="10" d="M66.772,114.124l2.566,0.249
						c0.922,0.073,1.689,0.208,2.301,0.404c0.839,0.28,1.705,0.783,2.596,1.508c0.975,0.788,1.757,1.664,2.348,2.628"/>
					<path fill="none" stroke="#373535" stroke-width="1.5" stroke-miterlimit="10" d="M78.932,116.518
						c-0.943-0.684-1.809-1.482-2.597-2.394c-0.539-0.643-1.104-1.415-1.695-2.317c-1.223-1.907-1.959-3.897-2.208-5.971
						c-0.052-0.446-0.062-1.14-0.031-2.083c0.042-1.016,0.01-1.814-0.094-2.395"/>
					<path fill="none" stroke="#373535" stroke-width="1.5" stroke-miterlimit="10" d="M93.345,180.5
						c-0.497,0.27-0.954,0.726-1.368,1.368c-0.166,0.27-0.352,0.44-0.56,0.514"/>
					<path fill="none" stroke="#373535" stroke-width="1.5" stroke-miterlimit="10" d="M97.714,169.306
						c-1.648,0.238-2.576,0.367-2.784,0.389c-3.13,0.311-5.929,0.129-8.396-0.545c0.125,0.094,0.228,0.244,0.311,0.451l0.218,0.482
						c0.301,0.435,1.119,1.243,2.457,2.425c1.057,0.934,1.731,1.84,2.021,2.722c0.021,0.041,0.093,0.196,0.217,0.466
						c0.114,0.312,0.156,0.622,0.125,0.934c-0.56,1.585-1.472,3.197-2.736,4.835c-0.705,0.892-1.866,2.26-3.483,4.105l-0.389,0.481
						c-1.742,0.757-2.856,1.514-3.343,2.27"/>
					<path fill="none" stroke="#373535" stroke-width="1.5" stroke-miterlimit="10" d="M68.421,192.674
						c0.425-0.518,1.14-1.01,2.146-1.477l1.664-0.746c0.021-0.052,0.156-0.306,0.405-0.762c0.27-0.478,0.414-0.726,0.435-0.747
						c0.27-0.404,0.632-0.793,1.088-1.166"/>
					<path fill="none" stroke="#373535" stroke-width="1.5" stroke-miterlimit="10" d="M146.521,163.07
						c-0.912-0.104-2.083-0.274-3.514-0.514l-3.125-0.606c-1.255-0.248-2.618-0.471-4.09-0.668"/>
					<path fill="none" stroke="#373535" stroke-width="1.5" stroke-miterlimit="10" d="M140.97,187.513
						c-0.083-0.135-0.094-0.316-0.031-0.544c0.166-0.509,0.244-0.788,0.233-0.84"/>
					<path fill="none" stroke="#373535" stroke-width="1.5" stroke-miterlimit="10" d="M131.951,164.144
						c0.042,0.155,0.172,0.538,0.39,1.15c0.238,0.652,0.409,1.171,0.513,1.555c0.114,0.425,0.233,1.166,0.357,2.224
						c0.104,0.85,0.171,1.523,0.202,2.021"/>
					<path fill="none" stroke="#373535" stroke-width="1.5" stroke-miterlimit="10" d="M137.829,187.792
						c0.321-0.342,0.813-0.684,1.477-1.026c0.705-0.362,1.327-0.575,1.866-0.637c0.021-0.104,0.062-0.187,0.124-0.249
						c0.052-0.072,0.146-0.44,0.28-1.104"/>
					<path fill="none" stroke="#373535" stroke-width="1.5" stroke-miterlimit="10" d="M114.6,200.355
						c0.436-0.477,1.052-0.948,1.85-1.415c0.695-0.404,1.363-0.674,2.006-0.809c0.27-0.923,0.446-1.477,0.529-1.664"/>
					<path fill="none" stroke="#373535" stroke-width="1.5" stroke-miterlimit="10" d="M26.425,133.575
						c0.611,0.238,1.104,0.16,1.477-0.233c0.052-0.445,0.052-0.772,0-0.979c-0.269-0.135-0.606-0.171-1.01-0.109
						c-0.301,0.062-0.653,0.119-1.057,0.171C25.595,132.974,25.792,133.357,26.425,133.575z"/>
					<path fill="none" d="M26.596,132.642c-0.042-0.062-0.052-0.134-0.031-0.218c0.466-0.041,0.715,0.197,0.747,0.716
						c-0.239,0.342-0.55,0.445-0.933,0.311c-0.373-0.124-0.513-0.404-0.42-0.839c0.135-0.031,0.238-0.021,0.311,0.03
						c0.062,0.031,0.119,0.089,0.171,0.171c0.031,0,0.073-0.025,0.125-0.077C26.616,132.735,26.627,132.704,26.596,132.642z"/>
					<path fill="none" stroke="#373535" stroke-width="1.5" stroke-miterlimit="10" d="M27.901,132.362
						c0.146,0.041,0.327,0.083,0.544,0.124"/>
				</g>
			</g>
		</g>
	</g>
</g>
</svg>
