<?xml version="1.0" encoding="utf-8"?>
<!-- Generator: Adobe Illustrator 17.0.1, SVG Export Plug-In . SVG Version: 6.00 Build 0)  -->
<!DOCTYPE svg PUBLIC "-//W3C//DTD SVG 1.1//EN" "http://www.w3.org/Graphics/SVG/1.1/DTD/svg11.dtd">
<svg version="1.1" id="Layer_1" xmlns="http://www.w3.org/2000/svg" xmlns:xlink="http://www.w3.org/1999/xlink" x="0px" y="0px"
	 width="246.964px" height="110.488px" viewBox="6.774 71.77 246.964 110.488" enable-background="new 6.774 71.77 246.964 110.488"
	 xml:space="preserve">
<g>
	<g id="Layer_1_1_">
		<g>
			<g id="Layer_1_3_">
				<g>
					<g>
						<path fill="#FFFFFF" stroke="#373535" stroke-width="1.5" stroke-miterlimit="10" d="M199.679,83.68
							c-0.617-0.533-1.339-0.811-2.165-0.832c-0.796-0.01-1.491,0.209-2.087,0.659c-0.639,0.471-1.005,1.083-1.099,1.836
							c-0.104,0.858,0.173,1.763,0.831,2.715c-0.01,0.523-0.371,1.575-1.082,3.154c-0.597,1.737-0.659,3.411-0.188,5.021
							c-0.932-0.492-1.711-0.853-2.338-1.083l-3.391-1.13c-0.627-0.304-1.082-0.497-1.364-0.581
							c-0.366-0.125-1.136-0.25-2.308-0.376v0.016c-1.433,3.17-2.301,5.278-2.604,6.324c-0.952,3.243-1.104,6.46-0.455,9.651
							c1.517,7.47,3.62,14.019,6.309,19.647c1.956,4.101,4.431,8.045,7.422,11.833c0.649,0.837,1.806,2.238,3.469,4.205
							c1.317,1.58,2.296,2.809,2.935,3.688c1.894,2.626,2.977,5.216,3.248,7.769c0.021,0.104,0.031,0.251,0.031,0.439
							c0.084,0.502,0.053,0.862-0.094,1.083v0.329c-0.126,0.293-0.204,0.513-0.235,0.659c-0.063,0.073-0.121,0.198-0.173,0.376
							l-0.879,1.648c-0.01-0.011-0.016-0.019-0.016-0.023c-0.32,0.405-0.671,0.68-1.052,0.823c-0.68,0.293-1.281,0.455-1.805,0.486
							c-0.837,0.032-1.501,0.089-1.993,0.173c-1.077,0.335-1.961,0.57-2.651,0.706c-0.764,0.262-1.407,0.45-1.931,0.565
							c-0.931,0.22-2.176,0.335-3.734,0.345c-0.146,0.053-0.377,0.079-0.69,0.079c-2.302,0.031-5.063,0.125-8.286,0.282
							c-0.544,0.031-1.124,0.167-1.741,0.408c-0.628,0.24-1.407,0.382-2.339,0.424c-6.36,0.282-9.677,0.486-9.949,0.611
							c-0.471,0.168-1.015,0.293-1.632,0.377c-0.795,0.209-2.107,0.361-3.938,0.455c-3.84,0.209-6.46,0.622-7.862,1.239
							l-3.312,1.114c-1.224,0.419-5.675,0.628-13.354,0.628l-5.509-0.157c-0.46,0.104-0.758,0.157-0.894,0.157
							c-0.325,0-0.502-0.125-0.534-0.377l-13.213-0.172c-3.997-0.053-7.124-0.079-9.384-0.079c-2.114-0.031-3.683,0.053-4.708,0.251
							c-0.627,0.146-1.522,0.22-2.684,0.22l-1.585-0.062c-2.438,0-4.577-0.215-6.418-0.644c-0.764-0.146-1.313-0.277-1.648-0.392
							c-1.318,0.031-2.678,0.047-4.08,0.047c-4.875,0-8.604-0.215-11.189-0.644c-0.774-0.084-2.343-0.183-4.708-0.298
							c-0.376-0.021-0.638-0.063-0.785-0.126c-0.795-0.146-1.569-0.34-2.323-0.58c-1.496-0.523-2.296-0.796-2.401-0.816
							c-0.523-0.073-1.167-0.095-1.93-0.062c-0.596,0.021-1.051-0.032-1.365-0.157c-0.178-0.125-0.403-0.246-0.675-0.361
							l-0.785-0.376l0.062-0.016c-0.157-0.115-0.408-0.419-0.753-0.911c-0.083-0.083-0.152-0.188-0.204-0.313
							c-0.01-0.052-0.026-0.084-0.047-0.094c-0.586-0.983-0.973-1.601-1.161-1.852c-0.011-0.021-1.072-1.089-3.186-3.201
							c-2.542-2.846-4.514-4.996-5.916-6.45c-0.502-0.523-1.245-1.156-2.228-1.898c-1.842-1.34-4.237-2.757-7.188-4.253
							c-3.044-1.203-4.906-2.087-5.586-2.652c-1.622-1.182-2.558-2.107-2.809-2.777c-0.052-0.104-0.079-0.225-0.079-0.361
							c0-0.628,0.429-0.941,1.287-0.941c0.125,0,0.335,0.021,0.627,0.063c-0.261-0.263-0.606-0.696-1.036-1.303
							c-0.941-1.329-1.412-2.108-1.412-2.339c0-0.387,0.246-0.58,0.737-0.58c0.481,0,1.999,0.664,4.551,1.993
							c3.212,1.643,5.21,2.636,5.995,2.981c0.46,0.188,1.078,0.351,1.852,0.486c0.115,0,0.209,0.005,0.282,0.016
							c0.827,0.115,1.407,0.251,1.742,0.408c1.108,0.564,2.076,0.946,2.903,1.146c1.831,0.345,4.08,0.695,6.748,1.051
							c0.052,0.021,0.12,0.032,0.204,0.032c0.053-0.021,0.131-0.032,0.236-0.032c0.366,0,0.737,0.059,1.114,0.173
							c0.868,0.126,2.924,0.204,6.167,0.235c0.314,0,0.895,0.152,1.742,0.455c1.35,0.388,3.929,0.681,7.737,0.879l2.401,0.439
							c0.261,0.062,0.669,0.12,1.224,0.173l-0.032-0.126c0-0.229,0.167-0.606,0.502-1.13l0.282-0.393h-0.785
							c-2.04,0-3.504-0.183-4.394-0.549c-0.575-0.366-0.941-0.56-1.098-0.58c-0.983-0.095-1.81-0.188-2.479-0.283
							c-0.042,0.021-0.11,0.031-0.204,0.031c-0.209,0-0.644-0.214-1.303-0.643c-0.711-0.43-1.276-0.644-1.695-0.644
							c-1.129,0-2.191,0.193-3.185,0.58c-0.91,0.314-1.459,0.487-1.648,0.519c-0.22,0.114-0.492,0.235-0.816,0.36
							c-0.889,0.335-1.475,0.502-1.758,0.502c-0.335,0-0.565-0.089-0.69-0.267l-0.079-0.313c0-0.157,0.408-0.706,1.224-1.647
							l0.094-0.095h-0.125c-0.732,0-1.188-0.099-1.365-0.298l-0.047-0.33c0-0.805,1.255-1.819,3.767-3.044l0.91-0.393l-0.157-0.36
							c0-0.795,1.036-1.596,3.107-2.401c0.774-0.282,2.092-0.612,3.955-0.988c0.806-0.179,1.417-0.299,1.836-0.361l-0.047-0.047
							c-0.387-0.471-0.581-0.8-0.581-0.988c0-0.23,0.167-0.497,0.502-0.801c0.157-0.157,0.33-0.293,0.518-0.408
							c0.314-0.23,0.675-0.414,1.083-0.549c0.115-0.534,0.806-1.496,2.071-2.888c1.266-1.402,2.208-2.328,2.825-2.778
							c0.46-0.345,1.643-1.276,3.546-2.793c0.963-0.638,2.286-0.973,3.97-1.004c1.025-0.031,1.836-0.089,2.433-0.172
							c-0.241-0.073-0.429-0.178-0.565-0.314l-0.141-0.455c0-0.167,0.429-0.711,1.287-1.632l0.141-0.157
							c-0.104-0.083-0.188-0.235-0.251-0.455l-0.047-0.628c0-1.108,1.088-2.359,3.264-3.75c0.816-0.523,1.726-0.989,2.731-1.397
							c2.071-0.774,4.373-1.177,6.905-1.208c-0.084-0.167-0.125-0.293-0.125-0.377c0-0.366,0.068-0.617,0.204-0.753
							c0.439-0.345,1.444-0.518,3.013-0.518c4.687,0,9.876,0.952,15.567,2.856c0.031,0,0.058,0.01,0.079,0.031
							c3.211,1.088,6.727,2.469,10.545,4.143c0.983,0.387,4.32,1.94,10.012,4.661c0.848,0.429,2.265,1.365,4.253,2.809
							c2.02,1.444,3.028,2.27,3.028,2.479v0.094l19.192,12.444c1.329,0.9,3.175,1.909,5.539,3.029
							c1.161,0.784,2.637,1.888,4.426,3.311c0.711,0.481,1.36,0.963,1.945,1.444c-3.399-4.928-5.937-9.72-7.61-14.375
							c-2.783-7.731-4.175-16.828-4.175-27.29c0-10.43,1.868-18.396,5.603-23.899c2.49-3.672,5.54-5.963,9.148-6.874
							c1.978-0.513,4.008-0.769,6.089-0.769c3.62,0,6.832,0.837,9.636,2.511c2.814,1.674,4.755,3.908,5.822,6.701
							c0.366,0.994,0.92,2.678,1.663,5.053c0.062,0.115,0.12,0.34,0.173,0.675c-0.544,0.376-1.156,0.319-1.836-0.173
							c-0.513-0.366-0.832-0.701-0.958-1.004c-0.167-0.659-0.287-1.098-0.36-1.318C200.584,84.611,200.244,84.183,199.679,83.68z"/>
						<path fill="none" stroke="#373535" stroke-width="1.5" stroke-miterlimit="10" d="M42.094,141.681
							c0-0.22-0.633-0.502-1.899-0.848c-0.816-0.24-1.449-0.393-1.898-0.455c-0.251-0.053-0.424-0.089-0.518-0.11
							c-1.527-0.209-3.06-0.585-4.598-1.129"/>
						<path fill="none" stroke="#373535" stroke-width="1.5" stroke-miterlimit="10" d="M52.137,148.256
							c0-0.471-1.182-1.178-3.547-2.119c-0.648-0.261-1.956-0.727-3.923-1.396c-2.584-0.628-4.075-1.072-4.473-1.334
							c-1.339-0.324-2.736-0.522-4.19-0.596c-1.517-0.073-2.354-0.126-2.511-0.157"/>
						<path fill="none" stroke="#373535" stroke-width="1.5" stroke-miterlimit="10" d="M177.584,83.979
							c-0.262,0-0.455,0.481-0.581,1.444c-0.052,0.544-0.078,1.041-0.078,1.491c0,0.785,0.026,1.255,0.078,1.413
							c0.053,0.167,0.45,0.769,1.192,1.804c0.618,0.764,1.251,1.36,1.899,1.789c0.868,0.544,1.825,0.863,2.872,0.958l1.521,0.188"/>
						<path fill="none" stroke="#373535" stroke-width="1.5" stroke-miterlimit="10" d="M192.397,155.02
							c-0.857-0.22-1.438-0.383-1.741-0.487c-1.036-0.345-2.02-0.842-2.95-1.49c-0.942-0.743-1.91-1.47-2.903-2.182
							c-0.932-0.659-1.418-0.978-1.46-0.957c-0.68-0.481-1.867-1.203-3.562-2.166c-0.115-0.125-0.874-0.795-2.276-2.008"/>
						<path fill="none" stroke="#373535" stroke-width="1.5" stroke-miterlimit="10" d="M87.618,144.976
							c-0.429,0-1.339,0.184-2.73,0.55c-0.869,0.251-1.454,0.429-1.758,0.533c-0.136-0.053-0.293-0.094-0.471-0.125
							c-0.533-0.105-1.664-0.215-3.39-0.33l-2.903-0.251"/>
						<path fill="none" stroke="#373535" stroke-width="1.5" stroke-miterlimit="10" d="M92.138,148.365
							c1.349-0.271,2.024-0.465,2.024-0.58"/>
						<path fill="none" stroke="#373535" stroke-width="1.5" stroke-miterlimit="10" d="M106.904,149.746h4.676
							c0.241-0.021,0.361-0.062,0.361-0.125"/>
						<path fill="none" stroke="#373535" stroke-width="1.5" stroke-miterlimit="10" d="M121.781,152.305
							c0.021,0,0.335,0.062,0.941,0.188c0.555,0.115,0.863,0.188,0.926,0.22c0.837,0.366,1.365,0.55,1.585,0.55"/>
						<path fill="none" stroke="#373535" stroke-width="1.5" stroke-miterlimit="10" d="M155.787,157.766
							c0.533-0.105,0.978-0.272,1.334-0.503c0.293-0.198,0.438-0.365,0.438-0.502"/>
						<path fill="none" stroke="#373535" stroke-width="1.5" stroke-miterlimit="10" d="M83.13,146.059
							c0.251,0.408,0.57,0.753,0.958,1.036c0.23,0.178,0.612,0.407,1.146,0.69c1.161,0.606,2.484,0.91,3.97,0.91
							c0.523,0,1.444-0.104,2.762-0.314l0.173-0.016c-0.021,0.031-0.032,0.089-0.032,0.173c0,0.293,0.534,0.612,1.601,0.957
							c1.308,0.429,2.976,0.581,5.005,0.455l1.413-0.047c3.474-0.011,5.293-0.036,5.461-0.078l1.318-0.079l-0.016,0.314
							c0.021,1.517,2.082,2.275,6.183,2.275l5.085-0.204c1.559,0,2.767,0.058,3.625,0.173c-0.021,0.021-0.031,0.062-0.031,0.125
							c0,0.544,0.471,1.136,1.413,1.773c1.464,0.983,3.625,1.475,6.481,1.475l8.113-0.156c1.987,0,3.186,0.109,3.594,0.329
							c0.262,0.146,0.466,0.314,0.612,0.503c1.13,0.313,2.474,0.496,4.033,0.549c0.136,0.293,0.601,0.602,1.396,0.926
							c1.035,0.387,2.087,0.581,3.154,0.581c1.464,0,2.966-0.152,4.503-0.456c0.377-0.083,0.623-0.146,0.738-0.188
							c0.303,0.293,0.773,0.564,1.412,0.815c1.35,0.534,2.977,0.801,4.881,0.801c2.134,0,3.954-0.393,5.461-1.177
							c1.286-0.69,1.93-1.35,1.93-1.978c-0.031-0.355-0.198-0.534-0.502-0.534"/>
						<path fill="none" stroke="#373535" stroke-width="1.5" stroke-miterlimit="10" d="M81.67,129.251
							c0.074,0.167,0.256,0.251,0.549,0.251c0.659,0,2.406-0.298,5.242-0.895c2.417-0.534,4.195-0.962,5.335-1.287
							c0.827-0.23,2.768-0.691,5.822-1.381c0.167-0.042,1.339-0.193,3.515-0.455c1.548-0.188,2.322-0.429,2.322-0.722"/>
						<path fill="none" stroke="#373535" stroke-width="1.5" stroke-miterlimit="10" d="M74.028,129.833
							c0,0.125,0.052,0.241,0.157,0.345c0.178,0.209,0.507,0.314,0.989,0.314c0.523,0,1.527-0.356,3.013-1.067l3.578-1.742
							c0.209-0.094,1.486-0.518,3.829-1.271c1.747-0.555,2.621-0.942,2.621-1.162"/>
						<path fill="none" stroke="#373535" stroke-width="1.5" stroke-miterlimit="10" d="M194.72,92.845
							c2.177,3.483,3.971,6.167,5.383,8.05c3.589,4.792,6.508,7.475,8.757,8.05"/>
						<path fill="#373535" d="M207.854,106.561c0.084,0.083,0.267,0.246,0.55,0.486c0.229,0.24,0.298,0.418,0.204,0.534
							c-0.084,0.094-0.168,0.037-0.251-0.173C208.211,107.052,208.043,106.77,207.854,106.561z"/>
						<path fill="#373535" d="M199.679,83.68c0.565,0.502,0.905,0.931,1.021,1.287c0.073,0.22,0.193,0.659,0.36,1.318
							c0.126,0.304,0.445,0.638,0.958,1.004c0.68,0.492,1.292,0.549,1.836,0.173c0.062,0.387,0.104,1.02,0.125,1.899
							c0,0.366,0.204,0.994,0.612,1.883c-0.555-0.083-1.637,0.152-3.248,0.707c-1.925,0.659-2.956,0.999-3.092,1.02
							c-0.23,0.042-0.628,0.011-1.192-0.094c-0.754-0.146-1.219-0.23-1.396-0.251c-1.025-0.083-1.318,0.429-0.879,1.538
							c0.052,0.136,0.136,0.607,0.251,1.413c0.104,0.743,0.23,1.245,0.376,1.506c-0.355-0.209-0.862-0.492-1.521-0.848
							c-0.471-1.611-0.408-3.285,0.188-5.021c0.711-1.58,1.072-2.631,1.082-3.154c-0.658-0.952-0.936-1.857-0.831-2.715
							c0.094-0.753,0.46-1.365,1.099-1.836c0.596-0.45,1.291-0.669,2.087-0.659C198.34,82.87,199.062,83.147,199.679,83.68z"/>
						<path fill="#FFFFFF" stroke="#373535" stroke-width="1.5" stroke-miterlimit="10" d="M195.41,97.082
							c0.241,0.743,2.035,2.798,5.383,6.167l2.81,3.139c1.987,1.956,3.489,2.935,4.503,2.935c0.44,0,0.691-0.125,0.754-0.377
							c0.513-0.23,0.769-0.664,0.769-1.302c0-0.774-0.387-1.852-1.161-3.233c-0.826-1.35-1.459-2.411-1.898-3.186
							c-0.754-1.308-1.151-2.37-1.193-3.186c-0.156-1.454-0.234-2.542-0.234-3.264c0.156-0.795,0.234-1.512,0.234-2.15
							c-0.052-0.303-0.109-0.539-0.172-0.706c-0.157-0.387-0.361-0.612-0.612-0.675c-0.555-0.083-1.637,0.152-3.248,0.707
							c-1.925,0.659-2.956,0.999-3.092,1.02c-0.23,0.042-0.628,0.011-1.192-0.094c-0.754-0.146-1.219-0.23-1.396-0.251
							c-1.025-0.083-1.318,0.429-0.879,1.538c0.052,0.136,0.136,0.607,0.251,1.413C195.139,96.318,195.265,96.82,195.41,97.082z"/>
						<g>
							<path fill="#FFFFFF" d="M199.066,84.622c0.188,0.743,0.132,1.459-0.172,2.15c-0.314,0.732-0.753,1.015-1.318,0.847
								c-0.628-0.178-1.135-0.528-1.521-1.051c-0.419-0.554-0.519-1.093-0.299-1.616c0.355-0.45,0.952-0.659,1.789-0.628
								C198.034,84.344,198.541,84.443,199.066,84.622z"/>
							<path fill="none" stroke="#FFFFFF" stroke-width="1.5" d="M200.009,85.014c-0.32-0.158-0.634-0.289-0.942-0.392
								c0.188,0.743,0.132,1.459-0.172,2.15c-0.314,0.732-0.753,1.015-1.318,0.847c-0.628-0.178-1.135-0.528-1.521-1.051
								c-0.419-0.554-0.519-1.093-0.299-1.616c0.355-0.45,0.952-0.659,1.789-0.628c0.489,0.02,0.996,0.119,1.521,0.298"/>
						</g>
						<path fill="#373535" d="M198.628,86.128c-0.282,0.261-0.623,0.382-1.021,0.361s-0.727-0.178-0.988-0.471
							c-0.262-0.303-0.382-0.649-0.361-1.036c0.021-0.209,0.062-0.376,0.126-0.502c0.784-0.262,1.679-0.215,2.683,0.141
							c0.021,0.313,0.032,0.486,0.032,0.518C199.077,85.538,198.921,85.867,198.628,86.128z"/>
						<path fill="none" stroke="#373535" stroke-width="1.5" stroke-miterlimit="10" d="M202.362,161.688
							c5.9,0.994,8.851,2.066,8.851,3.217c0,1.946-7.903,3.609-23.711,4.99c-15.818,1.371-34.906,2.056-57.263,2.056
							s-41.439-0.685-57.247-2.056c-15.808-1.381-23.712-3.044-23.712-4.99c0-1.161,2.992-2.238,8.977-3.232"/>
						<path fill="none" stroke="#373535" stroke-width="1.5" stroke-miterlimit="10" d="M204.324,159.162
							c6.811,0.711,12.365,1.485,16.665,2.322c7.438,1.423,11.158,2.94,11.158,4.551c0,1.36-2.668,2.657-8.004,3.892
							c-5.157,1.203-12.438,2.266-21.844,3.186c-19.909,1.957-43.929,2.935-72.061,2.935s-52.146-0.978-72.045-2.935
							c-9.395-0.92-16.67-1.982-21.828-3.186c-5.336-1.234-8.003-2.531-8.003-3.892c0-0.815,0.983-1.616,2.95-2.4
							c1.904-0.764,4.687-1.491,8.349-2.182c4.258-0.816,9.656-1.569,16.195-2.26"/>
						<path fill="none" stroke="#373535" stroke-width="1.5" stroke-miterlimit="10" d="M204.873,156.808
							c14.646,1.256,26.207,2.81,34.681,4.661c4.363,0.952,7.674,1.951,9.934,2.997c2.333,1.078,3.5,2.171,3.5,3.28
							c0,1.862-3.218,3.646-9.651,5.351c-6.204,1.653-14.971,3.112-26.301,4.379c-23.979,2.688-52.91,4.032-86.796,4.032
							s-62.812-1.344-86.78-4.032c-11.319-1.267-20.081-2.726-26.285-4.379c-6.434-1.705-9.651-3.488-9.651-5.351
							c0-1.12,1.182-2.218,3.546-3.296c2.302-1.057,5.66-2.061,10.075-3.013c7.961-1.736,18.842-3.223,32.641-4.457"/>
					</g>
				</g>
			</g>
		</g>
	</g>
</g>
</svg>
