<?xml version="1.0" encoding="utf-8"?>
<!-- Generator: Adobe Illustrator 17.0.1, SVG Export Plug-In . SVG Version: 6.00 Build 0)  -->
<!DOCTYPE svg PUBLIC "-//W3C//DTD SVG 1.1//EN" "http://www.w3.org/Graphics/SVG/1.1/DTD/svg11.dtd">
<svg version="1.1" id="Layer_1" xmlns="http://www.w3.org/2000/svg" xmlns:xlink="http://www.w3.org/1999/xlink" x="0px" y="0px"
	 width="234.685px" height="109.946px" viewBox="5.219 63.272 234.685 109.946"
	 enable-background="new 5.219 63.272 234.685 109.946" xml:space="preserve">
<g>
	<g id="Layer_1_1_">
		<g>
			<g id="Layer_1_3_">
				<g>
					<g>
						<path fill="#FFFFFF" stroke="#292929" stroke-width="1.5" stroke-miterlimit="10" d="M173.29,80.462
							c-1.498,0.589-4.778,1.737-9.84,3.444c-7.838,2.626-13.15,4.423-15.936,5.392c-15.845,5.461-29.205,10.554-40.078,15.276
							c-15.866,6.889-27.383,12.111-34.552,15.666c-10.204,5.052-18.82,10.08-25.85,15.082c-8.147,5.802-16.17,11.827-24.068,18.077
							c-11.81,9.335-17.466,14.756-16.967,16.264c0.53,1.588,5.217,2.501,14.063,2.741c7.638,0.199,14.478-0.065,20.518-0.794
							c4.842-0.579,12.266-2.352,22.271-5.317c9.854-2.935,19.37-6.18,28.546-9.734c6-2.326,10.918-4.344,14.752-6.051
							c5.891-2.616,11.217-5.332,15.98-8.147c12.381-7.309,22.195-15.97,29.444-25.984"/>
						<path fill="#FFFFFF" stroke="#292929" stroke-width="1.5" stroke-miterlimit="10" d="M237.585,70.172
							c-0.25-0.878-0.829-1.857-1.737-2.935c-0.919-1.108-2.521-1.972-4.808-2.591c-2.106-0.569-3.954-0.749-5.542-0.539
							c-0.719,0.1-1.981,0.37-3.789,0.809c-1.308,0.309-2.326,0.429-3.055,0.359c-1.668-0.45-3.11-0.684-4.328-0.704
							c-2.267-0.03-4.344,0.859-6.23,2.666c-2.966,0.479-7.154,1.872-12.565,4.178c-5.502,2.496-9.001,4.034-10.499,4.613
							c-3.055,1.049-5.775,2.037-8.162,2.966c-4.384,1.707-9.545,4.108-15.486,7.204c-3.574,1.857-9.081,5.317-16.519,10.379
							c-8.048,5.461-13.554,9.036-16.52,10.723c-6.59,3.754-23.483,12.82-50.681,27.198c-29.364,15.525-46.348,24.247-50.951,26.164
							c-2.106,0.879-4.647,1.837-7.623,2.876c-1.627,0.559-3.854,1.322-6.68,2.291c-4.353,1.548-6.49,2.825-6.41,3.834
							s1.448,1.243,4.104,0.704c3.844-0.988,6.969-1.747,9.375-2.276c3.135-0.68,13.08-3.689,29.833-9.031
							c12.67-4.054,23.444-7.559,32.32-10.514c12.261-4.084,22.326-7.812,30.193-11.188c16.275-6.97,28.491-14.118,36.649-21.447
							c7.987,1.258,14.562,1.862,19.724,1.812c6.021-0.06,11.762-0.968,17.224-2.726c4.443-1.428,8.507-3.085,12.191-4.973
							c0.908-0.459,2.057-1.058,3.444-1.797c1.088-0.539,2.002-0.914,2.74-1.124c1.888-0.519,4.249-1.642,7.084-3.37
							c3.086-1.867,5.741-3.869,7.968-6.005c1.229-1.178,3.425-3.6,6.59-7.264c2.506-2.885,4.413-4.767,5.722-5.646
							c2.496-1.657,4.567-3.509,6.215-5.556c2.137-2.686,2.347-4.543,0.629-5.572C237.895,71.915,237.755,70.742,237.585,70.172z"/>
						<path fill="none" stroke="#292929" stroke-width="1.5" stroke-miterlimit="10" d="M190.498,89.328
							c0.119,0.898,0.554,2.012,1.303,3.339c0.929,1.638,2.107,3.13,3.534,4.478c3.984,3.725,9.021,5.547,15.112,5.467"/>
						<path fill="none" stroke="#292929" stroke-width="1.5" stroke-miterlimit="10" d="M193.238,87.366
							c0.12,0.899,0.555,2.012,1.303,3.34c0.919,1.638,2.098,3.13,3.535,4.478c3.983,3.734,9.016,5.562,15.097,5.481"/>
						<path fill="none" stroke="#292929" stroke-width="1.5" stroke-miterlimit="10" d="M238.004,73.692
							c-4.213,5.083-8.287,7.199-12.221,6.351"/>
						<path fill="none" stroke="#292929" stroke-width="1.5" stroke-miterlimit="10" d="M214.58,66.982
							c-2.026-0.02-3.929,0.879-5.706,2.696c-0.279,0.979-0.199,2.097,0.24,3.355c0.559,1.607,1.587,2.606,3.085,2.995
							c1.518,0.39,3.021,0.215,4.508-0.524c1.198-0.589,1.978-1.258,2.337-2.007c0.449-0.938,0.534-2.087,0.254-3.445l-0.554-1.737
							C217.396,67.437,216.009,66.993,214.58,66.982z"/>
						<path fill="none" stroke="#292929" stroke-width="1.5" stroke-miterlimit="10" d="M219.208,71.026
							c0,1.098-0.389,2.042-1.168,2.831c-0.778,0.779-1.722,1.168-2.83,1.168s-2.052-0.39-2.831-1.168
							c-0.789-0.789-1.183-1.732-1.183-2.831c0-1.108,0.394-2.052,1.183-2.831c0.779-0.789,1.723-1.183,2.831-1.183
							s2.052,0.394,2.83,1.183C218.819,68.975,219.208,69.918,219.208,71.026z"/>
						<path fill="#292929" d="M217.98,70.232c0,0.659-0.23,1.223-0.689,1.692c-0.469,0.459-1.033,0.689-1.692,0.689
							c-0.648,0-1.208-0.229-1.677-0.689c-0.46-0.469-0.689-1.033-0.689-1.692c0-0.649,0.229-1.208,0.689-1.677
							c0.469-0.459,1.028-0.689,1.677-0.689c0.659,0,1.224,0.23,1.692,0.689C217.75,69.024,217.98,69.583,217.98,70.232z"/>
						<path fill="#FFFFFF" d="M217.187,68.436c0,0.259-0.09,0.484-0.27,0.674c-0.189,0.18-0.419,0.27-0.688,0.27
							c-0.26,0-0.484-0.09-0.675-0.27c-0.18-0.19-0.27-0.415-0.27-0.674c0-0.27,0.09-0.495,0.27-0.674
							c0.19-0.19,0.415-0.285,0.675-0.285c0.27,0,0.499,0.095,0.688,0.285C217.097,67.941,217.187,68.166,217.187,68.436z"/>
					</g>
				</g>
			</g>
		</g>
	</g>
</g>
</svg>
