<?xml version="1.0" encoding="utf-8"?>
<!-- Generator: Adobe Illustrator 17.0.1, SVG Export Plug-In . SVG Version: 6.00 Build 0)  -->
<!DOCTYPE svg PUBLIC "-//W3C//DTD SVG 1.1//EN" "http://www.w3.org/Graphics/SVG/1.1/DTD/svg11.dtd">
<svg version="1.1" id="Layer_1" xmlns="http://www.w3.org/2000/svg" xmlns:xlink="http://www.w3.org/1999/xlink" x="0px" y="0px"
	 width="258.507px" height="141.486px" viewBox="1.281 63.663 258.507 141.486"
	 enable-background="new 1.281 63.663 258.507 141.486" xml:space="preserve">
<g>
	<g id="Layer_1_1_">
		<g>
			<g id="Layer_1_3_">
				<g>
					<path fill="#FFFFFF" stroke="#292929" stroke-width="1.5897" stroke-miterlimit="10" d="M220.27,100.834
						c-1.631-5.442-3.093-9.449-4.384-12.021c-1.982-3.92-4.583-7.073-7.801-9.46c-3.383-2.53-6.843-4.544-10.379-6.044
						c-3.111-1.325-6.554-2.36-10.33-3.104c-3.646-1.62-7.642-2.957-11.989-4.007c-5.256-1.27-10.018-1.845-14.287-1.724
						c-4.916,0.132-12.472,1.051-22.664,2.76c-10.643,1.795-18.169,3.481-22.583,5.057c-4.599,1.653-10.1,3.361-16.504,5.124
						c-6.383,1.762-10.342,2.666-11.874,2.71c-0.844,0.033-2.76-0.548-5.748-1.741c-2.935-1.171-5.25-1.691-6.947-1.56
						c-1.895,0.142-5.814,1.16-11.76,3.054c-6.897,2.288-11.71,3.848-14.436,4.681c-4.259,1.314-9.865,3.443-16.817,6.389
						c-7.182,3.044-11.699,5.239-13.549,6.586c-0.865-0.996-1.84-1.85-2.924-2.563c-1.138-0.755-2.02-1.089-2.644-1.002
						c-0.963,0.12-1.812,0.339-2.546,0.657c-1.051,0.46-1.653,1.051-1.807,1.773c-0.197,0.931-0.372,2.523-0.526,4.78
						c-0.164,2.398-0.164,3.881,0,4.45c-0.678,0.242-1.226,0.761-1.642,1.561c-0.482,0.931-0.662,2.063-0.542,3.4
						c0.197,2.157-0.323,4.128-1.56,5.913c-0.844,1.215-1.292,1.872-1.347,1.97c-0.493,0.92-0.685,1.861-0.574,2.824
						c0.099,0.832,0.426,1.724,0.986,2.677c0.569,0.963,0.882,1.636,0.936,2.02c0.241,1.632,0.367,2.857,0.377,3.679
						c0.033,1.873-0.268,3.575-0.904,5.107c-0.69,1.664-0.952,3.267-0.789,4.813c0.142,1.368,0.552,2.316,1.232,2.841
						c0.438,0.351,1.314,0.777,2.627,1.281c1.215,0.469,1.872,0.772,1.97,0.903c0.405,0.493,1.385,0.832,2.94,1.018
						c1.741,0.208,3.372,0.071,4.894-0.411c-0.427,0.8-0.323,1.757,0.312,2.874c0.777,1.369,2.124,2.092,4.04,2.168
						c1.927,0.076,3.504-0.614,4.73-2.069c0.908-1.106,1.478-2.388,1.707-3.844c0.198-1.225,0.702-2.535,1.511-3.924
						c0.876-1.522,1.681-2.305,2.414-2.349c0.526-0.022,1.839-0.033,3.941-0.033c2.004-0.175,3.388-0.773,4.156-1.789
						c-0.033,1.193,0.033,3.848,0.197,7.966c0.076,3.788-0.077,6.207-0.46,7.259c-0.898,1.731-2.392,5.179-4.484,10.347
						c-2.036,5.048-3.416,8.678-4.138,10.889c-0.854,2.594-1.812,5.348-2.874,8.26c-1.259,3.417-2.07,5.359-2.431,5.83
						c-0.131,0.176-0.941,1.051-2.43,2.627c-1.325,1.39-2.141,2.376-2.447,2.956c-0.164,0.33-0.854,1.336-2.07,3.023
						c-0.996,1.39-1.494,2.267-1.494,2.627c0,0.636,0.088,1.303,0.263,2.004c-0.11,0.361,0.121,1.074,0.69,2.136
						c0.602,1.127,1.183,1.751,1.741,1.873c1.522,0.306,2.721,0.377,3.597,0.213c1.861-0.35,3.011-1.581,3.449-3.695
						c0.351-0.384,1.445-0.996,3.284-1.839c1.85-0.844,2.874-1.364,3.071-1.561c0.339-0.329,0.816-1.117,1.429-2.364
						c0.591-1.183,1.045-2.25,1.363-3.202c0.657-1.961,1.226-3.493,1.707-4.599c1.008-2.31,2.032-3.909,3.071-4.796
						c0.799-0.679,3.011-2.189,6.634-4.532c3.657-2.355,5.972-3.948,6.947-4.78c2.529-2.145,4.357-3.777,5.486-4.894
						c2.354-2.32,3.947-4.346,4.779-6.076c2.212-0.875,3.383-1.347,3.514-1.412c1.347-0.636,2.321-1.325,2.923-2.07
						c0.908-1.138,1.61-2.293,2.103-3.466c0.711-1.707,1.083-3.63,1.116-5.764c1.008,0.504,1.812,0.849,2.414,1.035
						c0.657,0.208,1.215,0.273,1.676,0.197c0.329-0.054,0.843-0.201,1.544-0.443c0.624-0.12,1.155,0.055,1.593,0.526
						c0.503,0.548,1.309,2.644,2.414,6.29c1.062,3.481,1.911,6.75,2.545,9.804c0.406,1.95,1.233,5.693,2.48,11.234
						c1.029,4.883,1.505,8.103,1.429,9.657c-0.076,1.664-0.438,3.061-1.084,4.187c-0.493,0.865-1.029,1.413-1.61,1.643
						c-2.551,0-4.374,0.114-5.469,0.344c-2.738,0.581-4.019,1.829-3.843,3.744c0.185,1.894,0.723,3,1.61,3.317
						c0.471,0.164,1.067,0.159,1.79-0.017c0.766,0.592,1.588,1.046,2.464,1.363c1.226,0.449,2.435,0.575,3.629,0.378
						c0.756,0.503,2.009,0.848,3.761,1.034c1.664,0.175,3.109,0.148,4.336-0.082c1.139-0.208,2.255-0.636,3.35-1.281
						c1.029-0.613,1.823-1.287,2.381-2.02c0.876-1.15,1.314-2.584,1.314-4.303c0-0.055-0.028-0.723-0.083-2.004
						c-0.033-0.756-0.005-1.352,0.083-1.79c0.142-0.701,0.591-1.461,1.347-2.282c0.69-0.745,1.051-1.463,1.084-2.151
						c0.23-3.81,0.432-7.511,0.607-11.103c0.339-7.029,0.455-12.06,0.344-15.093c-0.197-5.912-0.289-9.322-0.279-10.23
						c0.022-3.274,0.351-5.288,0.986-6.044c1.653-1.97,6.985-4.275,15.996-6.913c4.576-1.347,9.367-2.639,14.37-3.876
						c0.931-0.351,3.307-1.62,7.128-3.81c3.864-2.212,6.335-3.722,7.406-4.533c-0.032,1.325,0.526,3.761,1.676,7.308
						c0.318,0.974,1.182,3.41,2.594,7.308c0.844,2.375,1.873,5.113,3.087,8.211c1.62,4.149,2.852,7.04,3.695,8.671
						c1.248,2.463,2.151,4.659,2.711,6.586c0.777,2.769,0.919,5.185,0.426,7.243c-1.117,4.555-1.806,7.26-2.069,8.112
						c-0.986,3.154-1.982,4.916-2.989,5.288c-0.088,0-1.193-0.043-3.317-0.131c-1.303-0.055-2.283,0.076-2.94,0.394
						c-0.854,0.405-1.73,1.188-2.627,2.349c-0.931,1.193-1.418,2.212-1.461,3.054c-0.076,1.413,0.268,2.524,1.035,3.334
						c1.127,1.193,2.956,1.243,5.486,0.148c4.204,0.087,6.787-0.351,7.75-1.314c1.018,0,1.994-0.263,2.924-0.787
						c1.029-0.592,1.937-1.489,2.726-2.694c0.514-0.777,1.018-1.779,1.511-3.006c0.383-0.986,0.837-1.751,1.363-2.299
						c0.613-0.645,1.789-2.179,3.531-4.599c0.941-1.314,2.2-3.087,3.776-5.321c0.614-0.843,1.762-2.091,3.449-3.743
						c1.358-1.62,1.949-3.301,1.774-5.043c-0.142-1.413-0.87-2.967-2.184-4.663c-1.27-1.643-1.932-3.137-1.987-4.483
						c-0.121-2.606-0.143-6.477-0.066-11.611c0.076-5.847,0.268-9.197,0.575-10.051c0.142-0.372,0.804-1.676,1.987-3.909
						c0.995-1.873,1.526-3.181,1.593-3.926c1.697,1.27,6.098,4.303,13.204,9.099c7.566,5.101,12.098,8.047,13.598,8.835
						c1.368,0.724,3.798,2.142,7.292,4.254c1.839,1.106,3.991,2.414,6.454,3.926c1.248,0.744,2.48,1.538,3.695,2.38
						c1.413,0.987,2.3,1.698,2.661,2.136c2.332,2.924,3.838,5.102,4.517,6.537c0.624,1.281,1.232,2.814,1.823,4.599
						c0.723,2.157,1.045,3.668,0.969,4.533c-0.055,0.601-0.4,1.746-1.035,3.432c-0.557,1.5-0.793,2.447-0.706,2.841
						c0.198,0.832,0.975,1.693,2.333,2.579c1.61,1.051,3.119,1.233,4.532,0.543c1.566,0.055,3.082-0.192,4.55-0.739
						c1.455-0.548,2.293-1.171,2.512-1.873c0.175-0.569,0.187-1.16,0.033-1.774l-0.296-0.739c1.084-1.215,1.774-2.326,2.07-3.334
						c0.438-1.478,0.154-2.951-0.854-4.417c-0.504-1.566-1.342-3.324-2.513-5.273c-1.468-2.42-2.371-3.997-2.71-4.73
						c-1.478-3.832-2.726-7.04-3.744-9.624c-1.949-4.905-3.4-7.762-4.352-8.573c-0.449-0.383-1.232-0.82-2.349-1.313
						c-1.611-0.701-2.639-1.171-3.088-1.413c-2.715-1.435-4.614-3.454-5.699-6.06c2.069,1.807,3.948,2.961,5.633,3.466
						c2.539,0.756,5.764,0.645,9.673-0.329c3.931-0.986,7.199-2.661,9.804-5.026c2.015-1.829,3.476-3.898,4.386-6.207
						c0.92-2.31,1.281-4.845,1.083-7.604c-0.23-3.339-1.347-5.676-3.35-7.013c-2.485-1.653-4.708-2.627-6.667-2.923
						c-2.31-0.339-4.029,0.317-5.157,1.97c-1.029,1.5-0.717,2.89,0.937,4.171c0.865,0.668,2.091,1.336,3.679,2.004
						c0.92,0.536,1.577,1.517,1.97,2.94c0.515,1.839,0.088,3.558-1.28,5.156c-2.004,2.321-4.522,3.964-7.555,4.927
						c-3.755,1.183-6.864,0.586-9.327-1.79c-2.452-2.376-4.801-6.148-7.046-11.316C223.582,111.054,221.957,106.439,220.27,100.834z
						"/>
					<path fill="none" stroke="#292929" stroke-width="1.5897" stroke-miterlimit="10" d="M7.774,105.629
						c0.844-0.799,2.48-2.151,4.91-4.056c2.617-2.058,4.462-3.405,5.535-4.04"/>
					<path fill="none" stroke="#292929" stroke-width="1.5897" stroke-miterlimit="10" d="M17.429,119.293
						c-0.131,0.482-0.514,1.017-1.15,1.61c-0.635,0.602-1.237,0.991-1.806,1.166c-0.273,0.088-0.963,0.181-2.07,0.279
						c-0.865,0.088-1.363,0.23-1.494,0.427c-0.088,0.121-0.11,0.636-0.066,1.544c0.045,0.931-0.082,1.659-0.377,2.184"/>
					<path fill="none" stroke="#292929" stroke-width="1.5897" stroke-miterlimit="10" d="M10.861,124.943
						c2.276,0.679,3.481-0.28,3.613-2.874"/>
					<path fill="none" stroke="#292929" stroke-width="1.5897" stroke-miterlimit="10" d="M19.861,105.448
						c1.226-0.361,2.447-1.034,3.663-2.02c1.435-1.171,2.333-2.414,2.694-3.728c0.493-1.774,1.079-3.044,1.757-3.81
						c0.953-1.062,2.195-1.358,3.728-0.887c1.467,0.46,2.371,1.439,2.71,2.94c0.23,1.017,0.197,2.042-0.099,3.07
						c-0.23,0.811-0.783,1.768-1.659,2.874c0.306,0.471,0.289,1.237-0.049,2.299c-0.339,1.062-0.816,1.833-1.429,2.316
						c0.372,1.007,1.313,2.053,2.824,3.137c1.369,0.974,2.633,1.61,3.794,1.904c1.216,0.306,2.501,0.821,3.86,1.544
						c1.566,0.821,2.568,1.61,3.006,2.364c0.339,0.591,0.706,1.605,1.1,3.038c0.394,1.413,0.695,2.288,0.904,2.627
						c0.394,0.635,0.597,1.192,0.607,1.675c0.011,0.559-0.246,0.898-0.773,1.018c-0.559,0.131-0.876,0.306-0.953,0.526
						c-0.076,0.208,0.039,0.553,0.345,1.035c0.208,0.329,0.531,0.63,0.969,0.903c0.197,0.187,0.017,0.439-0.542,0.756
						c-0.361,0.208-0.925,0.432-1.691,0.673c-0.417,0.131-0.607,0.313-0.574,0.543c0.066,0.383,0.022,0.82-0.131,1.313
						c-0.175,0.581-0.421,0.871-0.739,0.871c-0.536-0.143-0.903-0.235-1.1-0.28c-0.317-0.076-0.356,0.131-0.114,0.624
						c0.329,0.657,0.509,1.117,0.542,1.38c0.033,0.317-0.121,0.498-0.46,0.542c-0.559,0.066-1.122,0.219-1.693,0.46
						c-0.777,0.318-1.166,0.685-1.166,1.101"/>
					<path fill="none" stroke="#292929" stroke-width="1.5897" stroke-miterlimit="10" d="M27.859,96.037
						c-0.405,0.657-0.854,2.184-1.347,4.583c-0.482,2.408-0.635,3.876-0.46,4.401c0.23,0.679,0.613,1.435,1.149,2.266
						c0.657,1.018,1.259,1.627,1.807,1.824"/>
					<path fill="#292929" d="M8.545,144.617c-0.099-0.099-0.329-0.225-0.69-0.377c-0.208-0.087-0.804-0.329-1.79-0.723
						c-0.865-0.329-1.501-0.635-1.904-0.92c-0.439-0.305-0.75-0.678-0.936-1.116c0.941,0.787,2.397,0.613,4.369-0.526
						c0.339-0.187,0.536-0.662,0.591-1.43c0.033-0.536,0.011-1.017-0.066-1.445c0.448,0.329,0.816,0.75,1.1,1.264
						c0.263,0.448,0.417,0.87,0.46,1.264c0.011,0.066-0.296,0.635-0.92,1.707C8.211,143.27,8.14,144.037,8.545,144.617z"/>
					<path fill="none" stroke="#292929" stroke-width="1.5897" stroke-miterlimit="10" d="M16.379,145.224
						c0.645-0.448,1.549-1.275,2.71-2.48c1.074-1.127,1.708-1.866,1.906-2.217c0.701-1.27,1.341-1.937,1.921-2.004
						c0.471-0.054,1.029-0.011,1.676,0.131c0.733,0.176,1.16,0.421,1.281,0.739"/>
					<path fill="none" stroke="#292929" stroke-width="1.5897" stroke-miterlimit="10" d="M21.438,195.43
						c-0.503,1.018-0.543,2.042-0.114,3.071c0.635,1.488,2.293,2.179,4.976,2.069"/>
					<path fill="none" stroke="#292929" stroke-width="1.5897" stroke-miterlimit="10" d="M84.091,194.215
						c-1.522,0.701-2.535,1.33-3.038,1.889c-1.149,1.28-1.095,2.824,0.164,4.63"/>
					<path fill="none" stroke="#292929" stroke-width="1.5897" stroke-miterlimit="10" d="M89.313,195.693
						c-0.898,0.481-1.681,1.375-2.349,2.677c-0.832,1.642-0.717,3.011,0.344,4.106"/>
					<path fill="none" stroke="#292929" stroke-width="1.5897" stroke-miterlimit="10" d="M53.889,135.733
						c0.701,0.241,1.653,0.488,2.857,0.739c1.007,0.263,1.823,0.656,2.447,1.182c0.526,0.438,1.396,1.002,2.611,1.693
						c1.314,0.756,2.333,1.406,3.054,1.954c0.208,0.154,1.522,1.538,3.941,4.156c1.904,2.069,3.547,3.323,4.926,3.76"/>
					<path fill="none" stroke="#292929" stroke-width="1.5897" stroke-miterlimit="10" d="M185.47,126.42
						c-3.821-2.551-6.738-4.227-8.754-5.026c-3.197-1.28-6.432-1.636-9.706-1.067c-2.989,0.526-6.203,1.478-9.64,2.857
						c-2.464,0.996-4.44,1.932-5.93,2.809"/>
					<path fill="none" stroke="#292929" stroke-width="1.5897" stroke-miterlimit="10" d="M156.138,186.907
						c-0.711,0.777-1.144,1.795-1.297,3.054c-0.208,1.698,0.426,3,1.906,3.909"/>
					<path fill="none" stroke="#292929" stroke-width="1.5897" stroke-miterlimit="10" d="M151.097,190.126
						c-0.099,0.645,0.017,1.368,0.344,2.167c0.504,1.193,1.407,1.965,2.71,2.317"/>
					<path fill="none" stroke="#292929" stroke-width="1.5897" stroke-miterlimit="10" d="M246.285,173.407
						c-0.12,0.361-0.076,0.931,0.131,1.707c0.219,0.854,0.543,1.577,0.969,2.168c1.193,1.643,2.601,1.544,4.22-0.296"/>
					<path fill="none" stroke="#292929" stroke-width="1.5897" stroke-miterlimit="10" d="M241.423,176.116
						c-0.263,0.669-0.131,1.693,0.394,3.071c0.636,1.653,1.631,2.627,2.989,2.923"/>
					<path fill="none" stroke="#292929" stroke-width="1.5897" stroke-miterlimit="10" d="M190.332,72.914
						c1.927,1.401,4.362,3.329,7.308,5.781c3.876,3.252,6.285,5.557,7.226,6.914c0.986,1.413,2.627,4.9,4.926,10.461
						c1.993,4.785,3.488,8.639,4.483,11.562c0.789,2.321,2.53,5.835,5.224,10.543c2.715,4.752,5.671,9.444,8.867,14.074"/>
					<path fill="#292929" d="M43.789,140.167c0.438,0.154,2.342,0.64,5.715,1.463c3.32,0.937,5.493,1.886,6.52,2.849
						c-0.837-0.739-3.027-1.382-6.57-1.929c-3.71-0.449-5.83-0.717-6.356-0.805c-0.689-0.12-1.335-0.645-1.937-1.576
						c-0.503-0.777-0.756-1.385-0.756-1.823c0.372,0.525,0.882,0.931,1.527,1.215C41.977,139.569,42.596,139.772,43.789,140.167z"/>
					<path fill="#292929" d="M48.749,150.693c0.733,0.263,1.511,0.783,2.333,1.561c0.81,0.756,1.368,1.484,1.675,2.185
						c0.307,0.699,0.799,1.385,1.478,2.053c0.689,0.679,1.446,1.215,2.266,1.61c0.986,0.471,1.927,1.15,2.825,2.037
						c1.073,1.05,1.669,2.053,1.79,3.006c-0.46-0.461-0.837-1.04-1.133-1.742c-0.164-0.393-1.05-0.816-2.66-1.263
						c-2.025-0.559-3.197-0.92-3.514-1.084c-0.646-0.329-1.237-1.111-1.774-2.349c-0.471-1.303-0.777-2.086-0.92-2.349
						c-0.219-0.394-0.832-0.87-1.839-1.429c-1.008-0.569-1.965-0.963-2.874-1.183c-0.844-0.197-2.025-0.881-3.547-2.053
						c-1.456-1.117-2.184-1.824-2.184-2.12c0.832,0.68,2.245,1.343,4.237,1.988C45.968,149.9,47.248,150.279,48.749,150.693z"/>
					<path fill="#292929" d="M40.931,159.135c-0.438-0.636-1.28-1.501-2.529-2.594c0.865,0.208,2.151,1.018,3.86,2.43
						c0.876,0.733,1.883,1.576,3.022,2.53c3.777,2.222,5.978,3.843,6.602,4.861c0.548,0.887,1.199,1.779,1.954,2.676
						c0.854,1.029,1.56,1.702,2.119,2.02l-2.151,1.839c-1.074-0.23-2.53-1.39-4.369-3.481c-1.577-1.795-2.556-3.131-2.94-4.007
						c-0.208-0.471-1.128-1.56-2.76-3.268C41.977,160.291,41.041,159.289,40.931,159.135z"/>
					<path fill="#292929" d="M30.568,177.151c2.048-2.354,4.085-3.498,6.11-3.432c1.314,0.055,2.354,0.503,3.12,1.347
						c0.427,0.481,0.695,1.045,0.804,1.691c0.12,0.712-0.005,1.336-0.377,1.873c-1.62-3.207-3.575-4.526-5.863-3.957
						C33.235,174.945,31.97,175.771,30.568,177.151z"/>
					<path fill="#292929" d="M42.311,166.46c0.756,0.471,1.544,1.088,2.364,1.856c0.427,0.394,0.887,0.849,1.38,1.363
						c1.237,1.117,1.56,2.157,0.97,3.12c-0.394-0.394-1.435-1.352-3.12-2.874c-1.719-1.555-2.71-2.452-2.973-2.693
						c-0.361-0.318-1.155-0.602-2.381-0.855c-1.116-0.229-1.948-0.322-2.496-0.279C37.904,164.905,39.99,165.026,42.311,166.46z"/>
					<path fill="#292929" d="M16.642,107.633c0.471,1.171,1.686,2.321,3.646,3.449c0.23,0.142,0.919,0.514,2.069,1.117
						c0.668,0.361,1.073,0.624,1.216,0.789c0.285,0.339,0.645,1.439,1.083,3.301c0.23,0.974,0.498,2.113,0.804,3.416
						c0.131,0.373,0.64,1.122,1.527,2.25c0.986,1.259,1.522,1.965,1.61,2.119c0.187,0.318,0.377,1.204,0.574,2.66
						c0.109,0.778,0.241,1.764,0.394,2.957c0.076,0.427,0.411,1.138,1.002,2.136c0.635,1.073,0.996,1.752,1.083,2.036
						c0.154,0.482,0.088,0.925-0.197,1.33c-0.285,0.394-0.52,0.498-0.707,0.313c-0.339-0.394-0.624-0.717-0.854-0.97
						c-0.438-0.471-0.723-0.695-0.854-0.673c-0.121,0.022-0.351,0.301-0.69,0.837c-0.405,0.624-0.673,0.996-0.805,1.117
						c-0.109-0.449,0.012-1.358,0.361-2.726c0.394-1.435,0.623-2.326,0.69-2.677c0.088-0.536,0.043-1.39-0.131-2.562
						c-0.187-1.193-0.427-2.124-0.723-2.792c-0.175-0.405-0.766-1.287-1.773-2.644c-0.942-1.271-1.484-2.151-1.626-2.644
						c-0.055-0.197-0.306-1.335-0.756-3.416c-0.372-1.697-0.662-2.737-0.87-3.12c-0.208-0.394-0.941-0.898-2.2-1.511
						c-1.336-0.602-2.146-0.991-2.43-1.166c-0.427-0.252-0.799-0.695-1.117-1.33C16.653,108.579,16.543,108.048,16.642,107.633z"/>
					<path fill="#292929" d="M22.932,121.083c0.394,1.062,0.711,1.795,0.952,2.201c1.522,2.529,2.158,4.1,1.906,4.713
						c-0.154,0.361-0.569,0.772-1.248,1.232c-0.372,0.241-0.87,0.569-1.494,0.986c-0.066,0.045-0.377,0.181-0.936,0.411
						c-0.503,0.197-0.86,0.421-1.067,0.673c-0.645,0.788-0.131,2.145,1.544,4.073c-0.964-0.602-1.659-1.095-2.086-1.478
						c-0.711-0.645-1.084-1.287-1.117-1.921c-0.022-0.591,0.46-1.242,1.446-1.954c1.105-0.679,1.779-1.117,2.02-1.314
						c0.449-0.361,0.777-0.838,0.986-1.43c0.252-0.723,0.202-1.374-0.147-1.954c-0.164-0.285-0.799-1.188-1.906-2.71
						c-0.941-1.292-1.5-2.173-1.676-2.644c-0.208-0.569-0.104-1.352,0.312-2.349c0.339-0.799,0.821-1.626,1.446-2.48
						c0,0.242-0.005,0.799-0.017,1.676c0.022,0.854,0.114,1.511,0.279,1.971C22.259,119.156,22.527,119.922,22.932,121.083z"/>
					<path fill="#292929" d="M11.551,117.29c-0.701-0.263-1.287-0.482-1.757-0.657c-0.887-0.329-1.407-0.614-1.56-0.854
						c-0.164-0.241-0.367-0.673-0.607-1.297l-0.312-0.854c0.548,0.591,1.248,1.27,2.102,2.036
						C10.434,116.572,11.146,117.115,11.551,117.29z"/>
					<path fill="#292929" d="M6.854,114.021c-0.154,0.197-0.394,0.783-0.723,1.757c-0.503,0.876-1.375,1.347-2.611,1.413
						c0.58-0.46,1.259-1.083,2.036-1.872C6.399,114.476,6.831,114.044,6.854,114.021z"/>
					<path fill="#292929" d="M5.474,113.167c0.745-0.285,1.461-0.925,2.151-1.921c0.208-0.306,0.645-1.079,1.313-2.316
						c-0.208,0.351-0.668,0.645-1.379,0.887c-0.777,0.197-1.276,0.339-1.494,0.427c1.051-1.226,1.752-1.97,2.102-2.233
						c0.197-0.142,0.552-0.455,1.067-0.936c0.591-0.559,0.931-0.876,1.017-0.953c0.23-0.197,0.498-0.317,0.805-0.361
						c0.296-0.055,0.745-0.066,1.347-0.033c0.471,0.022,0.794,0.235,0.969,0.64c0.099,0.219,0.208,0.531,0.329,0.936
						c0.11,0.154,0.515,0.733,1.216,1.741c0.755,1.04,1.374,1.828,1.856,2.364c-1.128-0.351-1.911-0.657-2.349-0.92
						c-0.307-0.175-0.69-0.564-1.15-1.166c-0.427-0.536-0.717-0.974-0.87-1.314c-0.121-0.263-0.329-0.493-0.624-0.69
						c-0.273-0.175-0.482-0.246-0.624-0.213c-0.131,0.033-0.372,0.339-0.723,0.92c-0.351,0.58-0.543,1.013-0.574,1.297
						c-0.033,0.296,0.241,0.827,0.821,1.593c0.569,0.744,1.319,1.582,2.25,2.513c-0.963,0.252-1.899,0.093-2.807-0.476
						c-0.843-0.548-1.369-1.237-1.577-2.07c-0.306,0.799-0.838,1.413-1.593,1.84C6.404,113.02,5.911,113.167,5.474,113.167z"/>
					<path fill="#292929" d="M29.239,116.698c0,1.271,0.958,3.554,2.874,6.849c0.032,0.066,0.749,1.418,2.151,4.057
						c0.241,0.438,0.728,1.034,1.461,1.79c0.394,0.417,0.974,1.012,1.74,1.79c1.916,2.167,3.077,3.421,3.481,3.76
						c-0.197,0.088-0.41,0.187-0.64,0.296c-0.448,0.208-0.728,0.355-0.837,0.443c-1.029-1.522-1.85-2.539-2.463-3.054
						c-0.46-0.394-1.336-1.439-2.627-3.136c-1.292-1.708-2.07-2.841-2.333-3.4c-0.088-0.185-0.426-0.991-1.017-2.414
						c-0.482-1.16-0.838-1.921-1.067-2.283c-0.273-0.417-0.482-1.216-0.624-2.398C29.194,117.925,29.162,117.158,29.239,116.698z"/>
					<path fill="#292929" d="M24.147,96.071l-1.461,0.789c-1.029,0.569-1.691,0.958-1.987,1.167
						c-0.482,0.351-0.635,0.789-0.46,1.313c0.022,0.055,0.503,0.268,1.446,0.64c0.963,0.394,1.505,0.657,1.626,0.789
						c0.131,0.176,0.017,0.23-0.344,0.164c-0.045-0.011-0.432-0.109-1.167-0.295c-0.953-0.252-1.779-0.465-2.48-0.64
						c-0.449-0.11-0.827-0.093-1.133,0.049c-0.099,0.055-0.351,0.252-0.756,0.591c-0.219,0.197-0.285,0.41-0.197,0.64
						c0.055,0.142,0.187,0.388,0.394,0.739c0.099,0.219,0.361,0.515,0.788,0.887c0.503,0.449,0.827,0.761,0.969,0.936
						c0.219,0.263,0.137,0.312-0.246,0.148c-0.548-0.273-0.942-0.455-1.183-0.542c-0.285-0.099-0.574-0.258-0.87-0.477
						c-0.361-0.251-0.574-0.394-0.64-0.427c-0.175-0.088-0.476-0.104-0.903-0.049c-0.394,0.055-0.702,0.137-0.92,0.246
						c-0.197,0.099-0.306,0.28-0.329,0.543c-0.033,0.252,0.033,0.46,0.197,0.624c0.219,0.219,0.871,0.482,1.954,0.789v0.591
						c-1.347,0-2.195-0.154-2.546-0.46c-0.219-0.197-0.493-0.28-0.821-0.246c-0.154,0.011-0.4,0.071-0.739,0.18
						c-0.197,0.066-0.614,0.099-1.248,0.099c-0.645,0-1.166-0.033-1.56-0.099c1.16-0.175,2.075-0.443,2.743-0.804
						c0.536-0.285,0.843-0.585,0.92-0.903c0.006-0.028,0.012-0.052,0.017-0.074c-0.321,0.033-1.044,0.019-2.167-0.041
						c-0.076,0-0.005-0.088,0.214-0.263l0.36-0.263l2.151-0.526c0.154-0.045,0.723-0.263,1.708-0.657
						c0.175-0.066,0.367-0.17,0.574-0.312c0.208-0.154,0.361-0.289,0.46-0.41c0.088-0.099,0.137-0.246,0.147-0.443l-0.016-0.263
						c-0.69-0.131-1.057-0.263-1.1-0.394c-0.022-0.076,0.088-0.192,0.329-0.344c0.273-0.142,0.427-0.225,0.46-0.246
						c0.011-0.011,0.394-0.028,1.149-0.049c0.778-0.033,1.281-0.104,1.511-0.214c0.197-0.088,0.843-0.427,1.938-1.017
						C22.144,96.909,23.216,96.421,24.147,96.071z"/>
					<path fill="#292929" d="M56.287,113.003c0.417,0.526,0.778,0.908,1.084,1.149c0.438,0.329,0.766,0.657,0.986,0.986
						c0.263,0.394,0.454,0.876,0.574,1.446c0.076,0.361,0.142,1.1,0.197,2.217c0.045,0.974,0.126,1.598,0.246,1.873
						c0.154,0.361,0.214,0.728,0.18,1.1c-0.022,0.252-0.109,0.64-0.263,1.166c-0.208,0.711-0.323,1.167-0.345,1.363
						c-0.033,0.536,0.137,1.013,0.509,1.429c0.361,0.405,0.559,0.892,0.591,1.461c0.011,0.329-0.011,0.799-0.066,1.413
						c0,0.142,0.028,0.559,0.083,1.248c0.033,0.723-0.028,1.363-0.18,1.921c-0.448,1.73-1.719,2.705-3.81,2.923
						c0.844-1.565,1.385-2.83,1.626-3.794c0.252-1.029,0.23-1.97-0.066-2.824c-0.514-1.478-0.86-2.447-1.034-2.907
						c-0.449-1.193-0.86-2.167-1.233-2.923c-0.383-0.778-1.051-1.85-2.003-3.22c-0.811-1.16-1.418-1.977-1.823-2.447
						c-0.372-0.482-0.773-0.969-1.199-1.461c-0.821-0.963-1.67-1.829-2.546-2.594c-1.907-1.665-3.853-2.806-5.839-3.424
						c2.165,0.53,4.045,1.293,5.641,2.291c3.536,2.201,6.705,5.875,9.509,11.02c-0.011-1.97-0.026-3.372-0.049-4.204
						c-0.033-1.434-0.246-2.381-0.64-2.841c-1.303-1.532-2.201-2.404-2.694-2.611c-0.668-0.219-1.226-0.398-1.676-0.542
						c-0.832-0.285-1.319-0.536-1.461-0.755c-0.351-0.536-1.319-1.506-2.907-2.907c-2.025-1.785-3.782-2.994-5.272-3.629
						c0.799,0.219,1.752,0.569,2.857,1.051c1.073,0.471,1.741,0.82,2.004,1.051c1.467,1.193,2.207,1.79,2.217,1.79
						c1.303,1.04,2.19,1.686,2.661,1.938c0.372,0.197,1.012,0.421,1.92,0.673c0.777,0.219,1.237,0.405,1.38,0.559
						C55.526,112.062,55.805,112.401,56.287,113.003z"/>
					<path fill="#292929" d="M34.189,94.371c0.889,0.534,2.961,1.035,6.216,1.503c0.405,0.066,1.413,0.033,3.022-0.099
						c1.698-0.131,2.721-0.187,3.071-0.164c0.361,0.033,1.856,0.339,4.483,0.92c2.594,0.58,4.171,0.886,4.73,0.92
						c-0.898,0.329-2.518,0.383-4.861,0.164c-1.828-0.175-3.164-0.377-4.007-0.607c-0.417-0.121-1.215-0.176-2.397-0.164
						c-0.92,0-1.747,0.026-2.48,0.082c-0.569,0.045-1.413-0.011-2.529-0.164c-1.205-0.175-2.07-0.384-2.595-0.624
						c-0.482-0.219-0.986-0.52-1.511-0.904C34.877,94.891,34.497,94.603,34.189,94.371z"/>
					<path fill="#292929" d="M72.168,115.894c0.329,1.029,0.422,4.45,0.28,10.264c-0.088,3.701-0.208,6.865-0.361,9.494
						c-0.045,0.591-0.377,1.275-1.002,2.053c-0.011,0.011-0.493,0.543-1.446,1.593c-1.62,1.85-2.463,2.43-2.529,1.741
						c-0.066-0.723,0.925-2.579,2.973-5.567C70.947,134.2,71.642,127.674,72.168,115.894z"/>
					<path fill="#292929" d="M79.822,143.927c0.372-2.792,0.662-4.505,0.87-5.141c0.208-0.613,0.296-2.617,0.263-6.01
						c-0.022-3.263-0.109-5.266-0.263-6.01c0.886,1.117,1.325,3.957,1.313,8.523c-0.011,2.857-0.158,5.676-0.443,8.457
						c-0.121,1.117-0.493,2.245-1.117,3.383c-0.591,1.051-0.942,1.456-1.051,1.215C79.307,148.17,79.449,146.697,79.822,143.927z"/>
					<path fill="#292929" d="M105.572,149.923c-1.423-0.252-3.575-1.632-6.454-4.139c-2.825-2.661-4.472-4.21-4.944-4.647
						c0.974,0.262,2.929,1.598,5.863,4.006C101.833,146.611,103.678,148.204,105.572,149.923z"/>
					<path fill="#292929" d="M100.071,167.347c0.799-0.176,1.702-0.552,2.71-1.133c0.548-0.318,1.276-0.761,2.184-1.33
						c-2.387,3.504-4.888,4.575-7.506,3.219c-1.489-0.778-2.753-2.08-3.794-3.909C95.593,166.799,97.727,167.85,100.071,167.347z"/>
					<path fill="#292929" d="M101.893,177.726c0.493-0.263,1.517-0.887,3.07-1.873c-0.306,1.216-1.034,2.207-2.184,2.974
						c-0.986,0.656-2.113,1.056-3.383,1.199c-0.963,0.11-2.891-1.199-5.781-3.926c-2.387-2.244-3.909-3.837-4.566-4.779
						c0.384,0.242,1.762,1.461,4.139,3.662c2.508,2.168,4.434,3.417,5.781,3.744C99.485,178.859,100.46,178.526,101.893,177.726z"/>
					<path fill="#292929" d="M58.472,90.224c1.839,2.124,2.776,3.815,2.807,5.074c-0.361-1.948-1.839-3.41-4.434-4.386
						c-0.668-0.263-2.283-0.645-4.844-1.149c-0.646-0.121-1.724-0.673-3.236-1.659c-1.402-0.898-2.217-1.501-2.447-1.807
						c1.171,0.766,2.781,1.083,4.829,0.952c0.285-0.011,1.008-0.082,2.168-0.213c0.711-0.076,1.193-0.088,1.445-0.033
						C55.537,87.17,56.774,88.242,58.472,90.224z"/>
					<path fill="#292929" d="M58.734,81.964c0.898-0.373,1.944-0.559,3.137-0.559c1.138,0,2.239,0.164,3.301,0.493
						c0.865,0.273,1.96,1.719,3.284,4.336c0.197,0.394,0.996,2.162,2.397,5.304c-2.387-3.558-4.932-6.164-7.637-7.817
						C61.849,82.889,60.354,82.303,58.734,81.964z"/>
					<path fill="#292929" d="M68.605,80.846c0.766,0.395,1.774,1.145,3.022,2.251c0.745,0.668,2.622,3.175,5.633,7.521
						c3.154,4.566,5.294,7.943,6.422,10.133c1.105,2.167,1.68,7.861,1.724,17.08c0.042,8.202-0.281,14.952-0.969,20.25
						c0.203-2.033,0.274-6.22,0.213-12.564c-0.033-4.741-0.099-8.414-0.197-11.019c-0.033-0.986-0.377-3.197-1.034-6.635
						c-0.69-3.558-1.221-5.786-1.593-6.684c-0.394-0.974-1.232-2.458-2.513-4.451c-1.303-2.025-2.376-3.497-3.219-4.417
						c-0.668-0.723-1.752-2.195-3.252-4.417c-1.982-2.935-3.12-4.604-3.417-5.009c-0.789-1.084-1.877-1.795-3.267-2.136
						c-1.358-0.154-2.179-0.268-2.463-0.345C65.359,79.889,66.995,80.036,68.605,80.846z"/>
					<path fill="#292929" d="M70.165,77.743c1.16-0.307,2.381-0.574,3.663-0.805c2.31,1.85,4.078,4.851,5.304,9
						c-1.555-2.617-3.372-4.714-5.453-6.29C72.322,78.63,71.149,77.994,70.165,77.743z"/>
					<path fill="#292929" d="M83.959,84.804c0.953,1.85,2.239,4.538,3.86,8.063c2.036,4.424,3.395,7.642,4.073,9.657
						c-1.358-2.233-4.242-7.139-8.656-14.714c-4.073-7.007-6.198-10.637-6.373-10.889c0.482,0.043,0.915,0.121,1.297,0.23
						c0.242,0.066,0.602,0.175,1.084,0.329c0.121,0.043,0.772,0.963,1.954,2.759C82.46,82.155,83.38,83.677,83.959,84.804z"/>
					<path fill="#292929" d="M87.048,101.457c0.427,0.953,1.97,4.735,4.631,11.348c0.372,0.908,0.685,3.388,0.936,7.44
						c0.142,2.245,0.351,5.574,0.624,9.986c-0.318-0.832-0.69-3.208-1.117-7.128c-0.46-4.171-0.75-6.498-0.87-6.979
						c-0.241-0.963-1.008-3.17-2.299-6.619c-1.28-3.416-2.119-5.507-2.513-6.273c-0.12-0.23-1.1-2.272-2.94-6.126
						c-1.653-3.459-2.633-5.408-2.939-5.846C81.984,91.577,84.146,94.975,87.048,101.457z"/>
					<path fill="#292929" d="M163.661,125.714c-1.347-0.154-2.611-0.11-3.794,0.131c4.664-1.522,7.189-2.304,7.572-2.349
						c0.23-0.022,1.718-0.432,4.467-1.232c2.682-0.777,4.045-1.16,4.089-1.15c0.569,0.23,1.298,0.548,2.184,0.953
						c0.899,0.427,1.561,0.761,1.988,1.002c-1.708,1.04-3.12,1.883-4.238,2.529c-2.091,1.205-3.475,1.85-4.154,1.938
						c-0.636,0.088-1.615-0.104-2.939-0.574c-1.501-0.536-2.364-0.815-2.595-0.837C165.253,125.939,164.394,125.802,163.661,125.714
						z"/>
					<path fill="#292929" d="M182.596,128.834c-1.752,1.051-3.049,1.637-3.893,1.757c-0.197,0.033-1.308,0.148-3.334,0.344
						c-1.61,0.154-2.623,0.296-3.038,0.427c-0.756,0.208-1.33,0.377-1.724,0.509c-0.701,0.242-1.259,0.57-1.675,0.986
						c-0.767,0.766-1.708,1.549-2.825,2.349c-1.522,1.095-2.731,1.702-3.629,1.824c-0.745,0.109-1.845-0.028-3.301-0.411
						c-1.325-0.351-2.091-0.471-2.299-0.361c-0.449,0.218-0.958,0.377-1.527,0.476c-0.668,0.109-1.045,0.038-1.133-0.214
						c0.931-0.317,1.61-0.668,2.036-1.05c0.208-0.197,0.324-0.361,0.345-0.493c-0.329-0.045-0.695-0.192-1.1-0.443
						c-0.493-0.318-0.789-0.662-0.887-1.034c1.05,0.273,2.255,0.486,3.613,0.64c1.478,0.175,2.496,0.197,3.054,0.066
						c1.577-0.384,2.677-0.679,3.301-0.887c1.773-0.591,3.131-1.264,4.073-2.02c-4.796,1.588-8.009,2.058-9.641,1.413
						c-0.919-0.361-2.222-0.838-3.909-1.429c-1.731-0.591-2.688-0.892-2.874-0.903l-0.246-0.953c0.679,0.12,1.385,0.268,2.119,0.443
						c1.007,0.241,1.698,0.455,2.069,0.64c1.018,0.514,2.437,0.799,4.254,0.854c0.986,0.033,2.293-0.05,3.924-0.246
						c1.611-0.197,2.809-0.422,3.598-0.674c4.051-1.28,6.531-2.129,7.44-2.546c0.569-0.273,1.713-0.963,3.432-2.069
						c1.686-1.084,2.611-1.719,2.776-1.906c0.339,0.219,1.029,0.668,2.069,1.347c0.821,0.548,1.424,0.931,1.807,1.149
						C185.339,126.957,184.381,127.762,182.596,128.834z"/>
					<path fill="#292929" d="M161.493,149.15c-0.657,0.043-1.342-0.148-2.054-0.574c-0.636-0.384-1.029-0.767-1.182-1.15
						c1.116,0.756,2.813,0.942,5.091,0.557c0.393-0.076,1.686-0.421,3.875-1.034c0.844-0.219,2.502-0.733,4.977-1.544
						c0.601-0.208,1.445-0.438,2.529-0.689c1.39-0.318,2.508-0.493,3.35-0.526c0.777-0.022,1.439,0,1.987,0.066
						c0.307,0.033,0.724,0.083,1.248,0.148c-0.011,0.406-0.208,0.773-0.591,1.1c-0.197,0.164-0.679,0.461-1.445,0.887
						c-0.482,0.275-1.117,0.383-1.906,0.33c-1.018-0.143-1.85-0.252-2.496-0.33c-0.832-0.099-1.818-0.06-2.956,0.114
						c-0.471,0.076-1.561,0.296-3.268,0.657c-0.668,0.142-1.975,0.531-3.924,1.167C163.086,148.854,162.007,149.129,161.493,149.15z
						"/>
					<path fill="#292929" d="M168.489,152.993c-1.401,0.536-2.2,0.865-2.397,0.986c-0.449,0.275-1.128,0.882-2.037,1.824
						c-1.047,1.089-1.496,1.791-1.347,2.102l-0.427-0.821c-0.076-0.931-0.125-1.576-0.148-1.937
						c-0.032-0.592,0.083-1.008,0.346-1.248c0.448-0.394,1.724-0.958,3.826-1.693c2.145-0.777,3.613-1.275,4.4-1.493
						c0.362-0.1,1.046-0.346,2.054-0.74c0.756-0.295,1.155-0.405,1.199-0.329c0.296,0.427,0.225,0.761-0.213,1.002
						c-0.187,0.11-0.706,0.356-1.561,0.739c-0.787,0.351-1.259,0.574-1.412,0.674C170.64,152.144,169.88,152.457,168.489,152.993z"
						/>
					<path fill="#292929" d="M169.048,161.353c-2.092,0.766-3.356,1.117-3.794,1.051c0.373-0.427,1.435-1.089,3.187-1.988
						c2.65-1.325,4.21-2.266,4.68-2.824c0.143-0.164,0.701-0.723,1.676-1.675c0.82-0.8,1.325-1.375,1.511-1.725
						c0.338-0.931,0.607-1.648,0.804-2.15c0.339-0.92,0.636-1.27,0.887-1.051c0.426,0.384,0.925,0.904,1.494,1.561
						c0.394,0.471,0.679,0.848,0.854,1.133c0.361,0.569,0.526,1.067,0.493,1.494c-0.043,0.656-0.208,2.217-0.493,4.68
						c-0.043,0.504,0.066,1.089,0.33,1.757c0.317,0.788,0.749,1.358,1.297,1.707c1.029,0.679,2.223,1.259,3.58,1.741
						c0.055,0.996-0.011,1.746-0.197,2.25c-0.46-0.285-1.188-0.832-2.185-1.643c-0.952-0.777-1.543-1.297-1.773-1.56
						c-0.427-0.514-0.947-1.259-1.561-2.233c-0.832-1.336-1.232-2.245-1.199-2.726c0.087-0.811,0.137-1.413,0.148-1.807
						c0.022-0.668-0.071-1.105-0.28-1.313c-0.46-0.438-1.03-0.202-1.707,0.706c-0.351,0.471-0.958,1.067-1.824,1.789
						c-0.931,0.767-1.648,1.233-2.151,1.396C171.391,160.481,170.131,160.958,169.048,161.353z"/>
					<path fill="#292929" d="M176.159,167.938c-0.394,0.219-1.555,0.377-3.481,0.476c-2.19,0.11-3.296,0.164-3.318,0.164
						c-0.361,0.055-0.837,0.295-1.429,0.723c-0.504,0.351-0.925,0.701-1.264,1.05c0.142-0.241,0.432-0.749,0.87-1.526
						c0.449-0.679,0.914-1.095,1.396-1.248c0.251-0.076,1.467-0.17,3.646-0.28c1.948-0.11,3.07-0.301,3.366-0.574
						c0.624-0.559,1.095-1.013,1.413-1.363c0.559-0.636,0.914-1.216,1.067-1.741c-0.076,0.635-0.344,1.423-0.804,2.364
						C177.116,167.024,176.629,167.675,176.159,167.938z"/>
					<path fill="#292929" d="M91.958,105.021c0.581,0.471,1.39,1.648,2.43,3.531c0.143,0.263,0.832,1.61,2.07,4.04
						c0.602,1.15,1.128,4.019,1.577,8.606c0.11,1.105,0.865,3.312,2.266,6.619c1.456,3.449,2.617,5.617,3.481,6.504
						c-2.036-0.668-3.558-2.594-4.566-5.781c-0.273-0.854-0.564-2.02-0.87-3.497c-0.252-1.226-0.443-1.961-0.574-2.201
						c-0.372,1.259-0.394,2.83-0.066,4.713c0.285,1.676,0.783,3.279,1.494,4.813c-1.741-1.522-2.611-3.689-2.611-6.504
						c0-0.854,0.088-1.904,0.263-3.153c0.175-1.248,0.263-2.009,0.263-2.283c0-0.963-0.816-3.739-2.447-8.326
						C93.179,107.928,92.276,105.569,91.958,105.021z"/>
					<path fill="#292929" d="M93.912,90.913c-0.055-0.219-0.4-1.811-1.034-4.779c-0.438-2.058-0.789-3.29-1.051-3.696
						c-0.285-0.471-0.919-0.947-1.904-1.429c-0.799-0.384-1.615-0.679-2.447-0.887c3.186-0.011,5.453,1.303,6.799,3.941
						c0.69,1.379,1.16,3.405,1.413,6.076c0.185,2.025,2.601,9.115,7.242,21.268c-0.953-1.676-2.611-5.195-4.976-10.56
						C95.588,95.463,94.241,92.151,93.912,90.913z"/>
					<path fill="#292929" d="M102.682,90.684c-0.931-2.858-1.653-4.78-2.167-5.764c-0.569-1.095-2.239-3.252-5.009-6.47
						c2.66,0.033,5.223,3.082,7.686,9.147c1.62,3.974,2.726,7.625,3.317,10.954c0.285,1.511,0.908,5.873,1.873,13.09
						c1.029,7.762,1.648,12.93,1.856,15.503c-1.04-0.986-2.167-5.601-3.383-13.844c-1.095-8.562-1.752-13.39-1.97-14.484
						C104.422,96.525,103.69,93.815,102.682,90.684z"/>
					<path fill="#292929" d="M113.505,97.779c0.526,1.226,1.648,3.509,3.367,6.847c1.84,3.58,2.847,5.557,3.023,5.929
						c0.12,0.252,0.789,1.987,2.003,5.207c1.051,2.759,1.883,4.637,2.496,5.633c0.263-0.745,0.242-2.174-0.066-4.286
						c-0.306-2.124-0.717-3.673-1.232-4.648c-0.875-1.642-2.748-4.86-5.617-9.656c-0.668-1.139-1.472-2.885-2.414-5.239
						c-1.128-2.825-1.866-5.173-2.217-7.046c0.92,2.639,3,6.712,6.24,12.219c2.76,4.664,4.725,7.751,5.896,9.263
						c0.733,0.942,1.193,2.326,1.379,4.154c0.154,1.401,0.131,2.929-0.066,4.583c-0.11,0.865-0.4,2.048-0.871,3.547
						c-0.526,1.686-0.914,3.246-1.166,4.681c-0.033-1.28-0.657-3.098-1.873-5.453c-0.941-1.795-1.818-3.219-2.627-4.27
						c-0.46-0.602-0.832-1.576-1.117-2.923c-0.197-0.931-0.344-1.96-0.443-3.087c-0.066-0.789-0.41-2.266-1.034-4.434
						c-0.624-2.179-1.149-3.722-1.576-4.631c-0.372-0.811-0.811-2.015-1.314-3.613C113.85,99.186,113.592,98.261,113.505,97.779z"/>
					<path fill="#292929" d="M110.746,97.269c0.621,1.776,1.145,3.624,1.567,5.543c-0.237-0.852-0.766-2.168-1.584-3.95
						c-0.887-1.927-1.636-3.421-2.25-4.483c-0.372-0.635-1.079-2.261-2.119-4.878c-1.117-2.835-1.828-4.626-2.136-5.37
						c-0.394-0.974-1.171-2.305-2.332-3.991c-0.974-1.401-1.691-2.343-2.151-2.825l1.856-0.526c0.678,0.472,1.445,1.123,2.299,1.954
						c1.263,1.211,2.279,2.438,3.047,3.679c-0.206-0.276-0.723-0.773-1.553-1.494c-1.138-0.986-2.113-1.681-2.923-2.086
						c1.171,0.657,2.435,2.605,3.794,5.847c0.624,1.489,1.517,4.002,2.677,7.537C109.356,93.487,109.958,95.167,110.746,97.269z"/>
					<path fill="#292929" d="M112.651,83.704c0.187,0.361,0.996,1.932,2.43,4.713c1.467,2.935,2.491,5.228,3.07,6.881
						c-0.329-0.569-1.451-2.338-3.366-5.304c-1.708-2.661-2.748-4.352-3.12-5.075c-0.493-0.963-1.199-2.174-2.119-3.63
						c-0.931-1.467-1.62-2.463-2.07-2.989c1.04,0.099,2.141,0.892,3.301,2.381C111.48,81.591,112.104,82.599,112.651,83.704z"/>
					<path fill="#292929" d="M108.989,74.59c0.569,0.076,1.762,0.832,3.58,2.267c2.715,2.146,4.242,3.339,4.583,3.58
						c-0.022-2.333-1.008-4.04-2.957-5.124c-0.614-0.329-1.839-0.706-3.679-1.133l0.624-0.246c0.526-0.197,1.067-0.389,1.626-0.574
						c0.887-0.285,1.894-0.088,3.023,0.591c0.766,0.449,1.478,1.035,2.134,1.757c0.318,0.339,0.569,1.287,0.756,2.841
						c0.197,1.653,0.351,2.584,0.46,2.792c0.154,0.285,0.411,0.745,0.773,1.38c0.285,0.58,0.46,1.111,0.526,1.593
						c0.055,0.405,0.405,1.287,1.051,2.644c0.886,1.84,1.527,3.274,1.921,4.304c-0.099-0.198-0.574-0.92-1.429-2.168
						c-0.942-1.347-1.631-2.278-2.069-2.792c-0.449-0.514-2.136-2.229-5.058-5.14c-2.814-2.793-4.407-4.358-4.78-4.697
						c-0.448-0.384-0.882-0.707-1.297-0.969c-0.597-0.37-1.027-0.517-1.289-0.443L108.989,74.59z"/>
					<path fill="#292929" d="M121.962,82.637c1.018,0.394,1.977,1.314,2.874,2.76c0.92,1.489,1.511,2.299,1.774,2.43
						c0.58,0.296,1.894,1.171,3.941,2.627c1.992,1.423,3.246,2.376,3.761,2.857c0.493,0.46,1.292,1.698,2.398,3.711
						c1.117,2.003,1.768,3.383,1.954,4.139c0.175,0.711,0.263,1.264,0.263,1.659c0,0.351-0.066,0.46-0.198,0.329
						c-0.076-0.076-0.548-0.827-1.412-2.25c-0.931-1.522-1.501-2.426-1.708-2.71c-0.438-0.602-1.073-1.446-1.904-2.529
						c-1.008-1.303-1.643-2.086-1.906-2.349c-0.471-0.471-1.264-1.149-2.381-2.036c-1.379-1.095-2.364-1.762-2.956-2.004
						c0.033,0.777,0.789,2.229,2.267,4.352c1.259,1.807,2.282,3.104,3.07,3.893c0.514,0.514,1.478,1.894,2.891,4.139
						c1.248,2.015,2.091,3.454,2.53,4.32c0.35,0.711,0.574,1.494,0.673,2.349c0.11,0.887,0.033,1.423-0.23,1.61
						c-0.208,0.154-0.46,0.06-0.756-0.279c-0.624-0.756-0.952-1.145-0.986-1.167c-0.329-0.296-1.024-1.456-2.086-3.481
						c-1.303-2.464-1.982-3.745-2.037-3.843c-0.066-0.099-0.854-1.429-2.364-3.99c-1.28-2.158-2.069-3.417-2.364-3.777
						c-0.306-0.372-0.789-1.407-1.446-3.104l-1.149-3.006C122.953,84.548,122.116,82.998,121.962,82.637z"/>
					<path fill="#292929" d="M124.442,74.721c1.04,0.963,2.245,2.179,3.613,3.646c0.624,0.526,1.38,1.494,2.267,2.907
						c0.766,1.248,1.287,2.238,1.56,2.973c0.242,0.645,0.729,1.653,1.463,3.023c0.787,1.467,1.543,2.748,2.266,3.843
						c-1.017-0.066-2.238-0.97-3.662-2.71c-1.347-1.85-2.184-2.907-2.513-3.17c-0.405-0.317-1.297-1.38-2.676-3.186
						c-1.39-1.861-2.174-2.907-2.349-3.136c-0.394-0.503-1.226-1.648-2.496-3.433c-1.413-1.971-2.136-3.038-2.167-3.203
						C120.917,72.088,122.482,72.904,124.442,74.721z"/>
					<path fill="#292929" d="M135.15,74.31c1.04,1.676,2.058,3.663,3.055,5.961c0.481,0.876,1.571,2.551,3.267,5.026
						c1.731,2.539,2.929,4.194,3.598,4.96c0.46,0.536,1.724,1.944,3.793,4.22c1.937,2.222,3.115,3.87,3.531,4.944
						c0.438,1.15,0.498,3.509,0.18,7.078c-0.285,3.285-0.602,5.245-0.952,5.88c-0.263,0.503-0.575,0.898-0.937,1.183
						c-0.361,0.296-0.503,0.258-0.426-0.114c0.087-0.427,0.137-1.429,0.148-3.006c0.011-1.653-0.038-2.661-0.148-3.023
						c-0.055-0.164-0.427-0.914-1.117-2.25c-0.724-1.38-1.216-2.458-1.478-3.236c-0.296-0.876-1.035-2.36-2.218-4.451
						c-0.218-0.405-1.029-1.795-2.43-4.171c-0.373-0.623-0.952-2.048-1.741-4.27c-0.82-2.31-1.308-3.608-1.461-3.893
						c-0.242-0.427-1.112-1.527-2.611-3.3c-1.643-1.916-2.551-3-2.726-3.253c-0.339-0.471-0.963-1.04-1.873-1.707
						c-0.745-0.536-1.369-0.931-1.873-1.183c-0.252-0.131-1.024-0.728-2.316-1.79c-1.303-1.074-2.08-1.676-2.333-1.807
						c-0.088-0.045-0.707-0.296-1.856-0.756c-0.931-0.372-1.566-0.673-1.904-0.904l1.724-0.41c0.766,0.23,2.119,0.86,4.057,1.889
						c2.004,1.051,3.618,2.004,4.844,2.857c-0.175-0.515-1.117-1.467-2.824-2.857c-1.534-1.259-2.628-2.058-3.285-2.397l0.87-0.23
						c0.624-0.175,1.067-0.285,1.33-0.329C131.143,69.312,133.179,71.091,135.15,74.31z"/>
					<path fill="#292929" d="M162.494,106.68c0.351,1.686,0.465,2.924,0.346,3.711c-0.1,0.602-0.105,1.16-0.017,1.676
						c0.043,0.306,0.148,0.843,0.312,1.61c0.1,0.614-0.13,1.423-0.689,2.43c-0.482,0.843-0.963,1.478-1.445,1.904
						c-0.899,0.821-1.506,1.818-1.824,2.989l-0.607-1.839c-0.23-0.69,0.114-1.636,1.035-2.841c0.942-1.226,1.385-1.932,1.33-2.119
						c-0.055-0.208-0.471-0.723-1.248-1.544c-0.756-0.811-1.205-1.517-1.347-2.12c-0.121-0.526-0.274-2.036-0.46-4.533
						c-0.176-2.485-0.33-3.997-0.461-4.533c-0.187-0.777-0.618-1.906-1.297-3.383c-0.657-1.423-1.167-2.354-1.527-2.792
						c-0.12-0.154-0.849-0.848-2.184-2.086c-1.183-1.095-1.878-1.85-2.087-2.267c-0.35-0.711-0.969-1.714-1.856-3.005
						c-1.04-1.522-1.818-2.452-2.332-2.793c-0.581-0.383-1.439-1.247-2.579-2.594c-1.15-1.358-1.894-2.397-2.233-3.12
						c-0.286-0.602-0.92-1.544-1.906-2.825c-0.198-0.252-0.777-0.963-1.741-2.136c1.741-0.219,4.576,1.85,8.507,6.207
						c1.992,2.222,3.985,4.654,5.978,7.292c0.514,0.569,1.17,1.691,1.97,3.367c0.919,1.894,1.429,3.388,1.526,4.483
						c1.369,0.066,2.573,1.155,3.613,3.268c0.198,0.405,0.548,1.215,1.051,2.43c0.361,0.854,0.64,1.396,0.837,1.626
						C161.668,103.718,162.111,104.895,162.494,106.68z"/>
					<path fill="#292929" d="M149.8,71.584c0.241,0.273,0.941,0.941,2.102,2.003c1.007,0.931,1.626,1.582,1.856,1.954
						c0.383,0.624,0.947,1.785,1.691,3.481c0.875,1.982,1.533,3.696,1.97,5.14c-0.032-0.054-0.811-1.002-2.332-2.841
						c-1.456-1.785-2.381-3.099-2.776-3.941c-0.591-0.088-1.866-0.756-3.826-2.004c-2.276-1.467-3.569-2.272-3.876-2.414
						c-0.733-0.351-1.998-1.314-3.793-2.89c-1.719-1.489-2.672-2.409-2.857-2.76l1.1-0.18c0.383,0.219,0.826,0.498,1.33,0.838
						c0.69,0.471,1.232,0.886,1.626,1.247c0.427,0.384,1.473,1.062,3.137,2.037c1.467,0.854,2.736,1.549,3.81,2.086
						c-0.23-0.285-0.827-0.925-1.789-1.921c-1.04-1.073-1.714-1.73-2.02-1.97c-0.198-0.154-0.958-0.548-2.283-1.183
						c-1.303-0.614-2.119-1.057-2.447-1.33l1.478-0.263c2.102,0.448,3.919,1.264,5.453,2.447
						C148.009,69.635,148.825,70.457,149.8,71.584z"/>
					<path fill="#292929" d="M163.431,86.053c1.193,2.957,1.911,4.642,2.151,5.058c0.417,0.711,1.083,2.255,2.003,4.631
						c0.811,2.07,1.363,3.575,1.659,4.517c0.187,0.602,0.98,2.096,2.381,4.483c0.723,1.237,1.555,2.638,2.496,4.204
						c0.405,0.711,0.854,1.823,1.347,3.334c0.569,1.773,0.805,3.049,0.706,3.826c-0.099,0.766-0.372,1.369-0.82,1.807
						c-0.187,0.175-0.673,0.493-1.461,0.953c0.043-0.756,0.071-1.423,0.082-2.004c0.045-1.105,0.017-1.861-0.082-2.266
						c-0.066-0.263,0-0.772,0.197-1.527c0.164-0.69,0.148-1.276-0.049-1.757c-0.208-0.514-0.701-1.494-1.479-2.94
						c-0.81-1.489-1.308-2.414-1.493-2.776c-0.143-0.296-0.581-0.865-1.314-1.708c-0.689-0.789-1.117-1.418-1.28-1.889
						c-0.208-0.581-0.614-1.276-1.216-2.086c-0.514-0.69-0.996-1.237-1.445-1.642c-0.394-0.351-0.992-1.105-1.79-2.267
						c-0.82-1.183-1.342-2.053-1.56-2.611c-0.198-0.482-0.669-1.358-1.413-2.627c-0.022-0.043-0.548-0.925-1.576-2.644
						c-0.427-0.723-0.756-2.88-0.986-6.47c-0.066-0.963-0.499-2.437-1.298-4.418c-0.208-0.514-0.837-1.472-1.889-2.873
						c-0.952-1.27-1.619-2.091-2.004-2.464c1.39,0.318,2.902,1.593,4.533,3.827c0.887,1.204,1.92,2.824,3.104,4.861
						C161.437,81.383,162.27,83.206,163.431,86.053z"/>
					<path fill="#292929" d="M163.365,66.772c0.876,0.57,1.883,2.141,3.023,4.714c1.446,3.295,2.223,5.031,2.332,5.206
						c0.636,1.018,1.829,4.019,3.581,9c1.73,4.927,2.798,8.321,3.202,10.182c0.493,2.288,0.854,3.706,1.083,4.254
						c0.504,1.204,1.577,2.748,3.22,4.631c1.653,1.883,2.506,4.976,2.562,9.28c0.022,1.685-0.088,3.246-0.33,4.68
						c-0.251,1.39-0.557,2.305-0.919,2.743c0.799-2.19,0.493-5.486-0.92-9.887c-0.526-1.653-1.127-3.181-1.806-4.583
						c-0.624-1.303-1.112-2.091-1.463-2.364c-0.493-0.394-1.379-2.025-2.66-4.894c-1.489-3.317-2.381-5.211-2.677-5.682
						c-0.514-0.811-1.308-3.224-2.38-7.243c-1.117-4.138-1.719-6.29-1.807-6.454c-0.82-1.872-1.582-3.564-2.283-5.074
						c-1.357-2.945-2.25-4.604-2.676-4.976c-0.394-0.351-1.571-1.248-3.531-2.693c-2.167-1.588-3.388-2.492-3.662-2.71
						c0.481-0.055,1.412-0.142,2.792-0.263c0.339-0.022,1.013,0.148,2.02,0.509C161.279,65.585,162.379,66.126,163.365,66.772z"/>
					<path fill="#292929" d="M172.496,73.292c0.318,0.821,0.861,1.845,1.626,3.07c0.723,1.16,1.358,2.054,1.906,2.677
						c0.613,0.701,1.363,1.665,2.25,2.891c1.029,1.435,1.844,2.688,2.447,3.761c0.591,1.084,1.61,3.755,3.054,8.014
						c1.369,4.073,2.092,6.448,2.168,7.128c0.055,0.503,0.432,2.738,1.133,6.7c0.569,3.263,0.974,5.557,1.215,6.881
						c0.076,0.405,0.465,1.79,1.167,4.156c0.657,2.233,1.007,3.591,1.05,4.073c0.033,0.339-0.099,1.254-0.393,2.743
						c-0.318,1.576-0.455,2.918-0.411,4.023l-1.281-0.887c-0.723-1.544-1.04-3.267-0.952-5.173c0.242-1.817,0.383-2.923,0.426-3.317
						c0.076-0.733,0.071-1.375-0.016-1.921c-0.132-0.766-0.432-1.478-0.904-2.136c-0.461-0.645-1.013-2.141-1.659-4.483
						c-0.557-2.036-0.914-3.63-1.067-4.779c-0.131-0.931-0.537-2.705-1.215-5.321c-0.68-2.639-1.145-4.216-1.396-4.73
						c-0.219-0.438-0.733-2.036-1.544-4.795c-0.844-2.891-1.33-4.555-1.461-4.993c-0.176-0.591-0.844-1.933-2.004-4.024
						c-1.051-1.883-1.824-3.196-2.317-3.941c-0.372-0.559-0.773-1.527-1.199-2.907C172.704,74.688,172.496,73.784,172.496,73.292z"
						/>
					<path fill="#292929" d="M177.177,70.073c0.689,1.007,1.653,2.705,2.89,5.091c0.679,1.303,1.473,3.405,2.381,6.306
						c0.875,2.77,1.56,5.311,2.053,7.62c-1.215-3.022-2.342-5.518-3.382-7.489c-0.767-1.446-1.965-3.389-3.597-5.83
						c-1.588-2.387-2.737-3.98-3.45-4.779c-1.029-1.15-2.205-2.371-3.53-3.663c-1.719-1.664-2.786-2.523-3.202-2.579
						c0.995,0.099,2.681,0.361,5.057,0.789C174.072,66.373,175.666,67.883,177.177,70.073z"/>
					<path fill="#292929" d="M185.75,82.309c-2.157-5.638-3.356-8.715-3.598-9.23c0.975,1.084,3.514,6.12,7.62,15.109
						c3.855,8.441,6.044,13.5,6.57,15.175c0.405,1.303,0.732,2.748,0.986,4.336c0.262,1.643,0.372,3.038,0.329,4.187
						c-0.043,0.942,0.11,2.404,0.46,4.386c0.438,2.496,0.657,3.76,0.657,3.793c0.076,0.657-0.022,1.643-0.296,2.957
						c-0.142,0.689-0.333,1.478-0.574,2.364c-0.066,0.318-0.148,1.034-0.246,2.151c-0.043,0.591-0.105,1.352-0.181,2.283
						c-0.022,0.263-0.295,0.843-0.82,1.74c-0.504,0.876-0.761,1.566-0.773,2.07l-2.184-1.495c-0.493-1.61-0.559-2.912-0.198-3.909
						c0.537-0.854,0.876-1.456,1.018-1.807c0.198-0.482,0.318-1.27,0.361-2.364c0.033-0.953,0-1.873-0.099-2.76
						c-0.12-1.029-1.024-3.12-2.71-6.273c-0.263-0.493-0.323-1.314-0.181-2.464c0.066-0.515,0.246-1.489,0.543-2.923
						c0.131-0.668,0.087-1.73-0.131-3.186c-0.263-1.719-0.394-2.721-0.394-3.005c0-0.646-0.367-2.518-1.1-5.617
						c-0.591-2.508-1.067-4.407-1.43-5.699C189.194,91.428,187.983,88.154,185.75,82.309z"/>
					<path fill="#292929" d="M190.512,82.473c0.767,2.058,2.639,5.151,5.617,9.279c1.654,2.288,3.35,4.505,5.091,6.651
						c0.581,0.723,1.779,3.64,3.597,8.753c1.84,5.157,2.76,8.244,2.76,9.263c0,0.886-0.448,2.108-1.347,3.663
						c-0.043,0.076-0.728,1.145-2.054,3.203c-0.448,0.701-0.732,1.28-0.854,1.74c-0.109,0.384-0.114,0.761-0.016,1.133
						c0.066,0.242,0.245,0.844,0.542,1.807c0.088,0.624-0.323,0.373-1.232-0.756c-0.887-1.095-1.127-2.693-0.723-4.795
						c0.624-2.255,0.947-3.789,0.969-4.599c0.033-0.942,0.383-2.409,1.051-4.401c0.679-2.058,1.029-3.202,1.05-3.432
						c0.033-0.449-0.23-1.018-0.788-1.708c-0.962-1.183-1.483-1.833-1.56-1.954c-0.263-0.406-0.963-1.62-2.102-3.646
						c-1.128-2.036-1.999-3.52-2.611-4.451c-0.526-0.799-1.675-2.841-3.449-6.126c-1.654-3.054-2.677-4.839-3.071-5.354
						c-0.548-0.712-1.445-2.387-2.693-5.026c-1.226-2.572-1.954-4.291-2.184-5.156c-0.208-0.789-0.987-2.305-2.333-4.549
						c-1.313-2.157-2.261-3.531-2.841-4.123c2.069,0.614,3.969,2.611,5.699,5.994C187.665,75.121,188.826,77.983,190.512,82.473z"/>
					<path fill="#292929" d="M192.861,78.219c-0.536-1.828-1.144-3.137-1.823-3.926c1.238,0.427,3.383,2.918,6.437,7.473
						c1.566,2.332,3.28,4.948,5.141,7.85c0.481,0.58,1.856,2.759,4.123,6.536c2.581,4.306,4.258,7.068,5.033,8.286
						c-0.849-1.26-2.817-3.655-5.903-7.186c-3.295-3.723-5.136-5.804-5.518-6.241c-0.645-0.745-1.96-2.781-3.941-6.11
						C194.328,81.411,193.145,79.183,192.861,78.219z"/>
					<path fill="#292929" d="M218.135,115.746c-0.361,0.011-1.04-0.273-2.036-0.854c-1.162-0.723-1.977-1.232-2.448-1.527
						c-0.536-0.339-1.691-1.779-3.466-4.319c-1.916-2.748-2.961-4.211-3.137-4.386c-0.361-0.361-1.439-2.146-3.236-5.354
						c-1.894-3.372-2.935-5.185-3.119-5.436c0.854,0.351,2.611,2.381,5.272,6.094c2.387,3.35,3.876,5.644,4.467,6.88
						c0.427,0.899,1.435,2.262,3.023,4.09C215.01,112.719,216.571,114.322,218.135,115.746z"/>
					<path fill="#292929" d="M217.922,119.194c-0.767,0.318-1.325,0.745-1.676,1.28c-0.142,0.219-0.393,0.811-0.755,1.774
						c-0.252,0.668-1.128,2.672-2.627,6.01c-1.468,3.252-2.48,5.453-3.038,6.603c-0.449,0.942-1.303,1.789-2.562,2.545
						c-0.493,0.296-1.615,0.832-3.367,1.61l-1.708-1.133c-0.175-0.12-0.076-0.678,0.296-1.675c0.427-1.16,0.64-1.839,0.64-2.037
						c0-0.251,0.471-0.843,1.413-1.773c1.029-1.007,1.631-1.752,1.806-2.233c0.438-1.15,1.833-2.425,4.187-3.827
						c0.745-0.448,1.489-1.308,2.234-2.579c0.317-0.536,0.761-1.418,1.33-2.644c0.273-0.58,0.761-1.051,1.461-1.413
						C216.279,119.32,217.069,119.151,217.922,119.194z"/>
					<path fill="#292929" d="M220.452,125.123c-0.131,0.187-0.236,0.564-0.313,1.133c-0.142,0.963-0.273,1.714-0.394,2.25
						c0.285-0.526,0.899-0.717,1.84-0.574c0.875,0.121,1.51,0.4,1.904,0.837c-1.368-0.361-2.529,0.192-3.481,1.659
						c-0.656,1.105-1.199,2.004-1.626,2.693c-0.787,1.303-1.374,2.201-1.756,2.694c-0.569,0.723-1.615,1.588-3.137,2.594
						c-1.707,1.139-3.099,1.786-4.172,1.938c0.963-0.306,2.245-1.456,3.843-3.45c0.155-0.185,0.986-1.33,2.496-3.432
						c0.361-0.471,0.899-1.303,1.61-2.496c0.821-1.368,1.27-2.245,1.347-2.627C218.809,127.39,219.422,126.316,220.452,125.123z"/>
					<path fill="#292929" d="M224.443,145.307c-0.899,0.635-2.151,1.215-3.761,1.741c-1.598,0.514-2.573,0.673-2.924,0.476
						c-1.368-0.832-2.418-1.456-3.153-1.873c3.416-0.394,5.419-0.914,6.01-1.56c0.362-0.406,1.002-1.347,1.921-2.825
						c0.504-0.799,1.171-1.888,2.004-3.268c0.46-0.755,1.117-1.619,1.97-2.594c0.832-0.941,1.336-1.412,1.511-1.412
						c0.066,0.329-0.126,1.182-0.574,2.562c-0.537,1.643-0.838,2.644-0.904,3.006c-0.088,0.493-0.242,1.473-0.461,2.94
						C225.768,143.813,225.22,144.748,224.443,145.307z"/>
					<path fill="#292929" d="M238.632,142.696c-0.143,0.449-0.537,0.952-1.183,1.511c-0.087,0.076-0.591,0.471-1.511,1.182
						c-0.318,0.251-0.695,0.931-1.133,2.037c-0.241,0.591-0.557,1.396-0.952,2.414c-0.426,0.907-0.92,1.685-1.478,2.332
						c-0.811,0.941-1.538,1.263-2.184,0.969c0.503,0,0.979-0.323,1.429-0.969c0.339-0.494,0.619-1.1,0.837-1.824
						c0.963-3.153,1.631-5.124,2.004-5.912c0.285-0.614,0.861-1.035,1.724-1.264C236.688,143.04,237.504,142.882,238.632,142.696z"
						/>
					<path fill="#292929" d="M196.31,72.75c0.942,0.34,2.359,0.97,4.254,1.889c0.668,0.318,1.532,1.369,2.594,3.154
						c1.094,1.85,1.664,3.295,1.707,4.336c-0.12-0.81-1.413-2.523-3.876-5.14C198.604,74.458,197.043,73.046,196.31,72.75z"/>
					<path fill="#292929" d="M211.502,84.821c0.811,1.894,1.182,3.405,1.117,4.533c-0.033,0.602-0.377,1.199-1.035,1.79
						c-0.318,0.296-0.816,0.657-1.494,1.083c-0.318,0.197-0.586,0.187-0.804-0.032c-0.209-0.187-0.286-0.411-0.231-0.674
						c0.865-0.701,0.932-2.66,0.198-5.879c-0.602-2.627-1.193-4.434-1.774-5.42C209.13,80.868,210.471,82.402,211.502,84.821z"/>
					<path fill="#292929" d="M216.723,94.84c0.066,1.423-0.143,2.409-0.624,2.956c-0.318,0.361-0.963,0.581-1.938,0.657
						c-0.854,0.066-1.517,0.022-1.987-0.131c-1.204-0.405-1.61-0.844-1.215-1.314c0.175-0.197,0.701-0.493,1.576-0.887
						c0.887-0.383,1.435-0.695,1.643-0.936c0.296-0.339,0.52-1.079,0.674-2.217c0.154-1.128,0.163-2.07,0.032-2.825
						C216.033,91.511,216.647,93.076,216.723,94.84z"/>
					<path fill="#292929" d="M219.613,98.682c0.155,0.482,0.827,2.655,2.02,6.52c0.11,0.339-0.158,0.953-0.804,1.84
						c-0.679,0.941-1.385,1.571-2.119,1.889c-0.788,0.351-1.5,0.356-2.136,0.017s-1.171-1.013-1.61-2.02
						c-0.373-0.854-0.159-1.79,0.64-2.807c0.35-0.449,1.034-1.105,2.053-1.97c0.417-0.34,0.794-0.899,1.133-1.676
						C219.264,99.411,219.537,98.814,219.613,98.682z"/>
					<path fill="#292929" d="M221.749,112.592c0.581-0.875,1.062-1.823,1.446-2.841c0.263,0.733,0.766,1.982,1.511,3.744
						c0.723,1.73,1.263,2.983,1.626,3.761c-0.296,0.645-0.958,1.439-1.987,2.381c-1.095,0.986-1.845,1.418-2.25,1.298
						c-0.384-0.121-0.8-0.833-1.25-2.136c-0.383-1.117-0.601-1.999-0.656-2.644c-0.033-0.417,0.154-1.034,0.559-1.856
						C221.032,113.731,221.365,113.162,221.749,112.592z"/>
					<path fill="#292929" d="M226.939,128.933c-0.296-1.281-0.401-2.174-0.313-2.677c0.066-0.394,0.377-1.233,0.937-2.513
						c0.602-1.401,0.936-2.207,1-2.414c0.57,0.986,1.364,2.07,2.381,3.252c0.811,0.92,1.473,1.599,1.987,2.037
						c0.066,0.471-0.142,1.216-0.623,2.233c-0.471,0.974-0.915,1.642-1.331,2.004c-0.449,0.405-1.007,0.695-1.675,0.87
						c-0.733,0.187-1.233,0.093-1.494-0.279C227.525,131.029,227.233,130.192,226.939,128.933z"/>
					<path fill="#292929" d="M235.807,128.063c1.619,0.285,3.207,0.279,4.762-0.017c0.887,1.193,1.276,2.573,1.167,4.139
						c-0.11,1.456-0.624,2.748-1.544,3.876c-1.281,0.198-2.868,0.192-4.762-0.017c0.623-0.995,0.924-2.539,0.903-4.631
						C236.3,129.541,236.124,128.424,235.807,128.063z"/>
					<path fill="#292929" d="M245.004,126.191c0.536-0.296,1.045-0.63,1.526-1.002c0.143-0.11,0.619-0.509,1.43-1.199
						c1.313,0.536,2.397,1.532,3.251,2.989c0.755,1.28,1.204,2.672,1.347,4.171c-0.471,0.384-1.188,0.882-2.151,1.494
						c-1.248-0.241-2.53-1.303-3.843-3.186C245.382,127.762,244.861,126.672,245.004,126.191z"/>
					<path fill="#292929" d="M243.822,111.919c0.066-1.511,0.789-2.601,2.168-3.268c1.117-0.557,2.496-0.782,4.138-0.673
						c1.303,0.076,2.787,0.886,4.451,2.43c1.51,1.423,2.579,2.847,3.202,4.27c-0.285,0.306-1.138,0.706-2.563,1.199
						c-2.112,0.723-3.35,1.16-3.711,1.314c0.219,0.176,1.248,0.465,3.087,0.871c1.795,0.383,3.252,0.645,4.369,0.789
						c-0.043,0.887-0.344,2.485-0.903,4.796c-0.712,0.154-2.092-0.17-4.139-0.97c-1.906-0.755-3.12-1.374-3.646-1.856
						c0.208-0.438,0.296-0.914,0.263-1.429c-0.022-0.296-0.137-1.034-0.344-2.217c0.022-0.854-0.799-1.747-2.464-2.677
						C245.574,113.304,244.271,112.444,243.822,111.919z"/>
					<path fill="#292929" d="M13.619,122.233c0.318,0.143,0.559,0.422,0.723,0.838c-0.076,0.58-0.29,1.057-0.64,1.429
						c-0.405,0.427-1.002,0.64-1.79,0.64c-0.23,0.011-0.455-0.11-0.674-0.361c-0.175-0.198-0.306-0.417-0.394-0.657
						c-0.099-0.526-0.076-0.974,0.066-1.347c0.033-0.109,0.17-0.197,0.41-0.263c0.022,0,0.208-0.033,0.559-0.099
						C12.076,122.38,12.657,122.321,13.619,122.233z"/>
				</g>
			</g>
		</g>
	</g>
</g>
</svg>
