<?xml version="1.0" encoding="utf-8"?>
<!-- Generator: Adobe Illustrator 17.0.1, SVG Export Plug-In . SVG Version: 6.00 Build 0)  -->
<!DOCTYPE svg PUBLIC "-//W3C//DTD SVG 1.1//EN" "http://www.w3.org/Graphics/SVG/1.1/DTD/svg11.dtd">
<svg version="1.1" id="Layer_1" xmlns="http://www.w3.org/2000/svg" xmlns:xlink="http://www.w3.org/1999/xlink" x="0px" y="0px"
	 width="244.338px" height="124.207px" viewBox="5.275 68.268 244.338 124.207"
	 enable-background="new 5.275 68.268 244.338 124.207" xml:space="preserve">
<g>
	<g id="Layer_1_1_">
		<g>
			<g id="Layer_1_3_">
				<g>
					<path fill="#FFFFFF" stroke="#373535" stroke-width="1.5" stroke-miterlimit="10" d="M242.938,90.898
						c-0.765,0.713-1.261,1.188-1.488,1.426c-0.879,1.064-1.509,1.792-1.892,2.186l-1.875,2.093
						c-0.724,0.795-1.432,1.452-2.124,1.968c-0.311,0.249-0.667,0.558-1.069,0.93c-0.476,0.434-0.838,0.729-1.086,0.884
						c-1.115,0.692-2.79,1.638-5.021,2.837c-0.641,0.341-1.106,0.677-1.396,1.007c0.186,0.63,0.253,1.535,0.201,2.712
						c-0.031,1.055,0.078,1.866,0.326,2.434c0.299,0.672,0.806,1.287,1.519,1.845c0.703,0.548,1.457,0.93,2.264,1.147l1.41,0.279
						c0.465,0.124,0.843,0.361,1.132,0.713c0.155,0.207,0.454,0.739,0.899,1.597c0.341,0.692,0.666,1.178,0.977,1.457
						c1.043,0.145,1.859,0.367,2.449,0.667c0.744,0.382,1.261,0.909,1.55,1.581c1.085,0.134,1.922,0.222,2.511,0.264
						c0.89,0.042,1.716,0.031,2.48-0.031c0.166-0.021,0.873-0.196,2.124-0.527c0.837-0.238,1.514-0.284,2.03-0.139
						c0.031,0.393-0.124,0.806-0.465,1.24c-0.444,0.465-0.729,0.806-0.853,1.023c-0.155,0.279-0.444,0.713-0.868,1.302l-0.868,1.302
						c-0.041,0.052-0.134,0.104-0.279,0.155l-0.31,0.14c-0.062,0.238-0.217,0.506-0.465,0.806c-0.228,0.299-0.388,0.558-0.48,0.775
						c-0.248,0.104-0.61,0.357-1.085,0.76c-0.435,0.352-0.816,0.584-1.147,0.697c0.124,0.424,0.062,1.013-0.186,1.768
						c-0.248,0.713-0.259,1.333-0.031,1.86c-0.548,0.692-1.147,1.839-1.799,3.442c-0.702,1.787-1.245,2.991-1.627,3.611
						c-1.044,2.697-2.206,4.314-3.488,4.852c-0.413-0.3-0.682-0.914-0.806-1.845c-0.187-1.219-0.326-1.958-0.419-2.217
						c-0.124-0.289-0.388-0.65-0.79-1.085l-0.744,0.466c-0.3,0.175-0.61,0.263-0.931,0.263c-0.413,0-0.971-0.103-1.674-0.31
						c-0.62-0.207-1.178-0.372-1.674-0.496l-0.899-0.171c-0.476-0.113-0.801-0.201-0.977-0.263l-0.604-0.279
						c-0.259-0.145-0.465-0.243-0.62-0.295l-2.108-0.821c-0.723-0.3-1.379-0.631-1.969-0.992c-0.228-0.145-0.62-0.444-1.178-0.899
						c-0.641-0.526-1.096-0.883-1.364-1.069c-0.775-0.476-1.281-0.816-1.52-1.023c-0.03-0.031-0.03-0.062,0-0.093
						c0.031-0.031,0.031-0.073,0-0.125c-0.03-0.041-0.242-0.217-0.635-0.527c-0.403-0.31-0.626-0.465-0.667-0.465
						c-0.113-0.042-0.3-0.062-0.558-0.062l-0.604-0.016c-1.871-0.32-3.4-0.687-4.589-1.101c-0.3-0.104-0.77-0.3-1.41-0.589
						l-1.396-0.635c-1.405-0.61-2.33-1.049-2.774-1.318c-1.055-0.641-2-1.049-2.837-1.224l-0.791-0.062
						c-0.33-0.01-0.568-0.114-0.713-0.31c-0.228,0.413-0.589,0.656-1.085,0.729c-0.548,0.072-0.816-0.217-0.806-0.868
						c-1.138-0.124-2.372-0.078-3.705,0.14c-0.372,0.051-0.956,0.108-1.752,0.17c-0.765,0.052-1.312,0.119-1.643,0.202
						c-0.527,0.124-1.194,0.408-2,0.852l-2.077,1.101c-2.801,1.333-4.95,2.563-6.449,3.689l-1.1,0.884
						c-1.23,0.971-2.439,1.911-3.628,2.821c-0.754,3.482-0.512,6.365,0.729,8.649c0.403,0.713,1.127,1.462,2.17,2.248l2.543,1.891
						c3.565,1.375,5.937,3.57,7.115,6.588l0.062,2.651c-0.011,0.93-0.149,1.741-0.418,2.434c-0.125,0.341-0.394,0.609-0.807,0.806
						c-0.383,0.176-0.625,0.517-0.729,1.023c-0.052,0.228-0.104,0.614-0.155,1.162l-0.14,1.303c-0.103,0.898-0.14,1.597-0.108,2.093
						c0.062,0.547,0.243,1.131,0.543,1.751l0.93,1.271c0.393,0.558,0.595,1.054,0.604,1.488c0.011,0.227-0.077,0.521-0.264,0.884
						c-0.196,0.371-0.305,0.635-0.325,0.79c-0.062,0.6,0.165,1.234,0.683,1.906c0.702,0.92,1.085,1.442,1.146,1.566
						c0.113,0.3,0.187,0.677,0.217,1.131c0.031,0.507,0.104,0.904,0.218,1.194c-0.372,0.65-0.977,0.94-1.813,0.868
						c-0.031,0.134,0.005,0.377,0.108,0.729c0.093,0.341,0.103,0.609,0.03,0.806c-0.32,0.072-0.779,0.072-1.38,0
						c-0.682-0.01-1.167-0.062-1.457-0.155c-0.134-0.041-0.305-0.181-0.511-0.418c-0.166-0.228-0.336-0.352-0.512-0.372
						c-0.124-0.011-0.32,0.088-0.589,0.294c-0.279,0.238-0.512,0.403-0.698,0.496c-1.002,0.435-2.015,0.403-3.038-0.093
						c-0.981-0.485-1.664-1.204-2.046-2.154c-1.85-0.331-2.889-0.816-3.116-1.458c-0.206-0.506-0.17-1.152,0.108-1.938
						c0.383-0.806,0.631-1.39,0.744-1.751c-0.082-0.135-0.583-0.45-1.503-0.946c-0.765-0.402-1.152-0.837-1.163-1.302
						c-0.01-0.279,0.113-0.62,0.372-1.023l0.636-0.945c0.352-0.62,0.589-1.168,0.713-1.643c0.145-0.569,0.176-1.251,0.093-2.047
						c-0.175-1.044-0.269-1.73-0.278-2.062c-0.031-0.485,0.134-1.111,0.496-1.876c-1.364-0.32-2.311-1.049-2.837-2.186
						c-2.16-0.062-4.258-0.548-6.294-1.457l-5.1-2.666c-1.075,0.981-2.346,1.927-3.813,2.837c-1.168,0.733-2.604,1.529-4.31,2.387
						c0.135,1.716,0.439,3.385,0.915,5.008c0.072,0.258,0.614,1.88,1.627,4.867l0.218,0.619c0.093,0.29,0.165,0.543,0.217,0.76
						c0.248,1.055,1.064,2.579,2.449,4.573c0.32,0.435,0.785,1.137,1.395,2.108c0.724,1.064,1.086,1.859,1.086,2.387
						c0,0.207-0.078,0.517-0.232,0.931c-0.125,0.32-0.146,0.666-0.062,1.038c0.134,0.496,0.46,1.101,0.977,1.813
						c0.331,0.476,0.78,1.075,1.349,1.799c0.609,0.889,0.816,1.762,0.62,2.619c-0.196,0.899-0.791,1.509-1.783,1.83
						c0.249,1.033-0.17,1.767-1.255,2.2c-1.044,0.435-2.052,0.398-3.023-0.108c-0.723,0.155-1.416,0.197-2.077,0.124
						c-0.713-0.062-1.302-0.253-1.767-0.573c-1.457,0.806-2.925,0.826-4.402,0.062c-1.22-0.62-2.196-1.576-2.93-2.868l-0.48-0.093
						c-0.228-0.072-0.383-0.166-0.466-0.279h-0.016c-0.072-0.072-0.134-0.108-0.186-0.108c-0.31-0.207-0.94-0.502-1.892-0.884
						c-0.774-0.31-1.286-0.636-1.534-0.977c-0.104-0.155-0.171-0.367-0.201-0.636c-0.031-0.32-0.016-0.589,0.046-0.806
						c0.062-0.155,0.228-0.367,0.496-0.636c0.269-0.248,0.419-0.476,0.45-0.682c0.03-0.094,0-0.347-0.094-0.76
						c-0.062-0.372-0.052-0.646,0.031-0.822c-0.124-0.32-0.454-0.687-0.992-1.1c-0.785-0.569-1.276-0.931-1.473-1.086
						c-1.219-0.961-1.606-1.953-1.162-2.976c0.062-0.155,0.232-0.466,0.512-0.931c0.227-0.424,0.397-0.77,0.511-1.038
						c0.311-0.816,0.532-1.52,0.667-2.108c0.155-0.796,0.196-1.586,0.124-2.372c-0.083-0.785-0.336-1.823-0.76-3.115
						c-0.465-1.396-0.744-2.439-0.837-3.132c-0.011-0.072-0.011-0.217,0-0.434c0.021-0.228,0.021-0.372,0-0.435
						c-0.093-0.465-0.305-1.013-0.636-1.643c-0.237-0.414-0.558-0.931-0.961-1.55c-0.217-0.342-0.517-0.703-0.899-1.086
						c-0.496-0.496-0.774-0.785-0.837-0.868c-0.558-0.671-0.78-1.57-0.667-2.697c0.083-0.702,0.311-1.302,0.683-1.798
						c0.207-0.279,0.636-0.724,1.287-1.333l2.015-1.782c0.785-0.724,1.349-1.411,1.689-2.062c-4.516-0.92-8.458-2.104-11.828-3.551
						c-0.299-0.134-0.93-0.377-1.891-0.729c-1.654-0.568-3.028-0.956-4.124-1.162c-1.685-0.311-3.142-0.284-4.372,0.077l-1.24,3.302
						c-0.537,1.427-0.981,2.491-1.333,3.193c-1.105,2.315-2.47,3.974-4.092,4.976c0.01,1.064-0.046,2.078-0.17,3.039l-0.418,3.054
						c-0.093,0.857-0.279,2.145-0.558,3.859c-0.228,1.478-0.331,2.733-0.31,3.767c0.021,0.92,0.232,1.727,0.636,2.419
						c0.279,0.476,0.77,1.022,1.472,1.643c0.093,0.072,0.228,0.212,0.403,0.419l0.388,0.388l1.581,0.961
						c0.599,0.382,0.966,0.733,1.101,1.054c0.145,0.32,0.17,0.807,0.078,1.457c-0.093,0.786-0.119,1.318-0.078,1.597
						c0.166,0.455,0.485,0.915,0.961,1.38c0.444,0.424,0.91,0.848,1.395,1.271c1.147,1.085,1.571,2.206,1.271,3.363
						c-0.072,0.352-0.31,0.719-0.713,1.101c0.331,0.672,0.264,1.281-0.201,1.829c-0.3,0.362-0.791,0.719-1.473,1.069
						c-0.248,0.868-0.862,1.38-1.844,1.535c-0.91,0.124-1.747-0.072-2.512-0.589c-0.33,0.083-1.137,0.568-2.418,1.457
						c-0.919,0.63-1.881,0.868-2.883,0.713c-0.631-0.093-1.312-0.521-2.046-1.286c-0.878-0.899-1.571-1.458-2.077-1.675
						c-0.424-0.206-1.06-0.31-1.907-0.31c-0.961,0-1.659-0.042-2.093-0.124l-1.085-1.023c-0.403-0.434-0.62-0.894-0.651-1.38
						c-0.021-0.248,0.031-0.655,0.155-1.225c0.093-0.609,0.134-1.074,0.124-1.395l-0.108-1.768c-0.042-0.62-0.005-1.162,0.108-1.627
						c-0.031-0.6-0.434-1.267-1.209-2c-0.889-0.827-1.4-1.421-1.535-1.782c-0.3-0.786-0.264-1.592,0.108-2.419
						c0.052-0.145,0.45-0.79,1.193-1.938c0-0.072,0.166-0.697,0.496-1.876c0.196-0.765,0.202-1.395,0.016-1.891
						c-0.062-0.155-0.202-0.388-0.418-0.698l-0.527-0.759c-1.136-1.953-1.839-3.597-2.108-4.93c-0.279,0.155-0.62,0.388-1.023,0.697
						l-1.085,0.822c-0.92,0.682-1.524,1.266-1.813,1.751c-0.217,0.393-0.403,0.951-0.558,1.674
						c-0.155,0.848-0.166,1.473-0.031,1.876c0.124,0.311,0.563,0.734,1.317,1.271c0.724,0.506,1.131,0.977,1.225,1.41
						c0.052,0.196,0.046,0.43-0.016,0.698l-0.201,0.898c0.155,0.383,0.708,0.832,1.659,1.349c0.837,0.444,1.281,1.033,1.333,1.768
						c0.031,0.65-0.114,1.038-0.434,1.162c0.072,0.207,0.078,0.476,0.016,0.807l-0.171,0.79c-0.568,0.311-1.209,0.517-1.922,0.62
						c-0.827,0.114-1.617,0.104-2.372-0.03l-1.193,0.729c-0.517,0.269-1.007,0.413-1.473,0.434
						c-0.651,0.021-1.292-0.295-1.922-0.945c-0.806-0.807-1.302-1.246-1.488-1.317c-0.393-0.166-1.101-0.248-2.124-0.248
						c-0.909-0.011-1.529-0.146-1.86-0.403c-0.682-0.486-1.08-1.447-1.194-2.884c-0.104-1.188,0-2.428,0.31-3.72
						c-0.031-0.072-0.372-0.553-1.023-1.442c-0.476-0.65-0.692-1.281-0.651-1.891c0.051-0.465,0.418-1.039,1.101-1.721
						c0.754-0.724,1.214-1.308,1.379-1.752c0.196-0.609,0.264-1.074,0.202-1.395c-0.134-0.827-0.202-1.312-0.202-1.457
						c-0.031-0.517,0.046-1.303,0.232-2.356c0.186-1.116,0.372-1.85,0.558-2.201c0.61-1.209,1.654-2.434,3.131-3.674
						c1.695-1.271,2.878-2.206,3.55-2.806c-0.816-3.266-0.816-7.327,0-12.185c-1.064-0.403-2.098-1.101-3.1-2.093l-2.496-2.774
						c-0.827-0.899-2.252-2.083-4.278-3.55c-0.485-0.351-1.24-0.77-2.263-1.256c-1.137-0.558-1.907-0.961-2.31-1.209
						c-1.809-0.661-4.397-0.878-7.766-0.651c-0.476,0.031-1.064,0.114-1.767,0.248l-1.86,0.325c-0.517,0.073-1.183,0.14-2,0.202
						c-0.796,0.073-1.411,0.15-1.845,0.232c-0.228,0.042-0.351,0.093-0.372,0.155c-0.506,0-0.966,0.021-1.38,0.062
						c-1.229,0.124-2.749,0.243-4.557,0.356l-4.356,0.31c-0.703,0.062-1.689,0.078-2.96,0.046c-1.52-0.042-2.485-0.057-2.899-0.046
						c-0.806,0.042-1.246,0.062-1.318,0.062l-0.465-0.031c-0.166,0-0.274,0.083-0.326,0.248c-0.062-0.207-0.201-0.233-0.418-0.078
						h-0.016c-0.124-0.103-0.202-0.124-0.232-0.062c-0.093,0.01-0.408,0-0.946-0.031c-0.403-0.031-0.708,0.005-0.914,0.109
						c-0.559-0.062-1.747-0.109-3.565-0.14c-1.571-0.042-2.997-0.145-4.279-0.31l-0.046,0.015l-0.139-0.015h-0.062l-0.31,0.031
						l-0.388-0.016l-1.271-0.279c-0.424-0.093-0.775-0.15-1.054-0.17v0.016l-0.046-0.016h-0.14l-0.217-0.062
						c-0.311-0.114-0.672-0.202-1.085-0.264l-1.24-0.186c-0.155-0.072-0.325-0.119-0.511-0.14c-1.933-0.516-5.162-1.482-9.688-2.898
						c-1.157-0.372-2.19-0.832-3.1-1.38c-0.961-0.568-1.643-1.131-2.046-1.689c-0.609-0.847-0.63-1.71-0.062-2.589
						c0.455-0.175,0.822-0.305,1.101-0.388c0.476-0.134,0.76-0.103,0.853,0.093c1.333-0.072,4.263-0.088,8.79-0.046
						c3.751,0.031,6.702-0.098,8.851-0.388l2.713-0.356c1.106-0.155,1.963-0.305,2.573-0.449c0.744-0.166,1.576-0.403,2.496-0.713
						l2.449-0.806c1.064-0.32,2.589-0.894,4.573-1.721c2.057-0.889,3.55-1.519,4.48-1.891c0.672-0.279,1.426-0.62,2.263-1.023
						l2.155-1.085c0.548-0.269,1.225-0.672,2.031-1.209c1.054-0.703,1.71-1.126,1.969-1.271c1.033-0.568,2.33-1.447,3.891-2.635
						c1.757-1.354,3.002-2.263,3.736-2.729c0.496-0.475,1.178-1.08,2.046-1.813c1.085-0.869,1.803-1.473,2.155-1.814
						c0.981-0.899,2.387-2.083,4.216-3.55l4.34-3.503l4.433-3.317c2.574-2.046,5.575-4.252,9.006-6.619l3.395-2.387
						c1.343-0.92,2.579-1.644,3.705-2.17c0.341-0.155,1.152-0.553,2.434-1.194c1.003-0.465,1.907-0.77,2.713-0.915
						c1.881-0.331,3.932-0.434,6.154-0.31c1.943,0.093,3.912,0.341,5.906,0.745c1.126,0.051,3.116,0.186,5.968,0.403
						c2.439,0.155,4.532,0.165,6.278,0.031c2.098-0.155,5.136-0.641,9.115-1.457c3.947-0.796,6.908-1.255,8.882-1.379
						c0.651-0.031,1.385,0.015,2.201,0.139c0.383,0.062,1.126,0.212,2.232,0.45l2.62,0.512c1.013,0.196,1.881,0.408,2.604,0.635
						c0.228,0.072,0.527,0.196,0.899,0.372c0.237,0.104,0.542,0.222,0.914,0.356c2.543,0.796,4.382,1.452,5.519,1.969
						c1.509,0.682,2.936,1.504,4.278,2.465c0.662,0.207,1.386,0.532,2.171,0.977c0.382,0.217,1.038,0.641,1.969,1.271
						c3.068,2.098,4.949,3.369,5.643,3.813c2.098,1.343,4.134,2.465,6.107,3.364c-0.641-1.199-0.739-2.114-0.295-2.744
						c0.176-0.269,0.476-0.434,0.899-0.496l1.069-0.233c0.031-0.196,0.196-0.459,0.496-0.791c0.289-0.341,0.465-0.635,0.527-0.883
						c0.03-0.145,0.01-0.367-0.062-0.667c-0.104-0.434-0.155-0.672-0.155-0.713c-0.093-0.847,0.021-1.509,0.342-1.984
						c0.341-0.506,0.873-0.692,1.597-0.558c0.517-0.661,1.126-1.261,1.829-1.798l-0.016-1.007c0.021-0.393,0.072-0.713,0.154-0.961
						c0.187-0.558,0.496-0.981,0.931-1.271c0.517-0.351,1.054-0.362,1.612-0.031l0.449,0.48c0.259,0.29,0.424,0.444,0.496,0.465
						l0.573-0.279c0.342-0.166,0.538-0.243,0.59-0.232c0.31-0.858,0.547-1.462,0.713-1.814c0.31-0.734,0.697-1.147,1.162-1.24
						c0.435-0.072,0.858,0.042,1.271,0.341c0.641,0.465,1.018,0.713,1.132,0.744l0.604-0.155c0.248-0.062,0.434-0.129,0.558-0.202
						l1.101-1.627c0.485-0.558,1.039-0.883,1.659-0.977c0.113,0.114,0.397,0.455,0.853,1.023c0.341,0.435,0.687,0.667,1.038,0.698
						c0.196-0.062,0.543-0.449,1.039-1.163c0.454-0.609,0.904-0.868,1.349-0.775c0.3,0.041,0.526,0.403,0.682,1.085
						c0.155,0.662,0.408,0.997,0.76,1.007c0.104,0.011,0.48-0.263,1.132-0.821c0.558-0.475,1.054-0.568,1.488-0.279
						c0.196,0.155,0.31,0.439,0.341,0.852c0.031,0.703,0.062,1.101,0.093,1.194c0.031,0.166,0.165,0.424,0.403,0.775
						c0.237,0.361,0.397,0.661,0.48,0.899l0.418,1.488c0.155,0.631,0.306,1.173,0.45,1.628l1.225,3.844
						c0.154,0.424,0.506,1.142,1.054,2.155c0.548,0.961,0.899,1.695,1.054,2.201c0.052,0.165,0.104,0.418,0.155,0.76l0.124,0.775
						c0.176,0.671,0.522,2.108,1.039,4.31c0.393,1.602,0.774,2.919,1.146,3.953c0.982,0.558,1.809,1.333,2.48,2.325
						c1.84,0.124,3.09,0.243,3.751,0.356l0.574,0.186c0.217,0.093,0.413,0.129,0.589,0.109c0.155,0,0.424-0.109,0.806-0.326
						l1.023-0.558c1.075-0.506,2.269-1.126,3.581-1.86l3.457-1.969c0.517-0.3,1.095-0.697,1.735-1.193l2.48-1.783
						c0.403-0.248,0.688-0.444,0.853-0.589c0.237-0.196,0.48-0.439,0.729-0.729l0.729-0.729l0.512-0.325
						c0.259-0.145,0.424-0.253,0.496-0.326c0.031-0.021,0.191-0.207,0.48-0.558c0.187-0.228,0.367-0.352,0.543-0.372
						c0.154,0.248,0.159,0.579,0.016,0.992l-0.45,0.961c-0.31,0.692-0.898,1.524-1.767,2.496c-0.992,1.158-1.617,1.948-1.876,2.372
						l3.224-1.566c1.138-0.558,2.171-1.126,3.101-1.705l1.023-0.604c0.434-0.196,0.79-0.31,1.069-0.341
						C243.843,89.72,243.496,90.309,242.938,90.898z"/>
					<path fill="none" stroke="#373535" stroke-width="1.5" stroke-miterlimit="10" d="M209.021,120.056
						c-0.166,0.052-0.435,0.088-0.807,0.109c-0.476,0-0.765,0.01-0.868,0.031c-0.713,0.083-1.441,0.408-2.186,0.977
						c-0.95,0.713-1.628,1.137-2.03,1.271c0-0.021-0.057-0.031-0.171-0.031l-0.294,0.016l-0.481-0.109"/>
					<path fill="none" stroke="#373535" stroke-width="1.5" stroke-miterlimit="10" d="M197.658,119.653
						c-0.558-0.352-0.914-0.894-1.069-1.628c-0.145-0.671-0.088-1.338,0.171-2c0.475-1.229,1.322-1.875,2.542-1.938"/>
					
						<line fill="none" stroke="#373535" stroke-width="1.5" stroke-miterlimit="10" x1="193.551" y1="115.39" x2="192.171" y2="112.925"/>
					<path fill="none" stroke="#373535" stroke-width="1.5" stroke-miterlimit="10" d="M182.25,117.514
						c0.228-0.61,0.352-0.935,0.372-0.977c0.042-0.114,0.135-0.181,0.279-0.201c1.085,0.919,1.586,1.938,1.504,3.054
						c0,0.062-0.057,0.119-0.171,0.17c-0.021,0.01-0.196,0.031-0.527,0.062c-0.299,0.021-0.449,0.041-0.449,0.062"/>
					<path fill="none" stroke="#373535" stroke-width="1.5" stroke-miterlimit="10" d="M179.631,111.778
						c0.01-0.083,0.087-0.258,0.232-0.527c0.145-0.258,0.242-0.413,0.294-0.465c0.042-0.062,0.155-0.145,0.341-0.248
						c0.249,0.124,0.496,0.403,0.745,0.837l1.302,2.868c0.186,0.63,0.181,1.11-0.016,1.441c-0.093,0.052-0.269,0.036-0.527-0.046
						c-0.237-0.083-0.424-0.15-0.558-0.202c-0.228-0.083-0.352-0.119-0.372-0.108"/>
					<path fill="none" stroke="#373535" stroke-width="1.5" stroke-miterlimit="10" d="M178.53,105.965
						c0.072,0.021,0.196-0.021,0.372-0.124c0.176-0.104,0.283-0.196,0.325-0.279c0.093-0.124,0.201-0.186,0.325-0.186
						c0.393,0.465,0.827,1.633,1.303,3.503c0.145,0.558,0,1.039-0.435,1.441c-0.237,0.031-0.646,0.01-1.225-0.062"/>
					<path fill="none" stroke="#373535" stroke-width="1.5" stroke-miterlimit="10" d="M178.096,100.818
						c0.021-0.031,0.14-0.129,0.356-0.294c0.218-0.166,0.347-0.253,0.388-0.264c0.052-0.021,0.093-0.078,0.124-0.17
						c0.476,0.878,0.791,1.747,0.945,2.604c0.196,1.137,0.031,2.01-0.496,2.62c-0.103-0.01-0.299-0.103-0.589-0.279
						c-0.248-0.145-0.439-0.269-0.573-0.372"/>
					<path fill="none" stroke="#373535" stroke-width="1.5" stroke-miterlimit="10" d="M177.956,95.238
						c0.228-0.083,0.444-0.108,0.651-0.078c0.372,0.124,0.615,0.506,0.729,1.147c0.269,1.726,0.243,2.862-0.077,3.41
						c-0.073,0.052-0.166,0.067-0.279,0.046c-0.279-0.021-0.548-0.083-0.807-0.186"/>
					<path fill="none" stroke="#373535" stroke-width="1.5" stroke-miterlimit="10" d="M178.53,90.293
						c0.465-0.155,0.729-0.279,0.79-0.372c0.104-0.104,0.207-0.15,0.311-0.14c0.33,0.61,0.47,1.375,0.418,2.294
						c-0.041,0.992-0.325,1.633-0.853,1.922c-0.444-0.052-0.713-0.098-0.806-0.139"/>
					<path fill="none" stroke="#373535" stroke-width="1.5" stroke-miterlimit="10" d="M232.894,136.812
						c0-0.062-0.042-0.269-0.124-0.62c-0.094-0.351-0.155-0.547-0.187-0.589l-0.201-0.248h-0.589
						c-0.228-0.289-0.698-0.532-1.411-0.729c-0.796-0.228-1.338-0.444-1.627-0.65l-0.155-0.512c-0.114-0.021-0.264-0.026-0.45-0.016
						c-0.186,0.021-0.351,0.005-0.495-0.047c0.03-0.104,0.01-0.196-0.062-0.279c-0.052-0.082-0.077-0.159-0.077-0.232
						c-0.372-0.03-0.641-0.103-0.807-0.217c-0.134-0.124-0.278-0.366-0.434-0.729l-0.311-0.062
						c-0.145-0.021-0.253-0.073-0.325-0.155c-0.052-0.021-0.077-0.119-0.077-0.295c0-0.154-0.021-0.253-0.062-0.294
						c-0.113-0.062-0.228-0.052-0.341,0.03c-0.124,0.094-0.232,0.109-0.326,0.047c0.062-0.135-0.021-0.243-0.247-0.326
						c-0.196-0.062-0.43-0.077-0.698-0.046c-0.124-0.3-0.217-0.491-0.278-0.573c-0.207,0.041-0.502-0.042-0.884-0.248
						c-0.476-0.3-0.791-0.48-0.946-0.542c-0.082-0.145-0.154-0.336-0.217-0.574c-0.093-0.031-0.17-0.016-0.232,0.046
						s-0.129,0.093-0.201,0.093c-0.135-0.279-0.507-0.45-1.116-0.512h-1.427"/>
					<path fill="none" stroke="#373535" stroke-width="1.5" stroke-miterlimit="10" d="M234.629,124.613
						c0,0.465,0.202,0.94,0.605,1.426c0.248,0.269,0.65,0.641,1.209,1.116c0.217,0.186,0.496,0.496,0.837,0.93
						c0.372,0.424,0.6,0.672,0.682,0.744c0.559,0.465,1.137,0.75,1.736,0.853c0.672,0.114,1.328-0.005,1.969-0.356"/>
					<path fill="none" stroke="#373535" stroke-width="1.5" stroke-miterlimit="10" d="M239.714,118.661l-0.729-0.031
						c-0.444-0.021-0.739-0.057-0.884-0.109c-0.31-0.103-0.573-0.15-0.791-0.139c-0.558,0.052-1.054,0.47-1.487,1.255
						c-0.383,0.724-0.589,1.416-0.62,2.077c-0.031,0.744,0.052,1.473,0.248,2.186c0.237,0.765,0.589,1.364,1.054,1.798
						c0.32,0.29,0.739,0.563,1.256,0.822c0.558,0.269,1.013,0.434,1.364,0.496c0.3,0.052,0.754,0.01,1.364-0.124
						c0.568-0.114,1.085-0.269,1.55-0.465"/>
					<path fill="none" stroke="#373535" stroke-width="1.5" stroke-miterlimit="10" d="M222.073,112.29l-0.264-2.248
						c-0.113-0.93-0.315-1.633-0.604-2.108l-0.418-0.558c-0.155-0.238-0.212-0.517-0.171-0.837c0.796-0.517,2.729-1.845,5.797-3.984
						"/>
					<path fill="none" stroke="#373535" stroke-width="1.5" stroke-miterlimit="10" d="M213.361,103.873
						c0.021,0,0.104,0.155,0.248,0.465c0.176,0.352,0.356,0.61,0.543,0.775c1.881,0.951,3.322,1.503,4.324,1.659
						c0.651,0.093,1.364,0.015,2.14-0.233"/>
					<path fill="none" stroke="#373535" stroke-width="1.5" stroke-miterlimit="10" d="M210.757,104.431
						c-0.062,0.217,0.031,0.584,0.279,1.101"/>
					<path fill="none" stroke="#373535" stroke-width="1.5" stroke-miterlimit="10" d="M211.765,101.687
						c-0.444,0.155-0.609,0.625-0.496,1.41c0.114,0.682,0.331,1.225,0.651,1.628"/>
					<path fill="none" stroke="#373535" stroke-width="1.5" stroke-miterlimit="10" d="M215.625,101.253
						c-0.372,0.175-0.744,0.403-1.116,0.682c-0.3,0.228-0.512,0.419-0.636,0.574c-0.393,0.434-0.563,0.889-0.512,1.364"/>
					<path fill="none" stroke="#373535" stroke-width="1.5" stroke-miterlimit="10" d="M217.299,100.385
						c-0.021,0.114-0.408,0.31-1.163,0.589c-0.278,0.093-0.449,0.186-0.511,0.279c-0.579-0.207-1.194-0.217-1.845-0.031
						c-0.692,0.186-1.147,0.538-1.364,1.054"/>
					<path fill="none" stroke="#373535" stroke-width="1.5" stroke-miterlimit="10" d="M222.213,97.843
						c-0.62,0.423-1.551,0.94-2.79,1.55l-2.124,0.992c-0.568-0.3-1.261-0.45-2.077-0.45c-0.765,0-1.504,0.124-2.217,0.372"/>
					<path fill="none" stroke="#373535" stroke-width="1.5" stroke-miterlimit="10" d="M217.299,97.191
						c-0.124,0-0.377-0.042-0.76-0.124c-0.393-0.093-0.646-0.17-0.759-0.232l-0.59-0.31"/>
					<path fill="none" stroke="#373535" stroke-width="1.5" stroke-miterlimit="10" d="M195.736,71.862
						c-0.062,0.093-0.072,0.171-0.031,0.233c0.052,0.052,0.14,0.078,0.264,0.078c0.259,0.01,0.733,0.01,1.427,0
						c1.209,0.062,2.035-0.14,2.479-0.604c0.124-0.155,0.191-0.274,0.202-0.357c0.021-0.145-0.052-0.289-0.218-0.434"/>
					<path fill="none" stroke="#373535" stroke-width="1.5" stroke-miterlimit="10" d="M190.296,74.188
						c0.413,0.134,0.63,0.201,0.65,0.201c0.238,0.021,0.383,0.026,0.435,0.016c0.082-0.021,0.201-0.067,0.356-0.14
						c0.186-0.093,0.305-0.145,0.356-0.155l0.729-0.108c0.3-0.031,0.543-0.088,0.729-0.17c0.755-0.352,1.193-0.816,1.317-1.396"/>
					<path fill="none" stroke="#373535" stroke-width="1.5" stroke-miterlimit="10" d="M185.506,77.024
						c-0.011,0.228,0.005,0.476,0.046,0.744c0.031,0.228,0.062,0.367,0.093,0.418c0.982-0.31,1.757-0.677,2.326-1.1
						c0.702-0.527,1.162-1.204,1.379-2.031l-0.217-0.356"/>
					<path fill="none" stroke="#373535" stroke-width="1.5" stroke-miterlimit="10" d="M181.956,82.636
						c0.021,0.176,0.113,0.269,0.278,0.279c0.145,0.011,0.274-0.036,0.388-0.139c0.951-0.91,1.447-1.4,1.488-1.473
						c0.279-0.362,0.496-0.739,0.651-1.132c0.134-0.279,0.284-0.729,0.449-1.349c-0.072-0.021-0.201-0.016-0.388,0.016
						c-0.093,0.01-0.289,0.015-0.589,0.015s-0.485-0.01-0.558-0.031"/>
					<path fill="none" stroke="#373535" stroke-width="1.5" stroke-miterlimit="10" d="M197.721,120.289
						c-0.517-0.279-0.936-0.672-1.256-1.178c-0.341-0.548-0.512-1.132-0.512-1.752c-0.206-0.32-0.599-0.656-1.178-1.007
						c-0.579-0.372-0.987-0.692-1.225-0.961c-0.609-0.083-1.152,0.124-1.628,0.62c-0.475,0.641-0.873,1.09-1.193,1.348
						c-0.258,0.217-0.604,0.362-1.038,0.434c-0.496,0.052-0.951,0.124-1.364,0.217c-0.455,0.104-1.075,0.625-1.86,1.565
						c-0.692,0.816-1.328,1.194-1.907,1.132c-0.402-0.042-0.837-0.382-1.302-1.023c-0.104,0.104-0.32,0.155-0.651,0.155
						c-0.372-0.124-0.589-0.455-0.65-0.992c-0.072-0.537,0.025-0.981,0.294-1.333c-0.424-0.496-0.816-1.225-1.178-2.186
						c-1.033,0.093-1.685-0.31-1.953-1.209c-0.248-0.847-0.077-1.627,0.512-2.34c-0.207-0.341-0.352-0.848-0.435-1.519
						c-0.062-0.062-0.512-0.3-1.349-0.713c-0.548-0.279-0.853-0.625-0.914-1.039c-0.062-0.486,0.093-0.971,0.465-1.457
						c0.135-0.166,0.512-0.527,1.132-1.085c-0.166-0.372-0.259-0.806-0.279-1.302c-0.104-0.155-0.388-0.434-0.853-0.837
						c-0.341-0.32-0.543-0.646-0.604-0.977c-0.062-0.414,0.072-0.806,0.402-1.178c0.197-0.217,0.497-0.501,0.899-0.853v-0.666
						c0-0.248,0.026-0.439,0.077-0.574c-0.991-0.32-1.534-1.054-1.627-2.201c-0.072-1.147,0.397-1.86,1.41-2.139
						c0.187-0.476,0.331-0.936,0.435-1.379c-0.414-0.91-0.667-1.597-0.76-2.062c-0.134-0.775,0.165-1.276,0.899-1.503
						c-0.083-0.186-0.083-0.414,0-0.682c0.465-1.054,0.708-1.628,0.729-1.721c0.093,0.196,0.201,0.346,0.325,0.45
						c0.124,0.093,0.232,0.113,0.325,0.062l0.977-1.349c0.29-0.455,0.502-0.945,0.636-1.473c0.021-0.113,0.021-0.279,0-0.496
						c-0.03-0.248-0.03-0.424,0-0.527c-0.052-0.196-0.248-0.243-0.589-0.14"/>
					<path fill="none" stroke="#373535" stroke-width="1.5" stroke-miterlimit="10" d="M204.216,71.133
						c0.176,0.062,0.325,0.135,0.449,0.217l1.085-0.078c0.403-0.031,0.744,0.067,1.023,0.295c0.041,0.051,0.099,0.129,0.171,0.232
						c0.082,0.083,0.181,0.119,0.294,0.108"/>
					<path fill="none" stroke="#373535" stroke-width="1.5" stroke-miterlimit="10" d="M235.56,93.347
						c-0.311,0.32-0.641,0.733-0.992,1.24l-0.651,0.945c-0.981,1.25-2.154,2.506-3.519,3.767c-1.033,0.92-2.361,2.005-3.984,3.255
						l0.14,0.419c0.042,0.093,0.125,0.294,0.248,0.604c0.124,0.362,0.187,0.579,0.187,0.651"/>
					<path fill="none" stroke="#373535" stroke-width="1.5" stroke-miterlimit="10" d="M234.412,121.358
						c-0.062-1.116-0.052-1.917,0.031-2.403c0.124-0.806,0.424-1.385,0.899-1.736"/>
					<path fill="none" stroke="#373535" stroke-width="1.5" stroke-miterlimit="10" d="M211.471,108.585
						c-0.104-0.093-0.3-0.145-0.59-0.155c-0.217-0.01-0.356-0.108-0.418-0.294"/>
					<path fill="none" stroke="#373535" stroke-width="1.5" stroke-miterlimit="10" d="M216.927,107.267
						c-0.435-0.031-0.801-0.031-1.101,0c-0.196,0.031-0.507,0.104-0.93,0.217c1.188,0.29,2.107,0.816,2.759,1.581
						c0.683,0.837,0.992,1.912,0.93,3.224"/>
					<path fill="none" stroke="#373535" stroke-width="1.5" stroke-miterlimit="10" d="M90.808,137.836
						c-0.124-0.403-0.429-1.488-0.915-3.255c-0.599-2.191-0.997-3.633-1.193-4.325c-0.6-2.139-1.132-3.901-1.597-5.286l-0.93-2.868
						c-0.414-1.209-0.754-2.113-1.023-2.712l-0.822-1.458c-0.31-0.558-0.476-1.018-0.496-1.379"/>
					<path fill="none" stroke="#373535" stroke-width="1.5" stroke-miterlimit="10" d="M152.271,158.871
						c-0.124,0.031-0.857,0.305-2.201,0.822c-0.537,0.217-0.92,0.305-1.146,0.263"/>
					<path fill="none" stroke="#373535" stroke-width="1.5" stroke-miterlimit="10" d="M159.603,186.836
						c0.155-0.641,0.408-1.188,0.76-1.644c0.403-0.537,0.878-0.862,1.426-0.977"/>
					<path fill="none" stroke="#373535" stroke-width="1.5" stroke-miterlimit="10" d="M160.021,187.332
						c-0.889-1.023-1.416-1.644-1.581-1.86c-0.455-0.589-0.651-1.132-0.589-1.628"/>
					<path fill="none" stroke="#373535" stroke-width="1.5" stroke-miterlimit="10" d="M142.318,140.657
						c0.775-3.575,1.209-5.514,1.303-5.813c0.3-1.033,0.641-1.901,1.022-2.604"/>
					<path fill="none" stroke="#373535" stroke-width="1.5" stroke-miterlimit="10" d="M140.009,147.835
						c0.517-1.014,0.889-1.752,1.116-2.217c0.393-0.807,0.636-1.416,0.729-1.83c0.145-0.641,0.3-1.684,0.465-3.131"/>
					<path fill="none" stroke="#373535" stroke-width="1.5" stroke-miterlimit="10" d="M117.222,114.6
						c0.393,1.023,0.713,2.501,0.961,4.433c0.104,0.796,0.294,2.201,0.574,4.216c0.248,1.902,0.413,3.472,0.496,4.713
						c0.093,1.54,0.072,3.09-0.062,4.65c-0.093,1.302-0.258,2.795-0.496,4.479c-0.052,0.341-0.15,1.147-0.295,2.418
						c-0.165,1.261-0.367,2.248-0.604,2.961"/>
					<path fill="none" stroke="#373535" stroke-width="1.5" stroke-miterlimit="10" d="M111.13,153.941
						c-0.372,0.207-0.765,0.331-1.178,0.373c-0.176,0.01-0.512,0.005-1.008-0.017c-0.785-0.082-1.829-0.319-3.131-0.713
						c-0.878-0.278-1.405-0.62-1.581-1.022"/>
					<path fill="none" stroke="#373535" stroke-width="1.5" stroke-miterlimit="10" d="M115.47,182.666
						c0.031-0.868,0.114-1.493,0.248-1.876c0.382-0.878,0.61-1.426,0.682-1.643"/>
					<path fill="none" stroke="#373535" stroke-width="1.5" stroke-miterlimit="10" d="M116.493,187.61
						c-0.083,0.052-0.284,0.109-0.604,0.171c-0.32,0.062-0.517,0.083-0.589,0.062l-0.403-0.233c-0.29-0.898-0.45-1.798-0.481-2.696
						c-0.041-1.064,0.093-1.959,0.403-2.682c-0.196-0.321-0.434-0.559-0.713-0.714l-0.868-1.271
						c-0.372-0.527-0.517-0.972-0.434-1.333"/>
					<path fill="none" stroke="#373535" stroke-width="1.5" stroke-miterlimit="10" d="M98.558,150.021
						c-0.217-0.155-0.511-0.466-0.883-0.931c-0.362-0.454-0.615-0.826-0.759-1.116"/>
					<path fill="none" stroke="#373535" stroke-width="1.5" stroke-miterlimit="10" d="M199.658,124.396
						c0.052-0.042,0.264-0.228,0.636-0.558c0.361-0.341,0.708-0.625,1.039-0.853c0.795-0.568,1.369-1.09,1.72-1.565
						c0.672-0.857,0.889-1.751,0.651-2.682c-0.187-0.796-0.666-1.545-1.441-2.248c-0.672-0.238-1.297-0.382-1.876-0.434
						c-0.413-0.042-0.774,0.005-1.085,0.14c-0.32,0.124-0.636,0.367-0.945,0.729c-0.331,0.361-0.502,0.558-0.512,0.589
						c-0.145,0.258-0.207,0.6-0.187,1.023c0.031,0.455,0.021,0.765-0.03,0.93c0.145,0.713,0.19,2.31,0.14,4.79"/>
					<path fill="none" stroke="#373535" stroke-width="1.5" stroke-miterlimit="10" d="M200.387,70.979
						c0.476,0.166,0.972,0.258,1.488,0.279c0.196,0.01,0.537-0.021,1.023-0.093c0.434-0.072,0.749-0.14,0.945-0.201"/>
					<path fill="none" stroke="#373535" stroke-width="1.5" stroke-miterlimit="10" d="M204.883,119.901
						c0.093-1.126-0.202-2.093-0.884-2.899"/>
					<path fill="none" stroke="#373535" stroke-width="1.5" stroke-miterlimit="10" d="M175.414,134.116
						c-0.878,0.754-1.834,1.684-2.867,2.79c-1.189,1.271-2.145,2.429-2.868,3.472c-0.507,0.734-1.819,2.785-3.938,6.154
						c-0.868,1.364-1.803,2.713-2.806,4.046c-0.951,1.24-1.798,2.264-2.542,3.069"/>
					<path fill="none" stroke="#373535" stroke-width="1.5" stroke-miterlimit="10" d="M186.761,176.326
						c0.259-0.807,0.476-1.292,0.651-1.458c0.269-0.247,0.419-0.382,0.449-0.402c0.248-0.187,0.518-0.295,0.807-0.326"/>
					<path fill="none" stroke="#373535" stroke-width="1.5" stroke-miterlimit="10" d="M184.684,179.054
						c0.062-1.426,0.698-2.397,1.907-2.914c-0.537-0.724-0.895-1.276-1.069-1.658c-0.279-0.683-0.311-1.287-0.094-1.813"/>
					<path fill="none" stroke="#373535" stroke-width="1.5" stroke-miterlimit="10" d="M177.522,176.946
						c0.372-0.218,0.966-0.331,1.782-0.342c0.734-0.021,1.385,0.047,1.953,0.202c0.538,0.154,1.049,0.372,1.535,0.651
						c0.548,0.31,0.914,0.625,1.101,0.945"/>
					<path fill="none" stroke="#373535" stroke-width="1.5" stroke-miterlimit="10" d="M174.624,159.956
						c0.01-0.021,0.149-0.232,0.418-0.635c0.248-0.372,0.419-0.651,0.512-0.838c0.259-0.382,0.527-0.641,0.806-0.774"/>
					<path fill="none" stroke="#373535" stroke-width="1.5" stroke-miterlimit="10" d="M161.044,189.224
						c-0.041-0.228-0.175-0.533-0.402-0.915c-0.279-0.435-0.486-0.76-0.62-0.977c-0.837-0.041-1.52,0.294-2.047,1.008
						c-0.206,0.278-0.413,0.641-0.619,1.085c-0.29,0.63-0.486,1.261-0.59,1.891"/>
					<path fill="none" stroke="#373535" stroke-width="1.5" stroke-miterlimit="10" d="M187.614,177.814l-0.527-1.086
						c-0.042-0.072-0.207-0.269-0.496-0.589"/>
					<path fill="none" stroke="#373535" stroke-width="1.5" stroke-miterlimit="10" d="M112.137,188.557
						c-0.733-0.785-1.602-1.359-2.604-1.721c-1.002-0.352-1.948-0.429-2.836-0.232c-0.259,0.062-0.94,0.253-2.046,0.573
						c-1.157,0.341-1.803,0.538-1.938,0.589"/>
					<path fill="none" stroke="#373535" stroke-width="1.5" stroke-miterlimit="10" d="M89.195,178.187
						c-0.124-0.559-0.408-0.972-0.853-1.24c-0.361-0.228-0.904-0.388-1.627-0.48c-0.568-0.072-1.261-0.026-2.077,0.139
						c-0.682,0.146-1.188,0.306-1.519,0.481"/>
					<path fill="none" stroke="#373535" stroke-width="1.5" stroke-miterlimit="10" d="M91.924,172.574
						c-0.228,0.27-0.341,0.605-0.341,1.008c0,0.176,0.031,0.449,0.093,0.821c0.31,0.104,0.63,0.279,0.961,0.527
						c0.331,0.259,0.548,0.435,0.651,0.527c0.186,0.186,0.305,0.366,0.356,0.542"/>
					<path fill="none" stroke="#373535" stroke-width="1.5" stroke-miterlimit="10" d="M90.358,173.458
						c0.125,0.031,0.248,0.129,0.372,0.295c0.062,0.093,0.222,0.228,0.48,0.403c0.249,0.165,0.403,0.247,0.465,0.247"/>
					<path fill="none" stroke="#373535" stroke-width="1.5" stroke-miterlimit="10" d="M90.358,178.295
						c-0.093-0.331-0.155-0.734-0.186-1.209c-0.041-0.559-0.025-0.998,0.047-1.318c0.114-0.496,0.398-1.069,0.853-1.721"/>
					<path fill="none" stroke="#373535" stroke-width="1.5" stroke-miterlimit="10" d="M93.272,160.623
						c-0.114-1.25-0.114-2.578,0-3.983c0.114-1.479,0.325-2.688,0.636-3.628c0.579-1.767,1.581-3.446,3.007-5.038l-2.403-3.611
						c-0.94-1.416-1.695-2.677-2.263-3.783l-0.574-1.456c-0.238-0.579-0.527-1.008-0.868-1.287l-1.178-0.14
						c-0.651-0.093-1.685-0.341-3.1-0.744"/>
					<path fill="none" stroke="#373535" stroke-width="1.5" stroke-miterlimit="10" d="M118.167,184.712
						c-0.289-0.134-0.878-0.573-1.767-1.317c-0.754-0.62-1.281-1.008-1.581-1.162"/>
					<path fill="none" stroke="#373535" stroke-width="1.5" stroke-miterlimit="10" d="M152.922,190.866
						c-0.083-1.157-0.331-2.052-0.744-2.682c-0.435-0.651-1.06-1.06-1.876-1.225c-1.013-0.135-1.746-0.187-2.201-0.155
						c-0.382,0.041-0.827,0.196-1.333,0.465c-0.465,0.238-0.857,0.502-1.178,0.791"/>
					<path fill="none" stroke="#373535" stroke-width="1.5" stroke-miterlimit="10" d="M194.574,72.219
						c0.052,0.031,0.124,0.062,0.217,0.093c0.062,0.041,0.088,0.082,0.077,0.124"/>
					<path fill="none" stroke="#373535" stroke-width="1.5" stroke-miterlimit="10" d="M214.896,107.484
						c-0.279,0.104-0.507,0.207-0.683,0.31c-0.134,0.093-0.243,0.155-0.325,0.186"/>
					<path fill="none" stroke="#373535" stroke-width="1.5" stroke-miterlimit="10" d="M212.493,108.663
						c-0.578,0-0.92-0.026-1.022-0.078"/>
					<path fill="none" stroke="#373535" stroke-width="1.5" stroke-miterlimit="10" d="M218.136,109.81
						c0.083,0.155,0.062,0.351-0.062,0.589c-0.094,0.217-0.331,0.506-0.713,0.868c-0.207,0.176-0.522,0.248-0.946,0.217
						l-1.689-0.248c-0.672-0.125-1.147-0.305-1.426-0.543c-0.259-0.331-0.466-0.609-0.62-0.837
						c-0.228-0.331-0.372-0.733-0.435-1.209"/>
					<path fill="#373535" d="M212.68,109.856c-0.228-0.331-0.372-0.733-0.435-1.209l0.248,0.016
						c0.145,0.671,0.444,1.183,0.899,1.534c0.465,0.352,1.038,0.542,1.721,0.574c-0.476-0.134-0.775-0.491-0.899-1.069
						c-0.113-0.496-0.082-1.065,0.094-1.705c-0.119-0.06-0.238-0.072-0.357-0.039c0.073-0.037,0.161-0.091,0.264-0.163
						c0.176-0.104,0.403-0.207,0.683-0.31c1.188,0.29,2.107,0.816,2.759,1.581c0.176,0.217,0.336,0.465,0.48,0.744
						c0.083,0.155,0.062,0.351-0.062,0.589c-0.094,0.217-0.331,0.506-0.713,0.868c-0.207,0.176-0.522,0.248-0.946,0.217
						l-1.689-0.248c-0.672-0.125-1.147-0.305-1.426-0.543C213.041,110.362,212.834,110.083,212.68,109.856z"/>
					<path fill="none" stroke="#373535" stroke-width="1.5" stroke-miterlimit="10" d="M213.408,108.244
						c-0.413,0.321-0.719,0.46-0.915,0.419c0.145,0.671,0.444,1.183,0.899,1.534c0.465,0.352,1.038,0.542,1.721,0.574
						c-0.476-0.134-0.775-0.491-0.899-1.069c-0.113-0.496-0.082-1.065,0.094-1.705c-0.146-0.072-0.29-0.078-0.435-0.016
						l-0.217,0.093l-0.016,0.016C213.589,108.11,213.512,108.161,213.408,108.244z"/>
				</g>
			</g>
		</g>
	</g>
</g>
</svg>
