<?xml version="1.0" encoding="utf-8"?>
<!-- Generator: Adobe Illustrator 17.0.1, SVG Export Plug-In . SVG Version: 6.00 Build 0)  -->
<!DOCTYPE svg PUBLIC "-//W3C//DTD SVG 1.1//EN" "http://www.w3.org/Graphics/SVG/1.1/DTD/svg11.dtd">
<svg version="1.1" id="Layer_1" xmlns="http://www.w3.org/2000/svg" xmlns:xlink="http://www.w3.org/1999/xlink" x="0px" y="0px"
	 width="240.188px" height="157.553px" viewBox="7.273 50.773 240.188 157.553"
	 enable-background="new 7.273 50.773 240.188 157.553" xml:space="preserve">
<g id="Layer_3">
	<path fill="#FFFFFF" d="M160.981,97.546c-2.835,1.838-5.846,3.59-8.994,4.992c-0.084-0.004-0.162-0.02-0.253-0.002
		c-4.308,0.814-8.574,1.807-12.829,2.848c1.549-3.324-1.629-7.52-5.424-5.338c-1.025,0.589-1.968,1.263-2.863,1.984
		c-0.799-1.304-2.27-2.087-4.182-1.387c-4.693,1.718-9.432,3.257-13.956,5.403c-3.696,1.754-1.773,7.488,2.019,7.454
		c2.182-0.019,4.604-0.085,7.074-0.307c0.417,1.715,1.991,3.206,3.926,3.307c8.061,0.422,16.436-0.479,23.551-4.487
		c5.66-1.636,10.993-4.333,15.968-7.559C169.329,101.659,165.324,94.73,160.981,97.546z"/>
	<path fill="#FFFFFF" d="M60.437,124.643c-6.834,1.783-12.101,6.423-19.437,5.857c-5.147-0.397-5.109,7.605,0,8
		c3.766,0.291,7.329-0.154,10.82-1.618c3.631-1.521,6.899-3.521,10.743-4.524C67.552,131.056,65.434,123.339,60.437,124.643z"/>
</g>
<g id="Layer_1_2_">
	<g>
		<g id="Layer_1_1_">
			<g>
				<g id="Layer_1_3_">
					<g>
						<path fill="#FFFFFF" stroke="#000000" stroke-width="1.5" stroke-miterlimit="10" d="M40.271,138.989
							c-1.25,0.945-2.839,2.454-4.77,4.526c-2.103,2.245-3.998,4.516-5.684,6.812c-0.823,1.107-1.564,2.133-2.225,3.078l-2.164,2.94
							l-1.188,1.372c-0.376,0.386-0.741,0.681-1.097,0.884c-0.295,0.172-0.508,0.248-0.64,0.229c-1.92,0.02-3.677,0.848-5.272,2.483
							c-1.514,1.555-2.905,3.865-4.175,6.934c-2.113,5.09-3.169,10.072-3.169,14.948c0,1.382,0.67,2.799,2.012,4.252
							c0.752,0.843,1.833,1.737,3.246,2.682c1.483,1.036,2.956,1.849,4.419,2.438l0.168,0.046l0.061,0.03
							c2.113,0.792,4.2,1.188,6.263,1.188c0.63,0,1.351-0.106,2.164-0.32c0.082-0.01,0.158-0.035,0.229-0.076l0.016-0.015
							c1.077-0.274,2.651-0.803,4.724-1.585l2.728-1.052l0.031-0.016l0.808-0.319l0.122-0.062c0.082-0.051,0.265-0.132,0.549-0.243
							c0.812-0.346,1.407-0.646,1.783-0.899c1.097-0.752,1.951-1.691,2.56-2.819c0.599-1.138,0.93-2.402,0.991-3.794v-0.122
							l-0.351-4.114c-0.041-0.376-0.102-1.158-0.183-2.347v-0.137c-0.03-0.457,0.224-1.016,0.762-1.677
							c0.599-0.741,1.473-1.498,2.621-2.271c2.113-1.401,3.647-2.433,4.602-3.093c1.097-0.763,1.748-1.239,1.951-1.433
							c5.526-5.74,9.133-9.783,10.819-12.13c5.476,1.646,11.749,3.164,18.819,4.557l3.901,3.824
							c0.376,1.951,1.295,4.013,2.758,6.188c0.244,0.396,0.614,0.889,1.112,1.478c0.539,0.691,1.239,1.514,2.103,2.469
							c1.626,1.747,3.129,3.119,4.511,4.114c1.443,1.036,2.809,1.707,4.099,2.012l0.015,0.746c0,2.662-0.274,6.491-0.823,11.49
							c-0.051,0.711-0.076,1.503-0.076,2.377c0,4.246,0.792,7.431,2.377,9.555c0.305,0.345,0.731,0.624,1.28,0.838
							c0.274,0.102,0.935,0.289,1.981,0.563c1.564,0.355,3.805,0.711,6.72,1.066c2.692,0.346,5.323,0.615,7.893,0.808h0.076
							c1.788,0.122,3.647,0.184,5.577,0.184c1.26,0,2.362-0.062,3.307-0.184h0.045l0.03-0.015c1.961-0.244,3.667-0.641,5.121-1.188
							c0.944-0.355,1.788-0.768,2.529-1.234l0.259-0.168c1.006-0.701,1.778-1.555,2.316-2.56c0.538-1.006,0.803-2.104,0.792-3.292
							c0-1.3-0.294-2.829-0.884-4.587l-0.03-0.091c-0.396-1.147-1.006-2.596-1.828-4.343c-0.305-0.528-1.488-1.986-3.551-4.374
							c-1.128-1.27-1.691-3.083-1.691-5.439v-0.335c0-2.611-0.482-5.039-1.448-7.284l-0.152-0.305
							c-0.041-0.112-0.097-0.214-0.167-0.305c-0.396-0.844-0.94-1.732-1.631-2.667c-0.345-0.457-0.675-0.863-0.99-1.219
							l-0.122-0.122c-0.975-1.046-2.301-2.281-3.977-3.703c8.889-0.427,17.275-2.052,25.159-4.876l0.487,0.441
							c1.615,1.544,3.189,2.52,4.724,2.926v0.945c0,2.793-0.244,6.567-0.731,11.322c-0.061,0.883-0.092,1.711-0.092,2.483
							c0.021,4.175,0.752,7.31,2.195,9.402c0.284,0.355,0.675,0.64,1.173,0.853c0.284,0.122,0.884,0.311,1.798,0.564
							c1.514,0.376,3.546,0.736,6.096,1.082c2.438,0.345,4.815,0.614,7.131,0.808h0.046c1.626,0.121,3.322,0.183,5.09,0.183
							c1.107,0,2.088-0.062,2.94-0.183l0.092-0.016c1.809-0.244,3.378-0.646,4.709-1.204c0.812-0.335,1.579-0.757,2.301-1.265
							l0.198-0.137c0.924-0.722,1.625-1.58,2.103-2.575c0.487-0.996,0.727-2.083,0.717-3.262c0-1.229-0.26-2.748-0.777-4.556v-0.046
							l-0.031-0.061c-0.284-0.925-0.833-2.367-1.646-4.328c-0.142-0.305-0.478-0.808-1.006-1.509
							c-0.314-0.437-1.041-1.387-2.179-2.85c-1.026-1.311-1.539-3.139-1.539-5.485c0-2.631-0.386-4.993-1.158-7.086l-0.03-0.061
							l-0.016-0.092c-0.508-1.32-1.127-2.529-1.858-3.627c-0.152-0.183-0.463-0.451-0.93-0.808c-1.301-0.924-3.744-2.55-7.33-4.876
							c0.772-0.681,1.539-1.412,2.301-2.194c0.407-0.091,1.103-0.279,2.088-0.563l0.062-0.03l5.485-1.92l0.061-0.031l0.382-0.152
							c0.883-0.314,4.235-1.839,10.057-4.571c6.562-3.088,14.385-8.787,23.467-17.097l2.148-1.752l0.076-0.076l7.132-2.56h0.518
							l0.076-0.015c0.041,0.02,0.077,0.02,0.107,0h0.046c0.081,0.02,0.157,0.02,0.229,0c0.111,0.02,0.223,0.02,0.335,0l8.396-1.584
							l0.563-0.214c5.729-2.448,9.458-7.33,11.185-14.644c0.295-1.402,0.508-2.535,0.641-3.398c0.03-0.335,0.051-0.543,0.061-0.625
							l0.03-0.122c0.214-2.001,0.346-4.256,0.396-6.766c0-3.251-0.224-5.979-0.671-8.183l-0.03-0.091
							c-0.021-0.122-0.035-0.188-0.046-0.198l-0.914-3.062l-0.015-0.031c0-0.051-0.031-0.127-0.092-0.229
							c-0.365-0.945-0.909-1.839-1.631-2.682c-0.132-0.152-0.264-0.299-0.396-0.442c-0.62-0.609-1.474-1.147-2.561-1.615
							c0.081-0.782,0.122-1.493,0.122-2.133v-1.051c0-0.691-0.081-1.316-0.244-1.874l-0.015-0.153l-0.427-1.554
							c-0.224-0.579-0.493-1.194-0.808-1.844l-0.076-0.183c-1.615-3.16-3.592-4.739-5.928-4.739c-1.656,0-3.388,0.681-5.196,2.042
							c-1.696,1.331-2.986,3.932-3.87,7.802h-3.216c-1.839-4.175-3.713-6.842-5.623-8c-1.858-1.168-3.702-1.752-5.531-1.752
							c-3.546,0-6.293,0.899-8.244,2.697c-1.96,1.798-3.083,4.465-3.367,8l-0.016,0.335c0,0.305,0.036,0.594,0.106,0.868
							c-4.814,2.225-7.954,5.887-9.417,10.987c-0.243,0.955-0.441,1.834-0.594,2.637c-0.03,0.041-0.057,0.111-0.076,0.213
							c-0.285,1.382-0.584,3.068-0.899,5.059c-0.071,0.589-0.854,1.895-2.347,3.917c-1.382,1.869-2.967,3.814-4.754,5.836"/>
						<path fill="#FFFFFF" stroke="#000000" stroke-width="1.5" stroke-miterlimit="10" d="M174.885,86.555
							c-0.488-1.758-0.763-2.712-0.823-2.865c-2.235-5.881-5.612-10.509-10.133-13.881c-4.623-3.444-9.661-5.877-15.117-7.299
							c-2.905-3.068-6.496-5.232-10.773-6.492l-9.34-1.402h-0.061c-0.254-0.02-0.63-0.03-1.127-0.03l-1.006,0.015
							c-0.386-0.112-0.965-0.249-1.737-0.412c-5.455-1.28-11.998-2.143-19.627-2.59c-0.945-0.051-1.788-0.076-2.529-0.076
							l-1.768,0.03c-0.173,0-0.331,0.016-0.473,0.046c-3.688,0.193-7.4,0.854-11.139,1.981c-3.474,1.118-6.71,2.474-9.707,4.069
							c-5.019,0.569-9.529,2.001-13.532,4.297c-4.002,2.286-7.451,5.399-10.347,9.341L54.93,71.47
							c-0.305,0.092-0.661,0.264-1.067,0.518c-0.224,0.132-0.751,0.483-1.585,1.051c-1.056,0.742-2.844,2.058-5.364,3.947
							c-3.444,2.601-6.248,6.979-8.411,13.135v0.031l-0.077,0.259c-0.711,2.113-1.3,4.195-1.768,6.248
							c-0.041,0.091-0.076,0.203-0.106,0.335l-3.474,15.772l-0.015,0.122v0.091h-0.016c-0.031,0.803-0.193,1.671-0.488,2.606
							l-0.472,1.204l-0.045,0.092l-0.351,0.914l-0.046,0.167c-0.467,1.341-0.792,3.033-0.975,5.074
							c-0.041,0.244-0.061,0.543-0.061,0.899c0,0.508,0.051,1.057,0.152,1.646v0.015c-1.829,0.376-3.464,0.808-4.907,1.295
							c-2.52,0.812-4.668,1.722-6.446,2.728c-0.894,0.488-1.691,1.021-2.393,1.6c-0.183,0.112-0.335,0.234-0.457,0.366
							c-0.843,0.66-1.478,1.031-1.905,1.112h-0.198c-0.478,0-1.026-0.092-1.646-0.274c-0.64-0.244-1.239-0.497-1.798-0.762
							c-0.458-0.183-1.001-0.462-1.63-0.838c-0.122-0.061-0.224-0.097-0.305-0.107l-0.03-0.015H9.032
							c-0.082-0.01-0.168-0.01-0.259,0H8.758l-0.015,0.015H8.728c-0.346,0.071-0.569,0.274-0.671,0.61v0.015
							c-0.03,0.122-0.041,0.229-0.03,0.32c0.061,1.087,0.493,2.397,1.295,3.932c0.163,0.325,0.407,0.741,0.732,1.249
							c0.894,1.239,1.752,2.047,2.575,2.423c0.762,0.346,1.727,0.519,2.895,0.519c1.676,0,3.718-0.355,6.126-1.066l0.381-0.138
							c2.367-0.69,5.806-1.163,10.316-1.417c1.777-0.102,3.22-0.168,4.328-0.198"/>
						<path fill="none" stroke="#000000" stroke-width="1.5" stroke-miterlimit="10" d="M123.075,169.938
							c-1.89-0.487-3.51-0.731-4.861-0.731c-0.579,0-1.107,0.046-1.585,0.137c-1.27,0.224-2.387,0.758-3.353,1.601
							c-0.945,0.833-1.687,1.925-2.225,3.276l-0.046,0.137c-0.203,0.457-0.178,0.808,0.077,1.052
							c0.183,0.173,0.417,0.259,0.701,0.259h0.442c0.122,0,0.229-0.021,0.32-0.061c0.082,0,0.183-0.025,0.305-0.076
							c1.534-0.458,4.907-1.291,10.118-2.499l0.076-0.016c0.935,0.01,1.686,0.116,2.255,0.32c0.488,0.183,0.803,0.427,0.945,0.731
							c0.102,0.152,0.152,0.391,0.152,0.716c0.021,0.305-0.102,0.782-0.366,1.433c-0.162,0.355-0.31,0.594-0.442,0.716l-0.061,0.046
							c-0.183-0.081-0.437-0.284-0.762-0.609l-0.838-0.884c-0.234-0.233-0.519-0.31-0.854-0.229c-0.62,0.203-1.046,0.34-1.28,0.411
							c-0.112,0-0.249,0.041-0.412,0.122l-0.152,0.046c-0.061,0.021-0.147,0.056-0.259,0.106l-0.457,0.106
							c-1.168,0.325-2.006,0.564-2.514,0.717c-0.823,0.243-1.499,0.416-2.027,0.518l-0.945,0.168
							c-0.924,0.213-1.732,0.345-2.423,0.396l-0.716,0.046"/>
						<path fill="none" stroke="#000000" stroke-width="1.5" stroke-miterlimit="10" d="M150.26,126.814
							c1.016-2.479,1.955-4.526,2.819-6.141l0.076-0.106c0.873-1.666,1.646-2.865,2.315-3.596c0.59-0.64,1.179-1.148,1.768-1.524
							l0.107-0.091c1.604-1.036,3.601-1.763,5.988-2.179"/>
						<path fill="none" stroke="#000000" stroke-width="1.5" stroke-miterlimit="10" d="M44.613,162.319
							c-0.782-0.559-1.849-0.965-3.2-1.219c-1.646-0.335-3.591-0.503-5.836-0.503c-0.132,0-0.269,0.035-0.412,0.106
							c-1.483,0.823-2.677,1.234-3.581,1.234c-0.274,0-0.498,0.102-0.67,0.305c-0.183,0.224-0.249,0.468-0.198,0.731
							c0.132,0.782,0.452,1.473,0.96,2.072c0.498,0.589,1.138,1.047,1.92,1.371c0.091,0.051,0.203,0.076,0.335,0.076"/>
						<path fill="none" stroke="#000000" stroke-width="1.5" stroke-miterlimit="10" d="M28.72,167.135l0.534,0.229l10.971,2.956
							l0.229,0.03c0.6-0.01,1.214-0.192,1.844-0.548c0.549-0.315,1.173-0.803,1.875-1.464c0.731-0.721,1.214-1.239,1.447-1.554
							c0.366-0.498,0.564-1.006,0.595-1.523v-0.396"/>
						<path fill="#373535" stroke="#000000" stroke-width="1.5" stroke-miterlimit="10" d="M235.029,75.766l0.062,0.107v0.015
							l0.015,0.046l0.031,0.046l0.015,0.061c0.041-0.183,0.112-0.437,0.214-0.762c0.355-0.985,0.929-1.493,1.722-1.523
							c0.447,0.03,0.812,0.203,1.097,0.518c0.224,0.234,0.422,0.574,0.595,1.021c0.264,0.813,0.396,1.671,0.396,2.576
							c0,0.142-0.031,0.274-0.092,0.396c0.051,0.111,0.066,0.223,0.046,0.335c-0.051,0.69-0.168,1.295-0.351,1.813
							c-0.335,0.996-0.884,1.524-1.646,1.585c-0.224,0-0.412-0.036-0.563-0.107c-0.163-0.091-0.295-0.163-0.396-0.213
							c-0.366-0.275-0.63-0.681-0.793-1.219l-0.106-0.305c-0.051,0.142-0.132,0.305-0.244,0.487
							c-0.183,0.376-0.427,0.686-0.731,0.93c-0.324,0.254-0.681,0.396-1.066,0.427l-0.183-0.015
							c-0.742-0.071-1.315-0.508-1.722-1.311c-0.355-0.579-0.533-1.295-0.533-2.148l-0.031-0.609c0-0.132,0.016-0.269,0.046-0.411
							c-0.021-0.112,0-0.234,0.062-0.366c0.061-0.457,0.197-0.894,0.411-1.311c0.081-0.213,0.193-0.381,0.335-0.502
							c0.173-0.264,0.392-0.473,0.655-0.625c0.284-0.163,0.579-0.239,0.884-0.229c0.396-0.01,0.772,0.117,1.128,0.381
							C234.598,75.086,234.847,75.391,235.029,75.766z"/>
						<path fill="none" stroke="#000000" stroke-width="1.5" stroke-miterlimit="10" d="M140.294,97.451
							c-0.487-1.504-1.433-3.688-2.834-6.553c-1.311-2.692-2.85-5.628-4.617-8.808c-1.311-2.357-2.855-4.708-4.633-7.056
							c-1.544-2.021-2.921-3.611-4.129-4.769"/>
						<path fill="none" stroke="#000000" stroke-width="1.5" stroke-miterlimit="10" d="M105.688,68.132
							c-0.315,0.041-0.609,0.117-0.884,0.229c-0.325,0.142-0.61,0.259-0.854,0.351c-1.707,0.731-3.723,2.133-6.049,4.206
							c-0.783,0.721-1.382,1.3-1.798,1.737l-0.64,0.594c-1.016,1.026-2.789,3.042-5.318,6.049l-0.122,0.122l-0.061,0.045
							l-2.133,2.53l-0.29-0.274c-0.102-0.091-0.213-0.178-0.335-0.259c-0.112-0.061-0.178-0.101-0.198-0.122l-1.356-1.067
							c-0.122-0.081-0.234-0.137-0.335-0.167l-0.167-0.152c-2.753-2.001-4.856-3.464-6.309-4.389
							c-0.854-0.518-1.326-0.802-1.417-0.853c-0.437-0.244-0.802-0.422-1.097-0.534c-0.589-0.142-1.224-0.172-1.905-0.091"/>
						<path fill="none" stroke="#000000" stroke-width="1.5" stroke-miterlimit="10" d="M148.812,62.509
							c-0.375-0.102-0.884-0.208-1.523-0.32c-0.741-0.112-1.311-0.203-1.707-0.274l-4.327-0.686c-1.504-0.162-3.094-0.269-4.77-0.32
							h-0.838c-0.163,0-0.3,0.02-0.411,0.061c-0.468,0.041-0.991,0.198-1.57,0.472c-1.128-0.741-2.382-1.503-3.764-2.286
							c-2.743-1.544-4.932-2.52-6.568-2.926"/>
						<path fill="none" stroke="#000000" stroke-width="1.5" stroke-miterlimit="10" d="M133.665,61.442
							c-0.406,0.152-0.736,0.32-0.99,0.503c-0.274,0.224-0.498,0.401-0.671,0.534c-0.497,0.335-1.087,0.802-1.768,1.401
							l-4.282,4.282c-0.081,0.091-0.147,0.188-0.198,0.29l-0.229,0.183c-0.467,0.498-0.95,1.042-1.447,1.631
							c-0.864-0.6-1.682-0.915-2.454-0.945c-1.676-0.274-3.012-0.422-4.007-0.442c-1.778-0.274-2.977-0.422-3.597-0.442
							c-3.84-0.295-6.212-0.442-7.116-0.442c-0.396,0-0.803,0.045-1.219,0.137c-0.193-2.875-0.315-4.464-0.366-4.77
							c-0.305-1.574-0.991-2.783-2.057-3.626"/>
						<path fill="none" stroke="#000000" stroke-width="1.5" stroke-miterlimit="10" d="M126.503,54.601
							c-0.417,0.01-0.965,0.183-1.646,0.518c-0.67,0.366-1.066,0.579-1.188,0.64c-0.152,0.102-0.264,0.259-0.335,0.472
							c-3.961,0.528-7.182,0.996-9.661,1.402l-4.831,0.854c-2.205,0.376-3.987,0.767-5.349,1.173
							c-0.102,0.03-0.178,0.056-0.229,0.076c-1.148-0.681-2.89-1.031-5.227-1.051h-0.061c-4.054,0.294-6.619,0.442-7.695,0.442
							l-0.244,0.045c-1.91,0.579-3.23,0.858-3.962,0.838c-0.172,0-0.34,0.056-0.502,0.167c-0.478-0.213-1.524-0.65-3.139-1.311
							c-1.585-0.65-2.555-1.056-2.911-1.219"/>
						<path fill="none" stroke="#000000" stroke-width="1.5" stroke-miterlimit="10" d="M85.574,60.178
							c-0.214,0.061-0.432,0.234-0.655,0.518c-0.264,0.366-0.478,0.645-0.64,0.838c-2.692,3.18-4.439,5.267-5.242,6.263
							l-0.091,0.106l-0.762,1.037l-3.657,6.842l-0.076,0.244l-0.031,0.061l-0.106,0.031l-7.817,0.914l-3.307,0.823l-0.091,0.03
							l-0.808,0.351c-1.168-1.523-2.108-2.687-2.819-3.489c-1.229-1.433-2.504-2.585-3.825-3.459"/>
						<path fill="none" stroke="#000000" stroke-width="1.5" stroke-miterlimit="10" d="M30.762,125.595
							c0.142,0.854,0.279,1.427,0.412,1.722c0.021,0.081,0.467,0.914,1.341,2.499c0.863,1.574,1.361,2.458,1.493,2.651
							c0.224,0.314,0.706,1.098,1.448,2.347c0.701,1.188,1.107,1.904,1.219,2.148"/>
						<path fill="none" stroke="#000000" stroke-width="1.5" stroke-miterlimit="10" d="M39.707,122.898
							c-0.406,0.63-0.817,1.331-1.234,2.103c-0.762,1.3-1.219,2.281-1.372,2.941c-0.041,0.234-0.086,0.747-0.137,1.539
							c-0.041,0.417-0.061,1.189-0.061,2.316c0,0.539,0.082,2.393,0.244,5.562"/>
						<path fill="none" stroke="#000000" stroke-width="1.5" stroke-miterlimit="10" d="M56.499,130.959
							c-0.518,1.047-0.828,2.053-0.93,3.018v1.768c-0.03,0.619-0.045,1.89-0.045,3.81c0,4.195,0.021,6.501,0.061,6.918"/>
						<path fill="none" stroke="#000000" stroke-width="1.5" stroke-miterlimit="10" d="M82.099,134.86
							c-0.061,1.219-0.091,2.128-0.091,2.728l-0.015,0.533c0,0.295,0.021,0.696,0.061,1.204c0.183,3.86,1.168,7.004,2.956,9.433
							l1.569,1.92"/>
						<path fill="none" stroke="#000000" stroke-width="1.5" stroke-miterlimit="10" d="M112.103,128.003
							c0.305,0.589,1.057,2.022,2.255,4.297l0.579,1.006l1.966,4.724c0.112,0.285,0.244,0.772,0.396,1.463
							c0.559,2.378,0.935,4.033,1.127,4.968"/>
						<path fill="none" stroke="#000000" stroke-width="1.5" stroke-miterlimit="10" d="M130.77,112.14
							c1.036,0.742,2.006,1.6,2.911,2.575c0.568,0.62,1.057,1.25,1.463,1.89l1.433,2.285l0.076,0.168
							c0.061,0.142,0.137,0.279,0.229,0.412l0.457,1.005c0.305,0.61,0.563,1.204,0.777,1.783c0.254,0.67,0.533,1.798,0.838,3.383
							c0.264,1.381,0.441,2.494,0.533,3.337"/>
						<path fill="none" stroke="#000000" stroke-width="1.5" stroke-miterlimit="10" d="M171.182,88.277
							c0.335,0.173,0.736,0.503,1.204,0.991c1.016,1.046,2.006,2.641,2.971,4.785l2.21,5.089l0.076,0.107h-0.016l0.229,0.472
							l0.03,0.122"/>
						<path fill="none" stroke="#000000" stroke-width="1.5" stroke-miterlimit="10" d="M161.201,108.392l0.883-0.488l0.016-0.015
							c0.092-0.03,0.173-0.071,0.244-0.122c0.803-0.457,1.722-0.919,2.758-1.387l0.701-0.35l10.088-3.49l-0.32,0.381
							c-2.235,2.804-4.749,5.298-7.543,7.482c-2.093-1.178-3.316-1.829-3.672-1.951l-0.077-0.015
							c-0.273-0.071-0.935-0.111-1.98-0.122h-0.183C161.709,108.335,161.404,108.361,161.201,108.392z"/>
						<path fill="none" stroke="#000000" stroke-width="1.5" stroke-miterlimit="10" d="M160.774,145.283
							c0.051,0,0.97,0.03,2.758,0.092c1.544,0.051,2.479,0.061,2.804,0.03c0.396-0.041,1.26-0.163,2.591-0.366
							c0.183-0.03,1.595-0.351,4.235-0.96"/>
						<path fill="none" stroke="#000000" stroke-width="1.5" stroke-miterlimit="10" d="M36.674,136.963
							c0.193,0.325,1.437,1.026,3.733,2.104c1.189,0.548,2.555,1.173,4.1,1.874c0.67,0.335,2.59,1.325,5.76,2.972
							c3.027,1.544,4.958,2.458,5.791,2.742l0.137,0.062l0.137,0.03l0.412,0.167l0.061,0.031c0.274,0.102,0.655,0.224,1.143,0.365
							l24.076,3.23l2.956,0.092c0.752,0.03,1.92,0.061,3.505,0.091l7.833-0.045c1.615-0.011,5.562-0.641,11.84-1.89
							c3.139-0.63,6.116-1.26,8.93-1.89l0.198-0.062l1.92-0.776"/>
						<path fill="none" stroke="#000000" stroke-width="1.5" stroke-miterlimit="10" d="M13.238,188.712
							c0.03-0.081,0.137-0.589,0.32-1.524c0.183-0.903,0.305-1.416,0.365-1.538c0.396-0.752,0.884-1.321,1.463-1.707
							c0.589-0.386,1.331-0.62,2.225-0.701c0.081,0.305,0.162,0.691,0.244,1.158l0.122,0.503l0.64,3.855
							c0.021,0.152,0.076,0.736,0.168,1.752c0.081,1.006,0.137,1.601,0.167,1.783"/>
						<path fill="none" stroke="#000000" stroke-width="1.5" stroke-miterlimit="10" d="M20.842,192.994
							c0.01-0.356,0.046-0.971,0.106-1.844c0.071-0.925,0.127-1.514,0.167-1.768c0.254-1.94,0.762-3.586,1.524-4.938
							c0.762-1.331,1.793-2.413,3.093-3.246c0.843,0.904,1.336,2.245,1.478,4.023c0.031,0.396,0.046,0.858,0.046,1.387
							c-0.02,0.803-0.005,2.093,0.046,3.87c0.051,1.768,0.071,2.839,0.061,3.216"/>
						<path fill="none" stroke="#000000" stroke-width="1.5" stroke-miterlimit="10" d="M29.085,193.253
							c0.386-3.21,0.706-5.217,0.96-6.02c0.061-0.233,0.213-0.67,0.457-1.311l0.016-0.03l0.03-0.046
							c0.478-1.138,0.955-1.96,1.433-2.468c0.386-0.396,0.772-0.604,1.158-0.625c0.203,0.021,0.36,0.061,0.472,0.122
							c0.112,0.061,0.239,0.188,0.381,0.381c0.315,0.457,0.518,1.219,0.609,2.285c0.102,0.722,0.153,1.737,0.153,3.048l0.045,2.621"
							/>
						<path fill="none" stroke="#000000" stroke-width="1.5" stroke-miterlimit="10" d="M121.307,207.485
							c-0.335-0.498-0.833-1.346-1.493-2.545c-0.722-1.29-1.255-2.321-1.6-3.093c-0.589-1.209-0.955-2.129-1.097-2.759l-0.015-0.076
							c-0.011,0-0.011-0.025,0-0.076c-0.011-0.01,0.01-0.127,0.061-0.351c0.132-0.437,0.467-0.924,1.006-1.463
							c0.345-0.376,0.686-0.66,1.021-0.853c0.264-0.163,0.452-0.234,0.564-0.214c0.854-0.021,1.722,0.351,2.605,1.112
							c0.965,0.823,1.89,2.053,2.773,3.688c0.163,0.285,0.462,0.884,0.899,1.799c0.234,0.527,0.869,2.133,1.905,4.815"/>
						<path fill="none" stroke="#000000" stroke-width="1.5" stroke-miterlimit="10" d="M129.764,207.227
							c-1.057-2.733-1.752-4.476-2.087-5.227c-0.559-1.88-0.838-3.419-0.838-4.617c-0.01-0.823,0.025-1.534,0.107-2.134
							c0.071-0.518,0.152-0.848,0.244-0.99c0.132-0.274,0.533-0.417,1.204-0.427l0.091,0.03c0.082,0.03,0.173,0.081,0.275,0.152
							c0.386,0.265,0.878,0.798,1.478,1.6c0.65,0.874,1.342,1.951,2.073,3.231c0.142,0.467,0.324,0.96,0.548,1.478
							c0.173,0.427,0.563,1.204,1.174,2.332c0.559,1.016,1.076,1.925,1.554,2.728"/>
						<path fill="none" stroke="#000000" stroke-width="1.5" stroke-miterlimit="10" d="M137.17,204.347
							c-1.3-2.642-2.271-4.531-2.91-5.669c-0.102-0.214-0.203-0.401-0.305-0.563c-0.305-1.077-0.458-2.134-0.458-3.17
							c-0.02-0.406,0.204-0.879,0.671-1.417c0.284-0.285,0.519-0.463,0.701-0.533c0.386,0.284,1.163,0.979,2.331,2.087
							c0.143,0.173,0.59,0.727,1.341,1.661c0.6,0.741,0.971,1.188,1.113,1.341"/>
						<path fill="none" stroke="#000000" stroke-width="1.5" stroke-miterlimit="10" d="M172.492,190.19
							c-0.244-0.417-0.646-1.255-1.204-2.515c-0.518-1.158-0.949-2.185-1.295-3.078c-0.325-0.762-0.584-1.442-0.777-2.042
							c-0.173-0.519-0.249-0.817-0.229-0.899v-0.121c-0.021-0.458,0.295-1.026,0.944-1.707c0.315-0.376,0.62-0.665,0.915-0.869
							c0.224-0.142,0.37-0.202,0.441-0.183c0.742-0.02,1.504,0.341,2.286,1.082c0.863,0.812,1.696,2.042,2.499,3.688
							c0.192,0.427,0.452,1.031,0.777,1.813l0.015,0.03c0.132,0.336,0.396,1.093,0.793,2.271c0.213,0.63,0.497,1.479,0.853,2.545"/>
						<path fill="none" stroke="#000000" stroke-width="1.5" stroke-miterlimit="10" d="M180.355,189.946
							c-0.844-2.529-1.458-4.262-1.845-5.196c-0.497-1.828-0.746-3.378-0.746-4.647c-0.01-0.823,0.021-1.534,0.092-2.134
							c0.061-0.528,0.132-0.873,0.213-1.036c0.122-0.233,0.462-0.36,1.021-0.381v0.016c0.203,0.04,0.569,0.406,1.098,1.097
							c0.619,0.812,1.239,1.809,1.859,2.987l0.472,0.898c0.133,0.457,0.311,0.945,0.533,1.463c0.224,0.63,1.067,2.337,2.53,5.12"/>
						<path fill="none" stroke="#000000" stroke-width="1.5" stroke-miterlimit="10" d="M187.09,187.021
							c-1.341-2.926-2.209-4.785-2.605-5.577l-0.03-0.076c-0.092-0.193-0.188-0.365-0.289-0.519
							c-0.133-0.609-0.229-1.117-0.29-1.523l-0.092-1.661c0-0.447,0.193-0.914,0.579-1.401c0.234-0.234,0.381-0.371,0.442-0.412
							l0.137-0.091c0.478,0.437,1.144,1.102,1.996,1.996c0.387,0.365,0.849,1.036,1.387,2.012c0.285,0.508,0.631,1.138,1.037,1.889"
							/>
						<path fill="none" stroke="#000000" stroke-width="1.5" stroke-miterlimit="10" d="M172.248,153.542
							c-0.437,0.122-0.97,0.355-1.6,0.701c-1.91,0.925-4.018,2.54-6.324,4.846c-0.173,0.173-0.259,0.381-0.259,0.625v2.225
							c0,0.244,0.086,0.452,0.259,0.625s0.381,0.259,0.625,0.259c0.498,0,1.601,0.071,3.307,0.213
							c0.284,0.021,1.071,0.097,2.362,0.229h0.091c0.478-0.03,1.072-0.213,1.783-0.548c0.478-0.224,1.377-0.717,2.697-1.479
							c0.284-0.162,0.681-0.396,1.188-0.701c1.493-0.924,2.656-1.768,3.489-2.529c0.579-0.467,0.676-1.041,0.29-1.722
							c-0.346-0.62-0.752-0.95-1.22-0.99c-4.368,0.121-8.045,1.523-11.032,4.205"/>
						<path fill="none" stroke="#000000" stroke-width="1.5" stroke-miterlimit="10" d="M119.204,146.061l0.594-0.29l0.076-0.03
							c2.032-0.996,3.891-2.021,5.577-3.078c0.224-0.132,0.762-0.478,1.616-1.036l0.152-0.122l12.8-13.074l0.549-0.686l0.152-0.274
							l0.061-0.061l0.062-0.091c1.94-2.682,3.799-4.988,5.577-6.918c3.362-3.749,7.004-6.943,10.926-9.584
							c1.604-1.097,2.89-1.905,3.855-2.423"/>
						<path fill="none" stroke="#000000" stroke-width="1.5" stroke-miterlimit="10" d="M146.907,145.329
							c0.437-0.376,0.858-0.661,1.265-0.854c0.325-0.173,0.589-0.265,0.793-0.274l11.81,1.082"/>
						<path fill="none" stroke="#000000" stroke-width="1.5" stroke-miterlimit="10" d="M246.504,92.559
							c-0.376,0.315-0.949,0.818-1.722,1.508c-0.955,0.843-1.564,1.402-1.829,1.676l-6.461,6.735
							c-0.121,0.122-0.223,0.239-0.305,0.351l-0.213,0.198l-0.168,0.244l-0.03,0.061l-0.183-0.015
							c-0.133-0.051-0.249-0.066-0.351-0.046c-0.985-0.183-2.434-0.584-4.343-1.204c-0.63-0.233-1.144-0.396-1.539-0.487
							c-2.377-0.823-4.953-1.326-7.727-1.509c-0.924-0.071-1.935-0.106-3.032-0.106c-0.548,0-1.401,0.02-2.56,0.061
							c-1.442,0.041-3.113,0.162-5.014,0.366l-0.746,0.076H210.1c-0.091,0-0.178,0.015-0.259,0.045
							c-0.091-0.03-0.183-0.045-0.274-0.045h-0.259c-2.337,0-4.495-0.564-6.477-1.692c-1.33-0.762-2.596-1.849-3.794-3.261
							c-1.402-1.625-2.637-3.576-3.703-5.852"/>
						<path fill="none" stroke="#000000" stroke-width="1.5" stroke-miterlimit="10" d="M240.348,71.423
							c-2.001-0.701-3.235-1.112-3.703-1.234l-1.889-0.396"/>
						<path fill="none" stroke="#000000" stroke-width="1.5" stroke-miterlimit="10" d="M154.74,133.321
							c1.381-6.36,2.311-10.108,2.788-11.246c0.518-1.219,1.371-2.641,2.56-4.267c0.152-0.213,1.336-1.351,3.551-3.414
							c2.245-2.103,3.708-3.434,4.389-3.992"/>
						<path fill="none" stroke="#000000" stroke-width="1.5" stroke-miterlimit="10" d="M206.062,62.677h-0.137
							c-0.081,0-0.411,0.031-0.99,0.091l-0.153,0.046c-0.061,0-0.183,0.03-0.365,0.092c-0.741,0.274-1.396,0.721-1.966,1.341
							l-0.091,0.122c-0.133,0.132-0.279,0.32-0.442,0.564c-1.026,1.381-1.528,3.068-1.509,5.059
							c-0.01,1.991,0.503,3.688,1.539,5.089c0.244,0.366,0.569,0.727,0.976,1.082c0-0.021,0.056,0.036,0.168,0.167l0.106,0.092
							c0.762,0.559,1.661,0.863,2.697,0.914h0.076c1.585-0.03,2.92-0.782,4.008-2.255l0.106-0.198
							c0.944-1.382,1.406-3.012,1.387-4.892c0.02-1.991-0.478-3.683-1.493-5.074c-0.498-0.721-1.082-1.275-1.753-1.661
							C207.545,62.86,206.824,62.667,206.062,62.677z"/>
						<path fill="#373535" stroke="#000000" stroke-width="1.5" stroke-miterlimit="10" d="M206.442,64.475
							c0.103,0.091,0.188,0.183,0.26,0.274c0.264,0.305,0.498,0.742,0.7,1.311c0.355,1.016,0.534,2.204,0.534,3.565
							c0,1.29-0.179,2.479-0.534,3.566c-0.192,0.569-0.426,1.011-0.7,1.326c-0.346,0.437-0.777,0.655-1.296,0.655
							c-0.223,0.01-0.451-0.04-0.686-0.152c-0.244-0.112-0.446-0.27-0.609-0.473c-0.284-0.315-0.518-0.767-0.701-1.356
							c-0.325-0.976-0.487-2.032-0.487-3.17v-0.396c0-0.823,0.081-1.687,0.244-2.591l0.045-0.183c0-0.081,0.021-0.178,0.062-0.29
							l0.076-0.335l0.122-0.32l0.122-0.274c0.192-0.467,0.462-0.843,0.808-1.127C205,64.028,205.681,64.018,206.442,64.475z"/>
						<path fill="none" stroke="#000000" stroke-width="1.5" stroke-miterlimit="10" d="M189.482,95.439
							c0.265,1.188,0.584,2.159,0.96,2.911c1.118,2.54,2.413,4.8,3.886,6.781c0.955,1.199,1.677,2.042,2.164,2.53l0.274,0.259
							c0.092,0.112,0.233,0.234,0.427,0.366l0.152,0.167h-0.016l1.067,0.93c0.396,0.325,0.944,0.716,1.646,1.173
							c0.65,0.417,1.458,0.854,2.423,1.311c3.23,1.503,7.354,2.417,12.373,2.743"/>
						<path fill="#FFFFFF" stroke="#000000" stroke-width="1.5" stroke-miterlimit="10" d="M32.941,114.044
							c0.985,1.494,2.971,3.297,5.958,5.41c1.788,1.27,3.444,2.337,4.967,3.2c0.153,0.071,0.534,0.274,1.143,0.609
							c0.478,0.254,0.884,0.462,1.219,0.625l0.076,0.045c1.808,0.864,3.464,1.615,4.968,2.255c2.072,0.874,3.682,1.514,4.83,1.92
							l0.595,0.214c8.127,2.905,15.929,4.357,23.406,4.357h0.884c0.823,0,1.752-0.024,2.789-0.076
							c1.687-0.081,3.672-0.243,5.958-0.487l0.107-0.015c2.306-0.325,4.201-0.655,5.684-0.991c1.25-0.274,2.601-0.63,4.054-1.066
							c0.183-0.041,0.437-0.122,0.762-0.244c2.956-0.935,5.816-2.133,8.579-3.597c0.406-0.223,0.985-0.548,1.737-0.975
							c1.371-0.843,2.865-1.839,4.48-2.987l0.442-0.335l11.565-10.773c0.204-0.213,0.874-0.955,2.012-2.225
							c0.965-1.077,2.417-2.651,4.358-4.724c2.194-2.326,4.211-4.343,6.05-6.049l0.137-0.137c2.408-2.225,4.444-3.906,6.111-5.044
							c0.07-0.02,0.157-0.066,0.259-0.137l2.407-1.508c1.22-0.711,2.515-1.356,3.886-1.935c5.639-2.438,11.978-3.658,19.018-3.658
							h0.183c0.488,0,1.092,0.051,1.813,0.153c1.899,0.751,3.373,1.686,4.419,2.803c1.026,1.087,1.682,2.398,1.966,3.932
							l0.168,1.006v4.922l-0.458,0.473c-0.101,0.102-0.716,0.686-1.844,1.752c-0.873,0.833-1.452,1.427-1.736,1.783"/>
						<path fill="none" stroke="#000000" stroke-width="1.5" stroke-miterlimit="10" d="M62.29,78.235
							c-1.372,0.783-2.651,1.803-3.84,3.063c-1.107,1.168-2.017,2.413-2.728,3.733c-1.239,2.326-2.737,6.852-4.495,13.577
							c-1.707,6.532-3.586,14.852-5.638,24.96"/>
						<path fill="none" stroke="#000000" stroke-width="1.5" stroke-miterlimit="10" d="M90.16,132.057
							c-0.01-0.132-0.03-0.478-0.061-1.036c-0.021-0.559-0.03-0.96-0.03-1.204v-0.899c0.112-5.953,0.167-11.068,0.167-15.345
							c0-4.398-0.056-8.376-0.167-11.931c-0.041-2.824-0.158-5.76-0.351-8.808c-0.254-3.403-0.609-5.801-1.067-7.192
							c-0.111-0.437-0.188-0.731-0.228-0.884c-0.061-0.233-0.259-0.487-0.595-0.762"/>
						<path fill="none" stroke="#000000" stroke-width="1.5" stroke-miterlimit="10" d="M152.226,93.61
							c0.132,0.122,0.406,0.452,0.822,0.991l0.138,0.137c0.731,0.61,1.234,1.042,1.508,1.295c1.158,1.107,2.327,2.53,3.505,4.267
							c0.895,1.311,1.585,2.576,2.073,3.794c0.213,0.518,0.467,1.224,0.762,2.118c0.325,0.985,0.503,1.641,0.533,1.965"/>
					</g>
				</g>
			</g>
		</g>
	</g>
</g>
</svg>
