<?xml version="1.0" encoding="utf-8"?>
<!-- Generator: Adobe Illustrator 17.0.1, SVG Export Plug-In . SVG Version: 6.00 Build 0)  -->
<!DOCTYPE svg PUBLIC "-//W3C//DTD SVG 1.1//EN" "http://www.w3.org/Graphics/SVG/1.1/DTD/svg11.dtd">
<svg version="1.1" id="Layer_1" xmlns="http://www.w3.org/2000/svg" xmlns:xlink="http://www.w3.org/1999/xlink" x="0px" y="0px"
	 width="245.702px" height="147.89px" viewBox="8.943 74.607 245.702 147.89" enable-background="new 8.943 74.607 245.702 147.89"
	 xml:space="preserve">
<g>
	<g id="Layer_1_1_">
		<g>
			<g id="Layer_1_3_">
				<g>
					<path fill="#FFFFFF" stroke="#000000" stroke-width="1.5" stroke-miterlimit="10" d="M253.014,99.485
						c0.616,0.35,0.909,0.718,0.879,1.102c-0.075,0.467-0.616,0.733-1.623,0.801c-0.542,0.033-1.293,0.008-2.256-0.075
						c-1.879-0.167-3.202-0.258-3.969-0.275l-2.503-0.175c-0.782-0.067-1.602-0.067-2.459,0c-3.878,0.45-7.539,1.159-10.982,2.127
						c-2.421,0.667-4.653,1.376-6.698,2.127c-2.27,0.851-4.367,1.802-6.292,2.854c-2.315,1.301-4.855,2.561-7.621,3.779
						c-0.302,0.134-0.993,0.476-2.075,1.026c-0.512,0.284-1.195,0.625-2.053,1.026l-4.329,1.702
						c-1.864,0.767-3.293,1.402-4.285,1.902c-1.865,0.951-4.022,1.852-6.473,2.703c-1.639,0.584-3.946,1.326-6.924,2.228
						c-0.646,0.201-1.436,0.417-2.368,0.651l-2.413,0.651c-3.472,1.068-6.885,1.944-10.237,2.628
						c-3.053,0.601-5.676,1.185-7.871,1.752c-2.887,0.784-5.42,1.693-7.601,2.728c-1.412,1.569-2.548,3.136-3.405,4.705
						l-0.901,1.953c-0.376,0.801-0.774,1.351-1.195,1.651c-0.392,0.317-0.947,0.609-1.669,0.876l-1.782,0.676
						c-1.668,0.734-3.646,2.035-5.931,3.904l-0.992,0.677c-0.405,0.266-0.714,0.5-0.924,0.699c-0.061,0.084-0.129,0.209-0.203,0.376
						l-0.181,0.426l-0.744,0.95c-0.421,0.518-0.691,0.876-0.812,1.077c-0.871,1.201-2.098,2.478-3.675,3.829
						c-2.841,2.402-4.255,3.57-4.24,3.504c-0.09,0.134-0.067,0.234,0.068,0.301c0.075,0.066,0.181,0.108,0.316,0.125
						c0.21,0.116,0.864,0.434,1.962,0.95c0.751,0.384,1.345,0.76,1.782,1.127c0.36,0.317,0.729,0.751,1.105,1.302l0.969,1.551
						c1.098,1.803,2.075,4.146,2.933,7.034c0.09,0.232,0.271,0.884,0.541,1.952c0.181,0.717,0.376,1.343,0.586,1.877
						c0.301,0.817,0.782,1.644,1.443,2.477c0.646,0.818,1.293,1.419,1.939,1.803c0.226,0.101,0.474,0.183,0.744,0.251
						c0.361,0.083,0.594,0.166,0.698,0.249c0.211,0.117,0.482,0.334,0.813,0.651l0.812,0.726c1.082,1.603,1.818,3.212,2.21,4.831
						c0.526,2.186,0.406,4.129-0.361,5.831l-1.173,2.302c-0.525,1.035-0.901,1.86-1.128,2.479c-0.45,1.252-0.841,2.628-1.173,4.129
						c-0.014,0.117-0.074,0.352-0.18,0.701c-0.104,0.301-0.173,0.526-0.202,0.677c-0.075,0.283-0.098,0.642-0.068,1.075l0.068,1.102
						c0.089,2.002,0.173,3.696,0.247,5.08c0.075,2.003,0.008,3.588-0.202,4.756c0,0.15-0.061,0.375-0.181,0.677
						c-0.105,0.266-0.173,0.475-0.203,0.625c-0.406,2.52-1.082,4.43-2.029,5.731c-0.812,1.151-1.933,2.02-3.36,2.603
						c-1.474,0.601-3.09,0.826-4.849,0.676c-0.331-0.033-0.775-0.134-1.331-0.301c-0.646-0.217-1.143-0.333-1.488-0.35
						c-0.451-0.084-0.94-0.009-1.466,0.225c-0.707,0.268-1.195,0.41-1.466,0.426c0-0.851,0.413-1.794,1.24-2.828
						c-0.345,0-1.037-0.167-2.075-0.5c-0.872-0.334-1.571-0.435-2.097-0.301c0.586-1.251,1.496-2.169,2.729-2.753
						c-0.21-0.367-0.707-0.751-1.488-1.151c-0.722-0.384-1.375-0.625-1.962-0.726c0.226-0.301,0.586-0.568,1.082-0.802
						c0.482-0.2,0.925-0.325,1.331-0.375l0.293,0.05c0.09,0.034,0.188,0.051,0.293,0.051c0.241-0.051,0.609-0.201,1.104-0.451
						l1.962-0.775c0.767-0.267,1.488-0.392,2.165-0.375c1.819-1.169,2.706-2.694,2.661-4.581c-0.15-0.25-0.496-0.559-1.037-0.926
						c-0.737-1.135-1.21-2.027-1.421-2.678c-0.406-1.151-0.473-2.387-0.203-3.705l0.067-0.149c0.752-1.802,1.271-3.111,1.557-3.929
						c0.571-1.553,0.789-3.12,0.654-4.706c-0.105-1.234-0.535-2.444-1.286-3.629c-0.601-0.868-1.376-1.761-2.323-2.679
						c-0.662-0.633-1.556-1.351-2.684-2.151c-1.458-1.019-2.383-1.694-2.774-2.027c-1.263,1.668-2.12,4.538-2.571,8.609
						c-0.12,0.801-0.293,2.452-0.519,4.955c-0.195,1.836-0.436,3.354-0.722,4.556c-0.255,1.068-0.684,2.136-1.285,3.203
						c-0.391,0.734-1.007,1.644-1.849,2.729c-1.248,1.618-3.09,2.703-5.525,3.253c-1.338,0.301-2.781,0.46-4.33,0.477
						c-0.992,0.016-2.45-0.042-4.375-0.176c0.451-0.817,1.038-1.543,1.759-2.178c-0.767,0.034-1.345,0.034-1.736,0
						c-0.616,0-1.165-0.124-1.646-0.375c0.166-0.317,0.534-0.684,1.105-1.102c0.556-0.434,0.902-0.834,1.038-1.201
						c-0.271-0.133-0.722-0.267-1.354-0.4c-0.782-0.166-1.24-0.284-1.375-0.351c1.067-0.768,1.887-1.459,2.458-2.077
						c0.947-0.967,1.736-1.693,2.368-2.178c0.301-0.233,0.804-0.467,1.511-0.7l1.759-0.525c0.812-0.268,1.571-0.626,2.278-1.077
						l0.406-1.302c0.165-0.533,0.225-1.051,0.18-1.551c-0.721-0.534-1.323-1.186-1.804-1.953c-0.556-0.917-0.827-1.834-0.812-2.752
						c0.03-0.868,0.188-1.895,0.474-3.078c0.3-1.202,0.646-2.202,1.037-3.004c0.166-0.35,0.631-1.169,1.398-2.453
						c0.541-0.884,0.94-1.76,1.195-2.628l0.519-1.526c0.165-0.601,0.233-1.076,0.203-1.427c0-0.217-0.038-0.559-0.112-1.026
						c-0.09-0.467-0.181-0.784-0.271-0.95c-0.06-0.117-0.203-0.275-0.428-0.477l-0.541-0.476c-0.812-0.75-1.729-1.742-2.751-2.978
						c-0.782-0.952-1.391-2.228-1.827-3.829l-0.271-0.701c-0.15-0.334-0.233-0.551-0.248-0.651l-0.271-2.178
						c-0.226-2.469-0.248-4.745-0.068-6.832c0.166-1.785,0.557-3.912,1.173-6.382l0.361-1.052c0.165-0.517,0.226-0.866,0.181-1.051
						c-0.045-0.201-0.249-0.426-0.609-0.676l-0.834-0.525c-0.391-0.351-0.804-0.843-1.241-1.477
						c-0.451-0.284-1.029-0.801-1.736-1.552c-0.707-0.701-1.3-1.168-1.782-1.401c-0.195-0.101-0.556-0.192-1.082-0.275l-1.15-0.176
						c-0.691-0.149-1.684-0.458-2.977-0.926l-2.887-1.026c-1.533-0.5-3.368-1.317-5.502-2.453c-0.271-0.166-0.527-0.351-0.767-0.55
						l-0.79-0.551c-0.586-0.317-1.42-0.667-2.503-1.051c-1.474-0.551-2.315-0.876-2.526-0.977c-1.293-0.601-2.992-1.176-5.097-1.727
						l0.249,1.101c0.104,0.434,0.135,0.81,0.09,1.127c-0.06,0.351-0.263,0.667-0.609,0.95c-0.345,0.284-0.586,0.501-0.721,0.651
						c0.315,0.634,0.534,1.551,0.654,2.753c0.104,1.068,0.09,2.078-0.045,3.028c-0.226,0.384-0.481,0.643-0.767,0.776
						c-0.36,0.184-0.699,0.125-1.015-0.176l0.113-1.777c0.044-0.734-0.016-1.376-0.181-1.927l-1.353,2.604
						c-0.241,0.5-0.489,0.951-0.745,1.352c-0.421,0.55-0.805,0.733-1.15,0.55c-0.3-0.15-0.398-0.566-0.293-1.251
						c0-0.15,0.121-0.676,0.361-1.577c0.15-0.684,0.42-1.468,0.812-2.353l0.947-2.077c-0.045-0.15-0.15-0.343-0.315-0.576
						c-0.166-0.199-0.256-0.392-0.271-0.575c-0.06-0.4,0.045-1.034,0.315-1.902c0.271-0.868,0.384-1.494,0.339-1.877
						c-1.038-0.467-2.067-1-3.089-1.602l-2.91-1.802c-0.315-0.35-0.624-0.667-0.925-0.951l-0.856-0.926
						c-1.263-1.568-2.24-3.429-2.932-5.581c-0.271-0.785-0.511-1.585-0.722-2.403l-0.248-1.277c-0.12-0.567-0.233-0.984-0.338-1.251
						c-0.105-0.201-0.3-0.426-0.586-0.676c-0.12-0.134-0.406-0.367-0.857-0.701c-0.496-0.45-0.962-0.834-1.398-1.151
						c-0.557-0.434-1.09-0.726-1.601-0.876c-0.135-0.05-0.338-0.075-0.609-0.075c-0.256,0-0.466-0.025-0.631-0.076l-0.632-0.175
						c-0.255-0.066-0.458-0.083-0.609-0.05c-0.15,0.083-0.278,0.292-0.383,0.625c-0.06,0.167-0.361,0.651-0.902,1.452
						c-0.511,0.768-0.767,1.168-0.767,1.201c0,0.067-0.278,0.417-0.834,1.052c-0.601,0.684-1.098,1.201-1.488,1.551
						c-0.331,0.284-0.691,0.501-1.083,0.651c-1.158,0.367-1.819,0.592-1.984,0.676c-0.166,0.066-0.549,0.142-1.15,0.225
						c-0.707,0.1-1.286,0.142-1.737,0.125c-1.263-0.033-2.195-0.108-2.796-0.225c-0.917-0.251-1.458-0.393-1.624-0.426
						c-0.466-0.1-1.3-0.375-2.502-0.826c-1.248-0.451-2.181-0.759-2.797-0.926c-0.451-0.083-0.857-0.133-1.218-0.15
						c-0.556-0.016-1.037-0.016-1.443,0c-0.316,0.034-0.699,0.133-1.15,0.3l-5.728,2.078c-0.902,0.35-1.684,0.551-2.345,0.601
						c-1.699,0.15-3.285-0.242-4.758-1.176c-1.354-0.867-2.488-2.069-3.405-3.604c-0.993-0.1-1.557-0.534-1.692-1.301
						c-0.044-0.25-0.038-0.517,0.023-0.801l0.158-0.801c0.075-0.467,0.053-1.268-0.067-2.403c-0.09-1.268-0.263-2.252-0.519-2.954
						c-0.105-0.233-0.391-0.892-0.857-1.977c-0.331-0.8-0.414-1.543-0.248-2.227c0.165-0.618,0.586-1.152,1.263-1.602l1.872-1.026
						c1.353-0.768,2.36-1.376,3.022-1.827c1.112-0.851,1.939-1.71,2.48-2.578l0.925-1.877c0.406-0.801,0.812-1.385,1.218-1.752
						c0.466-0.417,1.195-0.826,2.188-1.226c1.503-0.584,2.3-0.901,2.39-0.951c0.361-1.552,0.361-2.828,0-3.83
						c0.226-0.617,0.677-1.327,1.354-2.127c0.676-0.851,1.248-1.351,1.714-1.502c0.346-0.1,0.714-0.025,1.105,0.226
						c0.12-0.083,0.315-0.326,0.586-0.726c0.241-0.333,0.458-0.525,0.654-0.576c0.451-0.15,0.925-0.05,1.421,0.3
						c0.421,0.284,0.774,0.659,1.06,1.126c0.15,0.367,0.241,0.567,0.271,0.601c2.21-0.317,3.992-1.043,5.345-2.178l0.925-1.026
						c1.203-1.068,2.481-1.577,3.833-1.527c0.602,0.05,1.271,0.208,2.007,0.476l1.985,0.701c0.541,0.184,1.225,0.3,2.052,0.351
						c1.052,0.083,1.744,0.159,2.075,0.225c0.586,0.117,1.128,0.375,1.624,0.775c0.481,0.451,0.805,0.968,0.97,1.552
						c0.015,0.033,0.052,0.2,0.112,0.501l0.091,0.575c0.391,1.218,1.067,2.437,2.03,3.654c0.601,0.785,1.556,1.819,2.864,3.104
						c1.007,0.951,2.383,1.935,4.127,2.953c0.646,0.384,1.466,0.726,2.458,1.026c0.226,0.101,1.12,0.368,2.684,0.801
						c2.195,0.584,3.638,0.935,4.33,1.051c1.548,0.25,3.067,0.233,4.555-0.05c1.038-0.2,2.24-0.609,3.608-1.227
						c0.391-0.15,1.586-0.684,3.585-1.602l3.654-1.527c1.488-0.601,2.751-0.984,3.789-1.151c0.135-0.017,0.354-0.017,0.654,0
						c0.286,0.016,0.504,0.016,0.654,0l0.451-0.151c0.225-0.083,0.375-0.125,0.451-0.125c0.496-0.067,1.105-0.108,1.827-0.125
						c0.887-0.033,1.473-0.075,1.759-0.125c3.864-0.483,8.547,0.201,14.05,2.053l3.112,0.976c1.414,0.467,2.406,0.817,2.978,1.051
						c2.089,0.834,3.939,1.727,5.547,2.678l0.699,0.601c0.286,0.267,0.526,0.409,0.722,0.425c0.195,0,0.436-0.075,0.721-0.225
						l0.722-0.376c1.759-0.483,3.608-0.341,5.548,0.426c0.135,0.05,1.699,0.851,4.691,2.403c0.781,0.417,1.661,1.01,2.639,1.777
						l2.412,2.002c4.781,1.519,8.021,2.502,9.721,2.953c3.593,0.951,7.013,1.635,10.261,2.052l4.307,0.426
						c0.257,0.033,0.933,0.05,2.03,0.05c0.781-0.017,1.518,0.017,2.21,0.1l2.03,0.125c1.984,0.3,5.179,0.475,9.583,0.525
						c1.715,0.033,2.984,0.033,3.812,0c2.842-0.083,5.909-0.4,9.201-0.951c1.173-0.2,4.173-0.776,8.998-1.727l2.549-0.576
						c0.917-0.25,1.767-0.442,2.549-0.575c0.18-0.05,0.45-0.075,0.812-0.075c0.421-0.034,0.691-0.067,0.812-0.101
						c0.587-0.1,1.293-0.275,2.121-0.525l2.073-0.675c1.52-0.551,2.932-0.943,4.24-1.176l3.383-0.626
						c1.218-0.233,2.397-0.417,3.541-0.551c0.436-0.017,1.135-0.158,2.098-0.425c0.751-0.133,1.954-0.309,3.607-0.525l3.632-0.551
						c2.646-0.467,4.743-0.726,6.291-0.776c2.24-0.116,4.54,0.067,6.901,0.551c1.188,0.25,2.232,0.592,3.134,1.026L253.014,99.485z"
						/>
					<path fill="#FFFFFF" stroke="#000000" stroke-width="1.5" stroke-miterlimit="10" d="M30.315,103.565
						c2.225-0.334,4.172-0.801,5.841-1.402c1.909-0.534,3.465-1.535,4.668-3.003c0.586-0.701,1.121-1.61,1.602-2.728
						c0.105-0.234,0.338-0.909,0.699-2.027c0.481-1.001,1.181-1.552,2.097-1.652c1.068-0.05,2.21,0.417,3.428,1.401
						c0.631,0.534,1.413,1.21,2.346,2.028c1.202,0.634,2.285,1.185,3.247,1.651"/>
					<path fill="#FFFFFF" stroke="#000000" stroke-width="1.5" stroke-miterlimit="10" d="M29.3,79.363
						c0,0.017,0.12,0.092,0.36,0.226c0.241,0.133,0.383,0.208,0.429,0.225"/>
					<path fill="#FFFFFF" stroke="#000000" stroke-width="1.5" stroke-miterlimit="10" d="M38.704,84.794
						c-2.27-1.335-4.947-2.494-8.029-3.479"/>
					<path fill="#FFFFFF" stroke="#000000" stroke-width="1.5" stroke-miterlimit="10" d="M152.86,130.746
						c-1.743,0.817-3.119,1.494-4.126,2.028l-2.277,1.15c-0.151,0.101-0.37,0.309-0.654,0.626c-0.241,0.25-0.475,0.4-0.7,0.45
						h-0.157"/>
					<path fill="#FFFFFF" stroke="#000000" stroke-width="1.5" stroke-miterlimit="10" d="M136.061,145.887
						c0.421-0.85,0.991-2.284,1.714-4.304c0.736-2.086,1.164-3.254,1.285-3.504c0.962-2.053,1.668-3.896,2.12-5.531l0.563-3.029
						c0.511-1.969,1.037-3.571,1.578-4.805"/>
					<path fill="#FFFFFF" stroke="#000000" stroke-width="1.5" stroke-miterlimit="10" d="M126.205,156.049
						c-0.06,0.018-0.383,0.209-0.969,0.576c-0.586,0.35-0.94,0.575-1.06,0.675l-2.278,1.702c-0.662,0.518-1.203,0.884-1.624,1.101"
						/>
					<path fill="#FFFFFF" stroke="#000000" stroke-width="1.5" stroke-miterlimit="10" d="M135.339,206.831
						c-0.061,0.249-0.256,0.359-0.587,0.325c-0.406-0.066-0.662-0.076-0.767-0.025c0.346,0.785,0.437,1.785,0.271,3.003
						c-0.136,1.103-0.443,2.011-0.925,2.729c-0.436,0.434-1.428,0.952-2.977,1.553c-1.249,0.517-2.038,1.226-2.368,2.126
						c-0.045,0.084-0.068,0.209-0.068,0.376c-0.03,0.184-0.06,0.301-0.09,0.351c-0.045,0.117-0.278,0.325-0.699,0.625
						c-0.601,0.418-1.037,0.743-1.308,0.977"/>
					<path fill="#FFFFFF" stroke="#000000" stroke-width="1.5" stroke-miterlimit="10" d="M107.059,145.162
						c0.36-1.335,0.706-2.436,1.038-3.304c0.12-0.334,0.278-0.859,0.473-1.577c0.166-0.617,0.256-0.926,0.271-0.926l0.474-2.078
						c0.166-0.884,0.271-1.609,0.316-2.177l0.067-0.901c0.03-0.283,0.03-0.592,0-0.926c-0.195-2.72-0.594-5.215-1.195-7.483
						c-0.647-2.503-1.451-4.33-2.414-5.481l-0.406-0.225"/>
					<path fill="#FFFFFF" stroke="#000000" stroke-width="1.5" stroke-miterlimit="10" d="M73.907,120.083
						c0.03,0.25,0.03,0.726,0,1.427c0.015,0.651,0.075,1.168,0.181,1.552c0.15,0.1,0.398,0.358,0.744,0.776
						c0.375,0.451,0.654,0.742,0.834,0.876l0.879,0.625c0.346,0.25,0.579,0.475,0.699,0.676c0.181,0.417,0.158,0.826-0.068,1.227
						c-0.135,0.233-0.406,0.567-0.812,1.001c-0.225,0.267-0.481,0.667-0.767,1.201"/>
					<path fill="#FFFFFF" stroke="#000000" stroke-width="1.5" stroke-miterlimit="10" d="M73.366,133.624
						c-0.166,0.149-0.376,0.149-0.632,0c-0.315-0.201-0.579-0.343-0.789-0.426"/>
					<path fill="#FFFFFF" stroke="#000000" stroke-width="1.5" stroke-miterlimit="10" d="M72.013,128.268
						c-0.181-0.768-0.293-1.192-0.339-1.277l-0.157-0.325c-0.06-0.133-0.091-0.267-0.091-0.4c-0.075-0.05-0.21-0.167-0.406-0.351
						c-0.135-0.117-0.285-0.15-0.451-0.101c-0.736-0.417-1.428-0.859-2.075-1.326l-1.962-1.351
						c-1.082-0.718-1.782-2.044-2.097-3.979"/>
					<path fill="#FFFFFF" stroke="#000000" stroke-width="1.5" stroke-miterlimit="10" d="M59.993,112.475
						c-0.255-1.168-0.428-1.835-0.519-2.002c-0.195-0.317-0.301-0.567-0.315-0.75"/>
					<path fill="#FFFFFF" stroke="#000000" stroke-width="1.5" stroke-miterlimit="10" d="M53.994,103.49
						c-0.045,1.134-0.098,1.927-0.158,2.377c-0.03,0.317-0.143,0.792-0.339,1.426c-0.105,0.351-0.248,0.818-0.428,1.402"/>
					<path fill="#FFFFFF" stroke="#000000" stroke-width="1.5" stroke-miterlimit="10" d="M27.36,107.669l0.203,0.851
						c0.045,0.134,0.038,0.242-0.022,0.326c-0.256-0.017-0.586-0.134-0.992-0.351l-0.045,0.275c0,0.1,0.068,0.283,0.203,0.55
						c0.09,0.25,0.127,0.409,0.113,0.476c-0.391,0.034-0.722-0.017-0.992-0.15l-0.474-0.401c-0.166-0.15-0.286-0.108-0.361,0.125
						c-0.03,0.066,0.023,0.217,0.158,0.451c0.121,0.216,0.241,0.392,0.361,0.525c0.181,0.233,0.248,0.409,0.203,0.525l-1.015-0.325
						c-0.541-0.167-0.879-0.25-1.015-0.25c0.045,0.3,0.166,0.643,0.361,1.027c0.195,0.4,0.293,0.708,0.293,0.925
						c-0.316-0.033-0.639-0.15-0.969-0.351c-0.361-0.183-0.624-0.275-0.79-0.275l0.406,0.601c0.12,0.15,0.18,0.351,0.18,0.601
						c-0.345-0.05-0.767-0.225-1.263-0.525c-0.541-0.351-0.902-0.551-1.083-0.601l0.022,0.3c0,0.3,0.015,0.459,0.045,0.476
						c0.105,0.083,0.173,0.175,0.203,0.275c0.06,0.134,0.053,0.258-0.022,0.375c-0.557,0-1.188-0.217-1.895-0.65l-0.316-0.226
						c-0.135-0.066-0.203-0.042-0.203,0.075c-0.03-0.016,0.023,0.15,0.158,0.5c0.075,0.217,0.067,0.368-0.023,0.451
						c-0.375,0.033-0.744-0.067-1.105-0.3l-0.79-0.5c0.105,0.367,0.166,0.559,0.181,0.576c0.03,0.134,0.008,0.233-0.067,0.3
						c-0.526-0.1-1.052-0.359-1.579-0.776c-0.481-0.384-0.842-0.801-1.083-1.251"/>
					<path fill="#FFFFFF" stroke="#000000" stroke-width="1.5" stroke-miterlimit="10" d="M122.371,179.601l-2.075-1.326
						c-0.346-0.201-2.556-1.911-6.63-5.131c-1.203-1.218-1.834-1.803-1.895-1.752"/>
					<path fill="#FFFFFF" stroke="#000000" stroke-width="1.5" stroke-miterlimit="10" d="M114.388,192.99
						c-0.09,0.133-0.293,0.184-0.609,0.15c-1.022-0.05-1.541-0.075-1.556-0.075"/>
					<path fill="#FFFFFF" stroke="#000000" stroke-width="1.5" stroke-miterlimit="10" d="M18.25,96.657
						c-0.045-0.217,0.022-0.517,0.203-0.901c0.226-0.518,0.375-0.834,0.451-0.951l0.271-0.45c0.195-0.217,0.466-0.409,0.812-0.576
						l1.015-0.525c1.248-0.651,2.315-1.394,3.202-2.228c0.962-0.951,1.729-2.061,2.3-3.329"/>
					<path fill="#FFFFFF" stroke="#000000" stroke-width="1.5" stroke-miterlimit="10" d="M27.225,85.945
						c0.135-1.035,0.526-2.002,1.173-2.903c-0.526-0.133-0.902-0.175-1.127-0.125"/>
					<path fill="#FFFFFF" stroke="#000000" stroke-width="1.5" stroke-miterlimit="10" d="M35.186,86.021l-0.902-0.476
						c-2.03-1.051-3.991-1.885-5.886-2.503"/>
					<path fill="#FFFFFF" stroke="#000000" stroke-miterlimit="10" d="M30.157,86.17c-0.06-0.083-0.045-0.326,0.045-0.726
						c0.241-0.05,0.519-0.008,0.835,0.125c0.3,0.151,0.503,0.326,0.608,0.526c0.045,0.7-0.315,1.109-1.082,1.226
						c-0.752,0.101-1.173-0.167-1.263-0.801c-0.031-0.283,0.038-0.567,0.203-0.851c0.18-0.3,0.398-0.375,0.654-0.225
						c-0.361,0.184-0.549,0.459-0.563,0.826c-0.045,0.351,0.098,0.659,0.429,0.926c0.225-0.083,0.391-0.184,0.496-0.301
						c0.151-0.149,0.203-0.317,0.158-0.5c0.06-0.017,0.083-0.075,0.068-0.175l-0.068-0.2c-0.09-0.017-0.188,0-0.293,0.05
						C30.307,86.137,30.232,86.17,30.157,86.17z"/>
					<path fill="#FFFFFF" stroke="#000000" stroke-miterlimit="10" d="M14.664,99.436c0.271,0.25,0.383,0.617,0.339,1.101
						c-0.016,0.033-0.03,0.042-0.045,0.025l-0.022-0.125c-0.346,0.384-0.834,0.868-1.466,1.452
						c-0.511,0.567-0.759,1.076-0.744,1.526c-0.195,0.167-0.293,0.476-0.293,0.926l-0.045,1.101c-0.09-0.016-0.158,0-0.203,0.05
						c-0.06,0.067-0.121,0.1-0.181,0.1c-0.105-0.651-0.06-1.46,0.135-2.428c0.211-0.984,0.489-1.769,0.835-2.353
						c0.225-0.367,0.458-0.659,0.699-0.876C14.047,99.585,14.378,99.419,14.664,99.436z"/>
					<path fill="#FFFFFF" stroke="#000000" stroke-width="1.5" stroke-miterlimit="10" d="M32.277,86.796
						c-0.331,0.684-0.865,1.026-1.602,1.026l-0.812-0.1c-0.241-0.066-0.474-0.175-0.699-0.326c-0.286-0.367-0.437-0.734-0.451-1.101
						c-0.016-0.167,0.03-0.559,0.135-1.177"/>
					<path fill="#FFFFFF" stroke="#000000" stroke-width="1.5" stroke-miterlimit="10" d="M27.992,86.021
						c0.195-0.451,0.541-0.785,1.037-1.001c0.467-0.2,0.948-0.25,1.444-0.15c0.541,0.101,1.007,0.467,1.398,1.101
						c0.331,0.567,0.541,1.143,0.631,1.727"/>
					<path fill="#FFFFFF" stroke="#000000" stroke-width="1.5" stroke-miterlimit="10" d="M102.954,205.028
						c0.481-0.299,0.872-0.709,1.173-1.226c0.241-0.484,0.376-0.769,0.406-0.852c0.21-0.45,0.384-0.775,0.52-0.976
						c0.42-0.617,1.413-1.276,2.976-1.978c1.458-0.667,2.428-1.41,2.91-2.228c0.376-0.701,0.646-1.377,0.812-2.027
						c0.195-0.667,0.354-1.56,0.474-2.678c-0.225-0.051-0.624-0.191-1.195-0.426c-0.662-0.283-1.022-0.435-1.083-0.45"/>
					<path fill="#FFFFFF" stroke="#000000" stroke-width="1.5" stroke-miterlimit="10" d="M109.359,195.042
						c-0.181,0.718-0.511,1.344-0.992,1.878c-0.361,0.4-0.857,0.784-1.489,1.151c-0.256,0.149-0.594,0.292-1.015,0.426l-1.06,0.425
						c-0.466,0.267-1,0.717-1.602,1.352c-0.616,0.684-1.112,1.376-1.488,2.077"/>
					<path fill="#FFFFFF" stroke="#000000" stroke-width="1.5" stroke-miterlimit="10" d="M129.159,210.761
						c-0.887,0.483-1.782,1.226-2.684,2.228c-0.24,0.266-0.503,0.625-0.789,1.075c-0.226,0.352-0.662,0.768-1.309,1.252"/>
					
						<line fill="none" stroke="#000000" stroke-width="1.5" stroke-miterlimit="10" x1="133.985" y1="207.131" x2="131.82" y2="206.18"/>
					<path fill="#FFFFFF" stroke="#000000" stroke-width="1.5" stroke-miterlimit="10" d="M11.597,111.274
						c0.497,0.117,1.443,0.133,2.841,0.05l2.571-0.226c0.872-0.066,1.834-0.258,2.887-0.575l2.684-0.876
						c0.421-0.15,0.902-0.351,1.443-0.601c0.662-0.316,1.136-0.525,1.421-0.625l2.188-0.851c0.812-0.4,1.436-0.868,1.872-1.401
						c0.15-0.4,0.323-0.734,0.519-1.001c0.075-0.267,0.188-0.884,0.338-1.852c0.105-0.867,0.255-1.485,0.451-1.852"/>
				</g>
			</g>
		</g>
	</g>
</g>
<path d="M32.125,86.747c0,1.452-0.909,2.628-2.031,2.628H29.88c-1.123,0-2.031-1.176-2.031-2.628l0,0
	c0-1.452,0.909-2.628,2.031-2.628h0.213C31.216,84.119,32.125,85.295,32.125,86.747L32.125,86.747z"/>
<path fill="#FFFFFF" d="M31.612,87.182c0,1.003-0.669,1.815-1.497,1.815h-0.158c-0.827,0-1.497-0.812-1.497-1.815l0,0
	c0-1.003,0.669-1.815,1.497-1.815h0.158C30.943,85.366,31.612,86.179,31.612,87.182L31.612,87.182z"/>
<path d="M30.45,87.875c0,0.658-0.457,1.19-1.021,1.19h-0.108c-0.564,0-1.021-0.533-1.021-1.19l0,0c0-0.658,0.457-1.19,1.021-1.19
	h0.108C29.993,86.685,30.45,87.217,30.45,87.875L30.45,87.875z"/>
</svg>
