<?xml version="1.0" encoding="utf-8"?>
<!-- Generator: Adobe Illustrator 17.0.1, SVG Export Plug-In . SVG Version: 6.00 Build 0)  -->
<!DOCTYPE svg PUBLIC "-//W3C//DTD SVG 1.1//EN" "http://www.w3.org/Graphics/SVG/1.1/DTD/svg11.dtd">
<svg version="1.1" id="Layer_1" xmlns="http://www.w3.org/2000/svg" xmlns:xlink="http://www.w3.org/1999/xlink" x="0px" y="0px"
	 width="239.087px" height="195.908px" viewBox="7.271 19.776 239.087 195.908"
	 enable-background="new 7.271 19.776 239.087 195.908" xml:space="preserve">
<g>
	<g id="Layer_1_1_">
		<g>
			<g id="Layer_1_3_">
				<g>
					<path fill="#FFFFFF" stroke="#231F20" stroke-width="1.5" stroke-miterlimit="10" d="M241.089,30.368
						c-0.44,1.332-2.086,3.936-4.938,7.811c-3.049,4.007-4.871,6.429-5.466,7.266c-1.574,2.202-2.301,4.679-2.18,7.431
						c-0.55,0.077-0.963,0.231-1.238,0.462c-0.231,0.199-0.445,0.518-0.645,0.958c-1.145-0.573-2.074-0.98-2.79-1.222
						c-0.969-0.319-1.883-0.479-2.741-0.479c-0.451,0-1.403,0.391-2.856,1.172c-1.476,0.792-2.989,1.205-4.541,1.238
						c-1.85,0.044-3.303-0.143-4.36-0.562c-0.726-0.286-1.469-0.809-2.229-1.569c-1.134-1.134-1.91-1.866-2.328-2.196
						c-1.002-0.771-1.712-0.963-2.131-0.578c-0.518,0.473-0.566,1.701-0.148,3.683c0.451,2.069,1.211,3.875,2.279,5.416
						c1.915,2.752,4.26,5.647,7.034,8.686c3.919,4.293,6.958,6.748,9.115,7.365c-0.253,3.357-0.87,7.15-1.85,11.377
						c-1.299,5.57-2.856,9.831-4.673,12.781c-2.004,3.269-4.052,6.148-6.144,8.636c-2.025,2.422-3.335,3.583-3.93,3.484
						c-0.407-0.055-0.969-0.567-1.685-1.536c-0.704-0.936-1.183-1.403-1.437-1.403c-0.242,0-0.727,0.732-1.453,2.196
						c-0.991,2.003-1.992,3.649-3.005,4.938c-1.057,1.453-1.977,2.659-2.758,3.617c-1.409,1.739-2.896,3.286-4.459,4.64
						c-4.558,3.941-10.205,6.688-16.942,8.24c-11.218,2.499-19.728,4.393-25.528,5.681c-10.492,2.334-18.534,4.276-24.126,5.829
						c-6.077,1.673-16.337,5.322-30.78,10.948c-12.77,4.965-20.283,8.03-22.54,9.197c-2.83,0.386-5.95,0.975-9.363,1.768
						c-1.585,0.362-3.727,0.902-6.424,1.617c-0.319,0.089-1.789,0.705-4.409,1.85c-2.312,1.014-4.767,1.762-7.365,2.246
						c-2.025,0.386-5.256,1.167-9.693,2.345c-3.732,0.991-6.258,1.547-7.58,1.668c-2.874,0.275-5.565,0.76-8.075,1.453
						c-3.533,0.969-5.421,2.092-5.664,3.369c-2.015,0.374-3.022,1.238-3.022,2.592c0,0.737,1.123,2.158,3.369,4.261
						c2.323,2.19,4.916,4.217,7.778,6.077c0.979,0.638,2.928,2.015,5.846,4.128c3.115,2.169,6.104,4.057,8.966,5.664
						c8.84,4.965,18.368,8.389,28.584,10.271c10.954,2.015,21.219,2.29,30.797,0.826c4.117-0.639,8.884-1.685,14.3-3.138
						c2.576-0.693,8.02-2.273,16.331-4.739c3.325-0.991,8.994-2.608,17.009-4.854c6.627-1.86,11.724-3.347,15.291-4.459
						c10.876-3.401,20.173-7.222,27.891-11.46c10.479-5.758,17.987-10.392,22.523-13.904c6.385-4.932,12.22-11.234,17.504-18.907
						c5.174-7.497,9.197-15.429,12.071-23.795c2.212-6.418,3.539-12.363,3.979-17.834c0.616-7.618,0.952-14.845,1.007-21.682
						c0.088-11.053-0.6-19.7-2.064-25.942c1.476-2.785,2.714-5.653,3.716-8.603c1.354-4.019,2.196-7.987,2.526-11.906
						c0.375-4.635,0.104-9.561-0.809-14.779c-0.947-5.46-2.108-7.932-3.484-7.415c-0.584,0.22-0.903,0.715-0.958,1.486
						c-0.033,0.55,0.088,1.404,0.363,2.56c0.353,1.574,0.562,2.565,0.628,2.972C241.354,28.744,241.32,29.663,241.089,30.368z"/>
					<path fill="#FFFFFF" stroke="#231F20" stroke-width="1.5" stroke-miterlimit="10" d="M11.046,180.19
						c0.661,0.33,1.53,0.848,2.609,1.552c1.013,0.649,1.822,1.117,2.428,1.403c2.025,0.937,4.838,1.403,8.438,1.403
						c3.347,0,8.29-0.479,14.829-1.437c7.299-1.078,11.328-1.646,12.087-1.7c0.826-0.056,2.202-0.165,4.128-0.33
						c1.794-0.11,3.391-0.089,4.789,0.065c3.952,0.408,7.419,1.927,10.403,4.558"/>
					<path fill="#FFFFFF" stroke="#231F20" stroke-width="1.5" stroke-miterlimit="10" d="M74.291,183.427
						c0.474,0.462,1.222,0.837,2.246,1.122c1.024,0.275,2.152,0.231,3.385-0.132c1.277-0.374,2.086-0.933,2.427-1.676
						c-0.528-0.222-1.035-0.505-1.519-0.851c-0.947-0.792-1.635-1.343-2.064-1.651c-0.727-0.528-1.453-0.765-2.18-0.71
						c-0.925,0.077-2.097,0.595-3.517,1.553C73.355,182.149,73.763,182.931,74.291,183.427z M83.968,183.229
						c-0.56-0.104-1.1-0.266-1.618-0.487"/>
					<path fill="#FFFFFF" stroke="#231F20" stroke-width="1.5" stroke-miterlimit="10" d="M79.278,182.007
						c0,0.693-0.242,1.282-0.726,1.767c-0.484,0.484-1.074,0.727-1.767,0.727c-0.683,0-1.266-0.242-1.75-0.727
						s-0.727-1.073-0.727-1.767c0-0.683,0.242-1.267,0.727-1.751s1.068-0.727,1.75-0.727c0.693,0,1.283,0.242,1.767,0.727
						C79.036,180.74,79.278,181.324,79.278,182.007z"/>
					<path fill="#FFFFFF" stroke="#231F20" stroke-width="1.5" stroke-miterlimit="10" d="M78.403,181.824
						c0,0.496-0.176,0.92-0.528,1.271c-0.353,0.353-0.771,0.529-1.255,0.529c-0.496,0-0.919-0.177-1.271-0.529
						c-0.353-0.352-0.528-0.775-0.528-1.271c0-0.484,0.176-0.902,0.528-1.255c0.352-0.352,0.776-0.528,1.271-0.528
						c0.484,0,0.902,0.177,1.255,0.528C78.227,180.922,78.403,181.34,78.403,181.824z"/>
					<path fill="#FFFFFF" stroke="#231F20" stroke-width="1.5" stroke-miterlimit="10" d="M76.174,180.851
						c0,0.176-0.061,0.319-0.182,0.43c-0.11,0.12-0.253,0.182-0.43,0.182c-0.165,0-0.308-0.062-0.429-0.182
						c-0.121-0.11-0.182-0.254-0.182-0.43c0-0.165,0.061-0.303,0.182-0.413c0.121-0.121,0.264-0.182,0.429-0.182
						c0.176,0,0.319,0.061,0.43,0.182C76.113,180.548,76.174,180.686,76.174,180.851z"/>
					<path fill="#FFFFFF" stroke="#231F20" stroke-width="1.5" stroke-miterlimit="10" d="M100.91,187.951
						c1.233-0.363,1.904-0.551,2.015-0.562c0.947-0.044,1.894,0.401,2.84,1.337c1.079,1.079,3.043,1.971,5.895,2.676
						c2.763,0.693,6.044,1.123,9.842,1.288c5.064,0.22,9.341,0.132,12.83-0.265c5.152-0.583,9.094-1.854,11.824-3.814
						c2.784-1.981,4.694-3.654,5.729-5.02c0.781-1.023,1.04-1.844,0.776-2.461c-0.198-0.439-0.743-0.682-1.635-0.727
						c-0.551-0.033-1.514,0.028-2.89,0.182c-1.574,0.165-4.701,0.248-9.38,0.248c-5.273,0-8.124-0.192-8.554-0.578
						c-0.605-0.539-1.646-0.737-3.121-0.594c-1.817,0.176-3.826,0.886-6.028,2.13"/>
					<path fill="#FFFFFF" stroke="#231F20" stroke-width="1.5" stroke-miterlimit="10" d="M205.471,110.951
						c-1.046,0.991-2.389,2.169-4.029,3.534c-1.695,1.398-3.066,2.46-4.112,3.187"/>
					<path fill="#FFFFFF" stroke="#231F20" stroke-width="1.5" stroke-miterlimit="10" d="M226.623,54.295
						c-0.176,0.518-0.825,2.152-1.948,4.904c-1.101,2.785-1.806,4.75-2.113,5.895c-0.342,1.277-0.683,3.061-1.023,5.35
						c-0.265,1.729-0.469,3.331-0.611,4.806"/>
					<path fill="#FFFFFF" stroke="#231F20" stroke-width="1.5" stroke-miterlimit="10" d="M229.612,68.628
						c0.43,1.464,0.82,2.571,1.173,3.319c0.627,1.288,1.299,1.976,2.015,2.064c0.693,0.099,1.794-1.31,3.303-4.227
						c0.814-1.574,1.849-3.737,3.104-6.49"/>
					<path fill="#FFFFFF" stroke="#231F20" stroke-width="1.5" stroke-miterlimit="10" d="M10.634,183.559
						c2.103,1.431,3.418,2.273,3.946,2.526c2.015,0.925,4.547,1.432,7.596,1.52c2.719,0.077,6.797-0.38,12.236-1.371
						c5.868-1.067,9.28-1.623,10.238-1.667c0.705-0.033,1.965-0.188,3.782-0.463c1.915-0.286,3.484-0.468,4.706-0.545
						c4.271-0.286,8.465,0.286,12.583,1.718"/>
				</g>
			</g>
		</g>
	</g>
</g>
</svg>
