<?xml version="1.0" encoding="utf-8"?>
<!-- Generator: Adobe Illustrator 17.0.1, SVG Export Plug-In . SVG Version: 6.00 Build 0)  -->
<!DOCTYPE svg PUBLIC "-//W3C//DTD SVG 1.1//EN" "http://www.w3.org/Graphics/SVG/1.1/DTD/svg11.dtd">
<svg version="1.1" id="Layer_1" xmlns="http://www.w3.org/2000/svg" xmlns:xlink="http://www.w3.org/1999/xlink" x="0px" y="0px"
	 width="216.751px" height="221.131px" viewBox="29.851 20.855 216.751 221.131"
	 enable-background="new 29.851 20.855 216.751 221.131" xml:space="preserve">
<g id="Layer_3">
	<path fill="#FFFFFF" d="M242.129,38.271c0.436-0.58,0.88-1.149,1.302-1.743c1.733-2.438,1.245-4.823-0.259-6.478
		c1.083-4.176-1.95-9.275-7.017-7.336c-3.416,1.308-6.104,3.149-8.919,5.463c-0.927,0.761-1.814,1.582-2.722,2.366
		c-0.246-0.027-0.5-0.044-0.765-0.044c-0.864,0-1.626,0.156-2.297,0.422c-2.005-0.639-3.824-0.692-5.8-0.415
		c-0.15-0.013-0.299-0.025-0.449-0.038c-0.965-1.036-2.362-1.72-4.204-1.72c-2.131,0-3.671,0.912-4.628,2.23
		c-3.185,1.014-5.517,3.323-7.917,5.526c-1.107,0.366-2.148,0.81-3.233,1.312c-0.33,0.153-0.627,0.345-0.9,0.561
		c-1.017-0.094-2.071-0.087-3.171,0.018c-2.285,0.217-4.988,1.31-7.576,1.95c-0.19-0.036-0.379-0.078-0.574-0.098
		c-2.438-0.247-4.699-0.041-7.095,0.464c-1.506,0.318-2.611,1.221-3.331,2.384c-0.279-0.034-0.556-0.068-0.824-0.098
		c-1.381-0.155-2.506,0.11-3.387,0.646c-0.339-0.146-0.678-0.292-1.019-0.432c-3.031-1.242-6.592,1.322-7.381,4.19
		c-0.805,2.924,0.605,5.311,2.901,6.723c0.29,0.593,0.67,1.143,1.143,1.615c1.011,1.011,2.755,1.934,4.242,1.757
		c0.09-0.011,0.181-0.013,0.271-0.022c1.466,1.812,4.031,2.688,6.324,2.058c0.027-0.007,0.053-0.019,0.08-0.026
		c0.064,0.027,0.13,0.052,0.194,0.079c-1.232,0.946-2.192,2.06-3.524,3.179c-0.115-0.006-0.227-0.017-0.345-0.017
		c-2.73,0-4.493,1.496-5.296,3.43c-0.772,0.424-1.53,0.872-2.232,1.39c-2.782,2.051-5.799,3.666-8.59,5.723
		c-3.437,2.532-6.852,5.376-10.977,6.672c-0.71,0.223-1.32,0.535-1.841,0.91c-1.042-0.37-2.275-0.394-3.659,0.09
		c-4.35,1.52-8.949,0.773-13.449,0.405c-5.536-0.453-10.997,0.265-16.432,1.305c-5.585,1.068-11.233,3.013-16.452,5.248
		c-2.606,1.116-5.042,2.907-7.618,4.212c-2.137-0.82-4.626-0.481-6.303,1.707c-1.846,0.298-3.175,1.28-3.988,2.565
		c-0.686,0.233-1.312,0.452-1.691,0.664c-2.911,1.624-5.66,3.774-8.272,5.832c-2.055,1.619-3.69,3.671-5.073,5.918
		c-1.853,0.416-3.494,1.706-4.162,4.085c-0.442,1.574-1.611,2.833-2.544,4.221c-2.135,0.194-4.084,1.512-4.706,4.279
		c-1.525,6.787-6.726,17.416-2.395,24.099c-0.381,2.687-0.72,5.385-2,7.718c-0.996,1.814-0.979,3.574-0.356,5.053
		c-1.081,1.633-1.755,3.483-2.237,5.381c-0.28,1.102-0.335,4.344-1.571,4.809c-2.271,0.855-4.626,2.933-4.412,5.646
		c-0.105,0.127-0.228,0.276-0.382,0.469c-0.966,1.113-1.619,2.203-2.146,3.576c-1.007,2.625-0.999,5.319-0.964,8.095
		c0.013,1.049,0.286,1.978,0.727,2.778c-0.152,1.687-0.087,3.268,0.202,5.051c0.265,1.639,1.216,2.655,2.423,3.161
		c0.097,1.164,0.89,2.26,2.398,2.26c1.648,0,2.448-1.306,2.411-2.583c0.762-0.396,1.434-0.945,1.906-1.644
		c0.021-0.031,0.043-0.065,0.063-0.097c0.192,0.045,0.396,0.073,0.619,0.073c2.328,0,2.966-2.601,1.932-4.05
		c0.257-0.383,0.505-0.734,0.734-1.029c0.054-0.069,0.119-0.148,0.188-0.231c0.356,0.746,1.066,1.311,2.146,1.311
		c2.116,0,2.833-2.146,2.17-3.626c0.357,0.229,0.795,0.376,1.33,0.376c2.072,0,2.805-2.062,2.213-3.538
		c0.067-0.13,0.137-0.258,0.191-0.396c0.322,0.028,0.637,0.053,0.929,0.064c0.138,0.006,0.275-0.005,0.413-0.004
		c0.374,2.853,0.488,5.752,0.504,8.624c0,0.121,0.013,0.239,0.021,0.359c-0.79,1.015-1.27,2.278-1.271,3.641
		c0,0.053-0.001,0.105-0.002,0.158c-0.224,0.334-0.41,0.691-0.562,1.065l-0.007,0.018c-0.15,0.373-0.265,0.761-0.344,1.157
		c0,0.001,0,0.002,0,0.002c-0.186,0.39-0.338,0.796-0.442,1.219c-2.796,1.603-3.678,5.419-2.073,8.159
		c0.491,0.839,1.154,1.5,1.913,1.984c0.007,0.08,0.008,0.155,0.018,0.237c0.218,1.78,0.204,3.552,0.123,5.322
		c-1.042,0.545-1.869,1.55-2.194,3.099c-0.549,2.615-1.125,5.155-1.394,7.815c-0.026,0.257-0.012,0.488,0.007,0.716
		c-1.654,1.23-1.168,4.548,1.458,4.548c0.661,0,1.179-0.217,1.569-0.551c0.133,0.111,0.268,0.221,0.396,0.336
		c0.568,0.5,1.187,0.924,1.85,1.284c0.31,0.813,0.754,1.57,1.4,2.216c2.501,2.501,6.584,2.019,9.786,2.215
		c5.483,0.336,6.113-6.631,2.523-9.317c-1.103-0.825-2.276-1.451-3.493-2.07c0.46-1.437-0.273-3.299-2.198-3.354
		c-0.247-4.111,0.67-8.155,0.167-12.258c-0.1-0.813-0.355-1.521-0.719-2.128c1.213-1.038,2.255-2.269,2.868-3.719
		c0.708-1.674,1.059-3.343,1.222-5.064c0.904-0.939,1.524-2.217,1.628-3.839c0.065-1.014,1.271-2.608,2.198-3.941
		c1.722-0.7,3.266-1.9,4.667-3.487c1.558-1.765,2.697-4.118,4.078-6.169c1.725-0.205,3.338-1.127,4.238-2.874
		c1.285-2.494,3.112-4.547,4.62-6.739c2.715,0.412,5.451-0.736,5.985-4.194c0.645-4.169,2.304-7.036,4.114-10.768
		c0.314-0.647,0.576-1.303,0.815-1.961c1.4,0.081,2.859-0.425,4.141-1.74c1.895,0.705,3.892,1.04,6.064,1.238
		c4.55,0.415,8.737,1.034,13.207,2.112c4.257,1.027,9.176,2.429,13.577,1.871c0.725-0.056,1.436-0.185,2.139-0.351
		c0.088,0.059,0.159,0.109,0.26,0.175c1.736,1.016,3.379,1.386,5.371,1.6c0.016,0.002,0.03,0.002,0.046,0.004
		c-1.162,5.341,0.291,11.827,0.832,16.762c0.477,4.352,1.283,8.636,2.539,12.83c0.897,2.999,2.354,5.862,3.285,8.863
		c-0.766,2.56-0.609,5.068-0.246,7.648c-1.029,1.92-2.429,3.805-2.429,6.121c0,1.752,0.657,3.248,1.362,4.802
		c0.412,0.908,1.832,1.937,1.888,2.948v6.232c-0.464,0.836-0.746,1.774-0.75,2.768c-0.015,3.642,1.448,7.386,4.516,9.517
		c1.575,1.095,2.957,1.403,4.851,1.551c0.356-0.005,0.704-0.043,1.048-0.103c1.316,0.623,2.893,0.791,4.431,0.571
		c0.705-0.02,1.372-0.187,2-0.5c3.907-1.482,5.236-5.049,3.586-8.814c-1.761-4.017-5.035-7.083-7-11
		c-0.204-0.406-0.434-0.765-0.681-1.084V218.5c0-1.031-0.216-1.922-0.586-2.677c1.363-1.432,1.854-3.556,1.511-5.51
		c0.354-0.432,0.575-0.973,0.575-1.563c-0.001-1.188-0.028-2.412-0.281-3.583c0.356-0.386,0.681-0.846,0.962-1.389
		c3.49-6.742,3.736-14.254,5.561-21.491c1.03-4.087,2.436-8.024,3-12.22c0.562-4.166,0.564-8.689,2.439-12.539
		c0.424-0.87,0.624-1.727,0.655-2.546c0.668-0.303,1.295-0.758,1.844-1.393c1.878-1.078,3.393-2.293,4.636-3.67
		c0.323-0.129,0.645-0.287,0.963-0.489c3.317-2.107,5.859-4.529,7.902-7.902c0.679-1.121,0.939-2.223,0.896-3.251
		c0.687-0.48,1.299-0.92,1.665-1.285c1.76-1.754,1.957-4.109,1.224-6.147c0.88-1.381,1.781-2.758,2.565-4.196
		c0.134-0.206,0.276-0.4,0.399-0.621c-0.017-0.007-0.033-0.014-0.05-0.021c0.234-0.462,0.456-0.932,0.655-1.412
		c0.146-0.354,0.246-0.699,0.316-1.038c1.828-0.957,3.486-2.343,4.524-4.039c1.176-1.921,1.96-3.978,3.439-5.698
		c2.043-2.375,4.401-4.449,6.272-6.974c2.306-3.112,2.991-6.161,3.317-9.972c0.312-3.651,2.802-6.981,3.322-10.763
		c2.369-0.567,4.346-2.436,4.271-5.612c-0.09-3.816-0.65-7.566-1.283-11.306c1.58-0.714,2.856-2.082,3.319-3.849
		c0.113-0.349,0.161-0.53,0.147-0.546c0.121-0.222,0.262-0.431,0.398-0.644c-0.047,0.135,0.635-0.71,0.716-0.793
		c0.396-0.406,0.824-0.78,1.246-1.157c1.621-1.447,3.3-2.786,4.698-4.462c0.73-0.876,1.246-1.875,1.511-2.907
		c0.454-0.187,0.902-0.389,1.337-0.627c3.594-1.977,5.683-4.773,7.841-8.18C245.934,42.867,244.555,39.837,242.129,38.271z"/>
</g>
<g id="Layer_1_2_">
	<g>
		<g id="Layer_1_1_">
			<g>
				<g id="Layer_1_3_">
					<g>
						<path fill="none" stroke="#373535" stroke-width="1.5" stroke-miterlimit="10" d="M163.231,211.406
							c0.214-0.652,0.427-1.523,0.641-2.614c0.237-1.21,0.32-1.939,0.249-2.188l-0.018-0.142c-0.023-0.356,0.172-0.967,0.587-1.833
							l0.445-0.925c0.189-0.07,0.343-0.189,0.462-0.355s0.178-0.355,0.178-0.569l0.018-0.018l0.036-0.231l0.018-0.018l0.018-0.035
							c0.083-0.178,0.137-0.374,0.16-0.587c0.106-0.415,0.226-0.801,0.356-1.156l0.124-0.179l0.071-0.159l0.035-0.054l0.018-0.071
							c0.475-1.695,0.753-3.344,0.836-4.944v-0.32c0-0.285-0.095-0.522-0.284-0.712c0.189-1.707,0.284-2.84,0.284-3.397v-0.142
							l0.961-3.914l0.018-0.48l1.388-4.18l0.054-0.32c-0.013-0.071,0.041-0.296,0.159-0.676c0.131-0.475,0.309-0.99,0.534-1.547
							c0.143-0.226,0.278-0.492,0.409-0.801c0.143-0.071,0.243-0.137,0.302-0.195c0.19-0.19,0.285-0.428,0.285-0.712
							c0-0.118,0.041-0.32,0.124-0.604c0.096-0.202,0.143-0.374,0.143-0.516v-0.019c0.249-1.838,0.403-3.059,0.463-3.664l0.053-0.16
							c0.38-1.672,0.569-3.854,0.569-6.546v-0.427c0.023-0.201,0.131-0.599,0.32-1.191c0.403-1.34,0.635-2.17,0.693-2.49
							l0.125-0.124c0.189-0.19,0.284-0.421,0.284-0.694l-0.018-0.267c0.403-1.411,0.729-2.365,0.979-2.863
							c0.688-1.447,1.803-2.692,3.344-3.735c0.249-0.179,0.392-0.428,0.427-0.747c0.06,0,0.148-0.024,0.267-0.071h-0.018
							c0.664-0.356,1.411-1.085,2.241-2.188c0.558-0.817,0.884-1.304,0.979-1.458l0.267,0.16c0.202,0.095,0.415,0.124,0.641,0.089
							c0.226-0.048,0.415-0.16,0.569-0.338c0.462-0.546,0.919-1.233,1.369-2.063c0.179,0.118,0.355,0.178,0.534,0.178h0.035
							c0.332,0,0.593-0.137,0.783-0.409c1.031-1.363,2.069-2.977,3.112-4.838l1.191-2.171c0.439,0.036,0.766-0.142,0.979-0.533
							c1.613-3.095,2.604-5.508,2.971-7.239c0.249,0,0.456-0.06,0.622-0.178l0.48-0.355c0.51-0.617,0.901-1.418,1.174-2.402
							c0.273-0.937,0.463-2.11,0.569-3.521l0.036,0.018c0.284,0.119,0.568,0.112,0.854-0.018l0.355-0.178
							c0.214-0.106,0.374-0.272,0.48-0.498c0.095-0.225,0.106-0.45,0.036-0.676c-0.119-0.391-0.179-0.753-0.179-1.085
							c0.024-0.51,0.154-0.937,0.392-1.281c0.284-0.451,0.51-0.688,0.676-0.711l2.206,0.729c0.32,0.118,0.622,0.071,0.907-0.143
							c0.272-0.178,0.408-0.445,0.408-0.8c0.013-0.854-0.236-1.731-0.746-2.633l-0.179-0.285c0.309-0.118,0.517-0.332,0.623-0.64
							c0.38-1.198,0.919-2.514,1.618-3.949c0.273,0.036,0.528-0.018,0.766-0.16c0.474-0.368,0.942-0.907,1.404-1.619
							c0.428-0.664,0.908-1.577,1.441-2.739c0.106,0.036,0.22,0.054,0.338,0.054h0.267c0.368,0,0.646-0.154,0.836-0.463
							c0.272-0.427,0.587-0.895,0.942-1.405h0.179c0.355,0,0.634-0.148,0.836-0.444c0.13-0.237,0.237-0.498,0.32-0.783
							c0.106-0.427,0.201-0.806,0.284-1.138c0.071-0.261,0.278-1.162,0.623-2.704c0.153,0.036,0.361,0.054,0.622,0.054
							c0.249,0,0.439-0.018,0.569-0.054c0.035-0.023,0.172-0.077,0.409-0.16c0.237-0.154,0.392-0.445,0.462-0.872l-0.07-0.373
							c0-1.755,0.035-3.143,0.106-4.163c0.296,0.202,0.61,0.237,0.942,0.107c0.403-0.154,0.617-0.445,0.641-0.872
							c0.166-2.799,0.498-5.075,0.996-6.831c0.237-0.095,0.409-0.249,0.516-0.462l-0.018-0.018c0.178-0.237,0.332-0.498,0.463-0.783
							l1.707-2.881l0.249,0.018c0.486,0,0.931-0.184,1.334-0.552l0.284-0.516c0.143-0.735,0.231-1.613,0.268-2.632
							c0.106-0.142,0.166-0.291,0.178-0.445l0.035-0.036c0.19-0.213,0.267-0.48,0.231-0.8l-0.267-1.903l0.178,0.018
							c0.249,0,0.486-0.101,0.712-0.302c0.189-0.189,0.284-0.421,0.284-0.693c0-0.273-0.095-0.51-0.284-0.711v-0.036l-0.09-0.302
							c-0.106-0.7-0.159-1.215-0.159-1.547c0-0.071,0.059-0.504,0.178-1.298l0.089-0.089c0.201-0.214,0.29-0.475,0.267-0.783
							c-0.06-0.486-0.089-1.287-0.089-2.401l-0.018-0.48c0-0.438,0.047-0.836,0.142-1.191c0.392,0.024,0.688-0.137,0.89-0.48
							c0.83-1.328,1.619-2.656,2.366-3.984h0.088c0.333,0,0.605-0.143,0.818-0.427c0.356-0.51,1.115-1.791,2.277-3.842
							c0.664-0.877,1.322-1.316,1.975-1.316l0.195,0.018c0.32,0.06,0.604-0.018,0.854-0.231c0.249-0.225,0.356-0.498,0.32-0.818
							v-0.143c0-1.043,0.747-2.063,2.241-3.059c0.451-0.297,1.826-1.091,4.127-2.384l0.143-0.071
							c0.498-0.403,1.02-1.014,1.564-1.833c0.439-0.664,0.99-1.624,1.654-2.881c0.641-1.257,1.104-2.253,1.388-2.988
							c0.332-0.89,0.504-1.654,0.516-2.294c0-0.676-0.207-1.221-0.622-1.637c-0.403-0.415-0.948-0.622-1.637-0.622
							c-0.45,0.011-1.067,0.118-1.85,0.32l1.245-1.316c1.008-1.352,1.512-3.219,1.512-5.603l-0.018-0.249
							c-0.332-1.257-0.528-2.218-0.587-2.882c0.688-1.672,1.043-3.071,1.067-4.198c0-1.435-0.397-2.543-1.192-3.326
							c-0.806-0.794-1.938-1.18-3.396-1.156c-1.068,0.024-2.426,0.356-4.074,0.996c-2.881,1.103-7.056,3.362-12.522,6.777
							c-0.142,0.036-0.267,0.107-0.373,0.214c-1.565,0.486-2.639,0.741-3.22,0.765c-4.648-0.877-7.328-1.322-8.04-1.334
							c-3.569-0.012-6.884,0.966-9.942,2.935c-4.115,2.917-7.05,4.938-8.805,6.065c-0.534-0.06-1.032-0.089-1.494-0.089
							c-1.506,0-3.665,0.22-6.475,0.658c-2.063,0.415-3.7,0.794-4.909,1.139c-1.542,0.438-2.811,0.931-3.807,1.476
							c-1.423,0.604-3.777,1.103-7.062,1.494c-0.938,0.107-1.803,0.231-2.598,0.374h-5.869c-0.332,0-0.67,0.368-1.015,1.103
							c-0.414,0.877-0.675,2.028-0.782,3.451c-0.118,1.601,0.457,3.291,1.726,5.069c1.316,1.826,3.089,3.35,5.318,4.571
							c2.324,1.423,4.263,2.289,5.816,2.597c0.392,0.107,0.836,0.178,1.334,0.213c-1.293,0.641-2.212,1.334-2.757,2.082
							c-0.19,0.403-0.812,0.747-1.867,1.032c-1.245,0.344-2.141,0.628-2.687,0.854c-0.38,0.154-0.587,0.427-0.623,0.818
							c-0.035,0.403,0.113,0.717,0.445,0.943l0.035,0.018c-0.771,0.474-1.689,0.883-2.757,1.228
							c-0.201,0.071-0.367,0.195-0.498,0.374c-0.118,0.166-0.178,0.362-0.178,0.587v0.178c-0.427,0.296-1.031,0.611-1.814,0.943
							c-0.462,0.189-0.913,0.338-1.352,0.444c-0.368,0.083-0.616,0.119-0.747,0.107c-0.226,0-0.427,0.065-0.604,0.196
							c-0.179,0.13-0.297,0.302-0.356,0.516c-0.118,0.38-0.041,0.711,0.231,0.996l-2.135,0.534c-0.379,0-0.67,0.166-0.871,0.498
							c-0.189,0.344-0.184,0.682,0.018,1.014c0.166,0.284,0.35,0.516,0.552,0.693l-0.355,0.356l-0.268,0.213
							c-0.189-0.19-0.415-0.285-0.676-0.285h-0.267c-0.272,0-0.504,0.095-0.694,0.285h-0.568c-0.759,0.024-1.299,0.065-1.619,0.125
							c-0.475,0.106-0.883,0.308-1.228,0.604c-0.272,0.344-0.551,0.676-0.836,0.997c-1.672,0.569-2.905,1.031-3.699,1.387
							c-0.392,0.178-0.587,0.486-0.587,0.925v0.143l-1.69,0.836c-0.023,0.012-0.101,0.065-0.23,0.16l-0.48,0.036l-4.554-0.036
							c-0.261,0-0.498,0.095-0.712,0.285c-0.095,0.119-0.166,0.231-0.213,0.338c-1.127,0.213-2.099,0.356-2.917,0.427
							c-0.071-0.047-0.154-0.083-0.249-0.107c-0.866-0.273-1.619-0.409-2.259-0.409c-1.257,0-2.692,0.32-4.305,0.961
							c-0.189,0.071-0.338,0.189-0.444,0.355c-0.047-0.225-0.16-0.409-0.338-0.551c-0.189-0.154-0.397-0.231-0.623-0.231h-8.058
							l-0.231,0.036c-5.502,1.316-13.092,3.071-22.768,5.265c-0.747,0.095-1.642,0.504-2.686,1.227
							c-0.807,0.51-1.453,0.86-1.939,1.05c-0.45,0.142-0.783,0.261-0.996,0.356c-0.368,0.166-0.676,0.379-0.925,0.64
							c-0.83,0.676-2.224,1.221-4.18,1.636c-2.11,0.379-3.545,0.688-4.304,0.925c-1.589,0.711-4.257,2.265-8.004,4.66
							c-1.008,0.747-2.467,1.725-4.376,2.935c-0.64,0.107-1.298,0.427-1.974,0.96c-0.534,0.415-1.251,1.109-2.152,2.082
							c-1.47,1.648-3.202,3.937-5.194,6.866l-0.231-0.036c-0.285,0-0.521,0.095-0.711,0.285c-0.178,0.189-0.272,0.397-0.284,0.623
							c-0.048,0.213-0.356,0.865-0.925,1.957c-0.285,0.023-0.51,0.119-0.676,0.285c-0.19,0.213-0.285,0.451-0.285,0.711v0.054
							c-0.047,0.213-0.095,0.373-0.142,0.48c-0.32-0.024-0.587,0.101-0.801,0.374v-0.018c-0.368,0.462-0.925,1.394-1.672,2.793
							c-0.143,0.071-0.267,0.154-0.374,0.249c-1.032,0.676-1.915,1.387-2.65,2.134c-0.202-0.012-0.385,0.036-0.551,0.142
							c-0.19,0.095-0.326,0.231-0.409,0.409c-0.225,0.451-0.682,1.607-1.37,3.469c-0.415,1.15-0.694,1.986-0.836,2.508
							c-0.213,0.569-0.32,1.109-0.32,1.619v0.267c0,0.19,0.06,0.374,0.178,0.552l-0.036,0.623c-0.261,0.202-0.392,0.468-0.392,0.8
							v0.267h-0.018l0.018,0.071c-0.024,1.435-0.083,3.35-0.178,5.745c-0.071,0.131-0.106,0.273-0.106,0.428l-0.516,4.091v0.782
							c-0.178,0.189-0.273,0.409-0.285,0.658c-0.012,0.237,0.065,0.457,0.231,0.658l0.035,0.143c0,0.699-0.225,1.903-0.676,3.61
							c-0.166,0.7-0.374,1.352-0.623,1.957c-0.202,0.485-0.326,0.729-0.374,0.729c-0.189,0.189-0.284,0.42-0.284,0.693v0.267
							c0,0.451,0.201,0.765,0.604,0.943c0.13,0.047,0.273,0.07,0.427,0.07c-0.7,1.423-1.05,2.71-1.05,3.86l0.018,0.391
							c0.023,0.237,0.118,0.445,0.284,0.623c0.167,0.178,0.368,0.279,0.605,0.303v0.533c-1.067,1.435-1.69,3.095-1.868,4.98
							c-0.071,1.28-0.605,2.662-1.601,4.145l-0.018,0.018l-0.178,0.249c-0.19,0.214-2.004,2.123-5.443,5.728
							c-0.154,0.166-0.244,0.361-0.267,0.587c-0.024,0.237,0.023,0.451,0.143,0.641l0.035,0.035
							c-0.533,0.581-1.008,1.073-1.423,1.477c-1.447,1.708-2.17,3.421-2.17,5.141c0,0.415,0.036,0.818,0.106,1.21
							c0.047,0.166,0.107,0.296,0.178,0.391c-0.071,0.593-0.249,2.425-0.534,5.496c0.012,0.202,0.077,0.611,0.196,1.228
							c0.166,0.925,0.308,1.762,0.427,2.508c0.249,1.032,0.527,2.04,0.836,3.024h0.018c0.237,0.735,0.433,1.257,0.587,1.565
							l0.018,0.018l0.036,0.089l0.036,0.054c0.106,0.261,0.261,0.504,0.462,0.729c0.189,0.189,0.421,0.284,0.694,0.284h0.053
							l2.366,3.184c0.166,0.226,0.397,0.356,0.694,0.392c0,0.201,0.059,0.386,0.178,0.552c0.118,0.166,0.272,0.284,0.462,0.355
							c0.119,0.06,0.237,0.089,0.356,0.089c0.201,0,0.391-0.06,0.569-0.178c0.167-0.119,0.291-0.272,0.374-0.463l2.33-5.799
							l0.036,0.25c0.036,0.225,0.148,0.414,0.338,0.568l0.623,0.552c0.166,0.143,0.362,0.22,0.587,0.231
							c0.226,0.012,0.433-0.042,0.623-0.16c0.356-0.309,0.641-0.7,0.854-1.174c0.261-0.688,0.492-1.299,0.694-1.832l0.48-0.979
							l0.285,0.284c0.166,0.166,0.368,0.261,0.605,0.285c0.249,0.023,0.468-0.03,0.658-0.16c0.332-0.261,0.635-0.635,0.907-1.121
							c0.083-0.143,0.403-0.771,0.96-1.886l0.872-1.564l0.641,0.854c0.202,0.261,0.468,0.392,0.8,0.392h0.445
							c0.308,0,0.563-0.119,0.765-0.356c0.189-0.213,0.267-0.486,0.231-0.817l-0.018-0.143c0-0.486,0.178-1.056,0.533-1.708
							l0.285-0.658c0.071,0.023,0.196,0.023,0.374,0c0.474-0.106,0.896-0.355,1.263-0.747c-0.095,1.104-0.219,2.324-0.373,3.664
							c-0.083,0.166-0.125,0.326-0.125,0.48v0.836c-0.344,3.428-1.85,7.536-4.518,12.327c-0.273,0.059-0.48,0.213-0.623,0.462
							c-0.071,0-0.143,0.089-0.213,0.267c-0.546,0.581-0.818,1.192-0.818,1.833c0.036,0.817,0.462,2.021,1.281,3.61
							c0.854,1.897,1.381,3.214,1.583,3.948c0.048,0.735,0.125,1.447,0.232,2.135l-3.753,11.171l-0.053,0.32
							c0.012,0.664,0.119,1.547,0.32,2.65c0.143,0.723,0.403,1.915,0.783,3.575c0.059,0.225,0.178,0.408,0.355,0.551
							c0.189,0.143,0.397,0.214,0.623,0.214c0.676,0,1.713,0.137,3.113,0.409c0.142,0.059,0.32,0.112,0.534,0.16
							c0.237,0.984,0.391,1.565,0.462,1.743c0.202,0.498,0.527,0.913,0.978,1.245c2.645,1.506,4.91,2.259,6.795,2.259
							c0.451,0,0.901-0.112,1.352-0.338c0.237,0.226,0.528,0.338,0.872,0.338h0.018c1.636,0,3.113-0.303,4.429-0.907
							c0.759-0.284,1.363-0.676,1.814-1.174c0.498-0.558,0.748-1.18,0.748-1.868c-0.012-1.933-0.973-3.89-2.882-5.869
							c-0.747-0.735-1.387-1.293-1.921-1.673c-0.652-0.462-1.281-0.759-1.886-0.889c-0.794-2.324-1.411-4.293-1.85-5.905
							c-0.403-1.518-0.599-2.55-0.587-3.096c0.593-5.324,0.908-9.166,0.943-11.525c0.273-0.214,0.409-0.48,0.409-0.801H63.16v-0.676
							c0.047-0.51,0.368-1.66,0.96-3.451c0.534-1.636,0.984-2.887,1.352-3.753c0.569-1.352,1.168-2.662,1.796-3.931
							c1.067-1.969,2.235-4.145,3.504-6.528c1.233-2.359,2.087-3.984,2.562-4.873c1.672-3.463,2.982-7.613,3.931-12.451l0.018-0.179
							c0-0.201,0.053-0.479,0.16-0.836v-0.018l1.316-4.411c0.25-0.012,0.463-0.106,0.641-0.285c0.19-0.178,0.291-0.396,0.302-0.657
							l0.267-5.141c0.214-0.06,0.386-0.154,0.516-0.285c0.189-0.213,0.285-0.45,0.285-0.711v-0.178
							c0.047-0.202-0.006-0.463-0.16-0.783l-0.018-0.053c0.166-0.652,0.285-1.068,0.356-1.245c0.202-0.048,0.368-0.154,0.499-0.32
							c0.13-0.154,0.201-0.332,0.213-0.534c0.143-0.806,0.231-1.394,0.267-1.761c0.308-0.201,0.462-0.48,0.462-0.836
							c0-0.284-0.107-0.533-0.32-0.747c-0.036-0.462-0.172-1.975-0.41-4.536"/>
						<path fill="none" stroke="#373535" stroke-width="1.5" stroke-miterlimit="10" d="M55.138,184.512
							c0.048-0.64-0.042-1.689-0.267-3.148l-0.178-1.263c-0.261-0.023-0.48-0.124-0.658-0.302c-0.189-0.214-0.285-0.451-0.285-0.712
							c0.012-2.455-0.095-4.346-0.32-5.674c-0.249-0.083-0.469-0.226-0.658-0.427c-0.107-0.107-0.238-0.285-0.392-0.534
							c-0.261-0.474-0.498-1.079-0.711-1.814c-0.332-1.138-0.664-2.562-0.996-4.269c-0.368-0.119-0.593-0.38-0.676-0.783
							l-0.605-3.664c-0.106,0.249-0.302,0.421-0.587,0.516c-0.332,0.119-0.634,0.071-0.907-0.142l-0.374-0.285
							c-0.261-0.189-0.391-0.45-0.391-0.782v-2.668l0.089-0.552c-0.166-0.023-0.32-0.077-0.462-0.16l-0.267-0.178l-0.267-0.267
							c-0.309-0.427-0.451-1.002-0.427-1.726v-0.124l0.872-6.653c0.047-0.331,0.344-4.476,0.889-12.433
							c0.486-7.222,0.854-11.171,1.103-11.847l0.142-0.427c0.154-0.368,0.439-1.109,0.854-2.224
							c0.166-0.083,0.284-0.184,0.355-0.302l0.285-0.338c0.368-0.403,0.735-1.103,1.103-2.099c0.463-1.21,0.759-1.927,0.89-2.152"/>
						<path fill="none" stroke="#373535" stroke-width="1.5" stroke-miterlimit="10" d="M137.333,125.85
							c-0.438,0-0.74-0.196-0.906-0.587c-1.021-2.277-1.595-3.724-1.726-4.34h-0.089c-0.641-0.059-1.139-0.391-1.494-0.996
							c-0.309-0.534-0.433-1.126-0.374-1.779l0.267-1.334c-0.153,0.024-0.313,0.006-0.479-0.053
							c-0.19-0.059-0.344-0.172-0.463-0.338c-0.13-0.166-0.201-0.349-0.213-0.551l-0.019-0.942c0-0.973,0.077-1.844,0.231-2.615
							c-0.178,0.059-0.367,0.059-0.569,0c-0.213-0.06-0.385-0.178-0.515-0.356c-0.131-0.178-0.196-0.379-0.196-0.605v-1.618
							l0.053-0.32c0.474-1.328,0.96-2.645,1.458-3.949c0.45-1.162,0.676-1.749,0.676-1.761"/>
						<path fill="none" stroke="#373535" stroke-width="1.5" stroke-miterlimit="10" d="M132.976,103.704
							c0,0.012-0.226,0.599-0.676,1.761c-0.498,1.304-0.984,2.621-1.458,3.949l-0.053,0.32v1.618c0,0.226,0.065,0.427,0.196,0.605
							c0.13,0.178,0.302,0.296,0.515,0.356c0.202,0.059,0.392,0.059,0.569,0c-0.154,0.771-0.231,1.642-0.231,2.615l0.019,0.942
							c0.012,0.202,0.083,0.386,0.213,0.551c0.119,0.167,0.272,0.279,0.463,0.338c0.166,0.059,0.326,0.077,0.479,0.053l-0.267,1.334
							c-0.059,0.652,0.065,1.245,0.374,1.779c0.355,0.605,0.854,0.937,1.494,0.996h0.089c0.131,0.617,0.705,2.063,1.726,4.34
							c0.166,0.391,0.468,0.587,0.906,0.587"/>
						<path fill="none" stroke="#373535" stroke-width="1.5" stroke-miterlimit="10" d="M52.132,218.682l0.285,2.276
							c-0.024,1.411-0.314,3.125-0.872,5.141l-0.036,0.284c0,0.403,0.077,0.825,0.231,1.264c0.095,0.261,0.261,0.641,0.498,1.138
							c0.415,0.688,0.652,1.322,0.711,1.903l0.053,0.249c0.036,0.237,0.196,0.967,0.48,2.188"/>
						<path fill="none" stroke="#373535" stroke-width="1.5" stroke-miterlimit="10" d="M163.107,207.885
							c-0.012-0.226-0.154-1.447-0.427-3.664c-0.38-3.071-0.718-5.058-1.014-5.959c0.272-0.309,0.344-0.641,0.213-0.996
							c-0.035,0-0.054-0.32-0.054-0.961c0-0.9,0.065-2.573,0.196-5.016l0.035-1.689c0-1.175-0.06-2.283-0.178-3.327
							c0.035-0.106,0.054-0.207,0.054-0.302v-1.423l-0.054-0.32c-0.237-0.676-0.498-1.162-0.782-1.459l-0.036-0.035v-0.712
							c0-1.589,0.106-3.427,0.32-5.514c0.035-0.285-0.048-0.54-0.249-0.765c-0.166-0.19-0.38-0.303-0.641-0.338v-0.071
							c0-2.467,0.249-4.334,0.747-5.604l0.036-0.106l0.071-0.143l0.195-0.569l0.018-0.018v-0.018l0.019-0.036l0.035-0.106
							l0.018-0.035v-0.036l0.018-0.106v-0.053l0.019-0.036v-0.374c0-0.272-0.102-0.51-0.303-0.711
							c-0.214-0.189-0.45-0.284-0.712-0.284l-0.106,0.018c-0.035-0.356-0.054-0.741-0.054-1.156c0-0.807,0.036-1.435,0.107-1.886
							c0.32-0.083,0.551-0.261,0.693-0.533l0.124-0.268c0.107-0.153,0.173-0.35,0.196-0.586c-0.035-0.25-0.106-0.451-0.214-0.605
							c0.036-0.581,0.102-1.02,0.196-1.316c0.569-1.114,0.954-1.826,1.156-2.134c0.189-0.297,0.385-0.641,0.587-1.032
							c0.225-0.427,0.355-0.67,0.391-0.729v-0.019l0.019-0.035V156.8l0.035-0.054l0.054-0.106v-0.019
							c0.059-0.106,0.118-0.236,0.178-0.391c0.106-0.083,0.184-0.22,0.231-0.409l0.018-0.018l0.178-0.338
							c0.201,0.331,0.492,0.498,0.871,0.498h0.338c0,0.106,0.019,0.213,0.054,0.319c0.071,0.202,0.196,0.362,0.374,0.48
							c0.166,0.119,0.355,0.178,0.569,0.178l0.337-0.053c1.032-0.368,2.046-0.925,3.042-1.673l0.179,0.09
							c0.284,0.07,0.568,0.106,0.854,0.106c0.652-0.012,1.352-0.172,2.099-0.48c-0.012,0.143,0.018,0.291,0.089,0.444
							c0.178,0.392,0.48,0.588,0.907,0.588h0.267c0.486-0.024,1.222-0.262,2.206-0.712c0.937-0.427,1.755-0.884,2.454-1.369"/>
						<path fill="none" stroke="#373535" stroke-width="1.5" stroke-miterlimit="10" d="M173.584,60.072
							c0.249,0.036,0.848,0.119,1.797,0.25c0.688,0.095,1.292,0.195,1.813,0.302c0.558,0.249,1.086,0.575,1.584,0.979
							c0.189,0.166,0.409,0.249,0.657,0.249c1.625,0,3.309-0.385,5.052-1.157c2.396-1.114,3.914-1.749,4.554-1.903"/>
						<path fill="none" stroke="#373535" stroke-width="1.5" stroke-miterlimit="10" d="M141.834,81.879
							c-0.511,0.735-0.848,1.263-1.014,1.583c-0.096,0.166-0.131,0.338-0.107,0.516c-0.474,0.569-0.812,1.032-1.014,1.388
							c-0.237,0.427-0.379,0.865-0.427,1.316l0.018,0.142c-0.355,0.664-0.67,1.441-0.942,2.33l-0.036,0.125l-0.124,0.641
							c-0.119,0.071-0.196,0.125-0.231,0.16c-0.189,0.213-0.284,0.451-0.284,0.711v1.868c0,0.143,0.023,0.261,0.071,0.356
							l-2.046,2.917"/>
						<path fill="none" stroke="#373535" stroke-width="1.5" stroke-miterlimit="10" d="M62.591,209.236
							c0.889-3.083,1.506-5.028,1.85-5.834c1.553-4.067,3.842-7.743,6.866-11.028c3.368-3.106,5.953-5.775,7.755-8.004
							c0.783-0.712,2.265-2.532,4.447-5.461c0.023,0.261,0.13,0.48,0.32,0.658c0.19,0.178,0.416,0.267,0.676,0.267
							c0.272,0,0.51-0.101,0.711-0.303c0.202-0.201,0.302-0.438,0.302-0.711c-0.023-0.131,0.06-0.516,0.249-1.156
							c0.226-0.795,0.534-1.648,0.925-2.562l0.018-0.143c0.047-0.035,0.089-0.112,0.125-0.23c0.474-0.594,0.86-1.104,1.156-1.53
							c0.178,0.332,0.444,0.516,0.8,0.552h0.107c0.344,0,0.61-0.143,0.8-0.427c2.253-3.154,3.676-5.669,4.269-7.542
							c0.201-0.202,0.302-0.439,0.302-0.712l0.036-0.178c0.095-0.403,0.415-1.293,0.96-2.668l0.658-1.618h0.747
							c0.261,0,0.486-0.083,0.676-0.25c0.19-0.178,0.296-0.391,0.32-0.64c0.024-0.309,0.16-1.34,0.409-3.096
							c0.189,0.214,0.433,0.32,0.729,0.32h0.267c0.415,0,0.717-0.184,0.907-0.551l0.089-0.179c0.688-0.628,1.393-1.126,2.116-1.493
							v0.249c0,0.236,0.078,0.45,0.231,0.64c0.166,0.178,0.368,0.291,0.605,0.338c0.237,0.048,0.462,0.006,0.676-0.124
							c0.202-0.119,0.344-0.291,0.427-0.516c0.143-0.309,0.302-0.517,0.48-0.623c0.202-0.131,0.563-0.207,1.085-0.231h0.036
							c0.024,0.048,0.036,0.113,0.036,0.196c0.047,0.154,0.071,0.326,0.071,0.516l-0.054,0.622c-0.047,0.249,0,0.48,0.143,0.694
							c0.13,0.213,0.314,0.355,0.551,0.427c0.059,0.023,0.154,0.035,0.285,0.035c0.427,0,0.735-0.195,0.925-0.587
							c0.344-0.724,0.812-1.239,1.405-1.547c0.641-0.345,1.565-0.522,2.775-0.534h0.249l-0.534,1.245
							c-0.107,0.226-0.131,0.457-0.071,0.693c0.071,0.237,0.208,0.422,0.409,0.552c0.19,0.143,0.409,0.202,0.658,0.178
							c0.249-0.023,0.457-0.118,0.623-0.284c0.534-0.569,1.221-1.12,2.063-1.654l0.48-0.338c-0.036,0.106-0.053,0.208-0.053,0.303
							c0,0.261,0.095,0.498,0.285,0.711c0.213,0.189,0.45,0.285,0.711,0.285h0.178c0.237,0,0.451-0.077,0.64-0.231
							c0.214-0.119,0.41-0.255,0.587-0.409v1.156c0,0.272,0.101,0.51,0.302,0.711c0.19,0.19,0.427,0.285,0.711,0.285
							c1.186,0.023,2.283-0.243,3.291-0.801h0.125c0.036,0.178,0.053,0.409,0.053,0.693c0,0.285,0.095,0.522,0.285,0.712
							c0.201,0.202,0.438,0.303,0.711,0.303c0.296,0.023,0.604-0.048,0.925-0.214c0.059,0.131,0.142,0.249,0.249,0.355
							c0.178,0.202,0.409,0.303,0.694,0.303l0.391,0.213l0.516,0.143c0.403-0.012,0.877-0.095,1.422-0.249
							c0.333-0.095,0.89-0.278,1.672-0.551c0.13,0.012,0.202,0.023,0.213,0.035c0.545,0.712,1.168,1.056,1.868,1.031
							c0.485,0,1.174-0.088,2.062-0.267c0.368,0.024,0.724,0.196,1.067,0.517c0.297,0.284,0.635,0.367,1.014,0.248l2.26-0.711
							c0.261,0.237,0.504,0.521,0.729,0.854c0.214,0.285,0.486,0.427,0.818,0.427c0.427-0.023,0.83-0.178,1.21-0.462l0.979,0.284
							l0.035,0.16v0.018l-0.124,0.392c-0.083,0.261-0.065,0.516,0.053,0.765c0.119,0.249,0.309,0.415,0.569,0.498h0.035l0.356,5.105
							c0.012,0.226,0.101,0.427,0.267,0.604c0.023,5.099,0.148,8.864,0.373,11.295c0.024,0.38,0.202,0.646,0.534,0.801l0.267,6.048
							l0.036,0.23l0.178,0.623c0.118,0.379,0.367,0.616,0.747,0.711l0.373,4.198c0.012,0.225,0.106,0.433,0.285,0.622l0.355,0.356
							l0.178,0.142c0.249,1.163,0.456,2.194,0.623,3.096c0.047,0.225,0.154,0.409,0.319,0.551c0.166,0.154,0.362,0.237,0.588,0.249
							c0.272,1.21,0.593,2.473,0.96,3.789c-0.012,2.537-0.35,4.701-1.014,6.492c-0.795,1.969-1.204,3.575-1.228,4.82
							c0.023,0.51,0.255,1.346,0.693,2.508l0.143,0.268c-0.189,0.07-0.338,0.154-0.444,0.249c-0.19,0.189-0.291,0.409-0.303,0.657
							c-0.012,0.25,0.06,0.475,0.214,0.677l0.035,0.053c0.154,0.664,0.492,1.299,1.014,1.903c0.771,2.609,1.156,5.028,1.156,7.258
							c0,0.379-0.178,1.761-0.533,4.145v0.142c0.047,1.21,0.101,1.939,0.16,2.188c0.13,0.641,0.444,1.15,0.942,1.53
							c0.178,0.06,0.421,0.374,0.729,0.942c0.344,0.652,0.67,1.471,0.978,2.455c0.084,0.237,0.226,0.415,0.428,0.533
							c0.213,0.131,0.444,0.178,0.693,0.143l0.178-0.054l1.992,2.01c0.32,0.32,0.683,0.392,1.085,0.214
							c0.202-0.095,0.356-0.219,0.463-0.373h0.143l0.213-0.036c1.851,0.652,3.356,1.121,4.519,1.405
							c1.292,0.332,2.365,0.498,3.219,0.498l0.071,0.018c0.688,0,1.233-0.243,1.637-0.729c0.178-0.226,0.261-0.546,0.249-0.961
							l-0.071-0.552c0.178,0.071,0.469,0.226,0.872,0.463c0.344,0.214,0.557,0.326,0.64,0.338c0.356,0.095,0.682,0.106,0.979,0.035
							c0.213-0.059,0.521-0.201,0.925-0.427c0.309-0.178,0.552-0.468,0.729-0.871c0.071-0.166,0.207-0.593,0.409-1.28l0.267,0.053
							c0.332,0,0.599-0.131,0.801-0.392c0.237-0.332,0.278-0.67,0.124-1.014c0.107-0.403,0.16-0.8,0.16-1.191
							c0-0.332-0.041-0.611-0.124-0.836c-0.273-1.021-1.109-1.986-2.509-2.899c-0.106-0.32-0.319-0.534-0.64-0.641l-0.32-0.106
							l-0.018-0.019l-0.036-0.018l-0.018-0.018c-0.652-0.438-1.257-1.02-1.814-1.743c-0.237-0.261-0.438-0.516-0.604-0.765
							l-0.463-0.747l-0.267-0.231l-0.089-0.124c-0.06-0.048-0.137-0.154-0.231-0.32c-0.095-0.154-0.142-0.243-0.142-0.267
							c-0.06-0.166-0.148-0.303-0.268-0.409c0.107-0.38,0.024-0.706-0.249-0.979c-0.462-0.463-0.9-1.139-1.315-2.028
							c-0.19-0.415-0.351-0.817-0.48-1.209c-0.119-0.355-0.166-0.558-0.143-0.605c0-0.391,0.089-1.523,0.267-3.396l0.195-1.975
							l0.036-0.195c0.106-0.131,0.178-0.249,0.214-0.356c0.142-0.332,0.23-0.741,0.267-1.227c0.023-0.285,0.041-0.866,0.053-1.744
							c0-1.149-0.041-2.472-0.124-3.966"/>
						<path fill="none" stroke="#373535" stroke-width="1.5" stroke-miterlimit="10" d="M81.998,151.961
							c-0.083,0.166-0.125,0.356-0.125,0.569c0.059,0.581,0.314,1.239,0.765,1.975c0.296,0.463,0.889,1.316,1.778,2.562
							c0.19,0.296,0.463,0.433,0.818,0.409c0.332,0,0.605-0.143,0.818-0.427l0.32-0.48l0.462,2.099
							c0.059,0.261,0.202,0.469,0.427,0.623c0.237,0.154,0.486,0.201,0.747,0.142c0.439-0.106,0.83-0.326,1.174-0.658
							c0.226-0.213,0.522-0.587,0.89-1.12l0.445-0.516c-0.047,0.402-0.089,0.693-0.125,0.871v1.245l0.16,0.552l0.177,0.267
							c0.19,0.272,0.457,0.421,0.801,0.444h0.054c0.32,0,0.575-0.124,0.765-0.373l1.298-1.637l0.231,0.143
							c0.154,0.118,0.338,0.178,0.551,0.178l0.071-0.018c0.557-0.095,1.067-0.291,1.53-0.587c0.545-0.332,0.83-0.706,0.854-1.121
							c0.166-0.226,0.355-0.385,0.569-0.48c0.237-0.118,0.445-0.118,0.623,0"/>
						<path fill="none" stroke="#373535" stroke-width="1.5" stroke-miterlimit="10" d="M143.577,137.643
							c-0.143,1.233-0.403,2.668-0.783,4.305c-0.485,2.454-0.925,4.239-1.316,5.354c-0.035,0.131-0.053,0.249-0.053,0.355
							l-0.071,0.16c-0.095,0.19-0.131,0.386-0.106,0.587c0.035,0.202,0.118,0.38,0.249,0.534c-0.237,0.699-0.558,1.494-0.961,2.384
							l-0.195,0.213l-1.957,2.863c-0.189,0.273-0.231,0.57-0.124,0.89c0.095,0.32,0.302,0.528,0.622,0.623
							c0.06-0.023,0.249,0.137,0.569,0.48c0.415,0.438,0.807,0.972,1.174,1.601c0.392,0.569,0.635,0.955,0.729,1.156
							c0.296,0.545,0.409,0.996,0.338,1.352"/>
						<path fill="none" stroke="#373535" stroke-width="1.5" stroke-miterlimit="10" d="M164.441,155.466
							c1.612-3.107,2.579-4.963,2.899-5.568l0.089-0.195c0.475-0.676,1.073-1.648,1.797-2.917l0.817-1.37
							c0.428,0,0.735-0.201,0.926-0.604c1.363-3.154,2.217-5.982,2.561-8.484"/>
						<path fill="#373535" d="M244.467,34.601c-0.131,0.972-0.297,1.791-0.499,2.455c-0.236,0.759-0.562,1.411-0.978,1.957
							c-0.202,0.213-0.214,0.439-0.035,0.676c0.165,0.225,0.379,0.332,0.64,0.32c0.688,0,1.233,0.207,1.637,0.622
							c0.415,0.416,0.622,0.961,0.622,1.637c-0.225-0.213-0.551-0.326-0.978-0.338c-0.19,0-0.617,0.03-1.281,0.089
							c-0.486-0.047-2.099,0.409-4.838,1.37c-1.554,0.545-3.451,1.18-5.692,1.903c-2.751,0.237-4.648,0.42-5.691,0.551l-0.125,0.018
							c-1.043,0-1.612-0.006-1.707-0.018c-0.949-0.071-1.584-0.291-1.903-0.658c0.344-0.272,0.948-0.563,1.814-0.872
							c0.759-0.261,1.31-0.409,1.654-0.445c4.601-0.604,7.713-2.051,9.338-4.34c2.11-2.929,4.121-4.678,6.03-5.248
							c0.379-0.106,0.782-0.118,1.209-0.035C244.087,34.328,244.348,34.447,244.467,34.601z"/>
						<path fill="#373535" d="M243.772,22.754c0.795,0.783,1.192,1.892,1.192,3.326c-0.024,1.126-0.38,2.526-1.067,4.198
							c-0.143,0.356-0.475,0.711-0.996,1.067c-0.498,0.332-0.89,0.492-1.174,0.48c-0.202-0.012-0.623-0.172-1.263-0.48l-0.89-0.48
							c-1.364-0.865-2.432-1.648-3.202-2.348c-0.486-0.486-0.8-0.83-0.942-1.032c-0.249-0.367-0.392-0.776-0.427-1.227
							c0.035-0.356,0.142-0.706,0.32-1.05c0.178-0.842,0.503-1.713,0.978-2.615c1.648-0.64,3.006-0.972,4.074-0.996
							C241.834,21.575,242.967,21.96,243.772,22.754z"/>
						<path fill="none" stroke="#373535" stroke-width="1.5" stroke-miterlimit="10" d="M207.309,35.01
							c0.178-0.545,0.552-0.99,1.121-1.334c0.13-0.095,0.753-0.397,1.867-0.907c0.866-0.368,1.459-0.604,1.778-0.711
							c0.463-0.166,0.872-0.255,1.228-0.267c0.38,0.012,0.789,0.095,1.228,0.25c0.344,0.13,0.807,0.355,1.388,0.676
							c0.355,0.189,0.533,0.492,0.533,0.907c-0.023,0.403-0.219,0.694-0.587,0.871c-1.363,0.629-2.425,1.014-3.184,1.157
							C210.913,35.994,209.123,35.781,207.309,35.01c-0.308,0.154-1.399,0.658-3.272,1.512"/>
						<path fill="none" stroke="#373535" stroke-width="1.5" stroke-miterlimit="10" d="M188.365,60.072
							c-0.367,0.321-0.688,0.765-0.961,1.334c-0.178,0.367-0.414,1.008-0.711,1.921l-0.569,2.508l-0.018,0.463
							c0,0.201,0.06,0.391,0.178,0.569c0.106,0.167,0.255,0.285,0.444,0.356c0.403,0.178,0.765,0.106,1.085-0.213
							c0.013-0.012,0.096-0.107,0.249-0.285c-0.13,0.557-0.213,1.043-0.249,1.458v2.312c0,0.367,0.137,0.64,0.409,0.818
							c0.262,0.19,0.563,0.237,0.907,0.143l0.374-0.143c0.284,1.577,0.937,2.674,1.956,3.291l0.48,0.125h0.89
							c0.106,0,0.231-0.03,0.373-0.089c0.475,0.557,0.973,0.948,1.494,1.174c0.107,0.047,0.231,0.071,0.374,0.071
							c0.214,0,0.397-0.06,0.551-0.178c0.297-0.189,0.445-0.462,0.445-0.818V74.8c0.664,0.392,1.369,0.581,2.116,0.569l0.552-0.018
							l0.213-0.053c0.463,0.32,0.949,0.581,1.459,0.782c0.106,0.047,0.231,0.071,0.374,0.071c0.462,0,0.776-0.208,0.942-0.623
							c0.106-0.296,0.083-0.587-0.071-0.872l0.48,0.071c0.569-0.012,1.203-0.148,1.903-0.409c0.06,0.154,0.136,0.278,0.231,0.374
							c0.201,0.202,0.444,0.302,0.729,0.302c0.273,0,0.504-0.095,0.694-0.285v0.018l2.437-1.281
							c0.202-0.095,0.492-0.261,0.872-0.498c0,0.213,0.059,0.397,0.178,0.551c0.201,0.273,0.474,0.409,0.817,0.409
							c0.226,0,0.422-0.06,0.588-0.178c0.296-0.213,0.931-0.741,1.902-1.583c2.04-1.755,3.243-2.792,3.611-3.112"/>
						<path fill="none" stroke="#373535" stroke-width="1.5" stroke-miterlimit="10" d="M55.138,201.908
							c-0.913,0.521-1.625,1.44-2.134,2.757c-0.391,0.973-0.593,1.803-0.604,2.49"/>
						<path fill="none" stroke="#373535" stroke-width="1.5" stroke-miterlimit="10" d="M164.37,46.34
							c1.731-0.759,3.386-1.144,4.963-1.156c0.558,0.012,1.269,0.125,2.135,0.338c0.319,0.083,1.269,0.35,2.846,0.8
							c1.245,0.487,2.063,0.83,2.454,1.032c0.652,0.344,1.139,0.741,1.459,1.192c1.174,1.174,2.152,1.945,2.935,2.312
							c2.028,0.972,4.15,0.8,6.368-0.516"/>
						<path fill="none" stroke="#373535" stroke-width="1.5" stroke-miterlimit="10" d="M141.834,81.879
							c0.023-0.047,0.153-0.427,0.391-1.138c0.131-0.403,0.356-0.694,0.677-0.872"/>
						<path fill="none" stroke="#373535" stroke-width="1.5" stroke-miterlimit="10" d="M51.563,214.074
							c0.106,0.605,0.296,2.141,0.569,4.607"/>
						<path fill="none" stroke="#373535" stroke-width="1.5" stroke-miterlimit="10" d="M166.024,238.994
							c-0.438-0.485-1.073-1.073-1.903-1.761c-0.925-0.759-1.595-1.228-2.01-1.405"/>
						<path fill="none" stroke="#373535" stroke-width="1.5" stroke-miterlimit="10" d="M170.578,237.252
							c-0.355-0.629-0.771-1.233-1.245-1.814c-0.735-0.926-1.411-1.5-2.028-1.726"/>
						<path fill="none" stroke="#373535" stroke-width="1.5" d="M210.297,32.769c-0.379,0.392-0.563,0.919-0.551,1.583
							c0.012,0.83,0.51,1.316,1.493,1.458"/>
						<path fill="#373535" d="M215.028,33.533c0,0.475-0.172,0.877-0.516,1.21c-0.332,0.344-0.735,0.516-1.21,0.516
							c-0.474,0-0.883-0.172-1.228-0.516c-0.331-0.333-0.497-0.735-0.497-1.21c0-0.474,0.166-0.883,0.497-1.227
							c0.345-0.332,0.754-0.498,1.228-0.498c0.475,0,0.878,0.166,1.21,0.498C214.856,32.65,215.028,33.059,215.028,33.533z"/>
						<path fill="#FFFFFF" d="M214.868,32.573c0,0.13-0.047,0.237-0.142,0.32c-0.083,0.095-0.19,0.142-0.32,0.142
							c-0.119,0-0.226-0.047-0.32-0.142c-0.095-0.083-0.143-0.189-0.143-0.32c0-0.119,0.048-0.226,0.143-0.32
							c0.083-0.083,0.189-0.125,0.32-0.125c0.13,0,0.237,0.042,0.32,0.125C214.821,32.348,214.868,32.454,214.868,32.573z"/>
						<path fill="#FFFFFF" d="M213.534,32.342c0,0.19-0.095,0.285-0.284,0.285c-0.071,0-0.137-0.03-0.196-0.089
							c-0.059-0.047-0.089-0.113-0.089-0.196s0.03-0.148,0.089-0.196c0.06-0.06,0.125-0.089,0.196-0.089
							C213.439,32.057,213.534,32.152,213.534,32.342z"/>
					</g>
				</g>
			</g>
		</g>
	</g>
</g>
</svg>
